<svg width="75" height="57" viewBox="0 0 75 57" fill="none" xmlns="http://www.w3.org/2000/svg">
<g clip-path="url(#clip0_1_45050)">
<path d="M74.6667 56.375V0.375H0V56.375H74.6667Z" fill="#000066"/>
<path d="M67.025 23.6733C67.025 31.105 65.835 39.1317 56.175 42.9583C46.5384 39.1317 45.36 31.105 45.3134 23.6733H67.025Z" fill="#8FC5FF" stroke="white" stroke-width="0.501667"/>
<path d="M56.1634 42.9233C59.8356 41.6376 62.897 39.0296 64.75 35.6083H63.84C63.5717 35.5617 54.5767 34.6983 53.4917 34.2433C52.57 33.9167 49.0117 34.5583 47.3784 35.1533C49.1826 38.7908 52.3407 41.5761 56.175 42.9117L56.1634 42.9233Z" fill="#366CC9" stroke="black" stroke-width="0.501667"/>
<path d="M49.42 38.3617H49.9684C50.0967 38.3617 50.0967 38.3617 50.1434 38.2217C50.19 38.0817 50.33 38.1283 50.4234 38.175C50.505 38.2217 50.6917 38.175 50.7734 38.0817C50.8784 37.9883 50.8784 37.9883 50.9717 38.0817C51.0534 38.175 51.1 38.1283 51.205 38.0817C51.24 38.0817 51.4267 37.9883 51.4734 37.8483C51.5084 37.72 51.6484 37.6733 51.7067 37.7667C51.7417 37.86 51.8234 37.86 51.9284 37.86C52.01 37.86 52.01 37.895 52.01 38.035C52.01 38.1283 52.01 38.175 52.2434 37.9883C52.43 38.175 52.4767 38.0817 52.4767 37.895C52.4767 37.72 52.4767 36.985 52.3834 36.9383C52.29 36.8917 52.2434 36.5767 52.1967 36.355C52.1967 35.8883 52.1967 35.8883 51.7417 35.655C51.7417 35.5383 51.6484 35.48 51.275 35.48C51.3334 35.4333 51.275 35.305 51.1934 35.2467C51.1 35.2117 51.1 35.165 51.1934 34.9783C51.2867 34.9783 51.4734 34.9783 51.5084 34.8383C51.6017 34.7567 51.8817 34.7567 52.0567 34.8383C52.2434 34.9317 52.43 34.9317 52.745 34.8383L53.2934 34.57C53.5267 34.43 53.5617 34.3833 53.5617 34.2083C53.5617 33.7417 53.4334 33.2983 53.3284 33.065C53.2117 32.8317 53.2117 32.5983 53.0134 32.2017C52.8384 31.8283 52.8384 31.735 52.6634 31.5133C52.5584 31.42 52.5117 31.3733 52.5117 31.245C52.4982 31.0649 52.4144 30.8973 52.2784 30.7783C51.9284 30.4633 51.835 29.4133 51.6484 28.6433C51.555 28.1767 51.6484 27.1267 51.4734 26.9517C51.1467 26.7183 51.0067 26.765 50.7734 26.6833C50.5984 26.45 50.5517 26.0417 50.3767 25.6333C50.1434 25.68 50.0034 25.9017 49.875 25.9833C49.735 26.0883 49.6884 26.0883 49.6884 26.31C49.6884 26.4967 49.5484 26.7767 49.3734 27.1267C49.1867 27.5 48.7784 27.36 48.4517 27.8617C47.8217 27.0917 47.8217 26.8583 47.775 26.6367C47.775 26.4033 47.635 26.3567 47.2734 26.0417V25.3417C46.9467 25.1083 46.7717 25.1667 46.6317 25.3417C46.4917 25.4817 46.3984 25.7033 46.1767 25.8083C46.0834 25.9833 45.71 26.345 45.4417 26.8583C45.7217 30.9533 46.6317 35.06 49.4084 38.35L49.42 38.3617Z" fill="#5D3100" stroke="black" stroke-width="0.0466667"/>
<path d="M67.025 23.6733C67.025 20.8383 66.885 18.0967 66.9317 15.74C63.4999 14.4054 59.8454 13.7363 56.1634 13.7683C53.7484 13.7683 49 14.13 45.4067 15.7283C45.4884 18.0967 45.3134 20.8383 45.3134 23.6617L67.025 23.6733Z" fill="#FFFF00" stroke="white" stroke-width="0.501667"/>
<path d="M45.9083 26.905C46.025 27.0917 46.2467 27.4067 46.2583 27.605C46.3517 27.4183 46.4217 27.3483 46.4333 27.2433C46.4333 27.1267 46.585 26.9283 46.5267 26.8117C46.48 26.695 46.445 26.6133 46.5733 26.695C46.7017 26.7767 46.6783 26.9283 46.655 27.1383C46.5733 27.7217 46.34 27.8383 46.305 28.2233C46.6433 29.04 46.3867 29.3433 46.7717 30.16C46.83 30.1833 46.9817 30.125 47.0283 30.1367C47.2383 29.9967 47.3783 30.0317 47.67 30.1017C47.95 30.16 48.1017 30.3583 48.1017 30.545C48.1017 30.7317 48.1017 30.7667 48.1717 30.8717C48.23 30.965 48.335 31.14 48.3233 31.2683C48.2883 31.385 48.335 31.455 48.3817 31.5017C48.4167 31.56 48.3583 31.7117 48.335 31.7817C48.3 31.8517 48.3117 31.98 48.4517 32.155C48.5917 32.33 48.9183 33.0767 48.9183 33.5083C48.9183 33.9633 48.9533 34.1617 49.1283 34.2433C49.3033 34.325 49.3617 34.395 49.3383 34.5817C49.315 34.7567 49.42 35.7483 49.4433 35.9117C49.455 36.0633 49.525 36.0283 49.6067 36.11C49.6767 36.1917 49.7233 36.285 49.9567 36.285C50.2017 36.285 50.4233 36.2617 50.5633 36.285C50.7967 36.5767 50.9133 36.985 50.9717 37.23C51.03 37.4867 51.0183 37.8133 51.0883 37.8133C51.1817 37.8133 51.2633 37.8133 51.24 37.5217C51.2167 37.2183 51.1933 37.1717 51.0883 37.0083C50.9717 36.8567 50.9133 36.775 50.9717 36.6933C51.03 36.6 51.0417 36.46 51.03 36.3317C51.0067 36.215 50.96 36.0283 51.17 36.2617L51.485 36.6467C51.5433 36.7167 51.5667 36.88 51.555 37.0317C51.5433 37.1717 51.555 37.23 51.66 37.1483C51.7417 37.0783 51.835 37.2067 51.7767 37.3583C51.7417 37.51 51.8117 37.6033 51.9517 37.6617C52.0917 37.7083 52.15 37.7433 52.185 37.8483C52.22 37.9417 52.3367 38 52.3367 37.7783C52.3251 37.5051 52.2781 37.2345 52.1967 36.9733C52.1383 36.8333 52.0917 36.53 52.08 36.3433C52.0567 36.1683 52.0333 36.1217 51.9517 36.0983C51.87 36.0633 51.7883 35.9817 51.7767 35.9117C51.7767 35.83 51.695 35.795 51.6483 35.795C51.59 35.795 51.5433 35.76 51.5083 35.7017C51.485 35.6317 51.45 35.6317 51.3917 35.6317C51.3333 35.62 51.24 35.655 51.205 35.5617C51.1817 35.4683 51.135 35.3283 51.0767 35.2583C51.0183 35.1883 50.9717 35.1533 50.96 34.885C50.96 34.6167 50.96 34.5817 50.8667 34.4883C50.7733 34.395 50.6333 34.1383 50.575 34.045C50.5283 33.9283 50.4583 33.8233 50.4583 34.045C50.4583 34.2783 50.4583 34.395 50.61 34.4767C50.75 34.5583 50.785 34.5583 50.7267 34.6867C50.6567 34.8033 50.7267 34.885 50.75 34.9667C50.785 35.0483 50.82 35.13 50.75 35.2C50.68 35.2933 50.61 35.27 50.6217 35.1417C50.6222 35.0062 50.5859 34.8731 50.5167 34.7567C50.47 34.64 50.4117 34.57 50.3417 34.64C50.2717 34.6867 50.2133 34.6167 50.26 34.57C50.3183 34.5233 50.295 34.4883 50.26 34.4533C50.2367 34.43 50.2133 34.3833 50.2717 34.3133C50.33 34.2433 50.33 34.2083 50.295 34.045C50.26 33.8817 50.0033 33.0417 49.8867 32.855C49.77 32.6567 49.7817 32.5283 49.9217 32.7033C50.0733 32.89 50.2133 33.0533 50.2367 33.2167C50.2367 33.38 50.2717 33.4733 50.3183 33.52C50.3767 33.5783 50.4 33.5667 50.435 33.4267C50.435 33.2983 50.5517 33.345 50.3883 33.1C50.2133 32.855 49.91 32.435 49.7817 31.6767C49.665 30.93 49.6183 30.4517 49.5017 30.2533C49.385 30.0433 49.35 29.9967 49.3383 29.81C49.3267 29.6233 49.3383 29.425 49.2567 29.285C49.175 29.145 49.1167 29.1217 49.105 29.3317C49.0933 29.5417 49.105 30.0317 49.175 30.1017C49.245 30.1833 49.1983 30.405 49.175 30.51C49.1517 30.6267 48.9767 30.755 49.3733 30.9883C49.525 31.0933 49.49 31.2217 49.49 31.2917C49.455 31.385 49.4317 31.3733 49.35 31.245C49.2683 31.1167 49.1867 31 49.105 30.9417C49.0233 30.8833 49 30.825 49.0233 30.65C49.0467 30.475 49.0583 30.3583 49.0233 30.3C48.9767 30.2533 48.9533 30.2883 48.9183 30.3933C48.895 30.4867 48.8833 30.7433 48.8133 30.8133C48.755 30.8833 48.755 30.8367 48.72 30.685C48.6733 30.5333 48.7317 30.2883 48.8133 30.02C48.895 29.7633 48.9533 29.46 48.8833 29.11C48.8133 28.76 48.8367 28.6433 48.58 28.3517C48.3 28.0483 47.985 27.7683 47.8683 27.4067C47.7283 27.0333 47.705 26.7067 47.5533 26.5433C47.422 26.3753 47.2644 26.2295 47.0867 26.1117V25.5633C47.0867 25.4233 47.0283 25.3533 46.8767 25.3767C46.725 25.4 46.62 25.5283 46.5267 25.7033C46.4333 25.89 46.3633 25.8083 46.2233 26.1117C46.0833 26.415 45.92 26.5783 45.92 26.905H45.9083Z" fill="#CF6200"/>
<path d="M46.76 30.37C46.8767 30.44 46.9584 30.475 47.11 30.405C47.2384 30.335 47.4017 30.125 47.6117 30.335C47.7891 30.5573 47.8876 30.8323 47.8917 31.1167C47.8917 31.385 47.8917 31.875 48.195 32.1433C48.4984 32.4117 48.65 32.7033 48.6617 33.0533C48.686 33.4074 48.7407 33.7586 48.825 34.1033C48.8717 34.2433 48.9417 34.4067 49.0467 34.5117C49.1284 34.605 49.21 34.8733 49.2217 35.1533C49.2334 35.445 49.1867 35.6317 49.2217 35.7833C49.2684 35.9233 49.2217 36.04 49.1284 35.9817C49.0117 35.9233 48.9884 35.865 48.9184 35.7483C48.8484 35.6317 48.8017 35.6433 48.86 35.83C48.9184 36.0167 49.0934 36.18 49.245 36.18C49.3967 36.18 49.4434 36.1917 49.5484 36.2967C49.6417 36.39 49.6534 36.4367 49.8167 36.4367C49.98 36.4367 50.0034 36.4367 50.1667 36.4833C50.3184 36.5183 50.3184 36.5067 50.4 36.4833C50.4817 36.4483 50.5634 36.53 50.6217 36.6817C50.6684 36.8333 50.82 37.265 50.82 37.3817C50.82 37.4983 50.82 37.615 50.9017 37.7317C50.9834 37.86 50.96 37.965 50.8667 37.9067C50.785 37.8367 50.7734 37.8483 50.715 37.8717C50.645 37.895 50.5984 37.8483 50.4934 37.7783C50.4 37.7317 50.4584 37.7433 50.365 37.6033C50.2717 37.4517 50.2134 37.405 50.2134 37.5217C50.2134 37.6383 50.19 37.755 50.12 37.685C50.05 37.6267 50.015 37.6267 49.9567 37.685C49.8984 37.755 49.875 37.8017 49.805 37.685C49.735 37.5683 49.6534 37.5683 49.5717 37.5333C49.5134 37.5217 49.5134 37.5217 49.4784 37.4167C49.4434 37.3 49.3267 37.2767 49.245 37.2767C49.14 37.2767 49.0934 37.23 49.0817 37.16C49.0817 37.09 49.0117 37.0433 48.965 37.0083C48.9067 36.9733 48.9417 36.8917 48.93 36.81C48.93 36.7283 48.8484 36.7517 48.8017 36.74C48.7434 36.7167 48.72 36.7283 48.72 36.6C48.72 36.4833 48.6617 36.4483 48.6384 36.3667C48.5917 36.2733 48.6384 36.1917 48.6617 36.11C48.6734 35.9933 48.6617 35.9467 48.5917 35.8767C48.5217 35.7833 48.5917 35.7017 48.3934 35.5267C48.195 35.375 48.1017 35.515 48.0434 35.13C48.0098 34.6762 47.9156 34.2288 47.7634 33.8C47.6467 33.6833 47.5884 33.5667 47.4717 33.5317C47.355 33.4967 47.3084 33.5317 47.2967 33.2983C47.285 33.065 47.215 32.785 47.0634 32.645L46.795 32.3883C46.725 32.3417 46.69 32.225 46.795 32.0383C46.9 31.8283 46.8534 31.5483 46.8417 31.42C46.83 31.3033 46.795 31.1167 46.8184 30.9767C46.8417 30.8367 46.8184 30.6617 46.795 30.5683C46.76 30.4867 46.7134 30.4517 46.7717 30.37H46.76ZM49.6184 27.01C49.4634 27.2152 49.2785 27.3961 49.07 27.5467C48.8484 27.71 48.5684 27.8267 48.72 28.095C48.8834 28.3633 49.0117 28.3983 49.035 28.5967C49.07 28.8067 49.1284 28.9817 49.2684 29.0283C49.4434 29.075 49.5017 29.0517 49.5017 29.3783C49.5017 29.6933 49.5017 29.845 49.6417 29.9617C49.7817 30.0783 49.7584 30.2183 49.8284 30.51C49.8984 30.8133 49.8984 31.4667 50.085 31.91C50.26 32.3417 50.7034 33.1933 50.645 33.3567C50.5984 33.5317 50.5517 33.66 50.7267 33.87C50.925 34.0683 51.0417 34.3717 51.0767 34.5467C51.0767 34.7217 51.1117 34.78 51.31 34.7217C51.4394 34.6891 51.5568 34.6203 51.6484 34.5233C51.7067 34.4417 51.835 34.4533 52.01 34.5467C52.185 34.6517 52.4534 34.7333 52.6167 34.6517C52.7684 34.5467 52.85 34.4067 52.99 34.4067C53.2117 34.2433 53.2934 33.9167 53.34 33.8233C53.3867 33.73 53.3517 33.73 53.2584 33.6367C53.165 33.5433 53.2117 33.38 53.2 33.2283C53.1767 33.065 53.1184 32.82 52.9317 32.47C52.745 32.12 52.6167 31.7 52.5 31.595C52.3834 31.4783 52.3134 31.21 52.3017 31.0817C52.29 30.965 52.1384 30.8483 52.045 30.755C51.94 30.65 51.8584 30.5217 51.7417 29.9617C51.625 29.4133 51.555 29.0283 51.555 28.9117C51.555 28.8183 51.5317 28.8183 51.4384 28.7717C51.345 28.7367 51.2984 28.585 51.345 28.515C51.3567 28.4333 51.2984 28.3517 51.2634 28.2583C51.24 28.165 51.2634 27.99 51.3334 27.885C51.3917 27.7917 51.38 27.535 51.3217 27.3017C51.2634 27.0917 51.1934 26.905 50.9367 26.8583C50.6917 26.835 50.6334 26.765 50.5517 26.555C50.435 26.3567 50.3417 25.995 50.3184 25.9133C50.295 25.8317 50.2367 25.82 50.05 25.9833C49.8634 26.135 49.7934 26.1817 49.7934 26.485C49.7934 26.6833 49.84 26.7417 49.8984 26.8467C49.9567 26.9633 49.98 26.9983 50.015 27.29C50.0617 27.5817 50.33 28.06 49.9917 28.34C49.6417 28.5967 49.6884 28.6667 49.7 28.8533C49.7234 29.0517 49.6067 29.1683 49.5484 28.9117C49.4784 28.6317 49.5484 28.48 49.735 28.3517C49.9217 28.235 50.0967 28.06 49.9684 27.885C49.8564 27.6424 49.7892 27.3815 49.77 27.115C49.7584 26.9283 49.735 26.8583 49.6184 27.01Z" fill="#CF6200"/>
<path d="M46.8067 31.035L46.8417 31.42C46.8417 31.5483 46.8884 31.8283 46.7834 32.0267C46.69 32.225 46.7134 32.33 46.7834 32.3883H46.795C46.9934 32.33 47.0284 32.12 46.97 32.015C46.9449 31.9592 46.934 31.8981 46.938 31.8371C46.9421 31.7761 46.9611 31.717 46.9934 31.665C47.0517 31.5483 47.0517 31.49 46.9934 31.4083C46.935 31.3267 46.935 31.3267 46.9934 31.105C47.0634 30.9067 46.9117 30.9067 46.8067 31.035ZM48.8367 34.1033C48.8017 33.9633 48.6617 33.4033 48.6617 33.0533C48.65 32.7033 48.4867 32.4117 48.195 32.1433C47.9617 31.9333 47.915 31.595 47.8917 31.3267C47.7167 31.2217 47.6584 31.2683 47.67 31.4667C47.67 31.6767 47.9034 31.77 47.8684 32.085C47.8334 32.3883 47.8334 32.3183 47.985 32.47C48.1134 32.61 48.1834 32.7733 48.1017 32.82C48.02 32.8783 48.02 32.995 48.125 33.03C48.2417 33.0767 48.2417 33.1933 48.23 33.31C48.2184 33.415 48.335 33.4383 48.3817 33.5083C48.4517 33.59 48.4517 33.7883 48.3817 33.8933C48.335 34.01 48.3234 34.185 48.4284 34.0917C48.545 33.9867 48.5917 34.0917 48.6734 34.2317C48.7434 34.3483 48.8134 34.3133 48.9067 34.29C48.8731 34.2307 48.8458 34.1682 48.825 34.1033H48.8367ZM50.3534 36.8567C50.3067 36.9967 50.225 36.9617 50.155 36.8917C50.085 36.8217 50.0034 36.8217 50.0384 36.6817C50.0617 36.5533 50.0384 36.53 49.9567 36.46L49.9217 36.425H49.8284C49.6534 36.425 49.6417 36.39 49.5367 36.285C49.518 36.2685 49.4985 36.253 49.4784 36.2383V36.3317C49.4784 36.46 49.4784 36.425 49.3617 36.4717C49.245 36.5067 49.245 36.3433 49.2217 36.2383C49.2199 36.2147 49.216 36.1913 49.21 36.1683C49.1262 36.1496 49.0492 36.1081 48.9874 36.0484C48.9257 35.9887 48.8816 35.9131 48.86 35.83C48.8017 35.6433 48.86 35.6317 48.93 35.7483C49 35.865 49.0117 35.9 49.1167 35.9817C49.21 36.04 49.2567 35.9233 49.21 35.7833C49.2037 35.733 49.2037 35.682 49.21 35.6317C49.1925 35.5836 49.1598 35.5426 49.1167 35.515C48.9067 35.4333 48.9767 35.4217 48.9767 35.2583C49 35.1067 48.965 35.1067 48.8367 35.1883C48.72 35.27 48.72 35.1883 48.72 34.9317C48.72 34.6983 48.5567 34.6983 48.5217 34.8617C48.4867 35.0367 48.4167 34.92 48.3584 34.6867C48.3 34.4533 48.1834 34.3833 48.1834 34.6167C48.1834 34.815 48.1134 34.85 47.9967 34.7567L48.0434 35.1183C48.1017 35.5033 48.195 35.3517 48.3934 35.5267C48.58 35.69 48.5217 35.7833 48.5917 35.865C48.6617 35.9467 48.6734 36.005 48.6617 36.0983C48.6267 36.1917 48.5917 36.2733 48.6267 36.355C48.6617 36.4483 48.72 36.4717 48.72 36.6C48.72 36.7167 48.7434 36.705 48.8017 36.74H48.895L48.9767 36.6233C49.1284 36.4833 49.3267 36.6233 49.4084 36.8217C49.4784 36.9967 49.56 37.0433 49.6767 36.8917C49.7934 36.7517 49.7467 36.775 49.8634 36.9033C49.98 37.0433 50.0267 37.02 50.0267 37.02C50.0267 37.02 50.1434 36.9733 50.2367 37.0433C50.3184 37.1133 50.3534 37.1017 50.5167 36.88C50.6684 36.6467 50.4467 36.7167 50.3767 36.8567H50.3534ZM50.7967 30.3467C50.8434 29.9967 50.8084 29.6583 50.9484 29.53C51.1 29.4133 51.2634 29.145 51.2634 29.6933C51.24 30.23 51.2167 30.195 51.1117 30.3233C50.995 30.4517 50.9017 30.4867 50.995 30.685C51.1234 30.8833 51.135 30.9183 51.1234 31.2217C51.1117 31.5367 51.1117 31.6767 51.2284 31.8283C51.3567 31.9917 51.3917 31.9917 51.4267 32.1783C51.4634 32.3781 51.5612 32.5616 51.7067 32.7033C51.8467 32.8433 52.01 33.1933 52.0217 33.45C52.045 33.7067 52.255 33.765 52.465 33.9517C52.675 34.1267 52.4184 34.2433 52.2667 34.1617C52.1034 34.0917 52.1617 34.1617 52.0684 34.2783C51.975 34.395 51.9517 34.4067 51.87 34.2083C51.7884 34.0217 51.52 33.8933 51.3917 33.8467C51.2634 33.8 51.1584 33.59 51.0417 33.38C50.9949 33.2974 50.9293 33.2268 50.8503 33.1742C50.7713 33.1215 50.681 33.0881 50.5867 33.0767C50.6334 33.205 50.6567 33.31 50.645 33.3567C50.5984 33.5317 50.5517 33.66 50.7267 33.87C50.925 34.0683 51.0417 34.3717 51.0767 34.5467C51.0767 34.7217 51.1117 34.78 51.31 34.7217C51.4369 34.6832 51.5528 34.6152 51.6484 34.5233C51.7067 34.4417 51.835 34.4417 52.01 34.5467C52.185 34.64 52.4534 34.7333 52.6167 34.64C52.7684 34.535 52.85 34.4067 52.99 34.4067C53.2117 34.2433 53.2934 33.905 53.34 33.8233C53.3867 33.7067 53.3517 33.7067 53.2584 33.625C53.165 33.5317 53.2117 33.3683 53.1884 33.2167C53.1884 33.0533 53.1184 32.82 52.9317 32.47C52.7334 32.12 52.6167 31.7 52.5 31.595C52.3834 31.4783 52.3017 31.21 52.3017 31.0817C52.2784 30.965 52.1384 30.8483 52.045 30.7433C51.94 30.65 51.8467 30.51 51.7417 29.9617C51.66 29.53 51.5784 29.1917 51.5667 29.0283C51.45 29.2033 51.3684 29.2617 51.3334 29.1217C51.275 28.9817 51.2284 28.9117 51.1584 29.005C51.1 29.0983 51.0767 28.9117 51.0767 28.83C51.0767 28.7483 51.0767 28.7483 50.9717 28.7483C50.8784 28.7483 50.9717 28.6317 50.9367 28.375C50.9017 28.1417 50.855 28.1183 50.8317 28.3983C50.7967 28.6783 50.6334 28.865 50.7034 28.9117C50.7617 28.9817 50.7267 29.11 50.6684 29.2967C50.6173 29.432 50.6173 29.5813 50.6684 29.7167C50.715 29.8333 50.645 30.09 50.6217 30.2883C50.5867 30.4867 50.75 30.6967 50.7967 30.3583V30.3467ZM47.9034 27.5233C47.7867 27.5233 47.705 27.64 47.775 27.99C47.8217 28.2233 47.6584 28.1767 47.5884 28.06C47.53 27.9433 47.4717 27.71 47.355 27.5117C47.2267 27.3133 47.285 27.64 47.2734 27.8383C47.25 28.0367 47.3784 28.0367 47.4834 28.1883C47.6 28.3517 47.5067 28.41 47.39 28.41C47.2734 28.41 47.3084 28.6667 47.3434 28.83C47.3784 29.005 47.3084 29.04 47.2267 28.9C47.11 28.7483 47.1917 28.55 47.2034 28.27C47.2267 28.0017 47.2384 28.06 47.0634 28.0017C46.8884 27.9317 46.9117 27.8967 46.9934 27.745C47.0517 27.5817 47.11 27.5117 47.0284 27.43C46.9584 27.3483 46.97 27.3017 47.0984 27.29C47.215 27.2667 47.1684 27.1733 47.285 27.15C47.4017 27.115 47.4484 27.15 47.46 26.9517C47.4717 26.7767 47.53 26.6833 47.6584 26.73C47.74 26.9983 47.8334 27.4067 47.9034 27.5233ZM49.5017 29.39C49.5017 29.7167 49.5017 29.8567 49.6417 29.9733C49.7817 30.09 49.7584 30.23 49.8284 30.5217C49.8984 30.825 49.8984 31.4783 50.085 31.9217L50.295 32.3883C50.3937 32.3052 50.4733 32.2017 50.5284 32.085C50.5634 31.9917 50.4234 31.7583 50.3184 31.5833C50.2017 31.3733 50.33 31.315 50.435 31.07C50.5517 30.8483 50.435 30.8367 50.2484 30.7667C50.085 30.7083 50.085 30.5333 49.9917 30.2883C49.8984 30.0317 49.91 29.9267 49.9684 29.775C50.0267 29.635 49.9917 29.53 49.8634 29.495C49.735 29.46 49.77 29.3783 49.8167 29.215C49.8634 29.0633 49.8984 29.0283 49.7 29.0633C49.56 29.11 49.525 29.145 49.4784 29.18L49.5017 29.39Z" fill="#00B800"/>
<path d="M51.3217 30.0433C51.2983 30.23 51.2983 30.335 51.2517 30.3933C51.205 30.4517 51.24 30.545 51.2867 30.65C51.345 30.7433 51.3567 30.86 51.3217 31.0467C51.275 31.2217 51.345 31.35 51.4383 31.3967C51.5317 31.4433 51.5783 31.3967 51.555 31.63C51.5451 31.7304 51.5577 31.8317 51.5921 31.9266C51.6264 32.0215 51.6815 32.1075 51.7533 32.1783C51.87 32.2717 51.9517 32.4233 51.9283 32.5283C51.9283 32.6217 52.01 32.7033 52.1267 32.7617C52.2433 32.8083 52.22 32.82 52.22 32.8783C52.22 32.9367 52.2667 32.9483 52.3833 32.9833C52.5 33.0183 52.6167 33.0883 52.7567 33.2633C52.8967 33.45 53.1067 33.5317 53.0717 33.345C53.0367 33.17 53.0717 33.0183 52.885 32.9367C52.6867 32.8433 52.5467 32.3883 52.4767 32.0733C52.3906 31.7635 52.2304 31.4792 52.01 31.245C51.975 31.0117 52.01 30.9067 51.87 30.8017C51.8099 30.7594 51.7606 30.7036 51.7261 30.6387C51.6917 30.5739 51.673 30.5018 51.6717 30.4283C51.6717 30.335 51.6017 30.195 51.5317 30.1483C51.4733 30.1133 51.4383 30.0433 51.4383 29.9383C51.4383 29.845 51.345 29.8567 51.3217 30.055V30.0433Z" fill="#5D3100"/>
<path d="M50.4817 38.525C50.8714 38.4653 51.2518 38.3555 51.6134 38.1983C51.8117 38.3267 52.1384 38.5017 52.2784 38.5017C52.01 38.56 51.8234 38.5367 51.765 38.4783C51.8 38.56 51.8817 38.7 51.9517 38.7117C51.6834 38.7117 51.3917 38.6417 51.2984 38.5483C51.065 38.6417 50.6917 38.665 50.4817 38.525ZM50.9834 38.875C51.0884 38.91 51.59 38.9917 51.66 38.9917C51.4967 39.1317 51.6367 39.2717 51.905 39.2483C51.7884 39.2717 51.625 39.3183 51.73 39.3417C52.0862 39.3373 52.4384 39.266 52.7684 39.1317C52.535 39.4233 51.4384 39.6917 50.9834 38.875ZM51.45 39.5867C51.655 39.5359 51.8704 39.5481 52.0684 39.6217C51.905 39.6917 51.5434 39.6917 51.4384 39.5983L51.45 39.5867Z" fill="#00D860"/>
<path d="M51.9517 39.5867C52.185 39.5517 52.885 39.7033 53.1183 39.5633C53.0367 39.785 52.6167 39.82 52.4533 39.7617C52.3017 39.7267 52.1617 39.6683 52.0567 39.6683C52.1267 39.6333 52.0333 39.6333 51.94 39.5867H51.9517Z" fill="black"/>
<path d="M52.1967 39.925C52.5511 39.9348 52.905 39.8915 53.2467 39.7967C53.445 39.8667 53.8767 39.9833 53.97 39.9717C53.7717 40.0883 53.3867 40.0183 53.27 39.9717C53.0985 40.0427 52.9136 40.0753 52.7282 40.0672C52.5427 40.0592 52.3613 40.0106 52.1967 39.925Z" fill="#00D860"/>
<path d="M52.5 40.03C52.7683 40.0883 53.0017 40.0533 53.2583 39.9717C53.34 39.995 53.5267 40.0417 53.7133 40.0417C53.83 40.1 53.9817 40.1933 54.145 40.2167C53.8509 40.2569 53.5516 40.2289 53.27 40.135C52.95 40.126 52.6317 40.1856 52.3367 40.31C52.3424 40.2546 52.3612 40.2013 52.3917 40.1546C52.4221 40.108 52.4632 40.0692 52.5117 40.0417L52.5 40.03Z" fill="#00D860"/>
<path d="M52.1967 38.7117C52.395 38.77 53.1533 38.735 53.515 38.56C53.6783 38.4783 53.7717 38.6067 53.5967 38.6533C52.99 38.8867 52.4883 38.9567 52.1383 38.77C51.9983 38.7 51.975 38.63 52.1967 38.7V38.7117Z" fill="black"/>
<path d="M55.8367 37.685C54.9151 38.1167 54.3201 38.245 53.0484 37.8483C52.9317 37.825 52.8501 37.8483 52.9784 37.93C53.2966 38.0676 53.6293 38.1694 53.9701 38.2333C54.1334 38.245 54.0751 38.315 53.9701 38.35C53.8767 38.3733 53.8534 38.4433 53.9817 38.3967C54.1101 38.3383 54.8917 38.315 55.2067 38.4783C55.3351 38.56 55.3701 38.5367 55.3584 38.4783C55.3467 38.4317 55.4167 38.3967 55.5217 38.385C55.6151 38.3733 55.6851 38.3383 55.6034 38.315C55.5217 38.28 55.5101 38.2567 55.5684 38.2333C55.6267 38.1983 55.6384 38.1633 55.5451 38.1517C55.4634 38.1283 55.3934 38.105 55.4751 38.07C55.5715 38.0277 55.6738 38.0002 55.7784 37.9883C55.8017 37.93 55.7667 37.755 55.8367 37.685Z" fill="#00D860"/>
<path d="M54.32 37.79C55.0435 37.8007 55.7469 37.5524 56.3034 37.09C56.49 37.2067 56.735 37.3233 56.875 37.3467C57.0034 37.37 57.1084 37.4867 56.91 37.4867C56.7117 37.4867 56.4434 37.405 56.3034 37.3467C55.7084 37.711 55.0167 37.886 54.32 37.8483C54.1917 37.8483 54.1567 37.79 54.32 37.8017V37.79Z" fill="black"/>
<path d="M52.7684 34.9433C52.955 35.0717 53.27 35.2817 53.6784 35.2467C53.8757 35.4046 54.1014 35.5234 54.3434 35.5967C54.0634 35.69 53.76 35.795 53.69 35.8767C53.5734 35.76 53.3984 35.7833 53.3634 35.7133C53.2467 35.83 53.2584 35.865 53.34 35.9233C53.6048 36.0021 53.8806 36.0375 54.1567 36.0283C54.2967 35.9817 54.355 36.11 54.2267 36.145C53.9117 36.2617 53.2934 36.145 53.0834 35.8067C52.85 35.4683 52.675 35.34 52.0917 35.655C52.0334 35.48 52.0334 35.4567 51.9167 35.4567C51.8 35.4567 51.59 35.305 51.7534 35.305C51.9167 35.305 52.3834 35.235 52.7684 34.955V34.9433Z" fill="#00D860"/>
<path d="M52.92 35.725C52.8034 35.7367 52.535 35.8883 52.4417 35.9C52.3367 35.9233 52.1617 36.0633 52.3367 36.0633C52.535 36.0633 52.7684 35.865 52.8967 35.865C53.025 35.865 53.0367 35.69 52.92 35.7133V35.725ZM53.5034 36.3083C53.4217 36.3317 53.1184 36.4017 53.0367 36.4017C52.955 36.4017 52.8617 36.4017 52.8734 36.4717C52.885 36.53 52.9084 36.5767 52.7684 36.5533C52.6517 36.53 52.5467 36.5883 52.5234 36.6233C52.4884 36.6583 52.465 36.6933 52.5934 36.705C52.71 36.705 52.78 36.74 52.9317 36.6583C53.0717 36.5883 53.2 36.5067 53.3517 36.495C53.5034 36.495 53.655 36.285 53.4917 36.32L53.5034 36.3083Z" fill="#00D860"/>
<path d="M53.0716 36.67C53.2 36.775 53.8416 36.9733 54.0633 36.9733C54.2966 36.9617 54.2616 37.055 54.0866 37.09C53.8883 37.1194 53.686 37.1065 53.493 37.0522C53.3 36.9979 53.1206 36.9034 52.9666 36.775C52.8266 36.6583 52.9666 36.6117 53.06 36.67H53.0716Z" fill="black"/>
<path d="M56.0934 37.0083C55.7056 37.1177 55.2969 37.1297 54.9034 37.0433C54.705 36.9733 54.5184 36.9733 54.67 37.1133C54.7867 37.2417 55.23 37.3233 55.4867 37.265C54.6 37.4633 54.3667 37.4517 54.1567 37.4167C53.8858 37.3838 53.6124 37.376 53.34 37.3933C53.2099 37.4143 53.0764 37.3982 52.955 37.3467C52.8734 37.2883 52.85 37.2183 53.0834 37.2417C53.3167 37.2533 53.3517 37.2183 53.1534 37.1833C52.9434 37.1483 52.675 37.23 52.9434 37.4167C53.2234 37.58 53.8067 37.3933 54.1917 37.51C54.5282 37.5976 54.8808 37.6031 55.2199 37.5259C55.559 37.4488 55.8745 37.2913 56.14 37.0667C56.175 37.0433 56.245 36.95 56.0934 36.9967V37.0083ZM53.69 36.2733C53.7134 36.3433 53.7134 36.39 53.69 36.4367C53.6667 36.4833 53.6784 36.5417 53.7484 36.4833C53.8184 36.425 53.865 36.3433 53.9584 36.39C54.04 36.425 54.2267 36.425 54.3084 36.4133C54.4017 36.4133 54.425 36.3783 54.3084 36.3317C54.2014 36.2858 54.0864 36.262 53.97 36.2617C53.9 36.2733 53.8067 36.2617 53.7484 36.2267C53.69 36.1917 53.6784 36.2267 53.69 36.2733Z" fill="#00D860"/>
<path d="M54.95 36.5067C54.8567 36.5067 54.67 36.4367 54.5884 36.39C54.495 36.355 54.355 36.355 54.4484 36.5067C54.5534 36.6467 54.985 36.705 55.1484 36.6467C55.3 36.5767 55.2417 36.5067 55.3817 36.6C55.545 36.6933 55.6967 36.7517 55.8134 36.7517C55.93 36.7517 55.965 36.7517 55.8484 36.6817C55.7317 36.6117 55.6617 36.6 55.6384 36.5417C55.615 36.4833 55.615 36.4367 55.7434 36.4833C55.86 36.5183 55.9767 36.5767 56.07 36.53C56.1634 36.4833 56.3267 36.3783 56.4784 36.3783L56.5017 36.285C56.2917 36.285 56.1517 36.3433 56.0934 36.355C56.0467 36.3783 55.93 36.4017 55.8134 36.3783C55.6967 36.355 55.5567 36.3433 55.5217 36.32C55.475 36.285 55.4867 36.2617 55.58 36.25C55.6734 36.2267 55.6967 36.1683 55.58 36.18C55.4634 36.2033 55.09 36.2033 54.9034 36.145C54.7284 36.0867 54.6467 36.075 54.5767 36.11C54.495 36.1333 54.5067 36.2267 54.6117 36.2267C54.7284 36.2267 54.985 36.2617 55.0784 36.3433C55.1484 36.425 55.1484 36.425 55.055 36.39C54.95 36.3433 54.7634 36.3667 54.95 36.5067Z" fill="#00D860"/>
<path d="M56.5017 36.285L56.4667 36.3783C56.6883 36.3783 57.2133 36.425 57.4 36.53C57.5633 36.4017 57.5283 36.355 57.6333 36.39C57.75 36.425 57.9133 36.4483 57.9833 36.425C58.0364 36.3946 58.0992 36.3862 58.1583 36.4017C58.2283 36.4017 58.3917 36.3783 58.4733 36.3317C58.5667 36.2733 58.7533 36.215 58.8583 36.215C58.9517 36.215 59.0917 36.18 58.8933 36.145C58.7067 36.11 58.4033 36.18 58.31 36.215C58.1933 36.25 57.9017 36.2733 57.7267 36.2733C57.5517 36.2733 57.3067 36.355 57.1083 36.3083C56.8983 36.2617 56.6183 36.285 56.49 36.285H56.5017Z" fill="#00D860"/>
<path d="M59.255 36.1917C58.905 36.4483 58.4617 36.5067 57.96 36.5417C57.8083 36.5417 57.855 36.5883 57.9833 36.6C58.52 36.6583 59.1267 36.46 59.3367 36.25C59.395 36.18 59.3833 36.0867 59.255 36.18V36.1917Z" fill="black"/>
<path d="M56.8284 36.7983C57.1171 36.8417 57.4019 36.908 57.68 36.9967C57.82 36.9733 57.855 36.95 57.8317 36.8917C57.7967 36.845 57.785 36.7983 58.03 36.8217H58.905C58.9984 36.7867 59.1734 36.6467 59.255 36.6467C59.045 36.6467 58.1467 36.6933 58.0417 36.6817C57.925 36.6817 57.8667 36.6817 57.7967 36.7283C57.7267 36.7633 57.6917 36.7867 57.5984 36.74C57.4817 36.705 57.3534 36.6583 57.2484 36.7283C57.1784 36.775 56.98 36.7283 56.8284 36.7983Z" fill="#00D860"/>
<path d="M58.905 36.8217C58.9867 36.7867 59.1734 36.6467 59.255 36.635C59.4184 36.6233 59.5817 36.6817 59.6634 36.705C59.745 36.7283 59.8384 36.705 59.78 36.635C59.7334 36.5767 59.78 36.4483 60.0134 36.4833C60.27 36.5067 60.3867 36.5533 60.6317 36.53C60.8767 36.5067 60.97 36.6817 61.4134 36.5067C61.39 36.6817 61.4717 36.6933 61.5533 36.6583C61.635 36.635 61.7283 36.635 61.8683 36.74C62.02 36.8567 62.8834 36.8567 63.0817 36.8217C63.2917 36.7867 63.385 36.8917 63.2334 36.9383C63.0817 36.985 63.0467 37.055 63.0817 37.1133C63.1167 37.16 63.1517 37.2183 62.965 37.195C62.7667 37.1717 62.7317 37.23 62.65 37.2883C62.5567 37.3583 62.5334 37.405 62.265 37.3467C62.0084 37.3 61.95 37.335 61.81 37.3467C61.67 37.37 61.635 37.3817 61.4834 37.335C61.2775 37.2609 61.0544 37.2487 60.8417 37.3C60.655 37.37 60.5267 37.4167 60.3517 37.37C60.1767 37.335 60.1767 37.3467 60.2817 37.2533C60.375 37.1367 60.3984 37.1367 60.6084 37.125C60.8184 37.1017 60.9584 37.0433 60.83 36.9617C60.6784 36.88 60.6433 36.8917 60.445 36.9733C60.2583 37.0667 60.165 37.1367 59.9433 37.02C59.7333 36.9033 59.64 36.915 59.4767 36.9617C59.3367 36.9967 59.1034 36.9033 58.905 36.8217ZM59.6167 37.1717C59.3367 37.2183 59.2667 37.0433 58.9867 37.0667C58.8934 37.09 58.73 37.2067 58.9517 37.1833C59.1733 37.1717 59.4184 37.2883 59.6284 37.2767C59.8384 37.265 59.745 37.16 59.6284 37.1717H59.6167ZM59.3134 37.37C59.4417 37.3233 59.7334 37.4283 59.8734 37.405C60.0017 37.3817 60.1067 37.4517 59.9667 37.51C59.8267 37.5567 59.535 37.4283 59.3834 37.4633C59.255 37.51 59.1033 37.4517 59.3017 37.37H59.3134ZM56.4667 38.1517C56.665 38.1517 57.3767 38.1167 57.6567 37.5333C57.68 37.4867 57.6917 37.4633 57.7734 37.5333C57.855 37.5917 58.1934 37.7783 58.8 37.8367C58.975 37.8367 59.15 37.93 58.8117 37.9183C58.4617 37.895 57.925 37.8017 57.75 37.685C57.435 38.1633 56.8867 38.2217 56.4667 38.21C56.2217 38.21 56.28 38.14 56.4667 38.1517Z" fill="#00D860"/>
<path d="M57.995 37.335C57.9017 37.4633 57.575 37.685 57.435 37.7083C57.2833 37.7083 56.8284 37.685 56.7234 37.6383C56.6067 37.6033 56.4783 37.6033 56.63 37.72C56.8442 37.836 57.087 37.8886 57.33 37.8717C57.5167 37.8367 57.6917 37.7783 57.82 37.8717C57.9367 37.9417 58.17 38.0817 58.31 38.0583C58.45 38.0233 58.7183 38.0233 58.8117 38.0583C58.905 38.105 59.0567 38.245 58.8234 38.175C58.59 38.0933 58.4034 38.1517 58.2984 38.105C58.415 38.2683 58.6833 38.5367 58.905 38.5367C58.9633 38.5367 59.01 38.6417 58.905 38.6883C58.9983 38.735 59.255 38.7933 59.4067 38.6533C59.36 38.7117 59.3833 38.735 59.4417 38.7583C59.5 38.7817 59.57 38.8283 59.465 38.8517C59.3484 38.875 59.115 38.8867 59.045 38.8517C59.2783 39.0033 59.8617 39.2483 60.48 39.12C60.5967 39.1083 60.6667 39.05 60.48 39.0617C60.0717 39.0617 60.0483 39.0617 59.9783 39.0267C59.9083 38.98 59.9317 38.945 60.0484 38.91C60.2128 38.8676 60.3807 38.8403 60.55 38.8283C60.6667 38.8283 60.795 38.7933 60.55 38.7933C60.3167 38.7933 60.0133 38.7933 59.885 38.7467C59.7683 38.7117 59.6867 38.6417 59.815 38.56C59.9317 38.4783 60.06 38.5017 60.1183 38.4433C59.7333 38.4433 59.255 38.21 59.5117 38.0233C59.57 37.9883 59.5584 37.9767 59.465 37.965C59.2847 37.9295 59.1087 37.8747 58.94 37.8017C58.8234 37.7433 58.8934 37.6733 58.9984 37.65C58.765 37.685 58.2983 37.5683 57.995 37.3467V37.335ZM61.4717 37.335C61.2617 37.4867 60.8533 37.5683 60.6783 37.5683C60.515 37.5683 60.48 37.615 60.62 37.6267C60.76 37.6383 60.9117 37.6733 60.97 37.65C61.0283 37.6267 61.075 37.6267 61.1567 37.6733C61.3006 37.7214 61.4561 37.7214 61.6 37.6733C61.775 37.6267 62.0317 37.6033 62.1483 37.6033C62.265 37.615 62.3817 37.615 62.1483 37.5567C61.9383 37.4983 61.565 37.5333 61.4717 37.5567C61.39 37.58 61.145 37.5567 61.2733 37.5333C61.4017 37.4983 61.5067 37.4167 61.5767 37.37L61.4717 37.335ZM61.355 37.8017C61.1477 37.9562 60.9011 38.0492 60.6433 38.07C60.8767 38.1633 61.0867 38.42 61.25 38.3967C61.1683 38.455 61.075 38.5133 60.9817 38.5367C61.1989 38.5733 61.422 38.532 61.6117 38.42C61.9617 38.5133 62.4284 38.4433 62.58 38.3033C62.3467 38.3033 62.0783 38.2333 61.95 38.1167C62.0667 38.1167 62.1717 38.0583 62.2183 37.9883C61.95 38.035 61.5183 37.9067 61.3667 37.7783L61.355 37.8017Z" fill="#00D860"/>
<path d="M60.9817 38.525C61.075 38.525 61.18 38.455 61.25 38.4083C60.7976 38.4407 60.346 38.3349 59.955 38.105C59.6983 37.8833 59.6983 38.0583 59.8733 38.21C60.0209 38.3491 60.1994 38.4512 60.3941 38.508C60.5887 38.5647 60.7941 38.5746 60.9933 38.5367L60.9817 38.525ZM61.6117 39.0733C61.5067 39.1317 60.9933 39.1783 60.83 39.1317C60.655 39.0967 60.5967 39.1083 60.62 39.19C60.655 39.26 60.69 39.3067 60.55 39.2833C60.3923 39.2763 60.2345 39.296 60.0833 39.3417C59.9667 39.365 59.85 39.4583 60.06 39.4233C60.2817 39.4 60.4683 39.3533 60.6433 39.3883C60.795 39.4233 61.355 39.435 61.46 39.3883C61.5767 39.3417 61.5067 39.3533 61.46 39.3533C61.4017 39.3533 61.3783 39.3183 61.46 39.2717C61.5417 39.2367 61.5883 39.155 61.6117 39.0733ZM56.6767 38.3967C56.3117 38.5236 55.9372 38.6212 55.5567 38.6883C55.3233 38.7933 55.1367 38.8517 55.02 38.8517C55.1017 38.9217 55.4283 38.9917 55.545 38.9567C55.475 39.0383 55.3117 39.1083 55.2533 39.155C55.4517 39.12 55.6617 39.1783 55.7667 39.19C55.527 39.3179 55.2558 39.3746 54.985 39.3533C55.055 39.4233 55.1367 39.505 55.2417 39.505C55.033 39.5655 54.8125 39.5736 54.6 39.5283C54.67 39.645 54.7167 39.715 54.81 39.7383C54.6117 39.75 54.3783 39.785 54.18 39.6683C54.3317 39.8783 54.67 39.9367 55.1833 39.8783C55.6967 39.82 56.1167 39.5983 56.2333 39.505C56.0233 39.5283 55.7317 39.54 55.6033 39.505C55.957 39.4108 56.295 39.2653 56.6067 39.0733C56.4896 39.0726 56.3756 39.036 56.28 38.9683C56.594 38.984 56.9086 38.9525 57.2133 38.875C57.0485 38.8395 56.9029 38.7438 56.805 38.6067C57.4506 38.7928 58.1329 38.8129 58.7883 38.665C58.8817 38.6417 58.8817 38.5133 58.7067 38.5367C58.38 38.56 57.7383 38.4667 57.5633 38.385C57.7026 38.4842 57.8619 38.5519 58.03 38.5833C57.7383 38.6767 57.3067 38.735 56.6767 38.385V38.3967Z" fill="#00D860"/>
<path d="M55.2534 39.155C55.3117 39.1083 55.4867 39.0383 55.545 38.9567C55.4167 38.9917 55.1017 38.9217 55.02 38.84C55.1367 38.84 55.3234 38.7933 55.5567 38.6883C55.1367 38.6767 54.8567 38.6767 54.6817 38.5833C54.5184 38.49 54.25 38.5367 54.1334 38.56C54.0167 38.5717 54.0634 38.7583 54.5184 38.7117C54.2405 38.8361 53.9323 38.8766 53.6317 38.8283C53.6784 38.9917 53.7134 39.1433 53.6667 39.2367C53.9117 39.3767 54.565 39.5517 54.8917 39.5283C54.6 39.4233 54.4484 39.3067 54.6817 39.2717C54.915 39.2483 55.055 39.2017 55.265 39.155H55.2534Z" fill="#00D860"/>
<path d="M54.5183 39.925C55.0783 39.8783 55.8483 39.8667 56.455 39.3417C56.6067 39.225 56.7117 39.2717 56.56 39.4C56.0229 39.8168 55.3721 40.0609 54.6933 40.1C54.3783 40.1 54.2383 39.9483 54.5183 39.9133V39.925Z" fill="black"/>
<path d="M58.765 38.9917C58.5531 39.0552 58.3329 39.0867 58.1117 39.085C57.9837 39.0566 57.8503 39.0647 57.7267 39.1083C57.6334 39.1667 57.6217 39.225 57.75 39.225L58.135 39.2483C58.0531 39.2906 57.9814 39.3503 57.925 39.4233C58.135 39.3767 58.4734 39.4583 58.5784 39.5167C58.5383 39.525 58.497 39.5252 58.4569 39.5172C58.4168 39.5091 58.3788 39.4931 58.345 39.47C58.66 39.82 59.6167 39.82 59.7684 39.75C59.6984 39.8083 59.6284 39.8667 59.57 39.8667C59.8267 39.925 60.13 39.9133 60.445 39.75L59.955 39.7267C60.0204 39.6619 60.1005 39.6139 60.1884 39.5867C60.0717 39.5633 59.6984 39.575 59.605 39.6217C59.6397 39.538 59.7013 39.4682 59.78 39.4233C59.3134 39.4233 58.7417 39.4233 58.5434 39.3067C58.8584 39.3533 59.2317 39.155 59.3834 39.155C59.1267 39.155 58.8467 39.0967 58.7767 38.98L58.765 38.9917ZM57.5867 39.225C57.3534 39.2833 57.0034 39.3883 56.8984 39.435C56.805 39.4933 56.7117 39.5167 56.91 39.5167C56.9334 39.5127 56.9567 39.5088 56.98 39.505C56.8984 39.505 56.805 39.505 56.9684 39.4467C57.12 39.4 57.3184 39.295 57.575 39.2483L57.5867 39.225ZM57.12 39.7967C57.2017 39.7967 57.5517 39.7967 57.7034 39.68C57.8434 39.7733 58.135 39.9367 58.31 39.9367C58.4967 39.9367 58.4734 39.9833 58.31 40.0067C58.0858 39.9995 57.8679 39.9309 57.68 39.8083C57.47 39.89 57.295 39.82 57.0967 39.7967H57.12ZM54.3667 41.395C54.7441 41.5617 55.1642 41.6066 55.5684 41.5233C55.7784 41.6983 56.1867 41.71 56.4084 41.6633C56.6417 41.6167 56.84 41.5933 57.0967 41.6633C57.33 41.7567 57.8434 41.7683 57.995 41.885L57.5167 41.8967C57.4467 41.92 57.4817 41.955 57.61 42.0133C57.1471 42.009 56.6915 42.1299 56.2917 42.3633C56.3516 42.2286 56.45 42.1146 56.5746 42.0357C56.6991 41.9568 56.8443 41.9165 56.9917 41.92C56.7817 41.85 56.0934 41.8383 55.86 41.9783C55.798 41.9108 55.7504 41.8315 55.72 41.745C55.3584 41.9433 54.6467 41.64 54.355 41.395H54.3667ZM53.4334 40.7183C53.7425 40.6925 54.0379 40.5792 54.285 40.3917C54.3667 40.4617 54.6934 40.5317 55.0434 40.4267C54.9734 40.4733 54.9617 40.5783 54.985 40.625C54.7034 40.6511 54.4277 40.722 54.1684 40.835C54.0284 40.905 53.585 40.9633 53.445 40.8817C53.305 40.8117 53.305 40.7417 53.4217 40.7183H53.4334Z" fill="#00D860"/>
<path d="M54.985 40.6367C54.7033 40.6628 54.4277 40.7337 54.1683 40.8467L54.2267 41.045C54.8063 40.8794 55.4103 40.8162 56.0117 40.8583C55.825 40.87 55.4867 41.0683 55.3 41.08C55.7667 41.045 56.21 41.1383 56.3267 41.1733C56.4433 41.1967 56.4783 41.29 56.385 41.3833C56.2917 41.4883 56.2567 41.465 56.4433 41.4883C56.63 41.4883 57.0267 41.4533 57.2017 41.2783C57.12 41.2083 56.945 41.2433 56.8867 41.1733C57.0044 41.1357 57.1122 41.0719 57.2017 40.9867C57.0221 40.9913 56.8425 40.9796 56.665 40.9517C56.5717 40.9283 56.49 40.8933 56.6183 40.8233C56.7066 40.7804 56.7857 40.721 56.8517 40.6483C56.6183 40.7067 56.2567 40.765 55.9417 40.5317C56.0583 40.555 56.3267 40.5317 56.42 40.4967C56.3427 40.4464 56.2549 40.4145 56.1633 40.4033C56.3967 40.2867 56.8633 40.1817 57.4817 40.415C57.7586 40.394 58.0372 40.4096 58.31 40.4617C58.4267 40.3683 58.6133 40.135 58.7183 40.0883C58.0183 40.135 56.7583 40.0183 56.7933 39.645C56.56 39.9483 56.035 40.1117 55.8133 40.065C55.79 40.1583 55.8833 40.2983 55.965 40.3683C55.7317 40.415 55.3233 40.4617 55.1367 40.415C55.2533 40.52 55.44 40.6133 55.5567 40.6133C55.3233 40.6133 55.1833 40.66 54.985 40.6367Z" fill="#00D860"/>
<path d="M56.4317 41.4767C56.6417 41.4767 57.015 41.4533 57.2017 41.2783C57.12 41.2083 56.945 41.2433 56.8867 41.1733C57.0045 41.1358 57.1122 41.0719 57.2017 40.9867C57.715 40.94 58.1467 40.9633 58.3684 40.905C58.5784 40.8467 59.1267 40.87 59.2317 40.8467C58.7534 40.9283 58.66 40.9633 58.6484 41.045C58.625 41.1267 58.7884 41.1733 58.905 41.1733C58.7067 41.1733 58.4267 41.395 58.3917 41.4883C58.1117 41.325 57.995 41.5117 57.9484 41.5817C57.8317 41.535 57.435 41.5467 57.2367 41.7217C56.98 41.64 56.805 41.605 56.5367 41.64C56.7117 41.605 56.6767 41.4883 56.4434 41.4767H56.4317ZM58.7067 40.0767C58.87 40.0767 59.22 40.1 59.3484 40.0767C59.2702 40.1148 59.1991 40.1661 59.1384 40.2283C59.5467 40.1817 60.095 40.1467 60.2584 40.1817C60.0484 40.1467 59.85 40.2867 59.745 40.345C59.6517 40.4033 59.71 40.45 59.85 40.4617C59.99 40.485 60.165 40.5783 59.92 40.555C59.6867 40.5317 59.1734 40.52 59.0567 40.5317C58.94 40.555 58.87 40.4967 59.0567 40.4617C59.1828 40.4428 59.305 40.4034 59.4184 40.345C59.2784 40.38 59.01 40.38 58.9167 40.345C58.8234 40.31 58.7884 40.2867 58.8817 40.2517C58.9867 40.2167 58.9167 40.205 58.8117 40.2167C58.7067 40.2167 58.4617 40.3333 58.31 40.4617C58.4617 40.2983 58.6134 40.1583 58.7067 40.0883V40.0767Z" fill="#00D860"/>
<path d="M56.91 40.3567C57.0082 40.47 57.1303 40.5601 57.2674 40.6206C57.4046 40.6812 57.5535 40.7105 57.7034 40.7067C57.7734 40.7067 57.9367 40.8117 57.7384 40.8233C57.2367 40.8467 56.9917 40.7183 56.77 40.4033C56.7234 40.3333 56.805 40.24 56.91 40.3567ZM59.885 36.2033C60.1417 36.32 60.6667 36.4367 61.075 36.425C61.1567 36.425 61.285 36.495 61.11 36.5067C60.676 36.5597 60.2362 36.4783 59.85 36.2733C59.745 36.215 59.78 36.1567 59.885 36.2033Z" fill="black"/>
<path d="M60.1417 36.2033C60.55 36.2033 60.8533 36.2033 60.9583 36.3083C61.1917 36.25 61.6233 36.2033 61.705 36.2267C61.7983 36.25 61.915 36.1917 61.6933 36.145C61.46 36.0983 60.97 36.075 60.8067 36.11C60.6433 36.1333 60.1417 36.1567 59.99 36.1333C60.0483 36.1333 60.095 36.1567 60.1417 36.2033ZM61.705 36.355C61.8917 36.2617 62.44 36.355 62.6033 36.285C62.4867 36.425 62.9883 36.4367 63.42 36.3317C63.2567 36.425 62.895 36.4483 62.7433 36.5183C62.5917 36.5883 62.51 36.53 62.3933 36.4833C62.1791 36.3816 61.9408 36.3412 61.705 36.3667V36.355Z" fill="#00D860"/>
<path d="M63.42 36.3317C62.9883 36.425 62.4867 36.425 62.6033 36.285C62.44 36.355 61.9034 36.2617 61.705 36.355C61.915 36.2383 62.055 36.3433 62.195 36.0983C62.2883 36.11 62.4983 36.1217 62.5683 36.0283C62.685 36.0633 62.9183 36.11 62.9767 36.18C63.035 36.25 63.1283 36.1567 63.0583 36.0633C63.2567 35.9933 63.1283 36.145 63.5833 36.0283C63.6883 36.005 63.91 35.9583 63.9917 35.9583C63.8134 36.1064 63.6175 36.2318 63.4083 36.3317H63.42Z" fill="#00D860"/>
<path d="M55.02 34.3367L54.9384 24.21C54.9384 23.755 54.705 23.86 54.705 24.21V34.2433L55.02 34.3367ZM58.31 23.6733L58.6717 34.3367L58.625 34.43H58.3917L58.17 23.6733H58.31ZM61.4134 32.7033L61.2267 24.035C61.2267 23.755 60.9934 23.8017 60.9934 24.0817L61.18 32.7033H61.4134Z" fill="#FFFF00" stroke="black" stroke-width="0.0466667"/>
<path d="M56.49 25.4467L53.2933 25.4C53.1533 26.0417 53.935 25.9833 54.2033 25.8667C54.565 26.0883 54.845 26.0883 55.02 25.8667C55.3 26.0883 55.6617 26.0417 55.8017 25.8667C56.1633 26.1817 56.5717 25.8667 56.49 25.4V25.4467ZM56.7233 26.9983H53.515C52.9317 27.5467 53.655 27.815 54.2967 27.4533C54.39 27.64 54.7517 27.7217 55.02 27.5933C55.3 27.7683 55.6617 27.64 55.8367 27.4533C56.1633 27.5933 56.5717 27.64 56.7583 26.9867L56.7233 26.9983ZM56.6183 29.0517H53.515C53.48 29.5533 54.11 29.5067 54.3317 29.3667C54.565 29.74 55.1133 29.6467 55.3 29.4133C55.615 29.6467 55.8833 29.6 56.0233 29.4133C56.35 29.6933 56.665 29.32 56.6183 29.0517ZM56.8167 31.0583L53.305 31.0117C53.1183 31.595 53.6667 31.7 53.8883 31.56C53.9933 31.875 54.4483 31.7933 54.5883 31.56C54.7633 31.7 54.9967 31.6067 55.0783 31.4667C55.125 31.7817 55.545 31.8283 55.86 31.56C56.5017 32.015 57.085 31.4667 56.77 31.0583H56.8167ZM59.8733 30.2417H57.0033C57.1317 30.7783 57.4117 30.9183 57.8667 30.5917C58.2283 30.965 58.7767 30.825 58.9167 30.65C59.5583 31.1517 59.8733 30.5567 59.8733 30.1833V30.2417ZM59.5933 28.235L56.77 28.1417C56.8167 28.865 57.505 28.8183 57.8667 28.55C58.1 28.865 58.555 28.7833 58.7767 28.55C59.0917 28.9117 59.6867 28.69 59.5933 28.235ZM59.9667 25.995H56.9333C56.9333 26.4967 57.61 26.765 58.1117 26.31C58.2517 26.905 58.8 26.7183 59.0333 26.4967C59.3833 26.9517 60.165 26.4033 59.9433 26.03L59.9667 25.995ZM59.78 24.4783L57.0383 24.5367C57.0383 24.9917 57.68 25.1783 57.9133 24.805C58.0533 25.0383 58.4967 24.9917 58.6367 24.805C58.8233 25.1317 59.1033 24.8983 59.185 24.805C59.5117 25.0383 59.8267 24.8983 59.78 24.49V24.4783ZM62.93 25.4933L59.64 25.4467C59.64 25.7617 59.9667 25.9133 60.1883 25.7617C60.1883 26.135 60.655 26.2283 60.97 25.9483C61.145 26.2633 61.74 26.31 61.9733 25.9483C62.4283 26.3567 62.9767 26.0417 62.8833 25.4817L62.93 25.4933ZM62.8833 28.1767H59.6867C59.6867 28.6433 60.1883 28.7717 60.5033 28.55C60.5617 28.9117 60.97 28.9583 61.2033 28.7367C61.5183 29.0517 61.9733 29.0867 62.2533 28.7367C62.6033 28.865 62.93 28.55 62.8833 28.1883V28.1767ZM62.6967 30.6033H60.1417C60.1417 31.0583 60.69 31.0583 60.9233 30.8367C61.1917 31.1517 61.565 31.1517 61.7867 30.9183C62.1017 31.1983 62.65 31.105 62.6967 30.6033Z" fill="white" stroke="black" stroke-width="0.0466667"/>
<path d="M58.625 34.4417C57.26 34.4417 55.8484 34.4417 54.8917 34.3367C53.935 34.255 53.655 34.0683 52.9784 33.66L50.4 32.1083C50.1784 32.015 49.9567 32.155 50.2717 32.3417L52.8267 34.0217C53.4086 34.3974 53.9315 34.8574 54.3784 35.3867C54.9267 35.9817 55.2884 35.9817 55.5567 35.8883C55.8367 35.8067 56.1984 35.655 56.6067 35.76C56.98 35.8417 57.5167 35.8883 57.7967 35.8417C58.03 36.075 58.6134 36.0283 58.94 35.935C59.255 35.8417 59.4884 35.8417 59.71 35.8883H60.4917C60.725 35.8883 61.3084 35.76 61.7167 35.8067C62.1834 35.8883 62.58 35.8067 62.86 35.8067C63.1571 35.7296 63.4667 35.7137 63.77 35.76C64.05 35.5733 64.1317 35.34 64.2367 35.1183C64.505 35.0717 64.5867 35.025 64.6334 34.885L64.9134 34.1617H65.0067V33.8817L64.82 33.6133L64.9134 33.1467L65.1467 33.065L65.0534 32.5983L61.04 32.7033C60.895 32.8359 60.7967 33.0119 60.76 33.205L59.57 33.38C59.4417 33.4267 59.3017 33.4267 59.1617 33.6133L58.625 34.4417Z" fill="black" stroke="black" stroke-width="0.0466667"/>
<path d="M63.42 32.6567L64.0034 30.4167C64.0967 30.1833 63.875 30.1483 63.7817 30.4167L63.1984 32.6567H63.42Z" fill="black" stroke="black" stroke-width="0.0466667"/>
<path d="M65.7417 30.1483C65.24 30.3817 64.9717 30.51 64.7383 30.4167C64.505 30.3233 64.2367 30.2767 64.0617 30.37C64.0632 30.3855 64.0632 30.4011 64.0617 30.4167C63.8968 30.9968 63.7295 31.5762 63.56 32.155C63.91 32.295 64.5633 32.295 64.6917 32.155C64.8783 31.9683 65.2867 32.015 65.5083 32.015C65.6483 31.8283 65.695 31.6067 65.6483 31.5133C65.6017 31.42 65.6483 31.1983 65.6483 31.0467C65.6483 30.93 65.835 30.4167 65.7417 30.1483Z" fill="white" stroke="black" stroke-width="0.0466667"/>
<path d="M54.25 25.855C53.365 28.1594 52.1336 30.3154 50.5983 32.2483M51.5083 32.7967C53.5329 31.1636 55.2887 29.2228 56.7117 27.045M53.515 29.005C53.3867 30.2417 53.0133 32.4233 52.8383 33.5667M54.0167 31.7467C53.5617 32.2017 52.9667 32.925 52.4767 33.3333M58.2633 29.2733C57.9017 29.6467 57.4933 30.09 57.0733 30.195M58.4967 29.3783C58.8308 29.7591 59.2507 30.055 59.7217 30.2417M58.2633 27.4067C57.8666 27.7578 57.402 28.0239 56.8983 28.1883M58.45 27.4417C58.7183 27.71 59.0333 28.025 59.4533 28.2233M56.9917 25.9833C57.446 25.8476 57.8644 25.6125 58.2167 25.295M58.3567 25.295C58.7101 25.6216 59.1271 25.8718 59.5817 26.03M57.0733 24.5133C57.5024 24.4412 57.8915 24.2177 58.17 23.8833M58.31 23.79C58.625 24.07 59.22 24.4317 59.5467 24.4783M61.005 24.84C60.8183 25.0733 60.3167 25.435 60.0017 25.435M61.2267 24.8517C61.3667 25.0733 61.7283 25.435 61.9617 25.435M59.7683 28.1767C60.2597 27.9922 60.6998 27.6922 61.0517 27.3017M61.285 27.3483C61.5013 27.6833 61.7929 27.963 62.1367 28.165M60.27 30.545C60.4567 30.545 60.9583 30.265 61.0867 29.9617M61.3667 29.81C61.6179 30.1256 61.9267 30.3909 62.2767 30.5917M53.7483 31C54.3317 30.8133 55.4867 30.09 56.0817 29.4017M54.985 30.265C55.44 30.5917 56.035 30.965 56.4433 31.0467M53.6083 28.9933C54.012 28.831 54.3834 28.5979 54.705 28.305M54.9383 28.2583C55.0667 28.445 56.0233 29.04 56.4433 29.04M54.705 26.3567C54.3568 26.6215 53.9716 26.8338 53.5617 26.9867M54.9383 26.345C55.2533 26.5783 55.9417 26.9867 56.3383 26.9867M54.7167 24.525C54.4483 24.7933 53.9933 25.2483 53.62 25.3883M54.95 24.5717C55.125 24.8867 55.6733 25.3417 56.035 25.3883M59.6867 26.5783C60.5617 28.0833 62.1017 29.9617 63.6533 30.9533M57.2367 24.8867C58.5083 26.7067 60.97 30.685 63.3383 32.1433M63.805 30.5917C63.1937 31.4233 62.4343 32.1352 61.565 32.6917M63.6067 31.0933C62.8367 29.81 62.4283 28.2233 61.7867 26.0767M55.405 31.735L56.315 34.465M55.2183 31.6883L56.0817 34.4183M54.9967 31.5483L55.8133 34.3717M54.9033 31.595L55.5333 34.3717M55.5333 34.29H56.315M56.2217 34.01H55.4983M56.1283 33.7767H55.405M56.035 33.555H55.3M55.8833 33.2867H55.3M55.2533 33.0533H55.8367M55.2067 32.8667H55.79M55.16 32.6333H55.7083M55.125 32.4583H55.615M55.0667 32.225H55.5333M55.02 32.05H55.4867M54.985 31.91H55.44M54.9733 31.735H55.3933M54.2033 31.735L53.655 34.01M54.3433 31.735L53.8767 34.1033M54.4833 31.6417L54.11 34.15M54.6583 31.5833L54.39 34.2433M54.705 34.0567H53.795M54.705 33.8233H53.655M54.705 33.555H53.7483M54.6583 33.3217H53.795M54.705 33.0883H53.8417M54.705 32.82H53.935M54.705 32.5867H53.935M54.6583 32.365H53.9817M54.6583 32.1317H54.075M54.6583 31.91H54.11M54.6583 31.77H54.1567M54.6233 34.29V31.595M57.575 30.685L55.7667 34.3833M57.7267 30.65L56.175 34.43M57.82 30.6033L56.5833 34.43M57.96 30.6967L56.9567 34.43M57.0033 34.3017H55.86M57.085 33.9283H56M57.1317 33.66H56.2217M57.3183 33.38H56.4083M57.365 33.1117H56.5017M57.4583 32.8317H56.6417M57.54 32.5167H56.8167M57.5867 32.2833H56.91M57.68 32.015H57.0383M57.7383 31.8283H57.1317M57.7733 31.6533H57.1317M57.7267 31.4667H57.2717M57.7383 31.3267H57.3183M57.7733 31.1517H57.4M57.855 30.965H57.4933M57.8433 30.825H57.5283M59.08 30.7783L59.8617 33.345M59.22 30.825L60.1767 33.2983M59.36 30.825L60.5033 33.2517M60.7717 33.0183L59.4883 30.7783M60.7717 33.065H59.8617M60.6783 32.7033H59.7683M60.55 32.4233H59.675M60.3633 32.1083H59.5817M60.1767 31.8283H59.5M60.0017 31.5133H59.4067M59.8617 31.1983H59.3133M59.675 30.9183H59.22M60.6783 30.965L59.8617 33.3333M60.9117 30.8833L60.1767 33.2983M60.5033 33.2517L61.0517 30.965M61.18 31.0583L60.725 33.205M59.955 33.065H60.725M60.0483 32.7967H60.8183M60.13 32.47H60.865M60.2817 32.2017H60.9583M60.3633 31.875H61.005M60.4567 31.6067H61.04M60.585 31.28H61.1333M60.6783 31.0117H61.145M61.5533 31.0583L61.9033 32.6917M61.6817 30.965L62.1833 32.6567M61.8683 30.965L62.4167 32.6567M62.09 31.0583L62.685 32.6567M62.6383 32.5167H61.8683M62.5567 32.2833H61.8217M62.4633 32.0617H61.775M62.3583 31.7817H61.6817M62.23 31.5483H61.6M62.1483 31.3267H61.565M62.0667 31.0933H61.5183" stroke="black" stroke-width="0.0466667"/>
<path d="M54.5533 35.2817C54.915 35.0483 55.545 35.0833 55.8717 35.3283C56.2567 35.1183 56.945 35.1767 57.26 35.4683C57.75 35.1183 58.1583 35.0717 58.625 35.3983C58.8316 35.2613 59.0749 35.1901 59.3228 35.1943C59.5707 35.1985 59.8115 35.2778 60.0133 35.4217C60.445 35.2233 60.9117 35.06 61.32 35.4917C61.1219 35.3583 60.8853 35.294 60.647 35.3088C60.4086 35.3235 60.1818 35.4165 60.0017 35.5733C59.5933 35.165 58.87 35.3167 58.625 35.6083C58.5391 35.5152 58.4345 35.4412 58.3179 35.3914C58.2014 35.3415 58.0757 35.3169 57.9489 35.3191C57.8222 35.3213 57.6974 35.3503 57.5827 35.4042C57.468 35.458 57.366 35.5356 57.2833 35.6317C56.8517 35.2817 56.2217 35.2583 55.8833 35.515C55.6947 35.376 55.4765 35.2826 55.2457 35.2422C55.015 35.2017 54.778 35.2152 54.5533 35.2817Z" fill="#00B800"/>
<path d="M61.0284 34.7683C59.1501 35.095 55.0317 34.885 54.1451 34.64C53.8301 34.57 53.9117 34.4533 54.1801 34.5233C55.2184 34.7567 57.4351 34.7567 58.6484 34.6867L59.3717 33.695C59.4884 33.5433 59.5351 33.5317 59.7801 33.4967L60.7951 33.3217V33.4617C60.7717 33.4967 60.7484 33.5317 60.7134 33.5433C60.7134 33.7767 60.7601 34.3717 60.8184 34.5933L60.9467 34.5583C61.0284 34.535 61.1101 34.7567 61.0284 34.7683Z" fill="#CF6200"/>
<path d="M64.12 34.8617H64.3766C64.4466 34.8617 64.5633 34.8033 64.5983 34.6867L64.855 33.9517L64.6566 33.66L64.7616 33.0417L64.995 32.9367C65.0183 32.9017 64.995 32.75 64.9483 32.7033L61.2616 32.82C61.145 32.82 61.0983 32.82 61.0633 32.9717C60.9544 33.465 60.9839 33.9789 61.1486 34.4565C61.3133 34.9341 61.6068 35.357 61.9966 35.6783C62.055 35.725 62.1366 35.6783 62.0316 35.5967C61.8346 35.3991 61.6658 35.1754 61.53 34.9317H62.1366C62.1833 35.13 62.335 35.5383 62.37 35.62C62.3933 35.7017 62.4633 35.7017 62.4166 35.585C62.3466 35.3517 62.3 35.06 62.265 34.92H62.8833L62.93 35.5267C62.93 35.6083 63 35.6083 63 35.515V34.9083L63.56 34.885L63.5133 35.4917C63.5016 35.5967 63.5483 35.6317 63.5716 35.4917L63.6533 34.885L64.0383 34.8617C64.0383 35.0017 63.91 35.375 63.875 35.4683C63.84 35.585 63.8983 35.585 63.9333 35.48C64.0135 35.2837 64.076 35.0807 64.12 34.8733V34.8617Z" fill="#CF6200"/>
<path d="M61.425 34.7683C61.3667 34.64 61.1567 34.1733 61.145 33.835H61.9617C61.985 34.08 62.055 34.6283 62.1017 34.7567L61.425 34.7683ZM62.1017 33.8117C62.1134 34.0217 62.2184 34.6867 62.2417 34.745H62.895L62.8484 33.8L62.1017 33.8117ZM61.1801 32.995C61.1511 33.2271 61.1433 33.4614 61.1567 33.695L61.9384 33.66L61.8684 32.9717L61.1801 32.995ZM62.0317 32.9717L62.0784 33.6717L62.8484 33.6483L62.8134 32.9483L62.0317 32.9717ZM62.9651 32.9367L62.9884 33.6367L63.6534 33.625C63.6534 33.4733 63.6884 33.0183 63.6767 32.9133L62.9651 32.9367ZM63.8051 32.9133L63.7817 33.6133L64.5051 33.59C64.5401 33.4383 64.61 33.0417 64.61 32.89L63.8051 32.9133ZM64.5401 33.7533L63.77 33.7767L63.7 34.71L64.435 34.6867C64.5384 34.4589 64.628 34.2251 64.7034 33.9867C64.645 33.87 64.5984 33.835 64.5401 33.7533ZM62.9884 33.8L63.0117 34.7333L63.5717 34.71L63.6417 33.7767L62.9884 33.8ZM59.8384 33.6133L59.535 33.66C59.2995 34.0089 59.0545 34.3513 58.8 34.6867L59.885 34.6633L59.85 33.6133H59.8384ZM59.9784 33.5783L60.025 34.6517L60.6784 34.605L60.5617 33.485L59.9784 33.5783Z" fill="black"/>
<path d="M56.805 31.0583H53.2933V30.965L56.7933 31.0117L56.805 31.0583ZM59.5467 28.235C59.5817 28.235 59.5817 28.235 59.5467 28.235L56.805 28.1883C56.7583 28.1883 56.7583 28.1883 56.805 28.1883H59.5467V28.235ZM56.63 29.005C56.665 29.005 56.665 29.0517 56.63 29.0517H53.515C53.48 29.0517 53.515 29.005 53.515 29.005H56.63ZM56.7117 26.9983C56.7583 26.9983 56.7583 27.045 56.7117 27.045H53.48C53.4333 27.045 53.4333 26.9983 53.48 26.9983H56.7117ZM56.4783 25.4C56.525 25.4 56.525 25.4467 56.4783 25.4467H53.3283C53.2933 25.4467 53.3283 25.3533 53.3283 25.3533L56.525 25.4H56.4783Z" fill="black" stroke="black" stroke-width="0.0466667"/>
<path d="M59.7683 24.49L57.0267 24.5367L59.7683 24.49Z" fill="white" stroke="black" stroke-width="0.0466667"/>
<path d="M59.9084 26.0417C59.955 26.0417 59.955 26.0417 59.9084 26.0417H56.9334C56.8867 26.0417 56.8867 26.0417 56.9334 26.0417H59.9084ZM62.8717 28.1417V28.1883H59.675C59.5817 28.1883 59.5817 28.1883 59.675 28.1883H62.8834L62.8717 28.1417ZM62.8717 25.4467C62.965 25.4467 62.965 25.4933 62.8717 25.4933H59.6167C59.57 25.4933 59.57 25.4467 59.6167 25.4467H62.9067H62.8717ZM59.85 30.195C59.8967 30.195 59.8967 30.2417 59.85 30.2417H56.9334V30.195H59.85ZM62.6734 30.6033C62.72 30.6033 62.72 30.6033 62.6734 30.6033H60.1184H62.6734Z" fill="black" stroke="black" stroke-width="0.0466667"/>
<path d="M65.0184 31.0583C65.0693 30.8475 65.0693 30.6275 65.0184 30.4167C64.9269 30.4432 64.8298 30.4432 64.7384 30.4167C64.6937 30.3827 64.6469 30.3515 64.5984 30.3233C64.5852 30.6223 64.5262 30.9174 64.4234 31.1983C64.2834 31.1983 63.9567 31.1983 63.8283 31.105L63.6884 31.56C63.9151 31.61 64.15 31.61 64.3767 31.56C64.3767 31.8283 64.33 32.0617 64.19 32.2483C64.4234 32.2483 64.6567 32.2483 64.6917 32.1083C64.8317 31.9217 64.8317 31.6417 64.8783 31.5133L65.1117 31.4667L65.3334 31.3733L65.6484 31.3267V31.0583L65.7417 30.8717L65.0184 31.105V31.0583Z" fill="#EF072D" stroke="black" stroke-width="0.0466667"/>
<path d="M53.7017 15.635C53.34 15.635 52.5117 15.635 52.3367 15.7283C52.1967 15.8217 52.15 15.8683 52.43 15.915C52.6983 15.9617 53.2 16.1483 53.48 16.2767C53.7483 16.4633 53.935 16.7433 53.935 17.1867C53.8336 17.7494 53.9107 18.3296 54.1555 18.8463C54.4003 19.363 54.8004 19.7903 55.3 20.0683C55.3467 20.115 55.3933 20.15 55.3467 20.3367L55.2067 20.8383C55.2067 20.9317 55.16 21.025 55.3 20.9783C55.1559 21.2267 55.0002 21.468 54.8333 21.7017C54.11 21.62 53.48 21.7017 53.48 22.5183C53.48 22.6233 53.48 22.705 53.5617 22.5183C53.7017 22.3433 53.8417 22.1683 54.1567 22.075C53.9817 22.39 53.8883 22.6583 53.9233 22.845C53.9233 22.985 54.0167 23.0783 54.11 22.845C54.1567 22.6583 54.3433 22.4833 54.4833 22.3433C54.565 22.2967 54.565 22.2967 54.5183 22.4367C54.4987 22.6157 54.5489 22.7953 54.6583 22.9383C54.7517 23.0317 54.7983 22.985 54.7517 22.845C54.7517 22.6583 54.7517 22.3433 54.985 22.2617C55.2533 22.075 55.5217 22.1567 55.615 22.3433C55.755 22.5767 55.8483 22.3433 55.7083 22.1567C55.5683 21.9817 55.44 21.7483 55.2533 21.7483L55.72 20.9783C55.72 20.885 55.8017 20.8383 55.895 20.885C55.895 20.9317 55.9883 20.9317 56.0233 20.7917L56.35 20.15L56.6183 20.0683L57.085 20.745V21.025C57.085 21.2 56.8983 21.6083 56.8517 21.7483C56.3033 21.7483 56.035 21.7483 55.8483 22.075C55.755 22.2033 55.895 22.25 56.0233 22.2033C56.1645 22.1192 56.3257 22.0749 56.49 22.075C56.5717 22.075 56.6183 22.1567 56.49 22.2033C56.1633 22.3433 55.9417 22.5767 55.9417 22.8917C55.9417 22.985 56.0233 23.0317 56.07 22.8917C56.2035 22.6676 56.4156 22.5013 56.665 22.425C56.665 22.6583 56.7117 23.0317 56.8983 23.125C57.0267 23.2067 57.0267 23.125 56.9917 22.985C56.8983 22.7517 56.9917 22.5183 57.12 22.39C57.3533 22.1217 57.9017 22.4833 58.0417 22.5767C58.1233 22.6583 58.2167 22.705 58.1233 22.4367C58.0767 22.1217 57.6217 21.97 57.2133 21.8883L57.7617 19.975C57.995 20.115 58.2283 19.7417 58.5783 19.8817C59.1908 20.1553 59.7734 20.4915 60.3167 20.885C60.5033 21.025 60.55 20.9783 60.6317 20.885C60.725 20.8383 60.865 20.885 61.005 20.885C61.0867 20.9317 61.18 20.9783 61.0517 20.6983C60.7892 20.2203 60.4123 19.8154 59.955 19.52C60.3167 19.52 60.7717 19.52 60.7717 19.4267C60.7717 19.3333 60.2233 19.1467 60.0017 19.1467C60.27 19.0977 60.5201 18.9767 60.725 18.7967C60.8183 18.6917 60.725 18.645 60.3633 18.645C59.4067 18.645 58.905 18.645 58.4033 18.3767C57.5867 17.91 57.0733 17.3733 56.665 17.1867C56.49 17.0583 56.35 16.7783 56.21 16.5567C55.9767 15.8567 55.9767 15.5067 55.3933 15.2733C54.7983 15.04 54.0167 15.32 53.7017 15.635Z" fill="black" stroke="black" stroke-width="0.0466667"/>
<path d="M53.7484 15.8217H52.9784C52.9784 15.8217 52.885 15.8217 52.9784 15.8217L53.655 16.0083C53.795 16.0083 53.7484 16.1367 53.655 16.09C53.5617 16.055 53.48 16.09 53.5617 16.1833C54.0284 16.51 54.11 16.65 54.0284 17.875L54.25 18.0617C54.3434 18.0617 54.2967 18.1433 54.25 18.0967C54.2034 18.0617 54.0167 18.0967 54.1567 18.19C54.2967 18.2833 54.39 18.2833 54.25 18.2833C54.11 18.2833 53.9817 18.3767 54.25 18.33C54.4834 18.33 54.6117 18.4233 54.25 18.47C53.9817 18.47 54.0634 18.5633 54.25 18.5633C54.565 18.5633 54.4834 18.645 54.39 18.645C54.2967 18.645 54.25 18.7383 54.4834 18.7383H54.7984C54.845 18.7383 54.8917 18.7383 54.7984 18.785C54.705 18.785 54.705 18.8783 54.845 18.8783C54.985 18.8783 55.0784 18.8783 54.9384 18.925C54.8917 18.925 54.7984 18.9717 54.9384 19.0183C55.2534 19.0183 55.2884 19.1 55.2067 19.1467C55.1134 19.1933 55.0667 19.1933 55.2067 19.1933C55.3467 19.1933 55.4867 19.24 55.3467 19.2867C55.2534 19.2867 55.2067 19.38 55.3467 19.38C55.4867 19.38 55.58 19.4733 55.4867 19.52C55.3934 19.5667 55.3467 19.6133 55.4867 19.6133C55.615 19.6133 55.6617 19.6483 55.5684 19.695C55.4867 19.7883 55.44 19.7883 55.335 19.695C55.335 19.6133 55.2534 19.6133 55.2534 19.695L55.16 19.5667C55.1134 19.4267 55.02 19.4267 55.02 19.5667C55.02 19.695 54.9384 19.6133 54.845 19.5667C55.0659 19.8197 55.365 19.9916 55.6948 20.055C56.0246 20.1185 56.3661 20.0698 56.665 19.9167C56.7117 19.9167 56.7584 19.9167 56.805 20.0683L57.0734 20.57C57.12 20.6517 57.2134 20.57 57.2134 20.4767L57.4934 19.695C57.4934 19.5667 57.6684 19.4617 57.6217 19.835C57.7617 19.7417 58.31 19.695 58.765 19.835C59.2049 20.0109 59.6205 20.2422 60.0017 20.5233C60.0344 20.5485 60.0724 20.5658 60.1129 20.5739C60.1534 20.582 60.1952 20.5807 60.235 20.57C60.3517 20.57 60.41 20.57 60.1767 20.3367C59.9434 20.1033 60.0484 20.0217 60.1767 20.1033C60.3167 20.1967 60.41 20.15 60.27 20.0217L59.815 19.6133C59.7684 19.6133 59.7684 19.52 59.5467 19.52H58.8467C58.765 19.52 58.6717 19.52 58.9517 19.6133C59.22 19.695 59.7217 20.0683 59.8617 20.15C60.0017 20.2433 60.0484 20.43 59.815 20.2433C59.2953 19.8976 58.7492 19.5934 58.1817 19.3333C56.945 19.4733 55.9417 19.6133 55.2067 18.8317C54.845 18.4233 54.845 17.5483 55.44 17.1983C55.3467 17.0933 55.3467 17.0117 55.3934 17.0117V16.7317C55.3 16.685 55.2067 16.5917 55.2067 16.4983C55.0667 16.4983 54.9734 16.2767 54.7517 16.37C54.5184 16.4633 54.4834 16.37 54.39 16.3233C54.3434 16.23 54.2967 16.23 54.1567 16.23C54.0167 16.23 53.9234 16.23 53.9234 16.1367C53.9234 16.055 54.0167 16.055 54.2034 16.1367C54.5184 16.2767 54.7867 16.37 55.02 16.055C55.2067 15.775 54.9384 15.5533 54.565 15.46C54.1567 15.3667 53.8884 15.6933 53.7017 15.8217H53.7484Z" fill="white" stroke="black" stroke-width="0.0466667"/>
<path d="M55.755 15.6817C55.6202 15.5602 55.4611 15.4688 55.2884 15.4133C55.1717 15.4133 55.1717 15.5067 55.2067 15.5533V15.8217C55.3 15.8683 55.3467 15.9617 55.2067 15.9617C55.1134 16.055 55.2067 16.37 55.3467 16.2767H55.44C55.44 16.2767 55.44 16.4167 55.5217 16.4167C55.615 16.4167 55.5217 16.51 55.5217 16.5567H55.615C55.7084 16.5567 55.6617 16.7317 55.5684 16.79C55.7084 16.79 55.755 16.79 55.755 16.8717C55.8017 16.965 55.9417 17.0117 55.9417 17.14C55.9417 17.28 55.9417 17.28 55.755 17.2333C55.5684 17.1867 55.5684 17.2333 55.5217 17.3267C55.4867 17.42 55.44 17.4667 55.5217 17.4667C55.615 17.4667 55.7084 17.5133 55.5684 17.56C55.44 17.595 55.3 17.56 55.2534 17.6883C55.2534 17.8283 55.2534 17.875 55.3467 17.8283L55.6617 17.6417L55.895 17.6883C55.9884 17.735 55.895 17.9217 55.8017 17.8283C55.7084 17.735 55.615 17.8283 55.5684 17.875L55.335 17.9683C55.2534 17.9683 55.16 17.9683 55.2184 18.2017C55.2184 18.8317 55.7084 19.2867 56.6184 19.2867H58.135C57.855 19.1 57.6684 19.0183 57.5284 19.0183H57.4C57.4467 18.9717 57.4 18.8783 57.3534 18.8783C57.3067 18.8783 57.2134 18.785 57.12 18.8783L56.665 19.1117C56.5717 19.1117 56.4317 19.1117 56.5717 19.0183L56.9917 18.8317C57.0734 18.8317 57.0267 18.7383 57.0267 18.7383C57.0267 18.7383 57.0267 18.5983 57.1667 18.645C57.4467 18.8317 57.855 19.065 57.9834 19.065C58.1234 19.065 58.17 18.9717 58.0767 18.925C57.995 18.8783 57.9484 18.785 57.9484 18.7383C57.9484 18.6917 57.995 18.645 58.1817 18.7383C58.3567 18.8783 58.625 18.9717 58.765 19.0183C58.905 19.065 58.9984 19.065 58.765 18.925L57.715 18.1433C57.575 18.015 57.575 18.1433 57.6217 18.2367C57.6684 18.33 57.4934 18.3767 57.3884 18.2833C57.3067 18.19 57.26 18.1433 57.3884 18.0967C57.5284 18.0617 57.4934 18.015 57.3534 17.8633C57.1667 17.7467 57.12 17.7467 57.1667 17.8633C57.2134 18.015 57.2134 18.0967 57.0734 18.0617C56.945 18.015 56.805 17.9217 56.945 17.875C57.0267 17.7817 57.1784 17.735 56.945 17.595C56.7117 17.4667 56.8517 17.595 56.805 17.6883C56.7584 17.7817 56.6184 17.7817 56.5717 17.6883C56.525 17.595 56.4434 17.56 56.49 17.5133C56.525 17.4667 56.525 17.42 56.6184 17.5133C56.7117 17.595 56.805 17.5133 56.665 17.3733C56.525 17.2333 56.49 17.28 56.525 17.3733C56.5717 17.4667 56.4434 17.56 56.2567 17.3733C56.1634 17.3267 56.1634 17.2333 56.2567 17.1867C56.35 17.1867 56.35 17.14 56.2567 17.0583C55.9417 16.51 56.07 16.09 55.7084 15.6817H55.755Z" fill="white" stroke="black" stroke-width="0.0466667"/>
<path d="M55.7667 15.775C55.7434 15.8217 55.7317 15.81 55.6734 15.8567C55.615 15.9033 55.5917 16.0317 55.7084 16.02C55.7406 16.0166 55.7717 16.0066 55.7998 15.9905C55.828 15.9745 55.8524 15.9527 55.8717 15.9267C55.8451 15.8735 55.8138 15.8227 55.7784 15.775H55.7667ZM55.4167 15.4717C55.3117 15.565 55.3 15.6117 55.3467 15.6117C55.405 15.6117 55.3817 15.6117 55.3467 15.6817C55.3 15.74 55.4167 15.775 55.4634 15.7167C55.5217 15.67 55.5217 15.6583 55.545 15.7167C55.5567 15.775 55.6617 15.7167 55.6967 15.6817C55.615 15.6 55.4984 15.53 55.405 15.4717H55.4167ZM55.2417 15.985C55.125 16.0433 55.16 16.3583 55.3467 16.265C55.405 16.2417 55.4517 16.265 55.4517 16.3V16.3817C55.5274 16.3504 55.5952 16.3026 55.65 16.2417C55.755 16.1017 55.65 16.125 55.4867 16.125C55.3234 16.125 55.2884 16.09 55.44 15.9967C55.58 15.9033 55.475 15.8567 55.2884 15.88C55.3117 15.915 55.3 15.95 55.2417 15.985ZM55.93 16.685C55.8367 16.58 55.895 16.545 55.9884 16.4867C56.0066 16.4791 56.0227 16.4671 56.035 16.4517L55.9534 16.1483C55.9184 16.1717 55.86 16.2767 55.8367 16.3233C55.8134 16.405 55.79 16.4517 55.72 16.44C55.6384 16.405 55.5684 16.4867 55.5567 16.5683H55.615C55.6384 16.58 55.65 16.6383 55.6384 16.685C55.86 16.685 55.895 16.8133 55.93 16.9183C55.9767 17.035 56.0117 17.0233 56.0467 16.9533C56.0817 16.8833 56.0117 16.7783 55.93 16.685Z" fill="#CF6200"/>
<path d="M55.9883 17.9217C55.9417 18.015 55.9417 18.0033 55.8133 18.0033C55.6967 18.015 55.5333 18.0383 55.4633 18.1083C55.4283 18.1433 55.2067 18.1667 55.2067 18.26C55.2067 18.365 55.2067 18.435 55.3 18.4467C55.3933 18.4467 55.4167 18.47 55.3817 18.54C55.335 18.61 55.3117 18.715 55.475 18.7383C55.6383 18.7383 55.7667 18.7033 55.8017 18.785C55.8483 18.9017 55.8017 19.03 55.8367 19.1C55.86 19.1583 55.9767 19.1817 56.1517 19.24C56.2683 19.2633 56.7117 19.2983 56.8517 19.275C56.9683 19.2517 56.9217 19.1817 56.7933 19.1817C56.6533 19.1583 56.56 19.135 56.525 19.0417C56.49 18.9367 56.4667 18.89 56.5483 18.8083C56.6183 18.715 56.6883 18.6567 56.6417 18.5167C56.6067 18.3883 56.525 18.225 56.3733 18.1783C56.2217 18.1317 56.2683 17.91 56.105 17.8983C56.0467 17.8983 56.0117 17.8983 55.9883 17.9217Z" fill="#FFFF00"/>
<path d="M55.2184 19.205C55.3584 19.2283 55.4634 19.2633 55.3584 19.2983C55.2534 19.3333 55.1834 19.3917 55.3234 19.4033C55.4634 19.4033 55.5917 19.4733 55.475 19.4967C55.3584 19.5317 55.3584 19.6133 55.4867 19.6133C55.615 19.6133 55.685 19.66 55.5917 19.73C55.4867 19.7767 55.4284 19.8117 55.3584 19.7183C55.3 19.6133 55.265 19.6017 55.2534 19.66C55.23 19.73 55.195 19.6833 55.1484 19.5783C55.1134 19.485 55.0084 19.4383 55.0317 19.52C55.0667 19.6017 54.9617 19.625 54.8567 19.5783C54.9525 19.6904 55.067 19.7851 55.195 19.8583C55.335 19.8117 55.4984 19.8583 55.545 19.8583C55.615 19.8583 55.79 19.905 55.895 19.9633C56 20.01 56.07 19.9167 56.0234 19.8117C55.9767 19.695 55.9767 19.73 55.93 19.8117C55.86 19.8583 55.86 19.7767 55.86 19.6483C55.86 19.555 55.79 19.5667 55.7784 19.6367C55.755 19.695 55.6967 19.59 55.72 19.5317C55.755 19.4733 55.72 19.4383 55.6734 19.4617C55.615 19.485 55.615 19.4617 55.6034 19.345C55.5917 19.2167 55.545 19.2283 55.5334 19.2867C55.5217 19.3333 55.4634 19.2633 55.3817 19.17C55.3234 19.1 55.265 19.1467 55.1367 19.1817L55.2184 19.205Z" fill="#CF6200"/>
<path d="M56.6534 19.9517C56.0117 20.2083 55.545 20.0917 55.195 19.8583C55.335 19.8117 55.4984 19.8583 55.5567 19.8583C55.615 19.8583 55.8017 19.905 55.895 19.9633C55.9884 20.01 56.07 19.9167 56.0234 19.8117C56.105 19.9283 56.175 19.9983 56.28 19.9867L56.6534 19.9517ZM55.2767 16.9417C55.23 16.8017 55.195 16.7783 55.125 16.79C55.055 16.79 55.02 16.7783 54.9384 16.7433C54.8684 16.7083 54.7634 16.7433 54.7517 16.895C54.7284 17.0467 54.635 17.105 54.5184 17.1983C54.4017 17.28 54.3434 17.35 54.3434 17.5017C54.3434 17.6417 54.3084 17.665 54.2267 17.7817L54.0984 17.9333L54.2384 18.015C54.3317 18.0617 54.2967 18.12 54.215 18.0967C54.1334 18.0733 54.04 18.12 54.1917 18.1433C54.3317 18.1783 54.39 18.26 54.2617 18.26C54.11 18.225 53.9584 18.3533 54.2267 18.3183C54.495 18.295 54.5884 18.4233 54.285 18.4233C53.97 18.4233 54.0867 18.5283 54.2617 18.5283C54.5534 18.5283 54.46 18.61 54.3784 18.61C54.3084 18.61 54.2734 18.7267 54.4717 18.6917L54.5417 18.575C54.5767 18.4817 54.6 18.2133 54.7167 18.1317C54.8217 18.0617 54.88 17.9333 54.88 17.8633C54.88 17.7933 55.055 17.4317 55.1484 17.35C55.265 17.2683 55.3117 17.0817 55.265 16.9533L55.2767 16.9417Z" fill="#FFFF00"/>
<path d="M55.0433 16.965C54.9383 16.8833 54.8217 16.9417 54.8217 17.0817C54.8217 17.1983 54.7517 17.2567 54.6583 17.315C54.6061 17.342 54.5602 17.3799 54.524 17.4262C54.4878 17.4725 54.4619 17.5261 54.4483 17.5833C54.4483 17.7 54.4717 17.7583 54.4017 17.8517C54.32 17.9333 54.3083 18.0033 54.355 18.0617C54.425 18.1083 54.425 18.1083 54.4367 18.1783C54.4717 18.2483 54.6 18.1783 54.6 18.0967C54.6 18.015 54.635 18.015 54.7167 17.9683C54.81 17.9217 54.95 17.6883 54.915 17.63C54.8917 17.5717 54.7983 17.5133 54.915 17.4317C55.0317 17.3383 55.125 17.315 55.125 17.245C55.125 17.1517 55.1483 17.1283 55.1833 17.0933C55.2183 17.0583 55.1133 17.0117 55.0433 16.9767V16.965Z" fill="#CF6200"/>
<path d="M55.0434 16.8483C54.9734 16.825 54.9267 16.9767 55.0317 17C55.1367 17.0233 55.1484 16.895 55.0317 16.86L55.0434 16.8483ZM55.0317 17.0467C54.95 17.0583 54.8567 17.1633 54.985 17.1633C55.125 17.14 55.1717 17.0467 55.02 17.0467H55.0317ZM54.8684 17.245C54.7867 17.28 54.81 17.3967 54.9267 17.315C55.0434 17.2333 55.0667 17.14 54.8684 17.245ZM54.7517 17.4083C54.67 17.4433 54.67 17.56 54.7984 17.4783C54.915 17.4083 54.95 17.3033 54.7517 17.4083Z" fill="black"/>
<path d="M54.5883 17.49C54.5067 17.525 54.5533 17.63 54.67 17.56C54.7867 17.49 54.7867 17.385 54.5883 17.49ZM54.6817 17.595C54.5883 17.63 54.6467 17.735 54.7633 17.665C54.88 17.595 54.88 17.49 54.67 17.595H54.6817Z" fill="black"/>
<path d="M54.53 17.63C54.46 17.6767 54.5066 17.77 54.635 17.7C54.7516 17.63 54.74 17.525 54.53 17.63ZM54.635 17.7467C54.5416 17.7817 54.5883 17.8867 54.7166 17.8167C54.8333 17.735 54.8333 17.6417 54.6233 17.7467H54.635Z" fill="black"/>
<path d="M54.4833 17.8167C54.4133 17.8517 54.46 17.9567 54.5883 17.8867C54.705 17.8167 54.6817 17.7117 54.495 17.8167H54.4833Z" fill="black"/>
<path d="M54.4833 17.91C54.425 17.9567 54.4717 18.0733 54.6 17.9917C54.7167 17.91 54.6933 17.8167 54.4833 17.91Z" fill="black"/>
<path d="M54.4367 18.9133C54.355 18.9133 54.2967 19.0417 54.4017 19.065C54.5067 19.0883 54.53 19.1 54.53 19.17C54.53 19.24 54.565 19.3683 54.67 19.3683C54.7867 19.3683 54.88 19.2517 54.7867 19.2167C54.6817 19.1817 54.6 19.1467 54.5883 19.0533C54.5883 18.9717 54.495 18.9133 54.4367 18.9133Z" fill="#CF6200"/>
<path d="M57.3417 18.225L57.4 18.295C57.4817 18.3533 57.6333 18.295 57.5983 18.2367C57.5867 18.19 57.505 18.0033 57.715 18.1433L58.7883 18.9017C59.01 19.065 58.8583 19.0883 58.765 19.03L58.1817 18.7617C58.0067 18.6567 57.9833 18.7033 57.9483 18.7267C57.9483 18.7617 57.9483 18.8317 58.0183 18.89C57.9133 18.9017 57.75 18.89 57.6917 18.7733C57.6333 18.6333 57.4933 18.47 57.3883 18.3417C57.3533 18.295 57.3417 18.26 57.3533 18.2367L57.3417 18.225Z" fill="#FFFF00"/>
<path d="M63.2333 37.65C63.0817 37.755 62.8833 37.93 63.0117 38.175L63.0583 38.1633C63.6274 37.4725 64.1313 36.7305 64.5633 35.9467V35.8767C64.4048 36.0069 64.2279 36.113 64.0383 36.1917C64.1083 36.39 63.77 36.635 63.6067 36.705C63.6767 36.8217 63.6533 37.0083 63.49 37.0433C63.525 37.1367 63.4083 37.1367 63.2567 37.2067C63.1283 37.265 63.0583 37.3 63.0117 37.3817C63.0817 37.335 63.1983 37.3 63.245 37.3233C63.2917 37.3467 63.315 37.4283 63.21 37.4517C63.1167 37.4867 63.0467 37.5333 63 37.5683C63.1517 37.5333 63.3733 37.545 63.2333 37.65Z" fill="#00D860"/>
<path d="M56.21 18.015C56.0234 17.875 55.9767 17.9683 56.0234 18.015C56.07 18.0617 56.0234 18.19 55.895 18.2483H55.4284C55.3467 18.2483 55.2067 18.4233 55.4284 18.365L56.1634 18.2483C56.2567 18.2483 56.35 18.1433 56.1634 18.015H56.21ZM56.525 18.2833C56.3967 18.1433 56.35 18.19 56.3967 18.2833C56.4434 18.3767 56.35 18.4233 56.2567 18.4233L55.615 18.5983C55.44 18.5983 55.44 18.7383 55.6617 18.7383C55.895 18.7383 56.35 18.505 56.3967 18.505C56.4434 18.505 56.49 18.3767 56.525 18.4233C56.5717 18.47 56.665 18.4233 56.525 18.2833ZM56.665 18.645L56.21 18.8783C56.07 18.8783 55.9767 19.0183 56.21 19.0183C56.4434 19.0183 56.6767 18.785 56.7584 18.7383L56.945 18.645C56.945 18.645 57.12 18.5983 56.945 18.47C56.7584 18.33 56.5717 18.47 56.665 18.5167C56.7584 18.5633 56.665 18.645 56.665 18.645Z" fill="black" stroke="black" stroke-width="0.0466667"/>
<path d="M54.7983 15.6817C54.5067 15.4833 54.1917 15.88 54.5067 16.1017C54.7867 16.3 55.09 15.8683 54.81 15.6817H54.7983Z" fill="black"/>
<path d="M54.4367 15.8567H54.5184C54.5184 15.95 54.6 16.09 54.7284 16.055C54.6234 16.1367 54.425 16.0317 54.4367 15.8567ZM55.5567 20.1733C55.65 20.2083 55.9534 20.2317 56.07 20.2317L55.93 20.4883C55.895 20.57 55.8834 20.5817 55.8717 20.4533C55.8717 20.3367 55.8017 20.255 55.7434 20.3833L55.6267 20.6167C55.5917 20.6633 55.545 20.675 55.5567 20.5467C55.58 20.4183 55.5684 20.2783 55.5567 20.1733Z" fill="white"/>
<path d="M67.025 23.6733C67.025 31.105 65.835 39.1317 56.175 42.9583C46.5384 39.1317 45.36 31.105 45.3134 23.6733H67.025ZM67.025 23.6733C67.025 20.8383 66.885 18.0967 66.9317 15.74C63.4999 14.4054 59.8454 13.7363 56.1634 13.7683C53.7484 13.7683 49 14.13 45.4067 15.7283C45.4884 18.0967 45.3134 20.8383 45.3134 23.6617L67.025 23.6733Z" stroke="black" stroke-width="0.14"/>
<path d="M0 0.375H37.3333V28.375H0V0.375Z" fill="#012169"/>
<path d="M4.375 0.375L18.6083 10.9333L32.7833 0.375H37.3333V3.99167L23.3333 14.4333L37.3333 24.8167V28.375H32.6667L18.6667 17.9333L4.725 28.375H0V24.875L13.9417 14.4917L0 4.10833V0.375H4.375Z" fill="white"/>
<path d="M24.7333 16.7667L37.3333 26.0417V28.375L21.525 16.7667H24.7333ZM14 17.9333L14.35 19.975L3.15 28.375H0L14 17.9333ZM37.3333 0.375V0.55L22.8083 11.5167L22.925 8.95L34.4167 0.375H37.3333ZM0 0.375L13.9417 10.6417H10.4417L0 2.825V0.375Z" fill="#C8102E"/>
<path d="M14.0583 0.375V28.375H23.3917V0.375H14.0583ZM0 9.70833V19.0417H37.3333V9.70833H0Z" fill="white"/>
<path d="M0 11.6333V17.2333H37.3333V11.6333H0ZM15.925 0.375V28.375H21.525V0.375H15.925Z" fill="#C8102E"/>
</g>
<defs>
<clipPath id="clip0_1_45050">
<rect width="74.6667" height="56" fill="white" transform="translate(0 0.375)"/>
</clipPath>
</defs>
</svg>
