<svg width="75" height="57" viewBox="0 0 75 57" fill="none" xmlns="http://www.w3.org/2000/svg">
<g clip-path="url(#clip0_1_45125)">
<path d="M0 0.375H74.6667V56.375H0V0.375Z" fill="#D0103A"/>
<path d="M0 0.375H50.7733V56.375H0V0.375Z" fill="#FEDF00"/>
<path d="M0 0.375H23.8933V56.375H0V0.375Z" fill="#0018A8"/>
<path d="M35.0467 16.3117C35.945 16.3117 36.3183 17.0817 37.2167 17.0817C37.765 17.0817 38.0917 16.9067 38.5817 16.6267C38.92 16.44 39.13 16.335 39.515 16.335C39.9117 16.335 40.1567 16.4517 40.3667 16.8017C40.4833 16.9883 40.5767 17.3733 40.5183 17.5833C40.449 17.9166 40.3434 18.2413 40.2033 18.5517C40.1217 18.7383 40.0517 18.8433 40.0517 19.0417C40.0517 19.52 40.705 19.6833 41.1483 19.695C41.2417 19.695 42.0467 19.695 42.5483 19.205C42.28 19.1933 41.9767 18.9717 41.9767 18.7033C41.9767 18.4 42.1867 18.2017 42.4783 18.1083C42.5367 18.0967 42.63 18.1433 42.6767 18.1083C42.7583 18.0733 42.7233 17.9917 42.7933 17.945C42.9333 17.8283 43.0267 17.7583 43.2133 17.7583C43.33 17.7583 43.4 17.77 43.505 17.84C43.5517 17.8867 43.575 17.9333 43.6217 17.9333C43.7617 17.9333 43.8317 17.84 43.9717 17.84C44.0655 17.8414 44.1575 17.8654 44.24 17.91C44.31 17.945 44.31 18.085 44.4033 18.085C44.45 18.085 44.6833 17.98 44.8117 17.98C45.0683 17.98 45.2083 18.0733 45.3717 18.2717C45.4183 18.33 45.4417 18.435 45.4883 18.435C45.6028 18.4447 45.7132 18.4815 45.8106 18.5424C45.908 18.6032 45.9895 18.6864 46.0483 18.785C46.0833 18.8317 46.13 18.9483 46.1767 18.96C46.2467 18.995 46.2933 18.9833 46.375 19.0417C46.4706 19.1017 46.5502 19.1841 46.6071 19.2816C46.664 19.3791 46.6964 19.4889 46.7017 19.6017C46.7017 19.6833 46.6667 19.7883 46.6433 19.8583C46.4333 20.6167 45.9083 20.8617 45.3833 21.5267C45.15 21.8067 44.975 22.0283 44.975 22.39C44.975 22.4717 45.0917 22.635 45.1267 22.705C45.1033 22.5417 45.185 22.3317 45.36 22.32C45.4761 22.3194 45.5882 22.3621 45.6745 22.4398C45.7608 22.5174 45.8151 22.6245 45.8267 22.74C45.8295 22.8116 45.8176 22.8831 45.7917 22.95C45.9331 22.8615 46.0926 22.8057 46.2583 22.7867H46.48C46.865 22.7867 47.2967 23.0083 47.565 23.23C47.8458 23.4711 48.0683 23.7728 48.2158 24.1122C48.3633 24.4517 48.432 24.8202 48.4167 25.19C48.3233 25.7967 48.3817 26.9167 46.8067 27.36C47.0983 27.4767 47.2967 27.71 47.2967 27.9667C47.2998 28.0366 47.2889 28.1064 47.2647 28.172C47.2404 28.2377 47.2033 28.2978 47.1555 28.3489C47.1076 28.4 47.0501 28.441 46.9862 28.4695C46.9223 28.4981 46.8533 28.5135 46.7833 28.515C46.7074 28.5197 46.6314 28.5075 46.5608 28.4793C46.4902 28.451 46.4267 28.4074 46.375 28.3517C46.0483 28.6783 45.99 29.0167 45.99 29.4833C45.99 29.7633 46.0367 29.9267 46.1533 30.1833C46.27 30.44 46.3633 30.5917 46.585 30.7783C46.7017 30.6033 46.83 30.475 47.0517 30.475C47.25 30.475 47.425 30.545 47.5067 30.7317C47.53 30.79 47.5067 30.8367 47.5417 30.895C47.5767 30.965 47.635 30.9767 47.67 31.0467C47.7283 31.1633 47.67 31.2567 47.7283 31.3617C47.7633 31.4433 47.8333 31.455 47.8683 31.525C47.915 31.6417 47.9267 31.7117 47.9267 31.84C47.9267 32.19 47.6117 32.4467 47.2617 32.4467C47.145 32.4467 47.0983 32.4 46.9933 32.4117C47.1917 32.61 47.3433 32.7033 47.495 32.9367C47.7332 33.2914 47.8555 33.7112 47.845 34.1383C47.8544 34.5952 47.7416 35.0463 47.5183 35.445C47.3443 35.8455 47.0613 36.189 46.7017 36.4367C46.1514 36.8372 45.5097 37.0939 44.835 37.1833C44.4119 37.2696 43.9829 37.3242 43.5517 37.3467L41.9067 37.44C41.0667 37.4867 40.4833 37.615 39.8883 38.21C40.1683 38.4083 40.355 38.6183 40.355 38.9567C40.355 39.3067 40.145 39.575 39.8067 39.68C39.725 39.7033 39.6667 39.68 39.585 39.7267C39.5033 39.7733 39.5033 39.8783 39.4217 39.925C39.2905 40.0109 39.1349 40.0519 38.9783 40.0417C38.84 40.0516 38.7013 40.0305 38.5721 39.9801C38.4429 39.9296 38.3267 39.851 38.2317 39.75C37.975 39.96 37.8817 40.1467 37.59 40.3217C37.4967 40.3683 37.45 40.4383 37.345 40.4383C37.17 40.4383 37.0883 40.3217 36.9483 40.2283C36.7578 40.0956 36.5852 39.9388 36.435 39.7617C36.1667 39.9133 36.015 40.0417 35.7 40.0417C35.5363 40.0505 35.3737 40.0099 35.2333 39.925C35.1633 39.8667 35.14 39.785 35.0583 39.7383C34.9767 39.68 34.9067 39.7033 34.8133 39.6567C34.4633 39.505 34.23 39.2483 34.23 38.8633C34.23 38.525 34.44 38.315 34.7433 38.1633C34.16 37.58 33.5767 37.4867 32.76 37.44L31.1267 37.3467C30.6133 37.3117 30.3333 37.265 29.8433 37.1833C29.4583 37.125 29.2367 37.1017 28.8867 36.9383C27.6967 36.3783 26.9267 35.62 26.7867 34.3133C26.7633 34.1967 26.7633 34.1383 26.7633 34.0217C26.7633 33.345 27.0317 32.925 27.51 32.4467C27.3933 32.4117 27.3117 32.4467 27.1833 32.4117C26.8917 32.295 26.67 32.0967 26.67 31.77C26.67 31.6533 26.67 31.5717 26.7283 31.4667C26.775 31.3967 26.845 31.385 26.8683 31.3033C26.8917 31.1867 26.8683 31.1167 26.915 31.0117C26.95 30.9533 27.0083 30.9417 27.0317 30.8717C27.1483 30.65 27.265 30.475 27.51 30.475C27.72 30.475 27.86 30.5917 27.9533 30.7667C28.1633 30.6733 28.21 30.5217 28.3267 30.335C28.468 30.105 28.556 29.8462 28.5843 29.5777C28.6126 29.3092 28.5803 29.0378 28.49 28.7833C28.4433 28.6083 28.42 28.4917 28.28 28.3517C28.1633 28.4683 28.0467 28.515 27.8833 28.515C27.545 28.515 27.3 28.2233 27.3 27.8967C27.2964 27.7821 27.3281 27.6693 27.3907 27.5733C27.4533 27.4774 27.5438 27.4029 27.65 27.36C27.4633 27.1967 27.3 27.185 27.1017 27.0567C26.7983 26.87 26.6933 26.66 26.495 26.3567C26.355 26.17 26.32 26.03 26.2617 25.8083C26.1598 25.5164 26.12 25.2065 26.145 24.8983C26.215 24.315 26.32 23.965 26.6817 23.51C26.8917 23.2417 27.0317 23.0783 27.3583 22.9383C27.6267 22.8217 27.79 22.74 28.0817 22.74L28.315 22.7517C28.4293 22.7592 28.5407 22.791 28.6417 22.845C28.6883 22.8683 28.77 22.95 28.77 22.8917C28.77 22.8333 28.735 22.7983 28.735 22.74C28.735 22.5067 28.91 22.2733 29.155 22.2733C29.33 22.2733 29.4 22.4367 29.4933 22.5883C29.54 22.495 29.575 22.425 29.575 22.32C29.575 21.9233 29.3533 21.7133 29.1083 21.3983C28.56 20.7217 27.8833 20.4067 27.8833 19.5317C27.8833 19.275 28 19.1 28.2333 18.96C28.2917 18.925 28.385 18.96 28.4433 18.925C28.5017 18.89 28.49 18.8083 28.525 18.7617C28.5833 18.68 28.6417 18.645 28.7117 18.575C28.8283 18.4583 28.945 18.505 29.0733 18.4C29.1433 18.3533 29.1667 18.2833 29.2133 18.2367C29.365 18.05 29.505 17.9567 29.75 17.9567C29.8667 17.9567 29.9367 17.9567 30.0417 18.0033L30.1583 18.0617C30.1933 18.0383 30.2517 17.9683 30.3333 17.9333C30.4103 17.8856 30.4995 17.8613 30.59 17.8633C30.7183 17.8633 30.8 17.9333 30.94 17.9333C30.975 17.9333 30.9867 17.8867 31.0333 17.8633C31.15 17.7817 31.2083 17.7467 31.3483 17.7467C31.4883 17.7467 31.5583 17.7817 31.675 17.8633C31.7917 17.9217 31.7917 18.015 31.9083 18.0733C31.9667 18.1083 32.025 18.0967 32.0833 18.12C32.3867 18.225 32.6083 18.4233 32.6083 18.7383C32.6083 18.9133 32.5733 19.03 32.445 19.1467C32.34 19.2283 32.2467 19.2167 32.1183 19.2633C32.4895 19.5629 32.9612 19.709 33.4367 19.6717C33.9267 19.6717 34.5217 19.4733 34.5217 18.9833C34.5217 18.75 34.405 18.6333 34.3117 18.4233C34.1531 18.1167 34.0692 17.7769 34.0667 17.4317C34.0667 17.105 34.1017 16.9067 34.2883 16.65C34.475 16.3817 34.7083 16.3117 35.0467 16.3117Z" fill="#C7B37F"/>
<path d="M31.78 18.925C31.8001 18.9911 31.8361 19.0512 31.885 19.1001C31.9338 19.1489 31.9939 19.1849 32.06 19.205C32.1534 19.24 32.375 19.2283 32.5034 19.0417C32.62 18.9017 32.62 18.715 32.5734 18.575C32.5347 18.4714 32.4655 18.3819 32.375 18.3183L31.78 18.925Z" stroke="#703D29" stroke-width="0.0816667" stroke-linejoin="round"/>
<path d="M46.7833 27.92C46.6433 27.5817 46.2816 27.7333 46.27 27.92C46.2116 28.3517 46.585 28.48 46.8533 28.41C46.9154 28.3933 46.9733 28.3639 47.0235 28.3238C47.0737 28.2836 47.115 28.2336 47.145 28.1767C47.215 28.06 47.2383 27.8967 47.1916 27.745C47.1722 27.6776 47.1406 27.6143 47.0983 27.5583C47.0565 27.503 47.0051 27.4556 46.9466 27.4183C46.8416 27.3483 46.725 27.3483 46.55 27.3483C45.9083 27.3483 45.3366 28.1067 45.15 28.9117C45.08 29.1683 44.9983 29.7633 45.115 30.3117C45.2119 30.8085 45.451 31.2665 45.8033 31.63C46.1324 31.9397 46.5272 32.171 46.9583 32.3067C47.1103 32.3505 47.271 32.3546 47.425 32.3183C47.7983 32.2367 47.9733 31.875 47.775 31.5017C47.6233 31.21 47.1566 31.035 46.935 31.4317C46.9233 31.4667 46.8883 31.5367 46.8883 31.6067C46.8883 31.7117 46.935 31.84 47.005 31.8867C47.18 31.9917 47.4483 31.9567 47.4366 31.6533" stroke="#703D29" stroke-width="0.0816667" stroke-linecap="round"/>
<path d="M44.7767 32.3417C44.9761 32.1136 45.248 31.9611 45.5467 31.91C45.8967 31.8633 46.2 31.9683 46.5033 32.1433C46.8825 32.3169 47.2033 32.5965 47.4269 32.9485C47.6505 33.3005 47.7674 33.7097 47.7633 34.1267C47.7633 34.5467 47.6467 35.0017 47.53 35.2233C47.4367 35.4217 47.18 36.2733 45.745 36.8567C44.9167 37.2067 43.645 37.2767 42.7467 37.3233C41.5333 37.3583 40.4133 37.405 39.7717 38.21" stroke="#703D29" stroke-width="0.0933333"/>
<path d="M45.0799 33.7067C45.0449 33.59 45.0799 33.4617 45.1733 33.3217C45.3133 33.135 45.6049 33.0767 45.8733 33.205C45.9887 33.2673 46.0885 33.3551 46.1649 33.4617L46.2933 33.6483C46.3749 33.7767 46.4099 33.8817 46.4099 33.94C46.7016 34.7567 46.2466 35.6317 45.6516 35.9933C45.1849 36.2733 44.6366 36.39 43.9716 36.46C43.6799 36.5067 43.5049 36.495 43.2133 36.5183H42.0933C41.8134 36.5039 41.5331 36.5039 41.2533 36.5183C40.9149 36.5533 40.6699 36.565 40.3666 36.6117C40.1799 36.635 39.9699 36.67 39.7366 36.7283C39.6666 36.7283 39.5966 36.7517 39.5266 36.775L39.3866 36.81C38.9666 36.9383 38.5699 37.09 38.2433 37.3C38.1499 37.3583 38.0333 37.4167 37.9516 37.4983L37.7999 37.6383C37.5666 37.8717 37.3449 38.105 37.2866 38.42V38.6067C37.2866 38.8167 37.4499 39.1083 37.9166 39.19M38.5583 19.3567C38.6516 19.52 38.7099 19.625 38.6516 19.8117C38.5816 20.01 38.4416 20.1383 38.2316 20.1383C37.7649 20.1383 37.4966 19.5783 37.7066 19.2283C38.0799 18.61 38.7916 18.96 39.4566 19.2633C39.4216 19.1117 39.3633 19.0533 39.3749 18.855C39.3866 18.365 39.7483 18.155 39.8999 17.6883C39.9816 17.42 40.0166 17.1867 39.8183 16.9883C39.6433 16.8367 39.4449 16.8367 39.2233 16.9183C38.7799 17.0933 38.2316 17.6067 37.2866 17.6183C36.3299 17.6067 35.7933 17.0933 35.3383 16.9183C35.1049 16.8367 34.9183 16.8367 34.7433 17C34.5449 17.1867 34.5799 17.42 34.6616 17.7C34.8133 18.1433 35.1749 18.365 35.1866 18.8667C35.1866 19.0533 35.1399 19.1 35.1049 19.2633C35.7699 18.96 36.5049 18.575 36.8549 19.2283C37.0533 19.6017 36.7966 20.1267 36.3299 20.1267C36.1199 20.1267 35.9799 20.01 35.9099 19.8117C35.8633 19.6367 35.9099 19.485 36.0033 19.345" stroke="#703D29" stroke-width="0.0816667"/>
<path d="M36.7033 19.03C36.7993 19.0919 36.8763 19.1792 36.9257 19.2821C36.9751 19.3851 36.995 19.4997 36.9833 19.6133C36.9599 19.905 36.8899 19.975 36.6566 20.1383M36.9366 19.695C36.9249 19.87 36.8549 19.9867 36.6683 20.0567" stroke="#703D29" stroke-width="0.0816667" stroke-linecap="round"/>
<path d="M32.2817 18.26L32.3633 18.3183L32.4567 18.4117L32.515 18.5283L32.5383 18.6217V18.8433L32.515 18.9367L32.4567 19.0067L32.3867 19.0767L32.2817 19.135L32.165 19.1583L32.0483 19.1817L31.9317 19.1233L31.8267 19.0533L31.7683 18.96L31.7217 18.8433V18.7967L32.2817 18.26Z" fill="#C7B37F"/>
<path d="M32.1066 18.715C32.0716 18.5167 31.85 18.4817 31.7566 18.5983C31.6283 18.7733 31.7216 19.065 31.99 19.1467C32.0735 19.1636 32.1601 19.1573 32.2403 19.1285C32.3205 19.0997 32.3913 19.0495 32.445 18.9833C32.5616 18.8317 32.55 18.6567 32.5033 18.5167C32.4659 18.4123 32.3965 18.3225 32.305 18.26C31.99 18.0267 31.4766 18.0733 31.3016 18.4933C31.0916 19.0067 31.5583 19.4033 32.0016 19.695C32.5383 20.0683 33.1683 20.1383 33.635 20.1383C34.7083 20.1267 35.525 19.6133 36.05 19.3217C36.1666 19.2517 36.295 19.2633 36.365 19.345C36.3999 19.3923 36.4156 19.451 36.4092 19.5094C36.4027 19.5677 36.3744 19.6215 36.33 19.66" stroke="#703D29" stroke-width="0.0816667" stroke-linecap="round"/>
<path d="M28.9333 33.1817L28.7 33.2633L28.4667 33.45L28.35 33.6017L28.2217 33.835L28.1633 34.01L28.1167 34.22L28.0933 34.3833M30.31 33.205L30.2983 33.415L30.2633 33.555L30.1467 33.8117L29.995 34.0217L29.82 34.1617L29.6917 34.22L29.505 34.2667" stroke="#703D29" stroke-width="0.0816667"/>
<path d="M37.2983 38.77C37.2633 38.9683 37.0767 39.19 36.68 39.26L36.61 39.2833" stroke="#703D29" stroke-width="0.0933333"/>
<path d="M47.1567 32.5983C47.3679 32.8019 47.535 33.0468 47.6474 33.3178C47.7598 33.5888 47.8152 33.88 47.81 34.1733C47.81 34.5933 47.6933 35.0483 47.5767 35.27C47.4833 35.4683 47.2267 36.32 45.7917 36.9033C44.8258 37.2106 43.8186 37.368 42.805 37.37C41.6033 37.405 40.495 37.4517 39.8417 38.2217" stroke="#703D29" stroke-width="0.105"/>
<path d="M45.2083 33.38C45.3016 33.2633 45.6166 33.1 45.885 33.2517C45.9924 33.3059 46.0847 33.3861 46.1533 33.485" stroke="#703D29" stroke-width="0.07"/>
<path d="M46.8533 32.3183L47.0167 32.3767C47.1689 32.4221 47.3311 32.4221 47.4833 32.3767C47.81 32.2833 48.02 31.98 47.8567 31.5717C47.8067 31.4748 47.7348 31.3909 47.6467 31.3267" stroke="#703D29" stroke-width="0.105"/>
<path d="M28.035 23.685C27.8017 23.8133 27.65 23.8483 27.475 24.0467C27.3399 24.2968 27.238 24.5635 27.1717 24.84M32.5384 18.8083C32.5384 19.0183 32.3984 19.135 32.1884 19.1817" stroke="#703D29" stroke-width="0.0816667" stroke-linecap="round"/>
<path d="M46.3283 22.775C46.6235 22.7809 46.9145 22.8458 47.1843 22.9658C47.454 23.0857 47.6971 23.2583 47.8992 23.4735C48.1014 23.6887 48.2585 23.9421 48.3614 24.2188C48.4642 24.4955 48.5108 24.79 48.4983 25.085C48.4983 26.9517 47.3433 27.2433 46.8883 27.3717" stroke="#703D29" stroke-width="0.07"/>
<path d="M46.48 22.775C47.425 22.74 48.405 23.44 48.4516 25.19C48.4866 26.555 47.5183 27.1733 47.0516 27.29" stroke="#703D29" stroke-width="0.0816667"/>
<path d="M45.9434 29.355L45.955 29.1683L46.025 28.8767L46.1067 28.6433L46.2117 28.4567L46.3284 28.305M47.2384 27.9083V28.0833L47.18 28.2L47.0984 28.3283L47.005 28.3983L46.865 28.4567H46.7367L46.6434 28.445M44.975 22.285L45.01 22.0867L45.1034 21.9L45.22 21.725L45.4067 21.4683L45.57 21.305L45.8034 21.0483L46.0367 20.8267L46.165 20.675L46.34 20.4533L46.5034 20.22L46.5967 20.0217L46.655 19.765L46.6667 19.45L46.6434 19.3567M45.2084 34.3133L45.395 34.2667L45.535 34.1967L45.6167 34.115L45.675 34.0217L45.71 33.8817V33.7767M27.2534 32.365H27.5684L27.755 32.295M28.3384 28.0367L28.315 28.2L28.2684 28.27L28.2217 28.34L28.14 28.3983L28.0584 28.4333L27.9417 28.445H27.8717M29.0267 26.6367L28.9917 26.8817L28.9334 26.9983L28.84 27.1383L28.7 27.2433L28.56 27.3133L28.2917 27.3717M30.0767 22.74L30.0184 22.8917L29.96 23.0083L29.8667 23.125L29.75 23.2417L29.61 23.3L29.4817 23.335L29.4117 23.3233M29.4467 22.6V22.7167" stroke="#703D29" stroke-width="0.07"/>
<path d="M29.6683 26.5083C29.5974 26.5774 29.5144 26.6327 29.4233 26.6717M46.9817 31.8983L47.04 31.9217C47.2033 32.015 47.53 31.8983 47.4367 31.6417" stroke="#703D29" stroke-width="0.07" stroke-linecap="round"/>
<path d="M46.41 28.3283C46.5267 28.48 46.7483 28.5267 46.9233 28.48C46.9854 28.4633 47.0433 28.4339 47.0935 28.3938C47.1437 28.3536 47.1851 28.3035 47.215 28.2467C47.285 28.13 47.3083 27.9667 47.2617 27.815C47.2387 27.7467 47.2031 27.6834 47.1567 27.6283C47.115 27.5629 47.0638 27.5039 47.005 27.4533L46.9583 27.43M47.705 31.3967C47.7113 31.3698 47.7152 31.3425 47.7167 31.315C47.7175 31.2493 47.7044 31.1841 47.6782 31.1238C47.6521 31.0635 47.6135 31.0094 47.565 30.965L47.4717 30.8717M47.5183 30.93C47.5183 30.72 47.3433 30.5567 47.1217 30.5217M46.6317 30.8483L46.48 30.7317C46.1605 30.3943 45.9812 29.948 45.9783 29.4833C45.9783 28.9933 46.165 28.5033 46.3983 28.3167M39.8067 38.175L40.0167 37.9883L40.1567 37.8717L40.425 37.7083L40.6817 37.5917L40.8683 37.5333L41.2183 37.4633L41.6383 37.3933M38.1967 39.6567C37.9769 39.9753 37.6687 40.2227 37.31 40.3683C36.9537 40.2187 36.6465 39.9722 36.4233 39.6567" stroke="#703D29" stroke-width="0.07"/>
<path d="M36.68 39.1783C36.635 39.3599 36.5469 39.5279 36.4233 39.6683" stroke="#703D29" stroke-width="0.07" stroke-linecap="round"/>
<path d="M36.7151 38.9333L36.6684 39.19M36.4 39.6917L36.2834 39.8083L36.085 39.9133L35.8517 39.9833M35.1984 19.24C35.2334 19.1467 35.2567 19.0767 35.2567 18.9367C35.2451 18.4467 34.8834 18.225 34.7317 17.77C34.6501 17.5017 34.615 17.2683 34.8134 17.07C34.9767 16.9067 35.1867 16.9067 35.3967 17C35.8634 17.175 36.4 17.6767 37.345 17.7C36.4 17.6767 35.8517 17.175 35.4084 17C35.175 16.9067 34.9651 16.8833 34.7901 17.0583C34.5917 17.245 34.6501 17.5017 34.7317 17.77C34.8834 18.225 35.2217 18.4467 35.2334 18.9367C35.2334 19.0767 35.1984 19.1467 35.175 19.24M37.3334 17.6417C38.2667 17.595 39.0717 16.965 39.3284 16.9067C39.5617 16.86 39.6784 16.8833 39.8534 17.035C39.6901 16.8833 39.5034 16.895 39.2701 16.9767C38.8267 17.1517 38.29 17.6533 37.3334 17.6767M46.6201 30.8483C46.3955 30.6799 46.2132 30.4615 46.0876 30.2104C45.9621 29.9593 45.8967 29.6824 45.8967 29.4017C45.8967 28.9233 46.095 28.4217 46.3167 28.235M38.15 39.6217C37.9984 39.855 37.6484 40.205 37.2634 40.345C36.9056 40.1922 36.5982 39.9415 36.3767 39.6217" stroke="#703D29" stroke-width="0.07"/>
<path d="M35.7816 19.4733L36.0499 19.3217C36.1666 19.2517 36.3183 19.2633 36.3883 19.345C36.4583 19.4267 36.4699 19.5783 36.3649 19.6717" stroke="#703D29" stroke-width="0.07" stroke-linecap="round"/>
<path d="M34.3817 20.1267C35.0233 19.9867 35.5483 19.7067 35.945 19.485M39.7017 38.6417C39.76 38.6767 39.795 38.7583 39.795 38.7583C39.8067 38.7817 39.83 38.8167 39.83 38.8517C39.865 39.0267 39.7483 39.1317 39.5967 39.155C39.3983 39.1783 39.2467 39.0617 39.1883 38.9217M34.3467 20.0917C34.9883 19.9633 35.5133 19.6717 35.91 19.45M47.2967 31.9217C47.18 31.9683 47.11 31.9567 46.9467 31.8983L46.7367 31.7817C46.3111 31.5392 45.9693 31.173 45.7567 30.7317C45.6674 30.5622 45.6007 30.3818 45.5583 30.195C45.5211 30.07 45.5014 29.9404 45.5 29.81C45.4873 29.1717 45.6795 28.5461 46.0483 28.025C46.1767 27.8383 46.2933 27.7333 46.5383 27.7217M29.7733 23.1367C29.8735 23.2157 29.9541 23.3169 30.0087 23.4323C30.0634 23.5476 30.0906 23.674 30.0883 23.8017C30.0883 24.1633 29.785 24.7583 29.0383 24.9683C28.7907 25.0359 28.5263 25.0023 28.3033 24.875" stroke="#703D29" stroke-width="0.07"/>
<path d="M29.9017 24.3617C30.03 24.455 30.0883 24.56 30.0883 24.7467C30.0883 24.8633 30.0067 25.0267 29.8667 25.1783C29.7355 25.3209 29.577 25.4357 29.4007 25.5158C29.2243 25.596 29.0336 25.6399 28.84 25.645C28.6067 25.645 28.3733 25.5983 28.14 25.4467C27.9177 25.3004 27.7593 25.0752 27.6967 24.8167" stroke="#703D29" stroke-width="0.07"/>
<path d="M29.89 25.1433C30.0417 25.2833 30.0883 25.4583 30.0883 25.68C30.0883 25.995 29.96 26.24 29.6567 26.4967C29.5867 26.5667 29.5167 26.6133 29.4233 26.6717M44.5317 24.0933V24.5017M44.4967 23.9883V24.5717M44.5317 22.7283V23.4983M44.4967 22.565V23.6033M44.275 33.17C44.1542 33.4167 43.988 33.6383 43.785 33.8233C43.5904 34.0227 43.3611 34.1848 43.1083 34.3017C42.8651 34.4233 42.6059 34.5097 42.3383 34.5583C42.0782 34.6208 41.8124 34.656 41.545 34.6633C41.2533 34.6633 41.09 34.6633 40.7983 34.64C40.495 34.6167 40.3317 34.57 40.0167 34.5467C39.76 34.5233 39.62 34.5 39.3633 34.5117C38.9259 34.4959 38.4896 34.5673 38.08 34.7217C37.7767 34.8383 37.415 35.0717 37.345 35.165C37.1231 34.9759 36.8706 34.826 36.5983 34.7217C36.4073 34.6435 36.2075 34.5887 36.0033 34.5583C35.735 34.5117 35.595 34.5117 35.3267 34.5117C35.07 34.5117 34.93 34.5233 34.6733 34.5467C34.37 34.5817 34.2067 34.6167 33.8917 34.64C33.6 34.6633 33.4367 34.675 33.145 34.6633C32.6051 34.6576 32.0725 34.5383 31.5817 34.3133C31.2967 34.1803 31.0425 33.9896 30.835 33.7533M35.7467 39.9833L35.9567 39.96M39.4917 39.68L39.7017 39.6683L39.9 39.5867L40.04 39.4933L40.2383 39.26L40.2733 39.19L40.3083 38.9917V38.8983M45.7917 22.95C45.8733 22.6467 45.7683 22.32 45.465 22.3317M30.065 27.7567C30.0011 27.9835 29.8557 28.1788 29.6567 28.305M30.0767 22.8567C30.044 22.9599 29.9897 23.055 29.9172 23.1355C29.8448 23.216 29.7559 23.28 29.6567 23.3233C29.435 23.4167 29.19 23.3233 29.05 23.23" stroke="#703D29" stroke-width="0.07"/>
<path d="M28.4434 23.9883C28.6184 24.0817 28.805 23.9417 28.77 23.7083C28.7537 23.6408 28.7169 23.5799 28.6647 23.534C28.6125 23.488 28.5475 23.4593 28.4784 23.4517" stroke="#703D29" stroke-width="0.07" stroke-linecap="round"/>
<path d="M29.19 33.8117C29.225 33.8467 29.2367 33.8933 29.2833 33.905C29.365 33.9283 29.4233 33.9517 29.505 33.8467C29.5983 33.7183 29.54 33.52 29.4467 33.3917C29.3607 33.3032 29.2489 33.2442 29.1273 33.2232C29.0057 33.2023 28.8806 33.2204 28.77 33.275C28.6767 33.3333 28.5717 33.3917 28.4667 33.5317L28.3383 33.7183C28.2567 33.8467 28.2217 33.9517 28.21 33.9983C27.9767 34.6867 28.2567 35.3983 28.6883 35.83" stroke="#703D29" stroke-width="0.07"/>
<path d="M39.69 38.6183L39.7717 38.7117L39.795 38.8167C39.83 38.9917 39.7134 39.0967 39.5617 39.12C39.375 39.1433 39.235 39.0267 39.1767 38.8867" stroke="#703D29" stroke-width="0.07" stroke-linecap="round"/>
<path d="M45.43 18.435C45.6283 18.4646 45.8101 18.5623 45.9442 18.7113C46.0783 18.8603 46.1564 19.0514 46.165 19.2517C46.165 19.765 45.99 19.9517 45.7217 20.325C45.43 20.7217 44.4733 21.445 44.4733 22.2733C44.4733 22.775 44.6133 23.09 44.975 23.2533C45.2083 23.37 45.4767 23.2533 45.605 23.1367C45.9083 22.8567 45.78 22.3783 45.465 22.32C45.0917 22.25 45.01 22.8567 45.3833 22.8217M47.4717 30.8717C47.4528 30.7738 47.4007 30.6855 47.3241 30.6217C47.2476 30.5579 47.1513 30.5226 47.0517 30.5217C46.9372 30.5217 46.8274 30.5671 46.7464 30.6481C46.6655 30.729 46.62 30.8388 46.62 30.9533C46.62 31.07 46.6667 31.1867 46.7367 31.2567" stroke="#703D29" stroke-width="0.07"/>
<path d="M44.7883 23.1367C44.6881 23.2158 44.6075 23.3169 44.5529 23.4323C44.4983 23.5476 44.471 23.6741 44.4733 23.8017C44.4733 24.1633 44.7766 24.7583 45.5233 24.9683C45.8033 25.05 46.0833 25.0383 46.2466 24.9333M28.0466 23.7317C27.8207 23.8037 27.6242 23.9469 27.4866 24.14C27.2087 24.5806 27.1164 25.1133 27.23 25.6217C27.2765 25.8547 27.3676 26.0766 27.4983 26.275C27.5325 26.3254 27.5716 26.3723 27.615 26.415L27.755 26.5317M35.2216 37.265C35.7933 37.51 36.2016 37.6967 36.5516 38.2567C36.6464 38.4321 36.6946 38.629 36.6916 38.8283C36.6916 39.1433 36.575 39.4933 36.3066 39.715C36.2012 39.8084 36.0766 39.8777 35.9416 39.918C35.8066 39.9583 35.6644 39.9687 35.525 39.9483C35.3033 39.925 35.0933 39.7617 35.0583 39.645M29.6333 26.52C29.9483 26.7767 30.0883 27.01 30.0883 27.395C30.0954 27.5692 30.0558 27.7421 29.9738 27.8959C29.8918 28.0497 29.7702 28.1788 29.6216 28.27" stroke="#703D29" stroke-width="0.07"/>
<path d="M29.3417 27.955C29.8083 28.55 30.0767 28.9 30.0883 29.6C30.1 30.265 29.89 30.72 29.505 31.1983" stroke="#703D29" stroke-width="0.07" stroke-linecap="round"/>
<path d="M38.4767 20.1267C38.5619 20.063 38.6235 19.9726 38.6517 19.87C38.71 19.695 38.71 19.5433 38.6284 19.4033C38.745 19.5667 38.745 19.695 38.71 19.87C38.6984 19.9867 38.6167 20.045 38.5234 20.1383M44.5317 30.1833V32.0733L44.52 32.365C44.51 32.4314 44.4983 32.4975 44.485 32.5633" stroke="#703D29" stroke-width="0.07"/>
<path d="M44.4966 30.0083V32.33L44.4383 32.6333M44.4966 27.6167V29.32M44.5316 27.7567V29.1333M44.5316 26.0067V27.0333M44.4966 25.8783V27.1617M44.5316 24.945V25.3533M44.4966 24.8633V25.4467M44.2866 33.0533L44.24 33.135C44.1239 33.3849 43.9616 33.6105 43.7616 33.8C43.5626 33.9963 43.3293 34.1545 43.0733 34.2667C42.8338 34.3872 42.5785 34.4736 42.315 34.5233C42 34.5933 41.825 34.6167 41.51 34.6283C41.2183 34.6283 41.055 34.6283 40.775 34.605C40.46 34.5817 40.2966 34.5467 39.9816 34.5117C39.725 34.4883 39.585 34.4767 39.3283 34.4767C39.0716 34.4767 38.92 34.4767 38.6633 34.5233C38.4552 34.5527 38.2514 34.6076 38.0566 34.6867C37.7416 34.815 37.3916 35.0367 37.31 35.13C37.24 35.0367 36.8783 34.815 36.575 34.6867C36.3802 34.6076 36.1765 34.5527 35.9683 34.5233C35.7116 34.4767 35.56 34.4767 35.2916 34.4767C35.035 34.4767 34.895 34.4883 34.6383 34.5117C34.335 34.5467 34.1716 34.5817 33.8566 34.605C33.565 34.6283 33.4016 34.64 33.1216 34.6283C32.5778 34.6242 32.041 34.5049 31.5466 34.2783C31.2937 34.1617 31.0643 33.9995 30.87 33.8C30.7636 33.6996 30.666 33.5903 30.5783 33.4733M30.345 33.1C30.3641 33.2601 30.3502 33.4225 30.304 33.577C30.2578 33.7315 30.1805 33.8749 30.0766 33.9983C29.9833 34.1033 29.7733 34.3017 29.4933 34.3017C29.0616 34.3017 28.9333 34.01 28.91 33.9283" stroke="#703D29" stroke-width="0.07"/>
<path d="M29.82 32.9133C29.9016 32.995 29.9716 33.0883 30.0416 33.205C30.1583 33.415 30.1116 33.765 30.03 33.9283C30.0192 33.9445 30.0075 33.9601 29.995 33.975M27.6266 36.075C27.895 36.355 28.2916 36.6583 28.8983 36.9033C29.7266 37.2533 31.01 37.3233 31.8966 37.37C33.0633 37.405 34.1483 37.4517 34.8133 38.1867M36.8316 37.72C37.0458 37.8844 37.2079 38.1072 37.2983 38.3617M36.4466 39.7033C36.4211 39.7322 36.3938 39.7594 36.365 39.785C36.2609 39.8768 36.1382 39.9452 36.0054 39.9854C35.8725 40.0257 35.7326 40.0369 35.595 40.0183C35.3616 39.995 35.1516 39.8317 35.0933 39.715M34.4633 39.3767L34.4983 39.4233C34.6534 39.5895 34.8664 39.6897 35.0933 39.7033M38.2433 39.7033C38.0156 40.0193 37.7046 40.2657 37.345 40.415C36.9887 40.2654 36.6815 40.0188 36.4583 39.7033L36.4233 39.645M38.2433 39.6917L38.325 39.7733C38.4305 39.8667 38.555 39.936 38.69 39.9763C38.8251 40.0166 38.9672 40.027 39.1066 40.0067C39.2012 39.9957 39.2921 39.9638 39.3728 39.9134C39.4536 39.863 39.522 39.7952 39.5733 39.715L39.6316 39.6333" stroke="#703D29" stroke-width="0.07"/>
<path d="M39.55 39.645L39.4683 39.785L39.34 39.9017L39.1417 39.9833H38.955" stroke="#703D29" stroke-width="0.07"/>
<path d="M40.0166 38.3267C40.1365 38.4145 40.2327 38.5308 40.2966 38.665C40.3316 38.7467 40.3433 38.84 40.355 38.9333C40.3596 39.0225 40.3465 39.1117 40.3165 39.1958C40.2864 39.2799 40.24 39.3573 40.18 39.4233C40.0994 39.5102 40.002 39.5799 39.8937 39.628C39.7854 39.6761 39.6685 39.7018 39.55 39.7033C39.5344 39.7039 39.5189 39.7039 39.5033 39.7033M39.5266 39.68C39.413 39.6832 39.3001 39.6619 39.1954 39.6176C39.0908 39.5733 38.9968 39.5071 38.92 39.4233M46.3516 31.5017C46.1242 31.2862 45.9348 31.0337 45.7916 30.755C45.7033 30.5892 45.6367 30.4128 45.5933 30.23C45.556 30.105 45.5364 29.9754 45.535 29.845C45.5221 29.2084 45.7099 28.5839 46.0716 28.06C46.1533 27.9667 46.235 27.85 46.3166 27.8033M46.165 18.9483C46.4567 18.9717 46.725 19.2983 46.725 19.6133C46.725 20.0567 46.5733 20.255 46.2116 20.6983C45.9083 21.0717 44.975 21.7483 45.01 22.39C45.01 22.5067 45.0683 22.6233 45.1383 22.7167M44.765 23.125C44.8326 23.1927 44.9116 23.248 44.9983 23.2883C45.0793 23.3203 45.1663 23.3337 45.2531 23.3277C45.3399 23.3216 45.4243 23.2962 45.5 23.2533M43.05 18.225C43.163 18.2992 43.2522 18.4046 43.3067 18.5283C43.5167 19.0533 43.05 19.45 42.6067 19.7417C42.3147 19.937 41.9847 20.0682 41.6383 20.1267" stroke="#703D29" stroke-width="0.07"/>
<path d="M42.5367 19.2283C42.4674 19.2264 42.3994 19.2098 42.3371 19.1796C42.2747 19.1494 42.2195 19.1064 42.175 19.0533C42.141 19.0197 42.1133 18.9802 42.0933 18.9367M40.3433 19.5083C40.2904 19.4777 40.243 19.4383 40.2033 19.3917C40.0867 19.275 40.0283 19.1233 40.11 18.8783C40.18 18.6567 40.5417 18.0383 40.5533 17.6067C40.5767 16.9533 40.32 16.5567 39.935 16.4167" stroke="#703D29" stroke-width="0.07"/>
<path d="M40.5183 17.4667L40.5066 17.7L40.4366 17.9567L40.32 18.3067L40.2033 18.5283L40.11 18.75L40.0633 18.9017L40.04 19.0183L40.0516 19.1233M44.485 33.8583L44.555 33.9517C44.6366 34.0683 44.9283 34.3017 45.1966 34.3017C45.6283 34.3017 45.7333 33.9983 45.745 33.9283C45.8033 33.59 45.6866 33.5083 45.5116 33.4033C45.5116 33.4033 45.4183 33.3567 45.29 33.38" stroke="#703D29" stroke-width="0.07" stroke-linecap="round"/>
<path d="M27.65 32.3883C27.5088 32.4276 27.3595 32.4276 27.2183 32.3883C26.88 32.2833 26.6117 31.9683 26.7517 31.5717M28.315 27.8617C28.35 27.8967 28.3617 27.9433 28.3617 27.9783C28.4083 28.4217 28.035 28.5383 27.7783 28.4683C27.6341 28.4222 27.5104 28.3273 27.4283 28.2C27.3783 28.1192 27.3502 28.0267 27.3467 27.9317M29.9133 25.1783C29.9833 25.2367 30.03 25.295 30.065 25.3767M29.9367 24.385C29.995 24.4317 30.0417 24.49 30.065 24.5367" stroke="#703D29" stroke-width="0.07"/>
<path d="M30.0883 24.9333C30.0425 25.0366 29.9794 25.1313 29.9016 25.2133C29.7705 25.3559 29.612 25.4707 29.4357 25.5508C29.2593 25.631 29.0686 25.6749 28.875 25.68C28.6416 25.68 28.4083 25.6333 28.175 25.4817C27.9432 25.3299 27.7767 25.0968 27.7083 24.8283" stroke="#703D29" stroke-width="0.07" stroke-linecap="round"/>
<path d="M29.7967 23.16C29.9242 23.2644 30.021 23.4015 30.0767 23.5567" stroke="#703D29" stroke-width="0.07"/>
<path d="M30.0767 24.0817C29.9717 24.4317 29.6683 24.8517 29.0733 25.0033C28.7933 25.0733 28.42 24.98 28.3033 24.8867" stroke="#703D29" stroke-width="0.07" stroke-linecap="round"/>
<path d="M28 24.0117C28.035 24.315 28.2333 24.5483 28.63 24.5483C29.1783 24.56 29.5167 23.7667 29.0267 23.2067" stroke="#703D29" stroke-width="0.07"/>
<path d="M26.7633 26.6833C26.845 26.7883 26.9383 26.8817 27.0433 26.9633C27.2477 27.1384 27.486 27.2694 27.7433 27.3483M28.35 27.4067C28.84 27.3483 29.12 26.975 29.05 26.555C29.015 26.2283 28.7233 25.9717 28.5133 25.96" stroke="#703D29" stroke-width="0.07" stroke-linecap="round"/>
<path d="M29.1433 22.32C29.365 22.32 29.4933 22.5067 29.4816 22.67" stroke="#703D29" stroke-width="0.07"/>
<path d="M29.0967 19.3917C29.2058 19.6816 29.4119 19.9248 29.68 20.08M46.5033 23.6967C46.7017 23.965 46.5733 24.5133 46.0367 24.5133C45.9314 24.5145 45.8276 24.4882 45.7356 24.437C45.6435 24.3859 45.5664 24.3117 45.5117 24.2217" stroke="#703D29" stroke-width="0.07" stroke-linecap="round"/>
<path d="M44.5316 20.1033V21.9583" stroke="#703D29" stroke-width="0.07"/>
<path d="M28.4433 23.9767C28.6066 24.0933 28.8283 23.895 28.735 23.6733C28.6766 23.5333 28.4783 23.37 28.1866 23.5683C27.86 23.79 27.9533 24.4783 28.56 24.49C29.1083 24.49 29.4466 23.6967 28.9566 23.1367C28.49 22.6 27.6383 22.7167 27.09 23.16C26.6676 23.5103 26.3723 23.9901 26.25 24.525C26.176 24.879 26.176 25.2444 26.25 25.5983C26.3086 25.91 26.4275 26.2072 26.6 26.4733L26.7516 26.6717C26.845 26.765 26.8683 26.8117 26.985 26.905C27.3198 27.1979 27.7537 27.3522 28.1983 27.3367C28.735 27.3133 29.05 26.94 28.9916 26.485C28.945 26.0417 28.5016 25.82 28.21 26.03C28.0116 26.17 27.9416 26.6017 28.2916 26.7067C28.4783 26.765 28.6533 26.5083 28.525 26.3567M43.6333 17.98C43.9483 17.8167 44.1933 17.84 44.3683 18.0967C44.5364 18.3422 44.6033 18.6431 44.555 18.9367C44.5099 19.206 44.3639 19.4479 44.1466 19.6133" stroke="#703D29" stroke-width="0.07" stroke-linecap="round"/>
<path d="M44.3917 18.1083C44.7533 17.875 45.15 17.98 45.36 18.295C45.5117 18.5283 45.5583 18.715 45.5467 19.0067C45.5355 19.2272 45.4687 19.4413 45.3524 19.629C45.2361 19.8167 45.0742 19.9718 44.8817 20.08" stroke="#703D29" stroke-width="0.07" stroke-linecap="round"/>
<path d="M46.0833 18.9483C46.3867 18.9717 46.62 19.24 46.62 19.5433C46.62 19.9867 46.5033 20.185 46.1533 20.6283C45.8383 21.0133 44.9167 21.6783 44.94 22.3317C44.94 22.5767 45.15 22.7983 45.325 22.8217" stroke="#703D29" stroke-width="0.07"/>
<path d="M46.13 23.9767C45.955 24.0933 45.745 23.9067 45.8383 23.6967C45.8967 23.5567 46.095 23.37 46.3867 23.5683C46.7017 23.79 46.62 24.4783 46.0017 24.49C45.4533 24.49 45.0683 23.72 45.605 23.1367C46.0717 22.6 46.97 22.705 47.53 23.1483C47.7633 23.335 48.2417 23.8483 48.3467 24.5483C48.4633 25.365 48.4517 26.3683 47.6 26.9983C47.25 27.2433 46.7833 27.36 46.3633 27.3483C45.8267 27.325 45.5117 26.94 45.57 26.485C45.6283 26.0417 46.0367 25.855 46.3517 26.03C46.6783 26.205 46.62 26.66 46.27 26.7067C46.0717 26.73 45.9083 26.5083 46.0367 26.3567" stroke="#703D29" stroke-width="0.07" stroke-linecap="round"/>
<path d="M45.8383 23.6967C45.9317 23.2883 46.27 23.2533 46.5617 23.2533C47.32 23.265 47.8567 24.1867 47.8683 25.0617C47.8683 26.17 47.4017 26.835 46.585 26.87C46.3633 26.87 46.0017 26.7767 46.0017 26.52" stroke="#703D29" stroke-width="0.07"/>
<path d="M46.3167 23.51C47.1217 23.6967 47.4017 24.42 47.4017 25.12C47.4017 25.6917 47.3433 26.4733 46.235 26.7417" stroke="#703D29" stroke-width="0.07" stroke-linecap="square"/>
<path d="M47.6466 31.3267C47.6596 31.2477 47.6516 31.1668 47.6233 31.0919C47.595 31.0171 47.5475 30.951 47.4855 30.9004C47.4236 30.8498 47.3494 30.8165 47.2704 30.8037C47.1914 30.7909 47.1105 30.7991 47.0357 30.8276C46.9609 30.8561 46.895 30.9038 46.8446 30.9659C46.7941 31.028 46.7609 31.1023 46.7483 31.1813C46.7358 31.2603 46.7442 31.3412 46.7729 31.4159C46.8016 31.4906 46.8494 31.5564 46.9116 31.6067" stroke="#703D29" stroke-width="0.07"/>
<path d="M46.0133 30.6383C46.1766 30.8717 46.3633 31.1167 46.7483 31.3383M46.5966 32.5633C46.2233 32.3067 45.4883 31.98 44.8466 32.3067C44.7297 32.3512 44.6235 32.4199 44.535 32.5084C44.4465 32.5969 44.3778 32.7031 44.3333 32.82C44.2717 33.0074 44.2587 33.2074 44.2954 33.4012C44.3321 33.5951 44.4174 33.7764 44.5433 33.9283C44.6483 34.045 44.8583 34.2317 45.1266 34.2433C45.5699 34.2433 45.6749 33.94 45.6866 33.87C45.7333 33.5433 45.5466 33.415 45.4533 33.3917C45.3716 33.3567 45.1266 33.3683 45.0799 33.5433C45.0566 33.6017 45.0566 33.695 45.1033 33.7767" stroke="#703D29" stroke-width="0.07" stroke-linecap="round"/>
<path d="M39.725 38.6883C39.8416 38.945 39.7016 39.0617 39.5383 39.085C39.2816 39.12 39.1533 38.9217 39.1416 38.735C39.1369 38.6657 39.1463 38.5961 39.1692 38.5305C39.1921 38.4649 39.2281 38.4047 39.275 38.3534C39.3219 38.3021 39.3788 38.2609 39.4421 38.2322C39.5054 38.2036 39.5738 38.1881 39.6433 38.1867C39.9116 38.1867 40.1216 38.3617 40.2266 38.595C40.2616 38.6767 40.285 38.77 40.285 38.875C40.2944 39.0496 40.2358 39.221 40.1216 39.3533C40.0421 39.4424 39.9451 39.5142 39.8368 39.5643C39.7285 39.6145 39.611 39.6419 39.4916 39.645C39.0016 39.6567 38.6166 39.2017 38.6166 38.735C38.6166 37.8367 39.9466 37.335 40.4833 37.2183C41.1673 37.0502 41.8675 36.9563 42.5716 36.9383C42.98 36.9267 43.295 36.9383 43.75 36.88C44.1583 36.845 44.38 36.8217 44.8 36.7283C45.3472 36.6133 45.8543 36.3557 46.27 35.9817C46.6083 35.6667 46.795 35.4567 46.9583 35.025C47.0493 34.7594 47.0828 34.4774 47.0566 34.1979C47.0305 33.9183 46.9453 33.6475 46.8066 33.4033C46.6783 33.1898 46.5037 33.0076 46.2958 32.8703C46.0879 32.7331 45.8518 32.6441 45.605 32.61C45.1733 32.5517 44.7883 32.7383 44.555 33.17C44.4383 33.38 44.485 33.73 44.5666 33.8933C44.624 33.9932 44.7051 34.0775 44.8028 34.1385C44.9005 34.1996 45.0117 34.2356 45.1266 34.2433C45.57 34.2433 45.675 33.94 45.6866 33.87C45.7333 33.5433 45.5466 33.415 45.4533 33.38C45.3716 33.3567 45.1266 33.3683 45.08 33.5433C45.0566 33.6017 45.0566 33.695 45.1033 33.7767" stroke="#703D29" stroke-width="0.07" stroke-linecap="round"/>
<path d="M39.34 37.265C38.78 37.51 38.36 37.6967 38.01 38.2567C37.9147 38.4319 37.8665 38.6289 37.87 38.8283C37.87 39.1433 37.9983 39.4933 38.255 39.715C38.3605 39.8084 38.485 39.8777 38.6201 39.918C38.7551 39.9583 38.8972 39.9686 39.0367 39.9483C39.27 39.925 39.4683 39.7617 39.5033 39.645" stroke="#703D29" stroke-width="0.07" stroke-linecap="round"/>
<path d="M44.9283 26.52C44.66 26.6133 44.4733 27.01 44.4733 27.395C44.4663 27.5692 44.5058 27.7421 44.5878 27.8959C44.6699 28.0497 44.7914 28.1788 44.94 28.27" stroke="#703D29" stroke-width="0.07"/>
<path d="M45.22 27.955C44.7533 28.55 44.485 28.9 44.4733 29.6C44.4733 30.265 44.6717 30.72 45.0683 31.1983" stroke="#703D29" stroke-width="0.07" stroke-linecap="round"/>
<path d="M42.6884 18.1083L42.7234 18.05C42.9217 17.77 43.2717 17.6883 43.5284 17.875C43.8317 18.1083 43.9134 18.505 43.8317 18.925C43.7734 19.1817 43.5984 19.4033 43.365 19.5667" stroke="#703D29" stroke-width="0.07"/>
<path d="M30.9283 17.9683C30.625 17.8283 30.3799 17.8517 30.1933 18.085C30.1025 18.2028 30.0388 18.3391 30.0065 18.4842C29.9743 18.6294 29.9743 18.7799 30.0066 18.925C30.0766 19.24 30.17 19.3683 30.415 19.6017" stroke="#703D29" stroke-width="0.07" stroke-linecap="round"/>
<path d="M30.17 18.1083C30.0951 18.0542 30.0099 18.016 29.9197 17.996C29.8295 17.976 29.7362 17.9748 29.6454 17.9923C29.5547 18.0097 29.4685 18.0456 29.3922 18.0977C29.3159 18.1498 29.251 18.2169 29.2016 18.295C29.0566 18.5024 28.9904 18.7548 29.015 19.0067C29.0383 19.4967 29.3416 19.8933 29.6916 20.08" stroke="#703D29" stroke-width="0.07"/>
<path d="M29.1316 18.435C28.9418 18.4574 28.7664 18.5477 28.6378 18.6892C28.5091 18.8307 28.4359 19.0138 28.4316 19.205C28.4316 19.73 28.5483 19.94 28.84 20.325C29.1316 20.7217 30.0883 21.445 30.0883 22.2733C30.0883 22.775 29.9483 23.09 29.5866 23.2533C29.3533 23.37 29.085 23.2533 28.9566 23.1367C28.6533 22.8567 28.7816 22.3783 29.0966 22.32C29.4816 22.25 29.5516 22.8567 29.1783 22.8217" stroke="#703D29" stroke-width="0.07"/>
<path d="M28.4667 18.9483C28.175 18.9717 27.8834 19.2167 27.8834 19.5317C27.8834 19.975 28.0584 20.185 28.42 20.6283C28.7234 21.0133 29.5984 21.6783 29.575 22.32C29.575 22.5533 29.4 22.8567 29.2367 22.8217" stroke="#703D29" stroke-width="0.07"/>
<path d="M27.7667 27.92C27.9184 27.5817 28.28 27.7333 28.3034 27.92C28.35 28.3517 27.9767 28.48 27.7084 28.41C27.6463 28.3933 27.5884 28.3639 27.5382 28.3238C27.488 28.2836 27.4466 28.2336 27.4167 28.1767C27.3806 28.1115 27.3578 28.0397 27.3498 27.9655C27.3418 27.8914 27.3487 27.8164 27.37 27.745C27.393 27.6767 27.4286 27.6134 27.475 27.5583C27.5134 27.504 27.5607 27.4567 27.615 27.4183C27.7317 27.3483 27.8367 27.3483 28.0117 27.3483C28.6534 27.3483 29.225 28.1067 29.4117 28.9117C29.4817 29.1683 29.5634 29.7633 29.4467 30.3117C29.3531 30.8072 29.1181 31.2651 28.77 31.63C28.4373 31.9409 28.0384 32.1723 27.6034 32.3067C27.4559 32.3536 27.2981 32.3576 27.1484 32.3183C26.8217 32.2133 26.6117 31.91 26.775 31.5017C26.915 31.1983 27.405 31.035 27.6267 31.4317C27.65 31.4667 27.6734 31.5367 27.6734 31.6067C27.6734 31.7117 27.6267 31.84 27.5567 31.8867C27.3934 31.9917 27.125 31.9567 27.1367 31.6533" stroke="#703D29" stroke-width="0.07" stroke-linecap="round"/>
<path d="M27.2767 31.9217C27.3933 31.9683 27.4633 31.9567 27.615 31.8983L27.825 31.7817C28.1283 31.6067 28.4783 31.3383 28.805 30.72C28.8933 30.5542 28.96 30.3778 29.0033 30.195C29.0383 30.0783 29.0617 29.9383 29.0733 29.81C29.0826 29.1704 28.8863 28.5447 28.5133 28.025C28.385 27.8383 28.28 27.7333 28.0233 27.7217M26.915 31.3383C26.9002 31.2594 26.9065 31.1779 26.9333 31.1022C26.9602 31.0265 27.0066 30.9592 27.0679 30.9072C27.1292 30.8553 27.2031 30.8205 27.2822 30.8064C27.3613 30.7922 27.4427 30.7993 27.5182 30.8269C27.5937 30.8544 27.6605 30.9015 27.7119 30.9632C27.7633 31.025 27.7974 31.0992 27.8108 31.1785C27.8242 31.2577 27.8164 31.339 27.7881 31.4142C27.7599 31.4894 27.7122 31.5558 27.65 31.6067" stroke="#703D29" stroke-width="0.07"/>
<path d="M27.09 30.8717C27.1092 30.7718 27.1631 30.682 27.242 30.618C27.321 30.5539 27.42 30.5198 27.5217 30.5217C27.6341 30.5247 27.741 30.5715 27.8194 30.6521C27.8979 30.7328 27.9417 30.8408 27.9417 30.9533C27.9426 31.0656 27.9009 31.174 27.825 31.2567" stroke="#703D29" stroke-width="0.07"/>
<path d="M27.93 30.86C28.1546 30.6916 28.3369 30.4731 28.4624 30.222C28.588 29.9709 28.6533 29.6941 28.6533 29.4133C28.6533 28.935 28.4667 28.4333 28.2333 28.2467" stroke="#703D29" stroke-width="0.07"/>
<path d="M28.5484 30.6383C28.3704 30.9332 28.1166 31.175 27.8134 31.3383" stroke="#703D29" stroke-width="0.07" stroke-linecap="round"/>
<path d="M29.7033 32.3067C29.5866 32.05 29.3766 31.9333 29.0266 31.8983C28.6766 31.8633 28.385 31.9567 28.07 32.12C27.6917 32.2947 27.3717 32.5747 27.1483 32.9264C26.9249 33.2781 26.8074 33.6867 26.81 34.1033C26.8146 34.4845 26.8939 34.861 27.0433 35.2117C27.1483 35.3983 27.3933 36.2617 28.8283 36.845C29.799 37.1475 30.8099 37.3009 31.8266 37.3C33.04 37.3467 34.16 37.3933 34.8133 38.1867" stroke="#703D29" stroke-width="0.07"/>
<path d="M27.965 32.5633C28.35 32.3067 29.0734 31.98 29.7267 32.3067C29.8401 32.3549 29.9427 32.4251 30.0288 32.5132C30.1149 32.6013 30.1828 32.7056 30.2284 32.82C30.2899 33.0074 30.3029 33.2074 30.2662 33.4012C30.2295 33.5951 30.1442 33.7764 30.0184 33.9283C29.9134 34.045 29.7034 34.2317 29.435 34.2433C28.9917 34.2433 28.8867 33.94 28.875 33.87C28.8284 33.5433 29.015 33.415 29.1084 33.38C29.19 33.3567 29.435 33.3683 29.4817 33.5433C29.505 33.6017 29.505 33.695 29.4584 33.7767" stroke="#703D29" stroke-width="0.07" stroke-linecap="round"/>
<path d="M29.4817 33.7067C29.5167 33.59 29.505 33.45 29.3884 33.3217C29.2997 33.2296 29.1837 33.1686 29.0576 33.1476C28.9316 33.1265 28.8021 33.1467 28.6884 33.205C28.6067 33.2633 28.5017 33.3217 28.4084 33.4617C28.3617 33.5083 28.2917 33.59 28.2684 33.6483C28.1867 33.7767 28.1517 33.8817 28.1517 33.94C27.86 34.7567 28.3267 35.62 28.91 35.9933C29.4234 36.32 29.9367 36.4133 30.59 36.46C30.8817 36.495 31.0567 36.495 31.3484 36.5183H32.4683C32.7482 36.504 33.0285 36.504 33.3084 36.5183C33.6584 36.5533 33.9034 36.565 34.195 36.6117C34.3817 36.635 34.6034 36.67 34.825 36.7283C34.895 36.7283 34.965 36.7517 35.035 36.775L35.175 36.81C35.595 36.9383 35.9917 37.09 36.3183 37.3C36.4117 37.3583 36.5283 37.4167 36.61 37.4983L36.7617 37.6383C36.995 37.8717 37.2284 38.105 37.275 38.42V38.6067C37.275 38.8167 37.1117 39.1083 36.6567 39.19" stroke="#703D29" stroke-width="0.07"/>
<path d="M34.8367 38.6883C34.72 38.945 34.86 39.0617 35.0233 39.085C35.28 39.12 35.4083 38.9217 35.4317 38.735C35.4365 38.6647 35.4268 38.5942 35.4031 38.5278C35.3795 38.4614 35.3424 38.4006 35.2943 38.3492C35.2461 38.2977 35.1879 38.2568 35.1232 38.2288C35.0585 38.2008 34.9888 38.1865 34.9183 38.1867C34.7916 38.1895 34.6686 38.2298 34.5648 38.3025C34.461 38.3752 34.381 38.4769 34.335 38.595C34.299 38.6841 34.2792 38.7789 34.2767 38.875C34.2673 39.0496 34.3258 39.221 34.44 39.3533C34.5196 39.4424 34.6165 39.5142 34.7248 39.5643C34.8332 39.6145 34.9506 39.6419 35.07 39.645C35.56 39.6567 35.945 39.2017 35.945 38.735C35.945 37.8367 34.615 37.335 34.0783 37.2183C33.3943 37.0502 32.6942 36.9563 31.99 36.9383C31.5817 36.9267 31.2667 36.9383 30.8117 36.88C30.4033 36.845 30.1817 36.8217 29.7617 36.7283C29.2186 36.6114 28.7157 36.3539 28.3033 35.9817C27.9149 35.6941 27.6449 35.2746 27.5439 34.802C27.4429 34.3294 27.518 33.8362 27.755 33.415C27.8821 33.1992 28.056 33.0149 28.2641 32.8755C28.4721 32.7361 28.7088 32.6454 28.9567 32.61C29.4 32.5517 29.7733 32.7383 30.0067 33.17C30.1233 33.38 30.0767 33.73 29.995 33.8933C29.9377 33.9932 29.8566 34.0775 29.7589 34.1385C29.6612 34.1996 29.5499 34.2356 29.435 34.2433C28.9917 34.2433 28.8867 33.94 28.875 33.87C28.8283 33.5433 29.015 33.415 29.1083 33.38C29.19 33.3567 29.435 33.3683 29.4817 33.5433C29.505 33.6017 29.505 33.695 29.4583 33.7767" stroke="#703D29" stroke-width="0.07"/>
<path d="M31.885 18.1083L31.8383 18.05C31.64 17.77 31.29 17.6883 31.0333 17.875C30.73 18.1083 30.6483 18.505 30.7416 18.925C30.8073 19.1917 30.9748 19.422 31.2083 19.5667" stroke="#703D29" stroke-width="0.07" stroke-linecap="round"/>
<path d="M42.7934 18.995C42.3267 19.5083 41.8484 19.6717 41.1484 19.695C40.915 19.695 40.5067 19.625 40.2617 19.45C40.11 19.3333 39.935 19.1467 40.04 18.8083C40.11 18.5867 40.4717 17.9683 40.4834 17.5367C40.5184 16.8833 40.2617 16.5217 39.865 16.3817C39.1417 16.125 38.3484 16.8483 37.8817 17.0117C37.6367 17.0933 37.5084 17.105 37.2867 17.105C37.0534 17.105 36.9367 17.0933 36.68 17.0117C36.2134 16.8483 35.4317 16.125 34.6967 16.3817C34.3 16.5217 34.055 16.8833 34.0784 17.5483C34.09 17.9683 34.4517 18.5983 34.5217 18.8083C34.6384 19.1467 34.4634 19.3333 34.3 19.45C34.0667 19.625 33.635 19.695 33.425 19.6833C32.725 19.6717 32.2467 19.5083 31.78 18.995" stroke="#703D29" stroke-width="0.07"/>
<path d="M34.685 37.055C34.7783 37.09 34.7083 37.0317 35.3033 37.2883C35.8467 37.477 36.311 37.8426 36.6217 38.3267C36.7582 38.5886 36.7955 38.8911 36.7267 39.1783" stroke="#703D29" stroke-width="0.07" stroke-linecap="round"/>
<path d="M34.7317 39.575C34.8474 39.6358 34.9746 39.6715 35.105 39.68C35.595 39.6917 35.98 39.2367 35.98 38.77C35.98 38.4433 35.805 38.1633 35.56 37.9533" stroke="#703D29" stroke-width="0.07"/>
<path d="M34.8366 38.6883C34.7199 38.9567 34.8833 39.0967 35.0466 39.12C35.3033 39.1433 35.4433 38.9567 35.4666 38.77C35.4737 38.6725 35.4534 38.575 35.408 38.4885C35.3627 38.4019 35.2941 38.3297 35.2099 38.28" stroke="#703D29" stroke-width="0.07" stroke-linecap="round"/>
<path d="M45.5117 18.435C45.885 18.435 46.2117 18.855 46.2117 19.275C46.2117 19.7767 45.955 20.08 45.7567 20.3017C45.605 20.4883 45.4417 20.6517 45.2433 20.85" stroke="#703D29" stroke-width="0.07"/>
<path d="M45.0683 18.0383C45.1954 18.1081 45.3066 18.2034 45.395 18.3183C45.5467 18.5517 45.5933 18.75 45.5817 19.0417C45.5583 19.5317 45.2083 19.87 44.8817 20.0917M44.3333 18.0383L44.4033 18.12C44.625 18.3767 44.6367 18.75 44.59 18.96C44.5638 19.09 44.5109 19.2131 44.4345 19.3216C44.3582 19.43 44.2602 19.5214 44.1467 19.59M43.5633 17.91C43.8667 18.1433 43.96 18.54 43.855 18.96C43.785 19.2517 43.5983 19.4267 43.365 19.5667M44.66 24.3617C44.695 24.4783 44.765 24.5133 44.835 24.595C45.0352 24.7934 45.285 24.9344 45.5583 25.0033C45.8383 25.085 46.095 25.0267 46.2933 24.8983M27.2767 31.1983C27.4167 31.1983 27.5683 31.3033 27.6617 31.4667C27.6733 31.49 27.7083 31.56 27.7083 31.6417C27.7083 31.7467 27.6617 31.8517 27.5917 31.8983C27.4167 32.015 27.125 31.9567 27.125 31.665" stroke="#703D29" stroke-width="0.07" stroke-linecap="round"/>
<path d="M28.175 27.36C28.7583 27.4767 29.3067 28.165 29.4817 28.9117C29.5517 29.18 29.6333 29.7633 29.5167 30.3117C29.4186 30.814 29.1752 31.2764 28.8167 31.6417C28.7415 31.7224 28.6595 31.7966 28.5717 31.8633L28.455 31.945M27.5217 30.5333C27.755 30.5333 27.965 30.755 27.965 31C27.9659 31.1122 27.9242 31.2206 27.8483 31.3033" stroke="#703D29" stroke-width="0.07"/>
<path d="M27.37 30.79C27.615 30.79 27.8483 31.0233 27.8483 31.28C27.8484 31.3468 27.8339 31.4127 27.8056 31.4732C27.7774 31.5337 27.7362 31.5872 27.685 31.63" stroke="#703D29" stroke-width="0.07"/>
<path d="M29.6334 28.3167C29.8514 28.576 30.0035 28.8842 30.0767 29.215M30.0767 30.2067C30.0379 30.3689 29.9791 30.5256 29.9017 30.6733C29.7933 30.8783 29.6513 31.0636 29.4817 31.2217" stroke="#703D29" stroke-width="0.07" stroke-linecap="round"/>
<path d="M29.6683 26.5433C29.8783 26.7183 30.0183 26.8933 30.0767 27.1033" stroke="#703D29" stroke-width="0.07"/>
<path d="M30.0883 25.9833C30.0112 26.197 29.8733 26.3836 29.6917 26.52M28.6183 24.5133L28.875 24.4433L29.0267 24.3267L29.12 24.1983L29.2017 23.9883L29.2367 23.8133" stroke="#703D29" stroke-width="0.07" stroke-linecap="round"/>
<path d="M28.1167 23.6267C28.035 23.65 27.93 23.6733 27.825 23.72C27.6608 23.7992 27.5201 23.9199 27.4167 24.07C27.1399 24.511 27.0477 25.0432 27.16 25.5517C27.2065 25.7847 27.2976 26.0065 27.4283 26.205L27.545 26.3683C27.7083 26.52 27.8483 26.6017 28.0817 26.5667" stroke="#703D29" stroke-width="0.07"/>
<path d="M29.5167 22.5183C29.4817 22.67 29.4 22.8567 29.1667 22.8333" stroke="#703D29" stroke-width="0.07" stroke-linecap="round"/>
<path d="M28.665 23.5333C28.4316 23.3117 27.965 23.2533 27.4867 23.5567L27.3 23.7083C27.2382 23.7637 27.1834 23.8264 27.1367 23.895C27.0129 24.0733 26.9184 24.2702 26.8566 24.4783C26.775 24.8283 26.775 25.1317 26.7867 25.2133C26.7867 25.33 26.81 25.435 26.8216 25.5283C26.8916 25.855 26.985 26.0883 27.09 26.2517C27.195 26.4267 27.44 26.835 27.9883 26.8817C28.1983 26.8933 28.5483 26.8 28.5716 26.5317" stroke="#703D29" stroke-width="0.07"/>
<path d="M42.4433 18.6917C42.4783 18.505 42.7116 18.47 42.7933 18.575C42.9333 18.7617 42.8399 19.065 42.5599 19.1467C42.4782 19.1614 42.394 19.154 42.3161 19.1253C42.2382 19.0965 42.1693 19.0475 42.1166 18.9833C42 18.8317 42.0116 18.6567 42.0583 18.5167C42.0816 18.4233 42.1633 18.3417 42.2566 18.26C42.5716 18.0267 43.0849 18.0733 43.2599 18.4933C43.4699 19.0067 43.0033 19.4033 42.5599 19.695C42.0233 20.0683 41.3933 20.1383 40.9266 20.1267C39.8533 20.1267 39.0483 19.6133 38.5116 19.31C38.395 19.2517 38.2666 19.2633 38.1966 19.345C38.1617 19.3923 38.1459 19.451 38.1524 19.5094C38.1589 19.5677 38.1872 19.6215 38.2316 19.66" stroke="#703D29" stroke-width="0.07" stroke-linecap="round"/>
<path d="M42.6533 18.5167C42.77 18.5167 42.7933 18.5633 42.8283 18.61C42.9683 18.785 42.8633 19.0883 42.595 19.1817M44.6716 25.19C44.2633 25.6333 44.6483 26.3917 44.9516 26.5667C45.0566 26.6483 45.1033 26.6017 45.185 26.6483" stroke="#703D29" stroke-width="0.07" stroke-linecap="round"/>
<path d="M44.695 24.3383C44.5667 24.4317 44.52 24.5367 44.5083 24.7233C44.502 24.8082 44.5132 24.8934 44.5413 24.9737C44.5694 25.054 44.6138 25.1276 44.6717 25.19C44.9678 25.4627 45.3541 25.6164 45.7567 25.6217C45.99 25.6217 46.2233 25.575 46.4567 25.4233C46.6789 25.2771 46.8374 25.0519 46.9 24.7933M44.4733 32.0033L44.45 32.295C44.4259 32.5798 44.3466 32.8571 44.2167 33.1117C44.0959 33.3583 43.9297 33.58 43.7266 33.765C43.5277 33.9613 43.2944 34.1195 43.0383 34.2317C42.7994 34.3563 42.5441 34.4466 42.28 34.5C41.7731 34.6011 41.2539 34.6247 40.74 34.57C40.425 34.5467 40.2617 34.5117 39.9467 34.4767C39.69 34.465 39.55 34.4417 39.2933 34.4417C38.859 34.4312 38.4268 34.5065 38.0217 34.6633C37.7067 34.78 37.3567 35.0133 37.275 35.1067C37.205 35.0017 36.8433 34.78 36.54 34.6633C36.3457 34.5802 36.142 34.5215 35.9333 34.4883C35.6767 34.4417 35.525 34.4417 35.2567 34.4417C35 34.4417 34.86 34.465 34.6033 34.4883C34.3 34.5117 34.1367 34.5583 33.8217 34.57C33.53 34.5933 33.3667 34.605 33.0867 34.5933C32.8119 34.5914 32.5381 34.5602 32.27 34.5C32.0065 34.4503 31.7512 34.3639 31.5117 34.2433C31.2588 34.1264 31.0295 33.9643 30.835 33.765C30.6308 33.5766 30.4645 33.3508 30.345 33.1C30.2167 32.8489 30.1375 32.5757 30.1117 32.295C30.0883 32.1783 30.0883 32.0033 30.0883 32.0033V20.1267H44.4617V32.0033H44.4733Z" stroke="#703D29" stroke-width="0.07"/>
<path d="M28.9333 33.695C28.9333 33.6176 28.9641 33.5435 29.0188 33.4888C29.0735 33.4341 29.1476 33.4033 29.225 33.4033C29.3024 33.4033 29.3765 33.4341 29.4312 33.4888C29.4859 33.5435 29.5167 33.6176 29.5167 33.695C29.5167 33.7724 29.4859 33.8465 29.4312 33.9012C29.3765 33.9559 29.3024 33.9867 29.225 33.9867C29.1476 33.9867 29.0735 33.9559 29.0188 33.9012C28.9641 33.8465 28.9333 33.7724 28.9333 33.695ZM27.125 31.6417C27.125 31.49 27.2183 31.3733 27.335 31.3733C27.4517 31.3733 27.5333 31.49 27.5333 31.6417C27.5333 31.7817 27.44 31.8983 27.335 31.8983C27.2183 31.8983 27.125 31.7817 27.125 31.6417Z" fill="#C7B37F" stroke="#C7B37F" stroke-width="0.035"/>
<path d="M28.1517 26.4617C28.1517 26.345 28.245 26.2517 28.35 26.2517C28.4667 26.2517 28.5483 26.345 28.5483 26.4617C28.5483 26.5783 28.4667 26.6717 28.35 26.6717C28.2333 26.6717 28.1517 26.5783 28.1517 26.4617ZM31.7333 18.8083C31.7333 18.6917 31.7917 18.575 31.8967 18.575C32.0017 18.5633 32.095 18.645 32.1067 18.7617C32.1067 18.8783 32.0483 18.995 31.9433 18.995C31.8383 19.0067 31.7567 18.925 31.7333 18.8083Z" fill="#C7B37F"/>
<path d="M27.9184 27.675C27.8717 27.6867 27.8484 27.6983 27.825 27.7333C27.79 27.7683 27.7784 27.78 27.755 27.8383L27.7317 27.9783M28.28 31.0933L28.3967 30.9767L28.4667 30.86L28.525 30.7433L28.6067 30.5917M28.455 32.225L28.28 32.3067L28.1517 32.3767C28.0998 32.4055 28.0492 32.4367 28 32.47L27.86 32.5867M29.61 28.165L29.5167 28.0717L29.4 27.9783L29.295 27.885" stroke="#C7B37F" stroke-width="0.07" stroke-linecap="round"/>
<path d="M29.6567 26.625L29.5167 26.6833C29.4604 26.7037 29.4014 26.7155 29.3417 26.7183" stroke="#C7B37F" stroke-width="0.07"/>
<path d="M27.6967 24.6883C27.72 24.7583 27.72 24.805 27.755 24.8633C27.7783 24.945 27.8133 24.9917 27.86 25.0617C27.9358 25.1884 28.0395 25.2962 28.1633 25.3767L28.3383 25.47M28.2217 24.7933L28.3733 24.8633C28.4838 24.9108 28.6031 24.9346 28.7233 24.9333L28.9333 24.9217M29.7733 20.1733L29.54 20.0333C29.435 19.975 29.3883 19.9283 29.3067 19.8583C29.2593 19.8118 29.2164 19.761 29.1783 19.7067L29.085 19.555M29.96 19.0183L30.03 19.2167C30.0718 19.3025 30.127 19.3813 30.1933 19.45C30.31 19.5667 30.3917 19.6017 30.52 19.7067M30.6833 19.0067C30.7183 19.0883 30.7183 19.1233 30.765 19.1933C30.7883 19.2517 30.8117 19.2867 30.8583 19.3333L31.01 19.485C31.0917 19.555 31.15 19.5667 31.2433 19.6133" stroke="#C7B37F" stroke-width="0.07" stroke-linecap="round"/>
<path d="M38.885 18.0617C38.885 17.8633 38.6866 17.8517 38.605 17.8517C38.395 17.8517 38.3366 17.98 38.0683 18.12C37.837 18.2743 37.5647 18.3556 37.2866 18.3533C37.0087 18.3549 36.7366 18.2736 36.505 18.12C36.2366 17.98 36.19 17.8517 35.9683 17.8517C35.933 17.8532 35.8984 17.8616 35.8665 17.8765C35.8345 17.8914 35.8057 17.9124 35.7819 17.9384C35.7581 17.9644 35.7396 17.9949 35.7275 18.0281C35.7155 18.0612 35.7101 18.0964 35.7116 18.1317V18.2367L35.7466 18.26C35.7466 18.1667 35.7583 18.12 35.805 18.0617C35.8278 18.0339 35.8562 18.0113 35.8884 17.9952C35.9205 17.9791 35.9557 17.97 35.9916 17.9683C36.2016 17.9683 36.2833 18.1083 36.5516 18.2483C36.9016 18.435 37.0416 18.47 37.3333 18.4817C37.6152 18.4855 37.8917 18.4042 38.1266 18.2483C38.395 18.1083 38.4766 17.9567 38.6866 17.9567C38.7566 17.9567 38.8033 18.0033 38.8383 18.0733V18.1783L38.8616 18.19C38.8616 18.155 38.885 18.1433 38.885 18.0733V18.0617Z" fill="#703D29" stroke="#703D29" stroke-width="0.0233333"/>
<path d="M30.8467 34.675C30.905 34.6167 30.9517 34.64 30.9633 34.605C30.9633 34.5817 30.9633 34.5817 30.9283 34.57L30.8233 34.5467L30.73 34.5C30.7183 34.5 30.6833 34.4767 30.6717 34.5C30.66 34.5467 30.7883 34.5467 30.7417 34.6634C30.72 34.7157 30.6883 34.7633 30.6483 34.8034L30.345 35.1534L30.3217 35.165V34.6634L30.3333 34.4534C30.3567 34.4067 30.4267 34.4534 30.4383 34.4067C30.4383 34.395 30.4383 34.3834 30.4033 34.3717C30.38 34.3717 30.345 34.3717 30.275 34.3367L30.1583 34.2784C30.135 34.2784 30.1 34.255 30.0883 34.2784L30.1 34.3134C30.1467 34.3367 30.1583 34.36 30.1583 34.43V35.2934C30.1583 35.3517 30.17 35.3634 30.1817 35.375C30.1933 35.375 30.205 35.375 30.2283 35.34L30.8467 34.675Z" fill="#703D29"/>
<path d="M31.2083 34.815C31.2433 34.6867 31.325 34.7684 31.325 34.7217C31.3366 34.6984 31.325 34.6984 31.3016 34.6867L31.15 34.64C31.1033 34.64 31.0566 34.605 31.01 34.5934C31.01 34.5934 30.975 34.5817 30.9633 34.5934C30.9516 34.6517 31.0916 34.6517 31.0566 34.7684L30.8583 35.41C30.8233 35.5267 30.7416 35.48 30.73 35.5267V35.5384L30.87 35.585L31.0566 35.6434H31.0916C31.115 35.5967 30.9516 35.6084 31.01 35.445L31.2083 34.815ZM31.64 34.9317C31.6633 34.8617 31.6983 34.8734 31.745 34.885C31.8616 34.92 31.9083 35.0367 31.8616 35.1767C31.8383 35.2467 31.815 35.3167 31.6283 35.27C31.5933 35.2584 31.5466 35.2467 31.5583 35.2117L31.64 34.9434V34.9317ZM31.3133 35.515C31.255 35.6784 31.1733 35.6084 31.1616 35.655C31.1616 35.6784 31.185 35.6784 31.1966 35.69L31.3833 35.7367L31.4766 35.7717H31.5233C31.535 35.7134 31.4066 35.7367 31.4416 35.5967L31.5116 35.3634C31.5233 35.3167 31.5233 35.305 31.5816 35.3284C31.6516 35.34 31.6633 35.3634 31.675 35.4217L31.71 35.655C31.7333 35.76 31.745 35.8534 31.8266 35.8884C31.885 35.8884 31.9666 35.8884 31.99 35.8417L31.9666 35.8184H31.9316C31.9316 35.8184 31.8966 35.8184 31.8966 35.7834L31.815 35.3634C31.815 35.34 31.8616 35.34 31.9083 35.3284C31.9374 35.3128 31.9628 35.2912 31.9829 35.265C32.003 35.2389 32.0174 35.2088 32.025 35.1767C32.0366 35.1184 32.0716 34.92 31.815 34.8384L31.57 34.78L31.43 34.7334H31.395C31.3833 34.7917 31.5233 34.78 31.4766 34.9317L31.3016 35.515H31.3133ZM32.2933 35.8067C32.2466 35.97 32.13 35.865 32.1183 35.9234C32.1183 35.9467 32.13 35.9584 32.1533 35.9584L32.3283 35.9934L32.4916 36.04C32.5266 36.04 32.55 36.0634 32.5616 36.0284C32.5616 35.9934 32.41 35.9934 32.445 35.8184L32.5966 35.2117C32.5966 35.1417 32.62 35.1417 32.6666 35.1534L32.7833 35.1767C32.9116 35.2117 32.8416 35.3517 32.9 35.3634C32.9233 35.3634 32.9233 35.3167 32.9233 35.2934L32.935 35.1767V35.13L32.55 35.0484L32.1766 34.955C32.165 34.955 32.1533 34.955 32.1533 34.9784L32.095 35.1534C32.0833 35.165 32.0716 35.2 32.095 35.2C32.1533 35.2117 32.1533 35.025 32.2933 35.06L32.3983 35.0834C32.445 35.095 32.4566 35.1067 32.445 35.1767L32.2933 35.8067ZM33.775 35.4217C33.8216 35.3517 33.8683 35.3634 33.88 35.34C33.88 35.3167 33.8566 35.3167 33.8333 35.305H33.7283L33.6233 35.27C33.6116 35.27 33.5766 35.2584 33.5766 35.2817C33.565 35.3284 33.6933 35.305 33.67 35.4334C33.67 35.4567 33.6583 35.5034 33.6 35.585L33.3666 35.97L33.3316 35.9934V35.97L33.25 35.5034C33.2344 35.4345 33.2304 35.3635 33.2383 35.2934C33.2383 35.235 33.32 35.27 33.32 35.235C33.32 35.2117 33.32 35.2117 33.2733 35.2L33.145 35.1884C33.0983 35.1884 33.0633 35.165 33.0283 35.1534C33.005 35.1534 32.97 35.1417 32.9583 35.165L32.97 35.1884C33.0283 35.2117 33.04 35.235 33.0516 35.2934L33.2033 36.145C33.215 36.2034 33.2266 36.2267 33.2383 36.2267C33.25 36.2267 33.2616 36.2267 33.285 36.1917L33.775 35.4217ZM33.845 36.215C33.845 36.25 33.845 36.25 33.8683 36.2734C33.9383 36.2967 33.985 36.3434 34.0666 36.355C34.23 36.3784 34.37 36.2734 34.3933 36.0984C34.4283 35.9234 34.3583 35.8534 34.23 35.76C34.0783 35.655 34.02 35.6317 34.0316 35.5267C34.0433 35.445 34.1133 35.41 34.195 35.41C34.405 35.445 34.3816 35.7134 34.405 35.7134C34.44 35.7134 34.44 35.7017 34.44 35.6667L34.4633 35.48V35.4334H34.3933C34.3466 35.4334 34.3116 35.375 34.2066 35.3517C34.0666 35.3284 33.9383 35.4334 33.915 35.585C33.8916 35.725 33.9616 35.795 34.055 35.865C34.2416 35.9934 34.3116 36.0284 34.2883 36.145C34.2766 36.2617 34.1833 36.3084 34.09 36.2967C33.95 36.2734 33.9033 36.1334 33.88 35.9934C33.88 35.97 33.88 35.9584 33.8566 35.9584C33.8333 35.9584 33.8333 35.9934 33.8333 36.0167V36.215H33.845ZM35.6883 35.69C35.7233 35.6084 35.7816 35.62 35.7816 35.585C35.7816 35.5617 35.77 35.5734 35.735 35.5617H35.63L35.525 35.55C35.5133 35.55 35.4783 35.55 35.4783 35.5734C35.4783 35.62 35.595 35.5734 35.595 35.7017C35.595 35.725 35.5833 35.7717 35.5366 35.865L35.3266 36.2734L35.315 36.3084L35.3033 36.2734L35.175 35.8067C35.1539 35.7466 35.1421 35.6837 35.14 35.62C35.14 35.5617 35.2216 35.585 35.2216 35.55C35.2216 35.5267 35.2216 35.5267 35.175 35.5267H35.035L34.9183 35.5034C34.895 35.5034 34.86 35.4917 34.8483 35.515L34.8716 35.5384C34.9183 35.5617 34.9416 35.5734 34.9533 35.6317L35.1983 36.46L35.245 36.5417C35.2566 36.5417 35.2683 36.5417 35.28 36.495L35.6883 35.6784V35.69Z" fill="#703D29"/>
<path d="M35.8866 36.3667C35.8866 36.5067 35.77 36.4834 35.77 36.5417C35.77 36.565 35.7816 36.5534 35.805 36.5534H36.0616L36.1083 36.5417C36.1083 36.4717 35.945 36.565 35.945 36.3084V35.8184L35.9566 35.8067L35.98 35.8184L36.575 36.5534L36.61 36.565L36.6333 36.53V35.7484C36.6333 35.5967 36.75 35.6317 36.75 35.5967C36.75 35.5967 36.75 35.5734 36.715 35.5734H36.4466C36.4233 35.5734 36.4233 35.585 36.4233 35.5967C36.4233 35.6434 36.575 35.62 36.575 35.7484V36.215L36.5633 36.2617L36.5166 36.2267L36.0266 35.6084C36.0033 35.5734 36.015 35.5734 35.98 35.5734H35.77L35.7466 35.585C35.7466 35.655 35.8866 35.5617 35.8866 35.83V36.3667ZM37.1 35.725C37.1 35.5967 37.1933 35.6434 37.1933 35.5967C37.1933 35.585 37.1933 35.5734 37.1466 35.5734H36.8433C36.8433 35.5734 36.8083 35.5734 36.8083 35.5967C36.8083 35.6434 36.9366 35.5967 36.9366 35.7367V36.4017C36.9366 36.53 36.8433 36.495 36.8433 36.5417C36.8433 36.5417 36.8433 36.565 36.8666 36.565H37.1933C37.2166 36.565 37.2283 36.565 37.2283 36.5417C37.2283 36.495 37.0883 36.565 37.0883 36.39L37.1 35.725ZM37.625 36.3667C37.625 36.5417 37.485 36.4834 37.485 36.53C37.485 36.5534 37.5083 36.5534 37.5316 36.5534H37.8816C37.9166 36.5534 37.94 36.5534 37.94 36.5184C37.94 36.4834 37.7766 36.5184 37.7766 36.355V35.725C37.7766 35.655 37.7766 35.655 37.835 35.655H37.9516C38.0916 35.6434 38.045 35.795 38.1033 35.795C38.1266 35.795 38.115 35.7484 38.115 35.725L38.1033 35.6084C38.1033 35.585 38.1033 35.5617 38.08 35.5617L37.695 35.5734H37.31L37.2866 35.6084L37.275 35.795L37.2866 35.8417C37.345 35.8417 37.31 35.655 37.45 35.655H37.555C37.6016 35.655 37.6133 35.655 37.625 35.725V36.3784V36.3667ZM38.36 36.11H38.3133L38.325 36.0517L38.4066 35.795V35.7717L38.43 35.7834L38.5466 36.0284L38.57 36.075C38.57 36.0984 38.5466 36.0984 38.5233 36.0984H38.36V36.11ZM38.57 36.1684C38.605 36.1684 38.605 36.1684 38.6633 36.285L38.6866 36.3784C38.6866 36.46 38.605 36.4484 38.605 36.495C38.605 36.5067 38.6283 36.5067 38.6516 36.495H38.7916L38.9433 36.4834C38.9783 36.4834 38.99 36.4834 38.99 36.46C38.99 36.4134 38.92 36.46 38.8733 36.3784L38.4766 35.5617L38.4416 35.515C38.4183 35.515 38.4183 35.5384 38.4066 35.5617L38.15 36.425C38.1266 36.5067 38.0566 36.5067 38.0683 36.5417H38.3366C38.36 36.53 38.395 36.5417 38.395 36.5067C38.395 36.4717 38.255 36.5067 38.2433 36.4017L38.2666 36.285C38.29 36.1917 38.3133 36.1917 38.3366 36.1917L38.5816 36.1684H38.57ZM39.5383 35.585C39.5266 35.4917 39.5383 35.4917 39.6783 35.4684C39.9116 35.445 39.8416 35.62 39.9116 35.6084C39.935 35.6084 39.9116 35.5617 39.9116 35.5384L39.9 35.41C39.9 35.3984 39.8883 35.3867 39.865 35.3867C39.7483 35.3867 39.6666 35.41 39.585 35.4217L39.2583 35.4684C39.235 35.4684 39.2233 35.4684 39.2233 35.4917C39.235 35.55 39.375 35.4917 39.3866 35.6084L39.4683 36.25C39.4916 36.425 39.3866 36.3667 39.3983 36.425C39.3983 36.425 39.3983 36.4367 39.4216 36.425L39.585 36.4134L39.725 36.4017C39.76 36.4017 39.7833 36.4017 39.7833 36.3667C39.7833 36.3317 39.6433 36.3784 39.62 36.2267L39.5966 36.0284C39.585 35.9467 39.585 35.9234 39.6316 35.9117H39.725C39.8533 35.8884 39.8416 36.04 39.8766 36.0284C39.9116 36.0284 39.9 35.9817 39.8883 35.97L39.8533 35.725C39.8533 35.69 39.83 35.69 39.83 35.69C39.795 35.69 39.8183 35.8184 39.7133 35.83L39.6316 35.8417C39.5733 35.8534 39.5733 35.8417 39.5616 35.7834L39.5383 35.585ZM40.005 35.9117C40.0516 36.18 40.25 36.3434 40.495 36.2967C40.8916 36.215 40.9033 35.8767 40.8683 35.6784C40.81 35.3867 40.6 35.2467 40.355 35.2934C40.0633 35.3517 39.9466 35.6084 40.005 35.9117ZM40.1333 35.795C40.0983 35.6084 40.1333 35.3984 40.3316 35.3634C40.495 35.3284 40.6816 35.4567 40.7283 35.76C40.7633 35.9934 40.7283 36.18 40.5183 36.2267C40.2966 36.2734 40.1683 35.9934 40.1333 35.8067V35.795ZM41.1016 35.3167C41.09 35.235 41.125 35.2234 41.1716 35.2117C41.2883 35.1884 41.3816 35.27 41.4166 35.3984C41.44 35.48 41.4516 35.5617 41.265 35.6084C41.23 35.6084 41.1833 35.62 41.1716 35.585L41.1133 35.3167H41.1016ZM41.1016 35.9817C41.1483 36.145 41.0433 36.1334 41.0433 36.1684C41.055 36.2034 41.0783 36.1917 41.09 36.18C41.16 36.18 41.2066 36.145 41.2766 36.1334L41.3933 36.11C41.4166 36.11 41.4166 36.0984 41.4166 36.0867C41.4166 36.04 41.3 36.1217 41.265 35.97L41.2066 35.7367C41.2066 35.69 41.1833 35.69 41.2533 35.6784C41.3116 35.655 41.335 35.6667 41.3816 35.7134L41.5333 35.9C41.5916 35.97 41.65 36.0517 41.7433 36.0284C41.8016 36.0167 41.86 35.97 41.86 35.9234L41.8366 35.9117L41.8016 35.9234C41.8016 35.9234 41.7666 35.935 41.755 35.9234L41.475 35.585L41.5333 35.515C41.5566 35.4684 41.58 35.41 41.5566 35.3284C41.545 35.27 41.475 35.0834 41.2066 35.1417L40.9616 35.2117L40.8216 35.235C40.7983 35.235 40.7866 35.2467 40.7983 35.2584C40.7983 35.3167 40.9266 35.235 40.9616 35.375L41.1016 35.9817ZM42.1166 35.7484C42.1516 35.9117 42 35.8884 42.0116 35.935C42.0116 35.97 42.0466 35.9584 42.07 35.9584L42.2333 35.9L42.4083 35.865C42.4433 35.865 42.4666 35.865 42.455 35.8184C42.455 35.7834 42.3033 35.865 42.2566 35.7017L42.105 35.0834C42.0816 35.025 42.105 35.0134 42.14 35.0017L42.2566 34.9784C42.385 34.9317 42.385 35.095 42.4316 35.0834C42.4666 35.0834 42.4316 35.025 42.4316 35.0017L42.385 34.885C42.385 34.885 42.385 34.85 42.3616 34.8617L41.9883 34.9667L41.615 35.0484V35.0834L41.6266 35.27C41.6266 35.2934 41.6266 35.3167 41.6616 35.3167C41.72 35.305 41.6266 35.13 41.7783 35.095L41.8716 35.0717C41.9183 35.06 41.9416 35.0717 41.9533 35.13L42.1166 35.7484ZM42.7583 34.8967C42.7233 34.78 42.8283 34.7917 42.805 34.745H42.77L42.6066 34.7917L42.4666 34.8267C42.4666 34.8267 42.4316 34.8267 42.4316 34.85C42.4433 34.8967 42.5716 34.8267 42.6066 34.9434L42.7933 35.5967C42.8166 35.7134 42.7233 35.7134 42.735 35.7484C42.735 35.76 42.735 35.7717 42.7583 35.76L42.8866 35.725L43.0733 35.6784C43.1083 35.6784 43.1083 35.6667 43.1083 35.6434C43.0966 35.6084 42.98 35.7017 42.9333 35.5384L42.7583 34.8967ZM43.0266 35.2117C43.1083 35.48 43.33 35.6084 43.575 35.5267C43.9483 35.3984 43.925 35.0484 43.855 34.8617C43.7616 34.5817 43.5283 34.4767 43.295 34.5467C43.015 34.6517 42.9216 34.92 43.0266 35.2117ZM43.1433 35.095C43.0733 34.8967 43.0733 34.6867 43.2716 34.6284C43.4233 34.57 43.6216 34.675 43.7266 34.9667C43.7966 35.1767 43.785 35.3867 43.5866 35.4567C43.3766 35.5267 43.2133 35.2817 43.1433 35.0834V35.095ZM44.03 34.4534C44.0066 34.3717 44.03 34.36 44.0766 34.3367C44.1933 34.3017 44.31 34.3717 44.3566 34.5C44.38 34.57 44.4033 34.6517 44.2283 34.7217C44.1933 34.7217 44.1466 34.745 44.135 34.7217L44.03 34.4534ZM44.1233 35.1067C44.1933 35.27 44.0766 35.27 44.1 35.305C44.1 35.34 44.1233 35.3167 44.1466 35.3167L44.3216 35.235L44.4266 35.2117C44.45 35.2 44.45 35.1884 44.45 35.1767C44.4266 35.13 44.3333 35.2234 44.2866 35.0834L44.1933 34.8617C44.17 34.815 44.17 34.8034 44.2283 34.78C44.2866 34.7567 44.31 34.7684 44.3566 34.815L44.5433 34.9784C44.6016 35.0367 44.6716 35.1067 44.7766 35.0717C44.8116 35.0484 44.8816 34.99 44.8583 34.955L44.835 34.9434L44.8116 34.9667H44.7533L44.4266 34.675L44.4733 34.5934C44.4862 34.5639 44.4928 34.5321 44.4928 34.5C44.4928 34.4679 44.4862 34.4361 44.4733 34.4067C44.4616 34.3367 44.3566 34.1734 44.1116 34.2667L43.8783 34.3717L43.7383 34.4184L43.715 34.4417C43.7383 34.4884 43.8433 34.395 43.9016 34.535L44.135 35.1184L44.1233 35.1067Z" fill="#703D29"/>
<path d="M30.8149 20.8561H36.9451V26.9787H30.8149V20.8561Z" fill="#D52B1E"/>
<path d="M33.6896 25.6721C33.6896 25.6721 33.6896 25.8961 33.6299 26.0678C33.5552 26.2694 33.5552 26.2694 33.488 26.3665C33.4155 26.4849 33.3189 26.5867 33.2043 26.6651C33.055 26.7547 32.9056 26.7995 32.7563 26.7846C32.3531 26.7547 32.159 26.3067 32.0694 25.9483C31.9723 25.5675 31.696 25.351 31.5094 25.5003C31.4048 25.575 31.4048 25.7094 31.487 25.8438C31.5674 25.9408 31.6735 26.0133 31.7931 26.0529L31.5766 26.3291C31.5766 26.3291 31.1062 26.2694 31.0166 25.7766C30.9792 25.5899 31.0688 25.2465 31.3824 25.1419C31.7782 25.0075 32.0246 25.2913 32.1515 25.5302C32.3158 25.8587 32.3904 26.4561 32.8534 26.3665C33.1072 26.3142 33.2267 25.9483 33.2267 25.7766L33.4059 25.5825L33.6822 25.6721H33.6896Z" fill="white"/>
<path d="M34.4288 23.0737L35.2352 22.2001C35.2352 22.2001 35.3547 22.103 35.3547 21.9462L35.1904 21.9761L35.1531 21.8865L35.1456 21.8043L35.3696 21.7521V21.655L35.392 21.5579L35.1531 21.5729L35.1755 21.4683L35.2128 21.3937L35.3547 21.3638H35.4966C35.631 21.1099 36.1835 20.8859 36.5718 21.2891C36.8555 21.5878 36.7958 22.1254 36.4224 22.2747C36.339 22.3118 36.2465 22.3238 36.1564 22.3092C36.0662 22.2946 35.9822 22.2541 35.9147 22.1926L36.064 21.8939C36.2656 22.0209 36.4374 21.8715 36.4224 21.7147C36.4075 21.5131 36.2731 21.3937 36.1014 21.3787C35.9296 21.3638 35.8027 21.4534 35.728 21.6027C35.6832 21.6998 35.7056 21.767 35.6907 21.8715C35.6758 21.9835 35.6907 22.0433 35.6534 22.1553C35.6169 22.2584 35.5554 22.3508 35.4742 22.4241L34.6528 23.3201L31.4422 26.7846L31.2032 26.5606L34.4288 23.0737Z" fill="#FEDF00"/>
<path d="M32.0694 23.3723C32.0694 23.3723 32.271 24.3729 32.9579 25.8737C33.3088 25.7467 33.5104 25.6646 33.8838 25.6646C34.2496 25.6646 34.4512 25.7393 34.8022 25.8737C35.1844 25.073 35.4822 24.2347 35.6907 23.3723L33.8838 21.0577L32.0619 23.3723H32.0694Z" fill="white"/>
<path d="M34.0555 21.8342L35.3099 23.4545C35.3099 23.4545 35.1456 24.2385 34.6379 25.4182C34.4363 25.3734 34.2645 25.3361 34.0555 25.3211V21.8342ZM33.7045 21.8342L32.4501 23.4545C32.4501 23.4545 32.6144 24.2385 33.1221 25.4182C33.3237 25.3734 33.4955 25.3361 33.7045 25.3211V21.8342Z" fill="#FEDF00"/>
<path d="M37.6017 20.85H43.7384V26.975H37.6017V20.85Z" fill="#FEDF00"/>
<path d="M38.465 20.85H39.375V26.975H38.465V20.85ZM40.215 20.85H41.125V26.975H40.215V20.85ZM41.965 20.85H42.8867V26.975H41.965V20.85Z" fill="#D52B1E"/>
<path d="M30.835 32.2833C30.8466 32.4 30.8933 32.5867 30.9983 32.785C31.115 32.96 31.0683 32.9483 31.3133 33.2283C31.4495 33.3656 31.6071 33.4799 31.78 33.5667C32.3313 33.804 32.9309 33.908 33.53 33.87C33.845 33.8583 34.09 33.8233 34.3 33.7883C34.7253 33.7318 35.1544 33.7084 35.5833 33.7183C35.7583 33.7183 35.9333 33.7533 36.1316 33.7883C36.54 33.87 36.9483 34.0217 36.9483 34.0217V27.64H30.8116V31.9917L30.835 32.2717V32.2833Z" fill="#FEDF00"/>
<path d="M31.5467 33.4033L31.8384 33.5783L32.235 33.7183V27.6283H31.5467V33.4033ZM34.9534 33.6833V27.6283H34.2767V33.7883L34.9534 33.7067V33.6833ZM36.3184 27.6283H35.6417V33.7067C35.8634 33.73 36.085 33.7767 36.3184 33.8233V27.64V27.6283ZM33.5884 27.6283V33.8583C33.5884 33.8583 33.145 33.8817 32.9117 33.8583V27.6283H33.5884Z" fill="#D52B1E" stroke="#D52B1E" stroke-width="0.035"/>
<path d="M43.7173 32.2875C43.6906 32.4598 43.6351 32.6264 43.553 32.7803C43.441 32.9521 43.4784 32.9521 43.232 33.2283C42.965 33.4917 42.6281 33.673 42.2613 33.751C41.8573 33.8575 41.4387 33.8978 41.0218 33.8705C40.7008 33.8555 40.4618 33.8182 40.2528 33.7958C39.969 33.751 39.7525 33.7286 39.4314 33.7211C39.2772 33.7135 39.1227 33.7135 38.9685 33.7211C38.5027 33.7738 38.0443 33.879 37.6021 34.0347V27.6283H43.7397V31.9963L43.7173 32.2801V32.2875Z" fill="#FEDF00"/>
<path d="M39.1701 28.151L39.1254 28.1659L39.0656 28.2256C39.0358 28.2555 39.0134 28.263 38.976 28.2854L38.9312 28.3227C38.9088 28.3451 38.9312 28.3675 38.9088 28.3974C38.9013 28.4272 38.8864 28.4422 38.864 28.472C38.8342 28.5019 38.8118 28.5094 38.7894 28.5467L38.6997 28.6214L38.6774 28.6288H38.6326C38.6027 28.6438 38.5952 28.6736 38.5728 28.6886L38.5952 28.7334L38.655 28.8379C38.6699 28.8603 38.6699 28.8902 38.6923 28.8976C38.7296 28.9126 38.7595 28.9126 38.7894 28.9051C38.8491 28.92 38.8864 28.92 38.9387 28.9424L39.0507 29.0022C39.088 29.0246 39.1104 29.032 39.1477 29.0395H39.2821V29.0619L39.4315 29.1366C39.4278 29.1462 39.4253 29.1562 39.424 29.1664C39.4166 29.1888 39.4091 29.2187 39.4166 29.2262C39.4614 29.368 39.5062 29.4502 39.5286 29.4651C39.5734 29.48 39.5883 29.5323 39.6107 29.5771L39.5883 29.5995C39.5435 29.6443 39.4987 29.6742 39.4614 29.7339C39.4091 29.8235 39.3718 29.8235 39.439 29.943L39.551 30.1222C39.5808 30.1744 39.5958 30.2118 39.6107 30.2715C39.6256 30.3238 39.6331 30.3611 39.6331 30.4208L39.7077 30.4432L39.76 30.3984L39.8048 30.3088V30.2342C39.7899 30.2267 39.7824 30.2043 39.7899 30.1819C39.7899 30.152 39.8272 30.1595 39.8421 30.1371C39.8645 30.0998 39.8123 30.0774 39.7899 30.055C39.7451 30.0027 39.6853 29.9878 39.6704 29.9131C39.6704 29.8982 39.6704 29.8832 39.7003 29.8608L39.8496 29.7264C39.8646 29.7339 39.8944 29.7414 39.9243 29.7339L40.0214 29.7638C40.0662 29.7787 40.0886 29.7638 40.111 29.7638H40.1408L40.1483 29.8086C40.1558 29.8832 40.1408 30.0326 40.1632 30.0699L40.1856 30.1147L40.2006 30.1595V30.3088L40.1856 30.4358C40.1856 30.4656 40.1707 30.488 40.1483 30.5104C40.1334 30.5403 40.1035 30.5403 40.0736 30.5627V30.6374L40.1557 30.6747L40.2528 30.6971L40.3051 30.6747L40.3126 30.6299L40.3499 30.5926C40.3798 30.5776 40.4096 30.5926 40.4171 30.5851C40.432 30.5627 40.4171 30.5552 40.4171 30.5254C40.4171 30.4806 40.4022 30.4507 40.3947 30.4059C40.3839 30.3368 40.3814 30.2666 40.3872 30.1968C40.3872 30.152 40.3872 30.1222 40.4021 30.0848C40.4096 30.0102 40.432 29.9803 40.447 29.9206C40.4694 29.8459 40.4693 29.8011 40.4768 29.7339C40.7286 29.7718 40.9855 29.7566 41.231 29.6891C41.2907 29.7414 41.3579 29.7787 41.4326 29.8086V29.8832C41.4326 29.9056 41.4325 29.9131 41.4475 29.9355L41.4699 29.9579C41.4923 29.9579 41.5072 29.9579 41.5221 29.943C41.5371 29.928 41.5371 29.9131 41.5371 29.8907V29.8384H41.6715V29.9206C41.6789 29.943 41.6939 29.9504 41.7088 29.9504C41.7158 29.9538 41.7235 29.9555 41.7312 29.9555C41.739 29.9555 41.7466 29.9538 41.7536 29.9504C41.776 29.9355 41.7685 29.9056 41.776 29.8758V29.8235L41.8507 29.7936C41.8527 29.816 41.8527 29.8385 41.8507 29.8608L41.8283 29.928C41.8134 29.9728 41.791 29.9878 41.7686 30.0326C41.7387 30.0774 41.7312 30.1072 41.6939 30.1446L41.6491 30.1968L41.6043 30.264L41.5371 30.3387C41.4848 30.3835 41.4475 30.3536 41.3877 30.4059L41.3654 30.4806L41.4699 30.5254L41.567 30.5403L41.5968 30.5254C41.5968 30.503 41.5968 30.4806 41.6192 30.4656C41.6342 30.4432 41.6491 30.4432 41.6715 30.4358C41.7013 30.4358 41.7312 30.4358 41.7461 30.4208C41.776 30.3984 41.776 30.3462 41.7984 30.3088C41.8534 30.1981 41.9295 30.0992 42.0224 30.0176L42.1493 29.9131C42.1643 29.8832 42.1867 29.8758 42.1867 29.8384L42.1717 29.7936L42.1568 29.719C42.2688 29.7712 42.2315 29.7712 42.2464 29.8235C42.2688 29.8683 42.2464 29.8982 42.2539 29.9504C42.2614 30.0102 42.2912 30.0326 42.2912 30.0923C42.2987 30.1595 42.2837 30.1968 42.2688 30.264C42.2613 30.3238 42.2613 30.3611 42.2315 30.4134C42.2138 30.4569 42.1856 30.4954 42.1493 30.5254L42.1046 30.5627L42.0971 30.6374L42.1792 30.6672L42.2987 30.6971L42.3286 30.6747C42.3435 30.6224 42.3285 30.5478 42.3584 30.5478C42.3883 30.5403 42.4107 30.5478 42.4181 30.5254V30.4731L42.4704 30.1371L42.5003 29.9952L42.5301 29.8683C42.5824 29.719 42.5152 29.6966 42.4555 29.5995C42.4181 29.5472 42.4032 29.5248 42.4032 29.4875V29.271C42.4009 29.2013 42.4009 29.1316 42.4032 29.0619L42.4331 29.047C42.5227 28.9947 42.56 28.9798 42.6123 28.8603C42.6282 28.8252 42.6358 28.7869 42.6347 28.7483V28.6736L42.6048 28.599C42.5931 28.5768 42.578 28.5567 42.56 28.5392C42.5078 28.4646 42.4331 28.4571 42.3584 28.4272C42.2464 28.3899 42.1717 28.3974 42.0597 28.3899C41.9253 28.375 41.8582 28.375 41.7312 28.3899C41.5819 28.3899 41.4997 28.4198 41.3504 28.4422L40.9846 28.472C40.8128 28.472 40.656 28.4347 40.5515 28.4422C40.3723 28.4571 40.3648 28.5019 40.0886 28.5243C39.9941 28.532 39.8995 28.537 39.8048 28.5392L39.6406 28.487C39.7078 28.4646 39.7227 28.4496 39.7526 28.4123C39.775 28.3824 39.7675 28.36 39.7974 28.3302L39.8496 28.2555C39.8298 28.2406 39.8068 28.2304 39.7824 28.2256H39.7077C39.6767 28.2268 39.6461 28.2344 39.6181 28.248L39.5584 28.2928L39.3941 28.2032C39.3241 28.1676 39.2482 28.1449 39.1701 28.136V28.151Z" fill="#D52B1E"/>
<path d="M42.4704 29.0843L42.4107 29.1067C42.3435 29.1366 42.2912 29.1366 42.2165 29.1441C42.0224 29.159 41.8955 29.0619 41.6939 29.0769C41.5893 29.0843 41.5445 29.1665 41.4325 29.1963C41.3908 29.2052 41.3483 29.2102 41.3056 29.2113L41.3429 29.1366C41.3429 29.1366 41.2533 29.159 41.1936 29.159C41.1533 29.1583 41.1133 29.1533 41.0741 29.1441L41.1488 29.0694L41.0517 29.0545C41.0243 29.041 40.9991 29.0233 40.9771 29.0022C41.0197 28.9965 41.062 28.989 41.104 28.9798C41.216 28.9499 41.2533 28.8902 41.3952 28.8753C41.4773 28.8753 41.6192 28.8753 41.9627 28.935C42.1867 28.9723 42.2912 28.9499 42.3733 28.9126C42.4331 28.8902 42.448 28.8379 42.4554 28.7782C42.4629 28.7185 42.4256 28.6737 42.3957 28.6438C42.3883 28.6438 42.3584 28.6214 42.3136 28.6139" stroke="#FEDF00" stroke-width="0.0746667" stroke-linecap="round"/>
<path d="M39.185 28.4198C39.1477 28.4198 39.1178 28.4198 39.088 28.4422C39.0506 28.4646 39.0432 28.4945 39.0133 28.5243C39.0506 28.5318 39.073 28.5542 39.1029 28.5467C39.1328 28.5467 39.1402 28.5318 39.1626 28.5094C39.185 28.4795 39.1925 28.4571 39.1925 28.4198H39.185Z" fill="#FCD900" stroke="#FEDF00" stroke-width="0.0373333"/>
<path d="M40.0213 29.4054C40.0409 29.4648 40.0659 29.5223 40.096 29.5771C40.1109 29.6369 40.096 29.6667 40.1109 29.7265V29.8459M40.6187 29.3233L40.5963 29.4203L40.5216 29.6817V29.7339M39.7003 29.4353C39.7675 29.4502 39.7451 29.6817 39.8421 29.7339" stroke="#FEDF00" stroke-width="0.0746667" stroke-linecap="round"/>
<path d="M41.8208 29.8534L41.8507 29.831C41.9262 29.8001 41.9947 29.7544 42.0523 29.6966" stroke="#FEDF00" stroke-width="0.0746667"/>
<path d="M41.2458 29.719C41.5072 29.6518 41.6864 29.5249 41.8133 29.5025M41.5146 29.3905H41.5744C41.6864 29.3681 41.7013 29.4352 41.776 29.48C41.9178 29.5547 41.9328 29.6518 42.097 29.7339L42.1269 29.7414L42.1866 29.7713" stroke="#FEDF00" stroke-width="0.0746667" stroke-linecap="round"/>
<path d="M38.6549 28.711H38.7072L38.7669 28.6961C38.7893 28.6961 38.8042 28.6961 38.8192 28.711C38.8341 28.711 38.8341 28.7185 38.8416 28.7334C38.8416 28.7483 38.8565 28.7558 38.849 28.7707C38.849 28.7857 38.8266 28.8006 38.8042 28.8006C38.7893 28.8006 38.7744 28.8006 38.7669 28.7782C38.7649 28.7735 38.7638 28.7684 38.7638 28.7633C38.7638 28.7581 38.7649 28.753 38.7669 28.7483C38.7565 28.7536 38.745 28.7563 38.7333 28.7563C38.7216 28.7563 38.7101 28.7536 38.6997 28.7483C38.6901 28.7454 38.6812 28.7406 38.6735 28.7342C38.6658 28.7278 38.6595 28.7199 38.6549 28.711Z" fill="#FCD900" stroke="#FEDF00" stroke-width="0.0373333"/>
<path d="M39.2075 29.4353L39.0581 29.3681C39.088 29.3531 39.1104 29.3531 39.1328 29.3307C39.1552 29.3009 39.1552 29.271 39.1701 29.2337C39.1851 29.1963 39.1851 29.159 39.2224 29.1291C39.2448 29.1142 39.2821 29.1142 39.3045 29.1217C39.3344 29.1217 39.3643 29.1515 39.3717 29.1739C39.3717 29.2187 39.3568 29.2486 39.3493 29.2859C39.3493 29.3307 39.3269 29.3531 39.3344 29.3905C39.3344 29.4203 39.3493 29.4353 39.3643 29.4651L39.2149 29.4353H39.2075ZM39.1328 29.5099C39.1315 29.5012 39.1327 29.4923 39.1364 29.4843C39.1401 29.4763 39.1461 29.4696 39.1536 29.465C39.1611 29.4604 39.1698 29.4581 39.1786 29.4584C39.1874 29.4587 39.196 29.4616 39.2031 29.4667C39.2103 29.4718 39.2158 29.479 39.2189 29.4872C39.2221 29.4954 39.2227 29.5044 39.2208 29.513C39.2189 29.5216 39.2145 29.5294 39.2081 29.5355C39.2017 29.5416 39.1937 29.5457 39.1851 29.5473C39.1786 29.5484 39.1719 29.548 39.1656 29.5463C39.1593 29.5445 39.1534 29.5414 39.1484 29.5371C39.1434 29.5328 39.1395 29.5275 39.1368 29.5215C39.1341 29.5155 39.1327 29.509 39.1328 29.5025V29.5099ZM39.0059 28.2705H38.9909C38.9611 28.2406 38.9611 28.2107 38.9461 28.1809C38.9341 28.1523 38.9265 28.1221 38.9237 28.0913V27.9419C38.9237 27.9195 38.9237 27.8971 38.9088 27.8747C38.9088 27.8598 38.8789 27.8523 38.8864 27.8449C38.8864 27.8374 38.9088 27.8449 38.9163 27.8449C38.9461 27.8449 38.9611 27.8523 38.9909 27.8747C39.0133 27.8971 39.0283 27.9195 39.0357 27.9494L39.0656 28.0614L39.088 28.1211L39.1253 28.1659L39.0731 28.2257L39.0059 28.2705ZM39.2747 29.0619L39.4389 29.1366C39.5513 29.0689 39.642 28.9705 39.7003 28.8529C39.7675 28.7185 39.7749 28.6513 39.8048 28.5243L39.6704 28.487H39.6405C39.6032 28.6214 39.5883 28.6886 39.5211 28.8006C39.4613 28.8977 39.3941 28.9723 39.3269 29.0246L39.2747 29.0619ZM39.648 30.4209L39.7077 30.3238L39.8123 30.2417H39.8421C39.8412 30.3129 39.8286 30.3836 39.8048 30.4507L39.7749 30.5254L39.7376 30.5627C39.7003 30.503 39.6405 30.4657 39.6405 30.4134L39.648 30.4209ZM42.112 30.5553L42.2165 30.6001L42.3285 30.6673V30.7046L42.2165 30.7195C42.1842 30.722 42.1518 30.722 42.1195 30.7195H42.0448L42 30.6897C42.0373 30.6374 42.0597 30.5702 42.1045 30.5553H42.112ZM41.3803 30.4059L41.4848 30.4433L41.5968 30.5179C41.5968 30.5254 41.6043 30.5403 41.5968 30.5478C41.5311 30.5654 41.4631 30.573 41.3952 30.5702L41.3205 30.5627L41.2683 30.5403C41.3131 30.4881 41.3355 30.4134 41.3803 30.4059ZM40.0811 30.5627L40.1931 30.6001L40.3051 30.6747V30.7121C40.2366 30.7279 40.166 30.733 40.096 30.727H40.0213L39.9765 30.6971C40.0139 30.6449 40.0363 30.5777 40.0811 30.5627ZM39.4091 28.3377C39.3643 28.3153 39.3344 28.263 39.3643 28.2182C39.3717 28.2033 39.3941 28.2033 39.4091 28.1883C39.424 28.1659 39.4165 28.151 39.4091 28.1286L39.4016 28.0539L39.3867 27.9793C39.3867 27.9345 39.3867 27.9046 39.4165 27.8598C39.4315 27.8374 39.4688 27.815 39.4763 27.815C39.4912 27.8225 39.4763 27.8523 39.4763 27.8747C39.4763 27.9121 39.4837 27.927 39.4987 27.9643L39.5509 28.0614C39.5659 28.1062 39.5808 28.1211 39.5808 28.1659C39.5808 28.2033 39.5808 28.2182 39.5659 28.2555C39.5562 28.2789 39.5408 28.2995 39.5211 28.3153C39.5037 28.3296 39.4832 28.3398 39.4613 28.3451C39.4467 28.3493 39.4312 28.3493 39.4165 28.3451L39.4091 28.3377Z" fill="#0065BD"/>
<path d="M30.8116 20.85H36.9483V26.975H30.8116V20.85ZM37.6016 20.85H43.7383V26.975H37.6016V20.85ZM30.835 32.2833C30.8466 32.4 30.8933 32.5867 30.9983 32.785C31.115 32.96 31.0683 32.9483 31.3133 33.2283C31.4495 33.3657 31.6071 33.4799 31.78 33.5667C32.3313 33.8041 32.9309 33.908 33.53 33.87C33.845 33.8583 34.09 33.8233 34.3 33.7883C34.7253 33.7318 35.1544 33.7084 35.5833 33.7183C35.7583 33.7183 35.9333 33.7533 36.1316 33.7883C36.54 33.87 36.9483 34.0217 36.9483 34.0217V27.64H30.8116V31.9917L30.835 32.2717V32.2833ZM43.715 32.2833C43.6903 32.4588 43.635 32.6286 43.5516 32.785C43.435 32.96 43.4816 32.9483 43.2366 33.2283C43.1003 33.3655 42.9427 33.4797 42.77 33.5667C42.6183 33.6483 42.5016 33.6833 42.2566 33.7533C41.8536 33.8597 41.4358 33.8992 41.02 33.87C40.705 33.8583 40.46 33.8117 40.2616 33.7883C39.983 33.7508 39.7027 33.7274 39.4216 33.7183C39.2701 33.711 39.1182 33.711 38.9666 33.7183C38.7916 33.7183 38.6166 33.7533 38.4183 33.7883C38.01 33.87 37.6016 34.0217 37.6016 34.0217V27.6283H43.75V32.0033L43.7266 32.2833H43.715Z" stroke="#703D29" stroke-width="0.0583333"/>
</g>
<defs>
<clipPath id="clip0_1_45125">
<rect width="74.6667" height="56" fill="white" transform="translate(0 0.375)"/>
</clipPath>
</defs>
</svg>
