<svg width="75" height="57" viewBox="0 0 75 57" fill="none" xmlns="http://www.w3.org/2000/svg">
<g clip-path="url(#clip0_1_49592)">
<path fill-rule="evenodd" clip-rule="evenodd" d="M0 0.375H74.6667V56.375H0V0.375Z" fill="black"/>
<path fill-rule="evenodd" clip-rule="evenodd" d="M49.7816 0.375H74.6666V56.375H49.7816V0.375Z" fill="#009900"/>
<path fill-rule="evenodd" clip-rule="evenodd" d="M24.885 0.375H49.7816V56.375H24.885V0.375Z" fill="#BF0000"/>
<path fill-rule="evenodd" clip-rule="evenodd" d="M39.7571 31.5751H40.7869C40.7869 31.9721 41.0351 32.394 41.3452 32.6297H39.3601C39.6703 32.3567 39.7571 32.0093 39.7571 31.5751Z" fill="white" stroke="#BD6B00" stroke-width="0.0620352"/>
<path fill-rule="evenodd" clip-rule="evenodd" d="M33.2062 25.7066L33.777 26.3269L40.849 26.3517L41.4197 25.7314L39.6083 25.6942L38.7398 25.0738H35.8862L35.0673 25.7066H33.2062Z" fill="white"/>
<path fill-rule="evenodd" clip-rule="evenodd" d="M36.0971 24.987H38.5413C38.8638 24.8133 38.9755 24.255 38.9755 23.9448C38.9755 23.0267 38.3179 22.58 37.6728 22.5552C37.5735 22.5552 37.4618 22.4808 37.437 22.3939C37.375 22.1954 37.3874 22.0589 37.313 22.0713C37.2633 22.0713 37.2757 22.1954 37.2261 22.3691C37.1889 22.4683 37.0896 22.5552 36.978 22.5676C36.1839 22.6048 35.6628 23.188 35.6752 23.9448C35.6876 24.4411 35.7497 24.7388 36.0971 24.987Z" fill="white" stroke="#BD6B00" stroke-width="0.0620352"/>
<path fill-rule="evenodd" clip-rule="evenodd" d="M32.0896 33.6843H42.5487L41.6182 32.9275H33.0077L32.0772 33.6843H32.0896Z" fill="white"/>
<path fill-rule="evenodd" clip-rule="evenodd" d="M36.8911 30.8183L37.0772 31.389H37.5115L37.1641 30.8183H36.8911ZM36.643 31.389L36.7671 31.9597H37.2633L37.0772 31.389H36.643ZM37.5115 31.389L37.8589 31.9597H38.5909L38.0202 31.389H37.5115ZM33.231 32.6793C33.6157 32.3195 33.8638 32.0218 33.8638 31.5875H34.8067C34.8067 31.8357 34.8936 31.9721 35.0301 31.9597H35.9854V31.4014H35.2906V28.3369C35.2658 27.2451 36.6058 26.6247 37.1517 26.6247H33.8886V26.5255H40.7497V26.6247H37.4618C38.442 26.6247 39.3849 27.5552 39.3973 28.3369V29.2054H39.2733L39.2609 28.3493C39.2609 27.4932 38.1815 26.6991 37.313 26.724C36.5685 26.7364 35.4023 27.456 35.4147 28.3369V28.6098L37.1889 28.6222L37.1765 28.9324L37.4494 29.1061L38.0078 29.2798V29.7513L38.4048 29.8629V30.322L38.8762 30.5329V31.0044L39.1864 31.1905L39.174 31.6744L39.5835 31.9597H38.6157L39.2236 32.6421H38.3179L37.8713 31.9597H37.2881L37.5487 32.6297H36.9283L36.7671 31.9597H35.9978V32.6793H33.2435H33.231ZM35.9854 30.8183V31.389H36.643L36.5189 30.8183H35.973H35.9854Z" fill="white" stroke="#BD6B00" stroke-width="0.0620352"/>
<path fill-rule="evenodd" clip-rule="evenodd" d="M36.0226 29.8257H36.4321V30.7686H36.0226V29.8257Z" stroke="#BD6B00" stroke-width="0.0620352"/>
<path fill-rule="evenodd" clip-rule="evenodd" d="M35.4395 30.8307H35.8365V30.1359C35.8365 29.8381 36.1095 29.528 36.2336 29.5156C36.3824 29.5156 36.5934 29.8009 36.6058 30.1111V30.8307H37.0276V29.0441H35.4395V30.8307V30.8307ZM38.6157 31.2401H39.112V31.6372H38.6157V31.2401ZM38.3179 30.5826H38.8142V30.9672H38.3179V30.5826ZM37.8341 29.9126H38.3304V30.2972H37.8341V29.9126ZM37.4246 29.3543H37.9209V29.7389H37.4246V29.3543Z" stroke="#BD6B00" stroke-width="0.0620352"/>
<path fill-rule="evenodd" clip-rule="evenodd" d="M37.0896 30.8307L37.6107 30.8555L38.5164 31.6496V31.1781L38.2063 30.9548V30.5826L37.7596 30.3344V29.925L37.3254 29.7761V29.2426L37.1144 29.0565L37.102 30.8431L37.0896 30.8307Z" stroke="#BD6B00" stroke-width="0.0620352"/>
<path fill-rule="evenodd" clip-rule="evenodd" d="M39.2485 29.652H39.3725V30.5329H39.2485V29.652Z" fill="white" stroke="#BD6B00" stroke-width="0.0620352"/>
<path fill-rule="evenodd" clip-rule="evenodd" d="M32.04 26.6991C31.8911 26.4509 31.705 27.0465 31.0722 27.4807C30.7869 27.6792 30.576 28.2127 30.576 28.5601C30.576 28.8083 30.6008 29.044 30.576 29.2797C30.5636 29.4162 30.4023 29.7512 30.5139 29.8381C30.7869 30.0366 31.1467 30.508 31.308 30.6693C31.4569 30.7934 31.5809 30.0118 31.6802 29.6768C31.8043 29.3046 31.7546 28.8455 32.0772 28.5105C32.3005 28.2624 32.8713 28.039 32.8216 27.9398L32.04 26.6991Z" fill="white" stroke="#BD6B00" stroke-width="0.0620352"/>
<path fill-rule="evenodd" clip-rule="evenodd" d="M32.0028 28.6098C31.9535 28.4927 31.8866 28.3839 31.8043 28.2872C31.7251 28.1891 31.6228 28.1123 31.5065 28.0638C31.3922 28.03 31.2893 27.9656 31.2087 27.8777C31.1613 27.8245 31.1272 27.7607 31.1095 27.6916C31.0954 27.6095 31.0954 27.5256 31.1095 27.4435L31.0723 27.4807C30.7869 27.6792 30.576 28.2127 30.576 28.5601C30.5721 28.6552 30.5721 28.7504 30.576 28.8455C30.6008 28.9075 30.6132 28.9696 30.6504 29.0068L30.7869 29.106L31.1219 29.1929C31.2473 29.2493 31.3578 29.3343 31.4445 29.441C31.5348 29.5367 31.6101 29.6454 31.6678 29.7636L31.6926 29.6644C31.7919 29.3294 31.7795 28.9323 32.0152 28.6098H32.0028Z" fill="#BF0000" stroke="#BD6B00" stroke-width="0.0620352"/>
<path d="M31.1095 27.4311C31.0474 27.8405 31.2832 27.9894 31.5065 28.0639C31.7298 28.1507 31.9159 28.3864 32.0028 28.6098M30.5511 28.7959C30.6504 29.1681 30.8985 29.1184 31.1219 29.1929C31.3452 29.2797 31.5809 29.5651 31.6802 29.7884" stroke="#BD6B00" stroke-width="0.0620352"/>
<path fill-rule="evenodd" clip-rule="evenodd" d="M31.8291 26.4509L31.9531 26.3765L34.1492 30.0862L34.0251 30.1606L31.8291 26.4385V26.4509Z" fill="white" stroke="#BD6B00" stroke-width="0.0620352"/>
<path fill-rule="evenodd" clip-rule="evenodd" d="M32.0648 26.3021C32.0648 26.3679 32.0387 26.431 31.9921 26.4775C31.9456 26.5241 31.8825 26.5502 31.8167 26.5502C31.7509 26.5502 31.6878 26.5241 31.6412 26.4775C31.5947 26.431 31.5685 26.3679 31.5685 26.3021C31.5685 26.2362 31.5947 26.1731 31.6412 26.1266C31.6878 26.0801 31.7509 26.0539 31.8167 26.0539C31.8825 26.0539 31.9456 26.0801 31.9921 26.1266C32.0387 26.1731 32.0648 26.2362 32.0648 26.3021ZM33.9507 23.3244H34.844V23.5229H33.9507V23.3244ZM33.9507 23.709H34.844V25.4212H33.9507V23.709ZM33.9011 23.0886H34.8936C34.9184 22.7536 34.5835 22.3938 34.3973 22.3938C34.1988 22.4063 33.8887 22.7661 33.9011 23.0886Z" fill="white" stroke="#BD6B00" stroke-width="0.0620352"/>
<path fill-rule="evenodd" clip-rule="evenodd" d="M36.4197 22.8901C36.2336 22.9646 36.0847 23.1755 35.9979 23.4236C35.911 23.6718 35.8738 23.9571 35.9234 24.1805C35.9234 24.2673 35.9606 24.3169 35.9854 24.3666C36.0103 24.4038 36.0351 24.4286 36.0599 24.4286C36.0971 24.4286 36.1343 24.4286 36.1467 24.3914L36.1716 24.2921C36.1591 24.044 36.1591 23.8207 36.2088 23.6221C36.264 23.4017 36.3959 23.2081 36.581 23.0762C36.6182 23.0514 36.6306 23.0142 36.643 22.9894C36.6426 22.9567 36.6292 22.9254 36.6058 22.9025C36.5562 22.8653 36.4817 22.8529 36.4197 22.8901ZM36.4445 22.9398C36.4941 22.9149 36.5438 22.9398 36.5686 22.9522L36.581 22.977C36.581 22.9894 36.581 23.0018 36.5438 23.0266C36.3532 23.1664 36.2172 23.3682 36.1591 23.5973C36.1077 23.8252 36.0951 24.0601 36.1219 24.2921C36.1219 24.319 36.1132 24.3451 36.0971 24.3666C36.0971 24.3666 36.0971 24.379 36.0723 24.3666C36.0723 24.3666 36.0475 24.3666 36.0227 24.3293C35.9981 24.2828 35.9814 24.2325 35.973 24.1805C35.9358 23.9571 35.973 23.6842 36.0599 23.436C36.1467 23.2127 36.2832 23.0142 36.4321 22.9398H36.4445Z" fill="#BD6B00"/>
<path fill-rule="evenodd" clip-rule="evenodd" d="M36.7423 23.1259C36.5562 23.2127 36.4321 23.4112 36.3701 23.647C36.3042 23.8853 36.2915 24.1352 36.3328 24.379C36.3577 24.5403 36.4569 24.6271 36.5314 24.6271C36.5686 24.6395 36.6058 24.6271 36.6306 24.5899C36.6554 24.5527 36.6678 24.5154 36.6554 24.4658C36.6058 24.2673 36.5934 24.044 36.6182 23.8331C36.6554 23.6221 36.7423 23.436 36.8912 23.3244C36.9284 23.2871 36.9532 23.2623 36.9532 23.2251C36.9543 23.2117 36.9527 23.1981 36.9485 23.1853C36.9442 23.1725 36.9374 23.1607 36.9284 23.1507C36.8788 23.1134 36.8043 23.101 36.7423 23.1259ZM36.7671 23.1879C36.8167 23.1631 36.8663 23.1755 36.8912 23.1879L36.9036 23.2251L36.8663 23.2747C36.7831 23.3415 36.7138 23.4241 36.6627 23.5178C36.6116 23.6116 36.5796 23.7145 36.5686 23.8206C36.5314 24.044 36.5562 24.2797 36.5934 24.4658C36.6058 24.5154 36.5934 24.5403 36.5934 24.5651L36.5314 24.5775C36.4941 24.5775 36.4073 24.5154 36.3825 24.3666C36.3453 24.1556 36.3577 23.8827 36.4197 23.6594C36.4817 23.436 36.6058 23.2499 36.7671 23.1879Z" fill="#BD6B00"/>
<path fill-rule="evenodd" clip-rule="evenodd" d="M33.9011 26.8107H34.8936V28.1755H33.9011V26.8107ZM33.9631 28.9696H34.9184V29.2673H33.9631V28.9696ZM33.9383 29.4783H34.9309V30.5577H33.9383V29.4783ZM33.8638 30.781H34.9433V31.3889H33.8638V30.781ZM34.0003 28.7214H34.8688L35.0425 28.4237H33.8514L34.0003 28.7214ZM35.1666 27.6544L35.179 26.91H35.7745C35.5185 27.1093 35.3107 27.3638 35.1666 27.6544Z" fill="white" stroke="#BD6B00" stroke-width="0.0620352"/>
<path fill-rule="evenodd" clip-rule="evenodd" d="M34.0623 27.9646C34.0623 28.1259 34.2485 28.0639 34.2485 27.977V27.2822C34.2485 27.1581 34.5462 27.183 34.5462 27.2698V28.0142C34.5462 28.1383 34.7571 28.1259 34.7447 28.0142V27.1457C34.7447 26.8728 34.0623 26.8852 34.0623 27.1333V27.9646ZM34.0623 29.6147H34.7695V30.4832H34.0623V29.6147Z" stroke="#BD6B00" stroke-width="0.0620352"/>
<path fill-rule="evenodd" clip-rule="evenodd" d="M34.509 29.9869H34.7572V30.111H34.509V29.9869ZM34.0748 29.9869H34.3229V30.111H34.0748V29.9869ZM34.3229 29.6147H34.509V29.9869H34.3229V29.6147ZM34.3229 30.111H34.509V30.4956H34.3229V30.111ZM30.3899 20.8057C30.4395 21.4881 30.2162 21.8727 29.8564 21.8107C29.7571 21.4385 29.9804 21.1779 30.3899 20.8057ZM29.5834 22.3318C29.2608 22.1705 29.4966 20.905 29.6206 20.3715C29.7075 21.0539 29.8688 22.0216 29.5834 22.3318Z" fill="white" stroke="#BD6B00" stroke-width="0.0620352"/>
<path fill-rule="evenodd" clip-rule="evenodd" d="M29.6951 22.3938C30.241 22.5799 30.6876 21.9968 30.8241 21.3144C30.3775 21.9348 29.6454 21.9348 29.7075 22.3938H29.6951ZM29.2856 23.0266C28.8638 22.9149 29.1119 21.575 29.1988 21.0415C29.2856 21.5998 29.5834 22.8405 29.2856 23.0266ZM29.4345 22.9894C29.4593 22.5303 29.9184 22.6544 30.241 22.4062C30.1789 22.6544 29.9928 23.0514 29.4345 22.9894ZM28.9134 23.6097C28.4916 23.4857 28.7397 22.0464 28.7149 21.4509C28.839 21.972 29.236 23.4733 28.9134 23.6097ZM29.1119 23.5477C29.4593 23.6594 29.9184 23.4236 29.9556 23.0142C29.6454 23.2251 29.174 23.0638 29.1119 23.5477Z" fill="white" stroke="#BD6B00" stroke-width="0.0620352"/>
<path fill-rule="evenodd" clip-rule="evenodd" d="M28.5909 24.2425C28.1938 24.2797 28.3675 23.0514 28.3675 21.91C28.5164 22.977 28.9259 23.9571 28.5909 24.2425Z" fill="white" stroke="#BD6B00" stroke-width="0.0620352"/>
<path fill-rule="evenodd" clip-rule="evenodd" d="M28.7397 24.1929C29.0127 24.3169 29.4966 24.106 29.6331 23.647C29.1368 23.8579 28.8142 23.647 28.7397 24.1929ZM31.9159 21.4385C31.8415 22.0465 31.5934 22.3938 31.2336 22.3318C31.1343 21.9596 31.4321 21.7115 31.9159 21.4385ZM30.9482 22.977C31.5561 23.0638 31.7671 22.6048 32.1889 21.9968C31.6058 22.4187 30.9234 22.4931 30.9482 22.9894V22.977Z" fill="white" stroke="#BD6B00" stroke-width="0.0620352"/>
<path fill-rule="evenodd" clip-rule="evenodd" d="M30.7621 22.9149C30.4395 22.5179 30.7621 22.0092 31.0102 21.5874C30.9606 22.2201 31.1715 22.5799 30.7621 22.9149ZM30.638 23.5725C30.5884 23.1755 31.2584 23.0886 31.5561 22.8777C31.4445 23.101 31.308 23.709 30.6256 23.5725H30.638Z" fill="white" stroke="#BD6B00" stroke-width="0.0620352"/>
<path fill-rule="evenodd" clip-rule="evenodd" d="M30.4891 23.5725C30.0301 23.5229 30.2162 22.7412 30.5512 22.3194C30.4147 22.9149 30.7993 23.3244 30.4891 23.5725Z" fill="white" stroke="#BD6B00" stroke-width="0.0620352"/>
<path fill-rule="evenodd" clip-rule="evenodd" d="M30.1417 24.2301C29.6206 23.9819 29.9556 23.3368 30.1417 22.9522C30.0673 23.4609 30.4891 23.8455 30.1417 24.2177V24.2301Z" fill="white" stroke="#BD6B00" stroke-width="0.0620352"/>
<path fill-rule="evenodd" clip-rule="evenodd" d="M30.241 24.1556C30.5139 24.5278 31.0475 24.0564 31.1591 23.5105C30.7001 23.8951 30.3527 23.8331 30.241 24.168V24.1556ZM29.0499 26.6743C29.0003 26.1408 29.3973 25.1854 29.112 24.6643C29.0747 24.5899 29.1988 24.4038 29.2857 24.5154C29.4097 24.7015 29.5338 25.2226 29.5958 25.0241C29.6455 24.8132 29.6579 24.4534 29.844 24.379C29.968 24.3417 30.1293 24.3045 30.0797 24.503C30.0301 24.6767 29.9308 24.9249 30.0425 24.9373C30.1045 24.9373 30.2906 24.6891 30.4519 24.5651C30.576 24.4658 30.7745 24.6395 30.576 24.7884C29.9804 25.2847 29.3973 25.5204 29.0499 26.6743ZM27.9705 34.6768C27.8961 34.6768 27.8092 34.6396 27.8961 34.7512C28.6033 35.6197 28.8018 35.8679 29.8316 35.7438C30.8613 35.6073 31.1095 35.322 31.8415 34.9125C32.0534 34.801 32.2854 34.7326 32.5239 34.7114C32.7624 34.6901 33.0028 34.7163 33.2311 34.7885C33.4296 34.8505 33.5537 34.8505 33.4048 34.7016C33.2559 34.5651 33.0946 34.3666 32.9085 34.2301C32.4457 33.9206 31.8816 33.8006 31.3328 33.8952C30.5884 34.0192 29.9556 34.5031 29.1988 34.6892C28.7935 34.7711 28.3758 34.7711 27.9705 34.6892V34.6768ZM33.9011 36.2277C34.0251 36.2525 34.112 36.5006 34.1864 36.3393C34.2857 36.054 34.2112 35.8431 34.0872 35.8555C33.9383 35.8927 33.7026 36.2277 33.9011 36.2277Z" fill="white" stroke="#BD6B00" stroke-width="0.0620352"/>
<path fill-rule="evenodd" clip-rule="evenodd" d="M27.4866 26.2648C27.3377 26.0911 27.375 26.0415 27.6107 26.0291C27.7844 26.0291 28.1318 26.1532 28.2683 26.0415C28.3923 25.9547 28.3303 25.5825 28.3923 25.4212C28.4171 25.3095 28.4792 25.173 28.6405 25.3963C29.0871 26.116 29.633 26.9844 29.8812 27.8281C30.0052 28.2996 29.8812 29.044 29.4593 29.5403C29.4593 29.1185 29.3105 28.8331 29.1244 28.4733C28.8762 28.0142 27.9953 26.7363 27.4866 26.2524V26.2648Z" fill="white"/>
<path fill-rule="evenodd" clip-rule="evenodd" d="M29.3353 30.0366C29.8316 30.0366 29.9184 29.379 29.9184 29.1929C29.6703 29.2425 29.2484 29.652 29.3353 30.0366ZM33.6157 36.4758C33.9631 36.5503 33.9507 35.7066 33.5909 35.3468C33.7522 35.8927 33.3428 36.389 33.6033 36.4634L33.6157 36.4758ZM33.4668 36.4634C33.4916 36.8604 32.4743 36.4138 32.2261 36.0912C32.8217 36.3518 33.442 36.1408 33.4668 36.4634ZM33.0326 35.8927C33.0698 36.2773 32.1641 35.9299 31.8787 35.6322C32.4867 35.8307 32.9954 35.5701 33.0326 35.8803V35.8927ZM33.1939 35.9423C33.5537 36.0292 33.4916 35.1483 33.1442 34.8505C33.3179 35.4336 32.9209 35.8555 33.1939 35.9423ZM32.8217 35.4088C33.1815 35.4957 32.9706 34.7388 32.71 34.4411C32.7596 34.987 32.5859 35.3716 32.8341 35.4088H32.8217ZM32.6356 35.4088C32.6728 35.8059 31.9656 35.5081 31.6926 35.1235C32.2882 35.3096 32.5983 35.0862 32.6356 35.4088ZM32.4495 35.0986C32.6728 34.9374 32.437 34.5031 31.9904 34.5279C32.04 34.7885 32.1889 35.2599 32.4495 35.0986ZM34.1864 36.9225C34.1988 37.3195 33.1939 37.121 32.8713 36.6992C33.5165 36.8232 34.1492 36.5999 34.174 36.9225H34.1864ZM30.1666 36.2029C30.2038 36.5999 29.0996 36.1532 28.8266 35.781C29.4097 35.9795 30.1293 35.8803 30.1666 36.2029ZM30.8365 36.3642C31.0723 36.2029 30.6008 35.781 30.2162 35.6818C30.2658 35.9423 30.5884 36.5255 30.8365 36.3766V36.3642ZM30.911 36.6495C30.9358 37.0093 29.7323 36.8108 29.4221 36.4758C30.4519 36.6619 30.8738 36.3394 30.911 36.6495Z" fill="white" stroke="#BD6B00" stroke-width="0.0620352"/>
<path fill-rule="evenodd" clip-rule="evenodd" d="M31.4817 36.8853C31.6058 37.2203 30.4519 37.1334 30.0425 36.9473C30.7001 36.9473 31.3824 36.6495 31.4817 36.8853Z" fill="white" stroke="#BD6B00" stroke-width="0.0620352"/>
<path fill-rule="evenodd" clip-rule="evenodd" d="M32.0152 37.1334C32.1392 37.4312 31.0722 37.4312 30.5511 37.2575C31.2459 37.2575 31.8911 36.8356 32.0152 37.1334ZM32.7968 37.2947C32.9953 37.6545 31.8539 37.6793 31.4941 37.5056C32.1392 37.4188 32.6355 37.0093 32.7968 37.2947ZM31.4693 36.6867C31.1095 36.9101 31.1343 36.2401 30.8489 35.781C31.2956 36.1905 31.7174 36.4758 31.4693 36.6867Z" fill="white" stroke="#BD6B00" stroke-width="0.0620352"/>
<path fill-rule="evenodd" clip-rule="evenodd" d="M32.1144 36.9349C31.8167 37.1954 31.5685 36.2773 31.2956 35.7562C31.7422 36.2525 32.3874 36.7116 32.1144 36.9225V36.9349ZM32.9581 37.183C32.71 37.4808 31.9656 36.3145 31.6926 35.6942C32.102 36.1781 33.1566 36.9349 32.9581 37.183ZM32.2385 38.0763C32.1144 38.523 30.2286 37.6545 30.0052 37.1954C31.0971 37.7662 32.2633 37.6421 32.2385 38.0639V38.0763ZM26.1963 28.9199C26.1467 28.8579 26.0226 28.9199 26.0474 29.0564C26.0846 29.2425 26.3576 30.1979 26.829 30.5205C27.164 30.7686 28.9382 31.1532 29.7323 31.3269C30.1789 31.4138 30.5388 31.6371 30.8365 31.9845C30.7346 31.5727 30.6103 31.1669 30.4643 30.7686C30.3154 30.3964 29.9184 29.9994 29.4966 29.987C28.7397 29.9497 27.7472 29.8877 27.0152 29.5775C26.6836 29.4377 26.3963 29.2104 26.1839 28.9199H26.1963Z" fill="white" stroke="#BD6B00" stroke-width="0.0620352"/>
<path fill-rule="evenodd" clip-rule="evenodd" d="M30.576 32.7041C30.8241 32.8778 31.0847 32.245 30.7869 31.6371C30.7745 32.2202 30.3154 32.4187 30.576 32.7041Z" fill="white" stroke="#BD6B00" stroke-width="0.0620352"/>
<path fill-rule="evenodd" clip-rule="evenodd" d="M30.8117 33.2872C31.1467 33.3865 31.2459 32.7909 31.035 32.3195C31.0722 32.8282 30.5015 33.1383 30.8117 33.2872Z" fill="white" stroke="#BD6B00" stroke-width="0.0620352"/>
<path fill-rule="evenodd" clip-rule="evenodd" d="M31.0723 33.7587C31.3948 33.92 31.5065 33.312 31.2832 32.8778C31.308 33.4361 30.8241 33.6098 31.0723 33.7463V33.7587Z" fill="white" stroke="#BD6B00" stroke-width="0.0620352"/>
<path fill-rule="evenodd" clip-rule="evenodd" d="M30.9358 33.7959C30.8117 34.1681 30.0673 33.4609 29.9432 33.0763C30.4023 33.5354 31.0226 33.4733 30.9358 33.7835V33.7959Z" fill="white" stroke="#BD6B00" stroke-width="0.0620352"/>
<path fill-rule="evenodd" clip-rule="evenodd" d="M30.6008 33.2128C30.4519 33.585 29.5214 32.5924 29.3105 32.1334C29.7695 32.5924 30.7 32.9398 30.6008 33.2004V33.2128Z" fill="white" stroke="#BD6B00" stroke-width="0.0620352"/>
<path fill-rule="evenodd" clip-rule="evenodd" d="M30.4147 32.6296C30.2658 33.0639 29.2608 31.91 28.9631 31.5006C29.4594 31.9473 30.5264 32.3195 30.4147 32.6296ZM30.3775 32.2078C30.7497 32.1334 30.3651 31.8356 29.9184 31.3517C29.906 31.8604 29.9804 32.2202 30.3775 32.2078Z" fill="white" stroke="#BD6B00" stroke-width="0.0620352"/>
<path fill-rule="evenodd" clip-rule="evenodd" d="M29.7695 31.91C29.9308 31.7487 29.633 31.6743 29.2608 31.2525C29.1988 31.5378 29.6082 32.0589 29.7819 31.91H29.7695ZM31.5065 33.7959C31.705 33.92 31.8291 33.5105 31.5933 33.1507C31.5313 33.5478 31.3328 33.647 31.5065 33.7959ZM27.2633 31.2773C26.8539 31.5254 26.1963 30.5329 26.0226 30.1234C26.3824 30.5949 27.3377 31.0167 27.2633 31.2773Z" fill="white" stroke="#BD6B00" stroke-width="0.0620352"/>
<path fill-rule="evenodd" clip-rule="evenodd" d="M27.6231 31.848C27.3874 32.0961 26.6678 31.4138 26.4196 31.0664C26.7918 31.4014 27.7224 31.4386 27.6231 31.848Z" fill="white" stroke="#BD6B00" stroke-width="0.0620352"/>
<path fill-rule="evenodd" clip-rule="evenodd" d="M28.0077 32.3691C27.9333 32.7165 26.8911 31.9348 26.6429 31.5626C27.0896 31.9969 28.0822 31.9597 28.0077 32.3691Z" fill="white" stroke="#BD6B00" stroke-width="0.0620352"/>
<path fill-rule="evenodd" clip-rule="evenodd" d="M27.8464 32.7537C27.6851 33.0639 26.8291 32.2823 26.6181 31.8852C27.1516 32.3319 27.9829 32.4435 27.8588 32.7537H27.8464ZM27.4122 31.2277C27.6727 30.9423 27.5611 30.8058 27.3626 30.3592C27.2633 30.8182 27.102 31.0043 27.4122 31.2277ZM27.772 31.7612C28.2683 31.786 27.772 31.1904 27.6479 30.6817C27.6975 31.2525 27.5238 31.7115 27.772 31.7612Z" fill="white" stroke="#BD6B00" stroke-width="0.0620352"/>
<path fill-rule="evenodd" clip-rule="evenodd" d="M28.0822 32.2326C28.4171 32.1582 28.3303 31.6743 28.0573 31.0912C28.1194 31.7239 27.772 32.0837 28.0822 32.2326ZM27.9581 33.188C27.834 33.5602 26.8663 32.6917 26.7174 32.3443C27.2137 32.7661 28.0449 32.9026 27.9581 33.188Z" fill="white" stroke="#BD6B00" stroke-width="0.0620352"/>
<path fill-rule="evenodd" clip-rule="evenodd" d="M28.5412 33.7835C28.4047 34.1557 27.3874 33.3865 27.0772 32.9646C27.6851 33.4609 28.6157 33.4113 28.5412 33.7835Z" fill="white" stroke="#BD6B00" stroke-width="0.0620352"/>
<path fill-rule="evenodd" clip-rule="evenodd" d="M29.1368 34.3914C28.9755 34.9249 27.9085 34.0689 27.5983 33.647C28.2683 34.1681 29.2112 34.0192 29.1368 34.3914ZM28.1442 33.0267C28.4296 33.1631 28.5412 32.3567 28.3799 31.7736C28.3799 32.3939 27.7968 32.8654 28.1318 33.0143L28.1442 33.0267Z" fill="white" stroke="#BD6B00" stroke-width="0.0620352"/>
<path fill-rule="evenodd" clip-rule="evenodd" d="M28.6281 33.6718C28.9755 33.7711 28.8762 32.8902 28.566 32.3071C28.5288 32.8902 28.2807 33.4237 28.6281 33.6718ZM29.2484 34.2798C29.6206 34.2922 29.3725 33.5229 29.0499 33.0887C29.0995 33.647 28.9258 34.2053 29.2484 34.2798ZM28.566 34.6024C28.442 34.8009 28.169 34.4411 27.6975 34.1681C28.1194 34.2922 28.6157 34.4163 28.566 34.6024ZM28.3427 28.0639C28.7149 27.7909 28.4296 27.2946 28.3427 26.8232C28.2186 27.2698 27.9209 27.8653 28.3427 28.0639ZM28.3427 28.7214C27.7844 28.6594 27.8712 27.9646 27.8464 27.5179C28.0201 28.1259 28.4668 28.2251 28.3427 28.7338V28.7214ZM28.4171 28.6346C28.8762 28.6098 28.8514 28.0887 28.8762 27.5676C28.6405 28.0514 28.3799 28.1259 28.4171 28.6346Z" fill="white" stroke="#BD6B00" stroke-width="0.0620352"/>
<path fill-rule="evenodd" clip-rule="evenodd" d="M28.4047 29.2797C28.0325 29.317 27.8588 28.9572 27.7844 28.4112C28.1194 28.9199 28.4172 28.7586 28.4047 29.2797ZM28.5288 29.2425C28.9879 29.3046 28.901 28.771 28.901 28.374C28.7521 28.7462 28.3799 28.8703 28.5288 29.2425Z" fill="white" stroke="#BD6B00" stroke-width="0.0620352"/>
<path fill-rule="evenodd" clip-rule="evenodd" d="M27.8092 29.0192C27.8464 29.3666 28.0698 29.9621 28.4296 29.8257C28.566 29.4038 28.107 29.317 27.8092 29.0192Z" fill="white" stroke="#BD6B00" stroke-width="0.0620352"/>
<path fill-rule="evenodd" clip-rule="evenodd" d="M28.5288 29.8629C28.3799 29.5651 28.901 29.4038 29.0003 29.0068C29.0623 29.5775 29.0127 29.9497 28.5288 29.8753V29.8629ZM27.0524 26.24C27.3377 25.9423 27.0896 25.446 27.0028 24.9745C26.8787 25.4212 26.6926 26.0167 27.0524 26.24ZM27.0524 26.8107C26.5561 26.8728 26.432 25.8554 26.37 25.4087C26.5437 26.0167 27.1144 26.2772 27.0524 26.8231V26.8107ZM27.1516 26.8107C27.499 26.6246 27.4246 26.2276 27.5238 25.9422C27.3005 26.3021 27.0772 26.3517 27.1516 26.8107Z" fill="white" stroke="#BD6B00" stroke-width="0.0620352"/>
<path fill-rule="evenodd" clip-rule="evenodd" d="M27.04 27.4807C26.5313 27.5179 26.2211 26.3889 26.1963 25.9422C26.3576 26.5502 27.1144 26.8728 27.0524 27.4807H27.04ZM27.1516 27.4559C27.6479 27.3442 27.5859 27.0217 27.5114 26.513C27.3501 27.0341 27.0772 26.9224 27.1516 27.4559Z" fill="white" stroke="#BD6B00" stroke-width="0.0620352"/>
<path fill-rule="evenodd" clip-rule="evenodd" d="M27.04 28.1259C26.4692 28.2252 26.5065 27.307 26.0474 26.6495C26.4444 27.1457 27.164 27.7661 27.04 28.1259ZM27.164 28.0887C27.6107 28.1135 27.6603 27.4559 27.6355 27.183C27.5238 27.4559 27.0151 27.7041 27.1764 28.1011L27.164 28.0887Z" fill="white" stroke="#BD6B00" stroke-width="0.0620352"/>
<path fill-rule="evenodd" clip-rule="evenodd" d="M26.1467 27.4187C26.3576 28.1259 26.6678 28.8331 27.04 28.7835C27.2261 28.374 26.6802 28.3244 26.1467 27.4187Z" fill="white" stroke="#BD6B00" stroke-width="0.0620352"/>
<path fill-rule="evenodd" clip-rule="evenodd" d="M27.1765 28.6718C27.0276 28.3616 27.5487 28.2127 27.6479 27.8157C27.71 28.3864 27.6603 28.7587 27.1765 28.6718ZM26.2956 28.2252C26.6057 28.8579 26.7422 29.5899 27.1641 29.4783C27.3253 28.982 26.6926 28.8827 26.2956 28.2252Z" fill="white" stroke="#BD6B00" stroke-width="0.0620352"/>
<path fill-rule="evenodd" clip-rule="evenodd" d="M27.2509 29.3666C27.0648 29.0192 27.5859 28.9075 27.7224 28.4485C27.7844 29.044 27.7224 29.4783 27.2509 29.3542V29.3666ZM28.1442 25.0862C28.442 25.1606 28.7646 24.8256 28.6529 24.3169C28.3055 24.3914 28.1566 24.714 28.1442 25.0862ZM27.1641 24.8256C27.1889 24.9745 27.375 24.9869 27.3129 24.776C27.2666 24.6392 27.2666 24.4909 27.3129 24.3542C27.3727 24.1686 27.3727 23.969 27.3129 23.7834C27.2633 23.6594 27.0896 23.7338 27.1641 23.8331C27.2385 23.9447 27.2509 24.1805 27.1889 24.2921C27.1144 24.4534 27.1392 24.6643 27.1641 24.8256ZM30.0053 26.8107C29.8812 26.972 29.6455 26.8604 29.8316 26.6246C29.9804 26.4385 30.2038 26.2772 30.2038 26.0787C30.2286 25.8306 30.3651 25.4584 30.5015 25.3219C30.638 25.1854 30.7993 25.3715 30.6504 25.4708C30.4891 25.57 30.3775 26.0167 30.3899 26.1904C30.3775 26.4385 30.1417 26.6246 30.0053 26.8107ZM29.633 26.5254C29.509 26.6991 29.3353 26.5874 29.4345 26.3145C29.5214 26.1284 29.5338 25.8802 29.633 25.7437C29.7819 25.5328 30.0053 25.3591 30.1417 25.2226C30.2906 25.0986 30.3899 25.2226 30.2658 25.3467C30.1137 25.4986 29.9766 25.6648 29.8564 25.843C29.6827 26.1159 29.7571 26.3393 29.633 26.5254ZM27.6851 25.6321C27.6727 25.8802 27.8713 25.9298 27.8588 25.5824C27.8588 25.2102 27.5859 24.8628 27.7348 24.3045C27.834 24.0316 27.834 23.5229 27.7844 23.2623C27.7348 22.9894 27.5363 23.1631 27.6231 23.374C27.6976 23.6221 27.6107 24.0688 27.5487 24.3045C27.3626 24.9745 27.6976 25.2971 27.6727 25.6321H27.6851ZM28.2186 24.2673C28.1938 24.503 27.9953 24.5154 28.0574 24.2053C28.107 23.9571 28.107 23.7586 28.0574 23.5477C27.9829 23.2871 28.0077 22.8405 28.0574 22.6544C28.1194 22.4559 28.3055 22.5675 28.2311 22.7164C28.1444 22.951 28.1315 23.2063 28.1938 23.4484C28.2683 23.6966 28.2559 24.044 28.2186 24.2797V24.2673ZM26.2832 28.8703C26.3824 28.982 26.5313 28.9075 26.4072 28.7462C26.2832 28.6222 26.3204 28.5974 26.2459 28.4485C26.1715 28.2748 26.1839 28.1879 26.097 28.0763C26.0102 27.9522 25.8985 28.0763 25.973 28.1631C26.0722 28.2872 26.0474 28.3616 26.097 28.4733C26.2211 28.6594 26.1839 28.7586 26.2832 28.8703ZM28.8142 31.9224C28.9658 32.0063 29.0948 32.1258 29.1899 32.2706C29.285 32.4154 29.3434 32.5812 29.3601 32.7537C29.3731 33.0627 29.458 33.3643 29.6082 33.6346C29.3601 33.5726 29.236 33.1756 29.1988 32.7909C29.1616 32.3939 28.9507 32.2326 28.8266 31.9224H28.8142ZM29.4469 32.6545C29.6579 33.0391 29.9432 33.188 29.968 33.4733C29.9929 33.8083 30.0177 33.8207 30.1045 34.1433C29.8564 34.0813 29.7943 34.0565 29.7323 33.5602C29.6951 33.2128 29.4097 32.977 29.4469 32.6545Z" fill="white" stroke="#BD6B00" stroke-width="0.0620352"/>
<path fill-rule="evenodd" clip-rule="evenodd" d="M35.973 36.2277C36.0971 36.451 36.2212 36.786 36.4693 36.724C36.4693 36.5627 36.2088 36.4386 35.973 36.2277ZM36.3453 36.3021C36.8043 36.5006 37.2137 36.451 37.2758 36.7488C36.8291 36.7984 36.6554 36.6247 36.3328 36.3021H36.3453ZM34.3477 34.7264C34.656 34.9661 34.8745 35.3026 34.9681 35.6818C35.0681 36.0247 35.2186 36.3509 35.4147 36.6495C35.0921 36.4327 34.8585 36.1067 34.7572 35.7314C34.6703 35.3592 34.5586 35.0738 34.3477 34.7388V34.7264ZM34.7323 34.7264C35.0797 34.9994 35.4023 35.322 35.5016 35.7066C35.6008 36.0664 35.6629 36.3393 35.8986 36.6991C35.5264 36.4634 35.3899 36.116 35.2782 35.7314C35.1914 35.3592 34.9681 35.0862 34.7323 34.7388V34.7264ZM35.8738 35.6321C35.8689 35.6011 35.8749 35.5694 35.8907 35.5423C35.9065 35.5151 35.9312 35.4943 35.9606 35.4833C36.0668 35.4458 36.1744 35.4127 36.2832 35.384C36.4073 35.3468 36.4817 35.4336 36.4817 35.4957V35.7438C36.4817 35.8307 36.4569 35.8431 36.3949 35.8555C36.308 35.8679 36.184 35.8803 36.0971 35.9423C36.0227 35.9919 35.9482 35.9547 35.911 35.8803L35.8738 35.6321ZM37.1889 35.6321C37.1889 35.5577 37.1641 35.4957 37.1145 35.4833C37.0203 35.4443 36.9185 35.4273 36.8167 35.4336C36.6926 35.4336 36.6802 35.4584 36.6802 35.5081V35.7686C36.6802 35.8679 36.6802 35.8679 36.7299 35.8927C36.8167 35.8927 36.9532 35.8927 37.04 35.9671C37.1021 36.0044 37.1641 35.9671 37.1765 35.8927L37.1889 35.6321Z" fill="white"/>
<path fill-rule="evenodd" clip-rule="evenodd" d="M40.8738 39.1186C40.8738 39.2675 40.8986 39.3916 40.9979 39.5032C40.4303 39.3318 39.819 39.3805 39.2857 39.6397C39.0624 39.739 38.7894 39.5156 39.05 39.3047C39.4222 39.0194 40.2535 39.1807 40.8738 39.1186ZM33.7398 39.1186C33.7506 39.2448 33.7336 39.3719 33.6901 39.4908C34.236 39.2799 34.8192 39.466 35.3775 39.6893C35.7497 39.8506 35.7869 39.5653 35.7249 39.4784C35.6562 39.3747 35.5645 39.2882 35.4569 39.2258C35.3493 39.1634 35.2287 39.1267 35.1045 39.1186H33.7398ZM34.2112 36.4263C34.0499 36.3643 33.8762 36.4263 33.7149 36.6C33.1814 37.1211 32.5487 37.6298 32.04 38.0392C31.8539 38.2005 31.6678 38.4983 32.4618 38.7836C32.4991 38.8084 33.0822 39.0318 33.4544 39.0318C33.6157 39.0318 33.6157 39.2551 33.5785 39.3171C33.5164 39.4412 33.5661 39.4908 33.442 39.6025C33.3055 39.7266 33.442 39.863 33.5661 39.7638C34.0127 39.3668 34.7571 39.6273 35.4643 39.8506C35.638 39.9003 35.9358 39.8879 35.9358 39.6521C35.9358 39.404 36.1219 39.2303 36.2336 39.2179C36.5313 39.2675 37.9706 39.2799 38.4048 39.2303C38.6529 39.1931 38.6778 39.5901 38.8142 39.7266C38.9135 39.8382 39.2733 39.863 39.5338 39.7514C40.0301 39.5281 40.7745 39.5281 41.0847 39.7514C41.2088 39.8382 41.3205 39.7514 41.246 39.6645C41.1468 39.5405 41.1592 39.466 41.1095 39.3668C40.9855 39.1186 41.0847 39.069 41.2088 39.0566C42.5736 38.8705 43.0202 38.4114 42.5984 38.0268C42.0525 37.5553 41.4569 37.0715 40.9358 36.5131C40.787 36.3643 40.6877 36.3022 40.4023 36.4263C39.4143 36.8743 38.3476 37.123 37.2634 37.1583C36.2129 37.0905 35.1813 36.8472 34.2112 36.4387V36.4263Z" fill="white"/>
<path fill-rule="evenodd" clip-rule="evenodd" d="M40.6381 36.5007L40.4396 36.5504C39.3229 36.9474 38.3056 37.2203 37.251 37.2203C36.2212 37.2203 35.1418 36.9226 34.1616 36.5255C34.1013 36.5048 34.0358 36.5048 33.9755 36.5255C33.9135 36.538 33.8514 36.5752 33.8142 36.6124C33.3557 37.071 32.8665 37.498 32.3502 37.8903C32.2633 37.9524 32.2757 38.1136 32.4122 38.1633C33.442 38.5355 34.447 39.2179 37.3254 39.1931C40.241 39.1682 41.2708 38.4983 42.189 38.1881C42.251 38.1633 42.313 38.1261 42.3502 38.064C42.3591 38.0492 42.3648 38.0328 42.3669 38.0157C42.369 37.9986 42.3676 37.9813 42.3627 37.9648C42.3466 37.9259 42.321 37.8918 42.2882 37.8655C41.7547 37.4313 41.1964 37.0839 40.8242 36.5752C40.787 36.5131 40.7125 36.5007 40.6381 36.5131V36.5007ZM40.6381 36.5628C40.7001 36.5628 40.7621 36.5628 40.7746 36.6C41.1468 37.1335 41.7299 37.4685 42.251 37.9027L42.3006 37.9896C42.304 37.9974 42.3058 38.0059 42.3058 38.0144C42.3058 38.0229 42.304 38.0314 42.3006 38.0392C42.2882 38.0764 42.2262 38.1136 42.1765 38.1261C41.2336 38.4486 40.2286 39.1186 37.3378 39.1434C34.4594 39.1682 33.4668 38.4859 32.437 38.1136C32.3378 38.064 32.3502 37.9648 32.3874 37.9399C32.9085 37.5429 33.4048 37.0963 33.8514 36.6496C33.8899 36.6136 33.9368 36.588 33.9879 36.5752H34.1368C35.1173 37.0012 36.1699 37.237 37.2385 37.27C38.318 37.27 39.3477 36.997 40.4644 36.6124C40.5243 36.5887 40.5867 36.572 40.6505 36.5628H40.6381Z" fill="#BD6B00"/>
<path fill-rule="evenodd" clip-rule="evenodd" d="M33.5785 17.7785C33.5785 17.6048 33.8266 17.5924 33.8018 17.8281C33.7646 18.1135 34.3601 18.8579 34.4097 19.317C34.447 19.6272 34.2236 19.8877 34.0127 20.0614C33.8911 20.1476 33.7482 20.1989 33.5995 20.2098C33.4508 20.2207 33.302 20.1909 33.169 20.1234C33.0574 20.0242 32.9581 19.714 33.045 19.5899C33.0698 19.5527 33.2063 20.049 33.504 20.049C33.9135 20.049 34.2485 19.7388 34.2485 19.4659C34.2733 18.9944 33.5909 18.25 33.5785 17.7785ZM34.7571 18.9448C34.8316 18.8951 34.9308 19.1061 34.8564 19.1557C34.7944 19.1929 34.6703 18.9944 34.7571 18.9324V18.9448ZM34.9433 18.5105C34.906 18.5353 34.844 18.5105 34.8564 18.4857C34.9756 18.3201 35.1277 18.1807 35.3031 18.0763C35.3527 18.0515 35.4271 18.1259 35.4023 18.1631C35.2757 18.3103 35.1192 18.4287 34.9433 18.5105ZM36.5065 17.2698C36.5438 17.1954 36.7671 17.1085 36.8291 17.0589C36.8787 16.9969 36.9036 17.1085 36.8787 17.1458C36.8415 17.2326 36.643 17.3567 36.5562 17.3691C36.5189 17.3691 36.4817 17.3195 36.5065 17.2822V17.2698ZM37.04 17.307C37.1054 17.1421 37.2122 16.9967 37.3502 16.8852C37.4123 16.848 37.5115 16.8852 37.4867 16.9348C37.4024 17.0989 37.2788 17.2396 37.1269 17.3443C37.0897 17.3815 37.0276 17.3443 37.04 17.307ZM36.581 17.642C36.5438 17.6669 36.5686 17.7289 36.5934 17.7413C36.6678 17.7661 36.7795 17.7661 36.8415 17.7413C36.916 17.6917 36.8787 17.3815 36.7795 17.5428C36.705 17.642 36.6554 17.6172 36.581 17.642ZM35.6753 18.3368C35.514 18.2128 35.7249 18.0391 35.8862 18.1631C36.2212 18.4113 35.3899 19.379 34.9433 19.8257C34.8564 19.9125 34.782 19.7016 34.8936 19.5899C35.2166 19.3193 35.4969 19.0014 35.7249 18.647C35.7745 18.585 35.8117 18.4485 35.6753 18.3368ZM37.5735 17.518C37.5859 17.3939 37.375 17.518 37.375 17.3567C37.375 17.2698 37.6108 17.2078 37.71 17.307C37.8713 17.4807 37.7472 17.7661 37.4619 17.7909C37.2386 17.7909 36.8415 18.1259 36.9036 18.1879C36.9656 18.2748 37.5735 18.3244 37.9333 18.2748C38.1567 18.2376 38.107 18.4361 37.8837 18.4609C37.6604 18.4857 37.4867 18.4609 37.2882 18.5353C37.04 18.5974 36.9408 18.9076 36.8043 19.0316C36.7795 19.0564 36.705 18.9324 36.7299 18.8827C36.8291 18.7339 36.978 18.5105 37.1517 18.4361C37.251 18.3989 36.8539 18.3865 36.7299 18.3492C36.6306 18.3244 36.6554 18.1879 36.6926 18.1135C36.7423 18.0142 37.1145 17.6296 37.2758 17.642C37.4122 17.642 37.5611 17.6048 37.5735 17.518ZM38.1939 17.5428C38.2683 17.4807 38.318 17.3815 38.38 17.3195C38.4172 17.2822 38.4917 17.3195 38.4793 17.4187C38.4668 17.5056 38.3552 17.5676 38.2931 17.6296C38.2311 17.6669 38.1691 17.58 38.2063 17.5428H38.1939ZM39.0003 17.2574C39.112 17.2574 39.1244 17.4559 39.0252 17.4807C38.9507 17.5056 38.9011 17.2698 39.0003 17.2574ZM38.7398 17.8778C38.7398 18.0639 38.8266 18.0515 38.9879 18.0391C39.1492 18.0391 39.2857 18.0391 39.2857 17.8902C39.2857 17.7289 39.1989 17.58 39.1616 17.6917C39.1492 17.7909 39.1244 17.9646 39.0624 17.8902C39.0128 17.8281 39.0376 17.8157 38.9383 17.915C38.8763 17.977 38.8763 17.8902 38.8391 17.8405C38.8142 17.8033 38.7398 17.8654 38.7398 17.8902V17.8778ZM37.5984 18.7711C37.5611 19.0068 37.5984 19.3294 37.71 19.3294C37.8589 19.3294 38.1567 18.8331 38.3056 18.5602C38.3924 18.4113 38.5289 18.3865 38.4668 18.5477C38.38 18.7835 38.3924 19.2922 38.4668 19.4411C38.5165 19.5155 38.8391 19.3666 38.8887 19.255C38.9879 19.044 38.9011 18.6594 38.9383 18.4237C38.9507 18.2748 39.0996 18.2376 39.0872 18.3865C39.0677 18.6962 39.0635 19.0068 39.0748 19.317C39.0748 19.4411 39.4346 19.6148 39.4842 19.2425C39.509 19.0192 39.6331 18.7835 39.4842 18.5353C39.385 18.3741 39.6207 18.3865 39.7448 18.6098C39.8316 18.7587 39.6703 19.0068 39.6827 19.1929C39.6827 19.4907 39.4594 19.6644 39.2981 19.6644C39.1492 19.6644 39.05 19.4783 38.9259 19.4783C38.8018 19.4783 38.653 19.6892 38.5537 19.6768C38.107 19.652 38.3428 19.0192 38.2063 19.0068C38.0574 19.0068 37.8961 19.6272 37.71 19.6148C37.5363 19.5899 37.3378 19.0937 37.4247 18.8951C37.4867 18.6966 37.6108 18.647 37.5984 18.7711ZM39.6951 17.7785C39.4842 17.6544 39.6951 17.3195 39.8068 17.4311C40.0053 17.6793 40.2038 18.2376 40.3527 18.2872C40.4396 18.312 40.4272 17.8654 40.4892 17.6668C40.5388 17.5056 40.7125 17.5552 40.6877 17.7537C40.6753 17.8157 40.4396 18.5477 40.4644 18.5726C40.6296 18.8822 40.7667 19.2061 40.8738 19.5403C40.911 19.6892 40.7373 19.5899 40.7125 19.5651C40.6009 19.3914 40.4148 18.7587 40.4148 18.7959L40.2038 19.7512C40.179 19.8753 39.9929 19.8505 40.0425 19.6272C40.0798 19.4535 40.3279 18.5974 40.3155 18.5602C40.1734 18.2542 39.9608 17.9864 39.6951 17.7785Z" fill="white"/>
<path fill-rule="evenodd" clip-rule="evenodd" d="M40.0674 19.8381C40.0177 19.8381 39.9185 19.9622 40.2162 20.0242C40.6009 20.0986 41.0351 19.9622 41.1592 19.5775C41.3205 19.1185 41.4073 18.6842 41.4942 18.5229C41.5934 18.3368 41.7175 18.3493 41.6182 18.0763C41.5562 17.8654 41.4321 17.9274 41.4073 18.0391C41.3453 18.3244 41.0847 19.2798 40.9979 19.4411C40.849 19.7637 40.5388 19.8877 40.0674 19.8381Z" fill="white"/>
<path fill-rule="evenodd" clip-rule="evenodd" d="M40.8614 18.3244C40.8118 18.2376 40.7125 18.3244 40.7373 18.4113C40.7433 18.4463 40.7615 18.4781 40.7888 18.5009C40.8161 18.5236 40.8507 18.5358 40.8862 18.5353C40.9731 18.5353 41.1592 18.5478 41.1592 18.4113C41.1592 18.312 41.0723 18.2252 41.0227 18.3368C40.9607 18.4361 40.8986 18.4237 40.8614 18.3368V18.3244ZM40.9483 17.9522C40.9235 17.977 40.9483 18.0887 40.9855 18.0763C41.128 18.0773 41.2687 18.0432 41.3949 17.977C41.4197 17.9522 41.4073 17.8902 41.3701 17.8902C41.246 17.8902 41.0475 17.8902 40.9483 17.9522ZM42.0401 18.2376C42.1393 18.0887 42.3875 18.0763 42.2882 18.2872C42.0334 18.7988 41.7728 19.3075 41.5066 19.8133C41.4073 19.987 41.3329 19.9001 41.4073 19.7636C41.4942 19.5899 42.0153 18.2748 42.0401 18.2376Z" fill="white"/>
<path fill-rule="evenodd" clip-rule="evenodd" d="M41.0847 20.0614C41.0599 19.9622 40.8986 19.8133 40.9235 20.0862C40.9483 20.5577 41.6058 20.4088 41.7919 20.2475C41.9781 20.0862 41.8292 20.781 42.0649 20.8555C42.189 20.8927 42.4371 20.719 42.5612 20.5577C42.8962 20.1234 43.1195 19.4907 43.4297 19.0689C43.5537 18.8952 43.3676 18.7711 43.3056 18.9076C43.0078 19.379 42.6604 20.3468 42.2758 20.5949C41.9656 20.7934 42.0649 20.3468 42.0525 20.1979C42.0401 20.0986 41.916 19.9498 41.7547 20.0862C41.6249 20.1901 41.4617 20.2431 41.2957 20.2351C41.2088 20.2351 41.122 20.2351 41.0847 20.0614Z" fill="white"/>
<path fill-rule="evenodd" clip-rule="evenodd" d="M42.251 19.1929C42.251 19.1557 42.1145 19.1433 42.1269 19.2798C42.1269 19.379 42.251 19.4038 42.2634 19.4038C42.4495 19.255 42.2262 19.3294 42.251 19.1805V19.1929ZM41.9656 19.7388C41.9284 19.7388 41.8912 19.8629 41.9905 19.8753L42.4743 19.8505C42.524 19.8505 42.5488 19.7388 42.4247 19.7512C42.2758 19.7512 42.0897 19.714 41.9656 19.7512V19.7388ZM34.2733 17.6793C34.3353 17.6793 34.4718 17.853 34.4594 17.915C34.4594 17.9398 34.3105 17.915 34.2733 17.8778C34.2361 17.8406 34.2485 17.6793 34.2733 17.6793ZM33.6157 18.9696C33.4916 19.044 33.6405 19.1805 33.7398 19.1185C34.0872 18.8828 34.6083 18.647 34.7323 18.188C34.7696 18.0391 34.906 17.8033 35.0425 17.7537C35.1666 17.6917 35.3651 17.9894 35.4892 17.7537C35.5636 17.6296 35.8242 17.8406 35.8862 17.7041C35.9606 17.5428 35.9234 17.4559 35.9234 17.2822C35.9234 17.183 35.8366 17.1582 35.7745 17.3195C35.7497 17.3939 35.7745 17.4684 35.7621 17.518C35.7373 17.5428 35.6877 17.5676 35.6381 17.5428C35.6132 17.518 35.6381 17.4559 35.5636 17.4187C35.5388 17.4187 35.4892 17.4063 35.4644 17.4435C35.3775 17.6048 35.3403 17.7537 35.2038 17.5676C35.0921 17.4435 35.0301 17.183 34.9557 17.5304C34.9309 17.6545 34.7447 17.8282 34.6331 17.8282C34.4966 17.8282 34.5338 17.4559 34.2361 17.518C34.0748 17.5552 34.0872 17.853 34.112 17.9522C34.1492 18.1135 34.6083 18.0019 34.571 18.1011C34.4966 18.4361 34.0251 18.7711 33.6157 18.9696ZM30.7993 20.6073C30.7869 20.6694 30.8613 20.8182 30.9358 20.8307C31.0102 20.8307 31.0599 20.6694 31.035 20.6073C31.0102 20.5701 30.8117 20.5701 30.7993 20.6073ZM31.2087 21.2153C31.1591 21.1656 31.0102 21.3021 31.1343 21.4014C31.1963 21.4634 31.4445 21.5379 31.5065 21.4262C31.6058 21.2773 31.4197 20.7438 31.5065 20.6818C31.5685 20.6197 31.8539 21.0292 32.0028 21.054C32.3378 21.1036 32.2509 20.4833 32.6231 20.5329C32.8589 20.5577 32.8837 20.2599 32.8465 20.0614C32.8217 19.8753 32.5239 19.6148 32.3874 19.4907C32.2137 19.3418 32.1269 19.6148 32.2385 19.6892C32.3874 19.8133 32.648 20.049 32.6852 20.1979C32.6976 20.2723 32.5115 20.4212 32.437 20.384C32.2633 20.2847 32.1145 19.8877 31.9656 19.8009C31.9159 19.7761 31.7919 19.8381 31.8415 19.9622C31.9159 20.0986 32.2137 20.2972 32.2261 20.446C32.2385 20.5701 32.102 20.8431 32.0028 20.8431C31.8911 20.8431 31.6306 20.5081 31.5437 20.3468C31.4941 20.2847 31.3576 20.2847 31.3328 20.3964C31.3247 20.6256 31.3456 20.8548 31.3948 21.0788C31.4197 21.2773 31.2832 21.2897 31.2087 21.2153ZM30.7125 20.1483C30.6628 20.1979 30.8117 20.2972 30.8365 20.2723C30.8862 20.2227 31.0971 19.987 31.0599 19.9001C31.0226 19.8257 30.7373 19.652 30.6876 19.7388C30.6008 19.8753 30.9606 19.9498 30.8986 19.987C30.8292 20.0316 30.7665 20.0859 30.7125 20.1483ZM31.2211 19.1061C31.2211 19.1061 31.3204 19.4163 31.3948 19.2798C31.4445 19.1929 31.2211 19.1061 31.2211 19.1061ZM31.37 19.6024C31.3452 19.6024 31.246 19.6892 31.308 19.7264C31.4073 19.7761 31.6678 19.8257 31.6058 19.6396C31.5685 19.5279 32.0028 19.6396 31.8911 19.3418C31.8463 19.25 31.772 19.1758 31.6802 19.1309C31.6306 19.1309 31.4941 19.1929 31.581 19.2426C31.643 19.2674 31.8291 19.379 31.7671 19.4535C31.6802 19.5279 31.6306 19.4163 31.5313 19.4411C31.4817 19.4411 31.5189 19.59 31.4817 19.6272C31.4817 19.652 31.3948 19.5775 31.37 19.59V19.6024ZM32.0524 18.4237C31.9759 18.487 31.9233 18.5745 31.9035 18.6718C31.9035 18.6966 31.9408 18.7463 31.9656 18.7339C32.0421 18.6759 32.095 18.5921 32.1145 18.4981C32.1145 18.4609 32.0896 18.3989 32.0524 18.4237ZM32.3998 18.3865C32.3006 18.2624 32.5239 18.0639 32.6107 18.3244C32.6728 18.4857 33.2931 19.3046 33.4172 19.5775C33.5164 19.7637 33.4172 19.8381 33.3055 19.7016C32.9954 19.3046 32.7348 18.8083 32.3998 18.3865ZM33.045 18.3989C33.1566 18.2748 33.38 18.0267 33.3179 17.9026C33.2683 17.7785 33.1318 17.7785 33.107 17.8157C32.9829 17.977 33.2063 17.9398 33.1691 17.9894C33.107 18.1135 33.045 18.188 33.0078 18.312C32.9954 18.3492 33.0202 18.4237 33.045 18.3989ZM42.6977 18.7959C42.6108 18.7339 42.7721 18.4237 42.8838 18.5478C43.1691 18.8828 43.3056 19.987 43.3924 20.8183C43.3924 20.8183 43.2684 20.9299 43.2684 20.9051C43.2684 20.4709 43.0823 19.1185 42.6977 18.7959ZM36.1095 17.7289C36.0103 17.5056 36.246 17.4311 36.2832 17.58C36.4445 18.2996 36.8415 18.8455 37.1517 19.3294C37.2386 19.4783 37.1517 19.5775 36.9408 19.4287C36.7919 19.3294 36.6306 18.9448 36.5686 18.9324C36.4197 18.9076 36.0971 19.5527 35.4395 19.3666C35.2658 19.317 35.2782 18.8083 35.2658 18.585C35.2658 18.4733 35.3899 18.4609 35.3899 18.585C35.3899 18.7959 35.3899 19.2301 35.6505 19.255C35.8738 19.255 36.3453 18.9572 36.4445 18.7091C36.5438 18.4609 36.2088 17.977 36.1095 17.7165V17.7289Z" fill="white"/>
<path fill-rule="evenodd" clip-rule="evenodd" d="M42.8713 20.7314C42.921 20.5825 43.6282 19.3914 43.7274 19.1309C43.777 19.0068 43.9756 19.3542 43.777 19.5403C43.6033 19.6892 43.0947 20.5329 42.9954 20.8306C42.9458 20.9547 42.8217 20.8927 42.8713 20.7314Z" fill="white"/>
<path fill-rule="evenodd" clip-rule="evenodd" d="M44.0748 19.6023C44.1989 19.1061 44.5215 19.6768 44.2361 19.9497C43.8143 20.3716 43.6778 21.178 42.9954 21.3021C42.8217 21.3393 42.4991 21.2153 42.3999 21.1408C42.3626 21.116 42.4247 20.9423 42.5363 21.0292C42.6976 21.1532 43.045 21.1904 43.2311 21.0416C43.6365 20.6463 43.928 20.1492 44.0748 19.6023ZM37.0028 21.178C36.9656 21.2153 36.8787 21.2153 36.8663 21.2649C36.8291 21.4386 36.8663 21.5378 36.8291 21.7115C36.7919 21.8852 36.6678 21.8852 36.6802 21.7488C36.6802 21.5751 36.8415 21.3145 36.7299 21.3021C36.6554 21.2897 36.6058 21.1904 36.6802 21.1408C36.8167 21.054 36.8911 21.0664 36.978 21.0912C37.0152 21.1036 37.0276 21.1532 37.0028 21.178Z" fill="white"/>
<path fill-rule="evenodd" clip-rule="evenodd" d="M36.9036 20.9299C36.7299 21.1036 36.5562 21.1656 36.3949 21.3642C36.3204 21.4386 36.3328 21.5503 36.2832 21.6619C36.246 21.7736 36.1095 21.786 36.0723 21.7736C36.0102 21.724 36.0227 21.5254 35.9482 21.6247C35.8738 21.7364 35.8366 21.8728 35.7373 21.8728C35.6504 21.8728 35.4892 21.6867 35.576 21.6867C35.8614 21.6495 35.849 21.4386 35.9482 21.4138C36.0723 21.4014 36.0723 21.5999 36.1591 21.5627C36.2088 21.5379 36.246 21.3021 36.308 21.2401C36.4941 21.0416 36.643 20.9423 36.8415 20.7934C36.9284 20.719 37.0028 20.8555 36.9036 20.9423V20.9299ZM37.5611 21.5503C37.4122 21.5751 37.4371 21.7612 37.4867 21.7736C37.5487 21.8108 37.6604 21.8232 37.6976 21.6123C37.7224 21.5254 37.7348 22.0465 37.9209 21.848C38.045 21.724 38.3056 21.8728 38.4172 21.724C38.5041 21.6123 38.5413 21.5379 38.4668 21.389C38.442 21.3517 38.3428 21.3642 38.3428 21.4758C38.3428 21.5751 38.2807 21.6867 38.1815 21.6743C38.1318 21.6619 38.2063 21.4386 38.1567 21.3766C38.1451 21.3652 38.1295 21.3588 38.1132 21.3588C38.097 21.3588 38.0814 21.3652 38.0698 21.3766C38.0326 21.4262 38.107 21.6495 37.9954 21.6743C37.8465 21.6991 37.9209 21.5254 37.8713 21.5006C37.6604 21.4014 37.648 21.5254 37.5611 21.5379V21.5503ZM38.6778 21.178C38.7894 21.1532 38.7522 21.1532 38.9259 21.0168C38.9879 20.9671 39.0003 21.116 38.9879 21.178C38.9879 21.2649 38.8639 21.2029 38.8266 21.2897C38.777 21.4014 38.8018 21.6619 38.777 21.7612C38.777 21.8108 38.6778 21.8108 38.6778 21.7612C38.6529 21.6371 38.6902 21.513 38.6778 21.3517C38.6778 21.3021 38.6157 21.2153 38.6778 21.1905V21.178ZM38.0574 20.8679C38.0326 20.9795 38.0326 21.0664 38.0326 21.1532C38.0326 21.2153 38.1567 21.178 38.1567 21.1656C38.1567 21.0664 38.1815 20.9175 38.1567 20.8803C38.1319 20.8679 38.0698 20.8431 38.0574 20.8679Z" fill="white"/>
<path fill-rule="evenodd" clip-rule="evenodd" d="M37.2758 19.714L37.1021 20.4088L36.8539 19.9373V20.4212L36.308 19.7761L36.4941 20.4708L35.9979 20.049L36.2708 20.5205L35.4023 19.9622L35.9482 20.6073L35.2534 20.2599L35.7497 20.6818L34.6331 20.2599L35.7125 20.7934C36.2029 20.5702 36.7371 20.46 37.2758 20.4708C37.8837 20.4708 38.4296 20.5949 38.8267 20.7934L39.9185 20.2599L38.8018 20.6818L39.2981 20.2599L38.6157 20.6073L39.1492 19.9622L38.2808 20.5205L38.5537 20.049L38.0574 20.4584L38.2435 19.7761L37.71 20.4212V19.9373L37.4619 20.4088L37.2758 19.714Z" fill="white"/>
<path d="M36.3183 34.7917L36.2833 35.095H36.2366L36.225 34.885C36.2112 34.8211 36.1917 34.7587 36.1666 34.6983C36.1521 34.646 36.1325 34.5952 36.1083 34.5467L35.9916 34.3833L36.085 34.1267C36.1629 34.2062 36.2226 34.3018 36.26 34.4067C36.3009 34.5268 36.3206 34.6531 36.3183 34.78M37.135 34.29C37.135 34.3717 37.1116 34.43 37.0766 34.465C37.0533 34.5 37.0066 34.535 36.925 34.5467L36.9716 34.7217C36.9833 34.799 36.9833 34.8777 36.9716 34.955C36.9692 35.0057 36.9653 35.0562 36.96 35.1067H36.9133C36.9134 35.0559 36.9095 35.0052 36.9016 34.955C36.8975 34.9155 36.8897 34.8764 36.8783 34.8383L36.8316 34.7217C36.8085 34.6653 36.7812 34.6107 36.75 34.5583L36.6333 34.36L36.7033 34.1267L36.82 34.2433C36.855 34.2667 36.89 34.2783 36.9366 34.2783C37.03 34.2783 37.0766 34.2317 37.0766 34.1267H37.1233V34.29M37.87 34.85L37.8116 35.095C37.765 35.095 37.7416 35.06 37.7183 35.0133L37.6716 34.8617C37.6632 34.7959 37.6593 34.7296 37.66 34.6633C37.6222 34.6761 37.583 34.6839 37.5433 34.6867C37.4888 34.6893 37.4352 34.6728 37.3916 34.64C37.3738 34.6261 37.3594 34.6084 37.3493 34.5883C37.3392 34.5681 37.3337 34.5459 37.3333 34.5233C37.3333 34.4183 37.3683 34.325 37.415 34.255C37.4733 34.1733 37.5316 34.1383 37.59 34.1267C37.6483 34.1267 37.6833 34.1383 37.7066 34.1733C37.7266 34.205 37.7386 34.241 37.7416 34.2783V34.5117C37.7416 34.6167 37.7533 34.6867 37.7766 34.7333C37.7766 34.7683 37.8116 34.8033 37.87 34.85ZM37.6366 34.4417C37.6366 34.3717 37.6016 34.3483 37.5433 34.3483C37.5193 34.3449 37.4949 34.3489 37.4733 34.36C37.45 34.3717 37.45 34.3833 37.45 34.395C37.45 34.43 37.485 34.4533 37.5666 34.4533L37.6366 34.4417ZM38.6516 34.7917L38.6166 35.095C38.5583 35.0483 38.5 34.9783 38.4533 34.8617C38.3893 34.7068 38.3386 34.5468 38.3016 34.3833C38.2434 34.6009 38.1733 34.8151 38.0916 35.025C38.0658 35.0577 38.0342 35.0854 37.9983 35.1067V34.815C38.0683 34.7333 38.1033 34.6867 38.115 34.64C38.1542 34.578 38.1855 34.5114 38.2083 34.4417L38.2666 34.1267H38.3133L38.4183 34.4417C38.4416 34.5117 38.4766 34.5817 38.5233 34.6283L38.64 34.7917" fill="white"/>
<path d="M40.9266 37.6383C40.9733 37.685 40.9966 37.7317 41.0083 37.7783L41.055 37.965L40.9616 37.9767C40.9296 37.914 40.8905 37.8553 40.845 37.8017C40.8042 37.7532 40.7614 37.7065 40.7166 37.6617C40.652 37.6017 40.5858 37.5434 40.5183 37.4867C40.4431 37.4176 40.3652 37.3514 40.285 37.2883C40.2383 37.265 40.215 37.2417 40.215 37.23C40.1964 37.2019 40.1844 37.17 40.18 37.1367C40.1677 37.0751 40.1599 37.0127 40.1566 36.95L40.4716 37.2067C40.572 37.2885 40.6693 37.3741 40.7633 37.4633L40.9266 37.6383ZM39.8183 36.9617L39.795 37.195H39.4333L39.4683 36.9617H39.8183ZM40.7983 38L39.9116 38.2683L39.76 38.035L40.5183 37.8017L40.4366 37.7083C40.4065 37.6784 40.3708 37.6546 40.3316 37.6383C40.3319 37.6599 40.328 37.6813 40.32 37.7013C40.312 37.7214 40.3001 37.7396 40.285 37.755C40.2539 37.7894 40.2133 37.8138 40.1683 37.825C40.0996 37.8439 40.027 37.8439 39.9583 37.825C39.8992 37.8181 39.8449 37.7889 39.8066 37.7433C39.7548 37.6677 39.7264 37.5784 39.725 37.4867C39.725 37.37 39.76 37.3 39.83 37.2767C39.9116 37.2533 40.04 37.2767 40.18 37.3583C40.3174 37.4222 40.4374 37.5183 40.53 37.6383L40.7983 38ZM40.1216 37.5333C40.0919 37.5182 40.0606 37.5065 40.0283 37.4983C40.0054 37.4918 39.9812 37.4918 39.9583 37.4983C39.9466 37.4996 39.9354 37.5034 39.9253 37.5095C39.9152 37.5155 39.9066 37.5236 39.9 37.5333C39.8924 37.5434 39.8883 37.5557 39.8883 37.5683C39.8883 37.581 39.8924 37.5932 39.9 37.6033L39.9583 37.6267H40.0283L40.075 37.5917L40.1216 37.5333ZM39.1883 37.3467L39.13 37.58L38.7566 37.545L38.815 37.3117L39.1766 37.3467M40.0516 38.245L39.8533 38.2917C39.7876 38.3023 39.7206 38.3023 39.655 38.2917C39.5939 38.289 39.5342 38.2731 39.48 38.245C39.445 38.3033 39.3866 38.3617 39.305 38.385C39.2457 38.4155 39.183 38.4389 39.1183 38.455L38.9783 38.49L38.8616 38.2567L38.99 38.2217C39.0416 38.2099 39.0923 38.1943 39.1416 38.175L39.2466 38.1167L39.13 38.0583H39.0483C39.0406 38.0564 39.0326 38.0564 39.025 38.0583C39.0138 38.0673 39.0056 38.0795 39.0016 38.0933H38.9433C38.885 38 38.8733 37.9183 38.9083 37.86C38.9433 37.8017 39.0133 37.7667 39.1416 37.7433C39.2403 37.7161 39.3433 37.7081 39.445 37.72C39.5383 37.7317 39.5966 37.7667 39.62 37.825C39.6433 37.8483 39.6433 37.8833 39.6433 37.9067L39.5966 38.0467H39.655C39.6782 38.0502 39.7018 38.0502 39.725 38.0467L39.9233 38.0117L40.04 38.245M39.1066 38.455L38.92 38.49C38.8316 38.5081 38.7396 38.4914 38.6633 38.4433C38.5694 38.3634 38.5006 38.2581 38.465 38.14L38.3716 37.8833C38.3541 37.8353 38.3214 37.7943 38.2783 37.7667C38.2456 37.7434 38.2104 37.7238 38.1733 37.7083L38.2433 37.4633C38.3133 37.4983 38.36 37.5333 38.4066 37.58L38.5233 37.7783L38.5816 37.9533L38.71 38.21C38.745 38.245 38.7916 38.2567 38.8266 38.245L39.025 38.2217L39.1066 38.455ZM38.29 37.58L38.1733 37.8017L37.8233 37.72L37.94 37.4983L38.29 37.58ZM38.5 38.56L37.625 38.6417L37.5783 38.4083L38.3016 38.3267C38.2854 38.2908 38.2615 38.2589 38.2316 38.2333C38.1944 38.2073 38.1554 38.1839 38.115 38.1633L38.1733 37.93C38.255 37.9767 38.3133 38.035 38.36 38.0817C38.395 38.14 38.43 38.2217 38.4533 38.3267L38.5 38.56ZM37.8 38.6767C37.714 38.6745 37.6283 38.6667 37.5433 38.6533C37.4757 38.6395 37.4093 38.62 37.345 38.595C37.2965 38.6167 37.2456 38.6323 37.1933 38.6417C37.1273 38.6474 37.061 38.6474 36.995 38.6417H36.7616C36.7128 38.6419 36.6646 38.6299 36.6216 38.6067C36.5866 38.5833 36.5633 38.5483 36.5283 38.49C36.4793 38.5414 36.4196 38.5812 36.3533 38.6067L36.155 38.6183H35.9566L35.98 38.3733H36.1783C36.2716 38.3733 36.3533 38.3733 36.4233 38.3267C36.4665 38.3106 36.504 38.282 36.5309 38.2446C36.5579 38.2073 36.5733 38.1627 36.575 38.1167L36.6566 38.1283C36.6517 38.1788 36.6478 38.2294 36.645 38.28C36.645 38.315 36.645 38.3383 36.68 38.3617C36.715 38.385 36.75 38.3967 36.7966 38.3967H36.9716C37.0883 38.3967 37.1583 38.3967 37.205 38.3733C37.275 38.35 37.31 38.315 37.3216 38.245L37.3333 38.1983C37.3333 38.1983 37.3683 38.1983 37.3916 38.175L37.45 38.1517V38.1983C37.4502 38.21 37.4502 38.2217 37.45 38.2333L37.415 38.3617C37.491 38.3876 37.569 38.4071 37.6483 38.42C37.66 38.3967 37.6483 38.3733 37.6366 38.3383L37.6016 38.2683C37.6016 38.2557 37.6057 38.2434 37.6133 38.2333L37.6483 38.21L37.765 38.105L37.8233 38.2217V38.3383L37.8 38.6767ZM36.4816 37.6617L36.2483 37.8133L36.0966 37.7083L35.9333 37.825L35.7116 37.7083L35.9216 37.5567L36.0966 37.65L36.2716 37.5333L36.4816 37.65M36.1316 38.6067L35.28 38.4667L35.3733 38.2333L36.0966 38.35C36.0966 38.3033 36.0966 38.2683 36.0733 38.2333C36.0567 38.2005 36.0372 38.1693 36.015 38.14L36.2016 37.9417C36.2483 38.0117 36.2716 38.0583 36.2833 38.1283C36.2833 38.1867 36.26 38.2683 36.225 38.3733L36.1316 38.6067ZM35.42 38.49L35.2333 38.455C35.1283 38.4317 35.07 38.385 35.0583 38.315C35.035 38.245 35.07 38.14 35.1516 37.9883L35.2916 37.755C35.3266 37.6967 35.3383 37.65 35.3266 37.615C35.3198 37.5859 35.308 37.5583 35.2916 37.5333L35.5483 37.3467C35.5833 37.405 35.5833 37.4633 35.5833 37.51C35.5833 37.5683 35.5483 37.6383 35.5016 37.72L35.4083 37.8833C35.356 37.9607 35.3202 38.0481 35.3033 38.14C35.3033 38.1867 35.3266 38.21 35.3616 38.2217L35.5483 38.2683L35.42 38.5017M34.9766 37.5683L34.685 37.6967L34.475 37.4983L34.7783 37.3817L34.9766 37.58M34.86 38.35C34.8067 38.4139 34.7437 38.469 34.6733 38.5133C34.613 38.5507 34.5454 38.5746 34.475 38.5833L34.195 38.5717C34.0837 38.5551 33.9743 38.5278 33.8683 38.49C33.7181 38.448 33.5813 38.3676 33.4716 38.2567C33.4016 38.1633 33.4016 38.0817 33.4716 38C33.5373 37.924 33.6164 37.8607 33.705 37.8133C33.7983 37.755 33.9383 37.6967 34.1483 37.6267L34.195 37.685L33.8683 37.825C33.81 37.86 33.7516 37.895 33.7166 37.9417C33.67 37.9883 33.6816 38.0583 33.74 38.1283C33.9505 38.2915 34.2086 38.3816 34.475 38.385C34.615 38.385 34.7083 38.35 34.7433 38.3033C34.7783 38.2683 34.79 38.2333 34.8016 38.1867L34.825 38L35.1166 37.825C35.1182 37.8836 35.1143 37.9422 35.105 38C35.08 38.0699 35.0402 38.1336 34.9883 38.1867L34.8483 38.35" fill="#BF0000"/>
</g>
<defs>
<clipPath id="clip0_1_49592">
<rect width="74.6667" height="56" fill="white" transform="translate(0 0.375)"/>
</clipPath>
</defs>
</svg>
