<svg width="75" height="57" viewBox="0 0 75 57" fill="none" xmlns="http://www.w3.org/2000/svg">
<g clip-path="url(#clip0_1_48825)">
<path fill-rule="evenodd" clip-rule="evenodd" d="M-4.40997 0.375H79.076V56.3203H-4.40997V0.375Z" fill="white"/>
<path fill-rule="evenodd" clip-rule="evenodd" d="M-4.22405 0.440628H78.9994V24.0766H-4.23499L-4.22405 0.440628Z" fill="black"/>
<path fill-rule="evenodd" clip-rule="evenodd" d="M11.0447 22.6H66.2791V35.0469H11.0447V22.6Z" fill="#0061FF"/>
<path fill-rule="evenodd" clip-rule="evenodd" d="M79.0213 0.571881V56.375H37.3713L79.0213 0.560944V0.571881ZM-4.26779 0.571881V56.375H37.3713L-4.26779 0.560944V0.571881Z" fill="#E20000"/>
<path fill-rule="evenodd" clip-rule="evenodd" d="M56.8838 22.6109L48.5275 20.5L55.626 15.1406L46.9088 16.3875L51.3932 8.78593L43.6603 13.2703L45.0603 4.42187L39.8213 11.4L37.7103 3.30624L35.3369 11.6516L30.1088 4.54218L31.6072 13.6422L23.8635 8.90624L28.3478 16.5078L19.8822 15.1406L26.8603 20.3687L18.1213 22.6109H56.8728H56.8838Z" fill="#FFD600"/>
</g>
<defs>
<clipPath id="clip0_1_48825">
<rect width="74.6667" height="56" fill="white" transform="translate(0 0.375)"/>
</clipPath>
</defs>
</svg>
