<svg width="75" height="57" viewBox="0 0 75 57" fill="none" xmlns="http://www.w3.org/2000/svg">
<g clip-path="url(#clip0_1_48835)">
<path d="M0 0.375H74.6667V56.375H0V0.375Z" fill="#012169"/>
<path d="M56.5017 21.4217L56.735 21.655L56.5017 21.4217Z" fill="#49497D"/>
<path d="M56.735 21.4217L56.9683 21.655L56.735 21.4217Z" fill="#0E0E6E"/>
<path d="M56.0233 21.655L56.2567 21.8883L56.0233 21.655Z" fill="#262678"/>
<path d="M56.2683 21.655L56.5017 21.8883L56.2683 21.655Z" fill="#808067"/>
<path d="M56.9683 21.655L57.2017 21.8883L56.9683 21.655Z" fill="#58587B"/>
<path d="M48.2067 21.9L48.44 22.1333L48.2067 21.9Z" fill="#0E0E6E"/>
<path d="M55.5567 21.9L55.79 22.1333L55.5567 21.9Z" fill="#1B1B74"/>
<path d="M55.79 21.9L56.0233 22.1333L55.79 21.9Z" fill="#6E6C70"/>
<path d="M48.6267 22.3083C48.6267 28.445 47.9267 35.34 52.4767 40.135C53.41 41.115 55.2067 43.3667 56.735 43.285C58.3333 43.1917 60.3983 40.8233 61.3083 39.6683C65.275 34.4417 64.6567 28.2117 64.785 22.145C63 22.95 62.1017 23.2183 60.5383 23.195C59.3717 23.3117 57.5867 22.5533 56.5133 22.0283C55.8133 22.495 54.7983 23.0667 52.9667 23.125C50.8667 23.2183 50.19 22.8567 48.6267 22.3083Z" fill="#CCCC33"/>
<path d="M57.2133 21.9L57.4467 22.1333L57.2133 21.9Z" fill="#99994E"/>
<path d="M57.4467 21.9L57.68 22.1333L57.4467 21.9Z" fill="#49497D"/>
<path d="M64.785 21.9L65.0183 22.1333L64.785 21.9Z" fill="#0E0E6E"/>
<path d="M48.4517 22.1333L48.685 22.3667L48.4517 22.1333Z" fill="#A4A43D"/>
<path d="M48.685 22.1333L48.9183 22.3667L48.685 22.1333Z" fill="#6E6C70"/>
<path d="M48.9183 22.1333L49.1517 22.3667L48.9183 22.1333Z" fill="#3A3A7C"/>
<path d="M55.0667 22.1333L55.3 22.3667L55.0667 22.1333Z" fill="#1B1B74"/>
<path d="M55.3 22.1333L55.5333 22.3667L55.3 22.1333Z" fill="#6E6C70"/>
<path d="M55.5567 22.1333L55.79 22.3667L55.5567 22.1333Z" fill="#A4A43D"/>
<path d="M56.5017 22.1333L56.735 22.3667L56.5017 22.1333Z" fill="#D0D045"/>
<path d="M57.4467 22.1333L57.68 22.3667L57.4467 22.1333Z" fill="#A4A43D"/>
<path d="M57.68 22.1333L57.9133 22.3667L57.68 22.1333Z" fill="#8D8D5B"/>
<path d="M57.925 22.1333L58.1583 22.3667L57.925 22.1333Z" fill="#3A3A7C"/>
<path d="M64.0733 22.1333L64.3067 22.3667L64.0733 22.1333Z" fill="#262678"/>
<path d="M64.3183 22.1333L64.5517 22.3667L64.3183 22.1333Z" fill="#53527C"/>
<path d="M64.5517 22.1333L64.785 22.3667L64.5517 22.1333Z" fill="#8D8D5B"/>
<path d="M49.3967 22.3783L49.63 22.6117L49.3967 22.3783Z" fill="#737370"/>
<path d="M49.63 22.3783L49.8633 22.6117L49.63 22.3783Z" fill="#53527C"/>
<path d="M49.8633 22.3783L50.0967 22.6117L49.8633 22.3783Z" fill="#1B1B74"/>
<path d="M54.6 22.3783L54.8333 22.6117L54.6 22.3783Z" fill="#262678"/>
<path d="M54.8333 22.3783L55.0667 22.6117L54.8333 22.3783Z" fill="#6E6C70"/>
<path d="M55.0667 22.3783L55.3 22.6117L55.0667 22.3783Z" fill="#A4A43D"/>
<path d="M56.2683 22.3783L56.5017 22.6117L56.2683 22.3783Z" fill="#E5E59D"/>
<path d="M49.105 22.985C48.9883 26.205 49.0817 29.8217 49.5717 33.2517C50.1433 35.06 50.0617 36.0517 50.89 37.125L62.44 37.0317C63.14 35.9 63.665 34.185 63.7233 33.4967C64.3767 30.0317 64.3883 26.1933 64.4117 22.7633C63.1412 23.462 61.6901 23.7628 60.2467 23.6267C58.9931 23.5513 57.7745 23.1838 56.6883 22.5533C55.58 23.2067 55.195 23.51 53.375 23.5917C51.9517 23.6617 50.8083 23.7783 49.105 22.985Z" fill="white"/>
<path d="M56.735 22.3783L56.9683 22.6117L56.735 22.3783Z" fill="#F2F1D7"/>
<path d="M56.9683 22.3783L57.2017 22.6117L56.9683 22.3783Z" fill="#D9D868"/>
<path d="M57.925 22.3783L58.1583 22.6117L57.925 22.3783Z" fill="#A4A43D"/>
<path d="M58.1583 22.3783L58.3917 22.6117L58.1583 22.3783Z" fill="#99994E"/>
<path d="M58.3917 22.3783L58.625 22.6117L58.3917 22.3783Z" fill="#49497D"/>
<path d="M58.625 22.3783L58.8583 22.6117L58.625 22.3783Z" fill="#0E0E6E"/>
<path d="M63.3733 22.3783L63.6067 22.6117L63.3733 22.3783Z" fill="#3A3A7C"/>
<path d="M63.6067 22.3783L63.84 22.6117L63.6067 22.3783Z" fill="#666677"/>
<path d="M63.84 22.3783L64.0733 22.6117L63.84 22.3783Z" fill="#99994E"/>
<path d="M64.0733 22.3783L64.3067 22.6117L64.0733 22.3783ZM49.8633 22.6117L50.0967 22.845L49.8633 22.6117Z" fill="#A4A43D"/>
<path d="M50.1083 22.6117L50.3417 22.845L50.1083 22.6117Z" fill="#99994E"/>
<path d="M50.3417 22.6117L50.575 22.845L50.3417 22.6117Z" fill="#6E6C70"/>
<path d="M50.575 22.6117L50.8083 22.845L50.575 22.6117Z" fill="#49497D"/>
<path d="M50.8083 22.6117L51.0417 22.845L50.8083 22.6117ZM53.8883 22.6117L54.1217 22.845L53.8883 22.6117Z" fill="#1B1B74"/>
<path d="M54.1217 22.6117L54.355 22.845L54.1217 22.6117Z" fill="#53527C"/>
<path d="M54.3667 22.6117L54.6 22.845L54.3667 22.6117Z" fill="#8D8D5B"/>
<path d="M54.6 22.6117L54.8333 22.845L54.6 22.6117Z" fill="#A4A43D"/>
<path d="M55.79 22.6117L56.0233 22.845L55.79 22.6117Z" fill="#E5E59D"/>
<path d="M56.0233 22.6117L56.2567 22.845L56.0233 22.6117Z" fill="#FBFAF2"/>
<path d="M57.2133 22.6117L57.4467 22.845L57.2133 22.6117Z" fill="#F2F1D2"/>
<path d="M57.4467 22.6117L57.68 22.845L57.4467 22.6117Z" fill="#D9D868"/>
<path d="M58.625 22.6117L58.8583 22.845L58.625 22.6117Z" fill="#A4A43D"/>
<path d="M58.87 22.6117L59.1033 22.845L58.87 22.6117Z" fill="#6E6C70"/>
<path d="M59.1033 22.6117L59.3367 22.845L59.1033 22.6117Z" fill="#3A3A7C"/>
<path d="M62.1833 22.6117L62.4167 22.845L62.1833 22.6117Z" fill="#0E0E6E"/>
<path d="M62.4167 22.6117L62.65 22.845L62.4167 22.6117Z" fill="#32327B"/>
<path d="M62.65 22.6117L62.8833 22.845L62.65 22.6117Z" fill="#58587B"/>
<path d="M62.8833 22.6117L63.1167 22.845L62.8833 22.6117Z" fill="#808067"/>
<path d="M63.2917 22.6817L63.4433 22.7633L63.2917 22.6817Z" fill="#A4A43D"/>
<path d="M48.9183 22.845L49.1517 23.0783L48.9183 22.845Z" fill="#DDDC7A"/>
<path d="M49.1517 22.845L49.385 23.0783L49.1517 22.845Z" fill="#D0D045"/>
<path d="M50.9717 22.915L51.135 22.9967L50.9717 22.915Z" fill="#A4A43D"/>
<path d="M51.2867 22.845L51.52 23.0783L51.2867 22.845Z" fill="#808067"/>
<path d="M51.52 22.845L51.7533 23.0783L51.52 22.845Z" fill="#666677"/>
<path d="M51.765 22.845L51.9983 23.0783L51.765 22.845Z" fill="#58587B"/>
<path d="M51.9983 22.845L52.2317 23.0783L51.9983 22.845Z" fill="#49497D"/>
<path d="M53.4217 22.845L53.655 23.0783L53.4217 22.845Z" fill="#737370"/>
<path d="M53.655 22.845L53.8883 23.0783L53.655 22.845Z" fill="#99994E"/>
<path d="M53.8883 22.845L54.1217 23.0783L53.8883 22.845Z" fill="#A4A43D"/>
<path d="M55.3 22.845L55.5333 23.0783L55.3 22.845Z" fill="#E5E59D"/>
<path d="M55.5567 22.845L55.79 23.0783L55.5567 22.845Z" fill="#FBFAF2"/>
<path d="M57.68 22.845L57.9133 23.0783L57.68 22.845Z" fill="#F2F1D2"/>
<path d="M57.925 22.845L58.1583 23.0783L57.925 22.845Z" fill="#D9D868"/>
<path d="M59.255 22.915L59.4183 22.9967L59.2667 22.915H59.255Z" fill="#A4A43D"/>
<path d="M59.5817 22.845L59.815 23.0783L59.5817 22.845Z" fill="#808067"/>
<path d="M59.815 22.845L60.0483 23.0783L59.815 22.845Z" fill="#666677"/>
<path d="M60.0483 22.845L60.2817 23.0783L60.0483 22.845Z" fill="#58587B"/>
<path d="M60.2933 22.845L60.5267 23.0783L60.2933 22.845Z" fill="#3A3A7C"/>
<path d="M61.39 22.915L61.5533 22.9967L61.39 22.915Z" fill="#58587B"/>
<path d="M61.705 22.845L61.9383 23.0783L61.705 22.845Z" fill="#737370"/>
<path d="M61.9383 22.845L62.1717 23.0783L61.9383 22.845Z" fill="#99994E"/>
<path d="M62.1833 22.845L62.4167 23.0783L62.1833 22.845Z" fill="#A4A43D"/>
<path d="M64.0733 22.845L64.3067 23.0783L64.0733 22.845Z" fill="#DDDC7A"/>
<path d="M64.3183 22.845L64.5517 23.0783L64.3183 22.845Z" fill="#D0D045"/>
<path d="M49.3967 23.0783L49.63 23.3117L49.3967 23.0783Z" fill="#F2F1D7"/>
<path d="M49.63 23.0783L49.8633 23.3117L49.63 23.0783Z" fill="#E0DEA1"/>
<path d="M49.8633 23.0783L50.0967 23.3117L49.8633 23.0783Z" fill="#DDDC7A"/>
<path d="M54.6 23.0783L54.8333 23.3117L54.6 23.0783Z" fill="#D9D868"/>
<path d="M54.8333 23.0783L55.0667 23.3117L54.8333 23.0783Z" fill="#E5E3AF"/>
<path d="M58.1583 23.0783L58.3917 23.3117L58.1583 23.0783Z" fill="#F6F6E4"/>
<path d="M58.3917 23.0783L58.625 23.3117L58.3917 23.0783Z" fill="#E1E18C"/>
<path d="M63.1167 23.0783L63.35 23.3117L63.1167 23.0783Z" fill="#D4D456"/>
<path d="M63.3733 23.0783L63.6067 23.3117L63.3733 23.0783Z" fill="#E1E18C"/>
<path d="M63.6067 23.0783L63.84 23.3117L63.6067 23.0783Z" fill="#EEEDC1"/>
<path d="M50.3417 23.3117L50.575 23.545L50.3417 23.3117Z" fill="#F2F1D2"/>
<path d="M50.575 23.3117L50.8083 23.545L50.575 23.3117Z" fill="#E0DEA1"/>
<path d="M50.8083 23.3117L51.0417 23.545L50.8083 23.3117Z" fill="#DDDC7A"/>
<path d="M51.0533 23.3117L51.2867 23.545L51.0533 23.3117Z" fill="#D0D045"/>
<path d="M53.8883 23.3117L54.1217 23.545L53.8883 23.3117Z" fill="#DDDC7A"/>
<path d="M54.1217 23.3117L54.355 23.545L54.1217 23.3117Z" fill="#E5E3AF"/>
<path d="M54.3667 23.3117L54.6 23.545L54.3667 23.3117Z" fill="#F6F6E4"/>
<path d="M58.87 23.3117L59.1033 23.545L58.87 23.3117Z" fill="#EEEDC1"/>
<path d="M59.1033 23.3117L59.3367 23.545L59.1033 23.3117Z" fill="#E1E18C"/>
<path d="M59.3367 23.3117L59.57 23.545L59.3367 23.3117Z" fill="#D4D456"/>
<path d="M62.1833 23.3117L62.4167 23.545L62.1833 23.3117Z" fill="#D9D868"/>
<path d="M62.4167 23.3117L62.65 23.545L62.4167 23.3117Z" fill="#E1E18C"/>
<path d="M62.65 23.3117L62.8833 23.545L62.65 23.3117Z" fill="#EEEDC1"/>
<path d="M62.8833 23.3117L63.1167 23.545L62.8833 23.3117Z" fill="#F6F6E4"/>
<path d="M51.52 23.545L51.7533 23.7783L51.52 23.545Z" fill="#F2F1D7"/>
<path d="M51.765 23.545L51.9983 23.7783L51.765 23.545Z" fill="#F2F1D2"/>
<path d="M51.9983 23.545L52.2317 23.7783L51.9983 23.545Z" fill="#EEEDC1"/>
<path d="M53.1067 23.6267L53.2583 23.7083L53.1067 23.6267Z" fill="#F2F1D2"/>
<path d="M53.4217 23.545L53.655 23.7783L53.4217 23.545Z" fill="#FBFAF2"/>
<path d="M54.6 23.545L55.0667 24.0117V23.545H54.6Z" fill="#FEF8F1"/>
<path d="M59.815 23.545L60.0483 23.7783L59.815 23.545Z" fill="#F2F1D7"/>
<path d="M60.0483 23.545L60.2817 23.7783L60.0483 23.545Z" fill="#F2F1D2"/>
<path d="M60.2933 23.545L60.5267 23.7783L60.2933 23.545Z" fill="#E5E3AF"/>
<path d="M60.69 23.6267L60.8417 23.7083L60.6783 23.6267H60.69Z" fill="#E5E59D"/>
<path d="M61.005 23.545L61.2383 23.7783L61.005 23.545Z" fill="#E0DEA1"/>
<path d="M61.39 23.6267L61.5533 23.7083L61.39 23.6267Z" fill="#F2F1D2"/>
<path d="M61.705 23.545L61.9383 23.7783L61.705 23.545Z" fill="#FBFAF2"/>
<path d="M54.1217 23.79L54.355 24.0233L54.1217 23.79Z" fill="#FEF8F1"/>
<path d="M54.3667 23.79L54.6 24.0233L54.3667 23.79Z" fill="#FBBE66"/>
<path d="M54.1217 24.0233L54.355 24.2567L54.1217 24.0233Z" fill="#FBC477"/>
<path d="M54.6 24.0233L54.8333 24.2567L54.6 24.0233Z" fill="#FCB144"/>
<path d="M54.1217 24.2683L54.355 24.5017L54.1217 24.2683Z" fill="#FE9F11"/>
<path d="M54.6 24.2683L54.8333 24.5017L54.6 24.2683Z" fill="#FEA522"/>
<path d="M53.8883 24.5017L54.1217 24.735L53.8883 24.5017ZM54.845 24.5017L55.0783 24.735L54.845 24.5017Z" fill="#FAE3C9"/>
<path d="M56.0233 24.5017L56.2567 24.735L56.0233 24.5017Z" fill="#FBEAD6"/>
<path d="M56.2683 24.5017L56.5017 24.735L56.2683 24.5017Z" fill="#F9D6AA"/>
<path d="M57.2133 24.5017L57.4467 24.735L57.2133 24.5017Z" fill="#FAE3C9"/>
<path d="M57.4467 24.5017L57.68 24.735L57.4467 24.5017Z" fill="#FEF8F1"/>
<path d="M53.8883 24.735L54.1217 24.9683L53.8883 24.735Z" fill="#F9D099"/>
<path d="M54.8333 24.735L55.0667 24.9683L54.8333 24.735Z" fill="#FDAB33"/>
<path d="M55.3 24.735L55.5333 24.9683L55.3 24.735Z" fill="#FCF1E4"/>
<path d="M55.5567 24.735L55.79 24.9683L55.5567 24.735Z" fill="#FBC477"/>
<path d="M55.79 24.735L56.0233 24.9683L55.79 24.735Z" fill="#FEA522"/>
<path d="M57.68 24.735L57.9133 24.9683L57.68 24.735Z" fill="#FCB755"/>
<path d="M57.925 24.735L58.1583 24.9683L57.925 24.735Z" fill="#F9D6AA"/>
<path d="M53.8883 24.98L54.1217 25.2133L53.8883 24.98Z" fill="#FACA88"/>
<path d="M55.0667 24.98L55.3 25.2133L55.0667 24.98ZM58.1583 24.98L58.3917 25.2133L58.1583 24.98Z" fill="#FEA522"/>
<path d="M58.3917 24.98L58.625 25.2133L58.3917 24.98Z" fill="#F8DCBB"/>
<path d="M48.9183 25.2133L49.1517 25.4467L48.9183 25.2133Z" fill="#F6F6E4"/>
<path d="M53.8883 25.2133L54.1217 25.4467L53.8883 25.2133Z" fill="#FBC477"/>
<path d="M58.625 25.2133L58.8583 25.4467L58.625 25.2133Z" fill="#FBBE66"/>
<path d="M58.87 25.2133L59.1033 25.4467L58.87 25.2133Z" fill="#F8DCBB"/>
<path d="M53.8883 25.4467L54.1217 25.68L53.8883 25.4467Z" fill="#FACA88"/>
<path d="M59.3367 25.4467L59.57 25.68L59.3367 25.4467Z" fill="#FCB755"/>
<path d="M59.5817 25.4467L59.815 25.68L59.5817 25.4467Z" fill="#F8DCBB"/>
<path d="M53.655 25.6917L53.8883 25.925L53.655 25.6917Z" fill="#FEF8F1"/>
<path d="M53.8883 25.6917L54.1217 25.925L53.8883 25.6917Z" fill="#FE9F11"/>
<path d="M60.5267 25.6917L60.76 25.925L60.5267 25.6917Z" fill="#FDAB33"/>
<path d="M60.7717 25.6917L61.005 25.925L60.7717 25.6917Z" fill="#FCB144"/>
<path d="M61.005 25.6917L61.2383 25.925L61.005 25.6917Z" fill="#FBC477"/>
<path d="M61.2383 25.6917L61.705 26.1583L61.2383 25.6917Z" fill="#F9D6AA"/>
<path d="M61.4717 25.6917L61.705 25.925L61.4717 25.6917Z" fill="#FEF8F1"/>
<path d="M53.655 25.925L53.8883 26.1583L53.655 25.925Z" fill="#FCB144"/>
<path d="M56.9683 25.925L57.2017 26.1583L56.9683 25.925Z" fill="#FDAB33"/>
<path d="M57.2133 25.925L57.4467 26.1583L57.2133 25.925ZM58.1467 25.925L58.38 26.1583L58.1467 25.925Z" fill="#FBC477"/>
<path d="M58.3917 25.925L58.625 26.1583L58.3917 25.925Z" fill="#FEA522"/>
<path d="M53.4217 26.1583L53.655 26.3917L53.4217 26.1583Z" fill="#FAE3C9"/>
<path d="M56.5017 26.1583L56.735 26.3917L56.5017 26.1583Z" fill="#FCB144"/>
<path d="M56.735 26.1583L56.9683 26.3917L56.735 26.1583Z" fill="#FAE3C9"/>
<path d="M58.625 26.1583L58.8583 26.3917L58.625 26.1583Z" fill="#F8DCBB"/>
<path d="M58.87 26.1583L59.1033 26.3917L58.87 26.1583Z" fill="#FDAB33"/>
<path d="M60.2933 26.1583L60.5267 26.3917L60.2933 26.1583Z" fill="#FE9F11"/>
<path d="M60.5267 26.1583L60.76 26.3917L60.5267 26.1583Z" fill="#FCB755"/>
<path d="M60.7717 26.1583L61.005 26.3917L60.7717 26.1583Z" fill="#F9D099"/>
<path d="M61.005 26.1583L61.2383 26.3917L61.005 26.1583Z" fill="#FBEAD6"/>
<path d="M53.4217 26.3917L53.655 26.625L53.4217 26.3917Z" fill="#FCB144"/>
<path d="M56.2683 26.3917L56.5017 26.625L56.2683 26.3917Z" fill="#FBBE66"/>
<path d="M59.1033 26.3917L59.3367 26.625L59.1033 26.3917Z" fill="#F9D099"/>
<path d="M60.0483 26.3917L60.2817 26.625L60.0483 26.3917Z" fill="#FBEAD6"/>
<path d="M53.1883 26.625L53.4217 26.8583L53.1883 26.625Z" fill="#FCF1E4"/>
<path d="M56.0233 26.625L56.2567 26.8583L56.0233 26.625Z" fill="#FBBE66"/>
<path d="M59.3367 26.625L59.57 26.8583L59.3367 26.625Z" fill="#F9D099"/>
<path d="M60.0483 26.625L60.2817 26.8583L60.0483 26.625Z" fill="#FAE3C9"/>
<path d="M53.1883 26.8583L53.4217 27.0917L53.1883 26.8583Z" fill="#FBC477"/>
<path d="M55.79 26.8583L56.0233 27.0917L55.79 26.8583ZM59.5817 26.8583L59.815 27.0917L59.5817 26.8583Z" fill="#FCB144"/>
<path d="M60.0483 26.8583L60.2817 27.0917L60.0483 26.8583Z" fill="#FBBE66"/>
<path d="M48.9183 27.0917L49.1517 27.325L48.9183 27.0917Z" fill="#F6F6E4"/>
<path d="M53.1883 27.0917L53.4217 27.325L53.1883 27.0917Z" fill="#FEA522"/>
<path d="M55.79 27.0917L56.0233 27.325L55.79 27.0917Z" fill="#FBEAD6"/>
<path d="M59.5817 27.0917L59.815 27.325L59.5817 27.0917Z" fill="#FCF1E4"/>
<path d="M60.2933 27.0917L60.5267 27.325L60.2933 27.0917Z" fill="#FEF8F1"/>
<path d="M52.955 27.3483L53.1883 27.5817L52.955 27.3483Z" fill="#FCF1E4"/>
<path d="M55.5567 27.3483L55.79 27.5817L55.5567 27.3483Z" fill="#FBBE66"/>
<path d="M59.815 27.3483L60.0483 27.5817L59.815 27.3483Z" fill="#FACA88"/>
<path d="M60.2933 27.3483L60.5267 27.5817L60.2933 27.3483Z" fill="#F9D099"/>
<path d="M52.955 27.5817L53.1883 27.815L52.955 27.5817Z" fill="#F9D6AA"/>
<path d="M55.5567 27.5817L55.79 27.815L55.5567 27.5817Z" fill="#FCF1E4"/>
<path d="M56.735 27.5817L56.9683 27.815L56.735 27.5817Z" fill="#FAE3C9"/>
<path d="M56.9683 27.5817L57.2017 27.815L56.9683 27.5817Z" fill="#FEA522"/>
<path d="M57.2133 27.5817L57.4467 27.815L57.2133 27.5817Z" fill="#FCB144"/>
<path d="M57.4467 27.5817L57.68 27.815L57.4467 27.5817Z" fill="#F9D6AA"/>
<path d="M59.815 27.5817L60.0483 27.815L59.815 27.5817Z" fill="#FEF8F1"/>
<path d="M60.0483 27.5817L60.2817 27.815L60.0483 27.5817Z" fill="#FEA522"/>
<path d="M60.2933 27.5817L60.5267 27.815L60.2933 27.5817Z" fill="#FDAB33"/>
<path d="M52.955 27.815L52.71 28.515L52.9433 27.815H52.955Z" fill="#FACA88"/>
<path d="M55.3 27.815L55.5333 28.0483L55.3 27.815Z" fill="#FEA522"/>
<path d="M55.5567 27.815L55.79 28.0483L55.5567 27.815Z" fill="#FEF8F1"/>
<path d="M56.735 27.815L56.9683 28.0483L56.735 27.815Z" fill="#F9D099"/>
<path d="M57.68 27.815L57.9133 28.0483L57.68 27.815Z" fill="#FDAB33"/>
<path d="M57.925 27.815L58.1583 28.0483L57.925 27.815Z" fill="#FAE3C9"/>
<path d="M60.0483 27.815L60.2817 28.0483L60.0483 27.815Z" fill="#F8DCBB"/>
<path d="M60.2933 27.815L60.5267 28.0483L60.2933 27.815Z" fill="#FF9900"/>
<path d="M60.6083 27.9783L60.6783 28.13L60.6083 27.9783Z" fill="#FBEAD6"/>
<path d="M55.79 28.0483L56.0233 28.2817L55.79 28.0483Z" fill="#FEA522"/>
<path d="M56.0233 28.0483L56.2567 28.2817L56.0233 28.0483Z" fill="#FBBE66"/>
<path d="M56.2683 28.0483L56.5017 28.2817L56.2683 28.0483Z" fill="#FACA88"/>
<path d="M56.5017 28.0483L56.735 28.2817L56.5017 28.0483Z" fill="#FCB144"/>
<path d="M56.735 28.0483L56.9683 28.2817L56.735 28.0483Z" fill="#FAE3C9"/>
<path d="M56.9683 28.0483L57.2017 28.2817L56.9683 28.0483Z" fill="#FE9F11"/>
<path d="M58.1583 28.0483L58.3917 28.2817L58.1583 28.0483Z" fill="#FDAB33"/>
<path d="M58.3917 28.0483L58.625 28.2817L58.3917 28.0483Z" fill="#FBC477"/>
<path d="M58.625 28.0483L58.8583 28.2817L58.625 28.0483Z" fill="#FACA88"/>
<path d="M58.87 28.0483L59.1033 28.2817L58.87 28.0483Z" fill="#F9D6AA"/>
<path d="M59.255 28.13L59.4183 28.2117L59.2667 28.13H59.255Z" fill="#FAE3C9"/>
<path d="M59.5817 28.0483L59.815 28.2817L59.5817 28.0483Z" fill="#FEF8F1"/>
<path d="M60.2933 28.0483L60.5267 28.2817L60.2933 28.0483Z" fill="#FBC477"/>
<path d="M50.1083 28.2933L50.3417 28.5267L50.1083 28.2933Z" fill="#FEF8F1"/>
<path d="M50.3417 28.2933L50.575 28.5267L50.3417 28.2933Z" fill="#FCF1E4"/>
<path d="M56.5017 28.2933L56.735 28.5267L56.5017 28.2933Z" fill="#FCB755"/>
<path d="M56.9683 28.2933L57.2017 28.5267L56.9683 28.2933Z" fill="#FBEAD6"/>
<path d="M57.2133 28.2933L57.4467 28.5267L57.2133 28.2933Z" fill="#FEA522"/>
<path d="M59.1033 28.2933L59.3367 28.5267L59.1033 28.2933Z" fill="#FE9F11"/>
<path d="M59.3367 28.2933L59.1033 28.76L59.3367 28.2933Z" fill="#FCB144"/>
<path d="M59.815 28.2933L60.0483 28.5267L59.815 28.2933Z" fill="#FE9F11"/>
<path d="M60.0483 28.2933L60.2817 28.5267L60.0483 28.2933Z" fill="#FBBE66"/>
<path d="M60.2933 28.2933L60.5267 28.5267L60.2933 28.2933Z" fill="#FCF1E4"/>
<path d="M50.1083 28.5267L50.3417 28.76L50.1083 28.5267Z" fill="#FAE3C9"/>
<path d="M50.3417 28.5267L50.8083 28.9933L50.3417 28.5267Z" fill="#FE9F11"/>
<path d="M50.575 28.5267L50.8083 28.76L50.575 28.5267ZM52.71 28.5267L52.9433 28.76L52.71 28.5267Z" fill="#FBEAD6"/>
<path d="M52.955 28.5267L53.1883 28.76L52.955 28.5267Z" fill="#FAE3C9"/>
<path d="M55.0667 28.5267L55.3 28.76L55.0667 28.5267Z" fill="#FE9F11"/>
<path d="M55.3 28.5267L55.5333 28.76L55.3 28.5267Z" fill="#FBC477"/>
<path d="M55.5567 28.5267L55.79 28.76L55.5567 28.5267Z" fill="#FEA522"/>
<path d="M56.2683 28.5267L56.5017 28.76L56.2683 28.5267Z" fill="#FBC477"/>
<path d="M56.5017 28.5267L56.735 28.76L56.5017 28.5267Z" fill="#FEF8F1"/>
<path d="M57.4467 28.5267L57.68 28.76L57.4467 28.5267Z" fill="#FBC477"/>
<path d="M59.3367 28.5267L59.57 28.76L59.3367 28.5267Z" fill="white"/>
<path d="M59.5817 28.5267L59.815 28.76L59.5817 28.5267Z" fill="#FDAB33"/>
<path d="M60.5267 28.5267L60.76 28.76L60.5267 28.5267Z" fill="#FBC477"/>
<path d="M50.1083 28.76L50.3417 28.9933L50.1083 28.76Z" fill="#FEF8F1"/>
<path d="M50.8083 28.76L51.0417 28.9933L50.8083 28.76Z" fill="#FBEAD6"/>
<path d="M51.9983 28.76L52.2317 28.9933L51.9983 28.76Z" fill="#F9D6AA"/>
<path d="M53.1883 28.76L53.4217 28.9933L53.1883 28.76Z" fill="#FE9F11"/>
<path d="M53.5733 28.8417L53.7367 28.9233L53.5733 28.8417Z" fill="#F9D6AA"/>
<path d="M55.0667 28.76L55.3 28.9933L55.0667 28.76Z" fill="#F8DCBB"/>
<path d="M55.79 28.76L56.0233 28.9933L55.79 28.76Z" fill="#FCF1E4"/>
<path d="M57.68 28.76L57.9133 28.9933L57.68 28.76Z" fill="#F9D6AA"/>
<path d="M59.3367 28.76L59.57 28.9933L59.3367 28.76Z" fill="#FDAB33"/>
<path d="M60.7717 28.76L61.005 28.9933L60.7717 28.76Z" fill="#FCB755"/>
<path d="M61.005 28.76L61.2383 28.9933L61.005 28.76Z" fill="#FEF8F1"/>
<path d="M48.2067 29.005L48.44 29.2383L48.2067 29.005Z" fill="#53527C"/>
<path d="M50.3417 29.005L50.575 29.2383L50.3417 29.005Z" fill="#FCB755"/>
<path d="M50.8083 29.005L51.0417 29.2383L50.8083 29.005Z" fill="#FEA522"/>
<path d="M51.765 29.005L51.9983 29.2383L51.765 29.005Z" fill="#FBEAD6"/>
<path d="M52.2317 29.005L52.465 29.2383L52.2317 29.005Z" fill="#FE9F11"/>
<path d="M52.4767 29.005L52.71 29.2383L52.4767 29.005Z" fill="#FCF1E4"/>
<path d="M53.1883 29.005L53.4217 29.2383L53.1883 29.005Z" fill="#FBBE66"/>
<path d="M53.4217 29.005L53.655 29.2383L53.4217 29.005Z" fill="#FBC477"/>
<path d="M53.655 29.005L53.8883 29.2383L53.655 29.005Z" fill="#FBBE66"/>
<path d="M54.8333 29.005L55.0667 29.2383L54.8333 29.005Z" fill="#FEA522"/>
<path d="M57.925 29.005L58.1583 29.2383L57.925 29.005Z" fill="#F9D6AA"/>
<path d="M61.005 29.005L61.2383 29.2383L61.005 29.005Z" fill="#FCB144"/>
<path d="M64.785 29.005L65.0183 29.2383L64.785 29.005Z" fill="#8D8D5B"/>
<path d="M48.9183 29.2383L49.1517 29.4717L48.9183 29.2383Z" fill="#E5E3AF"/>
<path d="M50.3417 29.2383L50.575 29.4717L50.3417 29.2383Z" fill="#F8DCBB"/>
<path d="M51.0533 29.2383L51.2867 29.4717L51.0533 29.2383Z" fill="#FDAB33"/>
<path d="M51.765 29.2383L51.9983 29.4717L51.765 29.2383Z" fill="#FE9F11"/>
<path d="M52.2317 29.2383L52.465 29.4717L52.2317 29.2383Z" fill="#FACA88"/>
<path d="M53.1883 29.2383L53.4217 29.4717L53.1883 29.2383Z" fill="#FCF1E4"/>
<path d="M54.8333 29.2383L55.0667 29.4717L54.8333 29.2383ZM58.1583 29.2383L58.3917 29.4717L58.1583 29.2383Z" fill="#F9D099"/>
<path d="M61.2383 29.2383L61.4717 29.4717L61.2383 29.2383Z" fill="#FBBE66"/>
<path d="M50.575 29.4717L50.8083 29.705L50.575 29.4717Z" fill="#FEA522"/>
<path d="M51.2867 29.4717L51.52 29.705L51.2867 29.4717Z" fill="#FDAB33"/>
<path d="M51.52 29.4717L51.7533 29.705L51.52 29.4717Z" fill="#FEA522"/>
<path d="M51.9983 29.4717L52.2317 29.705L51.9983 29.4717Z" fill="#FE9F11"/>
<path d="M52.2317 29.4717L52.465 29.705L52.2317 29.4717Z" fill="#FEF8F1"/>
<path d="M53.4217 29.4717L53.655 29.705L53.4217 29.4717Z" fill="#FBBE66"/>
<path d="M54.8333 29.4717L55.0667 29.705L54.8333 29.4717Z" fill="#FEF8F1"/>
<path d="M58.3917 29.4717L58.625 29.705L58.3917 29.4717Z" fill="#FBBE66"/>
<path d="M61.4717 29.4717L61.705 29.705L61.4717 29.4717Z" fill="#F9D099"/>
<path d="M50.575 29.7167L50.8083 29.95L50.575 29.7167Z" fill="#F9D6AA"/>
<path d="M51.9983 29.7167L52.2317 29.95L51.9983 29.7167Z" fill="#F9D099"/>
<path d="M53.4217 29.7167L53.655 29.95L53.4217 29.7167Z" fill="#FCF1E4"/>
<path d="M54.6 29.7167L54.8333 29.95L54.6 29.7167ZM58.625 29.7167L58.8583 29.95L58.625 29.7167Z" fill="#FDAB33"/>
<path d="M61.705 29.7167L61.9383 29.95L61.705 29.7167Z" fill="#FBEAD6"/>
<path d="M50.8083 29.95L51.0417 30.1833L50.8083 29.95Z" fill="#FEA522"/>
<path d="M51.765 29.95L51.9983 30.1833L51.765 29.95Z" fill="#FE9F11"/>
<path d="M53.655 29.95L53.8883 30.1833L53.655 29.95Z" fill="#FCB144"/>
<path d="M54.6 29.95L54.8333 30.1833L54.6 29.95Z" fill="#FACA88"/>
<path d="M58.625 29.95L58.8583 30.1833L58.625 29.95Z" fill="#F8DCBB"/>
<path d="M61.705 29.95L61.9383 30.1833L61.705 29.95Z" fill="#FCB144"/>
<path d="M48.9183 30.195L49.1517 30.4283L48.9183 30.195Z" fill="#D3D079"/>
<path d="M50.8083 30.195L51.0417 30.4283L50.8083 30.195ZM53.655 30.195L53.8883 30.4283L53.655 30.195Z" fill="#FACA88"/>
<path d="M54.6 30.195L54.8333 30.4283L54.6 30.195ZM58.625 30.195L58.8583 30.4283L58.625 30.195Z" fill="#FAE3C9"/>
<path d="M61.9383 30.195L62.1717 30.4283L61.9383 30.195Z" fill="#F8DCBB"/>
<path d="M64.0733 30.195L64.3067 30.4283L64.0733 30.195Z" fill="#F2F1D7"/>
<path d="M64.8667 30.3467L64.9483 30.4983L64.8667 30.3467Z" fill="#58587B"/>
<path d="M48.9883 30.58L49.0817 30.7433L49 30.58H48.9883Z" fill="#D9D868"/>
<path d="M50.8083 30.4283L51.0417 30.6617L50.8083 30.4283Z" fill="#F8DCBB"/>
<path d="M58.3917 30.4283L58.625 30.6617L58.3917 30.4283Z" fill="#F9D6AA"/>
<path d="M58.625 30.4283L58.8583 30.6617L58.625 30.4283Z" fill="#FE9F11"/>
<path d="M61.9383 30.4283L62.1717 30.6617L61.9383 30.4283Z" fill="#FCB144"/>
<path d="M64.155 30.58L64.2367 30.7433L64.155 30.58Z" fill="#F2F1D2"/>
<path d="M50.8083 30.6617L51.0417 30.895L50.8083 30.6617Z" fill="#FCF1E4"/>
<path d="M58.1583 30.6617L58.3917 30.895L58.1583 30.6617Z" fill="#FEF8F1"/>
<path d="M58.3917 30.6617L58.625 30.895L58.3917 30.6617Z" fill="#FE9F11"/>
<path d="M59.1033 30.6617L58.87 31.1283L59.1033 30.6617Z" fill="#FDAB33"/>
<path d="M59.3367 30.6617L59.57 30.895L59.3367 30.6617Z" fill="#FCB755"/>
<path d="M62.1833 30.6617L62.4167 30.895L62.1833 30.6617Z" fill="#FEA522"/>
<path d="M62.4167 30.6617L62.65 30.895L62.4167 30.6617Z" fill="#F9D099"/>
<path d="M64.785 30.6617L65.0183 30.895L64.785 30.6617Z" fill="#53527C"/>
<path d="M48.5217 31.0583L48.6033 31.21L48.5217 31.0583Z" fill="#808067"/>
<path d="M51.0533 30.895L51.2867 31.1283L51.0533 30.895ZM51.7533 30.895L51.9867 31.1283L51.7533 30.895Z" fill="#FEA522"/>
<path d="M54.3667 30.895L54.6 31.1283L54.3667 30.895Z" fill="#FE9F11"/>
<path d="M58.1583 30.895L58.3917 31.1283L58.1583 30.895Z" fill="#FAE3C9"/>
<path d="M59.1033 30.895L59.3367 31.1283L59.1033 30.895Z" fill="#FEF8F1"/>
<path d="M59.5817 30.895L59.815 31.1283L59.5817 30.895Z" fill="#FCB144"/>
<path d="M62.65 30.895L62.8833 31.1283L62.65 30.895Z" fill="#FCB755"/>
<path d="M62.8833 30.895L63.35 31.3617L62.8833 30.895Z" fill="#FEF8F1"/>
<path d="M64.155 31.0583L64.2367 31.21L64.155 31.0583Z" fill="#E5E59D"/>
<path d="M64.8667 31.0583L64.9483 31.21L64.8667 31.0583Z" fill="#32327B"/>
<path d="M51.135 31.2917L51.205 31.455L51.135 31.2917Z" fill="#FCB755"/>
<path d="M51.9983 31.1283L52.2317 31.3617L51.9983 31.1283Z" fill="#FEF8F1"/>
<path d="M54.3667 31.1283L54.6 31.3617L54.3667 31.1283Z" fill="#FBBE66"/>
<path d="M58.1583 31.1283L58.3917 31.3617L58.1583 31.1283Z" fill="#FBEAD6"/>
<path d="M58.625 31.1283L58.8583 31.3617L58.625 31.1283Z" fill="#FE9F11"/>
<path d="M58.87 31.1283L59.1033 31.3617L58.87 31.1283Z" fill="#FCF1E4"/>
<path d="M59.5817 31.1283L59.815 31.3617L59.5817 31.1283Z" fill="#FBEAD6"/>
<path d="M62.8833 31.1283L63.1167 31.3617L62.8833 31.1283Z" fill="#FDAB33"/>
<path d="M48.4517 31.3617L48.685 31.595L48.4517 31.3617Z" fill="#666677"/>
<path d="M49.1517 31.3617L49.385 31.595L49.1517 31.3617Z" fill="#F6F6E4"/>
<path d="M51.9983 31.3617L52.2317 31.595L51.9983 31.3617Z" fill="#F9D6AA"/>
<path d="M53.8883 31.3617L54.1217 31.595L53.8883 31.3617Z" fill="#FDAB33"/>
<path d="M54.1217 31.3617L54.355 31.595L54.1217 31.3617Z" fill="#FE9F11"/>
<path d="M54.3667 31.3617L54.6 31.595L54.3667 31.3617Z" fill="#FCF1E4"/>
<path d="M58.3917 31.3617L58.625 31.595L58.3917 31.3617Z" fill="#FEA522"/>
<path d="M58.625 31.3617L58.8583 31.595L58.625 31.3617ZM59.815 31.3617L60.0483 31.595L59.815 31.3617Z" fill="#FACA88"/>
<path d="M63.1167 31.3617L63.35 31.595L63.1167 31.3617Z" fill="#FCB144"/>
<path d="M64.0733 31.3617L64.3067 31.595L64.0733 31.3617Z" fill="#DDDC7A"/>
<path d="M48.4517 31.6067L48.685 31.84L48.4517 31.6067Z" fill="#58587B"/>
<path d="M49.1517 31.6067L49.385 31.84L49.1517 31.6067Z" fill="#F2F1D2"/>
<path d="M51.135 31.7583L51.205 31.9217L51.135 31.7583Z" fill="#FCB144"/>
<path d="M51.9983 31.6067L52.2317 31.84L51.9983 31.6067Z" fill="#FEA522"/>
<path d="M54.3667 31.6067L54.6 31.84L54.3667 31.6067Z" fill="#FEF8F1"/>
<path d="M54.6 31.6067L54.8333 31.84L54.6 31.6067Z" fill="#FEA522"/>
<path d="M55.0667 31.6067L55.3 31.84L55.0667 31.6067Z" fill="#FCB144"/>
<path d="M55.3 31.6067L55.5333 31.84L55.3 31.6067Z" fill="#FBEAD6"/>
<path d="M58.3917 31.6067L58.625 31.84L58.3917 31.6067Z" fill="#F8DCBB"/>
<path d="M58.625 31.6067L58.8583 31.84L58.625 31.6067Z" fill="#FCF1E4"/>
<path d="M59.815 31.6067L60.0483 31.84L59.815 31.6067Z" fill="#FEF8F1"/>
<path d="M60.0483 31.6067L60.2817 31.84L60.0483 31.6067Z" fill="#FE9F11"/>
<path d="M63.3733 31.6067L63.6067 31.84L63.3733 31.6067Z" fill="#FBEAD6"/>
<path d="M64.0733 31.6067L64.3067 31.84L64.0733 31.6067Z" fill="#D9D868"/>
<path d="M48.4517 31.84L48.685 32.0733L48.4517 31.84Z" fill="#3A3A7C"/>
<path d="M49.1517 31.84L49.385 32.0733L49.1517 31.84Z" fill="#E5E3AF"/>
<path d="M52.2317 31.84L52.465 32.0733L52.2317 31.84Z" fill="#FACA88"/>
<path d="M54.6 31.84L54.8333 32.0733L54.6 31.84Z" fill="#FBEAD6"/>
<path d="M55.3 31.84L55.5333 32.0733L55.3 31.84Z" fill="#FE9F11"/>
<path d="M55.5567 31.84L55.79 32.0733L55.5567 31.84Z" fill="#FCF1E4"/>
<path d="M58.1583 31.84L58.3917 32.0733L58.1583 31.84Z" fill="#FBEAD6"/>
<path d="M58.3917 31.84L58.625 32.0733L58.3917 31.84Z" fill="#FAE3C9"/>
<path d="M58.625 31.84L58.8583 32.0733L58.625 31.84Z" fill="#FBEAD6"/>
<path d="M60.0483 31.84L60.2817 32.0733L60.0483 31.84ZM61.95 31.84L62.1833 32.0733L61.95 31.84Z" fill="#FBBE66"/>
<path d="M62.1833 31.84L62.4167 32.0733L62.1833 31.84Z" fill="#FCF1E4"/>
<path d="M62.4167 31.84L62.65 32.0733L62.4167 31.84Z" fill="#FEF8F1"/>
<path d="M62.65 31.84L62.8833 32.0733L62.65 31.84Z" fill="#F8DCBB"/>
<path d="M62.8833 31.84L63.1167 32.0733L62.8833 31.84Z" fill="#FCB755"/>
<path d="M63.3733 31.84L63.6067 32.0733L63.3733 31.84Z" fill="#FAE3C9"/>
<path d="M64.5517 31.84L64.785 32.0733L64.5517 31.84Z" fill="#808067"/>
<path d="M48.4517 32.085L48.685 32.3183L48.4517 32.085Z" fill="#32327B"/>
<path d="M48.755 32.225L48.8367 32.4L48.7667 32.2367L48.755 32.225Z" fill="#A4A43D"/>
<path d="M49.1517 32.085L49.385 32.3183L49.1517 32.085Z" fill="#E5E59D"/>
<path d="M51.0533 32.085L51.2867 32.3183L51.0533 32.085Z" fill="#FBC477"/>
<path d="M52.4767 32.085L52.71 32.3183L52.4767 32.085Z" fill="#F9D6AA"/>
<path d="M54.8333 32.085L55.0667 32.3183L54.8333 32.085Z" fill="#FBBE66"/>
<path d="M55.5567 32.085L55.79 32.3183L55.5567 32.085Z" fill="#F9D099"/>
<path d="M57.68 32.085L57.9133 32.3183L57.68 32.085Z" fill="#FAE3C9"/>
<path d="M57.925 32.085L58.1583 32.3183L57.925 32.085Z" fill="#FCB144"/>
<path d="M58.87 32.085L59.1033 32.3183L58.87 32.085Z" fill="#FAE3C9"/>
<path d="M60.0483 32.085L60.2817 32.3183L60.0483 32.085Z" fill="#F8DCBB"/>
<path d="M61.9383 32.085L62.1717 32.3183L61.9383 32.085Z" fill="#F9D099"/>
<path d="M63.1167 32.085L63.35 32.3183L63.1167 32.085Z" fill="#FBC477"/>
<path d="M63.3733 32.085L63.6067 32.3183L63.3733 32.085Z" fill="#FBEAD6"/>
<path d="M64.5517 32.085L64.785 32.3183L64.5517 32.085Z" fill="#737370"/>
<path d="M49.1517 32.3183L49.385 32.5517L49.1517 32.3183Z" fill="#D9D868"/>
<path d="M51.0533 32.3183L51.2867 32.5517L51.0533 32.3183Z" fill="#F9D099"/>
<path d="M52.71 32.3183L52.9433 32.5517L52.71 32.3183ZM54.845 32.3183L55.0783 32.5517L54.845 32.3183Z" fill="#F9D6AA"/>
<path d="M55.5567 32.3183L55.79 32.5517L55.5567 32.3183Z" fill="#FBC477"/>
<path d="M56.735 32.3183L56.9683 32.5517L56.735 32.3183Z" fill="#FEF8F1"/>
<path d="M56.9683 32.3183L57.2017 32.5517L56.9683 32.3183Z" fill="#F8DCBB"/>
<path d="M57.2133 32.3183L57.4467 32.5517L57.2133 32.3183Z" fill="#FBC477"/>
<path d="M57.4467 32.3183L57.68 32.5517L57.4467 32.3183Z" fill="#FEA522"/>
<path d="M58.87 32.3183L59.1033 32.5517L58.87 32.3183Z" fill="#FBEAD6"/>
<path d="M63.84 32.3183L64.0733 32.5517L63.84 32.3183Z" fill="#F2F1D2"/>
<path d="M64.5517 32.3183L64.785 32.5517L64.5517 32.3183Z" fill="#58587B"/>
<path d="M48.685 32.5517L48.9183 32.785L48.685 32.5517Z" fill="#99994E"/>
<path d="M49.1517 32.5517L49.385 32.785L49.1517 32.5517Z" fill="#D0D045"/>
<path d="M52.955 32.5517L53.1883 32.785L52.955 32.5517Z" fill="#FCB144"/>
<path d="M53.1883 32.5517L53.4217 32.785L53.1883 32.5517Z" fill="#FAE3C9"/>
<path d="M54.8333 32.5517L55.0667 32.785L54.8333 32.5517Z" fill="#FEF8F1"/>
<path d="M55.79 32.5517L56.0233 32.785L55.79 32.5517Z" fill="#FCB755"/>
<path d="M56.0233 32.5517L56.2567 32.785L56.0233 32.5517Z" fill="#FBC477"/>
<path d="M56.2683 32.5517L56.5017 32.785L56.2683 32.5517Z" fill="#FCB144"/>
<path d="M56.5017 32.5517L56.735 32.785L56.5017 32.5517Z" fill="#FEA522"/>
<path d="M58.3917 32.5517L58.625 32.785L58.3917 32.5517Z" fill="#FE9F11"/>
<path d="M58.625 32.5517L58.8583 32.785L58.625 32.5517Z" fill="#F9D6AA"/>
<path d="M61.9383 32.5517L62.1717 32.785L61.9383 32.5517Z" fill="#FEF8F1"/>
<path d="M63.84 32.5517L64.0733 32.785L63.84 32.5517Z" fill="#E0DEA1"/>
<path d="M64.5517 32.5517L64.785 32.785L64.5517 32.5517Z" fill="#3A3A7C"/>
<path d="M48.685 32.7967L48.9183 33.03L48.685 32.7967Z" fill="#737370"/>
<path d="M49.3967 32.7967L49.63 33.03L49.3967 32.7967Z" fill="#FBFAF2"/>
<path d="M51.2867 32.7967L51.52 33.03L51.2867 32.7967Z" fill="#FEA522"/>
<path d="M53.4217 32.7967L53.655 33.03L53.4217 32.7967Z" fill="#FE9F11"/>
<path d="M53.655 32.7967L53.8883 33.03L53.655 32.7967Z" fill="#FCB144"/>
<path d="M53.8883 32.7967L54.1217 33.03L53.8883 32.7967Z" fill="#FBC477"/>
<path d="M54.1217 32.7967L54.355 33.03L54.1217 32.7967Z" fill="#FACA88"/>
<path d="M54.3667 32.7967L54.6 33.03L54.3667 32.7967Z" fill="#FBC477"/>
<path d="M54.6 32.7967L54.8333 33.03L54.6 32.7967Z" fill="#FCB144"/>
<path d="M54.8333 32.7967L55.0667 33.03L54.8333 32.7967Z" fill="#FDAB33"/>
<path d="M58.1583 32.7967L58.3917 33.03L58.1583 32.7967Z" fill="#FBC477"/>
<path d="M58.3917 32.7967L58.625 33.03L58.3917 32.7967Z" fill="#FEF8F1"/>
<path d="M61.705 32.7967L61.9383 33.03L61.705 32.7967Z" fill="#FDAB33"/>
<path d="M63.84 32.7967L64.0733 33.03L63.84 32.7967Z" fill="#E1E18C"/>
<path d="M64.3883 32.9483L64.47 33.1117L64.3883 32.9483Z" fill="#A4A43D"/>
<path d="M64.5517 32.7967L64.785 33.03L64.5517 32.7967Z" fill="#262678"/>
<path d="M48.685 33.03L48.9183 33.2633L48.685 33.03Z" fill="#58587B"/>
<path d="M49.3967 33.03L49.63 33.2633L49.3967 33.03Z" fill="#F2F1D2"/>
<path d="M51.2867 33.03L51.52 33.2633L51.2867 33.03Z" fill="#FACA88"/>
<path d="M57.68 33.03L57.9133 33.2633L57.68 33.03Z" fill="#FE9F11"/>
<path d="M57.925 33.03L58.1583 33.2633L57.925 33.03Z" fill="#FBEAD6"/>
<path d="M60.0483 33.03L60.2817 33.2633L60.0483 33.03Z" fill="#FBC477"/>
<path d="M61.705 33.03L61.9383 33.2633L61.705 33.03Z" fill="#FACA88"/>
<path d="M63.84 33.03L64.0733 33.2633L63.84 33.03Z" fill="#D4D456"/>
<path d="M48.685 33.2633L48.9183 33.4967L48.685 33.2633Z" fill="#32327B"/>
<path d="M49.3967 33.2633L49.63 33.4967L49.3967 33.2633Z" fill="#E5E59D"/>
<path d="M51.2867 33.2633L51.52 33.4967L51.2867 33.2633Z" fill="#FEF8F1"/>
<path d="M51.52 33.2633L51.7533 33.4967L51.52 33.2633Z" fill="#FE9F11"/>
<path d="M57.68 33.2633L57.9133 33.4967L57.68 33.2633Z" fill="#FBEAD6"/>
<path d="M60.0483 33.2633L60.2817 33.4967L60.0483 33.2633Z" fill="#FEA522"/>
<path d="M61.705 33.2633L61.9383 33.4967L61.705 33.2633Z" fill="#FCF1E4"/>
<path d="M64.3183 33.2633L64.5517 33.4967L64.3183 33.2633Z" fill="#808067"/>
<path d="M48.685 33.4967L48.9183 33.73L48.685 33.4967Z" fill="#0E0E6E"/>
<path d="M48.9183 33.4967L49.1517 33.73L48.9183 33.4967Z" fill="#A4A43D"/>
<path d="M49.3967 33.4967L49.63 33.73L49.3967 33.4967Z" fill="#D9D868"/>
<path d="M51.52 33.4967L51.7533 33.73L51.52 33.4967Z" fill="#F8DCBB"/>
<path d="M59.815 33.4967L60.0483 33.73L59.815 33.4967Z" fill="#F9D6AA"/>
<path d="M61.4717 33.4967L61.705 33.73L61.4717 33.4967Z" fill="#FACA88"/>
<path d="M63.6067 33.4967L63.84 33.73L63.6067 33.4967Z" fill="#F2F1D2"/>
<path d="M64.3183 33.4967L64.5517 33.73L64.3183 33.4967Z" fill="#58587B"/>
<path d="M48.9183 33.7417L49.1517 33.975L48.9183 33.7417Z" fill="#8D8D5B"/>
<path d="M51.765 33.7417L51.9983 33.975L51.765 33.7417Z" fill="#F9D6AA"/>
<path d="M56.5017 33.7417L56.735 33.975L56.5017 33.7417Z" fill="#FDAB33"/>
<path d="M56.735 33.7417L56.9683 33.975L56.735 33.7417Z" fill="white"/>
<path d="M57.1317 33.8117L57.295 33.8933L57.1317 33.8117Z" fill="#FCB144"/>
<path d="M59.5817 33.7417L59.3483 34.2083L59.5817 33.7417Z" fill="#FEF8F1"/>
<path d="M59.815 33.7417L60.0483 33.975L59.815 33.7417Z" fill="#FE9F11"/>
<path d="M61.2383 33.7417L61.005 34.2083L61.2383 33.7417Z" fill="#FDAB33"/>
<path d="M63.6067 33.7417L63.84 33.975L63.6067 33.7417Z" fill="#E5E59D"/>
<path d="M64.3183 33.7417L64.5517 33.975L64.3183 33.7417Z" fill="#3A3A7C"/>
<path d="M48.9183 33.975L49.1517 34.2083L48.9183 33.975Z" fill="#666677"/>
<path d="M49.63 33.975L49.8633 34.2083L49.63 33.975Z" fill="#F2F1D2"/>
<path d="M51.9983 33.975L52.2317 34.2083L51.9983 33.975Z" fill="#F9D6AA"/>
<path d="M56.5017 33.975L56.735 34.2083L56.5017 33.975Z" fill="#FE9F11"/>
<path d="M56.735 33.975L56.9683 34.2083L56.735 33.975Z" fill="#FACA88"/>
<path d="M56.9683 33.975L57.2017 34.2083L56.9683 33.975Z" fill="#FEA522"/>
<path d="M57.2133 33.975L57.4467 34.2083L57.2133 33.975Z" fill="#FCF1E4"/>
<path d="M59.5817 33.975L59.815 34.2083L59.5817 33.975Z" fill="#FDAB33"/>
<path d="M61.2383 33.975L61.4717 34.2083L61.2383 33.975Z" fill="#FEF8F1"/>
<path d="M63.6067 33.975L63.84 34.2083L63.6067 33.975Z" fill="#D9D868"/>
<path d="M64.0733 33.975L64.3067 34.2083L64.0733 33.975Z" fill="#A4A43D"/>
<path d="M64.3183 33.975L64.5517 34.2083L64.3183 33.975Z" fill="#0E0E6E"/>
<path d="M48.9183 34.2083L49.1517 34.4417L48.9183 34.2083Z" fill="#3A3A7C"/>
<path d="M49.63 34.2083L49.8633 34.4417L49.63 34.2083Z" fill="#E5E59D"/>
<path d="M52.2317 34.2083L52.6983 34.675L52.2317 34.2083Z" fill="#FAE3C9"/>
<path d="M52.4767 34.2083L52.71 34.4417L52.4767 34.2083Z" fill="#FE9F11"/>
<path d="M56.9683 34.2083L57.2017 34.4417L56.9683 34.2083Z" fill="#F8DCBB"/>
<path d="M59.1033 34.2083L59.3367 34.4417L59.1033 34.2083Z" fill="#FCF1E4"/>
<path d="M59.3367 34.2083L59.57 34.4417L59.3367 34.2083Z" fill="#FDAB33"/>
<path d="M60.7717 34.2083L61.005 34.4417L60.7717 34.2083Z" fill="#FCB144"/>
<path d="M61.005 34.2083L61.2383 34.4417L61.005 34.2083Z" fill="#FEF8F1"/>
<path d="M63.3733 34.2083L63.6067 34.4417L63.3733 34.2083Z" fill="#FBFAF2"/>
<path d="M64.0733 34.2083L64.3067 34.4417L64.0733 34.2083Z" fill="#8D8D5B"/>
<path d="M48.9183 34.4417L49.1517 34.675L48.9183 34.4417Z" fill="#0E0E6E"/>
<path d="M49.1517 34.4417L49.385 34.675L49.1517 34.4417Z" fill="#A4A43D"/>
<path d="M49.63 34.4417L49.8633 34.675L49.63 34.4417Z" fill="#D4D456"/>
<path d="M56.735 34.4417L56.9683 34.675L56.735 34.4417Z" fill="#F9D6AA"/>
<path d="M58.87 34.4417L59.1033 34.675L58.87 34.4417Z" fill="#F9D099"/>
<path d="M59.1033 34.4417L59.3367 34.675L59.1033 34.4417Z" fill="#FE9F11"/>
<path d="M60.5267 34.4417L60.76 34.675L60.5267 34.4417Z" fill="#FACA88"/>
<path d="M63.3733 34.4417L63.6067 34.675L63.3733 34.4417Z" fill="#EEEDC1"/>
<path d="M64.0733 34.4417L64.3067 34.675L64.0733 34.4417Z" fill="#58587B"/>
<path d="M49.1517 34.675L49.385 34.9083L49.1517 34.675Z" fill="#737370"/>
<path d="M49.8633 34.675L50.0967 34.9083L49.8633 34.675Z" fill="#F6F6E4"/>
<path d="M52.4767 34.675L52.71 34.9083L52.4767 34.675Z" fill="#FBBE66"/>
<path d="M56.2683 34.675L56.5017 34.9083L56.2683 34.675Z" fill="#FCB144"/>
<path d="M56.5717 34.85L56.6533 35.0017L56.5717 34.85Z" fill="#F8DCBB"/>
<path d="M58.3917 34.675L58.625 34.9083L58.3917 34.675Z" fill="#FBBE66"/>
<path d="M58.625 34.675L58.8583 34.9083L58.625 34.675Z" fill="#FE9F11"/>
<path d="M60.0483 34.675L60.2817 34.9083L60.0483 34.675Z" fill="#FBC477"/>
<path d="M60.2933 34.675L60.5267 34.9083L60.2933 34.675Z" fill="#FCF1E4"/>
<path d="M63.3733 34.675L63.6067 34.9083L63.3733 34.675Z" fill="#D3D079"/>
<path d="M63.84 34.675L64.0733 34.9083L63.84 34.675Z" fill="#A4A43D"/>
<path d="M64.0733 34.675L64.3067 34.9083L64.0733 34.675Z" fill="#262678"/>
<path d="M49.1517 34.9083L49.385 35.1417L49.1517 34.9083Z" fill="#49497D"/>
<path d="M49.8633 34.9083L50.0967 35.1417L49.8633 34.9083Z" fill="#E0DEA1"/>
<path d="M52.2317 34.9083L52.465 35.1417L52.2317 34.9083Z" fill="#FAE3C9"/>
<path d="M55.5567 34.9083L55.79 35.1417L55.5567 34.9083Z" fill="#FDAB33"/>
<path d="M55.79 34.9083L56.0233 35.1417L55.79 34.9083Z" fill="#FBC477"/>
<path d="M56.0233 34.9083L56.2567 35.1417L56.0233 34.9083Z" fill="#FBEAD6"/>
<path d="M56.735 34.9083L56.9683 35.1417L56.735 34.9083Z" fill="#FCB144"/>
<path d="M59.815 34.9083L60.0483 35.1417L59.815 34.9083Z" fill="#F9D6AA"/>
<path d="M63.84 34.9083L64.0733 35.1417L63.84 34.9083Z" fill="#99994E"/>
<path d="M49.1517 35.165L49.385 35.3983L49.1517 35.165Z" fill="#0E0E6E"/>
<path d="M49.3967 35.165L49.63 35.3983L49.3967 35.165Z" fill="#A4A43D"/>
<path d="M49.8633 35.165L50.0967 35.3983L49.8633 35.165Z" fill="#D4D456"/>
<path d="M51.9983 35.165L52.2317 35.3983L51.9983 35.165Z" fill="#F9D099"/>
<path d="M52.2317 35.165L52.465 35.3983L52.2317 35.165ZM53.4217 35.165L53.655 35.3983L53.4217 35.165Z" fill="#FE9F11"/>
<path d="M53.655 35.165L53.8883 35.3983L53.655 35.165Z" fill="#F9D6AA"/>
<path d="M53.8883 35.165L54.1217 35.3983L53.8883 35.165Z" fill="#F9D099"/>
<path d="M54.8333 35.165L55.0667 35.3983L54.8333 35.165Z" fill="#F9D6AA"/>
<path d="M55.0667 35.165L55.3 35.3983L55.0667 35.165Z" fill="#FAE3C9"/>
<path d="M55.3 35.165L55.5333 35.3983L55.3 35.165Z" fill="#FEF8F1"/>
<path d="M57.2133 35.165L57.4467 35.3983L57.2133 35.165Z" fill="#FBEAD6"/>
<path d="M57.4467 35.165L57.68 35.3983L57.4467 35.165Z" fill="#FAE3C9"/>
<path d="M57.68 35.165L57.9133 35.3983L57.68 35.165Z" fill="#FACA88"/>
<path d="M57.925 35.165L58.1583 35.3983L57.925 35.165Z" fill="#FBC477"/>
<path d="M58.1583 35.165L58.3917 35.3983L58.1583 35.165Z" fill="#FDAB33"/>
<path d="M59.3367 35.165L59.57 35.3983L59.3367 35.165Z" fill="#FE9F11"/>
<path d="M59.5817 35.165L59.815 35.3983L59.5817 35.165Z" fill="#F9D6AA"/>
<path d="M63.1167 35.165L63.35 35.3983L63.1167 35.165Z" fill="#E5E3AF"/>
<path d="M63.84 35.165L64.0733 35.3983L63.84 35.165Z" fill="#666677"/>
<path d="M49.3967 35.3983L49.63 35.6317L49.3967 35.3983Z" fill="#737370"/>
<path d="M50.1083 35.3983L50.3417 35.6317L50.1083 35.3983Z" fill="#F2F1D7"/>
<path d="M51.765 35.3983L51.9983 35.6317L51.765 35.3983Z" fill="#FEA522"/>
<path d="M52.955 35.3983L53.1883 35.6317L52.955 35.3983Z" fill="#FE9F11"/>
<path d="M53.1883 35.3983L53.4217 35.6317L53.1883 35.3983Z" fill="#FBBE66"/>
<path d="M53.4217 35.3983L53.655 35.6317L53.4217 35.3983Z" fill="#FCF1E4"/>
<path d="M59.1033 35.3983L59.3367 35.6317L59.1033 35.3983Z" fill="#FEA522"/>
<path d="M59.3367 35.3983L59.57 35.6317L59.3367 35.3983Z" fill="#FBEAD6"/>
<path d="M63.1167 35.3983L63.35 35.6317L63.1167 35.3983Z" fill="#DDDC7A"/>
<path d="M63.6067 35.3983L63.84 35.6317L63.6067 35.3983Z" fill="#A4A43D"/>
<path d="M63.84 35.3983L64.0733 35.6317L63.84 35.3983Z" fill="#262678"/>
<path d="M49.3967 35.6317L49.63 35.865L49.3967 35.6317Z" fill="#49497D"/>
<path d="M49.7 35.795L49.7933 35.9467L49.7 35.795Z" fill="#A4A43D"/>
<path d="M50.1083 35.6317L50.3417 35.865L50.1083 35.6317Z" fill="#D3D079"/>
<path d="M51.9983 35.6317L52.2317 35.865L51.9983 35.6317Z" fill="#F9D099"/>
<path d="M52.2317 35.6317L52.465 35.865L52.2317 35.6317Z" fill="#FCB144"/>
<path d="M52.4767 35.6317L52.71 35.865L52.4767 35.6317Z" fill="#FACA88"/>
<path d="M52.71 35.6317L52.9433 35.865L52.71 35.6317Z" fill="#F8DCBB"/>
<path d="M52.955 35.6317L53.1883 35.865L52.955 35.6317Z" fill="#FEF8F1"/>
<path d="M58.1583 35.6317L58.3917 35.865L58.1583 35.6317Z" fill="#F8DCBB"/>
<path d="M59.1033 35.6317L59.3367 35.865L59.1033 35.6317Z" fill="#FCF1E4"/>
<path d="M62.8833 35.6317L63.1167 35.865L62.8833 35.6317Z" fill="#F6F6E4"/>
<path d="M63.6067 35.6317L63.84 35.865L63.6067 35.6317Z" fill="#8D8D5B"/>
<path d="M50.3417 35.865L50.575 36.0983L50.3417 35.865Z" fill="#FBFAF2"/>
<path d="M58.1583 35.865L58.3917 36.0983L58.1583 35.865Z" fill="#FBBE66"/>
<path d="M58.87 35.865L59.1033 36.0983L58.87 35.865Z" fill="#FACA88"/>
<path d="M62.8833 35.865L63.1167 36.0983L62.8833 35.865Z" fill="#E1E18C"/>
<path d="M63.6067 35.865L63.84 36.0983L63.6067 35.865Z" fill="#49497D"/>
<path d="M49.63 36.11L49.8633 36.3433L49.63 36.11Z" fill="#58587B"/>
<path d="M50.3417 36.11L50.575 36.3433L50.3417 36.11Z" fill="#E5E59D"/>
<path d="M58.1583 36.11L58.3917 36.3433L58.1583 36.11Z" fill="#FE9F11"/>
<path d="M58.625 36.11L58.8583 36.3433L58.625 36.11Z" fill="#FDAB33"/>
<path d="M62.65 36.11L62.8833 36.3433L62.65 36.11Z" fill="#FBFAF2"/>
<path d="M63.3733 36.11L63.6067 36.3433L63.3733 36.11Z" fill="#A4A43D"/>
<path d="M63.6067 36.11L63.84 36.3433L63.6067 36.11Z" fill="#0E0E6E"/>
<path d="M49.63 36.3433L49.8633 36.5767L49.63 36.3433Z" fill="#1B1B74"/>
<path d="M49.8633 36.3433L50.0967 36.5767L49.8633 36.3433Z" fill="#A4A43D"/>
<path d="M50.3417 36.3433L50.575 36.5767L50.3417 36.3433Z" fill="#D0D045"/>
<path d="M57.925 36.3433L58.1583 36.5767L57.925 36.3433Z" fill="#FBEAD6"/>
<path d="M58.3917 36.3433L58.625 36.5767L58.3917 36.3433Z" fill="#FE9F11"/>
<path d="M58.625 36.3433L58.8583 36.5767L58.625 36.3433Z" fill="#FBEAD6"/>
<path d="M62.65 36.3433L62.8833 36.5767L62.65 36.3433Z" fill="#E5E59D"/>
<path d="M63.3733 36.3433L63.6067 36.5767L63.3733 36.3433Z" fill="#666677"/>
<path d="M49.8633 36.5767L50.0967 36.81L49.8633 36.5767Z" fill="#6E6C70"/>
<path d="M50.575 36.5767L50.8083 36.81L50.575 36.5767Z" fill="#E5E3AF"/>
<path d="M57.9833 36.74L58.0767 36.9033L57.9833 36.74Z" fill="#FACA88"/>
<path d="M58.3917 36.5767L58.625 36.81L58.3917 36.5767Z" fill="#FAE3C9"/>
<path d="M62.4167 36.5767L62.65 36.81L62.4167 36.5767Z" fill="#FBFAF2"/>
<path d="M63.1167 36.5767L63.35 36.81L63.1167 36.5767Z" fill="#A4A43D"/>
<path d="M63.3733 36.5767L63.6067 36.81L63.3733 36.5767ZM49.8633 36.81L50.0967 37.0433L49.8633 36.81Z" fill="#1B1B74"/>
<path d="M50.1083 36.8217L50.3417 37.055L50.1083 36.8217Z" fill="#A4A43D"/>
<path d="M50.575 36.8217L50.8083 37.055L50.575 36.8217Z" fill="#D0D045"/>
<path d="M50.8083 36.8217L51.0417 37.055L50.8083 36.8217Z" fill="#FBFAF2"/>
<path d="M58.1583 36.8217L58.3917 37.055L58.1583 36.8217Z" fill="#F9D6AA"/>
<path d="M62.4167 36.8217L62.65 37.055L62.4167 36.8217Z" fill="#E5E59D"/>
<path d="M63.1167 36.8217L63.35 37.055L63.1167 36.8217ZM50.1083 37.055L50.3417 37.2883L50.1083 37.055Z" fill="#6E6C70"/>
<path d="M50.8083 37.055L51.0417 37.2883L50.8083 37.055Z" fill="#8CBF84"/>
<path d="M50.9133 37.055C51.73 38.7817 54.6467 42.865 56.8633 42.795C59.0333 42.7133 61.4717 38.7117 62.4167 37.055H50.9133Z" fill="#00CCFF"/>
<path d="M62.8833 37.055L63.1167 37.2883L62.8833 37.055Z" fill="#A4A43D"/>
<path d="M63.1167 37.055L63.35 37.2883L63.1167 37.055ZM50.1083 37.2883L50.3417 37.5217L50.1083 37.2883Z" fill="#1B1B74"/>
<path d="M50.3417 37.2883L50.575 37.5217L50.3417 37.2883Z" fill="#A4A43D"/>
<path d="M50.8083 37.2883L51.0417 37.5217L50.8083 37.2883Z" fill="#ADB333"/>
<path d="M51.0533 37.2883L51.2867 37.5217L51.0533 37.2883Z" fill="#1AC5B5"/>
<path d="M62.1833 37.2883L62.4167 37.5217L62.1833 37.2883Z" fill="#68B070"/>
<path d="M62.8833 37.2883L63.1167 37.5217L62.8833 37.2883Z" fill="#666677"/>
<path d="M50.3417 37.5333L50.575 37.7667L50.3417 37.5333Z" fill="#58587B"/>
<path d="M51.0533 37.5333L51.2867 37.7667L51.0533 37.5333Z" fill="#7FB15C"/>
<path d="M61.9383 37.5333L62.1717 37.7667L61.9383 37.5333Z" fill="#27C2AA"/>
<path d="M62.65 37.5333L62.4167 38L62.65 37.5333Z" fill="#A4A43D"/>
<path d="M62.8833 37.5333L63.1167 37.7667L62.8833 37.5333ZM50.3417 37.7667L50.575 38L50.3417 37.7667Z" fill="#0E0E6E"/>
<path d="M50.575 37.7667L51.0417 38.2333L50.575 37.7667Z" fill="#A4A43D"/>
<path d="M51.2867 37.7667L51.52 38L51.2867 37.7667Z" fill="#34BE9E"/>
<path d="M61.9383 37.7667L62.1717 38L61.9383 37.7667Z" fill="#96B247"/>
<path d="M62.65 37.7667L62.8833 38L62.65 37.7667Z" fill="#53527C"/>
<path d="M50.575 38.0117L50.8083 38.245L50.575 38.0117Z" fill="#3A3A7C"/>
<path d="M51.2867 38.0117L51.52 38.245L51.2867 38.0117Z" fill="#A2B23D"/>
<path d="M51.52 38.0117L51.7533 38.245L51.52 38.0117Z" fill="#0DC9C1"/>
<path d="M61.705 38.0117L61.9383 38.245L61.705 38.0117Z" fill="#5BB47C"/>
<path d="M62.4167 38.0117L62.65 38.245L62.4167 38.0117Z" fill="#8D8D5B"/>
<path d="M50.8083 38.245L51.0417 38.4783L50.8083 38.245Z" fill="#737370"/>
<path d="M51.52 38.245L51.7533 38.4783L51.52 38.245Z" fill="#74B166"/>
<path d="M61.4717 38.245L61.705 38.4783L61.4717 38.245Z" fill="#27C2AA"/>
<path d="M62.1833 38.245L61.95 38.7117L62.1833 38.245Z" fill="#A4A43D"/>
<path d="M62.4167 38.245L62.65 38.4783L62.4167 38.245Z" fill="#262678"/>
<path d="M50.8083 38.4783L51.0417 38.7117L50.8083 38.4783Z" fill="#0E0E6E"/>
<path d="M51.0533 38.4783L51.52 38.945L51.0533 38.4783Z" fill="#A4A43D"/>
<path d="M51.765 38.4783L51.9983 38.7117L51.765 38.4783Z" fill="#42BB92"/>
<path d="M61.2383 38.4783L61.4717 38.7117L61.2383 38.4783Z" fill="#0DC9C1"/>
<path d="M61.4717 38.4783L61.705 38.7117L61.4717 38.4783Z" fill="#96B247"/>
<path d="M62.1833 38.4783L62.4167 38.7117L62.1833 38.4783Z" fill="#58587B"/>
<path d="M51.0533 38.7117L51.2867 38.945L51.0533 38.7117Z" fill="#3A3A7C"/>
<path d="M51.765 38.7117L51.9983 38.945L51.765 38.7117Z" fill="#ADB333"/>
<path d="M51.9983 38.7117L52.2317 38.945L51.9983 38.7117Z" fill="#27C2AA"/>
<path d="M61.2383 38.7117L61.4717 38.945L61.2383 38.7117Z" fill="#74B166"/>
<path d="M61.9383 38.7117L62.1717 38.945L61.9383 38.7117Z" fill="#8D8D5B"/>
<path d="M51.2867 38.945L51.52 39.1783L51.2867 38.945Z" fill="#6E6C70"/>
<path d="M51.9983 38.945L52.2317 39.1783L51.9983 38.945Z" fill="#96B247"/>
<path d="M52.2317 38.945L52.465 39.1783L52.2317 38.945Z" fill="#0DC9C1"/>
<path d="M61.005 38.945L61.2383 39.1783L61.005 38.945Z" fill="#42BB92"/>
<path d="M61.705 38.945L61.2383 39.645L61.705 38.945Z" fill="#A4A43D"/>
<path d="M61.9383 38.945L62.1717 39.1783L61.9383 38.945Z" fill="#1B1B74"/>
<path d="M51.2867 39.1783L51.52 39.4117L51.2867 39.1783Z" fill="#0E0E6E"/>
<path d="M51.52 39.1783L51.7533 39.4117L51.52 39.1783Z" fill="#8D8D5B"/>
<path d="M52.2317 39.1783L52.465 39.4117L52.2317 39.1783Z" fill="#7FB15C"/>
<path d="M60.7717 39.1783L61.005 39.4117L60.7717 39.1783Z" fill="#34BE9E"/>
<path d="M61.705 39.1783L61.9383 39.4117L61.705 39.1783Z" fill="#3A3A7C"/>
<path d="M51.52 39.4233L51.7533 39.6567L51.52 39.4233Z" fill="#1B1B74"/>
<path d="M51.765 39.4233L54.3667 42.025L51.765 39.4233Z" fill="#A4A43D"/>
<path d="M52.4767 39.4233L52.71 39.6567L52.4767 39.4233Z" fill="#74B166"/>
<path d="M60.5267 39.4233L60.76 39.6567L60.5267 39.4233Z" fill="#27C2AA"/>
<path d="M60.7717 39.4233L61.005 39.6567L60.7717 39.4233Z" fill="#ADB333"/>
<path d="M61.4717 39.4233L61.705 39.6567L61.4717 39.4233Z" fill="#666677"/>
<path d="M51.765 39.6567L51.9983 39.89L51.765 39.6567Z" fill="#32327B"/>
<path d="M52.71 39.6567L52.9433 39.89L52.71 39.6567Z" fill="#42BB92"/>
<path d="M60.2933 39.6567L59.3367 40.8467L60.305 39.645L60.2933 39.6567Z" fill="#0DC9C1"/>
<path d="M60.5267 39.6567L60.76 39.89L60.5267 39.6567Z" fill="#ADB333"/>
<path d="M61.2383 39.6567L61.4717 39.89L61.2383 39.6567Z" fill="#737370"/>
<path d="M51.9983 39.9017L52.2317 40.135L51.9983 39.9017Z" fill="#49497D"/>
<path d="M52.955 39.9017L53.1883 40.135L52.955 39.9017Z" fill="#42BB92"/>
<path d="M60.2933 39.9017L60.5267 40.135L60.2933 39.9017Z" fill="#96B247"/>
<path d="M61.005 39.9017L60.7717 40.3683L61.005 39.9017Z" fill="#8D8D5B"/>
<path d="M61.2383 39.9017L61.4717 40.135L61.2383 39.9017Z" fill="#0E0E6E"/>
<path d="M52.2317 40.135L52.465 40.3683L52.2317 40.135Z" fill="#53527C"/>
<path d="M53.1883 40.135L53.4217 40.3683L53.1883 40.135Z" fill="#42BB92"/>
<path d="M60.0483 40.135L60.2817 40.3683L60.0483 40.135Z" fill="#96B247"/>
<path d="M61.005 40.135L61.2383 40.3683L61.005 40.135Z" fill="#0E0E6E"/>
<path d="M52.4767 40.3683L52.71 40.6017L52.4767 40.3683Z" fill="#6E6C70"/>
<path d="M53.4217 40.3683L53.655 40.6017L53.4217 40.3683Z" fill="#42BB92"/>
<path d="M59.815 40.3683L60.0483 40.6017L59.815 40.3683Z" fill="#96B247"/>
<path d="M60.5267 40.3683L60.06 41.0683L60.5267 40.3683Z" fill="#A4A43D"/>
<path d="M60.7717 40.3683L61.005 40.6017L60.7717 40.3683Z" fill="#262678"/>
<path d="M52.71 40.6133L52.9433 40.8467L52.71 40.6133Z" fill="#6E6C70"/>
<path d="M53.655 40.6133L53.8883 40.8467L53.655 40.6133Z" fill="#42BB92"/>
<path d="M59.5817 40.6133L59.815 40.8467L59.5817 40.6133Z" fill="#96B247"/>
<path d="M60.5267 40.6133L60.76 40.8467L60.5267 40.6133Z" fill="#262678"/>
<path d="M52.955 40.8467L53.1883 41.08L52.955 40.8467Z" fill="#6E6C70"/>
<path d="M53.8883 40.8467L54.1217 41.08L53.8883 40.8467Z" fill="#68B070"/>
<path d="M59.1033 40.8467L59.3367 41.08L59.1033 40.8467Z" fill="#27C2AA"/>
<path d="M59.3367 40.8467L59.57 41.08L59.3367 40.8467Z" fill="#ADB333"/>
<path d="M60.2933 40.8467L60.5267 41.08L60.2933 40.8467Z" fill="#262678"/>
<path d="M53.1883 41.08L53.4217 41.3133L53.1883 41.08Z" fill="#666677"/>
<path d="M54.1217 41.08L54.355 41.3133L54.1217 41.08Z" fill="#74B166"/>
<path d="M58.87 41.08L59.1033 41.3133L58.87 41.08Z" fill="#34BE9E"/>
<path d="M59.1033 41.08L59.3367 41.3133L59.1033 41.08Z" fill="#ADB333"/>
<path d="M59.815 41.08L59.5817 41.5467L59.815 41.08Z" fill="#8D8D5B"/>
<path d="M60.0483 41.08L60.2817 41.3133L60.0483 41.08Z" fill="#262678"/>
<path d="M53.4217 41.3133L53.655 41.5467L53.4217 41.3133Z" fill="#49497D"/>
<path d="M54.3667 41.3133L54.6 41.5467L54.3667 41.3133Z" fill="#96B247"/>
<path d="M54.6 41.3133L54.8333 41.5467L54.6 41.3133Z" fill="#0DC9C1"/>
<path d="M58.625 41.3133L58.8583 41.5467L58.625 41.3133Z" fill="#42BB92"/>
<path d="M59.815 41.3133L60.0483 41.5467L59.815 41.3133Z" fill="#0E0E6E"/>
<path d="M53.655 41.5583L53.8883 41.7917L53.655 41.5583Z" fill="#49497D"/>
<path d="M54.6 41.5583L54.8333 41.7917L54.6 41.5583Z" fill="#A2B23D"/>
<path d="M54.8333 41.5583L55.0667 41.7917L54.8333 41.5583Z" fill="#27C2AA"/>
<path d="M58.3917 41.5583L58.625 41.7917L58.3917 41.5583Z" fill="#74B166"/>
<path d="M59.1033 41.5583L58.4033 42.4917L59.1033 41.5583Z" fill="#A4A43D"/>
<path d="M59.3367 41.5583L59.57 41.7917L59.3367 41.5583Z" fill="#808067"/>
<path d="M59.5817 41.5583L59.815 41.7917L59.5817 41.5583Z" fill="#0E0E6E"/>
<path d="M53.8883 41.7917L54.1217 42.025L53.8883 41.7917Z" fill="#262678"/>
<path d="M54.8333 41.7917L55.0667 42.025L54.8333 41.7917Z" fill="#ADB333"/>
<path d="M55.0667 41.7917L55.3 42.025L55.0667 41.7917Z" fill="#42BB92"/>
<path d="M57.925 41.7917L58.1583 42.025L57.925 41.7917Z" fill="#0DC9C1"/>
<path d="M58.1583 41.7917L58.3917 42.025L58.1583 41.7917Z" fill="#96B247"/>
<path d="M59.1033 41.7917L59.3367 42.025L59.1033 41.7917Z" fill="#6E6C70"/>
<path d="M54.1217 42.025L54.355 42.2583L54.1217 42.025Z" fill="#1B1B74"/>
<path d="M54.3667 42.025L54.6 42.2583L54.3667 42.025Z" fill="#8D8D5B"/>
<path d="M55.3 42.025L55.5333 42.2583L55.3 42.025Z" fill="#74B166"/>
<path d="M55.5567 42.025L55.79 42.2583L55.5567 42.025Z" fill="#0DC9C1"/>
<path d="M57.68 42.025L57.9133 42.2583L57.68 42.025Z" fill="#34BE9E"/>
<path d="M57.925 42.025L58.1583 42.2583L57.925 42.025Z" fill="#ADB333"/>
<path d="M58.87 42.025L59.1033 42.2583L58.87 42.025Z" fill="#49497D"/>
<path d="M54.3667 42.2583L54.6 42.4917L54.3667 42.2583Z" fill="#0E0E6E"/>
<path d="M54.6 42.2583L54.8333 42.4917L54.6 42.2583Z" fill="#6E6C70"/>
<path d="M54.8333 42.2583L55.3 42.725L54.8333 42.2583Z" fill="#A4A43D"/>
<path d="M55.5567 42.2583L55.79 42.4917L55.5567 42.2583Z" fill="#96B247"/>
<path d="M55.79 42.2583L56.0233 42.4917L55.79 42.2583Z" fill="#27C2AA"/>
<path d="M57.4467 42.2583L57.68 42.4917L57.4467 42.2583Z" fill="#68B070"/>
<path d="M58.625 42.2583L58.8583 42.4917L58.625 42.2583Z" fill="#32327B"/>
<path d="M54.8333 42.4917L55.0667 42.725L54.8333 42.4917Z" fill="#49497D"/>
<path d="M56.0233 42.4917L56.2567 42.725L56.0233 42.4917Z" fill="#5BB47C"/>
<path d="M56.9683 42.4917L57.2017 42.725L56.9683 42.4917Z" fill="#27C2AA"/>
<path d="M57.2133 42.4917L57.4467 42.725L57.2133 42.4917Z" fill="#96B247"/>
<path d="M57.925 42.4917L57.6917 42.9583L57.925 42.4917Z" fill="#A4A43D"/>
<path d="M58.1583 42.4917L58.3917 42.725L58.1583 42.4917Z" fill="#808067"/>
<path d="M58.3917 42.4917L58.625 42.725L58.3917 42.4917Z" fill="#0E0E6E"/>
<path d="M55.0667 42.725L55.3 42.9583L55.0667 42.725Z" fill="#262678"/>
<path d="M55.3 42.725L55.5333 42.9583L55.3 42.725Z" fill="#8D8D5B"/>
<path d="M56.2683 42.725L56.5017 42.9583L56.2683 42.725Z" fill="#8BB252"/>
<path d="M56.5017 42.725L56.735 42.9583L56.5017 42.725Z" fill="#1AC5B5"/>
<path d="M56.735 42.725L56.9683 42.9583L56.735 42.725Z" fill="#5BB47C"/>
<path d="M57.925 42.725L58.1583 42.9583L57.925 42.725Z" fill="#58587B"/>
<path d="M55.3 42.9817L55.5333 43.215L55.3 42.9817Z" fill="#0E0E6E"/>
<path d="M55.5567 42.9817L55.79 43.215L55.5567 42.9817Z" fill="#666677"/>
<path d="M55.79 42.9817L56.0233 43.215L55.79 42.9817Z" fill="#A4A43D"/>
<path d="M57.4467 42.9817L57.68 43.215L57.4467 42.9817Z" fill="#99994E"/>
<path d="M57.68 42.9817L57.9133 43.215L57.68 42.9817ZM55.79 43.215L56.0233 43.4483L55.79 43.215Z" fill="#32327B"/>
<path d="M56.0233 43.215L56.2567 43.4483L56.0233 43.215Z" fill="#99994E"/>
<path d="M56.9683 43.215L57.2017 43.4483L56.9683 43.215Z" fill="#A4A43D"/>
<path d="M57.2133 43.215L57.4467 43.4483L57.2133 43.215Z" fill="#666677"/>
<path d="M57.4467 43.215L57.68 43.4483L57.4467 43.215ZM56.0233 43.4483L56.2567 43.6817L56.0233 43.4483Z" fill="#0E0E6E"/>
<path d="M56.2683 43.4483L56.5017 43.6817L56.2683 43.4483Z" fill="#666677"/>
<path d="M56.5017 43.4483L56.735 43.6817L56.5017 43.4483Z" fill="#A4A43D"/>
<path d="M56.735 43.4483L56.9683 43.6817L56.735 43.4483Z" fill="#99994E"/>
<path d="M56.9683 43.4483L57.2017 43.6817L56.9683 43.4483Z" fill="#32327B"/>
<path d="M56.5017 43.6817L56.735 43.915L56.5017 43.6817Z" fill="#262678"/>
<path d="M56.735 43.6817L56.9683 43.915L56.735 43.6817Z" fill="#0E0E6E"/>
<path d="M56.9683 27.815C57.3417 28.6783 58.5083 29.6233 58.835 30.09C58.4267 30.5567 58.345 30.51 58.3917 31.3733C59.0917 30.6267 59.115 30.5567 59.5817 30.6617C60.585 31.665 59.7567 33.8117 58.9283 34.2783C58.1 34.78 58.2517 34.2667 57.0033 34.885C57.575 35.375 58.24 34.815 58.7767 34.9667C59.0683 35.3167 58.6367 35.9467 58.8583 36.5533C59.325 36.5067 59.2783 35.5383 59.395 35.1883C59.745 33.905 61.845 33.0183 61.95 31.84C62.3933 31.6417 62.825 31.7817 63.35 32.0733C63.0933 30.9767 62.2183 30.9883 61.9733 30.65C61.4133 29.7867 60.9117 28.8067 59.71 28.55C58.7767 28.3517 58.8583 28.6083 58.275 28.2C57.9017 27.92 56.7933 27.3833 56.9683 27.815Z" fill="#FF9900"/>
<path fill-rule="evenodd" clip-rule="evenodd" d="M59.605 28.795C59.605 28.8461 59.5847 28.895 59.5486 28.9311C59.5125 28.9672 59.4636 28.9875 59.4125 28.9875C59.3614 28.9875 59.3125 28.9672 59.2764 28.9311C59.2403 28.895 59.22 28.8461 59.22 28.795C59.22 28.744 59.2403 28.695 59.2764 28.6589C59.3125 28.6228 59.3614 28.6025 59.4125 28.6025C59.4636 28.6025 59.5125 28.6228 59.5486 28.6589C59.5847 28.695 59.605 28.744 59.605 28.795Z" fill="white"/>
<path d="M54.04 31.4667C54.6233 30.7433 54.9267 29.25 55.1833 28.76C55.79 28.9 55.7667 28.9933 56.525 28.55C55.5333 28.27 55.4517 28.2933 55.335 27.8383C55.755 26.4733 58.0417 26.205 58.835 26.7183C59.675 27.22 59.15 27.325 60.2817 28.1183C60.445 27.395 59.64 27.0683 59.5233 26.5317C59.6983 26.1 60.4567 26.1817 60.8767 25.715C60.62 25.3067 59.7917 25.8083 59.43 25.8783C58.1467 26.17 56.3617 24.735 55.2767 25.1783C54.8917 24.8867 54.81 24.4317 54.81 23.8133C53.9817 24.5717 54.4017 25.33 54.2033 25.715C53.7133 26.6133 53.0717 27.5233 53.41 28.7017C53.6667 29.6117 53.8533 29.425 53.7833 30.1367C53.7017 30.5917 53.7367 31.8283 54.04 31.4667Z" fill="#FF9900"/>
<path fill-rule="evenodd" clip-rule="evenodd" d="M53.6667 28.6783C53.7717 28.6317 53.8883 28.6667 53.935 28.76C53.9511 28.7928 53.9573 28.8297 53.9526 28.866C53.948 28.9023 53.9328 28.9364 53.9089 28.9642C53.885 28.9919 53.8535 29.012 53.8183 29.0219C53.7831 29.0319 53.7457 29.0313 53.7109 29.0202C53.676 29.0091 53.6452 28.988 53.6222 28.9595C53.5992 28.9311 53.5851 28.8964 53.5817 28.86C53.5782 28.8236 53.5855 28.7869 53.6027 28.7546C53.6199 28.7223 53.6462 28.6958 53.6783 28.6783H53.6667Z" fill="white"/>
<path d="M58.835 31.9683C57.9017 31.8517 56.49 32.3533 55.9183 32.4C55.7433 31.805 55.825 31.7583 55.055 31.35C55.3233 32.3533 55.3817 32.4 55.055 32.75C53.6783 33.0883 52.255 31.2683 52.2783 30.3233C52.2783 29.355 52.6517 29.74 52.745 28.34C52.045 28.5733 52.185 29.4483 51.7767 29.8333C51.31 29.9033 51.0067 29.215 50.3767 29.0983C50.1667 29.53 51.0183 29.9733 51.2633 30.2533C52.185 31.21 51.87 33.4617 52.815 34.1617C52.7683 34.6517 52.4183 34.955 51.8817 35.2583C52.9667 35.5967 53.3983 34.8267 53.83 34.7917C54.8567 34.7683 55.965 34.8383 56.805 33.94C57.435 33.24 57.19 33.1817 57.8317 32.89C58.2633 32.7267 59.3017 32.05 58.835 31.9567V31.9683Z" fill="#FF9900"/>
<path fill-rule="evenodd" clip-rule="evenodd" d="M56.6417 33.73C56.6202 33.717 56.6015 33.6999 56.5867 33.6796C56.5719 33.6594 56.5612 33.6364 56.5552 33.612C56.5492 33.5877 56.5482 33.5623 56.552 33.5375C56.5558 33.5127 56.5645 33.4889 56.5775 33.4675C56.5905 33.446 56.6076 33.4274 56.6279 33.4125C56.6481 33.3977 56.6711 33.387 56.6955 33.381C56.7198 33.3751 56.7451 33.374 56.7699 33.3778C56.7947 33.3816 56.8185 33.3903 56.84 33.4033C56.8833 33.4296 56.9144 33.4721 56.9264 33.5213C56.9385 33.5705 56.9305 33.6225 56.9042 33.6658C56.8779 33.7091 56.8354 33.7402 56.7862 33.7523C56.737 33.7643 56.685 33.7563 56.6417 33.73Z" fill="white"/>
<path d="M0 0.375H37.3333V28.375H0V0.375Z" fill="#012169"/>
<path d="M4.375 0.375L18.6083 10.9333L32.7833 0.375H37.3333V3.99167L23.3333 14.4333L37.3333 24.8167V28.375H32.6667L18.6667 17.9333L4.725 28.375H0V24.875L13.9417 14.4917L0 4.10833V0.375H4.375Z" fill="white"/>
<path d="M24.7333 16.7667L37.3333 26.0417V28.375L21.525 16.7667H24.7333ZM14 17.9333L14.35 19.975L3.15 28.375H0L14 17.9333ZM37.3333 0.375V0.55L22.8083 11.5167L22.925 8.95L34.4167 0.375H37.3333ZM0 0.375L13.9417 10.6417H10.4417L0 2.825V0.375Z" fill="#C8102E"/>
<path d="M14.0583 0.375V28.375H23.3917V0.375H14.0583ZM0 9.70833V19.0417H37.3333V9.70833H0Z" fill="white"/>
<path d="M0 11.6333V17.2333H37.3333V11.6333H0ZM15.925 0.375V28.375H21.525V0.375H15.925Z" fill="#C8102E"/>
</g>
<defs>
<clipPath id="clip0_1_48835">
<rect width="74.6667" height="56" fill="white" transform="translate(0 0.375)"/>
</clipPath>
</defs>
</svg>
