<svg width="75" height="57" viewBox="0 0 75 57" fill="none" xmlns="http://www.w3.org/2000/svg">
<g clip-path="url(#clip0_1_6820)">
<path d="M0 0.375H75V56.625H0V0.375Z" fill="#E41E20"/>
<path d="M31.875 11.3086C31.3359 11.3086 30.4336 11.4844 30.4453 11.8945C28.9219 11.6484 28.7695 12.2695 28.8633 12.832C29.0039 12.6094 29.1797 12.4805 29.3203 12.4687C29.5195 12.4336 29.7305 12.5039 29.9531 12.6328C30.1631 12.7646 30.3527 12.9264 30.5156 13.1133C29.9766 13.2422 29.5547 13.1602 29.1328 13.0898C28.8944 13.039 28.6678 12.9436 28.4648 12.8086C28.2891 12.6914 28.2305 12.5742 27.9609 12.3047C27.6445 11.9766 27.3047 12.0703 27.4102 12.5742C27.6562 13.043 28.0664 13.2539 28.582 13.3477C28.8281 13.3828 29.2031 13.4648 29.625 13.4648C30.0469 13.4648 30.5156 13.4062 30.7734 13.4648C30.6211 13.5586 30.4453 13.7344 30.0937 13.793C29.7422 13.8633 29.2148 13.582 28.8867 13.5117C28.9219 13.7812 29.2734 14.0391 29.9531 14.1797C31.0781 14.4141 32.0039 14.6016 32.625 14.9414C33.1162 15.2153 33.5499 15.5813 33.9023 16.0195C34.4531 16.6641 34.4883 17.168 34.5117 17.2852C34.6289 18.3164 34.2656 18.9023 33.5859 19.0898C33.2578 19.1719 32.6484 19.0078 32.4375 18.75C32.2031 18.4922 32.0039 18.0469 32.0625 17.3438C32.1211 17.0859 32.4258 16.3711 32.168 16.2305C30.9461 15.559 29.6817 14.9679 28.3828 14.4609C28.0898 14.3437 27.8555 14.7422 27.7617 14.9062C26.8964 14.7856 26.0688 14.4738 25.3391 13.9934C24.6094 13.513 23.9958 12.8761 23.543 12.1289C23.0508 11.2383 22.2188 12.1289 22.3594 12.9844C22.582 13.9219 23.2969 14.6016 24.1641 15.0937C25.043 15.5742 26.1562 16.0547 27.2695 16.0313C27.8789 16.1484 27.8672 16.9219 27.1523 17.0742C25.7344 17.0742 24.5977 17.0508 23.5313 16.0195C22.7227 15.2812 22.2773 16.1602 22.5 16.6523C22.8984 18.1875 25.0898 18.6211 27.3047 18.1289C28.1719 17.9883 27.6562 18.9023 27.4219 18.9141C26.4844 19.582 24.832 20.2266 23.3672 18.9141C22.6992 18.3984 22.2422 18.8203 22.5 19.5586C23.1445 21.4922 25.6289 21.082 27.3281 20.1445C27.7617 19.8984 28.1602 20.4609 27.6328 20.8945C25.5117 22.3711 24.457 22.3945 23.4961 21.832C22.3008 21.3516 22.207 22.6758 22.9102 23.1211C23.6953 23.5898 25.6992 23.2383 27.1758 22.3008C27.8086 21.832 27.832 22.5703 27.4336 22.8633C25.6875 24.375 24.9961 24.7734 23.1797 24.5273C22.2773 24.457 22.2891 25.5703 22.9922 26.0039C23.9648 26.6016 25.8633 25.6172 27.3281 24.3867C27.9492 24.0586 28.0547 24.5977 27.75 25.2422C27.1013 26.1601 26.2194 26.8883 25.1953 27.3516C24.375 27.668 23.6016 27.6211 23.0508 27.4336C22.3711 27.1992 22.2891 27.9023 22.6641 28.5352C22.8867 28.9219 23.8125 29.0391 24.8203 28.6875C25.8281 28.3359 26.9062 27.4922 27.6445 26.5195C28.2891 25.9453 28.2187 26.707 27.9141 27.2461C26.4375 29.5898 25.0781 30.457 23.2852 30.3164C22.5 30.1758 22.3125 30.7852 22.8164 31.3711C23.707 32.0977 24.8086 32.0742 25.793 31.3477C26.6484 30.5273 28.3008 28.7227 29.168 27.7617C29.7773 27.2812 29.9766 27.7617 29.7891 28.7461C29.625 29.3086 29.2266 29.918 28.1133 30.3398C27.3516 30.7734 27.9258 31.3711 28.4883 31.3945C28.8047 31.3945 29.4375 31.0195 29.9297 30.4805C30.5625 29.7539 30.6094 29.2734 30.9609 28.1484C31.2891 27.6094 31.8867 27.8672 31.8867 28.4297C31.5938 29.5547 31.3594 29.7539 30.7734 30.2109C30.2227 30.7383 31.1602 30.9141 31.4766 30.6914C32.3906 30.082 32.7187 29.2852 33.0234 28.5586C33.2578 28.043 33.8906 28.2891 33.5859 29.1445C32.8828 31.1836 31.7109 31.9805 29.6836 32.4023C29.4844 32.4375 29.3555 32.5547 29.4258 32.7891L30.2461 33.6094C28.9922 33.9844 27.9727 34.1953 26.707 34.5469L24.9727 33.3984C24.8203 33.0234 24.7383 32.4375 23.8242 32.8477C23.2148 32.5664 22.9219 32.6719 22.582 32.9648C23.0742 32.9648 23.2852 33.1055 23.4844 33.3281C23.7422 33.9961 24.3281 34.0664 24.9258 33.8789C25.3125 34.1953 25.5117 34.4531 25.9102 34.7812L23.9531 34.7227C23.25 33.9844 22.7109 34.0195 22.2188 34.6055C21.832 34.6641 21.6797 34.6641 21.4219 35.1211C21.8203 34.957 22.0781 34.9102 22.2539 35.0859C22.9922 35.5195 23.4727 35.4258 23.8359 35.0859L25.8867 35.2148C25.6289 35.4492 25.2773 35.5664 25.0078 35.7773C23.9531 35.4727 23.3906 35.8945 23.2031 36.75C23.055 37.0929 23.0063 37.4706 23.0625 37.8398C23.1563 37.4883 23.332 37.1953 23.6367 37.0195C24.5742 37.2539 24.9258 36.8672 24.9844 36.3047C25.4531 35.9297 26.1328 35.8477 26.5898 35.4727C27.1289 35.6367 27.3867 35.7422 27.9258 35.918C28.1133 36.5039 28.5469 36.7266 29.25 36.5742C30.0703 36.5977 29.9297 36.9492 30 37.2187C30.2344 36.832 30.2227 36.4453 29.707 36.0937C29.5195 35.5898 29.0977 35.3555 28.5586 35.6484C28.043 35.5078 27.9141 35.2969 27.3984 35.1445C28.6875 34.7344 29.6016 34.6406 30.8906 34.2305L31.793 35.0273C31.9687 35.1328 32.1328 35.1563 32.2383 35.0273C33.0469 33.8555 33.4102 32.8359 34.1484 32.0625C34.4414 31.7344 34.8047 31.3125 35.2031 31.207C35.4023 31.1484 35.6484 31.1836 35.8125 31.3594C35.9648 31.5234 36.0938 31.8398 36.0469 32.3203C35.9648 32.9883 35.8008 33.2109 35.6133 33.6094C35.4141 34.0195 35.1914 34.2656 34.9453 34.582C34.4766 35.2031 33.8438 35.5664 33.4688 35.8125C32.7188 36.293 32.4141 36.082 31.8281 36.0469C31.0781 36.1289 30.8906 36.4922 31.5 36.9961C32.0625 37.3008 32.5781 37.3359 33 37.2539C33.3516 37.1836 33.7734 36.7266 34.0781 36.4805C34.4062 36.0938 34.9688 36.5508 34.582 37.0078C33.8906 37.8281 33.2109 38.3672 32.3555 38.3555C31.4531 38.4727 31.6289 38.9766 32.2148 39.2227C33.293 39.6562 34.2539 38.8359 34.7461 38.2852C35.1211 37.875 35.3906 37.8633 35.332 38.5078C34.9453 39.668 34.4414 40.1133 33.5977 40.1719C32.918 40.1016 32.9063 40.6406 33.4102 40.9922C34.5352 41.7656 35.3555 40.4297 35.7422 39.6328C36.0117 38.9062 36.4336 39.2461 36.4805 39.8437C36.4805 40.6523 36.1289 41.2969 35.1563 42.1172C35.8945 43.3008 36.7617 44.5078 37.5 45.6914L39.75 20.6133L37.5 16.6641C37.2656 16.4531 36.4688 15.5156 36.2695 15.375C36.1875 15.3047 36.1523 15.2578 36.2578 15.2109C36.3633 15.1641 36.6094 15.1172 36.7852 15.0937C36.3164 14.6133 35.8945 14.4609 34.9922 14.2031C35.2148 14.1094 35.4258 14.1562 36.082 14.1328C35.6794 13.5918 35.1305 13.1771 34.5 12.9375C34.9922 12.5859 35.0859 12.5625 35.5781 12.1523C34.8018 12.0924 34.035 11.9429 33.293 11.707C32.8498 11.4964 32.3745 11.3618 31.8867 11.3086H31.875ZM31.9687 12.293C32.4141 12.293 32.6836 12.4453 32.6836 12.6328C32.6836 12.8203 32.4141 12.9727 31.9687 12.9727C31.5234 12.9727 31.2422 12.7969 31.2422 12.6211C31.2422 12.4336 31.5234 12.293 31.9687 12.293Z" fill="black"/>
</g>
<defs>
<clipPath id="clip0_1_6820">
<rect width="75" height="56.25" fill="white" transform="translate(0 0.375)"/>
</clipPath>
</defs>
</svg>
