<svg width="75" height="57" viewBox="0 0 75 57" fill="none" xmlns="http://www.w3.org/2000/svg">
<g clip-path="url(#clip0_1_50263)">
<path fill-rule="evenodd" clip-rule="evenodd" d="M0 0.375H74.6667V28.795H0V0.375Z" fill="#FF0000"/>
<path fill-rule="evenodd" clip-rule="evenodd" d="M3.8147e-05 27.955H74.6667V56.375H3.8147e-05V27.955Z" fill="black"/>
<path fill-rule="evenodd" clip-rule="evenodd" d="M26.6817 17.665C45.955 22.7167 33.565 47.485 18.3634 37.1717L17.3367 38.7583C26.285 45.1283 35.14 39.995 37.6367 33.345C40.2267 26.485 36.75 16.8367 26.8334 15.845L26.6817 17.665Z" fill="#FFEC00"/>
<path fill-rule="evenodd" clip-rule="evenodd" d="M19.8334 38.9683L22.365 40.1467L21.175 42.69L18.6434 41.5L19.8334 38.9683ZM37.2167 27.36H40.0167V30.16H37.2167V27.36ZM35.8517 22.8217L38.4534 21.8183L39.4684 24.42L36.8667 25.435L35.8517 22.8217ZM32.8184 19.4267L34.8134 17.455L36.785 19.4383L34.8017 21.41L32.8184 19.4267ZM29.7617 14.7833L32.375 15.7633L31.3834 18.3767L28.77 17.3967L29.7617 14.7833ZM36.8667 31.875L39.4684 32.9133L38.4184 35.5033L35.8284 34.465L36.8667 31.875ZM28.7117 40.0417L31.2784 38.9567L32.3867 41.5233L29.82 42.62L28.7117 40.0417ZM24.1034 40.3683H26.9034V43.1683H24.1034V40.3683ZM28.9217 26.835L26.5534 25.085L24.185 26.7883L25.1184 24.105L22.75 22.355H25.6084L26.6 19.7183L27.51 22.3667L30.3917 22.3317L28.105 24.1167L28.9217 26.8467V26.835Z" fill="#FFEC00"/>
<path fill-rule="evenodd" clip-rule="evenodd" d="M39.2 40.7883C39.06 40.835 38.4767 42.235 38.0684 42.9117L38.5 43.0283C40.0867 43.5883 40.88 44.1017 41.5567 45.07C41.7132 45.2224 41.9188 45.3143 42.1367 45.3293C42.3547 45.3442 42.5709 45.2813 42.7467 45.1517C42.7467 45.1517 43.0734 45.035 43.4934 44.5683C43.8434 44.0433 43.75 43.635 43.33 43.2733C42.0467 42.34 40.6584 41.64 39.2 40.7883Z" fill="#FFEE00"/>
<path fill-rule="evenodd" clip-rule="evenodd" d="M42.6184 43.8683C42.6184 44.0029 42.5649 44.132 42.4697 44.2272C42.3746 44.3224 42.2455 44.3758 42.1109 44.3758C41.9763 44.3758 41.8472 44.3224 41.752 44.2272C41.6568 44.132 41.6034 44.0029 41.6034 43.8683C41.6034 43.7353 41.6562 43.6077 41.7503 43.5136C41.8444 43.4195 41.972 43.3667 42.105 43.3667C42.2381 43.3667 42.3657 43.4195 42.4598 43.5136C42.5538 43.6077 42.6067 43.7353 42.6067 43.8683H42.6184ZM40.1217 42.2817C40.1217 42.4163 40.0682 42.5454 39.9731 42.6405C39.8779 42.7357 39.7488 42.7892 39.6142 42.7892C39.4796 42.7892 39.3505 42.7357 39.2553 42.6405C39.1602 42.5454 39.1067 42.4163 39.1067 42.2817C39.1067 42.1471 39.1602 42.018 39.2553 41.9228C39.3505 41.8276 39.4796 41.7742 39.6142 41.7742C39.7488 41.7742 39.8779 41.8276 39.9731 41.9228C40.0682 42.018 40.1217 42.1471 40.1217 42.2817ZM41.3934 43.0983C41.3934 43.2329 41.3399 43.362 41.2447 43.4572C41.1496 43.5524 41.0205 43.6058 40.8859 43.6058C40.7513 43.6058 40.6222 43.5524 40.527 43.4572C40.4318 43.362 40.3784 43.2329 40.3784 43.0983C40.3784 42.9637 40.4318 42.8347 40.527 42.7395C40.6222 42.6443 40.7513 42.5908 40.8859 42.5908C41.0205 42.5908 41.1496 42.6443 41.2447 42.7395C41.3399 42.8347 41.3934 42.9637 41.3934 43.0983Z" fill="black"/>
<path fill-rule="evenodd" clip-rule="evenodd" d="M37.8584 42.8067C32.8884 39.9717 27.6734 36.915 22.6917 34.08C20.51 32.715 20.405 30.1833 21.875 28.2583C22.015 27.99 22.2017 28.0483 22.2717 28.2C22.4467 29.1333 22.9717 30.1017 23.6017 30.7083C28.7725 33.961 33.8948 37.2902 38.9667 40.695C38.57 41.3717 38.2667 42.13 37.8584 42.795V42.8067Z" fill="#FFEE00"/>
<path fill-rule="evenodd" clip-rule="evenodd" d="M34.6734 36.0167L36.75 37.8833L34.8834 39.96L32.8067 38.0933L34.6734 36.0167Z" fill="#FFEC00"/>
<path d="M38.675 41.0683L24.0917 32.26M36.8784 39.0383L31.9667 35.8533M34.09 40.835L29.085 37.9417" stroke="black" stroke-width="0.35"/>
</g>
<defs>
<clipPath id="clip0_1_50263">
<rect width="74.6667" height="56" fill="white" transform="translate(0 0.375)"/>
</clipPath>
</defs>
</svg>
