<svg width="75" height="57" viewBox="0 0 75 57" fill="none" xmlns="http://www.w3.org/2000/svg">
<g clip-path="url(#clip0_1_50274)">
<path d="M0 0.375H74.6667V56.375H0V0.375Z" fill="#3A7DCE"/>
<path d="M18.3983 27.3017C17.99 26.3917 17.99 26.3917 17.99 25.4817C17.78 25.4817 17.7566 25.5167 17.64 25.4817C17.5116 25.4467 17.465 26.3217 17.08 26.1583C17.0216 26.065 17.36 25.435 16.9983 25.1667C16.8816 25.085 17.0216 24.56 16.975 24.3267C16.975 24.3267 16.5083 24.6067 16.1583 23.65C15.9833 23.3933 15.75 23.8833 15.75 23.8833C15.75 23.8833 15.855 24.1633 15.6683 24.2333C15.4116 24.0233 15.2133 24.14 14.8866 23.8367C14.56 23.545 14.9566 23.2067 14.3266 22.9617C14.735 21.8183 14.735 22.04 15.75 21.585C15.1433 21.1183 15.1433 21.1183 14.735 20.4417C14.1283 20.2083 13.9183 19.975 13.3116 19.5317C12.495 18.3767 12.0866 16.09 12.0866 14.4917C12.6 13.955 13.3116 16.3233 14.3266 17.0117L15.75 17.7C16.5666 18.155 16.765 18.61 17.3833 19.065L19.2033 19.765C20.02 20.4417 20.4283 21.3517 21.035 21.585C21.7 21.585 21.8283 21.1533 22.0383 21.13C23.24 21.06 23.8466 20.8967 24.08 20.4883C24.325 20.1617 24.8966 20.675 26.53 19.9867L26.3316 19.065C26.3316 19.065 26.7633 18.6683 27.3466 18.8317C27.335 18.4233 27.2883 17.315 27.8716 16.8017C27.5216 16.3933 28.0816 15.7517 28.105 15.5533C27.9416 14.55 28.2683 14.5383 28.3383 14.235C28.4083 13.9433 28.0583 14.0367 28.1516 13.6283C28.2566 13.22 28.8516 13.1267 28.9216 12.7883C29.0033 12.45 28.7933 11.12 28.77 10.8283C29.8666 10.5017 30.2166 9.49834 30.6016 9.91834C30.8 8.54167 31.01 8.075 32.235 8.075C32.3983 7.655 31.78 7.29334 32.025 7.15334C32.4333 7.095 32.7366 7.13 33.215 7.81834C33.3666 8.05167 33.4016 7.50334 33.5533 7.445C33.705 7.38667 34.0666 7.38667 34.125 7.11834C34.1833 6.83834 34.265 6.465 34.475 6.01C34.6383 5.63667 34.7666 6.16167 34.9183 6.885C35.7816 6.92 37.7183 7.13 38.535 7.38667C39.1416 7.56167 39.55 7.21167 40.1333 7.13C40.565 7.62 40.9733 7.24667 41.2066 8.29667C41.5216 8.85667 42.0583 8.34334 42.175 8.50667C42.8516 10.6183 45.185 9.195 45.3716 9.23C45.6633 9.23 46.025 10.1633 46.27 10.1517C46.6433 10.0817 46.5383 9.79 46.8766 9.90667C46.7833 10.7 47.53 11.61 47.53 12.205C47.53 12.205 47.705 12.31 47.88 12.135C48.0433 11.9483 48.195 11.505 48.3466 11.5167C48.6966 11.575 50.9133 12.2167 51.3566 12.4383C51.555 12.8467 51.7416 13.0567 52.15 12.9867C52.4766 13.2317 52.2433 13.57 52.43 13.5817C52.8383 13.3483 52.9783 13.115 53.3866 13.3367C53.795 13.57 54.2033 14.025 54.4016 14.48C54.4016 14.7133 54.1916 15.6233 54.4016 17C54.5066 17.455 55.5333 20.7683 55.5333 21.1067C55.5333 21.5733 55.2183 21.8067 55.0083 22.2617C55.825 22.95 55.0083 24.0933 54.6 24.7817C57.6566 25.47 56.2333 26.835 58.6716 26.1467C58.065 27.7567 58.275 27.6283 58.8816 29.2267C57.6683 30.1367 58.8583 30.4167 58.0533 31.56C57.995 31.6417 58.5316 32.5633 59.2783 32.5633C59.08 34.3833 58.4616 33.7067 58.6716 36.4483C57.0733 36.4133 57.715 38.5017 56.6416 38.28C56.7 39.5867 57.2483 39.7033 57.0383 41.0217C56.2216 41.255 56.2216 41.255 55.825 41.9433L55.2183 41.71C55.0083 42.8533 54.6 43.0867 55.2183 44.23C55.2183 44.23 54.425 44.2533 54.1916 44.23C54.18 44.6267 54.5416 44.7317 54.6 45.14C54.5766 45.3033 53.445 46.0267 52.57 46.0617C52.3366 46.6217 53.1766 47.2283 53.13 47.5083C52.1733 47.7183 51.7533 49.025 51.7533 49.025C51.7533 49.025 52.2433 49.2583 52.1616 49.4917C51.905 49.2817 51.7533 49.2583 51.345 49.2583C51.1466 49.3167 50.645 49.2583 50.1783 50.1567C49.6533 50.3433 49.4083 50.2733 49.0116 50.8567C48.8366 50.3083 48.58 50.8683 48.2766 51.09C47.9616 51.3 47.5533 51.8483 47.495 51.825C47.5066 51.6617 47.6816 51.09 47.6816 51.09L46.55 51.3583C46.4683 51.37 46.4916 50.6933 46.2933 50.7167C46.095 50.74 45.5466 51.5683 45.36 51.5917C45.1733 51.615 45.115 51.335 44.9516 51.3583C44.7883 51.3817 44.485 52.2333 44.3683 52.2567C44.2516 52.2683 43.785 51.7317 43.4 51.8133C41.405 52.6067 41.0783 50.25 40.775 51.58C40.355 51.3233 40.425 51.4633 39.9933 51.5917C39.725 51.6733 39.7016 51.195 39.4566 51.195C38.9783 51.2183 38.99 51.7317 38.7333 51.58C38.5233 50.5067 37.2166 50.6933 37.1 50.2383C36.9833 49.7717 37.66 49.7717 37.87 49.445C38.0333 48.9783 37.695 48.7917 38.3716 48.3483C39.2466 47.6833 39.165 46.0383 38.9433 45.3967C38.9433 45.3967 38.255 43.3317 38.1266 43.3317C37.7183 43.215 37.7183 44.09 37.1233 44.335C35.8983 44.8017 33.74 43.18 33.3666 43.18C33.0283 43.18 31.4416 43.6 31.5 42.7133C31.2666 43.5767 30.3916 42.9117 30.3333 42.9117C29.5166 42.9117 29.8316 43.6233 29.2833 43.6C29.0383 43.5067 26.53 43.3317 26.53 43.3317V43.7983L23.485 42.4217C22.26 41.955 22.8666 40.8233 20.8366 41.5117V40.135H19.8216C20.23 37.3817 19.8216 38.7583 19.6116 36.2383L18.795 36.4717C17.9783 35.235 19.9383 35.4683 18.1883 34.64C18.1883 34.64 18.2233 33.275 17.78 33.73C17.6983 33.7883 17.99 34.4067 17.99 34.4067C16.3566 34.1733 15.96 33.73 15.96 31.8983C15.96 31.8983 17.29 32.1083 17.1733 31.8983C16.9866 31.5483 16.7416 29.3317 16.7766 29.1683C16.765 28.865 18.025 28.1183 17.78 27.395C17.9433 27.325 18.3983 27.3133 18.3983 27.3133" fill="white"/>
<path d="M59.763 33.9749C59.7028 34.1217 59.7129 34.2685 59.7731 34.3814C59.8835 34.1894 59.7932 34.1104 59.7731 33.9749H59.763ZM11.9927 17.1072C11.9927 17.1072 11.6916 17.0621 11.7519 17.3669C11.8522 17.1411 11.9827 17.1185 11.9927 17.1072ZM11.9626 16.3846C11.792 16.3846 11.5813 16.3621 11.6615 16.6669C11.7619 16.4298 11.9626 16.3959 11.9626 16.3846ZM13.2372 20.483C13.2372 20.483 13.4981 20.4604 13.4379 20.7653C13.3375 20.5395 13.2372 20.4943 13.2372 20.483Z" stroke="white" stroke-width="0.266114" stroke-linejoin="round"/>
</g>
<defs>
<clipPath id="clip0_1_50274">
<rect width="74.6667" height="56" fill="white" transform="translate(0 0.375)"/>
</clipPath>
</defs>
</svg>
