<svg width="75" height="57" viewBox="0 0 75 57" fill="none" xmlns="http://www.w3.org/2000/svg">
<g clip-path="url(#clip0_1_52131)">
<path d="M0 0.375H74.6667V56.375H0V0.375Z" fill="#74ACDF"/>
<path d="M0 19.0417H74.6667V37.7083H0V19.0417Z" fill="white"/>
<path d="M36.9752 28.5208L40.1672 35.4648C40.1672 35.4648 40.2232 35.599 40.313 35.5652C40.4029 35.5208 40.3469 35.3855 40.3469 35.3855L37.6927 28.2175M37.6145 30.9277C37.5702 31.98 38.2189 32.5633 38.1407 33.5037C38.0509 34.4557 38.5665 34.9818 38.7007 35.3517C38.8127 35.7215 38.5665 35.9338 38.6669 35.9898C38.7789 36.0458 39.0029 35.7542 38.9352 35.228C38.857 34.7123 38.465 34.556 38.5549 33.4022C38.6447 32.2483 38.0847 31.98 38.2189 30.9382" fill="#F6B40E"/>
<path d="M36.9752 28.5208L40.1672 35.4648C40.1672 35.4648 40.2232 35.599 40.313 35.5652C40.4029 35.5208 40.3469 35.3855 40.3469 35.3855L37.6927 28.2175M37.6145 30.9277C37.5702 31.98 38.2189 32.5633 38.1407 33.5037C38.0509 34.4557 38.5665 34.9818 38.7007 35.3517C38.8127 35.7215 38.5665 35.9338 38.6669 35.9898C38.7789 36.0458 39.0029 35.7542 38.9352 35.228C38.857 34.7123 38.465 34.556 38.5549 33.4022C38.6447 32.2483 38.0847 31.98 38.2189 30.9382" stroke="#85340A" stroke-width="0.123667" stroke-miterlimit="3.84"/>
<path d="M36.946 28.3727L37.2377 36.0097C37.2377 36.0097 37.2377 36.1555 37.3334 36.159C37.4337 36.152 37.4325 36.0062 37.4325 36.0062L37.723 28.368M36.6135 30.8425C36.169 31.798 36.547 32.5843 36.1142 33.4243C35.6674 34.269 35.9415 34.9527 35.924 35.3458C35.8855 35.7297 35.5775 35.8323 35.6487 35.9233C35.7304 36.0178 36.0489 35.8347 36.1889 35.3225C36.3137 34.8162 36.0115 34.5222 36.5354 33.4897C37.0592 32.4583 36.645 31.9952 37.1677 31.0852" fill="#F6B40E"/>
<path d="M36.946 28.3727L37.2377 36.0097C37.2377 36.0097 37.2377 36.1555 37.3334 36.159C37.4337 36.152 37.4325 36.0062 37.4325 36.0062L37.723 28.368M36.6135 30.8425C36.169 31.798 36.547 32.5843 36.1142 33.4243C35.6674 34.269 35.9415 34.9527 35.924 35.3458C35.8855 35.7297 35.5775 35.8323 35.6487 35.9233C35.7304 36.0178 36.0489 35.8347 36.1889 35.3225C36.3137 34.8162 36.0115 34.5222 36.5354 33.4897C37.0592 32.4583 36.645 31.9952 37.1677 31.0852" stroke="#85340A" stroke-width="0.123667" stroke-miterlimit="3.84"/>
<path d="M36.9775 28.2245L34.3245 35.3913C34.3245 35.3913 34.2685 35.5255 34.356 35.5652C34.4505 35.5967 34.5065 35.4625 34.5065 35.4625L37.6985 28.5173M35.7268 30.3782C34.951 31.091 34.9977 31.9625 34.2778 32.5715C33.5417 33.1817 33.5335 33.9178 33.3667 34.2737C33.1847 34.6143 32.8603 34.591 32.8918 34.7018C32.9315 34.8208 33.2955 34.773 33.621 34.353C33.9302 33.933 33.7633 33.5457 34.643 32.7932C35.5215 32.0407 35.3162 31.455 36.148 30.8133" fill="#F6B40E"/>
<path d="M36.9775 28.2245L34.3245 35.3913C34.3245 35.3913 34.2685 35.5255 34.356 35.5652C34.4505 35.5967 34.5065 35.4625 34.5065 35.4625L37.6985 28.5173M35.7268 30.3782C34.951 31.091 34.9977 31.9625 34.2778 32.5715C33.5417 33.1817 33.5335 33.9178 33.3667 34.2737C33.1847 34.6143 32.8603 34.591 32.8918 34.7018C32.9315 34.8208 33.2955 34.773 33.621 34.353C33.9302 33.933 33.7633 33.5457 34.643 32.7932C35.5215 32.0407 35.3162 31.455 36.148 30.8133" stroke="#85340A" stroke-width="0.123667" stroke-miterlimit="3.84"/>
<path d="M37.0615 28.0997L31.8675 33.7055C31.8675 33.7055 31.7648 33.8082 31.8302 33.8782C31.906 33.9435 32.0087 33.8408 32.0087 33.8408L37.6157 28.6457M35.0817 29.6105C34.0923 29.9722 33.8018 30.7947 32.9035 31.0828C31.99 31.364 31.7007 32.0418 31.4102 32.3078C31.1115 32.5528 30.821 32.407 30.807 32.5213C30.7977 32.6462 31.1523 32.7418 31.6132 32.4782C32.0588 32.2087 32.0542 31.7863 33.1543 31.4282C34.2545 31.07 34.2883 30.4493 35.3022 30.1752" fill="#F6B40E"/>
<path d="M37.0615 28.0997L31.8675 33.7055C31.8675 33.7055 31.7648 33.8082 31.8302 33.8782C31.906 33.9435 32.0087 33.8408 32.0087 33.8408L37.6157 28.6457M35.0817 29.6105C34.0923 29.9722 33.8018 30.7947 32.9035 31.0828C31.99 31.364 31.7007 32.0418 31.4102 32.3078C31.1115 32.5528 30.821 32.407 30.807 32.5213C30.7977 32.6462 31.1523 32.7418 31.6132 32.4782C32.0588 32.2087 32.0542 31.7863 33.1543 31.4282C34.2545 31.07 34.2883 30.4493 35.3022 30.1752" stroke="#85340A" stroke-width="0.123667" stroke-miterlimit="3.84"/>
<path d="M37.8152 31.1073C37.8712 32.1153 38.4428 32.5633 38.3308 33.4932C38.577 32.7652 37.9832 32.1935 38.017 31.119M37.1548 28.4532L39.3388 33.2248L37.513 28.3085" fill="#85340A"/>
<path d="M36.7325 31.084C36.3988 32.0372 36.7547 32.6695 36.295 33.485C36.8013 32.9063 36.4712 32.1515 36.9145 31.1715M37.1373 28.3785L37.3287 33.6227L37.5235 28.382" fill="#85340A"/>
<path d="M35.742 30.6477C35.0688 31.4002 35.1563 32.1212 34.419 32.6987C35.1085 32.358 35.0922 31.5343 35.8762 30.7982M37.1513 28.3038L35.322 33.2213L37.5083 28.4532" fill="#85340A"/>
<path d="M34.993 29.866C34.083 30.3035 33.8882 31.0023 32.9863 31.2543C33.7528 31.203 34.0538 30.4365 35.0595 30.0562M37.1922 28.2397L33.6198 32.0838L37.464 28.5162" fill="#85340A"/>
<path d="M37.1875 28.0168L30.2435 31.2088C30.2435 31.2088 30.1094 31.2648 30.1432 31.3547C30.1875 31.4445 30.3229 31.3885 30.3229 31.3885L37.4909 28.7343M34.7807 28.6562C33.7284 28.6118 33.145 29.2605 32.2047 29.1823C31.2527 29.0925 30.7265 29.6082 30.3567 29.7423C29.9869 29.8543 29.7745 29.6082 29.7185 29.7085C29.6625 29.8205 29.9542 30.0445 30.4804 29.9768C30.996 29.8987 31.1524 29.5067 32.3062 29.5965C33.46 29.6863 33.7284 29.1263 34.7702 29.2605" fill="#F6B40E"/>
<path d="M37.1875 28.0168L30.2435 31.2088C30.2435 31.2088 30.1094 31.2648 30.1432 31.3547C30.1875 31.4445 30.3229 31.3885 30.3229 31.3885L37.4909 28.7343M34.7807 28.6562C33.7284 28.6118 33.145 29.2605 32.2047 29.1823C31.2527 29.0925 30.7265 29.6082 30.3567 29.7423C29.9869 29.8543 29.7745 29.6082 29.7185 29.7085C29.6625 29.8205 29.9542 30.0445 30.4804 29.9768C30.996 29.8987 31.1524 29.5067 32.3062 29.5965C33.46 29.6863 33.7284 29.1263 34.7702 29.2605" stroke="#85340A" stroke-width="0.123667" stroke-miterlimit="3.84"/>
<path d="M37.3357 27.9877L29.6987 28.2793C29.6987 28.2793 29.5528 28.2793 29.5493 28.375C29.5563 28.4753 29.7022 28.4742 29.7022 28.4742L37.3403 28.7647M34.8658 27.6552C33.9103 27.2107 33.124 27.5887 32.284 27.1558C31.4393 26.709 30.7557 26.9832 30.3625 26.9657C29.9787 26.9272 29.876 26.6192 29.785 26.6903C29.6905 26.772 29.8737 27.0905 30.3858 27.2305C30.8922 27.3553 31.1862 27.0532 32.2187 27.577C33.25 28.1008 33.7132 27.6867 34.6232 28.2093" fill="#F6B40E"/>
<path d="M37.3357 27.9877L29.6987 28.2793C29.6987 28.2793 29.5528 28.2793 29.5493 28.375C29.5563 28.4753 29.7022 28.4742 29.7022 28.4742L37.3403 28.7647M34.8658 27.6552C33.9103 27.2107 33.124 27.5887 32.284 27.1558C31.4393 26.709 30.7557 26.9832 30.3625 26.9657C29.9787 26.9272 29.876 26.6192 29.785 26.6903C29.6905 26.772 29.8737 27.0905 30.3858 27.2305C30.8922 27.3553 31.1862 27.0532 32.2187 27.577C33.25 28.1008 33.7132 27.6867 34.6232 28.2093" stroke="#85340A" stroke-width="0.123667" stroke-miterlimit="3.84"/>
<path d="M37.4839 28.0192L30.317 25.3662C30.317 25.3662 30.1829 25.3102 30.1432 25.3977C30.1117 25.4922 30.2459 25.5482 30.2459 25.5482L37.191 28.7402M35.3302 26.7685C34.6174 25.9927 33.7459 26.0393 33.1369 25.3195C32.5267 24.5833 31.7905 24.5752 31.4347 24.4083C31.094 24.2263 31.1174 23.902 31.0065 23.9335C30.8875 23.9732 30.9354 24.3372 31.3554 24.6627C31.7754 24.9718 32.1627 24.805 32.9152 25.6847C33.6677 26.5632 34.2534 26.3578 34.895 27.1897" fill="#F6B40E"/>
<path d="M37.4839 28.0192L30.317 25.3662C30.317 25.3662 30.1829 25.3102 30.1432 25.3977C30.1117 25.4922 30.2459 25.5482 30.2459 25.5482L37.191 28.7402M35.3302 26.7685C34.6174 25.9927 33.7459 26.0393 33.1369 25.3195C32.5267 24.5833 31.7905 24.5752 31.4347 24.4083C31.094 24.2263 31.1174 23.902 31.0065 23.9335C30.8875 23.9732 30.9354 24.3372 31.3554 24.6627C31.7754 24.9718 32.1627 24.805 32.9152 25.6847C33.6677 26.5632 34.2534 26.3578 34.895 27.1897" stroke="#85340A" stroke-width="0.123667" stroke-miterlimit="3.84"/>
<path d="M37.6087 28.1032L32.0028 22.9092C32.0028 22.9092 31.9002 22.8065 31.8302 22.8718C31.7648 22.9477 31.8675 23.0503 31.8675 23.0503L37.0627 28.6573M36.0978 26.1233C35.7362 25.134 34.9137 24.8435 34.6255 23.9452C34.3443 23.0317 33.6665 22.7423 33.4005 22.4518C33.1555 22.1532 33.3013 21.8627 33.187 21.8487C33.0622 21.8393 32.9665 22.194 33.2302 22.6548C33.4997 23.1005 33.922 23.0958 34.2802 24.196C34.6383 25.2962 35.259 25.33 35.5332 26.3438" fill="#F6B40E"/>
<path d="M37.6087 28.1032L32.0028 22.9092C32.0028 22.9092 31.9002 22.8065 31.8302 22.8718C31.7648 22.9477 31.8675 23.0503 31.8675 23.0503L37.0627 28.6573M36.0978 26.1233C35.7362 25.134 34.9137 24.8435 34.6255 23.9452C34.3443 23.0317 33.6665 22.7423 33.4005 22.4518C33.1555 22.1532 33.3013 21.8627 33.187 21.8487C33.0622 21.8393 32.9665 22.194 33.2302 22.6548C33.4997 23.1005 33.922 23.0958 34.2802 24.196C34.6383 25.2962 35.259 25.33 35.5332 26.3438" stroke="#85340A" stroke-width="0.123667" stroke-miterlimit="3.84"/>
<path d="M34.601 28.8568C33.593 28.9128 33.145 29.4845 32.2152 29.3725C32.9432 29.6187 33.5148 29.0248 34.5893 29.0587M37.2552 28.1965L32.4835 30.3805L37.3998 28.5547" fill="#85340A"/>
<path d="M34.6243 27.7742C33.6712 27.4405 33.0388 27.7963 32.2233 27.3367C32.802 27.843 33.5568 27.5128 34.5368 27.9562M37.3298 28.179L32.0857 28.3703L37.3263 28.5652" fill="#85340A"/>
<path d="M35.0607 26.7837C34.3082 26.1105 33.5872 26.198 33.0097 25.4607C33.3503 26.1502 34.174 26.1338 34.9102 26.9178M37.4045 28.193L32.487 26.3637L37.2552 28.55" fill="#85340A"/>
<path d="M35.8423 26.0347C35.4048 25.1247 34.706 24.9298 34.454 24.028C34.5053 24.7945 35.2718 25.0955 35.6522 26.1012M37.4687 28.2338L33.6245 24.6615L37.1922 28.5057" fill="#85340A"/>
<path d="M37.6915 28.2292L34.4995 21.2852C34.4995 21.2852 34.4435 21.151 34.3537 21.1848C34.2639 21.2292 34.3199 21.3645 34.3199 21.3645L36.974 28.5325M37.0522 25.8223C37.0965 24.77 36.4479 24.1867 36.526 23.2463C36.6159 22.2943 36.1002 21.7682 35.966 21.3983C35.854 21.0285 36.1002 20.8162 35.9999 20.7602C35.8879 20.7042 35.6639 20.9958 35.7315 21.522C35.8097 22.0377 36.2017 22.194 36.1119 23.3478C36.022 24.5017 36.582 24.77 36.4479 25.8118" fill="#F6B40E"/>
<path d="M37.6915 28.2292L34.4995 21.2852C34.4995 21.2852 34.4435 21.151 34.3537 21.1848C34.2639 21.2292 34.3199 21.3645 34.3199 21.3645L36.974 28.5325M37.0522 25.8223C37.0965 24.77 36.4479 24.1867 36.526 23.2463C36.6159 22.2943 36.1002 21.7682 35.966 21.3983C35.854 21.0285 36.1002 20.8162 35.9999 20.7602C35.8879 20.7042 35.6639 20.9958 35.7315 21.522C35.8097 22.0377 36.2017 22.194 36.1119 23.3478C36.022 24.5017 36.582 24.77 36.4479 25.8118" stroke="#85340A" stroke-width="0.123667" stroke-miterlimit="3.84"/>
<path d="M37.7207 28.3773L37.429 20.7403C37.429 20.7403 37.429 20.5945 37.3333 20.591C37.233 20.598 37.2342 20.7438 37.2342 20.7438L36.9437 28.382M38.0532 25.9075C38.4977 24.952 38.1197 24.1657 38.5525 23.3257C38.9993 22.481 38.7252 21.7973 38.7427 21.4042C38.7812 21.0203 39.0892 20.9177 39.018 20.8267C38.9363 20.7322 38.6178 20.9153 38.4778 21.4275C38.353 21.9338 38.6552 22.2278 38.1313 23.2603C37.6075 24.2917 38.0217 24.7548 37.499 25.6648" fill="#F6B40E"/>
<path d="M37.7207 28.3773L37.429 20.7403C37.429 20.7403 37.429 20.5945 37.3333 20.591C37.233 20.598 37.2342 20.7438 37.2342 20.7438L36.9437 28.382M38.0532 25.9075C38.4977 24.952 38.1197 24.1657 38.5525 23.3257C38.9993 22.481 38.7252 21.7973 38.7427 21.4042C38.7812 21.0203 39.0892 20.9177 39.018 20.8267C38.9363 20.7322 38.6178 20.9153 38.4778 21.4275C38.353 21.9338 38.6552 22.2278 38.1313 23.2603C37.6075 24.2917 38.0217 24.7548 37.499 25.6648" stroke="#85340A" stroke-width="0.123667" stroke-miterlimit="3.84"/>
<path d="M37.6892 28.5255L40.3422 21.3587C40.3422 21.3587 40.3982 21.2245 40.3107 21.1848C40.2162 21.1533 40.1602 21.2875 40.1602 21.2875L36.9682 28.2327M38.9398 26.3718C39.7157 25.659 39.669 24.7875 40.3888 24.1785C41.125 23.5683 41.1332 22.8322 41.3 22.4763C41.482 22.1357 41.8063 22.159 41.7748 22.0482C41.7352 21.9292 41.3712 21.977 41.0457 22.397C40.7365 22.817 40.9033 23.2043 40.0237 23.9568C39.1452 24.7093 39.3505 25.295 38.5187 25.9367" fill="#F6B40E"/>
<path d="M37.6892 28.5255L40.3422 21.3587C40.3422 21.3587 40.3982 21.2245 40.3107 21.1848C40.2162 21.1533 40.1602 21.2875 40.1602 21.2875L36.9682 28.2327M38.9398 26.3718C39.7157 25.659 39.669 24.7875 40.3888 24.1785C41.125 23.5683 41.1332 22.8322 41.3 22.4763C41.482 22.1357 41.8063 22.159 41.7748 22.0482C41.7352 21.9292 41.3712 21.977 41.0457 22.397C40.7365 22.817 40.9033 23.2043 40.0237 23.9568C39.1452 24.7093 39.3505 25.295 38.5187 25.9367" stroke="#85340A" stroke-width="0.123667" stroke-miterlimit="3.84"/>
<path d="M37.6052 28.6503L42.7992 23.0445C42.7992 23.0445 42.9019 22.9418 42.8365 22.8718C42.7607 22.8065 42.658 22.9092 42.658 22.9092L37.051 28.1043M39.585 27.1395C40.5744 26.7778 40.8649 25.9553 41.7632 25.6672C42.6767 25.386 42.966 24.7082 43.2565 24.4422C43.5552 24.1972 43.8457 24.343 43.8597 24.2287C43.869 24.1038 43.5144 24.0082 43.0535 24.2718C42.6079 24.5413 42.6125 24.9637 41.5124 25.3218C40.4122 25.68 40.3784 26.3007 39.3645 26.5748" fill="#F6B40E"/>
<path d="M37.6052 28.6503L42.7992 23.0445C42.7992 23.0445 42.9019 22.9418 42.8365 22.8718C42.7607 22.8065 42.658 22.9092 42.658 22.9092L37.051 28.1043M39.585 27.1395C40.5744 26.7778 40.8649 25.9553 41.7632 25.6672C42.6767 25.386 42.966 24.7082 43.2565 24.4422C43.5552 24.1972 43.8457 24.343 43.8597 24.2287C43.869 24.1038 43.5144 24.0082 43.0535 24.2718C42.6079 24.5413 42.6125 24.9637 41.5124 25.3218C40.4122 25.68 40.3784 26.3007 39.3645 26.5748" stroke="#85340A" stroke-width="0.123667" stroke-miterlimit="3.84"/>
<path d="M36.8515 25.6427C36.7955 24.6347 36.2239 24.1867 36.3359 23.2568C36.0897 23.9848 36.6835 24.5565 36.6497 25.631M37.5119 28.2968L35.3279 23.5252L37.1537 28.4415" fill="#85340A"/>
<path d="M37.9342 25.666C38.2679 24.7128 37.912 24.0805 38.3717 23.265C37.8654 23.8437 38.1955 24.5985 37.7522 25.5785M37.5294 28.3715L37.338 23.1273L37.1432 28.368" fill="#85340A"/>
<path d="M38.9247 26.1023C39.5979 25.3498 39.5104 24.6288 40.2477 24.0513C39.5582 24.392 39.5745 25.2157 38.7905 25.9518M37.5154 28.4462L39.3447 23.5287L37.1584 28.2968" fill="#85340A"/>
<path d="M39.6737 26.884C40.5837 26.4465 40.7785 25.7477 41.6803 25.4957C40.9138 25.547 40.6128 26.3135 39.6072 26.6938M37.4745 28.5103L41.0468 24.6662L37.2027 28.2338" fill="#85340A"/>
<path d="M37.4792 28.7332L44.4232 25.5412C44.4232 25.5412 44.5573 25.4852 44.5235 25.3953C44.4792 25.3055 44.3438 25.3615 44.3438 25.3615L37.1758 28.0157M39.886 28.0938C40.9383 28.1382 41.5217 27.4895 42.462 27.5677C43.414 27.6575 43.9402 27.1418 44.31 27.0077C44.6798 26.8957 44.8922 27.1418 44.9482 27.0415C45.0042 26.9295 44.7125 26.7055 44.1863 26.7732C43.6707 26.8513 43.5143 27.2433 42.3605 27.1535C41.2067 27.0637 40.9383 27.6237 39.8965 27.4895" fill="#F6B40E"/>
<path d="M37.4792 28.7332L44.4232 25.5412C44.4232 25.5412 44.5573 25.4852 44.5235 25.3953C44.4792 25.3055 44.3438 25.3615 44.3438 25.3615L37.1758 28.0157M39.886 28.0938C40.9383 28.1382 41.5217 27.4895 42.462 27.5677C43.414 27.6575 43.9402 27.1418 44.31 27.0077C44.6798 26.8957 44.8922 27.1418 44.9482 27.0415C45.0042 26.9295 44.7125 26.7055 44.1863 26.7732C43.6707 26.8513 43.5143 27.2433 42.3605 27.1535C41.2067 27.0637 40.9383 27.6237 39.8965 27.4895" stroke="#85340A" stroke-width="0.123667" stroke-miterlimit="3.84"/>
<path d="M37.331 28.7623L44.968 28.4707C44.968 28.4707 45.1139 28.4707 45.1174 28.375C45.1104 28.2747 44.9645 28.2758 44.9645 28.2758L37.3264 27.9853M39.8009 29.0948C40.7564 29.5393 41.5427 29.1613 42.3827 29.5942C43.2274 30.041 43.911 29.7668 44.3042 29.7843C44.688 29.8228 44.7907 30.1308 44.8817 30.0597C44.9762 29.978 44.793 29.6595 44.2809 29.5195C43.7745 29.3947 43.4805 29.6968 42.448 29.173C41.4167 28.6492 40.9535 29.0633 40.0435 28.5407" fill="#F6B40E"/>
<path d="M37.331 28.7623L44.968 28.4707C44.968 28.4707 45.1139 28.4707 45.1174 28.375C45.1104 28.2747 44.9645 28.2758 44.9645 28.2758L37.3264 27.9853M39.8009 29.0948C40.7564 29.5393 41.5427 29.1613 42.3827 29.5942C43.2274 30.041 43.911 29.7668 44.3042 29.7843C44.688 29.8228 44.7907 30.1308 44.8817 30.0597C44.9762 29.978 44.793 29.6595 44.2809 29.5195C43.7745 29.3947 43.4805 29.6968 42.448 29.173C41.4167 28.6492 40.9535 29.0633 40.0435 28.5407" stroke="#85340A" stroke-width="0.123667" stroke-miterlimit="3.84"/>
<path d="M37.1828 28.7308L44.3497 31.3838C44.3497 31.3838 44.4838 31.4398 44.5235 31.3523C44.555 31.2578 44.4208 31.2018 44.4208 31.2018L37.4757 28.0098M39.3365 29.9815C40.0493 30.7573 40.9208 30.7107 41.5298 31.4305C42.14 32.1667 42.8762 32.1748 43.232 32.3417C43.5727 32.5237 43.5493 32.848 43.6602 32.8165C43.7792 32.7768 43.7313 32.4128 43.3113 32.0873C42.8913 31.7782 42.504 31.945 41.7515 31.0653C40.999 30.1868 40.4133 30.3922 39.7717 29.5603" fill="#F6B40E"/>
<path d="M37.1828 28.7308L44.3497 31.3838C44.3497 31.3838 44.4838 31.4398 44.5235 31.3523C44.555 31.2578 44.4208 31.2018 44.4208 31.2018L37.4757 28.0098M39.3365 29.9815C40.0493 30.7573 40.9208 30.7107 41.5298 31.4305C42.14 32.1667 42.8762 32.1748 43.232 32.3417C43.5727 32.5237 43.5493 32.848 43.6602 32.8165C43.7792 32.7768 43.7313 32.4128 43.3113 32.0873C42.8913 31.7782 42.504 31.945 41.7515 31.0653C40.999 30.1868 40.4133 30.3922 39.7717 29.5603" stroke="#85340A" stroke-width="0.123667" stroke-miterlimit="3.84"/>
<path d="M37.058 28.6468L42.6638 33.8408C42.6638 33.8408 42.7665 33.9435 42.8365 33.8782C42.9018 33.8023 42.7992 33.6997 42.7992 33.6997L37.604 28.0927M38.5688 30.6267C38.9305 31.616 39.753 31.9065 40.0412 32.8048C40.3223 33.7183 41.0002 34.0077 41.2662 34.2982C41.5112 34.5968 41.3653 34.8873 41.4797 34.9013C41.6045 34.9107 41.7002 34.556 41.4365 34.0952C41.167 33.6495 40.7447 33.6542 40.3865 32.554C40.0283 31.4538 39.4077 31.42 39.1335 30.4062" fill="#F6B40E"/>
<path d="M37.058 28.6468L42.6638 33.8408C42.6638 33.8408 42.7665 33.9435 42.8365 33.8782C42.9018 33.8023 42.7992 33.6997 42.7992 33.6997L37.604 28.0927M38.5688 30.6267C38.9305 31.616 39.753 31.9065 40.0412 32.8048C40.3223 33.7183 41.0002 34.0077 41.2662 34.2982C41.5112 34.5968 41.3653 34.8873 41.4797 34.9013C41.6045 34.9107 41.7002 34.556 41.4365 34.0952C41.167 33.6495 40.7447 33.6542 40.3865 32.554C40.0283 31.4538 39.4077 31.42 39.1335 30.4062" stroke="#85340A" stroke-width="0.123667" stroke-miterlimit="3.84"/>
<path d="M40.0657 27.8932C41.0737 27.8372 41.5217 27.2655 42.4515 27.3775C41.7235 27.1313 41.1518 27.7252 40.0773 27.6913M37.4115 28.5535L42.1832 26.3695L37.2668 28.1953" fill="#85340A"/>
<path d="M40.0424 28.9758C40.9955 29.3095 41.6279 28.9537 42.4434 29.4133C41.8647 28.907 41.1099 29.2372 40.1299 28.7938M37.3369 28.571L42.581 28.3797L37.3404 28.1848" fill="#85340A"/>
<path d="M39.606 29.9663C40.3585 30.6395 41.0795 30.552 41.657 31.2893C41.3163 30.5998 40.4927 30.6162 39.7565 29.8322M37.2622 28.557L42.1797 30.3863L37.4115 28.2" fill="#85340A"/>
<path d="M38.8243 30.7153C39.2618 31.6253 39.9607 31.8202 40.2127 32.722C40.1613 31.9555 39.3948 31.6545 39.0145 30.6488M37.198 28.5162L41.0422 32.0885L37.4745 28.2443" fill="#85340A"/>
<path d="M37.3334 31.49C39.0537 31.49 40.4484 30.0954 40.4484 28.375C40.4484 26.6546 39.0537 25.26 37.3334 25.26C35.613 25.26 34.2184 26.6546 34.2184 28.375C34.2184 30.0954 35.613 31.49 37.3334 31.49Z" fill="#F6B40E" stroke="#85340A" stroke-width="0.163333"/>
<path d="M38.3833 27.71C38.185 27.71 37.975 27.8033 37.8583 27.99C38.0917 28.2117 38.6283 28.2233 38.99 27.9667C38.836 27.8022 38.6202 27.71 38.395 27.71H38.3833ZM38.3833 27.7567C38.5933 27.7567 38.7917 27.85 38.815 27.9433C38.5817 28.2117 38.1967 28.1767 37.9517 27.99C38.0683 27.8267 38.2317 27.7567 38.395 27.7567H38.3833Z" fill="#843511"/>
<path d="M38.43 27.5583C38.115 27.5583 38.045 27.6283 37.905 27.7567C37.765 27.8733 37.6833 27.85 37.6717 27.8733C37.6367 27.8967 37.6717 27.9667 37.7067 27.9433C37.765 27.92 37.8583 27.8733 37.9983 27.7567C38.1383 27.64 38.29 27.64 38.43 27.64C38.8617 27.64 39.095 27.99 39.1417 27.9667C39.2 27.9433 38.9083 27.5583 38.43 27.5583Z" fill="#85340A"/>
<path d="M39.2933 27.71C38.745 27.2317 38.045 27.15 37.66 27.5117C37.5713 27.6283 37.5118 27.7637 37.485 27.9083C37.4383 28.1883 37.52 28.48 37.73 28.7833L37.6367 28.83C37.45 28.4683 37.38 28.095 37.45 27.7333L37.52 27.465C38.045 27.0333 38.7683 26.9983 39.2933 27.6983V27.71Z" fill="#85340A"/>
<path d="M38.3833 28.1533C38.4993 28.1533 38.5933 28.0593 38.5933 27.9433C38.5933 27.8274 38.4993 27.7333 38.3833 27.7333C38.2674 27.7333 38.1733 27.8274 38.1733 27.9433C38.1733 28.0593 38.2674 28.1533 38.3833 28.1533Z" fill="#85340A"/>
<path d="M39.0017 28.0833C38.5933 28.3983 38.185 28.375 37.9517 28.235C37.7183 28.0833 37.7184 28.0367 37.765 28.0367C37.8117 28.0367 37.8583 28.0833 38.045 28.1883C38.2433 28.2817 38.5233 28.2817 39.0017 28.0833Z" fill="#85340A"/>
<path d="M36.8667 28.8067C36.7535 28.8335 36.6835 28.9467 36.7103 29.0598C36.7372 29.173 36.8503 29.243 36.9635 29.2162C37.0078 29.2057 37.0475 29.1812 37.0767 29.1462C37.1537 29.194 37.2423 29.2185 37.3333 29.2162H37.3567C37.4267 29.2162 37.5433 29.2045 37.625 29.1462C37.66 29.2045 37.73 29.2278 37.8 29.2278C37.9155 29.2372 38.0182 29.1508 38.0275 29.0353C38.0368 28.9198 37.9505 28.8172 37.835 28.8078C37.8933 28.8312 37.9283 28.8778 37.9283 28.9478C37.9283 29.0248 37.8653 29.0878 37.7883 29.0878C37.7113 29.0878 37.6483 29.0248 37.6483 28.9478C37.5923 29.0657 37.4757 29.1415 37.345 29.1462C37.219 29.138 37.1082 29.0622 37.0533 28.9478C37.0533 29.0295 36.9833 29.0878 36.9017 29.0878C36.8317 29.0878 36.7617 29.0178 36.7617 28.9478C36.7617 28.8778 36.7967 28.8312 36.855 28.8078H36.8667V28.8067Z" fill="#85340A"/>
<path d="M37.1 29.4367C36.855 29.4367 36.75 29.67 36.54 29.7983C36.6567 29.7517 36.75 29.6583 36.925 29.565C37.0883 29.4717 37.2283 29.5883 37.3333 29.5883C37.4267 29.5883 37.5667 29.4717 37.7417 29.565C37.905 29.6583 38.01 29.7517 38.1267 29.7983C37.905 29.6583 37.8117 29.4483 37.5667 29.4483C37.52 29.4483 37.4267 29.4717 37.3333 29.5183L37.1 29.4367Z" fill="#85340A"/>
<path d="M37.0067 29.7283C36.9134 29.7283 36.7967 29.7517 36.61 29.7983C37.0417 29.705 37.135 29.8567 37.3334 29.8567C37.52 29.8567 37.625 29.705 38.045 29.7983C37.5784 29.6583 37.4734 29.7517 37.3334 29.7517C37.24 29.7517 37.17 29.7167 37.0067 29.7283Z" fill="#85340A"/>
<path d="M36.6333 29.7983H36.54C37.0417 29.8567 36.8083 30.1483 37.3333 30.1483C37.8583 30.1483 37.625 29.8567 38.1267 29.7983C37.6017 29.7517 37.765 30.0667 37.3333 30.0667C36.925 30.0667 37.0533 29.7983 36.6333 29.7983Z" fill="#85340A"/>
<path d="M37.765 30.58C37.765 30.342 37.5713 30.1483 37.3333 30.1483C37.0953 30.1483 36.9028 30.342 36.9017 30.58C36.9577 30.342 37.1957 30.1938 37.4348 30.2498C37.5993 30.2883 37.7265 30.4167 37.765 30.58Z" fill="#85340A"/>
<path d="M35.3967 27.71C35.945 27.2317 36.645 27.15 37.03 27.5117C37.1187 27.6283 37.1782 27.7637 37.205 27.9083C37.2517 28.1883 37.17 28.48 36.96 28.7833L37.0533 28.83C37.24 28.4683 37.31 28.095 37.24 27.7333L37.17 27.465C36.645 27.0333 35.9217 26.9983 35.3967 27.6983V27.71Z" fill="#85340A"/>
<path d="M36.26 27.5583C36.575 27.5583 36.645 27.6283 36.785 27.7567C36.925 27.8733 37.0067 27.85 37.0183 27.8733C37.0533 27.8967 37.0183 27.9667 36.9833 27.9433C36.925 27.92 36.8317 27.8733 36.6917 27.7567C36.5517 27.64 36.4 27.64 36.26 27.64C35.8283 27.64 35.595 27.99 35.5483 27.9667C35.49 27.9433 35.7817 27.5583 36.26 27.5583Z" fill="#85340A"/>
<path d="M36.2367 27.71C36.0383 27.71 35.8283 27.8033 35.7117 27.99C35.945 28.2117 36.4817 28.2233 36.8433 27.9667C36.6893 27.8022 36.4735 27.71 36.2483 27.71H36.2367ZM36.2367 27.7567C36.4467 27.7567 36.645 27.85 36.6683 27.9433C36.435 28.2117 36.05 28.1767 35.805 27.99C35.9217 27.8267 36.085 27.7567 36.2483 27.7567H36.2367Z" fill="#843511"/>
<path d="M36.2717 28.1533C36.3877 28.1533 36.4817 28.0593 36.4817 27.9433C36.4817 27.8274 36.3877 27.7333 36.2717 27.7333C36.1557 27.7333 36.0617 27.8274 36.0617 27.9433C36.0617 28.0593 36.1557 28.1533 36.2717 28.1533Z" fill="#85340A"/>
<path d="M35.6884 28.0833C36.0967 28.3983 36.505 28.375 36.7384 28.235C36.9717 28.0833 36.9717 28.0367 36.925 28.0367C36.8784 28.0367 36.8317 28.0833 36.645 28.1883C36.4467 28.2817 36.1667 28.2817 35.6884 28.0833Z" fill="#85340A"/>
</g>
<defs>
<clipPath id="clip0_1_52131">
<rect width="74.6667" height="56" fill="white" transform="translate(0 0.375)"/>
</clipPath>
</defs>
</svg>
