<svg width="75" height="57" viewBox="0 0 75 57" fill="none" xmlns="http://www.w3.org/2000/svg">
<g clip-path="url(#clip0_1_7696)">
<path d="M0 0.375H75V56.625H0V0.375Z" fill="#000066"/>
<path d="M-0.0703125 28.5L74.9297 0.375V56.625L-0.0703125 28.5Z" fill="#BD1021"/>
<path d="M6.99609 28.5L74.9648 3.38672V53.6133" fill="white"/>
<path d="M55.5542 32.0649C56.1466 32.1008 56.1286 32.6931 56.1286 32.6931L58.2468 32.747C58.5161 32.002 58.8033 32.0918 59.3149 32.4598C59.6297 32.674 59.9745 32.8404 60.3381 32.9534C60.5445 31.8943 62.0434 32.1097 62.0434 32.1097C62.6896 30.5839 62.7435 30.6019 62.3575 30.4044C62.1293 30.2897 61.9414 30.1081 61.819 29.8838C61.46 29.444 61.2715 28.8158 61.2266 28.4298C61.1818 28.0439 60.733 28.6183 60.6522 28.5016C60.5714 28.376 59.9073 28.4478 59.9073 28.4478C60.0688 28.6273 59.5123 28.5196 59.5123 28.5196C59.5662 28.5645 59.5123 28.726 59.5123 28.726C59.4585 28.6542 59.0277 28.5824 59.0277 28.5824C58.9933 28.6521 58.9478 28.7158 58.893 28.7709C58.6597 28.6811 58.2019 28.6901 58.2019 28.6901C57.752 28.6727 57.3065 28.7849 56.9185 29.0132C56.73 29.1209 56.0478 29.462 55.4824 30.0095C54.9259 30.548 54.6118 30.4852 54.6118 30.4852C54.4502 31.0955 53.1129 31.8315 53.1129 31.8315C52.8975 32.02 52.2243 32.1097 51.8833 31.8315C51.5422 31.5443 51.8833 31.0237 51.8833 31.0237C52.0179 30.7904 52.1346 30.7993 52.1525 29.9736C52.1615 29.4171 52.7359 28.9684 53.3283 28.3221C54.0553 27.5233 55.0695 26.2129 55.0695 26.2129C55.0695 26.6168 55.2939 26.6796 55.2939 26.6796C55.4914 26.2757 55.7786 25.9436 55.7786 25.9436C55.7965 25.9795 55.8414 25.9975 55.8414 25.9975C56.0658 25.6923 56.2004 25.5757 56.2004 25.5757C56.1286 25.5398 55.4914 25.5757 54.908 26.0873C54.3156 26.5989 53.9207 26.4283 53.9207 26.4283C53.5078 26.2937 53.4719 25.9795 53.4719 25.9795C53.1757 24.6961 54.3425 23.7806 54.3425 23.7806C52.7718 23.4036 53.9027 21.4021 55.8594 20.5494C57.807 19.7057 57.7891 19.3198 57.7891 19.3198C57.8739 19.4295 57.9433 19.5503 57.9955 19.6788C58.0134 19.6698 58.1571 19.4544 59.2879 18.9608C60.4099 18.4582 60.9484 18.0274 60.9484 18.0274C61.092 18.3056 61.0651 18.503 61.0651 18.503C64.1436 17.426 67.1683 14.9488 67.1683 14.9488C67.2581 15.1552 67.2132 15.4694 67.2132 15.4694C67.7158 15.0026 69.5289 13.9256 69.5289 13.9256C69.5558 14.6167 68.9904 14.877 68.9904 14.877C69.0353 14.9642 69.0656 15.0582 69.0801 15.1552C69.6515 14.7948 70.2141 14.4207 70.7675 14.0333C71.2791 14.4731 70.8213 15.1822 70.8213 15.1822C71.0008 15.1552 71.1265 15.0026 71.1265 15.0026C71.2611 15.7476 70.4354 16.4028 70.4354 16.4028C70.579 16.4028 70.8213 16.2592 70.8213 16.2592C70.6598 17.067 69.125 17.9645 69.125 17.9645C69.3494 18.171 69.134 18.4312 68.9455 18.5569C68.766 18.6736 68.4429 18.9339 68.5416 19.0416C68.6403 19.1493 69.3224 18.6646 69.3224 18.6646C69.4391 19.0057 68.5685 19.6788 68.5685 19.6788C69.1788 19.7596 70.8662 18.9877 70.8662 18.9877C70.7316 19.6429 70.0943 20.1545 69.3045 20.4507C68.5147 20.7469 68.5595 20.7918 68.5595 20.7918C68.6942 20.8995 69.7802 20.5853 69.7802 20.5853C69.4571 21.3123 68.3262 21.815 68.3262 21.815C68.6313 22.0842 69.0622 21.7701 69.484 21.4829C69.9956 21.1598 70.548 20.9063 71.1265 20.7289C71.7548 20.5135 72.2125 20.6751 72.2125 20.6751C72.751 20.5046 73.1998 20.7469 73.1998 20.7469C74.214 20.8277 74.3217 21.1957 74.3217 21.1957C74.4294 21.2226 74.5192 21.2675 74.7795 21.4649C75.0398 21.6534 75.0218 22.2458 75.0128 22.542C75.0039 22.8292 74.9231 22.8292 74.8692 22.901C74.8244 22.9907 74.8154 23.0805 74.8154 23.1882C74.8154 23.3049 74.5551 23.996 72.9754 23.996H70.588C70.4533 23.996 70.3008 24.0768 70.3008 24.0768C69.6366 24.4089 69.9866 23.8524 69.1968 24.4986C68.4069 25.1538 68.0031 25.0371 68.0031 25.0371C67.5625 25.4922 67.0818 25.9068 66.567 26.2757C66.1003 26.5809 66.1811 26.545 66.5939 26.7245C67.0068 26.904 67.6261 26.7245 67.6261 26.7245C67.2312 26.9938 67.5094 27.1194 67.5094 27.1194C68.03 26.7963 68.3531 26.913 68.3531 26.913C68.5147 27.3707 67.9133 28.0977 67.9133 28.0977C68.1467 28.1247 68.5865 28.0977 68.5865 28.0977C68.4788 28.4029 68.0479 28.744 67.7248 28.8427C67.4017 28.9504 67.4556 28.9953 67.5543 29.1838C67.644 29.3812 67.5722 29.5787 67.5722 29.5787C67.0068 29.1927 66.9888 29.5338 66.9888 29.5338C66.926 29.9915 66.935 30.6557 66.935 30.6557C66.5401 30.4583 66.5221 30.7186 66.5221 30.7186C66.4144 31.1404 65.9297 31.6161 65.9297 31.6161C65.9118 31.3648 65.6695 31.293 65.6695 31.293C65.4181 31.7777 64.9514 32.0738 64.9514 32.0738C64.8976 32.4867 65.0143 33.0791 65.0143 33.0791C64.7091 33.0163 64.6014 33.0163 64.5565 33.0881C64.5116 33.1599 64.6193 33.1958 64.6193 33.1958L68.5326 33.2945C68.5865 33.2945 68.8198 33.3304 68.8198 33.7433C68.8288 34.1741 68.4788 34.192 68.4788 34.192L64.2065 34.0933C64.2065 34.0933 64.2244 34.21 64 34.3267C63.7756 34.4433 63.8564 34.192 63.7936 34.7216C63.7308 35.2422 62.8781 34.6767 62.8781 34.6767C62.7435 34.8831 62.4114 35.1524 62.4114 35.1524C62.2139 34.569 62.0165 34.3895 61.7113 34.8921C61.4061 35.3947 62.2678 35.305 62.2678 35.305C62.2678 35.305 67.285 34.569 67.5633 34.5421C67.8325 34.5151 68.1287 34.5331 68.2544 34.9101C68.371 35.296 67.644 35.3588 67.644 35.3588L62.4922 35.9153C62.3845 36.2205 61.9536 36.2025 61.9536 36.2025C61.9895 36.4897 61.6844 36.6782 61.5318 36.7769C61.3702 36.8846 60.8766 36.8398 60.8766 36.8398C60.2842 37.2437 59.988 36.9295 59.988 36.9295C59.6021 37.0911 59.3598 37.0193 59.0366 36.8846C58.7135 36.741 58.7405 36.3551 58.7405 36.3551L55.4914 36.6962C55.3956 36.7298 55.3072 36.7816 55.2311 36.8487C55.3478 37.0013 54.9977 37.3424 54.9977 37.3424C55.0964 37.4052 55.2849 37.5937 55.3119 37.9976C55.3388 38.4284 54.7823 38.5002 55.0605 38.8054C55.3298 39.1016 55.8414 38.8503 56.4069 38.581C56.9633 38.3117 57.5198 38.3476 57.7532 38.3476C57.9955 38.3476 58.6686 38.5271 59.0815 38.6708C59.5034 38.8144 59.647 38.7246 59.6739 38.5092C59.7008 38.3028 59.8893 38.2399 59.8893 38.2399C59.8354 38.4464 59.9521 38.5451 59.9521 38.5451C60.1137 38.5451 60.3919 38.3925 60.3919 38.3925C60.365 38.5541 60.1586 38.6528 60.1586 38.6528C59.7547 38.9221 60.3111 38.8233 60.3111 38.8233C61.4331 38.59 61.837 38.6169 62.1242 38.6438C62.6929 38.8155 63.2505 39.0224 63.7936 39.2631C63.8385 39.1195 63.8115 38.7785 63.8115 38.7785C64.1616 38.8772 64.3052 39.0836 64.3052 39.0836C64.4398 38.94 64.3501 38.6887 64.3501 38.6887C65.481 39.326 64.1167 39.6132 63.7487 39.7388C63.3897 39.8555 63.3897 40.0081 63.3897 40.0081C63.6949 39.9183 63.9013 39.8735 64.1526 39.8555C64.4039 39.8376 64.3142 39.8555 64.9155 39.7388C65.5169 39.6132 65.822 39.8735 65.822 39.8735C65.3194 39.9004 65.1758 40.053 65.1758 40.053C65.4899 40.2594 65.1848 40.4479 65.1848 40.4479C64.736 39.8735 64.3411 40.4658 64.3411 40.4658C64.5981 40.4657 64.8522 40.5208 65.0861 40.6274C65.1848 40.6902 65.4271 40.8069 65.7143 40.9415C66.1362 41.13 66.0554 41.0133 66.3785 41.13C66.7016 41.2557 66.576 41.5608 66.576 41.5608C66.4413 41.3095 66.1451 41.2198 66.1451 41.2198C66.1182 41.5608 65.7772 41.6237 65.7772 41.6237C66.199 41.1569 65.2925 40.9505 64.8617 40.9595C64.4398 40.9595 64.1257 41.2377 64.1257 41.2377C64.9783 42.0455 65.5707 41.7762 65.5707 41.7762C65.463 42.0724 64.7629 41.9557 64.7629 41.9557C65.0861 42.2071 65.0502 42.3776 65.0502 42.3776C64.8706 42.2071 64.5924 42.2878 63.9731 41.9019C63.3628 41.498 62.8153 41.6326 62.8153 41.6326C63.4166 42.2609 62.5999 42.6469 62.5999 42.6469C62.2947 42.8264 62.7255 43.0507 62.7255 43.0507C62.3486 43.1225 62.2947 42.7456 62.2947 42.7456C62.0972 42.7007 61.81 42.943 61.81 42.943C61.828 42.5571 62.3396 42.7546 62.3486 42.3417C62.3665 41.9378 61.8818 41.6237 60.4368 41.8211C58.9828 42.0275 58.5609 41.5608 58.5609 41.5608C58.4353 41.5608 58.4173 41.6865 58.4173 41.6865C58.6507 41.9198 58.7584 42.0096 58.7225 42.1712C58.6776 42.3327 58.7943 42.3866 58.7943 42.3866C58.525 42.3686 58.5071 42.0545 58.5071 42.0545C58.5071 42.1891 58.4532 42.1981 58.3635 42.3327C58.2737 42.4673 58.3635 42.6469 58.3635 42.6469C58.2468 42.5481 58.0404 42.4314 58.2378 42.1442C58.3814 41.9288 57.9237 41.6506 57.9237 41.6506C57.7442 41.4711 57.2685 41.6416 57.2685 41.6416C56.2812 41.8301 55.7068 41.2108 55.7068 41.2108C55.5901 41.2108 55.3747 41.148 55.3747 41.148C54.3335 41.6147 53.418 40.6094 53.418 40.6094C52.6282 40.753 52.2692 40.3761 52.0358 39.9991C51.9017 39.7409 51.6876 39.5331 51.4255 39.4067C51.1114 39.2272 50.8152 38.6797 51.1114 38.3925C51.3627 38.1412 51.2909 38.0874 51.2909 38.0874C50.878 37.3962 52.0089 37.1808 52.0358 37.0103C52.0628 36.7769 52.3051 36.6244 52.5564 36.6064C52.8167 36.5885 52.8167 36.6064 52.9872 36.4449C53.1488 36.2653 53.4719 36.4808 53.4719 36.4808C53.5437 36.4359 54.1002 35.9961 54.6028 36.2205C55.1054 36.4449 55.5183 36.2923 55.5183 36.2923C55.8773 36.2115 58.8033 35.8166 58.8033 35.8166C58.9828 35.5294 59.1264 35.1883 59.9342 35.0088C60.742 34.8293 61.3433 34.3087 61.3433 34.3087C61.1997 34.1561 60.9574 34.1651 60.8407 34.1472C60.715 34.1382 60.4637 33.9138 60.4637 33.9138C60.3111 33.9856 60.2393 33.9497 59.1802 34.5959C58.2289 35.1704 58.2019 34.0305 58.2019 34.0305H56.1376C56.1017 34.4703 55.7786 34.6408 55.7786 34.6408L55.0157 34.6767C54.6028 34.4613 54.5938 33.7163 54.5938 33.7163C52.323 33.7522 51.0665 34.56 51.0665 34.56C48.4906 33.2496 46.4801 32.9445 46.4801 32.9445C49.6035 32.6124 51.255 31.7417 51.255 31.7417C52.2673 32.3564 53.4123 32.7196 54.5938 32.8008C54.6566 32.1726 55.0785 32.02 55.0785 32.02L55.5542 32.0649Z" fill="black"/>
<path d="M51.8294 37.2437C51.1832 37.6206 51.2999 37.836 51.3627 37.9527C51.4165 38.0694 51.4255 38.1861 51.246 38.3656C51.0665 38.5451 51.0845 38.6079 51.0845 38.6079C51.1114 39.2362 51.5601 39.3708 51.7486 39.5324C51.9102 39.658 52.1705 40.0709 52.1705 40.0709C52.5115 40.5466 52.8616 40.5556 53.1219 40.5556C53.3911 40.5556 53.3642 40.5287 53.2296 40.412L52.8436 40.0889C53.1017 40.2022 53.3339 40.3671 53.5258 40.5735C54.1899 41.3005 54.8003 41.2018 55.0695 41.1749C55.3388 41.139 55.2939 40.9774 55.2939 40.9774C55.276 40.9505 55.0246 40.9325 55.0246 40.9325C54.0194 40.8428 53.7232 40.1876 53.7232 40.1876C54.2305 40.6318 54.8799 40.8801 55.5542 40.8877C55.8414 40.8697 55.8235 40.9595 55.7606 40.9774C55.6978 40.9864 55.617 40.9774 55.4824 40.9595C55.3478 40.9595 55.3478 40.9864 55.3747 41.0492C55.4106 41.0941 55.5362 41.1031 55.6888 41.0941C55.8504 41.0941 55.7247 41.1121 56.1376 41.4262C56.5505 41.7493 57.5737 41.489 57.5737 41.489C56.9095 41.3275 56.8197 41.0223 56.8197 41.0223C55.9222 41.13 55.5542 40.5915 55.5542 40.5915C55.3926 40.4299 54.908 40.1786 54.908 40.1786C54.4053 39.9632 54.3246 39.5055 54.3246 39.5055C54.4682 39.7119 54.7464 39.9453 55.0965 40.044C55.4555 40.1337 55.5452 40.1876 55.5452 40.1876C55.4548 40.2065 55.3608 40.1971 55.276 40.1607C54.9259 40.053 55.1234 40.1966 55.1234 40.1966C55.5183 40.5107 55.626 40.4838 55.626 40.4838C56.6402 40.5915 56.1376 40.1786 56.1376 40.1786C56.8556 40.3581 56.9813 40.0889 56.9813 40.0889C57.1339 40.403 57.6814 40.2863 57.6814 40.2863C56.9544 40.6453 57.5019 40.5376 57.5019 40.5376C58.2468 40.403 58.3994 40.5915 58.3994 40.5915C58.5879 40.771 58.7943 40.753 58.7943 40.753C58.7943 40.753 58.9289 40.753 59.2072 40.8069C59.4854 40.8607 59.9252 41.1031 60.3291 41.0582C60.733 41.0043 60.8048 41.13 60.8048 41.13C60.724 41.1031 60.5445 41.0761 60.2304 41.2198C59.9162 41.3634 59.3687 41.3993 58.5699 41.2198C57.7711 41.0402 57.7083 41.0582 57.7083 41.0582C57.8968 41.1928 58.0673 41.3993 58.1032 41.5339C58.1391 41.6685 58.2827 41.6775 58.2827 41.6775C58.3366 41.498 58.5699 41.4262 58.5699 41.4262C58.7315 41.5698 59.1533 41.7583 59.1533 41.7583C59.1982 41.6685 59.1533 41.5967 59.1533 41.5967C59.4585 41.8929 59.8175 41.8032 59.8175 41.8032C59.9073 41.7403 59.8803 41.5698 59.8803 41.5698C60.006 41.5698 60.0239 41.6416 60.1137 41.7044C60.2034 41.7583 60.4727 41.7224 60.4727 41.7224C60.374 41.6775 60.2932 41.5249 60.2932 41.5249C60.7061 41.2467 61.5767 41.3634 61.5767 41.3634C62.205 41.48 62.1332 41.8929 62.1332 41.8929C62.2588 41.9468 62.4293 42.1442 62.4293 42.1442C62.4832 42.0006 62.4293 41.848 62.4293 41.848C62.7255 41.9827 62.7884 42.3237 62.7884 42.3237C63.1204 41.9378 62.4652 41.5159 62.4652 41.5159C62.7794 41.4711 63.1294 41.498 63.3448 41.5249C63.6264 41.575 63.8897 41.6988 64.1077 41.8839C64.3591 42.0814 64.7988 42.1801 64.7988 42.1801C64.7899 42.0904 64.5475 41.9468 64.4937 41.9198C64.4398 41.8929 64.4219 41.8121 64.4219 41.8121C64.6373 41.857 64.7809 41.8301 64.7809 41.8301C64.027 41.3634 63.8295 41.148 63.8295 41.148C64.1167 41.1839 64.2783 41.0043 64.2783 41.0043C63.6769 41.0133 63.65 40.8607 63.65 40.8607C63.7308 40.8787 64.009 40.9505 64.368 40.8787C64.727 40.8069 65.2207 40.8787 65.2207 40.8787C64.9604 40.4568 63.9552 40.5287 63.632 40.5466C63.3089 40.5646 63.1833 40.5197 63.1833 40.5197C63.2371 40.5017 63.291 40.4479 63.5423 40.4389C63.7936 40.4389 64.0449 40.4658 64.3321 40.2594C64.6104 40.0709 65.0053 40.1337 65.0053 40.1337C64.9155 39.9453 64.4578 39.8734 64.0629 40.1337C63.659 40.385 63.3 40.3132 63.3 40.3132C63.9282 40.2235 64.1077 39.9991 64.1077 39.9991C63.9282 39.9453 63.8205 40.0081 63.4346 40.0889C63.0576 40.1607 62.9589 40.026 62.9589 40.026C63.3718 39.7837 63.668 39.685 63.668 39.685C63.3089 39.6042 62.9858 39.4516 62.9858 39.4516C62.6178 39.8016 62.3306 39.9901 61.6216 39.6311C60.9125 39.2541 60.5445 39.299 60.5445 39.299C61.1728 38.94 61.8011 39.0926 62.2678 39.3708C62.7345 39.6401 62.8691 39.4247 62.8691 39.4247C62.7166 39.3349 62.7435 39.2452 62.7435 39.2452C63.8654 39.8196 64.3591 39.4696 64.6014 39.299C64.8527 39.1285 64.4847 38.9041 64.4847 38.9041C64.4668 39.2631 64.009 39.4426 63.641 39.317C63.282 39.1913 62.9499 39.0387 62.4293 38.8144C61.9088 38.5989 61.2625 38.7156 60.6522 38.8413C60.0419 38.9669 59.9701 38.9041 59.9073 38.8592C59.8534 38.8144 59.8265 38.6618 59.5123 38.7874C59.2072 38.9221 58.4802 38.581 58.0314 38.4733C57.5826 38.3656 56.8467 38.4194 56.2094 38.7695C55.5811 39.1285 55.258 39.0387 55.0695 38.949C54.881 38.8592 54.7554 38.6259 54.9618 38.4105C55.1683 38.1951 55.1862 38.1412 55.1683 37.8271C55.1503 37.5219 54.8451 37.3334 54.8451 37.3334C55.1234 37.0462 55.1952 36.9744 55.0965 36.8577C55.0067 36.7321 55.1503 36.7321 55.3119 36.6603C55.4734 36.5885 55.4016 36.5795 55.3657 36.4808C55.3298 36.391 55.2311 36.4089 55.2311 36.4089C54.8631 36.4269 54.6567 36.3192 54.6567 36.3192C54.0463 36.041 53.4719 36.5885 53.4719 36.5885C53.1219 36.3192 53.0411 36.4987 52.9783 36.5615C52.9244 36.6244 52.7988 36.6692 52.6372 36.6872C52.4846 36.7051 52.2602 36.759 52.1884 36.9026C52.1884 36.9026 52.1166 37.0103 52.1974 37.136C52.1974 37.136 52.2872 37.2796 52.1256 37.4501C51.9461 37.6296 51.8833 37.6655 51.9461 37.836C51.991 37.9976 51.982 38.1232 51.9102 38.231C51.9102 38.231 51.8294 38.1412 51.8563 38.0245C51.8743 37.9168 51.8743 37.845 51.8474 37.7912C51.8474 37.7912 51.6768 37.9527 51.6499 38.0784C51.6499 38.0784 51.5781 37.8899 51.8294 37.6386C52.0717 37.3962 52.1884 37.2706 52.1166 37.1719C52.0628 37.1001 51.8833 37.2167 51.8384 37.2437H51.8294Z" fill="#FFC221"/>
<path d="M52.5474 39.9812C52.5474 39.9812 52.2333 39.7478 52.2692 39.4157C52.3051 39.0926 52.3051 39.0567 52.2692 38.9759C52.2692 38.9759 52.2064 39.0118 52.2153 39.1375C52.2153 39.2631 52.1974 39.3888 52.1884 39.4067C52.1884 39.4067 52.0268 39.1375 51.955 39.0836C51.955 39.0836 52.0179 38.7964 51.9281 38.6797C51.8384 38.5541 51.7486 38.5451 51.6499 38.59C51.5063 38.6348 51.3986 38.7695 51.8743 39.1554C51.8743 39.1554 52.0538 39.299 52.1704 39.6042C52.2961 39.9183 52.5025 39.9632 52.5384 39.9812H52.5474ZM54.0732 39.0746C54.0732 39.0746 54.0553 38.8951 54.2258 38.563C54.282 38.4638 54.3138 38.3526 54.3184 38.2387C54.3231 38.1248 54.3006 38.0113 54.2527 37.9078C54.2168 37.8181 54.1899 37.854 54.3604 37.7104C54.5669 37.5309 54.2797 37.3155 54.6297 37.0103C54.6297 37.0103 54.8451 36.8218 54.899 36.741C54.899 36.741 54.54 36.9295 54.2976 37.0282C54.0643 37.127 53.1667 37.5668 53.3642 37.863C53.5616 38.1591 53.5437 38.1771 53.5078 38.3028C53.5078 38.3028 52.9693 38.0155 53.1667 37.5578C53.1667 37.5578 53.2475 37.3783 53.4719 37.1629C53.6783 36.9744 53.5616 37.2078 53.9745 36.9654C53.9745 36.9654 54.2976 36.768 54.4771 36.5077C54.4771 36.5077 54.2527 36.6423 54.1809 36.6692C54.1809 36.6692 53.6963 36.759 53.4988 36.9564C53.3103 37.1629 52.8975 37.5129 53.0321 37.9078C53.0321 37.9078 52.5564 37.854 52.4487 37.3514C52.4487 37.3514 51.5511 38.4464 53.427 38.9669C53.427 38.9669 53.7681 39.0567 54.0822 39.0746H54.0732Z" fill="black"/>
<path d="M62.2947 35.4037C62.9948 35.305 67.0337 34.6857 67.4107 34.6498C67.8056 34.6139 67.9582 34.56 68.0928 34.8831C68.2454 35.2421 67.5364 35.2511 67.5364 35.2511L62.7166 35.7986C62.4832 35.8255 62.4294 35.7358 62.4294 35.7358L62.2498 35.4935C62.2498 35.4935 62.187 35.4217 62.2947 35.4037Z" fill="#FFC221"/>
<path d="M52.4218 37.6027C52.4218 37.6027 51.9012 38.6977 53.9476 38.9669C53.9476 38.9669 53.9566 38.8503 54.0373 38.6708C54.1271 38.5002 54.3066 38.1502 54.1271 37.9258C53.9655 37.7014 54.2707 37.8181 54.3066 37.5219C54.3605 37.2347 54.2797 37.2706 54.4233 37.0821C54.4233 37.0821 53.786 37.3155 53.5347 37.6027C53.2924 37.8809 53.8668 38.0963 53.5347 38.4105C53.5347 38.4105 53.2385 38.3028 53.068 37.9886C53.068 37.9886 52.6731 37.9976 52.4218 37.6027Z" fill="#5A3719"/>
<path d="M54.4323 38.949C54.4323 38.949 54.9349 39.3888 55.5362 39.3708C56.1376 39.3439 56.3979 39.1913 56.5505 38.949C56.5505 38.949 56.6671 39.1285 56.6671 39.2542C56.6671 39.2542 57.1877 38.8233 58.0852 39.2003C58.9828 39.5773 58.7135 39.4696 58.911 39.4965C58.911 39.4965 58.525 39.4337 57.6544 39.8286C56.7569 40.2414 54.4053 40.0978 54.4233 38.949H54.4323Z" fill="black"/>
<path d="M53.5886 37.0103C53.5886 37.0103 53.813 37.0462 54.0374 36.7859C54.0374 36.7859 53.7322 36.8487 53.5886 37.0103ZM51.8653 39.0477C51.8653 39.0477 51.4435 38.7156 51.7127 38.6528C51.7127 38.6528 51.9102 38.6169 51.8653 39.0477Z" fill="#5A3719"/>
<path d="M61.074 41.13C61.074 41.13 61.3074 40.7261 61.9536 40.7261C62.5999 40.7261 62.6717 41.0313 63.4974 41.0851C63.4974 41.0851 62.5101 41.3544 61.828 41.1121C61.469 40.9774 61.1458 41.0851 61.074 41.13Z" fill="black"/>
<path d="M54.6477 39.2452C54.6477 39.2452 55.626 39.8286 56.4876 39.1913C56.4876 39.1913 56.5594 39.2631 56.6223 39.4157C56.6223 39.4157 57.2775 38.7874 58.4443 39.4696C58.4443 39.4696 58.3007 39.4516 57.7532 39.685C57.0351 39.9991 55.2401 40.2055 54.6477 39.2362V39.2452Z" fill="#5A3719"/>
<path d="M58.3994 39.8376C58.3994 39.8376 59.3329 39.9453 60.1137 39.9004C60.5984 39.8735 61.1279 39.7837 60.8676 39.9453C60.5984 40.1068 60.733 40.1248 61.846 40.026C62.9589 39.9183 61.837 40.2325 62.5999 40.3312C62.5999 40.3312 60.742 41.2826 58.3994 39.8376Z" fill="black"/>
<path d="M60.8407 39.2452C60.8407 39.2452 61.3882 39.0477 61.8998 39.2811C62.4024 39.5234 62.3216 39.5414 62.6627 39.5773C62.6627 39.5773 62.4293 39.9094 61.8729 39.6401C61.3164 39.3708 61.1638 39.317 60.8407 39.2452ZM61.451 40.9236C61.451 40.9236 61.9896 40.6543 62.5819 40.9325C62.6537 40.9685 62.8153 41.0403 62.9679 41.0672C62.9679 41.0672 62.5191 41.2108 62.0524 41.0672C61.8549 41.0044 61.7023 40.9595 61.451 40.9236ZM58.7943 39.9632C58.7943 39.9632 59.997 40.0709 60.6432 39.9453C60.6432 39.9453 59.8893 40.3043 61.7831 40.1427C61.7831 40.1427 62.196 40.0978 62.1421 40.1607C62.0973 40.2235 62.0614 40.2773 62.2678 40.3402C62.2678 40.3402 60.8676 40.9685 58.7943 39.9632Z" fill="#5A3719"/>
<path d="M52.8167 38.949C52.8167 38.949 52.8346 39.0387 53.0949 39.1554C53.3642 39.2811 53.5078 39.4875 53.5617 39.6042C53.6026 39.6869 53.6605 39.7601 53.7317 39.8188C53.8028 39.8776 53.8856 39.9207 53.9745 39.9453C53.9745 39.9453 53.0321 40.1427 52.6192 39.6491C52.6192 39.6491 52.2961 39.299 52.8077 38.949" fill="black"/>
<path d="M60.2034 41.1121C60.2034 41.1121 59.8354 41.0851 59.3238 40.9146C58.8212 40.7351 58.6866 40.8877 58.3994 40.6723C58.1122 40.4569 57.5377 40.5915 57.43 40.6094C57.3223 40.6184 57.0172 40.6094 57.3941 40.3581C57.3941 40.3581 57.089 40.3581 56.9723 40.1966C56.9723 40.1966 56.8377 40.3312 56.3171 40.2863C56.3171 40.2863 56.5504 40.6453 55.626 40.5376C55.7814 40.7191 55.9873 40.8501 56.2175 40.9141C56.4477 40.978 56.6917 40.9719 56.9184 40.8966C56.9184 40.9056 56.8556 41.1839 57.2775 41.2916C57.7172 41.3993 57.798 41.48 58.0224 41.5698C58.0224 41.5698 58.0493 41.3903 57.4839 40.9774C57.4839 40.9774 57.789 40.9595 58.2288 41.0672C58.6686 41.1749 59.6649 41.4262 60.2034 41.1121ZM60.4368 41.5429C60.4368 41.5429 60.5265 41.7583 60.8138 41.7044C61.092 41.6596 61.5587 41.5788 62.0075 41.8032C62.0075 41.8032 62.0883 41.4262 61.1817 41.3993C61.1817 41.3993 60.6163 41.4262 60.4368 41.5429ZM52.7898 39.0836C52.7898 39.0836 52.4397 39.3708 52.7539 39.667C53.0411 39.9363 53.4898 39.9183 53.7052 39.9094C53.7052 39.9094 53.5706 39.8376 53.4629 39.667C53.3462 39.4965 53.3462 39.3798 53.1039 39.2721C52.8616 39.1644 52.8346 39.1375 52.7898 39.0836ZM52.4307 37.6027C52.4307 37.6027 51.9012 38.6977 53.9566 38.9669C53.9566 38.9669 53.9566 38.8503 54.0463 38.6708C54.1181 38.5002 54.2976 38.1502 54.1361 37.9258C53.9566 37.7014 54.2707 37.8181 54.3156 37.5219C54.3605 37.2347 54.2797 37.2706 54.4233 37.0821C54.4233 37.0821 53.786 37.3155 53.5347 37.6027C53.2924 37.8809 53.8668 38.0963 53.5347 38.4105C53.5347 38.4105 53.2385 38.3028 53.068 37.9976C53.068 37.9976 52.6731 37.9976 52.4218 37.6027H52.4307Z" fill="#5A3719"/>
<path d="M57.807 40.1337C57.807 40.1337 58.2378 40.0619 59.3328 40.4748C60.4278 40.8787 60.8856 40.78 61.0471 40.771C61.0471 40.771 60.4278 41.0941 59.4764 40.6723C58.6327 40.2953 58.5789 40.4389 57.807 40.1337Z" fill="black"/>
<path d="M64.6642 39.8914C64.6642 39.8914 64.9065 39.8824 65.0591 39.9453C65.0591 39.9453 65.1489 39.8645 65.3822 39.8376C65.3822 39.8376 65.2297 39.6939 64.6642 39.8914ZM63.9103 39.2811C63.9103 39.2811 64.1616 39.2721 64.2424 39.1464C64.2424 39.1464 64.1077 38.9939 63.9193 38.9131C63.9193 38.9131 63.9552 39.0926 63.9193 39.2811H63.9103ZM55.5093 36.4897C55.5093 36.4897 55.4555 36.3641 55.7247 36.3282L59.3867 35.7986C59.3867 35.7986 59.5662 35.7986 59.5931 35.9153C59.62 36.0499 59.5752 36.1397 58.7494 36.2384C57.9327 36.3282 55.7516 36.6064 55.7516 36.6064C55.7516 36.6064 55.5273 36.6423 55.5093 36.4897Z" fill="#FFC221"/>
<path d="M58.8302 36.3371C58.8302 36.3371 58.8302 36.8218 59.3238 36.8936C59.7995 36.9654 59.9611 36.8667 60.0868 36.6154C60.1227 36.5436 60.2663 36.041 60.0598 36.0051C59.9701 35.9871 59.8265 36.0051 59.7188 36.041C59.5572 36.1128 59.4046 36.1935 59.4495 36.2743C59.5752 36.4538 59.5931 36.4987 59.5572 36.5077C59.4315 36.5436 59.3508 36.4359 59.3238 36.3641C59.2969 36.2743 59.3867 36.2205 59.0725 36.2743C58.9379 36.2833 58.8302 36.2833 58.8302 36.3371Z" fill="#FFC221"/>
<path d="M60.8766 35.9692C61.1189 35.9961 61.101 36.5256 60.8048 36.768C60.4817 37.0283 60.1765 36.9295 60.1765 36.9295C60.006 36.8667 60.0329 36.8846 60.1586 36.6962C60.2753 36.5167 60.3381 36.2743 60.2663 36.1038C60.2483 36.0499 60.3022 36.0051 60.383 35.9871C60.383 35.9871 60.6163 35.9422 60.8766 35.9692Z" fill="#FFC221"/>
<path d="M61.092 36.014C61.092 36.014 61.2715 36.2384 61.0471 36.6513C61.0471 36.6513 60.9484 36.777 61.1728 36.759C61.3882 36.741 61.8908 36.5077 61.837 36.2025C61.837 36.2025 61.819 36.1307 61.6844 36.1307C61.5587 36.1397 61.6664 36.0679 61.7203 36.041C61.7742 36.041 61.9447 35.9692 61.5049 35.682C61.5049 35.682 61.4331 35.6191 61.3433 35.6461C61.2805 35.673 61.0471 35.7627 61.0471 35.9063C61.0471 35.9602 61.092 36.014 61.092 36.014Z" fill="#FFC221"/>
<path d="M61.5677 35.6371C61.5677 35.6371 61.9267 35.8884 61.9178 35.9602C61.9178 36.032 61.8819 36.1397 61.9806 36.1217C62.0703 36.1217 62.4473 36.032 62.3396 35.7897C62.2409 35.5383 62.1332 35.4486 61.9626 35.3858C61.7831 35.3229 61.7383 35.4037 61.5857 35.5204C61.5857 35.5204 61.478 35.5922 61.5677 35.6371ZM59.6829 35.9871C59.6829 35.9871 59.7367 35.8076 59.4226 35.7358C59.4226 35.7358 59.5572 35.6191 59.8265 35.6819C60.0868 35.7358 60.0599 35.9153 60.0599 35.9333C60.0599 35.9333 59.8534 35.9333 59.6829 35.9871ZM60.365 35.9422C60.365 35.9422 60.724 35.8794 60.8856 35.8974C60.8856 35.8974 60.7061 35.5024 60.2214 35.6281C60.2214 35.6281 60.4009 35.8345 60.365 35.9422ZM60.9843 35.8525C60.9843 35.8525 60.9843 35.7178 61.2895 35.6012C61.2895 35.6012 61.1459 35.4576 60.9305 35.4755C60.6971 35.4845 60.6433 35.5653 60.6433 35.5653C60.6433 35.5653 60.9125 35.664 60.9843 35.8435V35.8525ZM61.101 35.4217C61.101 35.4217 61.2985 35.4755 61.4151 35.5742C61.4151 35.5742 61.5947 35.3768 61.7472 35.3409C61.7472 35.3409 61.451 35.1793 61.101 35.4306V35.4217Z" fill="#FFC221"/>
<path d="M51.0665 34.4613C51.0665 34.4613 51.9102 33.7433 52.3859 33.833C52.8526 33.9228 52.6192 33.8599 53.1308 33.7792C53.6514 33.6984 54.181 33.6445 54.3964 33.6714C54.3964 33.6714 53.7681 33.2227 52.6551 33.2317C52.6551 33.2317 51.8743 33.5009 51.3268 33.8599C51.3268 33.8599 50.2856 33.2855 49.2086 33.6266C49.2086 33.6266 50.3754 34.0574 51.0665 34.4613Z" fill="#5A3719"/>
<path d="M60.0239 35.6999L60.1675 35.673C60.1675 35.673 60.4009 35.9692 60.2304 35.9692C60.0957 35.9692 60.1406 35.9333 60.1227 35.8435C60.1066 35.786 60.0718 35.7355 60.0239 35.6999ZM58.9648 35.7179C58.9648 35.7179 58.8751 35.8256 59.0366 35.8076C59.2341 35.7717 59.1982 35.8076 59.4046 35.664C59.4046 35.664 59.5393 35.5294 59.7816 35.6101C59.7816 35.6101 59.988 35.682 60.1496 35.6012C60.3201 35.5114 60.356 35.5204 60.4458 35.5294C60.5355 35.5383 60.5355 35.5563 60.6432 35.4665C60.7689 35.3768 60.9753 35.4486 61.101 35.3409C61.2356 35.2332 61.3972 35.3229 61.101 35.1165C61.101 35.1165 61.0381 35.0537 61.0471 34.9998C61.0471 34.9998 61.1638 35.0357 61.2536 35.1165C61.3433 35.1973 61.4869 35.1704 61.5138 35.1524C61.5138 35.1524 61.5318 34.8921 61.7831 34.6498C62.0524 34.4074 62.0524 34.3895 61.8998 34.3895C61.7472 34.3895 61.4869 34.3267 61.3972 34.3895C61.3074 34.4523 60.5535 34.9549 60.1047 35.0357C59.6559 35.1255 59.252 35.2511 58.9648 35.7179ZM47.0994 32.9804C47.0994 32.9804 48.4636 33.3304 48.7688 33.474C48.7688 33.474 48.8406 33.2496 48.2213 33.0701C48.2213 33.0701 49.7292 33.0252 51.3178 33.7522C51.3178 33.7522 52.0897 33.0881 54.5669 33.2945C54.5669 33.2945 54.5669 33.0791 54.5848 32.9086C54.5848 32.9086 52.8526 32.8547 51.255 31.8854C51.255 31.8854 49.8189 32.5944 47.0994 32.9804ZM54.6836 33.6356C54.5938 32.2444 55.1234 32.1097 55.1234 32.1097C55.1234 32.1097 55.3747 32.1187 55.6439 32.1636C55.6439 32.1636 55.2221 32.6662 55.3388 33.6625C55.3388 33.6625 55.3836 33.824 55.0246 33.824C54.6656 33.824 54.6836 33.6445 54.6836 33.6445V33.6356Z" fill="#FFC221"/>
<path d="M55.0516 34.56C55.0516 34.56 54.7823 34.2908 54.7644 33.9856C54.7644 33.9856 54.7554 33.9138 55.0157 33.9138C55.2849 33.9228 55.3118 33.8958 55.3747 34.0484C55.4375 34.192 55.608 34.5062 55.6439 34.5421L55.0516 34.56Z" fill="#5A3719"/>
<path d="M55.608 33.8599C55.585 33.6844 55.5759 33.5073 55.5811 33.3304C55.5991 32.5585 55.7247 32.6213 55.7786 32.7201H56.0478C56.0478 32.7201 55.8504 31.8494 55.617 32.361C55.4421 32.7457 55.3799 33.1721 55.4375 33.5907C55.4554 33.824 55.4824 33.9676 55.5093 34.0484L55.608 33.8599Z" fill="#FFC221"/>
<path d="M58.6148 33.8599C58.6148 33.8599 59.1264 33.9497 58.3455 34.1292C58.3455 34.1292 58.3814 35.0806 59.3059 34.4164C59.3059 34.4164 59.8624 34.0664 60.2393 33.9228C60.2393 33.9228 60.4278 33.8599 60.4099 33.7163C60.4099 33.7163 60.4278 33.5368 60.2304 33.5817C60.2304 33.5817 60.0688 33.5817 59.9611 33.5458C59.9611 33.5458 59.8534 33.4112 59.7816 33.456C59.7098 33.5099 59.5303 33.483 59.6739 33.6535C59.8085 33.8151 59.8534 33.7702 59.9162 33.7253C59.979 33.6804 60.2752 33.5637 60.006 33.8061C59.7367 34.0484 59.5213 33.6715 59.4316 33.5996L58.6148 33.8599ZM56.0389 33.9766H55.8145C55.8145 33.9766 55.6888 34.1561 55.608 33.8599L55.5183 34.0484C55.5183 34.0484 55.7875 35.0716 56.0389 33.9766Z" fill="#5A3719"/>
<path d="M55.7158 32.7919C55.7158 32.7919 55.5991 33.465 55.7517 33.8689L58.2199 33.9228C58.2199 33.9228 58.193 33.4471 58.2199 32.7919H57.8788C57.8788 32.7919 57.825 33.3304 57.8788 33.6625H57.816C57.816 33.6625 57.7711 33.2047 57.816 32.7919H57.5288C57.5288 32.7919 57.4839 33.2945 57.5198 33.6715H57.466C57.466 33.6715 57.4211 33.2317 57.466 32.7919H57.1877C57.1877 32.7919 57.1339 33.2406 57.1877 33.6625H57.1159C57.1159 33.6625 57.0621 33.2137 57.1159 32.7919H56.8018C56.8018 32.7919 56.73 33.2137 56.8018 33.6715H56.7389C56.7389 33.6715 56.6671 33.2406 56.7389 32.7919H56.4248C56.4248 32.7919 56.353 33.2765 56.4248 33.6715H56.353C56.353 33.6715 56.3081 33.2047 56.371 32.7919H56.0748C56.0748 32.7919 55.994 33.1958 56.0658 33.6715H55.994C55.994 33.6715 55.9491 33.3125 56.0119 32.7919H55.7158ZM58.3276 34.0125C58.3276 34.0125 58.2648 32.8098 58.4892 32.4867C58.7225 32.1816 58.7764 32.2444 59.1713 32.4867C59.5662 32.747 60.0688 33.0163 60.1586 33.0432C60.2393 33.0791 60.356 33.106 60.356 33.3304C60.356 33.5458 60.3919 33.6086 60.0509 33.3304C60.006 33.2945 59.8444 33.1509 59.7278 33.115C59.4226 33.0163 59.7996 33.1778 59.9073 33.3394C59.997 33.465 60.0778 33.4561 59.8355 33.5189C59.3279 33.6679 58.825 33.8325 58.3276 34.0125Z" fill="#FFC221"/>
<path d="M59.1892 33.1419C59.1892 33.1419 59.0097 32.9265 59.2431 32.8726C59.4675 32.8188 59.4854 33.2317 59.5303 33.474C59.5662 33.7253 59.2431 33.2227 59.1982 33.1509L59.1892 33.1419ZM58.8661 34.201C58.8661 34.201 58.5969 34.2997 58.7764 34.3805C58.9469 34.4703 59.4316 34.0664 59.27 34.0933C59.0905 34.1202 58.8661 34.201 58.8661 34.201ZM59.2251 33.833C59.2251 33.833 59.4585 33.8061 59.4046 33.9048C59.3687 34.0125 59.279 33.9497 59.2431 33.9228C59.2072 33.9048 59.0456 33.842 59.2251 33.833Z" fill="black"/>
<path d="M60.4727 33.5099C60.4727 33.5099 60.5355 33.9766 60.9305 34.0933C60.9305 34.0933 61.1638 34.1472 61.11 33.9497C61.11 33.9497 61.0741 33.7702 61.0471 33.7074C61.0112 33.6356 60.8497 33.5907 60.8317 33.5817C60.8138 33.5817 60.7958 33.5278 60.9035 33.5638C61.0112 33.5997 61.0292 33.6086 61.0202 33.5278C61.0202 33.4471 60.9484 33.483 60.8497 33.4381C60.8138 33.4112 60.8497 33.3842 60.8946 33.3932C60.9394 33.4022 61.0382 33.4381 61.0382 33.2765C61.0382 33.2765 61.0561 33.1868 60.9394 33.1868C60.8048 33.1778 60.8138 33.115 60.8497 33.106C60.8946 33.106 61.0292 33.1958 61.0741 33.0342C61.11 32.8816 60.8856 32.9714 60.9125 32.8906C60.9484 32.8008 61.11 32.9355 61.1189 32.8367C61.1369 32.747 61.2626 32.7021 61.0382 32.6662C60.9394 32.6572 61.0382 32.6034 61.1549 32.6213C61.2805 32.6393 61.3523 32.4867 61.4241 32.4329C61.5049 32.379 61.9178 32.1367 61.3613 32.2174C60.8138 32.2982 60.6433 32.5675 60.6163 32.6213C60.4784 32.899 60.4283 33.2121 60.4727 33.5189V33.5099Z" fill="#FFC221"/>
<path d="M61.7652 33.8689C61.837 33.8599 61.8998 33.8689 61.9267 33.9228C62.0165 34.1113 61.81 34.0484 61.6934 34.1831C61.5767 34.3177 61.5677 34.2908 61.4062 34.2459C61.2446 34.192 61.1818 33.9497 61.1818 33.9497C61.1638 33.8689 61.2356 33.8599 61.3164 33.8779C61.3164 33.8779 61.5857 33.9048 61.7652 33.8779V33.8689ZM61.1638 33.7792C61.1638 33.7792 61.1728 33.824 61.2715 33.833C61.3613 33.842 61.6305 33.8689 61.8011 33.8151C61.8011 33.8151 61.8549 33.8061 61.828 33.6984C61.828 33.6984 61.828 33.6266 61.6844 33.6535C61.5318 33.6804 61.3254 33.6535 61.2536 33.6445C61.1818 33.6266 61.1279 33.6445 61.1638 33.7702V33.7792ZM61.1459 33.4381C61.1459 33.4381 61.1369 33.5817 61.2805 33.5997C61.4331 33.6176 61.6126 33.6176 61.6844 33.5997C61.7472 33.5997 61.8549 33.5727 61.8639 33.483C61.8639 33.3932 61.8908 33.3394 61.7113 33.3842C61.5318 33.4291 61.3164 33.3932 61.2895 33.3842C61.2715 33.3842 61.1459 33.3483 61.1459 33.4381ZM61.2087 33.1419C61.2087 33.1419 61.1728 33.2137 61.1818 33.2765C61.1818 33.3394 61.2895 33.3663 61.478 33.3663C61.6664 33.3663 61.837 33.3394 61.8549 33.2765C61.8639 33.2047 61.9088 33.1329 61.7652 33.1599C61.6126 33.1778 61.4241 33.1868 61.3433 33.1599C61.2715 33.124 61.2177 33.115 61.2087 33.1419Z" fill="#FFC221"/>
<path d="M68.2185 33.8869C68.2185 33.8869 68.2185 34.0125 68.3172 34.1471L63.0217 33.9946C63.0217 33.9946 63.0935 33.9497 63.1115 33.7433L68.2185 33.8869Z" fill="#5A3719"/>
<path d="M61.2536 32.9265C61.2536 32.9265 61.2087 33.0611 61.2985 33.0881C61.3882 33.115 61.5588 33.1419 61.7742 33.106C61.7742 33.106 61.8819 33.106 61.9178 32.9983C61.9626 32.8816 61.9537 32.9445 61.6485 32.8906C61.6485 32.8906 61.5588 32.8547 61.828 32.8547C61.828 32.8547 61.9896 32.8547 62.0075 32.8367C62.0345 32.8098 62.2409 32.6393 61.9716 32.6572C61.7024 32.6572 61.837 32.6034 61.9716 32.6034C62.1152 32.6034 62.1511 32.6393 62.196 32.5944C62.2409 32.5495 62.196 32.5765 62.1242 32.5047C62.0524 32.4329 62.1062 32.4508 62.1601 32.4957C62.214 32.5316 62.2499 32.5495 62.3037 32.4957C62.3665 32.4418 62.2588 32.3611 62.3037 32.37C62.3486 32.379 62.3755 32.4688 62.546 32.388C62.7256 32.2982 62.9589 32.3431 63.0217 32.388C63.0846 32.4418 63.2641 32.5047 63.3808 32.388C63.4885 32.2803 63.2461 32.1815 63.3449 32.1726C63.4526 32.1546 63.5244 32.1905 63.5603 32.1097C63.6051 32.02 63.3987 31.9482 63.5962 31.8943C63.7846 31.8405 63.6231 31.302 63.5603 31.2571C63.5603 31.2571 63.3449 31.3827 63.1115 31.7597C62.8692 32.1456 62.7345 32.37 62.4114 32.2533C61.9626 32.0738 61.7203 32.3252 61.6485 32.37C61.5408 32.4329 61.8819 32.4598 61.6754 32.4688C61.478 32.4688 61.478 32.4957 61.46 32.5226C61.4421 32.5495 61.46 32.5765 61.4959 32.5854C61.5318 32.5854 61.6036 32.6572 61.4869 32.6572C61.3613 32.6572 61.2715 32.6303 61.3074 32.7649C61.3074 32.7649 61.3074 32.7919 61.3792 32.8008C61.4511 32.8008 61.478 32.8906 61.3433 32.8906C61.2536 32.8906 61.2536 32.9175 61.2536 32.9265ZM61.7383 34.2549C61.7383 34.2549 61.6485 34.3177 61.7742 34.3267C61.9088 34.3267 61.9716 34.3626 62.0165 34.2908C62.0614 34.219 62.2319 34.2459 62.1152 34.1472C61.9985 34.0574 61.9178 34.1113 61.7383 34.2549Z" fill="#FFC221"/>
<path d="M62.2857 32.6572C62.2857 32.6572 62.7345 32.2444 63.0935 32.5226C63.4705 32.8098 63.4974 32.8457 63.5064 32.8547C63.5064 32.8547 63.5512 32.8906 63.4525 32.9804C63.3538 33.0701 63.4525 33.0701 63.5602 33.0073C63.6679 32.9534 63.6769 33.0073 63.7307 33.0701C63.7846 33.124 63.8564 33.1599 63.6859 33.1599H63.1473C63.1473 33.1599 62.905 33.1868 63.0307 33.0791C63.1473 32.9803 63.1294 32.8637 63.0666 32.8547C63.0037 32.8457 63.0666 32.9175 63.0307 32.9624C62.9858 33.0073 62.905 33.0522 62.8153 33.0522C62.7255 33.0522 62.6537 33.115 62.7883 33.1599C62.923 33.2137 62.7704 33.2496 62.6986 33.2496C62.6268 33.2496 62.2857 33.2676 62.6358 33.3124C62.9858 33.3573 62.5999 33.3483 62.8601 33.4919C63.1474 33.6535 62.9409 33.9946 62.8332 34.0305C62.8332 34.0305 62.7165 34.0933 62.8601 34.0753C63.0127 34.0574 63.0935 34.0394 62.9858 34.1202C62.8871 34.201 62.6717 34.4613 62.3844 34.2638C62.3844 34.2638 62.2498 34.201 62.4832 34.1831C62.7255 34.1741 62.2947 34.1202 62.2139 34.0753C62.1511 34.0305 61.8728 33.7522 62.0434 33.7792C62.2229 33.8151 62.1601 33.7163 62.0524 33.6804C61.9536 33.6445 61.9357 33.4919 62.0524 33.5189C62.1601 33.5548 62.2947 33.6176 62.3934 33.6086C62.4832 33.6086 62.4562 33.5727 62.2588 33.5189C62.0613 33.4471 61.9805 33.4381 62.0254 33.2765C62.0703 33.106 62.2947 33.3394 62.2408 33.2137C62.187 33.0881 61.9985 33.1509 62.0972 32.9893C62.196 32.8278 62.2229 32.8996 62.2678 32.9175C62.3126 32.9355 62.3844 32.9175 62.2588 32.8278C62.169 32.7649 62.2588 32.6752 62.2857 32.6572Z" fill="#FFC221"/>
<path d="M62.5999 32.7739C62.5999 32.7739 62.5999 32.7201 62.6896 32.729C62.7614 32.729 62.7435 32.7021 62.7614 32.6842C62.7883 32.6842 62.9858 32.747 62.7973 32.8098C62.7345 32.8367 62.6178 32.8188 62.6088 32.7739H62.5999Z" fill="black"/>
<path d="M63.0307 33.2406C63.0307 33.2406 62.8781 33.3214 63.0127 33.474C63.1294 33.6086 63.1294 33.6535 63.1204 33.7433C63.1115 33.833 68.2185 33.8869 68.2185 33.8869C68.2185 33.8869 68.2095 33.5548 68.4249 33.3663L63.0307 33.2406Z" fill="#FFC221"/>
<path d="M68.2993 33.7971C68.2993 33.7971 68.3262 33.5189 68.4788 33.4291C68.5685 33.3753 68.6762 33.4022 68.7211 33.6266C68.7929 33.9407 68.5236 34.219 68.398 34.0933C68.2813 33.9766 68.3082 33.7971 68.3082 33.7971H68.2993Z" fill="#5A3719"/>
<path d="M62.4473 34.9908C62.4473 34.9908 62.7884 34.6947 62.8422 34.569C62.8422 34.569 63.7577 35.2242 63.7039 34.6229C63.7039 34.6229 63.7039 34.4613 63.7308 34.3087C63.7308 34.3087 64.0629 34.3446 64.1167 34.0754L63.2551 34.0484C63.2551 34.0484 63.1653 34.0305 63.0307 34.1741C62.9051 34.3177 62.6268 34.4703 62.3755 34.3356C62.3755 34.3356 62.2678 34.2459 62.1601 34.3267C62.0434 34.3985 62.0434 34.4164 62.1332 34.5062C62.2229 34.5959 62.4114 34.8472 62.4473 34.9908ZM64.4219 33.1868L63.9193 33.1688C63.9193 33.1688 63.7398 32.9085 63.3808 32.6303C63.3808 32.6303 63.2731 32.5765 63.4705 32.4149C63.6769 32.2533 63.7398 32.0828 63.7398 32.002C63.7488 31.9302 63.7398 31.8046 63.8116 31.8943C63.8834 31.9841 64.404 32.4598 64.4847 32.3252C64.5565 32.1815 64.5745 32.1187 64.5745 32.0738C64.5924 32.029 64.6104 31.9033 64.6822 32.0379C64.763 32.1726 64.8078 32.1367 64.8168 32.4867C64.8168 32.4867 64.8258 32.8457 64.8797 32.9624C64.8797 32.9624 64.2244 32.756 64.4309 33.1868H64.4219ZM62.2409 32.1097C62.2409 32.1097 62.6268 32.3341 62.8153 32.0379C62.9948 31.7507 63.1294 31.7058 62.9858 31.4186C62.8422 31.1494 62.9858 31.0147 63.0935 30.8981C63.2102 30.7814 63.3 30.8083 63.309 30.3595C63.3269 29.9108 63.6321 29.7672 63.7757 29.6236C63.9103 29.4889 64.2603 29.2825 63.7308 29.1927C63.2102 29.103 62.1601 28.8337 61.8908 28.4298C61.6216 28.017 61.4959 28.2593 61.4959 28.2772C61.4959 28.2952 61.4062 28.5914 61.6754 29.1299C61.9447 29.6684 62.1691 30.0185 62.4383 30.189C62.6986 30.3685 62.932 30.4583 62.7974 30.8173C62.6627 31.1763 62.4383 31.8225 62.2409 32.1187V32.1097Z" fill="#7B3C20"/>
<path d="M63.659 30.9699C63.659 30.9699 63.7218 31.8943 64.395 32.2264C64.395 32.2264 64.5475 31.8674 64.4847 31.5084C64.4847 31.5084 64.7091 31.5263 64.7719 31.6251C64.7719 31.6251 64.7719 31.3558 64.4668 31.2571C64.1436 31.1673 64.2962 30.557 64.4129 30.4942C64.5206 30.4224 64.4847 30.2967 64.4129 30.189C64.3321 30.0813 64.3232 29.9197 64.5834 29.9915C64.8527 30.0544 64.8078 29.9197 64.6463 29.7851C64.4847 29.6595 64.4937 29.4979 64.7181 29.4979C64.9425 29.4979 65.3194 29.2735 65.095 29.2107C64.8707 29.1389 64.7989 29.0671 65.095 28.9773C65.4092 28.8876 65.5618 28.7799 65.3284 28.7529C65.095 28.726 64.9425 28.6452 65.1668 28.6093C65.3912 28.5645 65.1309 28.3401 64.8707 28.3311C64.6014 28.3131 64.0449 28.4209 64.4847 28.0618C64.9335 27.7118 63.8564 27.9721 64.2962 27.7387C64.745 27.5054 64.1436 27.6041 64.0629 27.6041C63.9821 27.6041 63.9821 27.6041 64.018 27.4874C64.0449 27.3707 63.9552 27.3079 63.8205 27.3887C63.6949 27.4605 63.6949 27.4605 63.7039 27.2989C63.7039 27.1284 63.5513 27.2541 63.4525 27.2989C63.3538 27.3348 63.1115 27.5233 63.0038 27.4246C62.914 27.3169 62.8602 27.2181 62.555 27.3977C62.2498 27.5772 62.3216 27.4246 62.3306 27.3438C62.3306 27.2541 62.4473 26.9399 62.0344 27.281C61.6216 27.622 61.9537 26.922 61.6305 27.1553C61.3074 27.3977 61.2715 27.4425 61.2177 27.3348C61.1638 27.2271 61.101 27.1374 60.742 27.3707C60.383 27.5951 60.6522 27.2271 60.6971 27.1463C60.751 27.0656 60.9035 26.545 60.5894 26.9579C60.5894 26.9579 60.4368 27.2361 60.0957 26.7335C60.0957 26.7335 59.7367 27.2361 59.638 27.0117C59.5482 26.7873 59.4585 26.7694 59.3328 26.913C59.2162 27.0566 59.3059 26.904 59.2521 26.7784C59.1982 26.6617 59.1713 26.4373 58.5699 26.8681C57.9686 27.3169 58.7764 26.9938 58.3186 27.1912C57.8609 27.3887 56.7479 28.017 57.7621 27.8734C58.7853 27.7297 57.2685 28.2683 57.6185 28.367C57.9776 28.4657 57.8609 28.7799 59.1892 28.4119C60.5086 28.0529 60.2932 28.358 60.9753 28.0618C61.6485 27.7746 60.8138 28.1606 61.7203 28.1516C62.6268 28.1247 61.8729 28.1516 62.0524 28.3311C62.2319 28.5196 62.9948 28.9594 63.7039 29.0402C64.4219 29.112 64.6014 28.8427 64.395 29.1568C64.1885 29.462 64.1167 29.5787 63.9911 29.6954C63.8744 29.7941 63.5333 30.0454 63.5243 30.4672C63.5243 30.8981 62.9679 30.9699 63.1653 31.4456L63.659 30.9699Z" fill="#5A3719"/>
<path d="M64.8348 32.002C64.8348 32.002 64.6732 31.8854 64.6732 31.6789C64.6732 31.6789 64.7899 31.6969 64.8348 31.7687C64.8348 31.7687 65.2476 31.3109 64.745 31.1404C64.2603 30.9699 64.5027 30.5211 64.6732 30.5211C64.8437 30.5211 64.8707 30.4762 64.7271 30.2877C64.5834 30.1082 64.6014 30.0903 64.8796 30.0454C65.1489 30.0005 65.122 29.9377 64.9963 29.8659C64.9124 29.8185 64.8366 29.7579 64.7719 29.6864C64.7719 29.6864 65.5618 29.3453 65.3105 29.1838C65.0502 29.0312 65.3105 29.0671 65.5348 28.9055C65.7682 28.744 65.8041 28.7081 65.831 28.6452C65.831 28.6452 65.6066 28.6722 65.4361 28.6452C65.4361 28.6452 65.6336 28.5375 65.4361 28.376C65.2386 28.2144 65.1668 28.0708 64.8437 28.1426C64.5296 28.2234 64.6373 28.1157 64.754 27.99C64.8796 27.8554 64.8258 27.7836 64.6014 27.7477C64.6014 27.7477 64.6283 27.6131 64.7989 27.4515C64.7989 27.4515 64.368 27.4784 64.2244 27.4066C64.2244 27.4066 64.4039 27.29 64.4039 27.1463C64.4039 27.1463 64.1706 27.2271 63.8744 27.2002C63.8744 27.2002 64.0539 27.0476 64.0539 26.913C64.0539 26.913 63.5333 27.0297 63.3 27.2092C63.3 27.2092 63.2461 27.2002 63.2102 27.1463C63.1653 27.0925 63.1384 27.0297 62.564 27.2092C62.564 27.2092 62.6268 26.9579 62.7704 26.8502C62.9051 26.7604 62.8871 26.554 61.9985 27.1104C61.9985 27.1104 61.8819 27.0386 61.7831 26.7694C61.7831 26.7694 61.5857 27.0386 61.4421 27.1284C61.4421 27.1284 61.3164 27.1822 61.3344 27.0117C61.3523 26.8322 61.2446 26.9579 61.1548 27.0117C61.0651 27.0566 61.0023 27.1822 61.0471 26.8322C61.092 26.4822 60.9215 26.4104 60.9215 26.4104C60.9215 26.4104 60.6522 26.8053 60.4907 26.8502C60.4907 26.8502 60.2035 26.5629 60.0957 26.3745C59.997 26.195 59.997 26.1231 59.8893 26.4463C59.7906 26.7694 59.6649 26.7963 59.6649 26.7963C59.6649 26.7963 59.4854 26.6437 59.4675 26.5629C59.4675 26.5629 59.4405 26.6527 59.3777 26.6886C59.3777 26.6886 59.2251 26.5091 59.2341 26.2488C59.2341 26.2488 58.2827 26.7784 58.1571 27.0925C58.1571 27.0925 57.2595 27.0386 56.8915 27.1104C56.8915 27.1104 56.9813 26.8232 57.2147 26.6706C57.2147 26.6706 56.9813 26.6437 56.9723 26.4014C56.9723 26.4014 57.1608 26.4283 57.2775 26.4014C57.3942 26.3745 57.1159 26.0334 57.4121 26.0244C57.7083 26.0154 57.8968 26.168 57.7711 25.7731C57.6365 25.3782 57.6903 25.3782 57.6903 25.3782C57.6903 25.3782 58.2109 25.6834 58.2917 25.6026C58.3815 25.5308 58.2289 25.3692 58.6866 25.441C59.1444 25.5218 59.0187 25.2615 59.1982 25.2436C59.3777 25.2346 59.4675 25.3602 59.3598 24.5255C59.2521 23.6908 59.9162 24.9384 59.4585 23.6818C59.4585 23.6818 59.3508 23.2959 59.0726 23.1343C59.0726 23.1343 59.0097 23.4036 58.7046 23.1702C58.3904 22.9279 57.7891 22.8382 58.0404 22.6497C58.3007 22.4522 58.4174 22.2009 58.3455 22.0393C58.3455 22.0393 58.0404 22.3535 57.5198 22.1291C57.1069 21.9496 57.0172 22.2727 56.5953 22.183C56.5953 22.183 56.5953 22.0752 56.9544 21.788C57.3134 21.5098 56.7479 21.8778 56.5325 21.9316C56.3081 21.9855 56.2453 21.9406 56.712 21.5726C57.1788 21.2136 58.1122 20.5764 57.9865 20.0468C57.9865 20.0468 58.2019 20.325 58.7853 20.1186C59.3598 19.9212 59.7906 19.8494 59.9611 19.5442C60.1406 19.248 60.5894 18.9518 60.7061 18.88C60.8317 18.8172 60.9843 18.7723 60.8048 19.0595C60.6253 19.3378 60.3381 19.8224 59.5393 20.1545C58.7405 20.4866 58.4353 20.72 58.2917 20.8995C58.1481 21.07 57.4211 21.4559 57.8968 21.3931C58.3635 21.3213 59.1803 21.3931 58.7943 21.2854C58.4174 21.1777 57.9865 21.3572 58.3366 21.0341C58.6866 20.72 58.7494 20.6123 59.261 20.3969C59.7726 20.1814 60.3381 19.6878 60.2842 20.2173C60.2214 20.7289 59.27 21.2854 59.0367 21.4559C58.8033 21.6265 58.893 21.5996 58.893 21.6624C58.893 21.7342 58.8571 21.8778 58.7584 21.9316C58.6687 22.0034 58.6956 22.0752 58.7225 22.2189C58.7494 22.3714 58.6956 22.4253 58.7674 22.4522C58.8392 22.4702 58.911 22.4791 58.9289 22.5868C58.9559 22.6946 59.0097 22.7035 59.1444 22.6946C59.279 22.6766 59.3687 22.6946 59.3777 22.7753C59.3867 22.8561 59.5213 22.9638 59.5303 22.7215C59.5483 22.4702 59.638 22.4253 59.3867 22.542C59.1354 22.6497 59.0815 22.6138 59.0905 22.4971C59.0905 22.3804 59.0636 22.4073 58.9649 22.3984C58.8571 22.3894 58.8212 22.2368 59.0097 22.1381C59.1892 22.0483 59.1892 22.1381 59.4226 21.9496C59.656 21.7521 59.656 21.7073 59.6919 21.6085C59.7278 21.5188 59.3598 21.8778 59.1803 21.9586C59.0008 22.0393 59.0546 21.8957 59.0905 21.6983C59.1174 21.5008 59.5572 21.2316 59.7547 21.2316C59.9611 21.2316 60.4099 21.3482 60.2214 21.6265C60.0239 21.8957 59.4675 22.2278 59.7008 22.2548C59.9432 22.2727 59.9791 22.183 60.1227 22.2996C60.2573 22.4253 60.1227 22.6766 60.0688 22.8112C60.0059 22.9362 59.9172 23.0463 59.8085 23.1343C59.8085 23.1343 59.5572 22.6856 59.5662 23.0446C59.5662 23.4036 59.5124 23.5293 59.5662 23.5382C59.6201 23.5562 59.8983 23.7447 59.988 23.7447C60.0778 23.7447 59.5034 24.0139 59.7457 24.0319C59.988 24.0498 60.374 23.9242 60.4996 23.6729C60.4996 23.6729 60.006 23.5562 59.8175 23.3767C59.8175 23.3767 60.383 23.2421 60.2214 22.6946C60.2214 22.6946 60.7958 22.8471 60.5445 23.1074C60.3022 23.3587 60.1496 23.3228 60.365 23.3946C60.5804 23.4664 60.6791 23.5293 60.6791 23.5293C60.6791 23.5293 60.8317 23.6011 60.742 23.7177C60.6522 23.8434 60.6522 24.0229 60.733 24.0139C60.7958 24.0139 61.0382 23.8973 60.8407 23.7806C60.6343 23.6549 61.0651 23.6818 60.8856 23.5741C60.7061 23.4664 60.6522 23.4485 60.6073 23.3946C60.5535 23.3498 62.914 21.9586 61.7203 22.4791C61.7203 22.4791 61.9716 21.9406 62.3216 21.9406C62.6627 21.9406 62.6896 22.2099 62.5012 22.4253C62.2947 22.6317 62.1691 22.9638 61.7113 23.0356C61.7113 23.0356 62.3665 23.3587 61.5857 23.8883C61.5857 23.8883 61.4151 23.9691 61.478 24.0229C61.5408 24.0857 62.0075 23.8255 62.0703 23.6729C62.1332 23.5293 62.2319 23.4036 62.4114 23.3228C62.5909 23.2331 63.4615 22.6407 63.7218 22.1919C63.9911 21.7432 64.0539 21.7342 64.5655 21.3213C65.0771 20.9084 64.9873 20.9892 65.0591 20.8905C65.122 20.7918 65.1489 20.6212 65.3823 20.4956C65.6156 20.361 66.5311 19.8583 66.8183 19.6519C67.1055 19.4455 67.6889 19.0595 67.9402 18.7364C68.1916 18.4223 68.8737 18.0094 69.0442 18.0812C69.2147 18.162 69.0263 18.4043 68.6313 18.7095C68.2275 19.0057 67.2402 19.8045 67.0786 19.9301C66.6817 20.2498 66.2402 20.5098 65.7682 20.702C65.4541 20.7469 65.49 20.8546 65.3015 21.061C65.113 21.2675 64.6732 21.6893 64.5296 21.806C64.386 21.9316 64.0359 22.165 64.018 22.3355C64 22.5061 64.0808 22.524 63.8026 22.7843C63.5244 23.0536 62.7076 23.6459 62.4024 23.7357C62.4024 23.7357 62.932 23.9152 62.6178 24.2742C62.3037 24.6243 62.3216 24.5704 62.3037 24.5973C62.3037 24.5973 63.0935 24.4717 62.5371 25.1C62.5371 25.1 62.4204 25.2795 62.6717 25.091C62.9409 24.8845 62.8332 24.6153 62.7973 24.5794C62.7973 24.5794 63.2192 24.3101 63.7128 24.3101C64.1975 24.3011 64.1796 24.2652 63.7398 24.1396C63.7398 24.1396 64.0539 23.7626 64.3142 23.9511C64.5834 24.1306 64.4937 24.2473 64.2244 24.3999C63.9372 24.5435 63.5333 24.5973 63.2282 24.7679C63.2282 24.7679 63.8026 24.8845 64.1167 24.6422C64.4219 24.4089 64.4398 24.5255 64.4757 24.5704C64.5206 24.6153 64.5565 24.6871 64.4219 24.8845C64.2783 25.082 64.2693 25.091 64.2783 25.1359C64.2783 25.1807 64.2603 25.3154 63.9821 25.3602C63.7128 25.4051 63.5782 25.5218 63.6769 25.6564C63.7667 25.7911 63.7667 26.1142 63.5333 26.0872C63.3 26.0513 63.3538 25.8629 63.2641 25.7911C63.1743 25.7193 63.0487 25.6116 62.6358 25.818C62.2139 26.0334 62.187 25.7821 62.205 25.6385C62.205 25.6385 61.9357 25.8808 61.7113 25.6654C61.4869 25.441 61.6844 25.3602 61.819 25.2525C61.9447 25.1448 62.4742 24.9115 62.1601 24.9563C61.837 24.9923 61.3703 25.0102 61.2625 24.7768C61.1459 24.5255 61.4959 24.5525 61.5498 24.5794C61.6036 24.5973 61.819 24.7768 61.837 24.5435C61.837 24.3011 62.196 24.2742 62.0703 24.2293C61.9537 24.1845 61.7831 24.337 61.7382 24.3909C61.7382 24.3909 61.4959 24.0498 61.101 24.1575C60.7061 24.2742 61.2266 24.2293 61.3254 24.2473C61.4331 24.2652 61.3703 24.4627 61.0202 24.7858C60.6612 25.1 60.8228 25.0012 61.083 25.0012C61.3523 25.0012 61.9985 25.0012 61.6216 25.3064C61.2446 25.6205 61.092 25.7731 60.9035 25.7193C60.7061 25.6654 60.9215 25.5398 61.0112 25.4769C61.101 25.4231 61.1459 25.3333 60.9574 25.4051C60.7779 25.4679 60.7151 25.4859 60.5625 25.2256C60.4189 24.9563 60.4727 25.0461 60.5445 24.8666C60.6073 24.6961 60.751 24.5166 60.5804 24.5794C60.4009 24.6422 60.4189 24.6512 60.4368 24.4537C60.4458 24.2563 60.2394 24.2114 60.2394 24.2114C60.2394 24.2114 60.3291 24.4089 60.2483 24.5345C60.1765 24.6602 60.1676 24.705 60.2932 24.732C60.4189 24.7679 60.5355 24.8756 60.365 24.9923C60.1945 25.1 60.2214 25.082 60.3201 25.1538C60.4278 25.2256 60.5894 25.3064 60.4189 25.4679C60.2573 25.6295 60.3919 25.5757 60.4727 25.5757C60.5625 25.5757 60.742 25.6475 60.742 25.809C60.742 25.9616 60.733 25.9975 61.0023 25.8539C61.2715 25.7013 61.7921 25.7193 61.7921 25.9257C61.7831 26.1321 61.7203 26.195 62.0075 26.0154C62.2857 25.8359 62.4114 26.177 62.6089 26.0154C62.7973 25.8449 62.923 25.6834 63.1474 25.9706C63.3718 26.2488 63.3 26.3296 63.0307 26.536C62.7614 26.7335 63.1653 26.5809 63.3718 26.4732C63.5782 26.3655 64.1616 26.2937 64.4937 26.4463C64.8258 26.5899 64.9245 26.5629 65.1668 26.4552C65.4182 26.3565 65.5438 26.3296 65.9118 26.5809C66.2888 26.8322 66.576 26.8771 66.7734 26.8681C66.7734 26.8681 66.3606 27.0297 65.8939 27.0566C65.4271 27.0925 65.1938 27.1733 65.104 27.2451C65.104 27.2451 65.3823 27.4246 65.4361 27.622C65.4361 27.622 65.7413 27.5861 65.8849 27.64C65.8849 27.64 65.8131 27.8644 66.0016 27.9811C66.19 28.0977 66.3157 28.1426 66.1811 28.3042C66.0375 28.4657 66.3965 28.3939 66.19 28.6183C65.9926 28.8517 65.9387 28.9594 65.9298 29.1479C65.9298 29.3274 65.9746 29.3543 65.7951 29.3722C65.6156 29.3902 65.8221 29.5966 65.7413 29.839C65.6605 30.0723 65.1579 30.0454 65.1758 30.6916C65.1758 30.6916 65.3194 30.3775 65.6246 30.0992C65.9208 29.83 65.9298 29.8031 65.9208 29.6325C65.9208 29.471 65.9028 29.5069 66.0644 29.3812C66.217 29.2556 65.9926 29.1389 66.1541 28.9594C66.3067 28.7799 66.1721 28.8158 66.3606 28.6363C66.5401 28.4568 66.19 28.4388 66.3875 28.2503C66.567 28.0708 65.9208 27.8464 66.1182 27.7297C66.2977 27.6131 66.6209 27.4425 65.5348 27.4605C65.5348 27.4605 65.7951 27.0297 66.7106 27.1194C66.7106 27.1194 66.4773 27.2989 66.4503 27.4605C66.4503 27.4605 66.558 27.5143 66.6298 27.5323C66.6298 27.5323 66.585 27.6579 66.4144 27.8015C66.4144 27.8015 66.8991 28.0708 66.9799 28.2413C66.9799 28.2413 66.6837 28.3311 66.6029 28.4568C66.6029 28.4568 66.7375 28.6093 66.7824 28.7978C66.7824 28.7978 66.4503 28.7619 66.4055 29.0043C66.3606 29.2556 66.2618 29.085 66.2618 29.2286C66.2618 29.3722 66.2708 29.4351 66.1541 29.462C66.0375 29.4799 66.1362 29.6056 66.1541 29.6864C66.1721 29.7672 66.217 29.9556 66.199 30.0095C66.199 30.0095 66.0285 30.0095 65.9477 30.0364C65.9477 30.0364 66.0016 30.3954 65.8041 30.4403C65.6066 30.4942 65.9118 30.566 65.6964 30.6019C65.49 30.6378 65.5169 30.6557 65.2566 31.1224C65.2566 31.1224 65.481 30.9968 65.7054 30.8442C65.9387 30.6916 65.6874 30.7365 66.0644 30.3685C66.4413 29.9915 66.3785 29.9646 66.3426 29.7761C66.3157 29.5877 66.3067 29.4351 66.4414 29.2556C66.585 29.0761 66.6209 28.8696 67.1145 28.8965C67.1145 28.8965 66.9709 28.5734 66.7914 28.4927C66.7914 28.4927 67.0248 28.3311 67.2671 28.3131C67.2671 28.3131 67.0517 28.0439 66.6119 27.8015C66.6119 27.8015 66.9709 27.4874 67.0607 27.3438C67.0607 27.3438 66.8901 27.3707 66.7555 27.3438C66.7555 27.3438 66.8183 27.1912 67.1504 26.9758C67.1504 26.9758 67.3299 27.1463 67.312 27.3169C67.312 27.3169 67.8774 27.0027 68.1916 27.0386C68.1916 27.0386 68.3531 27.4336 67.5723 28.1965C67.5723 28.1965 68.0569 28.2413 68.2634 28.2144C68.2634 28.2144 68.1467 28.5824 67.5633 28.7978C66.9799 29.0222 67.6889 29.2825 67.0876 29.2376C66.4952 29.1927 66.6747 29.3902 66.6927 29.6954C66.7106 30.0005 66.7286 30.3147 66.7196 30.3954C66.7196 30.3954 66.2439 30.2429 66.2529 30.7006C66.2618 31.1673 66.0016 31.266 65.9567 31.302C65.9567 31.302 65.8131 31.1853 65.6066 31.1045C65.6066 31.1045 65.3105 31.6699 64.8348 32.002Z" fill="#5A3719"/>
<path d="M64.1526 26.2129C64.1526 26.2129 64.3142 26.186 64.5924 26.3565C64.8617 26.536 65.1309 26.177 64.8347 26.0873C64.5206 25.9975 64.8347 25.8808 65.104 26.1052C65.3912 26.3296 65.4989 26.2129 65.5976 26.1411C65.6964 26.0603 65.822 26.0155 65.6335 25.8898C65.4451 25.7552 65.7592 25.818 65.9028 25.9167C66.0464 26.0065 65.9926 26.0962 65.9746 26.1232C65.9477 26.1501 65.9387 26.4552 66.2169 26.177C66.4952 25.8898 66.6388 25.6116 66.6298 25.4769C66.6298 25.4769 66.7824 25.5667 66.8093 25.7462C66.8273 25.9257 67.0427 25.6564 67.1145 25.5577C67.1863 25.468 67.303 25.2166 67.294 25.0371C67.294 25.0371 67.4735 25.3333 67.7607 25.0371C68.0389 24.7499 67.9223 24.9294 68.2544 24.8397C68.6351 24.7348 68.9777 24.523 69.2417 24.2293C69.475 23.9421 69.493 24.1396 69.7891 24.0678C70.0853 23.996 70.6867 23.5831 70.7405 23.3498C70.7944 23.1344 70.7854 22.9907 70.7046 23.0715C70.6149 23.1433 70.6508 23.0805 70.5251 23.0087C70.3905 22.9189 70.202 23.1074 70.202 23.1074C70.202 23.1074 70.3905 23.251 70.2469 23.3139C70.1033 23.3767 69.9776 23.5831 69.6994 23.4934C69.4301 23.4216 69.1429 23.7537 69.1429 23.7537C69.1429 23.7537 69.3853 23.9421 69.0621 24.0678C68.748 24.1934 68.7929 24.2293 68.6044 24.0947C68.6044 24.0947 68.2633 24.5255 68.0659 24.6153C68.0659 24.6153 67.9761 24.6153 67.9223 24.5255C67.9223 24.5255 67.6979 24.7768 67.5902 24.8217C67.5902 24.8217 67.4466 24.6961 67.3209 24.6422C67.3209 24.6422 67.0517 24.9833 66.8273 25.082C66.8273 25.082 66.7644 24.9564 66.6208 24.8756C66.6208 24.8756 66.549 25.3064 66.0823 25.5577C66.0823 25.5577 66.1092 25.45 65.8759 25.2884C65.8759 25.2884 65.2925 25.7911 65.0681 25.8449C64.8347 25.8898 65.0412 25.7372 65.0681 25.6654C65.104 25.6026 65.2476 25.3962 64.9694 25.3064C64.6911 25.2166 64.736 25.3692 64.6732 25.3962C64.6103 25.4231 64.6104 25.3423 64.4129 25.3692C64.2334 25.3962 64.2603 25.4769 64.1795 25.5128C64.0898 25.5398 63.7667 25.459 63.7846 25.6744C63.8026 25.8898 63.9551 26.0424 63.6679 26.168C63.3807 26.2937 63.7756 26.2668 64.1526 26.2129Z" fill="#7B3C20"/>
<path d="M65.3284 25.6026C65.3284 25.6026 65.4002 25.3154 65.1578 25.1897C65.1578 25.1897 66.7016 24.9474 65.5348 24.355C65.5348 24.355 66.926 24.0768 66.5939 23.637C66.2708 23.1882 65.9477 23.278 65.9028 23.2959C65.8579 23.2959 66.199 23.0356 66.2887 23.0715C66.3785 23.1074 67.4914 23.5293 67.2042 23.1613C66.926 22.8023 66.9439 22.8202 66.8991 22.7125C66.8991 22.7125 67.2671 22.7125 67.8235 23.251C67.8235 23.251 67.9402 23.1344 67.9312 22.91C67.9312 22.91 68.3262 23.0266 68.4518 23.1433C68.4518 23.1433 68.5146 23.0087 68.4877 22.9279C68.4877 22.9279 68.8377 23.1074 68.9544 23.3049C68.9544 23.3049 69.107 23.1703 69.1339 23.0087C69.1339 23.0087 69.475 23.1523 69.5648 23.26C69.5648 23.26 69.6814 23.1074 69.6366 22.901C69.6366 22.901 70.202 23.0625 70.2828 22.7215C70.2828 22.7215 70.8482 22.8382 70.4802 23.0625C70.0045 23.3498 70.4354 22.9907 69.9417 23.3318C69.5648 23.6011 69.3493 23.9062 69.1698 23.8434C69.0352 23.7896 68.8737 24.1845 68.6941 23.996C68.5146 23.7985 68.5146 23.8883 68.38 24.0857C68.2818 24.2302 68.1707 24.3654 68.0479 24.4896C68.0479 24.4896 67.9582 24.4358 67.8684 24.355C67.8684 24.355 67.7697 24.5345 67.6261 24.6781C67.6261 24.6781 67.5094 24.5255 67.3299 24.4358C67.3299 24.4358 67.0516 24.7589 66.8811 24.8756C66.8811 24.8756 66.7106 24.714 66.54 24.6602C66.54 24.6602 66.5131 25.1 66.1721 25.3243C66.1721 25.3243 66.1003 25.1807 65.8759 25.091C65.8759 25.091 65.7053 25.3602 65.3373 25.5936L65.3284 25.6026Z" fill="#5A3719"/>
<path d="M64.5206 24.9205C64.5206 24.9205 64.3321 25.0641 64.4488 25.2166C64.5744 25.3782 64.5834 25.1897 64.736 25.1807C64.8886 25.1628 66.7824 24.8397 65.0681 24.3281C65.0681 24.3281 65.1399 24.2563 65.4271 24.2383C65.7323 24.2024 66.8093 23.9152 66.3067 23.5293C65.8041 23.1523 65.3822 23.6639 65.8041 23.2062C66.1451 22.8382 65.8759 22.6587 65.8759 22.6587C65.8759 22.6587 64.8796 23.3228 64.6552 23.4485C64.4398 23.5652 64.1167 23.8075 64.4937 23.9242C64.8706 24.0409 65.1219 23.5203 65.1578 23.637C65.1937 23.7537 64.4039 24.1935 64.5206 24.3909C64.6283 24.5973 64.6103 24.7679 64.7988 24.723C64.9963 24.6871 65.5168 24.8217 65.095 24.8128C64.6642 24.7948 64.5206 24.9205 64.5206 24.9205Z" fill="#5A3719"/>
<path d="M65.2027 23.9691C65.2027 23.9691 65.0232 24.0947 65.2566 24.0319C65.4899 23.9691 65.9477 23.8703 65.8669 23.7536C65.7771 23.628 65.472 23.7716 65.2027 23.9691Z" fill="black"/>
<path d="M68.2454 21.9945C68.2454 21.9945 69.125 21.9675 69.484 22.2189C69.843 22.4612 70.0225 22.6228 70.1302 22.6587C70.1302 22.6587 70.1123 22.9907 69.5468 22.7484C69.5468 22.7484 69.5827 22.91 69.5199 23.0715C69.5199 23.0715 69.3135 22.9279 69.0711 22.8741C69.0711 22.8741 69.0263 22.9997 68.9545 23.0715C68.9545 23.0715 68.7031 22.8202 68.4159 22.7394C68.4159 22.7394 68.3621 22.8651 68.3172 22.9189C68.3172 22.9189 68.012 22.7394 67.7787 22.7394C67.7787 22.7394 67.8236 22.9279 67.7787 23.0087C67.7787 23.0087 67.1504 22.4971 66.576 22.5599C66.576 22.5599 66.8452 22.9638 67.0247 23.1613C67.0247 23.1613 65.8759 23.0715 66.0734 22.4522C66.2529 21.8329 66.0554 21.9855 66.8093 21.9945H68.2454Z" fill="#7B3C20"/>
<path d="M62.8512 23.7088C62.8512 23.7088 62.7165 23.8165 62.8512 23.9062C62.9768 23.996 63.4346 23.6729 63.4974 23.628C63.5602 23.5742 63.7218 23.5831 63.4974 23.7537C63.273 23.9242 63.0486 24.1127 62.896 24.2922C62.896 24.2922 63.6589 24.0857 64.1526 23.6549C64.6552 23.2241 64.1346 23.5023 64.9783 23.0985C65.822 22.6856 66.2708 22.0304 65.813 22.1022C65.3643 22.174 64.9514 22.6946 64.5924 22.892C64.2423 23.0895 64.0449 23.1164 64.0987 22.9997C64.1526 22.883 64.4129 22.9279 64.9065 22.542C65.3912 22.1471 65.2835 22.183 65.2835 22.0394C65.2835 21.9047 65.104 21.5637 65.831 21.1777C66.567 20.7918 68.8377 19.4724 69.0352 19.0057C69.0352 19.0057 68.371 19.0775 67.4914 19.7237C67.0093 20.1271 66.4823 20.4734 65.9207 20.7559C65.6784 20.8456 65.7053 20.7828 65.5528 20.9713C65.1737 21.3703 64.7785 21.7535 64.368 22.1201C64.2154 22.2368 64.1616 22.3176 64.1526 22.5689C64.1526 22.6856 63.1653 23.4305 62.8601 23.7088H62.8512Z" fill="#5A3719"/>
<path d="M65.8579 21.9765C65.8579 21.9765 65.6784 22.0483 65.5168 21.9765C65.3553 21.8868 65.4091 21.5457 65.8041 21.3303C66.267 21.0763 66.7621 20.8861 67.276 20.7648C67.276 20.7648 67.2222 21.2136 66.0913 21.5996C66.0913 21.5996 66.1631 21.8329 65.8579 21.9765Z" fill="#5A3719"/>
<path d="M66.2529 21.6803C66.2529 21.6803 66.2888 21.788 66.2529 21.8868C66.2529 21.8868 68.3531 22.0932 69.4391 20.8097C69.4391 20.8097 67.9492 20.9533 67.3568 21.3123C67.3568 21.3123 67.7338 20.8456 68.8468 20.4597C69.9597 20.0737 70.4174 19.5891 70.5162 19.3288C70.5162 19.3288 69.0981 19.8224 68.4339 19.8224C68.4339 19.8224 68.2993 19.8224 68.1646 19.8853C68.039 19.966 67.1414 20.6123 66.9081 20.7289C66.9081 20.7289 67.4107 20.6841 67.5902 20.5225C67.5902 20.5225 67.2312 21.4649 66.2529 21.6803Z" fill="#AA5323"/>
<path d="M62.2319 22.8741C62.2319 22.8741 61.9626 23.0715 62.0703 23.1613C62.187 23.26 62.3755 23.278 62.7884 22.9369C63.2012 22.5869 64.1975 21.7342 63.5692 21.6983C63.5692 21.6983 62.7614 21.6534 62.7884 22.1471C62.8153 22.6407 62.2678 22.8471 62.2319 22.8741ZM60.365 22.5869C60.365 22.5869 60.9035 22.901 60.6971 23.1523C60.6971 23.1523 62.3306 21.7701 61.8639 21.4649C61.4151 21.1687 61.0561 21.7342 61.1638 21.788C61.2715 21.8509 61.5139 21.7432 61.4331 21.8509C61.0951 22.1214 60.7382 22.3673 60.365 22.5869ZM59.9432 22.1381C59.9432 22.1381 60.3022 22.2458 60.3201 22.4073C60.3291 22.551 61.3972 21.6534 61.119 21.2675C60.9843 21.0969 60.4009 21.0251 60.365 21.3662C60.3381 21.7073 60.9035 21.3303 60.7061 21.5726C60.4548 21.8957 60.024 22.0842 59.9432 22.1381ZM63.7667 21.3842C63.7667 21.3842 63.5423 21.5457 63.7487 21.6534C63.9552 21.7432 64.0808 21.5906 64.1885 21.5008C64.2873 21.4111 64.7989 21.0341 64.9066 20.8008C65.0322 20.5584 65.2028 20.4866 65.3912 20.3699C65.5707 20.2443 66.8722 19.598 67.671 18.88C68.4698 18.162 68.1377 18.3505 68.9634 17.8927C69.7892 17.435 70.3367 17.0131 70.5072 16.5105C70.5072 16.5105 70.1213 16.6362 69.7892 16.8606C69.4481 17.076 68.6852 17.5517 68.5326 17.6235C68.38 17.6863 68.1736 17.6953 68.0569 17.8119C67.9402 17.9376 67.9492 18.0812 67.5543 18.4043C67.1504 18.7364 65.095 20.1904 64.8437 20.3969C64.4786 20.7192 64.1195 21.0484 63.7667 21.3842Z" fill="#5A3719"/>
<path d="M62.1152 21.8688C62.1152 21.8688 62.3396 21.7432 62.7614 21.7791C63.1832 21.797 64.8527 20.1814 65.3373 19.8583C66.0885 19.345 66.8219 18.8061 67.5363 18.2428C67.7427 18.0363 67.7786 17.8209 67.9582 17.7042C68.1377 17.5876 68.2992 17.6055 68.7031 17.3722C69.116 17.1388 71.0816 15.963 70.9649 15.2809C70.9649 15.2809 68.0389 17.0311 67.3658 17.6055C66.4308 18.3353 65.4666 19.027 64.4757 19.6788C64.1436 19.8942 63.8833 20.2533 63.3179 20.711C62.7614 21.1598 62.2049 21.5457 62.1152 21.8688Z" fill="#AA5323"/>
<path d="M61.4959 21.2405C61.4959 21.2405 62.0344 21.1867 62.1152 21.4559C62.1152 21.4559 63.273 20.6571 63.5333 20.334C63.8026 20.0019 63.4436 20.1904 64.1077 19.7596C65.1845 19.0412 66.241 18.293 67.2761 17.5158C67.5902 17.2465 68.1915 16.8785 68.6672 16.5554C69.1429 16.2323 71.0008 15.3168 70.7944 14.5718L69.125 15.6848C68.8109 15.8912 68.6762 15.7745 68.3711 16.0169C68.0569 16.2682 67.3658 16.7528 67.2491 16.9144C66.7114 17.3765 66.148 17.808 65.5618 18.2069C65.0502 18.5479 63.9103 19.2121 63.3538 19.6968C62.7434 20.2219 62.124 20.7366 61.4959 21.2405Z" fill="#AA5323"/>
<path d="M59.8175 21.088C59.8175 21.088 60.0868 21.088 60.1765 21.1957C60.1765 21.1957 60.6791 20.7469 61.2177 21.1957C61.2177 21.1957 63.1923 19.8493 63.3897 19.5173C63.5872 19.1852 63.9103 19.1762 64.6732 18.6197C65.4451 18.0543 65.9297 17.8119 66.4413 17.426C66.9529 17.0221 67.3838 16.5733 67.7518 16.34C68.1108 16.0976 69.0442 15.4873 68.8916 14.9667C68.8916 14.9667 68.1377 15.3886 67.653 15.9271C67.1594 16.4656 67.2043 16.0079 66.7016 16.4567C66.1225 16.9904 65.4805 17.4515 64.7899 17.8299C64.1526 18.144 64.5386 18.1081 64.0718 18.4043C63.6141 18.7005 63.65 18.6556 63.4795 18.7005C63.247 18.7558 63.0371 18.8811 62.8781 19.0595C62.6986 19.257 62.2498 19.5262 61.7562 19.8134C61.0687 20.1767 60.4166 20.6034 59.8085 21.088H59.8175Z" fill="#AA5323"/>
<path d="M60.4098 20.0648C60.4098 20.0648 60.3021 19.8404 60.4906 19.6788C60.6791 19.5262 61.0291 19.1134 61.083 18.8531C61.1369 18.5838 61.092 18.6377 61.6395 18.4043C63.226 17.7383 64.7291 16.8888 66.1182 15.8733C66.3336 15.7027 66.8721 15.3347 67.0875 15.1552C67.0875 15.1552 67.1863 15.4424 66.9529 15.6489C66.1471 16.2783 65.305 16.8597 64.4308 17.3901C64.1705 17.5247 63.5333 17.8478 63.3089 18.0363C63.0845 18.2248 63.1204 18.2787 62.1152 18.7723C61.1099 19.257 61.0651 19.3108 61.092 19.3467C61.1279 19.3916 61.5766 19.1942 61.7921 19.0685C62.0075 18.9428 62.8242 18.5659 63.0755 18.3684C63.3179 18.171 63.7307 17.8658 63.9102 17.7671C64.0898 17.6773 65.5707 16.7798 66.0015 16.4656C66.4234 16.1515 66.54 16.0528 66.6298 16.1066C66.7195 16.1605 66.8721 16.1605 66.6836 16.34C66.4952 16.5195 65.8938 17.058 65.6604 17.2016C65.4271 17.3542 64.7091 17.785 64.5116 17.8837C64.3141 17.9915 64.2334 18.1799 64.1167 18.2607C64.009 18.3505 63.6769 18.5749 63.282 18.6646C62.8871 18.7544 62.8153 19.0595 62.555 19.2301C62.2857 19.3916 60.4368 20.3969 60.3829 20.4417C60.3829 20.4417 60.4906 20.3251 60.4098 20.0648Z" fill="#AA5323"/>
<path d="M66.8273 15.8912C66.8273 15.8912 66.7286 15.981 66.7824 16.0348C66.8542 16.1066 67.1145 16.2861 67.4376 15.963C67.898 15.5346 68.39 15.1415 68.9096 14.7872C69.1789 14.6167 69.3225 14.4641 69.3135 14.2397C69.3135 14.2397 67.9762 14.9488 66.8273 15.8912ZM68.6583 15.7745C68.6583 15.7745 68.8647 15.4335 69.3673 15.1104C69.87 14.7872 70.6239 14.3205 70.7137 14.2128C70.7137 14.2128 70.8932 14.4103 70.5072 14.6616C70.0827 14.9282 69.6638 15.2035 69.2507 15.4873C69.1609 15.5591 69.0083 15.6668 68.6583 15.7745Z" fill="#AA5323"/>
<path d="M58.4712 19.4814C58.4712 19.4814 57.9147 19.7775 58.1122 19.966C58.3096 20.1455 58.6058 20.0917 58.7404 20.0378C58.8571 19.993 59.0905 19.9301 59.1264 19.9212C59.1623 19.9122 59.647 19.7686 59.7726 19.5442C59.8893 19.3198 60.2214 19.0595 60.4817 18.871C60.742 18.6915 60.8407 18.4941 60.7958 18.3594C60.7958 18.3594 58.6058 19.4006 58.4712 19.4814ZM55.1503 22.0573C55.1503 22.0573 55.5452 21.8239 56.0837 21.9675C56.0837 21.9675 56.0568 21.8419 55.976 21.7701C55.976 21.7701 56.6312 21.5996 56.7748 21.3123C56.9184 21.0162 56.9543 21.079 57.071 20.9982C57.2057 20.9084 58.0852 20.1994 57.9865 20.0468C57.8788 19.8942 57.8609 19.6878 57.7891 19.616C57.7891 19.616 57.6095 19.8673 56.7389 20.2802C55.8863 20.702 54.9259 21.0162 54.2258 21.9496C53.5347 22.892 53.6065 23.4305 54.4592 23.6729C54.4592 23.6729 55.0516 23.2959 56.5145 23.4216C57.9686 23.5562 58.4622 24.1037 58.5609 24.2024C58.6507 24.3011 58.9469 24.6602 58.6597 25.2705C58.6597 25.2705 58.9559 25.3961 58.9738 25.1179C59.0007 24.8397 59.0187 24.9025 59.0815 24.9384C59.1533 24.9833 59.2341 24.9922 59.1982 24.7768C59.1713 24.5614 59.0725 24.0857 58.9289 23.9242C58.8033 23.7536 58.9559 23.8344 59.0366 23.8614C59.1264 23.8973 59.4316 24.1486 59.252 23.6818C59.0725 23.2331 59.0187 23.4575 59.0097 23.4754C59.0097 23.5023 58.9738 23.619 58.5699 23.3139C58.261 23.078 57.911 22.9015 57.5377 22.7933C57.2685 22.7215 57.457 22.7215 57.6185 22.6676C57.7801 22.6048 57.9865 22.5779 58.0673 22.3984C58.0673 22.3984 57.9057 22.4343 57.6185 22.3266C57.3906 22.2608 57.1505 22.2484 56.9171 22.2905C56.6836 22.3325 56.4629 22.4278 56.2722 22.5689C56.2722 22.5689 56.4158 22.0304 55.985 22.0573C55.5542 22.0842 55.258 22.0752 54.8002 22.4343C54.8002 22.4343 54.7733 21.8868 55.2041 21.5996C55.635 21.3213 55.5811 21.4918 55.8145 21.42C56.0568 21.3482 56.0837 21.1059 55.976 21.0251C55.976 21.0251 56.5415 21.1239 57.4839 20.343C57.4839 20.343 56.9723 21.0072 56.362 21.1418C56.362 21.1418 56.2632 21.5008 55.6978 21.5726C55.1413 21.6534 55.1593 21.9765 55.1593 22.0573H55.1503Z" fill="#7B3C20"/>
<path d="M53.5437 25.2974C53.5437 25.2974 53.813 23.646 55.3657 23.5293C56.712 23.4216 57.1428 23.5921 57.4121 23.6819C57.6813 23.7716 58.3455 23.9601 58.0852 24.1755C57.8339 24.3819 57.6813 24.346 57.6813 24.346C57.6813 24.346 57.9775 24.0139 57.7083 23.9601C57.439 23.9062 57.4211 24.0678 57.3852 24.2024C57.3403 24.346 57.3313 24.5076 57.1967 24.6153C57.1967 24.6153 57.062 24.4627 56.8646 24.5973C56.6671 24.732 56.8377 24.7409 56.9184 24.714C56.9902 24.6961 57.0979 24.6512 57.071 24.7769C57.0531 24.8935 56.9454 25.1 56.6223 25.2705C56.3081 25.4321 56.3171 25.4231 55.9401 25.4859C55.5542 25.5487 55.2041 25.7013 54.7195 26.1142C54.2258 26.536 53.6963 26.3924 53.5886 25.9347C53.4988 25.5308 53.5437 25.3064 53.5437 25.3064V25.2974Z" fill="#5A3719"/>
<path d="M55.3119 25.2436C55.3119 25.2436 55.4555 24.9205 55.1952 24.7679C55.1952 24.7679 54.3874 24.9115 54.1361 24.6691C54.1361 24.6691 55.0246 24.6153 55.5721 24.3999C56.1107 24.1934 55.9581 24.0409 55.7696 24.005C55.5811 23.9691 55.2311 24.0588 55.1952 24.2294C55.1952 24.2294 55.0875 24.0498 55.2221 23.9242C55.3657 23.7985 55.5811 23.7806 55.7696 23.8344C55.9671 23.8883 56.1376 23.978 56.7748 23.646C56.7748 23.646 57.1428 23.7357 57.1608 23.978C57.1608 24.2294 57.1339 24.3281 57.098 24.364C57.071 24.4089 57.0262 24.4807 56.9454 24.4717C56.8736 24.4627 56.7659 24.4448 56.6761 24.6153C56.5864 24.7948 56.5235 24.9384 56.362 25.0551C56.362 25.0551 56.5415 24.5166 56.0748 24.3909C56.0748 24.3909 55.6888 24.6153 55.3926 24.6332C55.3926 24.6332 55.7696 24.9833 55.3029 25.2436H55.3119Z" fill="black"/>
<path d="M56.1645 24.2563C56.1645 24.2563 55.985 24.0678 56.2184 24.0409C56.4517 24.0229 56.7569 24.1934 56.703 24.346C56.6402 24.4896 56.362 24.4806 56.1645 24.2563Z" fill="#5A3719"/>
<path d="M69.4481 21.6534C69.4481 21.6534 69.0172 21.7701 69.4211 22.0393C69.8161 22.3086 70.0135 22.533 70.3007 22.6048C70.5969 22.6856 70.8931 22.7843 70.8931 23.0805C70.8931 23.3677 70.8303 23.4844 70.6687 23.6818C70.5072 23.8883 70.7585 23.9691 70.9649 23.8614C71.1803 23.7447 71.3508 23.6818 71.4944 23.6011C71.6291 23.5203 71.8535 23.5293 71.656 23.637C71.4406 23.7447 71.2252 23.8165 71.4944 23.8165C71.7637 23.8255 73.3972 23.8614 73.7383 23.7447C74.0794 23.637 74.5281 23.6011 74.564 23.1613C74.564 23.1613 74.582 22.9638 74.7076 22.8741C74.8333 22.7933 74.9231 22.6048 74.7346 22.7305C74.5551 22.8651 74.4115 22.9279 74.3756 22.892C74.3397 22.8471 74.3217 22.8202 74.4653 22.7574C74.5999 22.6946 74.6717 22.7574 74.7974 22.5779C74.9231 22.3894 74.9141 22.4163 74.8423 22.3445C74.7794 22.2727 74.6358 22.2278 74.7076 22.1381C74.7794 22.0483 74.8423 21.7791 74.5461 21.9316C74.2499 22.0932 73.6575 22.4971 73.3793 22.5599C73.11 22.6228 72.9036 22.7035 72.5356 22.7753C72.1766 22.8561 71.9432 22.9369 71.5483 23.1523C71.1534 23.3677 71.1893 23.0266 71.2521 22.9818C71.2521 22.9818 71.4047 23.251 71.7996 22.901C72.1945 22.5599 72.0689 22.883 73.0472 22.5599C74.0165 22.2458 73.7832 22.1919 74.1601 21.9945C74.5461 21.797 74.9051 21.788 74.6358 21.5188C74.3666 21.2495 74.3396 21.2316 73.9986 21.5188C73.4508 21.9269 72.8085 22.1893 72.1317 22.2817C72.1317 22.2817 74.3307 21.3393 74.1063 21.2046C73.9149 21.0771 73.7064 20.9774 73.487 20.9085C73.3344 20.8725 73.2895 20.8366 72.9395 20.9982C72.5805 21.1508 72.5266 21.1867 72.4279 21.1957C72.3202 21.2046 72.024 21.2675 71.6022 21.4829C71.1893 21.6983 70.9649 21.788 70.6777 21.9586C70.6777 21.9586 70.8752 21.5637 71.7458 21.3034C72.6074 21.0431 73.0472 20.8097 72.9574 20.7648C72.8677 20.72 72.6433 20.6751 72.4817 20.711C72.3202 20.7379 72.3651 20.693 71.8355 20.9085C71.306 21.1149 71.5304 21.07 71.1085 21.1598C70.6777 21.2495 70.5072 21.3393 70.3007 21.429C70.3007 21.429 70.3905 21.3213 70.6687 21.2136C70.8213 21.1598 70.5072 21.1059 70.92 21.088H71.0367C71.3911 21.0117 71.7327 20.8848 72.0509 20.711C71.9612 20.693 71.4496 20.6392 70.929 20.8905C70.4084 21.1239 70.6418 21.0431 70.4623 21.07C70.2828 21.1149 69.8879 21.3572 69.7622 21.4649C69.6276 21.5726 69.4481 21.6444 69.4481 21.6444V21.6534Z" fill="white"/>
<path d="M56.5684 24.0229C56.5684 24.0229 56.7748 24.0857 56.8287 24.2294C56.8826 24.373 57.0082 24.1665 57.0082 24.1037C56.9992 24.0409 56.8736 23.7447 56.6492 23.8883C56.4248 24.0139 56.5415 24.0139 56.5684 24.0229Z" fill="#5A3719"/>
<path d="M56.003 26.8591C56.003 26.8591 56.4338 26.6527 56.8107 26.6796C56.8107 26.6796 56.6582 26.168 56.9184 26.2488C57.1698 26.3386 57.098 26.3027 57.1518 26.3027C57.1518 26.3027 57.1698 25.9616 57.098 25.827C57.098 25.827 57.3672 25.8898 57.6275 25.8898C57.6275 25.8898 57.3762 25.4051 57.6544 25.0641C57.705 25.1614 57.7748 25.2474 57.8597 25.3168C57.9446 25.3862 58.0427 25.4377 58.1481 25.468V25.1897C58.1481 25.1897 58.3455 25.1628 58.5071 25.2436C58.6686 25.3333 58.7943 24.355 58.3276 24.1486C58.3276 24.1486 58.2109 24.3281 57.7711 24.4178C57.3313 24.5076 57.3403 24.5973 57.1608 24.9294C56.9813 25.2615 56.8197 25.2615 56.4428 25.5039C56.0837 25.7372 55.8594 26.2219 55.8414 26.2668C55.8414 26.2668 56.0299 26.5001 56.003 26.8591Z" fill="#7B3C20"/>
<path d="M70.6777 21.2136C70.8303 21.1867 70.5072 21.1059 70.92 21.088H71.0367C71.3911 21.0117 71.7327 20.8848 72.0509 20.711C71.9612 20.693 71.4496 20.6392 70.929 20.8815C70.4084 21.1239 70.6418 21.0431 70.4623 21.079C70.2828 21.1149 69.8879 21.3572 69.7622 21.4649C69.6276 21.5726 69.4481 21.6444 69.4481 21.6444C69.4481 21.6444 69.0172 21.7701 69.4211 22.0393C69.8161 22.3086 70.0135 22.533 70.3007 22.6048C70.5969 22.6856 70.8931 22.7843 70.8931 23.0805C70.8982 23.1907 70.881 23.3008 70.8425 23.4041C70.8039 23.5075 70.7448 23.602 70.6687 23.6818C70.5072 23.8883 70.7585 23.9691 70.9649 23.8613C71.1803 23.7447 71.3508 23.6818 71.4944 23.6011C71.6291 23.5203 71.8535 23.5293 71.647 23.637C71.4406 23.7447 71.2252 23.8165 71.4944 23.8165C71.7637 23.8254 73.3972 23.8613 73.7383 23.7447C74.0794 23.637 74.5281 23.6011 74.564 23.1613C74.564 23.1613 74.582 22.9638 74.7076 22.8741C74.8333 22.7933 74.9231 22.6048 74.7346 22.7304C74.5551 22.8651 74.4025 22.9279 74.3756 22.892C74.3397 22.8471 74.3217 22.8202 74.4653 22.7574C74.5999 22.6945 74.6717 22.7574 74.7974 22.5779C74.9231 22.3894 74.9141 22.4163 74.8423 22.3445C74.8064 22.3086 74.7525 22.2817 74.7256 22.2458C74.7256 22.2458 74.6269 22.156 74.5102 22.2278C74.2534 22.3691 73.9787 22.4748 73.6934 22.542C73.496 22.5599 73.2806 22.6497 72.9215 22.8292C72.5625 23.0087 71.9612 23.3677 71.8624 23.0266C71.8624 23.0266 71.6022 23.1164 71.5483 23.1523C71.1444 23.3587 71.1803 23.0625 71.2521 22.9818C71.2521 22.9818 71.0367 23.2241 71.0457 23.0087C71.0547 22.7933 71.1893 22.8292 71.4316 22.7574C71.665 22.6856 72.033 22.533 71.8804 22.4073C71.7278 22.2817 71.5663 22.533 71.3957 22.6138C71.2252 22.6945 70.8841 22.7574 70.8303 22.515C70.7764 22.2637 70.7764 22.0932 70.3187 22.0663C69.8609 22.0393 69.8699 21.7521 69.9956 21.6265C70.1302 21.5008 70.2379 21.2944 70.6687 21.2136H70.6777Z" fill="#999999"/>
<path d="M72.1407 23.4485C72.1407 23.4485 72.8587 23.1254 73.5139 22.9638C74.1781 22.8112 73.6575 22.9907 73.5498 23.0177C73.4332 23.0536 72.41 23.3946 72.1676 23.5113C71.9253 23.619 71.9702 23.5293 72.1407 23.4575V23.4485ZM72.3023 23.6011C72.3023 23.6011 73.11 23.3318 73.2626 23.4395C73.4152 23.5562 73.2896 23.5023 73.11 23.5293C72.9305 23.5472 72.4459 23.628 72.3202 23.628C72.1856 23.628 72.3023 23.6011 72.3023 23.6011ZM73.6037 23.3139C73.6037 23.3139 73.7563 23.2869 73.7742 23.3498C73.7832 23.4036 73.7024 23.4126 73.6127 23.4036C73.5319 23.3857 73.4601 23.3408 73.6037 23.3139Z" fill="black"/>
<path d="M52.2602 30.3595C52.2602 30.3595 52.2333 29.6415 52.5923 29.2825C52.9513 28.9235 54.6836 27.1194 54.9528 26.6168C54.9528 26.6168 55.1772 26.7694 55.1862 27.0566C55.1862 27.0566 55.4824 26.554 55.7068 26.3655C55.7068 26.3655 55.9132 26.5719 55.8863 26.9938C55.8863 26.9938 56.2992 26.7694 56.9454 26.7694C56.9454 26.7694 56.703 27.0476 56.6941 27.2182C56.6941 27.2182 57.5916 27.1105 58.0673 27.1912C58.0673 27.1912 56.8287 27.8823 57.1698 27.9452C57.5288 28.008 57.8878 27.9452 57.8878 27.9452C57.8878 27.9452 57.4929 28.3401 56.8646 28.4209C56.8646 28.4209 57.6634 28.4119 57.825 28.5914C57.825 28.5914 57.0441 28.7081 56.4248 29.1838C56.4248 29.1838 56.362 29.1568 56.362 28.9773C56.362 28.9773 56.3351 29.1389 56.1555 29.2915C55.976 29.4351 55.5542 29.7582 55.3926 29.9197C55.2311 30.0723 54.9439 30.3954 54.6208 30.3775C54.6208 30.3775 54.6926 30.1352 54.4592 30.0544C54.3376 30.0135 54.2068 30.0087 54.0826 30.0406C53.9584 30.0724 53.846 30.1396 53.7591 30.2339C53.7591 30.2339 52.9244 30.2518 52.6551 30.2877C52.6551 30.2877 52.8436 29.9826 53.0142 29.9916C53.1937 29.9916 53.8937 30.0993 53.9566 29.6146C54.0194 29.1389 53.5078 29.2645 53.6963 28.9863C53.8937 28.6991 53.8489 28.717 53.8578 28.6811C53.8578 28.6811 53.6963 28.7709 53.6065 29.0222C53.5291 29.3062 53.3544 29.554 53.1129 29.7223C52.8817 29.8702 52.6881 30.07 52.5474 30.3057C52.5474 30.3057 52.3949 30.3236 52.2602 30.3595Z" fill="white"/>
<path d="M53.068 29.9287C53.068 29.9287 53.0949 29.839 53.3373 29.7941C53.5886 29.7492 53.6065 29.6325 53.5706 29.5787C53.5347 29.5338 53.3911 29.5338 53.6245 29.2556C53.6245 29.2556 53.7142 29.2825 53.7681 29.3453C53.8309 29.4171 54.1002 29.9916 53.068 29.9287Z" fill="white"/>
<path d="M52.4846 29.4261C52.4936 29.9018 53.1129 29.7223 53.1129 29.7223C52.9471 29.8412 52.7964 29.9798 52.6641 30.1352C52.709 29.9018 52.3141 29.8479 52.3141 29.8479C52.3482 29.6992 52.4057 29.5568 52.4846 29.4261ZM54.7554 26.904C54.8451 26.7873 54.9169 26.6886 54.9528 26.6168C54.9528 26.6168 55.1772 26.7694 55.1862 27.0566C55.1862 27.0566 55.4824 26.554 55.7068 26.3655C55.7068 26.3655 55.9132 26.5719 55.8863 26.9938C55.8863 26.9938 56.2992 26.7694 56.9454 26.7694C56.9454 26.7694 56.7031 27.0476 56.6941 27.2182C56.6941 27.2182 57.5916 27.1105 58.0673 27.1912C58.0673 27.1912 56.8287 27.8823 57.1698 27.9452C57.5288 28.008 57.8878 27.9452 57.8878 27.9452C57.8878 27.9452 57.4929 28.3401 56.8646 28.4209C56.8646 28.4209 57.6634 28.4119 57.825 28.5914C57.825 28.5914 57.5916 28.6273 57.2864 28.735C57.2864 28.735 57.0621 28.5196 56.3889 28.5555C56.3889 28.5555 56.9095 28.2593 57.3224 28.1606C57.3224 28.1606 57.1428 27.9272 56.8556 28.1426C56.8556 28.1426 56.2902 27.7567 56.7659 27.4246C56.7659 27.4246 56.4338 27.3618 56.2184 27.5143C56.2184 27.5143 56.2184 27.2451 56.4607 27.1284C56.4607 27.1284 55.8324 27.0207 55.6799 27.4874C55.6799 27.4874 55.5542 27.2989 55.617 27.0835C55.617 27.0835 55.2311 27.2989 55.0606 27.5502C55.0606 27.5502 54.9977 27.0745 54.7554 26.904ZM53.5347 29.9018C53.427 29.9287 53.2655 29.9377 53.068 29.9287C53.068 29.9287 53.086 29.8659 53.2206 29.821C53.2206 29.821 53.2565 29.9018 53.5347 29.9018Z" fill="#999999"/>
<path d="M54.6836 28.1157C54.6836 28.1157 54.9708 28.3401 55.0695 28.4747C55.0695 28.4747 55.3388 28.2952 55.4285 28.1426C55.4285 28.1426 55.635 28.2773 55.6978 28.4747C55.6978 28.4747 55.8504 28.385 55.8773 28.2414C55.8773 28.2414 56.2363 28.3132 56.362 28.4298C56.362 28.4298 56.4158 28.0888 56.362 27.8644C56.362 27.8644 56.6133 27.8913 56.7659 27.9541C56.7659 27.9541 56.6222 27.7208 57.3493 27.4246C57.3493 27.4246 56.8018 27.5502 56.5863 27.7836C56.5863 27.7836 56.353 27.8016 56.2543 27.7298V28.2503C56.2543 28.2503 56.1107 28.1875 55.8414 28.1247C55.8414 28.1247 55.7696 28.2414 55.7247 28.2683C55.7247 28.2683 55.5452 28.1247 55.4734 27.9541C55.4734 27.9541 55.2041 28.1965 55.1144 28.2952C55.1144 28.2952 54.8541 28.1157 54.6836 28.1157Z" fill="black"/>
<path d="M53.0321 31.6969C53.0321 31.6969 53.1488 31.7507 53.418 31.5353C53.6873 31.3199 54.4323 30.8442 54.4951 30.4583C54.5759 30.0723 54.2617 30.0544 54.0194 30.1621C53.7681 30.2788 53.8758 30.4852 53.8848 30.557C53.8937 30.6288 53.9027 30.8981 53.4988 31.266L53.0321 31.6969Z" fill="#FFC221"/>
<path d="M52.9513 31.8136C52.9513 31.8136 52.35 31.5622 52.8885 31.293C53.427 31.0237 53.6693 30.9519 53.7322 30.7186C53.795 30.4942 53.7591 30.539 53.5527 30.6288C53.3552 30.7186 52.5923 31.0776 52.4756 30.7455C52.4756 30.7455 52.7898 30.8711 53.1847 30.6827C53.5796 30.4852 53.9027 30.4313 53.6514 30.3506C53.4001 30.2698 52.4936 30.3685 52.35 30.4134C52.1974 30.4583 52.2333 30.4493 52.2064 30.5929C52.1794 30.7455 52.0179 31.0596 51.955 31.1494C51.8922 31.2391 51.7396 31.6251 52.0179 31.7956C52.2871 31.9661 52.7359 31.9482 52.9513 31.8136Z" fill="#FFC221"/>
<path d="M52.718 30.5031C52.718 30.5031 52.5744 30.5211 52.6013 30.5749C52.6282 30.6288 52.6641 30.6198 52.718 30.6198C52.7629 30.6198 52.8436 30.5929 52.8526 30.566C52.8616 30.5301 52.7629 30.4852 52.718 30.5031Z" fill="black"/>
<path d="M52.9064 31.6789C52.9064 31.6789 52.6282 31.5443 52.9513 31.3738C53.2744 31.1943 53.6155 31.0237 53.6693 30.9519C53.6693 30.9519 53.5078 31.1673 52.9154 31.6789H52.9064Z" fill="white"/>
</g>
<defs>
<clipPath id="clip0_1_7696">
<rect width="75" height="56.25" fill="white" transform="translate(0 0.375)"/>
</clipPath>
</defs>
</svg>
