<svg width="75" height="75" viewBox="0 0 75 75" fill="none" xmlns="http://www.w3.org/2000/svg">
<rect width="74.6667" height="74.75" fill="white"/>
<g clip-path="url(#clip0_1_8290)">
<path d="M0 9.375V65.3744H83.9992V9.375H0Z" fill="#3399CC"/>
<path d="M6.10352e-05 46.7079V49.819H83.9992V46.7079H6.10352e-05ZM6.10352e-05 52.9301V56.0412H83.9992V52.9301H6.10352e-05Z" fill="#FFFF00"/>
<path d="M16.6483 12.6417L16.9867 12.9917L16.6367 12.6417H16.6483ZM16.2983 13.3417L16.6483 13.6917L16.2983 13.3417ZM16.9867 13.3417L17.3367 13.6917L16.9867 13.3417Z" fill="#99CCCC"/>
<path d="M16.2983 13.6917L16.6483 14.03L16.2983 13.68M16.9867 13.68L17.3367 14.03L16.9867 13.68Z" fill="#CCCCFF"/>
<path d="M15.9484 14.3683L16.2984 14.7183L15.9484 14.3683Z" fill="#66CCCC"/>
<path d="M16.6484 14.3683L16.9867 14.7183L16.6367 14.3683H16.6484Z" fill="#CC6666"/>
<path d="M17.3367 14.3683L17.675 14.7183L17.325 14.3683H17.3367Z" fill="#66CCCC"/>
<path d="M15.9484 14.7184L16.2984 15.0684L15.9484 14.7184ZM17.3367 14.7184L17.675 15.0684L17.325 14.7184H17.3367Z" fill="#CCCCFF"/>
<path d="M16.2983 15.0567L16.6483 15.4067L16.2983 15.0567ZM16.9867 15.0567L17.3367 15.4067L16.9867 15.0567Z" fill="#FFCCCC"/>
<path d="M15.61 15.4066L15.96 15.7566L15.61 15.4066Z" fill="#66CCCC"/>
<path d="M16.5901 13.3417L14.1751 22.5L4.99341 25.0083L14.1401 27.4L16.5901 36.5467L19.0284 27.4L28.1751 24.95L19.0284 22.5117L16.5784 13.365L16.5901 13.3417Z" fill="#CC0000" stroke="white" stroke-width="0.431667"/>
<path d="M17.675 15.4066L18.025 15.7566L17.675 15.4066Z" fill="#66CCCC"/>
<path d="M15.61 15.745L15.96 16.095L15.61 15.745ZM17.675 15.745L18.025 16.095L17.675 15.745Z" fill="#99CCFF"/>
<path d="M15.9484 16.095L16.2984 16.445L15.9484 16.095ZM17.3367 16.095L17.675 16.445L17.325 16.095H17.3367Z" fill="#FFCCCC"/>
<path d="M15.2601 16.4333L15.6101 16.7833L15.2601 16.4333Z" fill="#6699CC"/>
<path d="M16.0651 16.6667L16.1817 16.9L16.0651 16.6667ZM17.4417 16.6667L17.5584 16.9L17.4417 16.6667Z" fill="#CC3333"/>
<path d="M18.025 16.4333L18.375 16.7833L18.025 16.4333Z" fill="#6699CC"/>
<path d="M15.2601 16.7833L15.6101 17.1333L15.2601 16.7833ZM18.0251 16.7833L18.3751 17.1333L18.0251 16.7833Z" fill="#99CCFF"/>
<path d="M15.61 17.1217L15.96 17.4717L15.61 17.1217ZM17.675 17.1217L18.025 17.4717L17.675 17.1217Z" fill="#FFCCCC"/>
<path d="M14.9217 17.4717L15.2717 17.8217L14.9217 17.4717ZM18.3634 17.4717L18.7134 17.8217L18.3634 17.4717Z" fill="#6699CC"/>
<path d="M14.9217 17.81L15.2717 18.16L14.9217 17.81ZM18.3634 17.81L18.7134 18.16L18.3634 17.81Z" fill="#99CCCC"/>
<path d="M14.9217 18.16L15.2717 18.51L14.9217 18.16ZM18.3634 18.16L18.7134 18.51L18.3634 18.16Z" fill="#CCFFFF"/>
<path d="M14.5834 18.51L14.9217 18.8483L14.5717 18.4983L14.5834 18.51Z" fill="#6699CC"/>
<path d="M15.2601 18.51L15.6101 18.8483L15.2601 18.4983M18.0251 18.4983L18.3751 18.8483L18.0251 18.4983Z" fill="#FFCCCC"/>
<path d="M18.7134 18.51L19.0634 18.8483L18.7134 18.4983V18.51Z" fill="#6699CC"/>
<path d="M14.5834 18.8483L14.9217 19.1983L14.5717 18.8483H14.5834Z" fill="#99CCCC"/>
<path d="M15.3767 19.0817L15.4934 19.315L15.3767 19.0817ZM18.13 19.0817L18.2467 19.315L18.13 19.0817Z" fill="#CC3333"/>
<path d="M18.7134 18.8483L19.0634 19.1983L18.7134 18.8483Z" fill="#99CCCC"/>
<path d="M14.5834 19.1983L14.9217 19.5483L14.5717 19.1983M18.7134 19.1983L19.0634 19.5483L18.7134 19.1983Z" fill="#CCFFFF"/>
<path d="M14.9217 19.5367L15.2717 19.8867L14.9217 19.5367ZM18.3634 19.5367L18.7134 19.8867L18.3634 19.5367Z" fill="#FFCCCC"/>
<path d="M14.2334 19.875L14.5834 20.225L14.2334 19.875Z" fill="#99CCCC"/>
<path d="M15.0384 20.1083L15.1551 20.3417L15.0384 20.1083ZM18.4801 20.1083L18.5967 20.3417L18.4801 20.1083Z" fill="#CC3333"/>
<path d="M19.0517 19.875L19.4017 20.225L19.0517 19.875Z" fill="#99CCCC"/>
<path d="M14.2334 20.225L14.5834 20.575L14.2334 20.225ZM19.0517 20.225L19.4017 20.575L19.0517 20.225Z" fill="#CCCCFF"/>
<path d="M14.5834 20.575L14.9217 20.925L14.5717 20.575M18.7134 20.575L19.0634 20.925L18.7134 20.575Z" fill="#FFCCCC"/>
<path d="M13.8834 20.925L14.2334 21.2633L13.8834 20.9133V20.925Z" fill="#99CCCC"/>
<path d="M14.7 21.1467L14.805 21.38L14.6884 21.1467M18.8184 21.1467L18.935 21.38L18.8184 21.1467Z" fill="#CC3333"/>
<path d="M19.4017 20.925L19.7517 21.2633L19.4017 20.9133V20.925Z" fill="#99CCCC"/>
<path d="M13.8834 21.2633L14.2334 21.6133L13.8834 21.2633ZM19.4017 21.2633L19.7517 21.6133L19.4017 21.2633Z" fill="#CCCCFF"/>
<path d="M14.2334 21.6017L14.5834 21.9517L14.2334 21.6017ZM19.0517 21.6017L19.4017 21.9517L19.0517 21.6017Z" fill="#FFCCCC"/>
<path d="M13.5334 21.9517L13.8834 22.3017L13.5334 21.9517Z" fill="#99CCCC"/>
<path d="M14.2334 21.9517L14.5834 22.3017L14.2334 21.9517ZM19.0517 21.9517L19.4017 22.3017L19.0517 21.9517Z" fill="#CC3333"/>
<path d="M19.74 21.9517L20.09 22.3017L19.74 21.9517ZM12.5067 22.3017L12.8567 22.64L12.5067 22.29V22.3017Z" fill="#99CCCC"/>
<path d="M12.8567 22.29L13.2067 22.64L12.8567 22.29ZM20.44 22.29L20.7784 22.64L20.4284 22.29H20.44Z" fill="#CCCCFF"/>
<path d="M20.7667 22.29L21.1167 22.64L20.7667 22.29ZM11.48 22.64L11.83 22.99L11.48 22.64Z" fill="#99CCCC"/>
<path d="M11.8184 22.64L12.1684 22.99L11.8184 22.64Z" fill="#CCCCFF"/>
<path d="M13.1951 22.64L13.5451 22.99L13.1951 22.64Z" fill="#FFCCCC"/>
<path d="M13.5334 22.64L13.8834 22.99L13.5334 22.64ZM19.7401 22.64L20.0901 22.99L19.7401 22.64Z" fill="#CC3333"/>
<path d="M20.09 22.64L20.44 22.99L20.09 22.64Z" fill="#FFCCCC"/>
<path d="M21.4667 22.64L21.8167 22.99L21.4667 22.64Z" fill="#CCCCFF"/>
<path d="M21.8167 22.64L22.1551 22.99L21.8051 22.64H21.8167Z" fill="#99CCCC"/>
<path d="M10.1034 22.9783L10.4534 23.3283L10.1034 22.9783Z" fill="#6699CC"/>
<path d="M10.4417 22.9783L10.7917 23.3283L10.4417 22.9783Z" fill="#99CCCC"/>
<path d="M10.7917 22.9783L11.1417 23.3283L10.7917 22.9783Z" fill="#CCFFFF"/>
<path d="M12.1684 22.9783L12.5184 23.3283L12.1684 22.9783Z" fill="#FFCCCC"/>
<path d="M12.7401 23.095L12.9734 23.2117L12.7401 23.095ZM20.6617 23.095L20.8951 23.2117L20.6617 23.095Z" fill="#CC3333"/>
<path d="M21.1167 22.9783L21.4667 23.3283L21.1167 22.9783Z" fill="#FFCCCC"/>
<path d="M22.4934 22.9783L22.8434 23.3283L22.4934 22.9783Z" fill="#CCFFFF"/>
<path d="M22.8434 22.9783L23.1934 23.3283L22.8434 22.9783Z" fill="#99CCCC"/>
<path d="M23.1817 22.9783L23.5317 23.3283L23.1817 22.9783ZM9.06506 23.3283L9.41506 23.6783L9.06506 23.3283Z" fill="#6699CC"/>
<path d="M9.41504 23.3283L9.76504 23.6783L9.41504 23.3283Z" fill="#99CCCC"/>
<path d="M9.75336 23.3283L10.1034 23.6783L9.75336 23.3283Z" fill="#CCFFFF"/>
<path d="M11.13 23.3283L11.48 23.6783L11.13 23.3283Z" fill="#FFCCCC"/>
<path d="M11.7017 23.445L11.9351 23.5617L11.7017 23.445ZM21.6884 23.445L21.9217 23.5617L21.6884 23.445Z" fill="#CC3333"/>
<path d="M22.155 23.3283L22.505 23.6783L22.155 23.3283Z" fill="#FFCCCC"/>
<path d="M23.5317 23.3283L23.8817 23.6783L23.5317 23.3283Z" fill="#CCFFFF"/>
<path d="M23.8701 23.3283L24.2201 23.6783L23.8701 23.3283Z" fill="#99CCCC"/>
<path d="M24.2201 23.3283L24.5701 23.6783L24.2201 23.3283ZM8.02673 23.6783L8.37673 24.0167L8.02673 23.6667V23.6783Z" fill="#6699CC"/>
<path d="M8.37671 23.6667L8.72671 24.0167L8.37671 23.6667Z" fill="#99CCFF"/>
<path d="M10.1034 23.6667L10.4534 24.0167L10.1034 23.6667Z" fill="#FFCCCC"/>
<path d="M10.675 23.7833L10.9084 23.9L10.675 23.7833ZM22.7267 23.7833L22.96 23.9L22.7267 23.7833Z" fill="#CC3333"/>
<path d="M23.1817 23.6667L23.5317 24.0167L23.1817 23.6667Z" fill="#FFCCCC"/>
<path d="M24.9084 23.6667L25.2584 24.0167L24.9084 23.6667Z" fill="#99CCFF"/>
<path d="M25.2467 23.6667L25.5967 24.0167L25.2467 23.6667Z" fill="#6699CC"/>
<path d="M7.00006 24.0167L7.35006 24.3667L7.00006 24.0167Z" fill="#66CCCC"/>
<path d="M7.35005 24.0167L7.68838 24.3667L7.33838 24.0167H7.35005Z" fill="#99CCFF"/>
<path d="M8.72669 24.0167L9.06503 24.3667L8.71503 24.0167H8.72669ZM24.57 24.0167L24.9084 24.3667L24.5584 24.0167H24.57Z" fill="#FFCCCC"/>
<path d="M25.9351 24.0167L26.2851 24.3667L25.9351 24.0167Z" fill="#99CCFF"/>
<path d="M26.2851 24.0167L26.6351 24.3667L26.2851 24.0167ZM5.96173 24.3667L6.31173 24.705L5.96173 24.355V24.3667Z" fill="#66CCCC"/>
<path d="M6.30005 24.355L6.65005 24.705L6.30005 24.355Z" fill="#CCCCFF"/>
<path d="M7.68835 24.355L8.03835 24.705L7.68835 24.355Z" fill="#FFCCCC"/>
<path d="M8.26007 24.4717L8.4934 24.5883L8.26007 24.4717ZM25.1417 24.4717L25.3751 24.5883L25.1417 24.4717Z" fill="#CC3333"/>
<path d="M25.5967 24.355L25.9467 24.705L25.5967 24.355Z" fill="#FFCCCC"/>
<path d="M26.9734 24.355L27.3234 24.705L26.9734 24.355Z" fill="#CCCCFF"/>
<path d="M27.3234 24.355L27.6734 24.705L27.3234 24.355Z" fill="#66CCCC"/>
<path d="M4.93506 24.705L5.28506 25.055L4.93506 24.705Z" fill="#99CCCC"/>
<path d="M5.27338 24.705L5.62338 25.055L5.27338 24.705Z" fill="#CCCCFF"/>
<path d="M6.65002 24.705L7.00002 25.055L6.65002 24.705ZM26.635 24.705L26.985 25.055L26.635 24.705Z" fill="#FFCCCC"/>
<path d="M28.0001 24.705L28.3501 25.055L28.0001 24.705Z" fill="#CCCCFF"/>
<path d="M28.35 24.705L28.7 25.055L28.35 24.705ZM4.2467 25.055L4.5967 25.3934L4.2467 25.0434V25.055Z" fill="#99CCCC"/>
<path d="M5.96173 25.0433L6.31173 25.3933L5.96173 25.0433ZM27.3117 25.0433L27.6617 25.3933L27.3117 25.0433Z" fill="#CC6666"/>
<path d="M29.0501 25.0433L29.3884 25.3933L29.0384 25.0433M4.93506 25.3933L5.28506 25.7433L4.93506 25.3933Z" fill="#99CCCC"/>
<path d="M5.27338 25.3933L5.62338 25.7433L5.27338 25.3933Z" fill="#CCCCFF"/>
<path d="M6.65002 25.3933L7.00002 25.7433L6.65002 25.3933ZM26.635 25.3933L26.985 25.7433L26.635 25.3933Z" fill="#FFCCCC"/>
<path d="M28.0001 25.3933L28.3501 25.7433L28.0001 25.3933Z" fill="#CCCCFF"/>
<path d="M28.35 25.3933L28.7 25.7433L28.35 25.3933Z" fill="#99CCCC"/>
<path d="M5.96173 25.7433L6.31173 26.0817L5.96173 25.7317V25.7433Z" fill="#66CCCC"/>
<path d="M6.30005 25.7433L6.65005 26.0817L6.30005 25.7317V25.7433Z" fill="#CCCCFF"/>
<path d="M7.68835 25.7433L8.03835 26.0817L7.68835 25.7317V25.7433Z" fill="#FFCCCC"/>
<path d="M8.26007 25.8483L8.4934 25.965L8.26007 25.8483ZM25.1417 25.8483L25.3751 25.965L25.1417 25.8483Z" fill="#CC3333"/>
<path d="M25.5967 25.7433L25.9467 26.0817L25.5967 25.7317V25.7433Z" fill="#FFCCCC"/>
<path d="M26.9734 25.7433L27.3234 26.0817L26.9734 25.7317V25.7433Z" fill="#CCCCFF"/>
<path d="M27.3234 25.7433L27.6734 26.0817L27.3234 25.7317M7.00006 26.0817L7.35006 26.4317L7.00006 26.0817Z" fill="#66CCCC"/>
<path d="M7.35005 26.0817L7.68838 26.4317L7.33838 26.0817H7.35005Z" fill="#99CCFF"/>
<path d="M8.72669 26.0817L9.06503 26.4317L8.71503 26.0817H8.72669ZM24.57 26.0817L24.9084 26.4317L24.5584 26.0817H24.57Z" fill="#FFCCCC"/>
<path d="M25.9351 26.0817L26.2851 26.4317L25.9351 26.0817Z" fill="#99CCFF"/>
<path d="M26.285 26.0817L26.635 26.4317L26.285 26.0817Z" fill="#66CCCC"/>
<path d="M8.02673 26.4316L8.37673 26.77L8.02673 26.42V26.4316Z" fill="#6699CC"/>
<path d="M8.37671 26.4316L8.72671 26.77L8.37671 26.42V26.4316Z" fill="#99CCFF"/>
<path d="M10.1034 26.4316L10.4534 26.77L10.1034 26.42V26.4316Z" fill="#FFCCCC"/>
<path d="M10.675 26.5367L10.9084 26.6533L10.675 26.5367ZM22.7267 26.5367L22.96 26.6533L22.7267 26.5367Z" fill="#CC3333"/>
<path d="M23.1817 26.4316L23.5317 26.77L23.1817 26.42V26.4316Z" fill="#FFCCCC"/>
<path d="M24.9084 26.4316L25.2584 26.77L24.9084 26.42V26.4316Z" fill="#99CCFF"/>
<path d="M25.2467 26.4316L25.5967 26.77L25.2467 26.42M9.06506 26.77L9.41506 27.12L9.06506 26.77Z" fill="#6699CC"/>
<path d="M9.41504 26.77L9.76504 27.12L9.41504 26.77Z" fill="#99CCCC"/>
<path d="M9.75336 26.77L10.1034 27.12L9.75336 26.77Z" fill="#CCFFFF"/>
<path d="M11.13 26.77L11.48 27.12L11.13 26.77Z" fill="#FFCCCC"/>
<path d="M11.7017 26.875L11.9351 26.9917L11.7017 26.875ZM21.6884 26.875L21.9217 26.9917L21.6884 26.875Z" fill="#CC3333"/>
<path d="M22.155 26.77L22.505 27.12L22.155 26.77Z" fill="#FFCCCC"/>
<path d="M23.5317 26.77L23.8817 27.12L23.5317 26.77Z" fill="#CCFFFF"/>
<path d="M23.8701 26.77L24.2201 27.12L23.8701 26.77Z" fill="#99CCCC"/>
<path d="M24.2201 26.77L24.5701 27.12L24.2201 26.77ZM10.1034 27.12L10.4417 27.4583L10.0917 27.1083L10.1034 27.12Z" fill="#6699CC"/>
<path d="M10.4417 27.1083L10.7917 27.4583L10.4417 27.1083Z" fill="#99CCCC"/>
<path d="M10.7917 27.1083L11.1417 27.4583L10.7917 27.1083Z" fill="#CCFFFF"/>
<path d="M12.1684 27.1083L12.5184 27.4583L12.1684 27.1083Z" fill="#FFCCCC"/>
<path d="M12.7401 27.225L12.9734 27.3417L12.7401 27.225ZM20.6617 27.225L20.8951 27.3417L20.6617 27.225Z" fill="#CC3333"/>
<path d="M21.1167 27.1083L21.4667 27.4583L21.1167 27.1083Z" fill="#FFCCCC"/>
<path d="M22.4934 27.1083L22.8434 27.4583L22.4934 27.1083Z" fill="#CCFFFF"/>
<path d="M22.8434 27.1083L23.1934 27.4583L22.8434 27.1083Z" fill="#99CCCC"/>
<path d="M23.1817 27.1083L23.5317 27.4583L23.1817 27.1083Z" fill="#6699CC"/>
<path d="M11.48 27.4583L11.83 27.8083L11.48 27.4583Z" fill="#99CCCC"/>
<path d="M11.8184 27.4583L12.1684 27.8083L11.8184 27.4583Z" fill="#CCCCFF"/>
<path d="M13.1951 27.4583L13.5451 27.8083L13.1951 27.4583Z" fill="#FFCCCC"/>
<path d="M13.5334 27.4583L13.8834 27.8083L13.5334 27.4583ZM19.7401 27.4583L20.0901 27.8083L19.7401 27.4583Z" fill="#CC3333"/>
<path d="M20.09 27.4583L20.44 27.8083L20.09 27.4583Z" fill="#FFCCCC"/>
<path d="M21.4667 27.4583L21.8167 27.8083L21.4667 27.4583Z" fill="#CCCCFF"/>
<path d="M21.8167 27.4583L22.155 27.8083L21.805 27.4583M12.5067 27.8083L12.8567 28.1583L12.5067 27.8083Z" fill="#99CCCC"/>
<path d="M12.8567 27.8083L13.2067 28.1583L12.8567 27.8083ZM20.44 27.8083L20.7784 28.1583L20.4284 27.8083H20.44Z" fill="#CCCCFF"/>
<path d="M20.7667 27.8083L21.1167 28.1583L20.7667 27.8083ZM13.5334 28.1583L13.8834 28.4967L13.5334 28.1467V28.1583Z" fill="#99CCCC"/>
<path d="M14.2334 28.1583L14.5834 28.4967L14.2334 28.1467M19.0517 28.1467L19.4017 28.4967L19.0517 28.1467Z" fill="#CC3333"/>
<path d="M19.7401 28.1583L20.0901 28.4967L19.7401 28.1467V28.1583Z" fill="#99CCCC"/>
<path d="M14.2334 28.4967L14.5834 28.8467L14.2334 28.4967ZM19.0517 28.4967L19.4017 28.8467L19.0517 28.4967Z" fill="#FFCCCC"/>
<path d="M13.8834 28.835L14.2334 29.185L13.8834 28.835Z" fill="#CCCCFF"/>
<path d="M14.7 29.0683L14.805 29.3017L14.6884 29.0683M18.8184 29.0683L18.935 29.3017L18.8184 29.0683Z" fill="#CC3333"/>
<path d="M19.4017 28.835L19.7517 29.185L19.4017 28.835Z" fill="#CCCCFF"/>
<path d="M13.8834 29.185L14.2334 29.535L13.8834 29.185ZM19.4017 29.185L19.7517 29.535L19.4017 29.185Z" fill="#99CCCC"/>
<path d="M14.5834 29.5233L14.9217 29.8733L14.5717 29.5233M18.7134 29.5233L19.0634 29.8733L18.7134 29.5233Z" fill="#FFCCCC"/>
<path d="M14.2334 29.8733L14.5834 30.2233L14.2334 29.8733Z" fill="#CCCCFF"/>
<path d="M15.0384 30.095L15.1551 30.3283L15.0384 30.095ZM18.4801 30.095L18.5967 30.3283L18.4801 30.095Z" fill="#CC3333"/>
<path d="M19.0517 29.8733L19.4017 30.2233L19.0517 29.8733Z" fill="#CCCCFF"/>
<path d="M14.2334 30.2117L14.5834 30.5617L14.2334 30.2117ZM19.0517 30.2117L19.4017 30.5617L19.0517 30.2117Z" fill="#99CCCC"/>
<path d="M14.9217 30.5617L15.2717 30.9117L14.9217 30.5617ZM18.3634 30.5617L18.7134 30.9117L18.3634 30.5617Z" fill="#FFCCCC"/>
<path d="M14.5834 30.9L14.9217 31.25L14.5717 30.9H14.5834Z" fill="#CCFFFF"/>
<path d="M15.3767 31.1333L15.4934 31.3667L15.3767 31.1333ZM18.13 31.1333L18.2467 31.3667L18.13 31.1333Z" fill="#CC3333"/>
<path d="M18.7134 30.9L19.0634 31.25L18.7134 30.9Z" fill="#CCFFFF"/>
<path d="M14.5834 31.25L14.9217 31.6L14.5717 31.25M18.7134 31.25L19.0634 31.6L18.7134 31.25Z" fill="#99CCCC"/>
<path d="M14.5834 31.5883L14.9217 31.9383L14.5717 31.5883H14.5834Z" fill="#6699CC"/>
<path d="M15.2601 31.5883L15.6101 31.9383L15.2601 31.5883ZM18.0251 31.5883L18.3751 31.9383L18.0251 31.5883Z" fill="#FFCCCC"/>
<path d="M18.7134 31.5883L19.0634 31.9383L18.7134 31.5883Z" fill="#6699CC"/>
<path d="M14.9217 31.9383L15.2717 32.2883L14.9217 31.9383ZM18.3634 31.9383L18.7134 32.2883L18.3634 31.9383Z" fill="#CCFFFF"/>
<path d="M14.9217 32.2767L15.2717 32.6267L14.9217 32.2767ZM18.3634 32.2767L18.7134 32.6267L18.3634 32.2767Z" fill="#99CCCC"/>
<path d="M14.9217 32.6267L15.2717 32.9767L14.9217 32.6267ZM18.3634 32.6267L18.7134 32.9767L18.3634 32.6267Z" fill="#6699CC"/>
<path d="M15.61 32.965L15.96 33.315L15.61 32.965ZM17.675 32.965L18.025 33.315L17.675 32.965Z" fill="#FFCCCC"/>
<path d="M15.2601 33.315L15.6101 33.665L15.2601 33.315Z" fill="#99CCFF"/>
<path d="M16.0651 33.5483L16.1817 33.7817L16.0651 33.5483ZM17.4417 33.5483L17.5584 33.7817L17.4417 33.5483Z" fill="#CC3333"/>
<path d="M18.025 33.315L18.375 33.665L18.025 33.315Z" fill="#99CCFF"/>
<path d="M15.2601 33.665L15.6101 34.0033L15.2601 33.6533M18.0251 33.6533L18.3751 34.0033L18.0251 33.6533Z" fill="#6699CC"/>
<path d="M15.9484 34.0033L16.2984 34.3533L15.9484 34.0033ZM17.3367 34.0033L17.675 34.3533L17.325 34.0033H17.3367Z" fill="#FFCCCC"/>
<path d="M15.61 34.3417L15.96 34.6917L15.61 34.3417ZM17.675 34.3417L18.025 34.6917L17.675 34.3417Z" fill="#99CCFF"/>
<path d="M15.61 34.6917L15.96 35.0417L15.61 34.6917ZM17.675 34.6917L18.025 35.0417L17.675 34.6917Z" fill="#66CCCC"/>
<path d="M16.2983 35.0417L16.6483 35.3917L16.2983 35.0417ZM16.9867 35.0417L17.3367 35.3917L16.9867 35.0417Z" fill="#FFCCCC"/>
<path d="M15.9484 35.38L16.2984 35.73L15.9484 35.38ZM17.3367 35.38L17.675 35.73L17.325 35.38H17.3367Z" fill="#CCCCFF"/>
<path d="M15.9484 35.73L16.2984 36.08L15.9484 35.73Z" fill="#66CCCC"/>
<path d="M16.6484 35.73L16.9867 36.08L16.6367 35.73H16.6484Z" fill="#CC6666"/>
<path d="M17.3367 35.73L17.675 36.08L17.325 35.73H17.3367Z" fill="#66CCCC"/>
<path d="M16.2983 36.4183L16.6483 36.7683L16.2983 36.4183ZM16.9867 36.4183L17.3367 36.7683L16.9867 36.4183Z" fill="#CCCCFF"/>
<path d="M16.2983 36.7567L16.6483 37.1067L16.2983 36.7567ZM16.9867 36.7567L17.3367 37.1067L16.9867 36.7567ZM16.6367 37.4567L16.9867 37.795L16.6367 37.445V37.4567Z" fill="#99CCCC"/>
</g>
<defs>
<clipPath id="clip0_1_8290">
<rect width="74.6667" height="56" fill="white" transform="translate(0 9.375)"/>
</clipPath>
</defs>
</svg>
