<svg width="75" height="75" viewBox="0 0 75 75" fill="none" xmlns="http://www.w3.org/2000/svg">
<rect width="74.6667" height="74.75" fill="white"/>
<g clip-path="url(#clip0_1_8502)">
<path d="M0.0116272 9.375H74.6783V65.375H0.0116272V9.375Z" fill="#3F9C35"/>
<path d="M0.0116272 9.375H74.6783V46.7083H0.0116272V9.375Z" fill="#ED2939"/>
<path d="M0.0116272 9.375H74.6783V28.0417H0.0116272V9.375Z" fill="#00B9E4"/>
<path d="M35.4666 45.775C40.1058 45.775 43.8666 42.0142 43.8666 37.375C43.8666 32.7358 40.1058 28.975 35.4666 28.975C30.8274 28.975 27.0666 32.7358 27.0666 37.375C27.0666 42.0142 30.8274 45.775 35.4666 45.775Z" fill="white"/>
<path d="M37.3333 44.375C41.1993 44.375 44.3333 41.241 44.3333 37.375C44.3333 33.509 41.1993 30.375 37.3333 30.375C33.4673 30.375 30.3333 33.509 30.3333 37.375C30.3333 41.241 33.4673 44.375 37.3333 44.375Z" fill="#ED2939"/>
<path d="M44.8 32.7083L45.6983 35.2167L48.1016 34.0733L46.9583 36.4883L49.4666 37.375L46.9583 38.2733L48.1016 40.6767L45.6983 39.5333L44.8 42.0417L43.9016 39.5333L41.4983 40.6767L42.6416 38.2733L40.1333 37.375L42.6416 36.4767L41.4983 34.0733L43.9016 35.2167L44.8 32.7083Z" fill="white"/>
</g>
<defs>
<clipPath id="clip0_1_8502">
<rect width="74.6667" height="56" fill="white" transform="translate(0 9.375)"/>
</clipPath>
</defs>
</svg>
