<svg width="75" height="75" viewBox="0 0 75 75" fill="none" xmlns="http://www.w3.org/2000/svg">
<rect width="74.6667" height="74.75" fill="white"/>
<g clip-path="url(#clip0_1_9426)">
<path fill-rule="evenodd" clip-rule="evenodd" d="M0.00360107 9.37506H74.663V65.3751H0.00360107V9.37506Z" fill="#000099"/>
<path fill-rule="evenodd" clip-rule="evenodd" d="M15.513 9.37506L71.4036 65.4079V9.40787L15.513 9.37506Z" fill="#FFCC00"/>
<path fill-rule="evenodd" clip-rule="evenodd" d="M57.4474 62.0391L54.3958 59.8188L51.2677 62.0282L52.4489 58.397L49.3646 56.1548H53.1927L54.3739 52.5235L55.5442 56.1657H59.3724L56.3099 58.4298L57.4474 62.0391ZM66.3396 63.1766L62.5114 63.1657L61.3411 59.5235L60.1599 63.1548H56.3317L59.4161 65.3969L58.2349 69.0282L61.363 66.8188L64.4255 69.0391L63.2771 65.4298L66.3396 63.1766ZM49.3208 51.4516L52.3833 49.1876L48.5552 49.1766L47.3849 45.5454L46.2036 49.1766L42.3755 49.1657L45.4599 51.4079L44.2786 55.0501L47.4067 52.8298L50.4692 55.061L49.3208 51.4516ZM42.288 44.397L45.3505 42.1438L41.5224 42.1329L40.3521 38.4907L39.1599 42.122H35.3427L38.4271 44.3641L37.2458 47.9954L40.3739 45.786L43.4255 48.0063L42.288 44.397ZM35.3208 37.4407L38.3833 35.1766H34.5552L33.3958 31.5235L32.2146 35.1548H28.3864L31.4708 37.386L30.2896 41.0282L33.4177 38.8079L36.4802 41.0391L35.3317 37.4298L35.3208 37.4407ZM28.2771 30.4079L31.3396 28.1548L27.5114 28.1438L26.3411 24.5016L25.1489 28.1329H21.3317L24.4271 30.3751L23.2458 34.0063L26.3739 31.797L29.4255 34.0173L28.288 30.4079H28.2771ZM21.3208 23.4188L24.3724 21.1548H20.5442L19.3849 17.5016L18.1927 21.1438H14.3646L17.4708 23.3751L16.2786 27.0063L19.4067 24.797L22.4474 27.0282L21.3208 23.4188ZM14.3208 16.4188L17.3724 14.1548H13.5442L12.3849 10.5016L11.1927 14.1438H7.36456L10.4708 16.3751L9.26769 20.0173L12.4067 17.797L15.4474 20.0282L14.3208 16.4188ZM7.32081 9.41882L10.3614 7.15476H6.53331L5.363 3.51257L4.19269 7.14382H0.364563L3.45988 9.37507L2.27863 13.0063L5.40675 10.7969L8.44738 13.0282L7.32081 9.41882Z" fill="white"/>
</g>
<defs>
<clipPath id="clip0_1_9426">
<rect width="74.6667" height="56" fill="white" transform="translate(0 9.375)"/>
</clipPath>
</defs>
</svg>
