<svg width="75" height="75" viewBox="0 0 75 75" fill="none" xmlns="http://www.w3.org/2000/svg">
<rect width="74.6667" height="74.75" fill="white"/>
<g clip-path="url(#clip0_1_8578)">
<path d="M0 9.375H74.6667V65.375H0V9.375Z" fill="#00267F"/>
<path d="M24.885 9.375H49.7817V65.375H24.885V9.375Z" fill="#FFC726"/>
<path d="M37.31 25.1833C36.4934 27.4 35.6767 29.6867 33.9034 31.4483C34.4517 31.2617 35.42 31.0983 36.0267 31.1217V40.3967L33.4134 40.7817C33.32 40.7817 33.2967 40.63 33.2967 40.4317C33.04 37.55 32.3634 35.1233 31.57 32.615C31.5117 32.2767 30.52 30.9817 31.29 31.215C31.3834 31.215 32.3984 31.635 32.2467 31.4367C30.7809 29.9582 28.887 28.9786 26.8334 28.6367C26.6584 28.6017 26.5534 28.695 26.7167 28.8933C29.33 32.93 31.535 37.7017 31.5117 43.36C32.5384 43.36 35.0117 42.7533 36.0267 42.7533V49.2983H37.3334L37.625 31.0167L37.31 25.1833Z" fill="black"/>
</g>
<defs>
<clipPath id="clip0_1_8578">
<rect width="74.6667" height="56" fill="white" transform="translate(0 9.375)"/>
</clipPath>
</defs>
</svg>
