<svg width="75" height="75" viewBox="0 0 75 75" fill="none" xmlns="http://www.w3.org/2000/svg">
<rect width="74.6667" height="74.75" fill="white"/>
<g clip-path="url(#clip0_1_9346)">
<path fill-rule="evenodd" clip-rule="evenodd" d="M-9.56384 9.375L37.3362 37.375L-9.56384 65.375V9.375ZM84.2362 9.375L37.3362 37.375L84.2362 65.375V9.375Z" fill="#18B637"/>
<path fill-rule="evenodd" clip-rule="evenodd" d="M-9.56384 9.375L37.3362 37.375L84.2362 9.375H-9.56384ZM-9.56384 65.375L37.3362 37.375L84.2362 65.375H-9.56384Z" fill="#CF0921"/>
<path fill-rule="evenodd" clip-rule="evenodd" d="M84.2362 9.375H75.4971L-9.56384 60.1578V65.375H-0.82478L84.2362 14.5922V9.375Z" fill="white"/>
<path fill-rule="evenodd" clip-rule="evenodd" d="M53.5345 37.375C53.5345 41.6696 51.8285 45.7884 48.7917 48.8252C45.7549 51.8619 41.6362 53.568 37.3415 53.568C33.0469 53.568 28.9281 51.8619 25.8914 48.8252C22.8546 45.7884 21.1486 41.6696 21.1486 37.375C21.1486 33.0818 22.854 28.9645 25.8898 25.9287C28.9255 22.893 33.0429 21.1875 37.3361 21.1875C41.6292 21.1875 45.7466 22.893 48.7823 25.9287C51.8181 28.9645 53.5236 33.0818 53.5236 37.375H53.5345Z" fill="white"/>
<path fill-rule="evenodd" clip-rule="evenodd" d="M-9.56384 9.375V14.5922L75.4971 65.375H84.2362V60.1578L-0.82478 9.375H-9.56384Z" fill="white"/>
<path fill-rule="evenodd" clip-rule="evenodd" d="M40.5298 31.2719L38.4189 31.3047L37.3251 33.0984L36.2423 31.3047L34.1423 31.2609L35.1595 29.4125L34.1532 27.575L36.2532 27.5312L37.347 25.7375L38.4298 27.5422L40.5298 27.5859L39.5126 29.4234L40.5298 31.2719ZM33.4642 43.4781L31.3642 43.5109L30.2704 45.3047L29.1876 43.5109L27.0876 43.4672L28.1048 41.6187L27.0986 39.7812L29.1986 39.7375L30.2923 37.9437L31.3751 39.7484L33.4751 39.7922L32.4579 41.6297L33.4642 43.4781ZM47.7486 43.4781L45.6486 43.5109L44.5548 45.3047L43.4611 43.5109L41.372 43.4672L42.3892 41.6187L41.372 39.7812L43.472 39.7375L44.5657 37.9437L45.6595 39.7484L47.7595 39.7922L46.7314 41.6297L47.7486 43.4781Z" fill="#CF0921" stroke="#18B637" stroke-width="0.426562"/>
</g>
<defs>
<clipPath id="clip0_1_9346">
<rect width="74.6667" height="56" fill="white" transform="translate(0 9.375)"/>
</clipPath>
</defs>
</svg>
