<svg width="75" height="75" viewBox="0 0 75 75" fill="none" xmlns="http://www.w3.org/2000/svg">
<rect width="74.6667" height="74.75" fill="white"/>
<g clip-path="url(#clip0_1_9473)">
<path d="M0 9.375H74.6667V65.375H0V9.375Z" fill="#CF142B"/>
<path d="M65.2982 24.6117V43.465C65.2982 48.4933 55.2416 50.1383 55.2416 50.1383C55.2416 50.1383 45.1616 48.505 45.1616 43.4417V24.6117H65.2866H65.2982Z" fill="white"/>
<path d="M65.2982 43.465C65.2982 48.4933 55.2416 50.1383 55.2416 50.1383C55.2416 50.1383 45.1616 48.505 45.1616 43.4417C45.1616 43.4417 45.1616 43.0333 45.3716 42.8117C45.3716 42.8117 45.2549 43.64 45.8966 44.2817C45.8966 44.2817 45.3949 43.3717 45.8966 42.4967C45.8966 42.4967 45.6982 43.64 46.4099 44.2817C46.4099 44.2817 46.0249 43.36 46.4566 42.3333C46.4566 42.3333 46.2466 44.0017 47.0049 44.3517C47.0049 44.3517 47.2149 43.3717 46.9116 42.765C46.9116 42.765 47.4366 42.975 47.4132 44.375C47.4132 44.375 47.5766 44.165 47.6232 43.15C47.6232 43.15 47.6466 44.3167 48.0316 44.585C48.0316 44.585 48.1716 44.4683 47.9966 43.9433C47.8099 43.43 48.0666 43.2433 48.1132 43.2433C48.1132 43.2433 48.0199 43.8267 48.5099 44.27C48.5099 44.27 48.2999 43.3483 48.5916 43.22C48.5916 43.22 48.5216 44.0017 49.1516 44.165C49.1516 44.165 49.1866 43.9433 49.0582 43.6983C49.0582 43.6983 48.9416 43.4067 49.0232 43.1733C49.0232 43.1733 49.2216 43.8733 49.4899 43.99C49.4899 43.99 49.3266 43.57 49.4899 43.1733C49.4899 43.1733 49.5132 43.7567 50.0382 44.0017C50.0382 44.0017 49.6882 43.535 49.8166 43.045L53.1649 43.2083L54.9149 43.29L60.1299 42.94L61.0166 42.1583C61.0166 42.1583 61.3782 42.6367 60.8066 43.4183C60.8066 43.4183 61.3666 43.325 61.5416 42.45C61.5416 42.45 61.7749 42.9283 61.4599 43.4767C61.4599 43.4767 62.0782 42.8467 62.1599 42.1583C62.1599 42.1583 62.4049 42.835 61.8216 43.5583C61.8216 43.5583 62.3349 43.3717 62.5566 42.6133C62.5566 42.6133 62.7432 43.08 62.2416 43.7217C62.2416 43.7217 63.1866 43.2433 63.1632 42.205C63.1632 42.205 63.5482 42.765 63.1049 43.5583C63.1049 43.5583 63.5716 43.1267 63.6299 42.4733C63.6299 42.4733 63.8982 42.765 63.6066 43.57C63.6066 43.57 64.1899 43.01 64.2832 42.415C64.2832 42.415 64.3999 42.975 63.9099 43.675C63.9099 43.675 64.2482 43.5817 64.5749 42.905C64.5749 42.905 64.6566 43.185 64.3649 43.675C64.3649 43.675 64.6916 43.6167 64.9016 42.9867C64.9016 42.9867 64.9366 43.36 64.8432 43.6867C64.8432 43.6867 65.0882 43.535 65.1466 42.835C65.1484 43.0153 65.1966 43.1921 65.2866 43.3483V43.4417L65.2982 43.465Z" fill="#2F8F22"/>
<path d="M60.1299 32.5567C60.1299 32.5567 59.7799 32.6267 59.3133 32.4867C58.8699 32.3467 58.6949 32.405 58.5549 32.4867C58.5549 32.4867 58.7299 32.125 58.2866 31.8333C58.2866 31.8333 58.4266 32.2067 58.2283 32.37C58.2283 32.37 58.1466 32.4517 58.0416 32.335C58.0416 32.335 57.8899 32.16 57.7149 32.055C57.7149 32.055 58.0999 31.915 58.0299 31.53C57.9599 31.145 57.7499 31.11 57.6449 31.0517C57.6261 31.1441 57.6261 31.2393 57.6449 31.3317C57.6449 31.3317 57.2366 31.0983 57.7849 30.7833C58.3449 30.4683 58.2516 30.27 58.1466 30.1067C58.0388 29.9417 57.9002 29.799 57.7383 29.6867C57.7383 29.6867 57.8549 29.8733 57.8199 30.025C57.8083 30.165 57.5399 30.2583 57.5866 30.0133C57.6449 29.7333 57.5866 29.78 57.5866 29.5117C57.5866 29.5117 58.0766 29.675 58.2866 29.185C58.2866 29.185 58.4733 28.6833 57.8433 28.4383C57.8433 28.4383 57.9949 28.6483 57.9249 28.7883C57.9249 28.7883 57.7849 29.045 57.6333 28.8583C57.4816 28.66 57.3766 28.6017 57.3883 28.3683C57.3883 28.3683 57.9599 28.45 57.8083 27.82C57.8083 27.82 57.7033 28.24 56.9683 27.68C56.9683 27.68 57.4583 27.19 57.2599 26.7933C57.2599 26.7933 57.2016 26.6183 56.6883 26.7117C56.6883 26.7117 57.1316 26.4317 56.9566 26.1867C56.9566 26.1867 56.8516 26.035 56.4199 26.2333C56.4199 26.2333 56.5949 25.965 56.1749 25.65C56.1749 25.65 55.8949 25.79 55.7549 25.93C55.7549 25.93 55.4749 25.58 55.2883 25.4283C55.2883 25.4283 54.9616 25.5567 54.8799 25.93C54.8799 25.93 54.7283 25.755 54.3783 25.65C54.3783 25.65 54.2149 25.9767 54.4366 26.2333C54.4366 26.2333 54.2733 26.2333 53.9699 26.105C53.9699 26.105 53.6433 25.965 53.7016 26.2333C53.7366 26.5133 53.7716 26.5833 53.8416 26.7233C53.8416 26.7233 53.0833 26.5483 53.1183 26.9567C53.125 27.0946 53.1594 27.2297 53.2196 27.354C53.2797 27.4783 53.3643 27.5892 53.4683 27.68C53.4683 27.68 53.0599 28.24 52.6983 27.82C52.6983 27.82 52.5583 27.96 52.8383 28.31C52.8383 28.31 53.1183 28.6017 52.8733 28.8C52.8733 28.8 52.5816 29.0333 52.4416 28.5667C52.4416 28.5667 51.9633 29.045 52.5349 29.4067C52.5349 29.4067 52.8849 29.6167 53.2699 29.29C53.2699 29.29 53.1533 30.2233 52.8033 30.0367C52.8033 30.0367 52.5816 29.8967 52.9666 29.6983C52.9666 29.6983 52.4066 29.6283 52.3249 30.165C52.3249 30.165 52.2549 30.5733 52.7333 30.7483C52.7333 30.7483 53.0949 30.8883 52.7333 31.1683C52.7333 31.1683 52.4416 31.3667 52.6283 31.6817C52.6283 31.6817 52.8383 32.0083 52.2899 32.055C52.2899 32.055 52.0099 32.055 51.9049 32.0083C51.9049 32.0083 51.7883 32.2417 51.8583 32.475C51.8583 32.475 51.5899 32.2767 50.9833 32.4983C50.3766 32.7317 50.4116 32.5683 50.3766 32.6383L50.1899 32.9183C50.1899 32.9183 50.5166 33.3383 50.5283 33.3033L50.4583 33.77L50.6216 33.84L51.8816 33.28L53.1649 32.615L54.2033 32.6617L54.8566 32.8133L55.6966 32.8833L56.3266 32.5567H57.2133L58.1933 33.0467L59.3016 33.7117L59.8849 33.8283L60.3399 33.7933V32.8833L60.1299 32.5567Z" fill="#D40000" stroke="black" stroke-width="0.14" stroke-linejoin="round"/>
<path d="M49.9566 33.6067C49.9566 33.6067 50.4466 33.8633 50.6566 33.5717C50.6566 33.5717 50.9132 33.0583 50.3299 32.8717C50.3299 32.8717 50.6566 32.4983 50.3066 32.1483C50.3066 32.1483 50.1199 31.9617 49.8166 32.09C49.8166 32.09 49.6766 31.8217 49.3849 31.8333C49.3849 31.8333 49.1049 31.8333 49.0349 32.125C49.0349 32.125 48.6616 31.985 48.4632 32.195C48.4632 32.195 48.1132 32.5683 48.5916 32.8717L48.9299 32.9067L49.2566 32.7433L49.6416 32.8483C49.6416 32.8483 49.5366 33.2217 49.9566 33.6067Z" fill="#D40000" stroke="black" stroke-width="0.14" stroke-linejoin="round"/>
<path d="M60.8532 32.72C61.017 32.6994 61.1832 32.7312 61.3278 32.8109C61.4724 32.8905 61.5881 33.0139 61.6582 33.1633C61.9616 33.8867 61.3082 34.2833 61.3082 34.2833C61.3549 34.435 61.3666 34.6567 61.3666 34.6567C62.2766 34.7733 62.1132 35.8 62.1132 35.8L61.8099 35.5433C61.2849 35.3333 60.7249 35.8 60.3399 36.5467C59.9432 37.3167 60.1299 37.655 60.1999 38.565C60.2699 39.4633 61.7166 40.0117 61.7166 40.0117L60.5849 42.9283C60.1416 44.095 59.1849 43.6167 58.9166 43.36C58.6482 43.1267 58.5782 43.2667 58.4499 43.36C58.3216 43.4767 59.0682 44.06 57.6916 44.62C56.3266 45.1683 56.0932 45.5883 55.8599 45.7283C55.6266 45.8683 54.6932 45.7867 54.5999 45.6583C54.4832 45.5417 54.5532 45.5417 54.1916 45.32C53.8416 45.1217 53.2349 44.9117 52.5816 44.5967C51.9282 44.2817 51.9516 43.8733 51.9632 43.7917C51.9632 43.71 52.1849 43.0333 51.4149 43.57C50.6566 44.1183 50.0032 43.3133 50.0032 43.3133C49.8632 43.115 49.2099 41.4 49.2099 41.4C49.0751 40.9223 48.9075 40.4546 48.7082 40C48.7082 40 48.6616 40.0933 49.2332 39.7667C49.7932 39.4517 50.0499 38.915 50.2482 38.3783C50.4466 37.8417 50.2482 36.92 50.1782 36.745C50.1082 36.5583 49.6882 35.7067 49.1632 35.5317C48.6499 35.345 48.2882 35.8117 48.2882 35.8117C48.2882 35.8117 48.1366 34.7617 49.0582 34.645C49.0582 34.645 49.0582 34.435 49.1049 34.2833C49.1049 34.2833 48.4516 33.8867 48.7549 33.1633C48.7549 33.1633 48.9649 32.6617 49.5482 32.72L49.4199 33C49.4199 33 49.2799 34.47 51.4266 33.49C53.5849 32.4867 53.5266 32.3 54.7749 32.93L55.6616 32.9183C55.6616 32.9183 56.9449 32.3 57.3766 32.5683C57.7849 32.8367 59.2782 33.665 59.2782 33.665C59.2782 33.665 60.7249 34.2133 61.0166 33.1983L60.8532 32.72Z" fill="#64B4D1" stroke="black" stroke-width="0.14"/>
<path d="M54.3433 39.125C54.3433 39.125 54.2733 38.67 54.2033 38.3783C54.2033 38.3783 54.0283 37.9233 54.3199 37.585L54.6466 37.2C54.6466 37.2 54.8566 36.92 55.1133 36.885C55.1133 36.885 55.3816 36.885 55.3933 36.8267C55.4283 36.7683 55.7199 36.3017 56.3966 36.8267C56.3966 36.8267 56.6066 36.4767 56.9566 36.4067C56.9566 36.4067 57.3066 36.3133 57.4816 36.57C57.4816 36.57 57.8899 36.2667 58.2283 36.7683C58.2283 36.7683 58.7066 36.4883 59.0683 37.0367C59.0683 37.0367 59.5349 36.8033 59.8149 37.2817C60.1066 37.7833 60.0483 37.9817 60.0483 37.9817L60.2816 38.775L61.0399 39.7083L59.2666 40.385H58.4499L56.8516 40.805L54.0166 41.0267L53.2349 40.0933L54.3549 39.125H54.3433Z" fill="white" stroke="#00247D" stroke-width="0.14" stroke-miterlimit="10"/>
<path d="M51.9516 43.85C51.9516 43.85 51.5316 43.8617 51.3099 43.99C51.0999 44.0834 50.9249 44.2 50.6799 44.3633C50.6799 44.3633 50.5632 44.515 50.0732 44.4217C50.0732 44.4217 49.2332 44.2234 49.2332 44.8884C49.2332 44.8884 48.2066 44.9584 48.6266 45.8567C48.6266 45.8567 48.8949 46.5567 49.4782 46.0667C49.4782 46.0667 49.1049 46.5917 49.8282 46.8017C49.8282 46.8017 50.3416 46.9417 50.5049 46.3933C50.5049 46.3933 50.5866 46.1833 50.3882 45.9267C50.3882 45.9267 50.6332 45.88 50.8082 45.6117C50.8082 45.6117 50.2716 46.2884 50.8666 46.545C50.8666 46.545 51.6016 46.72 51.6366 45.9617C51.6366 45.9617 51.5666 45.5883 51.8699 45.46C51.8699 45.46 52.4532 45.32 52.6866 44.69C52.6866 44.69 51.8699 44.235 51.9516 43.85ZM50.2366 37.1417C50.2366 37.1417 49.5832 36.85 49.2566 37.1417C49.2566 37.1417 48.8482 36.885 48.3816 37.1417C48.3816 37.1417 47.9499 37.4217 47.6466 37.7484C47.6466 37.7484 47.4366 37.9234 47.5066 38.495C47.5066 38.495 47.6232 38.9034 47.5649 39.09C47.5649 39.09 47.4249 39.0667 47.1332 39.4167C47.1332 39.4167 46.7716 39.825 46.4332 39.4517C46.4332 39.4517 46.5499 39.9884 47.1449 39.895C47.1449 39.895 46.8532 40.1284 47.1099 40.7117C47.1099 40.7117 47.2966 41.1317 46.9932 41.6683C46.9932 41.6683 47.5182 41.4584 47.5066 40.8284C47.5066 40.8284 47.4482 40.4084 47.6232 40.1284C47.6232 40.1284 47.4482 40.385 47.8099 40.9567C47.8099 40.9567 48.0899 41.3767 47.8682 41.7967C47.8682 41.7967 48.3816 41.61 48.3349 40.98C48.2882 40.35 47.9849 40.6067 48.1716 40.0234C48.1716 40.0234 48.2299 40.3267 48.3816 40.49C48.4978 40.5881 48.5852 40.7158 48.6345 40.8596C48.6838 41.0035 48.6932 41.158 48.6616 41.3067C48.6616 41.3067 48.9649 40.91 48.8949 40.5133C48.8749 40.3346 48.8236 40.1609 48.7432 40L49.7232 39.44L50.2249 38.565L50.2366 37.1417Z" fill="#D40000" stroke="black" stroke-width="0.14" stroke-linejoin="round"/>
<path d="M48.7433 39.65C48.7433 39.65 48.3349 39.6267 48.2766 39.3M47.5649 39.09C47.5649 39.09 47.7049 39.09 47.8449 39.23C47.8449 39.23 47.9266 39.37 48.0666 39.3467" stroke="black" stroke-width="0.14" stroke-miterlimit="10"/>
<path d="M49.3499 38.4483C49.3499 38.4483 49.1399 38.4483 48.9999 38.355C48.9999 38.355 48.8949 38.2733 48.8249 38.4017C48.8249 38.4017 48.7083 38.5883 48.9183 38.67C48.9183 38.67 49.1749 38.81 48.7783 39.0667C48.7783 39.0667 49.2449 38.88 49.0583 38.6467C49.0583 38.6467 48.8483 38.5067 48.9183 38.4483C48.9183 38.4483 48.9416 38.4017 49.0349 38.4483C49.1049 38.5183 49.2683 38.495 49.3499 38.4483Z" fill="black"/>
<path d="M55.7199 39.5917L55.9649 39.5217L54.3316 33.9217H54.2849L55.7199 39.5917Z" fill="#784421" stroke="black" stroke-width="0.14"/>
<path d="M50.3066 45.81C50.3066 45.81 49.9332 45.5883 49.6066 45.845C49.6066 45.845 49.6532 45.705 49.8866 45.6467C49.8866 45.6467 50.0266 45.2733 50.3882 45.3083C50.3882 45.3083 50.2366 45.495 50.0382 45.635C50.0382 45.635 50.2482 45.6583 50.3182 45.81H50.3066Z" fill="black"/>
<path d="M48.9649 46.685C48.9649 46.685 48.3583 46.3117 48.6966 45.67C48.6966 45.67 48.7899 45.495 48.9649 45.53C48.9649 45.53 49.3499 45.6467 49.0583 46.1717C49.0583 46.1717 48.8949 46.51 48.9649 46.6967V46.685ZM50.1899 47.3034C50.1899 47.3034 49.3266 46.9067 49.5949 46.23C49.5949 46.23 49.6766 45.9967 49.8749 46.02C49.8749 46.02 50.2016 46.0434 50.1433 46.4867C50.1433 46.4867 50.0383 46.9067 50.1899 47.3034Z" fill="#64B4D1" stroke="#00247D" stroke-width="0.14" stroke-miterlimit="2.6"/>
<path d="M50.0149 44.795C50.0149 44.795 49.7466 44.9933 49.6533 45.1216C49.6533 45.1216 49.5366 44.9816 49.3966 44.9116C49.3966 44.9116 49.5716 44.8766 49.6533 44.9466C49.6533 44.9466 49.7933 44.83 50.0033 44.795H50.0149Z" fill="black"/>
<path d="M50.7733 47.1283C50.7733 47.1283 51.4733 46.965 51.3333 46.2533C51.3333 46.2533 51.2633 45.95 50.9833 45.9967C50.9833 45.9967 50.6333 46.09 50.8666 46.5333C50.8666 46.5333 50.9949 46.8367 50.7733 47.1283Z" fill="#64B4D1" stroke="#00247D" stroke-width="0.14" stroke-miterlimit="2.6"/>
<path d="M53.8533 32.3233L54.5183 32.545C54.5183 32.545 55.1483 32.8133 55.9533 32.545L56.5599 32.3117L56.1516 32.9417V33.28L56.3966 33.6533C56.3966 33.6533 56.2449 33.7233 55.7666 33.42C55.7666 33.42 55.2533 33.0233 54.6466 33.42C54.6466 33.42 54.2966 33.6533 54.0166 33.6533L54.4249 33.21L54.2733 32.8017L53.8533 32.3V32.3233Z" fill="#F5CE00" stroke="black" stroke-width="0.14" stroke-miterlimit="2.6"/>
<path d="M51.0416 46.3C51.0416 46.3 51.0649 46.2533 51.0416 46.2417L50.9833 46.265C50.9833 46.265 50.9133 46.3817 50.9833 46.545C50.9833 46.545 51.0416 46.65 51.0183 46.755V46.8017C51.0183 46.8017 51.0533 46.79 51.0533 46.755C51.0533 46.755 51.0999 46.6617 51.0299 46.545C51.0299 46.545 50.9599 46.3817 51.0416 46.3Z" fill="white"/>
<path d="M60.4332 33.6067C60.4332 33.6067 59.9432 33.8633 59.7332 33.5717C59.7332 33.5717 59.4883 33.0583 60.0716 32.8717C60.0716 32.8717 59.7449 32.4983 60.0832 32.1483C60.0832 32.1483 60.2699 31.9617 60.5733 32.09C60.5733 32.09 60.7133 31.8217 61.0049 31.8333C61.0049 31.8333 61.2849 31.8333 61.3549 32.125C61.3549 32.125 61.7399 31.985 61.9383 32.195C61.9383 32.195 62.2649 32.5683 61.7983 32.8717L61.4599 32.9067L61.1216 32.7433L60.7716 32.8483C60.7716 32.8483 60.8649 33.2217 60.4216 33.6067H60.4332Z" fill="#D40000" stroke="black" stroke-width="0.14" stroke-linejoin="round"/>
<path d="M56.5599 33.2217C56.5599 33.2217 56.5599 33.315 56.4666 33.3383C56.4666 33.3383 56.3499 33.3733 56.2916 33.2333V33.1983C56.2916 33.14 56.2566 32.965 56.4549 32.8133C56.4549 32.8133 56.7583 32.5683 57.3416 32.8717C57.9043 33.1881 58.4804 33.48 59.0683 33.7467C59.0683 33.7467 59.4299 33.9333 59.9899 33.9567C59.9899 33.9567 60.7483 34.015 61.0749 33.4783C61.0749 33.4783 61.3199 33.07 61.0749 32.8017C61.0749 32.8017 60.9699 32.685 60.8066 32.7083C60.7216 32.7273 60.6467 32.7772 60.5966 32.8483C60.5966 32.8483 60.4799 33.0117 60.6083 33.14C60.6083 33.14 60.7949 33.2567 60.8649 33.0233C60.8649 33.0467 60.9233 33.2217 60.8183 33.3617C60.8183 33.3617 60.3516 34.0617 59.0799 33.35L57.4116 32.405C57.4116 32.405 56.5833 31.9733 56.0583 32.65C56.0583 32.65 55.6616 33.21 56.1866 33.5717C56.1866 33.5717 56.5833 33.805 56.8166 33.4317C56.8166 33.4317 57.0266 33.07 56.6999 32.9183C56.6999 32.9183 56.4199 32.7783 56.3149 33.0583C56.1983 33.3383 56.5249 33.4083 56.5483 33.21C56.5483 33.21 56.5483 33.1633 56.5833 33.21L56.5599 33.2217Z" fill="#F5CE00" stroke="black" stroke-width="0.14" stroke-miterlimit="2.6"/>
<path d="M49.9333 36.115V35.065C49.9333 34.9717 49.9333 34.925 50.0733 34.8083C50.1899 34.715 50.3183 34.54 50.5049 35.0067C50.5049 35.0067 50.8783 34.5983 50.9949 34.54C50.9949 34.54 51.2283 34.365 51.3799 34.6217C51.3799 34.6217 51.5666 34.3183 51.7299 34.2483C51.7299 34.2483 52.1033 34.015 52.1149 34.7383L52.4066 34.4583C52.4066 34.4583 52.6399 34.2833 52.8966 34.54C52.8966 34.54 53.3049 34.96 53.3633 35.0767C53.3633 35.0767 53.4566 35.1933 53.4799 35.3917C53.4799 35.3917 53.4799 35.625 53.5966 35.7417C53.5966 35.7417 53.7249 35.8583 53.8533 35.8817C53.8533 35.8817 54.1449 35.8933 54.2733 36.185C54.2733 36.185 54.3083 36.1267 54.4599 37.4917V40L52.7799 41.995L50.0849 41.225L49.0116 40.77L48.7549 40L49.8049 39.3117L50.3649 37.795L50.1899 36.71L49.9333 36.1033V36.115Z" fill="#E4CB5E" stroke="black" stroke-width="0.14" stroke-miterlimit="2.6"/>
<path d="M57.3533 37.4217L57.4933 37.2467L57.7849 37.0133C57.7849 37.0133 58.2516 38.2267 58.2749 38.495V38.8683C58.2749 38.8683 58.9749 39.055 59.1149 40.1167L58.5316 41.19L57.6216 40.6767L57.3533 40.5017V37.4333V37.4217Z" fill="#784421" stroke="black" stroke-width="0.14"/>
<path d="M48.8016 45.8217C48.8016 45.8217 48.8249 45.7867 48.8016 45.7517L48.7433 45.7983C48.7433 45.7983 48.5683 45.9967 48.7199 46.3117C48.7199 46.3117 48.7199 46.3583 48.7549 46.335C48.7549 46.335 48.7899 46.335 48.7549 46.3C48.7549 46.3 48.6266 46.02 48.8016 45.8333V45.8217Z" fill="white"/>
<path d="M51.5316 45.6117C51.5316 45.6117 51.5433 45.5183 51.4849 45.425C51.4849 45.425 51.4499 45.355 51.4616 45.25" stroke="black" stroke-width="0.14" stroke-miterlimit="10"/>
<path d="M52.1149 34.7383C52.1149 34.7383 52.1149 35.0067 52.1966 35.205C52.2666 35.3917 52.5349 35.73 52.5466 35.8933" stroke="black" stroke-width="0.14" stroke-miterlimit="10"/>
<path d="M58.4499 43.85C58.4499 43.85 58.8699 43.8617 59.0916 43.99C59.3249 44.0833 59.4882 44.2 59.7332 44.3633C59.7332 44.3633 59.8499 44.515 60.3399 44.4217C60.3399 44.4217 61.1799 44.2233 61.1799 44.8883C61.1799 44.8883 62.1949 44.9583 61.7866 45.8567C61.7866 45.8567 61.5066 46.5567 60.9232 46.0667C60.9232 46.0667 61.2966 46.5917 60.5732 46.8017C60.5732 46.8017 60.0599 46.9417 59.9082 46.3933C59.9082 46.3933 59.8149 46.1833 60.0249 45.9267C60.0249 45.9267 59.7799 45.88 59.6166 45.6117C59.6166 45.6117 60.1416 46.2883 59.5582 46.545C59.5582 46.545 58.8232 46.72 58.7766 45.9617C58.7766 45.9617 58.8349 45.5883 58.5432 45.46C58.5432 45.46 57.9599 45.32 57.7032 44.69C57.7032 44.69 58.5432 44.235 58.4616 43.85H58.4499Z" fill="#D40000" stroke="black" stroke-width="0.14" stroke-linejoin="round"/>
<path d="M51.7766 35.905L52.4766 41.4817M51.9516 35.8933L52.7216 41.0967M52.0799 35.87L52.9899 41.0267" stroke="black" stroke-width="0.14" stroke-miterlimit="10"/>
<path d="M53.5032 40.5833L53.7599 40.5017L52.1266 34.9017H52.0682L53.5032 40.5833Z" fill="#784421" stroke="black" stroke-width="0.14"/>
<path d="M52.5816 35.66L54.2266 39.8017M52.4766 35.7183L54.0632 40.035" stroke="black" stroke-width="0.14" stroke-miterlimit="10"/>
<path d="M49.8866 46.895C49.8866 46.895 49.6883 46.72 49.7233 46.3933C49.7233 46.3933 49.7233 46.3233 49.6883 46.3117C49.6883 46.3117 49.6533 46.3 49.6533 46.3817C49.6533 46.3817 49.5949 46.72 49.8283 46.9067C49.8283 46.9067 49.8399 46.9417 49.8749 46.93C49.8749 46.93 49.8983 46.93 49.8749 46.895H49.8866Z" fill="white"/>
<path d="M52.6749 35.6017L54.3433 39.3817M52.2083 35.835L53.2583 40.9333" stroke="black" stroke-width="0.14" stroke-miterlimit="10"/>
<path d="M60.6666 39.5917C59.9316 39.1717 59.7682 38.2617 59.7682 38.2617C59.6628 37.6994 59.7278 37.1184 59.9549 36.5933C60.4216 35.59 61.2499 35.3917 61.2499 35.3917C61.2499 35.3917 60.4449 35.9517 60.2232 36.6983C60.2232 36.6983 60.0599 37.34 60.1532 37.9467C60.2466 38.5883 60.2116 38.425 60.3632 38.915L60.6666 39.615V39.5917Z" fill="#F5CE00" stroke="black" stroke-width="0.14" stroke-miterlimit="2.6"/>
<path d="M57.4816 37.2233L54.3782 38.215L54.2149 39.615C53.4799 40.6767 51.9749 40.8633 51.9749 40.8633L53.1416 42.1117L55.3582 42.5783L56.5482 41.6683L57.6216 40.6883C57.5049 40.1633 57.5632 39.3817 57.5632 39.3817C57.5632 39.2417 57.6216 38.9383 57.6216 38.9383C57.6216 38.9383 57.4466 37.69 57.4816 37.2467V37.2233Z" fill="#784421" stroke="black" stroke-width="0.14"/>
<path d="M54.2499 39.265C54.2499 39.265 56.3032 38.6233 57.5166 38.0983M53.2699 40.4317C53.2699 40.4317 55.8366 39.965 57.6216 38.9383L58.2749 38.495" stroke="black" stroke-width="0.14" stroke-miterlimit="10"/>
<path d="M58.2749 38.8683L57.5749 39.3817C57.5749 39.3817 54.7166 40.6883 52.5349 40.735M57.5632 40.315C57.5632 40.315 55.3699 41.4583 54.1332 41.4583" stroke="black" stroke-width="0.14" stroke-miterlimit="10"/>
<path d="M60.1766 37.1417C60.1766 37.1417 60.8299 36.85 61.1566 37.1417C61.1566 37.1417 61.5766 36.885 62.0432 37.1417C62.0432 37.1417 62.4632 37.4217 62.7666 37.7484C62.7666 37.7484 62.9766 37.9234 62.9066 38.495C62.9066 38.495 62.7899 38.9034 62.8716 39.09C62.8716 39.09 62.9999 39.0667 63.2799 39.4167C63.2799 39.4167 63.6649 39.825 63.9799 39.4517C63.9799 39.4517 63.8866 39.9884 63.2799 39.895C63.2799 39.895 63.5599 40.1284 63.3149 40.7117C63.3149 40.7117 63.1282 41.1317 63.4316 41.6683C63.4316 41.6683 62.8949 41.4584 62.9182 40.8284C62.9182 40.8284 62.9649 40.4084 62.8016 40.1284C62.8016 40.1284 62.9649 40.385 62.6032 40.9567C62.6032 40.9567 62.3232 41.3767 62.5566 41.7967C62.5566 41.7967 62.0316 41.61 62.0899 40.98C62.1249 40.35 62.4399 40.6067 62.2416 40.0234C62.2416 40.0234 62.1949 40.3267 62.0432 40.49C61.927 40.5881 61.8396 40.7158 61.7903 40.8596C61.741 41.0035 61.7316 41.158 61.7632 41.3067C61.7632 41.3067 61.4599 40.91 61.5299 40.5134C61.5999 40.105 61.6699 40 61.6699 40L60.7016 39.44L60.2116 38.565L60.1766 37.1417Z" fill="#D40000" stroke="black" stroke-width="0.14" stroke-linejoin="round"/>
<path d="M49.0699 40.6883C49.0699 40.6883 49.1632 40.2567 49.5716 40.4083C49.5716 40.4083 49.7116 39.7083 50.4699 39.685C51.2282 39.6617 51.2632 40.4317 51.2632 40.4783C51.2632 40.4783 51.4966 40.1517 51.8582 40.1867C51.8582 40.1867 52.4999 40.1517 52.2782 41.1783L52.3949 41.3183C52.3949 41.3183 52.8732 40.1633 53.8766 40.455C53.8766 40.455 54.8566 40.7583 54.2266 41.7033C54.2266 41.7033 54.7166 42.345 55.1132 42.2867C55.5332 42.2283 55.8949 42.1 56.3032 41.3767C56.7232 40.6533 57.6682 40.5367 57.9016 40.5833C58.1349 40.6183 58.3332 40.7933 58.3682 40.9567C58.3682 40.9567 58.8699 39.2883 60.6782 39.5333L61.4016 39.9183L61.6816 40.035L61.2616 41.2017L60.2816 43.4417L59.5116 43.675L58.7182 43.22L58.4382 43.36V44.0483L57.3882 44.795L56.6649 45.0867L55.8716 45.6467L55.6732 46.1367C55.6732 46.1367 55.2416 45.9383 54.7399 46.1367L54.5766 45.7167L54.1099 45.285L52.2899 44.4217L51.9749 43.3717L51.6366 43.22L51.2632 43.64L50.7382 43.71L49.9216 43.15L49.0582 40.7L49.0699 40.6883Z" fill="white" stroke="#00247D" stroke-width="0.14" stroke-miterlimit="10"/>
<path d="M56.9566 32.475C56.9566 32.475 56.2566 32.4517 56.2916 33.175" stroke="black" stroke-width="0.14" stroke-miterlimit="2.6"/>
<path d="M61.4833 40.0933C60.2933 39.72 59.9666 38.425 59.9666 38.425C59.8239 37.8223 59.8729 37.1902 60.1066 36.6167C60.6666 35.3333 61.5883 35.3333 61.5883 35.3333C61.707 35.3162 61.8278 35.3454 61.9255 35.4149C62.0233 35.4844 62.0905 35.5889 62.1133 35.7067C62.1599 35.9867 61.9616 36.0917 61.9616 36.0917C61.6466 36.2667 61.4366 36.0333 61.4366 36.0333C61.2966 35.8467 61.4016 35.695 61.4016 35.695C61.4833 35.5783 61.6349 35.6483 61.6349 35.6483C61.7866 35.6717 61.7516 35.835 61.7516 35.835C61.7516 35.835 61.7983 35.6483 61.6116 35.625C61.6116 35.625 61.2383 35.5433 60.8183 36.0683C60.8183 36.0683 60.2699 36.78 60.2699 37.7133C60.2699 37.7133 60.1999 39.44 61.9849 39.8833C61.9849 39.8833 61.7983 40.1633 61.4483 41.1783C61.4483 41.1783 61.0633 42.485 60.7016 43.1967C60.7016 43.1967 60.1999 44.2 59.0799 43.7917C59.0799 43.7917 58.4266 43.5 58.4266 43.0333C58.4266 43.0333 58.3916 42.59 58.7766 42.5667C58.7766 42.5667 59.1616 42.5317 59.1616 42.8583C59.1616 42.8583 59.1616 43.2083 58.7533 43.1383C58.7533 43.1383 58.6133 43.1033 58.6249 42.9633C58.6249 42.9633 58.6483 42.8233 58.8349 42.8933C59.0099 42.9633 58.8349 42.8933 58.8349 42.8817C58.8349 42.8817 58.7649 42.8467 58.6949 42.8817C58.6949 42.8817 58.6249 42.8817 58.6249 42.9983C58.6249 42.9983 58.6249 43.0683 58.7066 43.1267L58.9049 43.15C58.9049 43.15 59.0216 43.3833 59.2549 43.465C59.3943 43.508 59.5419 43.5178 59.6858 43.4935C59.8296 43.4691 59.9658 43.4114 60.0833 43.325C60.2397 43.1894 60.36 43.017 60.4333 42.8233C60.6688 42.3118 60.8715 41.7857 61.0399 41.2483C61.0399 41.2483 61.2499 40.5833 61.4366 40.2333L61.4833 40.0933Z" fill="#F5CE00" stroke="black" stroke-width="0.14" stroke-miterlimit="2.6"/>
<path d="M58.0999 43.3717C58.0999 43.3717 58.3332 43.3483 58.3332 43.5467C58.3332 43.5467 58.3216 43.8267 57.9599 43.7683C57.9599 43.7683 57.6099 43.6983 57.7266 43.3017C57.7266 43.3017 57.8199 43.0333 58.1466 43.0683C58.1466 43.0683 58.4732 43.0683 58.6132 43.5117C58.6132 43.5117 58.7299 43.8967 58.5316 44.2117C58.3216 44.5617 57.8082 44.795 57.5516 44.9117C57.5516 44.9117 56.5366 45.2967 56.2332 45.53C56.2332 45.53 55.7666 45.8683 55.9766 46.1833C55.9766 46.1833 56.0582 46.3117 56.1749 46.3117C56.1749 46.3117 56.3149 46.3117 56.3266 46.1717C56.3266 46.1717 56.3266 46.2533 56.2449 46.2883C56.2449 46.2883 56.1516 46.335 56.0466 46.2533C56.0466 46.2533 55.9299 46.1367 56.0232 45.9733C56.0232 45.9733 56.1399 45.7867 56.4432 45.9033C56.4432 45.9033 56.6766 46.0317 56.5832 46.2883C56.5832 46.2883 56.4782 46.5333 56.1866 46.5217C56.1866 46.5217 55.9649 46.5217 55.8132 46.3817C55.5799 46.1367 55.5799 45.6817 55.7899 45.4483C55.7899 45.4483 55.9649 45.2033 56.3382 45.0283L57.3882 44.62C57.6916 44.4917 57.9599 44.3517 58.1349 44.1417C58.1349 44.1417 58.2866 43.9783 58.3449 43.675C58.3449 43.675 58.3916 43.4417 58.2516 43.395L58.1116 43.36L58.0999 43.3717Z" fill="#F5CE00" stroke="black" stroke-width="0.14" stroke-miterlimit="2.6"/>
<path d="M58.1232 43.3717C58.1232 43.3717 58.3682 43.325 58.5316 43.6283C58.5316 43.6283 58.6132 43.8033 58.6249 43.92M58.7066 42.87C58.7066 42.87 58.4616 42.905 58.5899 43.2667C58.7182 43.605 58.9399 43.6983 58.9982 43.7567" stroke="black" stroke-width="0.14" stroke-miterlimit="2.6"/>
<path d="M53.8533 33.2217C53.8533 33.2217 53.8533 33.315 53.9699 33.3383C53.9699 33.3383 54.0633 33.3617 54.1216 33.2333V33.1983C54.1216 33.14 54.1566 32.965 53.9816 32.8133C53.9816 32.8133 53.6549 32.5683 53.0716 32.8717C53.0716 32.8717 52.6049 33.105 52.2899 33.2917C52.2899 33.2917 51.4616 33.735 51.3566 33.7583C51.3566 33.7583 50.9833 33.945 50.4233 33.9683C50.4233 33.9683 49.6649 34.0267 49.3499 33.49C49.3499 33.49 49.0933 33.0817 49.3499 32.8133C49.3499 32.8133 49.4433 32.6967 49.6066 32.72C49.6766 32.7317 49.7466 32.7667 49.8166 32.86C49.8166 32.86 49.9333 33.0233 49.8049 33.1517C49.8049 33.1517 49.6183 33.2683 49.5483 33.035C49.5483 33.0583 49.5133 33.2217 49.6066 33.385C49.6066 33.385 50.0733 34.0733 51.3333 33.35L53.0016 32.4167C53.0016 32.4167 53.8416 31.985 54.3549 32.65C54.3549 32.65 54.7516 33.21 54.2383 33.5833C54.2383 33.5833 53.8533 33.8167 53.5966 33.4433C53.5966 33.4433 53.4099 33.0933 53.7133 32.93C53.7133 32.93 53.9933 32.79 54.1216 33.07C54.2383 33.35 53.8883 33.42 53.8649 33.2217C53.8649 33.2217 53.8649 33.175 53.8533 33.2217ZM49.7466 39.6033C50.4816 39.195 50.6566 38.2617 50.6566 38.2617C50.8199 37.3283 50.4583 36.5933 50.4583 36.5933C49.9916 35.59 49.1749 35.3917 49.1749 35.3917C49.1749 35.3917 49.9683 35.9517 50.1899 36.6983C50.1899 36.6983 50.3766 37.34 50.2599 37.9467C50.1666 38.5883 50.2016 38.425 50.0499 38.915L49.7466 39.6033Z" fill="#F5CE00" stroke="black" stroke-width="0.14" stroke-miterlimit="2.6"/>
<path d="M53.4799 32.475C53.4799 32.475 54.1799 32.4517 54.1333 33.175" stroke="black" stroke-width="0.14" stroke-miterlimit="2.6"/>
<path d="M48.9182 40.0933C50.1199 39.72 50.4349 38.425 50.4349 38.425C50.5813 37.8235 50.5364 37.1914 50.3066 36.6167C49.7466 35.3333 48.8249 35.3333 48.8249 35.3333C48.7062 35.3162 48.5854 35.3454 48.4877 35.4149C48.3899 35.4844 48.3227 35.5889 48.2999 35.7067C48.2649 35.9867 48.4516 36.0917 48.4516 36.0917C48.7782 36.2667 48.9882 36.0333 48.9882 36.0333C49.1166 35.8467 49.0116 35.695 49.0116 35.695C48.9299 35.5783 48.7782 35.6483 48.7782 35.6483C48.6382 35.6717 48.6616 35.835 48.6616 35.835C48.6616 35.835 48.6266 35.6483 48.8016 35.625C48.8016 35.625 49.1749 35.5433 49.5949 36.0683C49.5949 36.0683 50.1549 36.78 50.1549 37.7133C50.1549 37.7133 50.2249 39.44 48.4282 39.8833C48.4282 39.8833 48.6266 40.1633 48.9649 41.1783C48.9649 41.1783 49.3616 42.485 49.7349 43.1967C49.7349 43.1967 50.2249 44.2 51.3332 43.7917C51.3332 43.7917 51.9866 43.5 51.9866 43.0333C51.9866 43.0333 52.0332 42.59 51.6366 42.5667C51.6366 42.5667 51.2516 42.5317 51.2516 42.8583C51.2516 42.8583 51.2516 43.2083 51.6716 43.1383C51.6716 43.1383 51.8116 43.1033 51.7882 42.9633C51.7882 42.9633 51.7649 42.8233 51.5899 42.8933C51.4032 42.9633 51.5899 42.8933 51.5899 42.8817C51.5899 42.8817 51.6482 42.8467 51.7182 42.8817C51.7182 42.8817 51.7882 42.8817 51.7882 42.9983C51.7882 42.9983 51.7882 43.0683 51.7066 43.1267L51.5316 43.15C51.5316 43.15 51.4149 43.3833 51.1582 43.465C51.0211 43.511 50.8748 43.5222 50.7323 43.4978C50.5898 43.4734 50.4555 43.414 50.3416 43.325C50.1851 43.1894 50.0648 43.017 49.9916 42.8233C49.7521 42.3121 49.5456 41.786 49.3732 41.2483C49.3732 41.2483 49.1632 40.5833 48.9999 40.2333L48.9299 40.0933H48.9182Z" fill="#F5CE00" stroke="black" stroke-width="0.14" stroke-miterlimit="2.6"/>
<path d="M52.3249 43.3717C52.3249 43.3717 52.0916 43.3483 52.0916 43.5467C52.0916 43.5467 52.0916 43.8267 52.4649 43.7683C52.4649 43.7683 52.8149 43.6983 52.6866 43.3017C52.6866 43.3017 52.6049 43.0333 52.2666 43.0683C52.2666 43.0683 51.9516 43.0683 51.7999 43.5117C51.7999 43.5117 51.6949 43.8967 51.8933 44.2117C52.1033 44.5617 52.6166 44.795 52.8616 44.9117C52.8616 44.9117 53.8766 45.2967 54.1916 45.53C54.1916 45.53 54.6466 45.8683 54.4366 46.1833C54.4366 46.1833 54.3666 46.3117 54.2383 46.3117C54.2383 46.3117 54.0983 46.3117 54.0866 46.1717C54.0866 46.1717 54.0866 46.2533 54.1683 46.2883C54.1683 46.2883 54.2733 46.335 54.3666 46.2533C54.3666 46.2533 54.4833 46.1367 54.3899 45.9733C54.3899 45.9733 54.2733 45.7867 53.9933 45.9033C53.9933 45.9033 53.7366 46.0317 53.8533 46.2883C53.8533 46.2883 53.9349 46.5333 54.2266 46.5217C54.2266 46.5217 54.4599 46.5217 54.5999 46.3817C54.8333 46.1367 54.8333 45.6817 54.6466 45.4483C54.6466 45.4483 54.4483 45.2033 54.0866 45.0283C53.8649 44.9583 53.4449 44.7833 53.0366 44.62C52.7216 44.4917 52.4533 44.3517 52.2783 44.1417C52.2783 44.1417 52.1266 43.9783 52.0683 43.675C52.0683 43.675 52.0333 43.4417 52.1733 43.395L52.3133 43.36L52.3249 43.3717Z" fill="#F5CE00" stroke="black" stroke-width="0.14" stroke-miterlimit="2.6"/>
<path d="M52.2899 43.3717C52.2899 43.3717 52.0449 43.325 51.8932 43.6283C51.8932 43.6283 51.8116 43.8033 51.7882 43.92M51.7066 42.87C51.7066 42.87 51.9632 42.905 51.8349 43.2667C51.6949 43.605 51.4849 43.6983 51.4149 43.7567M54.6116 33.1283C54.6116 33.1283 55.2182 32.7433 55.8249 33.1633" stroke="black" stroke-width="0.14" stroke-miterlimit="2.6"/>
<path d="M51.1933 36.815C51.1933 36.815 51.2749 36.465 50.8899 35.8817C50.8899 35.8817 50.6333 35.3333 50.5166 35.0067M51.3799 34.6217L51.6483 35.3917L51.9983 36.185" stroke="black" stroke-width="0.14" stroke-miterlimit="2.6"/>
<path d="M51.4733 37.1767C51.4733 37.1767 51.7066 37.4217 51.6833 37.83M50.7383 36.9083C50.7383 36.9083 50.9833 37.025 50.9599 37.7017C50.9599 37.7017 50.9483 38.1683 51.3099 38.425M50.6916 38.5883C50.6916 38.5883 51.4733 38.5067 51.5316 38.9967C51.5316 38.9967 51.5316 39.4633 51.8116 39.4983C51.8116 39.4983 52.1966 39.5333 52.2783 39.9183M50.9483 39.125C50.9483 39.125 51.0883 39.3233 51.2283 39.4283M51.9516 38.6117C51.9516 38.6117 52.1383 38.9267 52.1849 39.09M52.8033 35.0067C52.8033 35.0067 52.9899 35.2517 53.1649 35.3567M53.5266 36.4767C53.5266 36.4767 53.9233 36.6633 53.8766 37.6433C53.8766 37.6433 53.8066 38.2267 53.9816 38.5417" stroke="black" stroke-width="0.14" stroke-miterlimit="10"/>
<path d="M51.6949 35.8117L51.7416 35.905C51.7416 35.905 52.4416 35.94 52.8033 35.4617L52.7683 35.3683C52.7683 35.3683 52.1499 35.3333 51.7183 35.8117H51.6949Z" fill="#784421" stroke="black" stroke-width="0.14"/>
<path d="M54.2149 39.5333C54.2149 39.5333 56.6182 38.8333 57.5516 38.4133" stroke="black" stroke-width="0.14" stroke-miterlimit="10"/>
<path d="M53.9583 35.1L53.9349 35.03L55.1133 34.5633L55.1483 34.6567L53.9583 35.1Z" fill="#784421" stroke="black" stroke-width="0.14"/>
<path d="M54.0632 35.0533L54.8566 38.9383M54.2032 35.0183L55.1016 38.8683M54.3549 34.9483L55.3349 38.7867M54.7516 34.8083L56.0932 37.6783M54.9266 34.7617L56.3616 37.585M55.0432 34.6917L56.6066 37.5267M54.7982 38.9733L55.4049 38.7867M54.3432 38.6C54.3432 38.6 56.1166 38.075 57.4932 37.5267M54.2966 38.775C54.2966 38.775 56.5716 38.1917 57.4699 37.7483M54.9966 40.6183L55.1132 41.0033L55.4399 40.8867L55.3232 40.525M55.9066 40.3733L56.0232 40.7233L56.3499 40.6183L56.2332 40.2683M54.3666 38.215L54.3432 37.725L57.3182 36.8267L57.4699 37.2467M55.6032 37.34L55.7549 37.7833M56.6416 37.0367L56.8282 37.4567M56.8866 36.955L57.0732 37.34M57.1199 36.8733L57.3066 37.2933M57.3066 36.8267L57.6332 36.64L57.7732 37.0017M57.4699 36.7333L57.6332 37.1183" stroke="black" stroke-width="0.14" stroke-miterlimit="10"/>
<path d="M50.1083 42.4033C50.1083 42.4033 49.5249 41.8083 50.1083 41.2366C50.1083 41.2366 49.4666 40.9333 49.5716 40.42M51.1583 42.87C51.1583 42.87 50.5399 42.9517 50.7266 41.7733C50.7266 41.7733 50.4699 42.24 50.3883 42.4733C50.3518 42.5893 50.3549 42.7142 50.3972 42.8282C50.4394 42.9423 50.5184 43.0391 50.6216 43.1033C50.7266 43.1733 51.2633 43.3133 51.4383 42.9633M50.4699 41.0733C50.4699 41.0733 50.2249 41.295 50.3999 41.7033M50.7266 41.12C50.7266 41.12 50.7499 41.5283 50.9599 41.75M50.9016 40.9683C50.9016 40.9683 50.9016 41.435 51.2399 41.7383M51.0649 40.805C51.0649 40.805 51.0649 41.33 51.4616 41.6683M53.0366 41.5866C53.0366 41.5866 53.2233 41.1316 53.6433 41.1666C53.6433 41.1666 53.4449 41.26 53.4449 41.4583C53.4449 41.4583 53.4216 41.8083 53.7833 41.8317C53.7833 41.8317 54.0749 41.8783 54.2266 41.715" stroke="#00247D" stroke-width="0.14" stroke-miterlimit="10"/>
<path d="M54.0283 43.57C54.0283 43.57 52.9899 43.08 53.0949 42.3917C53.0949 42.3917 53.1416 41.9717 53.5616 41.7617M53.3283 42.205C53.3283 42.205 53.2349 42.4967 53.4449 42.7067M53.5733 42.0067C53.5733 42.0067 53.4333 42.3333 53.6549 42.5667M53.8299 41.8317C53.8299 41.8317 53.6666 42.1117 53.8533 42.3567M52.8733 43.64C52.8733 43.64 53.4333 44.1417 53.8766 44.1417M52.6983 43.8033C52.6983 43.8033 53.2233 44.2233 53.5616 44.2933M52.5116 43.92C52.5116 43.92 53.1533 44.4917 53.5616 44.5267M55.1599 45.0633C55.1599 45.0633 54.5183 45.4133 55.0199 45.7867M54.7399 44.69L55.7899 44.1533M55.0083 44.8767C55.0083 44.8767 56.0583 44.235 56.3733 44.095M55.5566 44.935C55.5566 44.935 56.4549 44.3283 56.9449 44.06M56.1516 44.8883C56.1516 44.8883 56.7699 44.4217 57.3766 44.06M57.5749 43.465C57.5749 43.465 57.2716 43.01 56.2683 43.465C56.2683 43.465 56.6533 43.1267 57.3766 42.8583M58.3683 40.9567C58.3683 40.9567 58.4616 41.3183 58.3683 41.54" stroke="#00247D" stroke-width="0.14" stroke-miterlimit="10"/>
<path d="M56.7583 42.7067C56.7583 42.7067 56.9683 42.4033 57.4933 42.24C57.4933 42.24 57.6333 42.59 58.0533 42.5317C58.0533 42.5317 58.6599 42.4033 58.4733 41.715C58.4733 41.715 58.3449 41.225 57.6333 41.1667M59.7449 40.315C59.7449 40.315 60.4566 40.455 60.4449 41.0267C60.4449 41.0267 60.5149 41.9133 59.5816 42.0767M60.3516 40.6767C60.3516 40.6767 60.5383 40.245 60.9933 40.07M60.4566 39.8133C60.4566 39.8133 60.6549 40.14 60.7833 40.175M60.3633 40.0583C60.3633 40.0583 60.5383 40.3033 60.5966 40.35M60.2933 40.2917C60.3427 40.3616 60.4016 40.4244 60.4683 40.4783M56.5833 36.885C56.5833 36.885 56.7233 36.6517 57.0849 36.745M58.4966 38.5883C58.4966 38.5883 58.7299 37.6783 59.4883 38.005M59.1849 37.935C59.1849 37.935 59.2549 37.515 59.0683 37.2933M58.6483 37.9C58.6483 37.9 58.7533 38.075 58.6599 38.215" stroke="#00247D" stroke-width="0.14" stroke-miterlimit="10"/>
<path d="M60.2233 47.2917C60.2233 47.2917 61.0866 46.9067 60.8183 46.23C60.8183 46.23 60.7366 45.9967 60.5383 46.02C60.5383 46.02 60.2116 46.0317 60.2699 46.4867C60.2699 46.4867 60.3866 46.93 60.2116 47.3033L60.2233 47.2917Z" fill="#64B4D1" stroke="#00247D" stroke-width="0.14" stroke-miterlimit="2.6"/>
<path d="M60.5266 46.895C60.5266 46.895 60.7249 46.72 60.7016 46.3933C60.7016 46.3933 60.6783 46.3233 60.7016 46.3117C60.7016 46.3117 60.7483 46.3 60.7483 46.3817C60.7483 46.3817 60.8066 46.72 60.5849 46.9067C60.5849 46.9067 60.5733 46.9417 60.5383 46.93C60.5383 46.93 60.5149 46.93 60.5383 46.895H60.5266Z" fill="white"/>
<path d="M61.4482 46.685C61.4482 46.685 62.0549 46.3117 61.7282 45.67C61.7282 45.67 61.6232 45.495 61.4482 45.53C61.4482 45.53 61.0749 45.6467 61.3666 46.1717C61.3666 46.1717 61.5066 46.51 61.4482 46.6967V46.685Z" fill="#64B4D1" stroke="#00247D" stroke-width="0.14" stroke-miterlimit="2.6"/>
<path d="M61.5999 45.8217C61.5999 45.8217 61.5766 45.7867 61.5999 45.7517L61.6466 45.7983C61.6466 45.7983 61.8216 45.9967 61.6816 46.3117C61.6816 46.3117 61.6699 46.3583 61.6232 46.335V46.3C61.6232 46.3 61.7632 46.02 61.5999 45.8333V45.8217Z" fill="white"/>
<path d="M59.6166 47.1283C59.6166 47.1283 58.9399 46.965 59.0683 46.2533C59.0683 46.2533 59.1383 45.95 59.4299 45.9967C59.4299 45.9967 59.7799 46.09 59.5466 46.5333C59.5466 46.5333 59.4183 46.8367 59.6283 47.1283H59.6166Z" fill="#64B4D1" stroke="#00247D" stroke-width="0.14" stroke-miterlimit="2.6"/>
<path d="M59.3599 46.3V46.2417C59.3599 46.2417 59.4066 46.2417 59.4182 46.265C59.4182 46.265 59.4882 46.3817 59.4299 46.545C59.4299 46.545 59.3716 46.65 59.4066 46.755C59.4066 46.755 59.4066 46.79 59.3716 46.8017L59.3482 46.755C59.3482 46.755 59.3132 46.6617 59.3716 46.545C59.3716 46.545 59.4416 46.3817 59.3716 46.3H59.3599Z" fill="white"/>
<path d="M60.1066 45.81C60.1066 45.81 60.5032 45.5883 60.8066 45.845C60.8066 45.845 60.7832 45.705 60.5266 45.6466C60.5266 45.6466 60.4099 45.2733 60.0366 45.3083C60.0366 45.3083 60.1766 45.495 60.3866 45.635C60.3866 45.635 60.1766 45.6583 60.1066 45.81ZM60.3866 44.795C60.3866 44.795 60.6666 44.9933 60.7599 45.1216C60.7599 45.1216 60.8649 44.9816 60.9932 44.9116C60.9932 44.9116 60.8532 44.8766 60.7599 44.9466C60.7599 44.9466 60.6316 44.83 60.4099 44.795H60.3866Z" fill="black"/>
<path d="M58.8933 45.6117C58.8933 45.6117 58.8583 45.5183 58.9283 45.425C58.9283 45.425 58.9749 45.355 58.9516 45.25M61.6816 39.65C61.6816 39.65 62.0899 39.6267 62.1483 39.3M62.8483 39.09C62.8483 39.09 62.7083 39.09 62.5916 39.23C62.5916 39.23 62.4866 39.37 62.3583 39.3467" stroke="black" stroke-width="0.14" stroke-miterlimit="10"/>
<path d="M61.0866 38.4483C61.0866 38.4483 61.2966 38.4483 61.4016 38.355C61.4016 38.355 61.5299 38.2733 61.5999 38.4017C61.5999 38.4017 61.7166 38.5883 61.5066 38.67C61.5066 38.67 61.2499 38.81 61.6583 39.0667C61.6583 39.0667 61.1683 38.88 61.3783 38.6467C61.3783 38.6467 61.5883 38.5067 61.4949 38.4483C61.4949 38.4483 61.4716 38.4017 61.3899 38.4483C61.3083 38.5183 61.1449 38.495 61.0866 38.4483Z" fill="black"/>
<path d="M61.3666 33.3617C61.3666 33.3617 61.4599 33.2217 61.4249 32.8483C61.3782 32.475 61.7282 32.4167 61.8449 32.5217C61.8449 32.5217 61.9849 32.6383 61.8449 32.8833C61.7482 33.0951 61.5783 33.2649 61.3666 33.3617Z" fill="#64B4D1" stroke="#00247D" stroke-width="0.14" stroke-miterlimit="2.6"/>
<path d="M61.4833 33.0583C61.4833 33.0583 61.6233 32.93 61.5533 32.6383L61.5766 32.615H61.6116C61.6116 32.615 61.6816 32.9417 61.5416 33.105C61.5416 33.105 61.5183 33.14 61.4833 33.105V33.0583Z" fill="white"/>
<path d="M61.2616 33.2217C61.2616 33.2217 61.2616 33.0583 60.9932 32.8017C60.7132 32.5217 60.9349 32.2883 61.1099 32.2883C61.1099 32.2883 61.2616 32.2883 61.3432 32.5567C61.396 32.781 61.367 33.0168 61.2616 33.2217Z" fill="#64B4D1" stroke="#00247D" stroke-width="0.14" stroke-miterlimit="2.6"/>
<path d="M61.2266 32.8717C61.2266 32.8717 61.2266 32.685 60.9699 32.4867V32.44H61.0166C61.0166 32.44 61.2849 32.65 61.2849 32.8833C61.2849 32.8833 61.2849 32.9183 61.2499 32.9183C61.2499 32.9183 61.2266 32.9183 61.2266 32.8717Z" fill="white"/>
<path d="M60.8999 33.0933C60.8999 33.0933 60.8183 32.9767 60.4916 32.8483C60.1533 32.7317 60.2349 32.44 60.3749 32.3817C60.3749 32.3817 60.5266 32.3233 60.6783 32.51C60.8162 32.6728 60.8908 32.88 60.8883 33.0933H60.8999Z" fill="#64B4D1" stroke="#00247D" stroke-width="0.14" stroke-miterlimit="2.6"/>
<path d="M60.7366 32.86C60.7366 32.86 60.6666 32.6967 60.3632 32.615C60.3632 32.615 60.3399 32.615 60.3399 32.58C60.3399 32.58 60.3399 32.5567 60.3749 32.5683C60.3749 32.5683 60.7132 32.6383 60.8066 32.8483L60.7949 32.8833C60.7949 32.8833 60.7599 32.8833 60.7482 32.86H60.7366Z" fill="white"/>
<path d="M61.0982 33.2217C61.0982 33.2217 60.9466 33.28 60.5849 33.105C60.2232 32.93 60.0716 33.2333 60.1416 33.3733C60.1416 33.3733 60.1999 33.56 60.4682 33.5133C60.7055 33.5005 60.9297 33.4008 61.0982 33.2333V33.2217Z" fill="#64B4D1" stroke="#00247D" stroke-width="0.14" stroke-miterlimit="2.6"/>
<path d="M60.2699 33.3383C60.2699 33.3383 60.4333 33.455 60.7249 33.3383H60.7599C60.7599 33.3383 60.7599 33.3617 60.7366 33.3733C60.7366 33.3733 60.4333 33.5133 60.2233 33.385C60.2233 33.385 60.1999 33.385 60.2233 33.35H60.2699V33.3383Z" fill="white"/>
<path d="M60.5849 32.09C60.5849 32.09 60.7482 32.1833 60.7249 32.3817" stroke="black" stroke-width="0.14" stroke-miterlimit="2.6"/>
<path d="M61.3666 32.125C61.3666 32.125 61.4366 32.3467 61.3666 32.475" stroke="black" stroke-width="0.14" stroke-miterlimit="10"/>
<path d="M49.0232 33.3617C49.0232 33.3617 48.9299 33.2217 48.9649 32.8483C49.0116 32.4517 48.6732 32.4167 48.5566 32.5217C48.5566 32.5217 48.4166 32.6383 48.5332 32.8833C48.6329 33.0971 48.8071 33.2672 49.0232 33.3617Z" fill="#64B4D1" stroke="#00247D" stroke-width="0.14" stroke-miterlimit="2.6"/>
<path d="M48.8949 33.0583C48.8949 33.0583 48.7782 32.93 48.8249 32.6383V32.615H48.7782C48.7782 32.615 48.7199 32.9417 48.8599 33.105C48.8599 33.105 48.8832 33.14 48.8949 33.105V33.0583Z" fill="white"/>
<path d="M49.1399 33.2217C49.1399 33.2217 49.1399 33.0583 49.4199 32.8017C49.6883 32.5217 49.4666 32.2883 49.3033 32.2883C49.3033 32.2883 49.1166 32.2883 49.0699 32.5567C49.0136 32.7796 49.0384 33.0153 49.1399 33.2217Z" fill="#64B4D1" stroke="#00247D" stroke-width="0.14" stroke-miterlimit="2.6"/>
<path d="M49.1749 32.8717C49.1749 32.8717 49.1749 32.685 49.4083 32.4867C49.4083 32.4867 49.4433 32.4517 49.4083 32.44H49.3849C49.3849 32.44 49.1049 32.65 49.1049 32.8833C49.1049 32.8833 49.1049 32.9183 49.1516 32.9183C49.1516 32.9183 49.1749 32.9183 49.1749 32.8717Z" fill="white"/>
<path d="M49.5016 33.0933C49.5016 33.0933 49.5716 32.9767 49.9099 32.8483C50.2366 32.7317 50.1433 32.44 50.0149 32.3817C50.0149 32.3817 49.8749 32.3233 49.7116 32.51C49.5737 32.6728 49.4991 32.88 49.5016 33.0933Z" fill="#64B4D1" stroke="#00247D" stroke-width="0.14" stroke-miterlimit="2.6"/>
<path d="M49.6532 32.86C49.6532 32.86 49.7232 32.6967 50.0266 32.615C50.0266 32.615 50.0499 32.615 50.0499 32.58C50.0499 32.58 50.0499 32.5567 50.0266 32.5683C50.0266 32.5683 49.6882 32.6383 49.5949 32.8483V32.8833C49.5949 32.8833 49.6416 32.8833 49.6532 32.86Z" fill="white"/>
<path d="M49.2916 33.2217C49.2916 33.2217 49.4549 33.28 49.8049 33.105C50.1549 32.93 50.3182 33.2333 50.2716 33.3733C50.2716 33.3733 50.1899 33.56 49.9216 33.5133C49.6843 33.5005 49.4601 33.4008 49.2916 33.2333V33.2217Z" fill="#64B4D1" stroke="#00247D" stroke-width="0.14" stroke-miterlimit="2.6"/>
<path d="M50.1199 33.3383C50.1199 33.3383 49.9683 33.455 49.6649 33.3383H49.6416V33.3733C49.6416 33.3733 49.9683 33.5133 50.1666 33.385C50.1666 33.385 50.1899 33.385 50.1666 33.35H50.1199V33.3383Z" fill="white"/>
<path d="M49.8166 32.09C49.8166 32.09 49.6416 32.1833 49.6766 32.3817" stroke="black" stroke-width="0.14" stroke-miterlimit="2.6"/>
<path d="M49.0232 32.125C49.0232 32.125 48.9532 32.3467 49.0232 32.475" stroke="black" stroke-width="0.14" stroke-miterlimit="10"/>
<path d="M56.7816 30.095C56.7816 30.095 56.8983 30.41 56.8516 30.7017C56.8166 30.9817 56.8749 31.04 56.9683 31.0983C57.0499 31.1333 57.2483 31.0517 57.2599 30.8417C57.2599 30.8417 57.4933 31.285 57.0499 31.5767C57.0499 31.5767 56.7349 31.775 56.4666 31.53C56.3733 31.425 56.3266 31.18 56.3849 30.9467C56.3849 30.9467 56.4549 30.6317 56.3266 30.305C56.3266 30.305 56.5133 30.4917 56.4666 30.8767C56.4666 30.8767 56.3733 31.5767 56.8866 31.53C56.8866 31.53 57.2366 31.53 57.2366 31.11C57.2366 31.11 57.1083 31.25 56.9566 31.2033C56.8862 31.1866 56.8249 31.1432 56.7858 31.0823C56.7466 31.0214 56.7326 30.9477 56.7466 30.8767C56.7583 30.69 56.8166 30.375 56.7816 30.095ZM56.2333 31.1917C56.2333 31.1917 56.1866 31.7517 55.6966 31.88C55.6966 31.88 55.7666 31.775 55.6616 31.495C55.6616 31.495 55.5449 31.355 55.5449 31.11C55.5449 31.11 55.4049 31.2267 55.5799 31.5533C55.6966 31.7517 55.5799 31.9733 55.5683 31.985C55.5216 31.9967 56.3733 31.8683 56.2216 31.2033L56.2333 31.1917ZM55.5799 30.6667C55.5799 30.6667 55.4516 30.5267 55.4399 30.2233C55.4399 29.9083 55.3816 29.8267 55.3349 29.8033C55.3349 29.8033 55.3933 30.0717 55.3816 30.2233C55.3715 30.342 55.3874 30.4615 55.4283 30.5733C55.4283 30.5733 55.1483 30.6083 54.9733 30.2233C54.8216 29.8383 54.6583 29.8733 54.5766 29.8733C54.5766 29.8733 54.6699 29.885 54.8566 30.2233C55.0433 30.5733 55.1016 30.655 55.5799 30.655V30.6667ZM54.3199 29.85C54.3199 29.85 54.4599 30.2233 54.4833 30.41C54.4833 30.41 54.1216 30.2933 54.0166 30.0017C54.0166 30.0017 53.6433 30.1183 53.7833 30.55C53.7833 30.55 53.4449 30.4333 53.2933 30.1767C53.2933 30.1767 53.4799 30.3167 53.6549 30.375C53.6549 30.375 53.6316 30.0133 54.0749 29.885C54.0749 29.885 54.1449 30.2 54.3783 30.27L54.3199 29.85ZM54.9033 29.22C54.9033 29.22 55.0433 29.395 55.2999 29.395C55.372 29.4004 55.4442 29.3871 55.5096 29.3565C55.575 29.3258 55.6313 29.2788 55.6733 29.22C55.6733 29.22 55.6616 29.5233 55.2999 29.535C55.2999 29.535 54.9149 29.535 54.9149 29.22H54.9033ZM53.3399 31.3783L53.5733 31.6C53.5733 31.6 53.7133 31.74 53.8066 31.565C53.8066 31.565 53.9583 31.285 54.1449 31.3083C54.1449 31.3083 54.0049 31.39 53.8649 31.6583C53.8649 31.6583 53.8416 31.74 53.7249 31.7517C53.6666 31.7517 53.6083 31.775 53.5149 31.67C53.5149 31.67 53.4333 31.565 53.3399 31.39V31.3783ZM55.2883 27.9483C54.9149 27.9483 55.2299 28.2283 55.2299 28.2283C55.2299 28.695 54.8683 28.8583 54.6116 28.7183C54.3549 28.5783 54.5649 28.2517 54.5649 28.2517C54.5649 28.2517 54.2849 28.4267 54.4483 28.7067C54.6349 28.9867 55.1133 28.8467 55.2883 28.6017C55.4633 28.8583 55.9533 28.9867 56.1166 28.7067C56.3149 28.4267 56.0233 28.24 56.0233 28.24C56.0233 28.24 56.2333 28.5783 55.9649 28.7067C55.7199 28.8583 55.3349 28.7067 55.3583 28.24C55.3583 28.24 55.6733 27.9483 55.2999 27.9483H55.2883ZM55.5216 27.435C55.5216 27.435 55.6616 27.6683 55.6383 28.0183C55.6383 28.0183 55.7433 27.6683 55.5216 27.4467V27.435ZM54.3549 27.9833C54.3549 27.9833 54.3199 27.7267 54.0749 27.7033C54.0749 27.7033 54.2966 27.855 54.3549 27.9833ZM56.2216 27.9833C56.2216 27.9833 56.2566 27.7267 56.5133 27.7033C56.5133 27.7033 56.3033 27.855 56.2333 27.9833H56.2216ZM53.9816 28.3567C53.9816 28.3567 54.1683 28.415 54.2849 28.275L53.9816 28.3567ZM53.3516 26.8283C53.3516 26.8283 53.5733 26.8167 53.7949 27.1433C53.7949 27.1433 53.5733 27.26 53.5149 27.33C53.5149 27.33 53.5149 27.2133 53.6316 27.1317C53.6316 27.1317 53.5849 26.9683 53.3516 26.84V26.8283ZM57.0849 26.8283C57.0849 26.8283 56.8516 26.8167 56.6299 27.1433C56.6299 27.1433 56.8633 27.26 56.9099 27.33C56.9099 27.33 56.9099 27.2133 56.7933 27.1317C56.7933 27.1317 56.8399 26.9683 57.0849 26.84V26.8283ZM55.3699 27.085C55.3699 27.085 55.5683 27.1433 55.8133 27.0033C55.8133 27.0033 56.1166 26.84 56.3149 27.0033C56.3149 27.0033 56.1516 26.9217 55.8133 27.085C55.8133 27.085 55.4983 27.2717 55.3699 27.085Z" fill="black"/>
<path d="M55.5799 27.295C55.5799 27.295 55.7432 27.0033 56.2799 27.0617C56.2799 27.0617 56.1282 27.4817 55.5799 27.295Z" fill="white"/>
<path d="M55.9299 27.33C55.9815 27.33 56.0233 27.2725 56.0233 27.2017C56.0233 27.1308 55.9815 27.0733 55.9299 27.0733C55.8784 27.0733 55.8366 27.1308 55.8366 27.2017C55.8366 27.2725 55.8784 27.33 55.9299 27.33Z" fill="#784421"/>
<path d="M55.9299 27.2833C55.9621 27.2833 55.9882 27.2468 55.9882 27.2017C55.9882 27.1566 55.9621 27.12 55.9299 27.12C55.8977 27.12 55.8716 27.1566 55.8716 27.2017C55.8716 27.2468 55.8977 27.2833 55.9299 27.2833Z" fill="black"/>
<path d="M54.4599 26.6533C54.4599 26.6533 54.7866 26.6883 54.9966 26.7933C54.9966 26.7933 55.2066 26.9333 55.4399 26.7583C55.4399 26.7583 55.6966 26.595 55.8716 26.3967C55.8716 26.3967 55.4633 26.665 55.3116 26.7117C55.3116 26.7117 55.1716 26.595 55.1366 26.4433C55.1366 26.4433 55.1366 26.3267 55.3699 26.1283C55.3699 26.1283 55.0783 26.2217 55.0199 26.4667C55.057 26.5656 55.1124 26.6566 55.1833 26.735C55.1833 26.735 55.1366 26.77 54.9966 26.665C54.9966 26.665 54.6699 26.5717 54.4599 26.665V26.6533ZM55.2999 28.6367C55.0199 28.8817 55.2999 28.8583 55.2999 28.8583C55.2999 28.8583 55.5799 28.8817 55.2999 28.625V28.6367ZM55.1366 27.0967C55.1366 27.0967 54.9266 27.155 54.6699 27.015C54.6699 27.015 54.3666 26.8517 54.1683 27.015C54.1683 27.015 54.3433 26.9333 54.6699 27.0967C54.6699 27.0967 55.0083 27.2833 55.1366 27.0967Z" fill="black"/>
<path d="M54.9266 27.295C54.9266 27.295 54.7516 27.0033 54.2266 27.0617C54.2266 27.0617 54.3666 27.4817 54.9266 27.295Z" fill="white"/>
<path d="M54.5649 27.33C54.6164 27.33 54.6582 27.2725 54.6582 27.2017C54.6582 27.1308 54.6164 27.0733 54.5649 27.0733C54.5133 27.0733 54.4716 27.1308 54.4716 27.2017C54.4716 27.2725 54.5133 27.33 54.5649 27.33Z" fill="#784421"/>
<path d="M54.5649 27.2833C54.5971 27.2833 54.6233 27.2468 54.6233 27.2017C54.6233 27.1566 54.5971 27.12 54.5649 27.12C54.5327 27.12 54.5066 27.1566 54.5066 27.2017C54.5066 27.2468 54.5327 27.2833 54.5649 27.2833Z" fill="black"/>
<path d="M65.3333 24.6117V43.465C65.3333 48.4933 55.2766 50.1383 55.2766 50.1383C55.2766 50.1383 45.1966 48.505 45.1966 43.465V24.6117H65.3449H65.3333Z" stroke="black" stroke-width="0.14"/>
<path d="M0 9.375H37.3333V37.375H0V9.375Z" fill="#000066"/>
<path d="M4.375 9.375L18.6083 19.9333L32.7833 9.375H37.3333V12.9917L23.3333 23.4333L37.3333 33.8167V37.375H32.6667L18.6667 26.9333L4.725 37.375H0V33.875L13.9417 23.4917L0 13.1083V9.375H4.375Z" fill="white"/>
<path d="M24.7333 25.7667L37.3333 35.0417V37.375L21.525 25.7667H24.7333ZM14 26.9333L14.35 28.975L3.15 37.375H0L14 26.9333ZM37.3333 9.375V9.55L22.8083 20.5167L22.925 17.95L34.4167 9.375H37.3333ZM0 9.375L13.9417 19.6417H10.4417L0 11.825V9.375Z" fill="#C8102E"/>
<path d="M14.0583 9.375V37.375H23.3917V9.375H14.0583ZM0 18.7083V28.0417H37.3333V18.7083H0Z" fill="white"/>
<path d="M0 20.6333V26.2333H37.3333V20.6333H0ZM15.925 9.375V37.375H21.525V9.375H15.925Z" fill="#C8102E"/>
</g>
<defs>
<clipPath id="clip0_1_9473">
<rect width="74.6667" height="56" fill="white" transform="translate(0 9.375)"/>
</clipPath>
</defs>
</svg>
