<svg width="75" height="75" viewBox="0 0 75 75" fill="none" xmlns="http://www.w3.org/2000/svg">
<rect width="75" height="75" fill="white"/>
<g clip-path="url(#clip0_1_10603)">
<path d="M0 9.375H75V65.625H0V9.375Z" fill="#F7E017"/>
<path d="M0 13.2773V38.2852L75 50.0039V36.7148L0 13.2773Z" fill="white"/>
<path d="M0 26.5664V38.2852L75 61.7227V50.0039L0 26.5664Z" fill="black"/>
<path d="M35.6018 53.883C34.2306 53.7316 32.9113 53.2722 31.7424 52.5393C31.5549 52.4143 31.3831 52.3049 31.3518 52.3049C31.3206 52.3049 31.3049 52.4533 31.3049 52.6252C31.3049 53.1252 31.1018 53.3752 30.6018 53.508C30.1174 53.633 29.3831 53.383 28.7893 52.883C28.2263 52.4013 27.5691 52.0421 26.8596 51.8283C26.1205 51.6524 25.3426 51.7524 24.6721 52.1096C24.6058 52.1562 24.5317 52.1906 24.4534 52.2111C24.3674 52.2111 24.3752 51.6721 24.469 51.508C24.5862 51.2736 24.8674 51.0549 25.2034 50.9377C25.3752 50.8752 25.5159 50.7971 25.5159 50.758C25.5159 50.7268 25.4534 50.6018 25.383 50.4768C25.1565 50.0783 25.2502 49.6955 25.6487 49.3908C26.0549 49.0783 26.7424 49.0314 27.344 49.258C27.4456 49.3013 27.55 49.3379 27.6565 49.3674C27.7346 49.3674 27.6877 49.2502 27.469 48.9299C27.219 48.5627 27.1643 48.383 27.1955 47.9377C27.217 47.6651 27.335 47.4092 27.5284 47.2158C27.7217 47.0225 27.9777 46.9045 28.2502 46.883C28.7034 46.8517 28.9846 47.008 29.6565 47.6408C31.461 49.4571 33.8311 50.6036 36.3753 50.8908C37.0237 50.969 38.3128 50.9299 39.0706 50.8127C41.4713 50.4122 43.6971 49.302 45.4613 47.6252C45.9613 47.1564 46.1956 47.0314 46.6097 47.0314C46.9613 47.0314 47.2113 47.1408 47.4691 47.4221C47.7035 47.6799 47.7816 47.9221 47.7503 48.3205C47.7347 48.5705 47.6957 48.6877 47.5472 48.9377C47.3285 49.2893 47.3675 49.3283 47.7972 49.1564C48.391 48.9221 49.1175 49.0314 49.5082 49.4064C49.8519 49.7346 49.8832 50.0627 49.6175 50.5002C49.516 50.6643 49.4379 50.8127 49.4379 50.844C49.4379 50.8908 49.516 50.9065 49.8675 50.969C50.3363 51.0471 50.6097 51.3908 50.6097 51.9221C50.6097 52.0783 50.5863 52.2111 50.5629 52.2111C50.5394 52.2111 50.3597 52.1408 50.1722 52.0627C49.6254 51.8361 49.3129 51.7815 48.6722 51.7893C48.1878 51.7893 48.0238 51.8127 47.6878 51.9221C47.1255 52.1176 46.6077 52.423 46.1644 52.8205C45.6644 53.2658 45.3519 53.4065 44.8675 53.3987C44.4144 53.3987 44.1097 53.2658 43.9456 53.008C43.8597 52.8674 43.8441 52.7893 43.8675 52.4768C43.8831 52.2736 43.8753 52.1096 43.8675 52.1096C43.8441 52.1096 43.6722 52.219 43.4769 52.3518C43.0309 52.6715 42.545 52.9316 42.0316 53.1252C39.9754 53.87 37.7748 54.1294 35.6018 53.883Z" fill="#CF1126"/>
<path d="M36.43 50.4065C34.9187 50.2676 33.4546 49.8075 32.1356 49.057C30.8165 48.3066 29.673 47.283 28.7815 46.0549C26.8752 43.4611 26.2815 40.0314 26.8596 36.8986C27.1721 35.4689 27.7971 34.0392 28.8518 33.0236C27.9823 34.828 27.743 36.8718 28.1721 38.8283C28.8752 42.7189 32.1565 46.008 36.0862 46.5783C37.6487 47.0236 39.2503 46.5471 40.7347 46.0705C44.0159 44.9142 46.516 41.8049 46.8128 38.3283C47.0706 36.4533 46.7894 34.4923 45.9378 32.7814C46.4222 33.0392 47.0316 34.047 47.391 34.7189C48.641 37.1408 48.6957 40.0392 47.9613 42.6252C46.9613 45.9143 44.4456 48.7971 41.1253 49.844C39.6105 50.3172 38.0216 50.5079 36.4378 50.4065H36.43Z" fill="#CF1126"/>
<path d="M21.2502 46.0861C21.0549 46.0549 20.8362 46.2502 20.9143 46.4533C21.0549 46.6564 21.3049 46.7658 21.5237 46.8596C22.1001 47.0846 22.7187 47.1806 23.3362 47.1408C23.7892 47.1409 24.2387 47.0616 24.6643 46.9064C24.8987 46.8283 25.1956 46.7502 25.2893 46.4846C25.3909 46.3205 25.2112 46.1486 25.0471 46.1799C24.8128 46.2346 24.5784 46.3361 24.344 46.4064C23.8288 46.5523 23.2918 46.6052 22.7581 46.5627C22.3696 46.5062 21.991 46.3958 21.6331 46.2346C21.5081 46.1799 21.3909 46.1018 21.2502 46.0861Z" fill="#CF1126"/>
<path d="M21.469 45.2736C21.2737 45.2424 21.1018 45.4767 21.1799 45.6642C21.3362 45.883 21.594 46.0002 21.8362 46.1017C22.2587 46.2674 22.7108 46.3446 23.1643 46.3283H23.2815C23.6672 46.33 24.0495 46.2556 24.4065 46.1095C24.6174 46.0236 24.8831 45.9377 24.9768 45.7033C25.0471 45.5705 24.9924 45.383 24.8206 45.3674C24.6799 45.3674 24.5471 45.4611 24.4065 45.5002C23.8976 45.7103 23.3458 45.796 22.7971 45.7502C22.4534 45.7111 22.1331 45.5861 21.8206 45.4377C21.7034 45.383 21.6018 45.297 21.469 45.2814V45.2736Z" fill="#CF1126"/>
<path d="M21.7424 44.5002C21.5705 44.4767 21.4534 44.6721 21.4846 44.8205C21.508 44.9611 21.6252 45.0549 21.7268 45.133C22.1522 45.4277 22.6631 45.5732 23.1799 45.5471H23.3049C23.6298 45.5447 23.95 45.4699 24.2424 45.3283C24.4377 45.2502 24.6643 45.1486 24.7346 44.9221C24.7659 44.8205 24.7815 44.6721 24.6643 44.6096C24.5393 44.5471 24.4221 44.6486 24.3127 44.6877C23.939 44.884 23.5239 44.9885 23.1018 44.9924C22.7395 44.9779 22.387 44.8703 22.0784 44.6799C21.9612 44.6252 21.8674 44.5236 21.7424 44.5002Z" fill="#CF1126"/>
<path d="M18.8674 33.0236C18.6174 33.2814 18.8127 33.7501 18.7893 34.0783C18.9299 35.1095 19.094 36.1486 19.4768 37.1251C19.9455 38.0626 20.9455 38.5705 21.5471 39.4064C21.7658 39.8048 21.6877 40.2892 21.7346 40.7345C21.7659 41.9299 21.758 43.133 21.7346 44.3283C22.2815 44.6096 22.8674 44.8752 23.4924 44.7736C23.8596 44.6877 24.5471 44.633 24.6252 44.2658L24.5471 38.0548C24.3362 37.422 23.6877 37.0939 23.2112 36.6876C22.8128 36.2944 22.4422 35.8741 22.1018 35.4298C21.8987 35.0783 21.094 34.9611 21.383 35.5548C21.5549 36.0783 21.9846 36.4611 22.094 37.008C22.1174 37.3126 22.4846 37.8673 22.1721 38.0392C21.9796 37.6996 21.6879 37.427 21.3362 37.258C20.9924 37.0001 20.4221 36.8908 20.2971 36.4376C20.1845 35.7931 19.8858 35.1956 19.4377 34.7189C19.5549 34.1408 19.4377 33.4142 18.9377 33.0392L18.8674 33.0236Z" fill="#CF1126"/>
<path d="M19.6408 33.1407C19.4065 33.1798 19.4221 33.4689 19.5236 33.6251C19.6394 33.9614 19.669 34.3213 19.6096 34.672C20.038 35.149 20.3248 35.7362 20.4377 36.3673C20.4377 36.6017 20.6877 36.6798 20.8518 36.797C21.2346 37.0392 21.6565 37.2189 22.0002 37.5236C22.0705 37.6017 22.1252 37.6798 22.0783 37.5236C22.0237 37.3205 22.0002 37.1017 21.844 36.9533C21.6252 36.7189 21.3596 36.5158 21.0471 36.4533C21.0237 36.1251 20.8674 35.8283 20.7268 35.547C20.5705 35.2736 20.4065 34.9845 20.1408 34.8126C20.1408 34.3361 20.1408 33.8361 19.9377 33.3907C19.8752 33.2814 19.7815 33.1486 19.6408 33.1407Z" fill="#CF1126"/>
<path d="M20.2893 33.3282C20.133 33.3751 20.1643 33.5782 20.2111 33.6954C20.2794 34.0347 20.3056 34.381 20.2893 34.7267C20.5939 34.9611 20.7736 35.3048 20.9455 35.6329C21.0549 35.8517 21.1486 36.0861 21.1877 36.3283C21.4299 36.4064 21.6408 36.5626 21.8283 36.7189C21.7502 36.5001 21.594 36.3283 21.4768 36.1173C21.3596 35.9064 21.2424 35.6798 21.1877 35.4376C20.9533 35.1954 20.8283 34.8439 20.8752 34.5001C20.8908 34.1329 20.7736 33.7501 20.5236 33.4689C20.4611 33.4064 20.383 33.3361 20.2893 33.3282Z" fill="#CF1126"/>
<path d="M21.0315 33.4376C20.9377 33.4533 20.8909 33.5314 20.844 33.6017C20.8206 33.672 20.9065 33.7423 20.9221 33.8204C21.0242 34.0783 21.0617 34.3572 21.0315 34.6329C21.0237 34.8283 21.094 35.0236 21.1877 35.1798C21.2053 35.1197 21.241 35.0664 21.2899 35.0272C21.3388 34.9881 21.3986 34.965 21.4612 34.9611C21.5002 34.9611 21.5706 34.9767 21.5393 34.9064C21.5081 34.5314 21.4534 34.1564 21.3206 33.8126C21.2821 33.6772 21.2063 33.5554 21.1018 33.4611C21.0862 33.4454 21.0549 33.4298 21.0237 33.4376H21.0315Z" fill="#CF1126"/>
<path d="M37.1644 46.5627C36.6367 46.5056 36.1363 46.2988 35.7224 45.9665C35.3085 45.6343 34.9983 45.1905 34.8284 44.6877C34.8519 44.5158 35.0628 44.7814 35.1644 44.8049C35.3549 44.9184 35.5685 44.9878 35.7894 45.008C36.0628 45.1252 36.2347 45.3986 36.5003 45.5471C36.6253 45.6408 37.0628 45.8283 36.9769 45.5236C36.8753 45.3674 36.805 45.1642 36.8988 44.9767C37.0394 44.6564 37.2659 44.3752 37.5003 44.1017C37.6644 44.0471 37.7816 44.383 37.8988 44.4924C38.0628 44.7502 38.2659 45.0627 38.1644 45.3752C38.0706 45.4924 38.0081 45.8439 38.2659 45.7346C38.5784 45.5939 38.8363 45.3596 39.0941 45.1408C39.3285 44.9846 39.6175 44.9767 39.8519 44.8283C39.9691 44.8049 40.1956 44.5861 40.2425 44.7033C40.1026 45.0525 39.9074 45.377 39.6644 45.6642C39.2887 46.1102 38.7693 46.4114 38.1956 46.5158C37.8519 46.5783 37.5081 46.5939 37.1644 46.5627Z" fill="#CF1126"/>
<path d="M38.3988 45.3283C38.4222 45.1174 38.3753 44.9064 38.266 44.7033C38.1019 44.3752 37.8753 44.0783 37.641 43.7736C37.4222 43.6486 37.305 44.0627 37.1644 44.1799C36.9378 44.5158 36.6566 44.8596 36.641 45.2736C36.516 45.4689 36.2816 45.1174 36.18 45.0002C35.9718 44.7325 35.8615 44.4017 35.8675 44.0627C35.8486 43.5125 35.9444 42.9644 36.1488 42.4533C36.305 42.0158 36.5472 41.5939 36.5238 41.1252C36.5394 40.758 36.4691 40.3674 36.18 40.1252C35.8988 39.9064 36.3597 39.8595 36.5003 39.9689C36.7503 39.9923 36.8831 40.3986 37.1097 40.297C37.1956 40.0861 37.2191 39.8283 37.4066 39.6642C37.5863 39.4142 37.7738 39.7658 37.8363 39.9377C37.9691 40.0783 37.8363 40.4455 38.0394 40.4533C38.2894 40.2736 38.4691 39.9845 38.7894 39.9142C38.9222 39.8361 39.141 39.9142 38.9691 40.0548C38.7347 40.2814 38.5316 40.5549 38.4847 40.8908C38.4144 41.3049 38.516 41.7267 38.6956 42.0939C39.0472 42.8283 39.3207 43.6564 39.141 44.4767C39.0628 44.8361 38.8128 45.1486 38.516 45.3596C38.4769 45.383 38.4144 45.383 38.3988 45.3283Z" fill="#CF1126"/>
<path d="M38.0238 39.8127C37.9186 39.6013 37.7694 39.4148 37.5862 39.2658C37.3987 39.2658 37.2816 39.5002 37.1566 39.6252C37.0706 39.7892 36.9612 40.0627 36.7425 39.8517C36.3909 39.6486 36.3362 39.2033 36.3362 38.8361C36.3128 38.2423 36.555 37.6876 36.7659 37.1486C36.8987 36.8126 36.8675 36.4298 36.7816 36.0861C36.68 35.6954 36.3597 35.4142 36.1175 35.1017C36.1331 34.9845 36.4456 35.047 36.5628 35.0704C36.8284 35.1408 36.9847 35.3673 37.18 35.5392C37.3206 35.4923 37.2581 35.2111 37.3284 35.0783C37.3284 34.8908 37.5784 34.6486 37.68 34.9142C37.8363 35.0861 37.68 35.422 37.8753 35.5236C38.0628 35.4533 38.1566 35.2501 38.3284 35.1564C38.4182 35.0983 38.5213 35.0642 38.628 35.0574C38.7347 35.0505 38.8414 35.0712 38.9378 35.1173C39.0081 35.2892 38.7347 35.4298 38.6566 35.5861C38.5004 35.7808 38.3922 36.0096 38.3406 36.2538C38.289 36.4981 38.2956 36.7511 38.3597 36.9923C38.4691 37.383 38.6566 37.7345 38.7269 38.1251C38.8113 38.5706 38.7979 39.0291 38.6878 39.4689C38.6175 39.7345 38.3909 39.9064 38.1566 40.0158C38.0941 39.9611 38.0628 39.883 38.0238 39.8127Z" fill="#CF1126"/>
<path d="M36.844 34.9142C36.5784 34.7189 36.4925 34.5392 36.4925 34.172C36.4925 33.9923 36.5315 33.8907 36.6487 33.7189C36.8362 33.4689 36.805 33.3907 36.5472 33.461C36.1331 33.5782 35.9378 33.4767 35.9222 33.1251C35.9222 32.9532 35.9534 32.8829 36.18 32.6017C36.3675 32.3829 36.4378 32.2657 36.3987 32.2267C36.3597 32.1954 36.1409 32.3829 35.6956 32.836C35.4164 33.1305 35.1189 33.4071 34.805 33.6642C34.0393 34.1798 33.305 34.2579 32.969 33.8595C32.7972 33.6564 32.805 33.547 33.0003 33.422C33.1247 33.3379 33.2399 33.2411 33.344 33.1329C33.7269 32.7833 34.149 32.4792 34.6019 32.2267C34.8831 32.086 34.9456 31.9923 34.7659 31.9923C34.5315 31.9923 33.7893 32.4767 33.219 32.9923C33.055 33.1485 32.8128 33.3204 32.6878 33.3829C32.3402 33.5097 31.964 33.5368 31.6018 33.461C31.43 33.4064 31.1096 33.1095 31.1096 33.0001C31.1096 32.9767 31.1878 32.9142 31.2659 32.8595C31.3932 32.7875 31.5135 32.7038 31.6253 32.6095C32.0784 32.2189 32.9378 31.8048 33.6175 31.6564C33.8362 31.6173 33.7503 31.5001 33.5081 31.5157C32.791 31.6527 32.1195 31.9669 31.555 32.4298C30.9065 32.9689 29.9299 32.9142 29.6174 32.3282C29.5628 32.2267 29.5237 32.1329 29.5393 32.1173C30.0927 31.9776 30.6277 31.7731 31.1331 31.5079C31.5684 31.2513 32.0481 31.0791 32.5472 31.0001C32.7659 30.961 32.7815 30.8517 32.5706 30.8282C32.2893 30.797 31.8675 30.9376 31.1253 31.297C30.1643 31.7735 29.8909 31.8595 29.3909 31.8282C28.9221 31.797 28.6643 31.6798 28.2971 31.3282C28.0471 31.0938 27.7034 30.5079 27.7659 30.4376C28.1715 30.5229 28.5862 30.557 29.0003 30.5392C29.6487 30.5392 29.8284 30.5235 30.1721 30.422C30.8437 30.2092 31.4767 29.89 32.0472 29.4767C32.8513 28.7964 33.8689 28.4203 34.9222 28.4141C35.8909 28.4141 36.5003 28.6329 37.0472 29.1876C37.2347 29.3751 37.3909 29.4923 37.4144 29.4688C37.4378 29.4454 37.4612 29.1173 37.469 28.7423C37.469 28.7423 37.7581 28.711 37.8206 28.797C37.8206 29.3985 37.8206 29.4532 37.9144 29.4532C37.9691 29.4532 38.0316 29.3907 38.0706 29.297C38.1487 29.1016 38.4612 28.8282 38.7894 28.6563C39.4925 28.3048 40.7191 28.2891 41.7034 28.6329C42.1741 28.8115 42.6142 29.0618 43.0081 29.3751C43.5829 29.7793 44.2149 30.0953 44.8832 30.3126C45.4144 30.4688 46.3675 30.5079 46.8441 30.3907C46.9835 30.3584 47.1243 30.3324 47.266 30.3126C47.4457 30.3126 47.141 30.9063 46.7816 31.2579C46.1253 31.8985 45.2738 31.8907 44.0785 31.2501C43.3285 30.8438 42.4378 30.6251 42.4378 30.8438C42.4378 30.8907 42.4847 30.922 42.555 30.922C42.8128 30.922 43.3128 31.0938 44.016 31.4298C44.4577 31.6845 44.9422 31.8566 45.4457 31.9376C45.6253 31.9376 45.6332 32.0548 45.4613 32.3048C45.2816 32.5704 44.9769 32.6954 44.5472 32.6954C44.1331 32.6954 43.8988 32.6095 43.5316 32.3048C42.9066 31.7892 41.3753 31.211 41.43 31.5235C41.4456 31.5782 41.5159 31.6173 41.68 31.6407C42.3398 31.7841 42.9575 32.0782 43.4847 32.5001L43.9456 32.836C44.0316 32.8829 44.0316 32.8985 43.9613 33.0314C43.8519 33.2501 43.555 33.4142 43.2425 33.4454C42.8363 33.4923 42.4769 33.3673 42.1097 33.0548C41.3284 32.4064 40.6019 31.9376 40.3675 31.9376C40.1722 31.9376 40.2581 32.047 40.6019 32.2267C41.0466 32.4622 41.461 32.7508 41.8363 33.086C41.9925 33.2345 42.1722 33.3751 42.2269 33.4064C42.3753 33.4845 42.3675 33.5939 42.2113 33.797C42.055 34.0001 41.7894 34.0939 41.4534 34.0548C40.7816 33.9845 40.2503 33.6642 39.4222 32.8048C39.2253 32.5849 39.011 32.3811 38.7816 32.1954C38.6722 32.1954 38.7425 32.3439 38.9534 32.586C39.2191 32.8751 39.2659 33.0392 39.1644 33.2892C39.0784 33.4923 38.93 33.547 38.6331 33.461C38.3206 33.3829 38.2737 33.461 38.4769 33.7032C38.7737 34.086 38.7347 34.5392 38.3597 34.8595C38.2821 34.9342 38.1923 34.995 38.0941 35.0392C38.0628 35.0392 37.9847 34.9611 37.9144 34.8517C37.68 34.4923 37.469 34.4923 37.2347 34.8517C37.1852 34.9315 37.1331 35.0097 37.0784 35.0861C36.9994 35.0301 36.9212 34.9728 36.844 34.9142Z" fill="#CF1126"/>
<path d="M38.0237 27.5782L37.6175 27.8907L37.2581 27.6251V29.797H38.0237V27.5782Z" fill="#CF1126"/>
<path d="M35.5394 25.336C35.4683 26.2144 35.2296 27.071 34.8362 27.8595L35.7034 27.0548L36.305 27.7735L36.9612 27.0392L37.6253 27.6642L38.2659 27.0157L38.93 27.797L39.5081 27.1564L40.4925 27.8595C40.1331 27.0782 39.6566 26.4063 39.7113 25.297C38.7659 26.0001 36.5081 26.1251 35.5394 25.3282V25.336Z" fill="#CF1126"/>
<path d="M37.2659 24.8126C36.9144 24.8126 36.5472 24.8204 36.2191 24.8907C36.0018 24.9253 35.7941 25.0051 35.6097 25.1251C35.6331 25.797 38.8128 26.0704 39.6644 25.1407C39.4727 25.0081 39.2539 24.92 39.0238 24.8829C38.7113 24.8204 38.3519 24.8204 38.0159 24.8048V25.3595H37.2659V24.8126Z" fill="#CF1126"/>
<path d="M37.8831 21.4063H37.3909V25.2657H37.8909L37.8831 21.4063Z" fill="#CF1126"/>
<path d="M37.8831 21.5001L37.6956 23.3516L39.5941 24.2813L38.6331 22.9923L39.9456 22.5626L37.8831 21.5001ZM37.6722 21.0235C37.3831 21.0235 37.1722 21.1329 37.1722 21.2579C37.1722 21.3829 37.3831 21.4923 37.6722 21.4923C37.9612 21.4923 38.1722 21.3829 38.1722 21.2579C38.1722 21.1329 37.9612 21.0235 37.6722 21.0235Z" fill="#CF1126"/>
<path d="M36.7968 53.4258C37.1132 53.3203 37.289 53.1328 37.4179 52.7695C37.4765 52.582 37.5234 52.3945 37.5117 52.3477C37.4882 52.2305 37.3476 52.2305 37.207 52.3594C37.1015 52.4414 37.0898 52.4883 37.1132 52.6641C37.1953 53.0977 37.0312 53.2148 36.2109 53.2969C36.1289 53.2969 35.8828 53.2969 35.6835 53.2617C35.2851 53.2148 35.1445 53.2617 35.2851 53.3789C35.3608 53.4273 35.4439 53.4629 35.5312 53.4844C35.7539 53.543 36.5624 53.5078 36.7968 53.4258ZM38.5195 53.3555C38.5664 53.3086 38.7187 53.2383 38.871 53.1797C39.0703 53.1211 39.1757 53.0625 39.2578 52.9219C39.5038 52.5703 39.457 52.2539 39.1054 51.832C38.9062 51.5977 38.8242 51.6094 38.6718 51.8672C38.5312 52.0781 38.5429 52.1016 38.7304 52.1484C38.8359 52.1719 38.9296 52.2422 38.9765 52.3359C39.1874 52.6992 39.1289 52.9219 38.8124 52.9219C38.5312 52.9219 38.4609 52.9688 38.3789 53.1563L38.3085 53.3789C38.3085 53.4492 38.4257 53.4375 38.5195 53.3555ZM37.957 52.9453C38.0038 52.793 38.0273 52.5352 38.0156 52.0078C38.0282 51.7573 38.0164 51.5061 37.9804 51.2578C37.9335 51.2109 37.7109 51.3516 37.6757 51.457C37.664 51.5435 37.6849 51.6312 37.7343 51.7031C37.8046 51.8438 37.8164 51.9844 37.7929 52.5234C37.7578 53.2266 37.8046 53.3438 37.957 52.9453Z" fill="#F7E017"/>
<path d="M36.6328 52.6172L36.7148 52.0313C36.7265 51.832 36.7734 51.5859 36.7968 51.4805C36.8789 51.2109 36.7968 51.1406 36.5859 51.293L36.4336 51.4102L36.457 51.7969C36.4922 52.1484 36.4336 52.793 36.3515 53.0508C36.3281 53.1211 36.3633 53.0977 36.457 52.9922C36.5273 52.9102 36.6093 52.7344 36.6328 52.6055V52.6172ZM35.4609 52.8047C35.7422 52.5703 35.707 52.1484 35.7773 51.8203C35.7773 51.5977 35.9179 51.3398 35.8242 51.1406C35.5547 51.1875 35.3906 51.4453 35.5312 51.6914C35.5312 51.9844 35.5312 52.3008 35.3789 52.5586C35.2617 52.7344 34.8633 52.6875 34.8867 52.4414C34.9804 52.0898 34.5468 52.2656 34.3828 52.3594C34.2539 52.4531 33.9726 52.4648 34.0781 52.2422C34.0078 51.9258 33.6211 52.125 33.4101 52.125C33.2109 52.125 33.3984 51.7148 33.1054 51.7734C32.5781 51.7383 31.9922 51.7852 31.5234 51.4688C31.2539 51.3398 31.289 51.0117 31.4414 50.8008C31.6054 50.5195 31.6523 50.1563 31.9101 49.9336C32.1797 49.6875 31.6758 49.793 31.5586 49.875C31.3008 50.0156 31.5351 50.3789 31.3242 50.5781C31.207 50.7891 31.0429 51.0703 30.7617 51.0352C30.3515 50.9531 30.1172 50.5664 29.8242 50.332C29.5664 50.2734 29.707 50.7305 29.8476 50.8242C30.1074 51.0184 30.4017 51.1615 30.7148 51.2461C31.0195 51.1875 31.0312 51.5977 31.3008 51.6562C31.7695 51.8906 32.3086 51.9492 32.8359 51.9844C33.0468 51.9961 32.9297 52.3711 33.1992 52.2891C33.3515 52.3359 33.7031 52.2305 33.7148 52.4063C33.4804 52.6875 33.9375 52.6758 34.1015 52.6406C34.3242 52.5938 34.5937 52.5234 34.6523 52.8047C34.8281 53.0039 35.1562 52.9688 35.3789 52.8633L35.4609 52.8047Z" fill="#F7E017"/>
<path d="M30.7968 50.4375C30.907 50.2834 31.0012 50.1185 31.0781 49.9453C31.1377 49.7952 31.2165 49.6534 31.3125 49.5234C31.4531 49.3828 31.3711 49.2891 31.1484 49.3359C31.0312 49.3594 30.9843 49.4062 30.9726 49.5117C30.9201 49.7992 30.8211 50.0763 30.6796 50.332C30.4804 50.625 30.4804 50.6367 30.5625 50.6367C30.5976 50.6367 30.7031 50.543 30.7968 50.4375ZM27.8671 48.5977C27.6445 48.5977 27.6328 48.7383 27.8437 48.8086C27.9609 48.8438 28.0429 48.9258 28.1132 49.0781C28.3125 49.4883 28.4414 49.5703 28.9921 49.6172L29.3437 49.6406L29.3671 49.8633C29.3671 49.9805 29.4023 50.0742 29.4257 50.0742L29.7304 49.957C29.9882 49.8164 30.2343 49.5117 30.2343 49.3125C30.2343 49.1953 30.0234 49.0547 29.8359 49.0547C29.7539 49.0547 29.6015 49.125 29.4726 49.2188C29.0742 49.5 28.6523 49.4531 28.4179 49.0781C28.2421 48.7734 28.0429 48.6094 27.8671 48.6094V48.5977ZM29.7773 49.3594C29.8828 49.3594 29.8945 49.4414 29.8476 49.5938C29.8404 49.6144 29.827 49.6324 29.8091 49.645C29.7913 49.6577 29.7699 49.6646 29.748 49.6646C29.7261 49.6646 29.7048 49.6577 29.6869 49.645C29.6691 49.6324 29.6556 49.6144 29.6484 49.5938C29.6015 49.4766 29.6601 49.3594 29.7656 49.3594H29.7773ZM44.6015 48.8906C44.4492 48.8906 44.414 48.9141 44.3203 49.0547C44.1679 49.2773 44.1562 49.7578 44.2968 49.9219C44.3789 50.0273 44.3906 50.0273 44.5664 49.9453C44.8242 49.8398 44.8711 49.8516 44.8593 49.9805C44.8593 50.332 44.3671 51 43.8515 51.3516C43.7457 51.414 43.6507 51.4931 43.5703 51.5859C43.5351 51.6797 43.7226 51.668 43.957 51.5391C44.3451 51.3165 44.6651 50.9924 44.8828 50.6016C45.0117 50.332 45.0351 50.25 45.0586 49.7812C45.0586 49.3359 45.0586 49.1953 44.9882 49.0547C44.8945 48.8906 44.8711 48.8789 44.6601 48.8789H44.6015V48.8906ZM44.6132 49.1836C44.7304 49.1836 44.7304 49.207 44.7539 49.3711C44.7539 49.4883 44.7421 49.5703 44.6718 49.6406C44.5781 49.7227 44.5546 49.7227 44.4843 49.5938C44.3671 49.4063 44.4375 49.1836 44.6132 49.1836ZM42.2461 52.5234C42.7031 52.2891 42.9726 52.043 43.1367 51.6797C43.1976 51.5631 43.2485 51.4416 43.289 51.3164C43.289 51.2461 43.0664 51.1406 42.9375 51.1406C42.8086 51.1406 42.7734 51.0469 42.8203 50.7891C42.8789 50.543 42.8203 50.2266 42.7031 50.2266C42.6679 50.2266 42.5859 50.2852 42.5507 50.3555C42.4804 50.4727 42.4687 50.5195 42.5273 50.6719C42.6093 50.9062 42.539 51.0937 42.3281 51.2461C42.2226 51.3164 42.1757 51.3984 42.1757 51.4805L42.1875 51.5977L42.4336 51.4805L42.6679 51.3398L42.7968 51.457C42.8789 51.5039 42.9375 51.5977 42.9375 51.6562C42.9375 51.9375 42.1406 52.4063 41.6015 52.4531C41.3086 52.4766 41.25 52.4531 41.1562 52.3594C41.0742 52.2773 41.0507 52.207 41.0742 52.125L41.1328 51.8203C41.1796 51.5742 41.0859 51.6094 40.8984 51.8906C40.7578 52.125 40.7109 52.3711 40.7929 52.5C40.8632 52.6172 41.3086 52.7109 41.6367 52.6875C41.8359 52.6875 42.0351 52.6289 42.2461 52.5234ZM45.2929 50.8242C45.5742 50.5313 45.7031 50.1797 45.7031 49.6523V49.2422L45.9375 49.125C46.2539 48.9844 46.5468 48.6914 46.5468 48.5273C46.5468 48.3633 46.4648 48.3633 46.3359 48.5508C46.2304 48.6797 46.1015 48.7617 45.6328 48.9844C45.5156 49.0312 45.5039 49.0664 45.4687 49.5703C45.4453 50.1562 45.3515 50.3672 45.0351 50.7656C44.8359 51 44.8242 51.0469 44.9648 51.0469C45.0234 51.0469 45.1757 50.9414 45.2929 50.8125V50.8242ZM42.164 50.4961C42.1875 50.4141 42.0234 50.3555 41.9648 50.4258C41.9296 50.4492 41.9179 50.4961 41.9414 50.5313C41.9882 50.6016 42.1289 50.5781 42.164 50.4961ZM46.4765 49.3828C46.5117 49.2891 46.3476 49.2305 46.2773 49.3008C46.2539 49.3359 46.2421 49.3828 46.2656 49.418C46.3125 49.4883 46.4531 49.4648 46.4765 49.3828ZM41.2851 46.3477C41.1679 46.4062 41.1093 46.5234 41.039 46.6172C40.9804 46.6523 41.0273 46.6875 41.0507 46.7344C41.25 46.9336 41.332 47.2266 41.4257 47.4961C41.5195 47.8125 41.6367 48.1523 41.5429 48.4805C41.5078 48.5977 41.4023 48.7266 41.2617 48.6914C41.0273 48.6797 40.7929 48.6094 40.5586 48.6094C40.3359 48.6211 40.1718 48.8203 39.9609 48.7969C39.8203 48.7969 39.8203 48.5156 39.7031 48.5977C39.6328 48.75 39.6679 48.9141 39.6562 49.0664C39.6796 49.1016 39.75 49.0781 39.7851 49.0898H40.2187C40.2421 49.2305 40.2421 49.4063 40.3359 49.5234C40.4882 49.5703 40.664 49.5234 40.8046 49.4648C40.9453 49.3945 40.9687 49.2187 41.0156 49.0781C41.0625 48.9258 41.25 48.9609 41.3671 48.9023C41.5081 48.8585 41.6306 48.7691 41.7154 48.6483C41.8002 48.5274 41.8426 48.3819 41.8359 48.2344C41.8125 47.7773 41.6484 47.3672 41.5078 46.9453C41.4492 46.7578 41.4023 46.5586 41.332 46.3711L41.2851 46.3477ZM40.582 48.9023C40.7343 48.9023 40.8046 49.0898 40.7695 49.2188C40.7109 49.3945 40.4882 49.2891 40.4531 49.1602C40.3711 49.043 40.4179 48.8906 40.5703 48.9023H40.582Z" fill="#F7E017"/>
<path d="M34.6875 47.4375C34.6172 47.4375 34.5351 47.4609 34.4531 47.5195C34.0429 47.8125 33.9258 48.1523 34.2187 48.293C34.4179 48.3867 34.3711 48.5039 34.0429 48.668C33.5742 48.9023 33.164 48.8672 32.3789 48.5508C32.1914 48.4688 32.1445 48.5039 32.1797 48.668C32.2265 48.8438 32.3906 48.9375 32.7773 49.0195C33.1992 49.1367 33.7148 49.1016 34.0429 48.9609C34.2355 48.8626 34.4068 48.7272 34.5469 48.5625L34.8047 48.293L35.0976 48.3281C35.4609 48.375 35.4726 48.375 35.4726 48.5508C35.4726 48.6914 35.4726 48.6914 35.8125 48.7266L36.3633 48.75C36.5156 48.75 36.5976 48.7852 36.6445 48.8555C36.7148 48.9375 36.75 48.9492 37.3008 48.9023C37.8164 48.8555 37.9101 48.8555 38.1445 48.9375C38.3086 48.9844 38.4961 49.0078 38.625 48.9961C39.0234 48.9492 39.5625 48.6328 39.6445 48.3984C39.6445 48.3633 39.7969 48.3164 39.9609 48.2813C40.3594 48.1992 40.3711 48.1172 40.0078 48.0703C39.8241 48.0461 39.6435 48.0029 39.4687 47.9414C39.338 47.8861 39.1998 47.8505 39.0586 47.8359C38.8594 47.8359 38.6719 47.9531 38.6719 48.0938C38.6719 48.1758 38.6953 48.1875 38.9414 48.1641C39.1523 48.1406 39.2226 48.1523 39.3398 48.2461C39.4219 48.3047 39.4687 48.375 39.457 48.3984C39.3984 48.4922 38.9297 48.7031 38.7304 48.7383C38.61 48.7583 38.4863 48.7376 38.3789 48.6797C38.1914 48.5859 37.9336 48.5742 37.875 48.6563C37.8515 48.6914 37.8047 48.668 37.7226 48.5977L37.6054 48.4805L37.3242 48.5977C37.0429 48.7148 36.9375 48.7148 36.9375 48.5742C36.9375 48.5156 36.8554 48.5039 36.4453 48.5391C35.9883 48.5625 35.9414 48.5508 35.8594 48.457C35.7773 48.375 35.7773 48.3398 35.8359 48.2578C35.8828 48.1641 35.8828 48.1406 35.8359 48.082C35.789 48.0352 35.7187 48.0352 35.5429 48.082C35.0859 48.1992 34.957 48.1406 34.957 47.7891C34.957 47.5664 34.8398 47.4375 34.6875 47.4375ZM34.5703 47.7656C34.5937 47.7656 34.6172 47.7773 34.6523 47.8125C34.6875 47.8477 34.7109 47.9297 34.6875 47.9648C34.6523 48.0703 34.4531 48.0703 34.4179 47.9648C34.3945 47.9062 34.4179 47.8477 34.4765 47.8125L34.5703 47.7656Z" fill="#F7E017"/>
<path d="M33.75 48.0938C34.0312 47.918 34.0312 47.9297 34.0664 47.4492C34.0898 47.0977 34.0898 47.0742 33.9961 47.0742C33.8555 47.0742 33.7851 47.2266 33.7851 47.5078C33.7851 47.6953 33.7617 47.7773 33.668 47.8594C33.4336 48.0938 32.8711 47.9883 32.789 47.707C32.7656 47.6133 32.8008 47.5195 32.918 47.3555C33.164 47.0039 33.1172 46.9102 32.8008 47.1797C32.6015 47.3672 32.5664 47.3672 32.6015 47.2148C32.6367 47.0625 32.5664 47.0039 32.3906 47.0508C32.3086 47.0742 32.25 47.1211 32.2383 47.2383C32.2148 47.332 32.168 47.3906 32.0859 47.4141C31.9453 47.4492 31.7109 47.3203 31.7109 47.2031C31.7109 47.1211 32.0625 46.6875 32.5195 46.2188C32.6836 46.043 32.8242 45.8672 32.8242 45.8555C32.8242 45.832 32.7305 45.8086 32.625 45.8086C32.4609 45.8086 32.414 45.832 32.414 45.9023C32.414 45.9492 32.1914 46.2539 31.9101 46.5703C31.3242 47.2266 31.2773 47.3555 31.5586 47.5313C31.6757 47.6034 31.8113 47.6397 31.9488 47.6355C32.0863 47.6313 32.2195 47.5869 32.332 47.5078L32.5195 47.3789V47.6133C32.5195 47.9062 32.5781 48.0234 32.8125 48.1406C32.9591 48.2159 33.1229 48.2512 33.2875 48.243C33.4521 48.2347 33.6116 48.1833 33.75 48.0938ZM45.9844 44.0391C45.7734 44.168 45.9375 44.4375 45.9844 44.625C45.8906 44.8594 45.5742 44.9297 45.3398 44.9766C45.0117 45.0352 44.7773 45.3047 44.6601 45.5977C44.5898 45.7852 44.4258 46.0664 44.25 45.7852C44.0976 45.6328 43.8164 45.5039 43.6406 45.6914C43.5 45.8203 43.4648 46.0078 43.4062 46.1836C43.3242 46.0547 43.289 45.8555 43.125 45.8086C42.8437 45.8438 42.9492 46.1953 43.0781 46.3359C43.1953 46.5117 43.3125 46.7227 43.1953 46.9219C43.0781 47.1563 42.7265 47.3203 42.5273 47.1211C42.3398 47.0156 42.4687 46.6523 42.2695 46.6289C42.1758 46.6992 42.1758 47.0859 42.0234 46.875C41.9062 46.6992 41.9765 46.4531 41.8359 46.3008C41.6836 46.3242 41.5547 46.5937 41.6015 46.7344C41.8125 47.0156 41.9062 47.3672 41.9883 47.707C42.0351 47.8477 41.9765 48.1172 42.1055 48.1758C42.1875 47.9531 42.1055 47.707 42.1758 47.4844C42.3867 47.4609 42.6094 47.5547 42.8203 47.5078C43.1367 47.4727 43.3711 47.2031 43.4765 46.9336C43.5117 46.7227 43.4765 46.5117 43.4648 46.3008C43.6992 46.3477 43.957 46.3477 44.1914 46.418C44.3086 46.5938 44.1562 46.8516 44.1211 47.0391C44.0039 47.4375 43.6875 47.7188 43.3945 47.9766C43.2656 48.0586 43.2539 48.2578 43.4297 48.1523C43.8305 47.962 44.1444 47.6271 44.3086 47.2148C44.4375 46.9102 44.332 46.5703 44.4258 46.2656C44.543 46.0312 44.8359 46.0781 45.0586 46.0781C45.2812 46.0781 45.4687 45.8086 45.3984 45.5859C45.3281 45.3281 45.5976 45.2109 45.7734 45.1172C46.0195 45 46.207 44.7539 46.1836 44.4727C46.1836 44.3203 46.1836 44.0508 45.9844 44.0391ZM45.1289 45.5039C45.3867 45.5742 45.082 46.0664 44.9414 45.75C44.8945 45.6328 45 45.5039 45.1289 45.5039ZM43.9219 45.8555C44.2617 45.8437 44.1328 46.3242 43.8515 46.1133C43.6992 46.0313 43.7461 45.8555 43.9219 45.8555ZM31.6406 47.7656C31.6406 47.7188 31.6172 47.6836 31.5703 47.6836C31.4883 47.6836 31.4297 47.7656 31.4648 47.8359C31.5117 47.918 31.6172 47.8711 31.6406 47.7656ZM35.625 47.3438C35.625 47.2617 35.5898 47.2383 35.5312 47.25C35.4023 47.2734 35.3789 47.4492 35.5195 47.4492C35.5898 47.4492 35.625 47.4141 35.625 47.332V47.3438ZM30.7031 44.9531C30.5508 44.918 30.4453 45.0586 30.3867 45.1875C30.2695 45.3867 30.1289 45.5859 29.918 45.6914C29.7656 45.7383 29.6015 45.6797 29.4609 45.5977C29.3086 45.5156 29.3437 45.3281 29.2734 45.1992C29.1562 45.1055 28.957 45.2344 28.9687 45.375C28.957 45.5625 29.1211 45.668 29.2734 45.7383C29.3906 45.8203 29.5781 45.8555 29.625 46.0078C29.625 46.1367 29.6719 46.2891 29.8242 46.2422C30 46.2422 30.0586 46.4531 29.9765 46.582C29.8982 46.7249 29.8694 46.8898 29.8945 47.0508C29.9765 47.1328 30.0586 46.9336 30.1289 46.8867L30.2461 46.7227C30.5625 46.7344 30.8672 46.7813 31.1836 46.7695C31.418 46.7695 31.5937 46.6289 31.7344 46.4648C31.9453 46.2539 32.1094 46.0078 32.332 45.832C32.4961 45.7852 32.414 45.4805 32.2383 45.5742C32.0859 45.6328 32.039 45.8086 31.9336 45.9141C31.7626 46.1393 31.566 46.3438 31.3476 46.5234C31.1719 46.5938 30.9844 46.5586 30.8086 46.5234C30.7383 46.4648 30.9492 46.4063 30.9844 46.3359C31.0781 46.2422 31.1953 46.1484 31.2539 46.0195C31.1953 45.9023 31.0312 45.9023 30.914 45.9023C30.6328 45.9258 30.4101 46.1719 30.1172 46.1953C29.8945 46.1953 30.0117 45.9609 30.1172 45.8789C30.3047 45.6445 30.5156 45.4336 30.7148 45.2109C30.7734 45.1406 30.9844 45.0703 30.8555 44.9766C30.8086 44.9531 30.75 44.9531 30.7031 44.9531ZM30.8437 46.125C30.9961 46.207 30.75 46.3359 30.6562 46.3242C30.5273 46.3594 30.5156 46.2305 30.6328 46.207C30.7031 46.1602 30.7734 46.125 30.8437 46.125ZM30.3984 46.4297C30.4805 46.4297 30.6562 46.5117 30.4922 46.5586C30.375 46.6523 30.2578 46.4648 30.3984 46.4297Z" fill="#F7E017"/>
<path d="M33.914 46.6172C33.914 46.5 33.7265 46.5234 33.7031 46.6406C33.6797 46.7109 33.7031 46.7227 33.7968 46.7109C33.8672 46.7109 33.914 46.6641 33.914 46.6172ZM42.6679 45.8438C42.6914 45.7383 42.5508 45.668 42.4687 45.75C42.3867 45.8203 42.4687 45.9727 42.5625 45.9492C42.6093 45.9492 42.6562 45.8906 42.6797 45.8438H42.6679ZM29.0625 44.7773C29.1914 44.6602 29.2031 44.6484 29.1445 44.3906C29.0508 44.0273 29.0625 43.9805 29.2031 43.9453C29.3789 43.9102 29.8242 44.1445 29.9062 44.332C30 44.4844 29.9883 44.4961 29.8593 44.6133C29.7187 44.7422 29.7187 44.8945 29.8593 44.8945C29.9765 44.8945 30.2929 44.5898 30.2929 44.4844C30.2929 44.332 29.9414 43.9688 29.6601 43.8398C29.4914 43.7613 29.3072 43.7212 29.1211 43.7227C28.7578 43.7227 28.7109 43.8047 28.8047 44.2148C28.9218 44.707 28.7695 44.7773 28.3711 44.4023C28.2293 44.2776 28.1185 44.1216 28.0473 43.9468C27.9761 43.7719 27.9465 43.5828 27.9609 43.3945C27.9609 42.9258 28.1484 42.6797 28.5586 42.6211C28.8398 42.5859 28.8281 42.5156 28.5586 42.4805C28.1367 42.4102 27.7851 42.6914 27.6562 43.1836C27.5039 43.7344 27.8437 44.4023 28.4414 44.7422C28.7578 44.918 28.875 44.9297 29.0625 44.7773ZM45.375 44.168C45.4101 44.1445 45.4336 44.0625 45.4336 44.0039C45.4336 43.9453 45.4922 43.8164 45.5625 43.7227C45.6328 43.6289 45.6797 43.5352 45.6797 43.5117C45.6797 43.418 45.5273 43.418 45.4101 43.5117C45.2812 43.6172 45.1758 43.6289 45.1758 43.5117L45.3164 43.4063C45.5039 43.3242 45.5156 43.2305 45.3633 43.1602C45.164 43.0664 44.9531 43.2305 44.9414 43.5117C44.9297 43.6992 44.9414 43.7227 45.082 43.8047C45.2109 43.8867 45.2343 43.9219 45.2109 44.0391C45.1758 44.2266 45.2578 44.2969 45.375 44.168ZM46.8984 44.0039C47.0156 43.8867 47.1093 43.7812 47.1093 43.7461C47.1093 43.7109 47.2148 43.6055 47.332 43.5117C47.6601 43.2773 47.7422 43.043 47.5898 42.6563C47.5312 42.5039 47.3554 42.3047 46.9453 41.9531C46.7584 41.7536 46.5456 41.5802 46.3125 41.4375C46.207 41.4375 46.2304 41.8359 46.3359 41.8711C46.5351 41.9414 46.664 42.0234 46.9687 42.3047C47.3437 42.6328 47.5078 42.9492 47.414 43.125C47.332 43.2891 47.2148 43.2422 46.8867 42.8906C46.7803 42.7584 46.6537 42.6437 46.5117 42.5508C46.4765 42.5508 46.4531 42.6211 46.4531 42.7148C46.4531 42.832 46.5117 42.9492 46.6875 43.125C46.957 43.4297 46.9804 43.6055 46.7695 43.7695C46.722 43.8178 46.6665 43.8574 46.6054 43.8867C46.3375 43.4282 45.9786 43.0294 45.5508 42.7148C45.5156 42.7148 45.4922 42.7617 45.4922 42.8789C45.4922 43.0313 45.5156 43.0781 45.6328 43.1367C45.9408 43.3732 46.2166 43.649 46.4531 43.957L46.664 44.1914C46.7515 44.1368 46.8304 44.0697 46.8984 43.9922V44.0039ZM47.6015 42.0352C47.5429 41.8945 46.6172 40.9336 46.5117 40.9336C46.4648 40.9336 46.4531 40.9922 46.4648 41.1445C46.4648 41.332 46.5 41.3555 46.6289 41.3906C46.829 41.5077 47.0107 41.6538 47.1679 41.8242C47.2953 41.9612 47.4412 42.0795 47.6015 42.1758V42.0352ZM42 52.8867C42.0062 52.9042 42.0075 52.9227 42.0037 52.9406C41.9998 52.9586 41.991 52.9756 41.978 52.9902C41.9649 53.0049 41.9479 53.0167 41.9283 53.0249C41.9087 53.0331 41.8871 53.0374 41.8652 53.0374C41.8433 53.0374 41.8217 53.0331 41.8021 53.0249C41.7826 53.0167 41.7655 53.0049 41.7525 52.9902C41.7394 52.9756 41.7306 52.9586 41.7267 52.9406C41.7229 52.9227 41.7242 52.9042 41.7304 52.8867C41.7242 52.8692 41.7229 52.8508 41.7267 52.8328C41.7306 52.8148 41.7394 52.7978 41.7525 52.7832C41.7655 52.7686 41.7826 52.7567 41.8021 52.7485C41.8217 52.7403 41.8433 52.7361 41.8652 52.7361C41.8871 52.7361 41.9087 52.7403 41.9283 52.7485C41.9479 52.7567 41.9649 52.7686 41.978 52.7832C41.991 52.7978 41.9998 52.8148 42.0037 52.8328C42.0075 52.8508 42.0062 52.8692 42 52.8867ZM42.4922 52.7227C42.4922 52.738 42.4885 52.7533 42.4815 52.7675C42.4744 52.7817 42.464 52.7946 42.451 52.8055C42.4379 52.8164 42.4224 52.825 42.4053 52.8309C42.3883 52.8368 42.37 52.8398 42.3515 52.8398C42.3331 52.8398 42.3148 52.8368 42.2977 52.8309C42.2807 52.825 42.2652 52.8164 42.2521 52.8055C42.239 52.7946 42.2287 52.7817 42.2216 52.7675C42.2145 52.7533 42.2109 52.738 42.2109 52.7227C42.2109 52.7073 42.2145 52.692 42.2216 52.6778C42.2287 52.6636 42.239 52.6507 42.2521 52.6398C42.2652 52.6289 42.2807 52.6203 42.2977 52.6144C42.3148 52.6085 42.3331 52.6055 42.3515 52.6055C42.37 52.6055 42.3883 52.6085 42.4053 52.6144C42.4224 52.6203 42.4379 52.6289 42.451 52.6398C42.464 52.6507 42.4744 52.6636 42.4815 52.6778C42.4885 52.692 42.4922 52.7073 42.4922 52.7227Z" fill="#F7E017"/>
</g>
<defs>
<clipPath id="clip0_1_10603">
<rect width="75" height="56.25" fill="white" transform="translate(0 9.375)"/>
</clipPath>
</defs>
</svg>
