<svg width="75" height="75" viewBox="0 0 75 75" fill="none" xmlns="http://www.w3.org/2000/svg">
<rect width="74.6667" height="74.75" fill="white"/>
<g clip-path="url(#clip0_1_9761)">
<path fill-rule="evenodd" clip-rule="evenodd" d="M0 9.375H74.6667V65.375H0V9.375Z" fill="#229E45"/>
<path fill-rule="evenodd" clip-rule="evenodd" d="M37.4968 60.2417L72.6718 37.41L37.2868 14.5083L1.99509 37.4567L37.4968 60.2417Z" fill="#F8E509"/>
<path fill-rule="evenodd" clip-rule="evenodd" d="M52.8267 37.375C52.8267 45.5767 46.1651 52.2267 37.9401 52.2267C35.0009 52.222 32.1291 51.3461 29.6876 49.7096C27.2462 48.0731 25.3447 45.7494 24.2237 43.0324C23.1026 40.3154 22.8123 37.327 23.3894 34.4451C23.9665 31.5631 25.3851 28.9169 27.4658 26.841C29.5466 24.7651 32.1961 23.3528 35.0795 22.7825C37.9628 22.2122 40.9505 22.5096 43.6648 23.637C46.3792 24.7644 48.6983 26.6713 50.3291 29.1166C51.9599 31.5619 52.8291 34.4358 52.8267 37.375Z" fill="#2B49A3"/>
<path fill-rule="evenodd" clip-rule="evenodd" d="M33.0517 46.2767L32.5851 46.0083L32.1184 46.2417L32.2234 45.7167L31.8501 45.32L32.3751 45.2617L32.6317 44.795L32.8534 45.285L33.3667 45.3783L32.9817 45.7283M43.0151 48.7967L42.5601 48.5283L42.0934 48.7617L42.1867 48.2367L41.8251 47.8517L42.3501 47.7933L42.5951 47.315L42.8284 47.805L43.3417 47.8983L42.9451 48.26M38.7217 44.76L38.3251 44.5267L37.9167 44.7367L38.0101 44.2817L37.6834 43.9433L38.1501 43.8967L38.3601 43.4767L38.5467 43.9083L39.0017 43.99L38.6517 44.305M48.8017 43.3133L48.4051 43.08L47.9967 43.29L48.0901 42.835L47.7751 42.5083L48.2301 42.4617L48.4401 42.0533L48.6267 42.4733L49.0701 42.555L48.7317 42.8583M38.5467 40.2917L38.0801 40.035L37.6134 40.2683L37.7067 39.7317L37.3451 39.3467L37.8701 39.2883L38.1151 38.81L38.3484 39.3L38.8617 39.3933L38.4651 39.7667M26.2617 35.6833L25.7951 35.4267L25.3284 35.66L25.4451 35.1233L25.0601 34.7383L25.5967 34.68L25.8301 34.2017L26.0634 34.6917L26.5767 34.785L26.1917 35.1467M27.7434 41.82L27.2767 41.5517L26.8101 41.785L26.9151 41.26L26.5417 40.875L27.0667 40.805L27.3117 40.3383L27.5451 40.8283L28.0584 40.9217L27.6734 41.2833M43.0734 33.4317L42.6534 33.1983L42.2334 33.4083L42.3267 32.9417L42.0001 32.5917L42.4667 32.5333L42.6884 32.1133L42.8867 32.5567L43.3534 32.6383L43.0034 32.9533M42.2217 37.4217L41.9067 37.235L41.5684 37.3983L41.6384 37.025L41.3817 36.7567L41.7551 36.71L41.9301 36.3833L42.0817 36.7333L42.4317 36.7917L42.1751 37.0483M25.5851 42.9283L25.2701 42.7533L24.9551 42.905L25.0251 42.555L24.7801 42.2983L25.1301 42.2517L25.2934 41.9367L25.4451 42.2633L25.7951 42.3333L25.5267 42.5667M48.8834 44.3517L48.6267 44.2233L48.3701 44.34L48.4284 44.0717L48.2301 43.885L48.5101 43.85L48.6501 43.6167L48.7667 43.85L49.0584 43.9083L48.8367 44.0833" fill="#FFFFEF"/>
<path fill-rule="evenodd" clip-rule="evenodd" d="M25.5851 42.9283L25.2701 42.7533L24.9551 42.905L25.0251 42.555L24.7801 42.2983L25.1301 42.2517L25.2934 41.9367L25.4451 42.2633L25.7951 42.3333L25.5267 42.5667" fill="#FFFFEF"/>
<path fill-rule="evenodd" clip-rule="evenodd" d="M25.5851 42.9283L25.2701 42.7533L24.9551 42.905L25.0251 42.555L24.7801 42.2983L25.1301 42.2517L25.2934 41.9367L25.4451 42.2633L25.7951 42.3333L25.5267 42.5667M30.4617 42.9167L30.1584 42.7533L29.8434 42.905L29.9134 42.555L29.6684 42.2983L30.0184 42.2517L30.1817 41.9367L30.3334 42.2633L30.6834 42.3217L30.4151 42.5667M29.8551 44.55L29.5517 44.375L29.2367 44.5383L29.3067 44.1883L29.0617 43.92L29.4117 43.8733L29.5751 43.5583L29.7267 43.885L30.0767 43.955L29.8084 44.1883M40.0051 41.5983L39.7017 41.4117L39.3751 41.575L39.4451 41.225L39.2117 40.9567L39.5617 40.9217L39.7251 40.6067L39.8651 40.9333L40.2151 40.9917L39.9584 41.2367M37.0301 41.5867L36.7151 41.4117L36.4001 41.575L36.4701 41.225L36.2367 40.9567L36.5867 40.9217L36.7501 40.595L36.8901 40.9333L37.2401 40.9917L36.9834 41.2367M28.9567 40.56L28.7584 40.4433L28.5601 40.5367L28.6067 40.315L28.4551 40.1517L28.6767 40.1283L28.7701 39.93L28.8634 40.14L29.0851 40.175L28.9217 40.3267M48.4984 45.6233L48.1951 45.4483L47.8801 45.6117L47.9501 45.2617L47.7051 44.9933L48.0551 44.9467L48.2184 44.6317L48.3701 44.9583L48.7201 45.0283L48.4517 45.2617M46.0251 45.9617L45.7684 45.7983L45.5001 45.9383L45.5584 45.635L45.3601 45.425L45.6517 45.39L45.7917 45.1217L45.9084 45.4017L46.2001 45.4483L45.9784 45.6583M47.1917 45.9267L46.9584 45.7867L46.7134 45.9033L46.7601 45.635L46.5734 45.4367L46.8417 45.4017L46.9701 45.1683L47.0867 45.4017L47.3551 45.46L47.1567 45.6467M50.5517 42.9867L50.3184 42.87L50.0851 42.9867L50.1434 42.7183L49.9567 42.52L50.2251 42.485L50.3417 42.2517L50.4584 42.4967L50.7034 42.5433L50.5167 42.73M45.9901 47.6067L45.6984 47.4433L45.3834 47.5833L45.4534 47.2567L45.2201 47.0233L45.5701 46.9883L45.7217 46.6967L45.8617 47L46.2117 47.0583L45.9434 47.28M46.0134 48.9367L45.7334 48.7733L45.4534 48.925L45.5234 48.5983L45.3017 48.365L45.6167 48.3183L45.7567 48.0267L45.8851 48.33L46.2001 48.3883L45.9667 48.6217M43.7501 45.9267L43.5284 45.7867L43.2951 45.9033L43.3417 45.6467L43.1667 45.4483L43.4234 45.425L43.5401 45.1917L43.6567 45.425L43.9134 45.4717L43.7267 45.6583M41.6501 45.9267L41.4167 45.7867L41.1834 45.9033L41.2417 45.6467L41.0551 45.4483L41.3234 45.425L41.4401 45.1917L41.5567 45.425L41.8017 45.4717L41.6151 45.6583M38.0684 42.7883L37.8351 42.66L37.6017 42.7767L37.6601 42.5083L37.4734 42.3217L37.7301 42.2867L37.8467 42.0533L37.9634 42.2867L38.2201 42.345L38.0334 42.52M38.4651 49.17L38.2784 49.065L38.0684 49.17L38.1151 48.9367L37.9634 48.7733L38.1851 48.75L38.2901 48.5517L38.3834 48.7617L38.6051 48.7967L38.4417 48.9483M33.0517 38.845L32.5851 38.5767L32.1184 38.81L32.2234 38.285L31.8501 37.9L32.3751 37.83L32.6317 37.3633L32.8534 37.8533L33.3667 37.9467L32.9817 38.3083" fill="#FFFFEF"/>
<path fill-rule="evenodd" clip-rule="evenodd" d="M51.8467 42.7183C52.1358 41.9683 52.3621 41.1957 52.5234 40.4083C44.6134 33.4667 35.8051 29.9083 24.6751 30.6433C24.2714 31.4244 23.9395 32.2405 23.6834 33.0817C36.8667 31.8217 46.5501 37.655 51.8467 42.7183Z" fill="white"/>
<path d="M48.3001 38.8217L48.5684 38.9733C48.5284 39.0526 48.5161 39.143 48.5334 39.23C48.5608 39.3144 48.6192 39.3853 48.6968 39.4283C48.7784 39.4867 48.8601 39.5217 48.9301 39.51C49.0001 39.51 49.0468 39.475 49.0818 39.4283C49.1021 39.3974 49.1104 39.36 49.1051 39.3233C49.0956 39.2803 49.0755 39.2402 49.0468 39.2067C49.0234 39.1717 48.9651 39.09 48.8718 38.9967C48.7758 38.8977 48.704 38.7779 48.6618 38.6467C48.6327 38.5474 48.6402 38.4409 48.683 38.3467C48.7259 38.2524 48.8011 38.1767 48.8951 38.1333C48.98 38.0979 49.0737 38.0898 49.1634 38.11C49.2731 38.1353 49.3764 38.1829 49.4668 38.25C49.6301 38.3667 49.7351 38.4833 49.7701 38.6233C49.7862 38.6888 49.7883 38.757 49.7763 38.8233C49.7642 38.8897 49.7383 38.9527 49.7001 39.0083L49.4201 38.8333C49.4551 38.7633 49.4668 38.6933 49.4434 38.635C49.4318 38.5767 49.3851 38.5183 49.3034 38.4717C49.2435 38.4235 49.1702 38.395 49.0934 38.39C49.0723 38.3893 49.0513 38.3944 49.0329 38.4046C49.0144 38.4149 48.999 38.43 48.9884 38.4483C48.9651 38.4833 48.9651 38.5183 48.9768 38.565C48.9884 38.6117 49.0468 38.705 49.1634 38.8217C49.2801 38.9383 49.3501 39.0433 49.3968 39.1133C49.4384 39.1898 49.4573 39.2766 49.4511 39.3635C49.4449 39.4503 49.4139 39.5336 49.3618 39.6033C49.3072 39.6827 49.2299 39.7437 49.1401 39.7783C49.0526 39.8186 48.9548 39.8309 48.8601 39.8133C48.7551 39.79 48.6501 39.7433 48.5334 39.6617C48.3584 39.545 48.2534 39.4167 48.2184 39.2767C48.1804 39.1179 48.2055 38.9506 48.2884 38.81L48.3001 38.8217ZM46.9468 37.935L47.2384 38.0867C47.2023 38.1673 47.1941 38.2576 47.2151 38.3433C47.2449 38.4234 47.303 38.4898 47.3784 38.53C47.4718 38.5883 47.5418 38.6117 47.6118 38.6C47.6818 38.6 47.7284 38.565 47.7634 38.5067C47.7811 38.4789 47.7893 38.4462 47.7868 38.4133C47.7868 38.3783 47.7634 38.3317 47.7284 38.2967C47.6687 38.2245 47.6064 38.1545 47.5418 38.0867C47.4134 37.9583 47.3318 37.8533 47.3084 37.76C47.2894 37.7 47.2836 37.6365 47.2917 37.574C47.2998 37.5115 47.3214 37.4516 47.3551 37.3983C47.3995 37.3264 47.4645 37.2694 47.5418 37.235C47.6219 37.1981 47.7113 37.1859 47.7984 37.2C47.9063 37.2182 48.0095 37.2579 48.1018 37.3167C48.2768 37.4333 48.3818 37.55 48.4168 37.6783C48.438 37.7439 48.4449 37.8133 48.4368 37.8818C48.4288 37.9502 48.406 38.0162 48.3701 38.075L48.0784 37.9117C48.1134 37.83 48.1251 37.7717 48.1018 37.7133C48.0784 37.655 48.0318 37.5967 47.9501 37.55C47.8855 37.5037 47.8079 37.4792 47.7284 37.48C47.7093 37.4813 47.6907 37.4873 47.6745 37.4975C47.6582 37.5077 47.6447 37.5217 47.6351 37.5383C47.6118 37.5733 47.6118 37.6083 47.6234 37.655C47.6351 37.7017 47.7051 37.795 47.8218 37.9117C47.9384 38.0283 48.0201 38.1217 48.0551 38.1917C48.1019 38.2648 48.1267 38.3499 48.1267 38.4367C48.1267 38.5235 48.1019 38.6085 48.0551 38.6817C48.0048 38.7631 47.9318 38.828 47.8451 38.8683C47.7576 38.9086 47.6598 38.9209 47.5651 38.9033C47.445 38.883 47.3301 38.8395 47.2268 38.775C47.076 38.6946 46.9598 38.5618 46.9001 38.4017C46.855 38.2459 46.8717 38.0788 46.9468 37.935ZM45.2901 37.4917L46.1418 36.0917L47.1684 36.7333L47.0284 36.9667L46.2818 36.5L46.0951 36.815L46.7951 37.2467L46.6434 37.48L45.9434 37.0483L45.7101 37.4333L46.4918 37.9L46.3518 38.1333L45.3018 37.4917H45.2901ZM42.8751 35.5083L43.0034 35.275L43.6334 35.59L43.3418 36.1733C43.2484 36.1967 43.1318 36.2083 42.9918 36.1967C42.8573 36.1819 42.7268 36.1423 42.6068 36.08C42.4656 36.0112 42.3449 35.9066 42.2568 35.7767C42.1765 35.6559 42.1358 35.5133 42.1401 35.3683C42.146 35.2175 42.1859 35.07 42.2568 34.9367C42.3269 34.7964 42.4312 34.676 42.5601 34.5867C42.6834 34.5014 42.8302 34.4566 42.9801 34.4583C43.0968 34.4583 43.2134 34.4933 43.3534 34.575C43.5401 34.6567 43.6568 34.7733 43.7151 34.9017C43.7758 35.0291 43.7882 35.1741 43.7501 35.31L43.4351 35.2167C43.4544 35.1385 43.4461 35.0561 43.4118 34.9833C43.3768 34.9133 43.3184 34.8667 43.2251 34.82C43.1707 34.789 43.1104 34.7698 43.048 34.7638C42.9857 34.7577 42.9228 34.765 42.8634 34.785C42.7468 34.82 42.6418 34.925 42.5601 35.0883C42.4784 35.2517 42.4434 35.4033 42.4784 35.5317C42.4946 35.5925 42.5238 35.6491 42.5641 35.6975C42.6044 35.7459 42.6548 35.7848 42.7118 35.8117C42.7701 35.8467 42.8401 35.87 42.9101 35.87C42.9797 35.8806 43.0505 35.8806 43.1201 35.87L43.2134 35.6833L42.8751 35.5083ZM32.3518 32.9067L32.5851 31.2733L33.0751 31.355L33.2034 32.4983L33.6584 31.4483L34.1484 31.5183L33.9151 33.1283L33.6001 33.0817L33.7984 31.81L33.2851 33.035L32.9701 32.9883L32.8418 31.67L32.6551 32.9533L32.3518 32.9067ZM30.7068 32.7083L30.8584 31.075L32.0601 31.1917L32.0368 31.4717L31.1618 31.39L31.1268 31.74L31.9434 31.8217L31.9084 32.1017L31.0918 32.02L31.0568 32.4633L31.9668 32.545L31.9434 32.825L30.7068 32.7083Z" fill="#309E3A"/>
<path d="M25.2584 31.6933C25.2584 31.5183 25.2934 31.39 25.3401 31.2733C25.381 31.1904 25.4363 31.1153 25.5034 31.0517C25.5632 30.9913 25.6347 30.9437 25.7134 30.9117C25.8301 30.8767 25.9467 30.8533 26.0634 30.8533C26.3084 30.8533 26.4951 30.9467 26.6467 31.0867C26.7189 31.1759 26.7726 31.2785 26.8047 31.3887C26.8367 31.4989 26.8465 31.6143 26.8334 31.7283C26.8334 31.985 26.7517 32.195 26.6001 32.3467C26.5221 32.4187 26.4299 32.4736 26.3294 32.5077C26.229 32.5419 26.1224 32.5546 26.0167 32.545C25.9124 32.5461 25.809 32.5259 25.7128 32.4858C25.6165 32.4457 25.5294 32.3865 25.4567 32.3117C25.3115 32.1398 25.2402 31.9175 25.2584 31.6933Z" fill="#309E3A"/>
<path d="M25.5967 31.6934C25.5967 31.8684 25.6317 32.0084 25.7134 32.1134C25.7951 32.2067 25.9001 32.2651 26.0401 32.2651C26.1006 32.2693 26.1614 32.26 26.2179 32.2378C26.2744 32.2156 26.3253 32.1811 26.3667 32.1367C26.4484 32.0434 26.4834 31.9034 26.4951 31.7051C26.4951 31.5184 26.4717 31.3784 26.3784 31.2851C26.3404 31.238 26.2924 31.2 26.238 31.1738C26.1835 31.1476 26.1239 31.1338 26.0634 31.1334C26.002 31.1314 25.941 31.143 25.8845 31.1671C25.8281 31.1913 25.7776 31.2276 25.7367 31.2734C25.6434 31.3667 25.6084 31.5067 25.5967 31.6934Z" fill="#F7FFFF"/>
<path d="M27.1834 32.5333L27.2067 30.9H27.9067C28.0817 30.9 28.1984 30.9233 28.2801 30.9583C28.3617 30.9817 28.4201 31.04 28.4667 31.11C28.5134 31.18 28.5367 31.2733 28.5367 31.3783C28.5377 31.4906 28.496 31.599 28.4201 31.6817C28.3338 31.7625 28.2228 31.8118 28.1051 31.8217L28.2801 31.9617C28.3267 32.0083 28.3851 32.1017 28.4551 32.23L28.6534 32.5567H28.2567L28.0234 32.1833L27.8601 31.95C27.8318 31.9179 27.7956 31.8938 27.7551 31.88C27.702 31.8645 27.647 31.8567 27.5917 31.8567H27.5217V32.5333H27.1834Z" fill="#309E3A"/>
<path d="M27.5335 31.6H27.7668C27.9301 31.6 28.0351 31.6 28.0701 31.5766C28.1051 31.5766 28.1401 31.5416 28.1635 31.5183C28.1868 31.495 28.1985 31.4366 28.1985 31.4016C28.1985 31.3316 28.1868 31.285 28.1518 31.2616C28.1285 31.2266 28.0818 31.2033 28.0351 31.1916H27.8018L27.5335 31.18V31.5883V31.6Z" fill="white"/>
<path d="M29.0501 30.9817L29.6567 31.0167C29.785 31.0167 29.89 31.0283 29.96 31.0517C30.0509 31.0846 30.1313 31.1409 30.1934 31.215C30.2606 31.2966 30.3085 31.3923 30.3334 31.495C30.3684 31.6 30.38 31.7283 30.3684 31.88C30.3683 31.9991 30.3486 32.1173 30.31 32.23C30.2634 32.3467 30.1934 32.44 30.1117 32.51C30.0437 32.566 29.964 32.6059 29.8784 32.6267C29.8084 32.65 29.7034 32.65 29.5867 32.65L28.9684 32.615L29.0501 30.9817Z" fill="#309E3A"/>
<path d="M29.3649 31.2733L29.3066 32.3583H29.7499C29.8083 32.3583 29.8549 32.335 29.8899 32.3C29.9249 32.265 29.9599 32.2183 29.9833 32.1483C30.0066 32.0783 30.0299 31.9733 30.0299 31.845L30.0183 31.5533C30.0016 31.4918 29.9695 31.4356 29.9249 31.39C29.8862 31.351 29.8379 31.3229 29.7849 31.3083C29.6967 31.2887 29.6069 31.277 29.5166 31.2733H29.3649Z" fill="white"/>
<path d="M37.0534 33.8983L37.4384 32.3117L37.9518 32.4283L38.3251 32.545C38.4068 32.5917 38.4768 32.6617 38.5118 32.7667C38.5584 32.86 38.5584 32.965 38.5351 33.0933C38.5118 33.1867 38.4768 33.2683 38.4184 33.3267C38.3756 33.3779 38.3221 33.4191 38.2616 33.4473C38.2011 33.4755 38.1352 33.4901 38.0684 33.49C37.9868 33.49 37.8701 33.4667 37.7184 33.4317L37.5201 33.3733L37.3801 33.98L37.0534 33.8983Z" fill="#309E3A"/>
<path d="M37.6834 32.6617L37.5901 33.105L37.7651 33.1517C37.8817 33.175 37.9751 33.1983 38.0217 33.1867C38.0671 33.1804 38.1094 33.1602 38.1429 33.1288C38.1763 33.0975 38.1992 33.0566 38.2084 33.0117C38.2084 32.9533 38.2084 32.9067 38.1851 32.86C38.1595 32.8126 38.1182 32.7755 38.0684 32.755L37.8467 32.6967L37.6951 32.6617H37.6834Z" fill="white"/>
<path d="M38.5701 34.3533L39.1184 32.8133L39.7601 33.0467C39.9351 33.105 40.0401 33.1633 40.1101 33.21C40.1684 33.2683 40.2151 33.3267 40.2268 33.42C40.2384 33.5133 40.2501 33.595 40.2268 33.6883C40.1801 33.805 40.1101 33.8867 40.0168 33.945C39.9234 33.9917 39.8068 34.0033 39.6668 33.98C39.7134 34.0383 39.7601 34.0967 39.7834 34.1667L39.8768 34.4817L39.9468 34.8433L39.5851 34.715L39.4684 34.295C39.4472 34.2 39.4199 34.1065 39.3868 34.015C39.3713 33.9787 39.3473 33.9467 39.3168 33.9217C39.2934 33.8867 39.2468 33.8633 39.1651 33.84L39.1068 33.8167L38.8734 34.47L38.5701 34.3533Z" fill="#309E3A"/>
<path d="M39.2001 33.5716L39.4218 33.6533C39.5734 33.7116 39.6668 33.735 39.7134 33.735C39.7484 33.735 39.7834 33.735 39.8184 33.7C39.8534 33.6766 39.8768 33.6416 39.8884 33.595C39.9118 33.5483 39.9118 33.5016 39.8884 33.455C39.8712 33.4098 39.838 33.3724 39.7951 33.35L39.5618 33.2683L39.3284 33.1866L39.1884 33.5716H39.2001Z" fill="white"/>
<path d="M40.4834 34.295C40.5235 34.1584 40.591 34.0314 40.6817 33.9217C40.7407 33.8513 40.8119 33.792 40.8917 33.7467C40.9641 33.7058 41.0431 33.6782 41.1251 33.665C41.2417 33.665 41.3584 33.665 41.4867 33.7117C41.591 33.7375 41.6886 33.7851 41.7731 33.8515C41.8576 33.9179 41.927 34.0015 41.9767 34.0967C42.0701 34.2833 42.0701 34.505 42.0001 34.7617C41.9423 34.9822 41.7998 35.1709 41.6034 35.2867C41.4284 35.3917 41.2184 35.4033 40.9967 35.3333C40.8927 35.3069 40.7954 35.2589 40.7111 35.1926C40.6267 35.1263 40.5571 35.0431 40.5067 34.9483C40.46 34.8463 40.4339 34.7361 40.4299 34.624C40.4259 34.5119 40.4441 34.4001 40.4834 34.295Z" fill="#309E3A"/>
<path d="M40.81 34.3883C40.7633 34.5633 40.7517 34.715 40.81 34.8316C40.8683 34.9483 40.95 35.0183 41.0783 35.065C41.195 35.1 41.3117 35.0883 41.4283 35.0183C41.545 34.96 41.615 34.8316 41.6733 34.645C41.7317 34.47 41.7317 34.33 41.6733 34.2133C41.6503 34.1579 41.6154 34.1083 41.571 34.068C41.5266 34.0277 41.4739 33.9976 41.4167 33.98C41.3593 33.9601 41.2982 33.953 41.2378 33.9591C41.1774 33.9651 41.119 33.9842 41.0667 34.015C40.95 34.085 40.8683 34.2016 40.81 34.3883Z" fill="white"/>
<path d="M43.6684 36.57L44.4151 35.1233L45.0334 35.4383C45.15 35.4942 45.2564 35.5692 45.3484 35.66C45.4067 35.7183 45.4417 35.7883 45.4417 35.8817C45.4417 35.975 45.4417 36.0567 45.3951 36.1383C45.3502 36.2432 45.2666 36.3268 45.1617 36.3717C45.0451 36.395 44.9284 36.395 44.8001 36.3483C44.8467 36.4183 44.8701 36.4883 44.8934 36.5467C44.9167 36.6167 44.9284 36.7217 44.9401 36.8733L44.9634 37.2467L44.6134 37.0717L44.5667 36.64C44.5612 36.5421 44.5495 36.4447 44.5317 36.3483C44.5238 36.3047 44.5035 36.2642 44.4734 36.2317L44.3334 36.15L44.2751 36.115L43.9601 36.7217L43.6684 36.57Z" fill="#309E3A"/>
<path d="M44.3917 35.8817L44.6134 35.9984C44.7534 36.0684 44.8467 36.115 44.8817 36.115C44.9167 36.115 44.9634 36.115 44.9984 36.0917C45.0334 36.08 45.0567 36.045 45.08 35.9984C45.1034 35.9517 45.115 35.905 45.1034 35.8584C45.089 35.8119 45.0604 35.7711 45.0217 35.7417C44.9534 35.6998 44.8834 35.6609 44.8117 35.625L44.5784 35.5084L44.3917 35.8817Z" fill="white"/>
<path d="M49.7117 39.5567C49.7872 39.4367 49.8865 39.3335 50.0034 39.2533C50.0819 39.2031 50.1688 39.1675 50.2601 39.1483C50.3447 39.1311 50.432 39.1311 50.5167 39.1483C50.6334 39.1717 50.7384 39.2183 50.8434 39.2883C50.9342 39.3449 51.0122 39.4198 51.0725 39.5081C51.1327 39.5965 51.1739 39.6965 51.1934 39.8017C51.2284 40 51.1701 40.2217 51.0301 40.4433C50.9129 40.6361 50.7241 40.7746 50.5051 40.8283C50.4006 40.8509 50.2926 40.8511 50.188 40.829C50.0835 40.8069 49.9848 40.7629 49.8984 40.7C49.8076 40.6434 49.7296 40.5686 49.6693 40.4802C49.6091 40.3918 49.5679 40.2919 49.5484 40.1867C49.5134 39.9767 49.5717 39.7667 49.7117 39.5567Z" fill="#309E3A"/>
<path d="M50.0033 39.7433C49.8866 39.895 49.8516 40.035 49.875 40.1633C49.8835 40.2224 49.9046 40.279 49.9368 40.3293C49.969 40.3796 50.0116 40.4225 50.0616 40.455C50.1783 40.5367 50.295 40.56 50.4116 40.525C50.5283 40.49 50.645 40.4083 50.75 40.245C50.855 40.0817 50.9016 39.9417 50.8783 39.825C50.8666 39.7083 50.7966 39.6033 50.6916 39.5217C50.5866 39.44 50.4583 39.4283 50.3416 39.4633C50.225 39.4867 50.1083 39.58 49.9916 39.7433H50.0033Z" fill="white"/>
<path d="M35.2101 33.2333L35.4784 32.09L36.3184 32.2883L36.2834 32.475L35.6651 32.335L35.6067 32.5917L36.1784 32.72L36.1317 32.9183L35.5601 32.7783L35.4901 33.0933L36.1317 33.245L36.0851 33.4317L35.2101 33.2333Z" fill="#309E3A"/>
</g>
<defs>
<clipPath id="clip0_1_9761">
<rect width="74.6667" height="56" fill="white" transform="translate(0 9.375)"/>
</clipPath>
</defs>
</svg>
