<svg width="75" height="75" viewBox="0 0 75 75" fill="none" xmlns="http://www.w3.org/2000/svg">
<rect width="74.6667" height="74.75" fill="white"/>
<g clip-path="url(#clip0_1_10519)">
<path d="M0.0115967 9.375H74.6899V65.375H0.0115967V9.375Z" fill="#FFD520"/>
<path d="M0.0115967 65.375H74.6899V9.375L0.0115967 65.375Z" fill="#FF4E12"/>
<path d="M40.2964 26.875C39.8297 26.7233 39.5264 26.9567 39.5497 27.5633C39.5497 28.1583 39.8764 28.4967 40.3431 28.275L40.2964 26.875Z" fill="white" stroke="black" stroke-width="0.0466667"/>
<path d="M40.7047 25.755C40.3197 25.4517 39.958 25.58 39.7714 26.1517C39.5964 26.735 39.783 27.155 40.2964 27.085L40.7047 25.755Z" fill="white" stroke="black" stroke-width="0.0466667"/>
<path d="M41.3463 24.6583C41.0197 24.3083 40.6463 24.3783 40.3663 24.915C40.098 25.4517 40.2147 25.9067 40.7397 25.93L41.3463 24.67V24.6583ZM40.9263 29.9667C40.3547 30.1767 40.2963 30.9583 40.658 31.4367C41.008 31.915 41.673 32.0083 42.0347 31.4367L40.9263 29.9667Z" fill="white" stroke="black" stroke-width="0.0466667"/>
<path d="M40.2614 28.31C39.7247 28.135 39.2347 28.8583 39.153 29.5117C39.048 30.3283 37.8697 30.6083 38.523 31.8567C38.663 31.0633 39.188 30.62 39.608 30.5967C40.028 30.5617 40.658 30.48 40.9264 29.9667L40.2614 28.31ZM41.9764 31.53C41.3464 31.6817 41.253 32.5217 41.708 33.1167C42.093 33.63 43.3064 33.5133 43.2714 33L41.988 31.53H41.9764ZM43.7614 36.5933C43.7964 36.045 42.9214 35.835 42.5014 35.94C42.0814 36.0567 41.2764 35.9283 41.1014 35.4733C40.938 35.835 41.1597 36.2317 41.7664 36.43C42.233 36.57 42.2214 36.8967 42.0814 37.06C42.4314 37.1183 43.4464 37.1183 43.7614 36.5933Z" fill="white" stroke="black" stroke-width="0.0466667"/>
<path d="M43.2714 33.14C42.653 32.86 42.2914 33.28 42.058 33.6767C41.708 34.26 40.6464 33.5133 40.2847 34.295C40.7747 34.085 41.2647 34.5283 41.498 34.68C42.163 35.1117 43.4347 34.9833 43.6214 33.9567L43.2714 33.14Z" fill="white" stroke="black" stroke-width="0.0466667"/>
<path d="M43.633 33.8517C43.0147 34.3183 42.7697 34.8783 42.793 35.2517C42.8047 35.625 43.3297 36.4533 43.9014 36.5C44.228 35.8233 44.403 34.4 43.633 33.8517ZM41.0664 36.7567C41.0664 36.5233 41.393 36.4417 41.6264 36.5233C41.848 36.5933 42.198 36.815 42.0697 37.06L41.0664 36.7567ZM37.683 35.5083C37.6247 35.24 38.0564 34.7733 38.6397 35.03C39.223 35.2867 39.3047 35.7767 39.0597 35.975L37.683 35.5083Z" fill="white" stroke="black" stroke-width="0.0466667"/>
<path d="M39.1064 36.0217C39.0597 35.87 39.4914 35.5667 40.2031 35.7417C40.9264 35.9283 41.1014 36.395 41.0781 36.7567L39.1064 36.0217ZM37.6014 35.52C37.9864 35.24 37.8347 34.7033 37.4964 34.5283C36.8897 34.225 37.1114 33.455 36.7147 33.3033C36.3297 33.1517 35.9564 32.8833 35.9331 32.6033C35.7464 32.9883 35.8631 33.3267 36.1314 33.5717C36.3997 33.805 35.9214 34.785 36.2714 35.0417L37.6014 35.52ZM29.5514 35.31C29.2364 34.82 28.4897 34.9017 28.1747 35.2517C27.8597 35.6017 27.9064 36.1033 28.1981 36.3367L29.5514 35.31ZM31.3597 34.575C31.2431 33.91 30.4381 33.84 30.0064 34.0033C29.5631 34.1667 29.2714 34.8317 29.5514 35.31L31.3597 34.575Z" fill="white" stroke="black" stroke-width="0.0466667"/>
<path d="M32.5497 34.4817C32.8414 33.9333 32.2814 33.105 31.6514 32.9883C31.1264 32.8717 30.5081 32.8833 30.2981 32.37C30.1814 32.8133 30.5081 33.105 30.9047 33.3617C31.2897 33.6183 30.8347 34.2717 31.4647 34.645L32.5614 34.4817H32.5497Z" fill="white" stroke="black" stroke-width="0.0466667"/>
<path d="M32.503 34.505C32.363 34.1083 32.6313 33.5717 33.168 33.6183C33.7163 33.6533 34.0197 34.0383 33.7863 34.54L32.503 34.505Z" fill="white" stroke="black" stroke-width="0.0466667"/>
<path d="M33.7047 34.54C33.623 34.12 33.9614 33.63 34.498 33.7467C35.023 33.8633 35.268 34.295 34.9647 34.7383L33.7047 34.5283V34.54Z" fill="white" stroke="black" stroke-width="0.0466667"/>
<path d="M34.883 34.7267C34.8364 34.3067 35.198 33.84 35.723 33.98C36.248 34.12 36.4697 34.5633 36.143 34.995L34.8947 34.7267H34.883ZM25.8297 41.61C24.8147 41.61 24.5697 41.8433 24.4297 42.8933C24.243 44.1767 26.0047 44.3283 25.8297 41.61Z" fill="white" stroke="black" stroke-width="0.0466667"/>
<path d="M26.273 40.2567C24.733 39.6733 23.893 42.1233 22.353 41.68C22.9014 42.555 24.2314 41.68 24.733 41.7733C25.573 41.925 27.393 41.61 26.273 40.2567ZM25.2697 43.605C24.4997 43.255 23.683 44.4217 23.823 44.9467C24.0214 45.5883 25.7714 45.0633 25.2697 43.605ZM21.6997 48.6567C22.1197 48.7733 22.633 49.0067 22.5397 49.8233C22.4464 50.64 20.9064 52.285 19.5297 52.39C18.153 52.4717 17.663 54.14 16.4614 53.6733C17.5814 53.4633 17.5814 52.2033 18.4447 51.8067C17.8147 51.5733 17.488 53.0083 16.6714 53.0083C15.8547 53.0083 15.4697 54.3033 14.478 54.21C13.4864 54.1283 13.393 55.785 11.398 55.8083C9.88137 55.82 8.0147 57.5933 7.32637 56.8233C8.80804 56.6133 9.40303 55.7967 10.278 54.8983C11.678 53.4633 13.2764 54.105 13.8247 52.8333C13.1949 53.2583 12.4493 53.4783 11.6897 53.4633C10.7564 53.44 9.75303 54.9333 8.7147 54.28C9.3097 54.1983 9.70637 53.9417 10.3364 53.2767C10.978 52.6 11.9347 53.0433 12.6814 52.3433C13.848 51.27 14.863 52.1683 15.983 50.8267C15.668 50.6633 14.9914 50.7683 14.3614 51.1067C13.7314 51.4333 12.9264 50.8733 12.203 51.27C12.2847 50.3833 13.9764 50.885 15.0264 50.2783C16.2164 49.5783 17.1964 49.7883 18.1297 49.87C16.823 49.87 16.3214 48.6217 14.513 48.9833C13.7314 49.1467 13.1014 47.8983 12.3197 48.5283C12.343 48.0617 13.1597 47.6883 13.9997 48.1433C14.8397 48.5983 15.178 47.7467 16.858 48.8083C17.558 49.24 18.7364 48.5283 19.483 48.995C19.3897 48.715 18.958 48.5283 18.4564 48.575C18.7714 47.9217 20.813 48.0033 21.6997 48.6567Z" fill="white" stroke="black" stroke-width="0.0466667"/>
<path d="M23.0297 47.6767C22.3764 47.1633 21.4547 47.7817 20.813 47.5367C20.813 47.9567 21.0347 48.5867 21.723 48.8317C21.933 48.68 22.8897 47.8517 23.0297 47.6767Z" fill="white" stroke="black" stroke-width="0.0466667"/>
<path d="M24.068 46.2183C23.0297 45.6933 22.8547 47 22.038 46.7317C22.073 47.105 22.3764 47.5717 23.0297 47.6767L24.0797 46.2183H24.068Z" fill="white" stroke="black" stroke-width="0.0466667"/>
<path d="M24.6863 45.0283C23.158 44.4333 22.9597 45.9033 22.0613 45.6117C22.2713 46.125 23.5547 46.405 24.2197 46.2183L24.6863 45.0283ZM26.7863 38.5883C26.378 38.005 25.5263 38.4717 25.3863 39.16C25.258 39.8367 25.5847 40.7817 26.1563 40.56L26.7863 38.5767V38.5883Z" fill="white" stroke="black" stroke-width="0.0466667"/>
<path d="M27.8247 36.7917C27.1247 36.6167 26.308 36.6983 26.4013 37.375C26.1213 37.5033 26.0513 38.39 26.7863 38.5883L27.8247 36.78V36.7917Z" fill="white" stroke="black" stroke-width="0.0466667"/>
<path d="M28.2913 36.325C27.5913 35.5083 26.833 35.52 26.4013 35.8583C25.5963 36.5 24.8263 36.1383 24.803 36.7683C25.2813 36.395 25.713 36.8383 26.0863 36.71C26.483 36.57 26.7747 37.3283 27.8597 37.0133L28.2913 36.3133V36.325ZM26.623 48.4467C26.728 48.645 27.3697 48.7267 27.6847 48.4C28.1047 47.9567 27.6497 46.7433 26.9847 46.65C26.3197 46.5683 26.2613 48.0267 26.623 48.4467Z" fill="white" stroke="black" stroke-width="0.0466667"/>
<path d="M25.8764 48.47C26.8097 48.82 27.218 48.0383 26.7164 47.5367C26.4576 47.8663 26.177 48.1781 25.8764 48.47Z" fill="white" stroke="black" stroke-width="0.0466667"/>
<path d="M22.3297 49.765C22.1431 50.3133 21.2097 50.395 20.1597 52.075C19.1097 53.7666 18.1064 53.055 17.8497 54.21C19.1097 53.195 20.1014 53.86 20.8597 52.8567C21.9914 51.3283 22.9364 51.55 23.3797 50.5233C24.0097 49.0417 26.7631 49.0766 26.9264 46.755C25.9931 46.58 23.0414 49.0767 22.3297 49.765ZM46.0364 27.05C47.2381 27.4467 47.2614 28.9983 48.6497 29.5117C50.0264 30.025 50.1664 31.2617 51.2981 30.9583C50.2481 30.6667 50.3181 29.4533 49.2214 29.15C47.9381 28.8 47.4481 26.84 46.4214 26.5367M51.5547 35.205C51.7647 35.695 51.7297 36.5467 50.9714 36.7683C51.3797 37.025 51.9864 36.7916 52.3131 36.2317C51.8231 37.3283 52.1497 38.32 52.9314 38.5183C52.5581 37.7483 53.3981 37.3867 53.1297 36.885C53.6197 37.1067 54.0631 37.7833 54.0397 38.2033C54.6931 37.48 53.5731 36.5117 53.7714 35.835L51.5547 35.205ZM43.7497 42.9283C43.0147 42.2867 42.6997 43.1033 42.3497 42.8117C41.9997 42.555 41.5564 42.52 41.3814 42.7766C42.0114 42.8 41.7081 43.29 42.9331 43.4067C41.7081 43.4883 41.9297 44.865 41.1131 44.795C41.9764 45.6117 42.4314 44.06 43.1431 44.3167C42.9331 44.375 43.4697 44.865 43.0964 45.53C43.7031 45.5183 43.9481 44.6783 44.0297 44.2466L43.7497 42.9283ZM27.5331 49.9516C27.2764 49.7183 26.4831 49.6133 26.1914 49.8C25.8881 49.975 25.9931 50.0333 26.3547 50.0567C26.7164 50.08 27.1714 50.6633 26.4014 50.6983C26.0397 50.71 26.1681 51.585 25.4097 51.6433C25.7131 52.0166 26.5997 51.7716 26.9147 51.3633C26.8564 51.7016 27.2997 52.005 27.1247 52.4133C27.6731 52.4716 27.3581 51.2817 28.2331 51.34C27.8831 51.3867 28.0231 52.2033 28.6531 51.9933C28.2797 52.1683 28.4781 52.6117 28.8864 52.5067C28.6297 52.5883 28.5364 52.9383 28.9097 53.1367C29.2714 52.635 28.8631 50.8616 27.5447 49.9516H27.5331ZM60.2697 33.3733C60.5563 33.3948 60.8442 33.3569 61.1155 33.2619C61.3868 33.167 61.6355 33.0171 61.8462 32.8216C62.0568 32.6262 62.2249 32.3893 62.3398 32.1259C62.4547 31.8625 62.514 31.5782 62.514 31.2908C62.514 31.0034 62.4547 30.7191 62.3398 30.4557C62.2249 30.1923 62.0568 29.9555 61.8462 29.76C61.6355 29.5645 61.3868 29.4146 61.1155 29.3197C60.8442 29.2248 60.5563 29.1869 60.2697 29.2083C59.7443 29.2477 59.2532 29.4842 58.8949 29.8704C58.5365 30.2566 58.3374 30.764 58.3374 31.2908C58.3374 31.8177 58.5365 32.3251 58.8949 32.7113C59.2532 33.0975 59.7443 33.334 60.2697 33.3733Z" fill="white"/>
<path d="M46.0364 27.05C47.2381 27.4467 47.2614 28.9983 48.6497 29.5117C50.0264 30.025 50.1664 31.2617 51.2981 30.9583C50.2481 30.6667 50.3181 29.4533 49.2214 29.15C47.9381 28.8 47.4481 26.84 46.4214 26.5367M22.3297 49.765C22.1431 50.3133 21.2097 50.395 20.1597 52.075C19.1097 53.7666 18.1064 53.055 17.8497 54.21C19.1097 53.195 20.1014 53.86 20.8597 52.8567C21.9914 51.3283 22.9364 51.55 23.3797 50.5233C24.0097 49.0417 26.7631 49.0766 26.9264 46.755C25.9931 46.58 23.0414 49.0767 22.3297 49.765ZM51.5547 35.205C51.7647 35.695 51.7297 36.5467 50.9714 36.7683C51.3797 37.025 51.9864 36.7916 52.3131 36.2316C51.8231 37.3283 52.1497 38.32 52.9314 38.5183C52.5581 37.7483 53.3981 37.3867 53.1297 36.885C53.6197 37.1067 54.0631 37.7833 54.0397 38.2033C54.6931 37.48 53.5731 36.5117 53.7714 35.835L51.5547 35.205ZM43.7497 42.9283C43.0147 42.2867 42.6997 43.1033 42.3497 42.8117C41.9997 42.555 41.5564 42.52 41.3814 42.7766C42.0114 42.8 41.7081 43.29 42.9331 43.4067C41.7081 43.4883 41.9297 44.865 41.1131 44.795C41.9764 45.6117 42.4314 44.06 43.1431 44.3166C42.9331 44.375 43.4697 44.865 43.0964 45.53C43.7031 45.5183 43.9481 44.6783 44.0297 44.2466L43.7497 42.9283V42.9283ZM27.5331 49.9516C27.2764 49.7183 26.4831 49.6133 26.1914 49.8C25.8881 49.975 25.9931 50.0333 26.3547 50.0567C26.7164 50.08 27.1714 50.6633 26.4014 50.6983C26.0397 50.71 26.1681 51.585 25.4097 51.6433C25.7131 52.0166 26.5997 51.7716 26.9147 51.3633C26.8564 51.7016 27.2997 52.005 27.1247 52.4133C27.6731 52.4716 27.3581 51.2817 28.2331 51.34C27.8831 51.3867 28.0231 52.2033 28.6531 51.9933C28.2797 52.1683 28.4781 52.6117 28.8864 52.5067C28.6297 52.5883 28.5364 52.9383 28.9097 53.1367C29.2714 52.635 28.8631 50.8616 27.5447 49.9516H27.5331ZM60.2697 33.3733C60.5563 33.3948 60.8442 33.3569 61.1155 33.2619C61.3868 33.167 61.6355 33.0171 61.8462 32.8216C62.0568 32.6262 62.2249 32.3893 62.3398 32.1259C62.4547 31.8625 62.514 31.5782 62.514 31.2908C62.514 31.0034 62.4547 30.7191 62.3398 30.4557C62.2249 30.1923 62.0568 29.9555 61.8462 29.76C61.6355 29.5645 61.3868 29.4146 61.1155 29.3197C60.8442 29.2248 60.5563 29.1869 60.2697 29.2083C59.7443 29.2477 59.2532 29.4842 58.8949 29.8704C58.5365 30.2566 58.3374 30.764 58.3374 31.2908C58.3374 31.8177 58.5365 32.3251 58.8949 32.7113C59.2532 33.0975 59.7443 33.334 60.2697 33.3733V33.3733Z" stroke="black" stroke-width="0.0466667"/>
<path d="M49.3964 35.8817C50.038 35.2867 50.9947 34.9833 51.6597 35.4383C52.313 35.8817 54.5064 36.4183 55.5914 35.6717C56.6764 34.925 57.1897 34.5283 57.668 34.6217C58.018 35.1583 58.4614 35.415 58.998 35.4617C59.1614 35.6483 59.7564 35.7883 60.083 35.7533C60.5614 35.87 61.1447 35.7183 61.6114 35.205C62.3347 35.3217 63.0114 34.7733 63.268 33.9567C64.038 33.875 64.0847 33.0233 63.5947 32.44C63.1514 32.3583 63.4897 30.83 61.8564 31.1333C62.5564 31.5533 62.0197 32.3933 62.5914 32.79C62.2064 32.79 61.693 32.9533 61.5764 33.5367C61.728 33.14 61.553 32.86 61.4597 32.7783C61.4597 32.4283 60.7014 31.5767 59.978 31.8917C60.4914 32.0083 60.2114 32.825 60.5847 33.1517C60.443 33.1574 60.3044 33.195 60.1791 33.2617C60.0539 33.3283 59.9453 33.4223 59.8614 33.5367C59.663 33.1867 58.9747 32.8367 58.5547 32.8017C58.5547 32.685 58.5314 32.4517 58.473 32.3233C58.2864 31.9617 58.123 31.53 58.2047 30.9817C57.8635 31.3833 57.5807 31.831 57.3647 32.3117C56.793 31.915 55.3814 32.4867 54.7164 32.6383C54.063 32.79 51.8347 32.4283 51.333 31.8917C50.6191 31.3209 49.7791 30.9289 48.883 30.7483C47.5997 30.375 47.5997 28.975 46.188 28.0067C46.153 29.7567 48.8014 35.2867 49.3964 35.8817ZM34.673 49.17C35.2083 49.17 35.7217 48.9573 36.1002 48.5788C36.4787 48.2003 36.6914 47.6869 36.6914 47.1517C36.6914 46.6164 36.4787 46.103 36.1002 45.7245C35.7217 45.346 35.2083 45.1333 34.673 45.1333C34.1378 45.1333 33.6244 45.346 33.2459 45.7245C32.8674 46.103 32.6547 46.6164 32.6547 47.1517C32.6547 47.6869 32.8674 48.2003 33.2459 48.5788C33.6244 48.9573 34.1378 49.17 34.673 49.17Z" fill="white" stroke="black" stroke-width="0.0466667"/>
<path d="M29.8664 47.6183C30.2747 48.1433 30.963 48.1083 31.2547 48.0733C31.488 48.7033 32.258 48.68 32.5847 49.03C32.923 49.38 34.043 49.345 34.3697 49.1467C34.078 49.1233 33.6814 48.9367 33.3197 48.6217C32.853 48.2483 33.063 47.4783 32.713 47.2217C32.8232 47.0814 32.9029 46.9198 32.9471 46.7471C32.9913 46.5743 32.999 46.3942 32.9697 46.2183C33.2497 46.055 33.4597 45.7867 33.483 45.6467C33.9016 45.6265 34.299 45.4567 34.603 45.1683C34.8597 45.4017 35.5014 45.0983 35.8514 45.495C35.9214 44.5033 34.9764 43.9783 34.3347 44.3167C34.0897 44.1767 33.413 44.27 33.2847 44.445C33.0864 44.3517 32.4914 44.655 32.2347 44.8533C32.5264 44.69 32.573 44.1883 32.4564 44.0133C32.713 43.8967 32.993 43.5583 33.028 43.3133C33.378 43.3717 33.9264 43.1267 34.1597 43.185C33.7747 42.6717 33.133 42.485 32.468 42.5433C31.7797 42.5783 31.488 43.0567 31.3947 43.57C30.998 43.815 30.858 44.62 31.0097 44.9117C30.7764 44.9117 30.5547 45.1333 30.473 45.2617C30.1246 45.1182 29.753 45.0392 29.3764 45.0283M29.528 44.2117C29.388 43.815 29.563 43.465 29.6564 43.1617C29.8897 42.3683 29.7497 42.1583 29.038 42.2633C29.08 42.9374 29.2461 43.598 29.528 44.2117Z" fill="white"/>
<path d="M29.8664 47.6183C30.2747 48.1433 30.963 48.1083 31.2547 48.0733C31.488 48.7033 32.258 48.68 32.5847 49.03C32.923 49.38 34.043 49.345 34.3697 49.1467C34.078 49.1233 33.6814 48.9367 33.3197 48.6217C32.853 48.2483 33.063 47.4783 32.713 47.2217C32.8232 47.0814 32.9029 46.9198 32.9471 46.7471C32.9913 46.5743 32.999 46.3942 32.9697 46.2183C33.2497 46.055 33.4597 45.7867 33.483 45.6467C33.9016 45.6265 34.299 45.4567 34.603 45.1683C34.8597 45.4017 35.5014 45.0983 35.8514 45.495C35.9214 44.5033 34.9764 43.9783 34.3347 44.3167C34.0897 44.1767 33.413 44.27 33.2847 44.445C33.0864 44.3517 32.4914 44.655 32.2347 44.8533C32.5264 44.69 32.573 44.1883 32.4564 44.0133C32.713 43.8967 32.993 43.5583 33.028 43.3133C33.378 43.3717 33.9264 43.1267 34.1597 43.185C33.7747 42.6717 33.133 42.485 32.468 42.5433C31.7797 42.5783 31.488 43.0567 31.3947 43.57C30.998 43.815 30.858 44.62 31.0097 44.9117C30.7764 44.9117 30.5547 45.1333 30.473 45.2617C30.1246 45.1182 29.753 45.0392 29.3764 45.0283M29.528 44.2117C29.388 43.815 29.563 43.465 29.6564 43.1617C29.8897 42.3683 29.7497 42.1583 29.038 42.2633C29.08 42.9374 29.2461 43.598 29.528 44.2117V44.2117Z" stroke="black" stroke-width="0.0466667"/>
<path d="M29.003 42.31C29.1897 42.4967 29.8197 42.5783 29.8897 42.0067C29.9713 41.3533 29.703 41.0967 29.1313 41.3533C29.0847 41.505 29.038 42.1117 29.0147 42.31H29.003Z" fill="white" stroke="black" stroke-width="0.0466667"/>
<path d="M29.143 41.33C29.3764 41.4233 29.9014 41.6217 30.193 41.0617C30.4264 40.595 30.1114 40.245 29.6097 40.2683C29.493 40.4083 29.2597 40.8867 29.143 41.33Z" fill="white" stroke="black" stroke-width="0.0466667"/>
<path d="M29.5863 40.2217C29.6447 40.4083 30.263 41.0033 30.7063 40.5717C31.1613 40.14 31.1613 39.4867 30.4847 39.2533C30.3097 39.2767 29.7613 39.9067 29.5863 40.2217Z" fill="white" stroke="black" stroke-width="0.0466667"/>
<path d="M30.4847 39.2417C30.613 39.6267 31.0447 40.2683 31.8264 39.9767C32.608 39.6733 32.2697 38.6933 31.908 38.495C31.3854 38.6445 30.9003 38.9029 30.4847 39.2533V39.2417Z" fill="white" stroke="black" stroke-width="0.0466667"/>
<path d="M31.908 38.495C31.8497 38.8333 31.9081 39.7316 32.9814 39.72C34.0431 39.6966 33.7514 38.4483 33.4714 38.2733C33.0397 38.2733 32.3047 38.285 31.908 38.5066V38.495Z" fill="white" stroke="black" stroke-width="0.0466667"/>
<path d="M33.518 38.3083C33.4013 38.5767 33.133 40.2567 35.2213 39.79C35.4897 39.7317 36.1897 38.18 33.518 38.32V38.3083Z" fill="white" stroke="black" stroke-width="0.0466667"/>
<path d="M34.6614 38.4717C34.4514 38.6817 34.9881 40.3733 36.4114 40.0933C37.8114 39.8017 36.6331 38.1917 34.6614 38.46V38.4717Z" fill="white" stroke="black" stroke-width="0.0466667"/>
<path d="M35.8631 38.7283C35.6297 39.195 35.9797 40.5717 37.7181 40.5717C39.2931 40.5717 37.6364 38.7517 35.8631 38.7283Z" fill="white" stroke="black" stroke-width="0.0466667"/>
<path d="M37.228 39.125C37.1114 39.3933 36.983 40.8517 39.0364 40.98C40.518 41.0733 40.1564 38.9617 37.228 39.125Z" fill="white" stroke="black" stroke-width="0.0466667"/>
<path d="M39.433 39.7433C39.188 40.1983 38.9197 41.3183 41.1714 41.4117C42.6064 41.47 41.7197 39.7783 39.4447 39.7433H39.433Z" fill="white" stroke="black" stroke-width="0.0466667"/>
<path d="M41.3114 40.0933C40.9847 40.5367 41.2297 41.4233 42.0697 41.5867C43.1197 41.7967 43.2714 40.805 42.548 40.3267C41.8247 39.86 41.3114 40.0933 41.3114 40.0933Z" fill="white" stroke="black" stroke-width="0.0466667"/>
<path d="M42.3497 40.2917C42.1047 40.7233 42.2447 41.7383 43.843 41.7383C44.1697 41.7383 45.4297 40.455 42.338 40.3033L42.3497 40.2917ZM29.9947 59.8917C30.6135 59.8917 31.207 59.6458 31.6446 59.2082C32.0822 58.7707 32.328 58.1772 32.328 57.5583C32.328 56.9395 32.0822 56.346 31.6446 55.9084C31.207 55.4708 30.6135 55.225 29.9947 55.225C29.3758 55.225 28.7823 55.4708 28.3448 55.9084C27.9072 56.346 27.6613 56.9395 27.6613 57.5583C27.6613 58.1772 27.9072 58.7707 28.3448 59.2082C28.7823 59.6458 29.3758 59.8917 29.9947 59.8917Z" fill="white" stroke="black" stroke-width="0.0466667"/>
<path d="M47.1447 25.9067C46.8928 26.1874 46.6808 26.5014 46.5147 26.84C45.733 29.1733 47.8213 30.9233 49.0347 33.455C49.5339 34.5942 49.7358 35.8415 49.6215 37.0801C49.5073 38.3187 49.0806 39.508 48.3813 40.5367C47.868 41.2133 48.0197 41.4117 47.3547 42.1C47.098 42.3683 46.818 42.7067 46.9113 43.6633C47.3313 43.5117 47.9263 43.8967 48.043 44.2467C48.3463 44.0833 48.7663 44.1417 48.918 44.3283C49.4313 44.095 49.8514 44.2117 50.3063 44.6783C50.6913 44.6317 51.123 44.6783 51.508 45.11C51.718 44.69 52.138 44.5267 52.4413 44.6317C52.4063 44.0833 52.943 43.6983 53.4213 43.9083C53.3839 43.7543 53.3885 43.5931 53.4346 43.4414C53.4806 43.2898 53.5665 43.1532 53.6832 43.046C53.8 42.9388 53.9433 42.8648 54.0983 42.8318C54.2534 42.7988 54.4144 42.808 54.5647 42.8583C55.113 42.4383 56.198 42.4033 56.7347 43.0333C55.7663 42.765 55.8013 43.7917 54.9847 43.6983C55.1947 44.2933 54.658 44.6433 54.1213 44.8417C54.4713 44.6783 54.8447 44.48 54.9613 44.69C55.2647 44.4217 55.8597 44.5267 56.0113 44.655C56.408 44.5383 56.793 44.6317 56.968 45.11C57.5163 45.4367 57.878 46.2767 57.4813 46.9067C57.3647 46.2533 56.9097 46.2767 56.7347 46.0083C56.3147 46.16 55.8947 46.16 55.7663 45.8917C55.533 46.125 54.7163 46.3467 54.3663 45.985C54.2263 46.5217 53.7597 46.9767 53.2113 46.9767C53.363 47.3967 52.943 48.1083 52.6163 48.47C53.1297 48.7383 52.9663 49.345 52.8497 49.7067C53.643 49.8233 52.9663 50.5233 54.3314 50.9667C53.6663 51.1767 52.3713 50.9667 52.1963 50.15C51.5313 50.1267 51.088 49.4617 51.1113 48.7733C50.598 48.295 50.528 47.6067 51.228 47.1167C50.633 47.3033 50.2947 46.335 49.4313 46.7317C48.9997 46.93 47.8563 46.5917 47.868 46.195C47.693 46.4867 46.5847 46.37 46.4447 45.8567C46.083 46.055 45.243 45.7283 45.2547 45.2267C44.788 45.4367 44.158 45.0633 44.193 44.585C43.7497 44.5267 43.703 44.13 43.7263 43.8033C43.3413 43.6167 43.4463 43.2433 43.6097 42.8C43.3297 42.4967 43.4464 42.0767 43.6564 41.68C43.3647 41.3767 43.423 41.0267 43.5047 40.595C42.0697 40.4783 40.2614 40.1283 36.1197 38.8567C29.8664 36.9317 28.1863 41.4467 29.563 44.27C31.1613 47.5367 29.388 48.2367 29.9247 50.6633C30.508 50.78 30.7997 51.27 30.7647 51.7833C31.1147 51.795 31.348 52.11 31.2313 52.7167C31.3898 52.6906 31.5522 52.7012 31.7059 52.7478C31.8596 52.7943 32.0006 52.8754 32.118 52.985C32.328 52.5883 33.028 52.495 33.378 52.95C34.1597 52.8917 34.5563 53.5333 34.5213 54.3033C34.7097 54.6563 34.7933 55.0558 34.7623 55.4547C34.7313 55.8536 34.587 56.2353 34.3463 56.555C34.393 56.24 34.3463 55.7967 34.3347 55.5167C34.2997 55.0267 33.6114 54.9217 33.6814 54.5133C33.3314 54.5483 32.9813 54.35 32.8647 54.0817C32.7605 54.1715 32.6347 54.2328 32.4998 54.2594C32.3648 54.286 32.2252 54.277 32.0947 54.2333C32.4914 54.4083 32.818 55.1317 32.6897 55.61C32.8997 55.9717 32.853 56.6367 32.608 56.9167C32.4914 57.5 32.0247 57.71 31.4413 57.4533C31.7797 57.2433 31.8963 56.87 31.8847 56.555C31.6878 56.3582 31.5678 56.0975 31.5463 55.82C30.963 55.9133 30.1464 55.4117 30.0064 55.2133C29.6989 55.2133 29.3946 55.2741 29.1107 55.3921C28.8269 55.51 28.5691 55.683 28.3523 55.9009C28.1355 56.1188 27.9638 56.3774 27.8473 56.6618C27.7307 56.9463 27.6715 57.2509 27.673 57.5583C27.603 57.08 26.9963 56.6017 27.078 56.1933C26.7163 55.085 27.2297 54.0467 28.6997 53.8367C28.513 53.4167 29.143 52.985 28.9097 52.5067C28.4411 51.6546 27.8647 50.8664 27.1947 50.1617C27.708 49.2867 27.5447 48.12 27.253 47.3967C26.8213 46.3583 26.413 46.615 24.8847 48.295C22.388 51.0367 19.0513 50.2783 16.1113 52.0867C15.3297 52.5533 14.548 52.74 15.388 51.9C16.228 51.06 18.4447 50.22 19.8913 49.4967C22.598 48.1433 24.8847 45.8917 25.783 41.505C27.8947 31.1917 35.6997 34.5983 40.623 36.5117C45.2547 38.32 44.4147 34.2367 42.0697 31.7633C39.2463 28.8117 39.818 26.4783 41.1364 24.6117C43.5047 24.285 48.0663 25.1133 47.1447 25.9067Z" fill="white" stroke="black" stroke-width="0.0466667"/>
<path d="M55.5214 51.235C55.8592 51.235 56.1937 51.1685 56.5058 51.0392C56.8179 50.9099 57.1015 50.7204 57.3404 50.4815C57.5793 50.2426 57.7688 49.9591 57.8981 49.6469C58.0273 49.3348 58.0939 49.0003 58.0939 48.6625C58.0939 48.3247 58.0273 47.9902 57.8981 47.678C57.7688 47.3659 57.5793 47.0823 57.3404 46.8435C57.1015 46.6046 56.8179 46.4151 56.5058 46.2858C56.1937 46.1565 55.8592 46.09 55.5214 46.09C54.8407 46.09 54.1878 46.3604 53.7065 46.8418C53.2251 47.3231 52.9547 47.9759 52.9547 48.6567C52.9547 49.3374 53.2251 49.9902 53.7065 50.4716C54.1878 50.9529 54.8407 51.2233 55.5214 51.2233V51.235Z" fill="white" stroke="black" stroke-width="0.0466667"/>
<path d="M45.7098 26.0233C45.1265 28.555 45.6165 29.6983 46.4565 30.8067C48.1949 33.105 49.5832 38.3433 47.5998 41.7733" stroke="black" stroke-width="0.0466667"/>
<path d="M48.7082 38.81C48.9416 38.7284 49.4082 38.4367 49.5016 37.9467M48.8949 37.7134C48.9649 37.2817 49.6416 37.095 49.6532 36.6284M48.9066 36.0217C48.8599 35.5667 49.5832 35.1584 49.4782 34.715M48.5099 34.4C48.4516 34.1434 49.1166 33.665 48.9299 33.2567M48.0199 32.8134C47.8799 32.5334 48.3349 32.2067 48.1366 31.9034M47.2966 31.5534C47.2499 31.3667 47.5299 30.935 47.3782 30.6784M46.5732 30.0717C46.6316 29.99 46.8766 29.815 46.7832 29.5934M46.0832 28.975C46.1766 28.9284 46.4682 28.835 46.4332 28.625" stroke="black" stroke-width="0.0466667" stroke-linecap="round"/>
<path d="M31.0333 57.3134C30.4499 57.1034 29.6916 57.395 29.5399 57.9084M29.9949 58.375C30.0649 57.8617 30.8466 57.64 31.0799 57.8734C30.5899 57.605 30.3449 58.5734 30.7883 58.5967M34.8249 46.4867C34.4749 46.6734 34.3583 47.3267 34.8249 47.8284M35.3616 46.6384C35.1166 46.8484 35.1283 47.4784 35.5016 47.63C35.1866 47.3967 35.5016 47.0117 35.7349 47C35.9566 46.9884 36.1083 47.2567 35.8283 47.525M56.4783 48.1317C55.6383 47.8984 54.9616 48.8784 55.7316 49.7534C55.7083 48.9134 56.3149 48.3534 57.0499 48.505M56.6999 49.0884C56.6164 49.0884 56.5363 49.1216 56.4772 49.1806C56.4181 49.2397 56.3849 49.3198 56.3849 49.4034C56.3849 49.5667 56.5249 49.73 56.7583 49.73C56.9099 49.73 57.0383 49.555 57.0383 49.415M59.6749 30.6317C59.8149 31.145 60.5149 31.3667 61.0749 31.2384M61.0749 30.9117C60.6433 30.9234 60.2816 30.515 60.3049 30.1767C60.3049 30.4334 60.8883 30.55 61.0749 30.3867" stroke="black" stroke-width="0.0466667" stroke-linecap="round" stroke-linejoin="round"/>
<path d="M31.2549 48.0734C31.1382 47.77 31.6049 47.4667 31.6282 47.1867C31.6399 46.895 32.1649 46.6734 32.7132 47.21M32.4566 44.0134L32.1649 44.1534M33.4949 45.6467C33.3666 45.6467 33.0982 45.6467 32.9582 45.5417M32.9582 46.2184C32.8649 46.2767 32.6316 46.3584 32.4916 46.3934M27.8132 55.295C27.7899 55.5634 28.0699 55.96 28.2099 56.0767M28.9799 54.6534C28.8972 54.7838 28.8412 54.9293 28.8152 55.0815C28.7892 55.2337 28.7936 55.3896 28.8282 55.54M31.2199 55.54C30.9516 55.365 31.1266 54.91 31.1032 54.6067C31.0682 54.3034 31.4182 53.825 32.0949 54.2334M28.6999 53.825C28.9682 53.7784 29.2482 53.79 29.4349 53.8717M32.1182 52.9734C32.0243 53.1122 31.9681 53.273 31.9549 53.44M33.3899 52.9384C33.1799 52.9384 32.9932 53.09 32.8999 53.2417M30.4732 45.25C30.7066 45.3317 31.3366 45.7167 31.3599 46.1134M33.0282 43.29C32.2932 43.2784 32.0016 42.5317 32.5616 42.5317M34.3466 44.305C34.0666 44.4217 34.1949 44.9117 34.6032 45.1567M32.5849 49.0184C32.4449 48.8317 32.6316 48.3184 33.0982 48.47M33.6816 54.5017C33.7166 54.035 34.2882 53.7784 34.5216 54.2917M31.5466 55.8084C31.5116 55.3067 31.7799 55.1434 31.9899 55.1084C32.2232 55.085 32.5382 55.2717 32.6899 55.5984M27.0782 56.1817C27.1016 55.8784 27.3582 55.5634 27.6266 55.61M54.5766 42.8467C54.3782 42.9867 54.2499 43.6284 54.9849 43.6867M53.4332 43.9084C53.4332 43.9784 53.5266 44.0834 53.5849 44.1417M56.9682 45.11C56.7816 44.9584 56.2682 45.5767 56.7349 46.0084M52.1849 50.1617C52.0799 49.73 52.4766 49.6134 52.8616 49.7067M51.2282 47.1167C51.4616 46.9767 51.6949 46.8017 51.9749 46.7317M51.1116 48.7734C51.1116 48.4234 51.2982 48.1084 51.4616 48.0267M52.4416 44.6317C52.424 45.0096 52.5216 45.3839 52.7216 45.705M56.0116 44.655C55.7899 44.725 55.6032 44.8067 55.5216 44.9934M55.7666 45.8917C55.8832 45.7984 55.9999 45.6934 56.0466 45.6234M61.4482 32.7667C61.4482 33.1867 60.9232 33.42 60.5732 33.1517M62.5916 32.79C62.8249 32.965 63.6299 32.79 63.4432 32.3234M61.5999 35.205C61.3817 35.1411 61.1844 35.0203 61.0282 34.855M63.2566 33.9567C62.9882 34.015 62.8016 33.9567 62.6732 33.8984M58.9866 35.4617C59.2492 35.4504 59.507 35.3869 59.7449 35.275M58.5666 32.8017C58.3682 32.7784 58.2166 32.8134 58.1116 32.895M61.5882 33.5367C61.5301 33.7675 61.4089 33.9775 61.2382 34.1434" stroke="black" stroke-width="0.0466667" stroke-linecap="round"/>
<path d="M58.0416 34.2017C58.4149 34.0383 58.8816 35.31 59.7916 34.8667M59.8616 33.5367C59.7351 33.7321 59.6627 33.9575 59.6516 34.19" stroke="black" stroke-width="0.0466667" stroke-linecap="round" stroke-linejoin="round"/>
<path d="M41.8832 31.5884C41.9998 31.565 42.2215 31.53 42.2682 31.3784M26.4248 45.5767C26.8798 45.8334 27.1948 46.265 27.0082 46.9067M47.0865 30.2C47.2265 30.2934 47.7282 30.2934 48.0198 30.2M48.3698 30.5034C48.3698 30.7134 48.4282 31.5067 48.0198 31.67M48.1715 31.5767C48.5448 31.6934 49.2915 31.6467 49.5365 30.9584M49.0115 31.5417C49.2098 31.845 49.2682 32.4284 48.6848 32.7434M49.1515 32.0434C49.5948 32.1834 50.5982 32.2067 50.4932 31.3434M50.1432 32.0434C50.4582 32.4517 51.7765 32.9534 51.5665 32.0784M48.9415 33.245C49.4432 33.3734 50.1665 33.0234 49.8748 32.125M51.3098 32.58C51.3798 32.93 53.0598 33.28 52.8382 32.4984M52.5232 32.9534C52.8382 33.6767 54.5065 33.6184 53.9815 32.65M53.7132 33.4084C54.0398 33.805 55.5215 33.5717 54.9265 32.5917M54.9148 33.385C55.8365 34.085 56.8982 33.0934 55.7315 32.37M56.2682 33.1634C57.0848 33.805 58.0765 32.6384 57.3648 32.3117M49.8515 32.895C50.1082 32.965 50.6448 32.9417 50.7732 32.475M50.5632 32.79C50.5398 33.4667 51.6832 33.7234 51.9748 32.9417M51.5898 33.3734C51.7998 33.8284 52.8148 34.0034 52.9782 33.3617M52.8148 33.665C52.9782 34.1084 53.8532 34.0617 54.0982 33.595M53.7715 33.8984C54.0398 34.4817 55.1598 34.4817 55.4048 33.63M55.2182 34.0034C55.6498 34.2717 56.5832 34.1667 56.5015 33.3267M56.3265 33.9334C56.9798 34.4584 57.8898 33.945 57.4348 33.0584M57.3998 34.6217C57.7498 34.5634 57.9248 33.875 57.5632 33.6884M49.3965 34.7384C50.0965 34.3534 50.2482 33.6884 49.7465 33.0467M50.0032 34.085C50.4582 34.3534 51.3098 34.0617 51.4615 33.4084M50.6215 34.155C50.8782 34.4817 50.9248 34.89 50.5865 35.2634M50.8198 34.575C51.6248 34.085 52.6165 34.995 51.8698 35.555M51.7532 34.5284C51.9282 34.4817 52.2432 34.155 52.2665 33.7817M52.1032 34.8784C52.4415 34.5284 54.6932 35.2284 53.2698 35.9634M53.1532 33.9334C53.5965 34.0967 53.8182 34.715 53.1532 34.925M53.7365 35.4384C54.2032 34.9367 55.7198 35.2517 55.1715 35.8817M54.8098 35.24C55.0782 34.3184 56.6882 34.89 56.1632 35.2634M54.4832 34.33C54.5298 34.505 54.5415 34.9484 54.2498 35.1934M55.8365 34.1434C55.869 34.2467 55.8775 34.3562 55.8614 34.4633C55.8452 34.5705 55.8048 34.6725 55.7432 34.7617M56.8515 34.155C56.9448 34.3184 57.0848 34.6334 56.7582 34.89M43.9948 27.2484C44.0065 28.1 44.3098 28.6717 45.4648 28.135M44.3565 28.2634C43.7732 29.0334 44.4265 29.8617 45.5582 29.0334M42.5832 28.625C43.3648 29.465 44.7648 28.8584 43.8665 27.575M44.7998 29.3484C44.6598 30.1767 45.3365 30.34 45.8848 29.9667M41.8948 28.765C42.0348 29.5934 42.8865 30.2467 43.7148 29.745M42.9098 29.9084C42.9098 31.0984 44.5432 31.2267 44.9282 30.0017M44.3448 30.7484C44.8698 31.8334 46.0132 31.39 46.3865 30.7367M43.1898 29.0217C43.3998 29.5467 43.8198 30.13 44.7882 29.6984M40.1798 28.765C40.3198 29.1967 41.1015 29.7217 41.9998 29.115M40.7398 29.325C40.2498 30.025 41.2065 30.69 42.3732 29.64M41.3115 30.1884C41.4982 31.18 41.8948 31.985 43.2948 30.7017M42.5948 31.215C43.1082 31.845 43.8898 32.23 44.6248 31.1684" stroke="black" stroke-width="0.0466667"/>
<path d="M45.1848 31.4017C45.1382 32.16 45.2782 32.5334 45.8732 32.4984C46.3398 32.475 46.7715 32.1134 47.0282 31.7167M45.7682 32.4984C45.7448 33.3617 46.4215 34.0384 47.6932 33.1634M46.2932 33.5134C46.0598 34.155 46.7715 35.205 48.1832 34.6684M43.2948 31.7984C43.2132 32.615 43.9715 33.175 45.2082 32.1134M43.9015 32.7084C43.9482 33.385 44.7182 34.2017 45.8382 33.0234M44.4382 33.5717C44.3565 34.7267 45.4182 35.0534 46.3165 34.1667M42.8398 32.7084C43.0732 32.7317 43.2715 32.5217 43.3882 32.3584M43.3415 33.5484C43.5515 33.595 43.9248 33.4084 44.0415 33.1634M43.8782 34.9134C44.1115 35.1817 44.9282 34.995 45.0332 34.645M44.7765 34.9017C45.2198 35.9517 46.4215 35.9167 46.9232 34.7267M46.6898 35.1467C46.9232 35.765 47.4948 36.15 48.4282 35.94M47.1448 35.7767C46.6198 36.6284 47.3082 37.6434 48.4865 36.6517M47.4365 37.06C47.3782 37.5967 47.8682 38.215 48.5448 38.285M45.2082 35.485C45.0332 36.6984 45.9082 37.2817 46.9932 36.6284M43.9365 36.0684C44.2165 36.29 44.7298 36.3134 45.2198 36.1384M45.8032 36.8384C45.5232 37.865 46.5732 38.6 47.4715 37.4567M44.3332 36.2317C44.3565 36.7567 44.8582 37.3284 45.7448 37.165M48.2298 38.215C47.6232 38.6117 47.5065 39.335 48.3465 39.8017M46.7598 38.005C46.7832 38.6117 47.0748 38.9617 47.7515 39.02M45.8732 37.69C44.9632 38.5067 45.8498 39.475 46.9232 38.6584M46.5032 38.915C46.1998 39.86 47.3198 40.4317 47.9265 39.475M44.6365 36.9084C44.3098 37.8417 44.7298 38.4484 45.4998 38.39M43.4465 36.7217C43.4932 37.2817 43.9715 37.48 44.5198 37.3517M43.7965 37.305C43.3882 38.0867 44.0065 38.5067 44.8232 38.215M47.2732 39.965C47.1565 40.455 47.2265 40.805 47.9615 40.98M47.3315 40.665C46.4448 41.0617 46.3632 41.925 47.0515 42.4734M46.6082 39.7084C46.5021 39.8012 46.4196 39.9179 46.3677 40.049C46.3157 40.18 46.2958 40.3215 46.3095 40.4618C46.3232 40.6021 46.3701 40.7371 46.4464 40.8557C46.5227 40.9742 46.6261 41.0728 46.7482 41.1434M42.6648 36.9667C42.1632 37.4684 42.6415 38.8567 43.7732 38.0984M45.6048 38.7167C44.9048 39.3 45.2198 40.3267 46.3632 40.0467M44.4615 38.2967C44.0998 39.3117 44.4382 39.6734 45.2548 39.685" stroke="black" stroke-width="0.0466667"/>
<path d="M41.9182 36.92C41.8064 36.9967 41.7121 37.0963 41.6417 37.2122C41.5713 37.3281 41.5263 37.4576 41.5098 37.5922C41.4932 37.7268 41.5055 37.8634 41.5457 37.9929C41.586 38.1224 41.6533 38.2419 41.7432 38.3434C42.0115 38.6467 42.5249 38.5067 42.6765 38.1217M40.6232 36.5117C39.9349 37.3984 40.6232 38.4484 41.6032 38.145M44.3215 39.1484C43.6215 39.3934 43.0732 40.035 43.5049 40.6067C43.7732 40.9334 44.8815 40.98 45.1965 39.6967M43.0499 38.32C42.6415 38.9034 42.7699 39.4634 43.5165 39.7434M43.0032 39.4167C42.5599 39.65 42.2799 39.9417 42.3849 40.4667M42.0232 38.495C41.8599 39.195 42.0582 39.6384 42.4899 39.8484M42.0115 39.335C41.3349 39.2884 40.9849 39.5684 41.2182 40.245M41.2765 39.4984C40.6115 39.265 40.5065 38.6817 40.7982 38.0984M40.7049 38.985C39.9815 39.0084 39.6549 39.37 39.6549 39.86" stroke="black" stroke-width="0.0466667"/>
<path d="M39.7248 36.1733C39.1998 36.395 39.0248 37.1067 39.2232 37.4917C39.4215 37.8767 40.0398 37.9117 40.4132 37.655M38.2665 35.6133C37.7882 36.15 38.3365 37.2117 39.1998 36.955M37.0298 35.1933C36.5865 35.8233 37.0765 36.8733 38.2315 36.57M38.2898 39.4983C38.1732 38.7517 38.9548 38.2617 39.9232 39.23M39.4565 37.7133C39.319 37.8369 39.2126 37.991 39.1457 38.1633C39.0788 38.3355 39.0534 38.5211 39.0715 38.705M35.8048 34.8317C35.3032 35.6717 35.9098 36.4417 36.9715 36.1383M38.5815 36.92C37.8815 37.62 38.1148 38.3317 38.6398 38.74M38.1265 37.7483C37.0648 37.76 37.0065 38.9967 37.8698 39.3817M37.3215 36.5117C36.8782 36.815 36.7382 37.6433 37.4965 37.97M37.2865 38.3667C36.8315 38.1567 36.2948 38.4133 36.3415 38.9383M36.6098 38.3783C36.2015 37.4217 35.0232 37.585 35.1282 38.5767M36.9365 37.1883C36.6915 37.235 36.1782 37.3867 35.9798 37.7717M36.0498 36.1033C35.956 36.2002 35.8876 36.3187 35.8507 36.4484C35.8138 36.5781 35.8096 36.7149 35.8385 36.8467C35.8674 36.9784 35.9285 37.1009 36.0162 37.2033C36.104 37.3056 36.2157 37.3847 36.3415 37.4333M34.6148 34.575C34.5215 35.2283 34.7782 35.5433 35.5948 35.485M34.8948 35.4033C34.5915 36.185 35.0115 36.535 35.8282 36.4883M35.0815 36.3717C34.6032 36.9433 34.9298 37.55 35.3965 37.8067M34.8598 37.095C33.9965 36.9783 33.8681 37.9817 34.1598 38.4367" stroke="black" stroke-width="0.0466667"/>
<path d="M34.1715 34.5167C33.6465 34.75 33.3432 35.4034 33.6232 35.8C33.9148 36.2084 34.4865 36.08 34.7898 35.87M33.8098 35.9867C33.3665 36.6517 33.7632 37.1534 34.2298 37.34" stroke="black" stroke-width="0.0466667"/>
<path d="M32.1182 34.435C31.7682 34.7967 31.9899 35.5317 32.8182 35.555C33.5065 35.555 33.8449 34.925 33.6349 34.47M32.7015 35.555C32.4332 36.15 32.6082 36.8034 33.6349 36.6984M34.0549 37.6317C33.4365 37.3517 32.5849 37.6317 32.9465 38.39M32.8649 36.57C32.6082 36.9317 32.6899 37.445 32.9815 37.76M32.8182 37.5267C32.3982 37.6084 31.9899 37.83 32.2349 38.495M32.1765 37.9584C31.6399 37.795 30.9515 38.1917 31.3599 38.74M31.2782 38.215C30.8115 38.1334 30.2632 38.635 30.7065 39.125M30.5315 38.7167C30.1115 38.8334 29.6099 39.3 30.0532 39.685M32.6549 36.36C32.0482 36.6284 31.9899 37.305 32.2699 37.8067M32.0132 35.1234C31.1149 35.4734 31.1265 36.6634 32.1299 37.0367M31.6982 36.7684C31.1615 37.0834 31.0565 37.69 31.4182 38.075M30.7532 34.6684C30.4032 34.785 30.4265 35.8934 31.3832 35.87M29.7615 35.0417C29.0382 35.52 29.9132 36.7334 31.0799 35.8584M30.4382 36.1734C30.3332 36.6634 30.4732 37.2 31.2665 37.27M30.4849 36.8267C29.9132 37.0367 29.8082 38.215 30.8349 38.3084M28.6649 35.765C27.9299 36.4417 29.2715 37.025 29.7615 36.045M27.6499 36.885C27.2882 37.3284 28.5482 38.4717 29.1082 36.5584M29.2365 36.5234C29.2715 36.99 29.5399 37.2467 30.0882 37.2817M30.0882 37.7134C29.1899 37.8534 28.9099 38.9617 29.9015 39.2067M28.4432 37.5734C28.4082 37.9817 28.8515 38.3317 29.3415 38.2617M29.7965 39.1717C28.9799 39.3584 28.8749 40.4084 29.5982 40.3384M29.2249 41.3184C28.5482 41.12 28.5249 40.315 29.1315 40.0117" stroke="black" stroke-width="0.0466667"/>
<path d="M28.6648 40.6184C28.0932 40.9684 28.3148 41.785 28.6182 41.9017C28.9215 42.0184 29.1665 41.8784 29.2015 41.6217M29.1432 42.7884C29.2132 43.1734 27.7548 43.0217 28.5015 41.8084M28.5015 42.8467C28.0115 43.6167 28.8048 44.2467 29.3065 43.5817M28.5598 43.7684C28.3615 44.3867 29.1082 44.83 29.5865 44.3517M26.9498 38.005C26.6815 38.5534 28.0348 38.7634 28.1165 37.62M26.5765 38.8217C26.3082 39.9067 28.3498 39.685 27.8248 38.285M27.8715 39.0084C28.0072 39.0719 28.1559 39.1027 28.3057 39.0982C28.4555 39.0938 28.6021 39.0542 28.7338 38.9827C28.8655 38.9112 28.9785 38.8097 29.0638 38.6865C29.1491 38.5633 29.2042 38.4218 29.2248 38.2734M28.6065 39.0434C28.6435 39.1966 28.7112 39.3407 28.8054 39.467C28.8997 39.5933 29.0185 39.6992 29.1548 39.7784M27.6265 39.3234C27.5332 39.9067 28.1282 40.3967 28.7932 40.35M27.7315 39.895C27.4048 40.35 27.2998 41.2134 28.3382 41.2717M26.1332 40.0584C25.9698 40.525 26.9498 41.0034 27.5098 40.2334M25.8298 41.2484C25.7482 41.5984 26.6232 42.065 27.1132 40.5717M26.7282 41.33C26.9382 41.7034 27.6498 42.0067 28.0815 41.2717M27.3815 41.7267C27.1948 42.2517 27.6965 42.7417 28.2915 42.6017M26.2498 41.61C26.1332 42.3567 27.0082 42.7884 27.5332 42.4034M25.6782 41.9367C25.4215 42.8934 26.6582 43.255 27.1248 42.5317M26.8098 42.8234C26.8565 43.36 27.6965 43.8267 28.3498 43.3834M25.3048 43.2667C25.2465 43.5117 26.2498 43.7567 26.4015 42.9167M25.8882 43.4884C26.1215 44.095 26.9382 44.2467 27.4048 43.4884M27.1365 43.7917C27.2532 44.375 27.9765 44.69 28.6298 44.2934M28.8982 44.5267C28.7348 45.285 29.5282 45.9034 30.0182 45.4834M27.6148 44.3867C27.3815 45.2267 28.4315 45.705 29.0148 45.2384M26.3548 43.955C26.2965 44.7484 26.9148 45.215 27.6148 44.865M25.0132 44.0484C24.8032 44.55 25.9232 44.97 26.4482 44.5384M24.3248 45.4367C24.6165 45.7634 25.6082 45.4367 25.6898 44.7017M25.4215 45.2384C25.7832 45.6584 26.6465 45.8917 26.9848 44.9817M26.6815 45.4484C26.6815 46.1017 27.8248 46.5684 28.1982 45.3784M29.5632 45.6117C29.4465 45.9267 29.7032 46.4284 30.2282 46.4867M28.6065 45.4134C28.5365 45.7634 29.0615 46.2767 29.6215 46.0784M29.7265 46.23C29.5748 46.615 29.7032 47.175 30.2282 47.1634M29.7732 46.9534C29.3765 47.28 29.5398 47.875 30.1115 47.8867M29.5748 47.5134C29.0148 47.8867 29.2132 48.715 29.9482 48.6684M27.8832 45.8917C27.8832 46.7084 28.8982 46.825 29.0848 46.0784M28.6998 46.545C28.5482 47.035 28.9332 47.5017 29.5515 47.3617M28.8165 52.355C28.9565 52.5534 29.5165 52.215 29.3648 51.8884C29.2132 51.5617 28.6182 51.7367 28.6882 52.0867M29.2248 51.7484C29.2948 51.095 28.5248 50.99 28.3265 51.5617M28.6065 51.2234C28.8048 50.8967 28.1398 50.4417 27.8715 50.9317M28.1048 50.7334C28.2915 50.255 27.5448 50.0334 27.4865 50.4767M27.3115 49.8467C27.4048 49.6134 28.2448 49.7534 27.8948 50.255M28.5365 50.85C28.8632 50.5467 28.3032 49.94 27.9532 50.15M30.7532 51.7717C30.4965 51.795 30.2282 51.97 30.4148 52.53C30.5548 52.915 31.1265 52.9267 31.2198 52.705" stroke="black" stroke-width="0.0466667"/>
<path d="M30.3915 52.0634C30.1348 51.8884 29.5748 52.18 29.8315 52.7167C30.0182 53.125 30.5082 52.95 30.5782 52.74M28.9448 52.8334C29.0848 53.0667 29.7148 52.95 29.8315 52.7167M29.3882 52.0867C29.5282 51.9934 29.7732 52.11 29.8198 52.2267M29.3532 48.3767C28.9098 48.6684 29.1782 49.5434 29.8548 49.31M29.2015 49.0884C28.8515 49.3567 29.1782 50.2084 29.8198 49.8817M29.3182 49.8817C29.0732 50.1267 29.3065 50.7917 29.9248 50.6634M29.2248 50.22C29.0848 50.1617 28.7348 50.1967 28.5832 50.43M28.8282 47.1634C28.5015 47.49 28.6648 48.1317 29.2715 48.19M28.7115 47.84C28.2448 48.0734 28.2448 49.0067 29.1782 49.0417M28.6765 48.89C28.4082 49.1 28.5365 49.9167 29.2132 49.8117M28.8865 49.7767C28.7932 49.8817 28.7698 50.1267 28.8632 50.2317M28.5948 49.4734C28.3615 49.4734 28.0348 49.6484 27.9532 49.905M27.5215 49.03C27.6032 48.7967 28.3498 48.7967 28.4082 49.5084M28.4782 48.6684C28.3732 48.6917 28.1748 48.785 28.1282 48.995M28.1515 46.4634C27.8365 46.7667 27.6848 47.6884 28.6532 47.8634M27.4982 48.3767C27.4982 48.1317 28.1748 47.91 28.4082 48.2834M27.0665 47.035C27.1598 47.2217 27.6265 47.4784 27.9065 47.2684M24.6398 45.565C24.6353 45.673 24.6546 45.7806 24.6964 45.8803C24.7382 45.9799 24.8014 46.0691 24.8816 46.1416C24.9619 46.214 25.0571 46.2678 25.1604 46.2992C25.2638 46.3306 25.3729 46.3389 25.4798 46.3234C25.9815 46.265 26.0865 45.8334 25.9348 45.5417M25.5615 46.3467C25.2232 46.7434 25.6315 47.315 26.0048 47.1517M25.9348 46.055C26.1332 45.985 26.7748 45.8917 26.9732 46.195M23.8465 46.1717C23.6948 46.405 24.6282 46.6267 24.9432 46.195M24.6282 46.4167C24.5932 46.72 24.7448 47.2334 25.5148 47.0117" stroke="black" stroke-width="0.0466667"/>
<path d="M25.6432 47.4784C25.7598 47.2217 25.1998 46.8017 24.7565 47.2684C24.3248 47.735 24.8265 48.26 25.0948 48.085M23.6482 46.475C23.4148 46.8717 24.2898 47.5834 24.7915 46.9184" stroke="black" stroke-width="0.0466667"/>
<path d="M23.0648 47.1517C22.7498 47.4784 23.1465 48.0734 23.6132 47.8867C24.0915 47.7117 24.0448 47.21 23.9282 47.0817" stroke="black" stroke-width="0.0466667"/>
<path d="M22.4581 47.7583C22.2015 47.9917 22.4581 48.5283 22.8081 48.5283C23.1581 48.5283 23.3798 48.26 23.3098 47.8983M23.8931 47.7117C23.8465 48.0617 24.3598 48.295 24.6981 47.9683M24.6981 47.3383C24.7565 47.2683 24.7215 47.14 24.6398 47.07M21.9098 48.2133C21.6181 48.4467 22.2598 49.1 22.6448 48.505M24.1731 48.0967C23.9865 48.2717 24.2898 48.7383 24.5931 48.5983M23.1465 48.4233C23.1931 48.7383 23.8231 48.9833 24.2198 48.4933M23.4848 48.7383C23.3915 48.9483 23.5898 49.2633 23.8348 49.2283M29.4698 50.605C29.2365 51.06 29.9831 51.5967 30.5198 51.0367M30.0065 51.2817C29.8898 51.5267 30.0298 51.8767 30.2398 52.005M29.3065 51.8067C29.3531 51.5733 29.6798 51.3633 29.9715 51.4683M28.9215 51.2117C28.9565 51.0017 29.2248 50.8033 29.4348 50.8617M46.6081 41.8317C45.5348 41.8433 45.9898 43.5583 46.9115 43.22M46.2581 43.1033C46.0481 43.4417 46.4565 43.99 46.9115 43.6633M46.7948 43.7333C46.4681 44.2583 47.5998 45.0633 48.0548 44.235M47.6931 44.55C47.6931 45.0517 49.1515 45.3667 48.9415 44.375M48.8015 44.9117C49.1515 45.495 50.4348 45.5533 50.3065 44.6783M50.0148 45.285C50.2831 45.6817 51.5548 45.915 51.5081 45.11M44.8931 40.35C45.0681 40.8167 45.6865 40.98 46.3631 40.7M44.4965 40.6767C44.9281 40.945 44.3098 42.1817 43.6681 41.68M44.5081 41.4467C44.9748 41.6683 45.5465 41.505 45.7098 40.84M45.4181 41.3533C45.4648 41.7033 45.9665 41.9717 46.6081 41.8317M44.2631 41.715C44.8698 42.2283 43.9948 43.2783 43.5981 42.8M44.4848 42.1C44.7765 42.31 45.5115 42.1933 45.5815 41.6333M45.2548 42.1C45.3131 42.4617 45.6048 42.6017 46.0015 42.6133M44.3215 42.6017C44.6248 43.0217 45.3715 43.1383 45.7098 42.59M45.3715 42.905C45.3481 43.3017 45.7915 43.64 46.2581 43.5467M43.7498 43.7917C44.1348 43.99 44.5665 43.2433 44.2281 42.7417M44.2048 44.5733C44.6715 44.5967 44.7298 43.8967 44.2865 43.5M45.2665 45.215C45.6631 45.1217 45.5348 44.27 44.5898 44.2M46.4565 45.845C46.8298 45.74 46.5265 44.795 45.4881 44.8533M47.8798 46.1833C48.1365 45.7867 47.2965 45.1333 46.5965 45.4833M48.5798 46.72C49.0465 46.86 49.3731 45.6233 47.8915 45.8217M49.4431 46.72C49.8515 46.6033 50.1431 45.88 48.9531 46.1133M50.3531 46.7783C50.7031 46.965 50.8665 45.9033 49.7698 46.195M44.2865 43.5117C44.7415 43.7567 45.4531 43.465 45.3831 42.8933M45.2081 43.3833C45.3598 43.6517 45.3015 44.1767 45.0098 44.3167M45.2431 44.0133C45.5465 44.13 45.9548 44.025 46.1998 43.5467M45.7798 44.0133C45.8615 44.2233 45.8965 44.6433 45.6981 44.8533M45.8498 44.375C46.1881 44.5617 46.5731 44.3167 46.7365 43.9667M46.5265 44.27C46.7598 44.4217 46.9815 45.1217 46.5731 45.4133M46.8065 45.0867C47.0865 45.0867 47.5065 45.0867 47.7748 44.7367M47.5765 44.935C47.8331 45.005 48.1365 45.425 48.0315 45.7983M48.0431 45.67C48.3348 45.635 48.8248 45.4367 48.9648 45.0867M48.8248 45.32C48.9542 45.3962 49.0585 45.5086 49.1248 45.6434C49.1911 45.7781 49.2166 45.9293 49.1981 46.0783M49.1981 45.8333C49.4898 45.8217 49.7465 45.67 49.8165 45.355M49.7465 45.565C49.9565 45.635 50.2131 45.88 50.2248 46.16M50.1898 45.985C50.3998 45.95 50.5515 45.8217 50.6915 45.6117M51.2631 45.5767C51.5315 45.845 51.1698 46.7433 50.6098 46.58M45.4881 27.365C44.9398 27.7033 43.3531 27.5983 44.1348 26.2917M45.6515 26.4783C44.5431 26.9217 43.2015 26.07 44.6015 25.16M44.2281 24.8567C43.3181 24.8567 42.6998 26.3267 43.9248 26.84M40.6698 25.475C40.4365 25.9417 41.2881 26.455 41.8715 25.9883C42.3265 25.6267 42.2915 24.6467 42.0231 24.2733M40.2031 26.5833C39.8998 27.575 42.1165 27.6333 41.7665 26.0583M40.0865 28.065C40.1565 28.8117 42.1981 28.5667 41.5448 27.05M41.7781 26.63C41.9415 26.8633 42.3965 27.2483 43.1665 27.1667M42.1165 25.5917C42.1865 25.86 42.6415 26.0583 43.2248 25.86M21.6298 48.435C21.1048 48.7967 21.9098 49.38 22.2015 48.7383M21.2215 48.715C20.7081 49.0883 21.5015 49.6717 21.7931 49.03M20.7898 48.995C20.2765 49.3683 21.0698 49.94 21.3731 49.31M20.3465 49.2517C19.8448 49.52 20.4281 50.1617 20.9298 49.6017M19.8565 49.4967C19.3548 49.765 19.9381 50.4067 20.4398 49.8467M22.3765 48.7267C22.3648 49.1117 23.0881 49.2633 23.3565 48.6917M22.8315 49.0767C22.5981 49.3683 23.0181 49.7183 23.2398 49.59M21.8631 49.03C21.8398 49.3567 22.4698 49.5433 22.7731 49.1817M22.2015 49.3683C22.0031 49.625 22.3998 49.9867 22.6681 49.8817M21.4431 49.3217C21.4665 49.5783 21.8281 49.87 22.2131 49.7067M21.6765 49.6717C21.5248 49.8 21.5948 50.115 21.8048 50.22M20.8948 49.6367C20.8365 49.87 21.2331 50.29 21.6415 50.0217M20.9765 49.905C20.7431 50.1033 20.7665 50.3833 21.0698 50.43M20.3931 49.8817C20.3698 50.045 20.5681 50.3017 20.8248 50.2667M19.1098 49.87C18.8765 49.9983 19.4831 50.6517 19.8681 50.045M18.5148 50.1383C18.2115 50.2783 18.9581 51.0017 19.2965 50.2667M20.4631 50.115C20.2298 50.1617 20.0781 50.5 20.2765 50.64M19.6931 50.2317C19.6698 50.3717 19.9615 50.5817 20.1948 50.5117M19.5065 50.29C19.2731 50.43 19.4015 50.8267 19.6698 50.7683M18.7015 50.5583C18.4915 50.71 18.6431 51.025 18.9348 50.955M19.0865 50.535C19.0865 50.6167 19.2848 50.745 19.4365 50.6867M17.9781 50.395C17.7098 50.5117 17.7331 51.165 18.6198 50.815M17.3831 50.6633C17.0098 50.8383 17.1381 51.34 17.9431 50.8617M18.0015 50.8967C17.9081 50.9783 17.8031 51.305 18.1765 51.1767M17.3365 51.06C17.1848 51.1883 17.2781 51.4683 17.6048 51.3633M16.5548 51.1067C16.2865 51.2583 16.8815 51.4683 17.2781 51.0483M16.7415 51.2933C16.6248 51.41 16.6248 51.7717 16.9281 51.6433M15.9715 51.445C15.7965 51.5733 16.0881 51.76 16.6715 51.5033M16.2048 51.6317C15.9831 51.8067 16.0065 52.0283 16.3215 51.9583M15.5748 51.725C15.3415 51.9467 15.6798 52.0867 16.0881 51.9117M15.5748 51.97C15.1781 52.145 15.3531 52.4833 15.5981 52.355M28.8748 53.1133C28.7815 53.3117 29.0848 53.475 29.3765 53.4283C29.6448 53.3933 29.9131 53.16 29.7031 52.845M29.7148 53.2417C29.9948 53.4517 30.4731 53.2067 30.4731 52.8917" stroke="black" stroke-width="0.0466667"/>
<path d="M46.2931 21.3917C45.0914 20.8084 42.5948 19.6884 41.8831 20.5867C42.5364 20.3184 44.4264 20.5984 45.9898 22.0451L46.2931 21.4034V21.3917Z" fill="white" stroke="black" stroke-width="0.0466667"/>
<path d="M47.0165 21.3334C45.6281 19.7117 44.7998 20.0734 43.8081 19.525C42.8748 19 41.3815 18.895 41.0898 19.7234C42.4548 19.0584 43.7148 20.0734 44.4965 20.2134C45.5465 20.3767 46.1531 21.205 46.4681 21.5784L47.0165 21.345V21.3334ZM52.2548 21.1234C51.5315 19.4784 49.9915 19.91 49.3148 19.21C48.3231 18.1834 45.8148 17.2267 44.7648 17.9384C47.0515 17.8217 48.0315 19.5134 49.2448 20.1084C50.1198 20.5284 51.0531 21.4267 52.2548 21.1234Z" fill="white" stroke="black" stroke-width="0.0466667"/>
<path d="M49.5481 20.9484C48.3231 19.42 46.4215 18.0667 45.5581 18.5684C46.7015 18.6384 47.0631 19.4317 47.8681 19.945C48.6848 20.4467 48.3231 21.1934 49.5481 20.9484ZM43.6915 23.655C42.4081 23.1767 39.8765 22.9317 38.6981 24.4017C40.6581 24.74 43.5981 24.5534 43.6915 23.655Z" fill="white" stroke="black" stroke-width="0.0466667"/>
<path d="M43.4464 24.2267C42.1631 23.6201 41.1481 24.4601 39.9348 24.3434C37.6248 24.1101 35.9681 24.2501 35.7581 25.3701C37.0764 24.1801 39.3048 25.1601 40.2031 24.9151C41.1014 24.6817 44.4381 24.8801 45.4881 25.3351C44.9514 24.6701 44.1114 24.4951 43.4464 24.2267ZM47.5064 20.7851C47.2031 19.7934 47.2264 18.7434 48.7081 18.8134C48.3348 18.3467 46.9581 18.1134 46.7248 19.8517C45.0914 18.6501 43.2948 18.4401 42.9681 19.4784C43.8081 18.7551 45.1148 19.2801 46.6781 21.0534C46.9384 20.921 47.2179 20.8304 47.5064 20.7851Z" fill="white" stroke="black" stroke-width="0.0466667"/>
<path d="M45.2548 22.1501C44.3214 21.5434 43.0614 20.5751 45.2664 20.1784C44.3331 19.6767 42.9331 19.8984 43.0848 21.6367C40.5648 20.6217 38.7564 20.9601 38.3714 21.9751C37.9514 23.0834 39.5148 23.7017 39.7831 22.9901C39.5031 23.1067 38.5231 22.7801 39.0364 22.1501C39.5498 21.5201 42.1631 21.9984 44.6481 23.2934C45.3481 23.6434 47.7164 23.5967 45.2548 22.1501Z" fill="white" stroke="black" stroke-width="0.0466667"/>
<path d="M44.5898 23.8067C43.8781 22.3367 41.5448 23.6667 41.0781 22.2434C40.4248 24.3317 44.3915 23.1767 44.5898 23.8067ZM59.4181 25.3934C59.9081 25.6384 60.3281 25.2534 59.5815 24.9617C60.0715 25.1951 60.5031 24.8334 59.7565 24.5301C60.2465 24.7634 60.6665 24.4017 59.9198 24.0984C59.7215 24.2967 59.4415 25.0317 59.4181 25.3934ZM59.6748 22.5701C60.7598 21.4267 59.5931 21.0417 60.9115 19.8634C61.9965 18.9067 61.1215 18.2651 62.1365 17.5301C62.4748 17.2851 63.1865 16.8067 63.2565 16.3167C63.6881 17.4017 61.9031 17.5534 62.0198 19.2917C62.1015 20.4001 61.3431 20.3067 61.0631 22.1851C61.0048 22.5701 60.7248 23.4451 59.6748 22.5701Z" fill="white" stroke="black" stroke-width="0.0466667"/>
<path d="M60.1531 23.0834C60.7598 21.8001 61.4481 21.8117 61.7865 21.3101C62.4165 20.3417 63.7465 21.4734 64.8781 20.6101C64.6798 21.8351 63.1631 21.4034 62.4981 22.1851C61.8448 22.9667 61.2965 23.3167 60.1648 23.0834H60.1531Z" fill="white" stroke="black" stroke-width="0.0466667"/>
<path d="M60.3164 23.5034C61.3664 22.6634 62.1364 23.2234 62.8598 22.7801C64.6914 21.6717 65.4264 23.0134 67.0598 22.4767C66.6398 23.5267 64.2131 22.6284 63.1631 23.4101C62.1131 24.1917 58.4148 24.9501 60.3048 23.5034H60.3164ZM57.2481 29.5001C57.2248 29.0217 56.7814 28.4034 56.1514 28.3334C55.5214 28.2517 55.2414 27.5867 54.7631 27.5634C54.2848 27.5284 53.9698 26.5717 53.3048 26.5834C52.6514 26.5951 52.3714 27.4584 53.9231 28.2401C55.4748 29.0217 57.1898 29.9201 57.2481 29.5001ZM55.2881 29.9084C54.6348 29.9317 54.5414 30.9001 53.9114 30.9234C54.7748 31.3901 55.4164 30.7134 55.8598 30.1067L55.2998 29.9084H55.2881Z" fill="white" stroke="black" stroke-width="0.0466667"/>
<path d="M55.8364 30.0251C55.2531 30.5034 55.0898 31.5067 55.9181 31.7984C55.4281 31.1101 56.7931 30.8067 56.3731 30.1651L55.8364 30.0251Z" fill="white" stroke="black" stroke-width="0.0466667"/>
<path d="M56.3964 30.0601C55.9531 30.9234 57.1081 31.0284 56.8047 31.6934C57.4697 31.5417 57.5747 30.2934 56.9681 29.9667L56.3964 30.0484V30.0601Z" fill="white" stroke="black" stroke-width="0.0466667"/>
<path d="M51.9865 28.1934C53.0715 28.1351 54.0514 28.7184 54.7164 29.6634C55.1364 30.2584 56.5481 30.5034 57.0381 30.0134C57.5048 29.5467 57.2481 28.5201 56.0464 28.8467C55.7431 28.3451 54.8798 28.5201 54.4481 28.1001C54.0281 27.6801 52.4065 26.4784 51.9865 28.1934Z" fill="white" stroke="black" stroke-width="0.0466667"/>
<path d="M56.0464 28.8584C55.7548 28.9167 55.6614 29.4067 55.8481 29.6634L56.0464 28.8584ZM56.6648 29.1501C56.7464 29.3017 56.6881 29.5117 56.6414 29.6167L56.6648 29.1501ZM53.7014 28.2401C54.2497 28.2634 54.3548 28.6717 54.9614 28.8234L53.7014 28.2401Z" fill="white"/>
<path d="M56.0464 28.8584C55.7548 28.9167 55.6614 29.4067 55.8481 29.6634M56.6648 29.1501C56.7464 29.3017 56.6881 29.5117 56.6414 29.6167M53.7014 28.2401C54.2497 28.2634 54.3548 28.6717 54.9614 28.8234" stroke="black" stroke-width="0.0466667" stroke-linecap="round"/>
<path d="M53.3281 26.8751C54.8437 27.1713 56.3171 27.6532 57.7147 28.3101C58.6597 28.8467 60.1297 29.0101 61.4014 28.6367C62.6847 28.2867 65.1581 27.9484 65.0298 29.5467C65.7064 28.7417 64.8547 27.8901 63.1397 27.7384C63.1747 26.9567 62.3347 26.2567 61.7397 26.7234C62.2881 26.6417 62.7664 27.6801 61.6697 28.1001C61.719 27.9193 61.7154 27.7281 61.6594 27.5493C61.6033 27.3705 61.4972 27.2115 61.3535 27.0911C61.2098 26.9708 61.0347 26.8942 60.8488 26.8704C60.6629 26.8466 60.4741 26.8765 60.3048 26.9567C60.8181 27.1084 61.3548 27.9834 60.1881 28.3101C59.4531 28.5201 58.3914 28.2517 57.5981 27.7734C56.8047 27.2951 52.3481 25.5567 53.3281 26.8634V26.8751Z" fill="white" stroke="black" stroke-width="0.0466667"/>
<path d="M58.1698 26.0934C57.5748 26.3617 57.9598 26.9917 57.0381 27.3534C56.1048 27.7034 55.4515 28.5317 55.6615 29.2434C56.2915 27.8551 57.4115 27.9251 57.7965 27.3767C58.1931 26.8401 58.7648 26.0467 58.1698 26.0934Z" fill="white" stroke="black" stroke-width="0.0466667"/>
<path d="M58.3331 26.1751C58.3098 27.2717 57.4464 26.8751 57.7847 28.4151C57.8898 28.8934 58.0881 29.6751 57.7498 30.4567C58.7181 29.7567 58.0998 28.2751 58.5314 27.7151C58.7414 27.4351 59.0214 27.0151 59.1148 26.6651C58.8931 27.2834 58.9164 28.4617 59.5231 28.7651C59.0331 27.5984 60.8648 26.6301 59.6048 25.2651C59.4181 25.6151 58.8464 26.1984 58.3448 26.1751H58.3331ZM55.2764 25.0784C55.4281 25.3117 55.5798 25.8717 55.4398 26.1984C55.7431 26.0117 56.1748 25.5451 56.3148 25.2301C56.9331 25.3234 57.1664 26.0817 56.5831 26.4201C56.9331 26.4201 57.5631 26.4201 57.9014 26.0117C57.4814 25.5451 56.1748 24.8217 55.2764 25.0784Z" fill="white" stroke="black" stroke-width="0.0466667"/>
<path d="M45.9314 22.9201C45.7686 22.7943 45.5754 22.7138 45.3714 22.6867C44.4614 22.5001 44.9398 21.6834 45.7098 21.6951C47.3664 19.8867 48.2881 21.2751 50.3064 20.7151C51.0064 20.5051 51.4964 20.5634 51.8698 20.7384C52.7798 20.1317 53.8298 20.2951 54.5998 21.0067C54.6773 20.8729 54.8022 20.773 54.9498 20.7267C55.6614 20.5284 56.2331 21.1234 56.4314 21.9051C56.9798 21.8117 57.6098 22.0801 58.0298 22.4534C58.6014 22.1617 58.9864 22.1501 59.1381 22.4534C59.6514 22.2201 60.3048 22.0567 60.6431 22.8734C60.9814 23.6901 59.8614 23.4451 59.6748 25.1601C59.5581 26.2101 58.3914 26.6301 57.4581 26.0001C55.9648 24.9851 54.5064 24.8334 53.7831 26.3501C53.0714 27.8901 52.4998 28.7767 50.7498 28.2751C50.3864 28.1926 50.0067 28.2207 49.6595 28.3559C49.3123 28.491 49.0134 28.727 48.8014 29.0334C48.2881 29.7334 47.5181 29.0801 46.5848 29.1501C47.7514 28.9751 47.2964 28.6834 48.3231 28.6134C49.2564 28.5551 49.0114 27.6801 49.6064 27.5634C47.2731 28.1584 47.3548 27.2834 45.4298 27.8901C46.2698 26.8051 47.5998 27.4117 48.2531 26.7817C46.5148 26.7467 45.7331 25.6151 44.9514 26.0817C43.7264 26.8401 44.2514 28.9751 41.0431 28.7884C39.4798 28.7067 38.4881 28.9051 37.5664 29.8384C39.1881 26.4784 41.3931 28.3217 42.4664 27.2601C43.0233 26.759 43.5065 26.1816 43.9014 25.5451C43.9475 25.4527 44.0131 25.3715 44.0937 25.307C44.1743 25.2426 44.2679 25.1964 44.3681 25.1717C41.6964 24.3317 43.3181 23.0134 45.9314 22.9201Z" fill="white" stroke="black" stroke-width="0.0466667"/>
<path d="M59.1381 22.4417C59.1731 22.5351 59.1965 22.6517 59.1965 22.7917C59.1965 23.4451 58.2048 23.4684 58.1465 24.4484C58.1115 24.9617 58.0531 25.2417 57.7148 25.1834C57.3648 25.1251 57.0615 24.5884 57.3881 23.9584" fill="white"/>
<path d="M59.1381 22.4417C59.1731 22.5351 59.1965 22.6517 59.1965 22.7917C59.1965 23.4451 58.2048 23.4684 58.1465 24.4484C58.1115 24.9617 58.0531 25.2417 57.7148 25.1834C57.3648 25.1251 57.0615 24.5884 57.3881 23.9584" stroke="black" stroke-width="0.0466667" stroke-linecap="round"/>
<path d="M46.4331 21.9401C46.2228 21.7862 45.9703 21.7007 45.7098 21.6951L46.4331 21.9401ZM51.8698 20.7267C52.6631 21.0767 53.0481 21.8934 54.2031 21.9401C55.3231 21.9751 56.0114 23.5967 57.8781 22.5351C57.9243 22.5109 57.971 22.4876 58.0181 22.4651M54.5998 21.0067C54.4395 21.2983 54.3819 21.6352 54.4364 21.9634L54.5998 21.0067ZM50.9598 24.4134C49.5598 24.4134 49.1864 25.1251 49.1864 25.8134C49.1864 26.5134 49.8514 27.4117 51.0181 27.4117C52.1848 27.4117 52.8264 26.6884 52.8264 25.9067C52.8264 25.1251 52.1031 24.4017 50.9598 24.4017V24.4134Z" fill="white"/>
<path d="M46.4331 21.9401C46.2228 21.7862 45.9703 21.7007 45.7098 21.6951M51.8698 20.7267C52.6631 21.0767 53.0481 21.8934 54.2031 21.9401C55.3231 21.9751 56.0114 23.5967 57.8781 22.5351C57.9243 22.5109 57.971 22.4876 58.0181 22.4651M54.5998 21.0067C54.4395 21.2983 54.3819 21.6352 54.4364 21.9634M50.9598 24.4134C49.5598 24.4134 49.1864 25.1251 49.1864 25.8134C49.1864 26.5134 49.8514 27.4117 51.0181 27.4117C52.1848 27.4117 52.8264 26.6884 52.8264 25.9067C52.8264 25.1251 52.1031 24.4017 50.9598 24.4017V24.4134Z" stroke="black" stroke-width="0.0466667"/>
<path d="M51.2164 27.3767C51.1931 26.9917 50.4814 27.05 50.5164 26.7467C50.5398 26.4434 50.9014 26.3267 50.9014 25.9067C50.9014 25.4867 51.5314 25.4517 51.7414 25.79C51.9514 26.1167 52.5814 26.7584 52.7214 26.4317M51.7414 25.79C51.5487 25.9953 51.4376 26.2639 51.429 26.5454C51.4204 26.8268 51.5149 27.1017 51.6948 27.3184M52.1964 26.2917C52.0798 26.525 52.0564 26.875 52.1848 27.085L52.1964 26.2917Z" fill="white"/>
<path d="M51.2164 27.3767C51.1931 26.9917 50.4814 27.05 50.5164 26.7467C50.5398 26.4434 50.9014 26.3267 50.9014 25.9067C50.9014 25.4867 51.5314 25.4517 51.7414 25.79C51.9514 26.1167 52.5814 26.7584 52.7214 26.4317M51.7414 25.79C51.5487 25.9953 51.4376 26.2639 51.429 26.5454C51.4204 26.8268 51.5149 27.1017 51.6948 27.3184M52.1964 26.2917C52.0798 26.525 52.0564 26.875 52.1848 27.085" stroke="black" stroke-width="0.0466667"/>
<path d="M57.8081 25.1951C58.9164 25.2884 59.0914 24.0634 58.2748 23.9934M56.4431 21.9167C56.0698 21.4267 55.1831 21.2634 55.1598 22.2901" stroke="black" stroke-width="0.0466667"/>
<path d="M55.0665 23.4684C54.6931 22.5351 53.7248 22.4067 53.2231 22.8734C52.7915 23.2584 52.7798 24.2734 53.6898 24.4834C54.0165 24.0984 54.6231 23.6084 55.0665 23.4684ZM54.6581 22.8851C54.1098 22.4067 53.3165 23.3167 54.0398 24.1451L54.6581 22.8851ZM44.3565 25.1601C44.7298 25.0784 45.2548 25.2534 46.0715 25.6267C46.5731 25.8717 48.1131 26.3851 49.0698 25.8717C48.0781 26.2334 47.3198 24.7401 46.5731 24.9151C45.8265 25.1017 44.4498 25.3817 43.8781 24.8217C45.2781 24.9151 46.0365 23.7951 47.6581 24.7634C48.1165 25.0477 48.6472 25.1935 49.1865 25.1834C47.8681 23.5967 46.1298 24.6117 45.9431 23.3167C46.7365 24.1801 48.6848 23.1301 49.6765 24.7284M46.2348 23.5617C46.0481 23.3284 46.1181 23.0951 45.9315 22.9201L46.2348 23.5617Z" fill="white"/>
<path d="M54.6581 22.8851C54.1098 22.4067 53.3165 23.3167 54.0398 24.1451M44.3565 25.1601C44.7298 25.0784 45.2548 25.2534 46.0715 25.6267C46.5731 25.8717 48.1131 26.3851 49.0698 25.8717C48.0781 26.2334 47.3198 24.7401 46.5731 24.9151C45.8265 25.1017 44.4498 25.3817 43.8781 24.8217C45.2781 24.9151 46.0365 23.7951 47.6581 24.7634C48.1165 25.0477 48.6472 25.1935 49.1865 25.1834C47.8681 23.5967 46.1298 24.6117 45.9431 23.3167C46.7365 24.1801 48.6848 23.1301 49.6765 24.7284M46.2348 23.5617C46.0481 23.3284 46.1181 23.0951 45.9315 22.9201M55.0665 23.4684C54.6931 22.5351 53.7248 22.4067 53.2231 22.8734C52.7915 23.2584 52.7798 24.2734 53.6898 24.4834C54.0165 24.0984 54.6231 23.6084 55.0665 23.4684Z" stroke="black" stroke-width="0.0466667"/>
<path d="M56.4431 21.9167C56.1164 21.5667 55.3931 21.835 55.6031 22.5467C55.6795 22.3789 55.7961 22.2325 55.9426 22.1205C56.0892 22.0086 56.2611 21.9346 56.4431 21.905V21.9167ZM54.4014 23.8417C54.6024 23.6835 54.8267 23.5575 55.0664 23.4684C54.9747 23.2306 54.8217 23.0213 54.6231 22.8617C54.4481 22.745 53.9581 23.41 54.4014 23.83V23.8417Z" fill="black"/>
<path d="M53.5148 22.6167C52.9781 22.255 52.4765 22.29 52.3131 22.5817C51.9281 22.5817 51.6015 22.8617 51.5898 23.4217M52.4181 23.6667C51.7765 23.2234 50.8898 23.3867 50.9481 24.3784M50.5515 24.95C50.8665 24.6934 51.3215 24.5067 51.6715 24.95M55.3815 23.97C55.2648 24.1334 55.1715 24.39 55.3698 24.7867C55.1365 24.46 54.5298 24.46 53.8765 25.3M56.8048 23.9234C56.0231 24.0167 56.0465 24.53 56.6765 24.74M51.2515 22.01C50.5865 21.8817 50.1081 22.2667 51.0181 22.5934M52.5115 21.5667C51.5781 21.3334 51.2048 21.5784 51.6248 21.8M49.8165 25.3C49.7931 25.6384 49.9681 26.07 50.5165 25.58M50.0031 26.2917C50.0031 26.385 49.9915 26.49 49.9215 26.5717M47.8331 21.905C47.2615 21.73 47.1565 21.205 47.8331 21.2517M47.6465 23.1184C47.0165 22.8967 47.0165 22.29 47.5298 22.3484M48.8131 22.7917C48.0781 22.6167 48.0548 22.1034 48.6031 22.185M48.9065 21.2284C48.5098 21.205 47.9148 21.6367 48.9181 21.8934M50.0031 22.1034C49.0815 21.975 49.1048 22.3367 49.6415 22.5817M50.6915 21.2284C49.9915 21.1 49.7465 21.52 50.2248 21.695M48.4748 23.83C48.2998 23.69 48.1598 23.0134 48.9765 23.2117M50.1781 23.62C49.6298 23.4684 49.1048 24.0167 49.6065 24.32M50.9131 22.9784C50.3298 22.8617 49.8398 23.0367 50.1548 23.2467" stroke="black" stroke-width="0.0466667" stroke-linecap="round"/>
<path d="M56.4198 21.9167C56.2431 21.9486 56.0767 22.0224 55.9346 22.1321C55.7925 22.2417 55.6788 22.3839 55.6031 22.5467" fill="white"/>
<path d="M56.4198 21.9167C56.2431 21.9486 56.0767 22.0224 55.9346 22.1321C55.7925 22.2417 55.6788 22.3839 55.6031 22.5467" stroke="black" stroke-width="0.0466667"/>
</g>
<defs>
<clipPath id="clip0_1_10519">
<rect width="74.6667" height="56" fill="white" transform="translate(0 9.375)"/>
</clipPath>
</defs>
</svg>
