<svg width="75" height="75" viewBox="0 0 75 75" fill="none" xmlns="http://www.w3.org/2000/svg">
<rect width="74.6667" height="74.75" fill="white"/>
<g clip-path="url(#clip0_1_10633)">
<path fill-rule="evenodd" clip-rule="evenodd" d="M0 9.375H112.012V46.5734H0V9.375Z" fill="#B20000"/>
<path fill-rule="evenodd" clip-rule="evenodd" d="M0 46.5734H112.012V65.375H0V46.5734Z" fill="#429F00"/>
<path fill-rule="evenodd" clip-rule="evenodd" d="M0 9.375H12.4044V65.375H0V9.375Z" fill="white"/>
<path fill-rule="evenodd" clip-rule="evenodd" d="M0.590698 10.3266H1.18139V11.2781H0.590698V10.3266ZM2.36276 10.3266H4.13483V11.2781H2.36276V10.3266ZM2.95345 9.375H3.54414V10.3266H2.95345V9.375ZM5.90689 9.375H6.49758V10.3266H5.90689V9.375ZM8.26964 10.3266H10.0417V11.2781H8.26964V10.3266ZM8.86033 9.375H9.45102V10.3266H8.86033V9.375ZM1.77207 11.2781H2.95345V12.2187H1.77207V11.2781ZM3.54414 11.2781H4.72551V12.2187H3.54414V11.2781ZM7.67895 11.2781H8.86033V12.2187H7.67895V11.2781ZM9.45102 11.2781H10.6324V12.2187H9.45102V11.2781ZM1.18139 12.2187H2.36276V13.1703H1.18139V12.2187ZM4.13483 12.2187H5.3162V13.1703H4.13483V12.2187ZM7.08827 12.2187H8.26964V13.1703H7.08827V12.2187ZM10.0417 12.2187H11.2231V13.1703H10.0417V12.2187ZM11.2231 10.3266H11.8138V11.2781H11.2231V10.3266ZM0.590698 13.1703H1.77207V14.1219H0.590698V13.1703ZM4.72551 13.1703H5.90689V14.1219H4.72551V13.1703ZM10.6324 13.1703H11.8138V14.1219H10.6324V13.1703ZM1.18139 16.0141H2.36276V16.9656H1.18139V16.0141ZM1.77207 16.9656H2.95345V17.9172H1.77207V16.9656ZM4.13483 16.025H5.3162V16.9656H4.13483V16.025ZM3.54414 16.9656H4.72551V17.9172H3.54414V16.9656ZM2.36276 17.9172H4.13483V18.8687H2.36276V17.9172Z" fill="#B20000"/>
<path fill-rule="evenodd" clip-rule="evenodd" d="M2.95344 18.8687H3.54413V19.8203H2.95344V18.8687ZM7.08826 16.025H8.26963V16.9656H7.08826V16.025ZM7.67894 16.9656H8.86032V17.9172H7.67894V16.9656ZM10.0417 16.025H11.2231V16.9656H10.0417V16.025ZM9.45101 16.9656H10.6324V17.9172H9.45101V16.9656ZM8.26963 17.9172H10.0417V18.8687H8.26963V17.9172ZM8.86032 18.8687H9.45101V19.8203H8.86032V18.8687ZM5.90688 17.9062H6.49757V18.8578H5.90688V17.9062ZM0 17.9062H0.590688V18.8578H0V17.9062ZM11.8138 17.9062H12.4044V18.8578H11.8138V17.9062ZM2.95344 22.6531H3.54413V23.6047H2.95344V22.6531ZM2.36275 23.6156H4.13482V24.5562H2.36275V23.6156ZM1.77206 24.5562H4.7255V25.5078H1.77206V24.5562ZM8.86032 22.6641H9.45101V23.6156H8.86032V22.6641ZM8.26963 23.6156H10.0417V24.5562H8.26963V23.6156ZM7.67894 24.5562H10.6324V25.5078H7.67894V24.5562ZM8.26963 29.3031H11.2231V30.2547H8.26963V29.3031ZM7.08826 25.5078H11.2231V26.4594H7.08826V25.5078ZM1.18138 25.5078H5.31619V26.4594H1.18138V25.5078ZM1.77206 30.2547H3.54413V31.2062H1.77206V30.2547ZM1.18138 29.3031H4.13482V30.2547H1.18138V29.3031ZM9.45101 27.4219H12.4044V28.3734H9.45101V27.4219ZM8.86032 30.2656H10.6324V31.2172H8.86032V30.2656Z" fill="#B20000"/>
<path fill-rule="evenodd" clip-rule="evenodd" d="M2.36275 31.2063H2.95344V32.1578H2.36275V31.2063ZM9.45101 31.2063H10.0417V32.1578H9.45101V31.2063ZM0 27.4109H2.95344V28.3625H0V27.4109ZM5.31619 29.3031H7.08826V30.2547H5.31619V29.3031ZM5.90688 30.2656H6.49757V31.2172H5.90688V30.2656ZM4.13482 27.4219H8.26963V28.3734H4.13482V27.4219ZM6.49757 13.1703H7.67894V14.1219H6.49757V13.1703ZM5.31619 14.1219H7.08826V15.0734H5.31619V14.1219ZM4.7255 15.0734H5.90688V16.0141H4.7255V15.0734ZM6.49757 15.0734H7.67894V16.0141H6.49757V15.0734ZM0 14.1219H1.18138V15.0734H0V14.1219ZM0.590688 15.0734H1.77206V16.0141H0.590688V15.0734ZM11.2231 14.1219H12.4044V15.0625H11.2231V14.1219ZM10.6324 15.0625H11.8138V16.0031H10.6324V15.0625ZM0 23.5938H0.590688V24.5453H0V23.5938ZM11.8138 23.5938H12.4044V24.5453H11.8138V23.5938ZM5.31619 31.1953H7.08826V32.1469H5.31619V31.1953ZM4.7255 32.1469H5.90688V33.0875H4.7255V32.1469ZM6.49757 32.1469H7.67894V33.0875H6.49757V32.1469ZM4.13482 33.0875H5.31619V34.0391H4.13482V33.0875ZM7.08826 33.0875H8.26963V34.0391H7.08826V33.0875ZM3.54413 34.0391H4.7255V34.9906H3.54413V34.0391ZM7.67894 34.0391H8.86032V34.9906H7.67894V34.0391ZM2.95344 35.0016H4.13482V35.9531H2.95344V35.0016ZM8.26963 35.0016H9.45101V35.9531H8.26963V35.0016ZM1.77206 35.9531H3.54413V36.9047H1.77206V35.9531ZM8.86032 35.9531H10.6324V36.9047H8.86032V35.9531ZM10.0417 35.0016H11.2231V35.9531H10.0417V35.0016ZM10.6324 34.05H11.8138V35.0016H10.6324V34.05ZM11.2231 33.0984H12.4044V34.05H11.2231V33.0984ZM1.18138 35.0016H2.36275V35.9531H1.18138V35.0016ZM0.590688 34.05H1.77206V35.0016H0.590688V34.05ZM0 33.1094H1.18138V34.0609H0V33.1094ZM2.36275 36.9156H2.95344V37.8563H2.36275V36.9156ZM9.45101 36.9156H10.0417V37.8563H9.45101V36.9156ZM5.90688 34.0719H6.49757V35.0125H5.90688V34.0719ZM4.13482 36.9156H4.7255V37.8563H4.13482V36.9156ZM7.67894 36.9156H8.26963V37.8563H7.67894V36.9156ZM5.90688 36.9156H6.49757V37.8563H5.90688V36.9156ZM0 36.9156H0.590688V37.8563H0L0 36.9156ZM11.8138 36.9156H12.4044V37.8563H11.8138V36.9156ZM5.90688 23.6156H6.49757V24.5563H5.90688V23.6156ZM2.95344 14.1219H3.54413V15.0734H2.95344V14.1219ZM8.86032 14.1219H9.45101V15.0734H8.86032V14.1219ZM5.31619 20.7609H7.08826V21.7125H5.31619V20.7609ZM4.13482 21.7125H5.90688V22.6641H4.13482V21.7125ZM4.7255 22.6641H5.31619V23.6156H4.7255V22.6641ZM3.54413 20.7609H4.7255V21.7125H3.54413V20.7609ZM4.13482 19.8203H5.90688V20.7609H4.13482V19.8203ZM4.7255 18.8688H5.31619V19.8203H4.7255V18.8688ZM6.49757 19.8203H8.26963V20.7609H6.49757V19.8203ZM7.08826 18.8688H7.67894V19.8203H7.08826V18.8688ZM7.67894 20.7609H8.86032V21.7125H7.67894V20.7609ZM6.49757 21.7125H8.26963V22.6641H6.49757V21.7125ZM7.08826 22.6641H7.67894V23.6156H7.08826V22.6641ZM9.45101 20.7609H10.6324V21.7125H9.45101V20.7609ZM10.0417 19.8203H11.8138V20.7609H10.0417V19.8203ZM11.2231 20.7609H12.4044V21.7125H11.2231V20.7609ZM10.0417 21.7125H11.8138V22.6641H10.0417V21.7125ZM10.6324 22.6641H11.2231V23.6156H10.6324V22.6641ZM10.6324 18.8688H11.2231V19.8203H10.6324V18.8688ZM0 20.75H1.18138V21.7016H0V20.75ZM0.590688 19.8094H2.36275V20.75H0.590688V19.8094ZM1.77206 20.75H2.95344V21.7016H1.77206V20.75ZM0.590688 21.7016H2.36275V22.6531H0.590688V21.7016Z" fill="#B20000"/>
<path fill-rule="evenodd" clip-rule="evenodd" d="M1.18138 22.6641H1.77206V23.6156H1.18138V22.6641ZM1.18138 18.8687H1.77206V19.8203H1.18138V18.8687ZM0.590688 26.4594H2.95344V27.4109H0.590688V26.4594ZM3.54413 26.4594H5.90688V27.4109H3.54413V26.4594ZM6.49757 26.4594H8.86032V27.4109H6.49757V26.4594ZM9.45101 26.4594H11.8138V27.4109H9.45101V26.4594ZM4.7255 28.3625H7.67894V29.3031H4.7255V28.3625ZM0.590688 28.3625H3.54413V29.3031H0.590688V28.3625ZM8.86032 28.3625H11.8138V29.3031H8.86032V28.3625ZM11.8138 32.1578H12.4044V33.0984H11.8138V32.1578ZM0 32.1578H0.590688V33.0984H0V32.1578ZM0.590688 64.4234H1.18138V63.4828H0.590688V64.4234ZM2.36275 64.4234H4.13482V63.4828H2.36275V64.4234ZM2.95344 65.375H3.54413V64.4234H2.95344V65.375ZM5.90688 65.375H6.49757V64.4234H5.90688V65.375ZM8.26963 64.4234H10.0417V63.4719H8.26963V64.4234ZM8.86032 65.375H9.45101V64.4234H8.86032V65.375ZM1.77206 63.4719H2.95344V62.5312H1.77206V63.4719ZM3.54413 63.4719H4.7255V62.5312H3.54413V63.4719ZM7.67894 63.4719H8.86032V62.5312H7.67894V63.4719ZM9.45101 63.4719H10.6324V62.5312H9.45101V63.4719ZM4.13482 62.5312H5.31619V61.5797H4.13482V62.5312ZM7.08826 62.5312H8.26963V61.5797H7.08826V62.5312ZM10.0417 62.5312H11.2231V61.5797H10.0417V62.5312ZM11.2231 64.4234H11.8138V63.4719H11.2231V64.4234ZM0.590688 61.5797H1.77206V60.6281H0.590688V61.5797ZM4.7255 61.5797H5.90688V60.6281H4.7255V61.5797ZM10.6324 61.5797H11.8138V60.6281H10.6324V61.5797ZM1.18138 58.7359H2.36275V57.7844H1.18138V58.7359ZM1.77206 57.7844H2.95344V56.8328H1.77206V57.7844ZM4.13482 58.7359H5.31619V57.7844H4.13482V58.7359ZM3.54413 57.7844H4.7255V56.8328H3.54413V57.7844ZM2.36275 56.8328H4.13482V55.8812H2.36275V56.8328ZM2.95344 55.8812H3.54413V54.9406H2.95344V55.8812ZM7.08826 58.725H8.26963V57.7844H7.08826V58.725ZM7.67894 57.7844H8.86032V56.8328H7.67894V57.7844ZM10.0417 58.7359H11.2231V57.7844H10.0417V58.7359ZM9.45101 57.7844H10.6324V56.8328H9.45101V57.7844ZM8.26963 56.8328H10.0417V55.8812H8.26963V56.8328ZM8.86032 55.8812H9.45101V54.9406H8.86032V55.8812ZM5.90688 56.8437H6.49757V55.8922H5.90688V56.8437ZM0 56.8437H0.590688V55.8922H0V56.8437ZM11.8138 56.8437H12.4044V55.8922H11.8138V56.8437ZM2.95344 52.0969H3.54413V51.1453H2.95344V52.0969ZM2.36275 51.1344H4.13482V50.1937H2.36275V51.1344ZM1.77206 50.1937H4.7255V49.2422H1.77206V50.1937ZM8.86032 52.0859H9.45101V51.1344H8.86032V52.0859Z" fill="#B20000"/>
<path fill-rule="evenodd" clip-rule="evenodd" d="M8.26963 51.1344H10.0417V50.1937H8.26963V51.1344ZM7.67894 50.1937H10.6324V49.2422H7.67894V50.1937ZM8.26963 45.4469H11.2231V44.4844H8.26963V45.4469ZM7.08826 49.2422H11.2231V48.2906H7.08826V49.2422ZM1.18138 49.2422H5.31619V48.2906H1.18138V49.2422ZM1.77206 44.4953H3.54413V43.5437H1.77206V44.4953ZM1.18138 45.4469H4.13482V44.4844H1.18138V45.4469ZM9.45101 47.3281H12.4044V46.3765H9.45101V47.3281ZM8.86032 44.4844H10.6324V43.5328H8.86032V44.4844ZM0 47.3281H2.95344V46.3765H0V47.3281ZM5.31619 45.4359H7.08826V44.4844H5.31619V45.4359ZM5.90688 44.4844H6.49757V43.5328H5.90688V44.4844ZM4.13482 47.3281H8.26963V46.3765H4.13482V47.3281ZM6.49757 61.5687H7.67894V60.6172H6.49757V61.5687ZM5.31619 60.6172H7.08826V59.6875H5.31619V60.6172ZM4.7255 59.6656H5.90688V58.714H4.7255V59.6656ZM6.49757 59.6656H7.67894V58.714H6.49757V59.6656ZM0 60.6281H1.18138V59.6875H0V60.6281ZM0.590688 59.6765H1.77206V58.7359H0.590688V59.6765ZM11.2231 60.6281H12.4044V59.6875H11.2231V60.6281ZM10.6324 59.6765H11.8138V58.7359H10.6324V59.6765ZM0 51.1562H0.590688V50.2047H0V51.1562ZM11.8138 51.1562H12.4044V50.2047H11.8138V51.1562ZM4.7255 42.6031H5.90688V41.6625H4.7255V42.6031ZM6.49757 42.6031H7.67894V41.6625H6.49757V42.6031ZM4.13482 41.6625H5.31619V40.7109H4.13482V41.6625ZM7.08826 41.6625H8.26963V40.7109H7.08826V41.6625ZM3.54413 40.7109H4.7255V39.7594H3.54413V40.7109ZM7.67894 40.7109H8.86032V39.7594H7.67894V40.7109ZM2.95344 39.7484H4.13482V38.7969H2.95344V39.7484ZM8.26963 39.7484H9.45101V38.7969H8.26963V39.7484ZM1.77206 38.7969H3.54413V37.8453H1.77206V38.7969ZM8.86032 38.7969H10.6324V37.8453H8.86032V38.7969ZM10.0417 39.7484H11.2231V38.7969H10.0417V39.7484ZM10.6324 40.7H11.8138V39.7484H10.6324V40.7ZM11.2231 41.6515H12.4044V40.7H11.2231V41.6515ZM1.18138 39.7484H2.36275V38.7969H1.18138V39.7484ZM0.590688 40.7H1.77206V39.7484H0.590688V40.7ZM0 41.6406H1.18138V40.689H0V41.6406ZM2.36275 37.8344H2.95344V36.8937H2.36275V37.8344ZM5.90688 40.6781H6.49757V39.7375H5.90688V40.6781ZM5.90688 51.1234H6.49757V50.1828H5.90688V51.1234ZM2.95344 60.6172H3.54413V59.6875H2.95344V60.6172ZM8.86032 60.6172H9.45101V59.6875H8.86032V60.6172ZM5.31619 54H7.08826V53.0484H5.31619V54ZM4.13482 53.0484H5.90688V52.0969H4.13482V53.0484ZM4.7255 52.0969H5.31619V51.1453H4.7255V52.0969ZM3.54413 54H4.7255V53.0484H3.54413V54ZM4.13482 54.9297H5.90688V54H4.13482V54.9297ZM4.7255 55.8812H5.31619V54.9406H4.7255V55.8812ZM6.49757 54.9297H8.26963V54H6.49757V54.9297ZM7.08826 55.8812H7.67894V54.9406H7.08826V55.8812ZM7.67894 53.989H8.86032V53.0375H7.67894V53.989ZM6.49757 53.0375H8.26963V52.0859H6.49757V53.0375ZM7.08826 52.0859H7.67894V51.1344H7.08826V52.0859ZM9.45101 54H10.6324V53.0484H9.45101V54ZM10.0417 54.9297H11.8138V54H10.0417V54.9297ZM11.2231 53.989H12.4044V53.0375H11.2231V53.989ZM10.0417 53.0375H11.8138V52.0859H10.0417V53.0375ZM10.6324 52.0859H11.2231V51.1344H10.6324V52.0859ZM10.6324 55.8812H11.2231V54.9406H10.6324V55.8812ZM0 54H1.18138V53.0484H0V54ZM0.590688 54.9297H2.36275V54H0.590688V54.9297Z" fill="#B20000"/>
<path fill-rule="evenodd" clip-rule="evenodd" d="M1.77206 53.9891H2.95344V53.0375H1.77206V53.9891ZM0.590688 53.0375H2.36275V52.0859H0.590688V53.0375ZM1.18138 52.0859H1.77206V51.1344H1.18138V52.0859ZM1.18138 55.8813H1.77206V54.9406H1.18138V55.8813ZM0.590688 48.2906H2.95344V47.3391H0.590688V48.2906ZM3.54413 48.2906H5.90688V47.3391H3.54413V48.2906ZM6.49757 48.2906H8.86032V47.3391H6.49757V48.2906ZM9.45101 48.2906H11.8138V47.3391H9.45101V48.2906ZM4.7255 46.3875H7.67894V45.4469H4.7255V46.3875ZM0.590688 46.3875H3.54413V45.4469H0.590688V46.3875ZM8.86032 46.3875H11.8138V45.4469H8.86032V46.3875ZM11.8138 42.6031H12.4044V41.6406H11.8138V42.6031ZM0 42.6031H0.590688V41.6406H0V42.6031ZM5.31619 37.8453H5.90688V38.7969H5.31619V37.8453ZM6.49757 37.8453H7.08826V38.7969H6.49757V37.8453ZM6.49757 35.9531H7.08826V36.9047H6.49757V35.9531ZM5.31619 35.9531H5.90688V36.9047H5.31619V35.9531ZM1.18138 61.5797H2.36275V62.5312H1.18138V61.5797ZM9.45101 43.5437H10.0417V42.5922H9.45101V43.5437ZM2.36275 43.5437H2.95344V42.5922H2.36275V43.5437ZM5.31619 42.5922H7.08826V43.5437H5.31619V42.5922Z" fill="#B20000"/>
</g>
<defs>
<clipPath id="clip0_1_10633">
<rect width="74.6667" height="56" fill="white" transform="translate(0 9.375)"/>
</clipPath>
</defs>
</svg>
