<svg width="75" height="75" viewBox="0 0 75 75" fill="none" xmlns="http://www.w3.org/2000/svg">
<rect width="74.6667" height="74.75" fill="white"/>
<g clip-path="url(#clip0_1_10651)">
<path d="M17.5154 9.375H57.1419V65.375H17.5154V9.375Z" fill="white"/>
<path d="M-2.29242 9.375H17.5154V65.375H-2.29242V9.375ZM57.142 9.375H76.9498V65.375H57.1529L57.142 9.375ZM23.4545 36.4344L21.9013 36.9594L29.0654 43.2484C29.6123 44.8563 28.8795 45.3266 28.4091 46.1797L36.1748 45.1953L35.9888 53.0156L37.6076 52.9719L37.2466 45.2062L45.0341 46.1359C44.5529 45.1188 44.1263 44.5828 44.5638 42.9641L51.717 37.0031L50.4701 36.5437C49.442 35.7562 50.9076 32.7484 51.1263 30.8453C51.1263 30.8453 46.9591 32.2781 46.6857 31.5234L45.6138 29.4781L41.8185 33.6562C41.4029 33.7547 41.2279 33.5906 41.1295 33.2406L42.8795 24.5125L40.1013 26.0766C39.8716 26.1859 39.642 26.0984 39.4888 25.825L36.8091 20.4656L34.0529 26.0328C33.8451 26.2297 33.6373 26.2516 33.4623 26.1203L30.8154 24.6328L32.4123 33.2844C32.281 33.6344 31.9748 33.7219 31.6248 33.5359L27.9826 29.4125C27.5123 30.1781 27.1951 31.4141 26.5607 31.6984C25.9373 31.9609 23.8263 31.1734 22.4154 30.8672C22.8966 32.6063 24.406 35.4937 23.4545 36.4453V36.4344Z" fill="#D52B1E"/>
</g>
<defs>
<clipPath id="clip0_1_10651">
<rect width="74.6667" height="56" fill="white" transform="translate(0 9.375)"/>
</clipPath>
</defs>
</svg>
