<svg width="75" height="75" viewBox="0 0 75 75" fill="none" xmlns="http://www.w3.org/2000/svg">
<rect width="74.6667" height="74.75" fill="white"/>
<g clip-path="url(#clip0_1_10836)">
<path d="M0 9.375H74.6667V65.375H0V9.375Z" fill="#008000"/>
<path d="M37.3334 45.1567C41.6311 45.1567 45.115 41.6727 45.115 37.375C45.115 33.0773 41.6311 29.5933 37.3334 29.5933C33.0357 29.5933 29.5517 33.0773 29.5517 37.375C29.5517 41.6727 33.0357 45.1567 37.3334 45.1567Z" fill="#FFE000"/>
<path d="M39.76 43.78C43.2974 43.78 46.165 40.9124 46.165 37.375C46.165 33.8376 43.2974 30.97 39.76 30.97C36.2226 30.97 33.355 33.8376 33.355 37.375C33.355 40.9124 36.2226 43.78 39.76 43.78Z" fill="#008000"/>
<path d="M12.81 37.7367C17.3075 37.7367 20.9534 34.0908 20.9534 29.5933C20.9534 25.0959 17.3075 21.45 12.81 21.45C8.31258 21.45 4.66669 25.0959 4.66669 29.5933C4.66669 34.0908 8.31258 37.7367 12.81 37.7367Z" fill="#FFE000"/>
<path d="M12.25 35.7417H14.2917C14.2917 35.7417 14.3733 35.555 14.2683 35.4617C14.1517 35.3683 13.72 35.345 13.8367 35.0183C14.07 34.3417 14.1167 34.5517 14.2683 32.9417C14.3793 31.5632 14.4571 30.1822 14.5017 28.8H14.1983C14.1983 28.8 14.2567 29.5817 14.0817 30.6083C13.9183 31.635 13.86 31.7167 13.6733 32.51C13.5854 32.9564 13.4565 33.3938 13.2883 33.8167C13.125 34.2833 13.1017 34.295 12.845 34.7267C12.5767 35.1467 12.67 34.9833 12.53 35.24C12.4483 35.3683 12.3667 35.3333 12.3083 35.4267C12.2617 35.52 12.25 35.7417 12.25 35.7417Z" fill="#802000" stroke="#7B3100" stroke-width="0.175"/>
<path d="M13.8017 23.6667C13.8284 24.0303 13.7807 24.3955 13.6617 24.74C13.5 25.1005 13.4089 25.4886 13.3933 25.8834C13.1833 25.9534 12.9617 25.4284 12.7517 25.7434C12.9033 26.175 13.265 26.5134 13.4983 26.8984C13.545 27.015 13.895 27.33 13.685 27.4C13.1833 27.225 13.055 26.5834 12.7517 26.1984C12.5741 25.8663 12.3149 25.585 11.9986 25.3809C11.6822 25.1767 11.319 25.0566 10.9433 25.0317C10.6517 25.0434 9.72999 24.9734 9.96332 25.4634C10.3133 25.6967 10.7567 25.86 11.1067 26.1284C11.375 26.1517 11.8417 26.595 11.8183 26.7584C11.3517 26.5717 11.1417 26.35 10.6517 26.1517C9.97499 25.895 9.05332 26.0467 8.66832 26.7117C8.60999 26.8867 8.50499 27.3884 8.72665 27.4467C8.98332 27.05 9.34499 26.595 9.88165 26.7234C10.3017 26.7584 9.41499 27.505 9.75332 27.3534C9.86999 27.3067 10.1033 27.1434 10.29 27.12C10.465 27.12 10.5583 27.2367 10.6867 27.26C10.955 27.295 11.0367 27.4 11.0017 27.47C10.9783 27.54 10.885 27.47 10.6167 27.5634C10.4883 27.61 10.4183 27.7267 10.2667 27.785C10.1033 27.8317 9.77665 27.8434 9.65999 27.785C9.22832 27.61 8.52832 27.6334 8.39999 28.17C8.39999 28.4034 8.18999 28.1467 8.09665 28.2517C8.01499 28.5084 8.00332 28.765 7.62999 28.7417C7.39665 28.975 7.16332 29.2317 6.85999 29.4067C7.03499 29.8034 7.71165 29.01 7.67665 29.3484C7.38499 29.7567 7.83999 29.8384 8.02665 29.5234C8.36499 29.1734 8.78499 28.7417 9.27499 29.1034C9.50832 29.325 9.64832 28.9867 9.82332 28.9867C9.93999 29.2784 10.0683 29.01 10.1967 28.9284C10.395 28.905 10.3367 29.185 10.57 29.01C11.0483 28.695 11.6317 28.9634 12.0983 28.66C12.6 28.4267 12.1683 28.835 12.04 28.9984C11.8183 29.4184 12.005 29.9784 11.5383 30.235C11.34 30.7367 11.76 31.4017 11.34 31.775C11.2817 32.0084 11.8767 31.985 12.04 32.0784C12.3433 32.0784 12.04 31.4017 12.3317 31.3084C12.7283 31.5417 12.705 30.865 12.6233 30.655C12.67 30.1884 12.6933 29.6517 12.9267 29.22C13.1833 28.695 13.4167 29.4417 13.1367 29.6517C12.9733 30.13 12.74 30.7484 13.1017 31.2034C13.2183 31.2267 13.3 31.4834 13.4283 31.5534C13.5683 31.635 13.755 31.5417 13.7783 31.3084C13.965 30.6084 13.8717 29.8617 14.1283 29.1734C14.3033 28.9634 14.5483 29.1384 14.6533 29.3367C15.0033 29.745 15.2483 30.2467 15.6683 30.585C16.0659 30.7476 16.3898 31.0507 16.5783 31.4367C16.5783 31.74 17.4417 31.7867 17.185 31.4367C16.94 31.1217 17.1033 30.7834 17.3483 30.5617C17.4883 30.5967 17.4533 30.3517 17.3483 30.445C17.1733 30.41 17.1617 30.095 17.395 30.2467C17.8033 30.375 17.3717 29.955 17.22 29.9434C16.8817 29.7334 16.4967 29.5 16.3333 29.1267C16.7767 29.1267 17.2317 29.3717 17.675 29.2317C18.0367 29.045 18.3983 29.2317 18.5267 29.5584C18.8067 29.5117 18.69 29.2317 18.5267 29.1384C18.725 29.0567 18.8767 28.8817 18.62 28.73C18.5033 28.5667 18.795 28.2634 18.4217 28.2867C18.4333 27.995 18.3283 27.7384 18.0133 27.6334C17.6983 27.3767 16.7767 28.03 16.8117 27.435C16.7183 27.1084 17.185 27.3884 17.3133 27.225C17.4417 26.875 16.6717 26.9217 16.9283 26.6417C17.0917 26.5484 17.8733 26.3967 17.2667 26.28C17.1295 26.3202 16.9851 26.3296 16.8439 26.3074C16.7027 26.2852 16.5682 26.232 16.45 26.1517C16.2283 26.5134 15.61 25.9417 15.715 26.595C15.6333 26.84 15.0733 27.4817 14.9217 26.9917C15.0383 26.6067 15.715 26.49 15.505 25.965C15.47 25.65 15.2017 26.0234 15.085 26C15.015 25.8017 15.2717 25.5567 15.4583 25.51C15.8083 25.79 15.8083 25.16 16.1583 25.2184C16.4033 25.16 16.0767 25.055 16.0067 25.0084C16.0767 24.8334 16.4617 24.74 16.0883 24.5767C15.75 24.3434 15.505 24.8217 15.2367 24.845C14.98 24.5534 15.47 24.4134 15.61 24.2617C15.6217 24.145 15.33 24.2267 15.4117 24.1217C15.4933 23.9934 16.0183 23.9817 15.7617 23.7717C15.3694 23.652 14.9472 23.6768 14.5717 23.8417C14.3383 23.9117 14.28 24.425 14.0817 24.4017C14 24.1684 14.1167 23.725 13.8017 23.6667ZM15.5517 28.6017C15.8317 28.555 15.5517 29.0334 15.435 29.0217C15.435 28.8584 15.015 28.87 15.2833 28.7184C15.3654 28.6643 15.4561 28.6248 15.5517 28.6017Z" fill="#008000"/>
<path d="M56.0069 47.1564L56.521 48.7551L58.0916 48.1602L57.1626 49.5596L58.6072 50.4168L56.9329 50.5627L57.1633 52.2266L56.0069 51.0087L54.8497 52.2259L55.0801 50.5627L53.4066 50.416L54.8512 49.5589L53.9214 48.1595L55.492 48.7543L56.0069 47.1564Z" fill="#FFE000"/>
<path d="M46.6723 32.3768L47.1865 33.9755L48.7571 33.3806L47.828 34.78L49.2727 35.6372L47.5984 35.7831L47.8288 37.447L46.6723 36.2291L45.5152 37.4463L45.7456 35.7831L44.072 35.6364L45.5166 34.7793L44.5869 33.3799L46.1575 33.9747L46.6723 32.3768Z" fill="#FFE000"/>
<path d="M56.0069 22.2644L56.521 23.8631L58.0916 23.2682L57.1626 24.6677L58.6072 25.5248L56.9329 25.6708L57.1633 27.3347L56.0069 26.1167L54.8497 27.3339L55.0801 25.6708L53.4066 25.5241L54.8512 24.6669L53.9214 23.2675L55.492 23.8624L56.0069 22.2644Z" fill="#FFE000"/>
<path d="M64.3042 29.8876L64.8183 31.4863L66.3889 30.8914L65.4599 32.2908L66.9045 33.148L65.2302 33.2939L65.4606 34.9578L64.3042 33.7399L63.147 34.9571L63.3774 33.2939L61.7039 33.1472L63.1485 32.2901L62.2187 30.8907L63.7893 31.4856L64.3042 29.8876Z" fill="#FFE000"/>
<path d="M59.7407 37.3774L60.1474 38.3738L61.2201 38.4523L60.3978 39.1472L60.6549 40.1918L59.7407 39.6243L58.8265 40.1925L59.0828 39.148L58.2605 38.4531L59.3347 38.3745L59.7407 37.3774Z" fill="#FFE000"/>
</g>
<defs>
<clipPath id="clip0_1_10836">
<rect width="74.6667" height="56" fill="white" transform="translate(0 9.375)"/>
</clipPath>
</defs>
</svg>
