<svg width="75" height="75" viewBox="0 0 75 75" fill="none" xmlns="http://www.w3.org/2000/svg">
<rect width="74.6667" height="74.75" fill="white"/>
<g clip-path="url(#clip0_1_10879)">
<path d="M0 9.375H74.6667V65.375H0V9.375Z" fill="#003399"/>
<path d="M37.3334 42.065C39.2922 42.065 40.8801 40.4771 40.8801 38.5183C40.8801 36.5596 39.2922 34.9717 37.3334 34.9717C35.3746 34.9717 33.7867 36.5596 33.7867 38.5183C33.7867 40.4771 35.3746 42.065 37.3334 42.065Z" stroke="#FFCC00" stroke-width="3.20655"/>
<path d="M37.3335 48.82C43.0229 48.82 47.6351 44.2078 47.6351 38.5183C47.6351 32.8289 43.0229 28.2167 37.3335 28.2167C31.644 28.2167 27.0318 32.8289 27.0318 38.5183C27.0318 44.2078 31.644 48.82 37.3335 48.82Z" stroke="#FFCC00" stroke-width="3.20655"/>
<path d="M47.2124 28.6378L57.0954 38.5208L47.2124 48.4037L37.3294 38.5208L47.2124 28.6378Z" fill="#003399"/>
<path d="M20.4984 36.92H27.4051V40.1283H20.4984V36.92Z" fill="#FFCC00"/>
<path d="M50.7267 36.92H61.0284V40.1283H50.7267V36.92Z" fill="#FFCC00"/>
<path d="M42.3535 31.2364L46.8742 26.7156L49.1429 28.9843L44.6221 33.505L42.3535 31.2364Z" fill="#FFCC00"/>
<path d="M35.735 15.045H38.9434V27.54H35.735V15.045Z" fill="#FFCC00"/>
<path d="M26.2617 29.5933C27.1445 29.5933 27.8601 28.8777 27.8601 27.995C27.8601 27.1123 27.1445 26.3967 26.2617 26.3967C25.379 26.3967 24.6634 27.1123 24.6634 27.995C24.6634 28.8777 25.379 29.5933 26.2617 29.5933Z" fill="#FFCC00"/>
<path d="M16.8351 40.1166C17.7178 40.1166 18.4334 39.4011 18.4334 38.5183C18.4334 37.6356 17.7178 36.92 16.8351 36.92C15.9524 36.92 15.2368 37.6356 15.2368 38.5183C15.2368 39.4011 15.9524 40.1166 16.8351 40.1166Z" fill="#FFCC00"/>
<path d="M37.3334 55.47C38.2161 55.47 38.9317 54.7544 38.9317 53.8716C38.9317 52.9889 38.2161 52.2733 37.3334 52.2733C36.4506 52.2733 35.735 52.9889 35.735 53.8716C35.735 54.7544 36.4506 55.47 37.3334 55.47Z" fill="#FFCC00"/>
<path d="M37.3334 60.615C38.2161 60.615 38.9317 59.8994 38.9317 59.0167C38.9317 58.1339 38.2161 57.4183 37.3334 57.4183C36.4506 57.4183 35.735 58.1339 35.735 59.0167C35.735 59.8994 36.4506 60.615 37.3334 60.615Z" fill="#FFCC00"/>
<path d="M47.6351 40.1166C48.5178 40.1166 49.2334 39.4011 49.2334 38.5183C49.2334 37.6356 48.5178 36.92 47.6351 36.92C46.7523 36.92 46.0367 37.6356 46.0367 38.5183C46.0367 39.4011 46.7523 40.1166 47.6351 40.1166Z" fill="#FFCC00"/>
<path d="M24.3033 49.2205L26.572 46.9518L28.8406 49.2205L26.572 51.4891L24.3033 49.2205Z" fill="#FFCC00"/>
<path d="M48.1941 51.6624L50.4628 49.3937L52.7314 51.6624L50.4628 53.931L48.1941 51.6624Z" fill="#FFCC00"/>
</g>
<defs>
<clipPath id="clip0_1_10879">
<rect width="74.6667" height="56" fill="white" transform="translate(0 9.375)"/>
</clipPath>
</defs>
</svg>
