<svg width="75" height="75" viewBox="0 0 75 75" fill="none" xmlns="http://www.w3.org/2000/svg">
<rect width="74.6667" height="74.75" fill="white"/>
<g clip-path="url(#clip0_1_10858)">
<path d="M0 9.375H74.6667V65.375H0V9.375Z" fill="#000066"/>
<path fill-rule="evenodd" clip-rule="evenodd" d="M55.0199 34.225L55.6266 32.2767L53.9932 31.04L56.0466 31.0167L56.7466 29.0917L57.3999 31.0167L59.4649 31.075L57.8199 32.3L58.4033 34.2483L56.7116 33.0817M59.8733 34.5983L61.0866 32.9767L59.9549 31.25L61.9032 31.9267L63.1866 30.3517V32.405L65.0999 33.1517L63.1399 33.735L63.0466 35.7767L61.8566 34.0967M50.3766 35.8467L50.2949 33.805L48.3349 33.1983L50.2833 32.475V30.445L51.5549 32.02L53.5149 31.3667L52.3716 33.0817L53.5733 34.715L51.5899 34.19M46.9699 38.9617L46.1066 37.1183L44.0766 37.3283L45.5699 35.8933L44.7999 33.9917L46.5733 34.9483L48.1249 33.5717L47.7283 35.6017L49.4666 36.64L47.4483 36.9317M45.3833 43.4183L43.8316 42.1233L42.0816 43.1967L42.8283 41.2483L41.3233 39.895L43.3416 39.9767L44.1583 38.0633L44.6599 40.07L46.6666 40.245L44.9633 41.3883M45.3366 48.435L43.4116 47.875L42.2333 49.5667L42.1516 47.4783L40.2383 46.8367L42.1166 46.1133V44.0133L43.3649 45.6583L45.2783 45.005L44.1583 46.755M47.5999 52.6817L45.6166 52.9617L45.2083 54.9917L44.2983 53.125L42.3033 53.3117L43.7266 51.8767L42.8983 49.9633L44.6833 50.955L46.1766 49.5783L45.8499 51.6083M51.0999 56.0417L49.3383 56.9983L49.6416 59.0517L48.1599 57.605L46.3399 58.4917L47.1916 56.6367L45.7566 55.1317L47.7749 55.435L48.7083 53.6267L49.1049 55.6567M55.3816 56.7067L54.4132 58.4917L55.7783 60.0317L53.7483 59.6467L52.7099 61.3967L52.4299 59.3783L50.4233 58.9117L52.2666 58.0483L52.0682 56.0067L53.4916 57.5M60.1883 55.9717L60.1299 58.0017L62.0316 58.7483L60.0483 59.3317L59.9083 61.3733L58.7416 59.705L56.7583 60.2183L58.0182 58.5967L56.9216 56.8817L58.8582 57.5467M65.2166 33.8517L66.6166 35.3217L68.4716 34.4583L67.5032 36.3017L68.8449 37.83L66.8616 37.5033L65.8116 39.3117L65.5666 37.2583L63.5833 36.85L65.4149 35.9167M69.4049 38.3667L70.0466 40.3033L72.0883 40.3383L70.4316 41.5867L70.9799 43.5467L69.3349 42.38L67.6316 43.5583L68.2616 41.5983L66.6516 40.3617L68.7049 40.315M70.9799 44.1883L70.7466 46.2183L72.5782 47.1167L70.5599 47.5367L70.2449 49.555L69.2299 47.7933L67.1999 48.1317L68.5999 46.615L67.6549 44.8067L69.5216 45.6467M69.8716 50.29L68.9616 52.11L70.3499 53.5917L68.3199 53.2767L67.3399 55.0617L66.9899 53.0433L64.9599 52.6583L66.7799 51.725L66.5116 49.695L67.9816 51.13M66.8383 55.6917L65.1233 56.765L65.5666 58.7833L63.9916 57.4417L62.2416 58.445L62.9766 56.5433L61.4483 55.1317L63.4782 55.3067L64.2949 53.44L64.8083 55.4467" fill="white"/>
<path d="M0 9.375H37.3333V37.375H0V9.375Z" fill="#000066"/>
<path d="M4.375 9.375L18.6083 19.9333L32.7833 9.375H37.3333V12.9917L23.3333 23.4333L37.3333 33.8167V37.375H32.6667L18.6667 26.9333L4.725 37.375H0V33.875L13.9417 23.4917L0 13.1083V9.375H4.375Z" fill="white"/>
<path d="M24.7333 25.7667L37.3333 35.0417V37.375L21.525 25.7667H24.7333ZM14 26.9333L14.35 28.975L3.15 37.375H0L14 26.9333ZM37.3333 9.375V9.55L22.8083 20.5167L22.925 17.95L34.4167 9.375H37.3333ZM0 9.375L13.9417 19.6417H10.4417L0 11.825V9.375Z" fill="#C8102E"/>
<path d="M14.0583 9.375V37.375H23.3917V9.375H14.0583ZM0 18.7083V28.0417H37.3333V18.7083H0Z" fill="white"/>
<path d="M0 20.6333V26.2333H37.3333V20.6333H0ZM15.925 9.375V37.375H21.525V9.375H15.925Z" fill="#C8102E"/>
</g>
<defs>
<clipPath id="clip0_1_10858">
<rect width="74.6667" height="56" fill="white" transform="translate(0 9.375)"/>
</clipPath>
</defs>
</svg>
