<svg width="75" height="75" viewBox="0 0 75 75" fill="none" xmlns="http://www.w3.org/2000/svg">
<rect width="74.6667" height="74.75" fill="white"/>
<g clip-path="url(#clip0_1_10864)">
<path d="M0 9.375H24.885V65.375H0V9.375Z" fill="#007A5E"/>
<path d="M24.885 9.375H49.7817V65.375H24.885V9.375Z" fill="#CE1126"/>
<path d="M49.7817 9.375H74.6667V65.375H49.7817V9.375Z" fill="#FCD116"/>
<path d="M37.3333 30.7379L35.259 37.0425L38.4113 38.1205L37.3333 30.7367V30.7379Z" fill="#FCD116"/>
<path d="M37.3333 30.7379L39.4077 37.0425L36.2553 38.1205L37.3333 30.7367V30.7379Z" fill="#FCD116"/>
<path d="M43.645 35.324L37.0078 35.2995L36.9565 38.6315L43.645 35.324Z" fill="#FCD116"/>
<path d="M43.645 35.324L38.2888 39.2451L36.2892 36.5805L43.645 35.324Z" fill="#FCD116"/>
<path d="M41.2347 42.744L39.207 36.4242L36.022 37.4042L41.2347 42.744Z" fill="#FCD116"/>
<path d="M41.2347 42.744L35.8505 38.8625L37.7673 36.1371L41.2347 42.7451V42.744Z" fill="#FCD116"/>
<path d="M33.432 42.744L38.8162 38.8625L36.8993 36.1371L33.432 42.7451V42.744Z" fill="#FCD116"/>
<path d="M33.432 42.744L35.4597 36.4242L38.6447 37.4042L33.432 42.744Z" fill="#FCD116"/>
<path d="M31.0217 35.324L36.3778 39.2451L38.3775 36.5805L31.0217 35.324Z" fill="#FCD116"/>
<path d="M31.0217 35.324L37.6588 35.2995L37.7102 38.6315L31.0217 35.324Z" fill="#FCD116"/>
</g>
<defs>
<clipPath id="clip0_1_10864">
<rect width="74.6667" height="56" fill="white" transform="translate(0 9.375)"/>
</clipPath>
</defs>
</svg>
