<svg width="75" height="75" viewBox="0 0 75 75" fill="none" xmlns="http://www.w3.org/2000/svg">
<rect width="75" height="75" fill="white"/>
<g clip-path="url(#clip0_1_10905)">
<path d="M0 9.375H75V65.625H0V9.375Z" fill="#EE1C25"/>
<path d="M9.00005 30.1875L14.0625 15L19.1249 30.1875L5.62509 20.9062H22.4999L9.00005 30.1875Z" fill="#FFFF00"/>
<path d="M30.9575 15.2911L25.7476 16.4456L29.2228 12.396L28.882 17.8462L25.9908 13.0211L30.9575 15.2911Z" fill="#FFFF00"/>
<path d="M36.2155 21.9548L30.9657 20.9983L35.7394 18.6135L33.3115 23.505L32.5179 17.9362L36.2155 21.9548Z" fill="#FFFF00"/>
<path d="M35.4492 31.3036L31.0459 28.2891L36.3772 28.0587L32.1655 31.5346L33.7121 26.1264L35.4492 31.3036Z" fill="#FFFF00"/>
<path d="M28.8268 37.411L25.9295 32.9298L30.9361 34.7764L25.7086 36.3558L29.224 31.9646L28.8268 37.411Z" fill="#FFFF00"/>
</g>
<defs>
<clipPath id="clip0_1_10905">
<rect width="75" height="56.25" fill="white" transform="translate(0 9.375)"/>
</clipPath>
</defs>
</svg>
