<svg width="75" height="75" viewBox="0 0 75 75" fill="none" xmlns="http://www.w3.org/2000/svg">
<rect width="74.6667" height="74.75" fill="white"/>
<g clip-path="url(#clip0_1_20723)">
<path fill-rule="evenodd" clip-rule="evenodd" d="M-0.0346878 34.9273H92.7872V57.5186H-0.0456543L-0.0346878 34.9273Z" fill="white"/>
<path fill-rule="evenodd" clip-rule="evenodd" d="M0.0311279 9.375H92.8091V37.5155H0.0311279V9.375ZM0.0640283 51.6954H93.511V65.5243H0.0640283V51.6954Z" fill="#081873"/>
<path fill-rule="evenodd" clip-rule="evenodd" d="M0.0640259 42.5601H92.842V46.9029H0.0640259V42.5601Z" fill="#DE3929"/>
<path fill-rule="evenodd" clip-rule="evenodd" d="M27.8645 53.154L28.5883 55.3912H30.9352L29.027 56.7839L29.7508 59.0321L27.8645 57.6284L25.9563 59.0211L26.6911 56.773L24.7829 55.3802H27.1407M48.2625 36.8356L48.9973 39.0837H51.3332L49.425 40.4655L50.1488 42.7137L48.2406 41.3209L46.3324 42.7137L47.0562 40.4655L45.148 39.0837H47.5168M23.1708 46.1463L23.8946 48.3944H26.2524L24.3552 49.7982L25.0899 52.0354L23.1817 50.6536L21.2735 52.0354L21.9973 49.7982L20.0891 48.4054H22.447M48.2625 45.5102L48.9973 47.7474H51.3332L49.425 49.1402L50.1488 51.3774L48.2406 49.9956L46.3324 51.3883L47.0562 49.1402L45.148 47.7474H47.5168M43.0753 30.0143L43.81 32.2515H46.1788L44.2706 33.6443L44.9944 35.8924L43.0862 34.4997L41.178 35.8924L41.9128 33.6443L39.9936 32.2515H42.3624M35.2889 27.2946L36.0237 29.5427H38.3815L36.4733 30.9245L37.1971 33.1727L35.2889 31.7909L33.3807 33.1727L34.1155 30.9245L32.2073 29.5427H34.5542M27.4807 29.8608L28.2154 32.1089H30.5733L28.6651 33.4907L29.3998 35.7389L27.4807 34.3461L25.5725 35.7389L26.3072 33.4907L24.399 32.1089H26.7678M22.9514 36.8465L23.6752 39.0947H26.044L24.1249 40.4765L24.8596 42.7247L22.9514 41.3319L21.0432 42.7247L21.767 40.4765L19.8588 39.0947H22.2167M35.2889 55.4789L36.0237 57.7271H38.3815L36.4733 59.1089L37.2081 61.357L35.2889 59.9643L33.3807 61.357L34.1155 59.1089L32.2073 57.7271H34.5542M43.5688 53.154L44.2926 55.3912H46.6504L44.7532 56.7839L45.4879 59.0321L43.5797 57.6393L41.6606 59.0321L42.3953 56.7839L40.4871 55.3912H42.845" fill="#FFCE08"/>
</g>
<defs>
<clipPath id="clip0_1_20723">
<rect width="74.6667" height="56" fill="white" transform="translate(0 9.375)"/>
</clipPath>
</defs>
</svg>
