<svg width="75" height="75" viewBox="0 0 75 75" fill="none" xmlns="http://www.w3.org/2000/svg">
<rect width="74.6667" height="74.75" fill="white"/>
<g clip-path="url(#clip0_1_20684)">
<path d="M0 9.375H74.6667V65.375H0V9.375Z" fill="#0021AD"/>
<path d="M0 9.375H74.6667V65.375L0 9.375Z" fill="#1C8A42"/>
<path d="M37.3333 44.1183C41.0576 44.1183 44.0767 41.0992 44.0767 37.375C44.0767 33.6507 41.0576 30.6317 37.3333 30.6317C33.6091 30.6317 30.59 33.6507 30.59 37.375C30.59 41.0992 33.6091 44.1183 37.3333 44.1183Z" fill="#FFC639"/>
<path d="M33.215 34.3417C33.6817 34.9833 34.3817 36.045 34.9417 35.765C35.3733 35.765 35.6067 35.8 35.665 36.0917C36.3956 36.1639 37.1327 36.0487 37.8063 35.7567C38.48 35.4648 39.0681 35.0059 39.515 34.4233C39.515 34.4233 39.6083 34.4233 39.5733 33.8983C39.5733 33.665 39.9 33.7117 39.9 33.7817C39.9467 33.8983 39.9467 33.98 40.005 33.9917C40.1217 33.945 40.32 33.6417 40.4717 33.455C40.5067 33.3733 40.4833 33.28 40.495 33.175C40.5767 32.9767 40.775 33.0233 40.8217 33.1283L40.8917 33.315C41.1017 33.455 41.475 33.315 41.4983 33.315C41.5333 33.1517 41.6383 33.175 41.6383 33.175C41.7783 33.14 41.72 33.1517 41.8133 33.1983C41.7317 34.0967 41.9883 34.1317 41.965 34.5983C41.9767 35.1117 41.8133 35.2517 41.8133 35.45C41.86 35.6833 42.63 35.695 42.35 35.905C42.1167 36.0217 42.35 36.255 42 36.3483C40.9733 36.8733 40.7867 37.3167 40.7867 37.3167C40.7867 37.3167 40.53 37.8067 40.495 37.8067C40.32 38.1333 40.11 37.9467 39.9817 38.11C39.9233 38.3083 39.865 38.7517 39.9817 38.9733C40.04 39.2883 39.9817 39.4633 39.9 39.7783C39.83 40.4317 39.5733 40.5367 39.5383 40.7583C39.4217 41.015 39.5617 42.1583 39.445 42.1583C38.6867 42.1817 38.1033 42.0183 37.8 41.96C38.0917 40.6883 37.975 39.58 37.975 39.4633C37.905 38.5533 36.6217 38.775 36.4233 38.6467C36.26 38.6233 36.155 38.495 36.1083 38.4367C35.9217 38.4133 35.8517 38.3667 35.6767 38.355C35.5833 38.4017 35.6417 38.4483 35.4433 38.5067C34.9183 38.565 34.6967 38.0633 34.6967 38.0633C34.72 37.8883 33.5417 38.0983 32.9117 37.9467C32.6433 38.0983 32.5267 38.53 32.3167 38.5767C32.3167 38.705 31.9667 38.46 31.8967 38.3433C31.8733 37.9467 32.2233 37.7833 32.2233 37.7833C32.5033 37.585 32.6667 37.55 32.8067 37.4217C32.865 37.0833 32.83 36.8383 32.9817 36.5933C33.0983 36.395 33.2733 36.4767 33.39 36.4067C33.5183 36.3133 33.5767 35.7533 33.46 35.59L32.9117 35.1C32.7483 34.6217 33.11 34.3067 33.215 34.3417Z" fill="#1C8A42"/>
<path d="M65.555 25.9883C65.2517 24.7867 62.5217 22.1733 60.4567 20.5167C59.9667 20.19 59.64 20.3883 59.71 20.8667C59.9667 21.2867 60.1533 21.7533 60.41 22.185C60.48 22.4767 60.62 22.675 60.69 22.955C60.69 22.955 60.7133 23.445 60.76 23.4917C61.39 24.1917 61.4833 24.7867 61.4833 24.7867C61.8049 25.4766 62.2611 26.0954 62.825 26.6067C63.5483 27.0617 63.0117 28.4733 63.035 29.2317C63.035 29.6983 62.6967 29.6517 62.3933 29.5817C60.0483 27.4233 57.715 27.4233 55.65 26.7933C54.8567 26.7117 54.8333 27.0967 55.1017 27.3067C56.3874 28.7389 57.936 29.9112 59.6633 30.76L60.5617 31.32L61.5883 32.1717C62.3817 32.685 62.44 33.1517 62.44 33.1983C62.4633 34.155 61.95 34.9017 61.7983 35.205C61.53 36.22 60.9817 36.395 60.9817 36.395C56.595 39.3583 54.285 40.1283 47.1683 39.2067C47.0517 39.16 46.375 39.265 47.1683 39.5567C48.9767 40.1633 53.4333 41.1317 57.7383 39.09C58.7883 38.3667 59.465 38.6 60.2233 38.1567C61.2894 37.4965 62.3917 36.8967 63.525 36.36C64.4933 35.835 67.1767 35.2633 67.795 34.75C68.5067 34.6917 69.2417 34.5983 69.2883 33.9917C69.5217 33.84 69.8717 33.9567 70.1283 33.455C70.6883 33.35 70.595 33.1517 70.595 33.1517C70.455 32.755 69.9183 32.5917 69.545 32.3C68.985 32.1133 68.6117 32.0667 68.2033 32.2533L67.8183 32.4283C67.8183 32.4283 67.2233 32.3467 67.2233 32.3C65.8933 32.23 66.0217 27.8317 65.555 26V25.9883Z" fill="#FFC639"/>
<path d="M68.67 33.1983C68.6606 33.2246 68.6432 33.2481 68.6188 33.2675C68.5943 33.2868 68.5632 33.3016 68.5274 33.311C68.4915 33.3204 68.4515 33.3242 68.4098 33.3222C68.368 33.3203 68.3252 33.3126 68.2838 33.2995C68.2424 33.2865 68.2033 33.2684 68.1687 33.2463C68.134 33.2242 68.1045 33.1985 68.0819 33.1707C68.0593 33.1429 68.0439 33.1135 68.0367 33.0842C68.0295 33.0549 68.0306 33.0263 68.04 33C68.0589 32.9469 68.1102 32.9063 68.1826 32.8874C68.255 32.8684 68.3427 32.8725 68.4262 32.8988C68.5097 32.9251 68.5824 32.9714 68.6281 33.0276C68.6738 33.0838 68.6889 33.1452 68.67 33.1983Z" fill="#1C8A42"/>
<path d="M14.0523 32.9697L13.0965 32.0737L12.1333 32.9547L12.2379 31.6555L10.9461 31.4465L12.0288 30.7147L11.3867 29.5798L12.6336 29.9755L13.1189 28.7659L13.5893 29.983L14.8363 29.6097L14.1792 30.7297L15.2544 31.4763L13.9627 31.663L14.0523 32.9622V32.9697Z" fill="white"/>
<path d="M17.4272 43.759L16.3968 43.0796L15.3963 43.7964L15.7547 42.639L14.7392 41.9297L15.9787 41.8998L16.352 40.7425L16.7701 41.8849L18.0171 41.8774L17.024 42.6017L17.4197 43.7516L17.4272 43.759Z" fill="white"/>
</g>
<defs>
<clipPath id="clip0_1_20684">
<rect width="74.6667" height="56" fill="white" transform="translate(0 9.375)"/>
</clipPath>
</defs>
</svg>
