<svg width="75" height="75" viewBox="0 0 75 75" fill="none" xmlns="http://www.w3.org/2000/svg">
<rect width="74.6667" height="74.75" fill="white"/>
<g clip-path="url(#clip0_1_20740)">
<path d="M0 9.375H74.6667V65.375H0V9.375Z" fill="white"/>
<path d="M35.91 55.8783C35.9009 55.872 35.893 55.8641 35.8866 55.855H35.875L35.7233 55.6917L35.28 55.1667L34.7083 54.4317L34.6383 54.3267L33.915 54.105L33.3783 53.86L33.6583 53.545L34.6383 53.9533L35.3616 54.105L36.7033 55.0967L36.3183 55.435C36.1813 55.5626 36.0527 55.699 35.9333 55.8433L36.015 55.785L36.1083 55.855L35.9216 55.8783H35.91ZM30.94 54.385C30.2821 54.3791 29.6378 54.1979 29.0733 53.86C29.0733 53.86 29.155 53.7083 29.3416 53.58C29.5283 53.44 29.855 53.2883 30.3916 53.2767C31.0216 53.2767 31.7916 53.4983 32.6666 53.9067C32.1438 54.2154 31.5471 54.3766 30.94 54.3733V54.385ZM28.1983 53.7783C28.0816 53.7783 27.965 53.7317 27.895 53.6617C27.8288 53.5809 27.7846 53.4845 27.7666 53.3817C27.7357 53.2519 27.7239 53.1182 27.7316 52.985C27.7803 52.9677 27.8317 52.9598 27.8833 52.9617C28.1166 52.9617 28.3033 53.16 28.385 53.3583C28.4316 53.475 28.4433 53.5683 28.4083 53.65C28.385 53.72 28.2916 53.7667 28.1983 53.7667V53.7783ZM33.0166 53.2183C31.395 52.985 30.7067 52.4017 30.415 51.9467C30.1117 51.4683 30.1817 51.0133 30.1817 51.0133C30.1817 51.0133 30.275 50.99 30.415 50.99C30.8583 50.99 31.955 51.2117 33.0166 53.2067V53.2183ZM29.6916 52.8917C29.0033 52.8917 28.4783 52.775 28.1283 52.5417C27.9787 52.4477 27.8577 52.3145 27.7783 52.1567C27.7533 52.0972 27.7376 52.0342 27.7316 51.97C27.9977 51.8591 28.2835 51.8035 28.5716 51.8067C28.988 51.8216 29.3974 51.919 29.7758 52.0932C30.1543 52.2675 30.4945 52.515 30.7766 52.8217C30.38 52.8683 30.0183 52.8917 29.6916 52.8917ZM26.3433 52.775C25.62 52.775 24.6166 52.5417 23.9866 51.9233C23.9866 51.9233 24.675 51.7483 25.4333 51.725H25.5733C26.2616 51.725 26.7866 51.8533 27.1367 52.1217C27.2533 52.215 27.3233 52.2967 27.335 52.3783C27.3466 52.4483 27.3116 52.5183 27.2416 52.5767C27.0783 52.6933 26.7983 52.7633 26.4016 52.7633H26.3433V52.775ZM23.975 51.55C23.9299 51.5491 23.8855 51.5382 23.8451 51.518C23.8048 51.4978 23.7694 51.4689 23.7416 51.4333C23.6929 51.3638 23.6609 51.2839 23.6483 51.2C23.6133 51.0367 23.625 50.8733 23.625 50.8617C23.6618 50.8456 23.7015 50.8376 23.7416 50.8383C23.8466 50.8383 23.9283 50.8967 23.975 50.955C24.0459 51.0198 24.1017 51.0995 24.1383 51.1883C24.1616 51.2933 24.1733 51.375 24.1383 51.445C24.1383 51.4917 24.0683 51.5617 23.9866 51.5617L23.975 51.55ZM29.4466 51.4333C29.33 51.4333 29.2133 51.3867 29.1433 51.3167C29.0772 51.2359 29.033 51.1395 29.015 51.0367C28.984 50.9069 28.9722 50.7732 28.98 50.64C29.0286 50.6227 29.0801 50.6148 29.1316 50.6167C29.365 50.6167 29.5633 50.815 29.6333 51.0133C29.68 51.13 29.6916 51.2233 29.6683 51.305C29.6333 51.375 29.5516 51.4217 29.435 51.4217L29.4466 51.4333ZM26.7866 51.3167C25.3166 51.27 24.5466 50.85 24.1733 50.5C24.0106 50.3593 23.876 50.1891 23.7766 49.9983C23.7183 49.8817 23.695 49.7883 23.695 49.765C23.695 49.7417 23.835 49.7183 24.045 49.7183H24.0916C24.5816 49.7183 25.5966 49.9283 26.775 51.3167H26.7866ZM28.3733 51.1767C27.5336 51.0854 26.753 50.7012 26.1683 50.0917C25.9531 49.8562 25.7901 49.5779 25.69 49.275C25.69 49.275 25.83 49.24 26.04 49.2283C26.0789 49.2269 26.1178 49.2269 26.1566 49.2283C26.74 49.24 27.825 49.5083 28.3733 51.1767ZM22.3066 50.5933C21.934 50.5967 21.5621 50.5576 21.1983 50.4767C20.58 50.3133 20.3116 50.08 20.195 49.905C20.1473 49.8349 20.1154 49.7553 20.1016 49.6717C20.098 49.6406 20.098 49.6093 20.1016 49.5783C20.1016 49.5783 20.51 49.4617 21.0816 49.45C21.3711 49.4426 21.6605 49.4661 21.945 49.52C22.5401 49.6454 23.0702 49.9808 23.4383 50.465C23.4383 50.465 22.9716 50.605 22.3066 50.605V50.5933ZM25.0483 49.6133C24.9943 49.6148 24.9406 49.6051 24.8904 49.5851C24.8403 49.565 24.7948 49.5349 24.7566 49.4967C24.6905 49.4159 24.6463 49.3195 24.6283 49.2167C24.5816 49.03 24.5933 48.8433 24.5933 48.82C24.6375 48.8001 24.6849 48.7882 24.7333 48.785H24.745C24.9783 48.785 25.165 48.995 25.2466 49.1933C25.2933 49.31 25.2933 49.4033 25.27 49.4733C25.235 49.555 25.1533 49.6017 25.0483 49.6017V49.6133ZM22.995 49.3217C22.6011 49.21 22.2243 49.0451 21.875 48.8317C21.3616 48.5167 20.72 47.9567 20.65 47.0817L20.7666 47.07H20.8016C20.9533 47.07 21.2683 47.105 21.6533 47.3967C22.1433 47.77 22.5866 48.4233 22.995 49.3217ZM24.3366 49.275C24.0149 49.1285 23.7162 48.9359 23.45 48.7033C22.7672 48.114 22.2352 47.37 21.8983 46.5333C21.8983 46.5333 22.0033 46.475 22.1666 46.4633C22.1744 46.4631 22.1822 46.4631 22.19 46.4633H22.2366C22.47 46.4633 22.8083 46.5683 23.1816 46.9767C23.625 47.4433 24.01 48.2133 24.3483 49.275H24.3366ZM20.8483 49.17C20.3933 49.17 20.2416 48.9367 20.195 48.82C20.1498 48.7092 20.1337 48.5887 20.1483 48.47C20.2249 48.453 20.3032 48.4452 20.3816 48.4467C20.5265 48.4421 20.6705 48.4713 20.8021 48.5321C20.9338 48.5928 21.0494 48.6834 21.14 48.7967C21.1633 48.8433 21.2333 48.96 21.175 49.065C21.1283 49.135 21.0233 49.1817 20.8483 49.1817V49.17ZM19.8566 47.91C19.5049 47.9138 19.1536 47.8865 18.8066 47.8283C18.41 47.7583 18.1883 47.42 18.06 47.14C17.9433 46.8483 17.8966 46.5567 17.8966 46.5567C19.1333 46.5917 19.7283 46.9533 19.9966 47.2567C20.1661 47.431 20.2728 47.6567 20.3 47.8983C20.3 47.8983 20.1133 47.9217 19.8566 47.9217V47.91ZM21.14 46.6267C21.0403 46.4991 20.9468 46.3667 20.86 46.23C20.7083 45.9967 20.58 45.7633 20.58 45.5767C20.58 45.3783 20.5333 44.9933 20.51 44.76L20.44 44.235C20.475 44.235 21.21 44.515 21.21 45.215C21.21 45.915 21.14 46.615 21.14 46.615V46.6267ZM20.1833 46.5567H20.16C19.3597 46.317 18.6305 45.8843 18.0366 45.2967C17.8383 45.0633 17.71 44.69 17.675 44.2C17.6516 43.85 17.675 43.5583 17.675 43.5233C17.7168 43.5122 17.7602 43.5083 17.8033 43.5117C17.9666 43.5117 18.1533 43.5817 18.3866 43.745C18.6032 43.8984 18.8062 44.0701 18.9933 44.2583C19.3666 44.6317 19.6583 45.005 19.6583 45.005C19.6933 45.0517 19.8916 45.4367 20.0666 45.81C20.1485 45.9814 20.2111 46.1614 20.2533 46.3467C20.265 46.4167 20.2766 46.4633 20.2533 46.51C20.2478 46.5293 20.2353 46.5459 20.2183 46.5567C20.203 46.5602 20.187 46.5602 20.1716 46.5567H20.1833Z" fill="#435125"/>
<path d="M60.55 18.2883L60.34 18.37L60.2466 18.405L59.99 18.3933L59.7333 18.51L59.29 18.8133L59.2783 18.825L59.1033 18.8717L58.9516 18.8017L58.87 18.8483L58.835 19.0233L58.7533 19.1517L58.6483 19.2217L58.2983 19.2567L58.0066 19.42L57.61 19.3033L57.435 19.385L57.05 19.735L56.8516 19.8167H56.7933L56.525 19.805L56.42 19.84L56.2566 19.9917L55.9533 20.015L55.8483 20.085L55.6966 20.3883L55.5333 20.575L55.44 20.5867L55.3466 20.5517L55.265 20.5633L55.23 20.7617L55.16 20.8433L54.95 20.9133L54.7866 21.0533L54.635 21.1233H54.4016L54.2033 21.24L53.8416 21.2633L53.69 21.4033L53.655 21.4383L53.585 21.4733L53.4683 21.5433L53.445 21.5667L53.305 21.5433L53.1416 21.6017L53.0716 21.5083L52.955 21.5667L52.815 21.5783L52.6283 21.4967L52.4766 21.4267L52.3716 21.45L52.3366 21.625V21.6483L52.22 21.7883L52.0216 21.9167L51.9983 21.9517L51.765 22.255L51.3216 22.7217L50.9483 22.9083L50.5633 23.025L50.295 23.2467L49.595 23.5967L48.4633 24.1567L48.23 24.2267L47.9033 24.2733L47.32 24.495L46.8066 24.6467L46.7716 24.6583L46.6783 24.6933L45.9433 24.915L45.605 24.8683L45.4066 24.95L44.8816 24.8917H44.52L44.2866 24.9383L43.855 25.1483L43.12 25.4983L42.8866 25.7317L42.5133 25.9183L42.07 26.0583V25.8717L41.9183 25.9183L41.8016 25.9533L41.4516 26H41.2533L41.125 25.965H41.1016L40.3783 26.21L39.5616 26.2917L39.1533 26.42H38.85L38.6633 26.4783L38.29 26.525L38.15 26.49L38.1266 26.4783L37.03 26.525L36.5283 26.4667L36.295 26.525L35.8866 26.385L35.3033 26.315L35.1633 26.28L34.86 26.1867L34.72 26.2683L34.6033 26.28L34.37 26.1867H34.2766L34.0666 26.2567L33.95 26.2333L33.8333 26.14L33.5883 26.105L33.425 25.9767L32.55 26.0933L32.3166 26.0233L31.5116 25.79H31.395L31.2316 25.9067L30.9983 26L30.7766 26.0467L30.4966 26.0583L30.17 25.9767L29.8433 25.8133L29.715 25.7783L29.435 25.8133H29.3533L28.84 25.545L28.1866 25.1367L27.7433 24.915L27.5683 24.8917L27.545 24.9733L27.6266 25.23L27.6616 25.4983V25.7317L27.65 25.8833L27.685 26.0117L27.8483 26.1983L27.9183 26.3733L27.965 26.8633V27.365L27.8833 28.1583L27.86 28.275L27.7666 28.695L27.685 29.08L27.3466 30.095L27.265 30.2117L27.0316 30.3633L26.53 30.7133L26.1566 30.9233L26.04 30.97L25.7366 30.9933H25.55L25.3166 30.865L25.0833 30.8067L24.78 30.585L24.4533 30.515L24.08 30.305L23.9866 30.1883L23.7883 30.165L23.5083 30.0833L23.4033 30.0483L23.3333 30.0367L22.9833 30.025L22.645 29.8733L22.47 29.8267H22.2366L21.9916 29.9433L21.8633 29.99L21.7 29.9317H21.5833L21.4666 30.13L21.4433 30.165L21.35 30.2117H21.1516L21.0583 30.2467L20.93 30.305L20.8133 30.3517L20.755 30.375H20.72L20.6616 30.3983H20.5916L20.4516 30.3283L20.3816 30.2933L20.265 30.27L20.2066 30.305L20.195 30.5267L20.1366 30.655L19.95 30.8183L19.7633 30.9817L19.6466 31.1683L19.2966 31.95L19.075 32.265L19.0166 32.3467L18.7833 32.5917L18.585 32.7433L18.13 33.0933L17.6983 33.2683L17.325 33.3383H17.1383L16.7883 33.2917L16.485 33.1983L16.135 32.9883L15.7733 32.685L15.225 32.16L15.155 32.1133L15.1316 32.1017L14.9683 31.985H14.84L14.7933 32.0783L14.7583 32.195L14.735 32.3L14.6766 32.8833V32.9183L14.7116 33.1633L15.1316 33.7467L15.2483 34.05L15.2716 34.085L15.3533 34.225L15.4233 34.3417L15.575 34.7617L15.47 34.995L15.5166 35.1583L15.4 35.2517L15.3766 35.3917L15.7383 35.8583L15.82 36.0567L15.7383 36.3367L15.5866 36.5L15.5516 36.535L15.575 36.6517L15.7383 36.815L16.03 37.0717L16.1816 37.445L16.2983 37.5617L16.4383 37.5267L16.5083 37.585H16.625L16.7416 37.7017L16.8116 37.725L16.9283 37.7833L17.0216 37.9L17.0333 38.2733L17.2083 38.7167V39.0083L17.325 39.1833L17.3483 39.3233L17.29 39.7083L17.43 39.825L17.57 39.8017L17.6633 39.8133L17.815 39.9417L18.0016 40.2217L18.1883 40.1983L18.305 40.245L18.8533 40.7467L18.97 40.8167L19.075 40.8633L19.1916 40.98L19.355 40.8633H19.3783L19.565 40.84L19.6466 40.8983L19.81 41.0033H20.0083L20.475 41.1433L20.6616 41.19L21.0583 41.435L21.2333 41.54L21.3266 41.6217L21.4666 41.7383L21.7233 41.855L21.9566 41.9017L22.0733 41.925L22.1783 41.96L22.6683 42.1583L22.9366 42.2167L23.17 42.31L23.3566 42.3683H23.4966L23.6833 42.2167H23.8583L24.01 42.24L24.1616 42.2167L24.395 42.0767L24.43 42.0067L24.5933 41.9367L25.1533 41.8667L25.3166 41.9133L25.7366 41.7383L26.0166 41.8083L26.25 41.7267L26.7983 41.8433L26.9383 41.9483L27.1016 42.1233H27.3L27.2183 42.2517L27.4516 42.5083L27.6733 42.8233L27.685 42.87L27.8366 43.325L27.9533 43.4883L28.035 43.71V43.85L27.9183 43.955L27.895 44.0017V44.025L27.9183 44.0833L27.965 44.06L28.0466 44.0133L28.1633 43.99L28.35 44.0133L28.4783 44.025L28.6766 43.9317L28.8166 43.8617L29.0266 43.955H29.26L29.365 43.99L29.645 44.1183L29.785 44.13L29.8316 44.095L29.8666 44.025L29.855 43.9317L29.7383 43.8033L29.505 43.5233L29.4116 43.3833L29.3416 43.185L29.3183 42.9283L29.295 42.7533L29.33 42.52L29.3883 42.4383L29.435 42.2517L29.4466 42.205L29.5866 42.03L29.9366 41.7967L30.31 41.47L30.6016 41.2717L30.905 41.1433V41.1083L30.9516 41.12L31.7216 40.8517L32.0716 40.7933L34.405 40.9567L34.4866 40.9333L34.5683 40.7117L34.6033 40.6767L34.6383 40.6533L34.895 40.5367L35.0116 40.5133L35.3383 40.595L35.4783 40.63L35.7 40.5133H35.8516L36.1666 40.3383H36.365L36.4466 40.315L36.8316 40.035L37.1933 39.93L37.2866 39.8833L37.3216 39.86L37.7066 39.6617L37.94 39.475L38.15 39.3583L38.3833 39.3117L38.9666 39.265L39.095 39.0667L39.3516 39.0317L39.5033 38.8567L39.6783 38.7867L39.8066 38.6L39.9233 38.4483L40.0633 38.3667L40.5416 38.3317L41.1016 38.4017L41.1833 38.355L41.3 37.9L41.44 37.8183L41.79 37.2933V37.1067L41.8016 36.9433L41.86 36.71L41.825 36.3133L41.8716 35.8933L42.0933 35.3683L42.2916 35.1583L42.6066 34.9367L42.77 34.8667L43.0033 34.8317H43.0266L43.085 34.8083H44.1583L44.4266 34.7967L45.0916 34.9133H45.1383L45.36 34.995L45.6166 35.1933L45.8966 35.4617L45.9433 35.5083L46.1183 35.59L46.1766 35.6133L46.3166 35.59L46.5266 35.4733L46.69 35.3567L46.9 35.24V35.2167L47.0283 35.0417L47.075 34.96L47.495 34.7967L47.985 34.7733L48.0433 34.7383H48.0666L48.195 34.575H48.3116L48.615 34.6917L48.8133 34.645L48.9766 34.7033L49.105 34.6917L49.3383 34.6567L49.6066 34.8433L49.7583 34.8667L50.2833 35.17H50.33L50.3533 35.1817L50.4116 35.1583L50.505 35.135H50.5166L50.5283 35.1467L50.5983 35.2283L50.68 35.24L50.7733 35.1233L50.7383 35.0533L50.7266 35.03L50.5283 34.995L50.365 34.7033L50.5283 34.5283L50.2716 34.225L50.225 34.1667V34.155L50.1316 34.015L49.6883 33.3383L49.105 32.8717L48.9066 32.72L48.8366 32.6617L48.5216 32.3467L48.3 32.055L48.2766 31.9967L48.23 31.8917L48.1016 31.6117L47.8683 31.4367L47.6816 31.2267L47.285 30.69L47.2266 30.6083L47.1333 30.55H46.935L46.9233 30.5267H46.9116V30.515L47.005 30.4217L47.1216 30.3983L47.1566 30.2933L46.9583 29.7217V29.6983L46.9466 29.5233L47.0983 28.695L47.1216 28.59L47.4016 28.0417L47.565 27.9017L47.7516 27.54L47.915 27.3067L48.0666 27.155L48.09 27.1433L48.3583 26.98L48.5916 26.945L48.8133 26.91L49.1983 27.0267H49.5483L49.63 27.015L49.7933 26.9917L50.0616 26.91L50.19 26.8283L50.26 26.735L50.4 26.2683L50.4466 26.1167L50.5283 25.9533L51.03 25.3817L51.4033 25.0317L52.2433 24.425L52.6516 24.18L52.8616 24.0517L54.74 23.2117L55.23 22.7217L55.4866 22.465L55.93 22.1617L56.455 21.94L56.9216 21.59L57.015 21.4617L57.1316 21.0533L57.2483 21.03L57.33 20.8317L57.365 20.7733L57.7266 20.5167L57.7733 20.4933L59.2083 19.77L59.4183 19.805L59.535 19.63L59.9433 19.56H60.025L60.13 19.5017L60.2116 19.35V19.315L60.2233 18.9183L60.3166 18.8133L60.3633 18.5567L60.41 18.4867L60.4566 18.4283L60.5733 18.3467L60.55 18.3V18.2883Z" fill="#D47600"/>
</g>
<defs>
<clipPath id="clip0_1_20740">
<rect width="74.6667" height="56" fill="white" transform="translate(0 9.375)"/>
</clipPath>
</defs>
</svg>
