<svg width="75" height="75" viewBox="0 0 75 75" fill="none" xmlns="http://www.w3.org/2000/svg">
<rect width="74.6667" height="74.75" fill="white"/>
<g clip-path="url(#clip0_1_20700)">
<path fill-rule="evenodd" clip-rule="evenodd" d="M74.6667 57.9317C73.8267 58.7133 73.115 60.4983 70.8867 60.4983C66.4417 60.4983 65.3333 56.7067 61.9967 56.7067C59.78 56.7067 58.6717 60.4983 56.4433 60.4983C51.9983 60.4983 50.89 56.7067 47.5533 56.7067C45.3367 56.7067 44.2283 60.4983 42.0117 60.4983C37.555 60.4983 36.4467 56.7067 33.11 56.7067C30.8933 56.7067 29.7733 60.4983 27.5567 60.4983C23.1117 60.4983 22.0033 56.7067 18.6667 56.7067C16.45 56.7067 15.33 60.4983 13.1133 60.4983C8.65667 60.4983 7.54833 56.7067 4.22333 56.7067C2.00667 56.7067 1.33 59.4133 0 59.4133V64.2783C1.33 64.2783 1.995 61.595 4.235 61.595C7.56 61.595 8.66833 65.375 13.1017 65.375C15.33 65.375 16.4383 61.5833 18.6667 61.5833C22.0033 61.5833 23.1117 65.375 27.5683 65.375C29.785 65.375 30.8817 61.5833 33.11 61.5833C36.4467 61.5833 37.555 65.375 42 65.375C44.2167 65.375 45.3367 61.5833 47.5533 61.5833C50.89 61.5833 51.9983 65.375 56.4433 65.375C58.66 65.375 59.78 61.5833 61.9967 61.5833C65.3333 61.5833 66.4533 65.375 70.8867 65.375C73.1033 65.375 73.8267 64.3017 74.6667 63.5317V57.9317ZM74.6667 48.4583C73.8267 49.24 73.115 51.025 70.8867 51.025C66.4417 51.025 65.3333 47.2333 61.9967 47.2333C59.78 47.2333 58.6717 51.025 56.4433 51.025C51.9983 51.025 50.89 47.2333 47.5533 47.2333C45.3367 47.2333 44.2283 51.025 42.0117 51.025C37.555 51.025 36.4467 47.2333 33.11 47.2333C30.8933 47.2333 29.7733 51.025 27.5567 51.025C23.1117 51.025 22.0033 47.2333 18.6667 47.2333C16.45 47.2333 15.33 51.025 13.1133 51.025C8.65667 51.025 7.54833 47.2333 4.22333 47.2333C2.00667 47.2333 1.33 49.94 0 49.94V54.8167C1.33 54.8167 1.995 52.1217 4.235 52.1217C7.56 52.1217 8.66833 55.9133 13.1017 55.9133C15.33 55.9133 16.4383 52.1217 18.6667 52.1217C22.0033 52.1217 23.1117 55.9133 27.5683 55.9133C29.785 55.9133 30.8817 52.1217 33.11 52.1217C36.4467 52.1217 37.555 55.9133 42.0117 55.9133C44.2283 55.9133 45.3367 52.1217 47.5533 52.1217C50.89 52.1217 51.9983 55.9133 56.4433 55.9133C58.66 55.9133 59.78 52.1217 61.9967 52.1217C65.3333 52.1217 66.4533 55.9133 70.8867 55.9133C73.1033 55.9133 73.8267 54.84 74.6667 54.07V48.4583ZM74.6667 38.9967C73.8267 39.7783 73.115 41.5633 70.8867 41.5633C66.4417 41.5633 65.3333 37.7717 61.9967 37.7717C59.78 37.7717 58.6717 41.5633 56.4433 41.5633C51.9983 41.5633 50.89 37.7717 47.5533 37.7717C45.3367 37.7717 44.2283 41.5633 42.0117 41.5633C37.555 41.5633 36.4467 37.7717 33.11 37.7717C30.8933 37.7717 29.7733 41.5633 27.5567 41.5633C23.1117 41.5633 22.0033 37.7717 18.6667 37.7717C16.45 37.7717 15.33 41.5633 13.1133 41.5633C8.65667 41.5633 7.54833 37.7717 4.22333 37.7717C2.00667 37.7717 1.33 40.4783 0 40.4783V45.355C1.33 45.355 1.995 42.6483 4.235 42.6483C7.56 42.6483 8.66833 46.44 13.1017 46.44C15.33 46.44 16.4383 42.6483 18.6667 42.6483C22.0033 42.6483 23.1117 46.44 27.5683 46.44C29.785 46.44 30.8817 42.6483 33.11 42.6483C36.4467 42.6483 37.555 46.44 42.0117 46.44C44.2283 46.44 45.3367 42.6483 47.5533 42.6483C50.89 42.6483 51.9983 46.44 56.4433 46.44C58.66 46.44 59.78 42.6483 61.9967 42.6483C65.3333 42.6483 66.4533 46.44 70.8867 46.44C73.1033 46.44 73.8267 45.3667 74.6667 44.5967V38.9967ZM74.6667 29.535C73.8267 30.305 73.115 32.1017 70.8867 32.1017C66.4417 32.1017 65.3333 28.31 61.9967 28.31C59.78 28.31 58.6717 32.1017 56.4433 32.1017C51.9983 32.1017 50.89 28.31 47.5533 28.31C45.3367 28.31 44.2283 32.1017 42.0117 32.1017C37.555 32.1017 36.4467 28.31 33.11 28.31C30.8933 28.31 29.7733 32.1017 27.5567 32.1017C23.1117 32.1017 22.0033 28.31 18.6667 28.31C16.45 28.31 15.33 32.1017 13.1133 32.1017C8.65667 32.1017 7.54833 28.31 4.22333 28.31C2.00667 28.31 1.33 31.0167 0 31.0167V35.8817C1.33 35.8817 1.995 33.1983 4.235 33.1983C7.56 33.1983 8.66833 36.9783 13.1017 36.9783C15.33 36.9783 16.4383 33.1867 18.6667 33.1867C22.0033 33.1867 23.1117 36.9783 27.5683 36.9783C29.785 36.9783 30.8817 33.1867 33.11 33.1867C36.4467 33.1867 37.555 36.9783 42.0117 36.9783C44.2283 36.9783 45.3367 33.1867 47.5533 33.1867C50.89 33.1867 51.9983 36.9783 56.4433 36.9783C58.66 36.9783 59.78 33.1867 61.9967 33.1867C65.3333 33.1867 66.4533 36.9783 70.8867 36.9783C73.1033 36.9783 73.8267 35.8933 74.6667 35.1233V29.535ZM74.6667 20.05C73.8267 20.8317 73.115 22.6283 70.8867 22.6283C66.4417 22.6283 65.3333 18.8367 61.9967 18.8367C59.78 18.8367 58.6717 22.6283 56.4433 22.6283C51.9983 22.6283 50.89 18.8367 47.5533 18.8367C45.3367 18.8367 44.2283 22.6283 42.0117 22.6283C37.555 22.6283 36.4467 18.8367 33.11 18.8367C30.8933 18.8367 29.7733 22.6283 27.5567 22.6283C23.1117 22.6283 22.0033 18.8367 18.6667 18.8367C16.45 18.8367 15.33 22.6283 13.1133 22.6283C8.65667 22.6283 7.54833 18.8367 4.22333 18.8367C2.00667 18.8483 1.33 21.555 0 21.555V26.4317C1.33 26.4317 1.995 23.7367 4.22333 23.7367C7.54833 23.7367 8.66833 27.5283 13.1133 27.5283C15.33 27.5283 16.4383 23.7367 18.6667 23.7367C22.0033 23.7367 23.1117 27.5283 27.5683 27.5283C29.785 27.5283 30.8817 23.7367 33.0983 23.7367C36.4467 23.7367 37.555 27.5283 42 27.5283C44.2167 27.5283 45.3367 23.7367 47.5533 23.7367C50.89 23.7367 51.9983 27.5283 56.4433 27.5283C58.66 27.5283 59.78 23.7367 61.9967 23.7367C65.3333 23.7367 66.4533 27.5283 70.8867 27.5283C73.1033 27.5283 73.8267 26.4433 74.6667 25.6733V20.0733V20.05ZM74.6667 10.6C73.8267 11.37 73.115 13.1667 70.8867 13.1667C66.4417 13.1667 65.3333 9.375 61.9967 9.375C59.78 9.375 58.6717 13.1667 56.4433 13.1667C51.9983 13.1667 50.89 9.375 47.5533 9.375C45.3367 9.375 44.2283 13.1667 42.0117 13.1667C37.555 13.1667 36.4467 9.375 33.11 9.375C30.8933 9.375 29.7733 13.1667 27.5567 13.1667C23.1 13.1667 22.0033 9.375 18.6667 9.375C16.45 9.375 15.33 13.1667 13.1133 13.1667C8.65667 13.1667 7.54833 9.375 4.22333 9.375C2.00667 9.375 1.33 12.0817 0 12.0817V16.97C1.33 16.9583 1.995 14.275 4.22333 14.275C7.54833 14.275 8.66833 18.055 13.1133 18.055C15.33 18.055 16.4383 14.275 18.6667 14.275C22.0033 14.275 23.1117 18.055 27.5683 18.055C29.785 18.055 30.8817 14.275 33.0983 14.275C36.4467 14.275 37.555 18.055 42 18.055C44.2167 18.055 45.3367 14.275 47.5533 14.275C50.89 14.275 51.9983 18.055 56.4433 18.055C58.66 18.055 59.78 14.275 61.9967 14.275C65.3333 14.275 66.4533 18.055 70.8867 18.055C73.1033 18.055 73.8267 16.9817 74.6667 16.2117V10.6Z" fill="#000063"/>
<path fill-rule="evenodd" clip-rule="evenodd" d="M55.3933 24.74L54.985 63.1233C54.985 65.1417 56.8167 65.1417 57.015 63.1233L56.6067 24.74H55.3933Z" fill="#A24300" stroke="white" stroke-width="0.245"/>
<path fill-rule="evenodd" clip-rule="evenodd" d="M59.5816 39.0083L58.2983 37.62L57.995 39.0316L57.4466 36.99L56.9216 38.0166L56.8283 35.8466L56.315 36.8733L56.2216 34.7033L55.7083 35.73L55.4166 33.175L54.9033 34.2016L54.6 31.6583L54.075 32.685L53.7833 30.13L53.6316 28.8466L53.8883 28.345L54.565 28.59L55.6266 29.605L57.7616 31.635L56.4433 31.1333L58.5783 33.1633L57.2483 32.6616L59.3833 34.68L58.0533 34.19L59.99 35.8233L58.6716 35.3333L60.5966 36.9666L59.2783 36.4766L60.7483 38.25L59.22 37.3633L59.57 39.0316L59.5816 39.0083Z" fill="#006D00" stroke="white" stroke-width="0.21"/>
<path d="M59.5816 39.0083L53.9 28.345M57.7616 31.635L54.7166 29.8616L54.0866 32.6733" stroke="black" stroke-width="0.035"/>
<path d="M58.59 33.1517L55.5217 31.39L54.9033 34.2017" stroke="black" stroke-width="0.035"/>
<path d="M59.395 34.6683L56.3383 32.9183L55.7083 35.7183" stroke="black" stroke-width="0.035"/>
<path d="M60.0017 35.8233L57.1433 34.435L56.3267 36.885" stroke="black" stroke-width="0.035"/>
<path d="M60.6083 36.9666L57.75 35.5783L56.9333 38.0283" stroke="black" stroke-width="0.035"/>
<path d="M60.76 38.2383L58.1583 36.3483L57.995 39.0317" stroke="black" stroke-width="0.035"/>
<path fill-rule="evenodd" clip-rule="evenodd" d="M44.6833 20.7967L46.76 21.59L46.1533 20.015L47.9733 21.8L47.7983 20.5167L49.2683 22.6633L49.0933 21.38L50.5633 23.5267L50.3883 22.2433L52.29 24.67L52.115 23.3867L54.0167 25.8133L53.8533 24.53L55.7433 26.9567L56.7 28.17L56.7817 28.8117L56 28.8817L54.3667 28.38L51.0767 27.365L52.6283 27.2367L49.35 26.2217L50.9017 26.0933L47.6233 25.0783L49.175 24.9383L46.3283 24.215L47.88 24.0867L45.0333 23.3633L46.585 23.2233L44.0767 22.1383L46.0717 22.29L44.695 20.8083L44.6833 20.7967Z" fill="#006D00" stroke="white" stroke-width="0.233333"/>
<path d="M44.6833 20.7967L56.7817 28.8117M51.0767 27.365L55.055 27.6684L53.8533 24.53" stroke="black" stroke-width="0.035"/>
<path d="M49.35 26.2217L53.3166 26.525L52.115 23.375" stroke="black" stroke-width="0.035"/>
<path d="M47.6233 25.0784L51.59 25.3817L50.3883 22.2317" stroke="black" stroke-width="0.035"/>
<path d="M46.3167 24.215L49.875 24.2267L49.0933 21.38" stroke="black" stroke-width="0.035"/>
<path d="M45.0333 23.3517L48.58 23.375L47.7983 20.5167" stroke="black" stroke-width="0.035"/>
<path d="M44.0767 22.1383L47.705 22.8033L46.165 20.015" stroke="black" stroke-width="0.035"/>
<path fill-rule="evenodd" clip-rule="evenodd" d="M68.81 23.4683L67.0833 24.74L68.9967 24.95L66.325 25.58L67.7483 26L64.8666 26.21L66.29 26.63L63.4083 26.84L64.82 27.2717L61.4483 27.6917L62.8717 28.1117L59.5 28.5317L60.9233 28.9517L57.5516 29.3717L55.86 29.5817L55.16 29.3717L55.4166 28.7417L56.665 27.6917L59.15 25.58L58.6133 26.84L61.0983 24.74L60.5616 26L63.0467 23.9L62.51 25.16L64.5166 23.2583L63.9916 24.53L65.975 22.6283L65.45 23.8883L67.6666 22.4183L66.6516 23.9L68.8217 23.48L68.81 23.4683Z" fill="#006D00" stroke="white" stroke-width="0.233333"/>
<path d="M68.81 23.4683L55.16 29.3717M59.1383 25.58L57.1083 28.5317L60.9233 28.9517" stroke="black" stroke-width="0.035"/>
<path d="M61.0983 24.74L59.0566 27.6917L62.8716 28.1117" stroke="black" stroke-width="0.035"/>
<path d="M63.0466 23.8883L61.005 26.84L64.82 27.2716" stroke="black" stroke-width="0.035"/>
<path d="M64.5166 23.2583L62.965 26L66.29 26.63" stroke="black" stroke-width="0.035"/>
<path d="M65.975 22.6284L64.4233 25.37L67.7483 26" stroke="black" stroke-width="0.035"/>
<path d="M67.6667 22.4183L65.4033 24.95H68.985" stroke="black" stroke-width="0.035"/>
<path fill-rule="evenodd" clip-rule="evenodd" d="M68.53 36.2434L66.3833 35.625L67.1533 37.1417L65.1583 35.5084L65.4617 36.7567L63.77 34.75L64.085 36.01L62.3933 33.9917L62.6967 35.2517L60.5383 32.9884L60.8533 34.2484L58.695 31.985L59.01 33.245L56.8517 30.9817L55.7783 29.85L55.6267 29.22L56.3967 29.08L58.0883 29.4534L61.4717 30.2L59.9317 30.4567L63.315 31.2034L61.775 31.46L65.1583 32.2067L63.6183 32.475L66.535 32.965L64.995 33.2217L67.9117 33.7117L66.3833 33.9917L68.985 34.8667H67.0017L68.5183 36.2667L68.53 36.2434Z" fill="#006D00" stroke="white" stroke-width="0.233333"/>
<path d="M68.53 36.2433L55.6267 29.22M61.46 30.2L57.47 30.2233L59.01 33.2566" stroke="black" stroke-width="0.035"/>
<path d="M63.3033 31.2033L59.3133 31.2266L60.8533 34.26" stroke="black" stroke-width="0.035"/>
<path d="M65.1466 32.2067L61.1566 32.23L62.6966 35.2633" stroke="black" stroke-width="0.035"/>
<path d="M66.535 32.965L63 33.2334L64.085 36.01" stroke="black" stroke-width="0.035"/>
<path d="M67.9233 33.7233L64.3883 33.98L65.4616 36.7567" stroke="black" stroke-width="0.035"/>
<path d="M68.985 34.855L65.31 34.4817L67.1533 37.1417" stroke="black" stroke-width="0.035"/>
<path fill-rule="evenodd" clip-rule="evenodd" d="M46.1066 36.9783L47.1916 35.4616L45.5466 35.7066L47.5766 34.5516L46.2816 34.4933L48.615 33.6766L47.32 33.6066L49.6533 32.79L48.3583 32.72L51.0416 31.6L49.735 31.5416L52.4183 30.41L51.1233 30.3516L53.8066 29.2316L55.1483 28.66L55.8016 28.695L55.755 29.3133L55.02 30.5266L53.55 32.9533L53.6433 31.7166L52.1733 34.1433L52.255 32.895L50.785 35.3216L50.8666 34.085L49.7466 36.2083L49.8283 34.9716L48.7083 37.095L48.79 35.8583L47.3666 37.655L47.7983 36.115L46.1066 36.9783Z" fill="#006D00" stroke="white" stroke-width="0.21"/>
<path d="M46.1066 36.9783L55.79 28.695M53.5616 32.9533L54.4133 29.8733L51.1233 30.3517" stroke="black" stroke-width="0.035"/>
<path d="M52.1733 34.1434L53.025 31.0634L49.735 31.53" stroke="black" stroke-width="0.035"/>
<path d="M50.785 35.3217L51.6483 32.2417L48.3583 32.72" stroke="black" stroke-width="0.035"/>
<path d="M49.7467 36.2083L50.26 33.4316L47.32 33.6066" stroke="black" stroke-width="0.035"/>
<path d="M48.7083 37.095L49.2216 34.3184L46.2816 34.4934" stroke="black" stroke-width="0.035"/>
<path d="M47.3666 37.655L48.5333 34.9133L45.5466 35.7067" stroke="black" stroke-width="0.035"/>
<path fill-rule="evenodd" clip-rule="evenodd" d="M65.6833 17.0983L63.595 18.4983L63.2567 16.9933L62.0317 19.07L61.7983 18.0783L60.795 20.2017L60.655 19.2217L59.8733 21.4033L59.43 20.3533L58.6483 23.0017L58.205 21.9517L57.4233 24.6L56.9683 23.55L56.1867 26.1983L55.8017 27.5283L56.0233 28.0533L56.8633 27.7733L58.31 26.7L61.2267 24.5533L59.5467 25.1017L62.4517 22.9433L60.7717 23.5033L63.6767 21.345L61.9967 21.905L64.9133 20.225L62.93 20.6917L66.0333 19.0933L64.1317 19.5833L66.43 17.7633L64.4467 18.7083L65.6833 17.0983Z" fill="#006D00" stroke="white" stroke-width="0.233333"/>
<path d="M64.8666 17.8567L61.8566 20.4467L56.0233 28.0534" stroke="black" stroke-width="0.035"/>
<path d="M60.585 24.8683L57.2483 26.4433L56.9683 24.0167" stroke="black" stroke-width="0.035"/>
<path d="M61.8566 23.2817L58.4733 24.845L58.205 22.4183" stroke="black" stroke-width="0.035"/>
<path d="M63.0583 21.6833L59.71 23.2467L59.4533 20.8317" stroke="black" stroke-width="0.035"/>
<path d="M64.0616 20.4933L60.935 21.6483L60.585 19.665" stroke="black" stroke-width="0.035"/>
<path d="M65.2166 19.35L61.8566 20.4583L61.74 18.545" stroke="black" stroke-width="0.035"/>
<path d="M65.66 18.265L62.5566 19.8517L63.1633 17.4484" stroke="black" stroke-width="0.035"/>
<path fill-rule="evenodd" clip-rule="evenodd" d="M54.3783 14.485L55.3117 16.6083L56.5133 15.4883L56.315 17.7983L57.1083 17.0517L56.6767 19.315L57.3767 18.545L56.735 20.7617L57.75 20.0617L56.8167 22.6633L57.82 21.9633L56.8867 24.5883L57.9017 23.8883L56.9683 26.5017L56.5017 27.8083L55.9883 28.1583L55.4283 27.54L54.845 25.9767L53.6783 22.8383L54.775 24.0633L53.5967 20.9133L54.6933 22.15L53.5267 19L54.6 20.225L53.1417 17.495L54.5417 18.79L52.8617 16.0017L54.18 17.285L53.3283 14.695L54.4483 16.3983L54.3783 14.485Z" fill="#006D00" stroke="white" stroke-width="0.233333"/>
<path d="M54.6233 15.4883L55.615 19.0467L55.9883 28.1467" stroke="black" stroke-width="0.035"/>
<path d="M54.0166 23.3983L55.9066 26.2333L57.6216 24.285" stroke="black" stroke-width="0.035"/>
<path d="M53.9 21.4733L55.825 24.32L57.54 22.3717" stroke="black" stroke-width="0.035"/>
<path d="M53.8416 19.56L55.755 22.4067L57.435 20.4583" stroke="black" stroke-width="0.035"/>
<path d="M53.7133 18.1133L55.6733 20.4933L57.19 18.9767" stroke="black" stroke-width="0.035"/>
<path d="M53.4333 16.6083L55.615 19.0583L56.8983 17.4717" stroke="black" stroke-width="0.035"/>
<path d="M53.7017 15.4883L55.3817 18.23L56.3267 15.9083" stroke="black" stroke-width="0.035"/>
<path fill-rule="evenodd" clip-rule="evenodd" d="M41.8833 30.1417L44.6016 28.2517L43.2367 27.5517L45.6283 27.9483L44.8117 26.8633L47.1216 27.7383L46.305 26.6533L48.6266 27.5167L47.81 26.4433L50.61 27.3883L49.7933 26.3033L52.5117 27.715L51.695 26.63L54.495 27.5867L55.86 28.2867L56.2683 28.8233L55.72 29.2083L54.215 29.4183L51.8 30.4217L52.2433 29.5583L49.245 29.9783L50.33 29.2317L47.2617 30.1183L48.3583 29.36L45.7683 30.3283L46.9233 29.115L44.2633 30.5383L45.43 29.325L43.2367 30.8417L44.4617 29.1617L41.8833 30.1417Z" fill="#006D00" stroke="white" stroke-width="0.221667"/>
<path d="M42.735 29.6283L45.5583 28.4033L47.0633 28.1933L48.3117 28.17L50.47 28.31L52.4183 28.3916L56.2683 28.8233" stroke="black" stroke-width="0.035"/>
<path d="M52.1733 30.0133L54.3316 28.6833L52.1383 26.9683" stroke="black" stroke-width="0.035"/>
<path d="M49.7583 29.815L52.4067 28.3916L50.225 26.665" stroke="black" stroke-width="0.035"/>
<path d="M48.0317 29.7683L50.47 28.31L48.2533 26.7117M44.8117 30.165L47.0633 28.1933L45.2433 27.2017" stroke="black" stroke-width="0.035"/>
<path d="M43.8083 30.2933L45.5583 28.415L44.1583 27.89M46.305 29.955L48.5217 28.1817L46.7483 26.9683" stroke="black" stroke-width="0.035"/>
<path fill-rule="evenodd" clip-rule="evenodd" d="M51.0416 50.8081L51.016 47.6259L50.094 46.1397C49.8631 45.4091 49.9763 45.0563 50.3505 45.0313C50.7232 45.009 51.0929 45.2202 51.6301 45.2438C52.1673 45.2674 52.0662 44.4187 52.8599 44.4423C53.6537 44.4659 55.0374 44.891 56.2144 44.9618C57.3929 45.0313 58.0071 44.584 59.3652 44.5368C60.7232 44.4895 61.0809 45.1257 61.1578 45.1257C61.2348 45.1257 61.6196 44.8674 62.0029 44.8201C62.3877 44.7729 62.5159 44.9618 62.5159 44.9618C62.5159 44.9618 62.4903 45.7633 62.3107 46.2341C62.1311 46.7064 61.4913 47.4842 61.4657 47.4842C61.44 47.4842 61.2348 50.9498 61.2348 50.9734C61.2348 50.997 51.0416 50.879 51.0416 50.8081Z" fill="#CC0000" stroke="black" stroke-width="0.0144775"/>
<path fill-rule="evenodd" clip-rule="evenodd" d="M61.5852 47.5472C61.5852 47.5472 62.6114 46.8249 62.6385 45.0873C62.6536 44.0872 62.1194 43.3649 60.7825 43.3649C58.9113 43.3649 56.2389 44.1025 56.2389 44.1025V44.3483C56.2389 44.3483 58.3772 43.6108 60.784 43.6108C61.8523 43.6108 62.388 44.3331 62.388 45.072C62.388 46.3027 61.3166 47.5486 61.3166 47.5486V49.5168H61.5852V47.5472Z" fill="#FFF100" stroke="black" stroke-width="0.0144775"/>
<path fill-rule="evenodd" clip-rule="evenodd" d="M62.1435 47.0334C62.1407 47.0673 62.1456 47.1014 62.1578 47.1336C62.17 47.1657 62.1893 47.1951 62.2144 47.2201C62.2396 47.245 62.27 47.2649 62.3039 47.2785C62.3378 47.2921 62.3744 47.2992 62.4113 47.2992C62.4483 47.2992 62.4849 47.2921 62.5187 47.2785C62.5526 47.2649 62.5831 47.245 62.6082 47.2201C62.6334 47.1951 62.6527 47.1657 62.6649 47.1336C62.6771 47.1014 62.6819 47.0673 62.6792 47.0334C62.6741 46.9712 62.6437 46.9131 62.594 46.8707C62.5443 46.8283 62.4791 46.8047 62.4113 46.8047C62.3436 46.8047 62.2783 46.8283 62.2286 46.8707C62.179 46.9131 62.1486 46.9712 62.1435 47.0334Z" fill="white" stroke="black" stroke-width="0.0144775"/>
<path fill-rule="evenodd" clip-rule="evenodd" d="M62.4086 46.47C62.4058 46.5039 62.4107 46.538 62.4229 46.5701C62.4351 46.6023 62.4544 46.6317 62.4795 46.6567C62.5047 46.6816 62.5352 46.7015 62.569 46.7151C62.6029 46.7287 62.6395 46.7358 62.6765 46.7358C62.7134 46.7358 62.75 46.7287 62.7839 46.7151C62.8178 46.7015 62.8482 46.6816 62.8734 46.6567C62.8985 46.6317 62.9178 46.6023 62.93 46.5701C62.9422 46.538 62.9471 46.5039 62.9443 46.47C62.9392 46.4078 62.9088 46.3497 62.8591 46.3073C62.8095 46.2648 62.7442 46.2413 62.6765 46.2413C62.6087 46.2413 62.5434 46.2648 62.4938 46.3073C62.4441 46.3497 62.4137 46.4078 62.4086 46.47Z" fill="white" stroke="black" stroke-width="0.0144775"/>
<path fill-rule="evenodd" clip-rule="evenodd" d="M62.5522 45.8955C62.5495 45.9295 62.5544 45.9636 62.5666 45.9957C62.5788 46.0278 62.598 46.0573 62.6232 46.0822C62.6483 46.1072 62.6788 46.1271 62.7127 46.1407C62.7466 46.1543 62.7831 46.1613 62.8201 46.1613C62.8571 46.1613 62.8936 46.1543 62.9275 46.1407C62.9614 46.1271 62.9919 46.1072 63.017 46.0822C63.0421 46.0573 63.0614 46.0278 63.0736 45.9957C63.0858 45.9636 63.0907 45.9295 63.0879 45.8955C63.0829 45.8333 63.0524 45.7752 63.0028 45.7328C62.9531 45.6904 62.8878 45.6668 62.8201 45.6668C62.7523 45.6668 62.6871 45.6904 62.6374 45.7328C62.5877 45.7752 62.5573 45.8333 62.5522 45.8955Z" fill="white" stroke="black" stroke-width="0.0144775"/>
<path fill-rule="evenodd" clip-rule="evenodd" d="M62.6517 45.2879C62.6489 45.3219 62.6538 45.356 62.666 45.3881C62.6782 45.4202 62.6974 45.4497 62.7226 45.4746C62.7477 45.4995 62.7782 45.5194 62.8121 45.5331C62.846 45.5467 62.8825 45.5537 62.9195 45.5537C62.9565 45.5537 62.993 45.5467 63.0269 45.5331C63.0608 45.5194 63.0913 45.4995 63.1164 45.4746C63.1416 45.4497 63.1608 45.4202 63.173 45.3881C63.1852 45.356 63.1901 45.3219 63.1873 45.2879C63.1823 45.2257 63.1519 45.1676 63.1022 45.1252C63.0525 45.0828 62.9873 45.0592 62.9195 45.0592C62.8518 45.0592 62.7865 45.0828 62.7368 45.1252C62.6872 45.1676 62.6567 45.2257 62.6517 45.2879Z" fill="white" stroke="black" stroke-width="0.0144775"/>
<path fill-rule="evenodd" clip-rule="evenodd" d="M62.6296 44.625C62.6268 44.659 62.6317 44.6931 62.6439 44.7252C62.6561 44.7573 62.6754 44.7867 62.7005 44.8117C62.7257 44.8366 62.7561 44.8565 62.79 44.8702C62.8239 44.8838 62.8605 44.8908 62.8974 44.8908C62.9344 44.8908 62.971 44.8838 63.0048 44.8702C63.0387 44.8565 63.0692 44.8366 63.0943 44.8117C63.1195 44.7867 63.1388 44.7573 63.151 44.7252C63.1632 44.6931 63.168 44.659 63.1653 44.625C63.1602 44.5628 63.1298 44.5047 63.0801 44.4623C63.0304 44.4199 62.9652 44.3963 62.8974 44.3963C62.8297 44.3963 62.7644 44.4199 62.7147 44.4623C62.6651 44.5047 62.6347 44.5628 62.6296 44.625Z" fill="white" stroke="black" stroke-width="0.0144775"/>
<path fill-rule="evenodd" clip-rule="evenodd" d="M61.7568 47.5305C61.7541 47.5645 61.7589 47.5986 61.7711 47.6307C61.7833 47.6628 61.8026 47.6923 61.8278 47.7172C61.8529 47.7422 61.8834 47.7621 61.9172 47.7757C61.9511 47.7893 61.9877 47.7963 62.0247 47.7963C62.0616 47.7963 62.0982 47.7893 62.1321 47.7757C62.166 47.7621 62.1964 47.7422 62.2216 47.7172C62.2467 47.6923 62.266 47.6628 62.2782 47.6307C62.2904 47.5986 62.2953 47.5645 62.2925 47.5305C62.2874 47.4684 62.257 47.4102 62.2073 47.3678C62.1577 47.3254 62.0924 47.3018 62.0247 47.3018C61.9569 47.3018 61.8917 47.3254 61.842 47.3678C61.7923 47.4102 61.7619 47.4684 61.7568 47.5305Z" fill="white" stroke="black" stroke-width="0.0144775"/>
<path fill-rule="evenodd" clip-rule="evenodd" d="M62.3976 43.9953C62.3948 44.0293 62.3997 44.0634 62.4119 44.0955C62.4241 44.1276 62.4434 44.157 62.4685 44.182C62.4937 44.2069 62.5241 44.2268 62.558 44.2405C62.5919 44.2541 62.6285 44.2611 62.6654 44.2611C62.7024 44.2611 62.739 44.2541 62.7729 44.2405C62.8067 44.2268 62.8372 44.2069 62.8623 44.182C62.8875 44.157 62.9068 44.1276 62.919 44.0955C62.9312 44.0634 62.936 44.0293 62.9333 43.9953C62.9282 43.9331 62.8978 43.875 62.8481 43.8326C62.7984 43.7902 62.7332 43.7666 62.6654 43.7666C62.5977 43.7666 62.5324 43.7902 62.4828 43.8326C62.4331 43.875 62.4027 43.9331 62.3976 43.9953Z" fill="white" stroke="black" stroke-width="0.0144775"/>
<path fill-rule="evenodd" clip-rule="evenodd" d="M61.9004 43.4982C61.8977 43.5321 61.9025 43.5662 61.9147 43.5983C61.9269 43.6305 61.9462 43.6599 61.9714 43.6849C61.9965 43.7098 62.027 43.7297 62.0609 43.7433C62.0947 43.7569 62.1313 43.764 62.1683 43.764C62.2052 43.764 62.2418 43.7569 62.2757 43.7433C62.3096 43.7297 62.34 43.7098 62.3652 43.6849C62.3903 43.6599 62.4096 43.6305 62.4218 43.5983C62.434 43.5662 62.4389 43.5321 62.4361 43.4982C62.431 43.436 62.4006 43.3779 62.351 43.3355C62.3013 43.293 62.236 43.2695 62.1683 43.2695C62.1005 43.2695 62.0353 43.293 61.9856 43.3355C61.9359 43.3779 61.9055 43.436 61.9004 43.4982Z" fill="white" stroke="black" stroke-width="0.0144775"/>
<path fill-rule="evenodd" clip-rule="evenodd" d="M61.2376 43.1668C61.2348 43.2007 61.2397 43.2348 61.2519 43.2669C61.2641 43.299 61.2834 43.3285 61.3085 43.3534C61.3336 43.3784 61.3641 43.3983 61.398 43.4119C61.4319 43.4255 61.4685 43.4325 61.5054 43.4325C61.5424 43.4325 61.579 43.4255 61.6128 43.4119C61.6467 43.3983 61.6772 43.3784 61.7023 43.3534C61.7275 43.3285 61.7468 43.299 61.759 43.2669C61.7712 43.2348 61.776 43.2007 61.7733 43.1668C61.7682 43.1046 61.7378 43.0465 61.6881 43.004C61.6384 42.9616 61.5732 42.938 61.5054 42.938C61.4377 42.938 61.3724 42.9616 61.3227 43.004C61.2731 43.0465 61.2426 43.1046 61.2376 43.1668Z" fill="white" stroke="black" stroke-width="0.0144775"/>
<path fill-rule="evenodd" clip-rule="evenodd" d="M60.5747 43.1226C60.5719 43.1565 60.5768 43.1906 60.589 43.2227C60.6012 43.2549 60.6205 43.2843 60.6456 43.3093C60.6708 43.3342 60.7013 43.3541 60.7351 43.3677C60.769 43.3813 60.8056 43.3883 60.8426 43.3883C60.8795 43.3883 60.9161 43.3813 60.95 43.3677C60.9839 43.3541 61.0143 43.3342 61.0395 43.3093C61.0646 43.2843 61.0839 43.2549 61.0961 43.2227C61.1083 43.1906 61.1132 43.1565 61.1104 43.1226C61.1053 43.0604 61.0749 43.0023 61.0252 42.9598C60.9756 42.9174 60.9103 42.8939 60.8426 42.8939C60.7748 42.8939 60.7096 42.9174 60.6599 42.9598C60.6102 43.0023 60.5798 43.0604 60.5747 43.1226Z" fill="white" stroke="black" stroke-width="0.0144775"/>
<path fill-rule="evenodd" clip-rule="evenodd" d="M59.8566 43.1447C59.8539 43.1786 59.8587 43.2127 59.8709 43.2448C59.8831 43.2769 59.9024 43.3064 59.9276 43.3313C59.9527 43.3563 59.9832 43.3762 60.0171 43.3898C60.0509 43.4034 60.0875 43.4104 60.1245 43.4104C60.1614 43.4104 60.198 43.4034 60.2319 43.3898C60.2658 43.3762 60.2962 43.3563 60.3214 43.3313C60.3465 43.3064 60.3658 43.2769 60.378 43.2448C60.3902 43.2127 60.3951 43.1786 60.3923 43.1447C60.3872 43.0825 60.3568 43.0244 60.3072 42.9819C60.2575 42.9395 60.1922 42.916 60.1245 42.916C60.0567 42.916 59.9915 42.9395 59.9418 42.9819C59.8921 43.0244 59.8617 43.0825 59.8566 43.1447Z" fill="white" stroke="black" stroke-width="0.0144775"/>
<path fill-rule="evenodd" clip-rule="evenodd" d="M59.1385 43.2441C59.1358 43.278 59.1406 43.3121 59.1529 43.3443C59.1651 43.3764 59.1843 43.4058 59.2095 43.4308C59.2346 43.4557 59.2651 43.4756 59.299 43.4892C59.3329 43.5028 59.3694 43.5099 59.4064 43.5099C59.4434 43.5099 59.4799 43.5028 59.5138 43.4892C59.5477 43.4756 59.5782 43.4557 59.6033 43.4308C59.6284 43.4058 59.6477 43.3764 59.6599 43.3443C59.6721 43.3121 59.677 43.278 59.6742 43.2441C59.6692 43.1819 59.6387 43.1238 59.5891 43.0814C59.5394 43.039 59.4741 43.0154 59.4064 43.0154C59.3386 43.0154 59.2734 43.039 59.2237 43.0814C59.174 43.1238 59.1436 43.1819 59.1385 43.2441Z" fill="white" stroke="black" stroke-width="0.0144775"/>
<path fill-rule="evenodd" clip-rule="evenodd" d="M58.4315 43.3325C58.4287 43.3664 58.4336 43.4005 58.4458 43.4326C58.458 43.4648 58.4773 43.4942 58.5024 43.5192C58.5276 43.5441 58.5581 43.564 58.5919 43.5776C58.6258 43.5912 58.6624 43.5982 58.6994 43.5982C58.7363 43.5982 58.7729 43.5912 58.8068 43.5776C58.8407 43.564 58.8711 43.5441 58.8963 43.5192C58.9214 43.4942 58.9407 43.4648 58.9529 43.4326C58.9651 43.4005 58.97 43.3664 58.9672 43.3325C58.9621 43.2703 58.9317 43.2122 58.882 43.1697C58.8324 43.1273 58.7671 43.1038 58.6994 43.1038C58.6316 43.1038 58.5664 43.1273 58.5167 43.1697C58.467 43.2122 58.4366 43.2703 58.4315 43.3325Z" fill="white" stroke="black" stroke-width="0.0144775"/>
<path fill-rule="evenodd" clip-rule="evenodd" d="M57.6582 43.443C57.6554 43.4769 57.6603 43.511 57.6725 43.5431C57.6847 43.5752 57.704 43.6047 57.7291 43.6296C57.7543 43.6546 57.7847 43.6745 57.8186 43.6881C57.8525 43.7017 57.8891 43.7087 57.9261 43.7087C57.963 43.7087 57.9996 43.7017 58.0335 43.6881C58.0674 43.6745 58.0978 43.6546 58.123 43.6296C58.1481 43.6047 58.1674 43.5752 58.1796 43.5431C58.1918 43.511 58.1967 43.4769 58.1939 43.443C58.1888 43.3808 58.1584 43.3226 58.1087 43.2802C58.0591 43.2378 57.9938 43.2142 57.9261 43.2142C57.8583 43.2142 57.793 43.2378 57.7434 43.2802C57.6937 43.3226 57.6633 43.3808 57.6582 43.443Z" fill="white" stroke="black" stroke-width="0.0144775"/>
<path fill-rule="evenodd" clip-rule="evenodd" d="M56.9953 43.6197C56.9926 43.6536 56.9974 43.6877 57.0096 43.7199C57.0218 43.752 57.0411 43.7814 57.0663 43.8064C57.0914 43.8313 57.1219 43.8512 57.1558 43.8648C57.1896 43.8785 57.2262 43.8855 57.2632 43.8855C57.3001 43.8855 57.3367 43.8785 57.3706 43.8648C57.4045 43.8512 57.4349 43.8313 57.4601 43.8064C57.4852 43.7814 57.5045 43.752 57.5167 43.7199C57.5289 43.6877 57.5338 43.6536 57.531 43.6197C57.5259 43.5575 57.4955 43.4994 57.4459 43.457C57.3962 43.4146 57.3309 43.391 57.2632 43.391C57.1954 43.391 57.1302 43.4146 57.0805 43.457C57.0308 43.4994 57.0004 43.5575 56.9953 43.6197Z" fill="white" stroke="black" stroke-width="0.0144775"/>
<path fill-rule="evenodd" clip-rule="evenodd" d="M50.3325 47.0334C50.3353 47.0673 50.3304 47.1014 50.3182 47.1336C50.306 47.1657 50.2867 47.1951 50.2616 47.2201C50.2365 47.245 50.206 47.2649 50.1721 47.2785C50.1382 47.2921 50.1017 47.2992 50.0647 47.2992C50.0277 47.2992 49.9911 47.2921 49.9573 47.2785C49.9234 47.2649 49.8929 47.245 49.8678 47.2201C49.8426 47.1951 49.8234 47.1657 49.8111 47.1336C49.7989 47.1014 49.7941 47.0673 49.7968 47.0334C49.8019 46.9712 49.8323 46.9131 49.882 46.8707C49.9317 46.8283 49.9969 46.8047 50.0647 46.8047C50.1324 46.8047 50.1977 46.8283 50.2474 46.8707C50.297 46.9131 50.3275 46.9712 50.3325 47.0334Z" fill="white" stroke="black" stroke-width="0.0144775"/>
<path fill-rule="evenodd" clip-rule="evenodd" d="M50.0563 46.4699C50.0591 46.5039 50.0542 46.538 50.042 46.5701C50.0298 46.6022 50.0105 46.6317 49.9854 46.6566C49.9603 46.6816 49.9298 46.7015 49.8959 46.7151C49.862 46.7287 49.8255 46.7357 49.7885 46.7357C49.7515 46.7357 49.715 46.7287 49.6811 46.7151C49.6472 46.7015 49.6167 46.6816 49.5916 46.6566C49.5664 46.6317 49.5472 46.6022 49.535 46.5701C49.5227 46.538 49.5179 46.5039 49.5206 46.4699C49.5257 46.4077 49.5561 46.3496 49.6058 46.3072C49.6555 46.2648 49.7207 46.2412 49.7885 46.2412C49.8562 46.2412 49.9215 46.2648 49.9712 46.3072C50.0208 46.3496 50.0513 46.4077 50.0563 46.4699Z" fill="white" stroke="black" stroke-width="0.0144775"/>
<path fill-rule="evenodd" clip-rule="evenodd" d="M49.9238 45.8955C49.9265 45.9294 49.9217 45.9635 49.9095 45.9956C49.8972 46.0277 49.878 46.0572 49.8528 46.0821C49.8277 46.1071 49.7972 46.127 49.7633 46.1406C49.7295 46.1542 49.6929 46.1612 49.6559 46.1612C49.6189 46.1612 49.5824 46.1542 49.5485 46.1406C49.5146 46.127 49.4841 46.1071 49.459 46.0821C49.4339 46.0572 49.4146 46.0277 49.4024 45.9956C49.3902 45.9635 49.3853 45.9294 49.3881 45.8955C49.3931 45.8333 49.4236 45.7752 49.4732 45.7327C49.5229 45.6903 49.5882 45.6667 49.6559 45.6667C49.7237 45.6667 49.7889 45.6903 49.8386 45.7327C49.8883 45.7752 49.9187 45.8333 49.9238 45.8955Z" fill="white" stroke="black" stroke-width="0.0144775"/>
<path fill-rule="evenodd" clip-rule="evenodd" d="M49.8243 45.2879C49.8271 45.3218 49.8222 45.3559 49.81 45.388C49.7978 45.4201 49.7785 45.4496 49.7534 45.4745C49.7283 45.4995 49.6978 45.5194 49.6639 45.533C49.63 45.5466 49.5935 45.5536 49.5565 45.5536C49.5195 45.5536 49.4829 45.5466 49.4491 45.533C49.4152 45.5194 49.3847 45.4995 49.3596 45.4745C49.3344 45.4496 49.3152 45.4201 49.3029 45.388C49.2907 45.3559 49.2859 45.3218 49.2886 45.2879C49.2937 45.2257 49.3241 45.1675 49.3738 45.1251C49.4235 45.0827 49.4887 45.0591 49.5565 45.0591C49.6242 45.0591 49.6895 45.0827 49.7392 45.1251C49.7888 45.1675 49.8193 45.2257 49.8243 45.2879Z" fill="white" stroke="black" stroke-width="0.0144775"/>
<path fill-rule="evenodd" clip-rule="evenodd" d="M49.8464 44.625C49.8492 44.659 49.8443 44.6931 49.8321 44.7252C49.8199 44.7573 49.8006 44.7867 49.7755 44.8117C49.7504 44.8366 49.7199 44.8565 49.686 44.8702C49.6521 44.8838 49.6156 44.8908 49.5786 44.8908C49.5416 44.8908 49.5051 44.8838 49.4712 44.8702C49.4373 44.8565 49.4068 44.8366 49.3817 44.8117C49.3565 44.7867 49.3373 44.7573 49.3251 44.7252C49.3128 44.6931 49.308 44.659 49.3107 44.625C49.3158 44.5628 49.3462 44.5047 49.3959 44.4623C49.4456 44.4199 49.5108 44.3963 49.5786 44.3963C49.6463 44.3963 49.7116 44.4199 49.7613 44.4623C49.8109 44.5047 49.8414 44.5628 49.8464 44.625Z" fill="white" stroke="black" stroke-width="0.0144775"/>
<path fill-rule="evenodd" clip-rule="evenodd" d="M50.0674 43.9953C50.0701 44.0293 50.0653 44.0634 50.0531 44.0955C50.0409 44.1276 50.0216 44.157 49.9964 44.182C49.9713 44.2069 49.9408 44.2268 49.9069 44.2405C49.8731 44.2541 49.8365 44.2611 49.7995 44.2611C49.7626 44.2611 49.726 44.2541 49.6921 44.2405C49.6582 44.2268 49.6278 44.2069 49.6026 44.182C49.5775 44.157 49.5582 44.1276 49.546 44.0955C49.5338 44.0634 49.5289 44.0293 49.5317 43.9953C49.5368 43.9331 49.5672 43.875 49.6169 43.8326C49.6665 43.7902 49.7318 43.7666 49.7995 43.7666C49.8673 43.7666 49.9325 43.7902 49.9822 43.8326C50.0319 43.875 50.0623 43.9331 50.0674 43.9953Z" fill="white" stroke="black" stroke-width="0.0144775"/>
<path fill-rule="evenodd" clip-rule="evenodd" d="M50.5535 43.4982C50.5562 43.5321 50.5514 43.5662 50.5392 43.5983C50.527 43.6305 50.5077 43.6599 50.4825 43.6849C50.4574 43.7098 50.4269 43.7297 50.393 43.7433C50.3592 43.7569 50.3226 43.764 50.2856 43.764C50.2487 43.764 50.2121 43.7569 50.1782 43.7433C50.1443 43.7297 50.1139 43.7098 50.0887 43.6849C50.0636 43.6599 50.0443 43.6305 50.0321 43.5983C50.0199 43.5662 50.015 43.5321 50.0178 43.4982C50.0229 43.436 50.0533 43.3779 50.1029 43.3355C50.1526 43.293 50.2179 43.2695 50.2856 43.2695C50.3534 43.2695 50.4186 43.293 50.4683 43.3355C50.518 43.3779 50.5484 43.436 50.5535 43.4982Z" fill="white" stroke="black" stroke-width="0.0144775"/>
<path fill-rule="evenodd" clip-rule="evenodd" d="M51.2274 43.1668C51.2301 43.2007 51.2253 43.2348 51.213 43.2669C51.2008 43.299 51.1816 43.3285 51.1564 43.3534C51.1313 43.3784 51.1008 43.3983 51.0669 43.4119C51.033 43.4255 50.9965 43.4325 50.9595 43.4325C50.9225 43.4325 50.886 43.4255 50.8521 43.4119C50.8182 43.3983 50.7877 43.3784 50.7626 43.3534C50.7375 43.3285 50.7182 43.299 50.706 43.2669C50.6938 43.2348 50.6889 43.2007 50.6917 43.1668C50.6967 43.1046 50.7272 43.0465 50.7768 43.004C50.8265 42.9616 50.8918 42.938 50.9595 42.938C51.0273 42.938 51.0925 42.9616 51.1422 43.004C51.1919 43.0465 51.2223 43.1046 51.2274 43.1668Z" fill="white" stroke="black" stroke-width="0.0144775"/>
<path fill-rule="evenodd" clip-rule="evenodd" d="M51.8902 43.1226C51.893 43.1565 51.8881 43.1906 51.8759 43.2227C51.8637 43.2549 51.8444 43.2843 51.8193 43.3093C51.7941 43.3342 51.7637 43.3541 51.7298 43.3677C51.6959 43.3813 51.6593 43.3883 51.6224 43.3883C51.5854 43.3883 51.5488 43.3813 51.5149 43.3677C51.4811 43.3541 51.4506 43.3342 51.4255 43.3093C51.4003 43.2843 51.381 43.2549 51.3688 43.2227C51.3566 43.1906 51.3518 43.1565 51.3545 43.1226C51.3596 43.0604 51.39 43.0023 51.4397 42.9598C51.4894 42.9174 51.5546 42.8939 51.6224 42.8939C51.6901 42.8939 51.7554 42.9174 51.805 42.9598C51.8547 43.0023 51.8851 43.0604 51.8902 43.1226Z" fill="white" stroke="black" stroke-width="0.0144775"/>
<path fill-rule="evenodd" clip-rule="evenodd" d="M52.6083 43.1447C52.6111 43.1786 52.6062 43.2127 52.594 43.2448C52.5818 43.2769 52.5625 43.3064 52.5374 43.3313C52.5122 43.3563 52.4818 43.3762 52.4479 43.3898C52.414 43.4034 52.3774 43.4104 52.3405 43.4104C52.3035 43.4104 52.2669 43.4034 52.233 43.3898C52.1991 43.3762 52.1687 43.3563 52.1435 43.3313C52.1184 43.3064 52.0991 43.2769 52.0869 43.2448C52.0747 43.2127 52.0698 43.1786 52.0726 43.1447C52.0777 43.0825 52.1081 43.0244 52.1578 42.9819C52.2074 42.9395 52.2727 42.916 52.3405 42.916C52.4082 42.916 52.4735 42.9395 52.5231 42.9819C52.5728 43.0244 52.6032 43.0825 52.6083 43.1447Z" fill="white" stroke="black" stroke-width="0.0144775"/>
<path fill-rule="evenodd" clip-rule="evenodd" d="M53.3264 43.2441C53.3292 43.278 53.3243 43.3121 53.3121 43.3443C53.2999 43.3764 53.2806 43.4058 53.2555 43.4308C53.2303 43.4557 53.1998 43.4756 53.166 43.4892C53.1321 43.5028 53.0955 43.5099 53.0585 43.5099C53.0216 43.5099 52.985 43.5028 52.9511 43.4892C52.9172 43.4756 52.8868 43.4557 52.8616 43.4308C52.8365 43.4058 52.8172 43.3764 52.805 43.3443C52.7928 43.3121 52.7879 43.278 52.7907 43.2441C52.7958 43.1819 52.8262 43.1238 52.8759 43.0814C52.9255 43.039 52.9908 43.0154 53.0585 43.0154C53.1263 43.0154 53.1915 43.039 53.2412 43.0814C53.2909 43.1238 53.3213 43.1819 53.3264 43.2441Z" fill="white" stroke="black" stroke-width="0.0144775"/>
<path fill-rule="evenodd" clip-rule="evenodd" d="M54.0445 43.3325C54.0472 43.3664 54.0424 43.4005 54.0302 43.4326C54.018 43.4648 53.9987 43.4942 53.9735 43.5192C53.9484 43.5441 53.9179 43.564 53.884 43.5776C53.8502 43.5912 53.8136 43.5982 53.7766 43.5982C53.7397 43.5982 53.7031 43.5912 53.6692 43.5776C53.6353 43.564 53.6049 43.5441 53.5797 43.5192C53.5546 43.4942 53.5353 43.4648 53.5231 43.4326C53.5109 43.4005 53.506 43.3664 53.5088 43.3325C53.5139 43.2703 53.5443 43.2122 53.594 43.1697C53.6436 43.1273 53.7089 43.1038 53.7766 43.1038C53.8444 43.1038 53.9096 43.1273 53.9593 43.1697C54.009 43.2122 54.0394 43.2703 54.0445 43.3325Z" fill="white" stroke="black" stroke-width="0.0144775"/>
<path fill-rule="evenodd" clip-rule="evenodd" d="M54.8068 43.443C54.8095 43.4769 54.8047 43.511 54.7925 43.5431C54.7803 43.5752 54.761 43.6047 54.7358 43.6296C54.7107 43.6546 54.6802 43.6745 54.6463 43.6881C54.6125 43.7017 54.5759 43.7087 54.5389 43.7087C54.502 43.7087 54.4654 43.7017 54.4315 43.6881C54.3976 43.6745 54.3671 43.6546 54.342 43.6296C54.3169 43.6047 54.2976 43.5752 54.2854 43.5431C54.2732 43.511 54.2683 43.4769 54.2711 43.443C54.2762 43.3808 54.3066 43.3226 54.3562 43.2802C54.4059 43.2378 54.4712 43.2142 54.5389 43.2142C54.6067 43.2142 54.6719 43.2378 54.7216 43.2802C54.7713 43.3226 54.8017 43.3808 54.8068 43.443Z" fill="white" stroke="black" stroke-width="0.0144775"/>
<path fill-rule="evenodd" clip-rule="evenodd" d="M55.4696 43.6197C55.4724 43.6536 55.4675 43.6877 55.4553 43.7199C55.4431 43.752 55.4238 43.7814 55.3987 43.8064C55.3736 43.8313 55.3431 43.8512 55.3092 43.8648C55.2753 43.8785 55.2387 43.8855 55.2018 43.8855C55.1648 43.8855 55.1282 43.8785 55.0944 43.8648C55.0605 43.8512 55.03 43.8313 55.0049 43.8064C54.9797 43.7814 54.9604 43.752 54.9482 43.7199C54.936 43.6877 54.9312 43.6536 54.9339 43.6197C54.939 43.5575 54.9694 43.4994 55.0191 43.457C55.0688 43.4146 55.134 43.391 55.2018 43.391C55.2695 43.391 55.3348 43.4146 55.3845 43.457C55.4341 43.4994 55.4645 43.5575 55.4696 43.6197Z" fill="white" stroke="black" stroke-width="0.0144775"/>
<path fill-rule="evenodd" clip-rule="evenodd" d="M50.7081 47.5305C50.7109 47.5645 50.706 47.5986 50.6938 47.6307C50.6816 47.6628 50.6623 47.6923 50.6372 47.7172C50.6121 47.7422 50.5816 47.7621 50.5477 47.7757C50.5138 47.7893 50.4773 47.7963 50.4403 47.7963C50.4033 47.7963 50.3668 47.7893 50.3329 47.7757C50.299 47.7621 50.2685 47.7422 50.2434 47.7172C50.2182 47.6923 50.199 47.6628 50.1868 47.6307C50.1745 47.5986 50.1697 47.5645 50.1724 47.5305C50.1775 47.4684 50.2079 47.4102 50.2576 47.3678C50.3073 47.3254 50.3725 47.3018 50.4403 47.3018C50.508 47.3018 50.5733 47.3254 50.623 47.3678C50.6726 47.4102 50.7031 47.4684 50.7081 47.5305Z" fill="white" stroke="black" stroke-width="0.0144775"/>
<path fill-rule="evenodd" clip-rule="evenodd" d="M50.8907 47.5472C50.8907 47.5472 49.8646 46.8249 49.8375 45.0872C49.8224 44.0872 50.3566 43.3649 51.6935 43.3649C53.5646 43.3649 56.2371 44.1024 56.2371 44.1024V44.3483C56.2371 44.3483 54.0988 43.6107 51.692 43.6107C50.6236 43.6107 50.088 44.333 50.088 45.072C50.088 46.3026 51.1593 47.5485 51.1593 47.5485V49.5168H50.8907V47.5472Z" fill="#FFF100" stroke="black" stroke-width="0.0144775"/>
<path fill-rule="evenodd" clip-rule="evenodd" d="M52.7543 48.4594C52.7543 48.4594 52.8313 48.2721 53.1109 48.2721C53.3011 48.2721 53.467 48.4594 53.467 48.6467V49.0219H53.6456V48.6467C53.6456 48.4594 53.8237 48.2721 54.0017 48.2721C54.2693 48.2721 54.3583 48.4594 54.3583 48.4594C54.3583 48.4594 54.3583 47.8969 54.0017 47.8969C53.7346 47.8969 53.6456 48.0842 53.6456 48.0842C53.6456 48.0842 53.7346 47.8032 53.7346 47.5217C53.7346 47.2402 53.5566 47.0529 53.5566 47.0529C53.5566 47.0888 53.378 47.2407 53.378 47.5217C53.378 47.8027 53.467 48.0842 53.467 48.0842C53.467 48.0842 53.378 47.8969 53.1109 47.8969C52.7543 47.8969 52.7543 48.4594 52.7543 48.4594Z" fill="#FFF100" stroke="black" stroke-width="0.0154776"/>
<path fill-rule="evenodd" clip-rule="evenodd" d="M58.1013 48.4594C58.1013 48.4594 58.1783 48.2721 58.4579 48.2721C58.6481 48.2721 58.8141 48.4594 58.8141 48.6467V49.0219H58.9926V48.6467C58.9926 48.4594 59.1707 48.2721 59.3487 48.2721C59.6163 48.2721 59.7054 48.4594 59.7054 48.4594C59.7054 48.4594 59.7054 47.8969 59.3487 47.8969C59.0817 47.8969 58.9926 48.0842 58.9926 48.0842C58.9926 48.0842 59.0817 47.8032 59.0817 47.5217C59.0817 47.2402 58.9036 47.0529 58.9036 47.0529C58.9036 47.0888 58.725 47.2407 58.725 47.5217C58.725 47.8027 58.8141 48.0842 58.8141 48.0842C58.8141 48.0842 58.725 47.8969 58.4579 47.8969C58.1013 47.8969 58.1013 48.4594 58.1013 48.4594Z" fill="#FFF100" stroke="black" stroke-width="0.0154776"/>
<path fill-rule="evenodd" clip-rule="evenodd" d="M50.8907 50.9933V48.7779C50.8907 48.7779 51.4249 49.5168 52.2277 49.5168C52.8841 49.5168 53.5647 48.532 53.5647 48.532C53.5647 48.532 54.1909 49.271 54.9016 49.271C55.5354 49.271 56.2371 48.3181 56.2371 48.3181C56.2371 48.3181 56.8889 49.271 57.574 49.271C58.2606 49.271 58.911 48.532 58.911 48.532C58.911 48.532 59.6096 49.5168 60.515 49.5168C61.3163 49.5168 61.5849 48.7779 61.5849 48.7779V50.9933H50.8907Z" fill="#FFF100" stroke="black" stroke-width="0.0144775"/>
<path fill-rule="evenodd" clip-rule="evenodd" d="M50.8911 50.9933V49.2709C50.8911 49.2709 52.4952 49.7613 52.4952 50.9933H50.8911Z" fill="#FFF100" stroke="black" stroke-width="0.0144775"/>
<path fill-rule="evenodd" clip-rule="evenodd" d="M61.5738 50.9933V49.2709C61.5738 49.2709 59.9698 49.7613 59.9698 50.9933H61.5738Z" fill="#FFF100" stroke="black" stroke-width="0.0144775"/>
<path fill-rule="evenodd" clip-rule="evenodd" d="M51.9606 50.9933C51.9606 49.7612 53.5646 48.9834 53.5646 48.9834C53.5646 48.9834 55.1687 49.7612 55.1687 50.9933H51.9606Z" fill="#FFF100" stroke="black" stroke-width="0.0144775"/>
<path fill-rule="evenodd" clip-rule="evenodd" d="M57.3076 50.9933C57.3076 49.7612 58.9117 48.9834 58.9117 48.9834C58.9117 48.9834 60.5157 49.7612 60.5157 50.9933H57.3076Z" fill="#FFF100" stroke="black" stroke-width="0.0144775"/>
<path fill-rule="evenodd" clip-rule="evenodd" d="M54.3655 51C54.3655 49.7694 56.2382 48.7859 56.2382 48.7859C56.2382 48.7859 58.1093 49.7694 58.1093 51H54.367H54.3655Z" fill="#FFF100" stroke="black" stroke-width="0.0144775"/>
<path fill-rule="evenodd" clip-rule="evenodd" d="M61.8468 50.9956C61.3186 50.7498 59.3701 50.5039 56.2325 50.5039C53.0949 50.5039 51.0106 50.7498 50.481 50.9956C49.9528 51.2415 49.9528 51.7346 50.481 51.9804C51.0091 52.2263 53.0964 52.4721 56.2325 52.4721C59.3686 52.4721 61.3186 52.2263 61.8468 51.9804C62.3749 51.7346 62.3749 51.2415 61.8468 50.9956Z" fill="white" stroke="black" stroke-width="0.0143957"/>
<path fill-rule="evenodd" clip-rule="evenodd" d="M61.585 51.9771C61.585 52.4742 57.1328 52.4742 56.238 52.4742C55.2658 52.4742 50.891 52.6068 50.891 51.9771C50.891 51.491 55.299 51.491 56.238 51.491C57.166 51.491 61.585 51.5904 61.585 51.9771Z" fill="#808080"/>
<path fill-rule="evenodd" clip-rule="evenodd" d="M51.4213 50.2094C51.4213 50.3751 51.3108 50.5077 51.1561 50.5077C51.0015 50.5077 50.891 50.3751 50.891 50.2094C50.891 50.0437 51.0015 49.9222 51.1561 49.9222C51.2998 49.9222 51.4213 50.0547 51.4213 50.2094ZM61.585 50.2094C61.585 50.3751 61.4635 50.5077 61.3088 50.5077C61.1652 50.5077 61.0437 50.3751 61.0437 50.2094C61.0437 50.0437 61.1652 49.9222 61.3088 49.9222C61.4635 49.9222 61.5739 50.0547 61.5739 50.2094H61.585Z" fill="#CC0000"/>
<path fill-rule="evenodd" clip-rule="evenodd" d="M56.7683 50.0658C56.7683 50.2205 56.5252 50.353 56.238 50.353C55.9508 50.353 55.6967 50.2205 55.6967 50.0548C55.6967 49.889 55.9397 49.7675 56.238 49.7675C56.5363 49.7675 56.7683 49.9001 56.7683 50.0548V50.0658Z" fill="black"/>
<path fill-rule="evenodd" clip-rule="evenodd" d="M59.3313 50.0658C59.3313 50.2205 59.1545 50.353 58.9336 50.353C58.7126 50.353 58.5359 50.2205 58.5359 50.0548C58.5359 49.889 58.7126 49.7675 58.9336 49.7675C59.1545 49.7675 59.3313 49.9001 59.3313 50.0548V50.0658ZM53.8296 50.0658C53.8296 50.2205 53.6529 50.353 53.4319 50.353C53.211 50.353 53.0232 50.2205 53.0232 50.0548C53.0232 49.889 53.1999 49.7675 53.4319 49.7675C53.6529 49.7675 53.8296 49.9001 53.8296 50.0548V50.0658Z" fill="#006300"/>
<path fill-rule="evenodd" clip-rule="evenodd" d="M55.1641 48.3686C55.1641 48.3686 55.4693 47.9479 55.7754 47.9479H56.0807V48.2281C56.0807 48.6504 55.6228 48.7917 55.6228 48.7917H56.8446C56.8446 48.7917 56.3859 48.6504 56.3859 48.2281V47.9479H56.692C56.9973 47.9479 57.3025 48.3702 57.3025 48.3702V47.2439C57.3025 47.2439 56.9973 47.6662 56.692 47.6662H56.3859V47.3844C56.3859 46.9629 56.8446 46.8224 56.8446 46.8224H55.6219C55.6219 46.8224 56.0798 46.9629 56.0798 47.3844V47.6662H55.7746C55.4685 47.6662 55.1632 47.2439 55.1632 47.2439V48.3694L55.1641 48.3686Z" fill="#FFF100" stroke="black" stroke-width="0.0182007"/>
<path fill-rule="evenodd" clip-rule="evenodd" d="M50.8839 49.2735H51.1896C51.1896 49.2735 50.9602 49.1506 50.9602 48.7811V48.5359H51.1128C51.2659 48.5359 51.419 48.9054 51.419 48.9054V47.9198C51.419 47.9198 51.2659 48.2893 51.1128 48.2893H50.9602V48.0428C50.9602 47.674 51.1896 47.551 51.1896 47.551H50.8839V49.2735Z" fill="#FFF100" stroke="black" stroke-width="0.0180592"/>
<path fill-rule="evenodd" clip-rule="evenodd" d="M61.5811 49.2735H61.2754C61.2754 49.2735 61.5048 49.1506 61.5048 48.7811V48.5359H61.3521C61.199 48.5359 61.046 48.9054 61.046 48.9054V47.9198C61.046 47.9198 61.199 48.2893 61.3521 48.2893H61.5048V48.0428C61.5048 47.674 61.2754 47.551 61.2754 47.551H61.5811V49.2735Z" fill="#FFF100" stroke="black" stroke-width="0.0180592"/>
<path fill-rule="evenodd" clip-rule="evenodd" d="M56.5041 47.7944C56.5041 47.8596 56.476 47.9222 56.4259 47.9683C56.3758 48.0144 56.3079 48.0403 56.237 48.0403C56.1662 48.0403 56.0983 48.0144 56.0482 47.9683C55.9981 47.9222 55.97 47.8596 55.97 47.7944C55.97 47.7292 55.9981 47.6667 56.0482 47.6206C56.0983 47.5745 56.1662 47.5486 56.237 47.5486C56.3079 47.5486 56.3758 47.5745 56.4259 47.6206C56.476 47.6667 56.5041 47.7292 56.5041 47.7944Z" fill="white" stroke="black" stroke-width="0.0144775"/>
<path fill-rule="evenodd" clip-rule="evenodd" d="M55.1641 43.1984C55.1641 43.1984 55.4693 42.7777 55.7754 42.7777H56.0807V43.0579C56.0807 43.4802 55.6228 43.6215 55.6228 43.6215H56.8446C56.8446 43.6215 56.3859 43.4802 56.3859 43.0579V42.7777H56.692C56.9973 42.7777 57.3025 43.2 57.3025 43.2V42.0736C57.3025 42.0736 56.9973 42.4959 56.692 42.4959H56.3859V42.2141C56.3859 41.7927 56.8446 41.6522 56.8446 41.6522H55.6219C55.6219 41.6522 56.0798 41.7927 56.0798 42.2141V42.4959H55.7746C55.4685 42.4959 55.1632 42.0736 55.1632 42.0736V43.1992L55.1641 43.1984Z" fill="#FFF100" stroke="black" stroke-width="0.0182007"/>
<path fill-rule="evenodd" clip-rule="evenodd" d="M56.5262 42.6684C56.5262 42.7336 56.4981 42.7961 56.448 42.8422C56.3979 42.8884 56.33 42.9143 56.2592 42.9143C56.1883 42.9143 56.1204 42.8884 56.0703 42.8422C56.0202 42.7961 55.9921 42.7336 55.9921 42.6684C55.9921 42.6032 56.0202 42.5407 56.0703 42.4946C56.1204 42.4484 56.1883 42.4225 56.2592 42.4225C56.33 42.4225 56.3979 42.4484 56.448 42.4946C56.4981 42.5407 56.5262 42.6032 56.5262 42.6684Z" fill="white" stroke="black" stroke-width="0.0144775"/>
<path fill-rule="evenodd" clip-rule="evenodd" d="M55.7029 43.6158H56.7727V44.3548H55.7014L55.7029 43.6158Z" fill="#FFF100" stroke="black" stroke-width="0.0144775"/>
<path fill-rule="evenodd" clip-rule="evenodd" d="M55.7029 44.002H56.7727V46.8147H55.7014L55.7029 44.002Z" fill="#FFF100" stroke="black" stroke-width="0.0144775"/>
<path fill-rule="evenodd" clip-rule="evenodd" d="M56.497 46.3153C56.4998 46.3492 56.4949 46.3833 56.4827 46.4154C56.4705 46.4475 56.4512 46.477 56.4261 46.5019C56.401 46.5269 56.3705 46.5468 56.3366 46.5604C56.3027 46.574 56.2662 46.581 56.2292 46.581C56.1922 46.581 56.1556 46.574 56.1218 46.5604C56.0879 46.5468 56.0574 46.5269 56.0323 46.5019C56.0071 46.477 55.9879 46.4475 55.9756 46.4154C55.9634 46.3833 55.9586 46.3492 55.9613 46.3153C55.9664 46.2531 55.9968 46.195 56.0465 46.1525C56.0962 46.1101 56.1614 46.0865 56.2292 46.0865C56.2969 46.0865 56.3622 46.1101 56.4119 46.1525C56.4615 46.195 56.492 46.2531 56.497 46.3153Z" fill="white" stroke="black" stroke-width="0.0144775"/>
<path fill-rule="evenodd" clip-rule="evenodd" d="M56.497 45.6856C56.4998 45.7195 56.4949 45.7536 56.4827 45.7857C56.4705 45.8178 56.4512 45.8473 56.4261 45.8722C56.401 45.8972 56.3705 45.9171 56.3366 45.9307C56.3027 45.9443 56.2662 45.9513 56.2292 45.9513C56.1922 45.9513 56.1556 45.9443 56.1218 45.9307C56.0879 45.9171 56.0574 45.8972 56.0323 45.8722C56.0071 45.8473 55.9879 45.8178 55.9756 45.7857C55.9634 45.7536 55.9586 45.7195 55.9613 45.6856C55.9664 45.6234 55.9968 45.5653 56.0465 45.5228C56.0962 45.4804 56.1614 45.4568 56.2292 45.4568C56.2969 45.4568 56.3622 45.4804 56.4119 45.5228C56.4615 45.5653 56.492 45.6234 56.497 45.6856Z" fill="white" stroke="black" stroke-width="0.0144775"/>
<path fill-rule="evenodd" clip-rule="evenodd" d="M56.497 45.1001C56.4998 45.134 56.4949 45.1681 56.4827 45.2002C56.4705 45.2323 56.4512 45.2618 56.4261 45.2867C56.401 45.3117 56.3705 45.3316 56.3366 45.3452C56.3027 45.3588 56.2662 45.3658 56.2292 45.3658C56.1922 45.3658 56.1556 45.3588 56.1218 45.3452C56.0879 45.3316 56.0574 45.3117 56.0323 45.2867C56.0071 45.2618 55.9879 45.2323 55.9756 45.2002C55.9634 45.1681 55.9586 45.134 55.9613 45.1001C55.9664 45.0379 55.9968 44.9797 56.0465 44.9373C56.0962 44.8949 56.1614 44.8713 56.2292 44.8713C56.2969 44.8713 56.3622 44.8949 56.4119 44.9373C56.4615 44.9797 56.492 45.0379 56.497 45.1001Z" fill="white" stroke="black" stroke-width="0.0144775"/>
<path fill-rule="evenodd" clip-rule="evenodd" d="M56.497 44.4814C56.4998 44.5153 56.4949 44.5494 56.4827 44.5816C56.4705 44.6137 56.4512 44.6431 56.4261 44.6681C56.401 44.693 56.3705 44.7129 56.3366 44.7265C56.3027 44.7401 56.2662 44.7472 56.2292 44.7472C56.1922 44.7472 56.1556 44.7401 56.1218 44.7265C56.0879 44.7129 56.0574 44.693 56.0323 44.6681C56.0071 44.6431 55.9879 44.6137 55.9756 44.5816C55.9634 44.5494 55.9586 44.5153 55.9613 44.4814C55.9664 44.4192 55.9968 44.3611 56.0465 44.3187C56.0962 44.2763 56.1614 44.2527 56.2292 44.2527C56.2969 44.2527 56.3622 44.2763 56.4119 44.3187C56.4615 44.3611 56.492 44.4192 56.497 44.4814Z" fill="white" stroke="black" stroke-width="0.0144775"/>
<path fill-rule="evenodd" clip-rule="evenodd" d="M56.8014 51.0049C56.8014 51.1154 56.5584 51.2037 56.2491 51.2037C55.9397 51.2037 55.7188 51.1154 55.7188 51.0049C55.7188 50.8944 55.9618 50.806 56.2601 50.806C56.5584 50.806 56.8014 50.8944 56.8014 51.0049ZM61.7286 51.491C61.6955 51.5683 61.4303 51.5794 61.1321 51.502C60.8338 51.4357 60.6239 51.3253 60.646 51.2479C60.6791 51.1706 60.9443 51.1596 61.2425 51.2369C61.5408 51.3032 61.7507 51.4136 61.7286 51.491ZM59.6627 51.1595C59.6627 51.259 59.3976 51.3142 59.0883 51.3032C58.79 51.2811 58.5469 51.1816 58.558 51.0822C58.569 50.9828 58.8342 50.9276 59.1325 50.9496C59.4418 50.9717 59.6848 51.0601 59.6627 51.1595ZM50.6259 51.491C50.648 51.5683 50.9131 51.5794 51.2114 51.502C51.5097 51.4357 51.7306 51.3253 51.6975 51.2479C51.6643 51.1706 51.3992 51.1596 51.1009 51.2369C50.8137 51.3032 50.5927 51.4136 50.6259 51.491ZM52.7801 51.1154C52.7912 51.2148 53.0563 51.27 53.3546 51.2479C53.6639 51.2258 53.907 51.1375 53.8849 51.027C53.8849 50.9386 53.6197 50.8723 53.3104 50.8944C53.0121 50.9165 52.7691 51.0049 52.7801 51.1154Z" fill="black"/>
<path d="M0 9.375H37.3333V37.375H0V9.375Z" fill="#012169"/>
<path d="M4.375 9.375L18.6083 19.9333L32.7833 9.375H37.3333V12.9917L23.3333 23.4333L37.3333 33.8167V37.375H32.6667L18.6667 26.9333L4.725 37.375H0V33.875L13.9417 23.4917L0 13.1083V9.375H4.375Z" fill="white"/>
<path d="M24.7333 25.7667L37.3333 35.0417V37.375L21.525 25.7667H24.7333ZM14 26.9333L14.35 28.975L3.15 37.375H0L14 26.9333ZM37.3333 9.375V9.55L22.8083 20.5167L22.925 17.95L34.4167 9.375H37.3333ZM0 9.375L13.9417 19.6417H10.4417L0 11.825V9.375Z" fill="#C8102E"/>
<path d="M14.0583 9.375V37.375H23.3917V9.375H14.0583ZM0 18.7083V28.0417H37.3333V18.7083H0Z" fill="white"/>
<path d="M0 20.6333V26.2333H37.3333V20.6333H0ZM15.925 9.375V37.375H21.525V9.375H15.925Z" fill="#C8102E"/>
</g>
<defs>
<clipPath id="clip0_1_20700">
<rect width="74.6667" height="56" fill="white" transform="translate(0 9.375)"/>
</clipPath>
</defs>
</svg>
