<svg width="75" height="75" viewBox="0 0 75 75" fill="none" xmlns="http://www.w3.org/2000/svg">
<rect width="74.6667" height="74.75" fill="white"/>
<g clip-path="url(#clip0_1_20759)">
<path fill-rule="evenodd" clip-rule="evenodd" d="M-19.0286 9.375H93.6539V65.5243H-19.0286V9.375Z" fill="#108C00"/>
<path fill-rule="evenodd" clip-rule="evenodd" d="M-19.2151 28.9176H94.0267V34.4119H-19.2151V28.9176Z" fill="#FFD600"/>
<path fill-rule="evenodd" clip-rule="evenodd" d="M29.1479 9.375H34.4668V65.5243H29.1589L29.1479 9.375Z" fill="#FFD600"/>
<path fill-rule="evenodd" clip-rule="evenodd" d="M34.2804 9.375H39.5882V65.5243H34.2804V9.375Z" fill="black"/>
<path fill-rule="evenodd" clip-rule="evenodd" d="M-19.2151 34.2255H94.0267V39.7307H-19.2151V34.2255Z" fill="black"/>
<path fill-rule="evenodd" clip-rule="evenodd" d="M-19.2151 39.7307H94.0267V45.225H-19.2151V39.7307Z" fill="white"/>
<path fill-rule="evenodd" clip-rule="evenodd" d="M39.5882 9.375H44.9071V65.5243H39.5882V9.375Z" fill="white"/>
<path d="M22.546 37.4935C22.546 45.8215 29.2677 52.5727 37.5594 52.5727C45.851 52.5727 52.5728 45.8215 52.5728 37.4935C52.5728 29.1655 45.851 22.4144 37.5594 22.4144C29.2677 22.4144 22.546 29.1655 22.546 37.4935Z" fill="#E72910"/>
<path fill-rule="evenodd" clip-rule="evenodd" d="M36.7698 24.3993L37.3839 22.6447L37.9432 24.3664C37.9432 24.3664 39.8185 24.4213 39.8185 24.3884C39.8185 24.3555 38.338 25.5179 38.338 25.5179L39.007 27.4481C38.985 27.3932 37.3839 26.2527 37.3839 26.2527C37.3839 26.2527 35.7608 27.3932 35.7937 27.3932C35.8266 27.3932 36.4079 25.5289 36.4079 25.5289L34.9493 24.4213L36.7698 24.3884V24.3993Z" fill="black"/>
<path fill-rule="evenodd" clip-rule="evenodd" d="M36.8576 24.4761L37.373 22.9737L37.8555 24.4652C37.8555 24.4652 39.4896 24.509 39.4896 24.4871C39.4896 24.4652 38.2065 25.4741 38.2065 25.4741L38.7767 27.141C38.7548 27.0862 37.373 26.1102 37.373 26.1102C37.373 26.1102 35.9693 27.0972 35.9912 27.0972C36.0131 27.0972 36.5395 25.4741 36.5395 25.4741L35.2674 24.509L36.8466 24.4871L36.8576 24.4761Z" fill="#FFE700"/>
<path fill-rule="evenodd" clip-rule="evenodd" d="M37.0769 24.7283L37.3839 23.851L37.6691 24.7174C37.6691 24.7174 38.6012 24.7393 38.6012 24.7174C38.6012 24.6954 37.8665 25.2876 37.8665 25.2876L38.1955 26.2527C38.1845 26.2198 37.3839 25.6605 37.3839 25.6605L36.5943 26.2308C36.6163 26.2308 36.9014 25.2986 36.9014 25.2986L36.1776 24.7503L37.0769 24.7283Z" fill="#108C00"/>
<path fill-rule="evenodd" clip-rule="evenodd" d="M48.4383 32.6024L49.0525 30.8477L49.6008 32.5695C49.6008 32.5695 51.4871 32.6353 51.4871 32.6024C51.4871 32.5695 50.0066 33.732 50.0066 33.732L50.6646 35.6621C50.6426 35.6073 49.0525 34.4667 49.0525 34.4667C49.0525 34.4667 47.4294 35.6073 47.4623 35.6073C47.4952 35.6073 48.0764 33.7429 48.0764 33.7429L46.6179 32.6243L48.4383 32.5914V32.6024Z" fill="black"/>
<path fill-rule="evenodd" clip-rule="evenodd" d="M48.5151 32.6901L49.0524 31.1657L49.535 32.6681C49.535 32.6681 51.158 32.712 51.158 32.6901C51.158 32.6681 49.8749 33.6771 49.8749 33.6771L50.4562 35.333C50.4342 35.2892 49.0524 34.3022 49.0524 34.3022C49.0524 34.3022 47.6487 35.2892 47.6706 35.2892C47.6926 35.2892 48.208 33.6661 48.208 33.6661L46.9468 32.712L48.5151 32.6901Z" fill="#FFE700"/>
<path fill-rule="evenodd" clip-rule="evenodd" d="M48.7454 32.9423L49.0525 32.065L49.3266 32.9204L50.2698 32.9423L49.524 33.5016C49.524 33.5016 49.875 34.4886 49.853 34.4667C49.853 34.4338 49.0525 33.8745 49.0525 33.8745L48.2519 34.4338L48.559 33.5016L47.8352 32.9533L48.7454 32.9423Z" fill="#108C00"/>
<path fill-rule="evenodd" clip-rule="evenodd" d="M45.0386 45.6308L45.6528 43.8762L46.2011 45.6089C46.2011 45.6089 48.0874 45.6637 48.0874 45.6418C48.0874 45.6199 46.6069 46.7714 46.6069 46.7714L47.2649 48.6905C47.2429 48.6357 45.6528 47.5061 45.6528 47.5061C45.6528 47.5061 44.0297 48.6357 44.0516 48.6357C44.0736 48.6357 44.6767 46.7714 44.6767 46.7714L43.2182 45.6747L45.0386 45.6418V45.6308Z" fill="black"/>
<path fill-rule="evenodd" clip-rule="evenodd" d="M45.1154 45.7185L45.6528 44.2051L46.1353 45.6966C46.1353 45.6966 47.7584 45.7514 47.7584 45.7185C47.7584 45.6856 46.4753 46.7055 46.4753 46.7055L47.0565 48.3725C47.0345 48.3176 45.6528 47.3416 45.6528 47.3416C45.6528 47.3416 44.249 48.3286 44.271 48.3286C44.2929 48.3286 44.8083 46.7055 44.8083 46.7055L43.5471 45.7514L45.1154 45.7185Z" fill="#FFE700"/>
<path fill-rule="evenodd" clip-rule="evenodd" d="M45.3457 45.9708L45.6528 45.0934L45.927 45.9598C45.927 45.9598 46.8701 45.9927 46.8701 45.9708C46.8701 45.9488 46.1244 46.541 46.1244 46.541L46.4534 47.4951C46.4534 47.4732 45.6528 46.9029 45.6528 46.9029L44.8522 47.4732L45.1593 46.541L44.4355 45.9927L45.3457 45.9708Z" fill="#108C00"/>
<path fill-rule="evenodd" clip-rule="evenodd" d="M28.7312 45.6308L29.3454 43.8762L29.8937 45.6089C29.8937 45.6089 31.769 45.6637 31.769 45.6418C31.769 45.6199 30.2885 46.7714 30.2885 46.7714L30.9684 48.6905C30.9355 48.6357 29.3454 47.5061 29.3454 47.5061C29.3454 47.5061 27.7223 48.6357 27.7442 48.6357C27.7662 48.6357 28.3693 46.7714 28.3693 46.7714L26.9108 45.6747L28.7312 45.6418V45.6308Z" fill="black"/>
<path fill-rule="evenodd" clip-rule="evenodd" d="M28.819 45.7185L29.3454 44.2051L29.8279 45.6966C29.8279 45.6966 31.451 45.7514 31.451 45.7185C31.451 45.6856 30.1679 46.7055 30.1679 46.7055L30.7491 48.3725C30.7272 48.3176 29.3454 47.3416 29.3454 47.3416C29.3454 47.3416 27.9416 48.3286 27.9636 48.3286C27.9855 48.3286 28.5009 46.7055 28.5009 46.7055L27.2398 45.7514L28.808 45.7185H28.819Z" fill="#FFE700"/>
<path fill-rule="evenodd" clip-rule="evenodd" d="M29.0383 45.9708L29.3454 45.0934L29.6196 45.9598C29.6196 45.9598 30.5627 45.9927 30.5627 45.9708C30.5627 45.9488 29.817 46.541 29.817 46.541L30.146 47.4951C30.146 47.4732 29.3454 46.9029 29.3454 46.9029L28.5448 47.4732L28.8519 46.541L28.1281 45.9927L29.0383 45.9708Z" fill="#108C00"/>
<path fill-rule="evenodd" clip-rule="evenodd" d="M25.7483 32.2624L26.3625 30.5078L26.9218 32.2405C26.9218 32.2405 28.7971 32.2953 28.7971 32.2624C28.7971 32.2295 27.3166 33.403 27.3166 33.403L27.9855 35.3221C27.9526 35.2673 26.3625 34.1377 26.3625 34.1377C26.3625 34.1377 24.7394 35.2563 24.7723 35.2563C24.8052 35.2563 25.3864 33.392 25.3864 33.392L23.9279 32.2953L25.7483 32.2624Z" fill="black"/>
<path fill-rule="evenodd" clip-rule="evenodd" d="M25.836 32.3502L26.3624 30.8368L26.8559 32.3283C26.8559 32.3283 28.468 32.3831 28.468 32.3502C28.468 32.3173 27.1849 33.3372 27.1849 33.3372L27.7661 35.0041C27.7442 34.9493 26.3624 33.9733 26.3624 33.9733C26.3624 33.9733 24.9587 34.9603 24.9916 34.9603C25.0245 34.9603 25.518 33.3372 25.518 33.3372L24.2568 32.3831L25.836 32.3502Z" fill="#FFE700"/>
<path fill-rule="evenodd" clip-rule="evenodd" d="M26.0553 32.6024L26.3624 31.725L26.6475 32.5914L27.5797 32.6024L26.8449 33.1726L27.1739 34.1267C27.1629 34.1048 26.3624 33.5345 26.3624 33.5345L25.5728 34.1048C25.5947 34.1048 25.8798 33.1726 25.8798 33.1726L25.156 32.6243L26.0553 32.6024Z" fill="#108C00"/>
<path fill-rule="evenodd" clip-rule="evenodd" d="M44.8961 28.468L44.282 30.2227L43.7336 28.5009C43.7336 28.5009 41.8474 28.4461 41.8474 28.468C41.8474 28.4899 43.3279 27.3384 43.3279 27.3384L42.6699 25.4193C42.6918 25.4741 44.282 26.6037 44.282 26.6037C44.282 26.6037 45.905 25.4741 45.8721 25.4741C45.8392 25.4741 45.258 27.3384 45.258 27.3384L46.7166 28.4351L44.8961 28.468Z" fill="black"/>
<path fill-rule="evenodd" clip-rule="evenodd" d="M44.8193 28.3803C44.8193 28.4132 44.271 29.9046 44.271 29.9046L43.7994 28.4132C43.7994 28.4132 42.1763 28.3583 42.1763 28.3803C42.1763 28.4022 43.4594 27.4042 43.4594 27.4042L42.8782 25.7373C42.9001 25.7921 44.2819 26.7682 44.2819 26.7682C44.2819 26.7682 45.6857 25.7812 45.6637 25.7812C45.6418 25.7812 45.1264 27.4042 45.1264 27.4042L46.3875 28.3583L44.8083 28.3803H44.8193Z" fill="#FFE700"/>
<path fill-rule="evenodd" clip-rule="evenodd" d="M44.589 28.128L44.282 29.0054L44.0078 28.15C44.0078 28.15 43.0647 28.1171 43.0647 28.139C43.0647 28.1609 43.8104 27.5687 43.8104 27.5687L43.4814 26.6146C43.4814 26.6366 44.282 27.2068 44.282 27.2068L45.0825 26.6366C45.0606 26.6366 44.7645 27.5687 44.7645 27.5687L45.4993 28.1171L44.589 28.139V28.128Z" fill="#108C00"/>
<path fill-rule="evenodd" clip-rule="evenodd" d="M49.5789 41.2112L48.9648 42.9659L48.4164 41.2332C48.4164 41.2332 46.5302 41.1783 46.5302 41.2112C46.5302 41.2441 48.0107 40.0817 48.0107 40.0817L47.3527 38.1516C47.3746 38.2064 48.9648 39.336 48.9648 39.336C48.9648 39.336 50.5878 38.2064 50.5549 38.2064C50.522 38.2064 49.9408 40.0707 49.9408 40.0707L51.4103 41.1784L49.5899 41.2112H49.5789Z" fill="black"/>
<path fill-rule="evenodd" clip-rule="evenodd" d="M49.5022 41.1235L48.9648 42.6369L48.4823 41.1455C48.4823 41.1455 46.8592 41.1016 46.8592 41.1235C46.8592 41.1455 48.1423 40.1365 48.1423 40.1365L47.5611 38.4696C47.583 38.5244 48.9648 39.5005 48.9648 39.5005C48.9648 39.5005 50.3686 38.5135 50.3466 38.5135C50.3247 38.5135 49.8093 40.1365 49.8093 40.1365L51.0704 41.1016L49.4912 41.1235H49.5022Z" fill="#FFE700"/>
<path fill-rule="evenodd" clip-rule="evenodd" d="M49.2719 40.8713L48.9648 41.7486L48.6907 40.8823C48.6907 40.8823 47.7475 40.8603 47.7475 40.8823C47.7475 40.9042 48.4933 40.312 48.4933 40.312L48.1643 39.3469C48.1643 39.3798 48.9648 39.9391 48.9648 39.9391L49.7654 39.3689C49.7435 39.3689 49.4474 40.312 49.4474 40.312L50.1821 40.8603L49.2719 40.8713Z" fill="#108C00"/>
<path fill-rule="evenodd" clip-rule="evenodd" d="M37.9651 50.5329L37.351 52.2876L36.8027 50.5548C36.8027 50.5548 34.9164 50.5 34.9164 50.5219C34.9164 50.5439 36.3969 49.3924 36.3969 49.3924L35.7389 47.4732C35.7608 47.528 37.351 48.6576 37.351 48.6576C37.351 48.6576 38.9741 47.528 38.9412 47.528C38.9083 47.528 38.327 49.3924 38.327 49.3924L39.7856 50.5L37.9651 50.5329Z" fill="black"/>
<path fill-rule="evenodd" clip-rule="evenodd" d="M37.8883 50.4342L37.351 51.9696L36.8684 50.4671C36.8684 50.4671 35.2454 50.4123 35.2454 50.4452C35.2454 50.4781 36.5285 49.4582 36.5285 49.4582L35.9472 47.7913C35.9692 47.8461 37.351 48.8221 37.351 48.8221C37.351 48.8221 38.7547 47.8351 38.7328 47.8351C38.7108 47.8351 38.1954 49.4582 38.1954 49.4582L39.4566 50.4123L37.8883 50.4452V50.4342Z" fill="#FFE700"/>
<path fill-rule="evenodd" clip-rule="evenodd" d="M37.658 50.1929L37.351 51.0703L37.0768 50.2039C37.0768 50.2039 36.1337 50.171 36.1337 50.1929C36.1337 50.2149 36.8794 49.6227 36.8794 49.6227L36.5504 48.6686C36.5504 48.6905 37.351 49.2608 37.351 49.2608L38.1515 48.6905L37.8445 49.6227L38.5683 50.171L37.658 50.1929Z" fill="#108C00"/>
<path fill-rule="evenodd" clip-rule="evenodd" d="M27.0643 41.2112L26.4392 42.9659L25.8908 41.2332C25.8908 41.2332 24.0046 41.1783 24.0046 41.2112C24.0046 41.2441 25.4851 40.0817 25.4851 40.0817L24.8271 38.1516C24.849 38.2064 26.4392 39.336 26.4392 39.336L28.0513 38.2174L27.4262 40.0817L28.8847 41.1893L27.0643 41.2222V41.2112Z" fill="black"/>
<path fill-rule="evenodd" clip-rule="evenodd" d="M26.9765 41.1235L26.4392 42.6369L25.9566 41.1455C25.9566 41.1455 24.3336 41.1016 24.3336 41.1235C24.3336 41.1455 25.6167 40.1365 25.6167 40.1365L25.0354 38.4696C25.0574 38.5244 26.4392 39.5005 26.4392 39.5005C26.4392 39.5005 27.8429 38.5135 27.821 38.5135C27.799 38.5135 27.2836 40.1365 27.2836 40.1365L28.5448 41.1016L26.9765 41.1235Z" fill="#FFE700"/>
<path fill-rule="evenodd" clip-rule="evenodd" d="M26.7463 40.8713L26.4392 41.7486L26.165 40.8823C26.165 40.8823 25.2219 40.8603 25.2219 40.8823C25.2219 40.9042 25.9676 40.312 25.9676 40.312L25.6386 39.3469C25.6386 39.3798 26.4392 39.9391 26.4392 39.9391L27.2398 39.3689L26.9327 40.312L27.6565 40.8603L26.7463 40.8713Z" fill="#108C00"/>
<path fill-rule="evenodd" clip-rule="evenodd" d="M31.0891 28.6544L30.4749 30.4091L29.9047 28.6873C29.9047 28.6873 28.0403 28.6325 28.0403 28.6544C28.0403 28.6763 29.5208 27.5248 29.5208 27.5248L28.8519 25.6057C28.8738 25.6605 30.464 26.7901 30.464 26.7901C30.464 26.7901 32.087 25.6605 32.0651 25.6605C32.0432 25.6605 31.451 27.5248 31.451 27.5248L32.8986 28.6215L31.0891 28.6654V28.6544Z" fill="black"/>
<path fill-rule="evenodd" clip-rule="evenodd" d="M31.0013 28.5667L30.464 30.102L29.9814 28.5996C29.9814 28.5996 28.3584 28.5447 28.3584 28.5776C28.3584 28.6105 29.6415 27.5906 29.6415 27.5906L29.0602 25.9237C29.0822 25.9785 30.464 26.9546 30.464 26.9546C30.464 26.9546 31.8677 25.9676 31.8458 25.9676C31.8238 25.9676 31.3194 27.5906 31.3194 27.5906L32.5696 28.5447L31.0013 28.5776V28.5667Z" fill="#FFE700"/>
<path fill-rule="evenodd" clip-rule="evenodd" d="M30.771 28.3254L30.4639 29.2027L30.1898 28.3364C30.1898 28.3364 29.2576 28.3035 29.2576 28.3254C29.2576 28.3473 29.9924 27.7551 29.9924 27.7551L29.6634 26.801C29.6634 26.823 30.4639 27.3932 30.4639 27.3932L31.2645 26.823L30.9574 27.7551L31.6812 28.3035L30.771 28.3254Z" fill="#108C00"/>
<path d="M38.4635 44.5884C38.8981 44.5341 39.2504 42.7455 39.2504 40.5935C39.2504 38.4415 38.8981 36.7411 38.4635 36.7954C38.029 36.8497 37.6767 38.6383 37.6767 40.7903C37.6767 42.9422 38.029 44.6427 38.4635 44.5884Z" fill="#009200" stroke="black" stroke-width="0.0574767"/>
<path d="M39.4694 44.5304C39.935 44.4722 40.3124 42.6805 40.3124 40.5285C40.3124 38.3765 39.935 36.6792 39.4694 36.7374C39.0037 36.7956 38.6263 38.5873 38.6263 40.7393C38.6263 42.8913 39.0037 44.5886 39.4694 44.5304Z" fill="#009200" stroke="black" stroke-width="0.059494"/>
<path d="M39.0705 45.0872C39.443 45.0407 39.745 43.0839 39.745 40.7167C39.745 38.3495 39.443 36.4683 39.0705 36.5149C38.698 36.5614 38.396 38.5182 38.396 40.8854C38.396 43.2525 38.698 45.1338 39.0705 45.0872Z" fill="#009200" stroke="black" stroke-width="0.0558103"/>
<path fill-rule="evenodd" clip-rule="evenodd" d="M34.44 41.6266C35.1244 41.5924 34.8278 41.2503 35.17 41.0564C35.5121 40.8739 36.0026 40.9879 36.1508 41.216C36.2991 41.4441 36.185 41.6722 36.3789 41.6722C36.5728 41.6722 41.7394 41.3871 41.9219 41.5696C42.1044 41.7635 42.15 42.1399 41.9561 42.2881C41.7737 42.4478 35.2384 42.6303 35.0103 42.4706C34.7822 42.3109 34.44 41.6722 34.44 41.6266Z" fill="#A95600" stroke="black" stroke-width="0.0570267"/>
<path fill-rule="evenodd" clip-rule="evenodd" d="M38.0145 42.9781C38.0145 43.4343 38.7946 43.2952 38.8151 43.6761C38.8031 44.0799 37.5029 43.7161 37.4704 42.9781C37.5029 42.2391 38.7535 41.8604 38.7826 42.2824C38.8031 42.6314 38.0128 42.5219 38.0128 42.9781H38.0145Z" fill="#FFFF00" stroke="black" stroke-width="0.0544776"/>
<path fill-rule="evenodd" clip-rule="evenodd" d="M38.4706 42.9895C38.4706 43.4458 39.2508 43.3066 39.2713 43.6876C39.2593 44.0913 37.9591 43.7275 37.9266 42.9895C37.9591 42.2505 39.2097 41.8718 39.2388 42.2938C39.2593 42.6428 38.4689 42.5333 38.4689 42.9895H38.4706Z" fill="#FFFF00" stroke="black" stroke-width="0.0544776"/>
<path fill-rule="evenodd" clip-rule="evenodd" d="M38.9611 42.9667C38.9611 43.4229 39.7412 43.2838 39.7617 43.6647C39.7497 44.0685 38.4495 43.7046 38.417 42.9667C38.4495 42.2277 39.7001 41.849 39.7292 42.271C39.7497 42.62 38.9593 42.5105 38.9593 42.9667H38.9611Z" fill="#FFFF00" stroke="black" stroke-width="0.0544776"/>
<path fill-rule="evenodd" clip-rule="evenodd" d="M39.4173 42.9667C39.4173 43.4229 40.1975 43.2838 40.218 43.6647C40.206 44.0685 38.9058 43.7046 38.8733 42.9667C38.9058 42.2277 40.1564 41.849 40.1855 42.271C40.206 42.62 39.4156 42.5105 39.4156 42.9667H39.4173Z" fill="#FFFF00" stroke="black" stroke-width="0.0544776"/>
<path d="M41.6133 44.354C41.8558 44.3584 42.0559 44.1623 42.0602 43.916C42.0644 43.6697 41.8713 43.4665 41.6288 43.4621C41.3863 43.4577 41.1862 43.6538 41.1819 43.9001C41.1777 44.1463 41.3708 44.3496 41.6133 44.354Z" fill="#A95600" stroke="black" stroke-width="0.0513194"/>
<path d="M38.8824 43.9648C39.104 43.9423 39.2439 43.5322 39.1948 43.0489C39.1457 42.5656 38.9263 42.1921 38.7047 42.2146C38.4831 42.2371 38.3432 42.6472 38.3923 43.1304C38.4414 43.6137 38.6608 43.9873 38.8824 43.9648Z" fill="#009200" stroke="black" stroke-width="0.0665039"/>
<path d="M38.2117 43.9068C38.4333 43.8843 38.5731 43.4742 38.524 42.991C38.4749 42.5077 38.2555 42.1341 38.0339 42.1566C37.8123 42.1791 37.6725 42.5892 37.7215 43.0725C37.7706 43.5558 37.9901 43.9293 38.2117 43.9068Z" fill="#009200" stroke="black" stroke-width="0.0665039"/>
<path d="M37.7348 43.0495C37.9564 43.027 38.0963 42.617 38.0472 42.1337C37.9981 41.6504 37.7786 41.2769 37.5571 41.2994C37.3355 41.3219 37.1956 41.7319 37.2447 42.2152C37.2938 42.6985 37.5132 43.0721 37.7348 43.0495Z" fill="#009200" stroke="black" stroke-width="0.0665039"/>
<path d="M38.2267 42.8933C38.4352 42.8721 38.5608 42.4265 38.5071 41.8979C38.4534 41.3693 38.2408 40.9579 38.0322 40.9791C37.8237 41.0003 37.6981 41.446 37.7518 41.9746C37.8055 42.5032 38.0181 42.9145 38.2267 42.8933Z" fill="#009200" stroke="black" stroke-width="0.0674749"/>
<path d="M39.1667 43.0062C39.3753 42.985 39.5033 42.5638 39.4527 42.0655C39.4021 41.5671 39.192 41.1802 38.9834 41.2014C38.7748 41.2226 38.6468 41.6438 38.6974 42.1422C38.7481 42.6406 38.9582 43.0274 39.1667 43.0062Z" fill="#009200" stroke="black" stroke-width="0.0655187"/>
<path d="M38.6533 42.6915C38.8619 42.6703 38.9899 42.2491 38.9393 41.7508C38.8886 41.2524 38.6785 40.8655 38.47 40.8867C38.2614 40.9079 38.1334 41.3291 38.184 41.8275C38.2346 42.3259 38.4447 42.7127 38.6533 42.6915Z" fill="#009200" stroke="black" stroke-width="0.0655187"/>
<path d="M38.0114 42.2409C38.22 42.2197 38.348 41.7985 38.2974 41.3001C38.2467 40.8017 38.0366 40.4148 37.8281 40.436C37.6195 40.4572 37.4915 40.8784 37.5421 41.3768C37.5927 41.8752 37.8028 42.262 38.0114 42.2409Z" fill="#009200" stroke="black" stroke-width="0.0655187"/>
<path d="M37.4117 41.9808C37.6203 41.9596 37.7483 41.5384 37.6977 41.04C37.647 40.5416 37.4369 40.1548 37.2284 40.1759C37.0198 40.1971 36.8918 40.6183 36.9424 41.1167C36.993 41.6151 37.2031 42.002 37.4117 41.9808Z" fill="#009200" stroke="black" stroke-width="0.0655187"/>
<path fill-rule="evenodd" clip-rule="evenodd" d="M36.858 32.7077C36.858 32.7077 35.5236 33.8482 35.706 36.9163C35.9113 39.9957 38.7285 41.4214 38.7285 41.4214C38.7285 41.4214 39.4356 40.5432 39.3215 38.0568C39.0934 34.4299 37.7476 32.8446 37.7476 32.8446L36.858 32.6963V32.7077Z" fill="#804BFF" stroke="black" stroke-width="0.0570267"/>
<path d="M39.6467 44.0895C39.8687 44.1069 40.0796 43.7285 40.1177 43.2442C40.1559 42.7599 40.0068 42.3532 39.7847 42.3357C39.5627 42.3182 39.3518 42.6967 39.3136 43.1809C39.2755 43.6652 39.4246 44.072 39.6467 44.0895Z" fill="#009200" stroke="black" stroke-width="0.0665039"/>
<path d="M38.9971 43.9125C39.2191 43.93 39.43 43.5516 39.4681 43.0673C39.5062 42.583 39.3571 42.1763 39.1351 42.1588C38.913 42.1413 38.7021 42.5197 38.664 43.004C38.6259 43.4883 38.775 43.895 38.9971 43.9125Z" fill="#009200" stroke="black" stroke-width="0.0665039"/>
<path d="M38.6812 42.9838C38.9032 43.0013 39.1141 42.6229 39.1522 42.1386C39.1903 41.6543 39.0412 41.2475 38.8192 41.2301C38.5971 41.2126 38.3862 41.591 38.3481 42.0753C38.31 42.5596 38.4591 42.9663 38.6812 42.9838Z" fill="#009200" stroke="black" stroke-width="0.0665039"/>
<path d="M39.193 42.9181C39.402 42.9345 39.6052 42.5185 39.6469 41.9888C39.6886 41.4591 39.553 41.0164 39.344 40.9999C39.135 40.9835 38.9318 41.3995 38.8901 41.9292C38.8484 42.4589 38.9841 42.9016 39.193 42.9181Z" fill="#009200" stroke="black" stroke-width="0.0674749"/>
<path d="M40.0978 43.1973C40.3067 43.2137 40.508 42.8222 40.5473 42.3228C40.5866 41.8234 40.4491 41.4052 40.2401 41.3887C40.0311 41.3723 39.8298 41.7638 39.7905 42.2632C39.7512 42.7626 39.8888 43.1808 40.0978 43.1973Z" fill="#009200" stroke="black" stroke-width="0.0655187"/>
<path d="M39.6489 42.7958C39.8579 42.8123 40.0591 42.4208 40.0984 41.9213C40.1377 41.4219 40.0002 41.0037 39.7912 40.9873C39.5822 40.9709 39.3809 41.3624 39.3416 41.8618C39.3023 42.3612 39.4399 42.7794 39.6489 42.7958Z" fill="#009200" stroke="black" stroke-width="0.0655187"/>
<path d="M39.0979 42.2376C39.3069 42.2541 39.5081 41.8625 39.5474 41.3631C39.5868 40.8637 39.4492 40.4455 39.2402 40.4291C39.0312 40.4126 38.83 40.8041 38.7906 41.3036C38.7513 41.803 38.8889 42.2212 39.0979 42.2376Z" fill="#009200" stroke="black" stroke-width="0.0655187"/>
<path d="M38.5544 41.8745C38.7634 41.891 38.9647 41.4994 39.004 41C39.0433 40.5006 38.9057 40.0824 38.6968 40.066C38.4878 40.0495 38.2865 40.441 38.2472 40.9405C38.2079 41.4399 38.3454 41.8581 38.5544 41.8745Z" fill="#009200" stroke="black" stroke-width="0.0655187"/>
<path d="M40.7882 41.5384C41.3758 41.318 41.2807 39.7109 40.5759 37.9488C39.871 36.1866 38.8233 34.9367 38.2357 35.1571C37.6482 35.3774 37.7432 36.9845 38.4481 38.7467C39.153 40.5088 40.2007 41.7587 40.7882 41.5384Z" fill="#C90000" stroke="black" stroke-width="0.0189502"/>
<path d="M38.8556 35.6946C39.1276 35.6993 39.3516 35.5056 39.3559 35.2619C39.3601 35.0181 39.143 34.8167 38.871 34.8119C38.5989 34.8072 38.3749 35.0009 38.3706 35.2447C38.3664 35.4884 38.5835 35.6898 38.8556 35.6946Z" fill="#009200" stroke="black" stroke-width="0.0592639"/>
<path d="M39.0142 35.07C39.2523 35.0741 39.4487 34.8799 39.453 34.6362C39.4572 34.3924 39.2677 34.1915 39.0296 34.1873C38.7916 34.1832 38.5951 34.3774 38.5909 34.6211C38.5866 34.8649 38.7762 35.0658 39.0142 35.07Z" fill="#009200" stroke="black" stroke-width="0.059132"/>
<path d="M38.4212 35.0596C38.6593 35.0638 38.8557 34.8695 38.86 34.6258C38.8642 34.3821 38.6747 34.1811 38.4366 34.177C38.1985 34.1728 38.0021 34.367 37.9979 34.6108C37.9936 34.8545 38.1831 35.0554 38.4212 35.0596Z" fill="#009200" stroke="black" stroke-width="0.059132"/>
<path d="M38.6506 34.0836C38.9023 34.088 39.1094 33.9138 39.1132 33.6944C39.1171 33.475 38.9162 33.2937 38.6645 33.2893C38.4128 33.2849 38.2057 33.4591 38.2019 33.6785C38.198 33.8979 38.399 34.0792 38.6506 34.0836Z" fill="#009200" stroke="black" stroke-width="0.0576781"/>
<path d="M38.6026 33.5695C38.8543 33.5739 39.0614 33.3996 39.0652 33.1802C39.069 32.9609 38.8681 32.7795 38.6165 32.7751C38.3648 32.7707 38.1577 32.945 38.1538 33.1643C38.15 33.3837 38.3509 33.5651 38.6026 33.5695Z" fill="#009200" stroke="black" stroke-width="0.0576781"/>
<path d="M37.8566 34.7304C38.0947 34.7345 38.2911 34.5403 38.2954 34.2966C38.2996 34.0528 38.1101 33.8519 37.872 33.8477C37.6339 33.8436 37.4375 34.0378 37.4332 34.2815C37.429 34.5253 37.6185 34.7262 37.8566 34.7304Z" fill="#009200" stroke="black" stroke-width="0.059132"/>
<path d="M37.9762 34.4131C38.2143 34.4172 38.4107 34.223 38.415 33.9793C38.4192 33.7355 38.2297 33.5346 37.9916 33.5304C37.7536 33.5263 37.5571 33.7205 37.5529 33.9642C37.5486 34.2079 37.7382 34.4089 37.9762 34.4131Z" fill="#009200" stroke="black" stroke-width="0.059132"/>
<path d="M37.4902 34.1878C37.7623 34.1926 37.9863 33.9988 37.9905 33.7551C37.9948 33.5114 37.7777 33.3099 37.5056 33.3052C37.2335 33.3004 37.0095 33.4942 37.0053 33.7379C37.001 33.9816 37.2181 34.1831 37.4902 34.1878Z" fill="#009200" stroke="black" stroke-width="0.0592639"/>
<path d="M38.2714 32.9363C38.5231 32.9407 38.7302 32.7664 38.7341 32.5471C38.7379 32.3277 38.537 32.1463 38.2853 32.1419C38.0336 32.1375 37.8265 32.3118 37.8227 32.5312C37.8189 32.7505 38.0198 32.9319 38.2714 32.9363Z" fill="#009200" stroke="black" stroke-width="0.0576781"/>
<path d="M37.5537 33.7897C37.7917 33.7939 37.9882 33.5996 37.9924 33.3559C37.9967 33.1122 37.8072 32.9112 37.5691 32.9071C37.331 32.9029 37.1346 33.0971 37.1303 33.3409C37.1261 33.5846 37.3156 33.7855 37.5537 33.7897Z" fill="#009200" stroke="black" stroke-width="0.059132"/>
<path d="M36.6224 34.2069C36.8604 34.2111 37.0569 34.0169 37.0611 33.7731C37.0654 33.5294 36.8758 33.3285 36.6378 33.3243C36.3997 33.3201 36.2033 33.5144 36.199 33.7581C36.1948 34.0018 36.3843 34.2028 36.6224 34.2069Z" fill="#009200" stroke="black" stroke-width="0.059132"/>
<path d="M36.772 34.1297C37.0101 34.1338 37.2065 33.9396 37.2108 33.6959C37.215 33.4521 37.0255 33.2512 36.7874 33.247C36.5494 33.2429 36.3529 33.4371 36.3487 33.6808C36.3444 33.9246 36.534 34.1255 36.772 34.1297Z" fill="#009200" stroke="black" stroke-width="0.059132"/>
<path d="M36.9606 33.7793C37.1987 33.7835 37.3951 33.5893 37.3994 33.3455C37.4036 33.1018 37.2141 32.9008 36.976 32.8967C36.738 32.8925 36.5415 33.0867 36.5373 33.3305C36.533 33.5742 36.7226 33.7752 36.9606 33.7793Z" fill="#009200" stroke="black" stroke-width="0.059132"/>
<path d="M41.1146 43.127C41.8635 42.8723 41.7903 40.839 40.9511 38.5856C40.1119 36.3322 38.8244 34.7119 38.0755 34.9666C37.3266 35.2214 37.3998 37.2546 38.239 39.508C39.0782 41.7615 40.3657 43.3817 41.1146 43.127Z" fill="#009200" stroke="black" stroke-width="0.0530346"/>
<path d="M41.0702 40.6045C41.2086 40.538 41.1718 40.1016 40.9881 39.6299C40.8044 39.1582 40.5432 38.8297 40.4049 38.8962C40.2665 38.9628 40.3032 39.3991 40.4869 39.8709C40.6706 40.3426 40.9318 40.671 41.0702 40.6045Z" fill="#009200" stroke="black" stroke-width="0.0541801"/>
<path fill-rule="evenodd" clip-rule="evenodd" d="M40.5593 39.7006C41.6846 41.2537 41.5148 42.2181 41.375 43.0326C41.0307 42.0791 40.8509 41.4803 39.7256 39.9273C38.6003 38.3742 39.2005 37.3217 39.2917 36.7589C39.4553 37.2525 39.4339 38.1475 40.5593 39.7006Z" fill="#009200" stroke="black" stroke-width="0.0546929"/>
<path fill-rule="evenodd" clip-rule="evenodd" d="M40.6393 40.9324C41.7646 42.4855 41.5949 43.4498 41.4551 44.2643C41.1107 43.3108 40.931 42.7121 39.8056 41.159C38.6803 39.6059 39.2806 38.5535 39.3717 37.9907C39.5353 38.4842 39.514 39.3793 40.6393 40.9324Z" fill="#009200" stroke="black" stroke-width="0.0546929"/>
<path fill-rule="evenodd" clip-rule="evenodd" d="M40.728 41.9207C41.8889 43.4474 41.7405 44.416 41.6188 45.2339C41.2529 44.2884 41.0596 43.6938 39.8988 42.167C38.7379 40.6403 39.3151 39.5735 39.3938 39.0084C39.5685 39.4982 39.5671 40.3939 40.728 41.9207Z" fill="#009200" stroke="black" stroke-width="0.0547292"/>
<path d="M40.4438 39.8938C40.7152 39.8268 40.6728 39.0891 40.3489 38.2462C40.0251 37.4032 39.5426 36.7742 39.2711 36.8412C38.9997 36.9083 39.0422 37.6459 39.366 38.4889C39.6898 39.3318 40.1724 39.9609 40.4438 39.8938Z" fill="#009200" stroke="black" stroke-width="0.0546784"/>
<path d="M39.9576 40.3473C40.2034 40.3087 40.2002 39.715 39.9504 39.0211C39.7006 38.3272 39.2988 37.7959 39.053 37.8345C38.8072 37.873 38.8104 38.4667 39.0602 39.1606C39.3101 39.8545 39.7118 40.3858 39.9576 40.3473Z" fill="#009200" stroke="black" stroke-width="0.0532731"/>
<path d="M39.1657 40.8657C39.4115 40.8322 39.4232 40.2384 39.1919 39.5393C38.9606 38.8403 38.5739 38.3008 38.3281 38.3343C38.0823 38.3678 38.0705 38.9616 38.3018 39.6607C38.5331 40.3597 38.9199 40.8992 39.1657 40.8657Z" fill="#009200" stroke="black" stroke-width="0.0531523"/>
<path d="M39.6691 38.4049C39.8651 38.3714 39.8478 37.9275 39.6304 37.4135C39.413 36.8995 39.0778 36.51 38.8818 36.5435C38.6857 36.577 38.703 37.0209 38.9205 37.5349C39.1379 38.0489 39.4731 38.4384 39.6691 38.4049Z" fill="#009200" stroke="black" stroke-width="0.0543813"/>
<path d="M39.2765 38.9116C39.4771 38.8898 39.4897 38.4429 39.3046 37.9135C39.1196 37.3841 38.807 36.9726 38.6064 36.9944C38.4059 37.0162 38.3933 37.463 38.5783 37.9924C38.7634 38.5218 39.076 38.9333 39.2765 38.9116Z" fill="#009200" stroke="black" stroke-width="0.0549047"/>
<path fill-rule="evenodd" clip-rule="evenodd" d="M38.5541 37.3989C38.8752 38.314 38.9941 39.1333 38.8186 39.228C38.6431 39.3227 38.2408 38.6562 37.9197 37.741" fill="#009200"/>
<path d="M38.5541 37.3989C38.8752 38.314 38.9941 39.1333 38.8186 39.228C38.6431 39.3227 38.2408 38.6562 37.9197 37.741" stroke="black" stroke-width="0.0549753"/>
<path d="M39.2437 37.8486C39.4442 37.8269 39.4568 37.38 39.2718 36.8506C39.0867 36.3212 38.7741 35.9097 38.5736 35.9314C38.373 35.9532 38.3604 36.4001 38.5455 36.9295C38.7305 37.4589 39.0431 37.8704 39.2437 37.8486Z" fill="#009200" stroke="black" stroke-width="0.0549047"/>
<path d="M38.664 38.2371C38.8645 38.2203 38.8846 37.7734 38.7088 37.2388C38.533 36.7043 38.228 36.2845 38.0274 36.3013C37.8268 36.318 37.8067 36.7649 37.9825 37.2995C38.1583 37.8341 38.4634 38.2538 38.664 38.2371Z" fill="#009200" stroke="black" stroke-width="0.0549319"/>
<path fill-rule="evenodd" clip-rule="evenodd" d="M38.0254 36.1616C38.3465 36.7821 38.515 37.3576 38.4008 37.4466C38.2867 37.5356 37.9339 37.1037 37.6128 36.4833" fill="#009200"/>
<path d="M38.0254 36.1616C38.3465 36.7821 38.515 37.3576 38.4008 37.4466C38.2867 37.5356 37.9339 37.1037 37.6128 36.4833" stroke="black" stroke-width="0.0548962"/>
<path fill-rule="evenodd" clip-rule="evenodd" d="M38.2635 35.7625C38.5846 36.3829 38.7531 36.9584 38.6389 37.0474C38.5248 37.1364 38.172 36.7046 37.8509 36.0841" fill="#009200"/>
<path d="M38.2635 35.7625C38.5846 36.3829 38.7531 36.9584 38.6389 37.0474C38.5248 37.1364 38.172 36.7046 37.8509 36.0841" stroke="black" stroke-width="0.0548962"/>
<path fill-rule="evenodd" clip-rule="evenodd" d="M39.3013 35.981C39.748 36.8342 39.9814 37.6245 39.8212 37.7457C39.661 37.8668 39.1691 37.2721 38.7224 36.419" fill="#009200"/>
<path d="M39.3013 35.981C39.748 36.8342 39.9814 37.6245 39.8212 37.7457C39.661 37.8668 39.1691 37.2721 38.7224 36.419" stroke="black" stroke-width="0.054977"/>
<path fill-rule="evenodd" clip-rule="evenodd" d="M38.6228 35.3901C38.9439 36.0726 39.1124 36.7061 38.9983 36.8045C38.8841 36.903 38.5313 36.4284 38.2102 35.7459" fill="#009200"/>
<path d="M38.6228 35.3901C38.9439 36.0726 39.1124 36.7061 38.9983 36.8045C38.8841 36.903 38.5313 36.4284 38.2102 35.7459" stroke="black" stroke-width="0.054197"/>
<path fill-rule="evenodd" clip-rule="evenodd" d="M39.0943 33.0143C38.8698 33.2451 39.1016 33.6466 39.3133 33.7846C39.5505 33.9778 40.8936 35.2449 41.8006 34.0857C41.056 34.1058 39.6345 32.4999 39.0943 33.0143Z" fill="#804BFF" stroke="black" stroke-width="0.0534958"/>
<path fill-rule="evenodd" clip-rule="evenodd" d="M38.9346 32.3413C38.7102 32.5722 38.9419 32.9737 39.1536 33.1117C39.3908 33.3049 40.7339 34.572 41.6409 33.4128C40.8963 33.4328 39.4748 31.827 38.9346 32.3413Z" fill="#804BFF" stroke="black" stroke-width="0.0534958"/>
<path fill-rule="evenodd" clip-rule="evenodd" d="M38.7293 31.7026C38.5048 31.9335 38.7366 32.3349 38.9483 32.4729C39.1855 32.6661 40.5286 33.9333 41.4356 32.774C40.691 32.7941 39.2695 31.1882 38.7293 31.7026Z" fill="#804BFF" stroke="black" stroke-width="0.0534958"/>
<path fill-rule="evenodd" clip-rule="evenodd" d="M38.2845 30.9727C38.0601 31.2035 38.2918 31.605 38.5035 31.743C38.7407 31.9362 40.0838 33.2034 40.9908 32.0441C40.2462 32.0642 38.8247 30.4583 38.2845 30.9727Z" fill="#804BFF" stroke="black" stroke-width="0.0534958"/>
<path fill-rule="evenodd" clip-rule="evenodd" d="M36.2466 30.6498C36.6791 30.3119 37.4896 30.212 38.1305 30.549C38.6653 30.8189 39.5691 31.9115 40.2353 32.1704C40.0614 32.2109 39.8792 32.2196 39.6994 32.1959C39.5196 32.1723 39.3458 32.1167 39.1883 32.0326C38.6119 32.4722 38.4055 32.5356 37.8074 32.6229C36.9806 32.743 36.2847 32.5176 36.0341 32.0685C35.7735 31.6451 35.8635 30.9657 36.2466 30.6498Z" fill="#804BFF" stroke="black" stroke-width="0.055658"/>
<path d="M37.5107 31.3875C37.7343 31.3914 37.9172 31.295 37.9194 31.1722C37.9215 31.0494 37.742 30.9467 37.5184 30.9428C37.2949 30.9389 37.1119 31.0353 37.1097 31.1581C37.1076 31.2809 37.2871 31.3836 37.5107 31.3875Z" fill="#FF0000" stroke="black" stroke-width="0.0514031"/>
<path d="M36.5255 32.3748C36.821 32.2626 37.0062 32.0326 36.939 31.8611C36.8719 31.6896 36.5779 31.6417 36.2824 31.7539C35.9868 31.8662 35.8017 32.0962 35.8688 32.2677C35.9359 32.4391 36.2299 32.4871 36.5255 32.3748Z" fill="#FFFF00" stroke="black" stroke-width="0.0567423"/>
<path d="M36.8702 32.0038C36.9433 32.005 37.0036 31.9468 37.0048 31.8738C37.0061 31.8007 36.9479 31.7405 36.8749 31.7392C36.8018 31.7379 36.7416 31.7961 36.7403 31.8692C36.739 31.9422 36.7972 32.0025 36.8702 32.0038Z" fill="black"/>
<path fill-rule="evenodd" clip-rule="evenodd" d="M37.0511 31.4461C37.0984 31.6112 36.9679 31.8371 36.6653 31.9194C36.3576 32.0345 36.1329 32.2915 36.0161 32.7111C35.4943 31.7602 35.7774 31.3536 36.2765 31.2528C36.7053 31.1289 36.9674 31.1426 37.0511 31.4461Z" fill="#FFFF00" stroke="black" stroke-width="0.0673282"/>
<path d="M35.7695 32.4614C35.8287 32.4624 35.8776 32.4153 35.8786 32.3561C35.8796 32.2969 35.8325 32.248 35.7733 32.247C35.7141 32.246 35.6652 32.2931 35.6642 32.3523C35.6632 32.4115 35.7103 32.4603 35.7695 32.4614Z" fill="black"/>
</g>
<defs>
<clipPath id="clip0_1_20759">
<rect width="74.6667" height="56" fill="white" transform="translate(0 9.375)"/>
</clipPath>
</defs>
</svg>
