<svg width="75" height="75" viewBox="0 0 75 75" fill="none" xmlns="http://www.w3.org/2000/svg">
<rect width="74.6667" height="74.75" fill="white"/>
<g clip-path="url(#clip0_1_20767)">
<path d="M37.3333 9.375H74.6666V65.375H37.3333V9.375Z" fill="white"/>
<path d="M0 9.375H37.3333V65.375H0V9.375Z" fill="#006233"/>
<path d="M49.4666 30.375C47.9257 27.706 45.5471 25.6201 42.6999 24.4407C39.8526 23.2613 36.6957 23.0544 33.7188 23.852C30.742 24.6497 28.1115 26.4073 26.2353 28.8523C24.3592 31.2974 23.3423 34.2931 23.3423 37.375C23.3423 40.4569 24.3592 43.4526 26.2353 45.8977C28.1115 48.3427 30.742 50.1003 33.7188 50.898C36.6957 51.6956 39.8526 51.4887 42.6999 50.3093C45.5471 49.1299 47.9257 47.044 49.4666 44.375C48.0164 46.1864 46.0393 47.5026 43.8086 48.1418C41.5779 48.7809 39.2038 48.7114 37.0143 47.9429C34.8248 47.1744 32.9281 45.7448 31.5862 43.8517C30.2444 41.9586 29.5236 39.6954 29.5236 37.375C29.5236 35.0546 30.2444 32.7914 31.5862 30.8983C32.9281 29.0052 34.8248 27.5756 37.0143 26.8071C39.2038 26.0386 41.5779 25.9691 43.8086 26.6082C46.0393 27.2474 48.0164 28.5636 49.4666 30.375ZM49.9333 37.375L37.3333 33.2683L45.1733 44.0017V30.7483L37.3333 41.4817L49.9333 37.375Z" fill="#D21034"/>
</g>
<defs>
<clipPath id="clip0_1_20767">
<rect width="74.6667" height="56" fill="white" transform="translate(0 9.375)"/>
</clipPath>
</defs>
</svg>
