<svg width="75" height="75" viewBox="0 0 75 75" fill="none" xmlns="http://www.w3.org/2000/svg">
<rect width="74.6667" height="74.75" fill="white"/>
<g clip-path="url(#clip0_1_20773)">
<path fill-rule="evenodd" clip-rule="evenodd" d="M0 9.375H74.6667V65.375H0V9.375Z" fill="#FFE800"/>
<path fill-rule="evenodd" clip-rule="evenodd" d="M0 37.375H74.6667V65.375H0V37.375Z" fill="#00148E"/>
<path fill-rule="evenodd" clip-rule="evenodd" d="M0 51.375H74.6667V65.375H0V51.375Z" fill="#DA0010"/>
<path fill-rule="evenodd" clip-rule="evenodd" d="M31.4533 43.3017L22.9833 52.2267L22.8433 52.04L31.2899 43.115L31.4299 43.3017H31.4533ZM37.3333 44.76L26.2733 56.4267L26.0866 56.24L37.1349 44.5733L37.3333 44.76Z" fill="black"/>
<path fill-rule="evenodd" clip-rule="evenodd" d="M26.3074 56.2904L25.2737 57.3241L24.0955 58.2132L24.9846 57.035L26.0183 56.0013L26.3074 56.2904Z" fill="#808080" stroke="black" stroke-width="0.0565972"/>
<path fill-rule="evenodd" clip-rule="evenodd" d="M23.4607 51.7288L22.427 52.7624L21.2488 53.6515L22.1379 52.4733L23.1716 51.4397L23.4607 51.7288Z" fill="#808080" stroke="black" stroke-width="0.0565972"/>
<path fill-rule="evenodd" clip-rule="evenodd" d="M24.2597 22.7674C24.2597 22.7674 23.3304 47.9002 27.0474 47.9002C30.7644 47.9002 32.6282 45.257 32.6282 45.257L32.5862 31.4437L24.2597 22.7674Z" fill="#FFDF00" stroke="black" stroke-width="0.0626099"/>
<path fill-rule="evenodd" clip-rule="evenodd" d="M26.5329 25.1119C26.5329 26.4335 26.1182 45.257 27.9767 45.257C29.8352 45.257 32.6282 43.9354 32.6282 43.9354L32.5862 31.4437L26.5329 25.1119Z" fill="#0000C4" stroke="black" stroke-width="0.0626099"/>
<path fill-rule="evenodd" clip-rule="evenodd" d="M27.7404 26.3813C27.7404 27.7029 27.9767 42.6138 29.8404 42.6138H32.6282L32.5862 31.4437L27.7404 26.3813Z" fill="#E10000" stroke="black" stroke-width="0.0626099"/>
<path fill-rule="evenodd" clip-rule="evenodd" d="M24.0567 22.9083L32.5034 31.8333L32.655 31.6467L24.2084 22.7217L24.0567 22.9083Z" fill="black"/>
<path fill-rule="evenodd" clip-rule="evenodd" d="M21.5012 27.9175C21.5012 27.9175 19.1058 52.2649 26.292 52.2649C32.2805 52.2649 32.2805 48.424 33.4782 48.424L32.2805 39.4547L21.4944 27.9175H21.5012Z" fill="#FFDF00" stroke="black" stroke-width="0.0699611"/>
<path d="M27.4377 31.9654C27.489 31.9615 29.3067 28.028 33.8497 25.5382" stroke="black" stroke-width="0.101051"/>
<path fill-rule="evenodd" clip-rule="evenodd" d="M26.6941 28.2575C27.3276 28.5531 27.7284 28.8933 28.0934 29.29C27.3684 29.1381 26.9944 29.0767 26.3609 28.7811C25.7274 28.4855 25.2434 28.0333 24.8589 27.6674C25.3305 27.8109 26.0571 27.9602 26.6941 28.2575Z" fill="#005B00" stroke="black" stroke-width="0.0342789"/>
<path fill-rule="evenodd" clip-rule="evenodd" d="M28.283 30.6665C28.3297 30.7459 28.2896 30.8576 28.1909 30.9125C28.0922 30.9673 27.9739 30.9462 27.926 30.8649C27.8782 30.7836 27.9207 30.6758 28.0194 30.6209C28.1181 30.5661 28.2364 30.5872 28.283 30.6665Z" fill="#FF0000" stroke="black" stroke-width="0.0235112"/>
<path fill-rule="evenodd" clip-rule="evenodd" d="M30.274 25.7397C29.9994 26.4366 29.6966 26.8958 29.3475 27.3242C29.5044 26.5489 29.571 26.151 29.8456 25.4541C30.1201 24.7573 30.5207 24.198 30.8446 23.7528C30.7048 24.2624 30.55 25.039 30.274 25.7397Z" fill="#005B00" stroke="black" stroke-width="0.0323168"/>
<path fill-rule="evenodd" clip-rule="evenodd" d="M29.3472 25.7036C29.2838 26.4004 29.145 26.9401 28.9625 27.4875C28.9148 26.8103 28.8792 26.4718 28.9426 25.775C29.0059 25.0781 29.2003 24.3998 29.359 23.8566C29.3612 24.326 29.4109 25.0029 29.3472 25.7036Z" fill="#005B00" stroke="black" stroke-width="0.027903"/>
<path fill-rule="evenodd" clip-rule="evenodd" d="M29.9524 26.5005C29.5934 26.9228 29.2915 27.106 28.9742 27.225C29.294 26.6393 29.4506 26.3278 29.8096 25.9055C30.1686 25.4832 30.5534 25.2848 30.8623 25.1308C30.6325 25.4872 30.3134 26.0758 29.9524 26.5005Z" fill="#005B00" stroke="black" stroke-width="0.0303076"/>
<path fill-rule="evenodd" clip-rule="evenodd" d="M26.894 27.0906C27.3163 27.5974 27.5263 28.0855 27.685 28.625C27.132 28.2489 26.8403 28.0734 26.418 27.5666C25.9957 27.0598 25.7577 26.4251 25.571 25.9137C25.914 26.2072 26.4693 26.581 26.894 27.0906Z" fill="#005B00" stroke="black" stroke-width="0.0346802"/>
<path fill-rule="evenodd" clip-rule="evenodd" d="M26.0439 30.9971C26.5718 31.4194 26.8504 31.8548 27.0725 32.3467C26.4009 32.0681 26.0482 31.943 25.5203 31.5207C24.9924 31.0983 24.6711 30.5271 24.4181 30.0661C24.8388 30.2964 25.513 30.5724 26.0439 30.9971Z" fill="#005B00" stroke="black" stroke-width="0.0368211"/>
<path fill-rule="evenodd" clip-rule="evenodd" d="M28.5162 30.7651C28.0938 31.4409 27.637 31.8949 27.1134 32.3233C27.3658 31.5823 27.475 31.2029 27.8974 30.5271C28.3197 29.8514 28.9226 29.2961 29.4098 28.8537C29.1903 29.3434 28.9408 30.0857 28.5162 30.7651Z" fill="#005B00" stroke="black" stroke-width="0.0378259"/>
<path fill-rule="evenodd" clip-rule="evenodd" d="M28.9574 30.7383C28.2817 31.2029 27.6934 31.4446 27.0667 31.635C27.6444 31.0398 27.9247 30.7269 28.6004 30.2623C29.2761 29.7977 30.0298 29.5201 30.6355 29.3017C30.2128 29.6736 29.6369 30.2712 28.9574 30.7383Z" fill="#005B00" stroke="black" stroke-width="0.0363511"/>
<path fill-rule="evenodd" clip-rule="evenodd" d="M33.513 25.8824C33.2174 26.2203 32.9523 26.4205 32.6667 26.595C32.9101 26.1918 33.027 25.9823 33.3226 25.6444C33.6182 25.3066 33.9594 25.0686 34.2338 24.88C34.0527 25.1383 33.8103 25.5427 33.513 25.8824Z" fill="#005B00" stroke="black" stroke-width="0.0192505"/>
<path fill-rule="evenodd" clip-rule="evenodd" d="M32.8725 24.8857C32.7036 25.2447 32.523 25.5144 32.3167 25.7841C32.4203 25.4251 32.4656 25.2447 32.6345 24.8857C32.8035 24.5267 33.0415 24.1895 33.2337 23.9198C33.1448 24.1657 33.0424 24.5247 32.8725 24.8857Z" fill="#005B00" stroke="black" stroke-width="0.0159915"/>
<path fill-rule="evenodd" clip-rule="evenodd" d="M33.8615 25.53C33.5659 25.699 33.3438 25.7508 33.1216 25.7666C33.4173 25.5062 33.5659 25.3658 33.8615 25.1968C34.1572 25.0279 34.4348 24.9803 34.657 24.9448C34.4544 25.0981 34.1588 25.3602 33.8615 25.53Z" fill="#005B00" stroke="black" stroke-width="0.0175289"/>
<path fill-rule="evenodd" clip-rule="evenodd" d="M29.7818 27.4228C29.2539 27.7395 28.8197 27.9239 28.3675 28.0825C28.8497 27.7004 29.0873 27.5015 29.6152 27.1848C30.1431 26.868 30.6945 26.6499 31.1369 26.4772C30.794 26.721 30.3127 27.1043 29.7818 27.4228Z" fill="#005B00" stroke="black" stroke-width="0.0220089"/>
<path fill-rule="evenodd" clip-rule="evenodd" d="M31.3228 27.8956C30.626 28.3179 30.0326 28.5172 29.4059 28.66C30.0178 28.0939 30.3166 27.7943 31.0134 27.372C31.7103 26.9497 32.4679 26.7275 33.0764 26.5539C32.6339 26.9023 32.0235 27.4709 31.3228 27.8956Z" fill="#005B00" stroke="black" stroke-width="0.0366352"/>
<path d="M26.5869 34.7308C26.6319 34.7052 26.2072 30.9998 29.0418 27.1456" stroke="black" stroke-width="0.0994667"/>
<path fill-rule="evenodd" clip-rule="evenodd" d="M30.9314 26.9215C30.978 27.0009 30.9379 27.1126 30.8392 27.1675C30.7405 27.2223 30.6222 27.2012 30.5744 27.1199C30.5265 27.0386 30.569 26.9308 30.6677 26.8759C30.7664 26.8211 30.8847 26.8422 30.9314 26.9215Z" fill="#FF0000" stroke="black" stroke-width="0.0235112"/>
<path fill-rule="evenodd" clip-rule="evenodd" d="M32.1914 26.1866C32.238 26.2659 32.1979 26.3777 32.0992 26.4325C32.0005 26.4873 31.8822 26.4662 31.8344 26.3849C31.7865 26.3036 31.829 26.1958 31.9277 26.1409C32.0264 26.0861 32.1447 26.1072 32.1914 26.1866Z" fill="#FF0000" stroke="black" stroke-width="0.0235112"/>
<path fill-rule="evenodd" clip-rule="evenodd" d="M28.6754 28.6566C28.7081 28.7173 28.6472 28.8132 28.5375 28.868C28.4278 28.9228 28.3122 28.9171 28.2787 28.8549C28.2452 28.7927 28.3078 28.6999 28.4174 28.645C28.5271 28.5902 28.6427 28.5959 28.6754 28.6566Z" fill="#FF0000" stroke="black" stroke-width="0.0211984"/>
<path fill-rule="evenodd" clip-rule="evenodd" d="M29.0488 28.4933C29.0814 28.5539 29.0205 28.6498 28.9109 28.7047C28.8012 28.7595 28.6856 28.7538 28.6521 28.6916C28.6186 28.6294 28.6811 28.5365 28.7908 28.4817C28.9005 28.4269 29.0161 28.4326 29.0488 28.4933Z" fill="#FF0000" stroke="black" stroke-width="0.0211984"/>
<path fill-rule="evenodd" clip-rule="evenodd" d="M28.8271 28.8433C28.8597 28.904 28.7988 28.9999 28.6892 29.0547C28.5795 29.1095 28.4639 29.1038 28.4304 29.0416C28.3969 28.9794 28.4595 28.8866 28.5691 28.8317C28.6788 28.7769 28.7944 28.7826 28.8271 28.8433Z" fill="#FF0000" stroke="black" stroke-width="0.0211984"/>
<path fill-rule="evenodd" clip-rule="evenodd" d="M29.4817 28.8933C29.5284 28.9867 29.4817 29.1033 29.365 29.1617C29.2484 29.22 29.1317 29.185 29.085 29.08C29.0384 28.975 29.085 28.87 29.2017 28.8117C29.3184 28.7533 29.435 28.7883 29.47 28.8933H29.4817Z" fill="#FF0000" stroke="black" stroke-width="0.035"/>
<path fill-rule="evenodd" clip-rule="evenodd" d="M29.75 28.6133C29.785 28.7066 29.75 28.8233 29.6333 28.8816C29.5167 28.94 29.4 28.905 29.3417 28.8116C29.2833 28.7183 29.3417 28.59 29.4583 28.5316C29.575 28.4733 29.6917 28.52 29.7383 28.6133H29.75Z" fill="#FF0000" stroke="black" stroke-width="0.035"/>
<path fill-rule="evenodd" clip-rule="evenodd" d="M29.8083 28.7416C29.855 28.835 29.8083 28.9633 29.6917 29.01C29.575 29.0566 29.4583 29.0333 29.4117 28.94C29.365 28.8466 29.4117 28.73 29.5283 28.6716C29.645 28.6133 29.7617 28.6483 29.8083 28.7416Z" fill="#FF0000" stroke="black" stroke-width="0.035"/>
<path fill-rule="evenodd" clip-rule="evenodd" d="M23.8966 30.4854C23.8966 31.7657 21.5012 45.8634 27.4964 49.7043C29.8918 50.9846 33.4849 48.424 33.4849 49.7043L32.2872 39.4547L23.8966 30.4854Z" fill="#0000C4" stroke="black" stroke-width="0.0699611"/>
<path fill-rule="evenodd" clip-rule="evenodd" d="M26.292 33.046C26.292 34.3263 25.0943 44.5759 28.6942 47.1437C31.0896 49.7043 37.0849 49.0099 37.0849 49.0099L32.2873 39.4547L26.292 33.046Z" fill="#E10000" stroke="black" stroke-width="0.0699611"/>
<path fill-rule="evenodd" clip-rule="evenodd" d="M21.4434 27.8084L32.5034 39.475L32.7017 39.2884L21.6417 27.6334L21.455 27.82L21.4434 27.8084Z" fill="black"/>
<path fill-rule="evenodd" clip-rule="evenodd" d="M19.7417 26.4254L20.4438 26.5493L20.6503 26.7558C20.622 26.7537 20.8568 26.9623 20.5677 27.2514C20.2786 27.5405 19.8672 27.1259 19.8672 27.1259C19.8672 27.1259 19.9911 27.828 20.4053 28.2421C20.8194 28.6563 21.3139 28.5725 21.3139 28.5725C21.3139 28.5725 20.8432 28.1868 21.19 27.8704C21.5372 27.5512 21.6856 27.7878 21.6856 27.7878L22.0986 28.2008L22.3893 27.9101L20.7361 26.2569L20.6122 25.5548L19.5473 25.3784L19.7421 26.4226L19.7417 26.4254Z" fill="#CECECC" stroke="black" stroke-width="0.0195221"/>
<path fill-rule="evenodd" clip-rule="evenodd" d="M21.3708 21.5225L22.2204 22.8395L23.2958 23.1297L22.5937 23.584L23.874 23.5427L24.4538 23.9569L24.6615 23.6246L24.08 23.2093L23.6269 21.9271L23.5018 22.7963L22.8406 21.8434L21.3703 21.5195L21.3708 21.5225Z" fill="#CECECC" stroke="black" stroke-width="0.02102"/>
<path fill-rule="evenodd" clip-rule="evenodd" d="M24.8267 22.3133C24.8267 22.3833 24.7333 22.4428 24.626 22.4428C24.5187 22.4428 24.4207 22.3833 24.4207 22.3133C24.4207 22.2433 24.514 22.1803 24.626 22.1803C24.738 22.1803 24.8267 22.2398 24.8267 22.3133ZM24.5373 22.5898C24.5373 23.8428 25.5127 29.1628 25.592 29.2923C25.5967 29.4498 25.368 29.5163 25.2607 29.3238C24.9527 28.7148 24.29 23.7238 24.2667 22.5583C24.2527 22.0788 24.4393 22.0403 24.654 22.0508C24.8267 22.0578 25.0413 22.1803 25.0413 22.3273C25.0413 22.5023 24.7707 22.6318 24.5373 22.5898Z" fill="#E10000" stroke="black" stroke-width="0.0404145"/>
<path fill-rule="evenodd" clip-rule="evenodd" d="M25.2 23.5559C25.165 23.6259 25.0466 23.662 24.9446 23.6352C24.8427 23.6084 24.7793 23.5244 24.8143 23.4544C24.8493 23.3844 24.9695 23.3447 25.0759 23.3727C25.1823 23.4007 25.2368 23.4824 25.2 23.5559ZM24.7869 23.76C25.1089 26.2765 24.0287 30.1627 24.0376 30.3155C23.965 30.4707 23.7128 30.4835 23.7088 30.2607C23.6557 30.116 24.8993 26.6055 24.5455 23.6609C24.772 23.1779 24.9686 23.186 25.1672 23.2502C25.3278 23.3004 25.4705 23.4765 25.397 23.6235C25.3095 23.7985 24.9876 23.8604 24.7869 23.76Z" fill="#0000C4" stroke="black" stroke-width="0.0423542"/>
<path fill-rule="evenodd" clip-rule="evenodd" d="M21.7817 27.05C21.7817 27.1667 21.665 27.2833 21.525 27.2833C21.385 27.2833 21.2683 27.1667 21.2683 27.05C21.2683 26.9333 21.385 26.84 21.525 26.84C21.665 26.84 21.77 26.9333 21.77 27.05H21.7817ZM21.4083 27.5167C21.4083 29.605 22.6333 38.4717 22.7267 38.6933C22.7267 38.95 22.4583 39.0667 22.3183 38.74C21.9333 37.725 21.105 29.4067 21.07 27.47C21.0583 26.665 21.2917 26.6067 21.56 26.6183C21.7817 26.63 22.0383 26.84 22.0383 27.085C22.0383 27.365 21.7 27.5867 21.4083 27.5167Z" fill="#E10000" stroke="black" stroke-width="0.0816667"/>
<path fill-rule="evenodd" clip-rule="evenodd" d="M22.4117 28.1274C22.365 28.2394 22.2134 28.2996 22.0846 28.2594C21.9558 28.2191 21.8778 28.0872 21.9245 27.9752C21.9712 27.8632 22.1252 27.7974 22.2596 27.8394C22.394 27.8814 22.4607 28.0098 22.4117 28.1274ZM21.8802 28.4613C22.2115 32.451 20.7177 38.6488 20.7242 38.8913C20.6272 39.1395 20.3061 39.1657 20.308 38.8119C20.245 38.5833 21.9348 32.9784 21.5764 28.3094C21.8792 27.537 22.1289 27.5454 22.3795 27.6427C22.582 27.7186 22.758 27.9951 22.66 28.2303C22.5433 28.5103 22.1322 28.616 21.8802 28.4613Z" fill="#0000C4" stroke="black" stroke-width="0.0596603"/>
<path fill-rule="evenodd" clip-rule="evenodd" d="M43.2133 43.3017L51.6716 52.2267L51.8233 52.04L43.365 43.115L43.2133 43.3017ZM37.3333 44.76L48.3933 56.4267L48.58 56.24L37.5316 44.5733L37.3333 44.76Z" fill="black"/>
<path fill-rule="evenodd" clip-rule="evenodd" d="M48.3592 56.2904L49.3929 57.3241L50.5711 58.2132L49.682 57.035L48.6483 56.0013L48.3592 56.2904Z" fill="#808080" stroke="black" stroke-width="0.0565972"/>
<path fill-rule="evenodd" clip-rule="evenodd" d="M51.2059 51.7288L52.2395 52.7624L53.4178 53.6515L52.5286 52.4733L51.495 51.4397L51.2059 51.7288Z" fill="#808080" stroke="black" stroke-width="0.0565972"/>
<path fill-rule="evenodd" clip-rule="evenodd" d="M50.4071 22.7674C50.4071 22.7674 51.3363 47.9002 47.6193 47.9002C43.9023 47.9002 42.0386 45.257 42.0386 45.257L42.0806 31.4437L50.4071 22.7674Z" fill="#FFDF00" stroke="black" stroke-width="0.0626099"/>
<path fill-rule="evenodd" clip-rule="evenodd" d="M48.1338 25.1119C48.1338 26.4335 48.5486 45.257 46.6901 45.257C44.8316 45.257 42.0386 43.9354 42.0386 43.9354L42.0806 31.4437L48.1338 25.1119Z" fill="#0000C4" stroke="black" stroke-width="0.0626099"/>
<path fill-rule="evenodd" clip-rule="evenodd" d="M46.9263 26.3813C46.9263 27.7029 46.6901 42.6138 44.8263 42.6138H42.0386L42.0806 31.4437L46.9263 26.3813Z" fill="#E10000" stroke="black" stroke-width="0.0626099"/>
<path fill-rule="evenodd" clip-rule="evenodd" d="M50.6101 22.9083L42.1634 31.8333L42.0117 31.6467L50.4584 22.7217L50.6101 22.9083Z" fill="black"/>
<path fill-rule="evenodd" clip-rule="evenodd" d="M43.9427 29.8005C43.9427 29.8005 46.3106 32.8385 47.453 35.1864C48.5945 37.5392 49.9273 41.1244 49.9273 41.1244C49.9273 41.1244 49.1657 37.5948 47.7283 34.765C45.8449 31.2052 43.9418 30.003 43.9427 29.8005Z" fill="#005B00" stroke="black" stroke-width="0.0292136"/>
<path fill-rule="evenodd" clip-rule="evenodd" d="M43.8608 27.3872C43.8608 27.3872 46.5032 31.1444 47.7093 33.931C48.9139 36.7228 50.2551 40.9077 50.2551 40.9077C50.2551 40.9077 49.6041 36.8815 48.0769 33.5127C46.0642 29.262 43.8439 27.6106 43.8608 27.3872Z" fill="#005B00" stroke="black" stroke-width="0.0337559"/>
<path fill-rule="evenodd" clip-rule="evenodd" d="M46.1412 23.6722C46.1412 23.6722 48.0107 29.2361 48.5804 32.6766C49.147 36.1201 49.493 40.8591 49.493 40.8591C49.493 40.8591 49.8531 36.8817 49.0895 32.6595C48.0331 27.2539 46.0637 23.8447 46.1412 23.6722Z" fill="#005B00" stroke="black" stroke-width="0.0383416"/>
<path fill-rule="evenodd" clip-rule="evenodd" d="M44.4629 23.4177C44.4629 23.4177 47.0516 28.3588 48.0599 31.7166C49.0656 35.0792 50.0113 39.9304 50.0113 39.9304C50.0113 39.9304 49.8748 35.5235 48.5722 31.436C46.8249 26.2436 44.4063 23.6406 44.4629 23.4177Z" fill="#005B00" stroke="black" stroke-width="0.0388525"/>
<path fill-rule="evenodd" clip-rule="evenodd" d="M47.5715 24.9901C47.5715 24.9901 48.8598 30.3101 49.1834 33.484C49.5045 36.66 49.5964 40.9452 49.5964 40.9452C49.5964 40.9452 50.0439 37.4772 49.5948 33.5694C48.9561 28.5508 47.5022 25.1282 47.5715 24.9901Z" fill="#005B00" stroke="black" stroke-width="0.0344552"/>
<path fill-rule="evenodd" clip-rule="evenodd" d="M44.1672 25.1367C44.1672 25.1367 46.6716 29.3693 47.6851 32.328C48.6962 35.2913 49.6918 39.622 49.6918 39.622C49.6918 39.622 49.4499 35.6087 48.1473 32.0153C46.4077 27.4607 44.1212 25.3467 44.1672 25.1367Z" fill="#005B00" stroke="black" stroke-width="0.0354364"/>
<path fill-rule="evenodd" clip-rule="evenodd" d="M43.6975 28.0843C43.6975 28.0843 46.3399 31.4398 47.546 34.0096C48.7506 36.5847 50.0918 40.4946 50.0918 40.4946C50.0918 40.4946 49.4408 36.664 47.9136 33.5647C45.9009 29.6633 43.6806 28.3026 43.6975 28.0843Z" fill="#005B00" stroke="black" stroke-width="0.0333828"/>
<path fill-rule="evenodd" clip-rule="evenodd" d="M44.0405 26.5429C44.0405 26.5429 46.4713 30.4903 47.5294 33.3458C48.5858 36.2062 49.7105 40.4494 49.7105 40.4494C49.7105 40.4494 49.2602 36.4283 47.9127 32.9697C46.1277 28.5974 44.0131 26.761 44.0405 26.5429Z" fill="#005B00" stroke="black" stroke-width="0.0333113"/>
<path fill-rule="evenodd" clip-rule="evenodd" d="M46.6729 23.7565C46.6729 23.7565 48.2357 29.2038 48.623 32.5307C49.0072 35.8604 49.1075 40.412 49.1075 40.412C49.1075 40.412 49.6657 36.6379 49.1267 32.5505C48.3588 27.3118 46.5877 23.9157 46.6729 23.7565Z" fill="#005B00" stroke="black" stroke-width="0.0372704"/>
<path fill-rule="evenodd" clip-rule="evenodd" d="M44.5279 22.3985C44.5279 22.3985 46.8099 27.5298 47.6359 30.9564C48.4591 34.3876 49.1591 39.2972 49.1591 39.2972C49.1591 39.2972 49.2207 34.8953 48.1427 30.7181C46.6839 25.404 44.4635 22.6161 44.5279 22.3985Z" fill="#005B00" stroke="black" stroke-width="0.038317"/>
<path fill-rule="evenodd" clip-rule="evenodd" d="M48.1616 25.3798C48.1616 25.3798 49.1431 30.4881 49.2844 33.5141C49.423 36.542 49.2692 40.6106 49.2692 40.6106C49.2692 40.6106 49.9149 37.3432 49.6903 33.6151C49.3402 28.8242 48.0845 25.5074 48.1616 25.3798Z" fill="#005B00" stroke="black" stroke-width="0.0331297"/>
<path fill-rule="evenodd" clip-rule="evenodd" d="M44.2362 24.5141C44.2362 24.5141 46.5182 28.9369 47.3442 31.9644C48.1674 34.9964 48.8674 39.3854 48.8674 39.3854C48.8674 39.3854 48.929 35.3772 47.851 31.694C46.3922 27.0178 44.1718 24.7187 44.2362 24.5141Z" fill="#005B00" stroke="black" stroke-width="0.0362104"/>
<path fill-rule="evenodd" clip-rule="evenodd" d="M53.1656 27.9175C53.1656 27.9175 55.561 52.2649 48.3748 52.2649C42.3863 52.2649 42.3863 48.424 41.1886 48.424L42.3863 39.4547L53.1723 27.9175H53.1656Z" fill="#FFDF00" stroke="black" stroke-width="0.0699611"/>
<path fill-rule="evenodd" clip-rule="evenodd" d="M50.7702 30.4854C50.7702 31.7657 53.1656 45.8634 47.1703 49.7043C44.7749 50.9846 41.1818 48.424 41.1818 49.7043L42.3795 39.4547L50.7702 30.4854Z" fill="#0000C4" stroke="black" stroke-width="0.0699611"/>
<path fill-rule="evenodd" clip-rule="evenodd" d="M48.3747 33.046C48.3747 34.3263 49.5724 44.5759 45.9726 47.1437C43.5772 49.7043 37.5819 49.0099 37.5819 49.0099L42.3795 39.4547L48.3747 33.046Z" fill="#E10000" stroke="black" stroke-width="0.0699611"/>
<path fill-rule="evenodd" clip-rule="evenodd" d="M53.2234 27.8084L42.1634 39.475L41.9651 39.2884L53.0251 27.6334L53.2234 27.82V27.8084Z" fill="black"/>
<path fill-rule="evenodd" clip-rule="evenodd" d="M54.9251 26.4254L54.223 26.5493L54.0165 26.7558C54.0447 26.7537 53.81 26.9623 54.0991 27.2514C54.3882 27.5405 54.7995 27.1259 54.7995 27.1259C54.7995 27.1259 54.6756 27.828 54.2615 28.2421C53.8473 28.6563 53.3529 28.5725 53.3529 28.5725C53.3529 28.5725 53.8235 28.1868 53.4768 27.8704C53.1296 27.5512 52.9812 27.7878 52.9812 27.7878L52.5682 28.2008L52.2774 27.9101L53.9306 26.2569L54.0545 25.5548L55.1194 25.3784L54.9246 26.4226L54.9251 26.4254Z" fill="#CECECC" stroke="black" stroke-width="0.0195221"/>
<path fill-rule="evenodd" clip-rule="evenodd" d="M53.2959 21.5225L52.4464 22.8395L51.3709 23.1297L52.073 23.584L50.7927 23.5427L50.2129 23.9569L50.0052 23.6246L50.5867 23.2093L51.0398 21.9271L51.1649 22.7963L51.8262 21.8434L53.2964 21.5195L53.2959 21.5225Z" fill="#CECECC" stroke="black" stroke-width="0.02102"/>
<path fill-rule="evenodd" clip-rule="evenodd" d="M49.8517 22.3133C49.8517 22.3833 49.9451 22.4428 50.0524 22.4428C50.1597 22.4428 50.2577 22.3833 50.2577 22.3133C50.2577 22.2433 50.1644 22.1803 50.0524 22.1803C49.9404 22.1803 49.8517 22.2398 49.8517 22.3133ZM50.1411 22.5898C50.1411 23.8428 49.1657 29.1628 49.0864 29.2923C49.0817 29.4498 49.3104 29.5163 49.4177 29.3238C49.7257 28.7148 50.3884 23.7238 50.4117 22.5583C50.4257 22.0788 50.2391 22.0403 50.0244 22.0508C49.8517 22.0578 49.6371 22.1803 49.6371 22.3273C49.6371 22.5023 49.9077 22.6318 50.1411 22.5898Z" fill="#E10000" stroke="black" stroke-width="0.0404145"/>
<path fill-rule="evenodd" clip-rule="evenodd" d="M49.4667 23.5559C49.5017 23.6259 49.6201 23.662 49.7221 23.6352C49.8241 23.6084 49.8874 23.5244 49.8524 23.4544C49.8174 23.3844 49.6973 23.3447 49.5909 23.3727C49.4845 23.4007 49.43 23.4824 49.4667 23.5559ZM49.8798 23.76C49.5578 26.2765 50.6381 30.1627 50.6292 30.3155C50.7018 30.4707 50.954 30.4835 50.958 30.2607C51.011 30.116 49.7675 26.6055 50.1212 23.6609C49.8948 23.1779 49.6982 23.186 49.4995 23.2502C49.339 23.3004 49.1963 23.4765 49.2698 23.6235C49.3573 23.7985 49.6792 23.8604 49.8798 23.76Z" fill="#0000C4" stroke="black" stroke-width="0.0423542"/>
<path fill-rule="evenodd" clip-rule="evenodd" d="M52.8967 27.05C52.8967 27.1667 53.0134 27.2833 53.1417 27.2833C53.2817 27.2833 53.3984 27.1667 53.3984 27.05C53.3984 26.9333 53.2817 26.84 53.1417 26.84C53.0017 26.84 52.8967 26.9333 52.8967 27.05ZM53.2467 27.5167C52.9674 31.2588 52.5315 34.9876 51.9401 38.6933C51.9401 38.95 52.2084 39.0667 52.3484 38.74C52.7334 37.725 53.5617 29.4067 53.5967 27.47C53.6084 26.665 53.3751 26.6067 53.1067 26.6183C52.8851 26.63 52.6284 26.84 52.6284 27.085C52.6284 27.365 52.9667 27.5867 53.2584 27.5167H53.2467Z" fill="#E10000" stroke="black" stroke-width="0.0816667"/>
<path fill-rule="evenodd" clip-rule="evenodd" d="M52.255 28.1274C52.3017 28.2394 52.4534 28.2996 52.5822 28.2594C52.711 28.2191 52.7889 28.0872 52.7422 27.9752C52.6956 27.8632 52.5416 27.7974 52.4072 27.8394C52.2728 27.8814 52.206 28.0098 52.255 28.1274ZM52.7866 28.4613C52.4552 32.451 53.949 38.6488 53.9425 38.8913C54.0396 39.1395 54.3606 39.1657 54.3588 38.8119C54.4218 38.5833 52.732 32.9784 53.0904 28.3094C52.7875 27.537 52.5378 27.5454 52.2872 27.6427C52.0847 27.7186 51.9088 27.9951 52.0068 28.2303C52.1234 28.5103 52.5346 28.616 52.7866 28.4613Z" fill="#0000C4" stroke="black" stroke-width="0.0596603"/>
<path fill-rule="evenodd" clip-rule="evenodd" d="M33.4917 58.6736C34.0384 59.0093 34.6578 59.186 35.2882 59.186C35.9187 59.186 36.5381 59.0093 37.0848 58.6736V48.424H34.6894C35.8871 52.2649 35.8871 56.113 33.4849 58.6736H33.4917Z" fill="#E10000" stroke="black" stroke-width="0.0699611"/>
<path fill-rule="evenodd" clip-rule="evenodd" d="M35.3884 48.6508C35.3884 55.8783 33.653 57.4871 33.653 58.9408C34.3758 58.9408 34.8576 58.263 35.3884 57.332C36.1112 55.8783 36.1806 48.5365 36.1112 48.6508H35.3884Z" fill="#0000C4" stroke="black" stroke-width="0.0577471"/>
<path fill-rule="evenodd" clip-rule="evenodd" d="M33.9429 48.6508C33.9062 52.873 32.1136 56.7848 32.4525 57.6505C32.8364 58.4263 33.9429 55.8783 35.3884 57.3238C36.1112 55.8783 36.1806 48.5365 36.1112 48.6426H33.9429V48.6508Z" fill="#0000C4" stroke="black" stroke-width="0.0577471"/>
<path fill-rule="evenodd" clip-rule="evenodd" d="M34.1051 48.0348C34.1051 52.7843 32.4432 53.1009 32.4432 54.3675C33.1659 54.3675 34.101 53.6752 34.1051 53.7396C34.8278 52.7843 34.8973 47.9597 34.8278 48.0348H34.1051Z" fill="#FFDF00" stroke="black" stroke-width="0.0468123"/>
<path fill-rule="evenodd" clip-rule="evenodd" d="M32.6596 48.0348C32.6229 50.8094 30.8711 53.1707 31.2101 53.7396C31.598 54.244 32.6596 52.7843 34.1051 53.7396C34.8279 52.7843 34.8973 47.9597 34.8279 48.0348H32.6596Z" fill="#FFDF00" stroke="black" stroke-width="0.0468123"/>
<path fill-rule="evenodd" clip-rule="evenodd" d="M41.1749 58.6736C40.6282 59.0093 40.0088 59.186 39.3783 59.186C38.7479 59.186 38.1284 59.0093 37.5818 58.6736V48.424H39.9772C38.7795 52.2649 38.7795 56.113 41.1816 58.6736H41.1749Z" fill="#E10000" stroke="black" stroke-width="0.0699611"/>
<path fill-rule="evenodd" clip-rule="evenodd" d="M39.2781 48.6508C39.2781 55.8783 41.0135 57.4871 41.0135 58.9408C40.2907 58.9408 39.8089 58.263 39.2781 57.332C38.5553 55.8783 38.4859 48.5365 38.5553 48.6508H39.2781Z" fill="#0000C4" stroke="black" stroke-width="0.0577471"/>
<path fill-rule="evenodd" clip-rule="evenodd" d="M40.7236 48.6508C40.7604 52.873 42.5529 56.7848 42.214 57.6505C41.8302 58.4263 40.7236 55.8783 39.2781 57.3238C38.5554 55.8783 38.4859 48.5365 38.5554 48.6426H40.7236V48.6508Z" fill="#0000C4" stroke="black" stroke-width="0.0577471"/>
<path fill-rule="evenodd" clip-rule="evenodd" d="M40.5614 48.0348C40.5614 52.7843 42.2233 53.1009 42.2233 54.3675C41.5006 54.3675 40.5655 53.6752 40.5614 53.7396C39.8387 52.7843 39.7692 47.9597 39.8387 48.0348H40.5614Z" fill="#FFDF00" stroke="black" stroke-width="0.0468123"/>
<path fill-rule="evenodd" clip-rule="evenodd" d="M42.0069 48.0348C42.0437 50.8094 43.7954 53.1707 43.4565 53.7396C43.0686 54.244 42.0069 52.7843 40.5614 53.7396C39.8387 52.7843 39.7693 47.9597 39.8387 48.0348H42.0069Z" fill="#FFDF00" stroke="black" stroke-width="0.0468123"/>
<path fill-rule="evenodd" clip-rule="evenodd" d="M28.1904 49.2237L26.9346 50.1323L28.1904 51.0409L28.8176 50.5866L29.1312 51.0409L29.4448 51.9495L29.7598 51.0409L30.0734 50.5866H46.9V49.678H30.072L29.7584 49.2211C29.7584 48.7668 29.8242 48.3125 30.0734 48.3125H31.3278C31.3278 47.8582 30.7006 46.9496 29.4448 46.9496C28.1904 46.9496 27.5618 47.8582 27.5618 48.3125H28.8176C29.0654 48.3125 29.1312 48.7668 29.1312 49.2237L28.8176 49.678L28.189 49.2211L28.1904 49.2237Z" fill="#908F8A" stroke="black" stroke-width="0.0853024"/>
<path fill-rule="evenodd" clip-rule="evenodd" d="M31.8739 51.4262H42.8728V51.9838H31.8772L31.8739 51.4262ZM31.8739 50.8655H42.8728V51.4262H31.8772L31.8739 50.8655ZM31.8739 50.308H42.8728V50.8687H31.8772L31.8739 50.308ZM31.8739 49.7504H42.8728V50.308H31.8772L31.8739 49.7504ZM31.8739 49.1929H42.8728V49.7504H31.8772L31.8739 49.1929ZM31.8739 48.6322H42.8728V49.1929H31.8772L31.8739 48.6322ZM31.8739 48.0778H42.8728V48.6322H31.8772L31.8739 48.0778Z" fill="#B74D00" stroke="black" stroke-width="0.0577404"/>
<path fill-rule="evenodd" clip-rule="evenodd" d="M32.3984 48.0446L36.4176 51.9506H36.9922L32.9759 48.0478H32.4014L32.3984 48.0446Z" fill="#908F8A" stroke="black" stroke-width="0.100026"/>
<path fill-rule="evenodd" clip-rule="evenodd" d="M32.3984 52.0687L36.4176 48.1627H36.9922L32.9759 52.0656H32.4014L32.3984 52.0687Z" fill="#908F8A" stroke="black" stroke-width="0.100026"/>
<path fill-rule="evenodd" clip-rule="evenodd" d="M32.5099 48.0446V51.9506H33.0881V48.0446H32.5099Z" fill="#908F8A" stroke="black" stroke-width="0.0994419"/>
<path fill-rule="evenodd" clip-rule="evenodd" d="M37.5668 48.0446L41.5859 51.9506H42.1605L38.1443 48.0478H37.5697L37.5668 48.0446Z" fill="#908F8A" stroke="black" stroke-width="0.100026"/>
<path fill-rule="evenodd" clip-rule="evenodd" d="M37.5668 52.0687L41.5859 48.1627H42.1605L38.1443 52.0656H37.5697L37.5668 52.0687Z" fill="#908F8A" stroke="black" stroke-width="0.100026"/>
<path fill-rule="evenodd" clip-rule="evenodd" d="M41.7033 48.0446V51.9506H42.2815V48.0446H41.7033Z" fill="#908F8A" stroke="black" stroke-width="0.0994419"/>
<path fill-rule="evenodd" clip-rule="evenodd" d="M37.6899 48.0446V51.9506H38.2681V48.0446H37.6899Z" fill="#908F8A" stroke="black" stroke-width="0.0994419"/>
<path fill-rule="evenodd" clip-rule="evenodd" d="M36.5233 48.0446V51.9506H37.1015V48.0446H36.5233Z" fill="#908F8A" stroke="black" stroke-width="0.0994419"/>
<path fill-rule="evenodd" clip-rule="evenodd" d="M45.4755 36.8941C45.4755 43.2594 41.7132 48.424 37.0848 48.424C32.4564 48.424 28.6942 43.2594 28.6942 36.8941C28.6942 30.5288 32.4497 25.3569 37.0848 25.3569C41.72 25.3569 45.4755 30.5215 45.4755 36.8869V36.8941ZM44.2778 36.8941C44.2778 42.5506 41.0569 47.1437 37.0848 47.1437C33.1128 47.1437 29.8919 42.5506 29.8919 36.8941C29.8919 31.2304 33.1128 26.6372 37.0848 26.6372C41.0569 26.6372 44.2778 31.2304 44.2778 36.8941Z" fill="#FFDF00" stroke="black" stroke-width="0.0699611"/>
<path fill-rule="evenodd" clip-rule="evenodd" d="M40.3531 26.2683C39.3448 25.6824 38.2419 25.3569 37.0848 25.3569C35.9277 25.3569 34.8247 25.6824 33.8165 26.2611L34.2901 27.4474C35.1411 26.923 36.106 26.6471 37.0881 26.6471C38.0703 26.6471 39.0352 26.923 39.8862 27.4474L40.3531 26.2611V26.2683Z" fill="#FFDF00" stroke="black" stroke-width="0.0699611"/>
<path fill-rule="evenodd" clip-rule="evenodd" d="M40.3764 47.21C39.3681 47.7959 38.2652 48.1214 37.1081 48.1214C35.951 48.1214 34.848 47.7959 33.8398 47.2172L34.3134 46.031C35.1644 46.5553 36.1293 46.8313 37.1115 46.8313C38.0936 46.8313 39.0586 46.5553 39.9095 46.031L40.3764 47.2172V47.21Z" fill="#FFDF00" stroke="black" stroke-width="0.0699611"/>
<path fill-rule="evenodd" clip-rule="evenodd" d="M44.2867 36.8967C44.2867 42.555 41.055 47.14 37.0883 47.14C33.1217 47.14 29.9017 42.555 29.9017 36.8967C29.9017 31.2383 33.1217 26.63 37.0883 26.63C41.055 26.63 44.2867 31.2267 44.2867 36.8967Z" fill="#A7CFFF"/>
<path fill-rule="evenodd" clip-rule="evenodd" d="M44.2778 36.8941C44.3522 38.8181 43.9665 39.7585 43.4726 41.7621C43.344 41.9791 42.7282 41.2919 42.3628 40.952C41.9974 40.612 41.835 41.2558 41.3749 40.735C40.9215 40.1997 40.6306 40.8796 40.2922 40.4312C39.9539 39.9827 36.8209 39.9248 36.8209 39.8814C37.1322 39.7223 38.7291 39.8959 38.472 39.0785C38.181 38.225 36.3743 39.0496 36.1307 37.9646C35.9616 36.8796 32.5038 36.8362 32.2534 36.5758C32.3549 36.9809 34.9466 37.1545 34.8857 38.2033C34.8248 38.6373 32.3346 38.7603 32.091 39.1219C31.888 39.5776 34.0534 38.999 34.1278 39.5559C34.1278 39.7874 33.8098 39.5559 32.6865 39.9176C32.1181 40.0984 33.7286 40.6626 33.1196 40.9737C32.5106 41.2847 31.2046 41.4221 31.2587 41.5523C31.4617 42.2033 34.2834 42.9701 34.006 43.0786C33.0045 43.556 32.4767 43.867 31.9963 44.1419C30.5886 42.0283 29.8511 39.4883 29.8919 36.8941C32.0369 36.0695 31.5835 35.8959 35.5488 35.8959C39.5141 35.8959 40.8268 36.0622 44.2778 36.8941Z" fill="#AFFF7B" stroke="black" stroke-width="0.0699611"/>
<path fill-rule="evenodd" clip-rule="evenodd" d="M44.2778 36.8941C43.7365 36.8941 43.1681 37.14 42.5862 37.14C41.9975 37.14 41.402 36.8869 40.793 36.8869C40.184 36.8869 39.487 37.2196 38.8645 37.2196C38.2352 37.2196 37.6871 36.8941 37.0578 36.8941C36.4285 36.8941 35.7992 37.14 35.1767 37.14C34.5541 37.14 33.9384 36.8869 33.3361 36.8869C32.7339 36.8869 32.1384 37.14 31.5633 37.14C30.9881 37.14 30.4265 36.8869 29.8919 36.8869C29.8919 35.4764 30.0949 34.131 30.4603 32.9013C32.2873 33.046 31.2046 31.7657 32.2873 31.7657C32.6034 31.7474 32.9194 31.8011 33.2146 31.9233C33.5097 32.0455 33.7772 32.2334 33.9993 32.4745C34.1617 32.4745 34.9737 31.6499 35.8872 31.7657C36.7939 31.8814 36.4623 33.7404 37.6736 33.8344C38.2826 34.3263 38.6412 34.6373 39.4803 34.8398C40.678 34.9556 44.1087 34.659 44.129 34.8254C44.2278 35.5099 44.2775 36.2015 44.2778 36.8941Z" fill="white" stroke="black" stroke-width="0.0699611"/>
<path fill-rule="evenodd" clip-rule="evenodd" d="M38.171 42.8607C38.171 42.5415 38.486 42.3287 38.486 41.8191C38.486 41.3095 38.206 41.2983 38.1967 40.8223C38.192 40.6263 38.437 40.4303 38.5444 40.4079C38.6517 40.3855 38.7427 40.8223 38.7427 40.9175C38.7427 41.0127 38.633 40.6823 38.542 40.6767C38.451 40.6711 38.255 40.7103 38.255 40.8055C38.255 40.9959 38.6004 41.2311 38.5747 41.8695C38.549 42.4967 38.2784 42.6871 38.2784 42.8775C38.2784 43.0679 38.395 43.5943 38.395 43.5943C38.395 43.5943 38.1687 43.1743 38.1687 42.8551L38.171 42.8607Z" fill="black" stroke="black" stroke-width="0.0361478"/>
<path fill-rule="evenodd" clip-rule="evenodd" d="M39.179 42.814C39.179 42.4948 38.864 42.282 38.864 41.7724C38.864 41.2628 39.144 41.2516 39.1533 40.7756C39.1767 40.5516 38.878 40.406 38.7707 40.3892C38.6633 40.3724 38.5373 40.8372 38.5373 40.9268C38.5373 41.0164 38.6633 40.6356 38.7543 40.63C38.8453 40.6244 39.095 40.6636 39.095 40.7588C39.095 40.9492 38.7497 41.1844 38.7753 41.8228C38.801 42.45 39.0717 42.6404 39.0717 42.8308C39.0717 43.0212 38.955 43.5476 38.955 43.5476C38.955 43.5476 39.1813 43.1276 39.1813 42.8084L39.179 42.814Z" fill="black" stroke="black" stroke-width="0.0361478"/>
<path fill-rule="evenodd" clip-rule="evenodd" d="M38.85 40.28C38.85 40.4317 38.7683 40.56 38.675 40.56C38.5817 40.56 38.5117 40.4317 38.5117 40.2683C38.5117 40.105 38.5817 39.9883 38.675 39.9883C38.7683 39.9883 38.85 40.1167 38.85 40.28ZM40.8333 41.33H40.88V43.605H40.8217L40.8333 41.33ZM41.3117 41.1433H41.37V43.4417H41.3117V41.1433Z" fill="black"/>
<path fill-rule="evenodd" clip-rule="evenodd" d="M41.1367 42.1817V42.1234L41.6033 42.205V42.2633L41.1367 42.1817Z" fill="black"/>
<path fill-rule="evenodd" clip-rule="evenodd" d="M34.4673 42.842C34.4673 42.842 36.2267 43.6666 36.6124 44.1584C36.9913 44.6503 36.8424 44.6503 36.8424 44.6503L40.7468 44.8167C40.7468 44.5707 41.437 44.5707 41.5926 43.9921C41.7483 43.4206 41.7483 43.2543 41.7483 43.2543L40.5235 43.6666L40.5912 42.9288H39.522L39.3664 43.6666L37.0657 43.587L37.2214 41.6123L36.7612 41.6919L36.6936 43.5725C36.6124 43.5725 34.5418 43.0011 34.4606 42.842H34.4673Z" fill="#B74D00" stroke="black" stroke-width="0.0699611"/>
<path fill-rule="evenodd" clip-rule="evenodd" d="M30.9272 31.064C30.9272 31.064 33.4782 30.2539 37.1593 30.3118C40.8404 30.3696 43.3914 31.2376 43.3373 31.2376C43.2831 31.2376 42.6335 29.9067 42.6335 29.9067C42.6335 29.9067 40.0351 29.1472 37.1052 29.0893C34.182 29.0315 31.6309 29.668 31.6918 29.7259L30.9272 31.064Z" fill="#FEDE00" stroke="#FEDE00" stroke-width="0.0699611"/>
<path fill-rule="evenodd" clip-rule="evenodd" d="M35.7 29.185L37.2867 29.1616L37.31 30.0833L35.7233 30.1183L35.7 29.185ZM32.06 29.6866L31.5 30.6083L33.39 30.375L33.2383 29.4766L32.06 29.71V29.6866ZM33.6583 29.3366L35.245 29.2083L35.315 30.1183L33.74 30.2583L33.6583 29.3366ZM39.3633 29.255L37.7883 29.1383L37.73 30.0716L39.305 30.165L39.3633 29.255ZM42.77 29.8383L43.3417 30.9583L41.6383 30.5383L41.825 29.64L42.7583 29.8266L42.77 29.8383ZM41.3933 29.4883L39.83 29.29L39.7133 30.2L41.2883 30.41L41.3933 29.4883Z" fill="#38A9F9"/>
<path fill-rule="evenodd" clip-rule="evenodd" d="M37.1593 31.5849L36.9901 30.6084L36.4758 31.4402L36.6653 30.4637L35.9007 31.0207L36.4149 30.2033L35.5082 30.4058L36.2864 29.8561L35.3729 29.6753L36.2864 29.4872L35.5082 28.9375L36.4149 29.14L35.8939 28.3226L36.6653 28.8796L36.4758 27.9031L36.9901 28.7349L37.1593 27.7584L37.3352 28.7349L37.8427 27.9031L37.66 28.8796L38.4246 28.3226L37.9036 29.14L38.8171 28.9375L38.0389 29.4872L38.9524 29.6753L38.0389 29.8561L38.8171 30.4058L37.9036 30.2033L38.4246 31.0207L37.66 30.4637L37.8495 31.4402L37.3352 30.6084L37.1593 31.5849Z" fill="#FFDF00" stroke="black" stroke-width="0.0699611"/>
<path fill-rule="evenodd" clip-rule="evenodd" d="M38.5105 29.0625C38.5105 29.605 38.0716 30.0425 37.5263 30.0425C36.981 30.0425 36.5421 29.605 36.5421 29.0625C36.5421 28.52 36.981 28.0767 37.5263 28.0767C38.0716 28.0767 38.5105 28.52 38.5105 29.0683V29.0625Z" fill="#FFDF00" stroke="black" stroke-width="0.0622829"/>
<path fill-rule="evenodd" clip-rule="evenodd" d="M37.415 29.2783C37.415 29.3367 37.2633 29.395 37.0883 29.395C36.9133 29.395 36.7617 29.3367 36.7617 29.2783C36.7617 29.22 36.9017 29.1617 37.0883 29.1617C37.275 29.1617 37.415 29.2083 37.415 29.2783ZM38.115 29.2783C38.115 29.3367 38.01 29.395 37.8817 29.395C37.7533 29.395 37.625 29.3367 37.625 29.2783C37.625 29.2083 37.7417 29.1617 37.87 29.1617C37.9983 29.1617 38.115 29.2083 38.115 29.2783Z" fill="black"/>
<path d="M37.3808 29.6806L37.4489 29.7198C37.2851 29.6197 37.3598 29.6568 37.6169 29.9102C37.7638 29.8248 37.7917 29.7471 37.8829 29.6414" stroke="black" stroke-width="0.0706603"/>
<path d="M36.7295 30.1961L36.7836 30.2539C36.6551 30.1093 36.716 30.1816 37.0002 30.3697C37.2708 30.4058 37.5483 30.2829 37.7107 30.0803" stroke="black" stroke-width="0.0699611"/>
<path fill-rule="evenodd" clip-rule="evenodd" d="M32.83 32.1017C32.83 32.1017 32.9466 33.035 32.235 34.2017C31.535 35.3567 31.64 34.9484 31.64 34.9484C31.64 34.9484 31.9667 35.59 31.9083 35.59C31.85 35.59 31.36 35.0067 31.36 35.0067L30.7766 35.6484C30.7766 35.6484 31.3133 34.6567 31.255 34.6567C31.1967 34.6567 31.0917 34.3067 31.0917 34.3067L31.5233 34.1317C31.5233 34.1317 32.1766 32.9184 32.1766 32.9767C32.1766 33.035 30.2283 34.3067 30.2283 34.3067L32.83 32.1134V32.1017ZM33.2617 32.4517C33.2033 32.4517 33.53 33.385 33.81 33.8517C34.0783 34.3184 34.0783 34.89 34.0783 34.89L35 35.3567L33.81 33.56L34.5683 33.84L33.2617 32.4517ZM33.2617 34.89C33.2617 34.89 33.915 35.59 33.9617 35.8234C34.0083 36.0567 34.02 36.57 34.02 36.57L33.7516 35.9867L33.3667 36.5117C33.3667 36.5117 33.6467 35.695 33.5883 35.6367C33.53 35.5784 33.1567 35.9284 33.1567 35.9284C33.1567 35.9284 33.32 35.4617 33.32 35.415C33.32 35.3684 33.32 35.065 33.2617 34.89ZM30.0067 36.5117C30.2283 36.3367 30.66 36.22 30.66 36.22C30.66 36.22 30.3917 36.6867 30.3333 36.6867C30.275 36.6867 30.1233 36.6867 30.0067 36.5117ZM37.485 33.9684C37.485 33.9684 38.8967 34.8317 38.8967 34.89C38.8967 34.9484 37.975 34.4817 37.975 34.4817L37.485 33.9684ZM34.9417 32.16C35.0583 32.2184 37.0067 33.84 36.9483 33.84C36.89 33.84 36.085 33.3734 36.085 33.4434V33.84L35.6417 32.9184L35.5367 33.2684L34.9533 32.16H34.9417ZM35.4317 34.7734L35.9683 35.87L36.5167 35.7534C36.5167 35.7534 35.49 34.7734 35.4317 34.7734ZM37.1117 34.0734L37.17 35.1234C37.17 35.1234 37.485 35.415 37.485 35.3567C37.485 35.2984 37.17 34.1317 37.1117 34.0734Z" fill="#B7E1FF"/>
<path fill-rule="evenodd" clip-rule="evenodd" d="M21.3033 19.8167C21.3033 19.8167 23.7533 18.4634 26.5417 17.46C28.5932 16.7063 30.7099 16.1439 32.865 15.78C33.6817 15.78 35.105 17.8567 35.3383 17.8567C35.5717 17.8567 36.5167 17.2734 37.7067 17.2734C38.8967 17.2734 39.585 18.2067 39.83 18.2067H41.9533C42.1867 18.2067 41.2417 15.8967 41.9533 16.0134C42.3033 16.0717 45.3133 16.5384 48.1133 17.4367C50.9133 18.3467 54.88 19.9567 54.88 19.9567C54.88 19.9567 48.405 20.8084 46.6667 20.5634C46.4333 20.68 46.6667 22.08 46.3167 21.4617C45.78 21.345 43.785 21.03 43.435 21.03C43.085 21.03 42.42 21.4267 41.475 21.66C40.5417 21.8934 39.3517 22.2434 39.3517 22.2434L40.8917 24.6584L39.0017 25.5917C39.0017 25.5917 37.8233 22.815 37.345 22.815C36.8667 22.815 36.645 24.775 36.05 24.6584C35.4667 24.5417 35.2333 22.815 34.755 22.3484C34.2883 21.8934 31.7917 21.7184 30.8467 21.4967C29.9133 21.2634 28.385 21.0884 27.5567 20.855C26.74 20.6217 25.9 21.4384 25.55 21.4384C25.2 21.4384 26.0167 20.7384 25.6667 20.6217C25.3167 20.505 25.0833 20.9717 24.85 20.9717C24.6167 20.9717 22.1317 20.505 21.8983 20.3884C21.665 20.2717 22.4817 19.8167 22.2483 19.8167H21.3033Z" fill="#984000"/>
<path fill-rule="evenodd" clip-rule="evenodd" d="M38.9037 18.6616C38.9037 19.3047 38.3749 19.8264 37.7256 19.8264C37.0762 19.8264 36.55 19.3047 36.55 18.6616C36.55 18.0186 37.0762 17.4999 37.7256 17.4999C38.3749 17.4999 38.9037 18.0216 38.9037 18.6616Z" fill="#808080" stroke="#772600" stroke-width="0.10324"/>
<path fill-rule="evenodd" clip-rule="evenodd" d="M32.9314 18.8833C33.1424 18.6369 33.4039 18.2636 34.0874 18.2636C34.2449 18.2001 34.2449 17.8268 34.6103 17.8268C34.9789 17.8268 34.8718 18.2001 35.1364 18.327C35.3978 18.4502 37.5493 18.2001 37.5493 18.2001C37.5493 18.2001 37.7572 18.3868 37.7572 18.6369C37.7572 18.887 37.5997 19.07 37.5493 19.07C37.4989 19.07 35.3978 18.8833 35.2403 18.9468C35.0828 19.0102 34.9789 19.07 34.6103 19.07C34.2449 19.07 34.1378 18.6369 33.8764 18.6369C33.6149 18.6369 33.3535 18.5734 32.9314 18.887V18.8833Z" fill="#984000" stroke="#772600" stroke-width="0.181752"/>
<path d="M39.3322 18.7536H40.1701C40.4725 18.7573 40.5764 18.8656 40.8536 18.8768H41.5876C41.8553 18.8656 41.9971 18.7909 42.268 18.7536C42.7247 18.7461 42.5704 18.7051 42.479 18.3803C42.3971 18.1376 42.3845 18.0219 42.268 17.8837C42.2239 17.5851 42.1231 17.4805 42.1105 17.1371C42.0632 16.8757 41.975 16.7003 42.0601 16.3904C42.1798 16.6032 42.227 16.6891 42.5326 16.704C42.8476 16.704 42.9704 16.6928 43.1626 16.8272C43.3075 17.0101 43.5028 16.9504 43.7926 16.9504C44.032 17.0027 44.0729 17.1483 44.2619 17.2603C44.4856 17.4096 44.6305 17.4469 44.9423 17.4469C45.1943 17.5029 45.4148 17.544 45.5723 17.6336C45.7078 17.824 45.9188 17.8725 46.2023 17.8837C46.3598 17.8837 46.4858 17.8651 46.6213 17.8203C46.8638 17.8352 47.1095 17.8203 47.4088 17.8203C47.6041 18.0891 47.6482 18.1899 47.9852 18.1936C48.2183 18.3877 48.4136 18.4176 48.6152 18.5035H49.4027C49.6862 18.5296 49.7744 18.6677 50.0327 18.7536C50.2543 18.8723 50.4815 18.9758 50.7131 19.0635C50.9386 19.1119 51.1676 19.1331 51.3967 19.1269C51.5888 19.2464 51.8251 19.2539 51.9731 19.3733C52.1905 19.4293 52.4866 19.4965 52.6535 19.56C52.9307 19.6048 53.0378 19.7093 53.2835 19.7467C53.4946 19.8213 53.2142 19.8811 53.0725 19.9333C52.7638 19.9221 52.7417 19.784 52.4425 19.7467C52.285 19.6384 52.0456 19.6533 51.8125 19.56H51.7621C51.97 19.7093 52.1716 19.8027 52.0771 20.0603C51.8093 20.0603 51.592 20.0192 51.3431 19.9968C51.0785 19.9371 50.9588 19.8736 50.6627 19.8736C50.9588 19.7877 51.0344 19.8811 51.2392 19.9968C51.3148 20.2955 51.151 20.1835 50.8706 20.1835C50.6312 20.0827 50.4863 19.9595 50.1902 19.9333H49.5602C49.8721 19.9483 49.9382 20.0864 50.1367 20.2469C50.1524 20.344 50.1335 20.3365 49.9792 20.3701C49.8154 20.2021 49.6043 20.1461 49.3492 20.0603C49.1003 20.0491 48.8389 20.0229 48.6152 19.9333C48.4609 19.9221 48.4861 19.7056 48.8263 20.0603C49.031 20.2021 49.1035 20.3216 49.0877 20.4336C48.8168 20.3515 48.6845 20.2245 48.5113 20.12C48.2756 20.0232 48.0264 19.9813 47.7773 19.9968C47.5064 19.9109 47.8057 19.8624 47.9852 20.1835C48.3758 20.512 47.9348 20.3701 47.7773 20.3067C47.5411 20.2283 47.2954 20.1125 47.0938 20.0603C46.9363 20.0043 46.7977 19.952 46.6213 19.9333C46.8953 19.9632 46.9867 20.0789 47.0938 20.3067C47.371 20.5307 47.0812 20.4224 46.8323 20.3701C46.6748 20.2059 46.4701 20.12 46.3598 19.9333C46.0984 19.7803 46.0889 19.5973 46.2559 19.9968C46.2968 20.1237 46.2874 20.4 46.3063 20.4336C46.1141 20.1835 46.1551 20.12 45.9409 20.12C45.7928 20.0005 45.5786 19.9072 45.4684 19.7467C45.2668 19.7243 45.2542 19.6384 45.0494 19.56C45.2164 19.7952 45.44 20.0267 45.5723 20.2469C45.8117 20.4037 45.8779 20.5456 46.0448 20.68C46.111 20.8181 46.2968 20.9301 46.0984 20.7435C45.8716 20.4821 45.7046 20.4187 45.3644 20.2469C45.1691 20.0603 45.0998 19.9856 44.8919 19.8101C44.6084 19.7019 44.7187 19.6421 44.8919 19.9968C45.0904 20.2133 45.2416 20.4523 45.4148 20.6203C45.5507 20.8126 45.7099 20.98 45.8873 21.1168C45.9346 21.1989 46.0763 21.2139 45.8873 21.24C45.7298 21.0683 45.4967 20.96 45.3109 20.8032C45.0494 20.7173 44.9266 20.5568 44.7344 20.3701C44.6084 20.1499 44.4068 19.9819 44.2619 19.8101C43.9595 19.6683 44.3218 19.9445 44.4194 20.12C44.4856 20.3477 44.5706 20.5307 44.6273 20.7435C44.7155 20.9488 44.3627 20.6949 44.2619 20.6203C44.0547 20.4612 43.822 20.3544 43.5784 20.3067C43.3696 20.2572 43.1595 20.2161 42.9484 20.1835C42.7121 20.1088 43.0775 20.3627 43.213 20.6203C43.4776 20.9152 42.9515 20.6725 42.794 20.6203C42.534 20.5679 42.2702 20.5467 42.0065 20.5568C41.6695 20.5792 41.912 20.6315 42.0065 20.8032C42.1105 20.9003 42.1829 21.1019 42.164 21.1765C41.9435 21.1392 41.7545 21.0645 41.4805 21.0533C41.26 21.1392 40.9985 21.1168 40.7465 21.1168C40.7371 21.2736 40.7938 21.1392 40.904 21.3035C41.0867 21.3893 41.2064 21.4939 41.1686 21.6133H39.6472C39.4802 21.6656 39.6818 21.6395 39.8047 21.8635C39.7354 22.0651 39.6472 21.9867 39.4361 21.9867C39.2944 21.9195 39.0077 21.8896 38.8597 21.8C38.7116 21.8 38.7242 21.7552 38.5982 21.7365C39.0392 22.1099 38.8187 22.0165 39.0707 22.2965C39.1117 22.3152 39.2125 22.36 39.1211 22.36M35.6593 24.3499C35.6278 24.3499 35.5585 24.1483 35.4514 23.9765C35.3758 23.7525 35.2813 23.8795 35.1868 23.5397C35.1994 23.1888 35.2088 23.1291 35.1868 22.7931C34.9726 22.6139 34.8812 22.5616 34.7143 22.2331C34.4497 21.9717 34.7552 21.5237 34.8056 21.1952C34.5725 21.1355 34.4591 21.6245 34.1032 21.8C33.8449 22.0053 34.0717 21.3744 33.9457 21.0085C33.8606 20.4896 33.6055 21.2699 33.511 21.4901C33.3377 21.6283 33.2842 21.8075 33.0385 21.5499C33.0385 21.3595 33.1928 20.8219 33.1267 20.7173C32.881 20.8629 32.5597 21.296 32.3045 21.3632C32.0462 21.2997 32.3581 20.8107 32.3581 20.4485C32.2636 20.4112 31.895 21.4117 31.7438 21.4192C31.5926 21.4267 31.6588 20.4485 31.5863 20.4709C31.4761 20.6576 31.2524 21.0459 31.0981 21.1803C30.7988 21.1317 31.1422 20.5269 31.1863 20.3029C31.2367 20.0341 30.9059 20.8181 30.7295 20.8667C30.6004 21.0011 30.3452 21.0907 30.257 21.1168C30.3578 20.8853 30.8555 20.4187 30.824 20.2843C30.5311 20.2955 30.0869 20.7509 29.8381 20.8069C29.6743 20.8069 29.4475 20.8704 29.4191 20.8667C29.4317 20.568 30.0302 20.3216 30.1247 20.1387C29.8318 20.1947 29.2679 20.5008 29.1041 20.7435C28.9088 20.792 28.6631 20.8555 28.4741 20.7435C28.5025 20.4635 28.9435 19.9221 29.0411 19.7429C28.7734 19.8811 28.6411 19.9893 28.3576 20.0528C28.304 20.1163 28.1528 20.2507 28.2001 20.1163C28.2851 19.8549 28.4111 19.7429 28.5151 19.5563C28.2788 19.6085 28.1906 19.7691 27.9386 19.9296C27.778 19.9371 27.3181 20.4859 27.1637 20.4933C26.9025 20.7374 26.5975 20.9073 26.2723 20.9899C26.0329 21.0421 25.9163 21.1019 25.7998 21.24C25.9195 20.9899 26.1022 20.7547 26.2723 20.6203C26.3761 20.3937 26.5431 20.2168 26.7448 20.12C26.8046 20.0341 26.9684 20.0117 26.7952 19.9968C26.6471 20.1536 26.3951 20.3328 26.2723 20.4336C26.1116 20.5531 25.9258 20.6725 25.8502 20.6203C25.9352 20.3515 26.0864 20.2843 26.2187 20.0603C26.4959 19.8512 26.2187 19.9856 26.0077 20.0603C25.8722 20.2021 25.6297 20.3104 25.4312 20.4336C25.2107 20.5008 25.0627 20.6576 24.8012 20.7435C24.8012 20.8331 24.8768 20.5829 24.9083 20.4933C25.1225 20.2171 25.1792 20.1387 25.4312 20.0603C25.4942 19.952 25.5698 19.9968 25.3808 19.9968C25.2359 20.1461 25.0406 20.2283 24.8548 20.3701C24.6689 20.4187 24.4264 20.4336 24.1744 20.4336C23.8468 20.4784 23.8751 20.5083 24.1744 20.3067C24.3413 20.12 24.4799 20.1685 24.4894 19.9333C24.2909 20.1051 24.0484 20.232 23.8058 20.3701C23.6042 20.3776 23.5507 20.4336 23.3333 20.4336C23.4373 20.3067 23.5003 20.1461 23.6483 20.0603C23.8688 19.7728 23.5097 20.0043 23.4373 20.0603H22.6498C22.5112 20.2693 22.6435 20.0603 22.7569 19.9333C22.8923 19.8512 23.0341 19.7429 23.0183 19.6869C22.8608 19.8475 22.6813 19.9221 22.5458 20.0603C22.4009 20.1125 22.2308 20.1349 22.2308 20.1835C22.3474 19.9856 22.5332 19.8624 22.6529 19.6869C22.8293 19.6421 22.9805 19.5749 23.0183 19.5003H22.2844H22.8073C23.075 19.5003 23.3018 19.4704 23.5444 19.4368C23.9602 19.3547 23.5066 19.3136 23.2798 19.3136C23.2388 19.2165 23.4121 19.1643 23.5948 19.1269C23.7523 19.0373 23.9507 18.9589 24.1208 18.8768C24.271 18.8226 24.4125 18.7394 24.5398 18.6304C24.3823 18.6379 24.3823 18.6827 24.2248 18.6901C24.461 18.6715 24.628 18.6304 24.9083 18.6304C25.1392 18.5402 25.3663 18.4368 25.5887 18.3205C25.6832 18.1861 25.721 18.1936 25.4848 18.1936C25.6958 18.1152 25.9951 18.0741 26.1652 18.0069C26.3823 17.953 26.5936 17.8704 26.7952 17.7605C26.9495 17.6373 27.0377 17.4917 27.2141 17.3872C27.4189 17.5515 27.422 17.5739 27.7906 17.5739C28.0867 17.5701 28.2694 17.4843 28.4206 17.3237C28.6474 17.2491 28.6883 17.1221 28.9466 17.0773C29.1894 17.1225 29.4349 17.1425 29.6806 17.1371C29.9326 17.0587 30.1751 16.9131 30.361 16.7637C30.5216 16.6704 30.7138 16.536 30.887 16.4539C31.076 16.5696 31.2272 16.6629 31.4635 16.704C31.706 16.6592 31.8352 16.5173 32.0399 16.4539C32.1662 16.2946 32.3315 16.1862 32.5124 16.144C32.818 15.9648 32.7959 16.2 32.9314 16.3904C33.0889 16.5845 33.2905 16.4912 33.5078 16.5771C33.6307 16.8011 33.7189 16.9504 33.8764 17.0736C33.9992 17.2528 34.1441 17.2976 34.4024 17.3237C34.4969 17.4731 34.4213 17.5776 34.6103 17.6336C34.6859 17.7307 34.8151 17.768 34.9253 17.8203" stroke="#772600" stroke-width="0.120025"/>
<path d="M38.7274 22.7632V22.7931C38.7274 22.7072 38.7274 22.7557 38.781 22.92C38.7999 23.0544 38.7558 23.0395 38.7022 23.1365C38.6928 23.2747 38.677 23.3755 38.677 23.5397C38.6581 23.6741 38.5951 23.8011 38.5447 23.9131C38.4943 24.0288 38.277 24.096 38.2833 24.2565C38.1573 24.2976 38.1541 24.2005 38.151 24.0363C38.0754 23.9355 38.0502 23.7973 37.9935 23.6629C37.962 23.536 37.8864 23.4389 37.836 23.2896C37.7604 23.1515 37.6942 23.1104 37.6281 22.9499C37.5997 22.8752 37.606 22.7781 37.5493 22.7333C37.4643 22.6027 37.4076 22.584 37.2595 22.5765C37.1461 22.6064 37.102 22.6661 36.9981 22.6997C36.9162 22.7333 36.7587 22.7221 36.6579 22.7632C36.6327 22.8117 36.7083 22.8379 36.7366 22.9499C36.6673 23.0171 36.6421 23.1328 36.6043 23.2299C36.5413 23.3232 36.5004 23.368 36.472 23.5099C36.5161 23.5957 36.4783 23.7115 36.4216 23.7899C36.4027 23.9317 36.3429 24.0101 36.3145 24.1296C36.2326 24.2005 36.2011 24.264 36.1318 24.3797C36.072 24.4805 36.0184 24.4731 35.8704 24.4731C35.7538 24.4357 35.7381 24.3611 35.6341 24.3163C35.6247 24.2789 35.6152 24.2677 35.5806 24.2565" stroke="#782600" stroke-width="0.106308"/>
<path fill-rule="evenodd" clip-rule="evenodd" d="M35.8867 24.0167C35.8867 24.0167 35.84 24.6 35.4667 24.985C35.0934 25.37 34.3234 25.8133 34.3234 25.8133C34.3234 25.8133 35.3617 25.3233 35.4667 25.4283C35.5834 25.545 34.8017 26.3967 34.8017 26.3967C34.8017 26.3967 35.8167 25.4983 35.945 25.4983C36.0734 25.4983 36.365 26.3733 36.4817 26.35C36.5867 26.3267 36.2484 25.2417 36.295 25.0667C36.3417 24.9033 36.295 23.9817 36.295 23.9817L35.8984 24.0167H35.8867ZM38.2784 23.9467C38.2784 23.9467 38.2317 24.565 37.8584 24.9733C37.485 25.3817 36.715 25.86 36.715 25.86C36.715 25.86 37.7534 25.335 37.8584 25.4517C37.975 25.5683 37.1934 26.4783 37.1934 26.4783C37.1934 26.4783 38.2084 25.5217 38.3367 25.5217C38.465 25.5217 38.7567 26.455 38.8734 26.4317C38.9784 26.4083 38.64 25.2417 38.6867 25.0667C38.7334 24.88 38.6867 23.9 38.6867 23.9L38.2784 23.9467ZM34.93 18.3467C34.93 18.4517 34.8134 18.545 34.685 18.545C34.5567 18.545 34.4284 18.4517 34.4284 18.335C34.4284 18.2183 34.545 18.125 34.685 18.125C34.825 18.125 34.93 18.2183 34.93 18.335V18.3467Z" fill="#812E00"/>
</g>
<defs>
<clipPath id="clip0_1_20773">
<rect width="74.6667" height="56" fill="white" transform="translate(0 9.375)"/>
</clipPath>
</defs>
</svg>
