<svg width="75" height="75" viewBox="0 0 75 75" fill="none" xmlns="http://www.w3.org/2000/svg">
<rect width="74.6667" height="74.75" fill="white"/>
<g clip-path="url(#clip0_1_20786)">
<path d="M-3.05176e-05 46.7083H74.6666V65.375H-3.05176e-05V46.7083Z" fill="black"/>
<path d="M-3.05176e-05 28.0417H74.6666V46.7084H-3.05176e-05V28.0417Z" fill="white"/>
<path d="M0 9.375H74.6667V28.0417H0V9.375Z" fill="#CE1126"/>
<path d="M37.4079 37.599L43.8013 43.535L43.3439 32.755C43.2786 31.1217 41.8599 31.495 40.8239 32.083C39.7879 32.755 38.5839 32.755 37.3333 32.3163C36.0733 32.755 34.8786 32.755 33.8426 32.083C32.8159 31.495 31.3879 31.1217 31.3226 32.755L30.8653 43.535L37.4079 37.599Z" fill="white" stroke="#C09300" stroke-width="0.121333" stroke-linejoin="round"/>
<path d="M32.0599 32.3817L31.6119 42.863L30.8653 43.535L31.3226 32.755C31.5431 32.5859 31.7931 32.4593 32.0599 32.3817ZM32.9559 33.1283L32.5826 41.9017L31.8359 42.667L32.2839 32.5403C32.4333 32.6897 32.8719 33.0537 32.9559 33.1283ZM33.7679 33.8003L33.4786 41.1177L32.8719 41.7057L33.2453 33.3617C33.3946 33.5017 33.6933 33.7163 33.7679 33.8003ZM34.6546 34.1737L34.3653 40.4083L33.7773 40.8843L34.0666 33.9497C34.2159 34.015 34.5053 34.1737 34.6546 34.1737ZM35.4759 34.1737L35.2613 39.3723L34.6546 39.9603L34.8879 34.239C35.0279 34.239 35.4106 34.239 35.4759 34.1737Z" fill="#C09300"/>
<path d="M37.6319 38.775L38.5279 42.863L38.2292 43.1617L37.9212 42.9284L37.4172 39.2884L37.6319 42.9284L37.3332 43.3017L37.0439 42.9284L37.2586 39.2884L36.7452 42.9284L36.4372 43.1617L36.1386 42.863L37.0346 38.7844H37.6319V38.775Z" fill="#C09300" stroke="#C09300" stroke-width="0.102667"/>
<path d="M35.3266 36.983L33.5439 43.3016L35.9986 43.675L37.0346 38.9243L35.3266 36.983Z" fill="white" stroke="#C09300" stroke-width="0.112" stroke-linejoin="round"/>
<path d="M34.7386 39.1483L34.9533 39.6616L36.1106 38.5603" stroke="#C09300" stroke-width="0.121333" stroke-linejoin="round"/>
<path d="M35.5413 37.8416L35.7839 40.1096L36.5213 39.1389M36.2226 39.5123L36.6239 40.9123M36.7826 40.3989L35.9706 41.6309M36.2226 42.8629L35.9613 41.6309L35.7373 40.3803L35.1866 41.1176L34.9533 40.2683L34.1879 41.0523L34.5706 42.4709L35.1119 41.5936L35.4013 42.4896L35.9613 41.6309" stroke="#C09300" stroke-width="0.121333" stroke-linejoin="round"/>
<path d="M34.0666 43.1616L34.5613 42.4616L34.8786 43.5349L35.3266 42.7883L35.616 43.6843" stroke="#C09300" stroke-width="0.121333" stroke-linejoin="round"/>
<path d="M37.3333 46.1296C39.1999 46.1296 40.9733 45.9803 42.0186 45.691C42.4573 45.607 42.4573 45.383 42.4573 45.0843C42.9053 44.935 42.6813 44.4123 42.9893 44.4123C42.6719 44.5056 42.6159 43.899 42.2426 43.9736C42.2426 43.451 41.7106 43.3856 41.2719 43.535C40.3853 43.8243 38.8173 43.899 37.3333 43.899C35.8399 43.8243 34.2906 43.8243 33.3946 43.5256C32.9559 43.3856 32.4333 43.451 32.4333 43.9736C32.0599 43.899 31.9946 44.4963 31.6866 44.4123C31.9946 44.4123 31.7613 44.9443 32.2093 45.0843C32.2093 45.383 32.2093 45.607 32.6573 45.691C33.6839 45.9803 35.4759 46.1296 37.3333 46.1296Z" fill="white" stroke="#C09300" stroke-width="0.224" stroke-linecap="round" stroke-linejoin="round"/>
<path d="M34.8039 43.3017C35.4013 43.3857 36.0733 43.451 36.5959 43.3857C36.8946 43.3857 37.1093 43.899 36.5119 43.9737C35.9986 44.039 35.1773 43.9737 34.7386 43.899C34.1613 43.7979 33.5884 43.6734 33.0213 43.5257C32.4986 43.3017 32.8719 42.8723 33.1706 42.9283C33.7034 43.099 34.2499 43.2239 34.8039 43.3017ZM39.8626 43.3017C39.2653 43.3857 38.5933 43.451 38.0893 43.3857C37.7719 43.3857 37.5573 43.899 38.1546 43.9737C38.6773 44.039 39.4893 43.9737 39.9279 43.899C40.3013 43.8243 41.1226 43.6843 41.6453 43.5257C42.1679 43.3017 41.7946 42.8723 41.4959 42.9283C40.9631 43.0991 40.4167 43.224 39.8626 43.3017Z" fill="white" stroke="#C09300" stroke-width="0.121333" stroke-linecap="round" stroke-linejoin="round"/>
<path d="M32.9466 43.0123C32.4986 42.9283 32.2933 43.451 32.4333 43.7496C32.4986 43.6003 32.8066 43.6003 32.8719 43.451C32.9559 43.227 32.8066 43.227 32.9559 43.0123H32.9466ZM34.7386 44.3843C34.7386 44.0857 35.0279 44.123 35.0279 43.8243C35.0279 43.6843 34.9533 43.451 34.8039 43.451C34.7262 43.4554 34.6528 43.4883 34.5977 43.5434C34.5426 43.5985 34.5097 43.6719 34.5053 43.7496C34.4399 44.039 34.7386 44.0857 34.7386 44.3843ZM36.8573 43.535C37.2959 43.535 37.2493 44.123 37.0439 44.4217C37.0439 44.207 36.6706 44.123 36.6706 43.9737C36.6706 43.7497 37.0066 43.7497 36.8573 43.535ZM41.7106 43.0123C42.1679 42.9283 42.3826 43.451 42.2333 43.7496C42.1679 43.6003 41.8599 43.6003 41.7946 43.451C41.7106 43.227 41.8599 43.227 41.7106 43.0123ZM39.9466 44.375C39.9466 44.0763 39.6479 44.1137 39.6479 43.815C39.6479 43.675 39.7226 43.4417 39.8719 43.4417C39.9497 43.4461 40.0231 43.479 40.0782 43.5341C40.1332 43.5891 40.1661 43.6626 40.1706 43.7403C40.2359 44.0297 39.9373 44.0763 39.9373 44.375H39.9466ZM37.7999 43.535C37.3613 43.535 37.4079 44.123 37.6133 44.4217C37.6133 44.207 37.9866 44.123 37.9866 43.9737C37.9866 43.7497 37.6506 43.7497 37.7999 43.535Z" fill="white" stroke="#C09300" stroke-width="0.121333" stroke-linecap="round" stroke-linejoin="round"/>
<path d="M33.1053 43.1617C33.2546 43.1617 33.4786 43.227 33.5439 43.311L33.1053 43.1617ZM33.8426 43.3857C33.9173 43.3857 34.2159 43.451 34.3559 43.535L33.8426 43.3857ZM36.5119 43.6843C36.3719 43.6843 36.0733 43.6843 35.9986 43.7497L36.5119 43.675V43.6843ZM35.6999 43.6843C35.6159 43.6003 35.3266 43.6003 35.1773 43.6843H35.6999ZM41.5613 43.1617C41.4029 43.1637 41.2493 43.216 41.1226 43.311L41.5613 43.1617ZM40.8333 43.3857C40.7399 43.3857 40.4599 43.451 40.3106 43.535L40.8333 43.3857ZM38.1546 43.6843C38.2946 43.6843 38.5933 43.6843 38.6773 43.7497L38.1546 43.675V43.6843ZM38.9666 43.6843C39.0506 43.6003 39.3399 43.6003 39.4893 43.6843H38.9666Z" fill="white" stroke="#C09300" stroke-width="0.084" stroke-linecap="round" stroke-linejoin="round"/>
<path d="M32.9746 44.3377C32.9279 44.3283 32.8999 44.2817 32.9186 44.2443C32.9279 44.179 32.9746 44.151 33.0119 44.1697C33.0492 44.1697 33.0959 44.2257 33.0959 44.2443L33.0586 44.3097L33.0399 44.319C33.0399 44.3377 33.0026 44.3377 32.9746 44.3377ZM38.1079 44.7017C38.0892 44.7017 38.0519 44.655 38.0519 44.6363C38.0519 44.599 38.1079 44.543 38.1452 44.543L38.2199 44.5803C38.2479 44.6083 38.2479 44.6643 38.2106 44.6923C38.1919 44.711 38.1359 44.711 38.1079 44.6923V44.7017ZM38.1359 44.935C38.0986 44.9163 38.0892 44.8977 38.0799 44.8603C38.0799 44.8137 38.0799 44.8043 38.1266 44.7763L38.1639 44.7577L38.2012 44.7763C38.2386 44.795 38.2666 44.8137 38.2666 44.851C38.2666 44.879 38.2386 44.907 38.2012 44.9257C38.1732 44.9443 38.1639 44.9443 38.1359 44.9257V44.935Z" fill="#C09300"/>
<path d="M33.3946 43.9083C33.3573 43.9083 33.3106 43.9457 33.2826 43.9643C33.2266 43.9737 33.152 44.011 33.096 43.9643C33.04 43.955 32.9653 43.9643 32.956 44.039C32.9653 44.1043 33.0493 44.1323 33.1053 44.095C33.1426 44.0483 33.2453 44.011 33.264 44.095C33.2173 44.1697 33.2266 44.2537 33.1893 44.319C33.1893 44.3657 33.1613 44.403 33.1426 44.4403C33.096 44.4403 33.0493 44.4403 33.012 44.4683C32.983 44.4683 32.9544 44.4751 32.9285 44.488C32.9026 44.501 32.88 44.5198 32.8626 44.543C32.8253 44.599 32.788 44.655 32.7786 44.7297C32.788 44.7857 32.872 44.8043 32.928 44.8137L33.1146 44.8697L33.4133 44.9537C33.5626 45.0003 33.712 45.019 33.8613 45.0563L33.908 45.0657C33.9733 45.0843 34.0013 45.019 34.0013 44.9723L34.0946 44.6363C34.1133 44.5897 34.1413 44.4963 34.0573 44.515C34.0106 44.543 33.964 44.5897 33.908 44.5897C33.824 44.5897 33.8706 44.683 33.908 44.711C33.908 44.767 33.8893 44.8323 33.8613 44.879C33.8053 44.907 33.7493 44.879 33.6933 44.8603C33.6466 44.8603 33.5346 44.8323 33.5813 44.767L33.628 44.599C33.656 44.543 33.656 44.4777 33.6746 44.4123C33.6373 44.347 33.5813 44.4403 33.5346 44.4497C33.4973 44.4683 33.3853 44.4777 33.4413 44.543C33.4973 44.5803 33.46 44.6457 33.4413 44.7017C33.4413 44.767 33.3666 44.795 33.3106 44.767C33.2546 44.767 33.1706 44.7203 33.2173 44.6643L33.264 44.4963L33.3293 44.3097C33.3293 44.2443 33.3573 44.1977 33.3853 44.1417C33.3853 44.0763 33.432 44.0203 33.432 43.955C33.432 43.927 33.4133 43.9177 33.3946 43.9177V43.9083ZM33.0493 44.5897C33.0535 44.5872 33.0584 44.5859 33.0633 44.5859C33.0682 44.5859 33.073 44.5872 33.0773 44.5897C33.096 44.6083 33.096 44.627 33.0773 44.6457L33.0493 44.6643C33.0026 44.6643 32.9933 44.655 32.9933 44.6363C32.9933 44.627 32.9933 44.6177 33.0213 44.6083C33.0327 44.6001 33.0453 44.5938 33.0586 44.5897H33.0493ZM32.956 45.0563C32.9093 45.019 32.9186 44.991 32.984 44.935C33.0213 44.9163 33.0306 44.9163 33.068 44.9443C33.124 44.991 33.124 45.019 33.068 45.0657C33.0493 45.0843 33.04 45.0843 33.0213 45.0843C32.9933 45.0843 32.984 45.0843 32.956 45.0657V45.0563ZM33.236 45.1497C33.2151 45.1432 33.1976 45.1288 33.1872 45.1097C33.1767 45.0905 33.1741 45.068 33.18 45.047C33.1986 45.0097 33.208 45.0003 33.264 45.0003C33.3293 45.0003 33.3386 45.0097 33.348 45.0657C33.348 45.103 33.348 45.1123 33.32 45.131C33.3096 45.1392 33.2975 45.1452 33.2846 45.1484C33.2718 45.1516 33.2583 45.152 33.2453 45.1497H33.236ZM41.5613 45.1497C41.5426 45.1403 41.5333 45.131 41.5333 45.103C41.5333 45.0657 41.552 45.0377 41.608 45.019C41.664 44.991 41.7013 44.991 41.72 45.0377C41.748 45.0937 41.748 45.1123 41.7106 45.1497C41.692 45.1777 41.6826 45.1777 41.636 45.1777C41.5893 45.1777 41.58 45.1777 41.5613 45.159V45.1497ZM33.628 45.2617C33.5906 45.2617 33.572 45.2243 33.572 45.187C33.572 45.159 33.572 45.1497 33.5906 45.131L33.6466 45.1123L33.7026 45.1217C33.7493 45.159 33.7586 45.1963 33.7306 45.2337C33.7026 45.271 33.6746 45.271 33.6186 45.2617H33.628ZM35.6626 45.355L35.644 45.327C35.644 45.271 35.644 45.2243 35.6626 45.1683C35.672 45.1217 35.6626 45.075 35.6813 45.0283L35.7186 44.767C35.7186 44.7203 35.7186 44.6737 35.7373 44.6363C35.7466 44.5617 35.7373 44.4963 35.756 44.431C35.756 44.403 35.784 44.3377 35.812 44.375C35.8493 44.431 35.896 44.4683 35.9426 44.515C35.98 44.543 35.9426 44.5803 35.9146 44.5897C35.8773 44.599 35.868 44.6457 35.868 44.683L35.8493 44.795C35.8493 44.8603 35.8493 44.9163 35.8306 44.9817L35.8213 45.1497L35.8026 45.2617C35.8026 45.299 35.8026 45.3457 35.7653 45.3643C35.7373 45.383 35.6906 45.383 35.672 45.355H35.6626ZM38.4346 44.4403L38.3133 44.5523C38.2573 44.599 38.36 44.6177 38.3693 44.655C38.388 44.711 38.388 44.767 38.388 44.823C38.4066 44.879 38.416 44.9257 38.4066 44.9817C38.4066 45.047 38.332 45.0283 38.2946 45.0657C38.248 45.0843 38.2293 45.131 38.2013 45.159C38.1791 45.2058 38.1664 45.2566 38.164 45.3083C38.164 45.355 38.136 45.4017 38.164 45.439L38.1733 45.4577H38.22L38.36 45.4483C38.472 45.4297 38.5933 45.4297 38.7053 45.4203L38.9106 45.4017C38.9666 45.411 38.9946 45.355 38.9946 45.3083C38.9573 45.243 38.9853 45.1777 38.9573 45.1217C38.9386 45.047 38.948 44.9817 38.9386 44.9163C38.9386 44.8603 38.8733 44.8417 38.8453 44.879C38.808 44.9163 38.752 44.9257 38.7333 44.963C38.7053 45.019 38.7893 45.019 38.808 45.0563L38.8173 45.1963C38.8266 45.2523 38.7706 45.2523 38.724 45.2617C38.6773 45.2803 38.612 45.2897 38.584 45.2337C38.5653 45.187 38.5653 45.1403 38.5653 45.0937C38.5653 45.0003 38.5373 44.9257 38.5373 44.8417C38.5373 44.7483 38.5093 44.6457 38.5093 44.543C38.5093 44.4963 38.5 44.431 38.4346 44.4403ZM38.3786 45.2057H38.4066V45.2803L38.3786 45.2897C38.3664 45.2935 38.3539 45.2967 38.3413 45.299C38.3351 45.2992 38.3288 45.2992 38.3226 45.299C38.304 45.2803 38.304 45.2523 38.332 45.2243L38.3786 45.2057ZM35.5786 44.347C35.5506 44.347 35.504 44.4123 35.4666 44.403C35.3826 44.4123 35.392 44.4963 35.4573 44.5243V44.599C35.4666 44.6737 35.42 44.739 35.4293 44.8137C35.4293 44.8883 35.4013 44.9723 35.4013 45.0563C35.3733 45.1403 35.3733 45.2243 35.364 45.3083C35.3546 45.383 35.2986 45.355 35.252 45.3363V45.243C35.2613 45.159 35.2053 45.1403 35.14 45.131C35.0746 45.131 35.0466 45.0843 35.0653 45.0283C35.0933 44.991 35.1586 45.0003 35.2053 45.0003C35.2986 45.019 35.2893 44.8977 35.2426 44.851C35.2053 44.795 35.1306 44.7577 35.112 44.7017C35.112 44.627 35.0653 44.543 35 44.5057C34.8973 44.4963 34.8133 44.5803 34.7853 44.6737C34.7386 44.6737 34.692 44.6923 34.6546 44.711C34.5893 44.7297 34.496 44.8417 34.5893 44.8883C34.636 44.8977 34.7946 44.935 34.72 45.0003C34.6826 45.075 34.608 45.075 34.5426 45.0563C34.4773 45.0563 34.4026 45.019 34.4026 44.9443C34.3933 44.8697 34.3933 44.795 34.3653 44.7297C34.3466 44.655 34.2626 44.6737 34.2533 44.7483C34.188 44.795 34.1973 44.879 34.244 44.935C34.272 45.0003 34.244 45.0843 34.216 45.1403C34.1973 45.2337 34.104 45.2337 34.0386 45.2523C34.0106 45.271 33.8893 45.2523 33.936 45.3177C34.0059 45.3499 34.0842 45.3597 34.16 45.3457C34.2346 45.3457 34.3 45.2803 34.3466 45.215C34.3933 45.1683 34.4773 45.1963 34.552 45.1963C34.6173 45.1963 34.692 45.243 34.7666 45.2057C34.7853 45.159 34.8786 45.0657 34.9066 45.159C34.9066 45.243 34.972 45.2803 35.0466 45.271C35.1306 45.271 35.0933 45.327 35.0933 45.383C35.0933 45.467 35.1586 45.5137 35.2333 45.551H35.308C35.3733 45.523 35.448 45.495 35.476 45.4203C35.504 45.355 35.504 45.2803 35.5226 45.215C35.5413 45.1123 35.56 45.0003 35.56 44.8977C35.588 44.8043 35.5786 44.7017 35.5973 44.599L35.6253 44.3843C35.6253 44.3377 35.6066 44.3377 35.5786 44.347ZM34.9533 44.7297C34.9626 44.7297 34.972 44.7483 34.972 44.7763C34.972 44.8137 34.9906 44.8417 35.0186 44.851V44.879L34.944 44.8977C34.8973 44.8977 34.86 44.879 34.832 44.851L34.8133 44.8323L34.8413 44.8137L34.888 44.767C34.916 44.739 34.9346 44.7297 34.9533 44.7297ZM41.1133 43.9923C41.0596 43.9962 41.0064 44.0056 40.9546 44.0203C40.8613 44.0203 40.8146 44.1137 40.908 44.1697C40.964 44.3097 41.048 44.1323 41.1413 44.151C41.272 44.1697 41.2813 44.319 41.3093 44.431C41.3093 44.5337 41.3466 44.6363 41.3746 44.739C41.468 44.8417 41.3093 44.907 41.244 44.8323C41.188 44.767 41.0573 44.6923 40.992 44.7763C40.908 44.8137 40.8986 44.9257 40.8333 44.963C40.7213 44.991 40.712 44.851 40.6466 44.795C40.5906 44.711 40.488 44.7017 40.404 44.683C40.3666 44.599 40.3853 44.459 40.3106 44.403C40.236 44.431 40.1053 44.5617 40.2173 44.627C40.3106 44.7203 40.1706 44.7577 40.124 44.8137C40.0493 44.8977 40.0306 45.0003 40.0306 45.0937C39.9093 45.159 39.8906 45.019 39.872 44.935C39.872 44.8323 39.7786 44.8603 39.7133 44.8977C39.62 44.935 39.5826 45.019 39.5266 45.0843V45.271C39.5453 45.355 39.6386 45.3177 39.6946 45.3083C39.788 45.271 39.8253 45.3737 39.7506 45.4297C39.6946 45.4857 39.5453 45.4577 39.564 45.5603H39.7133C39.8066 45.5323 39.9186 45.4577 39.928 45.3457C39.9466 45.2523 40.0866 45.2617 40.1613 45.243C40.2546 45.215 40.376 45.2057 40.404 45.3363C40.4693 45.4017 40.6093 45.4763 40.684 45.383C40.7195 45.3605 40.748 45.3284 40.7662 45.2904C40.7843 45.2525 40.7914 45.2101 40.7866 45.1683C40.7773 45.0937 40.908 45.0937 40.9453 45.1403C40.992 45.215 41.1413 45.1963 41.216 45.1403C41.2906 45.0937 41.3093 44.991 41.4213 44.991L41.9253 44.851C42.056 44.823 41.9066 44.739 41.8693 44.683C41.776 44.6363 41.6826 44.8417 41.5706 44.739C41.4773 44.6737 41.4866 44.5523 41.4586 44.4497C41.4306 44.319 41.44 44.1697 41.3466 44.0763C41.2906 44.011 41.1973 43.9923 41.1133 43.9923ZM40.4786 44.879C40.488 44.879 40.5066 44.879 40.5253 44.8977C40.5626 44.9163 40.5906 44.9537 40.5906 44.991C40.5906 45.0097 40.5906 45.0097 40.5626 45.019L40.516 45.0377C40.4973 45.0377 40.4506 45.0097 40.4506 44.991V44.9537C40.432 44.9163 40.432 44.9163 40.4506 44.8977L40.4786 44.879ZM41.0853 44.9163C41.1226 44.9163 41.1413 44.9163 41.16 44.9443C41.1693 44.9817 41.16 45.0003 41.1226 45.019L41.076 45.0377L41.0386 45.0097C41.02 45.0003 41.0106 44.991 41.0106 44.9723C41.0106 44.9443 41.048 44.9163 41.0853 44.907V44.9163ZM40.2453 44.9163C40.264 44.9163 40.2733 44.9163 40.2826 44.935C40.3013 44.9537 40.3106 44.963 40.3106 44.991V45.047C40.3106 45.075 40.3106 45.0657 40.2546 45.0657C40.1986 45.0657 40.1893 45.0657 40.1893 45.0097C40.1893 44.9723 40.1893 44.963 40.2173 44.9443C40.2266 44.9257 40.2453 44.9257 40.2546 44.9257L40.2453 44.9163ZM39.7413 45.0563C39.7501 45.059 39.7581 45.0638 39.7646 45.0703C39.7711 45.0768 39.776 45.0848 39.7786 45.0937C39.7786 45.1217 39.7786 45.1403 39.76 45.1497C39.732 45.159 39.6853 45.1683 39.6666 45.1497C39.6664 45.1466 39.6664 45.1434 39.6666 45.1403C39.648 45.131 39.648 45.1217 39.6666 45.1123V45.103L39.6853 45.075C39.691 45.0659 39.6998 45.0591 39.71 45.0557C39.7202 45.0523 39.7312 45.0525 39.7413 45.0563ZM40.6 45.1683L40.6466 45.1777V45.2337H40.5346L40.5253 45.215C40.5253 45.1963 40.5253 45.187 40.544 45.1777L40.6 45.1683ZM39.004 45.6163C38.9946 45.6163 38.976 45.607 38.9946 45.5977C39.004 45.5697 39.0413 45.5603 39.0693 45.5417C39.1201 45.5223 39.1651 45.4901 39.2 45.4483C39.2 45.411 39.2373 45.3923 39.2373 45.355L39.228 45.2243C39.2154 45.1851 39.1888 45.1519 39.1533 45.131C39.1253 45.1217 39.088 45.1123 39.0786 45.075C39.0786 45.047 39.1066 45.019 39.116 44.991L39.172 44.879C39.2 44.851 39.2373 44.879 39.2466 44.8977L39.2933 44.991C39.3213 45.019 39.34 45.047 39.3493 45.0843C39.368 45.1217 39.3866 45.1497 39.3866 45.1777L39.4053 45.299C39.4053 45.3457 39.4053 45.4017 39.3866 45.4483L39.3306 45.523C39.3026 45.551 39.2746 45.579 39.2373 45.5883C39.2093 45.5977 39.1906 45.6257 39.1533 45.6257H39.0133L39.004 45.6163ZM38.36 45.6537C38.3413 45.635 38.332 45.6257 38.332 45.5977C38.332 45.5697 38.332 45.5697 38.36 45.5417C38.3973 45.5043 38.416 45.5043 38.4906 45.5417C38.556 45.579 38.584 45.579 38.584 45.551C38.5933 45.5323 38.6306 45.5043 38.6773 45.5043C38.6945 45.505 38.711 45.5116 38.724 45.523C38.7426 45.5417 38.752 45.551 38.752 45.5883C38.752 45.635 38.752 45.635 38.724 45.663C38.696 45.6817 38.696 45.6817 38.6586 45.6817C38.642 45.6808 38.6261 45.6749 38.6128 45.665C38.5995 45.655 38.5895 45.6413 38.584 45.6257C38.584 45.607 38.584 45.5977 38.5653 45.6163L38.5466 45.6257C38.528 45.6257 38.4906 45.6537 38.472 45.6723L38.4253 45.6817C38.388 45.6817 38.388 45.6817 38.36 45.6537ZM36.512 44.823C36.4466 44.823 36.3813 44.879 36.372 44.9443C36.3906 45.0097 36.4466 45.0843 36.4093 45.1497C36.4373 45.243 36.3346 45.2803 36.2693 45.2337C36.232 45.1403 36.2133 45.047 36.148 44.9537C36.0733 44.935 36.0453 45.0563 35.9893 45.103C36.0173 45.1683 36.092 45.2337 36.1013 45.3177C36.12 45.411 36.064 45.5043 35.9986 45.5417C35.9333 45.607 35.84 45.5883 35.7653 45.5977C35.672 45.6537 35.8306 45.6723 35.8773 45.6723C35.9706 45.6817 36.0733 45.6723 36.1573 45.5977C36.2226 45.5697 36.2133 45.439 36.2973 45.4297L36.7453 45.4577C36.82 45.4763 36.9413 45.4483 36.9973 45.5043C36.9973 45.5977 37.0906 45.6723 37.1746 45.7097C37.2213 45.7283 37.268 45.663 37.3146 45.6537C37.408 45.6257 37.38 45.5137 37.436 45.467H37.9026C37.9213 45.467 37.9306 45.4203 37.9586 45.4017L37.94 45.2243C37.912 45.1497 37.94 45.0563 37.8933 44.991C37.8093 44.9723 37.744 45.0377 37.6693 45.047C37.576 45.0843 37.5106 45.1683 37.5013 45.2617C37.4546 45.3457 37.3706 45.243 37.408 45.1683L37.3986 45.075C37.352 45.0283 37.268 45.047 37.2026 45.0377L36.9226 45.019C36.8293 45.019 36.7453 45.0283 36.6706 45.0097C36.5773 45.0097 36.5773 44.9163 36.5773 44.8417C36.5586 44.8274 36.5353 44.8208 36.512 44.823ZM36.6986 45.1683L36.792 45.1777H36.9133C37.0066 45.1963 37.1 45.1963 37.1933 45.1963C37.212 45.1963 37.2306 45.215 37.2493 45.2337V45.4203C37.2493 45.4483 37.2493 45.4857 37.2306 45.495C37.2257 45.5024 37.2194 45.5088 37.212 45.5137C37.1983 45.5112 37.1853 45.5058 37.174 45.4977C37.1627 45.4896 37.1534 45.4791 37.1466 45.467V45.3363C37.1281 45.3207 37.1054 45.3109 37.0813 45.3083L36.8386 45.299L36.652 45.2897C36.624 45.2803 36.5866 45.2897 36.568 45.2523C36.5493 45.2337 36.5773 45.1963 36.6053 45.187C36.6346 45.1739 36.6665 45.1675 36.6986 45.1683ZM37.7533 45.1963C37.7626 45.1963 37.772 45.1963 37.772 45.2243L37.7906 45.271C37.7906 45.2803 37.7906 45.2897 37.772 45.2897C37.7253 45.3083 37.6786 45.3083 37.66 45.2897C37.66 45.2803 37.66 45.243 37.6786 45.2337L37.7533 45.1963Z" fill="#C09300"/>
<path d="M37.3333 39.9137C40.3759 37.5803 40.1146 34.1457 40.1146 34.1457L39.8812 34.1643C39.2373 34.1643 37.7159 33.791 37.3613 33.3337C36.9879 33.7537 35.4199 34.1737 34.7853 34.1737L34.5519 34.1457C34.5519 34.1457 34.2813 37.571 37.3333 39.9137Z" fill="white" stroke="#C09300" stroke-width="0.102667"/>
<path d="M39.8719 34.3883H39.7973C39.2186 34.3883 37.8746 34.099 37.3519 33.651C36.8106 34.0617 35.4386 34.3977 34.8693 34.3977C34.8441 34.3967 34.8192 34.3936 34.7946 34.3883C34.7997 34.9782 34.8813 35.5648 35.0373 36.1337C35.4116 37.5042 36.2165 38.7181 37.3333 39.5963C38.4507 38.7147 39.2555 37.4977 39.6293 36.1243C39.7845 35.5585 39.866 34.975 39.8719 34.3883Z" fill="white" stroke="#C09300" stroke-width="0.084"/>
<path d="M36.3439 34.1083C35.8426 34.2716 35.3213 34.3658 34.7946 34.3883L34.8039 34.771C34.8358 35.2288 34.914 35.6823 35.0373 36.1243C35.2882 37.0423 35.7338 37.8954 36.3439 38.6257V34.1083ZM38.2666 34.1083V38.7003C38.9061 37.9532 39.3715 37.0734 39.6293 36.1243C39.7524 35.6822 39.8306 35.2288 39.8626 34.771L39.8719 34.3977H39.7973C39.4426 34.3977 38.8266 34.2857 38.2666 34.099V34.1083Z" fill="#C09300"/>
<path d="M38.4813 32.9883C38.5466 32.9977 38.3973 32.6617 38.3973 32.6617C38.5653 32.8297 39.1813 32.8763 39.1813 32.8763C38.8079 32.7083 38.4346 31.467 38.4813 30.4683C38.5186 29.479 38.3413 29.087 38.2013 28.9377C38.0146 28.751 37.4079 28.583 37.0159 28.5643C36.7826 28.555 36.8293 28.7323 36.8293 28.7323C36.4093 28.6297 35.9893 28.583 35.8026 28.7137C35.6346 28.8257 35.5973 29.4137 35.7279 29.311C36.0359 29.059 36.3066 29.2923 36.4933 29.563C36.6613 29.7963 36.6519 30.4683 36.4093 31.2617C36.1944 31.8614 35.8787 32.4201 35.4759 32.9137C35.8493 32.9137 36.3719 32.587 36.3719 32.587L36.2506 33.1003C36.6426 32.9137 36.9506 32.6243 36.9506 32.6243L37.3239 33.0163C37.4453 32.8483 37.6973 32.6243 37.6973 32.6243C37.6973 32.6243 38.0053 32.951 38.4813 32.9977V32.9883Z" fill="white" stroke="#C09300" stroke-width="0.112"/>
<path d="M36.9693 30.6177C36.9693 30.6177 36.7639 32.1483 36.3719 32.5777M37.3053 30.571C37.3053 30.571 37.2119 32.1297 36.9506 32.6243M37.5946 30.6363C37.5946 30.6363 37.5946 32.335 37.6879 32.6243M37.9679 30.7203C37.9679 30.7203 38.0426 32.1483 38.3972 32.6616" stroke="#C09300" stroke-width="0.121333"/>
<path d="M36.5866 29.871C36.5782 29.7627 36.5464 29.6576 36.4932 29.563C36.3066 29.283 36.0359 29.059 35.7279 29.311C35.7279 29.311 35.8306 28.9843 36.0639 28.975C36.2319 28.9656 36.6332 29.1056 36.9879 29.703C36.9879 29.703 36.7266 29.647 36.6612 29.703C36.5492 29.7963 36.5959 29.871 36.5959 29.871H36.5866Z" fill="#C09300" stroke="#C09300" stroke-width="0.028"/>
<path d="M35.6906 28.9097C35.7186 28.8163 35.7559 28.7417 35.8119 28.7137C35.9986 28.583 36.4092 28.6203 36.8292 28.7323C36.8292 28.7323 36.7919 28.555 37.0159 28.5643C37.4079 28.583 38.0052 28.751 38.1919 28.9377C38.2517 29.0033 38.2991 29.0792 38.3319 29.1617C38.2386 29.031 37.9772 29.0403 37.9119 29.0497C37.8186 29.059 37.7532 29.0497 37.6226 29.087C37.5572 29.1057 37.4639 29.1243 37.4079 29.1617C37.3706 29.199 37.3332 29.311 37.2772 29.311C37.1839 29.311 37.1839 29.2923 37.1559 29.2643C37.1279 29.2177 37.1092 29.1617 37.0719 29.171C36.9786 29.1803 36.8106 29.1057 36.6052 28.9377C36.3906 28.7697 36.3066 28.7323 36.0452 28.751C35.7652 28.7697 35.6906 28.9283 35.6906 28.9283V28.9097Z" fill="#C09300" stroke="#C09300" stroke-width="0.028"/>
<path d="M37.2213 29.1523C37.2831 29.1523 37.3333 29.1022 37.3333 29.0403C37.3333 28.9785 37.2831 28.9283 37.2213 28.9283C37.1594 28.9283 37.1093 28.9785 37.1093 29.0403C37.1093 29.1022 37.1594 29.1523 37.2213 29.1523Z" fill="white"/>
</g>
<defs>
<clipPath id="clip0_1_20786">
<rect width="74.6667" height="56" fill="white" transform="translate(0 9.375)"/>
</clipPath>
</defs>
</svg>
