<svg width="75" height="75" viewBox="0 0 75 75" fill="none" xmlns="http://www.w3.org/2000/svg">
<rect width="74.6667" height="74.75" fill="white"/>
<g clip-path="url(#clip0_1_20797)">
<path fill-rule="evenodd" clip-rule="evenodd" d="M0 9.375H74.6667V65.375H0V9.375Z" fill="#BE0027"/>
<path fill-rule="evenodd" clip-rule="evenodd" d="M3.05176e-05 65.375L74.6667 65.34V37.375L3.05176e-05 65.375Z" fill="#B4D7F4"/>
<path fill-rule="evenodd" clip-rule="evenodd" d="M0 9.375L74.6667 9.41V37.375L0 9.375Z" fill="#239E46"/>
<path fill-rule="evenodd" clip-rule="evenodd" d="M21.7234 51.4216C20.475 51.7716 19.7634 52.74 19.775 53.65L25.935 53.6266C25.9817 52.6466 25.1767 51.7366 23.9517 51.375C29.9717 51.2583 35.1984 48.995 36.155 47.5483C35.2217 47.14 34.125 47.7933 33.355 47.6416C35.1867 46.79 40.705 43.22 39.8067 39.3933C39.1067 41.5166 37.0067 43.2783 36.0967 43.7566C38.1617 40.63 40.9734 37.3633 38.535 34.8433C38.6517 36.3016 37.6017 37.9116 37.135 38.04C38.3367 34.7266 39.4684 30.5733 36.89 27.8433C37.2284 28.835 37.0884 31.6233 36.6217 31.7516C36.4817 29.5 36.0967 24.775 33.7284 24.8333C34.475 25.51 34.8017 27.33 34.825 29.1733C34.3437 27.8975 33.485 26.7987 32.3634 26.0233C31.1927 23.9985 29.5267 22.3043 27.5217 21.1C27.7317 22.5816 27.9067 23.7483 29.9717 25.2883C28.8984 25.2183 27.825 23.1766 26.67 23.1183C25.7484 23.0716 25.0367 23.9466 23.5317 23.445C23.695 23.935 24.395 24.1566 24.5467 24.5183C24.22 24.7516 23.4617 24.4833 22.8317 24.1683C23.7067 25.335 25.0484 26.035 26.1917 25.8016C27.5567 25.545 29.015 25.685 30.415 26.4783C29.5513 26.659 28.6621 26.6827 27.79 26.5483C28.595 27.365 29.1317 27.9133 30.5434 27.9016C31.7917 27.9016 32.4567 27.225 32.7717 27.645C33.565 28.5783 34.09 29.5116 34.755 30.6083C33.2967 30.76 33.74 28.9633 32.1184 28.0416C31.1967 29.9083 33.1684 32.1483 34.4867 33.0816C34.4493 34.3568 34.7342 35.6208 35.315 36.7566C35.7234 37.515 36.2484 38.2966 36.05 40.0116C35.245 39.4283 34.475 37.4683 34.7667 35.9166C33.7634 36.185 33.3667 37.9466 33.8334 38.8333C34.1834 39.4983 34.4167 40.7933 34.02 41.365C33.6234 41.9016 33.5884 41.8316 33.5884 42.9983C33.6 43.675 33.215 44.4916 32.5967 45.0633C32.7777 44.4664 32.8216 43.8362 32.725 43.22C32.235 44.06 30.9867 44.9233 30.6017 45.8333C30.2167 46.7316 30.1234 48.3066 28.2684 48.6683C25.865 49.135 25.0367 49.555 23.5084 50.185C23.3334 49.0183 23.8467 46.5683 24.8267 46.72C25.7717 46.8833 28.6767 45.7166 27.6267 43.2783C27.4284 44.0483 26.7517 44.795 26.005 44.83C26.81 43.8033 28.2217 42.73 27.5334 41.0033C27.1166 41.873 26.4559 42.6026 25.6317 43.1033C26.6117 41.2366 25.7484 40.6533 24.5817 42.2166C24.1384 42.8116 23.87 44.0133 23.59 45.5416C23.1234 44.305 23.1584 42.6716 22.61 41.3416C22.05 39.9066 23.3684 39.5333 23.9867 39.65C25.5034 40.0583 28.0584 40.0583 27.8717 37.5383C27.2067 38.39 26.0634 38.6466 24.815 38.355C26.215 37.3283 27.3117 35.4033 25.7484 34.3883C25.6785 34.9837 25.4617 35.5523 25.1175 36.0431C24.7734 36.5339 24.3126 36.9314 23.7767 37.2C23.5262 36.2532 23.5141 35.2592 23.7417 34.3066C23.135 34.96 22.6917 36.29 22.33 37.83C22.295 36.3133 22.5867 35.2283 22.7967 34.4116C23.1234 33.2333 23.9167 34.0033 25.13 34.085C26.32 34.155 27.93 33.5016 27.6267 31.9033C27.23 32.545 26.4017 32.79 25.5617 32.72C26.5767 32.1016 28.3384 31.0166 27.37 29.3366C26.9617 29.9666 26.8334 30.5033 25.655 30.7016C25.9584 30.0016 26.005 28.9866 26.9384 28.6016C25.305 28.2633 24.3717 29.3366 23.8817 31.0166C23.695 29.85 23.4617 29.43 23.415 28.5666C24.3017 27.5983 24.395 25.6733 22.4817 25.2533C22.3563 25.9309 22.4045 26.6293 22.6217 27.2833C21.7234 26.7466 20.4634 26.455 19.6117 27.2016C20.195 27.82 21.07 28.3683 22.435 27.6916C22.1084 28.7416 21.2684 28.5666 20.125 28.1583C20.825 29.4766 21.7117 29.71 22.6917 29.5583C23.205 30.9116 23.2284 31.9383 21.7234 33.8983C21.7934 32.685 21.7117 31.775 20.7434 30.7833C19.9034 29.9666 19.2267 30.8183 20.5334 32.6266C19.74 32.0433 18.8534 30.8766 18.585 29.6983C18.3284 31.145 18.5617 32.86 19.3667 33.8283C18.9817 34.2366 18.55 33.7816 17.9084 32.7783C18.1417 35.975 19.5067 36.5933 21.3384 35.8816C21.385 37.6316 21.385 39.2533 21.49 41.365C20.4284 39.825 19.075 38.6816 18.3284 38.4016C18.095 39.2533 18.97 40.385 19.4717 41.0033C18.7134 40.84 17.08 39.6033 17.08 39.6033C16.9167 41.015 18.7484 42.3333 19.9384 42.9166C18.5384 42.8583 17.92 42.3333 17.0217 41.47C17.045 45.4133 21.2917 44.725 22.0967 44.1183L22.4467 50.2433C21.245 50.0333 21.3384 49.66 20.3117 49.5783C17.4534 49.4616 15.19 46.1483 14.4434 43.71C14.2217 44.1066 14.3967 44.5266 14.1984 45.0283C13.7317 43.8266 13.1484 42.275 12.3434 41.5516C12.5534 42.2516 12.5767 42.9633 12.5067 44.27C12.2267 43.43 11.9817 43.1616 11.9584 42.17C11.97 41.4116 12.6934 40.8516 12.6584 39.7783C12.6234 38.9966 11.9117 37.2933 11.8067 35.9866C11.4567 37.34 11.2467 38.7633 10.71 39.6033C10.9784 38.1566 10.8967 37.1533 11.34 36.185C11.8534 35.17 12.285 34.2483 11.9467 33.2216C11.62 33.6183 11.725 33.98 10.8967 34.9483C10.7217 33.8983 11.97 32.2066 13.1834 31.53C14.035 31.0866 15.1084 29.4766 14.4084 28.38C13.6034 28.9633 13.2417 29.7333 12.11 31.0633C12.9267 27.9133 15.0267 27.0733 17.535 27.0616C18.0834 27.0616 19.2034 26.8633 19.5184 26.1283C18.8184 26.3966 17.9784 26.4316 17.2317 26.2916C17.78 25.4866 18.9117 25.5916 19.985 25.5916C20.8134 25.5916 22.12 25.475 22.645 24.285C21.4922 24.7346 20.2275 24.8121 19.0284 24.5066C20.6267 23.69 23.1117 23.5966 24.395 22.5116C22.9367 21.4266 19.2967 22.7683 16.9984 24.3433C17.64 23.76 18.655 22.71 19.215 21.87C17.955 21.2633 14.7817 24.7866 13.685 26.8866C12.635 27.47 12.2267 28.4033 11.8184 29.045C12.3667 27.1666 12.425 25.8016 12.8917 24.2616C9.33337 25.475 10.8034 32.0783 10.0334 33.665C10.1267 31.915 10.045 29.6866 9.33337 28.5316C8.2367 29.3716 8.14337 34.3066 9.17003 38.4133C8.7967 37.3166 8.0967 36.29 7.87503 34.9483C6.2417 37.9116 8.8317 41.4233 10.99 44.1883C9.3567 43.3366 7.75837 41.5166 6.6967 39.9883C6.98837 45.3083 12.53 46.405 13.3934 47.7116C12.2267 47.1633 9.99837 46.09 9.0417 47.2216C10.3707 47.4681 11.6462 47.9459 12.81 48.6333C14.2567 50.43 16.975 51.2233 21.7234 51.4216Z" fill="#F3E295"/>
</g>
<defs>
<clipPath id="clip0_1_20797">
<rect width="74.6667" height="56" fill="white" transform="translate(0 9.375)"/>
</clipPath>
</defs>
</svg>
