<svg width="75" height="75" viewBox="0 0 75 75" fill="none" xmlns="http://www.w3.org/2000/svg">
<rect width="74.6667" height="74.75" fill="white"/>
<g clip-path="url(#clip0_1_20802)">
<path fill-rule="evenodd" clip-rule="evenodd" d="M0 9.36444H74.6669V65.3691H0V9.36444Z" fill="white"/>
<path d="M74.6669 57.2204L10.7023 9.36444H0V17.3451L64.2135 65.3691H74.6669V57.2204Z" fill="#0099CC"/>
<path d="M36.9104 50.4782C29.4437 50.4782 29.6801 43.4411 29.6801 43.4411V32.6176H44.1531V43.4411C44.1531 43.4411 44.4019 50.4782 36.9104 50.4782Z" fill="#005BBF"/>
<path d="M36.9104 50.4782C29.4437 50.4782 29.6801 43.4411 29.6801 43.4411V32.6176H44.1531V43.4411C44.1531 43.4411 44.4019 50.4782 36.9104 50.4782V50.4782Z" stroke="black" stroke-width="0.124498"/>
<path d="M36.8482 25.8171C36.8482 25.8171 35.3051 25.0698 33.8491 26.1658C33.8491 26.1658 31.2233 25.7922 31.0242 28.3081C31.0242 28.4078 30.9993 28.5946 31.049 28.6569C31.0988 28.7067 31.1486 28.8063 31.1486 28.881C31.1486 28.9558 31.1859 28.9931 31.2108 29.0181C31.2108 29.0554 31.2606 29.1052 31.273 29.2298C31.273 29.3668 31.2482 29.4291 31.385 29.5661C31.5095 29.6906 31.5095 30.0767 31.5095 30.1888C31.5095 30.3009 31.5842 30.5999 31.6339 30.6621C31.6962 30.7244 31.7957 30.8863 31.7957 31.0233C31.7957 31.1479 31.8455 31.5215 31.8206 31.6087C31.7957 31.7084 31.9699 31.8205 32.1193 31.8703C32.2686 31.9201 34.1104 32.5179 36.7984 32.4681C39.4864 32.4308 40.4571 32.2813 41.5771 31.8827C41.636 31.8632 41.6866 31.8243 41.7205 31.7722C41.7545 31.7202 41.7697 31.6581 41.7637 31.5963C41.7389 31.5215 41.7637 31.2724 41.8011 31.2102C41.8509 31.1479 42.1744 30.6372 42.0997 30.55C42.0375 30.4504 42.0375 30.2511 42.0997 30.1764C42.162 30.0892 42.3611 29.7155 42.3984 29.5536C42.4357 29.4042 42.4482 29.2173 42.5229 29.1675C42.5851 29.1177 42.61 28.9309 42.6224 28.8935C42.6545 28.8155 42.7059 28.7469 42.7717 28.6942C42.7717 28.6942 42.8962 28.059 42.8215 27.7476C42.7344 27.4363 42.2615 26.0911 40.3575 26.3776C40.3575 26.3776 38.9388 25.294 36.8482 25.8171Z" fill="#D81126"/>
<path d="M36.8482 25.8171C36.8482 25.8171 35.3051 25.0698 33.8491 26.1658C33.8491 26.1658 31.2233 25.7922 31.0242 28.3081C31.0242 28.4078 30.9993 28.5946 31.049 28.6569C31.0988 28.7067 31.1486 28.8063 31.1486 28.881C31.1486 28.9558 31.1859 28.9931 31.2108 29.0181C31.2108 29.0554 31.2606 29.1052 31.273 29.2298C31.273 29.3668 31.2482 29.4291 31.385 29.5661C31.5095 29.6906 31.5095 30.0767 31.5095 30.1888C31.5095 30.3009 31.5842 30.5999 31.6339 30.6621C31.6962 30.7244 31.7957 30.8863 31.7957 31.0233C31.7957 31.1479 31.8455 31.5215 31.8206 31.6087C31.7957 31.7084 31.9699 31.8205 32.1193 31.8703C32.2686 31.9201 34.1104 32.5179 36.7984 32.4681C39.4864 32.4308 40.4571 32.2813 41.5771 31.8827C41.636 31.8632 41.6866 31.8243 41.7205 31.7722C41.7545 31.7202 41.7697 31.6581 41.7637 31.5963C41.7389 31.5215 41.7637 31.2724 41.8011 31.2102C41.8509 31.1479 42.1744 30.6372 42.0997 30.55C42.0375 30.4504 42.0375 30.2511 42.0997 30.1764C42.162 30.0892 42.3611 29.7155 42.3984 29.5536C42.4357 29.4042 42.4482 29.2173 42.5229 29.1675C42.5851 29.1177 42.61 28.9309 42.6224 28.8935C42.6545 28.8155 42.7059 28.7469 42.7717 28.6942C42.7717 28.6942 42.8962 28.059 42.8215 27.7476C42.7344 27.4363 42.2615 26.0911 40.3575 26.3776C40.3575 26.3776 38.9388 25.294 36.8482 25.8171V25.8171Z" stroke="black" stroke-width="0.186747"/>
<path d="M42.0126 30.5003C36.1637 28.6444 31.6339 30.4131 31.6339 30.4131C31.6339 30.4131 31.6837 30.6123 31.7334 30.6746C31.7832 30.7369 31.8579 30.8864 31.8579 30.9985V31.3472C31.8579 31.4344 31.8081 31.808 32.1317 31.7956C32.1317 31.7956 36.2135 30.2013 41.5148 31.8828C41.5148 31.8828 41.6641 31.7582 41.6641 31.5714C41.6614 31.3973 41.7043 31.2255 41.7886 31.0732C41.8508 30.9735 42.0126 30.6497 42.0126 30.5003Z" fill="#BCAC0B"/>
<path d="M36.5868 40.2775H34.0357C34.0357 40.2775 33.7868 42.5568 35.7531 43.2542V43.4535H36.1637V43.7275C36.1637 43.7275 35.4419 44.3752 36.0766 45.1225V45.3467H36.1762V45.7203H36.3006V46.3057C36.3006 46.3057 36.2011 48.4231 34.1104 49.4444V49.569H39.6731V49.4444C37.5948 48.4356 37.4953 46.3057 37.4953 46.3057V45.7203H37.6197V45.3467H37.7193V45.1225C38.3415 44.3752 37.6197 43.7275 37.6197 43.7275V43.4535H38.0428V43.2542C39.9966 42.5568 39.7477 40.2775 39.7477 40.2775H36.5868Z" fill="#C8B100" fill-opacity="0.9"/>
<path d="M36.5868 40.2775H34.0357C34.0357 40.2775 33.7868 42.5568 35.7531 43.2542V43.4535H36.1637V43.7275C36.1637 43.7275 35.4419 44.3752 36.0766 45.1225V45.3467H36.1762V45.7203H36.3006V46.3057C36.3006 46.3057 36.2011 48.4231 34.1104 49.4444V49.569H39.6731V49.4444C37.5948 48.4356 37.4953 46.3057 37.4953 46.3057V45.7203H37.6197V45.3467H37.7193V45.1225C38.3415 44.3752 37.6197 43.7275 37.6197 43.7275V43.4535H38.0428V43.2542C39.9966 42.5568 39.7477 40.2775 39.7477 40.2775H36.5868Z" stroke="black" stroke-width="0.124498"/>
<path d="M35.6659 43.2169H38.1175M35.753 43.4037H38.0428M36.1761 43.7151H37.6073M36.0766 45.1475H37.7068M36.1637 45.3218H37.6073M36.1637 45.6706H37.5948M35.2926 48.5602H38.4659M34.3966 49.295H39.3744M34.2099 49.4071H39.561" stroke="black" stroke-width="0.0373494"/>
<path d="M36.9104 40.1529C37.3411 40.1529 37.7542 39.9817 38.0587 39.6769C38.3633 39.3721 38.5344 38.9586 38.5344 38.5275C38.5344 38.0965 38.3633 37.683 38.0587 37.3782C37.7542 37.0734 37.3411 36.9022 36.9104 36.9022C36.4813 36.9022 36.0698 37.0727 35.7664 37.3764C35.4631 37.6801 35.2926 38.0919 35.2926 38.5213C35.2926 38.9508 35.4631 39.3626 35.7664 39.6662C36.0698 39.9699 36.4813 40.1405 36.9104 40.1405" fill="#CCCCCC"/>
<path d="M36.9104 40.1529C37.3411 40.1529 37.7542 39.9817 38.0587 39.6769C38.3633 39.3721 38.5344 38.9586 38.5344 38.5275C38.5344 38.0965 38.3633 37.683 38.0587 37.3782C37.7542 37.0734 37.3411 36.9022 36.9104 36.9022C36.4813 36.9022 36.0698 37.0727 35.7664 37.3764C35.4631 37.6801 35.2926 38.0919 35.2926 38.5213C35.2926 38.9508 35.4631 39.3626 35.7664 39.6662C36.0698 39.9699 36.4813 40.1405 36.9104 40.1405V40.1529Z" stroke="black" stroke-width="0.124498"/>
<path d="M33.1397 35.3826H32.1317V34.3613H31.2357V35.3826H30.2152V36.2794H31.2357V37.2758H32.1317V36.2794H33.1273V35.3826" fill="#CCCCCC"/>
<path d="M33.1397 35.3826H32.1317V34.3613H31.2357V35.3826H30.2152V36.2794H31.2357V37.2758H32.1317V36.2794H33.1273V35.3826" stroke="black" stroke-width="0.124498"/>
<path d="M43.6553 35.3826H42.6473V34.3613H41.7513V35.3826H40.7308V36.2794H41.7513V37.2758H42.6473V36.2794H43.6553V35.3826Z" fill="#CCCCCC"/>
<path d="M43.6553 35.3826H42.6473V34.3613H41.7513V35.3826H40.7308V36.2794H41.7513V37.2758H42.6473V36.2794H43.6553V35.3826Z" stroke="black" stroke-width="0.124498"/>
<path d="M38.329 34.0997H37.3086V33.1033H36.4126V34.0997H35.417V34.9965H36.4126V36.0178H37.3086V34.9965H38.329V34.0997Z" fill="#CCCCCC"/>
<path d="M38.329 34.0997H37.3086V33.1033H36.4126V34.0997H35.417V34.9965H36.4126V36.0178H37.3086V34.9965H38.329V34.0997Z" stroke="black" stroke-width="0.124498"/>
<path d="M33.1397 39.7669H32.1317V38.7455H31.2357V39.7669H30.2152V40.6636H31.2357V41.66H32.1317V40.6636H33.1273V39.7669" fill="#CCCCCC"/>
<path d="M33.1397 39.7669H32.1317V38.7455H31.2357V39.7669H30.2152V40.6636H31.2357V41.66H32.1317V40.6636H33.1273V39.7669" stroke="black" stroke-width="0.124498"/>
<path d="M43.6553 39.7669H42.6473V38.7455H41.7513V39.7669H40.7308V40.6636H41.7513V41.66H42.6473V40.6636H43.6553V39.7669Z" fill="#CCCCCC"/>
<path d="M43.6553 39.7669H42.6473V38.7455H41.7513V39.7669H40.7308V40.6636H41.7513V41.66H42.6473V40.6636H43.6553V39.7669Z" stroke="black" stroke-width="0.124498"/>
<path d="M33.1397 44.1884H32.1317V43.1795H31.2357V44.1884H30.2152V45.0851H31.2357V46.094H32.1317V45.0976H33.1273V44.1884" fill="#CCCCCC"/>
<path d="M33.1397 44.1884H32.1317V43.1795H31.2357V44.1884H30.2152V45.0851H31.2357V46.094H32.1317V45.0976H33.1273V44.1884" stroke="black" stroke-width="0.124498"/>
<path d="M43.6553 44.1884H42.6473V43.1795H41.7513V44.1884H40.7308V45.0851H41.7513V46.094H42.6473V45.0976H43.6553V44.1884Z" fill="#CCCCCC"/>
<path d="M43.6553 44.1884H42.6473V43.1795H41.7513V44.1884H40.7308V45.0851H41.7513V46.094H42.6473V45.0976H43.6553V44.1884Z" stroke="black" stroke-width="0.124498"/>
<path d="M36.8979 23.6499C37.157 23.6499 37.4055 23.5469 37.5887 23.3635C37.7719 23.1802 37.8748 22.9315 37.8748 22.6722C37.8748 22.4129 37.7719 22.1642 37.5887 21.9808C37.4055 21.7975 37.157 21.6945 36.8979 21.6945C36.6388 21.6945 36.3904 21.7975 36.2072 21.9808C36.024 22.1642 35.921 22.4129 35.921 22.6722C35.921 22.9315 36.024 23.1802 36.2072 23.3635C36.3904 23.5469 36.6388 23.6499 36.8979 23.6499Z" fill="#005BBF"/>
<path d="M36.8979 23.6499C37.157 23.6499 37.4055 23.5469 37.5887 23.3635C37.7719 23.1802 37.8748 22.9315 37.8748 22.6722C37.8748 22.4129 37.7719 22.1642 37.5887 21.9808C37.4055 21.7975 37.157 21.6945 36.8979 21.6945C36.6388 21.6945 36.3904 21.7975 36.2072 21.9808C36.024 22.1642 35.921 22.4129 35.921 22.6722C35.921 22.9315 36.024 23.1802 36.2072 23.3635C36.3904 23.5469 36.6388 23.6499 36.8979 23.6499Z" stroke="black" stroke-width="0.124498"/>
<path d="M37.8064 22.5041H37.0099V21.2087H37.321V20.9596H37.0099V20.6483H36.761V20.9472H36.4499V21.2087H36.7486V22.5041H36.0019V22.6784H37.8064V22.5041Z" fill="#FFCC00"/>
<path d="M37.8064 22.5041H37.0099V21.2087H37.321V20.9596H37.0099V20.6483H36.761V20.9472H36.4499V21.2087H36.7486V22.5041H36.0019V22.6784H37.8064V22.5041Z" fill="#BCAC0B" stroke="black" stroke-width="0.062249"/>
<path d="M33.0028 24.8083C33.0028 24.8083 33.7246 24.7335 34.1353 24.8955C34.1353 24.8955 33.6624 25.4435 33.7619 26.1534C33.8117 26.5271 33.8864 26.7139 33.9984 26.9007C34.0979 27.0626 34.2099 27.4363 34.1477 27.7228H34.2846C34.2846 27.7228 34.4215 27.1249 34.1975 26.8011C34.0618 26.619 33.9785 26.4031 33.9566 26.177C33.9346 25.9509 33.9749 25.7231 34.073 25.5182C34.3095 25.0449 34.6455 24.8581 34.6455 24.8581C35.0188 25.0076 35.8402 24.8581 36.0642 24.6962C36.3006 24.5343 36.4126 24.2976 35.9895 24.2852C35.5539 24.2602 34.8322 24.2727 34.3344 24.6464C34.3344 24.6464 34.073 24.3474 32.7664 24.4844C31.4597 24.6339 30.5264 25.1944 30.2277 26.3652C30.0784 26.963 30.6384 28.221 31.1486 28.5199C31.1486 28.5199 31.1361 28.3206 31.1859 28.1712C31.1859 28.1712 30.3148 27.1872 30.5637 26.278C30.8375 25.3812 31.8828 24.7834 33.0028 24.8083Z" fill="#FFCC00"/>
<path d="M33.0028 24.8083C33.0028 24.8083 33.7246 24.7335 34.1353 24.8955C34.1353 24.8955 33.6624 25.4435 33.7619 26.1534C33.8117 26.5271 33.8864 26.7139 33.9984 26.9007C34.0979 27.0626 34.2099 27.4363 34.1477 27.7228H34.2846C34.2846 27.7228 34.4215 27.1249 34.1975 26.8011C34.0618 26.619 33.9785 26.4031 33.9566 26.177C33.9346 25.9509 33.9749 25.7231 34.073 25.5182C34.3095 25.0449 34.6455 24.8581 34.6455 24.8581C35.0188 25.0076 35.8402 24.8581 36.0642 24.6962C36.3006 24.5343 36.4126 24.2976 35.9895 24.2852C35.5539 24.2602 34.8322 24.2727 34.3344 24.6464C34.3344 24.6464 34.073 24.3474 32.7664 24.4844C31.4597 24.6339 30.5264 25.1944 30.2277 26.3652C30.0784 26.963 30.6384 28.221 31.1486 28.5199C31.1486 28.5199 31.1361 28.3206 31.1859 28.1712C31.1859 28.1712 30.3148 27.1872 30.5637 26.278C30.8375 25.3812 31.8828 24.7834 33.0028 24.8083Z" fill="#BCAC0B" stroke="black" stroke-width="0.0871485"/>
<path d="M35.4544 24.6339C35.6784 24.609 35.865 24.5716 35.8526 24.5467C35.8526 24.5093 35.6659 24.5093 35.4419 24.5218C35.2179 24.5342 35.0437 24.5841 35.0437 24.609C35.0437 24.6463 35.2304 24.6463 35.4544 24.6339Z" fill="white"/>
<path d="M34.633 24.8456C34.633 24.8456 34.3841 25.0947 34.633 24.8456C34.8819 24.5965 35.4295 24.4471 35.7406 24.5094C36.0393 24.5841 35.6784 24.6215 35.5788 24.6339C35.4793 24.6339 35.2801 24.6713 34.9815 24.6339" stroke="black" stroke-width="0.0871485"/>
<path d="M40.7806 24.8954C40.7806 24.8954 40.0713 24.8082 39.6482 24.9701C39.8648 25.2514 39.9943 25.59 40.0209 25.9442C40.0474 26.2983 39.9698 26.6525 39.7975 26.963C39.6855 27.1498 39.5735 27.511 39.6357 27.7975H39.5113C39.5113 27.7975 39.362 27.2121 39.5984 26.8758C39.7297 26.6938 39.8095 26.4796 39.8292 26.256C39.8489 26.0324 39.8079 25.8076 39.7104 25.6054C39.5913 25.3325 39.397 25.0993 39.1504 24.9328C38.7646 25.0947 37.9433 24.9328 37.7193 24.7709C37.4953 24.609 37.3708 24.3848 37.8064 24.3599C38.2295 24.3349 38.9637 24.3474 39.4615 24.7335C39.4615 24.7335 39.7104 24.4221 41.0295 24.5716C42.3238 24.7086 43.2695 25.2691 43.5558 26.4399C43.7051 27.0377 43.1575 28.2957 42.6473 28.5946C42.6473 28.5946 42.6473 28.3953 42.61 28.2458C42.61 28.2458 43.4811 27.2743 43.2198 26.3651C42.9584 25.4559 41.9131 24.8705 40.7806 24.8954Z" fill="#FFCC00"/>
<path d="M40.7806 24.8954C40.7806 24.8954 40.0713 24.8082 39.6482 24.9701C39.8648 25.2514 39.9943 25.59 40.0209 25.9442C40.0474 26.2983 39.9698 26.6525 39.7975 26.963C39.6855 27.1498 39.5735 27.511 39.6357 27.7975H39.5113C39.5113 27.7975 39.362 27.2121 39.5984 26.8758C39.7297 26.6938 39.8095 26.4796 39.8292 26.256C39.8489 26.0324 39.8079 25.8076 39.7104 25.6054C39.5913 25.3325 39.397 25.0993 39.1504 24.9328C38.7646 25.0947 37.9433 24.9328 37.7193 24.7709C37.4953 24.609 37.3708 24.3848 37.8064 24.3599C38.2295 24.3349 38.9637 24.3474 39.4615 24.7335C39.4615 24.7335 39.7104 24.4221 41.0295 24.5716C42.3238 24.7086 43.2695 25.2691 43.5558 26.4399C43.7051 27.0377 43.1575 28.2957 42.6473 28.5946C42.6473 28.5946 42.6473 28.3953 42.61 28.2458C42.61 28.2458 43.4811 27.2743 43.2198 26.3651C42.9584 25.4559 41.9131 24.8705 40.7806 24.8954Z" fill="#BCAC0B" stroke="black" stroke-width="0.0871485"/>
<path d="M38.329 24.7086C38.105 24.6961 37.9308 24.6588 37.9308 24.6214C37.9308 24.5965 38.1175 24.584 38.3415 24.5965C38.5655 24.6214 38.7521 24.6588 38.7521 24.6837C38.7521 24.7211 38.5655 24.7335 38.329 24.7086Z" fill="white"/>
<path d="M39.1504 24.9204C39.1504 24.9204 39.4117 25.1695 39.1504 24.9204C38.9015 24.6837 38.3539 24.5218 38.0553 24.5965C37.7441 24.6588 38.105 24.6962 38.2046 24.7086C38.3166 24.7086 38.5157 24.7584 38.8144 24.7086" stroke="black" stroke-width="0.0871485"/>
<path d="M36.2259 24.0859V26.8633C36.201 27.1374 36.5619 27.5235 36.8232 27.6356C36.8232 27.6356 37.4455 27.4363 37.4828 26.8633V23.9364H37.2712V26.4772C37.2712 26.7263 37.097 27.1996 36.8606 27.2744C36.8606 27.2744 36.4126 27.1996 36.3877 26.4772V24.0111L36.2259 24.0859Z" fill="#FFCC00"/>
<path d="M36.2259 24.0859V26.8633C36.201 27.1374 36.5619 27.5235 36.8232 27.6356C36.8232 27.6356 37.4455 27.4363 37.4828 26.8633V23.9364H37.2712V26.4772C37.2712 26.7263 37.097 27.1996 36.8606 27.2744C36.8606 27.2744 36.4126 27.1996 36.3877 26.4772V24.0111L36.2259 24.0859Z" fill="#BCAC0B" stroke="black" stroke-width="0.0871485"/>
<path d="M30.0908 27.8847C30.1395 27.8942 30.1897 27.8928 30.2377 27.8806C30.2858 27.8684 30.3305 27.8457 30.3688 27.8142C30.4071 27.7826 30.4379 27.743 30.4591 27.6981C30.4802 27.6532 30.4912 27.6042 30.4912 27.5546C30.4912 27.505 30.4802 27.456 30.4591 27.4111C30.4379 27.3662 30.4071 27.3266 30.3688 27.295C30.3305 27.2635 30.2858 27.2408 30.2377 27.2286C30.1897 27.2164 30.1395 27.215 30.0908 27.2246C30.0143 27.2395 29.9454 27.2806 29.8958 27.3408C29.8463 27.401 29.8192 27.4766 29.8192 27.5546C29.8192 27.6326 29.8463 27.7082 29.8958 27.7684C29.9454 27.8286 30.0143 27.8697 30.0908 27.8847Z" fill="white"/>
<path d="M30.0908 27.8847C30.1395 27.8942 30.1897 27.8928 30.2377 27.8806C30.2858 27.8684 30.3305 27.8457 30.3688 27.8142C30.4071 27.7826 30.4379 27.743 30.4591 27.6981C30.4802 27.6532 30.4912 27.6042 30.4912 27.5546C30.4912 27.505 30.4802 27.456 30.4591 27.4111C30.4379 27.3662 30.4071 27.3266 30.3688 27.295C30.3305 27.2635 30.2858 27.2408 30.2377 27.2286C30.1897 27.2164 30.1395 27.215 30.0908 27.2246C30.0143 27.2395 29.9454 27.2806 29.8958 27.3408C29.8463 27.401 29.8192 27.4766 29.8192 27.5546C29.8192 27.6326 29.8463 27.7082 29.8958 27.7684C29.9454 27.8286 30.0143 27.8697 30.0908 27.8847Z" stroke="black" stroke-width="0.124498"/>
<path d="M29.8792 27.1249C29.9279 27.1344 29.978 27.133 30.0261 27.1208C30.0742 27.1086 30.1189 27.086 30.1572 27.0544C30.1955 27.0229 30.2263 26.9832 30.2475 26.9384C30.2686 26.8935 30.2796 26.8445 30.2796 26.7948C30.2796 26.7452 30.2686 26.6962 30.2475 26.6513C30.2263 26.6065 30.1955 26.5668 30.1572 26.5353C30.1189 26.5037 30.0742 26.481 30.0261 26.4689C29.978 26.4567 29.9279 26.4553 29.8792 26.4648C29.8027 26.4797 29.7338 26.5208 29.6842 26.581C29.6347 26.6413 29.6076 26.7168 29.6076 26.7948C29.6076 26.8729 29.6347 26.9484 29.6842 27.0087C29.7338 27.0689 29.8027 27.11 29.8792 27.1249Z" fill="white"/>
<path d="M29.8792 27.1249C29.9279 27.1344 29.978 27.133 30.0261 27.1208C30.0742 27.1086 30.1189 27.086 30.1572 27.0544C30.1955 27.0229 30.2263 26.9832 30.2475 26.9384C30.2686 26.8935 30.2796 26.8445 30.2796 26.7948C30.2796 26.7452 30.2686 26.6962 30.2475 26.6513C30.2263 26.6065 30.1955 26.5668 30.1572 26.5353C30.1189 26.5037 30.0742 26.481 30.0261 26.4689C29.978 26.4567 29.9279 26.4553 29.8792 26.4648C29.8027 26.4797 29.7338 26.5208 29.6842 26.581C29.6347 26.6413 29.6076 26.7168 29.6076 26.7948C29.6076 26.8729 29.6347 26.9484 29.6842 27.0087C29.7338 27.0689 29.8027 27.11 29.8792 27.1249Z" stroke="black" stroke-width="0.124498"/>
<path d="M29.9912 26.2032C30.0399 26.2127 30.09 26.2113 30.1381 26.1991C30.1862 26.187 30.2309 26.1643 30.2692 26.1327C30.3075 26.1012 30.3383 26.0615 30.3595 26.0167C30.3806 25.9718 30.3916 25.9228 30.3916 25.8732C30.3916 25.8235 30.3806 25.7745 30.3595 25.7296C30.3383 25.6848 30.3075 25.6451 30.2692 25.6136C30.2309 25.582 30.1862 25.5594 30.1381 25.5472C30.09 25.535 30.0399 25.5336 29.9912 25.5431C29.9147 25.558 29.8458 25.5991 29.7962 25.6593C29.7467 25.7196 29.7196 25.7951 29.7196 25.8732C29.7196 25.9512 29.7467 26.0267 29.7962 26.087C29.8458 26.1472 29.9147 26.1883 29.9912 26.2032Z" fill="white"/>
<path d="M29.9912 26.2032C30.0399 26.2127 30.09 26.2113 30.1381 26.1991C30.1862 26.187 30.2309 26.1643 30.2692 26.1327C30.3075 26.1012 30.3383 26.0615 30.3595 26.0167C30.3806 25.9718 30.3916 25.9228 30.3916 25.8732C30.3916 25.8235 30.3806 25.7745 30.3595 25.7296C30.3383 25.6848 30.3075 25.6451 30.2692 25.6136C30.2309 25.582 30.1862 25.5594 30.1381 25.5472C30.09 25.535 30.0399 25.5336 29.9912 25.5431C29.9147 25.558 29.8458 25.5991 29.7962 25.6593C29.7467 25.7196 29.7196 25.7951 29.7196 25.8732C29.7196 25.9512 29.7467 26.0267 29.7962 26.087C29.8458 26.1472 29.9147 26.1883 29.9912 26.2032Z" stroke="black" stroke-width="0.124498"/>
<path d="M30.5015 25.431C30.5502 25.4405 30.6003 25.4391 30.6484 25.4269C30.6965 25.4147 30.7412 25.3921 30.7795 25.3605C30.8178 25.329 30.8486 25.2893 30.8697 25.2444C30.8909 25.1996 30.9019 25.1506 30.9019 25.1009C30.9019 25.0513 30.8909 25.0023 30.8697 24.9574C30.8486 24.9126 30.8178 24.8729 30.7795 24.8414C30.7412 24.8098 30.6965 24.7871 30.6484 24.7749C30.6003 24.7628 30.5502 24.7614 30.5015 24.7709C30.425 24.7858 30.3561 24.8269 30.3065 24.8871C30.257 24.9473 30.2299 25.0229 30.2299 25.1009C30.2299 25.1789 30.257 25.2545 30.3065 25.3147C30.3561 25.375 30.425 25.4161 30.5015 25.431Z" fill="white"/>
<path d="M30.5015 25.431C30.5502 25.4405 30.6003 25.4391 30.6484 25.4269C30.6965 25.4147 30.7412 25.3921 30.7795 25.3605C30.8178 25.329 30.8486 25.2893 30.8697 25.2444C30.8909 25.1996 30.9019 25.1506 30.9019 25.1009C30.9019 25.0513 30.8909 25.0023 30.8697 24.9574C30.8486 24.9126 30.8178 24.8729 30.7795 24.8414C30.7412 24.8098 30.6965 24.7871 30.6484 24.7749C30.6003 24.7628 30.5502 24.7614 30.5015 24.7709C30.425 24.7858 30.3561 24.8269 30.3065 24.8871C30.257 24.9473 30.2299 25.0229 30.2299 25.1009C30.2299 25.1789 30.257 25.2545 30.3065 25.3147C30.3561 25.375 30.425 25.4161 30.5015 25.431Z" stroke="black" stroke-width="0.124498"/>
<path d="M31.1113 24.8705C31.1599 24.88 31.2101 24.8786 31.2582 24.8664C31.3062 24.8543 31.351 24.8316 31.3893 24.8C31.4275 24.7685 31.4583 24.7288 31.4795 24.684C31.5007 24.6391 31.5116 24.5901 31.5116 24.5404C31.5116 24.4908 31.5007 24.4418 31.4795 24.3969C31.4583 24.3521 31.4275 24.3124 31.3893 24.2809C31.351 24.2493 31.3062 24.2267 31.2582 24.2145C31.2101 24.2023 31.1599 24.2009 31.1113 24.2104C31.0348 24.2253 30.9658 24.2664 30.9163 24.3266C30.8667 24.3869 30.8396 24.4624 30.8396 24.5404C30.8396 24.6185 30.8667 24.694 30.9163 24.7543C30.9658 24.8145 31.0348 24.8556 31.1113 24.8705Z" fill="white"/>
<path d="M31.1113 24.8705C31.1599 24.88 31.2101 24.8786 31.2582 24.8664C31.3062 24.8543 31.351 24.8316 31.3893 24.8C31.4275 24.7685 31.4583 24.7288 31.4795 24.684C31.5007 24.6391 31.5116 24.5901 31.5116 24.5404C31.5116 24.4908 31.5007 24.4418 31.4795 24.3969C31.4583 24.3521 31.4275 24.3124 31.3893 24.2809C31.351 24.2493 31.3062 24.2267 31.2582 24.2145C31.2101 24.2023 31.1599 24.2009 31.1113 24.2104C31.0348 24.2253 30.9658 24.2664 30.9163 24.3266C30.8667 24.3869 30.8396 24.4624 30.8396 24.5404C30.8396 24.6185 30.8667 24.694 30.9163 24.7543C30.9658 24.8145 31.0348 24.8556 31.1113 24.8705V24.8705Z" stroke="black" stroke-width="0.124498"/>
<path d="M31.9077 24.5592C31.9564 24.5687 32.0065 24.5673 32.0546 24.5551C32.1027 24.5429 32.1474 24.5202 32.1857 24.4887C32.224 24.4571 32.2548 24.4175 32.2759 24.3726C32.2971 24.3277 32.3081 24.2787 32.3081 24.2291C32.3081 24.1795 32.2971 24.1305 32.2759 24.0856C32.2548 24.0407 32.224 24.0011 32.1857 23.9695C32.1474 23.938 32.1027 23.9153 32.0546 23.9031C32.0065 23.8909 31.9564 23.8895 31.9077 23.899C31.8312 23.914 31.7623 23.9551 31.7127 24.0153C31.6632 24.0755 31.6361 24.1511 31.6361 24.2291C31.6361 24.3071 31.6632 24.3827 31.7127 24.4429C31.7623 24.5031 31.8312 24.5442 31.9077 24.5592Z" fill="white"/>
<path d="M31.9077 24.5592C31.9564 24.5687 32.0065 24.5673 32.0546 24.5551C32.1027 24.5429 32.1474 24.5202 32.1857 24.4887C32.224 24.4571 32.2548 24.4175 32.2759 24.3726C32.2971 24.3277 32.3081 24.2787 32.3081 24.2291C32.3081 24.1795 32.2971 24.1305 32.2759 24.0856C32.2548 24.0407 32.224 24.0011 32.1857 23.9695C32.1474 23.938 32.1027 23.9153 32.0546 23.9031C32.0065 23.8909 31.9564 23.8895 31.9077 23.899C31.8312 23.914 31.7623 23.9551 31.7127 24.0153C31.6632 24.0755 31.6361 24.1511 31.6361 24.2291C31.6361 24.3071 31.6632 24.3827 31.7127 24.4429C31.7623 24.5031 31.8312 24.5442 31.9077 24.5592V24.5592Z" stroke="black" stroke-width="0.124498"/>
<path d="M32.729 24.4221C32.8181 24.4221 32.9036 24.3867 32.9666 24.3237C33.0296 24.2606 33.065 24.175 33.065 24.0859C33.065 23.9967 33.0296 23.9111 32.9666 23.8481C32.9036 23.785 32.8181 23.7496 32.729 23.7496C32.6525 23.7645 32.5836 23.8056 32.534 23.8658C32.4845 23.926 32.4574 24.0016 32.4574 24.0796C32.4574 24.1576 32.4845 24.2332 32.534 24.2934C32.5836 24.3537 32.6525 24.3947 32.729 24.4097" fill="white"/>
<path d="M32.729 24.4221C32.8181 24.4221 32.9036 24.3867 32.9666 24.3237C33.0296 24.2606 33.065 24.175 33.065 24.0859C33.065 23.9967 33.0296 23.9111 32.9666 23.8481C32.9036 23.785 32.8181 23.7496 32.729 23.7496C32.6525 23.7645 32.5836 23.8056 32.534 23.8658C32.4845 23.926 32.4574 24.0016 32.4574 24.0796C32.4574 24.1576 32.4845 24.2332 32.534 24.2934C32.5836 24.3537 32.6525 24.3947 32.729 24.4097V24.4221Z" stroke="black" stroke-width="0.124498"/>
<path d="M33.513 24.3723C33.6022 24.3723 33.6876 24.3369 33.7506 24.2738C33.8136 24.2108 33.849 24.1252 33.849 24.0361C33.849 23.9469 33.8136 23.8613 33.7506 23.7983C33.6876 23.7352 33.6022 23.6998 33.513 23.6998C33.4239 23.6998 33.3385 23.7352 33.2755 23.7983C33.2124 23.8613 33.177 23.9469 33.177 24.0361C33.177 24.1252 33.2124 24.2108 33.2755 24.2738C33.3385 24.3369 33.4239 24.3723 33.513 24.3723Z" fill="white"/>
<path d="M33.513 24.3723C33.6022 24.3723 33.6876 24.3369 33.7506 24.2738C33.8136 24.2108 33.849 24.1252 33.849 24.0361C33.849 23.9469 33.8136 23.8613 33.7506 23.7983C33.6876 23.7352 33.6022 23.6998 33.513 23.6998C33.4239 23.6998 33.3385 23.7352 33.2755 23.7983C33.2124 23.8613 33.177 23.9469 33.177 24.0361C33.177 24.1252 33.2124 24.2108 33.2755 24.2738C33.3385 24.3369 33.4239 24.3723 33.513 24.3723Z" stroke="black" stroke-width="0.124498"/>
<path d="M34.2224 24.4221C34.2711 24.4317 34.3212 24.4303 34.3693 24.4181C34.4174 24.4059 34.4621 24.3832 34.5004 24.3517C34.5387 24.3201 34.5695 24.2805 34.5906 24.2356C34.6118 24.1907 34.6228 24.1417 34.6228 24.0921C34.6228 24.0425 34.6118 23.9935 34.5906 23.9486C34.5695 23.9037 34.5387 23.8641 34.5004 23.8325C34.4621 23.801 34.4174 23.7783 34.3693 23.7661C34.3212 23.7539 34.2711 23.7525 34.2224 23.762C34.1333 23.762 34.0478 23.7975 33.9848 23.8605C33.9218 23.9236 33.8864 24.0091 33.8864 24.0983C33.8864 24.1875 33.9218 24.273 33.9848 24.3361C34.0478 24.3992 34.1333 24.4346 34.2224 24.4346" fill="white"/>
<path d="M34.2224 24.4221C34.2711 24.4317 34.3212 24.4303 34.3693 24.4181C34.4174 24.4059 34.4621 24.3832 34.5004 24.3517C34.5387 24.3201 34.5695 24.2805 34.5906 24.2356C34.6118 24.1907 34.6228 24.1417 34.6228 24.0921C34.6228 24.0425 34.6118 23.9935 34.5906 23.9486C34.5695 23.9037 34.5387 23.8641 34.5004 23.8325C34.4621 23.801 34.4174 23.7783 34.3693 23.7661C34.3212 23.7539 34.2711 23.7525 34.2224 23.762C34.1333 23.762 34.0478 23.7975 33.9848 23.8605C33.9218 23.9236 33.8864 24.0091 33.8864 24.0983C33.8864 24.1875 33.9218 24.273 33.9848 24.3361C34.0478 24.3992 34.1333 24.4346 34.2224 24.4346V24.4221Z" stroke="black" stroke-width="0.124498"/>
<path d="M36.2135 24.1731C36.2622 24.1826 36.3123 24.1812 36.3604 24.169C36.4084 24.1568 36.4532 24.1341 36.4915 24.1026C36.5298 24.071 36.5606 24.0314 36.5817 23.9865C36.6029 23.9416 36.6139 23.8926 36.6139 23.843C36.6139 23.7934 36.6029 23.7444 36.5817 23.6995C36.5606 23.6546 36.5298 23.615 36.4915 23.5834C36.4532 23.5519 36.4084 23.5292 36.3604 23.517C36.3123 23.5048 36.2622 23.5034 36.2135 23.5129C36.137 23.5279 36.0681 23.569 36.0185 23.6292C35.969 23.6894 35.9419 23.765 35.9419 23.843C35.9419 23.921 35.969 23.9966 36.0185 24.0568C36.0681 24.117 36.137 24.1581 36.2135 24.1731Z" fill="white"/>
<path d="M36.2135 24.1731C36.2622 24.1826 36.3123 24.1812 36.3604 24.169C36.4084 24.1568 36.4532 24.1341 36.4915 24.1026C36.5298 24.071 36.5606 24.0314 36.5817 23.9865C36.6029 23.9416 36.6139 23.8926 36.6139 23.843C36.6139 23.7934 36.6029 23.7444 36.5817 23.6995C36.5606 23.6546 36.5298 23.615 36.4915 23.5834C36.4532 23.5519 36.4084 23.5292 36.3604 23.517C36.3123 23.5048 36.2622 23.5034 36.2135 23.5129C36.137 23.5279 36.0681 23.569 36.0185 23.6292C35.969 23.6894 35.9419 23.765 35.9419 23.843C35.9419 23.921 35.969 23.9966 36.0185 24.0568C36.0681 24.117 36.137 24.1581 36.2135 24.1731Z" stroke="black" stroke-width="0.124498"/>
<path d="M36.8606 24.3474C36.9093 24.3569 36.9594 24.3556 37.0075 24.3434C37.0555 24.3312 37.1003 24.3085 37.1386 24.2769C37.1769 24.2454 37.2077 24.2058 37.2288 24.1609C37.25 24.116 37.261 24.067 37.261 24.0174C37.261 23.9678 37.25 23.9187 37.2288 23.8739C37.2077 23.829 37.1769 23.7894 37.1386 23.7578C37.1003 23.7263 37.0555 23.7036 37.0075 23.6914C36.9594 23.6792 36.9093 23.6778 36.8606 23.6873C36.7841 23.7023 36.7152 23.7434 36.6656 23.8036C36.6161 23.8638 36.589 23.9394 36.589 24.0174C36.589 24.0954 36.6161 24.171 36.6656 24.2312C36.7152 24.2914 36.7841 24.3325 36.8606 24.3474Z" fill="white"/>
<path d="M36.8606 24.3474C36.9093 24.3569 36.9594 24.3556 37.0075 24.3434C37.0555 24.3312 37.1003 24.3085 37.1386 24.2769C37.1769 24.2454 37.2077 24.2058 37.2288 24.1609C37.25 24.116 37.261 24.067 37.261 24.0174C37.261 23.9678 37.25 23.9187 37.2288 23.8739C37.2077 23.829 37.1769 23.7894 37.1386 23.7578C37.1003 23.7263 37.0555 23.7036 37.0075 23.6914C36.9594 23.6792 36.9093 23.6778 36.8606 23.6873C36.7841 23.7023 36.7152 23.7434 36.6656 23.8036C36.6161 23.8638 36.589 23.9394 36.589 24.0174C36.589 24.0954 36.6161 24.171 36.6656 24.2312C36.7152 24.2914 36.7841 24.3325 36.8606 24.3474Z" stroke="black" stroke-width="0.124498"/>
<path d="M36.8606 26.8135C36.9497 26.8135 37.0352 26.7781 37.0982 26.715C37.1612 26.6519 37.1966 26.5664 37.1966 26.4772C37.1966 26.388 37.1612 26.3025 37.0982 26.2394C37.0352 26.1764 36.9497 26.1409 36.8606 26.1409C36.7715 26.1409 36.686 26.1764 36.623 26.2394C36.56 26.3025 36.5246 26.388 36.5246 26.4772C36.5246 26.5664 36.56 26.6519 36.623 26.715C36.686 26.7781 36.7715 26.8135 36.8606 26.8135Z" fill="white"/>
<path d="M36.8606 26.8135C36.9497 26.8135 37.0352 26.7781 37.0982 26.715C37.1612 26.6519 37.1966 26.5664 37.1966 26.4772C37.1966 26.388 37.1612 26.3025 37.0982 26.2394C37.0352 26.1764 36.9497 26.1409 36.8606 26.1409C36.7715 26.1409 36.686 26.1764 36.623 26.2394C36.56 26.3025 36.5246 26.388 36.5246 26.4772C36.5246 26.5664 36.56 26.6519 36.623 26.715C36.686 26.7781 36.7715 26.8135 36.8606 26.8135V26.8135Z" stroke="black" stroke-width="0.124498"/>
<path d="M43.7175 28.0964C43.7662 28.1059 43.8163 28.1045 43.8644 28.0923C43.9124 28.0801 43.9572 28.0575 43.9955 28.0259C44.0337 27.9944 44.0646 27.9547 44.0857 27.9098C44.1069 27.865 44.1179 27.816 44.1179 27.7663C44.1179 27.7167 44.1069 27.6677 44.0857 27.6228C44.0646 27.578 44.0337 27.5383 43.9955 27.5068C43.9572 27.4752 43.9124 27.4525 43.8644 27.4404C43.8163 27.4282 43.7662 27.4268 43.7175 27.4363C43.641 27.4512 43.5721 27.4923 43.5225 27.5525C43.473 27.6127 43.4459 27.6883 43.4459 27.7663C43.4459 27.8444 43.473 27.9199 43.5225 27.9801C43.5721 28.0404 43.641 28.0815 43.7175 28.0964Z" fill="white"/>
<path d="M43.7175 28.0964C43.7662 28.1059 43.8163 28.1045 43.8644 28.0923C43.9124 28.0801 43.9572 28.0575 43.9955 28.0259C44.0337 27.9944 44.0646 27.9547 44.0857 27.9098C44.1069 27.865 44.1179 27.816 44.1179 27.7663C44.1179 27.7167 44.1069 27.6677 44.0857 27.6228C44.0646 27.578 44.0337 27.5383 43.9955 27.5068C43.9572 27.4752 43.9124 27.4525 43.8644 27.4404C43.8163 27.4282 43.7662 27.4268 43.7175 27.4363C43.641 27.4512 43.5721 27.4923 43.5225 27.5525C43.473 27.6127 43.4459 27.6883 43.4459 27.7663C43.4459 27.8444 43.473 27.9199 43.5225 27.9801C43.5721 28.0404 43.641 28.0815 43.7175 28.0964V28.0964Z" stroke="black" stroke-width="0.124498"/>
<path d="M43.8917 27.2868C43.9808 27.2868 44.0663 27.2514 44.1293 27.1883C44.1923 27.1253 44.2277 27.0397 44.2277 26.9505C44.2277 26.8614 44.1923 26.7758 44.1293 26.7128C44.0663 26.6497 43.9808 26.6143 43.8917 26.6143C43.8152 26.6292 43.7463 26.6703 43.6967 26.7305C43.6472 26.7907 43.6201 26.8663 43.6201 26.9443C43.6201 27.0223 43.6472 27.0979 43.6967 27.1581C43.7463 27.2183 43.8152 27.2594 43.8917 27.2744" fill="white"/>
<path d="M43.8917 27.2868C43.9808 27.2868 44.0663 27.2514 44.1293 27.1883C44.1923 27.1253 44.2277 27.0397 44.2277 26.9505C44.2277 26.8614 44.1923 26.7758 44.1293 26.7128C44.0663 26.6497 43.9808 26.6143 43.8917 26.6143C43.8152 26.6292 43.7463 26.6703 43.6967 26.7305C43.6472 26.7907 43.6201 26.8663 43.6201 26.9443C43.6201 27.0223 43.6472 27.0979 43.6967 27.1581C43.7463 27.2183 43.8152 27.2594 43.8917 27.2744V27.2868Z" stroke="black" stroke-width="0.124498"/>
<path d="M43.7548 26.4149C43.8035 26.4244 43.8537 26.4231 43.9017 26.4109C43.9498 26.3987 43.9946 26.376 44.0328 26.3445C44.0711 26.3129 44.1019 26.2733 44.1231 26.2284C44.1442 26.1835 44.1552 26.1345 44.1552 26.0849C44.1552 26.0353 44.1442 25.9863 44.1231 25.9414C44.1019 25.8965 44.0711 25.8569 44.0328 25.8253C43.9946 25.7938 43.9498 25.7711 43.9017 25.7589C43.8537 25.7467 43.8035 25.7453 43.7548 25.7548C43.6783 25.7698 43.6094 25.8109 43.5599 25.8711C43.5103 25.9313 43.4832 26.0069 43.4832 26.0849C43.4832 26.1629 43.5103 26.2385 43.5599 26.2987C43.6094 26.3589 43.6783 26.4 43.7548 26.4149Z" fill="white"/>
<path d="M43.7548 26.4149C43.8035 26.4244 43.8537 26.4231 43.9017 26.4109C43.9498 26.3987 43.9946 26.376 44.0328 26.3445C44.0711 26.3129 44.1019 26.2733 44.1231 26.2284C44.1442 26.1835 44.1552 26.1345 44.1552 26.0849C44.1552 26.0353 44.1442 25.9863 44.1231 25.9414C44.1019 25.8965 44.0711 25.8569 44.0328 25.8253C43.9946 25.7938 43.9498 25.7711 43.9017 25.7589C43.8537 25.7467 43.8035 25.7453 43.7548 25.7548C43.6783 25.7698 43.6094 25.8109 43.5599 25.8711C43.5103 25.9313 43.4832 26.0069 43.4832 26.0849C43.4832 26.1629 43.5103 26.2385 43.5599 26.2987C43.6094 26.3589 43.6783 26.4 43.7548 26.4149V26.4149Z" stroke="black" stroke-width="0.124498"/>
<path d="M43.394 25.6054C43.4831 25.6054 43.5685 25.5699 43.6315 25.5069C43.6946 25.4438 43.73 25.3583 43.73 25.2691C43.73 25.1799 43.6946 25.0944 43.6315 25.0313C43.5685 24.9682 43.4831 24.9328 43.394 24.9328C43.3048 24.9328 43.2194 24.9682 43.1564 25.0313C43.0933 25.0944 43.0579 25.1799 43.0579 25.2691C43.0579 25.3583 43.0933 25.4438 43.1564 25.5069C43.2194 25.5699 43.3048 25.6054 43.394 25.6054Z" fill="white"/>
<path d="M43.394 25.6054C43.4831 25.6054 43.5685 25.5699 43.6315 25.5069C43.6946 25.4438 43.73 25.3583 43.73 25.2691C43.73 25.1799 43.6946 25.0944 43.6315 25.0313C43.5685 24.9682 43.4831 24.9328 43.394 24.9328C43.3048 24.9328 43.2194 24.9682 43.1564 25.0313C43.0933 25.0944 43.0579 25.1799 43.0579 25.2691C43.0579 25.3583 43.0933 25.4438 43.1564 25.5069C43.2194 25.5699 43.3048 25.6054 43.394 25.6054V25.6054Z" stroke="black" stroke-width="0.124498"/>
<path d="M42.7842 25.0449C42.8733 25.0449 42.9588 25.0095 43.0218 24.9464C43.0848 24.8833 43.1202 24.7978 43.1202 24.7086C43.1202 24.6194 43.0848 24.5339 43.0218 24.4708C42.9588 24.4077 42.8733 24.3723 42.7842 24.3723C42.7077 24.3873 42.6388 24.4284 42.5892 24.4886C42.5396 24.5488 42.5126 24.6244 42.5126 24.7024C42.5126 24.7804 42.5396 24.856 42.5892 24.9162C42.6388 24.9764 42.7077 25.0175 42.7842 25.0324" fill="white"/>
<path d="M42.7842 25.0449C42.8733 25.0449 42.9588 25.0095 43.0218 24.9464C43.0848 24.8833 43.1202 24.7978 43.1202 24.7086C43.1202 24.6194 43.0848 24.5339 43.0218 24.4708C42.9588 24.4077 42.8733 24.3723 42.7842 24.3723C42.7077 24.3873 42.6388 24.4284 42.5892 24.4886C42.5396 24.5488 42.5126 24.6244 42.5126 24.7024C42.5126 24.7804 42.5396 24.856 42.5892 24.9162C42.6388 24.9764 42.7077 25.0175 42.7842 25.0324V25.0449Z" stroke="black" stroke-width="0.124498"/>
<path d="M42.05 24.6712C42.0986 24.6807 42.1488 24.6793 42.1968 24.6672C42.2449 24.655 42.2897 24.6323 42.3279 24.6007C42.3662 24.5692 42.397 24.5296 42.4182 24.4847C42.4394 24.4398 42.4503 24.3908 42.4503 24.3412C42.4503 24.2915 42.4394 24.2425 42.4182 24.1977C42.397 24.1528 42.3662 24.1132 42.3279 24.0816C42.2897 24.0501 42.2449 24.0274 42.1968 24.0152C42.1488 24.003 42.0986 24.0016 42.05 24.0111C41.9735 24.0261 41.9045 24.0672 41.855 24.1274C41.8054 24.1876 41.7783 24.2632 41.7783 24.3412C41.7783 24.4192 41.8054 24.4948 41.855 24.555C41.9045 24.6152 41.9735 24.6563 42.05 24.6712Z" fill="white"/>
<path d="M42.05 24.6712C42.0986 24.6807 42.1488 24.6793 42.1968 24.6672C42.2449 24.655 42.2897 24.6323 42.3279 24.6007C42.3662 24.5692 42.397 24.5296 42.4182 24.4847C42.4394 24.4398 42.4503 24.3908 42.4503 24.3412C42.4503 24.2915 42.4394 24.2425 42.4182 24.1977C42.397 24.1528 42.3662 24.1132 42.3279 24.0816C42.2897 24.0501 42.2449 24.0274 42.1968 24.0152C42.1488 24.003 42.0986 24.0016 42.05 24.0111C41.9735 24.0261 41.9045 24.0672 41.855 24.1274C41.8054 24.1876 41.7783 24.2632 41.7783 24.3412C41.7783 24.4192 41.8054 24.4948 41.855 24.555C41.9045 24.6152 41.9735 24.6563 42.05 24.6712Z" stroke="black" stroke-width="0.124498"/>
<path d="M41.2037 24.4844C41.2524 24.4939 41.3026 24.4925 41.3506 24.4803C41.3987 24.4681 41.4434 24.4455 41.4817 24.4139C41.52 24.3824 41.5508 24.3427 41.572 24.2978C41.5931 24.253 41.6041 24.204 41.6041 24.1543C41.6041 24.1047 41.5931 24.0557 41.572 24.0108C41.5508 23.966 41.52 23.9263 41.4817 23.8948C41.4434 23.8632 41.3987 23.8405 41.3506 23.8284C41.3026 23.8162 41.2524 23.8148 41.2037 23.8243C41.1272 23.8392 41.0583 23.8803 41.0087 23.9405C40.9592 24.0007 40.9321 24.0763 40.9321 24.1543C40.9321 24.2324 40.9592 24.3079 41.0087 24.3681C41.0583 24.4284 41.1272 24.4695 41.2037 24.4844Z" fill="white"/>
<path d="M41.2037 24.4844C41.2524 24.4939 41.3026 24.4925 41.3506 24.4803C41.3987 24.4681 41.4434 24.4455 41.4817 24.4139C41.52 24.3824 41.5508 24.3427 41.572 24.2978C41.5931 24.253 41.6041 24.204 41.6041 24.1543C41.6041 24.1047 41.5931 24.0557 41.572 24.0108C41.5508 23.966 41.52 23.9263 41.4817 23.8948C41.4434 23.8632 41.3987 23.8405 41.3506 23.8284C41.3026 23.8162 41.2524 23.8148 41.2037 23.8243C41.1272 23.8392 41.0583 23.8803 41.0087 23.9405C40.9592 24.0007 40.9321 24.0763 40.9321 24.1543C40.9321 24.2324 40.9592 24.3079 41.0087 24.3681C41.0583 24.4284 41.1272 24.4695 41.2037 24.4844Z" stroke="black" stroke-width="0.124498"/>
<path d="M40.4446 24.4221C40.4932 24.4317 40.5434 24.4303 40.5915 24.4181C40.6395 24.4059 40.6843 24.3832 40.7226 24.3517C40.7608 24.3201 40.7917 24.2805 40.8128 24.2356C40.834 24.1907 40.8449 24.1417 40.8449 24.0921C40.8449 24.0425 40.834 23.9935 40.8128 23.9486C40.7917 23.9037 40.7608 23.8641 40.7226 23.8325C40.6843 23.801 40.6395 23.7783 40.5915 23.7661C40.5434 23.7539 40.4932 23.7525 40.4446 23.762C40.3681 23.777 40.2992 23.8181 40.2496 23.8783C40.2 23.9385 40.1729 24.0141 40.1729 24.0921C40.1729 24.1701 40.2 24.2457 40.2496 24.3059C40.2992 24.3661 40.3681 24.4072 40.4446 24.4221Z" fill="white"/>
<path d="M40.4446 24.4221C40.4932 24.4317 40.5434 24.4303 40.5915 24.4181C40.6395 24.4059 40.6843 24.3832 40.7226 24.3517C40.7608 24.3201 40.7917 24.2805 40.8128 24.2356C40.834 24.1907 40.8449 24.1417 40.8449 24.0921C40.8449 24.0425 40.834 23.9935 40.8128 23.9486C40.7917 23.9037 40.7608 23.8641 40.7226 23.8325C40.6843 23.801 40.6395 23.7783 40.5915 23.7661C40.5434 23.7539 40.4932 23.7525 40.4446 23.762C40.3681 23.777 40.2992 23.8181 40.2496 23.8783C40.2 23.9385 40.1729 24.0141 40.1729 24.0921C40.1729 24.1701 40.2 24.2457 40.2496 24.3059C40.2992 24.3661 40.3681 24.4072 40.4446 24.4221V24.4221Z" stroke="black" stroke-width="0.124498"/>
<path d="M39.7477 24.335C39.8368 24.335 39.9223 24.2996 39.9853 24.2365C40.0483 24.1734 40.0837 24.0879 40.0837 23.9987C40.0837 23.9095 40.0483 23.824 39.9853 23.7609C39.9223 23.6978 39.8368 23.6624 39.7477 23.6624C39.6586 23.6624 39.5731 23.6978 39.5101 23.7609C39.4471 23.824 39.4117 23.9095 39.4117 23.9987C39.4117 24.0879 39.4471 24.1734 39.5101 24.2365C39.5731 24.2996 39.6586 24.335 39.7477 24.335Z" fill="white"/>
<path d="M39.7477 24.335C39.8368 24.335 39.9223 24.2996 39.9853 24.2365C40.0483 24.1734 40.0837 24.0879 40.0837 23.9987C40.0837 23.9095 40.0483 23.824 39.9853 23.7609C39.9223 23.6978 39.8368 23.6624 39.7477 23.6624C39.6586 23.6624 39.5731 23.6978 39.5101 23.7609C39.4471 23.824 39.4117 23.9095 39.4117 23.9987C39.4117 24.0879 39.4471 24.1734 39.5101 24.2365C39.5731 24.2996 39.6586 24.335 39.7477 24.335V24.335Z" stroke="black" stroke-width="0.124498"/>
<path d="M40.1957 27.0377C40.2443 27.0473 40.2945 27.0459 40.3426 27.0337C40.3906 27.0215 40.4354 26.9988 40.4737 26.9673C40.5119 26.9357 40.5428 26.8961 40.5639 26.8512C40.5851 26.8063 40.596 26.7573 40.596 26.7077C40.596 26.6581 40.5851 26.6091 40.5639 26.5642C40.5428 26.5193 40.5119 26.4797 40.4737 26.4481C40.4354 26.4166 40.3906 26.3939 40.3426 26.3817C40.2945 26.3695 40.2443 26.3681 40.1957 26.3776C40.1066 26.3776 40.0211 26.4131 39.9581 26.4761C39.8951 26.5392 39.8597 26.6247 39.8597 26.7139C39.8597 26.8031 39.8951 26.8886 39.9581 26.9517C40.0211 27.0148 40.1066 27.0502 40.1957 27.0502" fill="white"/>
<path d="M40.1957 27.0377C40.2443 27.0473 40.2945 27.0459 40.3426 27.0337C40.3906 27.0215 40.4354 26.9988 40.4737 26.9673C40.5119 26.9357 40.5428 26.8961 40.5639 26.8512C40.5851 26.8063 40.596 26.7573 40.596 26.7077C40.596 26.6581 40.5851 26.6091 40.5639 26.5642C40.5428 26.5193 40.5119 26.4797 40.4737 26.4481C40.4354 26.4166 40.3906 26.3939 40.3426 26.3817C40.2945 26.3695 40.2443 26.3681 40.1957 26.3776C40.1066 26.3776 40.0211 26.4131 39.9581 26.4761C39.8951 26.5392 39.8597 26.6247 39.8597 26.7139C39.8597 26.8031 39.8951 26.8886 39.9581 26.9517C40.0211 27.0148 40.1066 27.0502 40.1957 27.0502V27.0377Z" stroke="black" stroke-width="0.124498"/>
<path d="M40.3699 26.4149C40.459 26.4149 40.5445 26.3795 40.6075 26.3164C40.6705 26.2534 40.7059 26.1678 40.7059 26.0787C40.7059 25.9895 40.6705 25.9039 40.6075 25.8409C40.5445 25.7778 40.459 25.7424 40.3699 25.7424C40.2934 25.7573 40.2245 25.7984 40.175 25.8586C40.1254 25.9188 40.0983 25.9944 40.0983 26.0724C40.0983 26.1504 40.1254 26.226 40.175 26.2862C40.2245 26.3464 40.2934 26.3875 40.3699 26.4025" fill="white"/>
<path d="M40.3699 26.4149C40.459 26.4149 40.5445 26.3795 40.6075 26.3164C40.6705 26.2534 40.7059 26.1678 40.7059 26.0787C40.7059 25.9895 40.6705 25.9039 40.6075 25.8409C40.5445 25.7778 40.459 25.7424 40.3699 25.7424C40.2934 25.7573 40.2245 25.7984 40.175 25.8586C40.1254 25.9188 40.0983 25.9944 40.0983 26.0724C40.0983 26.1504 40.1254 26.226 40.175 26.2862C40.2245 26.3464 40.2934 26.3875 40.3699 26.4025V26.4149Z" stroke="black" stroke-width="0.124498"/>
<path d="M37.5824 24.2851C37.6715 24.2851 37.7569 24.2497 37.8199 24.1866C37.883 24.1236 37.9184 24.038 37.9184 23.9488C37.9184 23.8596 37.883 23.7741 37.8199 23.711C37.7569 23.648 37.6715 23.6125 37.5824 23.6125C37.4932 23.6125 37.4078 23.648 37.3448 23.711C37.2818 23.7741 37.2464 23.8596 37.2464 23.9488C37.2464 24.038 37.2818 24.1236 37.3448 24.1866C37.4078 24.2497 37.4932 24.2851 37.5824 24.2851Z" fill="white"/>
<path d="M37.5824 24.2851C37.6715 24.2851 37.7569 24.2497 37.8199 24.1866C37.883 24.1236 37.9184 24.038 37.9184 23.9488C37.9184 23.8596 37.883 23.7741 37.8199 23.711C37.7569 23.648 37.6715 23.6125 37.5824 23.6125C37.4932 23.6125 37.4078 23.648 37.3448 23.711C37.2818 23.7741 37.2464 23.8596 37.2464 23.9488C37.2464 24.038 37.2818 24.1236 37.3448 24.1866C37.4078 24.2497 37.4932 24.2851 37.5824 24.2851V24.2851Z" stroke="black" stroke-width="0.124498"/>
<path d="M35.9646 24.1855C36.0133 24.195 36.0634 24.1936 36.1115 24.1814C36.1595 24.1693 36.2043 24.1466 36.2426 24.115C36.2809 24.0835 36.3117 24.0438 36.3328 23.999C36.354 23.9541 36.365 23.9051 36.365 23.8555C36.365 23.8058 36.354 23.7568 36.3328 23.7119C36.3117 23.6671 36.2809 23.6274 36.2426 23.5959C36.2043 23.5643 36.1595 23.5417 36.1115 23.5295C36.0634 23.5173 36.0133 23.5159 35.9646 23.5254C35.8881 23.5403 35.8192 23.5814 35.7696 23.6416C35.7201 23.7019 35.693 23.7774 35.693 23.8555C35.693 23.9335 35.7201 24.009 35.7696 24.0693C35.8192 24.1295 35.8881 24.1706 35.9646 24.1855Z" fill="white"/>
<path d="M35.9646 24.1855C36.0133 24.195 36.0634 24.1936 36.1115 24.1814C36.1595 24.1693 36.2043 24.1466 36.2426 24.115C36.2809 24.0835 36.3117 24.0438 36.3328 23.999C36.354 23.9541 36.365 23.9051 36.365 23.8555C36.365 23.8058 36.354 23.7568 36.3328 23.7119C36.3117 23.6671 36.2809 23.6274 36.2426 23.5959C36.2043 23.5643 36.1595 23.5417 36.1115 23.5295C36.0634 23.5173 36.0133 23.5159 35.9646 23.5254C35.8881 23.5403 35.8192 23.5814 35.7696 23.6416C35.7201 23.7019 35.693 23.7774 35.693 23.8555C35.693 23.9335 35.7201 24.009 35.7696 24.0693C35.8192 24.1295 35.8881 24.1706 35.9646 24.1855V24.1855Z" stroke="black" stroke-width="0.124498"/>
<path d="M35.5664 24.1731C35.6151 24.1826 35.6652 24.1812 35.7133 24.169C35.7613 24.1568 35.8061 24.1341 35.8444 24.1026C35.8826 24.071 35.9135 24.0314 35.9346 23.9865C35.9558 23.9416 35.9668 23.8926 35.9668 23.843C35.9668 23.7934 35.9558 23.7444 35.9346 23.6995C35.9135 23.6546 35.8826 23.615 35.8444 23.5834C35.8061 23.5519 35.7613 23.5292 35.7133 23.517C35.6652 23.5048 35.6151 23.5034 35.5664 23.5129C35.4899 23.5279 35.421 23.569 35.3714 23.6292C35.3218 23.6894 35.2948 23.765 35.2948 23.843C35.2948 23.921 35.3218 23.9966 35.3714 24.0568C35.421 24.117 35.4899 24.1581 35.5664 24.1731Z" fill="white"/>
<path d="M35.5664 24.1731C35.6151 24.1826 35.6652 24.1812 35.7133 24.169C35.7613 24.1568 35.8061 24.1341 35.8444 24.1026C35.8826 24.071 35.9135 24.0314 35.9346 23.9865C35.9558 23.9416 35.9668 23.8926 35.9668 23.843C35.9668 23.7934 35.9558 23.7444 35.9346 23.6995C35.9135 23.6546 35.8826 23.615 35.8444 23.5834C35.8061 23.5519 35.7613 23.5292 35.7133 23.517C35.6652 23.5048 35.6151 23.5034 35.5664 23.5129C35.4899 23.5279 35.421 23.569 35.3714 23.6292C35.3218 23.6894 35.2948 23.765 35.2948 23.843C35.2948 23.921 35.3218 23.9966 35.3714 24.0568C35.421 24.117 35.4899 24.1581 35.5664 24.1731Z" stroke="black" stroke-width="0.124498"/>
<path d="M33.4508 27.0502C33.4994 27.0597 33.5496 27.0583 33.5977 27.0461C33.6457 27.0339 33.6905 27.0113 33.7288 26.9797C33.767 26.9482 33.7978 26.9085 33.819 26.8636C33.8402 26.8188 33.8511 26.7698 33.8511 26.7201C33.8511 26.6705 33.8402 26.6215 33.819 26.5766C33.7978 26.5318 33.767 26.4921 33.7288 26.4606C33.6905 26.429 33.6457 26.4063 33.5977 26.3942C33.5496 26.382 33.4994 26.3806 33.4508 26.3901C33.3743 26.405 33.3053 26.4461 33.2558 26.5063C33.2062 26.5665 33.1791 26.6421 33.1791 26.7201C33.1791 26.7981 33.2062 26.8737 33.2558 26.9339C33.3053 26.9942 33.3743 27.0353 33.4508 27.0502Z" fill="white"/>
<path d="M33.4508 27.0502C33.4994 27.0597 33.5496 27.0583 33.5977 27.0461C33.6457 27.0339 33.6905 27.0113 33.7288 26.9797C33.767 26.9482 33.7978 26.9085 33.819 26.8636C33.8402 26.8188 33.8511 26.7698 33.8511 26.7201C33.8511 26.6705 33.8402 26.6215 33.819 26.5766C33.7978 26.5318 33.767 26.4921 33.7288 26.4606C33.6905 26.429 33.6457 26.4063 33.5977 26.3942C33.5496 26.382 33.4994 26.3806 33.4508 26.3901C33.3743 26.405 33.3053 26.4461 33.2558 26.5063C33.2062 26.5665 33.1791 26.6421 33.1791 26.7201C33.1791 26.7981 33.2062 26.8737 33.2558 26.9339C33.3053 26.9942 33.3743 27.0353 33.4508 27.0502V27.0502Z" stroke="black" stroke-width="0.124498"/>
<path d="M33.3513 26.2655C33.4404 26.2655 33.5258 26.2301 33.5889 26.167C33.6519 26.104 33.6873 26.0184 33.6873 25.9292C33.6873 25.8401 33.6519 25.7545 33.5889 25.6915C33.5258 25.6284 33.4404 25.593 33.3513 25.593C33.2622 25.593 33.1767 25.6284 33.1137 25.6915C33.0507 25.7545 33.0153 25.8401 33.0153 25.9292C33.0153 26.0184 33.0507 26.104 33.1137 26.167C33.1767 26.2301 33.2622 26.2655 33.3513 26.2655Z" fill="white"/>
<path d="M33.3513 26.2655C33.4404 26.2655 33.5258 26.2301 33.5889 26.167C33.6519 26.104 33.6873 26.0184 33.6873 25.9292C33.6873 25.8401 33.6519 25.7545 33.5889 25.6915C33.5258 25.6284 33.4404 25.593 33.3513 25.593C33.2622 25.593 33.1767 25.6284 33.1137 25.6915C33.0507 25.7545 33.0153 25.8401 33.0153 25.9292C33.0153 26.0184 33.0507 26.104 33.1137 26.167C33.1767 26.2301 33.2622 26.2655 33.3513 26.2655V26.2655Z" stroke="black" stroke-width="0.124498"/>
<path d="M33.6002 25.4933C33.6488 25.5028 33.699 25.5014 33.7471 25.4892C33.7951 25.4771 33.8399 25.4544 33.8782 25.4228C33.9164 25.3913 33.9472 25.3516 33.9684 25.3068C33.9896 25.2619 34.0005 25.2129 34.0005 25.1633C34.0005 25.1136 33.9896 25.0646 33.9684 25.0197C33.9472 24.9749 33.9164 24.9352 33.8782 24.9037C33.8399 24.8721 33.7951 24.8495 33.7471 24.8373C33.699 24.8251 33.6488 24.8237 33.6002 24.8332C33.5237 24.8481 33.4547 24.8892 33.4052 24.9494C33.3556 25.0097 33.3285 25.0852 33.3285 25.1633C33.3285 25.2413 33.3556 25.3168 33.4052 25.3771C33.4547 25.4373 33.5237 25.4784 33.6002 25.4933Z" fill="white"/>
<path d="M33.6002 25.4933C33.6488 25.5028 33.699 25.5014 33.7471 25.4892C33.7951 25.4771 33.8399 25.4544 33.8782 25.4228C33.9164 25.3913 33.9472 25.3516 33.9684 25.3068C33.9896 25.2619 34.0005 25.2129 34.0005 25.1633C34.0005 25.1136 33.9896 25.0646 33.9684 25.0197C33.9472 24.9749 33.9164 24.9352 33.8782 24.9037C33.8399 24.8721 33.7951 24.8495 33.7471 24.8373C33.699 24.8251 33.6488 24.8237 33.6002 24.8332C33.5237 24.8481 33.4547 24.8892 33.4052 24.9494C33.3556 25.0097 33.3285 25.0852 33.3285 25.1633C33.3285 25.2413 33.3556 25.3168 33.4052 25.3771C33.4547 25.4373 33.5237 25.4784 33.6002 25.4933Z" stroke="black" stroke-width="0.124498"/>
<path d="M35.0561 24.2478C35.1048 24.2573 35.155 24.2559 35.203 24.2437C35.2511 24.2315 35.2959 24.2088 35.3341 24.1773C35.3724 24.1457 35.4032 24.1061 35.4244 24.0612C35.4455 24.0163 35.4565 23.9673 35.4565 23.9177C35.4565 23.8681 35.4455 23.8191 35.4244 23.7742C35.4032 23.7293 35.3724 23.6897 35.3341 23.6581C35.2959 23.6266 35.2511 23.6039 35.203 23.5917C35.155 23.5795 35.1048 23.5781 35.0561 23.5876C34.9796 23.6026 34.9107 23.6437 34.8612 23.7039C34.8116 23.7641 34.7845 23.8397 34.7845 23.9177C34.7845 23.9957 34.8116 24.0713 34.8612 24.1315C34.9107 24.1917 34.9796 24.2328 35.0561 24.2478Z" fill="white"/>
<path d="M35.0561 24.2478C35.1048 24.2573 35.155 24.2559 35.203 24.2437C35.2511 24.2315 35.2959 24.2088 35.3341 24.1773C35.3724 24.1457 35.4032 24.1061 35.4244 24.0612C35.4455 24.0163 35.4565 23.9673 35.4565 23.9177C35.4565 23.8681 35.4455 23.8191 35.4244 23.7742C35.4032 23.7293 35.3724 23.6897 35.3341 23.6581C35.2959 23.6266 35.2511 23.6039 35.203 23.5917C35.155 23.5795 35.1048 23.5781 35.0561 23.5876C34.9796 23.6026 34.9107 23.6437 34.8612 23.7039C34.8116 23.7641 34.7845 23.8397 34.7845 23.9177C34.7845 23.9957 34.8116 24.0713 34.8612 24.1315C34.9107 24.1917 34.9796 24.2328 35.0561 24.2478Z" stroke="black" stroke-width="0.124498"/>
<path d="M34.4961 24.472C34.5448 24.4815 34.5949 24.4801 34.643 24.4679C34.6911 24.4557 34.7358 24.433 34.7741 24.4015C34.8124 24.3699 34.8432 24.3303 34.8644 24.2854C34.8855 24.2405 34.8965 24.1915 34.8965 24.1419C34.8965 24.0923 34.8855 24.0433 34.8644 23.9984C34.8432 23.9535 34.8124 23.9139 34.7741 23.8823C34.7358 23.8508 34.6911 23.8281 34.643 23.8159C34.5949 23.8037 34.5448 23.8023 34.4961 23.8118C34.4196 23.8268 34.3507 23.8679 34.3011 23.9281C34.2516 23.9883 34.2245 24.0639 34.2245 24.1419C34.2245 24.2199 34.2516 24.2955 34.3011 24.3557C34.3507 24.4159 34.4196 24.457 34.4961 24.472Z" fill="white"/>
<path d="M34.4961 24.472C34.5448 24.4815 34.5949 24.4801 34.643 24.4679C34.6911 24.4557 34.7358 24.433 34.7741 24.4015C34.8124 24.3699 34.8432 24.3303 34.8644 24.2854C34.8855 24.2405 34.8965 24.1915 34.8965 24.1419C34.8965 24.0923 34.8855 24.0433 34.8644 23.9984C34.8432 23.9535 34.8124 23.9139 34.7741 23.8823C34.7358 23.8508 34.6911 23.8281 34.643 23.8159C34.5949 23.8037 34.5448 23.8023 34.4961 23.8118C34.4196 23.8268 34.3507 23.8679 34.3011 23.9281C34.2516 23.9883 34.2245 24.0639 34.2245 24.1419C34.2245 24.2199 34.2516 24.2955 34.3011 24.3557C34.3507 24.4159 34.4196 24.457 34.4961 24.472Z" stroke="black" stroke-width="0.124498"/>
<path d="M33.9735 24.9204C34.0221 24.9299 34.0723 24.9285 34.1203 24.9163C34.1684 24.9041 34.2132 24.8814 34.2514 24.8499C34.2897 24.8183 34.3205 24.7787 34.3417 24.7338C34.3628 24.6889 34.3738 24.6399 34.3738 24.5903C34.3738 24.5407 34.3628 24.4917 34.3417 24.4468C34.3205 24.4019 34.2897 24.3623 34.2514 24.3307C34.2132 24.2992 34.1684 24.2765 34.1203 24.2643C34.0723 24.2521 34.0221 24.2508 33.9735 24.2603C33.897 24.2752 33.828 24.3163 33.7785 24.3765C33.7289 24.4367 33.7018 24.5123 33.7018 24.5903C33.7018 24.6683 33.7289 24.7439 33.7785 24.8041C33.828 24.8643 33.897 24.9054 33.9735 24.9204Z" fill="white"/>
<path d="M33.9735 24.9204C34.0221 24.9299 34.0723 24.9285 34.1203 24.9163C34.1684 24.9041 34.2132 24.8814 34.2514 24.8499C34.2897 24.8183 34.3205 24.7787 34.3417 24.7338C34.3628 24.6889 34.3738 24.6399 34.3738 24.5903C34.3738 24.5407 34.3628 24.4917 34.3417 24.4468C34.3205 24.4019 34.2897 24.3623 34.2514 24.3307C34.2132 24.2992 34.1684 24.2765 34.1203 24.2643C34.0723 24.2521 34.0221 24.2508 33.9735 24.2603C33.897 24.2752 33.828 24.3163 33.7785 24.3765C33.7289 24.4367 33.7018 24.5123 33.7018 24.5903C33.7018 24.6683 33.7289 24.7439 33.7785 24.8041C33.828 24.8643 33.897 24.9054 33.9735 24.9204V24.9204Z" stroke="black" stroke-width="0.124498"/>
<path d="M36.8606 24.7211C36.9093 24.7306 36.9594 24.7292 37.0075 24.717C37.0555 24.7048 37.1003 24.6822 37.1386 24.6506C37.1769 24.6191 37.2077 24.5794 37.2288 24.5345C37.25 24.4897 37.261 24.4407 37.261 24.391C37.261 24.3414 37.25 24.2924 37.2288 24.2475C37.2077 24.2027 37.1769 24.163 37.1386 24.1315C37.1003 24.0999 37.0555 24.0772 37.0075 24.065C36.9594 24.0529 36.9093 24.0515 36.8606 24.061C36.7841 24.0759 36.7152 24.117 36.6656 24.1772C36.6161 24.2374 36.589 24.313 36.589 24.391C36.589 24.469 36.6161 24.5446 36.6656 24.6048C36.7152 24.6651 36.7841 24.7062 36.8606 24.7211Z" fill="white"/>
<path d="M36.8606 24.7211C36.9093 24.7306 36.9594 24.7292 37.0075 24.717C37.0555 24.7048 37.1003 24.6822 37.1386 24.6506C37.1769 24.6191 37.2077 24.5794 37.2288 24.5345C37.25 24.4897 37.261 24.4407 37.261 24.391C37.261 24.3414 37.25 24.2924 37.2288 24.2475C37.2077 24.2027 37.1769 24.163 37.1386 24.1315C37.1003 24.0999 37.0555 24.0772 37.0075 24.065C36.9594 24.0529 36.9093 24.0515 36.8606 24.061C36.7841 24.0759 36.7152 24.117 36.6656 24.1772C36.6161 24.2374 36.589 24.313 36.589 24.391C36.589 24.469 36.6161 24.5446 36.6656 24.6048C36.7152 24.6651 36.7841 24.7062 36.8606 24.7211Z" stroke="black" stroke-width="0.124498"/>
<path d="M36.8606 25.3563C36.9497 25.3563 37.0352 25.3209 37.0982 25.2578C37.1612 25.1947 37.1966 25.1092 37.1966 25.02C37.1966 24.9308 37.1612 24.8453 37.0982 24.7822C37.0352 24.7191 36.9497 24.6837 36.8606 24.6837C36.7715 24.6837 36.686 24.7191 36.623 24.7822C36.56 24.8453 36.5246 24.9308 36.5246 25.02C36.5246 25.1092 36.56 25.1947 36.623 25.2578C36.686 25.3209 36.7715 25.3563 36.8606 25.3563Z" fill="white"/>
<path d="M36.8606 25.3563C36.9497 25.3563 37.0352 25.3209 37.0982 25.2578C37.1612 25.1947 37.1966 25.1092 37.1966 25.02C37.1966 24.9308 37.1612 24.8453 37.0982 24.7822C37.0352 24.7191 36.9497 24.6837 36.8606 24.6837C36.7715 24.6837 36.686 24.7191 36.623 24.7822C36.56 24.8453 36.5246 24.9308 36.5246 25.02C36.5246 25.1092 36.56 25.1947 36.623 25.2578C36.686 25.3209 36.7715 25.3563 36.8606 25.3563V25.3563Z" stroke="black" stroke-width="0.124498"/>
<path d="M36.8606 26.0288C36.9497 26.0288 37.0352 25.9934 37.0982 25.9303C37.1612 25.8673 37.1966 25.7817 37.1966 25.6925C37.1966 25.6034 37.1612 25.5178 37.0982 25.4548C37.0352 25.3917 36.9497 25.3563 36.8606 25.3563C36.7715 25.3563 36.686 25.3917 36.623 25.4548C36.56 25.5178 36.5246 25.6034 36.5246 25.6925C36.5246 25.7817 36.56 25.8673 36.623 25.9303C36.686 25.9934 36.7715 26.0288 36.8606 26.0288Z" fill="white"/>
<path d="M36.8606 26.0288C36.9497 26.0288 37.0352 25.9934 37.0982 25.9303C37.1612 25.8673 37.1966 25.7817 37.1966 25.6925C37.1966 25.6034 37.1612 25.5178 37.0982 25.4548C37.0352 25.3917 36.9497 25.3563 36.8606 25.3563C36.7715 25.3563 36.686 25.3917 36.623 25.4548C36.56 25.5178 36.5246 25.6034 36.5246 25.6925C36.5246 25.7817 36.56 25.8673 36.623 25.9303C36.686 25.9934 36.7715 26.0288 36.8606 26.0288V26.0288Z" stroke="black" stroke-width="0.124498"/>
<path d="M38.0055 24.198C38.0946 24.198 38.1801 24.1625 38.2431 24.0995C38.3061 24.0364 38.3415 23.9509 38.3415 23.8617C38.3415 23.7725 38.3061 23.687 38.2431 23.6239C38.1801 23.5608 38.0946 23.5254 38.0055 23.5254C37.9164 23.5254 37.8309 23.5608 37.7679 23.6239C37.7049 23.687 37.6695 23.7725 37.6695 23.8617C37.6695 23.9509 37.7049 24.0364 37.7679 24.0995C37.8309 24.1625 37.9164 24.198 38.0055 24.198Z" fill="white"/>
<path d="M38.0055 24.198C38.0946 24.198 38.1801 24.1625 38.2431 24.0995C38.3061 24.0364 38.3415 23.9509 38.3415 23.8617C38.3415 23.7725 38.3061 23.687 38.2431 23.6239C38.1801 23.5608 38.0946 23.5254 38.0055 23.5254C37.9164 23.5254 37.8309 23.5608 37.7679 23.6239C37.7049 23.687 37.6695 23.7725 37.6695 23.8617C37.6695 23.9509 37.7049 24.0364 37.7679 24.0995C37.8309 24.1625 37.9164 24.198 38.0055 24.198V24.198Z" stroke="black" stroke-width="0.124498"/>
<path d="M38.4535 24.0983C38.5022 24.1078 38.5523 24.1064 38.6004 24.0942C38.6484 24.082 38.6932 24.0594 38.7315 24.0278C38.7697 23.9963 38.8006 23.9566 38.8217 23.9117C38.8429 23.8669 38.8539 23.8179 38.8539 23.7682C38.8539 23.7186 38.8429 23.6696 38.8217 23.6247C38.8006 23.5798 38.7697 23.5402 38.7315 23.5087C38.6932 23.4771 38.6484 23.4544 38.6004 23.4422C38.5523 23.4301 38.5022 23.4287 38.4535 23.4382C38.377 23.4531 38.3081 23.4942 38.2585 23.5544C38.209 23.6146 38.1819 23.6902 38.1819 23.7682C38.1819 23.8462 38.209 23.9218 38.2585 23.982C38.3081 24.0423 38.377 24.0833 38.4535 24.0983Z" fill="white"/>
<path d="M38.4535 24.0983C38.5022 24.1078 38.5523 24.1064 38.6004 24.0942C38.6484 24.082 38.6932 24.0594 38.7315 24.0278C38.7697 23.9963 38.8006 23.9566 38.8217 23.9117C38.8429 23.8669 38.8539 23.8179 38.8539 23.7682C38.8539 23.7186 38.8429 23.6696 38.8217 23.6247C38.8006 23.5798 38.7697 23.5402 38.7315 23.5087C38.6932 23.4771 38.6484 23.4544 38.6004 23.4422C38.5523 23.4301 38.5022 23.4287 38.4535 23.4382C38.377 23.4531 38.3081 23.4942 38.2585 23.5544C38.209 23.6146 38.1819 23.6902 38.1819 23.7682C38.1819 23.8462 38.209 23.9218 38.2585 23.982C38.3081 24.0423 38.377 24.0833 38.4535 24.0983V24.0983Z" stroke="black" stroke-width="0.124498"/>
<path d="M38.9762 24.1731C39.0248 24.1826 39.075 24.1812 39.1231 24.169C39.1711 24.1568 39.2159 24.1341 39.2542 24.1026C39.2924 24.071 39.3232 24.0314 39.3444 23.9865C39.3656 23.9416 39.3765 23.8926 39.3765 23.843C39.3765 23.7934 39.3656 23.7444 39.3444 23.6995C39.3232 23.6546 39.2924 23.615 39.2542 23.5834C39.2159 23.5519 39.1711 23.5292 39.1231 23.517C39.075 23.5048 39.0248 23.5034 38.9762 23.5129C38.8871 23.5129 38.8016 23.5484 38.7386 23.6114C38.6756 23.6745 38.6402 23.76 38.6402 23.8492C38.6402 23.9384 38.6756 24.024 38.7386 24.087C38.8016 24.1501 38.8871 24.1855 38.9762 24.1855" fill="white"/>
<path d="M38.9762 24.1731C39.0248 24.1826 39.075 24.1812 39.1231 24.169C39.1711 24.1568 39.2159 24.1341 39.2542 24.1026C39.2924 24.071 39.3232 24.0314 39.3444 23.9865C39.3656 23.9416 39.3765 23.8926 39.3765 23.843C39.3765 23.7934 39.3656 23.7444 39.3444 23.6995C39.3232 23.6546 39.2924 23.615 39.2542 23.5834C39.2159 23.5519 39.1711 23.5292 39.1231 23.517C39.075 23.5048 39.0248 23.5034 38.9762 23.5129C38.8871 23.5129 38.8016 23.5484 38.7386 23.6114C38.6756 23.6745 38.6402 23.76 38.6402 23.8492C38.6402 23.9384 38.6756 24.024 38.7386 24.087C38.8016 24.1501 38.8871 24.1855 38.9762 24.1855V24.1731Z" stroke="black" stroke-width="0.124498"/>
<path d="M40.2579 25.5929C40.3066 25.6024 40.3568 25.601 40.4048 25.5889C40.4529 25.5767 40.4977 25.554 40.5359 25.5224C40.5742 25.4909 40.605 25.4512 40.6262 25.4064C40.6473 25.3615 40.6583 25.3125 40.6583 25.2629C40.6583 25.2132 40.6473 25.1642 40.6262 25.1194C40.605 25.0745 40.5742 25.0348 40.5359 25.0033C40.4977 24.9717 40.4529 24.9491 40.4048 24.9369C40.3568 24.9247 40.3066 24.9233 40.2579 24.9328C40.1814 24.9477 40.1125 24.9888 40.063 25.0491C40.0134 25.1093 39.9863 25.1849 39.9863 25.2629C39.9863 25.3409 40.0134 25.4165 40.063 25.4767C40.1125 25.5369 40.1814 25.578 40.2579 25.5929Z" fill="white"/>
<path d="M40.2579 25.5929C40.3066 25.6024 40.3568 25.601 40.4048 25.5889C40.4529 25.5767 40.4977 25.554 40.5359 25.5224C40.5742 25.4909 40.605 25.4512 40.6262 25.4064C40.6473 25.3615 40.6583 25.3125 40.6583 25.2629C40.6583 25.2132 40.6473 25.1642 40.6262 25.1194C40.605 25.0745 40.5742 25.0348 40.5359 25.0033C40.4977 24.9717 40.4529 24.9491 40.4048 24.9369C40.3568 24.9247 40.3066 24.9233 40.2579 24.9328C40.1814 24.9477 40.1125 24.9888 40.063 25.0491C40.0134 25.1093 39.9863 25.1849 39.9863 25.2629C39.9863 25.3409 40.0134 25.4165 40.063 25.4767C40.1125 25.5369 40.1814 25.578 40.2579 25.5929V25.5929Z" stroke="black" stroke-width="0.124498"/>
<path d="M39.4864 24.4844C39.5755 24.4844 39.661 24.449 39.724 24.3859C39.787 24.3228 39.8224 24.2373 39.8224 24.1481C39.8224 24.0589 39.787 23.9734 39.724 23.9103C39.661 23.8473 39.5755 23.8118 39.4864 23.8118C39.3973 23.8118 39.3118 23.8473 39.2488 23.9103C39.1858 23.9734 39.1504 24.0589 39.1504 24.1481C39.1504 24.2373 39.1858 24.3228 39.2488 24.3859C39.3118 24.449 39.3973 24.4844 39.4864 24.4844Z" fill="white"/>
<path d="M39.4864 24.4844C39.5755 24.4844 39.661 24.449 39.724 24.3859C39.787 24.3228 39.8224 24.2373 39.8224 24.1481C39.8224 24.0589 39.787 23.9734 39.724 23.9103C39.661 23.8473 39.5755 23.8118 39.4864 23.8118C39.3973 23.8118 39.3118 23.8473 39.2488 23.9103C39.1858 23.9734 39.1504 24.0589 39.1504 24.1481C39.1504 24.2373 39.1858 24.3228 39.2488 24.3859C39.3118 24.449 39.3973 24.4844 39.4864 24.4844V24.4844Z" stroke="black" stroke-width="0.124498"/>
<path d="M39.9593 24.9328C40.008 24.9423 40.0581 24.9409 40.1062 24.9288C40.1543 24.9166 40.199 24.8939 40.2373 24.8623C40.2756 24.8308 40.3064 24.7912 40.3275 24.7463C40.3487 24.7014 40.3597 24.6524 40.3597 24.6028C40.3597 24.5531 40.3487 24.5041 40.3275 24.4593C40.3064 24.4144 40.2756 24.3747 40.2373 24.3432C40.199 24.3116 40.1543 24.289 40.1062 24.2768C40.0581 24.2646 40.008 24.2632 39.9593 24.2727C39.8828 24.2877 39.8139 24.3287 39.7643 24.389C39.7148 24.4492 39.6877 24.5248 39.6877 24.6028C39.6877 24.6808 39.7148 24.7564 39.7643 24.8166C39.8139 24.8768 39.8828 24.9179 39.9593 24.9328Z" fill="white"/>
<path d="M39.9593 24.9328C40.008 24.9423 40.0581 24.9409 40.1062 24.9288C40.1543 24.9166 40.199 24.8939 40.2373 24.8623C40.2756 24.8308 40.3064 24.7912 40.3275 24.7463C40.3487 24.7014 40.3597 24.6524 40.3597 24.6028C40.3597 24.5531 40.3487 24.5041 40.3275 24.4593C40.3064 24.4144 40.2756 24.3747 40.2373 24.3432C40.199 24.3116 40.1543 24.289 40.1062 24.2768C40.0581 24.2646 40.008 24.2632 39.9593 24.2727C39.8828 24.2877 39.8139 24.3287 39.7643 24.389C39.7148 24.4492 39.6877 24.5248 39.6877 24.6028C39.6877 24.6808 39.7148 24.7564 39.7643 24.8166C39.8139 24.8768 39.8828 24.9179 39.9593 24.9328Z" stroke="black" stroke-width="0.124498"/>
<path d="M36.8357 29.9024L35.9646 30.3508L36.7486 30.849L37.6819 30.3757L36.8357 29.9024Z" fill="white"/>
<path d="M36.8357 29.9024L35.9646 30.3508L36.7486 30.849L37.6819 30.3757L36.8357 29.9024" stroke="black" stroke-width="0.062249"/>
<path d="M34.9192 30.002L33.6126 30.2013C33.6126 30.2013 33.5877 30.9112 33.6499 31.0732L35.0063 30.8988C35.0063 30.8988 35.0686 30.2387 34.9192 30.002Z" fill="white"/>
<path d="M34.9192 30.002L33.6126 30.2013C33.6126 30.2013 33.5877 30.9112 33.6499 31.0732L35.0063 30.8988C35.0063 30.8988 35.0686 30.2387 34.9192 30.002Z" stroke="black" stroke-width="0.062249"/>
<path d="M34.7824 30.2512C34.7824 30.2512 33.9859 30.3259 33.7868 30.4006V30.8739C33.7868 30.8739 34.3219 30.7867 34.7948 30.7494L34.7824 30.2512Z" fill="#058E6E" fill-opacity="0.9"/>
<path d="M34.7824 30.2512C34.7824 30.2512 33.9859 30.3259 33.7868 30.4006V30.8739C33.7868 30.8739 34.3219 30.7867 34.7948 30.7494L34.7824 30.2512Z" stroke="black" stroke-width="0.062249"/>
<path d="M38.6651 30.0269L39.9842 30.2387C39.9842 30.2387 39.9966 30.9486 39.9344 31.1105L38.5904 30.9361C38.5904 30.9361 38.5282 30.276 38.6651 30.0394" fill="white"/>
<path d="M38.6651 30.0269L39.9842 30.2387C39.9842 30.2387 39.9966 30.9486 39.9344 31.1105L38.5904 30.9361C38.5904 30.9361 38.5282 30.276 38.6651 30.0394V30.0269Z" stroke="black" stroke-width="0.062249"/>
<path d="M38.8268 30.2885C38.8268 30.2885 39.6108 30.3632 39.81 30.438L39.7975 30.9113C39.7975 30.9113 39.2748 30.8241 38.8019 30.7867L38.8144 30.2885" fill="#058E6E" fill-opacity="0.9"/>
<path d="M38.8268 30.2885C38.8268 30.2885 39.6108 30.3632 39.81 30.438L39.7975 30.9113C39.7975 30.9113 39.2748 30.8241 38.8019 30.7867L38.8144 30.2885" stroke="black" stroke-width="0.062249"/>
<path d="M31.6339 30.6248C31.6339 30.6248 36.2383 28.9184 42.1121 30.7742M31.8206 31.6087C31.8206 31.6087 36.2881 29.9397 41.7761 31.6835M31.8454 30.5625L32.7414 30.8241L32.1192 31.4966" stroke="black" stroke-width="0.062249"/>
<path d="M31.8579 31.3721L32.3806 30.9362L31.7957 30.8241C31.7957 30.8241 31.8703 30.9113 31.8579 30.9985V31.3721Z" fill="#FF0000"/>
<path d="M31.8579 31.3721L32.3806 30.9362L31.7957 30.8241C31.7957 30.8241 31.8703 30.9113 31.8579 30.9985V31.3721Z" stroke="black" stroke-width="0.062249"/>
<path d="M42.0126 30.7369L41.0544 30.9112L41.7015 31.6586" stroke="black" stroke-width="0.062249"/>
<path d="M41.7264 31.397L41.3655 31.0233L41.8882 30.9735C41.8882 30.9735 41.7388 31.0607 41.7388 31.1479C41.7388 31.2226 41.7637 31.3347 41.7388 31.397" fill="#FF0000"/>
<path d="M41.7264 31.397L41.3655 31.0233L41.8882 30.9735C41.8882 30.9735 41.7388 31.0607 41.7388 31.1479C41.7388 31.2226 41.7637 31.3347 41.7388 31.397H41.7264Z" stroke="black" stroke-width="0.062249"/>
<path d="M33.0152 30.6248C33.0899 30.6248 33.1645 30.575 33.1645 30.5002C33.1645 30.4504 33.0899 30.3882 33.0152 30.3882C32.9281 30.3882 32.8659 30.4504 32.8659 30.5127C32.8659 30.575 32.9281 30.6373 33.0152 30.6373V30.6248ZM35.5788 30.3383C35.6659 30.3383 35.7281 30.2885 35.7281 30.2138C35.7281 30.1515 35.6659 30.1017 35.5788 30.1017C35.4917 30.1017 35.4294 30.1515 35.4294 30.2262C35.4294 30.2885 35.4917 30.3383 35.5788 30.3383ZM35.5788 30.7493C35.6659 30.7493 35.7281 30.6995 35.7281 30.6373C35.7281 30.575 35.6659 30.5127 35.5788 30.5127C35.4917 30.5127 35.4294 30.575 35.4294 30.6373C35.4294 30.6995 35.4917 30.7618 35.5788 30.7618V30.7493ZM38.105 30.3632C38.1797 30.3632 38.2543 30.301 38.2543 30.2387C38.2543 30.1764 38.1797 30.1141 38.105 30.1141C38.0179 30.1141 37.9557 30.1764 37.9557 30.2387C37.9557 30.301 38.0179 30.3632 38.105 30.3632ZM40.6063 30.8241C40.6935 30.8241 40.7557 30.7618 40.7557 30.6995C40.7557 30.6373 40.6935 30.575 40.6063 30.575C40.5192 30.575 40.457 30.6373 40.457 30.6995C40.457 30.7618 40.5192 30.8241 40.6063 30.8241ZM40.569 31.1479C40.6437 31.1479 40.7183 31.0981 40.7183 31.0234C40.7183 30.9735 40.6437 30.9113 40.569 30.9113C40.4819 30.9113 40.4197 30.9735 40.4197 31.0358C40.4197 31.0981 40.4819 31.1604 40.569 31.1604V31.1479ZM38.105 30.7743C38.1797 30.7743 38.2543 30.7244 38.2543 30.6497C38.2543 30.5874 38.1797 30.5376 38.105 30.5376C38.0179 30.5376 37.9557 30.5874 37.9557 30.6622C37.9557 30.7244 38.0179 30.7867 38.105 30.7867V30.7743ZM33.1272 31.1479C33.2143 31.1479 33.289 31.0981 33.289 31.0234C33.289 30.9735 33.2143 30.9113 33.1397 30.9113C33.0525 30.9113 32.9903 30.9735 32.9903 31.0358C32.9903 31.0981 33.0525 31.1604 33.1397 31.1604L33.1272 31.1479Z" stroke="black" stroke-width="0.062249"/>
<path d="M31.5592 29.2796C31.5592 29.2796 31.5717 30.1764 32.1566 30.0519C32.7415 29.9273 32.6792 29.1925 32.7166 29.1551C32.7664 29.1177 32.8286 29.1177 32.8286 29.1177C32.8286 29.1177 32.9032 29.8277 33.4508 29.7405C33.9984 29.6533 33.9735 28.7814 33.9113 28.632L34.0357 28.5946C34.0357 28.5946 34.2473 29.6159 34.8695 29.4665C35.4917 29.317 35.4295 28.6693 35.4295 28.6693H35.4793C35.4793 28.6693 35.6161 29.3668 36.1264 29.317C36.6241 29.2796 36.7237 29.1177 36.6615 28.4202L36.9975 28.358C36.9975 28.358 36.873 29.3544 37.4828 29.3544C38.0802 29.317 38.105 28.8437 38.1424 28.7565H38.2419C38.2419 28.7565 38.2668 29.4665 38.777 29.4665C39.2748 29.4665 39.3744 28.8686 39.3744 28.632L39.8722 28.6569C39.8722 28.6569 39.3495 29.591 40.1086 29.7156C40.8553 29.8401 40.8802 29.1177 40.8802 29.1177H41.0295C41.0295 29.1177 41.0046 30.0519 41.4153 30.0768C41.8384 30.0892 42.0873 29.9522 42.1246 29.2547L42.3611 29.3419C42.3611 29.3419 42.1619 30.4629 41.3779 30.2636C40.9673 30.1515 40.8304 29.6782 40.8553 29.5537C40.8553 29.5537 40.5691 30.0768 39.9966 29.9024C39.4366 29.7405 39.4988 29.3419 39.4988 29.2174C39.4988 29.2174 39.1628 29.8401 38.6899 29.7031C38.2668 29.5786 38.105 29.4291 38.105 29.1302C38.105 29.1302 37.8935 29.6159 37.4828 29.591C37.0597 29.5786 36.8606 29.317 36.8357 29.0928C36.8357 29.0928 36.7486 29.5412 36.1886 29.5786C35.8153 29.591 35.6037 29.4042 35.5166 29.1551C35.5166 29.1551 35.4046 29.6035 34.8695 29.6782C34.5335 29.7156 34.1975 29.5287 34.1228 29.2174C34.1228 29.2174 34.0357 29.8277 33.5006 29.9024C32.953 29.9896 32.8286 29.6159 32.8286 29.6159C32.8286 29.6159 32.7166 30.0892 32.281 30.2013C31.8455 30.301 31.5592 30.1141 31.4472 29.6782C31.3477 29.2423 31.385 29.0555 31.385 29.0555L31.5592 29.2796Z" fill="#FFCC00"/>
<path d="M31.5592 29.2796C31.5592 29.2796 31.5717 30.1764 32.1566 30.0519C32.7415 29.9273 32.6792 29.1925 32.7166 29.1551C32.7664 29.1177 32.8286 29.1177 32.8286 29.1177C32.8286 29.1177 32.9032 29.8277 33.4508 29.7405C33.9984 29.6533 33.9735 28.7814 33.9113 28.632L34.0357 28.5946C34.0357 28.5946 34.2473 29.6159 34.8695 29.4665C35.4917 29.317 35.4295 28.6693 35.4295 28.6693H35.4793C35.4793 28.6693 35.6161 29.3668 36.1264 29.317C36.6241 29.2796 36.7237 29.1177 36.6615 28.4202L36.9975 28.358C36.9975 28.358 36.873 29.3544 37.4828 29.3544C38.0802 29.317 38.105 28.8437 38.1424 28.7565H38.2419C38.2419 28.7565 38.2668 29.4665 38.777 29.4665C39.2748 29.4665 39.3744 28.8686 39.3744 28.632L39.8722 28.6569C39.8722 28.6569 39.3495 29.591 40.1086 29.7156C40.8553 29.8401 40.8802 29.1177 40.8802 29.1177H41.0295C41.0295 29.1177 41.0046 30.0519 41.4153 30.0768C41.8384 30.0892 42.0873 29.9522 42.1246 29.2547L42.3611 29.3419C42.3611 29.3419 42.1619 30.4629 41.3779 30.2636C40.9673 30.1515 40.8304 29.6782 40.8553 29.5537C40.8553 29.5537 40.5691 30.0768 39.9966 29.9024C39.4366 29.7405 39.4988 29.3419 39.4988 29.2174C39.4988 29.2174 39.1628 29.8401 38.6899 29.7031C38.2668 29.5786 38.105 29.4291 38.105 29.1302C38.105 29.1302 37.8935 29.6159 37.4828 29.591C37.0597 29.5786 36.8606 29.317 36.8357 29.0928C36.8357 29.0928 36.7486 29.5412 36.1886 29.5786C35.8153 29.591 35.6037 29.4042 35.5166 29.1551C35.5166 29.1551 35.4046 29.6035 34.8695 29.6782C34.5335 29.7156 34.1975 29.5287 34.1228 29.2174C34.1228 29.2174 34.0357 29.8277 33.5006 29.9024C32.953 29.9896 32.8286 29.6159 32.8286 29.6159C32.8286 29.6159 32.7166 30.0892 32.281 30.2013C31.8455 30.301 31.5592 30.1141 31.4472 29.6782C31.3477 29.2423 31.385 29.0555 31.385 29.0555L31.5592 29.2796Z" fill="#BCAC0B" stroke="black" stroke-width="0.0871485"/>
<path d="M32.7664 29.317C32.7975 29.3248 32.83 29.3253 32.8615 29.3186C32.8929 29.3119 32.9223 29.2981 32.9476 29.2783C32.9729 29.2585 32.9934 29.2332 33.0075 29.2043C33.0215 29.1754 33.0288 29.1437 33.0288 29.1115C33.0288 29.0794 33.0215 29.0476 33.0075 29.0188C32.9934 28.9899 32.9729 28.9646 32.9476 28.9447C32.9223 28.9249 32.8929 28.9112 32.8615 28.9044C32.83 28.8977 32.7975 28.8983 32.7664 28.906C32.7205 28.9174 32.6798 28.9438 32.6507 28.9811C32.6215 29.0183 32.6057 29.0642 32.6057 29.1115C32.6057 29.1588 32.6215 29.2047 32.6507 29.242C32.6798 29.2792 32.7205 29.3056 32.7664 29.317Z" fill="#FFCC00"/>
<path d="M32.7664 29.317C32.7975 29.3248 32.83 29.3253 32.8615 29.3186C32.8929 29.3119 32.9223 29.2981 32.9476 29.2783C32.9729 29.2585 32.9934 29.2332 33.0075 29.2043C33.0215 29.1754 33.0288 29.1437 33.0288 29.1115C33.0288 29.0794 33.0215 29.0476 33.0075 29.0188C32.9934 28.9899 32.9729 28.9646 32.9476 28.9447C32.9223 28.9249 32.8929 28.9112 32.8615 28.9044C32.83 28.8977 32.7975 28.8983 32.7664 28.906C32.7205 28.9174 32.6798 28.9438 32.6507 28.9811C32.6215 29.0183 32.6057 29.0642 32.6057 29.1115C32.6057 29.1588 32.6215 29.2047 32.6507 29.242C32.6798 29.2792 32.7205 29.3056 32.7664 29.317Z" fill="#BCAC0B" stroke="black" stroke-width="0.0871485"/>
<path d="M35.4792 28.8811C35.5104 28.8888 35.5429 28.8893 35.5743 28.8826C35.6058 28.8759 35.6352 28.8621 35.6605 28.8423C35.6858 28.8225 35.7063 28.7972 35.7203 28.7683C35.7344 28.7394 35.7417 28.7077 35.7417 28.6755C35.7417 28.6434 35.7344 28.6117 35.7203 28.5828C35.7063 28.5539 35.6858 28.5286 35.6605 28.5088C35.6352 28.489 35.6058 28.4752 35.5743 28.4685C35.5429 28.4618 35.5104 28.4623 35.4792 28.47C35.4334 28.4814 35.3927 28.5078 35.3635 28.5451C35.3344 28.5823 35.3186 28.6283 35.3186 28.6755C35.3186 28.7228 35.3344 28.7688 35.3635 28.806C35.3927 28.8432 35.4334 28.8697 35.4792 28.8811Z" fill="#FFCC00"/>
<path d="M35.4792 28.8811C35.5104 28.8888 35.5429 28.8893 35.5743 28.8826C35.6058 28.8759 35.6352 28.8621 35.6605 28.8423C35.6858 28.8225 35.7063 28.7972 35.7203 28.7683C35.7344 28.7394 35.7417 28.7077 35.7417 28.6755C35.7417 28.6434 35.7344 28.6117 35.7203 28.5828C35.7063 28.5539 35.6858 28.5286 35.6605 28.5088C35.6352 28.489 35.6058 28.4752 35.5743 28.4685C35.5429 28.4618 35.5104 28.4623 35.4792 28.47C35.4334 28.4814 35.3927 28.5078 35.3635 28.5451C35.3344 28.5823 35.3186 28.6283 35.3186 28.6755C35.3186 28.7228 35.3344 28.7688 35.3635 28.806C35.3927 28.8432 35.4334 28.8697 35.4792 28.8811Z" fill="#BCAC0B" stroke="black" stroke-width="0.0871485"/>
<path d="M38.242 28.9683C38.2731 28.976 38.3057 28.9765 38.3371 28.9698C38.3685 28.9631 38.3979 28.9493 38.4232 28.9295C38.4485 28.9097 38.469 28.8844 38.4831 28.8555C38.4971 28.8266 38.5045 28.7949 38.5045 28.7628C38.5045 28.7306 38.4971 28.6989 38.4831 28.67C38.469 28.6411 38.4485 28.6158 38.4232 28.596C38.3979 28.5762 38.3685 28.5624 38.3371 28.5557C38.3057 28.549 38.2731 28.5495 38.242 28.5573C38.1961 28.5686 38.1554 28.5951 38.1263 28.6323C38.0972 28.6695 38.0813 28.7155 38.0813 28.7628C38.0813 28.8101 38.0972 28.856 38.1263 28.8932C38.1554 28.9305 38.1961 28.9569 38.242 28.9683Z" fill="#FFCC00"/>
<path d="M38.242 28.9683C38.2731 28.976 38.3057 28.9765 38.3371 28.9698C38.3685 28.9631 38.3979 28.9493 38.4232 28.9295C38.4485 28.9097 38.469 28.8844 38.4831 28.8555C38.4971 28.8266 38.5045 28.7949 38.5045 28.7628C38.5045 28.7306 38.4971 28.6989 38.4831 28.67C38.469 28.6411 38.4485 28.6158 38.4232 28.596C38.3979 28.5762 38.3685 28.5624 38.3371 28.5557C38.3057 28.549 38.2731 28.5495 38.242 28.5573C38.1961 28.5686 38.1554 28.5951 38.1263 28.6323C38.0972 28.6695 38.0813 28.7155 38.0813 28.7628C38.0813 28.8101 38.0972 28.856 38.1263 28.8932C38.1554 28.9305 38.1961 28.9569 38.242 28.9683Z" fill="#BCAC0B" stroke="black" stroke-width="0.0871485"/>
<path d="M40.9672 29.4042C40.9984 29.4119 41.0309 29.4125 41.0623 29.4057C41.0938 29.399 41.1232 29.3853 41.1485 29.3654C41.1738 29.3456 41.1943 29.3203 41.2083 29.2914C41.2224 29.2625 41.2297 29.2308 41.2297 29.1987C41.2297 29.1665 41.2224 29.1348 41.2083 29.1059C41.1943 29.077 41.1738 29.0517 41.1485 29.0319C41.1232 29.0121 41.0938 28.9983 41.0623 28.9916C41.0309 28.9849 40.9984 28.9854 40.9672 28.9932C40.9214 29.0046 40.8807 29.031 40.8515 29.0682C40.8224 29.1055 40.8066 29.1514 40.8066 29.1987C40.8066 29.246 40.8224 29.2919 40.8515 29.3291C40.8807 29.3664 40.9214 29.3928 40.9672 29.4042Z" fill="#FFCC00"/>
<path d="M40.9672 29.4042C40.9984 29.4119 41.0309 29.4125 41.0623 29.4057C41.0938 29.399 41.1232 29.3853 41.1485 29.3654C41.1738 29.3456 41.1943 29.3203 41.2083 29.2914C41.2224 29.2625 41.2297 29.2308 41.2297 29.1987C41.2297 29.1665 41.2224 29.1348 41.2083 29.1059C41.1943 29.077 41.1738 29.0517 41.1485 29.0319C41.1232 29.0121 41.0938 28.9983 41.0623 28.9916C41.0309 28.9849 40.9984 28.9854 40.9672 28.9932C40.9214 29.0046 40.8807 29.031 40.8515 29.0682C40.8224 29.1055 40.8066 29.1514 40.8066 29.1987C40.8066 29.246 40.8224 29.2919 40.8515 29.3291C40.8807 29.3664 40.9214 29.3928 40.9672 29.4042Z" fill="#BCAC0B" stroke="black" stroke-width="0.0871485"/>
<path d="M36.7362 28.6569H36.5495C36.4997 28.8437 36.1015 28.9558 36.1015 28.9558C36.0517 28.8063 36.1637 28.5946 36.1637 28.5946C35.7033 28.47 35.7033 28.3206 35.7033 28.3206C35.7655 28.1587 36.2011 28.1337 36.2011 28.1337C36.0766 27.9967 36.1015 27.7601 36.1015 27.7601C36.3877 27.785 36.6242 28.0715 36.6242 28.0715C36.6242 28.0715 36.338 27.922 36.3753 27.4238C36.3753 27.4238 36.5246 27.4238 36.6242 27.5234C36.6242 27.5234 36.6242 26.9754 36.8482 26.9131H36.8731C37.0971 26.9754 37.0971 27.5234 37.0971 27.5234C37.1966 27.4114 37.346 27.4238 37.346 27.4238C37.3833 27.922 37.0971 28.0715 37.0971 28.0715C37.0971 28.0715 37.3335 27.785 37.6197 27.7725C37.6197 27.7725 37.6322 27.9967 37.5326 28.1462C37.5326 28.1462 37.9557 28.1587 38.0304 28.3206C38.0304 28.3206 38.0304 28.4825 37.5575 28.5946C37.5575 28.5946 37.6571 28.8063 37.6197 28.9682C37.6197 28.9682 37.2091 28.8437 37.1717 28.6569H36.7362Z" fill="#FFCC00"/>
<path d="M36.7362 28.6569H36.5495C36.4997 28.8437 36.1015 28.9558 36.1015 28.9558C36.0517 28.8063 36.1637 28.5946 36.1637 28.5946C35.7033 28.47 35.7033 28.3206 35.7033 28.3206C35.7655 28.1587 36.2011 28.1337 36.2011 28.1337C36.0766 27.9967 36.1015 27.7601 36.1015 27.7601C36.3877 27.785 36.6242 28.0715 36.6242 28.0715C36.6242 28.0715 36.338 27.922 36.3753 27.4238C36.3753 27.4238 36.5246 27.4238 36.6242 27.5234C36.6242 27.5234 36.6242 26.9754 36.8482 26.9131H36.8731C37.0971 26.9754 37.0971 27.5234 37.0971 27.5234C37.1966 27.4114 37.346 27.4238 37.346 27.4238C37.3833 27.922 37.0971 28.0715 37.0971 28.0715C37.0971 28.0715 37.3335 27.785 37.6197 27.7725C37.6197 27.7725 37.6322 27.9967 37.5326 28.1462C37.5326 28.1462 37.9557 28.1587 38.0304 28.3206C38.0304 28.3206 38.0304 28.4825 37.5575 28.5946C37.5575 28.5946 37.6571 28.8063 37.6197 28.9682C37.6197 28.9682 37.2091 28.8437 37.1717 28.6569H36.7362Z" fill="#BCAC0B" stroke="black" stroke-width="0.0871485"/>
<path d="M36.8357 28.7565C36.9347 28.7565 37.0297 28.7172 37.0997 28.6471C37.1697 28.577 37.2091 28.482 37.2091 28.3829C37.2091 28.2838 37.1697 28.1887 37.0997 28.1187C37.0297 28.0486 36.9347 28.0092 36.8357 28.0092C36.7367 28.0092 36.6418 28.0486 36.5717 28.1187C36.5017 28.1887 36.4624 28.2838 36.4624 28.3829C36.4624 28.482 36.5017 28.577 36.5717 28.6471C36.6418 28.7172 36.7367 28.7565 36.8357 28.7565Z" fill="white"/>
<path d="M36.8357 28.7565C36.9347 28.7565 37.0297 28.7172 37.0997 28.6471C37.1697 28.577 37.2091 28.482 37.2091 28.3829C37.2091 28.2838 37.1697 28.1887 37.0997 28.1187C37.0297 28.0486 36.9347 28.0092 36.8357 28.0092C36.7367 28.0092 36.6418 28.0486 36.5717 28.1187C36.5017 28.1887 36.4624 28.2838 36.4624 28.3829C36.4624 28.482 36.5017 28.577 36.5717 28.6471C36.6418 28.7172 36.7367 28.7565 36.8357 28.7565V28.7565Z" stroke="black" stroke-width="0.0497992"/>
<path d="M36.8357 28.5946C36.8918 28.5946 36.9456 28.5723 36.9853 28.5326C37.0249 28.4929 37.0472 28.439 37.0472 28.3829C37.0472 28.3267 37.0249 28.2729 36.9853 28.2332C36.9456 28.1934 36.8918 28.1711 36.8357 28.1711C36.7796 28.1711 36.7258 28.1934 36.6861 28.2332C36.6464 28.2729 36.6241 28.3267 36.6241 28.3829C36.6241 28.439 36.6464 28.4929 36.6861 28.5326C36.7258 28.5723 36.7796 28.5946 36.8357 28.5946Z" fill="white"/>
<path d="M36.8357 28.5946C36.8918 28.5946 36.9456 28.5723 36.9853 28.5326C37.0249 28.4929 37.0472 28.439 37.0472 28.3829C37.0472 28.3267 37.0249 28.2729 36.9853 28.2332C36.9456 28.1934 36.8918 28.1711 36.8357 28.1711C36.7796 28.1711 36.7258 28.1934 36.6861 28.2332C36.6464 28.2729 36.6241 28.3267 36.6241 28.3829C36.6241 28.439 36.6464 28.4929 36.6861 28.5326C36.7258 28.5723 36.7796 28.5946 36.8357 28.5946V28.5946Z" stroke="black" stroke-width="0.0373494"/>
<path d="M39.7104 28.906L39.8971 28.9434C39.8971 29.1302 40.2704 29.3295 40.2704 29.3295C40.3451 29.2049 40.2828 28.9683 40.2828 28.9683C40.7682 28.9558 40.7931 28.7939 40.7931 28.7939C40.7682 28.6195 40.3575 28.5074 40.3575 28.5074C40.4819 28.3953 40.5193 28.1712 40.5193 28.1712C40.2331 28.1213 39.9468 28.3455 39.9468 28.3455C39.9468 28.3455 40.2579 28.2708 40.3202 27.7726C40.3202 27.7726 40.1833 27.7352 40.0713 27.81C40.0713 27.81 40.1833 27.2868 39.9717 27.1872L39.9468 27.1747C39.7104 27.1747 39.5984 27.7103 39.5984 27.7103C39.5237 27.5858 39.3744 27.5733 39.3744 27.5733C39.2375 28.0466 39.4864 28.2459 39.4864 28.2459C39.4864 28.2459 39.3122 27.922 39.0384 27.8473C39.0384 27.8473 38.9762 28.0715 39.0384 28.221C39.0384 28.221 38.6277 28.1587 38.5282 28.2957C38.5282 28.2957 38.4908 28.4576 38.9139 28.6694C38.9139 28.6694 38.7771 28.8562 38.7895 29.0181C38.7895 29.0181 39.2002 28.9807 39.2873 28.8064L39.4739 28.8437L39.7228 28.8935" fill="#FFCC00"/>
<path d="M39.7104 28.906L39.8971 28.9434C39.8971 29.1302 40.2704 29.3295 40.2704 29.3295C40.3451 29.2049 40.2828 28.9683 40.2828 28.9683C40.7682 28.9558 40.7931 28.7939 40.7931 28.7939C40.7682 28.6195 40.3575 28.5074 40.3575 28.5074C40.4819 28.3953 40.5193 28.1712 40.5193 28.1712C40.2331 28.1213 39.9468 28.3455 39.9468 28.3455C39.9468 28.3455 40.2579 28.2708 40.3202 27.7726C40.3202 27.7726 40.1833 27.7352 40.0713 27.81C40.0713 27.81 40.1833 27.2868 39.9717 27.1872L39.9468 27.1747C39.7104 27.1747 39.5984 27.7103 39.5984 27.7103C39.5237 27.5858 39.3744 27.5733 39.3744 27.5733C39.2375 28.0466 39.4864 28.2459 39.4864 28.2459C39.4864 28.2459 39.3122 27.922 39.0384 27.8473C39.0384 27.8473 38.9762 28.0715 39.0384 28.221C39.0384 28.221 38.6277 28.1587 38.5282 28.2957C38.5282 28.2957 38.4908 28.4576 38.9139 28.6694C38.9139 28.6694 38.7771 28.8562 38.7895 29.0181C38.7895 29.0181 39.2002 28.9807 39.2873 28.8064L39.4739 28.8437L39.7228 28.8935" fill="#BCAC0B"/>
<path d="M39.7104 28.906L39.8971 28.9434C39.8971 29.1302 40.2704 29.3295 40.2704 29.3295C40.3451 29.2049 40.2828 28.9683 40.2828 28.9683C40.7682 28.9558 40.7931 28.7939 40.7931 28.7939C40.7682 28.6195 40.3575 28.5074 40.3575 28.5074C40.4819 28.3953 40.5193 28.1712 40.5193 28.1712C40.2331 28.1213 39.9468 28.3455 39.9468 28.3455C39.9468 28.3455 40.2579 28.2708 40.3202 27.7726C40.3202 27.7726 40.1833 27.7352 40.0713 27.81C40.0713 27.81 40.1833 27.2868 39.9717 27.1872L39.9468 27.1747C39.7104 27.1747 39.5984 27.7103 39.5984 27.7103C39.5237 27.5858 39.3744 27.5733 39.3744 27.5733C39.2375 28.0466 39.4864 28.2459 39.4864 28.2459C39.4864 28.2459 39.3122 27.922 39.0384 27.8473C39.0384 27.8473 38.9762 28.0715 39.0384 28.221C39.0384 28.221 38.6277 28.1587 38.5282 28.2957C38.5282 28.2957 38.4908 28.4576 38.9139 28.6694C38.9139 28.6694 38.7771 28.8562 38.7895 29.0181C38.7895 29.0181 39.2002 28.9807 39.2873 28.8064L39.4739 28.8437L39.7228 28.8935" stroke="black" stroke-width="0.0871485"/>
<path d="M39.5735 28.9807C39.5245 28.9693 39.4782 28.9483 39.4373 28.9189C39.3964 28.8896 39.3616 28.8524 39.335 28.8096C39.3085 28.7668 39.2906 28.7192 39.2824 28.6695C39.2742 28.6198 39.2759 28.569 39.2873 28.5199C39.2987 28.4708 39.3197 28.4245 39.3491 28.3835C39.3784 28.3426 39.4155 28.3078 39.4582 28.2812C39.501 28.2546 39.5486 28.2367 39.5982 28.2285C39.6479 28.2203 39.6987 28.222 39.7477 28.2334C39.8468 28.2549 39.9332 28.3149 39.988 28.4001C40.0429 28.4854 40.0616 28.5889 40.0402 28.688C40.0187 28.7871 39.9588 28.8736 39.8736 28.9285C39.7885 28.9834 39.685 29.0022 39.586 28.9807" fill="white"/>
<path d="M39.5735 28.9807C39.5245 28.9693 39.4782 28.9483 39.4373 28.9189C39.3964 28.8896 39.3616 28.8524 39.335 28.8096C39.3085 28.7668 39.2906 28.7192 39.2824 28.6695C39.2742 28.6198 39.2759 28.569 39.2873 28.5199C39.2987 28.4708 39.3197 28.4245 39.3491 28.3835C39.3784 28.3426 39.4155 28.3078 39.4582 28.2812C39.501 28.2546 39.5486 28.2367 39.5982 28.2285C39.6479 28.2203 39.6987 28.222 39.7477 28.2334C39.8468 28.2549 39.9332 28.3149 39.988 28.4001C40.0429 28.4854 40.0616 28.5889 40.0402 28.688C40.0187 28.7871 39.9588 28.8736 39.8736 28.9285C39.7885 28.9834 39.685 29.0022 39.586 28.9807H39.5735Z" stroke="black" stroke-width="0.0497992"/>
<path d="M39.6233 28.8188C39.5934 28.8163 39.5644 28.8074 39.5381 28.7928C39.5119 28.7782 39.4891 28.7582 39.4712 28.7341C39.4533 28.7099 39.4407 28.6823 39.4343 28.653C39.4279 28.6236 39.4279 28.5932 39.4341 28.5639C39.4403 28.5345 39.4527 28.5068 39.4705 28.4825C39.4882 28.4583 39.5109 28.4382 39.537 28.4234C39.5632 28.4086 39.5922 28.3996 39.622 28.3969C39.6519 28.3942 39.6821 28.3979 39.7104 28.4078C39.7591 28.4247 39.7999 28.4588 39.8253 28.5037C39.8506 28.5486 39.8587 28.6013 39.848 28.6517C39.8373 28.7022 39.8086 28.747 39.7672 28.7778C39.7258 28.8085 39.6747 28.8231 39.6233 28.8188Z" fill="white"/>
<path d="M39.6233 28.8188C39.5934 28.8163 39.5644 28.8074 39.5381 28.7928C39.5119 28.7782 39.4891 28.7582 39.4712 28.7341C39.4533 28.7099 39.4407 28.6823 39.4343 28.653C39.4279 28.6236 39.4279 28.5932 39.4341 28.5639C39.4403 28.5345 39.4527 28.5068 39.4705 28.4825C39.4882 28.4583 39.5109 28.4382 39.537 28.4234C39.5632 28.4086 39.5922 28.3996 39.622 28.3969C39.6519 28.3942 39.6821 28.3979 39.7104 28.4078C39.7591 28.4247 39.7999 28.4588 39.8253 28.5037C39.8506 28.5486 39.8587 28.6013 39.848 28.6517C39.8373 28.7022 39.8086 28.747 39.7672 28.7778C39.7258 28.8085 39.6747 28.8231 39.6233 28.8188V28.8188Z" stroke="black" stroke-width="0.0373494"/>
<path d="M33.8864 28.8561L33.6997 28.881C33.6748 29.0803 33.289 29.2547 33.289 29.2547C33.2268 29.1052 33.289 28.881 33.289 28.881C32.8286 28.8312 32.8037 28.6693 32.8037 28.6693C32.8535 28.5074 33.2766 28.4202 33.2766 28.4202C33.1522 28.2957 33.1397 28.0715 33.1397 28.0715C33.4135 28.0466 33.6873 28.2957 33.6873 28.2957C33.6873 28.2957 33.3886 28.196 33.3513 27.6978C33.3513 27.6978 33.513 27.6604 33.6126 27.7476C33.6126 27.7476 33.5504 27.2121 33.7619 27.1249H33.7868C34.0233 27.1498 34.0855 27.6854 34.0855 27.6854C34.1726 27.5733 34.3344 27.5608 34.3344 27.5608C34.4215 28.059 34.1602 28.2334 34.1602 28.2334C34.1602 28.2334 34.3593 27.922 34.633 27.8597C34.633 27.8597 34.6828 28.0964 34.5957 28.2458C34.5957 28.2458 35.0188 28.2085 35.1059 28.3704C35.1059 28.3704 35.1308 28.5199 34.6828 28.6942C34.6828 28.6942 34.8073 28.8935 34.7948 29.043C34.7948 29.043 34.3842 28.9807 34.297 28.7939L34.1228 28.8312L33.8739 28.8561" fill="#FFCC00"/>
<path d="M33.8864 28.8561L33.6997 28.881C33.6748 29.0803 33.289 29.2547 33.289 29.2547C33.2268 29.1052 33.289 28.881 33.289 28.881C32.8286 28.8312 32.8037 28.6693 32.8037 28.6693C32.8535 28.5074 33.2766 28.4202 33.2766 28.4202C33.1522 28.2957 33.1397 28.0715 33.1397 28.0715C33.4135 28.0466 33.6873 28.2957 33.6873 28.2957C33.6873 28.2957 33.3886 28.196 33.3513 27.6978C33.3513 27.6978 33.513 27.6604 33.6126 27.7476C33.6126 27.7476 33.5504 27.2121 33.7619 27.1249H33.7868C34.0233 27.1498 34.0855 27.6854 34.0855 27.6854C34.1726 27.5733 34.3344 27.5608 34.3344 27.5608C34.4215 28.059 34.1602 28.2334 34.1602 28.2334C34.1602 28.2334 34.3593 27.922 34.633 27.8597C34.633 27.8597 34.6828 28.0964 34.5957 28.2458C34.5957 28.2458 35.0188 28.2085 35.1059 28.3704C35.1059 28.3704 35.1308 28.5199 34.6828 28.6942C34.6828 28.6942 34.8073 28.8935 34.7948 29.043C34.7948 29.043 34.3842 28.9807 34.297 28.7939L34.1228 28.8312L33.8739 28.8561" fill="#BCAC0B"/>
<path d="M33.8864 28.8561L33.6997 28.881C33.6748 29.0803 33.289 29.2547 33.289 29.2547C33.2268 29.1052 33.289 28.881 33.289 28.881C32.8286 28.8312 32.8037 28.6693 32.8037 28.6693C32.8535 28.5074 33.2766 28.4202 33.2766 28.4202C33.1522 28.2957 33.1397 28.0715 33.1397 28.0715C33.4135 28.0466 33.6873 28.2957 33.6873 28.2957C33.6873 28.2957 33.3886 28.196 33.3513 27.6978C33.3513 27.6978 33.513 27.6604 33.6126 27.7476C33.6126 27.7476 33.5504 27.2121 33.7619 27.1249H33.7868C34.0233 27.1498 34.0855 27.6854 34.0855 27.6854C34.1726 27.5733 34.3344 27.5608 34.3344 27.5608C34.4215 28.059 34.1602 28.2334 34.1602 28.2334C34.1602 28.2334 34.3593 27.922 34.633 27.8597C34.633 27.8597 34.6828 28.0964 34.5957 28.2458C34.5957 28.2458 35.0188 28.2085 35.1059 28.3704C35.1059 28.3704 35.1308 28.5198 34.6828 28.6942C34.6828 28.6942 34.8073 28.8935 34.7948 29.043C34.7948 29.043 34.3842 28.9807 34.297 28.7939L34.1228 28.8312L33.8739 28.8561" stroke="black" stroke-width="0.0871485"/>
<path d="M33.9984 28.9558C34.0474 28.9493 34.0947 28.9331 34.1375 28.9083C34.1802 28.8835 34.2177 28.8505 34.2478 28.8111C34.2778 28.7718 34.2998 28.727 34.3126 28.6791C34.3253 28.6313 34.3285 28.5814 34.3219 28.5323C34.3154 28.4833 34.2993 28.436 34.2745 28.3931C34.2497 28.3503 34.2167 28.3128 34.1774 28.2827C34.1381 28.2526 34.0933 28.2306 34.0455 28.2179C33.9977 28.2052 33.9478 28.202 33.8988 28.2085C33.7998 28.2217 33.7101 28.2738 33.6494 28.3532C33.5887 28.4326 33.5621 28.5329 33.5753 28.632C33.5885 28.7311 33.6405 28.8209 33.7198 28.8816C33.7992 28.9423 33.8994 28.969 33.9984 28.9558Z" fill="white"/>
<path d="M33.9984 28.9558C34.0474 28.9493 34.0947 28.9331 34.1375 28.9083C34.1802 28.8835 34.2177 28.8505 34.2478 28.8111C34.2778 28.7718 34.2998 28.727 34.3126 28.6791C34.3253 28.6313 34.3285 28.5814 34.3219 28.5323C34.3154 28.4833 34.2993 28.436 34.2745 28.3931C34.2497 28.3503 34.2167 28.3128 34.1774 28.2827C34.1381 28.2526 34.0933 28.2306 34.0455 28.2179C33.9977 28.2052 33.9478 28.202 33.8988 28.2085C33.7998 28.2217 33.7101 28.2738 33.6494 28.3532C33.5887 28.4326 33.5621 28.5329 33.5753 28.632C33.5885 28.7311 33.6405 28.8209 33.7198 28.8816C33.7992 28.9423 33.8994 28.969 33.9984 28.9558V28.9558Z" stroke="black" stroke-width="0.0497992"/>
<path d="M33.9735 28.7814C34.0049 28.7843 34.0366 28.7801 34.0662 28.7691C34.0958 28.7582 34.1225 28.7407 34.1445 28.718C34.1665 28.6954 34.1831 28.6681 34.1932 28.6382C34.2033 28.6082 34.2066 28.5764 34.2028 28.5451C34.199 28.5137 34.1882 28.4836 34.1713 28.457C34.1543 28.4303 34.1317 28.4078 34.1049 28.3911C34.0782 28.3743 34.048 28.3638 34.0167 28.3602C33.9853 28.3566 33.9536 28.3601 33.9237 28.3704C33.878 28.3862 33.839 28.4172 33.8134 28.4583C33.7877 28.4993 33.7769 28.548 33.7827 28.596C33.7885 28.6441 33.8107 28.6887 33.8454 28.7225C33.8801 28.7562 33.9253 28.777 33.9735 28.7814Z" fill="white"/>
<path d="M33.9735 28.7814C34.0049 28.7843 34.0366 28.7801 34.0662 28.7691C34.0958 28.7582 34.1225 28.7407 34.1445 28.718C34.1665 28.6954 34.1831 28.6681 34.1932 28.6382C34.2033 28.6082 34.2066 28.5764 34.2028 28.5451C34.199 28.5137 34.1882 28.4836 34.1713 28.457C34.1543 28.4303 34.1317 28.4078 34.1049 28.3911C34.0782 28.3743 34.048 28.3638 34.0167 28.3602C33.9853 28.3566 33.9536 28.3601 33.9237 28.3704C33.878 28.3862 33.839 28.4172 33.8134 28.4583C33.7877 28.4993 33.7769 28.548 33.7827 28.596C33.7885 28.6441 33.8107 28.6887 33.8454 28.7225C33.8801 28.7562 33.9253 28.777 33.9735 28.7814V28.7814Z" stroke="black" stroke-width="0.0373494"/>
<path d="M42.3362 29.6657C42.3362 29.6657 42.2366 29.4166 42.0251 29.5038C41.8135 29.591 41.8384 29.6284 41.6517 29.6284C41.6517 29.6284 41.5771 29.3917 41.6766 29.2921C41.6766 29.2921 41.3779 29.18 41.3033 28.9184C41.3033 28.9184 41.4651 28.7316 41.8508 28.8063C41.8508 28.8063 41.8384 28.6195 41.8882 28.5323C41.8882 28.5323 42.2988 28.6569 42.2988 28.8935C42.2988 28.8935 42.1744 28.4451 42.3984 28.1213C42.3984 28.1213 42.5851 28.196 42.5726 28.4078C42.5726 28.4078 42.6597 27.9843 43.2197 28.0964C43.2197 28.0964 42.9211 28.3704 42.9086 28.495C42.8837 28.6195 42.6348 28.8313 42.6224 28.906C42.6224 28.9683 42.5975 29.0928 42.5228 29.1675C42.4482 29.2423 42.4357 29.3668 42.4357 29.4166C42.4357 29.4416 42.4357 29.6159 42.3362 29.6657Z" fill="#FFCC00"/>
<path d="M42.3362 29.6657C42.3362 29.6657 42.2366 29.4166 42.0251 29.5038C41.8135 29.591 41.8384 29.6284 41.6517 29.6284C41.6517 29.6284 41.5771 29.3917 41.6766 29.2921C41.6766 29.2921 41.3779 29.18 41.3033 28.9184C41.3033 28.9184 41.4651 28.7316 41.8508 28.8063C41.8508 28.8063 41.8384 28.6195 41.8882 28.5323C41.8882 28.5323 42.2988 28.6569 42.2988 28.8935C42.2988 28.8935 42.1744 28.4451 42.3984 28.1213C42.3984 28.1213 42.5851 28.196 42.5726 28.4078C42.5726 28.4078 42.6597 27.9843 43.2197 28.0964C43.2197 28.0964 42.9211 28.3704 42.9086 28.495C42.8837 28.6195 42.6348 28.8313 42.6224 28.906C42.6224 28.9683 42.5975 29.0928 42.5228 29.1675C42.4482 29.2423 42.4357 29.3668 42.4357 29.4166C42.4357 29.4416 42.4357 29.6159 42.3362 29.6657Z" fill="#BCAC0B" stroke="black" stroke-width="0.0871485"/>
<path d="M42.0251 29.1675C42.037 29.1045 42.065 29.0456 42.1062 28.9966C42.1475 28.9475 42.2007 28.9099 42.2607 28.8874C42.3208 28.8649 42.3856 28.8582 42.4489 28.868C42.5122 28.8778 42.572 28.9037 42.6224 28.9433C42.6224 29.0056 42.5851 29.1053 42.5228 29.1675C42.4482 29.2423 42.4357 29.3668 42.4357 29.4166C42.4381 29.4864 42.4208 29.5555 42.3859 29.6159H42.3237C42.2742 29.607 42.227 29.5882 42.185 29.5607C42.1429 29.5331 42.1069 29.4973 42.079 29.4554C42.0511 29.4135 42.0319 29.3664 42.0227 29.317C42.0134 29.2675 42.0142 29.2167 42.0251 29.1675Z" fill="white"/>
<path d="M42.0251 29.1675C42.037 29.1045 42.065 29.0456 42.1062 28.9966C42.1475 28.9475 42.2007 28.9099 42.2607 28.8874C42.3208 28.8649 42.3856 28.8582 42.4489 28.868C42.5122 28.8778 42.572 28.9037 42.6224 28.9433C42.6224 29.0056 42.5851 29.1053 42.5228 29.1675C42.4482 29.2423 42.4357 29.3668 42.4357 29.4166C42.4381 29.4864 42.4208 29.5555 42.3859 29.6159H42.3237C42.2742 29.607 42.227 29.5882 42.185 29.5607C42.1429 29.5331 42.1069 29.4973 42.079 29.4554C42.0511 29.4135 42.0319 29.3664 42.0227 29.317C42.0134 29.2675 42.0142 29.2167 42.0251 29.1675V29.1675Z" stroke="black" stroke-width="0.0497992"/>
<path d="M42.1868 29.2049C42.1951 29.1655 42.2145 29.1292 42.2426 29.1004C42.2708 29.0717 42.3065 29.0515 42.3457 29.0423C42.3849 29.0332 42.4259 29.0354 42.4639 29.0488C42.5019 29.0621 42.5353 29.086 42.5601 29.1177L42.5228 29.1675C42.4481 29.2422 42.4357 29.3668 42.4357 29.4166V29.4415H42.361C42.2366 29.4291 42.1744 29.317 42.1993 29.1924" fill="white"/>
<path d="M42.1868 29.2049C42.1951 29.1655 42.2145 29.1292 42.2426 29.1004C42.2708 29.0717 42.3065 29.0515 42.3457 29.0423C42.3849 29.0332 42.4259 29.0354 42.4639 29.0488C42.5019 29.0621 42.5353 29.086 42.5601 29.1177L42.5228 29.1675C42.4481 29.2422 42.4357 29.3668 42.4357 29.4166V29.4415H42.361C42.2366 29.4291 42.1744 29.317 42.1993 29.1924L42.1868 29.2049Z" stroke="black" stroke-width="0.0373494"/>
<path d="M31.385 29.5661C31.385 29.5661 31.4846 29.317 31.6961 29.4166C31.8953 29.5287 31.8704 29.5537 32.0695 29.5537C32.0695 29.5537 32.1441 29.3295 32.0695 29.2298C32.0695 29.2298 32.3681 29.1426 32.4428 28.8811C32.4428 28.8811 32.2935 28.6818 31.9077 28.7316C31.9077 28.7316 31.9326 28.5448 31.8828 28.4576C31.8828 28.4576 31.4721 28.5572 31.4597 28.7814C31.4597 28.7814 31.609 28.3455 31.4099 28.0092C31.4099 28.0092 31.2108 28.084 31.2108 28.2832C31.2108 28.2832 31.1486 27.8598 30.5886 27.9469C30.5886 27.9469 30.8748 28.2334 30.8748 28.358C30.8748 28.4825 31.1237 28.7067 31.1237 28.7814C31.1237 28.8437 31.1486 28.9807 31.2232 29.0554C31.2979 29.1302 31.2979 29.2547 31.2855 29.3046C31.2855 29.3295 31.2855 29.5038 31.385 29.5537" fill="#FFCC00"/>
<path d="M31.385 29.5661C31.385 29.5661 31.4846 29.317 31.6961 29.4166C31.8953 29.5287 31.8704 29.5537 32.0695 29.5537C32.0695 29.5537 32.1441 29.3295 32.0695 29.2298C32.0695 29.2298 32.3681 29.1426 32.4428 28.8811C32.4428 28.8811 32.2935 28.6818 31.9077 28.7316C31.9077 28.7316 31.9326 28.5448 31.8828 28.4576C31.8828 28.4576 31.4721 28.5572 31.4597 28.7814C31.4597 28.7814 31.609 28.3455 31.4099 28.0092C31.4099 28.0092 31.2108 28.084 31.2108 28.2832C31.2108 28.2832 31.1486 27.8598 30.5886 27.9469C30.5886 27.9469 30.8748 28.2334 30.8748 28.358C30.8748 28.4825 31.1237 28.7067 31.1237 28.7814C31.1237 28.8437 31.1486 28.9807 31.2232 29.0554C31.2979 29.1302 31.2979 29.2547 31.2855 29.3046C31.2855 29.3295 31.2855 29.5038 31.385 29.5537V29.5661Z" fill="#BCAC0B" stroke="black" stroke-width="0.0871485"/>
<path d="M31.7086 29.0804C31.6981 29.0193 31.6725 28.9618 31.6343 28.9131C31.596 28.8643 31.5463 28.8259 31.4895 28.8012C31.4327 28.7765 31.3707 28.7663 31.309 28.7715C31.2473 28.7768 31.1879 28.7973 31.1361 28.8313C31.1361 28.8935 31.161 28.9932 31.2232 29.0555C31.2979 29.1302 31.2979 29.2547 31.2855 29.3046C31.2855 29.3295 31.2855 29.4291 31.3352 29.5163H31.385C31.4354 29.5103 31.4841 29.4941 31.5281 29.4686C31.572 29.4431 31.6103 29.4089 31.6406 29.3681C31.6709 29.3273 31.6925 29.2807 31.7042 29.2312C31.7159 29.1818 31.7174 29.1304 31.7086 29.0804Z" fill="white"/>
<path d="M31.7086 29.0804C31.6981 29.0193 31.6725 28.9618 31.6343 28.9131C31.596 28.8643 31.5463 28.8259 31.4895 28.8012C31.4327 28.7765 31.3707 28.7663 31.309 28.7715C31.2473 28.7768 31.1879 28.7973 31.1361 28.8313C31.1361 28.8935 31.161 28.9932 31.2232 29.0555C31.2979 29.1302 31.2979 29.2547 31.2855 29.3046C31.2855 29.3295 31.2855 29.4291 31.3352 29.5163H31.385C31.4354 29.5103 31.4841 29.4941 31.5281 29.4686C31.572 29.4431 31.6103 29.4089 31.6406 29.3681C31.6709 29.3273 31.6925 29.2807 31.7042 29.2312C31.7159 29.1818 31.7174 29.1304 31.7086 29.0804Z" stroke="black" stroke-width="0.0497992"/>
<path d="M31.5468 29.1053C31.5423 29.0639 31.5257 29.0247 31.4991 28.9927C31.4725 28.9607 31.4371 28.9373 31.3973 28.9253C31.3574 28.9134 31.315 28.9134 31.2752 28.9255C31.2353 28.9375 31.2 28.9611 31.1735 28.9932L31.2232 29.0554C31.2979 29.1302 31.2979 29.2547 31.2855 29.3045V29.3294H31.3726C31.4846 29.3294 31.5592 29.2174 31.5468 29.1053Z" fill="white"/>
<path d="M31.5468 29.1053C31.5423 29.0639 31.5257 29.0247 31.4991 28.9927C31.4725 28.9607 31.4371 28.9373 31.3973 28.9253C31.3574 28.9134 31.315 28.9134 31.2752 28.9255C31.2353 28.9375 31.2 28.9611 31.1735 28.9932L31.2232 29.0554C31.2979 29.1302 31.2979 29.2547 31.2855 29.3045V29.3294H31.3726C31.4846 29.3294 31.5592 29.2174 31.5468 29.1053V29.1053Z" stroke="black" stroke-width="0.0373494"/>
<path d="M32.0073 31.8454C32.0073 31.8454 36.2135 30.2013 41.5148 31.8827" stroke="black" stroke-width="0.186747"/>
<path d="M42.1121 30.5376C36.2508 28.6693 31.5717 30.4379 31.5717 30.4379" stroke="black" stroke-width="0.062249"/>
<path d="M36.8357 30.1266L36.3628 30.3632L36.7859 30.6248L37.2837 30.3757L36.8357 30.1266Z" fill="#FF0000"/>
<path d="M36.8357 30.1266L36.3628 30.3632L36.7859 30.6248L37.2837 30.3757L36.8357 30.1266" stroke="black" stroke-width="0.062249"/>
</g>
<defs>
<clipPath id="clip0_1_20802">
<rect width="74.6667" height="56" fill="white" transform="translate(0 9.375)"/>
</clipPath>
</defs>
</svg>
