<svg width="75" height="75" viewBox="0 0 75 75" fill="none" xmlns="http://www.w3.org/2000/svg">
<rect width="74.6667" height="74.75" fill="white"/>
<g clip-path="url(#clip0_1_20929)">
<path fill-rule="evenodd" clip-rule="evenodd" d="M-19.3923 9.75885H94.4416V64.3728H-19.3923V9.75885Z" fill="#FFC621"/>
<path fill-rule="evenodd" clip-rule="evenodd" d="M-19.6117 46.9359H94.3649V65.5244H-19.6117V46.9359Z" fill="#EF2118"/>
<path fill-rule="evenodd" clip-rule="evenodd" d="M-19.3923 9.375H94.4416V29.115H-19.3923V9.375Z" fill="#298C08"/>
<path d="M35.5143 50.2213C42.0457 50.2213 47.3405 44.9265 47.3405 38.395C47.3405 31.8636 42.0457 26.5688 35.5143 26.5688C28.9828 26.5688 23.688 31.8636 23.688 38.395C23.688 44.9265 28.9828 50.2213 35.5143 50.2213Z" fill="#006BC6"/>
<path fill-rule="evenodd" clip-rule="evenodd" d="M30.2099 30.0143L29.4971 30.5078L32.0742 34.1268L32.7651 33.6881L30.1989 30.0143H30.2099ZM33.4341 38.5683L32.3703 37.8225L32.809 36.4298L27.534 36.5065L25.9987 35.3331L33.2038 35.2563L34.5417 31.2096L35.2655 32.8546L33.4341 38.5573V38.5683ZM41.8236 30.8148L41.1327 30.2884L38.4678 33.8416L39.0819 34.3571L41.8236 30.8148ZM34.6514 36.4627L35.0352 35.2344H36.4938L34.8269 30.2117L35.4849 28.4022L37.733 35.2454L41.9881 35.3002L40.6502 36.4736L34.6514 36.4517V36.4627ZM44.5872 42.0776L44.8833 41.2661L40.6831 39.8075L40.376 40.5752L44.5872 42.0776ZM37.0092 36.9891L38.2923 36.9781L38.742 38.3599L42.997 35.2344L44.9272 35.3002L39.1039 39.5443L40.365 43.6239L38.8297 42.7027L37.0092 36.9891ZM34.8378 48.1751L35.7042 48.197L35.7371 43.7555L34.9256 43.7007L34.8378 48.186V48.1751ZM37.2505 39.3688L37.6672 40.5861L36.4938 41.4635L40.8147 44.5012L41.363 46.3436L35.4849 42.1763L32.0304 44.6657L32.4142 42.9111L37.2395 39.3688H37.2505ZM25.9219 40.7945L26.1742 41.617L30.4183 40.2791L30.1989 39.4895L25.9219 40.7945ZM35.0462 40.3558L34.0153 41.1345L32.8309 40.29L31.2737 45.3347L29.6945 46.4314L31.833 39.5553L28.3894 37.0329L30.177 36.8575L35.0462 40.3558Z" fill="#FFC621"/>
</g>
<defs>
<clipPath id="clip0_1_20929">
<rect width="74.6667" height="56" fill="white" transform="translate(0 9.375)"/>
</clipPath>
</defs>
</svg>
