<svg width="75" height="75" viewBox="0 0 75 75" fill="none" xmlns="http://www.w3.org/2000/svg">
<rect width="74.6667" height="74.75" fill="white"/>
<g clip-path="url(#clip0_1_27697)">
<path d="M0 9.375H74.6667V65.375H0V9.375Z" fill="#003399"/>
<path d="M37.3333 18.2849L36.5038 21.0499L37.8863 21.3264L37.3333 18.2849Z" fill="#FFCC00"/>
<path d="M37.3333 18.2849L38.1628 21.0499L36.7803 21.3264L37.3333 18.2849Z" fill="#FFCC00"/>
<path d="M39.963 20.1958L37.0767 20.2611L37.2412 21.6611L39.963 20.1946V20.1958Z" fill="#FFCC00"/>
<path d="M39.963 20.1959L37.5888 21.8397L36.8982 20.61L39.9618 20.1959H39.963Z" fill="#FFCC00"/>
<path d="M38.9585 23.2875L38.0042 20.5622L36.7232 21.1514L38.9585 23.2875Z" fill="#FFCC00"/>
<path d="M38.9585 23.2875L36.6613 21.5375L37.618 20.5015L38.9585 23.2875Z" fill="#FFCC00"/>
<path d="M34.7037 20.1958L37.59 20.2611L37.4255 21.6611L34.7037 20.1946V20.1958Z" fill="#FFCC00"/>
<path d="M34.7037 20.1959L37.0778 21.8397L37.7685 20.61L34.7048 20.1959H34.7037Z" fill="#FFCC00"/>
<path d="M35.7082 23.2875L36.6625 20.5622L37.9435 21.1514L35.7082 23.2875Z" fill="#FFCC00"/>
<path d="M35.7082 23.2875L38.0054 21.5375L37.0487 20.5015L35.7082 23.2875Z" fill="#FFCC00"/>
<path d="M37.3333 51.4706L36.5038 54.2356L37.8863 54.5121L37.3333 51.4706Z" fill="#FFCC00"/>
<path d="M37.3333 51.4706L38.1628 54.2356L36.7803 54.5121L37.3333 51.4706Z" fill="#FFCC00"/>
<path d="M39.963 53.3817L37.0767 53.447L37.2412 54.847L39.963 53.3805V53.3817Z" fill="#FFCC00"/>
<path d="M39.963 53.3817L37.5888 55.0255L36.8982 53.7958L39.9618 53.3817H39.963Z" fill="#FFCC00"/>
<path d="M38.9585 56.4733L38.0042 53.748L36.7232 54.3372L38.9585 56.4733Z" fill="#FFCC00"/>
<path d="M38.9585 56.4733L36.6613 54.7233L37.618 53.6873L38.9585 56.4733Z" fill="#FFCC00"/>
<path d="M34.7037 53.3817L37.59 53.447L37.4255 54.847L34.7037 53.3805V53.3817Z" fill="#FFCC00"/>
<path d="M34.7037 53.3817L37.0778 55.0255L37.7685 53.7958L34.7048 53.3817H34.7037Z" fill="#FFCC00"/>
<path d="M35.7082 56.4733L36.6625 53.748L37.9435 54.3372L35.7082 56.4733Z" fill="#FFCC00"/>
<path d="M35.7082 56.4733L38.0054 54.7233L37.0487 53.6873L35.7082 56.4733Z" fill="#FFCC00"/>
<path d="M20.741 34.8784L19.9115 37.6434L21.294 37.9199L20.741 34.8784Z" fill="#FFCC00"/>
<path d="M20.741 34.8784L21.5705 37.6434L20.188 37.9199L20.741 34.8784Z" fill="#FFCC00"/>
<path d="M23.3707 36.7893L20.4843 36.8546L20.6488 38.2546L23.3707 36.7881V36.7893Z" fill="#FFCC00"/>
<path d="M23.3707 36.7893L20.9965 38.4331L20.3058 37.2035L23.3695 36.7893H23.3707Z" fill="#FFCC00"/>
<path d="M22.3662 39.881L21.4118 37.1556L20.1308 37.7448L22.3662 39.881Z" fill="#FFCC00"/>
<path d="M22.3662 39.881L20.069 38.131L21.0257 37.095L22.3662 39.881Z" fill="#FFCC00"/>
<path d="M18.1102 36.7893L20.9965 36.8546L20.832 38.2546L18.1102 36.7881V36.7893Z" fill="#FFCC00"/>
<path d="M18.1102 36.7893L20.4843 38.4331L21.175 37.2035L18.1113 36.7893H18.1102Z" fill="#FFCC00"/>
<path d="M19.1158 39.881L20.0702 37.1556L21.3512 37.7448L19.1158 39.881Z" fill="#FFCC00"/>
<path d="M19.1158 39.881L21.413 38.131L20.4563 37.095L19.1158 39.881Z" fill="#FFCC00"/>
<path d="M27.615 25.636L29.9122 23.886L28.9555 22.85L27.615 25.636Z" fill="#FFCC00"/>
<path d="M27.615 25.636L28.5694 22.9106L29.8504 23.4998L27.615 25.636Z" fill="#FFCC00"/>
<path d="M26.6105 22.5443L28.9847 24.1881L29.6753 22.9585L26.6117 22.5443H26.6105Z" fill="#FFCC00"/>
<path d="M26.6105 22.5443L29.4968 22.6097L29.3323 24.0097L26.6105 22.5432V22.5443Z" fill="#FFCC00"/>
<path d="M29.2402 20.6334L28.4107 23.3984L29.7932 23.6749L29.2402 20.6334Z" fill="#FFCC00"/>
<path d="M29.2402 20.6334L30.0697 23.3984L28.6872 23.6749L29.2402 20.6334Z" fill="#FFCC00"/>
<path d="M30.8665 25.636L28.5693 23.886L29.526 22.85L30.8665 25.636Z" fill="#FFCC00"/>
<path d="M30.8665 25.636L29.9122 22.9106L28.6312 23.4998L30.8665 25.636Z" fill="#FFCC00"/>
<path d="M31.871 22.5443L29.4968 24.1881L28.8062 22.9585L31.8699 22.5443H31.871Z" fill="#FFCC00"/>
<path d="M31.871 22.5443L28.9847 22.6097L29.1492 24.0097L31.871 22.5432V22.5443Z" fill="#FFCC00"/>
<path d="M24.7147 31.7878L23.7603 29.0625L22.4793 29.6517L24.7147 31.7878Z" fill="#FFCC00"/>
<path d="M24.7147 31.7878L22.4175 30.0378L23.3742 29.0018L24.7147 31.7878Z" fill="#FFCC00"/>
<path d="M21.4632 31.7878L23.7603 30.0378L22.8037 29.0018L21.4632 31.7878Z" fill="#FFCC00"/>
<path d="M21.4632 31.7878L22.4175 29.0625L23.6985 29.6517L21.4632 31.7878Z" fill="#FFCC00"/>
<path d="M20.4587 28.6962L22.8328 30.34L23.5235 29.1103L20.4598 28.6962H20.4587Z" fill="#FFCC00"/>
<path d="M20.4587 28.6962L23.345 28.7615L23.1805 30.1615L20.4587 28.695V28.6962Z" fill="#FFCC00"/>
<path d="M25.7192 28.6962L23.345 30.34L22.6544 29.1103L25.718 28.6962H25.7192Z" fill="#FFCC00"/>
<path d="M25.7192 28.6962L22.8329 28.7615L22.9974 30.1615L25.7192 28.695V28.6962Z" fill="#FFCC00"/>
<path d="M23.0895 26.7852L23.919 29.5502L22.5365 29.8267L23.0895 26.7852Z" fill="#FFCC00"/>
<path d="M23.0895 26.7852L22.26 29.5502L23.6425 29.8267L23.0895 26.7852Z" fill="#FFCC00"/>
<path d="M25.7227 45.3282L22.8363 45.3935L23.0008 46.7935L25.7227 45.327V45.3282Z" fill="#FFCC00"/>
<path d="M25.7227 45.3282L23.3485 46.972L22.6578 45.7424L25.7215 45.3282H25.7227Z" fill="#FFCC00"/>
<path d="M24.717 48.4199L23.7627 45.6945L22.4817 46.2837L24.717 48.4199Z" fill="#FFCC00"/>
<path d="M24.717 48.4199L22.4198 46.6699L23.3765 45.6339L24.717 48.4199Z" fill="#FFCC00"/>
<path d="M21.4667 48.4199L23.7638 46.6699L22.8072 45.6339L21.4667 48.4199Z" fill="#FFCC00"/>
<path d="M21.4667 48.4199L22.421 45.6945L23.702 46.2837L21.4667 48.4199Z" fill="#FFCC00"/>
<path d="M23.0918 43.4172L23.9213 46.1822L22.5388 46.4587L23.0918 43.4172Z" fill="#FFCC00"/>
<path d="M23.0918 43.4172L22.2623 46.1822L23.6448 46.4587L23.0918 43.4172Z" fill="#FFCC00"/>
<path d="M20.4622 45.3282L23.3485 45.3935L23.184 46.7935L20.4622 45.327V45.3282Z" fill="#FFCC00"/>
<path d="M20.4622 45.3282L22.8364 46.972L23.527 45.7424L20.4634 45.3282H20.4622Z" fill="#FFCC00"/>
<path d="M31.724 50.8944L28.8377 50.9597L29.0022 52.3597L31.724 50.8932V50.8944Z" fill="#FFCC00"/>
<path d="M31.724 50.8943L29.3498 52.5382L28.6592 51.3085L31.7228 50.8943H31.724Z" fill="#FFCC00"/>
<path d="M30.7195 53.986L29.7652 51.2607L28.4842 51.8498L30.7195 53.986Z" fill="#FFCC00"/>
<path d="M30.7195 53.986L28.4223 52.236L29.379 51.2L30.7195 53.986Z" fill="#FFCC00"/>
<path d="M27.468 53.986L29.7652 52.236L28.8085 51.2L27.468 53.986Z" fill="#FFCC00"/>
<path d="M27.468 53.986L28.4223 51.2607L29.7034 51.8498L27.468 53.986Z" fill="#FFCC00"/>
<path d="M29.0944 48.9833L29.9239 51.7483L28.5414 52.0248L29.0944 48.9833Z" fill="#FFCC00"/>
<path d="M29.0943 48.9833L28.2648 51.7483L29.6473 52.0248L29.0943 48.9833Z" fill="#FFCC00"/>
<path d="M26.4635 50.8944L29.3498 50.9597L29.1853 52.3597L26.4635 50.8932V50.8944Z" fill="#FFCC00"/>
<path d="M26.4635 50.8943L28.8377 52.5382L29.5283 51.3085L26.4647 50.8943H26.4635Z" fill="#FFCC00"/>
<path d="M53.9257 34.8784L54.7552 37.6434L53.3727 37.9199L53.9257 34.8784Z" fill="#FFCC00"/>
<path d="M53.9257 34.8784L53.0962 37.6434L54.4787 37.9199L53.9257 34.8784Z" fill="#FFCC00"/>
<path d="M51.296 36.7893L54.1824 36.8546L54.0179 38.2546L51.296 36.7881V36.7893Z" fill="#FFCC00"/>
<path d="M51.296 36.7893L53.6702 38.4331L54.3609 37.2035L51.2972 36.7893H51.296Z" fill="#FFCC00"/>
<path d="M52.3005 39.881L53.2548 37.1556L54.5358 37.7448L52.3005 39.881Z" fill="#FFCC00"/>
<path d="M52.3005 39.881L54.5977 38.131L53.641 37.095L52.3005 39.881Z" fill="#FFCC00"/>
<path d="M56.5565 36.7893L53.6702 36.8546L53.8347 38.2546L56.5565 36.7881V36.7893Z" fill="#FFCC00"/>
<path d="M56.5565 36.7893L54.1823 38.4331L53.4917 37.2035L56.5553 36.7893H56.5565Z" fill="#FFCC00"/>
<path d="M55.5509 39.881L54.5965 37.1556L53.3155 37.7448L55.5509 39.881Z" fill="#FFCC00"/>
<path d="M55.5508 39.881L53.2537 38.131L54.2103 37.095L55.5508 39.881Z" fill="#FFCC00"/>
<path d="M47.0517 25.636L44.7545 23.886L45.7112 22.85L47.0517 25.636Z" fill="#FFCC00"/>
<path d="M47.0517 25.636L46.0973 22.9106L44.8163 23.4998L47.0517 25.636Z" fill="#FFCC00"/>
<path d="M48.0562 22.5443L45.682 24.1881L44.9913 22.9585L48.055 22.5443H48.0562Z" fill="#FFCC00"/>
<path d="M48.0562 22.5443L45.1699 22.6097L45.3344 24.0097L48.0562 22.5432V22.5443Z" fill="#FFCC00"/>
<path d="M45.4265 20.6334L46.256 23.3984L44.8735 23.6749L45.4265 20.6334Z" fill="#FFCC00"/>
<path d="M45.4265 20.6334L44.597 23.3984L45.9795 23.6749L45.4265 20.6334Z" fill="#FFCC00"/>
<path d="M43.8002 25.636L46.0973 23.886L45.1407 22.85L43.8002 25.636Z" fill="#FFCC00"/>
<path d="M43.8002 25.636L44.7545 22.9106L46.0355 23.4998L43.8002 25.636Z" fill="#FFCC00"/>
<path d="M42.7957 22.5443L45.1699 24.1881L45.8605 22.9585L42.7968 22.5443H42.7957Z" fill="#FFCC00"/>
<path d="M42.7957 22.5443L45.682 22.6097L45.5175 24.0097L42.7957 22.5432V22.5443Z" fill="#FFCC00"/>
<path d="M49.952 31.7878L50.9064 29.0625L52.1874 29.6517L49.952 31.7878Z" fill="#FFCC00"/>
<path d="M49.952 31.7878L52.2492 30.0378L51.2925 29.0018L49.952 31.7878Z" fill="#FFCC00"/>
<path d="M53.2035 31.7878L50.9063 30.0378L51.863 29.0018L53.2035 31.7878Z" fill="#FFCC00"/>
<path d="M53.2035 31.7878L52.2492 29.0625L50.9682 29.6517L53.2035 31.7878Z" fill="#FFCC00"/>
<path d="M54.208 28.6962L51.8339 30.34L51.1432 29.1103L54.2069 28.6962H54.208Z" fill="#FFCC00"/>
<path d="M54.208 28.6962L51.3217 28.7615L51.4862 30.1615L54.208 28.695V28.6962Z" fill="#FFCC00"/>
<path d="M48.9475 28.6962L51.3217 30.34L52.0123 29.1103L48.9487 28.6962H48.9475Z" fill="#FFCC00"/>
<path d="M48.9475 28.6962L51.8338 28.7615L51.6693 30.1615L48.9475 28.695V28.6962Z" fill="#FFCC00"/>
<path d="M51.5772 26.7852L50.7477 29.5502L52.1302 29.8267L51.5772 26.7852Z" fill="#FFCC00"/>
<path d="M51.5772 26.7852L52.4067 29.5502L51.0242 29.8267L51.5772 26.7852Z" fill="#FFCC00"/>
<path d="M48.944 45.3282L51.8303 45.3935L51.6658 46.7935L48.944 45.327V45.3282Z" fill="#FFCC00"/>
<path d="M48.944 45.3282L51.3182 46.972L52.0088 45.7424L48.9452 45.3282H48.944Z" fill="#FFCC00"/>
<path d="M49.9497 48.4199L50.904 45.6945L52.185 46.2837L49.9497 48.4199Z" fill="#FFCC00"/>
<path d="M49.9497 48.4199L52.2468 46.6699L51.2902 45.6339L49.9497 48.4199Z" fill="#FFCC00"/>
<path d="M53.2 48.4199L50.9028 46.6699L51.8595 45.6339L53.2 48.4199Z" fill="#FFCC00"/>
<path d="M53.2 48.4199L52.2457 45.6945L50.9647 46.2837L53.2 48.4199Z" fill="#FFCC00"/>
<path d="M51.5748 43.4172L50.7453 46.1822L52.1278 46.4587L51.5748 43.4172Z" fill="#FFCC00"/>
<path d="M51.5749 43.4172L52.4044 46.1822L51.0219 46.4587L51.5749 43.4172Z" fill="#FFCC00"/>
<path d="M54.2045 45.3282L51.3182 45.3935L51.4827 46.7935L54.2045 45.327V45.3282Z" fill="#FFCC00"/>
<path d="M54.2045 45.3282L51.8303 46.972L51.1397 45.7424L54.2033 45.3282H54.2045Z" fill="#FFCC00"/>
<path d="M42.9427 50.8944L45.829 50.9597L45.6645 52.3597L42.9427 50.8932V50.8944Z" fill="#FFCC00"/>
<path d="M42.9427 50.8943L45.3169 52.5382L46.0075 51.3085L42.9439 50.8943H42.9427Z" fill="#FFCC00"/>
<path d="M43.9472 53.986L44.9015 51.2607L46.1825 51.8498L43.9472 53.986Z" fill="#FFCC00"/>
<path d="M43.9472 53.986L46.2443 52.236L45.2877 51.2L43.9472 53.986Z" fill="#FFCC00"/>
<path d="M47.1987 53.986L44.9015 52.236L45.8582 51.2L47.1987 53.986Z" fill="#FFCC00"/>
<path d="M47.1987 53.986L46.2443 51.2607L44.9633 51.8498L47.1987 53.986Z" fill="#FFCC00"/>
<path d="M45.5724 48.9833L44.7429 51.7483L46.1254 52.0248L45.5724 48.9833Z" fill="#FFCC00"/>
<path d="M45.5723 48.9833L46.4018 51.7483L45.0193 52.0248L45.5723 48.9833Z" fill="#FFCC00"/>
<path d="M48.2032 50.8944L45.3168 50.9597L45.4813 52.3597L48.2032 50.8932V50.8944Z" fill="#FFCC00"/>
<path d="M48.2032 50.8943L45.829 52.5382L45.1383 51.3085L48.202 50.8943H48.2032Z" fill="#FFCC00"/>
</g>
<defs>
<clipPath id="clip0_1_27697">
<rect width="74.6667" height="56" fill="white" transform="translate(0 9.375)"/>
</clipPath>
</defs>
</svg>
