<svg width="75" height="75" viewBox="0 0 75 75" fill="none" xmlns="http://www.w3.org/2000/svg">
<rect width="74.6667" height="74.75" fill="white"/>
<g clip-path="url(#clip0_1_27824)">
<path d="M0 9.375V65.375H74.6667V9.375H0Z" fill="#68BFE5"/>
<path d="M49.105 31.915V47.8283C49.105 53.0316 58.5084 56.1116 58.5084 56.1116C58.5084 56.1116 67.9 53.0316 67.9 47.8283V31.915H49.105Z" fill="white"/>
<path d="M57.2017 37.515V44.6783H49.105V47.28H57.2017V55.6216L58.5084 56.1233L59.8034 55.6216V47.2916H67.9V44.6783H59.8034V37.515H57.2017Z" fill="#D21034"/>
<path d="M49.105 31.915H67.9V38.075H49.0933L49.105 31.915Z" fill="#D21034"/>
<path d="M50.609 36.5115C51.1916 36.5115 51.6639 36.1295 51.6639 35.6583C51.6639 35.1871 51.1916 34.8051 50.609 34.8051C50.0264 34.8051 49.5541 35.1871 49.5541 35.6583C49.5541 36.1295 50.0264 36.5115 50.609 36.5115Z" fill="white" stroke="black" stroke-width="0.0620536" stroke-miterlimit="3"/>
<path d="M50.609 35.6894C51.1273 35.6894 51.5475 35.4775 51.5475 35.2162C51.5475 34.9549 51.1273 34.743 50.609 34.743C50.0906 34.743 49.6704 34.9549 49.6704 35.2162C49.6704 35.4775 50.0906 35.6894 50.609 35.6894Z" fill="white" stroke="black" stroke-width="0.0620536" stroke-miterlimit="3"/>
<path d="M50.609 36.6434C51.1273 36.6434 51.5475 36.4316 51.5475 36.1702C51.5475 35.9089 51.1273 35.6971 50.609 35.6971C50.0906 35.6971 49.6704 35.9089 49.6704 36.1702C49.6704 36.4316 50.0906 36.6434 50.609 36.6434Z" fill="white" stroke="black" stroke-width="0.0620536" stroke-miterlimit="3"/>
<path d="M50.609 36.1315C51.1273 36.1315 51.5475 35.9197 51.5475 35.6583C51.5475 35.397 51.1273 35.1852 50.609 35.1852C50.0906 35.1852 49.6704 35.397 49.6704 35.6583C49.6704 35.9197 50.0906 36.1315 50.609 36.1315Z" fill="white" stroke="black" stroke-width="0.0620536" stroke-miterlimit="3"/>
<path d="M67.4334 36.8383L67.2817 36.4183C67.2817 36.4183 66.8617 36.2433 66.8267 36.0216C66.7567 35.4266 66.5467 35.205 66.22 35.1116C66.0441 35.0618 65.8557 35.0827 65.695 35.17C65.6017 35.31 65.1117 35.31 64.855 35.3216C64.5867 35.3216 64.575 35.205 64.575 35.205C64.3767 35.205 64.2834 35.0533 64.2834 35.0533C64.155 34.785 64.05 34.68 63.98 34.645C64.33 34.645 64.5867 34.4933 64.9834 34.085C65.4034 33.6416 65.7067 33.805 65.7067 33.805C65.4967 34.225 65.7767 34.19 65.7767 34.19C66.3367 33.8983 65.8467 33.175 65.6834 33.21C65.5084 33.245 65.4617 33.1283 65.4617 33.1283C65.4617 33.2566 65.275 33.315 65.275 33.315C65.415 32.4866 64.925 32.265 64.925 32.265C64.855 32.335 64.8084 32.4866 64.8084 32.4866C64.6684 32.9883 64.2134 32.9066 63.7 32.6616C63.1867 32.4283 61.8334 32.9183 61.4017 33.0933C60.97 33.2683 60.1884 33.525 59.4884 33.14C58.7884 32.7433 58.6134 32.8133 58.3334 32.895C58.065 32.965 57.575 33.0816 57.4 32.9883C57.2766 32.926 57.1414 32.8903 57.0034 32.8833C57.05 32.86 56.98 32.7433 56.98 32.7433C56.7584 32.4516 57.0034 32.2766 57.0034 32.2766C57.0034 32.2766 56.6067 32.3933 56.77 33.07L56.84 33.1633C56.84 33.1633 56.8867 33.385 57.0034 33.4433V33.49C57.0034 33.49 57.1084 33.4433 57.1317 33.5833C57.1667 33.7233 57.3183 33.5833 57.3767 33.4666C57.3767 33.4666 57.2717 34.0966 58.0417 34.2483C58.0417 34.2483 57.96 34.1433 57.9834 34.085C58.0184 34.015 57.89 33.9683 57.9017 33.875C57.9133 33.77 57.715 33.735 57.8667 33.6533C58.03 33.5833 58.1 33.4316 58.45 33.6416C58.7884 33.84 59.0567 33.7933 59.0567 33.7933C59.0567 33.7933 58.8467 33.3733 58.9634 33.3733C59.08 33.3733 59.5934 34.0033 59.8384 33.98C60.095 33.945 60.585 33.6533 60.83 33.7583C60.83 33.7583 60.8533 33.6416 61.7867 33.4783C62.72 33.315 63.8867 32.8483 64.3183 33.2566C64.3183 33.2566 64.365 33.5833 64.5517 33.665C64.5517 33.665 64.5167 34.3416 63.3617 33.9683L62.9417 33.8516C62.9417 33.8516 62.8717 33.6533 60.6667 34.225C60.6667 34.225 60.5383 34.2716 60.445 34.33C60.3633 34.3883 60.2467 34.295 59.8033 34.4466C59.3717 34.6216 57.7383 35.1466 56.735 34.96C56.5133 34.89 56.315 34.925 56.3034 34.89C56.3034 34.855 56.42 34.9016 56.42 34.9016C56.35 34.82 56.315 34.8083 56.315 34.8083C55.475 34.715 55.615 34.3416 55.615 34.3416L55.6617 34.4583C55.8017 34.2716 55.615 33.8516 55.615 33.8516H55.6034C55.6038 33.84 55.6038 33.8283 55.6034 33.8166L55.6617 33.77C56.07 33.42 56.5367 33.3616 56.5367 33.3616C56.2567 33.0116 55.6734 33.1983 55.6734 33.1983C55.685 32.79 55.51 32.3 55.51 32.3C55.1507 32.3589 54.8284 32.5556 54.6117 32.8483C54.5884 32.4166 54.04 32.1716 54.04 32.1716C54.25 32.4166 54.1217 33.0116 54.1217 33.0116H54.145H54.0867L54.075 33.14H54.0517C54.0517 33.14 53.8534 33.21 53.62 33.7466C53.62 33.7466 53.5967 33.8633 53.5034 33.98V33.9333C53.5034 33.9333 53.235 34.2833 52.64 33.9333C52.64 33.9333 51.8234 33.455 51.52 33.4666C51.24 33.49 51.0534 33.6183 51.065 33.7C51.065 33.7 50.4 33.6533 50.1784 34.0266C50.1784 34.0266 49.6767 34.2133 50.1084 34.61C50.1084 34.61 50.1667 34.7966 50.2834 34.89C50.2834 34.89 50.2717 34.5166 50.365 34.6216L50.4234 34.6916C50.435 34.7383 50.4817 34.8783 50.5634 34.96L50.6334 34.9366C50.6334 34.8433 50.6567 34.7266 50.68 34.68H50.7034L50.82 34.8666L50.9367 34.7966C51.0067 34.7966 51.0884 34.855 51.0884 34.855L51.24 34.7266C51.3917 34.75 51.4384 34.4466 51.4384 34.4466C51.4995 34.4618 51.563 34.4645 51.6251 34.4544C51.6873 34.4444 51.7468 34.4219 51.8 34.3883C51.87 34.6216 52.4067 34.89 52.4067 34.89H52.43L52.36 34.9366C52.605 35.1116 53.06 35.065 53.06 35.065C52.8733 35.135 52.8967 35.4966 52.8967 35.4966C52.78 35.5433 52.78 35.6483 52.78 35.6483C53.1534 35.8 53.3984 35.6716 53.3984 35.6716C53.4217 35.7883 53.3984 35.8116 53.3984 35.8116C53.2467 36.1266 53.1767 36.4416 53.1767 36.4416H53.1884V36.465C53.1884 36.465 52.5234 36.6983 52.2434 37.0133C52.2434 37.0133 52.2083 36.92 52.1267 36.92C52.045 36.92 51.8 36.71 51.6834 36.675C51.5667 36.64 51.3917 36.71 51.3334 36.6516C51.2984 36.605 51.3217 36.2316 51.24 36.185L51.1584 35.9516C51.1117 36.0683 50.8784 36.045 50.8784 36.045L50.785 36.115L50.6917 36.1033C50.6684 36.1033 50.645 36.1616 50.6334 36.22L50.5984 36.255V36.185C50.5634 36.22 50.47 36.1733 50.435 36.1733C50.4117 36.1733 50.3883 36.22 50.3767 36.2783L50.155 36.29C50.12 36.3133 50.155 36.5933 50.155 36.5933C49.8867 36.7333 50.015 36.955 50.015 36.955C50.155 37.655 51.3567 37.34 51.45 37.4333C51.5434 37.5266 51.7534 37.55 51.8584 37.55C51.975 37.55 52.1034 37.8066 52.255 37.83C52.4067 37.8533 52.255 37.62 52.9667 37.4566C53.6784 37.2816 53.9234 36.99 53.9234 36.99C54.145 36.9433 54.2034 36.675 54.215 36.57L54.2384 36.7333C54.2734 36.9783 54.0984 37.0833 54.0984 37.0833L54.7167 36.885C54.9617 36.8266 54.9267 36.605 54.9267 36.605C55.16 37.2816 55.5917 37.3283 55.5917 37.3283C55.6734 37.0716 55.6617 36.99 55.6617 36.99H55.86C55.86 36.8383 55.7434 36.7333 55.6617 36.6866L55.965 36.8616L56.0817 36.85C56.0817 36.955 56.2334 37.0483 56.2334 37.0483L56.2567 36.9083C56.3967 37.095 56.6534 37.025 56.6534 37.025C56.6473 36.9934 56.6395 36.9623 56.63 36.9316C57.1784 37.27 58.0534 36.8383 58.0534 36.8383C58.2867 36.885 58.3217 36.745 58.3217 36.745C58.5784 36.78 58.6484 36.5933 58.6484 36.5933C59.2667 36.5466 59.71 36.1033 59.71 36.1033C60.025 36.08 60.0367 35.8583 60.0367 35.8583C60.0367 35.8583 60.34 35.9166 60.6433 35.5433C61.3433 34.5516 62.37 35.0766 62.37 35.0766L61.775 35.1116C60.2 35.1 60.8533 36.1616 60.8533 36.1616H60.9467C61.0984 36.185 61.6117 36.5933 61.4134 36.885V36.9083C61.0867 37.34 60.5033 36.9316 60.3283 36.5583C60.165 36.185 59.815 36.2666 59.815 36.2666C59.815 36.2666 58.94 36.4183 59.3017 37.1183C59.3133 37.2933 59.4183 37.4916 59.745 37.6783C59.92 37.935 60.5034 37.9583 60.9234 37.865C61.1334 37.8416 62.1834 37.375 62.1834 37.375C62.265 37.1416 62.5334 37.2 62.7667 36.8616C63 36.535 62.4284 36.4183 62.3 36.2316C62.1834 36.0566 62.335 36.0916 62.335 36.0916C62.8483 36.36 62.895 35.485 62.895 35.485C62.9103 35.6281 62.9654 35.7641 63.0541 35.8776C63.1427 35.991 63.2614 36.0773 63.3967 36.1266C63.665 35.8583 63.4667 35.2866 63.4667 35.2866C64.1317 36.4766 64.5283 36.2783 64.5283 36.2783C64.1783 36.0683 64.3533 35.765 64.3533 35.765C64.6683 37.025 65.9867 35.9283 65.9867 35.9283C65.9167 36.115 65.9867 36.22 66.1033 36.3366C66.22 36.4533 66.36 36.5 66.29 36.7216C66.2317 36.9316 65.6134 36.885 65.6134 36.885C65.6134 36.885 65.03 36.8616 65.0767 37.3516C65.1117 37.4683 65.4967 37.515 65.66 37.48C65.66 37.48 65.59 37.5033 65.8117 37.5266H66.0683C66.3134 37.5266 66.5933 37.48 66.5933 37.48C66.9317 37.41 66.8734 37.2933 66.8734 37.2933C67.3984 37.2 67.4567 36.85 67.4567 36.85L67.4334 36.8383Z" fill="#FFD100" stroke="black" stroke-width="0.0933333" stroke-miterlimit="3"/>
<path d="M50.12 34.6566C50.12 34.6566 50.155 34.5983 50.2017 34.5866C50.2483 34.5866 50.295 34.61 50.3417 34.68L50.3767 34.6566C50.3767 34.6566 50.2367 34.4466 50.2833 34.3066C50.3183 34.2366 50.3767 34.19 50.47 34.1783V34.1433C50.3533 34.1666 50.2833 34.2133 50.26 34.295C50.2473 34.3205 50.2394 34.3482 50.2367 34.3766C50.2367 34.4466 50.26 34.5166 50.295 34.575C50.2681 34.5554 50.2346 34.547 50.2017 34.5516C50.1813 34.5541 50.162 34.5619 50.1456 34.5741C50.1292 34.5864 50.1164 34.6028 50.1083 34.6216L50.12 34.6566ZM66.57 37.4566C66.22 37.515 65.695 37.5383 65.6483 37.4333C65.6483 37.41 65.6483 37.34 65.9283 37.1533L65.905 37.095C65.66 37.2583 65.555 37.3633 65.59 37.445C65.6717 37.655 66.43 37.5383 66.5817 37.515L66.57 37.4566ZM59.7567 37.655C59.675 37.5383 59.7217 37.3633 59.8733 37.1533L59.815 37.1183C59.6517 37.3516 59.6167 37.5383 59.6983 37.7016L59.7567 37.655Z" fill="black"/>
<path d="M59.2783 37.1183C59.2783 37.34 59.4417 37.5383 59.7333 37.7133L59.7683 37.655C59.4883 37.4916 59.3483 37.305 59.3483 37.1183C59.325 36.8266 59.64 36.5933 59.6517 36.5933L59.6167 36.5466C59.5933 36.5466 59.2667 36.7916 59.2783 37.13V37.1183ZM65.345 37.2C65.2517 37.3516 65.2867 37.5266 65.2867 37.5266H65.345C65.345 37.515 65.3217 37.3633 65.4033 37.235C65.4309 37.1972 65.4658 37.1654 65.5058 37.1413C65.5459 37.1173 65.5904 37.1015 65.6367 37.095V37.0366C65.5083 37.06 65.4033 37.1183 65.3567 37.2H65.345ZM51.45 34.47H51.4267V34.4933C51.4267 34.4933 51.4033 34.68 51.31 34.7266C51.2875 34.7357 51.2624 34.7357 51.24 34.7266L51.0883 34.645C51.065 34.6216 51.0417 34.61 50.995 34.6216C50.9763 34.5991 50.9624 34.573 50.9544 34.5449C50.9464 34.5168 50.9443 34.4873 50.9483 34.4583C50.96 34.3766 51.0183 34.295 51.135 34.225L51.1117 34.19C50.995 34.2716 50.925 34.365 50.9133 34.4583C50.9133 34.575 50.9717 34.645 50.9717 34.645V34.6566H50.995C51.03 34.645 51.03 34.6566 51.065 34.68L51.2283 34.7733H51.345C51.4267 34.715 51.4617 34.5516 51.4617 34.5166C51.835 34.5983 52.1383 34.1316 52.1617 34.12L52.1267 34.0966C52.1267 34.0966 51.8117 34.5633 51.45 34.47Z" fill="black"/>
<path d="M50.5284 34.4C50.5162 34.4808 50.5327 34.5634 50.575 34.6333C50.61 34.6916 50.6567 34.7266 50.6917 34.7383C50.75 34.7383 50.785 34.7033 50.8317 34.6683C50.855 34.645 50.8784 34.6216 50.9017 34.6216L50.9367 34.645L50.96 34.6216L50.9017 34.5866C50.8667 34.5866 50.8317 34.61 50.8084 34.645C50.785 34.68 50.7384 34.7033 50.6917 34.7033C50.6684 34.7033 50.6334 34.6683 50.5984 34.61C50.5795 34.581 50.5666 34.5485 50.5606 34.5144C50.5546 34.4803 50.5555 34.4453 50.5634 34.4116C50.61 34.2483 50.8084 34.12 50.8084 34.12L50.7967 34.085C50.785 34.085 50.575 34.225 50.5284 34.4ZM50.015 36.815C50.0267 36.745 50.085 36.6983 50.1667 36.6516C50.1434 36.6516 50.2367 36.7216 50.3184 36.7216L50.3767 36.6866C50.4 36.71 50.54 36.8383 50.54 37.0016C50.54 37.0366 50.54 37.0716 50.5167 37.1066L50.5517 37.1183C50.6567 36.8733 50.3884 36.6516 50.3884 36.6516H50.365L50.3184 36.6866C50.2484 36.6866 50.1667 36.6166 50.1667 36.6166C50.05 36.6633 50.0034 36.7333 49.98 36.8033L50.015 36.815ZM51.2167 36.185C51.135 36.1966 50.925 36.2316 50.855 36.3483C50.8317 36.395 50.82 36.4416 50.8434 36.4883L50.8667 36.5583C50.9367 36.745 51.0067 36.9316 51.0884 36.9783L51.1 36.9433C51.03 36.9083 50.96 36.71 50.9017 36.5466L50.8784 36.4766C50.8681 36.4589 50.8627 36.4388 50.8627 36.4183C50.8627 36.3978 50.8681 36.3777 50.8784 36.36C50.9367 36.2783 51.135 36.2433 51.2284 36.2316C51.275 36.2316 51.2867 36.4066 51.2984 36.5116H51.3334C51.3217 36.3483 51.2984 36.185 51.2167 36.185Z" fill="black"/>
<path d="M50.6217 36.3716C50.575 36.4066 50.5867 36.465 50.5867 36.4766C50.5867 36.4883 50.61 36.9433 50.82 37.0366L50.8317 37.0016C50.645 36.92 50.6217 36.4766 50.6217 36.465C50.6217 36.465 50.6217 36.4183 50.645 36.395C50.68 36.3716 50.7384 36.36 50.8317 36.395L50.8433 36.36C50.7383 36.325 50.6684 36.3366 50.6217 36.36V36.3716Z" fill="black"/>
<path d="M50.4467 36.4067C50.3534 36.4767 50.365 36.6633 50.365 36.675H50.4C50.4 36.675 50.4 36.4883 50.47 36.4417C50.505 36.4183 50.54 36.4183 50.5867 36.4417L50.5984 36.395C50.54 36.3717 50.4817 36.3717 50.4467 36.395V36.4067Z" fill="black"/>
<path d="M55.5811 33.8976C55.5811 33.8976 55.6819 34.1303 55.6819 34.3087C55.6819 34.3397 55.6664 34.363 55.6586 34.3863L55.6199 34.2854L55.5966 34.363C55.5966 34.363 55.55 34.4716 55.6199 34.5879C55.7129 34.7431 55.9456 34.8362 56.318 34.8749V34.8827C56.3071 34.8825 56.2964 34.8852 56.2869 34.8905L56.2714 34.906V34.937C56.2869 34.9758 56.3257 34.9758 56.411 34.9758L56.4653 34.9835L56.5119 34.9991L56.5041 34.9913C56.5817 34.9913 56.6825 35.0146 56.7834 35.0533L56.7058 35.0689L56.7911 35.1076C56.7989 35.1076 57.4659 35.3791 57.7374 35.5963C57.6599 35.6661 57.3263 35.9066 56.7523 35.767L56.6593 35.7437L56.7213 35.8213C56.7213 35.8213 57.1014 36.2556 57.179 36.5194C57.0471 36.5194 56.5429 36.5194 56.3645 36.3642L56.3257 36.403C56.3257 36.403 56.5584 36.7598 56.6205 37.0313C56.5429 37.0468 56.3878 37.0546 56.2869 36.9227L56.2404 36.8684L56.2171 37.0235C56.1706 36.9848 56.1085 36.9382 56.1085 36.8762V36.8451L55.9689 36.8684L55.6741 36.69C55.6591 36.679 55.6436 36.6686 55.6276 36.659L55.5966 36.7133L55.6431 36.7366C55.7052 36.7831 55.8138 36.8684 55.8215 36.9925H55.6354V37.0313C55.6354 37.0546 55.6354 37.1399 55.5656 37.3183C55.4802 37.3028 55.1544 37.1864 54.9605 36.6357L54.8985 36.6512V36.6667C54.8985 36.721 54.883 36.8451 54.7123 36.8917L54.2081 37.0468C54.2523 36.9833 54.2741 36.9069 54.2702 36.8296V36.7676C54.2607 36.7008 54.2555 36.6334 54.2547 36.5659C54.2547 36.4496 54.2779 36.3797 54.3633 36.3332L54.3322 36.2711C54.3245 36.2711 53.5876 36.5737 53.223 36.4496C53.2385 36.372 53.3006 36.1238 53.4247 35.86L53.4092 35.8756C53.4325 35.86 53.4557 35.829 53.4325 35.7049V35.6661L53.3937 35.6816C53.3937 35.6816 53.161 35.7902 52.8197 35.6661C52.8197 35.6351 52.843 35.5886 52.9128 35.5575L52.936 35.5498V35.4877C52.936 35.3946 52.9438 35.1775 53.0757 35.1309L53.0601 35.0689C53.0601 35.0689 52.6645 35.0999 52.4241 34.968C52.5279 34.8934 52.6472 34.843 52.7731 34.8206H52.7964V34.7896C52.7954 34.7282 52.7822 34.6675 52.7576 34.6112C52.8507 34.6422 52.9593 34.6655 52.9981 34.6345L53.0136 34.6267L52.9981 34.3863H52.936L52.9438 34.5879L52.7111 34.5336L52.618 34.5026L52.6801 34.5802C52.7176 34.6348 52.7366 34.7001 52.7344 34.7663C52.5936 34.7968 52.4612 34.8577 52.3465 34.9448L52.3077 34.9758L52.3465 34.9991C52.5327 35.1232 52.8197 35.1387 52.9671 35.1309C52.901 35.2353 52.8661 35.3564 52.8662 35.48V35.511C52.8354 35.529 52.8089 35.5537 52.7888 35.5832C52.7687 35.6127 52.7554 35.6463 52.7499 35.6816V35.7049L52.7654 35.7127C52.9578 35.8012 53.1762 35.815 53.3782 35.7514V35.8213C53.223 36.147 53.1455 36.4651 53.1455 36.4651V36.4961H53.1687C53.4712 36.6202 53.9987 36.4573 54.2392 36.372C54.2081 36.4263 54.1849 36.4883 54.1849 36.5659C54.1858 36.6543 54.1936 36.7425 54.2081 36.8296C54.2081 37.008 54.0918 37.0778 54.084 37.0778L54.1073 37.1399L54.7278 36.9537C54.8675 36.915 54.9217 36.8296 54.945 36.7598C55.1855 37.3338 55.5656 37.3804 55.5888 37.3881H55.6121L55.6199 37.3648C55.6609 37.2658 55.687 37.1613 55.6974 37.0546C55.7595 37.0522 55.8215 37.0496 55.8836 37.0468V37.008C55.8836 36.9537 55.8758 36.9072 55.8526 36.8684L55.9611 36.9305L56.062 36.915C56.0853 37.0158 56.2094 37.1011 56.2249 37.1089L56.2637 37.1321L56.2869 37.0003C56.4421 37.1321 56.6515 37.0934 56.667 37.0934L56.6903 37.0856V37.0546C56.6592 36.8451 56.5196 36.5969 56.4343 36.4651C56.7058 36.5892 57.2022 36.5814 57.2255 36.5814H57.2565V36.5426C57.1543 36.286 57.0072 36.0496 56.8221 35.8445C57.4582 35.9609 57.7995 35.6273 57.815 35.6118L57.8383 35.5886L57.8072 35.573C57.5285 35.3738 57.2263 35.2097 56.9075 35.0844L56.9773 35.0689L56.8997 35.0301C56.7604 34.9589 56.6062 34.9217 56.4498 34.9215C56.3723 34.8284 56.3335 34.8206 56.3257 34.8129C55.8913 34.7663 55.7362 34.65 55.6741 34.5569V34.5336L55.6897 34.5104C55.7284 34.4561 55.744 34.3863 55.744 34.3087C55.744 34.107 55.6431 33.8821 55.6431 33.8743L55.5811 33.8976Z" fill="black"/>
<path d="M53.6031 33.7735C53.6031 33.7735 53.5566 34.0062 53.3549 34.1225C53.1998 34.2001 53.0059 34.2001 52.7654 34.0993L52.7344 34.0915V34.1225C52.7517 34.2224 52.8074 34.3115 52.8895 34.3708C52.9903 34.4483 53.1455 34.4794 53.3472 34.4638C53.2773 34.5414 53.0679 34.8051 53.0679 35.0689V35.1076C53.0989 35.1232 53.4247 35.2162 53.5799 35.0223C53.5799 35.0999 53.6109 35.3714 53.7117 35.4722C53.7738 35.5343 53.7893 35.6118 53.7893 35.6816C53.7893 35.7437 53.7738 35.7902 53.7738 35.7902L53.7583 35.8368L53.797 35.8057C53.8126 35.798 54.1151 35.573 54.2081 35.286C54.2081 35.286 54.2624 35.2085 54.3555 35.1852V35.224C54.3555 35.3403 54.4021 35.542 54.7278 35.6661L54.7511 35.6739V35.6506C54.7502 35.6325 54.7502 35.6144 54.7511 35.5963C54.7511 35.511 54.7511 35.3636 54.8364 35.286C54.8708 35.2541 54.8939 35.2119 54.9023 35.1658C54.9107 35.1197 54.9039 35.072 54.883 35.0301C54.9528 35.0456 55.1079 35.0999 55.17 35.2162C55.2631 35.3869 55.5811 35.2473 55.5966 35.2473L55.5888 35.2085C55.5888 35.2085 55.4492 35.2395 55.3639 35.1852C55.346 35.1712 55.3313 35.1536 55.3206 35.1336C55.3099 35.1136 55.3035 35.0915 55.3018 35.0689L55.2863 34.8827C55.2863 34.8051 55.2708 34.7508 55.232 34.7121C55.2708 34.7121 55.3561 34.7121 55.3872 34.7896C55.4492 34.9137 55.6431 34.9215 55.6509 34.9215L55.7207 34.9292L55.6664 34.8905C55.6664 34.8905 55.4958 34.7819 55.5268 34.6345L55.5501 34.5259C55.5966 34.332 55.6742 34.0139 55.6044 33.8123L55.5733 33.8278C55.5888 33.8743 55.5966 33.9364 55.5966 33.9984C55.5966 34.1691 55.5423 34.3863 55.519 34.5181L55.488 34.6267C55.4868 34.6396 55.4868 34.6526 55.488 34.6655C55.488 34.7663 55.5423 34.8362 55.5888 34.8749C55.5345 34.8672 55.457 34.8362 55.4337 34.7741C55.3794 34.6655 55.2553 34.6655 55.201 34.6733L55.1545 34.681L55.1855 34.7121C55.2398 34.7431 55.2475 34.7896 55.2475 34.8905L55.2631 35.0689C55.2708 35.1309 55.3018 35.1775 55.3406 35.2085C55.3872 35.2395 55.4337 35.2395 55.4725 35.2473C55.3794 35.2705 55.2475 35.286 55.201 35.2007C55.1157 35.0301 54.8675 34.9913 54.8597 34.9835H54.8209L54.8364 35.0146C54.8364 35.0146 54.8675 35.0611 54.8675 35.1232C54.8675 35.1619 54.852 35.2162 54.8132 35.255C54.7279 35.3403 54.7123 35.5032 54.7123 35.5886V35.6196C54.4331 35.5032 54.3866 35.3326 54.3866 35.2317V35.1542L54.4021 35.1309H54.371C54.3302 35.1379 54.2915 35.154 54.2579 35.1782C54.2243 35.2024 54.1967 35.234 54.1771 35.2705C54.1 35.4601 53.9743 35.626 53.8126 35.7514C53.817 35.7258 53.8196 35.6999 53.8203 35.6739C53.8203 35.6041 53.8048 35.5187 53.7427 35.4489C53.6264 35.3403 53.6109 34.9835 53.6109 34.9835V34.9215L53.5799 34.9758C53.4558 35.193 53.0989 35.0844 53.0912 35.0844C53.0757 34.8129 53.4015 34.4561 53.4015 34.4483L53.4325 34.4173H53.3859C53.1765 34.4483 53.0136 34.4173 52.905 34.3397C52.8434 34.2906 52.7997 34.2224 52.7809 34.1458C53.0136 34.2311 53.2153 34.2389 53.3704 34.1536C53.4375 34.1128 53.4955 34.0588 53.5409 33.9947C53.5862 33.9307 53.618 33.858 53.6342 33.7812C53.8669 33.2693 54.0608 33.184 54.0608 33.184L54.053 33.153C54.0375 33.153 53.8358 33.2305 53.6031 33.7735Z" fill="black"/>
<path d="M54.1228 33.0056H54.1073L53.9211 33.2615H53.9754C54.5542 33.3071 55.097 33.5606 55.5035 33.9752L55.5268 33.9984L55.7052 33.8045L55.6897 33.7812C55.1855 32.9901 54.1306 33.0056 54.1151 33.0056H54.1228ZM54.1383 33.0754C54.2624 33.0754 55.1622 33.0987 55.6276 33.7968L55.5268 33.9054C55.1175 33.5164 54.5912 33.2737 54.0297 33.215C54.0658 33.1684 54.102 33.1219 54.1383 33.0754Z" fill="black"/>
<path d="M53.9754 33.533C53.8919 33.6422 53.836 33.7699 53.8125 33.9053L53.8203 33.9364C53.7664 33.9929 53.7248 34.06 53.6981 34.1334C53.6714 34.2069 53.6602 34.285 53.6651 34.363C53.6651 34.4638 53.6807 34.5647 53.7117 34.6577L53.735 34.712C53.828 34.9758 53.9134 35.2085 54.34 35.0688C54.7433 34.9447 54.7588 34.9137 54.8597 34.7431L54.8907 34.7043C54.945 34.6112 55.0071 34.5957 55.0691 34.5724C55.1467 34.5491 55.2242 34.5259 55.3018 34.3862L55.3639 34.2854C55.4414 34.1846 55.5345 34.0527 55.5423 33.8976H55.5112C55.4882 34.0322 55.4292 34.1582 55.3406 34.2621L55.263 34.3707C55.2461 34.4136 55.2188 34.4516 55.1837 34.4814C55.1485 34.5112 55.1064 34.5318 55.0614 34.5414C55.0199 34.5493 54.9805 34.5658 54.9457 34.5898C54.911 34.6139 54.8817 34.6449 54.8597 34.681L54.8287 34.7275C54.7356 34.8904 54.7201 34.9137 54.3245 35.0378C53.9366 35.1619 53.8591 34.968 53.766 34.6965L53.7427 34.6422C53.6341 34.3475 53.7194 34.0527 53.8668 33.9441L53.9134 33.9053L53.8436 33.9131V33.9053C53.8436 33.851 53.8979 33.7037 53.9987 33.5563C54.0918 33.4322 54.309 33.3158 54.309 33.3081L54.2934 33.277C54.2779 33.2848 54.0685 33.4089 53.9754 33.533Z" fill="black"/>
<path d="M53.7892 34.6112C53.859 34.6577 53.9521 34.65 54.0762 34.6112C54.0762 34.65 54.0762 34.743 54.1538 34.8051C54.2469 34.8827 54.3865 34.8982 54.5804 34.8516V34.8129C54.3943 34.8594 54.2546 34.8439 54.1771 34.7741C54.1524 34.7501 54.1334 34.721 54.1213 34.6888C54.1092 34.6566 54.1044 34.6222 54.1073 34.5879V34.5569L54.084 34.5724C53.9676 34.6189 53.8746 34.6267 53.8047 34.5724C53.6884 34.4948 53.6962 34.2854 53.6962 34.2854H53.6651C53.6651 34.2854 53.6496 34.5181 53.7892 34.6112Z" fill="black"/>
<path d="M54.0065 34.3242C53.9599 34.3397 53.9444 34.3785 53.9444 34.4095V34.4328C53.9599 34.5259 54.0608 34.5879 54.1461 34.6112C54.2392 34.6345 54.3478 34.6422 54.3865 34.5879C54.4021 34.5647 54.4176 34.5259 54.3865 34.4561C54.3532 34.3906 54.2959 34.3404 54.2267 34.3159C54.1574 34.2914 54.0814 34.2943 54.0142 34.3242H54.0065ZM54.1616 34.5802C54.084 34.5569 53.991 34.5026 53.9832 34.425C53.9832 34.425 53.9754 34.3707 54.022 34.3552C54.0819 34.3309 54.1488 34.3302 54.2093 34.3533C54.2697 34.3763 54.3192 34.4213 54.3478 34.4793C54.371 34.5104 54.371 34.5414 54.3555 34.5569C54.3322 34.5957 54.2469 34.6035 54.1616 34.5802ZM54.1306 34.7896C54.1073 34.9835 54.1306 34.9913 54.1383 34.9913H54.1538L54.1694 34.9835L54.2779 34.8284L54.1383 34.7663V34.7896H54.1306ZM54.1694 34.8206L54.2237 34.8439L54.1616 34.9292V34.8206H54.1694ZM53.8436 34.6345L53.8358 34.8129L53.9909 34.6267L53.8358 34.6112V34.6345H53.8436ZM53.8746 34.65H53.9211L53.8746 34.712V34.65Z" fill="black"/>
<path d="M53.7349 34.5724C53.7349 34.5724 53.8513 34.7974 53.8746 34.8827C53.8823 34.9292 53.9521 34.9913 54.0297 35.0146C54.1073 35.0456 54.1848 35.0456 54.2391 35.0068L54.34 34.9215C54.371 34.8827 54.3865 34.8749 54.4175 34.8827V34.8439C54.371 34.8439 54.3477 34.8594 54.3167 34.8905L54.2159 34.968C54.1538 35.0146 54.084 34.999 54.0452 34.9835C53.9676 34.9603 53.9134 34.906 53.9056 34.8672C53.8823 34.7896 53.7737 34.5647 53.766 34.5569L53.7349 34.5724ZM53.8901 33.9054C53.8026 33.9514 53.736 34.0291 53.7039 34.1225L53.7349 34.1303C53.7349 34.1303 53.7892 33.9907 53.8978 33.9364C53.9271 33.9231 53.9588 33.9162 53.9909 33.9162C54.023 33.9162 54.0548 33.9231 54.084 33.9364L54.0918 33.9054C54.0142 33.8743 53.9521 33.8743 53.8823 33.9054H53.8901ZM54.7278 34.3087C54.7433 34.3087 54.976 34.4949 54.8442 34.712L54.8674 34.7353C55.0226 34.4793 54.7511 34.2777 54.7511 34.2699L54.7278 34.3087ZM54.0142 34.3397C54.0142 34.3397 53.9754 34.4716 54.1693 34.5181C54.1693 34.5181 53.9909 34.5181 53.9754 34.4716C53.9676 34.425 53.9754 34.3242 54.0142 34.3397ZM54.5959 34.4949C54.5959 34.5104 54.5804 34.5181 54.5727 34.5181C54.5676 34.5184 54.5626 34.5171 54.5584 34.5143C54.5542 34.5115 54.5511 34.5074 54.5494 34.5026C54.5494 34.4871 54.5572 34.4793 54.5727 34.4793C54.5804 34.4793 54.5959 34.4871 54.5959 34.5026V34.4949ZM54.6115 34.5879C54.6115 34.5957 54.6115 34.6035 54.5959 34.6035C54.5909 34.6037 54.5859 34.6024 54.5817 34.5996C54.5775 34.5968 54.5743 34.5927 54.5727 34.5879C54.5727 34.5818 54.5751 34.5758 54.5795 34.5715C54.5839 34.5671 54.5898 34.5647 54.5959 34.5647C54.6037 34.5647 54.6115 34.5724 54.6115 34.5879Z" fill="black"/>
<path d="M54.4718 34.5647C54.4847 34.5647 54.4951 34.5542 54.4951 34.5414C54.4951 34.5285 54.4847 34.5181 54.4718 34.5181C54.459 34.5181 54.4485 34.5285 54.4485 34.5414C54.4485 34.5542 54.459 34.5647 54.4718 34.5647Z" fill="black"/>
<path d="M54.5339 34.6655C54.5339 34.6717 54.5315 34.6776 54.5271 34.682C54.5227 34.6863 54.5168 34.6888 54.5106 34.6888C54.5045 34.6888 54.4986 34.6863 54.4942 34.682C54.4898 34.6776 54.4874 34.6717 54.4874 34.6655C54.4874 34.6578 54.4951 34.65 54.5106 34.65L54.5339 34.6655ZM53.9832 34.0993C53.9832 34.1054 53.9807 34.1114 53.9764 34.1157C53.972 34.1201 53.9661 34.1225 53.9599 34.1225C53.9537 34.1225 53.9478 34.1201 53.9435 34.1157C53.9391 34.1114 53.9366 34.1054 53.9366 34.0993C53.9388 34.0961 53.9417 34.0934 53.945 34.0916C53.9484 34.0898 53.9522 34.0889 53.956 34.0889C53.9599 34.0889 53.9637 34.0898 53.967 34.0916C53.9704 34.0934 53.9733 34.0961 53.9754 34.0993H53.9832Z" fill="black"/>
<path d="M53.9754 34.2079C53.9883 34.2079 53.9987 34.1974 53.9987 34.1846C53.9987 34.1717 53.9883 34.1613 53.9754 34.1613C53.9626 34.1613 53.9521 34.1717 53.9521 34.1846C53.9521 34.1974 53.9626 34.2079 53.9754 34.2079Z" fill="black"/>
<path d="M53.8591 34.169C53.8719 34.169 53.8824 34.1586 53.8824 34.1458C53.8824 34.1329 53.8719 34.1225 53.8591 34.1225C53.8462 34.1225 53.8358 34.1329 53.8358 34.1458C53.8358 34.1586 53.8462 34.169 53.8591 34.169Z" fill="black"/>
<path d="M53.9134 34.2699C53.9136 34.275 53.9123 34.28 53.9095 34.2842C53.9067 34.2884 53.9026 34.2915 53.8978 34.2932C53.8917 34.2932 53.8858 34.2907 53.8814 34.2864C53.877 34.282 53.8746 34.2761 53.8746 34.2699C53.8746 34.2638 53.877 34.2578 53.8814 34.2535C53.8858 34.2491 53.8917 34.2467 53.8978 34.2467C53.9026 34.2483 53.9067 34.2515 53.9095 34.2557C53.9123 34.2599 53.9136 34.2649 53.9134 34.2699ZM54.2857 33.5253C54.2857 33.5253 54.5572 33.6959 54.2934 34.014C54.2934 34.014 54.4253 33.9131 54.4331 33.7502C54.4486 33.5873 54.34 33.4555 54.2779 33.5253H54.2857ZM55.3328 33.9829C55.2398 34.0295 55.1156 33.9441 55.0536 33.8666C54.9915 33.789 54.8597 33.7657 54.7744 33.9131C54.6968 34.0527 54.5804 34.107 54.5804 34.107C54.5804 34.107 54.6968 34.045 54.8131 33.9131C54.9295 33.789 54.9993 33.8899 55.1156 33.9519C55.2242 34.014 55.2475 34.0295 55.3251 33.9907V33.9829H55.3328Z" fill="black"/>
<path d="M55.3096 34.0061C55.2848 34.0253 55.2541 34.0351 55.2228 34.0336C55.1916 34.0322 55.1618 34.0197 55.1389 33.9984C55.0614 33.9363 55.0071 33.8588 54.9217 33.9053C54.8287 33.9519 54.6658 34.076 54.6658 34.076C54.6658 34.076 54.9373 33.8898 54.9916 33.9363C55.0381 33.9751 55.1622 34.076 55.232 34.0449L55.3096 34.0061Z" fill="black"/>
<path d="M55.1001 34.1148C55.0148 34.0527 54.9295 34.1924 54.8596 34.1769C54.7821 34.1613 54.7278 34.0372 54.7278 34.0372C54.7278 34.0372 54.7898 34.1613 54.8829 34.1381C54.9838 34.107 55.0458 34.045 55.1079 34.0915C55.1622 34.1381 55.1001 34.1148 55.1001 34.1148Z" fill="black"/>
<path d="M54.9683 34.138C54.9461 34.1426 54.9232 34.1422 54.9012 34.137C54.8792 34.1317 54.8586 34.1217 54.8409 34.1077C54.8231 34.0936 54.8087 34.0759 54.7985 34.0557C54.7884 34.0355 54.7828 34.0133 54.7821 33.9907C54.7821 33.9907 54.8364 34.1303 54.9838 34.107L54.9683 34.138Z" fill="black"/>
<path d="M54.9606 34.0294C54.9683 34.0682 54.9683 34.0915 54.9218 34.0915C54.8752 34.0915 54.8442 34.076 54.8442 34.0294C54.8442 33.9906 54.9528 33.9984 54.9606 34.0294ZM54.3555 33.7967C54.3537 33.8097 54.3471 33.8216 54.3371 33.8302C54.3271 33.8388 54.3144 33.8434 54.3012 33.8433C54.2702 33.8433 54.2625 33.8278 54.2625 33.7967C54.2625 33.7657 54.2625 33.7424 54.3012 33.7424C54.34 33.7424 54.3555 33.7657 54.3555 33.7967Z" fill="black"/>
<path d="M54.1616 33.6028C54.1616 33.6028 54.4563 33.6028 54.3167 33.9674C54.3167 33.9674 54.4253 33.789 54.3555 33.6571C54.2779 33.533 54.1771 33.5641 54.1771 33.5641C54.1771 33.5641 54.1461 33.5873 54.1616 33.6028Z" fill="black"/>
<path d="M54.1616 33.7502C54.1616 33.8278 54.2081 33.8976 54.3012 33.9752L54.3245 33.9441C54.2391 33.8743 54.1926 33.8123 54.1926 33.7502C54.1926 33.6882 54.2391 33.6494 54.2391 33.6494L54.2159 33.6261C54.2159 33.6261 54.1616 33.6726 54.1538 33.7502H54.1616Z" fill="black"/>
<path d="M54.2236 33.8122C54.2314 33.851 54.2702 33.8898 54.3167 33.9053L54.3322 33.8743C54.2934 33.8588 54.2624 33.8278 54.2547 33.7967C54.2391 33.7347 54.2857 33.6649 54.2857 33.6649L54.2547 33.6416C54.2547 33.6416 54.2004 33.7347 54.2236 33.8122ZM54.6192 34.0139C54.6192 34.0139 54.6735 34.1303 54.596 34.2544L54.5184 34.3785C54.5184 34.3785 54.6115 34.2001 54.5727 34.1303C54.5417 34.0527 54.6192 34.0139 54.6192 34.0139ZM55.7517 35.2395C56.0465 35.2938 56.7213 35.8212 56.7213 35.8212L56.7601 35.7747C56.7368 35.7514 56.0697 35.2317 55.7595 35.1774L55.7439 35.2395H55.7517ZM56.0154 35.9764C56.0309 36.2479 56.3257 36.4107 56.3257 36.4185L56.3645 36.3642C56.3645 36.3642 56.093 36.2091 56.0775 35.9764H56.0154ZM55.2941 36.0384C55.2941 36.3332 55.5733 36.69 55.5888 36.7055L55.6354 36.6667C55.6354 36.6667 55.3561 36.3099 55.3561 36.0384H55.2941ZM54.3555 36.0694C54.402 36.1703 54.402 36.2168 54.3865 36.2401C54.371 36.2711 54.34 36.2711 54.34 36.2711L54.3477 36.3332C54.371 36.3332 54.4175 36.3177 54.4408 36.2711C54.4718 36.2168 54.4641 36.1393 54.4098 36.0384L54.3555 36.0694Z" fill="black"/>
<path d="M50.12 34.61C50.12 34.61 50.1317 34.8083 50.2833 34.925C50.2833 34.925 50.2717 34.715 50.3183 34.6216C50.3183 34.6216 50.2367 34.5283 50.12 34.61ZM50.4233 34.7266C50.4233 34.7266 50.4583 34.9133 50.5633 34.995L50.6333 34.9833C50.6333 34.9833 50.6567 34.75 50.6917 34.7266C50.7267 34.7033 50.54 34.8083 50.4233 34.7266Z" fill="white" stroke="black" stroke-width="0.0233333" stroke-miterlimit="3"/>
<path d="M50.6917 34.7266L50.8084 34.9133L50.9484 34.8316L50.925 34.6216C50.925 34.6216 50.8434 34.5983 50.6917 34.7266ZM51.24 34.7616L51.0884 34.89C51.0884 34.89 51.0067 34.8316 50.9484 34.8316L50.9717 34.6333C50.9717 34.6333 51.0884 34.5516 51.24 34.7616ZM50.155 36.6283C50.155 36.6283 50.1317 36.3483 50.155 36.3366C50.155 36.3366 50.2717 36.3716 50.3184 36.3366C50.3184 36.3366 50.3767 36.5466 50.365 36.64C50.3417 36.7333 50.2367 36.6983 50.155 36.64V36.6283ZM50.855 36.3483C50.855 36.3483 50.8434 36.115 50.8784 36.08C50.8784 36.08 51.1117 36.115 51.1584 35.9866L51.24 36.22C51.24 36.22 50.995 36.185 50.8434 36.3366L50.855 36.3483Z" fill="white" stroke="black" stroke-width="0.0233333" stroke-miterlimit="3"/>
<path d="M50.61 36.395C50.61 36.395 50.645 36.15 50.6917 36.1383C50.6917 36.1383 50.8083 36.1733 50.8433 36.1266V36.43C50.8433 36.43 50.8433 36.3016 50.61 36.395ZM50.3417 36.43C50.3417 36.43 50.4 36.2083 50.435 36.2083C50.47 36.2083 50.5517 36.2666 50.5983 36.2316V36.395C50.5983 36.395 50.4117 36.3483 50.3767 36.6166L50.3417 36.43Z" fill="white" stroke="black" stroke-width="0.0233333" stroke-miterlimit="3"/>
<path d="M53.865 40.9216C53.865 40.9216 54.4717 41.4933 54.32 41.995C54.32 41.995 54.705 41.1433 54.285 40.8866C53.865 40.6533 53.8534 40.8283 53.865 40.9216Z" fill="#00A651" stroke="black" stroke-width="0.0583333" stroke-miterlimit="4.8"/>
<path d="M53.0833 41.47C53.0833 41.47 52.9317 41.7033 53.1067 41.855C53.1067 41.855 52.9083 42.135 53.06 42.3683C53.06 42.3683 52.9433 42.6134 52.9667 42.8817C52.9667 42.8817 52.8733 43.29 53.0833 43.4767C53.0833 43.4767 53.3167 43.5933 53.4333 43.4883C53.4333 43.4883 53.6317 43.185 53.5033 42.87C53.5033 42.87 53.6433 42.6017 53.48 42.2633C53.48 42.2633 53.5267 42.0767 53.3983 41.855C53.3983 41.855 53.48 41.715 53.41 41.5984C53.41 41.5984 53.1183 41.2834 53.0833 41.4817V41.47Z" fill="#964B36" stroke="black" stroke-width="0.0583333" stroke-miterlimit="4.8"/>
<path d="M53.2583 40.7583C53.2583 40.7583 52.535 39.3583 52.0217 39.3C51.5083 39.2417 51.485 38.74 51.485 38.74C51.485 38.74 51.5433 38.9733 51.9517 38.9733C52.36 38.9733 53.1417 39.5567 53.235 39.9883C53.3167 40.42 53.41 40.3617 53.41 40.3617L53.2583 40.7583Z" fill="#00A651" stroke="black" stroke-width="0.0583333" stroke-miterlimit="4.8"/>
<path d="M53.2584 40.6533C53.2584 40.6533 53.5267 38.8916 54.6817 38.8566C55.8367 38.8333 55.4517 38.95 55.7317 38.7633C55.7317 38.7633 54.9617 39.16 54.4834 39.23C53.9934 39.2766 53.5967 40.2216 53.62 40.3966C53.62 40.5716 53.3517 40.91 53.2234 40.7933C53.0834 40.6766 53.2584 40.6533 53.2584 40.6533Z" fill="#00A651" stroke="black" stroke-width="0.0583333" stroke-miterlimit="4.8"/>
<path d="M53.5266 41.3183C53.5266 41.3183 53.795 40.6183 54.2383 40.8517C54.2383 40.8517 53.8883 40.175 53.2583 40.7583C53.2583 40.7583 53.5383 41.1433 53.5266 41.3183ZM52.6516 40.6183C52.6516 40.6183 53.025 42.1817 52.4416 42.66C52.4416 42.66 52.465 41.855 52.1033 41.3767C51.7533 40.8867 52.4533 40.3617 52.6516 40.6183Z" fill="#00A651" stroke="black" stroke-width="0.0583333" stroke-miterlimit="4.8"/>
<path d="M52.6983 40.8867C52.6983 40.8867 53.3867 41.5517 53.4217 41.7733C53.4683 41.9833 53.6317 41.1083 53.305 40.8633C52.9783 40.6183 52.64 40.5717 52.64 40.5717L52.6983 40.8983V40.8867Z" fill="#00A651" stroke="black" stroke-width="0.0583333" stroke-miterlimit="4.8"/>
<path d="M51.4266 42.625C51.4266 42.625 51.485 42.8933 51.66 42.9516C51.66 42.9516 51.66 43.15 51.8233 43.2083C51.8233 43.2083 51.7416 43.3833 51.87 43.4883C51.87 43.4883 51.8466 43.8383 51.9633 43.8966C51.9633 43.8966 52.2783 43.885 52.3833 43.7916C52.3833 43.7916 52.4416 43.57 52.2666 43.3483C52.2666 43.3483 52.3016 43.1383 52.1266 43.0216C52.1266 43.0216 52.185 42.73 51.9633 42.625C51.9633 42.625 51.9283 42.3916 51.8 42.275C51.8 42.275 51.5433 42.6366 51.4266 42.625Z" fill="#964B36" stroke="black" stroke-width="0.0583333" stroke-miterlimit="4.8"/>
<path d="M51.765 42.275C51.765 42.275 50.8667 41.9483 50.365 42.415C50.365 42.415 51.135 42.5316 51.2283 42.6833C51.3217 42.835 51.8 42.4266 51.765 42.275Z" fill="#00A651" stroke="black" stroke-width="0.0583333" stroke-miterlimit="4.8"/>
<path d="M51.485 42.835L51.3217 42.7183C51.24 42.6483 50.4817 42.45 50.3767 43.185C50.3767 43.185 50.0967 42.45 50.4934 42.3683C50.9017 42.2516 51.2167 42.485 51.485 42.835ZM50.9017 41.3416C50.9017 41.3416 51.17 41.9483 51.275 41.9716C51.38 42.0066 51.45 41.9016 51.45 41.9016C51.45 41.9016 51.0884 41.365 50.89 41.3416H50.9017ZM51.275 41.9133C51.275 41.9133 51.0417 41.1433 50.7617 41.3533C50.4817 41.5516 50.5517 42.1116 50.5517 42.1116C50.5517 42.1116 50.0034 41.5283 50.3184 41.085C50.645 40.63 51.275 41.1316 51.275 41.9133Z" fill="#00A651" stroke="black" stroke-width="0.0583333" stroke-miterlimit="4.8"/>
<path d="M51.3217 42.0183C51.3217 42.0183 51.3217 42.17 51.4267 42.205C51.52 42.2516 51.7183 42.3216 51.7183 42.24C51.7183 42.1583 51.5667 41.8083 51.5083 41.855C51.45 41.9016 51.345 41.9016 51.3217 42.0183Z" fill="#964B36" stroke="black" stroke-width="0.0583333" stroke-miterlimit="4.8"/>
<path d="M51.1466 41.1083C51.1466 41.1083 51.1116 40.4433 51.555 40.1867C51.555 40.1867 51.6366 40.21 51.6833 40.07C51.6833 40.07 51.3333 40.9217 51.4383 41.3533L51.4266 41.4" fill="#00A651"/>
<path d="M51.1466 41.1083C51.1466 41.1083 51.1116 40.4433 51.555 40.1867C51.555 40.1867 51.6366 40.21 51.6833 40.07C51.6833 40.07 51.3333 40.9217 51.4383 41.3533L51.4266 41.4" stroke="black" stroke-width="0.0583333" stroke-miterlimit="4.8"/>
<path d="M51.2283 40.2917C51.2283 40.2917 52.0217 38.6583 52.9783 39.23C52.9783 39.23 51.975 39.4283 51.6133 40.1517L51.2517 40.6883L51.2283 40.2917Z" fill="#00A651" stroke="black" stroke-width="0.0583333" stroke-miterlimit="4.8"/>
<path d="M50.8083 40.8867C50.8083 40.8867 50.575 39.79 50.4233 39.65C50.2833 39.4983 50.0383 39.3467 49.735 39.5917C49.735 39.5917 50.2483 39.1367 50.785 39.5217C51.3333 39.895 51.2167 40.5017 51.2167 40.5017L51.1583 41.26L50.7967 40.9217" fill="#00A651"/>
<path d="M50.8083 40.8867C50.8083 40.8867 50.575 39.79 50.4233 39.65C50.2833 39.4983 50.0383 39.3467 49.735 39.5917C49.735 39.5917 50.2483 39.1367 50.785 39.5217C51.3333 39.895 51.2167 40.5017 51.2167 40.5017L51.1583 41.26L50.7967 40.9217" stroke="black" stroke-width="0.0583333" stroke-miterlimit="4.8"/>
<path d="M51.66 42.1933C51.66 42.1933 50.6916 40.3617 50.0616 41.6683C50.0616 41.6683 49.945 42.0067 50.0733 42.135C50.0733 42.135 49.7233 41.8667 49.8866 41.225C50.05 40.5833 51.1116 40.875 51.4266 41.4C51.73 41.925 51.8116 42.1933 51.7766 42.2167C51.73 42.2517 51.66 42.1933 51.66 42.1933ZM54.3783 42.7183C54.3783 42.7183 55.0783 41.2717 55.4866 41.925C55.4866 41.925 55.6033 42.2517 55.4283 42.3917C55.4283 42.3917 55.1483 42.0417 54.9033 42.4617C54.6466 42.87 54.7516 42.835 54.7516 42.835C54.7516 42.835 54.495 42.905 54.3783 42.7183Z" fill="#00A651" stroke="black" stroke-width="0.0583333" stroke-miterlimit="4.8"/>
<path d="M55.4166 42.3917C55.4166 42.3917 55.8016 42.59 55.6733 42.9983C55.6733 42.9983 56.1866 42.0183 55.4866 41.925C55.4866 41.925 55.615 42.24 55.4283 42.3917H55.4166ZM55.475 41.3883C55.475 41.3883 56.3966 41.6567 56.42 42.0533C56.42 42.0533 56.5833 41.2833 56.0583 41.05C56.0583 41.05 55.4283 41.1667 55.475 41.4V41.3883Z" fill="#00A651" stroke="black" stroke-width="0.0583333" stroke-miterlimit="4.8"/>
<path d="M55.8833 40.175C56.28 39.405 56.77 40.42 56.77 40.42C56.77 40.42 56.945 39.615 56.455 39.475C55.9533 39.3233 55.6383 41.19 55.6383 41.19L55.055 41.3067C55.055 41.3067 55.2067 39.6967 56.0817 39.5567H56.1983" fill="#00A651"/>
<path d="M55.8833 40.175C56.28 39.405 56.77 40.42 56.77 40.42C56.77 40.42 56.945 39.615 56.455 39.475C55.9533 39.3233 55.6383 41.19 55.6383 41.19L55.055 41.3067C55.055 41.3067 55.2067 39.6967 56.0817 39.5567H56.1983" stroke="black" stroke-width="0.0583333" stroke-miterlimit="4.8"/>
<path d="M55.1833 40.6417C55.1833 40.6417 54.6233 39.4984 54.25 39.3817C53.8767 39.265 54.4483 39.09 54.6817 39.3117C54.915 39.5333 55.3583 39.8133 55.3117 40.3967L55.1833 40.6417ZM54.6 42.205C54.6 42.205 54.7633 41.435 55.2067 41.2017C55.65 40.9683 56.0583 41.05 56.0583 41.05C56.0583 41.05 55.5333 41.1667 55.44 41.435C55.3583 41.6917 55.2067 41.715 55.2067 41.715L54.6117 42.205H54.6Z" fill="#00A651" stroke="black" stroke-width="0.0583333" stroke-miterlimit="4.8"/>
<path d="M54.3667 42.7183C54.3667 42.7183 54.1333 43.185 54.18 43.255C54.18 43.255 53.9233 43.64 54.0283 43.8383C54.0283 43.8383 54.285 44.0367 54.4017 43.955C54.4017 43.955 54.705 43.5233 54.6233 43.29C54.6233 43.29 54.8333 43.01 54.7517 42.835C54.7517 42.835 54.4483 42.8467 54.3783 42.7183H54.3667Z" fill="#964B36" stroke="black" stroke-width="0.0583333" stroke-miterlimit="4.8"/>
<path d="M53.0834 41.8783C53.1067 41.89 53.2584 41.96 53.3517 41.925L53.4217 41.8667L53.3634 41.8433C53.3284 41.9133 53.165 41.855 53.1184 41.8317L53.095 41.8783H53.0834ZM53.0717 42.345L53.0484 42.4033C53.06 42.4033 53.3634 42.4617 53.5034 42.3333L53.4567 42.2867C53.34 42.3917 53.0717 42.3333 53.06 42.3333L53.0717 42.345ZM52.99 42.8583L52.955 42.905C52.955 42.905 53.305 43.15 53.5267 42.8817L53.4684 42.8467C53.2934 43.0683 53.0017 42.87 52.99 42.8467V42.8583ZM51.6484 42.9283L51.66 42.9633C51.6717 42.9633 51.9634 42.8467 51.9867 42.625H51.9517C51.94 42.8117 51.66 42.9283 51.6484 42.9283ZM51.8117 43.1967V43.2317C51.835 43.2317 52.1034 43.2083 52.15 43.0217H52.115C52.0684 43.1733 51.8234 43.1967 51.8117 43.1967ZM51.87 43.4767V43.5117C51.8817 43.5117 52.185 43.5233 52.29 43.36L52.255 43.3367C52.1617 43.4883 51.87 43.4767 51.87 43.4767ZM54.1684 43.2783C54.1684 43.2783 54.2967 43.4183 54.4484 43.4067C54.4861 43.4059 54.5233 43.3973 54.5575 43.3812C54.5917 43.3651 54.6221 43.342 54.6467 43.3133L54.6 43.2667C54.5534 43.325 54.5067 43.3483 54.4484 43.3483C54.3317 43.3483 54.215 43.2317 54.215 43.2317L54.1684 43.2783Z" fill="black"/>
<path d="M63.2333 44.3516C63.2195 44.3609 63.2076 44.3728 63.1983 44.3866L63.245 44.3516H63.2333ZM64.3183 44.0833C64.3066 44.06 64.295 44.0716 64.2833 44.06L64.2366 43.9666H64.2016L64.12 43.8033C64.1245 43.7921 64.1245 43.7795 64.12 43.7683C64.1204 43.7528 64.1204 43.7372 64.12 43.7216C64.12 43.7216 64.0966 43.7216 64.085 43.6983V43.5116L64.0733 43.4533C64.0494 43.4148 64.0373 43.3702 64.0383 43.325V43.2083C64.05 43.1616 64.0266 43.1383 64.0266 43.0916L64.0383 42.9866V42.3566L64.0266 42.24L64.015 42.1933V42.0066V42.31L63.9916 41.8083L63.595 41.6216C63.595 41.6216 63.56 42.345 63.5716 42.4383C63.5716 42.5433 63.6183 43.22 63.595 43.3016L63.5366 43.8033C63.5366 43.8033 63.35 43.9433 63.28 44.0833C63.1983 44.235 63.2216 44.2816 63.1983 44.2816L63.3733 44.2583L63.245 44.3516C63.2584 44.3462 63.273 44.3444 63.2874 44.3464C63.3017 44.3485 63.3153 44.3543 63.3266 44.3633L63.35 44.3866L63.3733 44.3633C63.4083 44.3633 63.4316 44.41 63.455 44.3983L63.5016 44.375L63.525 44.3283C63.5366 44.3166 63.56 44.3283 63.5716 44.3283H63.6533C63.6883 44.3283 63.7233 44.27 63.7583 44.2466C63.7816 44.2233 63.805 44.2116 63.84 44.2116C63.875 44.2116 63.91 44.2466 63.9566 44.2466C63.98 44.2466 63.9916 44.2466 64.015 44.2233L64.0616 44.1533L64.155 44.1416L64.2016 44.1533H64.2716L64.3066 44.1766L64.33 44.13L64.3183 44.0833Z" fill="#964B36" stroke="black" stroke-width="0.035" stroke-miterlimit="4.8"/>
<path d="M63.525 44.34H63.595V44.3633C63.5985 44.3654 63.6026 44.3665 63.6066 44.3665C63.6107 44.3665 63.6148 44.3654 63.6183 44.3633L63.6533 44.3867H63.6883L63.735 44.3983C63.7583 44.41 63.7816 44.3983 63.805 44.3867C63.8283 44.3633 63.84 44.3867 63.875 44.41C63.8866 44.4217 63.8866 44.4217 63.8983 44.41L63.91 44.3983L63.945 44.3867L63.98 44.375L64.0266 44.3517L64.0733 44.375C64.0811 44.374 64.0889 44.374 64.0966 44.375L64.1783 44.3167C64.2133 44.2933 64.2366 44.3167 64.26 44.3167H64.295C64.3066 44.305 64.3183 44.3167 64.3416 44.3167C64.3416 44.305 64.3416 44.2933 64.365 44.2817L64.4466 44.3283C64.4583 44.34 64.5283 44.3517 64.5166 44.305C64.5166 44.2583 64.47 44.2933 64.4583 44.2583V44.1883C64.4528 44.169 64.4403 44.1524 64.4233 44.1417C64.4 44.1417 64.4 44.1533 64.3766 44.1417L64.3533 44.0717L64.3183 44.095C64.295 44.095 64.295 44.0833 64.2833 44.06C64.2483 44.025 64.2366 44.0833 64.2016 44.0717C64.1783 44.0717 64.155 44.0133 64.1433 43.99C64.1316 43.9783 64.1083 43.9317 64.085 43.9433C64.0616 43.955 64.085 44.0017 64.085 44.025H64.0266C64.0033 44.025 64.0033 44.025 63.9916 44.0483C63.9683 44.095 63.9566 44.13 63.91 44.1183C63.8983 44.1183 63.875 44.1067 63.8633 44.1183L63.805 44.1417C63.7896 44.1448 63.7737 44.1448 63.7583 44.1417L63.7116 44.095C63.7116 44.0919 63.7104 44.0889 63.7082 44.0867C63.706 44.0846 63.7031 44.0833 63.7 44.0833C63.6969 44.0833 63.6939 44.0846 63.6917 44.0867C63.6895 44.0889 63.6883 44.0919 63.6883 44.095C63.6845 44.0872 63.6806 44.0794 63.6766 44.0717C63.6533 44.0717 63.6533 44.0717 63.6416 44.1067L63.63 44.165L63.595 44.2117L63.5483 44.2233C63.525 44.2233 63.5016 44.2583 63.5016 44.2233C63.4783 44.1767 63.5366 44.095 63.4783 44.1067C63.4666 44.1067 63.455 44.1067 63.4433 44.13V44.2117C63.4316 44.2467 63.3616 44.305 63.3733 44.3283C63.3733 44.3633 63.42 44.3283 63.42 44.3283L63.4433 44.375C63.4666 44.41 63.525 44.3283 63.525 44.375M63.28 44.06V44.0367L63.2333 44.025C63.21 44.025 63.1866 44.06 63.175 44.0717C63.1516 44.1183 63.1516 44.1883 63.105 44.1883H63.0466V44.305C63.0466 44.305 63.0233 44.305 63.0233 44.3283C63.0116 44.375 63.0466 44.3517 63.07 44.3517H63.1866L63.245 44.34C63.2683 44.34 63.2916 44.34 63.3033 44.3167C63.3127 44.3019 63.3205 44.2863 63.3266 44.27V44.2233C63.3266 44.2 63.3616 44.2117 63.3616 44.1767C63.3733 44.095 63.2916 44.1533 63.3033 44.0717" fill="#964B36"/>
<path d="M63.525 44.34H63.595V44.3633C63.5985 44.3654 63.6026 44.3665 63.6066 44.3665C63.6107 44.3665 63.6148 44.3654 63.6183 44.3633L63.6533 44.3867H63.6883L63.735 44.3983C63.7583 44.41 63.7816 44.3983 63.805 44.3867C63.8283 44.3633 63.84 44.3867 63.875 44.41C63.8866 44.4217 63.8866 44.4217 63.8983 44.41L63.91 44.3983L63.945 44.3867L63.98 44.375L64.0266 44.3517L64.0733 44.375C64.0811 44.374 64.0889 44.374 64.0966 44.375L64.1783 44.3167C64.2133 44.2933 64.2366 44.3167 64.26 44.3167H64.295C64.3066 44.305 64.3183 44.3167 64.3416 44.3167C64.3416 44.305 64.3416 44.2933 64.365 44.2817L64.4466 44.3283C64.4583 44.34 64.5283 44.3517 64.5166 44.305C64.5166 44.2583 64.47 44.2933 64.4583 44.2583V44.1883C64.4528 44.169 64.4403 44.1524 64.4233 44.1417C64.4 44.1417 64.4 44.1533 64.3766 44.1417L64.3533 44.0717L64.3183 44.095C64.295 44.095 64.295 44.0833 64.2833 44.06C64.2483 44.025 64.2366 44.0833 64.2016 44.0717C64.1783 44.0717 64.155 44.0133 64.1433 43.99C64.1316 43.9783 64.1083 43.9317 64.085 43.9433C64.0616 43.955 64.085 44.0017 64.085 44.025H64.0266C64.0033 44.025 64.0033 44.025 63.9916 44.0483C63.9683 44.095 63.9566 44.13 63.91 44.1183C63.8983 44.1183 63.875 44.1067 63.8633 44.1183L63.805 44.1417C63.7896 44.1448 63.7737 44.1448 63.7583 44.1417L63.7116 44.095C63.7116 44.0919 63.7104 44.0889 63.7082 44.0867C63.706 44.0846 63.7031 44.0833 63.7 44.0833C63.6969 44.0833 63.6939 44.0846 63.6917 44.0867C63.6895 44.0889 63.6883 44.0919 63.6883 44.095C63.6845 44.0872 63.6806 44.0794 63.6766 44.0717C63.6533 44.0717 63.6533 44.0717 63.6416 44.1067L63.63 44.165L63.595 44.2117L63.5483 44.2233C63.525 44.2233 63.5016 44.2583 63.5016 44.2233C63.4783 44.1767 63.5366 44.095 63.4783 44.1067C63.4666 44.1067 63.455 44.1067 63.4433 44.13V44.2117C63.4316 44.2467 63.3616 44.305 63.3733 44.3283C63.3733 44.3633 63.42 44.3283 63.42 44.3283L63.4433 44.375C63.4666 44.41 63.525 44.3283 63.525 44.375M63.28 44.06V44.0367L63.2333 44.025C63.21 44.025 63.1866 44.06 63.175 44.0717C63.1516 44.1183 63.1516 44.1883 63.105 44.1883H63.0466V44.305C63.0466 44.305 63.0233 44.305 63.0233 44.3283C63.0116 44.375 63.0466 44.3517 63.07 44.3517H63.1866L63.245 44.34C63.2683 44.34 63.2916 44.34 63.3033 44.3167C63.3127 44.3019 63.3205 44.2863 63.3266 44.27V44.2233C63.3266 44.2 63.3616 44.2117 63.3616 44.1767C63.3733 44.095 63.2916 44.1533 63.3033 44.0717" stroke="black" stroke-width="0.035" stroke-miterlimit="4.8"/>
<path d="M64.26 41.7966C64.26 41.9016 64.19 41.9833 64.0967 41.9833C64.015 41.9833 63.9333 41.9016 63.9333 41.7966C63.9333 41.6916 64.015 41.61 64.0967 41.61C64.19 41.61 64.26 41.6916 64.26 41.7966ZM63.735 41.5633C63.735 41.6683 63.665 41.75 63.5717 41.75C63.4783 41.75 63.4083 41.6683 63.4083 41.5633C63.4083 41.4466 63.49 41.3766 63.5717 41.3766C63.6533 41.3766 63.735 41.4583 63.735 41.5633Z" fill="black" stroke="black" stroke-width="0.0583333" stroke-miterlimit="4.8"/>
<path d="M64.015 41.6333C64.015 41.75 63.945 41.82 63.8516 41.82C63.7583 41.82 63.6883 41.7383 63.6883 41.6333C63.6883 41.5283 63.7583 41.4467 63.8516 41.4467C63.945 41.4467 64.015 41.5283 64.015 41.6333Z" fill="black" stroke="black" stroke-width="0.0583333" stroke-miterlimit="4.8"/>
<path d="M63.7467 41.8083C63.7467 41.9133 63.6767 41.995 63.5833 41.995C63.49 41.995 63.42 41.9133 63.42 41.8083C63.42 41.7033 63.49 41.6216 63.5833 41.6216C63.6767 41.6216 63.7467 41.7033 63.7467 41.8083Z" fill="black" stroke="black" stroke-width="0.0583333" stroke-miterlimit="4.8"/>
<path d="M63.9916 41.96C63.9916 42.0533 63.9216 42.1467 63.8283 42.1467C63.7466 42.1467 63.665 42.065 63.665 41.96C63.665 41.8433 63.7466 41.7617 63.8283 41.7617C63.9216 41.7617 63.9916 41.8433 63.9916 41.9483V41.96Z" fill="black" stroke="black" stroke-width="0.0583333" stroke-miterlimit="4.8"/>
<path d="M64.0733 39.8833C64.0733 39.8833 65.695 37.62 67.4333 39.965C67.4333 39.965 67.445 40.1983 67.2817 40.455L67.2467 40.2566L67.13 40.2916L67.1067 40.175L66.92 40.1633L66.9783 39.9066L66.78 40.07L66.8033 39.895L66.57 40.1283L66.605 39.6266L66.3483 40.0583L66.3833 39.7666L66.29 39.895L66.2433 39.72L66.1617 39.895L66.045 39.8133V39.93L65.835 39.755L65.765 39.9883L65.66 39.7316L65.6367 39.9066L65.5317 39.7083L65.52 39.93L65.1817 39.7783L65.2517 39.9883L65.1 39.8716L65.1233 39.9883L64.9017 39.9416L64.925 40.07L64.6917 40.0233L64.7267 40.14L64.4117 40.105L64.5283 40.2216L64.4933 40.2916C64.4933 40.2916 66.2433 39.7083 66.36 41.9016L66.045 42.0533L66.1383 41.8783L66.045 41.82L65.7767 41.6216L65.8583 41.3416L65.765 41.3766L65.7533 41.2133L65.7067 41.2366L65.6017 41.085L65.5783 41.1433L65.5083 40.945L65.4267 41.085L65.3917 40.7583L65.275 40.9683L65.2517 40.8516L65.2167 40.9216L65.065 40.7466L65.0183 40.8633L64.96 40.77L64.925 40.8866L64.7617 40.7233V40.84L64.645 40.7583L64.61 40.8166L64.365 40.6883L64.3533 40.805L64.2133 40.6883L64.1783 40.805C64.1783 40.805 65.765 41.715 65.275 43.185L65.1817 43.3716L65.1583 42.8816L65.0067 43.1383L65.1117 42.5666L65.0067 42.6833L64.995 42.45L64.8667 42.6833L64.82 42.4266L64.7617 42.4966L64.6683 42.1233L64.5983 42.275L64.4817 41.855L64.3883 42.03L64.33 41.6683L64.2717 41.89L64.0967 41.5633L64.0733 41.6916L63.9683 41.435L63.91 41.5166C63.91 41.5166 63.6183 41.505 63.525 41.435C63.4433 41.3533 63.1983 41.8666 63.1983 41.8666L63.2217 41.5633L63.1167 41.7733V41.5633L62.93 42.1816L62.8833 41.7383L62.79 42.1233L62.7433 42.0066L62.7083 42.1583L62.65 42.1L62.6033 42.275L62.51 42.205V42.4383L62.4167 42.3216L62.3467 42.6716L62.3 42.5316V42.6833L62.23 42.6016L62.16 42.9516L62.0433 42.8V43.0566L62.0783 43.2433L61.9617 43.185L62.0083 43.4883C62.0083 43.4883 61.5533 42.6483 62.1017 41.8316C62.6383 41.015 63.3733 40.7816 63.3733 40.7816L63.2917 40.7116V40.6416L62.8483 40.8633V40.735L62.7317 40.8283L62.7083 40.6883L62.6383 40.8166L62.6267 40.7583L62.51 40.9216L62.4633 40.6883L62.3933 40.9683L62.3233 40.77L62.1717 41.1783V40.875L62.055 41.2016L62.0083 40.8516L61.9267 41.2483V40.8983L61.7867 41.2483L61.705 40.8983L61.6467 41.2483L61.5533 40.98L61.4717 41.3766L61.3317 41.0266L61.2617 41.5516L61.18 41.3416L61.1567 41.7266L61.0633 41.4933L61.1567 41.9833L61.04 41.7966L61.075 42.1L60.8883 41.7616V42.1583L60.795 42.03L60.7483 42.1816C60.7483 42.1816 60.7133 40.665 61.7517 40.3616C62.79 40.07 63.455 40.455 63.455 40.455L63.0583 40.1283L63.105 40.0233H62.965L63.0233 39.9066L62.7083 39.9183L62.8017 39.8016L62.5683 39.8366V39.7666L62.4167 39.8833L62.475 39.7433L62.2767 39.8833L62.265 39.685L62.1483 39.8483L62.1017 39.6733L61.635 40.14L61.7517 39.6616L61.67 39.7666L61.6583 39.65L61.53 39.86L61.495 39.72L61.4367 39.895L61.39 39.685L61.2967 39.895L61.18 39.7083L61.145 39.9533L61.075 39.825L60.9817 40.0116L60.865 39.895V40.0116L60.6317 39.9066L60.6783 40.0816L60.5033 39.9416L60.4567 40.175L60.3633 40.0583L60.2817 40.35L60.2117 40.07L60.1417 40.2916C60.1417 40.2916 61.0517 37.935 63.3617 39.475C63.3617 39.475 63.6183 39.72 63.6767 39.895C63.735 40.07 63.6883 39.9183 63.6883 39.9183L63.6417 38.2966L63.735 38.9966L63.7933 38.7633L63.7817 39.1133L64.015 38.6116C64.015 38.6116 63.735 39.4516 63.84 39.7666C63.84 39.7666 63.945 38.7866 64.295 38.67L63.9683 39.37L64.0733 39.3583L64.0033 39.4983H64.085L63.98 39.7316L63.9217 39.8483L63.98 39.965L64.0733 39.8833Z" fill="#00A651" stroke="black" stroke-width="0.0583333" stroke-miterlimit="4.8"/>
<path d="M63.8284 40.8283L63.875 40.875C63.875 40.875 64.0267 40.7117 64.2717 40.9217L64.3067 40.875C64.015 40.63 63.84 40.8283 63.84 40.8283H63.8284ZM63.7584 40.035V40.0933L63.8634 40.0467L63.7817 40.1867L63.9567 40.1283L63.7467 40.3967L63.7934 40.4317L64.1317 40L63.9217 40.07L64.015 39.9183L63.8284 39.9883L63.8634 39.7667H63.805L63.7584 40.035Z" fill="black"/>
<path d="M63.455 40.0583L63.525 40.21L63.4083 40.1633L63.7467 40.77L63.7933 40.7116L63.7233 40.8866L63.7817 40.91L63.9217 40.5366L63.875 40.5016L63.7583 40.6533L63.5483 40.2916L63.6417 40.3266L63.5483 40.1283L63.6767 40.1983V39.9766H63.6183V40.0933L63.4083 39.965L63.455 40.0583ZM63.2333 40.805L63.2567 40.8633C63.35 40.8283 63.4317 40.8166 63.49 40.84C63.5483 40.875 63.5717 40.945 63.5717 40.9566L63.63 40.9333C63.63 40.9333 63.6067 40.8283 63.5133 40.7933C63.4433 40.7583 63.35 40.7583 63.2333 40.805ZM63.5017 41.435L63.4433 41.1083H63.5133L63.56 41.4233L63.5017 41.435ZM63.945 41.3883L63.8633 41.1316L63.9217 41.12L64.0033 41.3533L63.945 41.3883ZM64.1083 41.5633L64.05 41.3183L64.1083 41.3066L64.1783 41.5516L64.1083 41.5633Z" fill="black"/>
<path d="M51.6367 49.065C51.6367 49.065 51.3567 48.9483 51.2284 49.0416C51.1117 49.1233 51.1234 49.2633 51.0184 49.2516C51.0184 49.2516 51.4384 49.345 51.52 49.24L51.6367 49.1M51.6834 49.1816C51.6834 49.1816 51.4967 49.415 51.5667 49.5666C51.625 49.7066 51.765 49.7183 51.73 49.8233C51.73 49.8233 51.905 49.4383 51.8234 49.3216C51.7417 49.205 51.7067 49.1933 51.7067 49.1933M51.38 48.5166C51.38 48.5166 51.0884 48.61 51.0534 48.75C51.03 48.9133 51.1234 48.995 51.0417 49.065C51.0417 49.065 51.415 48.855 51.4034 48.715V48.54M51.5434 48.6216C51.5434 48.6216 51.6834 48.3533 51.6017 48.225C51.5084 48.085 51.3684 48.1083 51.3917 47.9916C51.3917 47.9916 51.275 48.4 51.3917 48.505L51.52 48.6216M51.2634 48.5166C51.2634 48.5166 51.2634 48.2133 51.1467 48.1433C51.0067 48.0616 50.89 48.1316 50.855 48.0266C50.855 48.0266 50.9367 48.4466 51.065 48.4933L51.24 48.5283M51.7534 49.0183C51.7534 49.0183 52.0684 48.9016 52.1034 49.2516C52.1267 49.6016 52.08 49.485 52.08 49.485C52.08 49.485 51.9167 49.1116 51.73 49.0533L51.7534 49.0183Z" fill="#00A651"/>
<path d="M51.6367 49.065C51.6367 49.065 51.3567 48.9483 51.2284 49.0416C51.1117 49.1233 51.1234 49.2633 51.0184 49.2516C51.0184 49.2516 51.4384 49.345 51.52 49.24L51.6367 49.1M51.6834 49.1816C51.6834 49.1816 51.4967 49.415 51.5667 49.5666C51.625 49.7066 51.765 49.7183 51.73 49.8233C51.73 49.8233 51.905 49.4383 51.8234 49.3216C51.7417 49.205 51.7067 49.1933 51.7067 49.1933M51.38 48.5166C51.38 48.5166 51.0884 48.61 51.0534 48.75C51.03 48.9133 51.1234 48.995 51.0417 49.065C51.0417 49.065 51.415 48.855 51.4034 48.715V48.54M51.5434 48.6216C51.5434 48.6216 51.6834 48.3533 51.6017 48.225C51.5084 48.085 51.3684 48.1083 51.3917 47.9916C51.3917 47.9916 51.275 48.4 51.3917 48.505L51.52 48.6216M51.2634 48.5166C51.2634 48.5166 51.2634 48.2133 51.1467 48.1433C51.0067 48.0616 50.89 48.1316 50.855 48.0266C50.855 48.0266 50.9367 48.4466 51.065 48.4933L51.24 48.5283M51.7534 49.0183C51.7534 49.0183 52.0684 48.9016 52.1034 49.2516C52.1267 49.6016 52.08 49.485 52.08 49.485C52.08 49.485 51.9167 49.1116 51.73 49.0533L51.7534 49.0183Z" stroke="black" stroke-width="0.0583333" stroke-miterlimit="4.8"/>
<path d="M51.6834 49.1933L51.7067 49.45H51.7534L51.7184 49.1933L51.835 48.6216H51.7884L51.6717 49.1933H51.6834Z" fill="black"/>
<path d="M51.3917 49.1117L51.38 49.1467C51.5317 49.205 51.73 49.03 51.7417 49.03L51.7184 48.995C51.7184 48.995 51.52 49.1467 51.3917 49.1117ZM51.7884 48.7733L51.0884 48.4233L51.1117 48.365L51.8117 48.715L51.7884 48.7733Z" fill="black"/>
<path d="M51.275 48.6916L51.2283 48.6449L51.3683 48.5049L51.415 48.5516L51.275 48.6916ZM51.52 48.6216L51.3683 48.2949L51.4267 48.2716L51.5783 48.5983L51.52 48.6216ZM51.73 49.0183V49.0883C51.9283 49.0766 51.9633 49.2049 51.9633 49.2049L52.0333 49.1816C52.0333 49.1466 51.9517 49.0066 51.73 49.0183Z" fill="black"/>
<path d="M54.9734 49.1583C55.2067 49.0417 55.2534 48.575 55.2534 48.575C55.195 48.7383 54.7634 48.9133 54.7634 48.9133C55.0784 48.715 55.4634 47.8167 55.4634 47.8167C55.37 48.1317 54.53 48.4 53.9934 48.7033C53.4567 49.0067 53.7367 49.87 53.7367 49.87C53.585 49.765 53.2934 49.31 53.235 48.9016C53.1767 48.4933 53.025 48.33 52.6517 48.2833C52.29 48.2367 52.0684 48.6567 52.0684 48.6567L51.52 48.9367L52.08 48.96C52.08 48.96 52.4767 49.0883 52.4767 49.4033C52.4767 49.7067 52.1267 50.955 52.71 51.655C53.095 52.1333 54.5767 52.4133 54.5767 52.4133" fill="white"/>
<path d="M54.9734 49.1583C55.2067 49.0417 55.2534 48.575 55.2534 48.575C55.195 48.7383 54.7634 48.9133 54.7634 48.9133C55.0784 48.715 55.4634 47.8167 55.4634 47.8167C55.37 48.1317 54.53 48.4 53.9934 48.7033C53.4567 49.0067 53.7367 49.87 53.7367 49.87C53.585 49.765 53.2934 49.31 53.235 48.9016C53.1767 48.4933 53.025 48.33 52.6517 48.2833C52.29 48.2367 52.0684 48.6567 52.0684 48.6567L51.52 48.9367L52.08 48.96C52.08 48.96 52.4767 49.0883 52.4767 49.4033C52.4767 49.7067 52.1267 50.955 52.71 51.655C53.095 52.1333 54.5767 52.4133 54.5767 52.4133" stroke="black" stroke-width="0.0816667" stroke-miterlimit="4.8"/>
<path d="M53.8884 50.1267C53.8884 50.1267 54.005 49.5667 54.3667 49.59C54.7284 49.6133 54.8334 49.17 55.055 49.1117C55.2767 49.0417 56.3967 48.7383 56.5134 48.2017C56.5134 48.2017 56.4084 49.0883 55.3817 49.5317C55.3817 49.5317 56.21 49.2633 56.315 49.0767C56.315 49.0767 55.9417 49.87 55.0434 49.9983C55.0434 49.9983 55.8834 49.9283 56 49.7067C56 49.7067 55.6267 50.1967 55.0084 50.2667C55.0084 50.2667 55.5917 50.5 55.7317 50.3017C55.7317 50.3017 55.4167 50.675 55.0317 50.6983L55.1484 50.7217C55.1484 50.7217 54.775 51.165 54.3667 50.8733C53.9584 50.5817 53.9467 50.9433 53.9467 50.9433" fill="white"/>
<path d="M53.8884 50.1267C53.8884 50.1267 54.005 49.5667 54.3667 49.59C54.7284 49.6133 54.8334 49.17 55.055 49.1117C55.2767 49.0417 56.3967 48.7383 56.5134 48.2017C56.5134 48.2017 56.4084 49.0883 55.3817 49.5317C55.3817 49.5317 56.21 49.2633 56.315 49.0767C56.315 49.0767 55.9417 49.87 55.0434 49.9983C55.0434 49.9983 55.8834 49.9283 56 49.7067C56 49.7067 55.6267 50.1967 55.0084 50.2667C55.0084 50.2667 55.5917 50.5 55.7317 50.3017C55.7317 50.3017 55.4167 50.675 55.0317 50.6983L55.1484 50.7217C55.1484 50.7217 54.775 51.165 54.3667 50.8733C53.9584 50.5817 53.9467 50.9433 53.9467 50.9433" stroke="black" stroke-width="0.0816667" stroke-miterlimit="4.8"/>
<path d="M54.7167 50.9666C54.7167 50.9666 55.195 51.7599 55.2417 52.1799C55.2417 52.1799 56.1517 53.1716 56.49 53.2299C56.49 53.2299 56.3267 53.2999 56.0234 53.0549C56.0234 53.0549 56.28 53.3116 56.3267 53.3233C56.3734 53.3233 56.1284 53.2999 56.0934 53.2299C56.1374 53.2972 56.1926 53.3564 56.2567 53.4049L56.1984 53.3816C56.1984 53.3816 56.0817 53.3699 56.0117 53.3233C55.9534 53.2766 56 53.4399 56 53.4399C56 53.4399 55.86 53.4049 55.8134 53.3583C55.7667 53.3116 55.825 53.4633 55.825 53.4633L55.7084 53.4283L55.615 53.4866C55.615 53.4866 55.615 53.5449 55.5567 53.4866C55.4984 53.4516 55.3934 53.4866 55.3934 53.4866C55.3934 53.4866 55.3234 53.5566 55.2767 53.5099C55.2417 53.4633 55.1017 53.6966 55.1017 53.6966L54.5184 52.2616" fill="white"/>
<path d="M54.7167 50.9666C54.7167 50.9666 55.195 51.7599 55.2417 52.1799C55.2417 52.1799 56.1517 53.1716 56.49 53.2299C56.49 53.2299 56.3267 53.2999 56.0234 53.0549C56.0234 53.0549 56.28 53.3116 56.3267 53.3233C56.3734 53.3233 56.1284 53.2999 56.0934 53.2299C56.1374 53.2972 56.1926 53.3564 56.2567 53.4049L56.1984 53.3816C56.1984 53.3816 56.0817 53.3699 56.0117 53.3233C55.9534 53.2766 56 53.4399 56 53.4399C56 53.4399 55.86 53.4049 55.8134 53.3583C55.7667 53.3116 55.825 53.4633 55.825 53.4633L55.7084 53.4283L55.615 53.4866C55.615 53.4866 55.615 53.5449 55.5567 53.4866C55.4984 53.4516 55.3934 53.4866 55.3934 53.4866C55.3934 53.4866 55.3234 53.5566 55.2767 53.5099C55.2417 53.4633 55.1017 53.6966 55.1017 53.6966L54.5184 52.2616" stroke="black" stroke-width="0.0816667" stroke-miterlimit="4.8"/>
<path d="M55.2884 53.5566L54.5417 52.1333L54.6117 52.0866L55.3584 53.5216L55.2884 53.5566ZM55.9417 53.4633L54.6584 52.0283L54.7284 51.97L56.0117 53.405L55.9417 53.4633ZM56.2334 53.3466L54.775 51.9583L54.8334 51.9L56.2917 53.265L56.2334 53.3466Z" fill="black"/>
<path d="M52.5637 48.7361C52.5637 48.7361 52.4706 48.5655 52.3853 48.6353C52.3077 48.6974 52.2612 48.7129 52.2457 48.7051C52.2457 48.7051 52.3232 48.7051 52.3775 48.6663C52.4241 48.6198 52.5017 48.6431 52.5637 48.7439V48.7361ZM52.0518 48.6586L52.1061 48.7672L52.044 48.9456L52.0905 48.9611L52.1448 48.7672L52.0905 48.6431L52.0518 48.6586Z" fill="black"/>
<path d="M52.5482 48.7129C52.5482 48.7129 52.4706 48.7905 52.3775 48.7749L52.2767 48.7517H52.4163C52.4706 48.7517 52.5404 48.7284 52.5482 48.7129Z" fill="black"/>
<path d="M52.5249 48.7284C52.5249 48.7284 52.4318 48.6353 52.3698 48.6663C52.3698 48.6663 52.4783 48.6276 52.5404 48.7206L52.5249 48.7284Z" fill="black"/>
<path d="M52.5094 48.7128C52.5094 48.7128 52.4085 48.7827 52.2999 48.7128L52.2922 48.6973H52.3077C52.3077 48.6973 52.4396 48.7516 52.5094 48.7128Z" fill="black"/>
<path d="M52.4241 48.7284C52.4412 48.7284 52.4551 48.7145 52.4551 48.6973C52.4551 48.6802 52.4412 48.6663 52.4241 48.6663C52.407 48.6663 52.3931 48.6802 52.3931 48.6973C52.3931 48.7145 52.407 48.7284 52.4241 48.7284Z" fill="black"/>
<path d="M52.5 51.3283C52.5 51.3283 52.4184 51.4683 52.465 51.5616C52.5 51.6433 52.6984 51.6783 52.71 51.795C52.7334 51.9116 52.8034 51.9116 52.885 51.9116L52.99 51.8766C52.99 51.8766 52.6284 51.69 52.5234 51.375L52.5 51.3283Z" fill="black"/>
<path d="M64.0967 48.435C64.0967 48.435 64.75 47.5716 65.3333 47.7933C65.9167 48.0266 66.2783 48.1433 66.2783 48.1433C66.2783 48.1433 66.29 48.715 65.9867 48.715C65.6833 48.715 65.38 48.1316 65.1 48.3066C64.8883 48.4256 64.7083 48.5936 64.575 48.7966C64.5633 48.8783 63.84 48.89 64.0967 48.435Z" fill="#964B36" stroke="black" stroke-width="0.035" stroke-miterlimit="4.8"/>
<path d="M61.6233 52.5883C61.6233 52.5883 61.4366 52.775 61.5183 52.8216C61.6 52.8683 61.7633 52.8216 61.7633 52.7516C61.7633 52.6816 61.6466 52.565 61.6233 52.5883Z" fill="#964B36" stroke="black" stroke-width="0.0583333" stroke-miterlimit="4.8"/>
<path d="M61.4834 52.775C61.4834 52.775 61.1334 52.5766 60.8767 53.0316C60.6084 53.475 60.3984 54.21 60.2467 54.315C60.095 54.4083 61.74 53.5916 61.7634 53.2416C61.7634 53.2416 61.8684 52.7983 61.6934 52.81C61.5184 52.81 61.5067 52.8333 61.4717 52.7633L61.4834 52.775Z" fill="#964B36" stroke="black" stroke-width="0.0583333" stroke-miterlimit="4.8"/>
<path d="M61.5183 52.8217C61.5183 52.8217 61.1683 52.9033 61.0983 53.3933C61.0283 53.8833 60.55 54.1283 60.515 54.1516M66.2783 48.1317C66.2783 48.1317 65.765 48.3183 65.8467 48.68L66.2783 48.1317Z" fill="#964B36"/>
<path d="M61.5183 52.8217C61.5183 52.8217 61.1683 52.9033 61.0983 53.3933C61.0283 53.8833 60.55 54.1283 60.515 54.1517M66.2783 48.1317C66.2783 48.1317 65.765 48.3183 65.8467 48.68" stroke="black" stroke-width="0.035" stroke-miterlimit="4.8"/>
<path d="M62.265 49.1933C62.265 49.1933 62.2883 47.9566 63.3033 48.0033C63.49 48.0266 63.3967 48.2483 63.3967 48.2483C63.3967 48.2483 63.63 48.0966 63.7233 48.3416C63.7233 48.3416 64.0383 48.2016 64.0733 48.5166C64.0733 48.5166 64.4233 48.47 64.3767 48.75C64.3767 48.75 64.61 48.6916 64.61 48.89C64.61 48.89 64.8783 48.785 64.8433 49.065C64.8433 49.065 65.1467 48.8666 65.1117 49.2283C65.1117 49.2283 65.415 49.0066 65.52 49.3683C65.6367 49.7416 65.2167 50.5116 64.8083 50.71" fill="#FFF200"/>
<path d="M62.265 49.1933C62.265 49.1933 62.2883 47.9566 63.3033 48.0033C63.49 48.0266 63.3967 48.2483 63.3967 48.2483C63.3967 48.2483 63.63 48.0966 63.7233 48.3416C63.7233 48.3416 64.0383 48.2016 64.0733 48.5166C64.0733 48.5166 64.4233 48.47 64.3767 48.75C64.3767 48.75 64.61 48.6916 64.61 48.89C64.61 48.89 64.8783 48.785 64.8433 49.065C64.8433 49.065 65.1467 48.8666 65.1117 49.2283C65.1117 49.2283 65.415 49.0066 65.52 49.3683C65.6367 49.7416 65.2167 50.5116 64.8083 50.71" stroke="black" stroke-width="0.035" stroke-miterlimit="4.8"/>
<path d="M65.0883 49.275C65.0883 49.275 65.2167 50.2316 64.68 50.5933L64.6917 50.6166C65.2633 50.2666 65.1233 49.275 65.1233 49.2633H65.0883V49.275ZM64.4233 50.325L64.4467 50.3483C64.7967 50.01 64.8783 49.1116 64.8783 49.065H64.8433C64.8433 49.065 64.7617 49.9983 64.4233 50.325ZM64.1083 50.1033H64.1433C64.2145 49.673 64.3777 49.2631 64.6217 48.9016L64.5983 48.89C64.5983 48.89 64.155 49.5316 64.1083 50.1033ZM63.8517 49.94H63.8867C63.945 49.275 64.4 48.7733 64.4 48.7616L64.3767 48.7383C64.3767 48.7383 63.91 49.2633 63.8517 49.94ZM63.5017 49.7066H63.5367C63.5717 48.925 64.0967 48.54 64.0967 48.54L64.0733 48.505C64.0733 48.505 63.5367 48.9016 63.49 49.7183L63.5017 49.7066ZM63.175 49.52H63.21C63.1867 48.7966 63.735 48.3533 63.7467 48.3533L63.7233 48.33C63.7233 48.33 63.14 48.7733 63.175 49.52ZM62.5917 49.2516H62.6267C62.6538 49.0304 62.7426 48.8212 62.8829 48.6479C63.0231 48.4747 63.2093 48.3443 63.42 48.2716V48.2366C63.2 48.3101 63.0054 48.4444 62.8588 48.6241C62.7121 48.8038 62.6195 49.0214 62.5917 49.2516Z" fill="black"/>
<path d="M61.67 50.6983C61.67 50.6983 61.495 49.5433 62.1834 49.1816C62.1834 49.1816 62.3117 49.1583 62.3817 49.3216C62.3817 49.3216 62.7434 49.17 62.755 49.4733C62.755 49.4733 62.9417 49.3333 62.9884 49.5316C62.9884 49.5316 63.3734 49.45 63.3034 49.7416C63.3034 49.7416 63.63 49.6483 63.595 49.9283C63.595 49.9283 63.9217 49.8116 63.875 50.045C63.875 50.045 64.225 49.975 64.1317 50.255C64.1317 50.255 64.5634 50.2083 64.435 50.5C64.435 50.5 64.75 50.4183 64.6684 50.6633C64.6684 50.6633 65.0884 50.745 64.9017 51.0133C64.5958 51.3779 64.2024 51.6589 63.7584 51.83" fill="#00A651"/>
<path d="M61.67 50.6983C61.67 50.6983 61.495 49.5433 62.1834 49.1816C62.1834 49.1816 62.3117 49.1583 62.3817 49.3216C62.3817 49.3216 62.7434 49.17 62.755 49.4733C62.755 49.4733 62.9417 49.3333 62.9884 49.5316C62.9884 49.5316 63.3734 49.45 63.3034 49.7416C63.3034 49.7416 63.63 49.6483 63.595 49.9283C63.595 49.9283 63.9217 49.8116 63.875 50.045C63.875 50.045 64.225 49.975 64.1317 50.255C64.1317 50.255 64.5634 50.2083 64.435 50.5C64.435 50.5 64.75 50.4183 64.6684 50.6633C64.6684 50.6633 65.0884 50.745 64.9017 51.0133C64.5958 51.3779 64.2024 51.6589 63.7584 51.83" stroke="black" stroke-width="0.035" stroke-miterlimit="4.8"/>
<path d="M61.2966 51.8533C61.2966 51.8533 61.0166 50.8966 61.5533 50.6516C61.5533 50.6516 61.6583 50.6283 61.67 50.7216C61.67 50.7216 61.7866 50.57 61.88 50.71C61.88 50.71 62.1483 50.5816 62.2183 50.78C62.2183 50.78 62.3933 50.6283 62.4866 50.85C62.4866 50.85 62.6616 50.78 62.6616 50.9666C62.6616 50.9666 62.895 50.85 62.895 51.0833C62.895 51.0833 63.1283 50.99 63.07 51.2233C63.07 51.2233 63.42 51.2816 63.315 51.445C63.315 51.445 63.63 51.5266 63.5133 51.655C63.5133 51.655 63.84 51.62 63.665 51.8416C63.665 51.8416 63.9216 51.76 63.7816 52.04C63.63 52.32 63.175 52.6233 62.8483 52.67" fill="#00A651"/>
<path d="M61.2966 51.8533C61.2966 51.8533 61.0166 50.8966 61.5533 50.6516C61.5533 50.6516 61.6583 50.6283 61.67 50.7216C61.67 50.7216 61.7866 50.57 61.88 50.71C61.88 50.71 62.1483 50.5816 62.2183 50.78C62.2183 50.78 62.3933 50.6283 62.4866 50.85C62.4866 50.85 62.6616 50.78 62.6616 50.9666C62.6616 50.9666 62.895 50.85 62.895 51.0833C62.895 51.0833 63.1283 50.99 63.07 51.2233C63.07 51.2233 63.42 51.2816 63.315 51.445C63.315 51.445 63.63 51.5266 63.5133 51.655C63.5133 51.655 63.84 51.62 63.665 51.8416C63.665 51.8416 63.9216 51.76 63.7816 52.04C63.63 52.32 63.175 52.6233 62.8483 52.67" stroke="black" stroke-width="0.035" stroke-miterlimit="4.8"/>
<path d="M61.635 52.6117C61.635 52.6117 61.04 52.0283 61.32 51.865C61.32 51.865 61.4367 51.9 61.495 52.0283C61.495 52.0283 61.635 51.8183 61.7284 52.0283C61.7284 52.0283 61.9384 51.9583 61.9384 52.11L62.1017 52.2267C62.1017 52.2267 62.3 52.215 62.265 52.3433C62.265 52.3433 62.4867 52.3083 62.475 52.425C62.475 52.425 62.6617 52.4367 62.65 52.565C62.65 52.565 62.9767 52.6233 62.825 52.7867C62.825 52.7867 62.265 52.9033 61.8567 52.74C61.8567 52.74 61.6584 52.67 61.635 52.6117Z" fill="#00A651" stroke="black" stroke-width="0.035" stroke-miterlimit="4.8"/>
<path d="M63.6883 51.6549V51.6899C64.0782 51.4113 64.4176 51.068 64.6917 50.6749L64.6567 50.6516C64.6567 50.6633 64.0267 51.5266 63.6883 51.6549ZM63.4783 51.5033L63.5017 51.5383C63.805 51.3633 64.4233 50.5466 64.435 50.5116L64.4233 50.4883C64.4117 50.4999 63.7817 51.3283 63.49 51.5033H63.4783ZM63.3033 51.4333L63.3267 51.4566C63.6499 51.0932 63.9244 50.6893 64.1433 50.2549L64.12 50.2433C64.12 50.2433 63.63 51.1649 63.3033 51.4333ZM63.1517 51.2233H63.1867C63.245 50.7799 63.8867 50.0683 63.8867 50.0566L63.8517 50.0449C63.8283 50.0683 63.21 50.7683 63.1517 51.2233ZM61.88 50.6749H61.915C61.8683 50.0333 62.3933 49.3333 62.405 49.3333L62.37 49.3099C62.37 49.3099 61.8217 50.0333 61.88 50.6749ZM62.2183 50.7333H62.2533C62.16 50.2199 62.7667 49.4966 62.7667 49.4849L62.7433 49.4616C62.72 49.4966 62.125 50.2083 62.2183 50.7333ZM62.7317 50.9199H62.7667C62.7433 50.3366 63.3033 49.7533 63.315 49.7533L63.2917 49.7183C63.2917 49.7299 62.7083 50.3249 62.7317 50.9199ZM61.5067 51.9699H61.5417C61.3317 51.4216 61.6817 50.7333 61.6933 50.7333L61.6583 50.7099C61.6583 50.7099 61.2967 51.4216 61.5067 51.9816V51.9699ZM61.74 52.0166L61.775 52.0049C61.5883 51.4566 61.8917 50.7216 61.8917 50.7216L61.8683 50.6983C61.8683 50.6983 61.5533 51.4566 61.74 52.0166ZM62.7083 52.5649V52.5883C63.2917 52.3899 63.6767 51.8533 63.6767 51.8533L63.6417 51.8299C63.6417 51.8299 63.2683 52.3549 62.7083 52.5649ZM62.5917 52.4366V52.4716C63.0583 52.2616 63.49 51.6783 63.49 51.6783L63.4667 51.6549C63.4667 51.6549 63.035 52.2383 62.5917 52.4366ZM62.475 52.3899L62.4983 52.4249C62.8483 52.1566 63.315 51.4916 63.315 51.4916L63.2917 51.4683C63.2917 51.4683 62.825 52.1333 62.475 52.3899ZM61.8917 52.0516H61.9383C61.9188 51.6091 62.0196 51.1697 62.23 50.7799L62.195 50.7683C62.195 50.7683 61.8217 51.4683 61.9033 52.0516H61.8917ZM62.1483 52.2149L62.1717 52.2383C62.545 51.8999 62.6733 51.0016 62.6733 50.9549H62.6383C62.6383 50.9549 62.5217 51.8883 62.1483 52.2149ZM62.405 52.3083L62.4283 52.3433C62.7675 52.0584 63.0016 51.6683 63.0933 51.2349H63.0583C63.0583 51.2349 62.9183 51.9349 62.405 52.3199V52.3083ZM62.4633 50.7449V50.8499L62.0667 52.1333L62.1017 52.1449L62.4983 50.8616C62.44 50.2316 62.9883 49.5433 63 49.5433L62.965 49.5199C62.965 49.5199 62.4633 50.1383 62.4633 50.7449Z" fill="black"/>
<path d="M62.8833 51.06C62.8833 51.0833 62.755 51.9583 62.2767 52.285L62.3 52.32C62.79 51.9816 62.9067 51.1183 62.9067 51.0716C63.1167 50.8266 63.6067 49.94 63.6067 49.94L63.5833 49.9166C63.5833 49.9166 63.0933 50.8033 62.8833 51.06ZM61.4833 52.0283C61.4833 52.04 61.5533 52.495 61.6467 52.635L61.6817 52.6233C61.5883 52.4716 61.5067 52.0283 61.5067 52.0166L61.4717 52.0283H61.4833ZM61.705 52.0283L61.6933 52.6466H61.7283V52.0283H61.705Z" fill="black"/>
<path d="M61.7167 52.6583L61.7517 52.67C61.9033 52.3433 61.95 52.11 61.95 52.11H61.915C61.915 52.11 61.8683 52.3317 61.7167 52.6583ZM61.7517 52.67L61.775 52.705C61.9484 52.6014 62.0741 52.4338 62.125 52.2383H62.09C62.09 52.2383 62.02 52.5183 61.7517 52.67ZM61.81 52.6933V52.7283C62.09 52.705 62.2767 52.3667 62.2767 52.3433H62.2533C62.2533 52.3433 62.0667 52.67 61.81 52.6933Z" fill="black"/>
<path d="M61.8333 52.7167V52.7517C62.2883 52.7167 62.4866 52.4483 62.4866 52.4367L62.4633 52.425C62.4633 52.425 62.265 52.6817 61.8333 52.7167Z" fill="black"/>
<path d="M61.8683 52.7166V52.7516C61.88 52.7516 62.4517 52.8799 62.65 52.5883L62.615 52.5649C62.44 52.8449 61.8683 52.7283 61.8683 52.7166Z" fill="black"/>
<path d="M49.105 31.915V47.8283C49.105 53.0316 58.5084 56.1116 58.5084 56.1116C58.5084 56.1116 67.9 53.0316 67.9 47.8283V31.915H49.105Z" stroke="black" stroke-width="0.326667" stroke-miterlimit="4.8"/>
<path d="M0 9.375H37.3333V37.375H0V9.375Z" fill="#012169"/>
<path d="M4.375 9.375L18.6083 19.9333L32.7833 9.375H37.3333V12.9917L23.3333 23.4333L37.3333 33.8167V37.375H32.6667L18.6667 26.9333L4.725 37.375H0V33.875L13.9417 23.4917L0 13.1083V9.375H4.375Z" fill="white"/>
<path d="M24.7333 25.7667L37.3333 35.0417V37.375L21.525 25.7667H24.7333ZM14 26.9333L14.35 28.975L3.15 37.375H0L14 26.9333ZM37.3333 9.375V9.55L22.8083 20.5167L22.925 17.95L34.4167 9.375H37.3333ZM0 9.375L13.9417 19.6417H10.4417L0 11.825V9.375Z" fill="#C8102E"/>
<path d="M14.0583 9.375V37.375H23.3917V9.375H14.0583ZM0 18.7083V28.0417H37.3333V18.7083H0Z" fill="white"/>
<path d="M0 20.6333V26.2333H37.3333V20.6333H0ZM15.925 9.375V37.375H21.525V9.375H15.925Z" fill="#C8102E"/>
</g>
<defs>
<clipPath id="clip0_1_27824">
<rect width="74.6667" height="56" fill="white" transform="translate(0 9.375)"/>
</clipPath>
</defs>
</svg>
