<svg width="75" height="75" viewBox="0 0 75 75" fill="none" xmlns="http://www.w3.org/2000/svg">
<rect width="74.6667" height="74.75" fill="white"/>
<g clip-path="url(#clip0_1_27958)">
<path d="M0 9.375H74.6667V65.375H0V9.375Z" fill="#012169"/>
<path fill-rule="evenodd" clip-rule="evenodd" d="M0 9.375H46.6667V32.7083H0V9.375Z" fill="#012169"/>
<path fill-rule="evenodd" clip-rule="evenodd" d="M48.1716 45.4134C48.1056 45.4078 48.0393 45.4078 47.9733 45.4134C47.6233 45.4834 47.0866 46.7317 46.8066 47.4667C46.3283 48.0967 46.0833 48.5867 45.8966 48.9484C45.815 49.0884 45.6983 49.2517 45.7333 49.4384C45.0333 49.625 44.9983 50.3017 44.9983 50.5584C44.9983 50.85 45.08 50.99 45.08 50.99L45.5 51.865V51.8767C45.9433 52.9267 46.5966 54.315 46.9816 54.42C47.495 54.595 48.8483 54.035 49.875 53.055C51.8425 53.9736 53.9507 54.4531 56.0816 54.4667C58.4616 54.4667 60.5966 53.825 62.265 53.055C63.2916 54.035 64.645 54.595 65.1816 54.42C65.5316 54.3034 66.1966 52.9034 66.6516 51.8767L67.06 50.99C67.06 50.99 67.1416 50.85 67.1416 50.57C67.1416 50.3134 67.1066 49.6367 66.4066 49.45C66.4416 49.2634 66.3366 49.1 66.255 48.9484C66.0566 48.575 65.8116 48.085 65.3566 47.4317C65.0533 46.7084 64.5166 45.4834 64.19 45.425C63.7 45.3317 62.6733 45.6 62.6733 45.705V45.7517L60.6083 47.9217C60.6083 47.98 60.7133 49.555 61.11 50.955C59.4889 51.6035 57.7791 51.9273 56.0583 51.9117C54.075 51.9117 52.3833 51.515 51.0183 50.9434C51.2763 49.9539 51.4444 48.9376 51.52 47.91L49.4666 45.7517V45.705C49.4666 45.6234 48.6733 45.4134 48.1716 45.4134ZM48.685 48.0967C48.9533 48.0967 49.2216 48.3534 49.4433 48.61L49.4316 48.7617C49.3478 49.1665 49.2387 49.5641 49.105 49.9517C48.5966 49.6223 48.1196 49.2353 47.6816 48.7967C47.9033 48.5284 48.265 48.1667 48.6383 48.12H48.685V48.0967ZM63.455 48.0967H63.5016C63.8866 48.1667 64.2366 48.5284 64.47 48.7967C64.0288 49.2402 63.5479 49.6312 63.035 49.9634C62.9007 49.5721 62.7915 49.1705 62.7083 48.7617C62.6987 48.7115 62.6909 48.6609 62.685 48.61C62.9183 48.3417 63.1866 48.1084 63.455 48.1084V48.0967ZM46.8416 51.1767C47.1216 51.41 47.4716 51.69 47.9033 51.97C47.789 52.0553 47.6628 52.1184 47.53 52.1567C47.3433 52.2034 47.1683 52.1917 46.9816 52.1567C46.9097 51.948 46.8703 51.727 46.865 51.5034C46.8552 51.3947 46.8474 51.2858 46.8416 51.1767ZM65.2983 51.1767L65.2866 51.5034C65.2794 51.7231 65.24 51.9399 65.17 52.145C65.0119 52.1879 64.8476 52.1945 64.6872 52.1644C64.5268 52.1344 64.3735 52.0682 64.2366 51.97C64.6683 51.69 65.03 51.41 65.2983 51.1767Z" fill="url(#paint0_linear_1_27958)" stroke="white" stroke-width="1.16667"/>
<path fill-rule="evenodd" clip-rule="evenodd" d="M49.7233 48.995C49.7233 48.995 49.0116 47.7 48.4283 47.805C47.8333 47.8867 47.2616 48.715 47.2383 48.7617C46.9083 48.4362 46.6144 48.0639 46.3633 47.6533C46.3983 47.6067 47.2733 45.215 47.7633 45.11C48.2299 45.005 49.2449 45.285 49.2449 45.3783L49.7233 48.995Z" fill="url(#paint1_linear_1_27958)" stroke="black" stroke-width="0.14"/>
<path fill-rule="evenodd" clip-rule="evenodd" d="M51.31 47.6066C51.31 47.7 51.0533 51.13 50.0383 52.32C49.035 53.5216 47.355 54.2566 46.7483 54.0816C46.165 53.895 44.8233 50.43 44.8233 50.43C44.8233 50.43 46.2466 52.0866 47.3083 51.8066C48.37 51.5383 49.0116 49.4616 49.21 48.435C49.4083 47.4316 49.245 45.4366 49.245 45.4366L51.3216 47.6066H51.31Z" fill="url(#paint2_linear_1_27958)" stroke="black" stroke-width="0.14"/>
<path fill-rule="evenodd" clip-rule="evenodd" d="M62.1716 48.995C62.1716 48.995 62.895 47.7 63.4783 47.805C64.0616 47.8867 64.6216 48.715 64.6683 48.7617C64.9983 48.4362 65.2922 48.0639 65.5433 47.6533C65.4966 47.6067 64.6216 45.215 64.1433 45.11C63.665 45.005 62.65 45.285 62.65 45.3783L62.1716 48.995Z" fill="url(#paint3_linear_1_27958)" stroke="black" stroke-width="0.14"/>
<path fill-rule="evenodd" clip-rule="evenodd" d="M60.585 47.6066C60.585 47.7 60.8416 51.13 61.8566 52.32C62.8716 53.5216 64.54 54.2566 65.1466 54.0816C65.73 53.895 67.0833 50.43 67.0833 50.43C67.0833 50.43 65.6483 52.0866 64.5866 51.8066C63.5366 51.5383 62.895 49.4616 62.6966 48.435C62.4866 47.4316 62.65 45.4366 62.65 45.4366L60.5733 47.6066H60.585Z" fill="url(#paint4_linear_1_27958)" stroke="black" stroke-width="0.14"/>
<path fill-rule="evenodd" clip-rule="evenodd" d="M46.8066 47.4316C46.34 48.0733 46.095 48.575 45.885 48.9483C45.6866 49.3216 45.815 49.8466 46.2583 50.5816C46.76 51.3633 50.8083 54.4783 56.07 54.4783C61.3433 54.4783 65.38 51.375 65.87 50.5816C66.3366 49.835 66.4533 49.3216 66.255 48.9483C66.0566 48.575 65.8 48.0733 65.3333 47.4316C65.3333 48.4 61.985 51.9233 56.07 51.9233C50.155 51.9233 46.8066 48.4 46.8066 47.4316Z" fill="url(#paint5_linear_1_27958)" stroke="black" stroke-width="0.175"/>
<path fill-rule="evenodd" clip-rule="evenodd" d="M65.065 53.5683L65.975 51.8067L65.52 51.4333C65.4033 51.8767 64.8783 52.0283 64.785 52.6C64.7033 53.1483 65.135 53.6967 65.065 53.5683Z" fill="url(#paint6_linear_1_27958)" stroke="black" stroke-width="0.14"/>
<path fill-rule="evenodd" clip-rule="evenodd" d="M65.8933 53.0667C65.8933 53.0667 66.0566 52.2733 65.5433 52.18C65.03 52.0867 64.75 52.6233 64.8316 52.4133C64.9016 52.18 65.205 51.9467 65.2633 51.165C65.2983 50.3833 65.2166 49.9633 65.2166 49.9633C65.2166 49.9633 65.4266 48.9483 66.2433 49.0883C67.0833 49.24 67.1183 49.975 67.1183 50.2433C67.1223 50.3827 67.0985 50.5216 67.0483 50.6517L65.8933 53.0667Z" fill="url(#paint7_linear_1_27958)" stroke="black" stroke-width="0.14"/>
<path d="M62.9067 50.4067L63.0817 50.7334L63.1983 50.6634L63.1167 50.43L63.1283 50.395L63.3267 50.255L63.84 51.27V51.3284L63.7233 51.41L63.7817 51.5034L64.2717 51.1534L64.225 51.06L64.1083 51.13H64.0733L63.56 50.1034L63.7467 49.9634H63.7933L63.91 50.15L64.0267 50.0684L63.8517 49.7417L62.9183 50.4067H62.9067ZM61.6817 51.1884L61.7283 51.2817L61.8333 51.235L61.8683 51.2467L62.3233 52.285L62.3117 52.3317L62.2183 52.4017L62.2533 52.495L62.7317 52.2034L62.6967 52.11L62.5917 52.1567H62.545L62.335 51.655L62.8367 51.375L63.0467 51.8417V51.9L62.93 51.97L62.9767 52.075L63.4667 51.7834L63.42 51.69L63.315 51.7367L63.28 51.7134L62.8367 50.6867V50.64L62.93 50.57L62.895 50.4767L62.4167 50.7684L62.4517 50.8617L62.5683 50.8034L62.6033 50.8267L62.7783 51.2467L62.2883 51.5384L62.1017 51.1067L62.125 51.06L62.2183 51.0017L62.1717 50.8967L61.6817 51.1884ZM61.4017 52.075L61.425 52.1684L61.565 52.1334L61.6117 52.145L61.7167 52.5767L61.6233 52.6234C61.3317 52.7167 61.11 52.565 61.005 52.1917C60.9117 51.8184 61.0283 51.5384 61.2967 51.445C61.3499 51.4286 61.4054 51.4246 61.46 51.4334L61.495 51.4567L61.5883 51.655L61.7283 51.6084L61.6467 51.2584C61.495 51.2584 61.355 51.2817 61.2383 51.3284C60.8183 51.48 60.6317 51.8534 60.7367 52.285C60.8533 52.7167 61.1917 52.915 61.5767 52.7867C61.7198 52.7349 61.8539 52.656 61.9733 52.5534L61.8333 52.075L61.8567 52.0284L61.9617 51.9817L61.9267 51.8767L61.4017 52.075ZM60.27 53.2767L60.8183 53.0784L60.7833 52.9734L60.6667 52.9967L60.6317 52.985L60.3283 51.865L60.34 51.83L60.4567 51.7717L60.4333 51.6784L59.885 51.865L59.92 51.97L60.0367 51.935L60.0833 51.9584L60.375 53.0667L60.3517 53.1134L60.235 53.16L60.27 53.265V53.2767ZM57.295 53.8134L58.2633 53.72L58.2283 53.3234L58.1117 53.335L58.0883 53.5684L58.065 53.6034L57.6567 53.65L57.61 53.0784L57.8433 53.055L57.8783 53.09L57.9017 53.2417H58.0183L57.9717 52.7284H57.855V52.8917L57.8317 52.9384L57.5983 52.95L57.5517 52.4367L57.9133 52.4017L57.9367 52.425L57.9833 52.6234L58.1117 52.6117L58.0883 52.2617L57.1783 52.355V52.46H57.295L57.33 52.495L57.4117 53.65L57.4 53.685L57.2833 53.7084V53.825L57.295 53.8134ZM55.8483 52.3784V52.495H55.965L55.9883 52.53L56 53.685L55.9767 53.72L55.8717 53.7434V53.8367H56.385V53.7317H56.2683L56.245 53.685V53.125H56.7583V53.6617L56.735 53.6967L56.63 53.7084V53.825H57.1433V53.7084H57.0267L57.015 53.6617L56.9917 52.495L57.015 52.46H57.1317V52.3434H56.6067V52.46L56.7233 52.4717L56.7467 52.5067V52.9734L56.245 52.985L56.2217 52.5184L56.2567 52.4834H56.3617V52.3667L55.8483 52.3784ZM54.7517 52.3434V52.7284H54.8683L54.9033 52.495L54.9267 52.46H55.1483V53.65L55.1133 53.6967H54.9967V53.8134H55.5333V53.7084L55.4167 53.6967L55.3817 53.65L55.3933 52.4834H55.6033L55.6383 52.5067L55.6733 52.74H55.79V52.355L54.7517 52.3434ZM53.0833 53.58L54.0167 53.6267L54.04 53.2417H53.9233L53.8883 53.4634L53.865 53.4867L53.4567 53.475L53.48 52.8917L53.7017 52.915L53.725 52.95L53.7483 53.1134H53.8417L53.865 52.6117H53.76L53.7367 52.7517L53.7133 52.7867H53.48L53.5033 52.25L53.8533 52.2734L53.8767 52.2967L53.8883 52.495H54.0167V52.1567L53.1417 52.11V52.215L53.2583 52.2384L53.27 52.2734L53.2233 53.4284L53.2 53.4634H53.0833V53.5684V53.58ZM50.9133 52.95L51.4267 53.1367L51.45 53.0434L51.3333 52.985V52.9384L51.625 51.83L51.66 51.8067L51.7767 51.8417L51.8 51.7484L51.2983 51.55L51.275 51.655L51.38 51.7017L51.4033 51.7484L51.0883 52.845L51.065 52.88L50.9483 52.845L50.9133 52.95ZM50.0267 52.565C50.1171 52.6469 50.2198 52.7101 50.33 52.7517C50.61 52.845 50.8317 52.7284 50.89 52.495C50.9069 52.4319 50.9104 52.365 50.9003 52.3C50.8901 52.235 50.8666 52.1738 50.8317 52.1217L50.6217 51.8884C50.5517 51.7834 50.5283 51.7017 50.5517 51.5967C50.5867 51.4917 50.68 51.4334 50.8083 51.48C50.855 51.5034 50.9017 51.5267 50.925 51.5617V51.5967L50.9017 51.83L51.0183 51.865L51.1117 51.5384C51.0261 51.4527 50.9272 51.3854 50.82 51.34C50.5867 51.2467 50.3767 51.375 50.3067 51.5967C50.2932 51.6517 50.2904 51.7092 50.2984 51.7654C50.3065 51.8217 50.3252 51.8755 50.3533 51.9234C50.4 52.04 50.47 52.0984 50.5283 52.1567C50.6333 52.2734 50.6683 52.39 50.645 52.495C50.61 52.6117 50.505 52.67 50.365 52.6117C50.3138 52.5901 50.2665 52.5585 50.225 52.5184L50.2133 52.4834L50.26 52.2267L50.1317 52.18L50.0267 52.565ZM48.8833 52.0284L49.7467 52.495L49.8867 52.145L49.77 52.0867L49.665 52.285L49.63 52.2967L49.2683 52.0867L49.4783 51.585L49.6883 51.7017V51.7367L49.6533 51.8884L49.7467 51.9467L49.9333 51.48L49.84 51.4334L49.7583 51.5617L49.7233 51.585L49.525 51.4684L49.7117 51.0017L50.0267 51.1767L50.0383 51.2117L49.9917 51.3984L50.1083 51.4567L50.225 51.1534L49.4317 50.6984L49.385 50.7917L49.4783 50.8617L49.49 50.9084L49.07 51.9584H49.035L48.93 51.9234L48.8833 52.0284ZM48.755 50.2784L48.3233 49.94L48.265 50.0334L48.3467 50.115L48.3583 50.1617L47.8217 51.1184L47.775 51.13L47.6933 51.0717L47.635 51.165L48.055 51.4917C48.2183 51.6084 48.3467 51.6667 48.475 51.655C48.6617 51.6317 48.825 51.515 48.9417 51.305C49.1517 50.9084 49.0933 50.535 48.755 50.2784ZM48.5683 50.2784L48.6617 50.3484C48.895 50.5234 48.9183 50.78 48.72 51.1184C48.5217 51.4684 48.3117 51.5384 48.09 51.3517L47.9967 51.305L48.58 50.29L48.5683 50.2784ZM51.9867 51.795L51.975 51.8884L52.08 51.9234L52.0917 51.97L51.8933 53.1017L51.8583 53.125H51.7417V53.2184L52.22 53.335L52.2433 53.2417L52.1267 53.195L52.115 53.16L52.1967 52.6817H52.2317C52.4067 52.7284 52.4417 52.8334 52.4417 53.055C52.4533 53.16 52.4533 53.2534 52.535 53.37C52.57 53.4167 52.6167 53.4634 52.6983 53.475C52.7561 53.4877 52.8146 53.4955 52.8733 53.4984L52.885 53.405H52.8733C52.7567 53.37 52.6983 53.3234 52.6983 53.195C52.675 53.0784 52.6983 52.9617 52.6517 52.845C52.6203 52.7721 52.5664 52.7142 52.5 52.6817C52.6983 52.6817 52.815 52.5767 52.85 52.39C52.8967 52.1567 52.7917 51.9817 52.5117 51.9234L51.9983 51.795H51.9867ZM52.3367 51.9934L52.4067 52.0167C52.57 52.0634 52.64 52.18 52.605 52.355C52.57 52.5534 52.465 52.6234 52.2783 52.565L52.22 52.5534L52.325 51.9934H52.3367ZM58.66 52.11L58.6717 52.2267H58.7883L58.8233 52.25L58.9867 53.3934L58.9633 53.4284L58.8467 53.4634L58.87 53.5567L59.395 53.4634V53.3467L59.2667 53.37L59.2317 53.335L59.1617 52.8684H59.1967C59.3833 52.81 59.4533 52.8917 59.5467 53.09C59.5817 53.1834 59.605 53.2767 59.7217 53.3467C59.7683 53.3817 59.8383 53.3934 59.9317 53.3817C59.995 53.3672 60.0574 53.3477 60.1183 53.3234L60.1067 53.2184H60.0833C59.955 53.2534 59.885 53.2184 59.8267 53.1134C59.78 53.02 59.745 52.9034 59.675 52.8217C59.6283 52.7634 59.5583 52.7284 59.465 52.7284C59.6633 52.635 59.7567 52.495 59.7333 52.2967C59.6983 52.0634 59.535 51.9467 59.2433 52.005L58.66 52.11ZM59.0683 52.1684H59.15C59.3367 52.1217 59.4417 52.1917 59.4767 52.3784C59.5 52.565 59.4183 52.6817 59.22 52.7284H59.15L59.0567 52.1684H59.0683Z" fill="black"/>
<path fill-rule="evenodd" clip-rule="evenodd" d="M46.8416 53.5683L45.9316 51.8067L46.3866 51.4333C46.5033 51.8767 47.0283 52.0283 47.1216 52.6C47.2033 53.1483 46.7716 53.6967 46.8416 53.5683Z" fill="url(#paint8_linear_1_27958)" stroke="black" stroke-width="0.14"/>
<path fill-rule="evenodd" clip-rule="evenodd" d="M46.0017 53.0667C46.0017 53.0667 45.8383 52.2733 46.3517 52.18C46.865 52.0867 47.145 52.6233 47.075 52.4133C46.9933 52.18 46.69 51.9467 46.6433 51.165C46.5967 50.3833 46.6783 49.9633 46.6783 49.9633C46.6783 49.9633 46.48 48.9483 45.6517 49.0883C44.8233 49.24 44.7767 49.975 44.7767 50.2433C44.7767 50.5 44.8583 50.6517 44.8583 50.6517L46.0017 53.0667Z" fill="url(#paint9_linear_1_27958)" stroke="black" stroke-width="0.14"/>
<path fill-rule="evenodd" clip-rule="evenodd" d="M56.0583 50.92C56.0583 50.92 46.4917 47.77 46.5617 35.8234L46.6317 20.0034H65.45L65.52 35.73C65.5783 47.6767 56.0233 50.9084 56.0233 50.9084L56.0583 50.92Z" fill="#0072C4" stroke="white" stroke-width="0.455"/>
<path fill-rule="evenodd" clip-rule="evenodd" d="M47.8638 23.7962C47.8809 23.7962 47.9921 23.6715 48.1032 23.5659C48.2485 23.4699 48.3853 23.3644 48.5307 23.278C48.6503 23.2108 48.8726 23.1532 48.9666 23.0957C49.1061 23.0176 49.2286 22.9062 49.3257 22.7694C49.3428 22.5679 49.3684 22.4143 49.3684 22.1744C49.5223 22.0784 49.6591 22.0017 49.7959 21.9441C49.9925 21.8769 50.0353 21.7905 50.2319 21.7521C50.3601 21.7042 50.5653 21.7042 50.7448 21.7042C50.9414 21.7042 51.0611 21.8673 51.2406 21.8961C51.4544 21.9921 51.5484 22.0592 51.7194 22.2224C51.8049 22.3567 51.8647 22.4719 52.0271 22.5679C52.1554 22.6446 52.2751 22.7598 52.4204 22.7982C52.5914 22.9037 52.7282 22.9709 52.8564 23.1244C52.9761 23.2204 53.0274 23.3548 53.1299 23.4507C53.2559 23.5714 53.3902 23.6805 53.5317 23.777C53.7027 23.9018 53.8737 23.9977 54.1387 23.9689C54.284 23.9689 54.4379 23.9402 54.6089 23.9689C54.8055 23.9689 54.9936 23.9689 55.1646 24.0265C55.3698 24.0265 55.5322 24.0553 55.7203 24.0745C55.8912 24.1033 56.0708 24.1129 56.2674 24.1129C56.4384 24.1705 56.6264 24.1609 56.8231 24.1609H57.9344C58.131 24.1609 58.3362 24.1705 58.4815 24.2089C58.6675 24.2062 58.8531 24.1902 59.0372 24.1609C59.2509 24.1609 59.4134 24.1225 59.6271 24.1129H60.2939C60.4649 24.1705 60.6871 24.2089 60.8068 24.3048C60.9693 24.3528 61.0462 24.4392 61.2001 24.4872C61.3283 24.5543 61.5078 24.6695 61.6019 24.8134C61.7267 24.9667 61.833 25.1377 61.9182 25.3221C62.0208 25.4948 62.0635 25.7059 62.149 25.9266C62.2003 26.1378 62.2345 26.3393 62.2345 26.5696C62.2772 26.7711 62.2687 26.9919 62.2687 27.2222C62.2259 27.4333 62.2174 27.6636 62.149 27.8651C62.149 28.0955 62.1063 28.297 62.0721 28.4697C62.0379 28.6616 61.9951 28.7864 61.9866 29.0263V29.6789C61.9866 29.89 61.9353 30.0436 61.9182 30.2739C61.8125 30.5012 61.7183 30.7351 61.6361 30.9744C61.5118 31.0734 61.4046 31.197 61.3198 31.3391C61.2343 31.3967 61.1915 31.4926 61.2086 31.531C61.3625 31.5886 61.3198 31.7133 61.3198 31.9437C61.3454 32.126 61.3625 32.3467 61.4053 32.5482C61.4138 32.769 61.4565 32.9033 61.5164 33.0569C61.5848 33.1528 61.6019 33.1048 61.4394 33.1048C61.3283 33.2008 61.2086 33.1528 61.1659 32.9609C61.0766 32.8082 61.0209 32.6339 61.0035 32.4523C60.9864 32.2412 60.9522 32.03 60.8923 31.8957C60.8667 31.6366 60.8068 31.6366 60.576 31.6174C60.4649 31.5118 60.3195 31.483 60.0973 31.483C59.8836 31.483 59.8665 31.4542 59.8665 31.7133V32.3659C59.8237 32.5578 59.7468 32.7018 59.704 32.8745C59.5843 32.9705 59.533 33.1336 59.3877 33.2392C59.3193 33.4503 59.2253 33.4887 59.0372 33.5271L58.7978 33.2008C58.909 32.9897 59.003 32.9609 59.0714 32.7306C59.1569 32.5482 59.2082 32.4331 59.268 32.2699C59.1825 32.126 59.1142 32.0588 59.0372 31.8573C58.9552 31.6964 58.8893 31.5258 58.8406 31.3487C58.7038 31.2911 58.4986 31.2815 58.4046 31.2047C58.208 31.1567 58.1567 31.3967 57.9259 31.3967H57.3787C57.1308 31.3967 57.071 31.5406 56.8658 31.531C56.806 31.5502 56.6521 31.5214 56.4298 31.531C56.2588 31.5982 56.0622 31.579 55.8741 31.579C55.6775 31.579 55.5151 31.5214 55.3612 31.483C55.1817 31.4255 55.0021 31.3679 54.8141 31.3487C54.5833 31.3487 54.4892 31.3679 54.3353 31.483C54.2157 31.5694 54.0361 31.7517 53.9079 31.8573C53.8481 32.0108 53.8224 32.2699 53.7369 32.4523C53.7027 32.6442 53.6343 32.7498 53.5916 32.9225C53.525 33.0995 53.4846 33.2875 53.4719 33.4791C53.4548 33.7862 53.395 33.7478 53.2325 33.6614C53.1641 33.5271 53.0616 33.3927 52.9932 33.2392C53.0274 33.0089 53.0787 32.8937 53.0787 32.6442C53.0359 32.4523 52.9504 32.4715 52.8393 32.5962C52.8393 32.8361 52.8393 33.0281 52.7538 33.1528C52.7389 33.2278 52.7109 33.2987 52.6712 33.3614C52.6316 33.424 52.5812 33.4771 52.523 33.5175C52.4631 33.6902 52.3349 33.7766 52.2067 33.8438C52.1896 33.8438 52.2067 33.7862 52.2067 33.6518C52.1126 33.4503 52.2067 33.268 52.2067 33.0089C52.2067 32.7786 52.1896 32.625 52.2494 32.4139C52.2494 32.1836 52.1639 31.9725 52.1297 31.8093C52.0528 31.6366 52.01 31.5502 51.8134 31.483C51.6681 31.4159 51.4715 31.3391 51.3774 31.1951C51.2868 31.0536 51.1623 30.9438 51.0184 30.8784C50.8474 30.8113 50.7534 30.7345 50.6251 30.6481C50.5054 30.4946 50.4029 30.437 50.3516 30.2355C50.2661 30.0915 50.2575 29.8228 50.1977 29.6309C50.1808 29.4401 50.1405 29.2528 50.078 29.0743C50.0586 28.884 50.0184 28.697 49.9583 28.5177C49.9327 28.3258 49.8899 28.1338 49.8386 27.9131C49.8386 27.6924 49.8386 27.4717 49.7959 27.2702V26.6176C49.7702 26.4257 49.7617 26.157 49.7189 26.013C49.7189 25.7635 49.6933 25.6291 49.6335 25.4564C49.548 25.2933 49.548 25.2261 49.4026 25.1781C49.3001 25.3221 49.1376 25.3892 48.9325 25.418C48.7871 25.3796 48.5819 25.3508 48.4195 25.2741C48.2571 25.2357 48.1545 25.1589 48.0263 25.0821C47.9525 24.9558 47.8726 24.834 47.7869 24.7175C47.7613 24.4776 47.7185 24.3528 47.7014 24.1129C47.7014 23.9402 47.71 24.0361 47.8724 23.7962H47.8638Z" fill="#BCBCBC"/>
<path fill-rule="evenodd" clip-rule="evenodd" d="M50.1977 25.466L50.2319 25.4276C50.1635 25.5044 50.1891 25.466 50.343 25.3988C50.4285 25.3412 50.5909 25.2357 50.6508 25.1685C50.7192 25.1301 50.8389 25.0725 50.9072 25.0054C50.9756 24.9094 51.0526 24.8326 51.1552 24.7463C51.2577 24.6407 51.3603 24.6023 51.4886 24.5159C51.6424 24.4968 51.7023 24.42 51.8476 24.4776C51.9844 24.5159 52.0442 24.5159 52.1554 24.3816C52.2665 24.3048 52.3947 24.2185 52.4375 24.0937V23.8922C52.4375 24.1033 52.3947 24.1801 52.2665 24.2472C52.181 24.372 52.0613 24.4968 52.01 24.6119C51.9246 24.7559 51.9075 24.8326 51.822 24.8998C51.745 25.0054 51.6253 25.0629 51.5997 25.2357C51.6339 25.3125 51.5997 25.3508 51.6852 25.3604C51.7621 25.4372 51.8476 25.4084 51.9588 25.3604C52.0516 25.2475 52.1267 25.1177 52.181 24.9766C52.2751 24.823 52.3264 24.7559 52.3776 24.6407C52.4802 24.5639 52.5401 24.5064 52.5743 24.3816C52.6854 24.3048 52.7794 24.2281 52.8564 24.1513C52.9419 24.0937 52.9846 24.0457 53.1043 24.0169C53.1131 24.1458 53.083 24.2743 53.0188 24.3816C52.9932 24.5639 53.0017 24.6503 53.053 24.7655C53.1299 24.8326 53.1128 24.8806 53.1641 25.0054C53.2069 24.8902 53.2325 24.6791 53.2496 24.5447V24.5159C53.2496 24.6503 53.2496 24.8422 53.2154 24.9382C53.2154 25.1301 53.2582 25.2165 53.3009 25.3604C53.3437 25.4372 53.3864 25.4852 53.4377 25.5236C53.4377 25.3317 53.489 25.2165 53.4975 25.0438C53.5317 25.1685 53.5232 25.3508 53.5488 25.4948C53.5574 25.6483 53.6087 25.7635 53.66 25.8883C53.7284 25.9266 53.7455 26.061 53.7711 25.9554C53.8395 25.7251 53.8395 25.4756 53.8822 25.2357C53.8908 25.1109 53.8993 24.9286 53.9421 24.8422L53.8822 25.2261C53.8908 25.1109 53.8993 24.9382 53.9421 24.8422V24.8038C53.9732 24.978 53.9932 25.1543 54.0019 25.3317C54.0019 25.4756 53.9934 25.6195 54.0276 25.7539C54.1131 25.7059 54.1729 25.5908 54.2242 25.466C54.2842 25.3344 54.3589 25.2118 54.4465 25.1013L54.2242 25.4564C54.2849 25.3281 54.3595 25.2089 54.4465 25.1013V25.0725C54.4301 25.2222 54.4215 25.3728 54.4208 25.5236C54.4208 25.6771 54.4208 25.8499 54.4465 25.9554C54.4807 26.1282 54.5234 26.157 54.532 26.3393C54.532 26.4353 54.5149 26.5312 54.5576 26.5792C54.6773 26.608 54.6773 26.5312 54.6944 26.3489C54.6944 26.1378 54.7457 25.9938 54.7542 25.7923C54.7542 25.5428 54.7799 25.8211 54.8055 25.917C54.8567 26.0541 54.8857 26.2004 54.891 26.3489C54.891 26.4449 54.8825 26.5312 54.9167 26.5792C55.0278 26.5216 55.0705 26.3873 55.1389 26.3105C55.1988 26.157 55.2586 26.0898 55.3099 25.9842C55.4552 25.9554 55.4467 25.8883 55.4467 25.6963C55.4467 25.5332 55.4381 25.37 55.4809 25.2357C55.5252 25.0942 55.5623 24.9501 55.592 24.8038C55.6433 24.7751 55.6946 24.8614 55.7288 24.9382C55.7886 25.0438 55.7801 25.1973 55.7801 25.3604C55.8143 25.5044 55.8656 25.6195 55.9254 25.7539C55.9773 25.8723 56.0435 25.982 56.1221 26.0802C56.1477 26.1857 56.1477 26.3681 56.1477 26.512C56.2588 26.3681 56.2759 26.1666 56.2845 25.9554C56.2674 25.8115 56.2674 25.6291 56.2332 25.4948C56.2332 25.3508 56.199 25.2069 56.1733 25.1013C56.0879 25.0534 56.0622 25.0054 56.1477 24.871C56.2332 24.7846 56.3358 24.823 56.4811 24.8422C56.558 24.9286 56.5837 24.9766 56.5922 25.1685C56.5922 25.3412 56.5922 25.4756 56.6521 25.5908C56.7034 25.6867 56.7547 25.7539 56.7889 25.917C56.8316 25.965 56.8658 26.0322 56.9256 25.9554C56.9598 25.8595 56.9855 25.6675 57.0111 25.562C57.0368 25.4372 57.0881 25.37 57.1479 25.3317C57.1479 25.514 57.1479 25.6195 57.2078 25.7539C57.2591 25.8978 57.2932 25.9554 57.3445 26.1186C57.4044 26.1666 57.4129 26.2625 57.4899 26.3105C57.507 26.157 57.5155 25.9842 57.5155 25.7923V25.3317C57.5241 25.1781 57.5583 25.0917 57.601 24.967C57.6865 25.1013 57.6865 25.1493 57.6865 25.3317C57.772 25.2933 57.7891 25.2165 57.8233 25.1013C57.8831 25.0342 57.9088 25.0054 57.9344 25.1685C57.9515 25.3412 57.9857 25.4948 58.0199 25.6579C58.0712 25.7347 58.1396 25.917 58.208 25.9842C58.2564 26.0803 58.3137 26.1703 58.379 26.2529C58.4217 26.3489 58.4302 26.4161 58.5499 26.4449C58.5499 26.2241 58.5499 26.0034 58.5157 25.7923C58.5157 25.6004 58.4815 25.5332 58.4644 25.3604C58.4131 25.2549 58.3875 25.0821 58.4046 25.0342C58.5163 25.1411 58.6041 25.2758 58.6611 25.4276C58.7209 25.5908 58.7807 25.6963 58.832 25.8595C58.9133 25.9595 58.985 26.0688 59.0458 26.1857C59.1483 26.2817 59.1996 26.3873 59.3022 26.4736C59.3535 26.5312 59.4732 26.5696 59.4989 26.5408C59.4903 26.3489 59.4647 26.1857 59.4134 26.0226C59.4131 25.8857 59.3838 25.7508 59.3279 25.6291C59.2167 25.5236 59.1313 25.4468 59.0714 25.3029C59.0372 25.2549 59.0287 25.2261 59.0201 25.1397C59.1675 25.271 59.2996 25.4225 59.4134 25.5908C59.4687 25.6876 59.5452 25.7669 59.6356 25.8211C59.6869 25.8978 59.8494 25.9842 59.969 26.013C60.0384 26.1161 60.1386 26.1876 60.2512 26.2145L59.969 26.0226C60.0399 26.1221 60.1398 26.1901 60.2512 26.2145V26.2529C60.2306 26.0647 60.1722 25.8842 60.0802 25.7251C60.0267 25.579 59.9379 25.4527 59.8237 25.3604C59.7543 25.2414 59.6605 25.1427 59.5501 25.0725C59.4732 24.9766 59.3621 24.8038 59.2937 24.7463C59.4219 24.6503 59.5587 24.8038 59.6869 24.871C59.7981 25.0054 59.9007 25.1781 59.969 25.2645C60.0347 25.4221 60.1211 25.5677 60.2255 25.6963C60.3452 25.7731 60.4221 25.8499 60.5247 25.9554C60.6957 26.0034 60.6273 25.9362 60.5846 25.7923C60.5247 25.6004 60.5846 25.6004 60.6957 25.7251C60.7726 25.7923 60.8667 25.8883 60.9778 25.9554C61.0206 26.0226 61.0975 26.0706 61.1659 26.0226C61.2001 25.9746 61.2001 25.9746 61.2001 25.9266C61.1402 25.7155 61.0889 25.562 60.9436 25.4948C60.8838 25.3988 60.7726 25.3029 60.6871 25.2069C60.6359 25.1109 60.576 25.0534 60.5247 24.9382L60.6957 25.1973C60.6359 25.1013 60.576 25.0534 60.5247 24.9382H60.4991C60.67 24.9382 60.7299 24.9958 60.8581 25.0725C60.9616 25.12 61.0506 25.2 61.1146 25.3029C61.1659 25.3796 61.2514 25.466 61.3112 25.562L61.5848 25.7923C61.6788 25.9266 61.6959 26.013 61.6959 26.2145C61.7558 26.3105 61.7643 26.5024 61.7814 26.608C61.7643 26.7903 61.7045 26.6464 61.6959 26.5408C61.6788 26.3969 61.6275 26.4065 61.5249 26.4449C61.5249 26.6368 61.5506 26.6944 61.6104 26.8383C61.5988 26.9544 61.5637 27.066 61.5078 27.1646C61.4394 27.2126 61.4223 27.0686 61.3625 27.0014C61.3625 26.8095 61.3112 26.7807 61.1915 26.6752V26.8095C61.2599 26.9439 61.3283 27.0686 61.3369 27.2606C61.3812 27.3989 61.4015 27.5455 61.3967 27.6924C61.3967 27.8555 61.3967 28.0091 61.3625 28.153C61.3625 28.3258 61.3369 28.4025 61.3369 28.5753V29.4965C61.3164 29.6361 61.3078 29.7775 61.3112 29.9188L61.3369 29.4965C61.3112 29.6117 61.3112 29.7557 61.3112 29.9188V29.9476C61.2599 29.7844 61.2001 29.6405 61.1659 29.4678C61.0836 29.3712 61.0196 29.257 60.9778 29.1319C60.9522 28.9879 60.9436 28.8248 60.918 28.7096C60.8752 28.5945 60.8325 28.4697 60.747 28.5465C60.7128 28.7864 60.7555 28.9304 60.8325 29.1607C60.8752 29.3142 60.8752 29.4486 60.918 29.5925C60.9864 29.7653 61.0376 29.7844 60.918 29.9764C60.8581 30.0915 60.8325 30.1203 60.8068 30.2451C60.7042 30.3027 60.6786 30.341 60.67 30.4754C60.6358 30.3506 60.5504 30.1971 60.4991 30.0531C60.4478 29.89 60.3879 29.7269 60.3623 29.5925C60.2939 29.4774 60.2084 29.3046 60.14 29.2278C60.0631 29.1319 59.969 28.9399 59.9177 28.844C59.8066 28.7 59.781 28.6137 59.6869 28.5465C59.6698 28.4793 59.6356 28.3929 59.5758 28.4505C59.5758 28.6041 59.5758 28.7672 59.61 28.9016C59.6356 29.0935 59.6869 29.1991 59.6955 29.391V29.7557C59.6271 29.5637 59.5501 29.4102 59.4989 29.2278C59.4305 29.1319 59.3706 28.9399 59.3022 28.8728C59.2509 28.7384 59.2167 28.6329 59.1569 28.5465C59.1484 28.4505 59.1056 28.4505 59.0714 28.3834C59.0714 28.5657 59.1313 28.6329 59.1569 28.7672C59.2167 28.9016 59.2338 29.1031 59.2167 29.1703C59.1483 28.9399 59.08 28.6904 58.9945 28.4793C58.909 28.345 58.8235 28.1722 58.7722 28.0475C58.6867 27.9419 58.6012 27.9323 58.5157 27.8555C58.4393 27.8201 58.3717 27.7641 58.3191 27.6924C58.3448 27.8651 58.4046 27.9803 58.4302 28.1146C58.4559 28.2778 58.5157 28.4121 58.5414 28.5465C58.5157 28.7672 58.473 28.4793 58.4302 28.3834C58.4046 28.1914 58.3448 28.0955 58.2935 27.9899C58.2165 27.9227 58.1481 27.8172 58.0712 27.7596C57.9857 27.7212 58.0199 27.7596 58.0199 27.8843C58.0199 28.0859 58.0199 28.2202 58.0712 28.345C58.131 28.4409 58.131 28.5657 58.131 28.7384C58.1225 28.9016 58.0968 29.0263 58.0968 29.1991V29.4582C58.037 29.3238 57.9772 29.2374 57.9259 29.0647C57.8404 28.9112 57.8062 28.8056 57.7378 28.6425C57.6779 28.6137 57.5668 28.5849 57.5155 28.6425C57.5241 28.8056 57.5925 28.8728 57.601 29.0647C57.4899 29.1895 57.507 29.2278 57.43 29.0359C57.3702 28.8824 57.2932 28.892 57.2078 28.8056C57.0624 28.7864 57.1137 28.6808 57.071 28.5369C57.071 28.4121 57.071 28.2874 57.0368 28.1818C56.8829 28.1818 56.7974 28.1818 56.7034 28.2778C56.6606 28.3738 56.6777 28.5657 56.7034 28.7096V29.1607C56.6692 29.2758 56.6179 29.2854 56.5922 29.4294C56.5409 29.5637 56.5238 29.7173 56.4811 29.8132C56.3785 29.9188 56.4213 29.9284 56.37 29.7557V28.7C56.37 28.5273 56.3956 28.4409 56.3956 28.2778C56.3358 28.1434 56.3272 28.1146 56.1391 28.1146C56.105 28.201 56.1221 28.3546 56.1391 28.4409C56.1391 28.6041 56.1562 28.7576 56.1733 28.8728C56.1733 29.0455 56.1904 29.1511 56.199 29.295C56.199 29.4678 56.1648 29.6021 56.0879 29.6789C55.9938 29.7173 56.0793 29.794 55.9767 29.8228C55.8648 29.7632 55.7611 29.6856 55.669 29.5925C55.5664 29.5541 55.4638 29.5253 55.3099 29.5253C55.1218 29.5253 55.1218 29.4965 55.0534 29.3334C55.0023 29.1616 54.9651 28.9849 54.9423 28.8056C54.8825 28.6521 54.8739 28.5465 54.8312 28.3738C54.7926 28.2819 54.7338 28.2026 54.6602 28.1434C54.626 28.3162 54.5918 28.4505 54.5833 28.6425C54.5491 28.7192 54.5405 28.9112 54.5234 28.9975C54.4721 28.9016 54.4465 28.7096 54.4123 28.5753C54.361 28.3834 54.3182 28.249 54.1387 28.3162C53.9506 28.3162 53.9421 28.3162 53.9421 28.5465L54.1644 28.9304V29.391C54.1644 29.5829 54.1729 29.6405 54.0532 29.6789C54.0105 29.487 53.9079 29.295 53.7968 29.1319C53.7882 28.9975 53.754 29.0359 53.6343 29.0359C53.5574 29.0359 53.4805 29.0167 53.4377 29.0647V29.3526C53.3693 29.3718 53.3522 29.3526 53.3009 29.295C53.2496 29.391 53.2838 29.5253 53.3009 29.6501C53.2667 29.8036 53.2154 29.938 53.1641 30.0148C53.147 29.9668 53.1214 29.986 53.1641 29.986C52.9675 29.8996 52.8222 29.8516 52.6512 29.794C52.5657 29.794 52.4888 29.8996 52.4375 29.986C52.2922 30.034 52.2323 30.0819 52.0699 30.0819C51.916 30.0819 51.8476 30.1107 51.7108 30.1107C51.6082 30.1395 51.48 30.1491 51.3432 30.1491C51.2748 30.1203 51.1381 30.1203 51.0953 30.0819C51.1552 29.986 51.215 29.938 51.2663 29.794C51.3467 29.7217 51.4211 29.6414 51.4886 29.5541C51.557 29.4965 51.6424 29.3718 51.7108 29.295C51.7536 29.1319 51.8134 29.1031 51.9075 29.0359C52.0784 29.0359 52.1041 29.1031 52.2665 29.1319C52.4289 29.1991 52.523 29.2278 52.6085 29.0935C52.7367 29.0359 52.8478 28.9304 52.9932 28.9016L53.2753 28.7096C53.395 28.6233 53.4463 28.5369 53.5488 28.4409C53.583 28.3066 53.6685 28.201 53.6343 28.0571C53.4804 28.0091 53.3864 28.0187 53.2924 28.1146C53.1812 28.2298 53.1556 28.2778 53.0188 28.3738C52.9077 28.4121 52.8478 28.4697 52.7111 28.5081C52.5999 28.5561 52.4546 28.5369 52.3264 28.5369C52.1981 28.5369 52.0357 28.5273 51.9588 28.5753C52.087 28.4793 52.2323 28.3833 52.352 28.345C52.4631 28.2586 52.5059 28.2202 52.6598 28.2106C52.7281 28.1146 52.7965 28.1146 52.8307 27.9515C52.8735 27.7596 52.7196 27.8172 52.5999 27.8843C52.4888 27.9131 52.3605 27.9995 52.2665 28.0475C52.1505 28.0899 52.0295 28.1125 51.9075 28.1146C51.8733 28.0571 51.9331 28.0091 51.9588 27.9227C52.087 27.8651 52.1126 27.8459 52.1297 27.6924C51.9759 27.7116 51.9246 27.7692 51.7878 27.7884C51.651 27.8268 51.5057 27.8459 51.3432 27.8555H50.9585C50.8218 27.8555 50.7448 27.8172 50.5909 27.8172C50.4798 27.75 50.4798 27.7212 50.4798 27.5293C50.5653 27.4141 50.6508 27.4333 50.8218 27.4333L51.121 27.2606C51.2235 27.2414 51.2919 27.1934 51.2663 27.1358H50.873C50.7192 27.059 50.873 27.0302 50.9585 26.9727C51.0868 26.9727 51.2321 26.9727 51.3176 27.0302C51.4886 27.0302 51.5484 26.9631 51.6766 26.8383C51.7878 26.7423 51.8476 26.6752 51.9588 26.608C52.0442 26.5024 52.1297 26.4449 52.181 26.3489C52.3007 26.2241 52.3776 26.157 52.4375 26.0514C52.5059 26.0034 52.5572 25.9554 52.523 25.8883C52.3435 25.9074 52.2665 25.9842 52.1554 26.0802C52.0912 26.1575 52.0161 26.2223 51.9331 26.2721C51.8251 26.3581 51.6977 26.408 51.5655 26.4161C51.4287 26.4161 51.309 26.3873 51.1808 26.3777C51.0269 26.3585 51.1637 26.3201 51.2065 26.2433C51.2663 26.2049 51.309 26.0994 51.2577 26.0226C51.1466 25.9746 51.0013 25.9842 50.873 25.9842H50.4798C50.3345 25.9842 50.2746 25.9458 50.172 25.8883C50.1464 25.7923 50.172 25.8211 50.2832 25.8211C50.4077 25.8155 50.5311 25.7929 50.6508 25.7539C50.779 25.7155 50.7961 25.6579 50.8218 25.4948C50.685 25.4948 50.5396 25.4948 50.4542 25.466H50.1977ZM47.7869 24.7175C47.7613 24.4776 47.71 24.3528 47.7014 24.1129C47.7014 23.9402 47.71 24.0361 47.8638 23.7962C47.8809 23.7962 47.9921 23.6715 48.1032 23.5659C48.2485 23.4699 48.3853 23.3644 48.5307 23.278C48.6418 23.2108 48.8726 23.1532 48.9666 23.0957C49.1061 23.0176 49.2286 22.9062 49.3257 22.7694C49.3342 22.5679 49.3599 22.4143 49.3599 22.1744C49.5223 22.0784 49.6591 22.0017 49.7959 21.9441C49.9925 21.8769 50.0353 21.7905 50.2319 21.7521C50.3601 21.7042 50.5653 21.7042 50.7448 21.7042C50.9414 21.7042 51.0611 21.8673 51.2406 21.8961C51.4544 21.9921 51.5484 22.0592 51.7108 22.2224C51.8049 22.3567 51.8647 22.4719 52.0271 22.5679C52.1554 22.6446 52.2751 22.7598 52.4204 22.7982C52.4204 22.9709 52.4546 22.9421 52.352 22.9421C52.3349 23.1149 52.3007 23.0957 52.1554 23.1053C52.0505 23.0422 51.9621 22.9496 51.8989 22.8366C51.9588 22.6734 51.9246 22.9805 51.8989 23.0381C51.8305 23.1053 51.7878 23.1724 51.7108 23.1053C51.6595 22.9421 51.6253 22.8366 51.6253 22.6446C51.5997 22.4431 51.5484 22.587 51.5142 22.6734C51.4715 22.8462 51.4886 22.9037 51.5399 23.0381C51.3945 23.0381 51.2834 23.0189 51.1808 22.9997C51.0782 22.9709 50.9585 23.0093 50.8389 23.0669C50.6935 23.1724 50.7448 23.1724 50.8132 23.2972C50.9414 23.3452 51.0355 23.4219 51.1552 23.4891C51.2748 23.4699 51.4116 23.4315 51.5399 23.3932C51.6766 23.3452 51.7963 23.374 51.9331 23.3932C52.0015 23.4411 52.087 23.4411 52.1297 23.4891C52.1297 23.5947 52.1297 23.7002 52.0955 23.7578C52.0442 23.8058 51.9844 23.921 51.8989 23.9498C51.7792 24.0288 51.6495 24.087 51.5142 24.1225C51.3432 24.1225 51.2748 24.1705 51.1466 24.2472C51.1295 24.42 51.0868 24.4584 50.95 24.5159C50.8299 24.5802 50.6983 24.613 50.5653 24.6119C50.4798 24.6119 50.4029 24.6215 50.3687 24.5735C50.4635 24.4623 50.5389 24.3321 50.5909 24.1897C50.6166 24.1129 50.6679 24.0745 50.6166 24.0169C50.4542 24.0265 50.4114 24.0265 50.3943 24.2089C50.3772 24.3912 50.3174 24.42 50.1977 24.4776C50.2319 24.3144 50.2404 24.1897 50.2832 24.0553C50.1644 24.0762 50.0443 24.0859 49.9241 24.0841C49.8386 24.1417 49.8044 24.1705 49.8386 24.276C49.7275 24.324 49.5822 24.2952 49.4454 24.276C49.3257 24.276 49.3941 24.2185 49.3086 24.1513C49.2488 24.0265 49.1889 23.9977 49.0521 23.9881C48.9923 24.0841 48.8812 24.1129 48.8042 24.1801C48.6845 24.2281 48.6076 24.1897 48.4965 24.1225C48.3597 24.1225 48.3768 24.1705 48.411 24.2856C48.4708 24.324 48.411 24.372 48.4965 24.3816C48.582 24.4584 48.6503 24.4776 48.8042 24.4776C48.9239 24.4392 49.0607 24.4488 49.1975 24.4488C49.3342 24.4488 49.3086 24.4872 49.3086 24.6407C49.2231 24.7175 49.0863 24.7079 48.941 24.7079C48.8268 24.6912 48.7149 24.659 48.6076 24.6119C48.4794 24.6023 48.3768 24.5735 48.2742 24.6119C48.2314 24.6695 48.1032 24.6887 48.2485 24.7079C48.3084 24.7751 48.6332 24.7367 48.6503 24.8518C48.7358 24.9478 48.7102 25.0725 48.582 25.0725C48.5524 25.0522 48.5183 25.0414 48.4836 25.0414C48.4489 25.0414 48.4149 25.0522 48.3853 25.0725C48.2998 25.0917 48.1802 25.0725 48.0177 25.0917C48.2314 25.1109 47.8638 24.8326 47.7869 24.7175Z" fill="#FEFEFE"/>
<path fill-rule="evenodd" clip-rule="evenodd" d="M48.6675 23.633L48.4965 23.7578C48.3768 23.8346 48.24 23.9497 48.1631 24.0169C48.1032 24.0745 48.1032 24.1129 48.0263 24.1129C48.1545 24.0937 48.2144 24.0553 48.3341 23.9881C48.4794 23.9689 48.6162 23.9305 48.6931 23.8538C48.7701 23.825 48.6931 23.7002 48.6675 23.6234V23.633ZM49.9498 22.088C49.9669 22.088 50.0011 22.184 50.0609 22.2511C50.1037 22.3759 50.1464 22.4623 50.1464 22.6158C50.1806 22.4527 50.2319 22.3279 50.2576 22.1552C50.2148 22.0592 50.2148 22.0304 50.0866 22.0208C50.0866 22.1168 50.1037 22.0496 49.9498 22.088Z" fill="#BCBCBC"/>
<path fill-rule="evenodd" clip-rule="evenodd" d="M49.1729 23.2451C49.1096 23.2451 49.2741 23.1712 49.3373 23.1565C49.388 23.0382 49.4133 22.9643 49.5018 22.8904C49.641 22.8904 49.7169 22.9496 49.7802 23.053C49.9067 23.0973 49.9447 23.1565 50.0838 23.186C50.1471 23.2451 50.2104 23.2451 50.0838 23.2895C50.0079 23.3338 49.894 23.3486 49.7549 23.3486C49.6406 23.3586 49.529 23.3937 49.4259 23.452C49.2361 23.452 49.2614 23.452 49.1729 23.2451Z" fill="#C4C4C2" stroke="black" stroke-width="0.123068"/>
<path fill-rule="evenodd" clip-rule="evenodd" d="M50.4542 22.1168V22.1552C50.4542 22.0593 50.4542 22.1072 50.4798 22.2896C50.5255 22.4107 50.546 22.542 50.5397 22.6734C50.619 22.5968 50.6781 22.4972 50.7106 22.3855C50.7106 22.1264 50.6679 22.136 50.4542 22.1168ZM51.48 25.8883H51.5142C51.4287 25.8883 51.48 25.8883 51.6254 25.7923C51.7194 25.7155 51.7963 25.6004 51.9331 25.562C52.0389 25.4607 52.1607 25.3825 52.2922 25.3317C52.3606 25.2933 52.4204 25.2357 52.4888 25.3029C52.4717 25.4564 52.446 25.5236 52.3178 25.5908C52.258 25.6867 52.1639 25.7443 52.0699 25.7827C51.9844 25.8403 51.8818 25.8403 51.8476 25.9554C51.6937 26.0322 51.6767 26.013 51.4886 25.8883H51.48ZM52.0186 26.8383C52.0613 26.7903 52.2409 26.5888 52.3264 26.512C52.4018 26.3879 52.4941 26.2778 52.5999 26.1858C52.6854 26.0418 52.788 25.9458 52.8564 25.8211L53.0787 25.4948C53.0787 25.6388 53.0616 25.8307 53.1043 25.9171C53.1126 26.055 53.0827 26.1924 53.0188 26.3105C52.959 26.4257 52.9077 26.5024 52.7624 26.5792C52.6427 26.656 52.5657 26.6752 52.4631 26.7711C52.381 26.8318 52.2953 26.8863 52.2067 26.9343C52.1297 26.9727 52.1639 26.9631 52.0186 26.8383ZM51.1466 27.5869H51.1808C51.0953 27.5869 51.1381 27.5965 51.292 27.4909C51.4116 27.3565 51.5057 27.299 51.651 27.2318C51.7696 27.226 51.8859 27.1934 51.993 27.1358C52.0528 27.1166 52.1041 27.0686 52.1554 27.1358C52.2409 27.2702 52.2665 27.3086 52.1297 27.3949C52.0463 27.4698 51.9504 27.5253 51.8476 27.5581C51.7792 27.6252 51.6425 27.6252 51.5057 27.654C51.4031 27.654 51.3347 27.6732 51.292 27.5869L51.5142 27.654C51.4031 27.654 51.3432 27.6732 51.1466 27.5869ZM52.3435 27.5869V27.5581C52.3435 27.654 52.3435 27.606 52.4033 27.4237C52.5144 27.2414 52.5486 27.1358 52.6854 27.0974C52.7453 27.0015 52.8564 26.9823 52.9932 26.9343C53.0445 27.0303 53.0017 27.1454 52.9932 27.2606C52.959 27.3853 52.8564 27.4717 52.7966 27.5581C52.7111 27.6252 52.6769 27.6924 52.5401 27.7212C52.4375 27.7212 52.4973 27.7212 52.352 27.5869H52.3435Z" fill="#BCBCBC"/>
<path fill-rule="evenodd" clip-rule="evenodd" d="M49.6163 23.3356C49.6163 23.4219 49.5565 23.4987 49.4796 23.4987C49.3941 23.4987 49.3342 23.4219 49.3342 23.3356C49.3342 23.2492 49.4026 23.1724 49.4796 23.1724C49.5565 23.1724 49.6163 23.2396 49.6163 23.3356Z" fill="black"/>
<path fill-rule="evenodd" clip-rule="evenodd" d="M50.0322 32.2588H50.146C49.7918 32.2588 50.0069 32.2293 50.5889 32.7761C50.8419 32.5396 50.8419 32.5101 51.0317 32.9239C51.1582 33.1455 51.1835 32.8943 51.3733 32.6578C51.4619 33.1308 51.5125 33.6185 51.8162 33.1751C52.1704 33.1751 52.5247 33.1455 52.7145 33.3081C52.9422 33.7958 52.8663 33.2194 53.0434 33.4411C53.5495 33.5002 53.5369 32.9386 54.0683 32.7909C54.3972 33.2786 54.5491 32.9091 54.9539 32.6726C55.2702 32.7613 55.5612 33.3081 55.6245 32.7761C55.8776 32.3032 55.8902 32.3327 56.0673 32.7761C56.3204 33.0421 56.4216 32.6578 56.624 32.5248C57.0036 32.7761 57.4211 32.8204 57.9652 32.6578C58.0664 33.0864 58.2941 32.8943 58.5345 32.7761C59.028 33.0273 59.1925 33.1012 59.7618 32.7761C60.0402 32.3918 59.8883 32.7909 60.0908 33.0421C60.5083 32.8943 60.3944 32.8648 60.8752 32.9091C61.3687 32.9091 61.4066 32.9091 61.5458 32.5248C61.7988 32.8056 61.8748 33.0125 62.2164 32.6578C62.7478 32.6578 62.5833 32.7317 62.8869 32.5101C63.1273 33.1012 63.1779 32.6874 63.4563 32.9091C63.2998 33.3456 63.024 33.7094 62.6718 33.9436C62.4568 34.387 62.3176 34.8303 61.8874 35.0077C61.5711 35.3771 61.2295 35.5988 60.8752 35.9239C60.3944 36.0717 59.863 36.0422 59.319 36.0422H54.6123C54.2834 36.2491 53.7267 36.3377 53.2712 36.4412C52.7651 36.4412 52.1704 36.4412 51.8162 36.3082C51.5758 36.0274 51.1582 35.717 50.9305 35.3919C50.6774 35.1702 50.6774 34.7416 50.475 34.4756C50.2979 34.1062 50.222 33.515 50.0322 33.1751V32.2588Z" fill="#005120" stroke="#002B0D" stroke-width="0.136742"/>
<path fill-rule="evenodd" clip-rule="evenodd" d="M60.8753 33.4411V33.5594C60.8753 33.2047 60.8879 33.3968 60.6475 34.0914C60.6096 34.254 60.4957 34.2983 60.3186 34.3574M59.8757 33.9584H59.9896C59.5721 34.4017 59.2937 34.6234 59.2052 35.1407L59.9896 33.9584C59.5721 34.4017 59.2937 34.6234 59.2052 35.1407M58.3068 33.3081C58.3068 33.3081 58.2942 33.7663 58.193 33.9584L58.3068 33.3081ZM57.864 34.2244V34.3426V34.2244ZM59.977 32.6579H60.0908H59.9643C60.0149 32.6579 60.0529 32.6579 59.9643 32.6579H59.977ZM53.7141 32.6579C53.7647 32.6579 53.9924 33.0717 54.2708 33.3081C54.2075 33.6924 54.0936 34.1357 54.2708 34.4904M54.6124 33.4411C54.663 33.4411 54.8781 33.8549 55.1691 34.0914L54.6124 33.4411C54.663 33.4411 54.8781 33.8549 55.1691 34.0914V34.2244C55.1691 33.8106 55.1438 33.3968 55.2829 33.1751C55.4095 33.4264 55.5613 33.8106 55.6119 33.4411C56.2445 33.4116 56.5482 33.2047 56.953 33.0421C56.953 33.2342 56.9277 33.1456 57.0796 33.3081M64.671 32.7761H64.7848C64.5697 32.983 64.4053 33.4116 64.2281 33.6924M60.0908 32.3918H60.9765H60.0908Z" fill="#005120"/>
<path d="M60.8753 33.4411V33.5594C60.8753 33.2047 60.8879 33.3968 60.6475 34.0914C60.6096 34.254 60.4957 34.2983 60.3186 34.3574M59.8757 33.9584H59.9896C59.5721 34.4017 59.2937 34.6234 59.2052 35.1407L59.9896 33.9584C59.5721 34.4017 59.2937 34.6234 59.2052 35.1407M58.3068 33.3081C58.3068 33.3081 58.2942 33.7663 58.193 33.9584M53.7141 32.6579C53.7647 32.6579 53.9924 33.0717 54.2708 33.3081C54.2075 33.6924 54.0936 34.1357 54.2708 34.4904M54.6124 33.4411C54.663 33.4411 54.8781 33.8549 55.1691 34.0914L54.6124 33.4411ZM54.6124 33.4411C54.663 33.4411 54.8781 33.8549 55.1691 34.0914V34.2244C55.1691 33.8106 55.1438 33.3968 55.2829 33.1751C55.4095 33.4264 55.5613 33.8106 55.6119 33.4411C56.2445 33.4116 56.5482 33.2047 56.953 33.0421C56.953 33.2342 56.9277 33.1456 57.0796 33.3081M64.671 32.7761H64.7848C64.5697 32.983 64.4053 33.4116 64.2281 33.6924M60.0908 32.3918H60.9765M57.864 34.2244V34.3426V34.2244ZM59.977 32.6579H60.0908H59.9643C60.0149 32.6579 60.0529 32.6579 59.9643 32.6579H59.977Z" stroke="#002B0D" stroke-width="0.136742"/>
<path fill-rule="evenodd" clip-rule="evenodd" d="M49.6883 34.3766C48.3466 34.3766 47.8916 35.9516 46.55 35.9516H46.48V36.045C46.48 37.1416 46.55 38.1566 46.69 39.1016C47.9266 39.0083 48.3816 37.5383 49.6883 37.5383C51.03 37.5383 51.4733 39.1016 52.815 39.1016C54.1683 39.1016 54.6116 37.5383 55.9533 37.5383C57.295 37.5383 57.75 39.1016 59.0916 39.1016C60.4333 39.1016 60.8766 37.5383 62.2183 37.5383C63.5016 37.5383 63.9683 38.9966 65.205 39.1016C65.36 38.0608 65.4342 37.0069 65.4266 35.9516H65.345C64.0033 35.9516 63.56 34.3883 62.2183 34.3883C60.8766 34.3883 60.4216 35.9633 59.0916 35.9633C57.75 35.9633 57.295 34.3883 55.9416 34.3883C54.6116 34.3883 54.1566 35.9633 52.815 35.9633C51.485 35.9633 51.03 34.3883 49.6883 34.3883V34.3766ZM49.6883 40.525C48.6383 40.525 48.1483 41.4816 47.3316 41.9016C47.6006 42.7314 47.9364 43.5319 48.335 44.2933C48.72 43.9666 49.1166 43.6866 49.6883 43.6866C51.03 43.6866 51.4733 45.2616 52.815 45.2616C54.1683 45.2616 54.6116 43.6866 55.9533 43.6866C57.295 43.6866 57.75 45.2616 59.08 45.2616C60.41 45.2616 60.8766 43.6866 62.2183 43.6866C62.7039 43.7065 63.169 43.9123 63.5366 44.27C63.934 43.512 64.2698 42.7155 64.54 41.89C63.7583 41.4583 63.2566 40.525 62.2066 40.525C60.8766 40.525 60.4216 42.1 59.08 42.1C57.7383 42.1 57.2833 40.525 55.9533 40.525C54.6233 40.525 54.1566 42.1 52.815 42.1C51.485 42.1 51.03 40.525 49.6883 40.525ZM55.9533 46.6733C54.6116 46.6733 54.1566 48.2483 52.815 48.2483C51.5433 48.2483 51.0766 46.8483 49.8983 46.685C51.1601 48.2559 52.7178 49.5639 54.4833 50.535C54.9033 50.1616 55.335 50.955 55.9416 50.955C56.56 50.955 56.9916 50.15 57.4 50.5116C59.1183 49.5755 60.6624 48.2808 61.95 46.6966C60.8066 46.895 60.3166 48.2483 59.08 48.2483C57.7383 48.2483 57.295 46.6733 55.9533 46.6733Z" fill="white"/>
<path d="M47.6304 40.6737C48.0652 40.501 48.507 40.3536 48.9544 40.2321L51.0097 42.5433L49.32 42.9408L47.6304 40.6737Z" stroke="#512007" stroke-width="0.0681221"/>
<path d="M51.6846 44.4457C51.7167 43.9092 52.6256 40.83 52.6256 40.83M51.9947 44.4807L52.7111 40.8533M52.2407 44.4924L52.8395 40.8533M51.7167 44.0025C51.8771 43.9092 52.3369 43.7693 52.3369 43.7693M51.9413 43.466C52.091 43.466 52.401 43.326 52.401 43.326M52.0268 43.0578C52.1792 42.9949 52.3367 42.9481 52.4973 42.9178M52.091 42.5446L52.5935 42.4513M52.3155 42.1014C52.3155 42.1363 52.6577 42.1363 52.6577 42.1363M52.401 41.7048L52.7432 41.7631" stroke="#512007" stroke-width="0.0670061"/>
<path d="M57.554 46.6913C57.5162 45.7745 56.4444 40.5129 56.4444 40.5129M57.1883 46.5119L56.3435 40.5329M56.8101 46.0535C56.7848 45.7147 56.1922 40.5528 56.1922 40.5528M57.5162 45.9339C57.327 45.7745 56.7848 45.5353 56.7848 45.5353M57.2514 45.0171C57.0749 45.0171 56.7092 44.778 56.7092 44.778M57.1505 44.3196C56.9708 44.2122 56.785 44.1321 56.5957 44.0804M57.0749 43.4427L56.4822 43.2832M56.8101 42.6853C56.8101 42.7451 56.4066 42.7451 56.4066 42.7451M56.7092 42.0077L56.3057 42.1073" stroke="#512007" stroke-width="0.0634108"/>
<path d="M60.6711 44.8047C60.6333 44.1275 59.5614 40.2411 59.5614 40.2411M60.3054 44.6722L59.4606 40.2559M59.9271 44.3336C59.9019 44.0833 59.3093 40.2706 59.3093 40.2706M60.6333 44.2453C60.4441 44.1275 59.9019 43.9509 59.9019 43.9509M60.3685 43.5681C60.1919 43.5681 59.8262 43.3915 59.8262 43.3915M60.2676 43.0529C60.0879 42.9736 59.9021 42.9144 59.7128 42.8762M60.1919 42.4051L59.5993 42.2874M59.9271 41.8457C59.9271 41.8899 59.5236 41.8899 59.5236 41.8899M59.8262 41.3452L59.4227 41.4188" stroke="#512007" stroke-width="0.0681221"/>
<path fill-rule="evenodd" clip-rule="evenodd" d="M55.5491 45.2078L55.6626 34.4615C55.6626 34.4615 55.9904 34.4173 55.9904 34.4615C55.9904 34.5056 55.9526 45.1637 55.9147 45.2078C55.8769 45.252 55.5112 45.2814 55.5491 45.2078ZM59.1428 34.9325L59.0671 43.9566L58.8149 44.3099L58.8906 34.9325H59.1428Z" fill="#DD8B59" stroke="#512007" stroke-width="0.0681221"/>
<path fill-rule="evenodd" clip-rule="evenodd" d="M51.4762 43.4413C51.4762 43.4413 51.8545 47.8576 56.0661 47.7251C60.2776 47.5927 61.4503 43.2794 61.4503 43.2794L59.622 43.1911C59.5841 43.1911 58.1593 45.252 56.3183 45.2078C54.4773 45.1637 53.8973 44.6484 53.4937 44.2215C53.0902 43.7799 52.7372 43.1469 52.7372 43.1469L50.5936 42.1606L50.7197 43.1027L51.4762 43.4413ZM62.8626 42.9997L62.7365 42.4108V41.9103L62.9382 41.3804C62.9382 41.3804 59.7481 41.9251 59.7481 41.9692L59.7354 42.9702L62.8626 42.985V42.9997Z" fill="#DD8B59" stroke="#512007" stroke-width="0.0681221"/>
<path d="M51.3375 43.3972C51.451 43.3972 52.2958 43.618 52.2958 43.618L53.1785 44.987M62.2573 41.9103L62.1817 42.7936H62.6987L62.6608 41.9103H62.2573ZM61.7151 41.9545L61.6773 42.8967L62.0051 42.8525L62.043 41.9545H61.7151ZM61.1603 42.8967V42.1606L61.4882 42.0281L61.526 42.7642L61.1603 42.8967ZM60.5298 42.8525L60.6055 42.2048L60.9838 42.2489L61.009 42.9408L60.5298 42.8525ZM59.8363 42.8525L59.8741 42.2931L60.2524 42.2489V42.8967L59.8363 42.8525Z" stroke="#512007" stroke-width="0.0681221"/>
<path d="M51.9554 43.5738C51.9932 43.618 52.7246 46.4886 56.2426 46.4886C59.7607 46.4886 60.6055 43.2352 60.6055 43.2352" stroke="#512007" stroke-width="0.0681221"/>
<path d="M61.1603 43.3235C61.1603 43.3235 59.4707 47.5927 56.2427 47.2982C53.0272 47.0038 52.5102 45.5906 52.2581 44.8545C52.0059 44.1185 51.8546 43.5296 51.8546 43.5296" stroke="#512007" stroke-width="0.0681221"/>
<path fill-rule="evenodd" clip-rule="evenodd" d="M52.7624 43.1469C52.8002 42.8966 52.8002 35.1386 52.8002 35.1386L52.5859 35.1092L52.5481 43.0144L52.7624 43.1616V43.1469ZM47.5295 40.6296L50.3036 42.2047L50.2405 42.4256C50.2405 42.4256 47.5673 40.9535 47.5673 40.9093C47.5673 40.8651 47.5925 40.6885 47.5295 40.6149V40.6296Z" fill="#DD8B59" stroke="#512007" stroke-width="0.0681221"/>
<path fill-rule="evenodd" clip-rule="evenodd" d="M48.803 40.1585C48.803 40.2763 49.2065 42.8966 49.2065 42.8966C49.2065 42.8966 49.4587 42.9408 49.4587 42.8966L49.03 40.2027L48.803 40.1585ZM51.3754 40.2321C51.5141 40.2321 54.0234 39.761 54.0234 39.761L53.9729 40.2321L51.5141 40.5265L51.3754 40.2321Z" fill="#DD8B59" stroke="#512007" stroke-width="0.0681221"/>
<path fill-rule="evenodd" clip-rule="evenodd" d="M51.7284 36.6844C51.8167 36.6844 52.6111 37.1554 52.9515 37.0377C53.292 36.9199 53.065 36.596 53.128 36.596C53.2037 36.596 53.4559 36.8168 53.6072 36.6402C53.7585 36.4783 53.8594 35.963 53.7963 36.0072C53.7207 36.0514 51.7788 36.861 51.741 36.6844H51.7284Z" fill="#FECF3E" stroke="#512007" stroke-width="0.0681221"/>
<path fill-rule="evenodd" clip-rule="evenodd" d="M51.4132 37.759C51.5519 37.8032 54.4143 36.861 54.4143 36.861C54.4143 36.861 54.4143 37.1554 54.3764 37.1554L51.4132 38.0534V37.759Z" fill="#DD8B59" stroke="#512007" stroke-width="0.0681221"/>
<path fill-rule="evenodd" clip-rule="evenodd" d="M58.0332 36.434C58.0332 36.434 58.2223 36.9493 58.4115 36.861C58.6006 36.7726 58.7771 36.596 58.7771 36.596C58.7771 36.596 58.9284 37.0376 59.1806 36.9493C59.4328 36.861 59.5841 36.3899 59.5841 36.3899C59.5841 36.3899 59.8363 36.4782 59.9498 36.434C60.0633 36.3899 60.202 35.698 60.202 35.698L58.0458 36.434H58.0332ZM57.8188 40.5854C57.781 40.6737 58.0079 40.8798 58.1971 40.8798C58.3862 40.8798 58.4493 40.5854 58.4871 40.6737C58.5249 40.7473 58.5249 41.1448 58.9915 41.0123C59.458 40.8798 59.4706 40.4971 59.4706 40.4971C59.4706 40.4971 59.3319 40.6296 59.6598 40.6737C59.9876 40.7179 60.3155 40.1143 60.2903 40.1143C60.2398 40.1143 57.8945 40.6296 57.8188 40.5854Z" fill="#FECF3E" stroke="#512007" stroke-width="0.0681221"/>
<path fill-rule="evenodd" clip-rule="evenodd" d="M51.5267 36.5077C51.5037 36.6404 51.5124 36.7779 51.5519 36.9052L53.9477 35.963C53.9477 35.963 54.0486 35.7422 53.9477 35.7422C53.8469 35.7422 51.4889 36.596 51.5141 36.5224L51.5267 36.5077ZM54.6791 35.9189C54.7421 35.9189 57.1253 35.0209 57.1253 35.0209C57.1253 35.0209 57.1632 35.4036 57.1253 35.4036L54.8935 36.1691L54.6665 35.9189H54.6791Z" fill="#DD8B59" stroke="#512007" stroke-width="0.0681221"/>
<path fill-rule="evenodd" clip-rule="evenodd" d="M57.8188 37.8031C57.8188 37.8031 57.4532 38.2742 57.5666 38.9072C57.6801 39.5549 57.8188 40.1143 57.8567 40.1143C57.8945 40.1143 58.298 39.2605 58.7393 39.2164C59.1807 39.1722 59.9877 39.6874 59.9877 39.6874C59.9877 39.6874 59.8742 38.657 59.912 38.1859C59.9498 37.7148 60.5677 36.9052 60.5677 36.9052L57.8188 37.7884V37.8031Z" fill="#FECF3E" stroke="#512007" stroke-width="0.0681221"/>
<path fill-rule="evenodd" clip-rule="evenodd" d="M54.4899 37.0229C54.4899 37.0229 54.4142 37.4204 54.4521 37.4204L57.5666 36.4783V36.1985L54.4899 37.0082V37.0229Z" fill="#DD8B59" stroke="#512007" stroke-width="0.0681221"/>
<path fill-rule="evenodd" clip-rule="evenodd" d="M50.5305 42.2048C50.5305 42.2048 49.7992 42.087 49.837 42.2931C49.8748 42.5139 50.2027 42.72 50.2405 42.8525C50.2783 42.985 50.127 43.4413 50.354 43.4119C50.5683 43.3677 50.7827 43.1911 50.7827 43.0586L50.7449 42.3225L50.5305 42.2048Z" fill="#B6B6B4" stroke="#512007" stroke-width="0.0681221"/>
<path fill-rule="evenodd" clip-rule="evenodd" d="M54.6034 40.0702V40.3646L57.2388 39.9377L57.1631 39.7169L54.6034 40.0702Z" fill="#DD8B59" stroke="#512007" stroke-width="0.0681221"/>
<path fill-rule="evenodd" clip-rule="evenodd" d="M51.4762 40.5854C51.5267 40.5854 51.4762 40.9681 51.7788 40.8798C52.0689 40.7915 52.1445 40.5854 52.1445 40.5854C52.1445 40.5854 52.2202 41.0565 52.6237 41.0123C53.0272 40.9681 53.2542 40.4529 53.2542 40.4529C53.2542 40.4529 53.2794 40.8357 53.5316 40.7032C53.7838 40.5707 53.8594 40.2763 53.8594 40.2763L51.5519 40.659L51.4888 40.5854H51.4762ZM51.4762 38.0534C51.4762 38.0534 51.1484 38.1859 51.2619 38.9514C51.3753 39.7169 51.6401 40.1585 51.6654 40.1585C51.7032 40.1585 51.9932 39.4224 52.4345 39.3047C52.8759 39.1575 53.6451 39.6874 53.6451 39.6874C53.6451 39.6874 53.5694 38.9955 53.6829 38.3625C53.7638 37.9503 53.9281 37.5667 54.162 37.2437C54.162 37.2437 51.5897 38.0534 51.4888 38.0534H51.4762Z" fill="#FECF3E" stroke="#512007" stroke-width="0.0681221"/>
<path fill-rule="evenodd" clip-rule="evenodd" d="M57.6423 40.2763L57.6801 40.5413C57.6801 40.5413 60.3281 40.1585 60.3281 40.0996C60.3281 40.0702 60.3281 39.8052 60.2776 39.8052C60.2398 39.8052 57.6801 40.3204 57.6296 40.2763H57.6423ZM57.6044 37.5382L57.6423 37.8326L60.7568 36.861C60.7568 36.861 60.8325 36.596 60.7946 36.596C60.7568 36.596 57.6801 37.6706 57.6044 37.5382Z" fill="#DD8B59" stroke="#512007" stroke-width="0.0681221"/>
<path d="M62.8121 41.1301L60.5424 36.9493M60.2398 39.8494C60.2776 39.7316 60.3911 37.1554 60.3911 37.1554M57.9323 36.1691C57.9323 36.1691 57.8945 36.4341 57.9323 36.4341C57.9701 36.4341 60.2398 35.7864 60.2398 35.7422C60.2398 35.6981 60.4668 35.4478 60.2776 35.492C60.1011 35.5361 58.0079 36.3016 57.9323 36.1691V36.1691Z" stroke="#512007" stroke-width="0.0681221"/>
<path fill-rule="evenodd" clip-rule="evenodd" d="M54.7547 36.0514C54.8808 36.0808 55.1456 36.5224 55.2969 36.4341C55.4482 36.3458 55.6626 36.0808 55.6626 36.0808C55.6626 36.0808 55.6248 36.596 55.9148 36.5224C56.2174 36.4341 56.2552 36.0808 56.2552 36.0808C56.2552 36.0808 56.4696 36.228 56.6587 36.0808C56.8353 35.963 57.0118 35.3153 56.9488 35.3153C56.8857 35.3153 54.8178 36.0808 54.7421 36.0514H54.7547ZM54.679 37.2879C54.679 37.3763 54.3008 38.0534 54.4269 38.7012C54.553 39.3489 54.7421 39.9377 54.7799 39.9377C54.8178 39.9377 55.3726 39.2606 55.8517 39.1281C56.3183 38.9956 57.0244 39.555 56.9866 39.555C56.9488 39.555 56.7974 38.9073 56.7974 38.4362C56.7974 37.9651 57.3523 36.5224 57.3523 36.5224L54.679 37.2879ZM54.679 40.3794C54.679 40.4088 54.7799 40.7032 55.0447 40.7032C55.2969 40.7032 55.3347 40.4088 55.3347 40.4088C55.3347 40.4088 55.2969 40.924 55.7004 40.8799C56.1039 40.8357 56.2426 40.3646 56.2426 40.3646C56.2426 40.3646 56.2804 40.6296 56.6209 40.4971C56.9488 40.3646 57.3775 39.9377 57.3523 39.9377C57.3144 39.9377 54.7043 40.4971 54.6664 40.3794H54.679Z" fill="#FECF3E" stroke="#512007" stroke-width="0.0681221"/>
<path fill-rule="evenodd" clip-rule="evenodd" d="M55.6475 37.9141C55.6993 37.9164 55.7482 37.9429 55.7835 37.9877C55.8187 38.0324 55.8373 38.0919 55.8353 38.153C55.8333 38.214 55.8107 38.2717 55.7726 38.3132C55.7345 38.3548 55.684 38.3769 55.6321 38.3746C55.5803 38.3723 55.5314 38.3458 55.4961 38.3011C55.4609 38.2563 55.4423 38.1968 55.4443 38.1358C55.4463 38.0747 55.4689 38.017 55.507 37.9755C55.5451 37.9339 55.5956 37.9119 55.6475 37.9141Z" fill="#BE0F17" stroke="#512007" stroke-width="0.0670448"/>
<path d="M55.9148 34.5793C55.9148 34.5498 57.0496 35.1387 57.0496 35.1828C57.0496 35.227 61.0847 41.4834 61.1225 41.4834M59.105 35.1828L60.139 35.6981L60.4668 36.6402M52.7246 35.1092C52.6868 35.1092 53.8594 36.1397 53.8594 36.1397L54.0108 36.9788M48.74 41.3509C49.2444 41.1007 52.8002 37.4646 52.8002 37.4646M47.7817 40.6591L51.7789 36.7285M54.4521 37.3174L58.2349 44.6485M57.781 40.3499C57.781 40.3499 58.2223 42.0723 58.6637 42.3373C58.9929 42.5436 59.3127 42.7696 59.622 43.0144" stroke="#512007" stroke-width="0.0681221"/>
<path d="M57.7305 40.394C57.7305 40.394 58.0458 42.4256 58.4871 42.8083C58.9284 43.191 59.3698 43.618 59.3698 43.618" stroke="#512007" stroke-width="0.0681221"/>
<path d="M54.6942 40.3771C54.6942 40.3771 55.1229 43.2035 56.0056 43.8512C56.5463 44.2437 57.0843 44.6412 57.6196 45.0437" stroke="#512007" stroke-width="0.0681221"/>
<path d="M54.6563 40.3329C54.6563 40.3329 55.602 42.5705 56.4216 43.2477C57.216 43.9395 58.3131 44.5726 58.3131 44.5726M51.5796 40.5243C51.8318 41.0395 51.794 42.0258 52.084 42.3644C52.3506 42.7162 52.595 43.0901 52.8153 43.4832M51.6426 40.5537C51.794 40.804 52.1975 42.0847 52.4496 42.4674C52.6388 42.8207 54.505 44.9995 54.505 44.9995" stroke="#512007" stroke-width="0.0681221"/>
<path fill-rule="evenodd" clip-rule="evenodd" d="M53.8872 45.1026C53.8872 45.1451 53.88 45.1872 53.866 45.2265C53.8521 45.2658 53.8317 45.3015 53.8059 45.3316C53.7801 45.3616 53.7496 45.3855 53.7159 45.4018C53.6822 45.418 53.6462 45.4264 53.6097 45.4264C53.5733 45.4264 53.5372 45.418 53.5036 45.4018C53.4699 45.3855 53.4393 45.3616 53.4136 45.3316C53.3878 45.3015 53.3674 45.2658 53.3535 45.2265C53.3395 45.1872 53.3323 45.1451 53.3323 45.1026C53.3323 45.0167 53.3616 44.9343 53.4136 44.8735C53.4656 44.8128 53.5362 44.7787 53.6097 44.7787C53.6833 44.7787 53.7539 44.8128 53.8059 44.8735C53.8579 44.9343 53.8872 45.0167 53.8872 45.1026ZM55.2364 45.7944C55.2364 45.8686 55.2111 45.9398 55.1662 45.9922C55.1213 46.0447 55.0603 46.0741 54.9968 46.0741C54.9332 46.0741 54.8723 46.0447 54.8274 45.9922C54.7824 45.9398 54.7572 45.8686 54.7572 45.7944C54.7572 45.7203 54.7824 45.6491 54.8274 45.5967C54.8723 45.5442 54.9332 45.5147 54.9968 45.5147C55.0603 45.5147 55.1213 45.5442 55.1662 45.5967C55.2111 45.6491 55.2364 45.7203 55.2364 45.7944ZM56.9639 45.9711C56.9639 46.0453 56.9386 46.1164 56.8937 46.1689C56.8488 46.2213 56.7878 46.2508 56.7243 46.2508C56.6607 46.2508 56.5998 46.2213 56.5549 46.1689C56.5099 46.1164 56.4847 46.0453 56.4847 45.9711C56.4847 45.8969 56.5099 45.8258 56.5549 45.7733C56.5998 45.7209 56.6607 45.6914 56.7243 45.6914C56.7878 45.6914 56.8488 45.7209 56.8937 45.7733C56.9386 45.8258 56.9639 45.8969 56.9639 45.9711ZM58.4644 45.3086C58.4644 45.4559 58.3761 45.5589 58.2626 45.5589C58.1492 45.5589 58.0609 45.4411 58.0609 45.3086C58.0609 45.1762 58.1492 45.0437 58.2626 45.0437C58.3761 45.0437 58.4644 45.1614 58.4644 45.3086ZM59.6749 44.4695C59.6749 44.602 59.5614 44.7051 59.4353 44.7051C59.3092 44.7051 59.1957 44.602 59.1957 44.4695C59.1957 44.3371 59.3092 44.234 59.4353 44.234C59.5614 44.234 59.6749 44.3371 59.6749 44.4695Z" fill="black" stroke="#512007" stroke-width="0.0681221"/>
<path fill-rule="evenodd" clip-rule="evenodd" d="M52.5632 35.2836C52.4497 35.3719 50.6213 35.8871 50.8735 35.843C51.1257 35.7988 52.601 36.2846 52.5632 36.1374C52.5254 35.9902 52.5632 35.3719 52.5632 35.2836ZM55.6777 34.6506C55.6021 34.6506 54.5429 35.1216 54.5807 35.1216C54.6185 35.1216 55.7912 35.5044 55.7534 35.4161C55.7156 35.3277 55.7156 34.7683 55.6777 34.6506ZM58.8679 35.0775C58.7923 35.1216 57.5439 35.4602 57.7709 35.5044C57.9979 35.5486 58.8301 35.8871 58.8301 35.7988C58.8301 35.7252 58.8301 35.1216 58.8679 35.0628V35.0775Z" fill="#FF0000" stroke="#512007" stroke-width="0.0681221"/>
<path d="M57.5439 45.0878C57.5818 44.4107 58.6536 40.5243 58.6536 40.5243M57.9096 44.9553L58.7545 40.539M58.2879 44.6167C58.3131 44.3665 58.9058 40.5537 58.9058 40.5537M57.5818 44.5284C57.7709 44.4107 58.3131 44.234 58.3131 44.234M57.8466 43.8513C58.0231 43.8513 58.3888 43.6746 58.3888 43.6746M57.9474 43.336C58.1272 43.2567 58.3129 43.1976 58.5023 43.1594M58.0231 42.6883L58.6158 42.5705M58.2879 42.1289C58.2879 42.1731 58.6914 42.1731 58.6914 42.1731M58.3888 41.6284L58.7923 41.702" stroke="#512007" stroke-width="0.0681221"/>
<path d="M54.4167 45.5815C54.4546 44.8731 55.5264 40.8074 55.5264 40.8074M54.7824 45.6277L55.6273 40.8382M55.0724 45.6431L55.7786 40.8382M54.4546 44.9963C54.6437 44.8731 55.1859 44.6883 55.1859 44.6883M54.7194 44.2879C54.8959 44.2879 55.2616 44.1031 55.2616 44.1031M54.8202 43.7489C55 43.6659 55.1857 43.604 55.3751 43.5641M54.8959 43.0712L55.4886 42.948M55.1607 42.486C55.1607 42.5322 55.5642 42.5322 55.5642 42.5322M55.2616 41.9624L55.6651 42.0394" stroke="#512007" stroke-width="0.0696765"/>
<path d="M54.4067 45.2713C54.3688 44.5837 53.297 40.6375 53.297 40.6375M54.041 45.1367L53.1962 40.6525M53.6627 44.7929C53.6375 44.5388 53.0449 40.6674 53.0449 40.6674M54.3689 44.7032C54.1797 44.5837 53.6375 44.4043 53.6375 44.4043M54.1041 44.0157C53.9275 44.0157 53.5618 43.8363 53.5618 43.8363M54.0032 43.4925C53.8235 43.412 53.6377 43.3519 53.4484 43.3131M53.9275 42.8348L53.3349 42.7152M53.6627 42.2668C53.6627 42.3116 53.2592 42.3116 53.2592 42.3116M53.5618 41.7586L53.1583 41.8333" stroke="#512007" stroke-width="0.0686442"/>
<path fill-rule="evenodd" clip-rule="evenodd" d="M59.4706 43.1911L62.9508 43.2794L62.9887 42.985L59.395 42.9408L59.4706 43.1911ZM59.6219 42.1164C60.0254 42.1164 63.0643 41.4393 63.0643 41.4393C63.0643 41.4393 63.1778 40.9976 63.0643 40.9976C62.9508 40.9976 59.6219 41.822 59.6219 41.822V42.1164Z" fill="#DD8B59" stroke="#512007" stroke-width="0.0681221"/>
<path d="M0 9.375H37.3333V37.375H0V9.375Z" fill="#012169"/>
<path d="M4.375 9.375L18.6083 19.9333L32.7833 9.375H37.3333V12.9917L23.3333 23.4333L37.3333 33.8167V37.375H32.6667L18.6667 26.9333L4.725 37.375H0V33.875L13.9417 23.4917L0 13.1083V9.375H4.375Z" fill="white"/>
<path d="M24.7333 25.7667L37.3333 35.0417V37.375L21.525 25.7667H24.7333ZM14 26.9333L14.35 28.975L3.15 37.375H0L14 26.9333ZM37.3333 9.375V9.55L22.8083 20.5167L22.925 17.95L34.4167 9.375H37.3333ZM0 9.375L13.9417 19.6417H10.4417L0 11.825V9.375Z" fill="#C8102E"/>
<path d="M14.0583 9.375V37.375H23.3917V9.375H14.0583ZM0 18.7083V28.0417H37.3333V18.7083H0Z" fill="white"/>
<path d="M0 20.6333V26.2333H37.3333V20.6333H0ZM15.925 9.375V37.375H21.525V9.375H15.925Z" fill="#C8102E"/>
</g>
<defs>
<linearGradient id="paint0_linear_1_27958" x1="25.503" y1="75.7972" x2="28.2948" y2="74.3801" gradientUnits="userSpaceOnUse">
<stop stop-color="#A43907"/>
<stop offset="1" stop-color="white"/>
</linearGradient>
<linearGradient id="paint1_linear_1_27958" x1="49.8816" y1="48.5124" x2="46.2939" y2="46.7622" gradientUnits="userSpaceOnUse">
<stop stop-color="#A43907"/>
<stop offset="1" stop-color="white"/>
</linearGradient>
<linearGradient id="paint2_linear_1_27958" x1="51.614" y1="49.9414" x2="44.1277" y2="49.0648" gradientUnits="userSpaceOnUse">
<stop stop-color="#A43907"/>
<stop offset="1" stop-color="white"/>
</linearGradient>
<linearGradient id="paint3_linear_1_27958" x1="65.5676" y1="46.5173" x2="62.136" y2="46.6799" gradientUnits="userSpaceOnUse">
<stop stop-color="#A43907"/>
<stop offset="1" stop-color="white"/>
</linearGradient>
<linearGradient id="paint4_linear_1_27958" x1="67.4046" y1="48.5499" x2="60.0623" y2="48.9443" gradientUnits="userSpaceOnUse">
<stop stop-color="#A43907"/>
<stop offset="1" stop-color="white"/>
</linearGradient>
<linearGradient id="paint5_linear_1_27958" x1="66.3569" y1="50.9423" x2="45.7924" y2="50.9423" gradientUnits="userSpaceOnUse">
<stop stop-color="#A43907"/>
<stop offset="1" stop-color="white"/>
</linearGradient>
<linearGradient id="paint6_linear_1_27958" x1="46.1861" y1="52.5693" x2="76.1596" y2="52.6649" gradientUnits="userSpaceOnUse">
<stop stop-color="#A43907"/>
<stop offset="1" stop-color="white"/>
</linearGradient>
<linearGradient id="paint7_linear_1_27958" x1="67.4187" y1="50.5336" x2="64.9713" y2="50.5974" gradientUnits="userSpaceOnUse">
<stop stop-color="#A43907"/>
<stop offset="1" stop-color="white"/>
</linearGradient>
<linearGradient id="paint8_linear_1_27958" x1="45.7075" y1="53.4348" x2="48.058" y2="53.573" gradientUnits="userSpaceOnUse">
<stop stop-color="#A43907"/>
<stop offset="1" stop-color="white"/>
</linearGradient>
<linearGradient id="paint9_linear_1_27958" x1="47.4425" y1="52.8391" x2="43.0886" y2="51.8727" gradientUnits="userSpaceOnUse">
<stop stop-color="#A43907"/>
<stop offset="1" stop-color="white"/>
</linearGradient>
<clipPath id="clip0_1_27958">
<rect width="74.6667" height="56" fill="white" transform="translate(0 9.375)"/>
</clipPath>
</defs>
</svg>
