<svg width="75" height="75" viewBox="0 0 75 75" fill="none" xmlns="http://www.w3.org/2000/svg">
<rect width="74.6667" height="74.75" fill="white"/>
<g clip-path="url(#clip0_1_27829)">
<path fill-rule="evenodd" clip-rule="evenodd" d="M-18.7343 9.375H93.5644V65.5243H-18.7343V9.375Z" fill="#6797D6"/>
<path fill-rule="evenodd" clip-rule="evenodd" d="M37.3931 22.864L33.8399 25.2986L35.1997 21.3616L31.6356 18.927H36.0332L37.3931 14.9899L38.753 18.9379H43.1396L39.5864 21.3616L40.9463 25.2986M37.3931 52.145L33.8399 49.7104L35.1997 53.6584L31.6356 56.082H36.0332L37.3931 60.0191L38.753 56.0711L43.1396 56.082L39.5864 53.6474L40.9463 49.7104M20.2851 39.5772L17.5982 42.933L17.7518 38.7657L13.6393 37.4826L17.8505 36.1995L17.993 32.0321L20.4386 35.4099L24.6498 34.1158L21.952 37.4826L24.4085 40.8493M54.4791 39.5662L57.1769 42.933L57.0234 38.7657L61.1359 37.4826L56.9247 36.1995L56.7822 32.0321L54.3366 35.4099L50.1254 34.1158L52.8232 37.4826L50.3666 40.8493" fill="white"/>
</g>
<defs>
<clipPath id="clip0_1_27829">
<rect width="74.6667" height="56" fill="white" transform="translate(0 9.375)"/>
</clipPath>
</defs>
</svg>
