<svg width="75" height="75" viewBox="0 0 75 75" fill="none" xmlns="http://www.w3.org/2000/svg">
<rect width="74.6667" height="74.75" fill="white"/>
<g clip-path="url(#clip0_1_28756)">
<path d="M0 9.375H74.6667V65.375H0V9.375Z" fill="white"/>
<path d="M74.6666 31.775H-8.39233e-05V42.975H74.6666V31.775Z" fill="#CC0000"/>
<path fill-rule="evenodd" clip-rule="evenodd" d="M41.4399 26.4783C41.7899 25.9183 41.5799 25.545 41.0433 25.44C41.0433 25.44 39.3049 26 37.4266 26.0583C35.5599 26.1167 33.3433 25.5917 33.3433 25.5917C32.9349 25.8367 33.0283 26.4317 33.2266 26.805C33.2266 26.805 35.1866 27.4583 37.4266 27.3883C38.6212 27.3376 39.8029 27.1216 40.9383 26.7467C41.3699 26.6067 41.4399 26.49 41.4399 26.4783Z" fill="#EBEAE3" stroke="black" stroke-width="0.0583333"/>
<path d="M37.3333 51.095L33.7283 43.605L25.4566 44.235L30.1233 37.375L25.4566 30.515L33.7399 31.145L37.3333 23.6667L40.9383 31.1334L49.2099 30.515L44.5433 37.375L49.2099 44.235L40.9266 43.605L37.3333 51.095Z" fill="white" stroke="#161111" stroke-width="0.186667"/>
<path fill-rule="evenodd" clip-rule="evenodd" d="M37.2749 23.6317C41.8016 24.3784 41.6383 24.5884 41.6383 24.5884L42.8166 21.065C42.8166 21.065 42.9449 20.365 42.6183 19.945C42.2916 19.525 41.3933 19.7584 41.3933 19.7584C41.3933 19.7584 41.2766 19.1867 40.8683 19.0584C40.4716 18.9184 39.0016 19.5834 38.5349 19.735C38.0683 19.8867 37.8349 20.0267 37.1933 20.015C36.5516 20.015 35.3966 19.4317 35.1749 19.315C34.9766 19.21 34.6616 19.105 34.3699 19.1167C34.0899 19.1167 33.7866 19.1984 33.6349 19.3967C33.4949 19.595 33.4949 19.8517 33.4949 19.8517C33.4949 19.8517 33.2616 19.7 32.8883 19.7C32.5149 19.7 32.3049 19.7467 32.1299 19.945C31.9549 20.1434 31.7333 20.7034 31.7333 20.7034L32.1533 21.66L32.1766 22.9784L33.0516 24.3784L37.2749 23.6317Z" fill="#B02320" stroke="black" stroke-width="0.151667"/>
<path fill-rule="evenodd" clip-rule="evenodd" d="M41.4982 25.6267C41.4982 25.6267 41.7316 25.895 41.7199 26C41.7082 26.0933 41.6032 26.175 41.6032 26.175C41.6032 26.175 41.6849 26.245 41.6616 26.35C41.6499 26.4667 41.4982 26.4667 41.4982 26.4667C41.4982 26.4667 41.5332 26.56 41.4399 26.6067C41.3582 26.6533 40.9966 26.7233 40.9966 26.7233C40.9966 26.7233 39.2466 26.2333 37.3799 26.2333C35.5132 26.2333 33.2966 26.84 33.2966 26.84C33.2966 26.84 33.0632 26.7583 33.0632 26.6067C33.0399 26.4667 33.0749 26.3617 33.0749 26.3617C33.0749 26.3617 32.9582 26.3617 32.9232 26.2567C32.8766 26.105 32.9349 25.9883 32.9349 25.9883C32.9349 25.9883 32.8532 26.0117 32.9466 25.8133C33.0166 25.6617 33.1216 25.615 33.1216 25.615C33.1216 25.615 35.0816 24.915 37.3216 24.9033C39.5499 24.9033 41.4982 25.6033 41.4982 25.6267Z" fill="#EBEAE3" stroke="black" stroke-width="0.0583333"/>
<path d="M32.2233 21.2166C32.2233 21.2166 32.1533 20.96 32.3166 20.7383C32.3804 20.6584 32.4672 20.6 32.5652 20.5708C32.6632 20.5416 32.7678 20.5431 32.8649 20.575C32.9583 20.6216 32.9466 20.7266 33.0633 20.75C33.1799 20.785 33.2733 20.6916 33.2733 20.6916" stroke="black" stroke-width="0.128333"/>
<path fill-rule="evenodd" clip-rule="evenodd" d="M43.1432 21.8117L42.4666 23.2117L42.1982 23.2583C42.1982 23.2583 42.0349 23.165 41.5682 23.2C41.2416 23.2233 41.1366 23.3167 41.1366 23.3167L41.7432 21.9167C41.7432 21.9167 41.7899 22.2083 41.8599 22.3833C41.9532 22.6167 42.2916 22.815 42.2916 22.815C42.2916 22.815 42.3382 22.5467 42.2449 22.2317C42.156 21.9405 42.0469 21.6559 41.9182 21.38L43.1432 21.8117Z" fill="#FFCC00" fill-opacity="0.9" stroke="black" stroke-width="0.14"/>
<path d="M36.9249 17.4484H37.6833V20.68H36.9249V17.4484Z" fill="#121116" stroke="#121116" stroke-width="0.14" stroke-linejoin="round"/>
<path fill-rule="evenodd" clip-rule="evenodd" d="M32.2699 23.3984L32.7483 24.4484C32.7483 24.4484 34.8366 23.6317 37.2866 23.655C40.9616 23.6784 42.0116 24.4134 42.0116 24.4134L42.5483 23.1184L42.1399 23.3517L41.7199 23.62L41.2533 23.795L40.6699 23.76L40.1566 23.3867L39.8999 22.8384L39.4683 23.235L38.6983 23.3984L37.9516 23.2117L37.2983 22.3834C37.2983 22.3834 36.8083 23.305 36.1783 23.3634C35.2799 23.4334 34.7666 22.9317 34.7666 22.9317C34.7666 22.9317 34.4283 23.6784 33.8799 23.8067C33.0049 24.0284 32.2816 23.3984 32.2699 23.3984Z" fill="#F6CA1F" stroke="black" stroke-width="0.116667"/>
<path d="M40.6465 17.04C40.6465 17.25 40.4832 17.4367 40.2615 17.4367C40.2094 17.4367 40.1578 17.4265 40.1097 17.4065C40.0616 17.3866 40.0178 17.3574 39.981 17.3205C39.9442 17.2837 39.915 17.24 39.895 17.1918C39.8751 17.1437 39.8648 17.0921 39.8648 17.04C39.8633 16.987 39.8724 16.9341 39.8916 16.8847C39.9108 16.8352 39.9398 16.7901 39.9768 16.752C40.0138 16.7139 40.0581 16.6836 40.107 16.663C40.1559 16.6423 40.2084 16.6317 40.2615 16.6317C40.3647 16.6347 40.4626 16.6779 40.5345 16.7519C40.6064 16.826 40.6465 16.9252 40.6465 17.0284" fill="#EEEEEE"/>
<path d="M40.6465 17.04C40.6465 17.25 40.4832 17.4367 40.2615 17.4367C40.2094 17.4367 40.1578 17.4265 40.1097 17.4065C40.0616 17.3866 40.0178 17.3574 39.981 17.3205C39.9442 17.2837 39.915 17.24 39.895 17.1918C39.8751 17.1437 39.8648 17.0921 39.8648 17.04C39.8633 16.987 39.8724 16.9341 39.8916 16.8847C39.9108 16.8352 39.9398 16.7901 39.9768 16.752C40.0138 16.7139 40.0581 16.6836 40.107 16.663C40.1559 16.6423 40.2084 16.6317 40.2615 16.6317C40.3647 16.6347 40.4626 16.6779 40.5345 16.7519C40.6064 16.826 40.6465 16.9252 40.6465 17.0284" stroke="#1E1E1E" stroke-width="0.14" stroke-linejoin="round"/>
<path fill-rule="evenodd" clip-rule="evenodd" d="M40.0748 17.2384C40.0748 17.2384 40.3898 17.2384 40.4248 17.11C40.4598 16.97 40.4015 16.8067 40.4015 16.8067C40.4015 16.8067 40.5532 16.97 40.5182 17.0984C40.4715 17.2267 40.4248 17.2617 40.3198 17.2967C40.2376 17.3054 40.1549 17.2848 40.0865 17.2384H40.0748Z" fill="#A3AFB8"/>
<path d="M39.7015 17.4833C39.7015 17.6933 39.5265 17.88 39.3048 17.88C39.2527 17.88 39.2012 17.8697 39.153 17.8498C39.1049 17.8299 39.0612 17.8007 39.0243 17.7638C38.9875 17.727 38.9583 17.6833 38.9384 17.6351C38.9184 17.587 38.9082 17.5354 38.9082 17.4833C38.9066 17.4293 38.916 17.3755 38.936 17.3252C38.9559 17.2749 38.9859 17.2293 39.0242 17.191C39.0624 17.1528 39.1081 17.1227 39.1583 17.1028C39.2086 17.0828 39.2624 17.0734 39.3165 17.075C39.4197 17.075 39.5189 17.1151 39.5929 17.187C39.667 17.2589 39.7101 17.3568 39.7132 17.46" fill="#EEEEEE"/>
<path d="M39.7015 17.4833C39.7015 17.6933 39.5265 17.88 39.3048 17.88C39.2527 17.88 39.2012 17.8697 39.153 17.8498C39.1049 17.8299 39.0612 17.8007 39.0243 17.7638C38.9875 17.727 38.9583 17.6833 38.9384 17.6351C38.9184 17.587 38.9082 17.5354 38.9082 17.4833C38.9066 17.4293 38.916 17.3755 38.936 17.3252C38.9559 17.2749 38.9859 17.2293 39.0242 17.191C39.0624 17.1528 39.1081 17.1227 39.1583 17.1028C39.2086 17.0828 39.2624 17.0734 39.3165 17.075C39.4197 17.075 39.5189 17.1151 39.5929 17.187C39.667 17.2589 39.7101 17.3568 39.7132 17.46" stroke="#1E1E1E" stroke-width="0.14" stroke-linejoin="round"/>
<path fill-rule="evenodd" clip-rule="evenodd" d="M39.1182 17.6817C39.1182 17.6817 39.4448 17.6817 39.4682 17.5533C39.5032 17.425 39.4448 17.25 39.4448 17.25C39.4448 17.25 39.5965 17.425 39.5615 17.5533C39.5148 17.67 39.4682 17.7167 39.3632 17.74C39.2809 17.7487 39.1983 17.7281 39.1298 17.6817H39.1182Z" fill="#A3AFB8"/>
<path d="M41.7665 16.7717C41.7665 16.9933 41.5798 17.1683 41.3698 17.1683C41.2646 17.1683 41.1637 17.1265 41.0893 17.0522C41.015 16.9778 40.9732 16.8769 40.9732 16.7717C40.9731 16.6685 41.0133 16.5693 41.0852 16.4952C41.1571 16.4212 41.255 16.378 41.3582 16.375C41.4634 16.375 41.5643 16.4168 41.6387 16.4912C41.713 16.5656 41.7548 16.6665 41.7548 16.7717" fill="#EEEEEE"/>
<path d="M41.7665 16.7717C41.7665 16.9933 41.5798 17.1683 41.3698 17.1683C41.2646 17.1683 41.1637 17.1265 41.0893 17.0522C41.015 16.9778 40.9732 16.8769 40.9732 16.7717C40.9731 16.6685 41.0133 16.5693 41.0852 16.4952C41.1571 16.4212 41.255 16.378 41.3582 16.375C41.4634 16.375 41.5643 16.4168 41.6387 16.4912C41.713 16.5656 41.7548 16.6665 41.7548 16.7717" stroke="#1E1E1E" stroke-width="0.14" stroke-linejoin="round"/>
<path fill-rule="evenodd" clip-rule="evenodd" d="M41.1832 16.9817C41.1832 16.9817 41.4982 16.9817 41.5332 16.8417C41.5682 16.7134 41.5098 16.55 41.5098 16.55C41.5098 16.55 41.6615 16.7134 41.6265 16.8417C41.5798 16.97 41.5332 17.005 41.4282 17.0284C41.3473 17.0406 41.2648 17.024 41.1948 16.9817H41.1832Z" fill="#A3AFB8"/>
<path d="M43.0032 17.0284C43.0032 17.2384 42.8282 17.425 42.6182 17.425C42.513 17.425 42.4121 17.3833 42.3377 17.3089C42.2633 17.2345 42.2215 17.1336 42.2215 17.0284C42.2215 16.9232 42.2633 16.8223 42.3377 16.7479C42.4121 16.6735 42.513 16.6317 42.6182 16.6317C42.7193 16.6346 42.8156 16.6762 42.8872 16.7477C42.9587 16.8193 43.0002 16.9155 43.0032 17.0167" fill="#EEEEEE"/>
<path d="M43.0032 17.0284C43.0032 17.2384 42.8282 17.425 42.6182 17.425C42.513 17.425 42.4121 17.3833 42.3377 17.3089C42.2633 17.2345 42.2215 17.1336 42.2215 17.0284C42.2215 16.9232 42.2633 16.8223 42.3377 16.7479C42.4121 16.6735 42.513 16.6317 42.6182 16.6317C42.7193 16.6346 42.8156 16.6762 42.8872 16.7477C42.9587 16.8193 43.0002 16.9155 43.0032 17.0167" stroke="#1E1E1E" stroke-width="0.14" stroke-linejoin="round"/>
<path fill-rule="evenodd" clip-rule="evenodd" d="M42.4315 17.2267C42.4315 17.2267 42.7465 17.2267 42.7815 17.0984C42.8165 16.9584 42.7582 16.795 42.7582 16.795C42.7582 16.795 42.9098 16.9584 42.8748 17.0984C42.8282 17.215 42.7815 17.25 42.6765 17.285C42.5904 17.2967 42.5031 17.2759 42.4315 17.2267Z" fill="#A3AFB8"/>
<path d="M43.9598 17.81C43.9598 18.02 43.7848 18.2067 43.5632 18.2067C43.458 18.2067 43.3571 18.1649 43.2827 18.0905C43.2083 18.0161 43.1665 17.9152 43.1665 17.81C43.1665 17.7048 43.2083 17.6039 43.2827 17.5295C43.3571 17.4551 43.458 17.4133 43.5632 17.4133C43.6664 17.4133 43.7655 17.4535 43.8396 17.5254C43.9137 17.5972 43.9568 17.6952 43.9598 17.7983" fill="#EEEEEE"/>
<path d="M43.9598 17.81C43.9598 18.02 43.7848 18.2067 43.5632 18.2067C43.458 18.2067 43.3571 18.1649 43.2827 18.0905C43.2083 18.0161 43.1665 17.9152 43.1665 17.81C43.1665 17.7048 43.2083 17.6039 43.2827 17.5295C43.3571 17.4551 43.458 17.4133 43.5632 17.4133C43.6664 17.4133 43.7655 17.4535 43.8396 17.5254C43.9137 17.5972 43.9568 17.6952 43.9598 17.7983" stroke="#1E1E1E" stroke-width="0.14" stroke-linejoin="round"/>
<path fill-rule="evenodd" clip-rule="evenodd" d="M43.3882 18.0084C43.3882 18.0084 43.7032 18.0084 43.7382 17.8801C43.7615 17.7517 43.7148 17.5767 43.7148 17.5767C43.7148 17.5767 43.8665 17.7517 43.8198 17.8801C43.7732 17.9967 43.7382 18.0434 43.6215 18.0667C43.5515 18.0784 43.4465 18.0551 43.3882 18.0084Z" fill="#A3AFB8"/>
<path d="M44.3682 19.0934C44.3682 19.315 44.1932 19.49 43.9715 19.49C43.8683 19.487 43.7704 19.4439 43.6985 19.3698C43.6266 19.2958 43.5865 19.1966 43.5865 19.0934C43.5865 18.9902 43.6266 18.891 43.6985 18.8169C43.7704 18.7429 43.8683 18.6998 43.9715 18.6967C44.0767 18.6967 44.1776 18.7385 44.252 18.8129C44.3264 18.8873 44.3682 18.9882 44.3682 19.0934Z" fill="#EEEEEE" stroke="#1E1E1E" stroke-width="0.14" stroke-linejoin="round"/>
<path fill-rule="evenodd" clip-rule="evenodd" d="M43.7965 19.2917C43.7965 19.2917 44.1115 19.2917 44.1465 19.1634C44.1698 19.035 44.1232 18.86 44.1232 18.86C44.1232 18.86 44.2748 19.035 44.2282 19.1634C44.1815 19.28 44.1465 19.3267 44.0298 19.35C43.9476 19.3588 43.8649 19.3381 43.7965 19.2917Z" fill="#A3AFB8"/>
<path d="M44.2165 20.3884C44.2165 20.6217 44.0415 20.785 43.8198 20.785C43.7187 20.7821 43.6224 20.7406 43.5508 20.669C43.4793 20.5974 43.4378 20.5012 43.4348 20.4C43.4333 20.3479 43.442 20.296 43.4605 20.2473C43.479 20.1986 43.507 20.154 43.5427 20.1161C43.5785 20.0782 43.6213 20.0477 43.6689 20.0263C43.7164 20.005 43.7677 19.9932 43.8198 19.9917C43.925 19.9917 44.0259 20.0335 44.1003 20.1079C44.1747 20.1823 44.2165 20.2832 44.2165 20.3884Z" fill="#EEEEEE"/>
<path d="M44.2165 20.3884C44.2165 20.6217 44.0415 20.785 43.8198 20.785C43.7187 20.7821 43.6224 20.7406 43.5508 20.669C43.4793 20.5974 43.4378 20.5012 43.4348 20.4C43.4333 20.3479 43.442 20.296 43.4605 20.2473C43.479 20.1986 43.507 20.154 43.5427 20.1161C43.5785 20.0782 43.6213 20.0477 43.6689 20.0263C43.7164 20.005 43.7677 19.9932 43.8198 19.9917C43.925 19.9917 44.0259 20.0335 44.1003 20.1079C44.1747 20.1823 44.2165 20.2832 44.2165 20.3884" stroke="#1E1E1E" stroke-width="0.14" stroke-linejoin="round"/>
<path fill-rule="evenodd" clip-rule="evenodd" d="M43.6332 20.5984C43.6332 20.5984 43.9598 20.5984 43.9832 20.4584C44.0182 20.3417 43.9715 20.1667 43.9715 20.1667C43.9715 20.1667 44.1232 20.33 44.0765 20.4584C44.0298 20.5867 43.9948 20.6217 43.8782 20.645C43.7973 20.6572 43.7148 20.6407 43.6448 20.5984H43.6332Z" fill="#A3AFB8"/>
<path d="M43.6332 21.5317C43.6332 21.7533 43.4582 21.9283 43.2482 21.9283C43.143 21.9283 43.0421 21.8866 42.9677 21.8122C42.8933 21.7378 42.8515 21.6369 42.8515 21.5317C42.8515 21.4265 42.8933 21.3256 42.9677 21.2512C43.0421 21.1768 43.143 21.135 43.2482 21.135C43.3513 21.138 43.4493 21.1812 43.5211 21.2552C43.593 21.3293 43.6332 21.4285 43.6332 21.5317Z" fill="#EEEEEE"/>
<path d="M43.6332 21.5317C43.6332 21.7533 43.4582 21.9283 43.2482 21.9283C43.143 21.9283 43.0421 21.8866 42.9677 21.8122C42.8933 21.7378 42.8515 21.6369 42.8515 21.5317C42.8515 21.4265 42.8933 21.3256 42.9677 21.2512C43.0421 21.1768 43.143 21.135 43.2482 21.135C43.3513 21.138 43.4493 21.1812 43.5211 21.2552C43.593 21.3293 43.6332 21.4285 43.6332 21.5317" stroke="#1E1E1E" stroke-width="0.14" stroke-linejoin="round"/>
<path fill-rule="evenodd" clip-rule="evenodd" d="M43.0615 21.7417C43.0615 21.7417 43.3765 21.7417 43.4115 21.6017C43.4465 21.4851 43.3882 21.3101 43.3882 21.3101C43.3882 21.3101 43.5398 21.4734 43.5048 21.6017C43.4582 21.7301 43.4115 21.7651 43.3065 21.7884C43.2257 21.8006 43.1431 21.7841 43.0732 21.7417H43.0615Z" fill="#A3AFB8"/>
<path d="M38.7682 17.8217C38.7682 18.0434 38.5932 18.2184 38.3832 18.2184C38.278 18.2184 38.1771 18.1766 38.1027 18.1022C38.0283 18.0278 37.9865 17.9269 37.9865 17.8217C37.9865 17.7185 38.0266 17.6193 38.0985 17.5453C38.1704 17.4712 38.2683 17.4281 38.3715 17.425C38.4767 17.425 38.5776 17.4668 38.652 17.5412C38.7264 17.6156 38.7682 17.7165 38.7682 17.8217Z" fill="#EEEEEE" stroke="#1E1E1E" stroke-width="0.14" stroke-linejoin="round"/>
<path fill-rule="evenodd" clip-rule="evenodd" d="M38.1965 18.0317C38.1965 18.0317 38.5115 18.0317 38.5465 17.8917C38.5815 17.7634 38.5232 17.6 38.5232 17.6C38.5232 17.6 38.6748 17.7634 38.6398 17.8917C38.5932 18.02 38.5465 18.055 38.4415 18.0784C38.3598 18.1017 38.2548 18.0784 38.1965 18.0317Z" fill="#A3AFB8"/>
<path d="M37.5782 17.7167C37.5797 17.7606 37.5724 17.8043 37.5567 17.8453C37.541 17.8863 37.5172 17.9237 37.4867 17.9552C37.4562 17.9868 37.4197 18.0119 37.3793 18.0291C37.3388 18.0462 37.2954 18.055 37.2515 18.055C37.2076 18.055 37.1641 18.0462 37.1237 18.0291C37.0833 18.0119 37.0468 17.9868 37.0163 17.9552C36.9858 17.9237 36.962 17.8863 36.9463 17.8453C36.9306 17.8043 36.9233 17.7606 36.9248 17.7167C36.9248 17.63 36.9592 17.547 37.0205 17.4857C37.0818 17.4244 37.1649 17.39 37.2515 17.39C37.3381 17.39 37.4212 17.4244 37.4825 17.4857C37.5437 17.547 37.5782 17.63 37.5782 17.7167Z" fill="#EEEEEE"/>
<path d="M37.5782 17.7167C37.5797 17.7606 37.5724 17.8043 37.5567 17.8453C37.541 17.8863 37.5172 17.9237 37.4867 17.9552C37.4562 17.9868 37.4197 18.0119 37.3793 18.0291C37.3388 18.0462 37.2954 18.055 37.2515 18.055C37.2076 18.055 37.1641 18.0462 37.1237 18.0291C37.0833 18.0119 37.0468 17.9868 37.0163 17.9552C36.9858 17.9237 36.962 17.8863 36.9463 17.8453C36.9306 17.8043 36.9233 17.7606 36.9248 17.7167C36.9248 17.63 36.9592 17.547 37.0205 17.4857C37.0818 17.4244 37.1649 17.39 37.2515 17.39C37.3381 17.39 37.4212 17.4244 37.4825 17.4857C37.5437 17.547 37.5782 17.63 37.5782 17.7167" stroke="#1E1E1E" stroke-width="0.14" stroke-linejoin="round"/>
<path fill-rule="evenodd" clip-rule="evenodd" d="M37.0997 17.8917C37.0997 17.8917 37.3681 17.8917 37.3914 17.775C37.4264 17.67 37.3797 17.5417 37.3797 17.5417C37.3797 17.5417 37.4964 17.67 37.4731 17.775C37.4264 17.8917 37.3914 17.915 37.3097 17.9384C37.2363 17.9501 37.1612 17.9334 37.0997 17.8917Z" fill="#A3AFB8"/>
<path d="M37.5898 18.125C37.593 18.1698 37.587 18.2148 37.572 18.2572C37.557 18.2996 37.5335 18.3384 37.5028 18.3712C37.4722 18.4041 37.435 18.4303 37.3938 18.4481C37.3526 18.466 37.3081 18.4751 37.2632 18.475C37.2182 18.4751 37.1738 18.466 37.1325 18.4481C37.0913 18.4303 37.0542 18.4041 37.0235 18.3712C36.9929 18.3384 36.9693 18.2996 36.9543 18.2572C36.9394 18.2148 36.9333 18.1698 36.9365 18.125C36.9365 18.0821 36.945 18.0396 36.9614 18C36.9778 17.9604 37.0018 17.9244 37.0322 17.894C37.0625 17.8637 37.0985 17.8396 37.1382 17.8232C37.1778 17.8068 37.2203 17.7983 37.2632 17.7983C37.3498 17.7983 37.4329 17.8328 37.4942 17.894C37.5554 17.9553 37.5898 18.0384 37.5898 18.125Z" fill="#EEEEEE"/>
<path d="M37.5898 18.125C37.593 18.1698 37.587 18.2148 37.572 18.2572C37.557 18.2996 37.5335 18.3384 37.5028 18.3712C37.4722 18.4041 37.435 18.4303 37.3938 18.4481C37.3526 18.466 37.3081 18.4751 37.2632 18.475C37.2182 18.4751 37.1738 18.466 37.1325 18.4481C37.0913 18.4303 37.0542 18.4041 37.0235 18.3712C36.9929 18.3384 36.9693 18.2996 36.9543 18.2572C36.9394 18.2148 36.9333 18.1698 36.9365 18.125C36.9365 18.0821 36.945 18.0396 36.9614 18C36.9778 17.9604 37.0018 17.9244 37.0322 17.894C37.0625 17.8637 37.0985 17.8396 37.1382 17.8232C37.1778 17.8068 37.2203 17.7983 37.2632 17.7983C37.3498 17.7983 37.4329 17.8328 37.4942 17.894C37.5554 17.9553 37.5898 18.0384 37.5898 18.125" stroke="#1E1E1E" stroke-width="0.14" stroke-linejoin="round"/>
<path fill-rule="evenodd" clip-rule="evenodd" d="M37.0998 18.3C37.0998 18.3 37.3681 18.3 37.4031 18.1833C37.4265 18.09 37.3798 17.95 37.3798 17.95C37.3798 17.95 37.4965 18.09 37.4731 18.1833C37.4381 18.3 37.4031 18.3233 37.3098 18.3467C37.2402 18.3555 37.1698 18.3389 37.1115 18.3H37.0998Z" fill="#A3AFB8"/>
<path d="M37.6132 18.7433C37.6132 18.83 37.5788 18.9131 37.5175 18.9743C37.4562 19.0356 37.3731 19.07 37.2865 19.07C37.2426 19.0716 37.1989 19.0643 37.1579 19.0486C37.1169 19.0329 37.0795 19.009 37.0479 18.9785C37.0164 18.9481 36.9912 18.9115 36.9741 18.8711C36.957 18.8307 36.9481 18.7872 36.9482 18.7433C36.9465 18.6985 36.9542 18.6537 36.9706 18.612C36.987 18.5702 37.0119 18.5322 37.0436 18.5005C37.0754 18.4687 37.1133 18.4439 37.1551 18.4274C37.1969 18.411 37.2416 18.4034 37.2865 18.405C37.3304 18.405 37.3739 18.4138 37.4143 18.4309C37.4547 18.4481 37.4912 18.4732 37.5217 18.5048C37.5522 18.5363 37.576 18.5737 37.5917 18.6147C37.6074 18.6557 37.6147 18.6995 37.6132 18.7433Z" fill="#EEEEEE" stroke="#1E1E1E" stroke-width="0.14" stroke-linejoin="round"/>
<path fill-rule="evenodd" clip-rule="evenodd" d="M37.1349 18.9183C37.1349 18.9183 37.3915 18.9183 37.4265 18.8016C37.4499 18.685 37.4032 18.5566 37.4032 18.5566C37.4032 18.5566 37.5199 18.6966 37.4965 18.79C37.4615 18.9066 37.4265 18.9416 37.3332 18.9533C37.265 18.9656 37.1947 18.9532 37.1349 18.9183Z" fill="#A3AFB8"/>
<path d="M37.6482 19.385C37.6497 19.432 37.6418 19.4787 37.625 19.5226C37.6081 19.5664 37.5825 19.6064 37.5499 19.6401C37.5172 19.6739 37.4781 19.7007 37.4349 19.719C37.3916 19.7373 37.3451 19.7467 37.2982 19.7467C37.2512 19.7483 37.2045 19.7404 37.1606 19.7235C37.1168 19.7066 37.0768 19.6811 37.0431 19.6484C37.0094 19.6158 36.9825 19.5766 36.9642 19.5334C36.9459 19.4902 36.9365 19.4437 36.9365 19.3967C36.9333 19.3488 36.94 19.3008 36.9561 19.2556C36.9723 19.2104 36.9976 19.169 37.0304 19.134C37.0632 19.099 37.1029 19.0711 37.1469 19.0521C37.191 19.033 37.2385 19.0233 37.2865 19.0234C37.3335 19.0234 37.3799 19.0328 37.4232 19.0511C37.4664 19.0694 37.5055 19.0962 37.5382 19.13C37.5709 19.1637 37.5964 19.2037 37.6133 19.2475C37.6302 19.2913 37.6381 19.3381 37.6365 19.385" fill="#EEEEEE"/>
<path d="M37.6482 19.385C37.6497 19.432 37.6418 19.4787 37.625 19.5226C37.6081 19.5664 37.5825 19.6064 37.5499 19.6401C37.5172 19.6739 37.4781 19.7007 37.4349 19.719C37.3916 19.7373 37.3451 19.7467 37.2982 19.7467C37.2512 19.7483 37.2045 19.7404 37.1606 19.7235C37.1168 19.7066 37.0768 19.6811 37.0431 19.6484C37.0094 19.6158 36.9825 19.5766 36.9642 19.5334C36.9459 19.4902 36.9365 19.4437 36.9365 19.3967C36.9333 19.3488 36.94 19.3008 36.9561 19.2556C36.9723 19.2104 36.9976 19.169 37.0304 19.134C37.0632 19.099 37.1029 19.0711 37.1469 19.0521C37.191 19.033 37.2385 19.0233 37.2865 19.0234C37.3335 19.0234 37.3799 19.0328 37.4232 19.0511C37.4664 19.0694 37.5055 19.0962 37.5382 19.13C37.5709 19.1637 37.5964 19.2037 37.6133 19.2475C37.6302 19.2913 37.6381 19.3381 37.6365 19.385" stroke="#1E1E1E" stroke-width="0.14" stroke-linejoin="round"/>
<path fill-rule="evenodd" clip-rule="evenodd" d="M37.1232 19.5717C37.1232 19.5717 37.4148 19.5717 37.4382 19.455C37.4615 19.3384 37.4149 19.1867 37.4149 19.1867C37.4149 19.1867 37.5549 19.3384 37.5199 19.455C37.4732 19.5717 37.4382 19.595 37.3449 19.6184C37.2677 19.632 37.1883 19.6153 37.1232 19.5717Z" fill="#A3AFB8"/>
<path d="M37.6832 20.26C37.6832 20.47 37.5082 20.6567 37.2865 20.6567C37.1833 20.6536 37.0854 20.6105 37.0135 20.5365C36.9416 20.4624 36.9015 20.3632 36.9015 20.26C36.8999 20.2079 36.9087 20.156 36.9272 20.1073C36.9457 20.0586 36.9736 20.014 37.0094 19.9761C37.0451 19.9381 37.088 19.9076 37.1356 19.8863C37.1831 19.865 37.2344 19.8532 37.2865 19.8517C37.3917 19.8517 37.4926 19.8935 37.567 19.9679C37.6414 20.0423 37.6832 20.1431 37.6832 20.2484" fill="#EEEEEE"/>
<path d="M37.6832 20.26C37.6832 20.47 37.5082 20.6567 37.2865 20.6567C37.1833 20.6536 37.0854 20.6105 37.0135 20.5365C36.9416 20.4624 36.9015 20.3632 36.9015 20.26C36.8999 20.2079 36.9087 20.156 36.9272 20.1073C36.9457 20.0586 36.9736 20.014 37.0094 19.9761C37.0451 19.9381 37.088 19.9076 37.1356 19.8863C37.1831 19.865 37.2344 19.8532 37.2865 19.8517C37.3917 19.8517 37.4926 19.8935 37.567 19.9679C37.6414 20.0423 37.6832 20.1431 37.6832 20.2484" stroke="#1E1E1E" stroke-width="0.14" stroke-linejoin="round"/>
<path fill-rule="evenodd" clip-rule="evenodd" d="M37.0998 20.4583C37.0998 20.4583 37.4265 20.4583 37.4498 20.33C37.4848 20.2017 37.4382 20.0267 37.4382 20.0267C37.4382 20.0267 37.5898 20.2017 37.5432 20.33C37.4965 20.4467 37.4615 20.4933 37.3448 20.5167C37.2626 20.5254 37.18 20.5047 37.1115 20.4583H37.0998Z" fill="#A3AFB8"/>
<path d="M37.6482 22.0334C37.6482 22.2434 37.4848 22.4067 37.2748 22.4067C37.1758 22.4067 37.0809 22.3674 37.0108 22.2974C36.9408 22.2273 36.9015 22.1324 36.9015 22.0334C36.9015 21.835 37.0648 21.66 37.2748 21.66C37.3738 21.66 37.4688 21.6994 37.5388 21.7694C37.6088 21.8394 37.6482 21.9344 37.6482 22.0334Z" fill="#EEEEEE"/>
<path d="M37.6482 22.0334C37.6482 22.2434 37.4848 22.4067 37.2748 22.4067C37.1758 22.4067 37.0809 22.3674 37.0108 22.2974C36.9408 22.2273 36.9015 22.1324 36.9015 22.0334C36.9015 21.835 37.0648 21.66 37.2748 21.66C37.3738 21.66 37.4688 21.6994 37.5388 21.7694C37.6088 21.8394 37.6482 21.9344 37.6482 22.0334" stroke="#1E1E1E" stroke-width="0.14" stroke-linejoin="round"/>
<path fill-rule="evenodd" clip-rule="evenodd" d="M37.0998 22.2317C37.0998 22.2317 37.4031 22.2317 37.4265 22.1034C37.4615 21.9867 37.4148 21.8234 37.4148 21.8234C37.4148 21.8234 37.5548 21.975 37.5081 22.1034C37.4731 22.22 37.4265 22.255 37.3331 22.2784C37.2631 22.29 37.1581 22.2667 37.0998 22.2317Z" fill="#A3AFB8"/>
<path d="M36.5865 17.81C36.5865 18.0317 36.3998 18.2067 36.1898 18.2067C36.0846 18.2067 35.9837 18.1649 35.9093 18.0905C35.835 18.0161 35.7932 17.9152 35.7932 17.81C35.7932 17.7048 35.835 17.6039 35.9093 17.5295C35.9837 17.4551 36.0846 17.4133 36.1898 17.4133C36.295 17.4133 36.3959 17.4551 36.4703 17.5295C36.5447 17.6039 36.5865 17.7048 36.5865 17.81Z" fill="#EEEEEE" stroke="#1E1E1E" stroke-width="0.14" stroke-linejoin="round"/>
<path fill-rule="evenodd" clip-rule="evenodd" d="M36.0032 18.0084C36.0032 18.0084 36.3182 18.0084 36.3532 17.8917C36.3882 17.7517 36.3298 17.5884 36.3298 17.5884C36.3298 17.5884 36.4815 17.7517 36.4465 17.88C36.3998 18.0084 36.3532 18.0434 36.2482 18.0667C36.1673 18.0789 36.0848 18.0624 36.0148 18.02L36.0032 18.0084Z" fill="#A3AFB8"/>
<path d="M35.6065 17.425C35.6065 17.6467 35.4315 17.8217 35.2098 17.8217C35.1067 17.8187 35.0087 17.7756 34.9369 17.7015C34.865 17.6274 34.8248 17.5283 34.8248 17.425C34.8248 17.3218 34.865 17.2227 34.9369 17.1486C35.0087 17.0745 35.1067 17.0314 35.2098 17.0284C35.315 17.0284 35.4159 17.0702 35.4903 17.1446C35.5647 17.219 35.6065 17.3198 35.6065 17.425Z" fill="#EEEEEE" stroke="#1E1E1E" stroke-width="0.14" stroke-linejoin="round"/>
<path fill-rule="evenodd" clip-rule="evenodd" d="M35.0348 17.635C35.0348 17.635 35.3498 17.635 35.3848 17.495C35.4082 17.3784 35.3615 17.2034 35.3615 17.2034C35.3615 17.2034 35.5132 17.3667 35.4782 17.495C35.4198 17.6234 35.3848 17.6584 35.2682 17.6817C35.1982 17.705 35.0932 17.6817 35.0348 17.635Z" fill="#A3AFB8"/>
<path d="M34.6732 16.9934C34.6732 17.2034 34.4982 17.39 34.2882 17.39C34.183 17.39 34.0821 17.3482 34.0077 17.2738C33.9333 17.1995 33.8915 17.0986 33.8915 16.9934C33.8899 16.9413 33.8987 16.8894 33.9172 16.8406C33.9357 16.7919 33.9636 16.7473 33.9994 16.7094C34.0351 16.6715 34.078 16.641 34.1256 16.6196C34.1731 16.5983 34.2244 16.5865 34.2765 16.585C34.3817 16.585 34.4826 16.6268 34.557 16.7012C34.6314 16.7756 34.6732 16.8765 34.6732 16.9817" fill="#EEEEEE"/>
<path d="M34.6732 16.9934C34.6732 17.2034 34.4982 17.39 34.2882 17.39C34.183 17.39 34.0821 17.3482 34.0077 17.2738C33.9333 17.1995 33.8915 17.0986 33.8915 16.9934C33.8899 16.9413 33.8987 16.8894 33.9172 16.8406C33.9357 16.7919 33.9636 16.7473 33.9994 16.7094C34.0351 16.6715 34.078 16.641 34.1256 16.6196C34.1731 16.5983 34.2244 16.5865 34.2765 16.585C34.3817 16.585 34.4826 16.6268 34.557 16.7012C34.6314 16.7756 34.6732 16.8765 34.6732 16.9817" stroke="#1E1E1E" stroke-width="0.14" stroke-linejoin="round"/>
<path fill-rule="evenodd" clip-rule="evenodd" d="M34.1015 17.1917C34.1015 17.1917 34.4165 17.1917 34.4515 17.0633C34.4865 16.935 34.4282 16.76 34.4282 16.76C34.4282 16.76 34.5798 16.935 34.5448 17.0633C34.4982 17.18 34.4515 17.2267 34.3465 17.25C34.2604 17.2616 34.1731 17.2408 34.1015 17.1917Z" fill="#A3AFB8"/>
<path d="M33.5998 16.76C33.5998 16.9817 33.4365 17.1567 33.2148 17.1567C33.1096 17.1567 33.0087 17.1149 32.9343 17.0405C32.86 16.9661 32.8182 16.8652 32.8182 16.76C32.8166 16.707 32.8257 16.6541 32.8449 16.6046C32.8642 16.5552 32.8931 16.51 32.9301 16.472C32.9671 16.4339 33.0114 16.4036 33.0603 16.383C33.1092 16.3623 33.1617 16.3517 33.2148 16.3517C33.32 16.3517 33.4209 16.3935 33.4953 16.4679C33.5697 16.5423 33.6115 16.6431 33.6115 16.7484" fill="#EEEEEE"/>
<path d="M33.5998 16.76C33.5998 16.9817 33.4365 17.1567 33.2148 17.1567C33.1096 17.1567 33.0087 17.1149 32.9343 17.0405C32.86 16.9661 32.8182 16.8652 32.8182 16.76C32.8166 16.707 32.8257 16.6541 32.8449 16.6046C32.8642 16.5552 32.8931 16.51 32.9301 16.472C32.9671 16.4339 33.0114 16.4036 33.0603 16.383C33.1092 16.3623 33.1617 16.3517 33.2148 16.3517C33.32 16.3517 33.4209 16.3935 33.4953 16.4679C33.5697 16.5423 33.6115 16.6431 33.6115 16.7484" stroke="#1E1E1E" stroke-width="0.14" stroke-linejoin="round"/>
<path fill-rule="evenodd" clip-rule="evenodd" d="M33.0282 16.9583C33.0282 16.9583 33.3432 16.9583 33.3782 16.83C33.4132 16.7017 33.3548 16.5267 33.3548 16.5267C33.3548 16.5267 33.5065 16.7017 33.4715 16.83C33.4248 16.9467 33.3782 16.9933 33.2732 17.0167C33.1909 17.0254 33.1083 17.0047 33.0398 16.9583H33.0282Z" fill="#A3AFB8"/>
<path d="M32.3398 17.0517C32.3398 17.285 32.1648 17.4484 31.9548 17.46C31.8496 17.46 31.7487 17.4182 31.6744 17.3438C31.6 17.2695 31.5582 17.1686 31.5582 17.0634C31.5566 17.0103 31.5657 16.9575 31.5849 16.908C31.6042 16.8585 31.6332 16.8134 31.6701 16.7753C31.7071 16.7372 31.7514 16.707 31.8003 16.6863C31.8492 16.6656 31.9017 16.655 31.9548 16.655C32.058 16.6581 32.1559 16.7012 32.2278 16.7753C32.2997 16.8493 32.3399 16.9485 32.3398 17.0517Z" fill="#EEEEEE" stroke="#1E1E1E" stroke-width="0.14" stroke-linejoin="round"/>
<path fill-rule="evenodd" clip-rule="evenodd" d="M31.7682 17.2617C31.7682 17.2617 32.0832 17.2617 32.1182 17.1334C32.1532 16.9934 32.0948 16.83 32.0948 16.83C32.0948 16.83 32.2465 16.9934 32.2115 17.1217C32.1648 17.25 32.1182 17.285 32.0132 17.32C31.9309 17.3287 31.8483 17.3081 31.7798 17.2617H31.7682Z" fill="#A3AFB8"/>
<path d="M31.4532 17.95C31.4532 18.1717 31.2782 18.3467 31.0565 18.3467C30.9533 18.3436 30.8554 18.3005 30.7835 18.2265C30.7116 18.1524 30.6715 18.0532 30.6715 17.95C30.6715 17.8468 30.7116 17.7476 30.7835 17.6736C30.8554 17.5995 30.9533 17.5564 31.0565 17.5533C31.1617 17.5533 31.2626 17.5951 31.337 17.6695C31.4114 17.7439 31.4532 17.8448 31.4532 17.95Z" fill="#EEEEEE" stroke="#1E1E1E" stroke-width="0.14" stroke-linejoin="round"/>
<path fill-rule="evenodd" clip-rule="evenodd" d="M30.8815 18.1483C30.8815 18.1483 31.1965 18.1483 31.2315 18.02C31.2548 17.8917 31.2082 17.7167 31.2082 17.7167C31.2082 17.7167 31.3598 17.8917 31.3132 18.02C31.2665 18.1367 31.2315 18.1833 31.1148 18.2067C31.0326 18.2154 30.9499 18.1947 30.8815 18.1483Z" fill="#A3AFB8"/>
<path d="M31.0798 19.1984C31.0798 19.42 30.9048 19.595 30.6948 19.595C30.5896 19.595 30.4887 19.5532 30.4144 19.4788C30.34 19.4045 30.2982 19.3036 30.2982 19.1984C30.2981 19.0952 30.3383 18.996 30.4102 18.9219C30.4821 18.8479 30.58 18.8047 30.6832 18.8017C30.7864 18.8017 30.8855 18.8418 30.9596 18.9137C31.0337 18.9856 31.0768 19.0835 31.0798 19.1867" fill="#EEEEEE"/>
<path d="M31.0798 19.1984C31.0798 19.42 30.9048 19.595 30.6948 19.595C30.5896 19.595 30.4887 19.5532 30.4144 19.4788C30.34 19.4045 30.2982 19.3036 30.2982 19.1984C30.2981 19.0952 30.3383 18.996 30.4102 18.9219C30.4821 18.8479 30.58 18.8047 30.6832 18.8017C30.7864 18.8017 30.8855 18.8418 30.9596 18.9137C31.0337 18.9856 31.0768 19.0835 31.0798 19.1867" stroke="#1E1E1E" stroke-width="0.14" stroke-linejoin="round"/>
<path fill-rule="evenodd" clip-rule="evenodd" d="M30.5082 19.4084C30.5082 19.4084 30.8232 19.3967 30.8582 19.2684C30.8932 19.14 30.8348 18.965 30.8348 18.965C30.8348 18.965 30.9865 19.14 30.9515 19.2684C30.9048 19.385 30.8582 19.4317 30.7532 19.455C30.6671 19.4667 30.5798 19.4459 30.5082 19.3967V19.4084Z" fill="#A3AFB8"/>
<path d="M31.2432 20.4933C31.2432 20.7267 31.0682 20.9017 30.8582 20.9017C30.753 20.9017 30.6521 20.8599 30.5777 20.7855C30.5033 20.7111 30.4615 20.6102 30.4615 20.505C30.4599 20.4529 30.4687 20.401 30.4872 20.3523C30.5057 20.3036 30.5336 20.259 30.5694 20.2211C30.6051 20.1831 30.648 20.1526 30.6956 20.1313C30.7431 20.11 30.7944 20.0982 30.8465 20.0967C30.9517 20.0967 31.0526 20.1385 31.127 20.2129C31.2014 20.2872 31.2432 20.3881 31.2432 20.4933Z" fill="#EEEEEE" stroke="#1E1E1E" stroke-width="0.14" stroke-linejoin="round"/>
<path fill-rule="evenodd" clip-rule="evenodd" d="M30.6715 20.7033C30.6715 20.7033 30.9865 20.7033 31.0215 20.5633C31.0565 20.4467 30.9982 20.2717 30.9982 20.2717C30.9982 20.2717 31.1498 20.435 31.1148 20.5633C31.0682 20.6917 31.0215 20.7267 30.9165 20.7617C30.8343 20.7704 30.7516 20.7497 30.6832 20.7033H30.6715Z" fill="#A3AFB8"/>
<path d="M31.8498 21.6834C31.8498 21.8934 31.6748 22.08 31.4532 22.08C31.35 22.077 31.2521 22.0339 31.1802 21.9598C31.1083 21.8857 31.0681 21.7866 31.0682 21.6834C31.0666 21.6313 31.0753 21.5794 31.0938 21.5306C31.1124 21.4819 31.1403 21.4373 31.176 21.3994C31.2118 21.3615 31.2547 21.331 31.3022 21.3096C31.3498 21.2883 31.4011 21.2765 31.4532 21.275C31.5053 21.275 31.5568 21.2853 31.605 21.3052C31.6531 21.3252 31.6968 21.3544 31.7336 21.3912C31.7705 21.428 31.7997 21.4718 31.8196 21.5199C31.8396 21.568 31.8498 21.6196 31.8498 21.6717" fill="#EEEEEE"/>
<path d="M31.8498 21.6834C31.8498 21.8934 31.6748 22.08 31.4532 22.08C31.35 22.077 31.2521 22.0339 31.1802 21.9598C31.1083 21.8857 31.0681 21.7866 31.0682 21.6834C31.0666 21.6313 31.0753 21.5794 31.0938 21.5306C31.1124 21.4819 31.1403 21.4373 31.176 21.3994C31.2118 21.3615 31.2547 21.331 31.3022 21.3096C31.3498 21.2883 31.4011 21.2765 31.4532 21.275C31.5053 21.275 31.5568 21.2853 31.605 21.3052C31.6531 21.3252 31.6968 21.3544 31.7336 21.3912C31.7705 21.428 31.7997 21.4718 31.8196 21.5199C31.8396 21.568 31.8498 21.6196 31.8498 21.6717" stroke="#1E1E1E" stroke-width="0.14" stroke-linejoin="round"/>
<path fill-rule="evenodd" clip-rule="evenodd" d="M31.2665 21.8817C31.2665 21.8817 31.5932 21.8817 31.6165 21.7533C31.6515 21.625 31.6048 21.45 31.6048 21.45C31.6048 21.45 31.7565 21.6133 31.7215 21.7417C31.6632 21.87 31.6282 21.905 31.5232 21.94C31.4371 21.9516 31.3498 21.9308 31.2782 21.8817H31.2665Z" fill="#A3AFB8"/>
<path d="M32.5328 23.1628C32.5596 23.2631 32.5607 23.3661 32.5357 23.4494C32.5107 23.5327 32.4617 23.5897 32.3992 23.6081C32.3357 23.6251 32.2639 23.6012 32.1998 23.5416C32.1357 23.482 32.0844 23.3916 32.0572 23.2902C32.0303 23.1899 32.0293 23.087 32.0543 23.0037C32.0793 22.9204 32.1283 22.8634 32.1908 22.845C32.2543 22.828 32.3261 22.8519 32.3902 22.9115C32.4543 22.9711 32.5056 23.0615 32.5328 23.1628Z" fill="#EEEEEE"/>
<path d="M32.5328 23.1628C32.5596 23.2631 32.5607 23.3661 32.5357 23.4494C32.5107 23.5327 32.4617 23.5897 32.3992 23.6081C32.3357 23.6251 32.2639 23.6012 32.1998 23.5416C32.1357 23.482 32.0844 23.3916 32.0572 23.2902C32.0303 23.1899 32.0293 23.087 32.0543 23.0037C32.0793 22.9204 32.1283 22.8634 32.1908 22.845C32.2543 22.828 32.3261 22.8519 32.3902 22.9115C32.4543 22.9711 32.5056 23.0615 32.5328 23.1628" stroke="#1E1E1E" stroke-width="0.134929" stroke-linejoin="round"/>
<path fill-rule="evenodd" clip-rule="evenodd" d="M32.2349 23.4567C32.2349 23.4567 32.4216 23.3984 32.4099 23.2701C32.4099 23.1417 32.3282 22.9901 32.3282 22.9901C32.3282 22.9901 32.4566 23.1184 32.4682 23.2584C32.4682 23.3751 32.4566 23.4217 32.3982 23.4684C32.3632 23.4917 32.2816 23.4917 32.2349 23.4567Z" fill="#A3AFB8"/>
<path d="M42.6795 23.2388C42.6546 23.3396 42.6058 23.4303 42.5437 23.4912C42.4816 23.5521 42.4112 23.5783 42.3476 23.5642C42.2837 23.5485 42.2324 23.4929 42.205 23.4097C42.1776 23.3266 42.1764 23.2226 42.2015 23.1208C42.2264 23.02 42.2751 22.9293 42.3373 22.8684C42.3994 22.8075 42.4698 22.7813 42.5334 22.7954C42.5973 22.8111 42.6486 22.8667 42.676 22.9499C42.7033 23.033 42.7046 23.137 42.6795 23.2388Z" fill="#EEEEEE"/>
<path d="M42.6795 23.2388C42.6546 23.3396 42.6058 23.4303 42.5437 23.4912C42.4816 23.5521 42.4112 23.5783 42.3476 23.5642C42.2837 23.5485 42.2324 23.4929 42.205 23.4097C42.1776 23.3266 42.1764 23.2226 42.2015 23.1208C42.2264 23.02 42.2751 22.9293 42.3373 22.8684C42.3994 22.8075 42.4698 22.7813 42.5334 22.7954C42.5973 22.8111 42.6486 22.8667 42.676 22.9499C42.7033 23.033 42.7046 23.137 42.6795 23.2388" stroke="#1E1E1E" stroke-width="0.134929" stroke-linejoin="round"/>
<path fill-rule="evenodd" clip-rule="evenodd" d="M42.2682 23.3517C42.2682 23.3517 42.4666 23.3983 42.5132 23.27C42.5716 23.1533 42.5716 22.9783 42.5716 22.9783C42.5716 22.9783 42.6299 23.165 42.5716 23.2817C42.5132 23.3983 42.4782 23.4333 42.4082 23.4333C42.3616 23.445 42.2916 23.3983 42.2682 23.3517Z" fill="#A3AFB8"/>
<path fill-rule="evenodd" clip-rule="evenodd" d="M36.9483 15.6517L36.9833 16.3167C36.9833 16.3167 36.1899 16.3867 36.1666 16.4567C36.0033 16.8067 36.3416 17.2733 36.3416 17.2733C36.3416 17.2733 36.6099 17.0633 37.2749 17.0633C37.9166 17.0633 38.2433 17.2267 38.2433 17.2267C38.2433 17.2267 38.4066 16.9583 38.4066 16.76C38.4066 16.5617 38.3366 16.3633 38.3366 16.3633L37.9166 16.3167H37.6249L37.6016 15.64L36.9483 15.6517Z" fill="#B3A192" stroke="black" stroke-width="0.14"/>
<path d="M38.0799 16.6783C38.0799 16.76 38.0099 16.8183 37.9399 16.8183C37.8583 16.8183 37.7882 16.76 37.7882 16.69C37.7882 16.6083 37.8583 16.55 37.9283 16.55C38.0099 16.55 38.0682 16.6083 38.0799 16.6783ZM38.3949 16.76C38.3949 16.83 38.3366 16.9 38.2549 16.9C38.1732 16.9 38.1033 16.83 38.1033 16.76C38.1033 16.6783 38.1732 16.62 38.2549 16.62C38.3366 16.62 38.3949 16.6783 38.3949 16.76ZM37.7533 16.6783C37.7533 16.7483 37.6832 16.8183 37.6132 16.8183C37.5316 16.8183 37.4733 16.7483 37.4733 16.6783C37.4733 16.6083 37.5316 16.5383 37.6016 16.5383C37.6832 16.5383 37.7533 16.6083 37.7533 16.6783ZM37.0999 16.6783C37.0999 16.76 37.0299 16.83 36.9483 16.83C36.8666 16.83 36.8082 16.76 36.8082 16.69C36.8082 16.6083 36.8666 16.55 36.9483 16.55C37.0299 16.55 37.0999 16.6083 37.0999 16.69M36.7382 16.7133C36.7382 16.7833 36.6683 16.8533 36.5866 16.8533C36.5049 16.8533 36.4466 16.795 36.4466 16.7133C36.4466 16.6317 36.5049 16.5733 36.5866 16.5733C36.6683 16.5733 36.7382 16.6317 36.7382 16.7133ZM37.4033 16.305C37.4033 16.375 37.3449 16.4217 37.2866 16.4217C37.2694 16.4252 37.2517 16.4248 37.2347 16.4205C37.2178 16.4162 37.202 16.4082 37.1885 16.397C37.1751 16.3858 37.1643 16.3717 37.1571 16.3558C37.1498 16.3399 37.1462 16.3225 37.1466 16.305C37.1466 16.235 37.2049 16.1883 37.2749 16.1883C37.3449 16.1883 37.3916 16.235 37.3916 16.305M37.3916 15.7567C37.3916 15.815 37.3449 15.8733 37.2749 15.8733C37.244 15.8733 37.2143 15.8611 37.1924 15.8392C37.1705 15.8173 37.1582 15.7876 37.1582 15.7567C37.1582 15.6867 37.2049 15.64 37.2749 15.64C37.3449 15.64 37.3916 15.6867 37.3916 15.7567ZM37.3916 16.0483C37.3916 16.1183 37.3449 16.165 37.2749 16.165C37.2049 16.165 37.1582 16.1183 37.1582 16.0483C37.1582 15.99 37.2049 15.9317 37.2749 15.9317C37.3449 15.9317 37.3916 15.9783 37.3916 16.0483ZM36.3649 16.8067C36.3649 16.8883 36.3066 16.9467 36.2249 16.9467C36.1549 16.9467 36.0849 16.8883 36.0849 16.8067C36.0849 16.7367 36.1432 16.6783 36.2249 16.6783C36.3066 16.6783 36.3649 16.7367 36.3649 16.8067Z" fill="#F0DDCB"/>
<path d="M38.3949 16.76C38.3949 16.83 38.3366 16.9 38.2549 16.9C38.1732 16.9 38.1033 16.83 38.1033 16.76C38.1033 16.6783 38.1732 16.62 38.2549 16.62C38.3366 16.62 38.3949 16.6783 38.3949 16.76M37.7533 16.6783C37.7533 16.7483 37.6832 16.8183 37.6132 16.8183C37.5316 16.8183 37.4733 16.7483 37.4733 16.6783C37.4733 16.6083 37.5316 16.5383 37.6016 16.5383C37.6832 16.5383 37.7533 16.6083 37.7533 16.6783M37.0999 16.6783C37.0999 16.76 37.0299 16.83 36.9483 16.83C36.8666 16.83 36.8082 16.76 36.8082 16.69C36.8082 16.6083 36.8666 16.55 36.9483 16.55C37.0299 16.55 37.0999 16.6083 37.0999 16.69M37.4033 16.305C37.4033 16.375 37.3449 16.4217 37.2866 16.4217C37.2694 16.4252 37.2517 16.4248 37.2347 16.4205C37.2178 16.4162 37.202 16.4082 37.1885 16.397C37.1751 16.3858 37.1643 16.3717 37.1571 16.3558C37.1498 16.3399 37.1462 16.3225 37.1466 16.305C37.1466 16.235 37.2049 16.1883 37.2749 16.1883C37.3449 16.1883 37.3916 16.235 37.3916 16.305M38.0799 16.6783C38.0799 16.76 38.0099 16.8183 37.9399 16.8183C37.8583 16.8183 37.7882 16.76 37.7882 16.69C37.7882 16.6083 37.8583 16.55 37.9283 16.55C38.0099 16.55 38.0682 16.6083 38.0799 16.6783ZM36.7382 16.7133C36.7382 16.7833 36.6683 16.8533 36.5866 16.8533C36.5049 16.8533 36.4466 16.795 36.4466 16.7133C36.4466 16.6317 36.5049 16.5733 36.5866 16.5733C36.6683 16.5733 36.7382 16.6317 36.7382 16.7133ZM37.3916 15.7567C37.3916 15.815 37.3449 15.8733 37.2749 15.8733C37.244 15.8733 37.2143 15.8611 37.1924 15.8392C37.1705 15.8173 37.1582 15.7876 37.1582 15.7567C37.1582 15.6867 37.2049 15.64 37.2749 15.64C37.3449 15.64 37.3916 15.6867 37.3916 15.7567ZM37.3916 16.0483C37.3916 16.1183 37.3449 16.165 37.2749 16.165C37.2049 16.165 37.1582 16.1183 37.1582 16.0483C37.1582 15.99 37.2049 15.9317 37.2749 15.9317C37.3449 15.9317 37.3916 15.9783 37.3916 16.0483ZM36.3649 16.8067C36.3649 16.8883 36.3066 16.9467 36.2249 16.9467C36.1549 16.9467 36.0849 16.8883 36.0849 16.8067C36.0849 16.7367 36.1432 16.6783 36.2249 16.6783C36.3066 16.6783 36.3649 16.7367 36.3649 16.8067Z" stroke="#121116" stroke-width="0.07" stroke-linejoin="round"/>
<path d="M37.4383 16.655C37.4383 16.7367 37.3683 16.795 37.2749 16.795C37.2366 16.7951 37.1997 16.7808 37.1716 16.7548C37.1435 16.7288 37.1262 16.6932 37.1233 16.655C37.1233 16.5734 37.1933 16.5034 37.2749 16.5034C37.3566 16.5034 37.4266 16.5734 37.4266 16.655" fill="#916C68"/>
<path d="M37.4383 16.655C37.4383 16.7367 37.3683 16.795 37.2749 16.795C37.2366 16.7951 37.1997 16.7808 37.1716 16.7548C37.1435 16.7288 37.1262 16.6932 37.1233 16.655C37.1233 16.5734 37.1933 16.5034 37.2749 16.5034C37.3566 16.5034 37.4266 16.5734 37.4266 16.655" stroke="#4D3126" stroke-width="0.07" stroke-linejoin="round"/>
<path d="M37.5666 14.6833C37.5666 14.7587 37.5375 14.8312 37.4853 14.8856C37.4331 14.9399 37.3619 14.972 37.2866 14.975C37.2483 14.975 37.2104 14.9675 37.175 14.9528C37.1396 14.9381 37.1074 14.9167 37.0804 14.8896C37.0533 14.8625 37.0318 14.8303 37.0171 14.795C37.0025 14.7596 36.9949 14.7216 36.9949 14.6833C36.9934 14.6441 36.9997 14.6049 37.0137 14.5681C37.0276 14.5314 37.0489 14.4978 37.0761 14.4695C37.1034 14.4412 37.136 14.4186 37.1722 14.4033C37.2084 14.3879 37.2473 14.38 37.2866 14.38C37.3639 14.38 37.4381 14.4107 37.4928 14.4654C37.5475 14.5201 37.5783 14.5943 37.5783 14.6717" fill="#EEEEEE"/>
<path d="M37.5666 14.6833C37.5666 14.7587 37.5375 14.8312 37.4853 14.8856C37.4331 14.9399 37.3619 14.972 37.2866 14.975C37.2483 14.975 37.2104 14.9675 37.175 14.9528C37.1396 14.9381 37.1074 14.9167 37.0804 14.8896C37.0533 14.8625 37.0318 14.8303 37.0171 14.795C37.0025 14.7596 36.9949 14.7216 36.9949 14.6833C36.9934 14.6441 36.9997 14.6049 37.0137 14.5681C37.0276 14.5314 37.0489 14.4978 37.0761 14.4695C37.1034 14.4412 37.136 14.4186 37.1722 14.4033C37.2084 14.3879 37.2473 14.38 37.2866 14.38C37.3639 14.38 37.4381 14.4107 37.4928 14.4654C37.5475 14.5201 37.5783 14.5943 37.5783 14.6717" stroke="#1E1E1E" stroke-width="0.14" stroke-linejoin="round"/>
<path fill-rule="evenodd" clip-rule="evenodd" d="M37.1466 14.835C37.1466 14.835 37.38 14.835 37.4033 14.7184C37.4266 14.6367 37.3916 14.5084 37.3916 14.5084C37.3916 14.5084 37.5083 14.625 37.4733 14.73C37.4383 14.8234 37.4033 14.8467 37.3333 14.87C37.2689 14.8827 37.2021 14.8701 37.1466 14.835Z" fill="#A3AFB8"/>
<path fill-rule="evenodd" clip-rule="evenodd" d="M32.6666 24.5533C32.6666 24.5533 32.9232 24.7983 32.9932 25.02C33.0632 25.23 33.1682 25.8133 33.1682 25.8133C33.1682 25.8133 35.8749 25.055 37.2049 25.1133C38.5349 25.1833 41.6032 25.8483 41.6032 25.8483L41.7199 25.1833C41.7782 24.8333 42.0349 24.4483 42.0349 24.4483C42.0349 24.4483 39.1066 23.5383 37.2516 23.6317C36.1775 23.6409 35.1083 23.778 34.0666 24.04C33.5958 24.1995 33.1289 24.3707 32.6666 24.5533Z" fill="#FFCC00" stroke="black" stroke-width="0.0583333"/>
<path fill-rule="evenodd" clip-rule="evenodd" d="M36.7149 13.575H37.8816C37.8816 13.575 37.5899 13.7733 37.5316 13.9717C37.4849 14.135 37.4966 14.4033 37.4966 14.4033C37.4966 14.4033 37.8116 14.4033 37.9633 14.2867C38.1037 14.1696 38.2477 14.0568 38.3949 13.9483V15.43C38.3949 15.43 38.1033 15.1617 37.9283 15.0683C37.7993 15.0003 37.662 14.9493 37.5199 14.9167C37.5199 14.9167 37.5199 15.15 37.6133 15.3017C37.7066 15.4533 38.1149 15.9783 38.1149 15.9783L36.4466 16.0367C36.4466 16.0367 36.8433 15.6283 37.0066 15.325C37.1116 15.1267 37.0649 14.9167 37.0649 14.9167C37.0649 14.9167 36.7849 14.9167 36.6449 15.0217C36.4933 15.115 36.2483 15.4067 36.2483 15.4067V13.9833C36.2483 13.9833 36.3649 14.2633 36.5983 14.3683C36.8316 14.4733 37.0416 14.415 37.0416 14.415C37.0416 14.415 37.0883 14.135 36.9949 13.9483C36.9016 13.7733 36.6916 13.575 36.7149 13.5867V13.575Z" fill="#FFCC00" stroke="black" stroke-width="0.14"/>
<path fill-rule="evenodd" clip-rule="evenodd" d="M36.6216 18.3C36.6216 18.3 35.7933 18.2884 35.0816 17.8684C34.3699 17.4484 33.6466 17.005 32.5966 17.25C32.3866 17.3084 31.5933 17.6584 31.2433 18.79C31.0603 19.5267 31.1603 20.3051 31.5233 20.9717C31.7139 21.279 31.9326 21.568 32.1766 21.835L32.6083 21.5434C32.6083 21.5434 31.5233 20.61 31.6516 19.42C31.7683 18.2184 32.3749 17.9384 32.3749 17.9384C32.3749 17.9384 33.1216 17.355 34.1133 17.9034C35.0332 18.405 36.031 18.7481 37.0649 18.9184C37.1349 18.9067 36.5983 18.2884 36.6216 18.3Z" fill="#FFCC00" stroke="#121116" stroke-width="0.14"/>
<path fill-rule="evenodd" clip-rule="evenodd" d="M32.0249 22.7916L31.5816 21.9283L32.9116 21.415C32.9116 21.415 32.5849 21.835 32.5149 22.1383C32.4216 22.5116 32.4566 22.8266 32.4566 22.8266C32.4566 22.8266 32.5733 22.7333 32.7249 22.4883C32.8416 22.3133 33.0283 21.6366 33.0283 21.6366L33.6233 23.5383C33.6233 23.5383 33.3199 23.235 33.0983 23.2C32.8649 23.1533 32.5616 23.235 32.5616 23.235L32.2116 23.3516L32.0249 22.7916Z" fill="#FFCC00" stroke="black" stroke-width="0.14"/>
<path fill-rule="evenodd" clip-rule="evenodd" d="M38.1149 18.2766C38.1149 18.2766 38.9433 18.2766 39.6549 17.845C40.3666 17.425 41.0783 16.9933 42.1399 17.2383C42.3499 17.285 43.1433 17.635 43.4933 18.7666C43.6726 19.5047 43.5685 20.2832 43.2016 20.9483C43.0684 21.1818 42.9284 21.4114 42.7816 21.6366L42.2683 21.45C42.2683 21.45 43.2133 20.5983 43.0849 19.3966C42.9566 18.195 42.3616 17.915 42.3616 17.915C42.3616 17.915 41.6149 17.3316 40.6233 17.8916C39.6316 18.44 38.6633 18.685 38.6633 18.685C38.6633 18.685 37.7533 18.9183 37.6716 18.895C37.5899 18.895 38.1383 18.265 38.1149 18.2766Z" fill="#FFCC00" stroke="#121116" stroke-width="0.14"/>
<path d="M37.6833 17.46H38.0333V20.6916H37.6833V17.46ZM36.5166 17.4366H36.9249V20.6683H36.5166V17.4366Z" fill="#FFCC00" stroke="#121116" stroke-width="0.14" stroke-linejoin="round"/>
<path d="M38.4066 16.69C38.4066 17.2733 37.9049 17.74 37.2749 17.74C36.6566 17.74 36.1432 17.2733 36.1432 16.69C36.1432 16.1183 36.6449 15.6517 37.2633 15.6517C37.8933 15.6517 38.4066 16.1183 38.4066 16.69Z" fill="#FFCC00"/>
<path d="M38.4066 16.69C38.4066 17.2733 37.9049 17.74 37.2749 17.74C36.6566 17.74 36.1432 17.2733 36.1432 16.69C36.1432 16.1183 36.6449 15.6517 37.2633 15.6517C37.8933 15.6517 38.4066 16.1183 38.4066 16.69" stroke="#121116" stroke-width="0.14" stroke-linejoin="round"/>
<path fill-rule="evenodd" clip-rule="evenodd" d="M36.2716 20.6684L38.2199 20.645C38.2199 20.645 37.9866 20.785 37.7882 21.135C37.6016 21.485 37.6249 21.695 37.6249 21.695C37.6249 21.695 37.9166 21.695 38.1266 21.5434C38.2887 21.415 38.4373 21.2704 38.5699 21.1117V22.8967C38.5699 22.8967 38.4182 22.6634 38.1849 22.5467C37.9516 22.395 37.6249 22.395 37.6249 22.395H36.9599C36.9599 22.395 36.6566 22.4184 36.5283 22.5117C36.3741 22.6238 36.2297 22.7486 36.0966 22.885L36.0616 21.1817C36.0616 21.1817 36.1549 21.485 36.4699 21.6017C36.7849 21.7184 36.9599 21.7184 36.9599 21.7184C36.9599 21.7184 36.9599 21.3217 36.7966 21.135C36.6362 20.9638 36.4604 20.8076 36.2716 20.6684Z" fill="#FFCC00" stroke="black" stroke-width="0.116667"/>
<path fill-rule="evenodd" clip-rule="evenodd" d="M37.3566 22.0683C37.3566 22.0683 37.6366 22.7333 37.9749 23.025C38.1616 23.2 38.7449 23.3283 39.0016 23.2583C39.5849 23.1066 40.0049 22.64 40.0049 22.64C40.0049 22.64 39.9816 23.1533 40.3549 23.445C40.7166 23.725 41.0083 23.795 41.3116 23.7133C41.6266 23.6316 42.4783 22.99 42.4783 22.99L42.6649 23.1416C42.6649 23.1416 42.1633 23.6317 41.6499 23.8767C41.3816 24.0167 40.5649 23.935 40.3083 23.725C40.0399 23.515 39.8883 23.0133 39.8883 23.0133C39.8883 23.0133 39.7249 23.34 39.3749 23.4566C39.0249 23.5733 38.5583 23.5733 38.1033 23.4333C37.8116 23.34 37.4149 22.9316 37.3449 22.7916C37.2749 22.6633 37.2983 22.5816 37.2983 22.5816C37.2983 22.5816 37.0649 23.2116 36.6216 23.3866C36.1904 23.5428 35.7209 23.5592 35.2799 23.4333C34.8599 23.3166 34.8249 23.0716 34.8249 23.0716C34.8249 23.0716 34.8016 23.7366 33.8916 23.9233C32.9583 24.11 32.2349 23.445 32.2349 23.445L32.3633 23.2466C32.3633 23.2466 32.8766 23.83 33.6699 23.7833C34.4633 23.725 34.7199 22.71 34.7199 22.71C34.7199 22.71 35.0699 23.235 36.0033 23.2466C36.9249 23.2583 37.1933 22.045 37.1933 22.045L37.3566 22.0683Z" fill="#F6CA1F" stroke="black" stroke-width="0.105"/>
<path fill-rule="evenodd" clip-rule="evenodd" d="M35.0699 22.4533C35.0699 22.4533 35.0699 22.1383 35.1516 22.0333C35.2449 21.905 35.3849 21.8933 35.4549 21.9166C35.5366 21.94 35.6183 22.01 35.6066 22.2433C35.5949 22.465 35.5249 22.57 35.6066 22.6633C35.6649 22.745 35.6766 22.8033 35.8049 22.78C35.9216 22.7566 35.9916 22.7216 35.9566 22.605C35.9216 22.4883 35.8983 22.605 35.8749 22.5116C35.8516 22.4066 35.9916 21.975 35.9683 21.7066C35.9449 21.45 35.8516 21.24 35.6416 21.1816C35.4549 21.135 35.2916 21.135 35.1166 21.2633C34.9533 21.38 34.7316 21.7883 34.7316 21.7883V22.6633L35.0816 22.64V22.4533H35.0699Z" fill="#FFCC00" stroke="black" stroke-width="0.128333"/>
<path fill-rule="evenodd" clip-rule="evenodd" d="M34.4166 22.6866C34.4166 22.6866 34.2766 22.395 34.1833 22.3366C34.135 22.304 34.0782 22.2866 34.0199 22.2866C33.9617 22.2866 33.9048 22.304 33.8566 22.3366C33.7866 22.395 33.7399 22.5 33.8449 22.6983C33.9383 22.8966 34.0433 22.9783 34.0083 23.0833C33.9849 23.1883 34.0083 23.2466 33.8799 23.2816C33.7516 23.3166 33.6816 23.2933 33.6583 23.165C33.6349 23.0483 33.7283 23.165 33.7049 23.0483C33.6933 22.955 33.3783 22.6166 33.2966 22.36C33.2149 22.115 33.2266 21.8816 33.3899 21.7533C33.5416 21.6366 33.6816 21.5666 33.8916 21.6133C34.1016 21.66 34.4633 21.9516 34.4633 21.9516L34.8133 22.745L34.4866 22.8616L34.4166 22.6866Z" fill="#FFCC00" stroke="black" stroke-width="0.128333"/>
<path fill-rule="evenodd" clip-rule="evenodd" d="M34.3466 20.12C34.3466 20.12 33.9966 20.7033 34.0783 21.1467C34.1599 21.59 34.6149 22.5467 34.6149 22.5467V22.6633L34.8716 22.64L34.8133 22.5117C34.8133 22.5117 34.9299 21.3683 34.8599 21.0067C34.7291 20.6896 34.5565 20.3914 34.3466 20.12ZM34.8949 22.7683C34.8949 22.7683 35.0699 22.9667 35.2683 23.0717C35.5016 23.1767 35.5949 23.1883 35.6766 23.1067C35.7466 23.06 35.7233 22.85 35.6416 22.7917C35.5716 22.7333 35.4783 22.7683 35.4666 22.8267C35.4433 22.92 35.4199 22.92 35.3499 22.8733C35.2333 22.8267 34.9999 22.675 34.9999 22.675L34.8949 22.7683ZM34.6266 22.815C34.6266 22.815 34.5566 23.0717 34.4166 23.2467C34.2533 23.4333 34.1716 23.48 34.0666 23.445C33.9849 23.4333 33.9149 23.235 33.9616 23.1417C34.0083 23.06 34.1016 23.0483 34.1366 23.095C34.1949 23.1767 34.2183 23.165 34.2649 23.095L34.4983 22.78L34.6266 22.8033V22.815Z" fill="#FFCC00" stroke="black" stroke-width="0.128333"/>
<path d="M35.2799 22.605C35.3033 22.675 35.0699 22.78 34.7783 22.8267C34.4866 22.8733 34.2416 22.8617 34.2183 22.78C34.2183 22.71 34.4399 22.605 34.7316 22.5467C35.0233 22.5 35.2683 22.5233 35.2799 22.605Z" fill="#FFCC00"/>
<path d="M35.2799 22.605C35.3033 22.675 35.0699 22.78 34.7783 22.8267C34.4866 22.8733 34.2416 22.8617 34.2183 22.78C34.2183 22.71 34.4399 22.605 34.7316 22.5467C35.0233 22.5 35.2683 22.5233 35.2799 22.605" stroke="black" stroke-width="0.128333" stroke-linejoin="round"/>
<path fill-rule="evenodd" clip-rule="evenodd" d="M40.3198 22.5816C40.3198 22.5816 40.4365 22.29 40.5531 22.22C40.6815 22.1266 40.8098 22.1616 40.8681 22.22C40.9381 22.255 40.9848 22.36 40.9031 22.57C40.8098 22.7683 40.7165 22.85 40.7398 22.955C40.7748 23.0716 40.7631 23.1183 40.8915 23.1416C41.0198 23.1766 41.0898 23.1533 41.1015 23.025C41.1131 22.9083 41.0431 23.025 41.0548 22.9083C41.0548 22.815 41.3581 22.4533 41.4281 22.2083C41.4981 21.94 41.4748 21.7183 41.3115 21.59C41.1481 21.4733 40.9965 21.4266 40.7865 21.485C40.5881 21.5433 40.2381 21.8466 40.2381 21.8466L39.9348 22.6633L40.2732 22.7683L40.3198 22.5816Z" fill="#FFCC00" stroke="black" stroke-width="0.128333"/>
<path fill-rule="evenodd" clip-rule="evenodd" d="M39.6315 22.5699C39.6315 22.5699 39.6081 22.2549 39.5265 22.1616C39.4215 22.0333 39.2932 22.0333 39.2232 22.0449C39.1415 22.0799 39.0598 22.1616 39.0832 22.3833C39.1065 22.6166 39.1765 22.7099 39.1181 22.8033C39.0481 22.8966 39.0482 22.9433 38.9198 22.9316C38.7915 22.9316 38.7215 22.8849 38.7448 22.7683C38.7682 22.6516 38.8148 22.7683 38.8382 22.6633C38.8498 22.5699 38.6865 22.1383 38.6982 21.8699C38.6982 21.6133 38.7915 21.4033 38.9898 21.3333C39.1765 21.2749 39.3398 21.2633 39.5148 21.3916C39.6898 21.5083 39.9348 21.8933 39.9348 21.8933L39.9815 22.7566H39.6315V22.5699Z" fill="#FFCC00" stroke="black" stroke-width="0.128333"/>
<path fill-rule="evenodd" clip-rule="evenodd" d="M40.4598 20.1433C40.4598 20.1433 39.9348 20.5633 39.8532 21.0066C39.7715 21.45 39.8648 22.5 39.8648 22.5L39.8298 22.6166L40.0632 22.6866V22.5466C40.0632 22.5466 40.5765 21.52 40.6348 21.1466C40.6226 20.8058 40.5637 20.4682 40.4598 20.1433ZM40.0515 22.815C40.0515 22.815 40.1448 23.06 40.2965 23.2233C40.4715 23.41 40.5532 23.445 40.6582 23.41C40.7398 23.3866 40.7865 23.1766 40.7398 23.1066C40.6932 23.025 40.5998 23.025 40.5648 23.0716C40.5065 23.1533 40.4832 23.13 40.4365 23.0716C40.3487 22.9724 40.2631 22.8713 40.1798 22.7683L40.0515 22.815ZM39.7832 22.7566C39.7832 22.7566 39.6315 22.9783 39.4332 23.0833C39.2115 23.2116 39.1182 23.2233 39.0248 23.1533C38.9548 23.1183 38.9665 22.9083 39.0365 22.8383C39.1182 22.78 39.1998 22.8033 39.2232 22.8616C39.2465 22.955 39.2815 22.9433 39.3398 22.9083L39.6665 22.675L39.7832 22.7566Z" fill="#FFCC00" stroke="black" stroke-width="0.128333"/>
<path d="M40.4715 22.7916C40.4598 22.8733 40.2032 22.885 39.9115 22.8266C39.6198 22.7683 39.3982 22.6633 39.4098 22.5933C39.4215 22.5116 39.6782 22.5 39.9698 22.5583C40.2615 22.6166 40.4832 22.7216 40.4715 22.7916Z" fill="#FFCC00" stroke="black" stroke-width="0.128333" stroke-linejoin="round"/>
<path fill-rule="evenodd" clip-rule="evenodd" d="M32.5499 24.53C32.5499 24.53 32.6199 24.7634 32.7483 24.6467C32.8883 24.5184 34.7666 23.7717 37.4149 23.7717C40.0633 23.7717 41.7899 24.5067 41.8949 24.5534C41.9999 24.5884 42.0466 24.6467 42.1283 24.5534C42.2216 24.4367 42.0466 24.285 42.0466 24.285C42.0466 24.285 40.2033 23.5034 37.3333 23.515C34.4516 23.5267 32.5966 24.3434 32.5966 24.3434C32.5966 24.3434 32.4799 24.4367 32.5616 24.53H32.5499Z" fill="#CCA715" stroke="black" stroke-width="0.0583333"/>
<path fill-rule="evenodd" clip-rule="evenodd" d="M35.9216 25.6267C35.9216 25.6267 36.0033 25.3933 36.1549 25.3467C36.2716 25.3117 36.4466 25.4283 36.4466 25.4283C36.4466 25.4283 36.2249 25.405 36.1549 25.4517C36.0966 25.4867 36.0733 25.5917 36.0733 25.5917C36.0733 25.5917 36.1199 25.4983 36.2949 25.51H36.4816C36.4816 25.51 36.1899 25.545 36.1316 25.6267C36.0616 25.7083 36.3999 25.7433 36.3999 25.7433C36.3999 25.7433 35.8749 25.7433 35.8166 25.72C35.7466 25.685 35.6999 25.58 35.5833 25.6033C35.4666 25.65 35.3499 25.755 35.3499 25.755C35.3499 25.755 35.4783 25.5217 35.5599 25.5217C35.6416 25.5217 35.6999 25.5217 35.7699 25.5567L35.9216 25.6267ZM33.9616 26.0467C33.9616 26.0467 33.9966 25.8133 34.1366 25.7317C34.2533 25.6733 34.4516 25.755 34.4516 25.755C34.4516 25.755 34.2183 25.7783 34.1599 25.825C34.1133 25.8717 34.1133 25.9883 34.1133 25.9883C34.1133 25.9883 34.1483 25.895 34.3116 25.8717C34.3739 25.8607 34.4362 25.8491 34.4983 25.8367C34.4983 25.8367 34.2183 25.9183 34.1716 26.0117C34.1133 26.105 34.4633 26.0817 34.4633 26.0817C34.4633 26.0817 33.9499 26.175 33.8799 26.1633C33.7983 26.14 33.7399 26.0467 33.6349 26.105C33.5183 26.1517 33.4249 26.28 33.4249 26.28C33.4249 26.28 33.5183 26.035 33.5999 26.0117C33.6816 26 33.7166 25.9883 33.8099 26.0117L33.9616 26.0467ZM37.5666 25.545C37.5666 25.545 37.6599 25.3117 37.7999 25.2767C37.9283 25.2417 38.1149 25.37 38.1149 25.37C38.1149 25.37 37.8816 25.335 37.8116 25.37C37.7533 25.405 37.7299 25.51 37.7299 25.51C37.7299 25.51 37.7766 25.4283 37.9516 25.4517L38.1383 25.4633C38.1383 25.4633 37.8466 25.4633 37.7766 25.5567C37.7066 25.6267 38.0449 25.685 38.0449 25.685C38.0449 25.685 37.5199 25.6617 37.4616 25.6267C37.3916 25.5917 37.3449 25.4867 37.2283 25.51C37.1116 25.5333 36.9949 25.6267 36.9949 25.6267C36.9949 25.6267 37.1349 25.4167 37.2166 25.4167C37.2983 25.4167 37.3449 25.4167 37.4266 25.4633L37.5666 25.545ZM39.2116 25.7317C39.2116 25.7317 39.3283 25.51 39.4916 25.4983C39.6083 25.475 39.7716 25.615 39.7716 25.615C39.7716 25.615 39.5616 25.5683 39.4799 25.5917C39.4099 25.615 39.3749 25.7083 39.3749 25.7083C39.3749 25.7083 39.4333 25.6383 39.6083 25.6733L39.7949 25.72C39.7949 25.72 39.5033 25.6967 39.4216 25.7667C39.3399 25.8367 39.6666 25.93 39.6666 25.93C39.6666 25.93 39.1533 25.8367 39.0833 25.8017C39.0366 25.755 39.0016 25.6383 38.8849 25.65C38.7683 25.6617 38.6283 25.7433 38.6283 25.7433C38.6283 25.7433 38.8033 25.5567 38.8849 25.5683C38.9666 25.5683 39.0133 25.58 39.0833 25.6267L39.2116 25.7317ZM40.8449 26.0233C40.8449 26.0233 40.9616 25.86 41.0899 25.8483C41.1949 25.8483 41.3116 25.9767 41.3116 25.9767C41.3116 25.9767 41.1366 25.9183 41.0783 25.93C41.0199 25.9417 40.9849 26.0233 40.9849 26.0233C40.9849 26.0233 41.0433 25.965 41.1716 26.0117L41.3233 26.0583C41.3233 26.0583 41.0899 26.0117 41.0199 26.0583C40.9499 26.1167 41.2066 26.2217 41.2066 26.2217C41.2066 26.2217 40.7983 26.105 40.7399 26.07C40.7049 26.035 40.6933 25.9417 40.5999 25.9417C40.4949 25.9417 40.3783 26 40.3783 26C40.3783 26 40.5299 25.8483 40.5999 25.8717C40.6583 25.8717 40.7049 25.895 40.7516 25.93L40.8566 26.0233H40.8449Z" fill="black"/>
<path d="M35.5833 24.5067C35.6299 24.705 35.3966 24.915 35.0699 24.9734C34.7433 25.0434 34.4516 24.9384 34.4166 24.74C34.3816 24.5534 34.6033 24.3434 34.9299 24.2734C35.2566 24.2034 35.5483 24.3084 35.5833 24.5067Z" fill="#0F6545" stroke="black" stroke-width="0.0816667" stroke-linejoin="round"/>
<path d="M34.8599 24.4717C34.8599 24.5183 34.8132 24.5767 34.7432 24.5883C34.6732 24.6 34.6032 24.5767 34.5916 24.53C34.5916 24.4833 34.6382 24.4367 34.7082 24.4133C34.7782 24.4133 34.8482 24.425 34.8599 24.4717Z" fill="#CECFC1"/>
<path d="M40.1449 24.7517C40.0866 24.9383 39.7949 25.0083 39.4682 24.915C39.1532 24.81 38.9549 24.5767 39.0016 24.39C39.0716 24.2033 39.3749 24.1217 39.6899 24.2267C40.0049 24.32 40.2149 24.5533 40.1566 24.74L40.1449 24.7517Z" fill="#0F6545" stroke="black" stroke-width="0.0816667" stroke-linejoin="round"/>
<path d="M39.5266 24.3667C39.5032 24.4133 39.4449 24.4367 39.3749 24.4133C39.3049 24.39 39.2582 24.3317 39.2699 24.2967C39.2816 24.2383 39.3516 24.2267 39.4216 24.2383C39.4916 24.2617 39.5382 24.32 39.5266 24.355V24.3667Z" fill="#CECFC1"/>
<path d="M36.7032 24.075H37.8816V24.6583H36.7032V24.075Z" fill="#1F2D86" stroke="black" stroke-width="0.116667" stroke-linejoin="round"/>
<path d="M37.2049 24.1917C37.2049 24.2267 37.1583 24.25 37.0883 24.25C37.0183 24.25 36.9716 24.2267 36.9716 24.1917C36.9716 24.1684 37.0299 24.145 37.0883 24.145C37.1466 24.145 37.2049 24.1684 37.2049 24.1917Z" fill="#707C8B"/>
<path fill-rule="evenodd" clip-rule="evenodd" d="M33.3666 24.6583L33.5533 25.2417L33.2033 25.44C33.2033 25.44 33.0283 25.5567 32.8533 25.4633C32.6899 25.3817 32.5966 25.1133 32.6899 24.9967C32.8649 24.7867 33.3549 24.6467 33.3549 24.6583H33.3666Z" fill="#9F1209" stroke="black" stroke-width="0.0583333"/>
<path d="M33.0632 25.0783C33.0632 25.1717 32.9816 25.2533 32.8882 25.2533C32.7949 25.2533 32.7249 25.1717 32.7249 25.0783C32.7249 24.9733 32.7949 24.9033 32.8882 24.9033C32.9816 24.9033 33.0632 24.9733 33.0632 25.0783Z" fill="#8F322F"/>
<path d="M32.8999 25.0083C32.9028 25.0228 32.9021 25.0378 32.8981 25.052C32.894 25.0662 32.8867 25.0792 32.8766 25.09C32.8683 25.0966 32.858 25.1002 32.8474 25.1002C32.8368 25.1002 32.8265 25.0966 32.8183 25.09C32.8069 25.084 32.7969 25.0757 32.7888 25.0657C32.7808 25.0556 32.7749 25.0441 32.7716 25.0316C32.7687 25.0172 32.7694 25.0022 32.7734 24.988C32.7775 24.9738 32.7849 24.9608 32.7949 24.95C32.8018 24.9416 32.8113 24.9358 32.822 24.9336C32.8326 24.9315 32.8437 24.9332 32.8533 24.9383C32.8766 24.9383 32.8999 24.9733 32.8999 25.0083Z" fill="#E2A494"/>
<path fill-rule="evenodd" clip-rule="evenodd" d="M41.2883 24.74L41.0899 25.2533L41.5566 25.4867C41.5566 25.4867 41.7549 25.58 41.8833 25.475C41.9999 25.3817 42.0233 25.1483 41.9299 25.0433C41.8483 24.9267 41.2766 24.74 41.2883 24.74Z" fill="#9F1209" stroke="black" stroke-width="0.0583333"/>
<path d="M41.8366 25.1483C41.8366 25.2183 41.7666 25.265 41.6849 25.265C41.6033 25.265 41.5449 25.2183 41.5449 25.1483C41.5449 25.0783 41.6149 25.0317 41.6849 25.0317C41.7666 25.0317 41.8366 25.09 41.8366 25.1483Z" fill="#AA675D"/>
<path d="M41.6966 25.125C41.6966 25.16 41.6849 25.195 41.6616 25.2067C41.6515 25.2142 41.6392 25.2183 41.6266 25.2183C41.614 25.2183 41.6017 25.2142 41.5916 25.2067C41.581 25.1982 41.5724 25.1876 41.5664 25.1755C41.5604 25.1634 41.557 25.1502 41.5566 25.1367C41.5566 25.1017 41.5683 25.0783 41.5916 25.0667C41.6017 25.0591 41.614 25.055 41.6266 25.055C41.6392 25.055 41.6515 25.0591 41.6616 25.0667C41.6849 25.0667 41.6966 25.1017 41.6966 25.1367V25.125Z" fill="#E2A494"/>
<path d="M38.3366 24.1216C38.3367 24.1334 38.3343 24.1451 38.3295 24.1558C38.3246 24.1666 38.3176 24.1762 38.3087 24.1839C38.2998 24.1917 38.2894 24.1975 38.2781 24.2008C38.2668 24.2041 38.2549 24.205 38.2432 24.2033C38.2216 24.2033 38.2008 24.1947 38.1855 24.1794C38.1702 24.1641 38.1616 24.1433 38.1616 24.1216C38.1616 24.1 38.1702 24.0792 38.1855 24.0639C38.2008 24.0486 38.2216 24.04 38.2432 24.04C38.2899 24.04 38.3366 24.075 38.3366 24.1216ZM38.8382 24.145C38.8382 24.1557 38.8361 24.1663 38.832 24.1762C38.8279 24.1861 38.8219 24.1951 38.8143 24.2027C38.8067 24.2103 38.7977 24.2163 38.7878 24.2204C38.7779 24.2245 38.7673 24.2266 38.7566 24.2266C38.7449 24.2283 38.733 24.2275 38.7217 24.2241C38.7104 24.2208 38.7 24.215 38.6911 24.2073C38.6823 24.1995 38.6752 24.1899 38.6704 24.1792C38.6656 24.1684 38.6631 24.1568 38.6632 24.145C38.6647 24.1342 38.6682 24.1238 38.6737 24.1145C38.6792 24.1051 38.6865 24.0969 38.6952 24.0904C38.7039 24.0839 38.7138 24.0791 38.7243 24.0765C38.7349 24.0738 38.7458 24.0733 38.7566 24.075C38.7916 24.075 38.8382 24.0983 38.8382 24.145ZM38.5816 24.3433C38.5816 24.4016 38.5349 24.4483 38.4649 24.4483C38.3949 24.4483 38.3716 24.4016 38.3716 24.3433C38.3716 24.285 38.4182 24.2383 38.4766 24.2383C38.5349 24.2383 38.5816 24.285 38.5816 24.355V24.3433ZM38.8149 24.67C38.8151 24.6898 38.8081 24.7089 38.7953 24.724C38.7824 24.739 38.7645 24.7488 38.7449 24.7516C38.7333 24.7533 38.7214 24.7525 38.7101 24.7491C38.6988 24.7458 38.6883 24.74 38.6795 24.7323C38.6706 24.7245 38.6635 24.7149 38.6587 24.7042C38.6539 24.6934 38.6515 24.6818 38.6516 24.67C38.6516 24.6483 38.6602 24.6275 38.6755 24.6122C38.6908 24.5969 38.7116 24.5883 38.7332 24.5883C38.7916 24.5883 38.8266 24.6233 38.8266 24.67H38.8149ZM38.3366 24.6116C38.3366 24.6333 38.328 24.6541 38.3127 24.6694C38.2973 24.6847 38.2766 24.6933 38.2549 24.6933C38.2333 24.6933 38.2125 24.6847 38.1972 24.6694C38.1819 24.6541 38.1732 24.6333 38.1732 24.6116C38.1732 24.59 38.1819 24.5692 38.1972 24.5539C38.2125 24.5386 38.2333 24.53 38.2549 24.53C38.3016 24.53 38.3366 24.565 38.3366 24.6116ZM35.8982 24.2033C35.9019 24.2233 35.898 24.244 35.8872 24.2613C35.8764 24.2785 35.8595 24.2912 35.8399 24.2966C35.8292 24.3002 35.8179 24.3015 35.8066 24.3004C35.7954 24.2994 35.7845 24.296 35.7746 24.2905C35.7648 24.285 35.7561 24.2775 35.7493 24.2686C35.7425 24.2596 35.7376 24.2493 35.7349 24.2383C35.7333 24.2276 35.7338 24.2166 35.7364 24.2061C35.7391 24.1955 35.7438 24.1856 35.7503 24.1769C35.7568 24.1682 35.765 24.1609 35.7744 24.1555C35.7838 24.15 35.7941 24.1464 35.8049 24.145C35.8249 24.1413 35.8456 24.1453 35.8629 24.1561C35.8801 24.1669 35.8928 24.1837 35.8982 24.2033ZM36.3999 24.1216C36.4016 24.1324 36.401 24.1433 36.3984 24.1539C36.3958 24.1644 36.391 24.1743 36.3845 24.183C36.378 24.1917 36.3698 24.199 36.3604 24.2045C36.3511 24.21 36.3407 24.2136 36.3299 24.215C36.3099 24.2186 36.2892 24.2147 36.2719 24.2039C36.2547 24.1931 36.2421 24.1763 36.2366 24.1566C36.2329 24.1366 36.2369 24.1159 36.2477 24.0987C36.2585 24.0814 36.2753 24.0688 36.2949 24.0633C36.3056 24.0598 36.317 24.0585 36.3282 24.0595C36.3394 24.0606 36.3503 24.064 36.3602 24.0695C36.3701 24.0749 36.3787 24.0824 36.3855 24.0914C36.3924 24.1004 36.3973 24.1107 36.3999 24.1216ZM36.1899 24.3666C36.2016 24.425 36.1666 24.4833 36.1199 24.4833C36.0936 24.4906 36.0655 24.4874 36.0416 24.4743C36.0176 24.4612 35.9997 24.4394 35.9916 24.4133C35.9799 24.3666 36.0149 24.2966 36.0732 24.2966C36.0978 24.2926 36.1231 24.2974 36.1445 24.3102C36.1658 24.323 36.1819 24.343 36.1899 24.3666ZM36.5049 24.635C36.5086 24.655 36.5046 24.6757 36.4938 24.6929C36.483 24.7102 36.4662 24.7228 36.4466 24.7283C36.4359 24.7319 36.4245 24.7331 36.4133 24.7321C36.4021 24.731 36.3912 24.7276 36.3813 24.7222C36.3714 24.7167 36.3628 24.7092 36.356 24.7002C36.3491 24.6912 36.3442 24.6809 36.3416 24.67C36.3379 24.65 36.3419 24.6293 36.3527 24.612C36.3635 24.5947 36.3803 24.5821 36.3999 24.5766C36.4106 24.5731 36.422 24.5718 36.4332 24.5729C36.4444 24.5739 36.4553 24.5773 36.4652 24.5828C36.4751 24.5883 36.4837 24.5957 36.4905 24.6047C36.4974 24.6137 36.5023 24.624 36.5049 24.635ZM36.0149 24.6816C36.0186 24.7017 36.0146 24.7223 36.0038 24.7396C35.993 24.7569 35.9762 24.7695 35.9566 24.775C35.9459 24.7785 35.9345 24.7798 35.9233 24.7787C35.9121 24.7777 35.9012 24.7743 35.8913 24.7688C35.8814 24.7633 35.8728 24.7559 35.866 24.7469C35.8591 24.7379 35.8542 24.7276 35.8516 24.7166C35.8499 24.7059 35.8504 24.6949 35.8531 24.6844C35.8557 24.6739 35.8605 24.664 35.867 24.6553C35.8735 24.6466 35.8817 24.6393 35.8911 24.6338C35.9004 24.6283 35.9108 24.6247 35.9216 24.6233C35.9416 24.6196 35.9623 24.6236 35.9796 24.6344C35.9968 24.6452 36.0094 24.662 36.0149 24.6816ZM33.7749 24.6583C33.7806 24.6689 33.784 24.6805 33.7847 24.6925C33.7854 24.7045 33.7834 24.7165 33.779 24.7276C33.7745 24.7387 33.7677 24.7488 33.7589 24.7569C33.7501 24.7651 33.7397 24.7713 33.7282 24.775C33.7081 24.7826 33.6858 24.782 33.6662 24.7732C33.6465 24.7645 33.6311 24.7484 33.6232 24.7283C33.6175 24.7178 33.6142 24.7061 33.6135 24.6941C33.6128 24.6821 33.6147 24.6702 33.6192 24.659C33.6237 24.6479 33.6305 24.6379 33.6393 24.6297C33.648 24.6215 33.6585 24.6153 33.6699 24.6116C33.6805 24.6059 33.6921 24.6026 33.7041 24.6019C33.7161 24.6012 33.7281 24.6031 33.7392 24.6076C33.7503 24.6121 33.7604 24.6189 33.7685 24.6277C33.7767 24.6364 33.7829 24.6469 33.7866 24.6583H33.7749ZM34.2532 24.5066C34.259 24.5172 34.2623 24.5289 34.263 24.5408C34.2637 24.5528 34.2618 24.5648 34.2573 24.5759C34.2528 24.5871 34.246 24.5971 34.2372 24.6053C34.2285 24.6135 34.218 24.6196 34.2066 24.6233C34.1959 24.6269 34.1845 24.6281 34.1733 24.6271C34.1621 24.626 34.1512 24.6226 34.1413 24.6172C34.1314 24.6117 34.1228 24.6042 34.116 24.5952C34.1091 24.5862 34.1042 24.5759 34.1016 24.565C34.094 24.5449 34.0946 24.5225 34.1033 24.5029C34.1121 24.4832 34.1282 24.4678 34.1482 24.46C34.1588 24.4543 34.1705 24.4509 34.1824 24.4502C34.1944 24.4495 34.2064 24.4515 34.2175 24.4559C34.2287 24.4604 34.2387 24.4672 34.2469 24.476C34.2551 24.4848 34.2612 24.4952 34.2649 24.5066H34.2532ZM34.0899 24.7866C34.0948 24.8098 34.0916 24.834 34.0811 24.8551C34.0705 24.8763 34.053 24.8933 34.0316 24.9033C34.0081 24.9121 33.9823 24.9122 33.9588 24.9037C33.9353 24.8951 33.9156 24.8784 33.9032 24.8566C33.8953 24.8318 33.8969 24.805 33.9077 24.7812C33.9185 24.7575 33.9377 24.7387 33.9616 24.7283C33.9864 24.7204 34.0133 24.722 34.037 24.7327C34.0607 24.7435 34.0796 24.7627 34.0899 24.7866ZM34.4399 24.9966C34.4456 25.0072 34.449 25.0189 34.4497 25.0308C34.4504 25.0428 34.4484 25.0548 34.444 25.0659C34.4395 25.0771 34.4327 25.0871 34.4239 25.0953C34.4151 25.1035 34.4047 25.1096 34.3932 25.1133C34.3466 25.1133 34.2999 25.1016 34.2766 25.055C34.2532 25.0083 34.2882 24.9733 34.3349 24.95C34.355 24.9424 34.3773 24.943 34.397 24.9517C34.4167 24.9605 34.4321 24.9766 34.4399 24.9966ZM33.9616 25.1133C33.9673 25.1239 33.9706 25.1355 33.9713 25.1475C33.972 25.1595 33.9701 25.1715 33.9656 25.1826C33.9612 25.1937 33.9543 25.2038 33.9456 25.2119C33.9368 25.2201 33.9263 25.2263 33.9149 25.23C33.9044 25.2357 33.8927 25.239 33.8807 25.2397C33.8687 25.2404 33.8568 25.2385 33.8456 25.234C33.8345 25.2296 33.8245 25.2227 33.8163 25.214C33.8081 25.2052 33.8019 25.1947 33.7982 25.1833C33.7926 25.172 33.7897 25.1595 33.7897 25.1469C33.7897 25.1342 33.7927 25.1217 33.7983 25.1104C33.804 25.0991 33.8122 25.0893 33.8223 25.0817C33.8324 25.0741 33.8441 25.0689 33.8566 25.0666C33.8671 25.0609 33.8788 25.0576 33.8908 25.0569C33.9027 25.0562 33.9147 25.0581 33.9259 25.0626C33.937 25.0671 33.947 25.0739 33.9552 25.0827C33.9634 25.0914 33.9696 25.1019 33.9732 25.1133H33.9616ZM40.5182 24.4366C40.5066 24.4833 40.4599 24.5066 40.4016 24.495C40.3785 24.487 40.3596 24.4703 40.3487 24.4485C40.3377 24.4267 40.3358 24.4015 40.3432 24.3783C40.3432 24.3433 40.4016 24.32 40.4599 24.3316C40.4949 24.3316 40.5299 24.39 40.5182 24.4366ZM41.0316 24.5883C41.0316 24.635 40.9732 24.67 40.9266 24.6583C40.9141 24.6556 40.9024 24.6504 40.892 24.643C40.8816 24.6355 40.8729 24.6261 40.8663 24.6151C40.8598 24.6042 40.8555 24.592 40.8539 24.5794C40.8522 24.5668 40.8531 24.5539 40.8566 24.5416C40.8682 24.5066 40.9149 24.4716 40.9732 24.4833C41.0199 24.495 41.0432 24.5416 41.0316 24.6V24.5883ZM40.7166 24.7283C40.7085 24.755 40.6911 24.778 40.6676 24.7929C40.644 24.8079 40.6159 24.814 40.5882 24.81C40.5594 24.8043 40.5337 24.7879 40.5164 24.7641C40.4991 24.7403 40.4914 24.7109 40.4949 24.6816C40.5031 24.6525 40.5223 24.6278 40.5484 24.6125C40.5745 24.5973 40.6055 24.5928 40.6349 24.6C40.6932 24.6116 40.7282 24.67 40.7166 24.7283ZM40.8916 25.1366C40.8799 25.1833 40.8332 25.2066 40.7749 25.195C40.7544 25.1871 40.7373 25.1723 40.7266 25.1531C40.7159 25.1339 40.7124 25.1115 40.7166 25.09C40.7166 25.0433 40.7749 25.02 40.8216 25.0316C40.8682 25.0433 40.9032 25.09 40.8916 25.1483V25.1366ZM40.3899 24.95C40.3899 24.9966 40.3316 25.02 40.2849 25.0083C40.2644 25.0005 40.2473 24.9856 40.2366 24.9664C40.2259 24.9472 40.2224 24.9249 40.2266 24.9033C40.2266 24.8566 40.2849 24.8333 40.3316 24.845C40.3782 24.845 40.4016 24.9033 40.3899 24.95Z" fill="#F5D8BC"/>
<path d="M41.5333 19.7583C41.5333 19.7583 41.2999 19.98 41.0083 19.98C40.8128 19.984 40.6224 19.9178 40.4716 19.7933C40.3783 19.735 40.4949 19.56 40.4949 19.56" stroke="black" stroke-width="0.14"/>
<path d="M36.5049 20.2017C36.5049 20.2017 36.0733 20.12 35.8866 20.0617C35.7116 20.0033 35.7583 19.8867 35.5366 19.8983C35.3383 19.91 35.1282 20.0617 35.1749 20.2717C35.2216 20.4817 35.3732 20.505 35.5249 20.47C35.6649 20.4233 35.6183 20.1667 35.4316 20.19C35.2333 20.19 35.3966 20.365 35.3966 20.365" stroke="black" stroke-width="0.128333"/>
<path d="M33.5182 19.875C33.5182 19.875 33.6349 20.05 33.9499 20.015C34.2649 19.9917 34.3816 19.8283 34.3932 19.7467C34.4166 19.6767 34.3932 19.5367 34.3349 19.4783C34.2766 19.42 34.0666 19.3967 34.0666 19.3967" stroke="black" stroke-width="0.116667"/>
<path d="M39.5733 40.9217C39.8649 40.63 40.3316 40.315 40.5882 39.6383C40.8216 38.985 40.9382 37.8067 41.1716 37.2117C41.4632 36.185 42.0466 35.1817 41.3466 35.2517C40.6816 35.3217 40.4716 35.9517 40.2266 36.4183C40.1099 36.5933 39.8416 36.9667 39.7949 37.1767C39.7833 36.8267 39.5966 35.7883 39.5616 34.75C39.5266 33.77 39.5616 32.7667 39.5266 32.3817C39.5032 31.88 39.5033 31.4133 39.3866 31.0517C39.3283 30.8767 39.0832 30.7017 38.9432 30.7133C38.6866 30.7133 38.5232 30.9467 38.4766 31.1683L38.4533 31.495C38.4299 31.775 38.4532 32.1367 38.4299 32.4633C38.4182 32.8133 38.4532 33.1867 38.4299 33.5133C38.4066 34.1433 38.3599 34.7383 38.3366 34.855C38.3366 34.6217 38.2199 33.49 38.1849 32.4167L38.1616 31.25C38.1616 30.9467 38.1616 30.62 38.1382 30.3867C38.0799 29.99 37.9516 29.8033 37.6716 29.8033C37.4616 29.8033 37.1816 29.955 37.0882 30.3867C37.0532 30.6317 37.0416 30.9233 37.0533 31.25L37.0766 32.1833C37.0532 33.4083 37.0299 34.6917 36.9832 35.0767C36.9832 34.96 36.8549 34.3183 36.8199 33.455L36.7733 32.335L36.7382 31.215C36.7382 31.0283 36.6566 30.4917 36.3066 30.515C36.1083 30.4917 35.9099 30.6317 35.8399 31.1333C35.7933 31.425 35.7933 31.9033 35.7816 32.2883C35.7699 32.9883 35.7349 33.6183 35.7816 34.26L35.7932 35.1583C35.7932 35.205 35.6882 34.82 35.6416 34.295L35.5483 33.2917C35.5483 33.0233 35.5366 32.6267 35.5132 32.3C35.4899 32.055 35.5016 31.775 35.2216 31.7983C34.9416 31.81 34.7783 31.915 34.7199 32.3817C34.6733 32.6967 34.6733 33.3733 34.6616 33.6067C34.6849 34.225 34.5216 35.6717 34.4516 36.08C34.4282 36.3717 34.3116 36.745 34.2649 37.1533C34.1849 37.9558 34.2242 38.7657 34.3816 39.5567C34.6149 40.3733 35.1982 40.7467 35.1749 41.3067C35.1399 41.8667 35.1749 42.8583 35.1749 43.29C35.1749 43.7333 35.5599 43.7567 36.3416 43.5933C37.6482 43.3133 38.3599 43.8733 39.4216 43.4533C39.2932 42.24 39.5499 41.505 39.5382 41.0617L39.5733 40.9217ZM38.8149 38.04C39.0833 37.2933 39.4216 37.0017 39.7483 36.85L38.8149 38.04Z" fill="#CC0000"/>
<path d="M38.8149 38.04C39.0833 37.2933 39.4216 37.0017 39.7483 36.85M39.5733 40.9217C39.8649 40.63 40.3316 40.315 40.5882 39.6383C40.8216 38.985 40.9382 37.8067 41.1716 37.2117C41.4632 36.185 42.0466 35.1817 41.3466 35.2517C40.6816 35.3217 40.4716 35.9517 40.2266 36.4183C40.1099 36.5933 39.8416 36.9667 39.7949 37.1767C39.7833 36.8267 39.5966 35.7883 39.5616 34.75C39.5266 33.77 39.5616 32.7667 39.5266 32.3817C39.5032 31.88 39.5033 31.4133 39.3866 31.0517C39.3283 30.8767 39.0832 30.7017 38.9432 30.7133C38.6866 30.7133 38.5232 30.9467 38.4766 31.1683L38.4533 31.495C38.4299 31.775 38.4532 32.1367 38.4299 32.4633C38.4182 32.8133 38.4532 33.1867 38.4299 33.5133C38.4066 34.1433 38.3599 34.7383 38.3366 34.855C38.3366 34.6217 38.2199 33.49 38.1849 32.4167L38.1616 31.25C38.1616 30.9467 38.1616 30.62 38.1382 30.3867C38.0799 29.99 37.9516 29.8033 37.6716 29.8033C37.4616 29.8033 37.1816 29.955 37.0882 30.3867C37.0532 30.6317 37.0416 30.9233 37.0533 31.25L37.0766 32.1833C37.0532 33.4083 37.0299 34.6917 36.9832 35.0767C36.9832 34.96 36.8549 34.3183 36.8199 33.455L36.7733 32.335L36.7382 31.215C36.7382 31.0283 36.6566 30.4917 36.3066 30.515C36.1083 30.4917 35.9099 30.6317 35.8399 31.1333C35.7933 31.425 35.7933 31.9033 35.7816 32.2883C35.7699 32.9883 35.7349 33.6183 35.7816 34.26L35.7932 35.1583C35.7932 35.205 35.6882 34.82 35.6416 34.295L35.5483 33.2917C35.5483 33.0233 35.5366 32.6267 35.5132 32.3C35.4899 32.055 35.5016 31.775 35.2216 31.7983C34.9416 31.81 34.7783 31.915 34.7199 32.3817C34.6733 32.6967 34.6733 33.3733 34.6616 33.6067C34.6849 34.225 34.5216 35.6717 34.4516 36.08C34.4282 36.3717 34.3116 36.745 34.2649 37.1533C34.1849 37.9558 34.2242 38.7657 34.3816 39.5567C34.6149 40.3733 35.1982 40.7467 35.1749 41.3067C35.1399 41.8667 35.1749 42.8583 35.1749 43.29C35.1749 43.7333 35.5599 43.7567 36.3416 43.5933C37.6482 43.3133 38.3599 43.8733 39.4216 43.4533C39.2932 42.24 39.5499 41.505 39.5382 41.0617L39.5733 40.9217Z" stroke="#161111" stroke-width="0.186667"/>
<path d="M35.8633 37.2817C36.2716 37.1183 36.68 37.0017 37.1 36.8617C37.6016 36.7217 38.0916 36.5117 38.6166 36.4417C38.85 36.3833 39.1066 36.325 39.3633 36.325M35.1516 41.225C35.1983 41.19 35.2683 41.2483 35.315 41.26C35.385 41.2833 35.4666 41.3067 35.5483 41.295C35.7038 41.2921 35.8594 41.2921 36.015 41.295C36.2133 41.295 36.365 41.2717 36.5166 41.1783M37.6833 41.2483L37.87 41.3533C37.9633 41.3883 38.08 41.4 38.7216 41.3533C39.13 41.3767 39.48 41.0267 39.585 40.9333" stroke="#161111" stroke-width="0.186667"/>
</g>
<defs>
<clipPath id="clip0_1_28756">
<rect width="74.6667" height="56" fill="white" transform="translate(0 9.375)"/>
</clipPath>
</defs>
</svg>
