<svg width="75" height="75" viewBox="0 0 75 75" fill="none" xmlns="http://www.w3.org/2000/svg">
<rect width="74.6667" height="74.75" fill="white"/>
<g clip-path="url(#clip0_1_28760)">
<path d="M0 37.375H74.6667V65.375H0V37.375Z" fill="#00AB39"/>
<path d="M0 9.375H74.6667V37.375H0V9.375Z" fill="white"/>
<path d="M48.8833 17.635H48.8717H48.8833ZM48.8717 17.635C44.2505 20.122 39.8822 23.0524 35.8283 26.385C33.845 28.1233 34.405 29.5 34.3233 31.0517C34.3933 32.1017 34.1017 33.0817 33.46 33.665L29.05 34.5517L28.63 33.3383C28.7583 32.7083 29.2717 32.405 30.3683 32.79C30.45 31.9967 29.7967 31.67 29.05 31.39C28.7817 31.18 28.4667 31.04 28.5017 30.34C28.385 28.765 30.905 30.4567 30.9283 30.4567C30.9517 30.4567 30.835 28.8583 29.68 28.5433C29.05 28.3217 28.7817 27.6567 29.0267 27.1667C29.5283 26.1517 30.485 27.2367 31.2083 27.2833C31.185 26.6183 30.9983 26.1517 30.4267 25.6267C30.1233 25.4283 29.3767 25.2883 29.3533 24.9733C29.3417 24.5533 30.0533 24.3667 31.045 24.4833C30.835 23.8883 30.17 23.5033 29.26 23.2233L28.7233 22.2783C28.4667 21.8117 28.35 21.7883 28.945 20.9017C29.47 20.5517 30.1817 20.0617 30.7183 19.7233L30.135 19.6533C30.205 19.0117 30.2167 18.79 30.3683 17.7283C29.785 18.51 29.085 18.37 28.4317 18.685C28.4317 18.685 26.6117 19.0117 26.0167 19.7933L21.42 19.56C20.44 19.6883 19.6117 19.9683 19.4483 20.9133C17.22 21.1467 14.8867 20.9483 13.1833 23.0717C14.35 23.025 15.3533 22.745 16.66 22.9083C16.66 22.9083 17.7683 22.9317 17.99 24.11C18.0133 24.1567 18.375 24.1567 18.375 24.1567L18.795 24.4833L18.9583 24.04L19.3317 24.2967L19.4483 23.8067L19.8217 24.0633L19.845 23.48L20.335 23.83V23.0483C20.335 23.0483 22.155 23.0483 22.715 24.215C22.7383 24.2267 17.6167 25.1483 12.67 24.7167L14.0933 24.0167C12.2967 23.6433 10.5933 23.3167 9.00667 22.0683C9.60167 24.3317 12.705 26.98 13.3467 26.9683L12.74 25.8717L18.1067 26.105C18.305 26.7 18.2233 27.365 18.69 27.89C18.69 27.89 18.3983 28.87 19.0633 29.2667C19.0867 29.3133 19.845 27.2833 19.845 27.2833C19.845 27.2833 20.0783 27.8317 20.3117 28.1933C20.6617 26.4433 22.575 26.1517 22.575 26.1517L22.9717 27.085C22.3767 27.1783 21.63 28.3917 22.0383 29.0683C21.63 29.0683 20.9183 30.2467 21.14 30.8883C20.8017 31.2267 19.9733 31.67 20.1717 33.0817C19.5183 33.2217 19.1217 34.4233 19.3317 35.7067C18.305 36.6517 18.5617 38.39 19.4717 39.1017C19.0983 39.4517 18.865 39.6967 18.865 40.1167C18.5033 39.9883 18.165 40.0933 18.0133 40.3267C17.57 39.8717 16.94 39.4867 16.4967 39.9067C16.38 39.37 15.68 38.7867 14.9217 38.8567C14.9528 38.5208 14.8647 38.1846 14.6727 37.9073C14.4806 37.6299 14.197 37.4291 13.8717 37.34C13.8717 37.34 13.6967 34.7033 12.9033 33.84C12.8217 33.3733 12.95 33.0467 13.6033 32.65C14.2683 32.3 14.4083 32.0317 14.35 31.0283C14.6183 30.3633 14.8167 29.6867 14 29.2317C14.0233 30.025 13.79 30.3983 13.4633 30.7483C13.0783 30.7017 12.95 31.145 12.6933 31.3317C12.3317 30.8533 13.4517 30.095 12.6233 29.01C12.5767 28.9633 12.04 27.61 10.7217 27.6333C11.34 27.995 11.6083 28.6133 11.6083 29.255C11.1221 30.3303 11.0474 31.5466 11.3983 32.6733C10.85 31.8567 10.535 30.2933 10.08 30.025C9.68334 29.9433 9.49667 29.01 7.945 29.2783C8.61 29.4533 8.83167 29.9667 8.995 30.4217C8.59834 30.6317 8.79667 31.1917 9.1 31.5767C9.04167 32.475 9.57834 33 10.3833 33.3267L9.98667 37.025C9.67167 36.99 9.17 38.2383 8.98334 38.2733C8.66834 38.4717 8.12 38.9967 8.75 39.1483C8.56334 39.8133 8.38834 40.2217 7.385 40.3617C7.385 40.3617 8.435 40.9917 9.32167 39.9183C10.255 39.895 9.95167 38.775 10.4067 38.285C10.4067 38.25 10.675 38.0867 11.0483 37.095C11.2117 37.9817 12.1217 40.6883 14.1633 42.03C15.9483 43.9433 17.43 45.7517 17.4067 48.295C18.0921 47.5413 18.5845 46.6325 18.8417 45.6467C20.0056 45.2975 21.2219 45.1553 22.435 45.2267C22.225 45.6817 21.98 46.1133 22.2833 46.3933C21.42 46.6967 21.2333 47.3267 21.5833 47.945C20.6733 48.5633 20.615 48.96 20.6033 49.9867C18.9117 52.145 17.8733 52.075 16.205 51.5033C15.6683 51.1883 14.805 50.7333 14.42 50.9783C13.7083 50.4883 12.67 50.4183 12.495 51.515C13.0433 51.06 13.3583 51.1533 13.79 51.585C13.7083 51.8067 13.6383 52.0167 13.9533 52.145L13.5333 52.6117C12.7633 52.495 11.7133 52.495 11.445 53.6267C11.8417 53.2883 12.7283 53.2183 13.4283 53.5333L13.8367 53.6733L13.8833 54.21C13.8833 54.21 12.8333 54.0467 12.5533 55.7617C13.5333 54.7117 14.2333 54.98 14.2333 54.98C14.6183 55.54 16.0183 55.4583 17.0333 54.5367C18.445 53.7433 18.865 54.8867 19.775 54.14C20.5333 53.58 21.4317 53.9534 22.05 54.6067C22.7617 54.875 23.5083 55.0967 24.0917 54.6067C24.0917 54.6067 24.815 54.1517 25.5267 54.8867C25.5267 54.07 24.9433 53.615 24.15 53.6033L23.9167 53.37C23.1583 53.2067 22.3183 53.2767 21.6533 52.9033C21.9112 51.7255 22.4792 50.638 23.2983 49.7533C24.3833 48.5867 25.1883 48.05 26.565 46.265C26.5067 47.28 27.2767 48.4 27.685 49.415C27.685 49.415 28.5017 48.12 28.6183 47.0467C28.6533 47.0467 29.6567 46.5333 30.0767 46.0783C30.9867 46.65 32.4567 45.635 33.4133 44.795C33.9967 45.0283 34.4517 45.005 35.1283 44.795C34.58 45.915 35.4433 46.9533 36.82 47.385C36.9367 48.365 37.94 48.575 39.445 48.575C39.515 49.1583 40.4133 49.24 40.4133 49.24C39.83 49.4967 39.55 49.765 39.5617 50.36C38.9783 50.36 38.5467 50.5117 38.395 51.1767C37.59 51.2 36.7733 51.2583 36.085 51.6433C35.35 51.5383 34.4517 51.235 33.88 50.64C33.5883 50.395 33.5067 50.0333 32.9933 49.8933C32.6667 49.5083 32.27 49.59 32.1417 49.9633C31.8033 49.695 30.5317 49.5783 30.31 50.78C30.9167 50.3483 31.4417 50.185 31.8267 50.7217C31.6167 51.0833 32.3167 51.305 32.9233 51.445C33.355 51.4683 34.1133 51.865 34.3467 52.5183C34.0195 52.6131 33.6755 52.635 33.3389 52.5826C33.0023 52.5302 32.6813 52.4047 32.3983 52.215C32.1884 52.04 31.9281 51.9365 31.6553 51.9197C31.3825 51.903 31.1115 51.9737 30.8817 52.1217C30.3683 51.795 29.1667 52.4133 29.12 53.3933C29.6217 52.9267 30.0883 52.6933 30.555 52.9967C30.3217 53.0433 30.4033 53.0667 30.4383 53.2067L31.605 53.8833C31.0217 54.035 30.485 54.2683 30.7417 55.3417C30.7417 55.3417 31.2083 54.4083 32.2583 54.7583C32.2817 54.7233 32.41 55.085 32.7133 54.84C33.1683 54.3267 34.2067 54.0933 35.1283 54C35.8633 53.9183 36.5983 53.6967 37.2283 54.1167C37.8117 53.825 38.4417 53.6267 39.095 54.0933C39.865 54.3267 40.425 55.2367 41.3933 54.8283C41.8833 54.4783 42.4783 54.4783 43.085 55.155C43.085 54.2917 42.4433 54 41.5333 53.8133L40.9033 53.44C40.32 53.3467 39.7367 53.4517 39.1417 53.1717C40.5367 52.8371 41.8507 52.2272 43.0067 51.3777C44.1627 50.5283 45.1373 49.4564 45.8733 48.225L47.3317 48.7383C47.6817 48.7617 47.705 48.8783 48.4167 49.0883C48.44 48.05 47.985 46.9767 46.1067 46.8717L43.6567 45.9383C43.12 45.3783 42.8867 44.2 43.5517 43.5117C44.205 42.9283 44.3217 42.9983 44.7533 42.2867C45.2783 42.24 45.7683 42.7767 46.2467 42.7767C46.48 43.465 47.81 44.06 48.65 43.8617C49.175 44.3283 50.1667 44.585 51.275 44.2117C51.5908 44.5063 51.9889 44.6977 52.4162 44.7602C52.8435 44.8227 53.2797 44.7535 53.6667 44.5617C53.9233 44.8183 54.46 45.0283 55.0667 44.8883C55.125 44.8883 55.3933 45.565 56.0583 45.81C55.7667 46.09 55.9417 47.3267 56.2567 47.7817C56.0311 48.2433 55.9934 48.7745 56.1517 49.2633C55.475 49.695 55.335 50.0217 55.6383 50.7567C54.7517 52.1917 53.69 52.355 52.6867 51.9233L51.6017 51.2233L50.4583 50.1033C50.26 49.9167 49.8517 49.87 49.77 50.2667C49.77 50.2667 48.3 49.94 48.1717 51.1883C48.79 50.5933 49.6533 51.1183 49.6533 51.1417C49.6533 51.165 49.4433 51.305 49.6067 51.5383C49.6417 51.5033 50.6917 51.9233 51.6133 52.32C52.115 52.5183 52.2317 52.5767 52.4533 52.6933C52.1748 52.5657 51.8948 52.4412 51.6133 52.32C51.2085 52.1333 50.7742 52.0189 50.33 51.9817C49.8167 51.935 49.2567 51.865 49 52.2617C48.44 52.495 47.5533 52.6933 47.6 53.7433C47.9733 53.1133 48.4983 53.1483 49.1633 53.2067L49.1167 53.3467C49.84 53.6733 49.7 53.2533 50.3767 53.195C50.9842 53.1858 51.5886 53.2846 52.1617 53.4867C51.6367 53.6383 50.9133 53.5683 50.575 53.9533C50.505 54.07 50.2833 54.0233 50.3883 54.3267C50.3883 54.3267 49.3383 54.3033 49.07 55.7267C50.12 55.0617 50.925 55.085 50.9367 55.085L51.275 55.155L52.5583 54.3033C52.5933 54.3033 53.795 53.7667 54.3433 54.3733C54.8333 54.6067 55.3467 54.63 55.86 54.3267C56.84 53.895 57.7617 53.86 58.66 54.4667L59.4883 54.9567L59.8383 54.7233C59.8383 54.7233 60.7717 54.4667 61.4483 55.295C61.1683 53.86 60.1417 53.8133 60.1417 53.8133L59.9083 53.6033L58.4617 53.0317C58.24 52.5067 57.715 52.0983 58.24 51.4683C58.7883 48.7733 59.43 46.755 58.38 44.025C59.36 44.445 60.095 45.7517 61.32 45.2967C61.32 44.2 57.2833 42.1117 54.2033 40.4433C59.2667 40.175 65.3333 36.4533 63 31.7167L64.0967 28.2867C64.6217 29.3367 65.6717 30.13 66.6167 30.4683C65.835 28.9867 65.3917 24.4483 65.835 21.3217C63.7712 23.7993 61.5458 26.1377 59.1733 28.3217C60.34 28.6017 61.3783 28.4033 62.51 28.2633L61.5533 30.2467C58.45 28.415 54.81 29.78 54.7867 32.2067C54.8917 35.03 58.38 35.4383 60.3983 34.4467C60.0017 37.025 54.075 36.08 54.075 36.08C51.975 35.3567 49.98 35.4733 47.775 35.4967C48.23 34.085 50.7733 32.825 52.7217 33.385C50.0033 30.3283 53.1067 26.5367 56.8517 25.3817C52.7683 24.0283 56.28 20.9133 59.3367 18.685C59.3367 18.685 50.5517 22.3833 49.7467 22.3717C47.25 22.185 47.9267 19.2217 48.8833 17.635H48.8717ZM21.2917 21.1817C21.5017 21.1817 21.735 21.205 21.9333 21.2517C22.33 21.3567 22.8083 21.4033 22.8083 21.5317C22.6217 21.835 22.1667 22.1967 21.7233 22.185C21.28 22.1617 21.0233 21.8933 20.8833 21.2283C20.93 21.205 21.0933 21.1817 21.2917 21.1817ZM58.275 31.6117C58.8583 31.6117 59.5467 31.845 60.2117 32.5683C59.8967 33.5017 57.085 33.9683 56.8983 32.5917C56.84 32.1717 57.435 31.6233 58.275 31.6117Z" fill="#D21034" stroke="black" stroke-width="0.163333"/>
<path d="M24.1967 29.3483L24.6283 29.9667M24.605 29.9783C24.605 29.9783 24.605 30.8183 24.78 30.83M24.395 31.285L24.8383 32.02M23.6133 32.2067C23.6367 32.2067 24.1617 32.8133 24.1617 32.8133M24.6167 32.3467C24.6167 32.37 25.1067 33.2917 25.1417 33.2917M23.975 32.9883C23.975 32.9883 24.1383 34.1083 24.29 34.0733M23.24 35.0417L23.73 35.8M24.1617 34.2483C24.1617 34.2483 24.43 35.31 24.64 35.2167M24.8617 33.6067C24.8733 33.63 25.3633 34.3183 25.4917 34.225M25.375 34.4933L25.8417 35.4267M24.605 35.2167L24.99 36.3133M23.7067 35.7767C23.7067 35.7767 24.0567 36.955 24.3717 36.7683M23.5783 37.3517C23.5783 37.3517 23.6017 37.97 23.905 38.005M24.115 37.0367C24.115 37.06 24.43 37.48 24.43 37.48M25.0133 36.3017L25.2583 36.71M25.83 35.5433L26.215 36.0217M24.0333 29.99C24.045 30.515 24.8733 29.8033 25.2 29.36M23.6833 31.81C23.6833 31.81 24.5817 31.1683 25.2817 30.2M23.38 33.3383C24.0217 33.1633 25.2 31.74 25.4333 30.9817M23.2517 34.75C23.4267 34.8317 25.62 33.2333 25.6783 32.0783M23.1933 35.975C23.1933 35.9633 25.2 35.4617 26.0283 33.2567M23.1 37.6433C23.1 37.6433 26.3083 35.7183 26.4833 34.3067M48.1133 40.875C48.1133 40.875 47.9033 42.5317 46.2467 42.7883M48.6383 43.8383C48.65 43.815 50.225 42.0883 49.8167 41.5633M52.2783 42.17C52.2783 42.17 52.255 43.3717 51.275 44.2M54.2383 42.52C54.2383 42.52 54.2733 43.9667 53.655 44.55M56.035 43.3833C56.035 43.3833 55.335 44.7483 55.09 44.8883M56.0117 45.7983C56.0117 45.7983 56.9217 46.0317 57.2133 45.425M56.245 47.77C56.245 47.77 57.085 47.9217 57.4817 47.1167M56.1517 49.2983C56.1517 49.2983 56.84 49.8817 57.3067 49.1117M46.34 38.0983C46.34 38.0983 46.2583 41.05 50.4 41.645C55.0317 42.9283 57.225 42.2517 57.4933 47.4433C57.3183 49.4267 57.0733 51.6433 55.6267 50.7917M41.93 40.8167C41.93 40.8167 42.595 41.995 43.3883 41.9133C44.4383 41.61 44.8233 42.2517 44.8233 42.2517M39.1067 41.995C39.1067 41.995 40.8567 42.8467 42.3383 41.47M39.305 40.77C39.4567 42.8117 36.96 43.9783 35.9683 43.78M39.4217 48.5633C39.4333 48.5633 40.775 47.77 40.5067 47.21M36.7617 47.385C36.7967 47.3383 39.0133 47.1283 39.4217 46.335M35.735 44.1183C35.735 44.1183 38.8733 44.1417 39.0833 44.7133M39.9 42.2633C39.9 42.2633 36.8433 47.5017 42.49 47.5017M36.6567 42.1933C36.6567 42.1933 36.0033 44.1417 35.07 44.8067M33.4133 41.5167C33.4133 41.5167 34.545 43.71 33.4133 44.795M30.45 42.135C30.4617 42.17 30.8117 45.25 30.0417 46.125M28.9683 42.2283C28.9683 42.2283 29.085 44.1883 28.5017 44.8883C27.9183 45.5883 28.6417 47.035 28.6417 47.035M21.5833 47.9683C21.5833 47.9683 22.0033 48.7033 22.575 48.4467M22.2833 46.37C22.2833 46.37 23.2167 46.7783 23.5317 46.6267M23.2983 43.08C23.2983 43.08 21.9217 43.465 22.4467 45.0983C23.24 45.74 24.01 45.635 24.01 45.635M20.58 49.9983C20.5683 49.9983 20.7433 51.2817 21.63 50.3133C22.2483 49.0067 24.1967 45.3433 24.6517 44.0833M25.5617 43.4883C25.5617 43.4883 24.6167 42.7533 24.6517 43.78C24.6283 44.4217 24.9433 44.5733 24.9433 44.5733C24.9783 45.04 25.3867 45.6933 25.7133 45.0983C25.8533 44.515 25.62 44.2583 25.62 44.2583M26.1683 43.2083C25.3167 43.1617 24.85 45.04 26.495 43.8617M27.055 42.5783C27.055 42.5783 26.845 42.87 26.5067 42.555C26.3317 42.2517 25.7133 43.955 26.7983 44.0133C26.9967 43.5117 27.5917 43.3717 27.5917 43.3717M28.105 41.7617C28.105 41.7617 27.615 41.995 27.44 41.96C26.8567 42.0883 26.9733 43.4533 27.7083 43.3717C27.965 43.08 28.2333 42.6717 28.2333 42.6717M23.5317 39.9883C23.5083 39.9883 21.6067 42.9867 24.5933 43.78M47.6933 35.4967C47.6933 35.4967 46.5267 36.4767 47.6117 38.0633C43.995 38.005 42.07 39.6733 41.9183 40.7933C37.3217 40.4667 38.1617 41.82 36.6683 42.2633C34.6733 40.595 31.745 41.5283 31.9317 43.1967C30.6017 41.3183 28.5483 42.2283 28.2917 42.695C28.0467 43.1617 28.14 40.385 28.14 40.385C28.14 40.385 26.7983 40.9917 25.8767 42.0883V39.7667C24.7567 40 23.6717 40 22.5167 39.9767M19.495 39.125C19.495 39.125 21.1633 40.0583 23.2283 38.7983M19.3667 35.7767C19.3667 35.7767 20.65 36.9433 23.1 36.57M20.1833 33.105C20.1833 33.105 20.4633 34.05 23.2517 34.1083M21.1167 30.9117C21.1167 30.9117 22.1667 32.195 23.59 31.9967M22.015 29.08C22.015 29.08 22.4233 29.78 23.975 29.8967M22.925 27.0383C22.925 27.0383 23.7417 27.925 24.675 27.7733M27.7667 19.7933C27.7667 19.7933 28.1283 19.4433 28.735 19.6183M27.51 21.695C27.51 21.695 26.39 21.66 26.46 21.2283C26.5533 20.715 27.65 20.3533 27.65 20.3533C27.65 20.3533 29.1083 19.42 29.33 19.0933M22.7267 24.2267L24.15 26.945L24.8267 25.9183L25.1767 26.6183L25.76 25.6033L26.7633 26.245L26.39 24.9967L27.23 24.9383C27.23 24.9383 26.9967 24.3433 26.25 24.215C26.4483 24.0633 27.1483 23.5967 27.1483 23.5967C27.1483 23.5967 26.7517 23.13 26.1217 23.1183C26.3317 22.8967 26.6117 22.36 26.5883 22.36L25.97 22.22C25.97 22.22 27.3933 22.6867 28.49 22.0333M25.7833 19.84C25.795 19.8517 25.7017 20.4 25.3983 20.715M20.3 21.3333C20.3 21.3333 21.175 21.1 21.8283 21.2283C22.4817 21.3683 23.3567 21.6017 23.3567 21.6017C23.3567 21.6017 24.4067 21.4617 24.745 21.2167M18.1183 21.9167C18.1183 21.9167 18.0017 22.3367 17.955 22.6167C17.955 22.815 17.3133 23.0833 17.3133 23.0833M18.515 21.0533C18.515 21.0533 19.075 21.7533 19.0983 22.1617C19.11 22.5583 18.6783 22.8617 18.6783 22.8617M12.7167 25.825L12.1333 24.8917L12.6583 24.705M23.2167 38.8217C22.75 38.215 23.5667 28.9983 25.2817 26.595C24.6867 30.935 26.6817 35.3683 27.1833 35.345M17.9667 24.0283C17.9667 24.0283 18.76 24.32 20.3817 23.025M22.5867 26.1517L23.7533 26.1633M58.7883 18.93C58.7883 18.93 39.34 28.0067 39.06 28.4967C42.3383 27.4933 56.2683 25.1717 56.6067 25.37C55.79 25.5683 38.885 29.4533 38.0917 30.3867C42.315 30.2467 51.1467 31.74 52.535 33.1867C49.525 32.51 40.5533 31.1917 37.8 31.775C39.8067 32.2533 47.5067 37.235 47.5067 38.0283C46.34 36.92 37.0883 33.105 36.7267 33.4783C38.85 34.75 41.8483 39.475 41.8483 40.63C41.23 39.65 35.875 33.8983 35.56 34.2717C36.1317 35.0533 37.2517 41.8433 36.68 42.1583C36.68 41.3417 34.6033 35.3917 34.4283 35.2283C34.0083 35.345 31.36 42.4617 31.885 43.1383C31.535 40.7583 31.9433 35.7883 32.585 35.9867C31.4183 36.1617 27.72 41.05 28.1167 41.82C28.2333 40.595 28.3967 39.79 30.4967 35.7417C28.1633 35.8817 23.3567 38.9033 22.54 39.9883C23.1933 38.0633 27.265 34.8083 29.05 34.575M37.45 27.4933C39.5033 26.35 45.85 24.0283 50.0967 22.3133M33.46 33.63C33.46 33.63 34.86 33.6067 36.26 29.8033C37.6367 24.6 48.5917 18.8017 48.8133 17.7167M14.9333 38.8683C14.9333 38.8683 14.6067 39.5683 14.21 39.755M16.5083 39.9183C16.5083 39.9183 16.0767 40.7583 15.9717 41.155M18.0133 40.3383C18.0133 40.3383 18.3633 41.4817 18.0717 42.0183M13.825 37.34C12.7283 37.9583 14.455 41.89 19.67 42.2633M18.83 40.14C18.83 40.14 18.69 40.84 19.67 42.24C19.39 43.8033 20.86 45.0283 21.4433 45.2267M18.41 26.07L18.5733 25.65L18.7483 26.1167L19.04 26.105L19.2267 25.6383L19.39 26.105H19.67L19.845 25.5917L20.1133 26.0817H20.3467L20.5217 25.4983L20.8717 25.9183L21.0117 25.8717L21.1283 25.265L21.49 25.685L21.6067 25.6267L21.77 25.0433L22.0617 25.475L22.2133 25.4283L22.3533 24.9267L22.6333 25.3933M18.0833 26.1167L20.2767 26.0817C20.9767 26.0817 22.12 25.1133 23.3917 25.4167M13.4867 30.7833C13.4867 30.7833 13.8483 31.5767 14.35 31.1333M12.6467 31.3083C12.6467 31.3083 11.9467 33.1983 12.7867 33.6417M11.6433 29.2317C11.6433 29.2317 11.6433 29.675 12.5767 28.9983M8.78499 39.1133C8.78499 39.1133 9.51999 39.3467 9.40332 39.895M9.05332 30.4683C9.05332 30.4683 9.51999 30.69 9.96332 30.0017M13.9533 52.1333C14.665 52.0867 14.8283 52.4133 15.47 52.4133C16.24 52.4367 16.975 52.1333 17.92 51.865M24.115 53.615C24.0917 53.615 23.765 54.2917 24.0567 54.63M13.8483 53.6733C13.8483 53.6733 14.9917 52.74 15.5983 53.3117C16.17 53.51 16.485 53.475 16.485 53.475M14.4433 50.99C14.4433 50.99 14.7233 51.7133 13.79 51.6083M13.51 52.6583C13.51 52.6583 14.105 53.0317 13.4283 53.5333M13.8717 54.21C13.8717 54.21 14.6883 54.3267 14.21 54.9917M23.4033 30.4567C24.2317 31.1217 23.8933 31.5183 26.5067 29.7683M22.2133 31.285C22.2133 31.285 23.4383 32.615 24.3367 31.005M19.8683 31.7633L18.2 32.6383M31.3833 53.7433C31.3833 53.7433 32.3983 52.88 32.865 53.335C33.3433 53.8017 35.35 52.9383 35.35 52.9383M32.1417 49.975C32.1417 49.975 32.4917 50.675 31.815 50.7567M30.8233 52.145C30.8233 52.145 31.1733 52.7983 30.4967 52.9617M31.605 53.9067C31.605 53.9067 32.655 53.965 32.2817 54.7583M41.4283 53.7667C41.4283 53.7667 40.845 54.2567 41.2767 54.8167M49.7933 50.2667C49.7933 50.2667 50.4583 50.5933 49.665 51.1417M49 52.2967C49 52.2967 49.5017 52.8217 49.1633 53.2533M50.4 54.3033C50.4 54.3033 51.0883 54.5017 51.0067 55.0733M60.0833 53.79C60.0833 53.79 59.5 54.2217 59.815 54.77M49.8167 36.9433C51.1933 36.78 53.1767 39.86 54.1917 40.455M60.2467 32.5917C60.2467 32.5917 60.9467 33.21 60.3283 34.6917M61.5417 30.235C61.74 30.3867 62.4867 30.795 62.9883 31.7283M63.4667 25.6383L62.4983 28.2633M64.5517 25.51C64.5517 25.51 64.365 27.8433 64.085 28.31M40.3667 49.2283C40.3667 49.2283 42.5833 49.4617 42.7 49.625C42.9567 49.3567 44.94 47.735 42.5017 47.5133C42.3893 47.997 42.1178 48.429 41.7307 48.74C41.3435 49.0509 40.8632 49.2229 40.3667 49.2283V49.2283ZM60.2 32.5683C59.885 33.5017 57.0733 33.9683 56.8867 32.5917C56.7817 31.8917 58.5433 30.8067 60.2 32.5683Z" stroke="black" stroke-width="0.163333" stroke-linejoin="round"/>
<path d="M21.2683 21.1934L22.3533 21.3917C22.3533 21.3917 21.595 22.4184 21.2683 21.1934Z" fill="black" stroke="black" stroke-width="0.163333" stroke-linejoin="round"/>
</g>
<defs>
<clipPath id="clip0_1_28760">
<rect width="74.6667" height="56" fill="white" transform="translate(0 9.375)"/>
</clipPath>
</defs>
</svg>
