<svg width="75" height="75" viewBox="0 0 75 75" fill="none" xmlns="http://www.w3.org/2000/svg">
<rect width="74.6667" height="74.75" fill="white"/>
<g clip-path="url(#clip0_1_28727)">
<path d="M0 9.375H74.6667V65.375H0V9.375Z" fill="#012169"/>
<path d="M8.75 9.375L37.2167 30.4917L65.5667 9.375H74.6667V16.6083L46.6667 37.4917L74.6667 58.2583V65.375H65.3333L37.3333 44.4917L9.45 65.375H0V58.375L27.8833 37.6083L0 16.8417V9.375H8.75Z" fill="white"/>
<path d="M49.4667 42.1583L74.6667 60.7083V65.375L43.05 42.1583H49.4667ZM28 44.4917L28.7 48.575L6.3 65.375H0L28 44.4917ZM74.6667 9.375V9.725L45.6167 31.6583L45.85 26.525L68.8333 9.375H74.6667ZM0 9.375L27.8833 29.9083H20.8833L0 14.275V9.375Z" fill="#C8102E"/>
<path d="M28.1167 9.375V65.375H46.7833V9.375H28.1167ZM0 28.0417V46.7083H74.6667V28.0417H0Z" fill="white"/>
<path d="M0 31.8917V43.0917H74.6667V31.8917H0ZM31.85 9.375V65.375H43.05V9.375H31.85Z" fill="#C8102E"/>
</g>
<defs>
<clipPath id="clip0_1_28727">
<rect width="74.6667" height="56" fill="white" transform="translate(0 9.375)"/>
</clipPath>
</defs>
</svg>
