<svg width="75" height="75" viewBox="0 0 75 75" fill="none" xmlns="http://www.w3.org/2000/svg">
<rect width="74.6667" height="74.75" fill="white"/>
<g clip-path="url(#clip0_1_29304)">
<path d="M0 9.375H74.6667V65.375H0V9.375Z" fill="#CE1126"/>
<path d="M7.84009 17.215H66.8268V57.535H7.84009V17.215Z" fill="#007A5E"/>
<path d="M7.84009 17.2267H66.8268L7.84009 57.5467H66.8268L7.84009 17.2267Z" fill="#FCD116"/>
<path d="M37.3217 44.1067C41.0331 44.1067 44.0417 41.098 44.0417 37.3867C44.0417 33.6753 41.0331 30.6667 37.3217 30.6667C33.6104 30.6667 30.6017 33.6753 30.6017 37.3867C30.6017 41.098 33.6104 44.1067 37.3217 44.1067Z" fill="#CE1126"/>
<path d="M11.9351 37.4567C12.8214 39.1095 14.1827 40.4587 15.8434 41.33C15.7787 39.5067 15.3295 37.7176 14.5251 36.08L11.9351 37.4567Z" fill="#CE1126"/>
<path d="M10.5117 32.09C11.7251 34.6217 7.35008 40.6884 14.6534 42.1117C13.6672 40.6828 13.2169 38.9517 13.3817 37.2234C15.005 37.9737 16.337 39.2361 17.1734 40.8167C19.0867 33.875 12.2734 34.3067 10.5117 32.09Z" fill="#FCD116"/>
</g>
<defs>
<clipPath id="clip0_1_29304">
<rect width="74.6667" height="56" fill="white" transform="translate(0 9.375)"/>
</clipPath>
</defs>
</svg>
