<svg width="75" height="75" viewBox="0 0 75 75" fill="none" xmlns="http://www.w3.org/2000/svg">
<rect width="74.6667" height="74.75" fill="white"/>
<g clip-path="url(#clip0_1_28735)">
<path d="M0 9.375H74.6667V65.375H0V9.375Z" fill="white"/>
<path d="M31.7333 9.375H42.9333V65.375H31.7333V9.375Z" fill="#FF0000"/>
<path d="M0 31.775H74.6667V42.975H0V31.775Z" fill="#FF0000"/>
<g style="mix-blend-mode:multiply">
<path fill-rule="evenodd" clip-rule="evenodd" d="M17.1267 52.9033C17.2433 50.9433 17.5933 49.275 17.5933 49.275C17.5933 49.275 16.45 49.3917 15.8667 49.3917C15.295 49.3917 14.14 49.275 14.14 49.275C14.14 49.275 14.49 50.9433 14.6067 52.915C12.635 52.7983 10.9667 52.4483 10.9667 52.4483C10.9667 52.4483 11.0833 53.3117 11.0833 54.175C11.0833 55.0383 10.9667 55.9017 10.9667 55.9017C10.9667 55.9017 12.635 55.5517 14.6067 55.435C14.49 57.4067 14.14 59.075 14.14 59.075C14.14 59.075 15.0033 58.9583 15.8667 58.9583C16.73 58.9583 17.5933 59.075 17.5933 59.075C17.5933 59.075 17.2433 57.4067 17.1267 55.435C19.0983 55.5517 20.7667 55.9017 20.7667 55.9017C20.7667 55.9017 20.65 54.7583 20.65 54.175C20.65 53.6033 20.7667 52.4483 20.7667 52.4483C20.7667 52.4483 19.0983 52.7983 17.1383 52.915L17.1267 52.9033ZM60.06 19.3033C60.1767 17.3433 60.5267 15.675 60.5267 15.675C60.5267 15.675 59.3833 15.7917 58.8 15.7917C58.2283 15.7917 57.0733 15.675 57.0733 15.675C57.0733 15.675 57.4233 17.3433 57.54 19.3033C55.5683 19.1867 53.9 18.8483 53.9 18.8483C53.9 18.8483 54.0167 19.7117 54.0167 20.575C54.0167 21.4383 53.9 22.3017 53.9 22.3017C53.9 22.3017 55.5683 21.9517 57.54 21.835C57.4233 23.8067 57.0733 25.475 57.0733 25.475C57.0733 25.475 57.9367 25.3583 58.8 25.3583C59.6633 25.3583 60.5267 25.475 60.5267 25.475C60.5267 25.475 60.1767 23.8067 60.06 21.8467C62.0317 21.9633 63.7 22.3133 63.7 22.3133C63.7 22.3133 63.5833 21.1467 63.5833 20.575C63.5833 20.0033 63.7 18.8483 63.7 18.8483C63.7 18.8483 62.0317 19.1983 60.06 19.315V19.3033ZM17.1267 19.3033C17.2433 17.3433 17.5933 15.675 17.5933 15.675C17.5933 15.675 16.45 15.7917 15.8667 15.7917C15.295 15.7917 14.14 15.675 14.14 15.675C14.14 15.675 14.49 17.3433 14.6067 19.315C12.635 19.1983 10.9667 18.8483 10.9667 18.8483C10.9667 18.8483 11.0833 19.7117 11.0833 20.575C11.0833 21.4383 10.9667 22.3017 10.9667 22.3017C10.9667 22.3017 12.635 21.9517 14.6067 21.835C14.49 23.8067 14.14 25.475 14.14 25.475C14.14 25.475 15.0033 25.3583 15.8667 25.3583C16.73 25.3583 17.5933 25.475 17.5933 25.475C17.5933 25.475 17.2433 23.8067 17.1267 21.835C19.0983 21.9517 20.7667 22.3017 20.7667 22.3017C20.7667 22.3017 20.65 21.1583 20.65 20.575C20.65 20.0033 20.7667 18.8483 20.7667 18.8483C20.7667 18.8483 19.0983 19.1983 17.1383 19.315L17.1267 19.3033ZM60.06 52.9033C60.1767 50.9433 60.5267 49.275 60.5267 49.275C60.5267 49.275 59.3833 49.3917 58.8 49.3917C58.2283 49.3917 57.0733 49.275 57.0733 49.275C57.0733 49.275 57.4233 50.9433 57.54 52.915C55.5683 52.7983 53.9 52.4483 53.9 52.4483C53.9 52.4483 54.0167 53.3117 54.0167 54.175C54.0167 55.0383 53.9 55.9017 53.9 55.9017C53.9 55.9017 55.5683 55.5517 57.54 55.435C57.4233 57.4067 57.0733 59.075 57.0733 59.075C57.0733 59.075 57.9367 58.9583 58.8 58.9583C59.6633 58.9583 60.5267 59.075 60.5267 59.075C60.5267 59.075 60.1767 57.4067 60.06 55.435C62.0317 55.5517 63.7 55.9017 63.7 55.9017C63.7 55.9017 63.5833 54.7583 63.5833 54.175C63.5833 53.6033 63.7 52.4483 63.7 52.4483C63.7 52.4483 62.0317 52.7983 60.06 52.915V52.9033Z" fill="#FF0000"/>
</g>
</g>
<defs>
<clipPath id="clip0_1_28735">
<rect width="74.6667" height="56" fill="white" transform="translate(0 9.375)"/>
</clipPath>
</defs>
</svg>
