<svg width="75" height="75" viewBox="0 0 75 75" fill="none" xmlns="http://www.w3.org/2000/svg">
<rect width="74.6667" height="74.75" fill="white"/>
<g clip-path="url(#clip0_1_61412)">
<path d="M0 9.375H74.6667V65.375H0V9.375Z" fill="white"/>
<path d="M29.8666 9.375H44.8V65.375H29.8666V9.375Z" fill="#E8112D"/>
<path d="M0 29.9083H74.6667V44.8417H0V29.9083Z" fill="#E8112D"/>
<path d="M12.8333 42.8234L15.5516 40.0934H40.0516V34.6567H15.5516L12.8333 31.9267V42.8234Z" fill="#F9DD16"/>
<path d="M31.885 12.875L34.615 15.5933V40.0933H40.0517V15.5933L42.7817 12.875H31.885Z" fill="#F9DD16"/>
<path d="M42.7817 61.875L40.0517 59.1566V34.6566H34.615V59.1566L31.885 61.875H42.7817Z" fill="#F9DD16"/>
<path d="M61.8333 31.9267L59.115 34.6567H34.615V40.0934H59.115L61.8333 42.8234V31.9267Z" fill="#F9DD16"/>
</g>
<defs>
<clipPath id="clip0_1_61412">
<rect width="74.6667" height="56" fill="white" transform="translate(0 9.375)"/>
</clipPath>
</defs>
</svg>
