<svg width="75" height="75" viewBox="0 0 75 75" fill="none" xmlns="http://www.w3.org/2000/svg">
<rect width="74.6667" height="74.75" fill="white"/>
<g clip-path="url(#clip0_1_61507)">
<path d="M0 9.375H74.6667V65.375H0V9.375Z" fill="#DA000C"/>
<path d="M0 9.375H74.6667V46.895H0V9.375Z" fill="white"/>
<path d="M24.3395 34.8156H38.3395V44.4406H24.3395V34.8156Z" fill="black"/>
<path d="M31.602 43.0406H23.0707L21.1676 44.2875V45.6H31.602M28.0364 37.5062C29.2614 37.5062 30.2676 38.5344 30.2676 39.8031V43.0187H31.8645V30.7687H23.0489V43.0187H25.8051V39.8031C25.8051 38.5781 26.7895 37.5062 28.0364 37.5062Z" fill="#DA000C"/>
<path d="M31.602 43.0406H23.0707L21.1676 44.2875V45.6H31.602M28.0364 37.5062C29.2614 37.5062 30.2676 38.5344 30.2676 39.8031V43.0187H31.8645V30.7687H23.0489V43.0187H25.8051V39.8031C25.8051 38.5781 26.7895 37.5062 28.0364 37.5062V37.5062Z" stroke="black" stroke-width="0.21875" stroke-linecap="square"/>
<path d="M26.0676 22.5H30.1364V29.9375H26.0676V22.5Z" fill="black"/>
<path d="M30.1145 28.7781H26.5708V27.5094H23.9676V28.7781H22.2176V27.5094H21.1458V29.7844H30.1145M22.1958 29.7844H29.852V30.7687H22.1958V29.7844ZM33.177 18.7812V27.5312H34.4895V25.4094C34.4895 24.6219 35.0364 23.9656 35.8239 23.9219H35.9114C36.3059 23.9219 36.6842 24.0786 36.9632 24.3575C37.2422 24.6365 37.3989 25.0148 37.3989 25.4094V27.5312H38.6458V19.7875L33.177 18.7812ZM32.6739 17.7312V18.7812H39.0833V17.7312H32.6739ZM31.8645 15.7406V17.7312H39.5208V15.7406H38.3614V16.7687H36.9176V15.7406H34.7301V16.7687H33.3083V15.7406H31.8645ZM21.1458 44.2875H31.6458H21.1458ZM38.427 43.675H31.3395L29.1958 44.7031V46.2343H38.427" fill="#DA000C"/>
<path d="M30.1145 28.7781H26.5708V27.5094H23.9676V28.7781H22.2176V27.5094H21.1458V29.7844H30.1145M21.1458 44.2875H31.6458M38.427 43.675H31.3395L29.1958 44.7031V46.2343H38.427M22.1958 29.7844H29.852V30.7687H22.1958V29.7844ZM33.177 18.7812V27.5312H34.4895V25.4094C34.4895 24.6219 35.0364 23.9656 35.8239 23.9219H35.9114C36.3059 23.9219 36.6842 24.0786 36.9632 24.3575C37.2422 24.6365 37.3989 25.0148 37.3989 25.4094V27.5312H38.6458V19.7875L33.177 18.7812ZM32.6739 17.7312V18.7812H39.0833V17.7312H32.6739ZM31.8645 15.7406V17.7312H39.5208V15.7406H38.3614V16.7687H36.9176V15.7406H34.7301V16.7687H33.3083V15.7406H31.8645Z" stroke="black" stroke-width="0.21875" stroke-linecap="square"/>
<path d="M29.1957 44.7031H38.6457H29.1957Z" fill="#DA000C"/>
<path d="M29.1957 44.7031H38.6457" stroke="black" stroke-width="0.21875"/>
<path d="M41.1176 42.1875C40.527 42.4062 40.0239 42.7125 39.477 43.0188C38.7964 43.4075 38.1457 43.8462 37.5301 44.3313C37.3114 44.4844 37.0926 44.6375 36.9395 44.8562C36.7207 45.0312 36.502 45.2937 36.5457 45.6219C36.5457 45.7531 36.7207 45.4469 36.852 45.425C37.0597 45.3138 37.301 45.2827 37.5301 45.3375C37.8145 45.0312 38.1864 44.8344 38.4926 44.5937C39.3842 43.9485 40.3367 43.3917 41.3364 42.9312L41.1176 42.1875Z" fill="#F8D80E" stroke="black" stroke-width="0.175" stroke-linecap="round"/>
<path d="M38.2958 43.8063V44.6594V43.8063ZM38.8208 43.4344V44.2875V43.4344ZM39.3458 43.1063V43.9375V43.1063ZM39.8927 42.7781V43.6531V42.7781Z" fill="#F8D80E"/>
<path d="M38.2958 43.8063V44.6594M38.8208 43.4344V44.2875M39.3458 43.1063V43.9375M39.8927 42.7781V43.6531" stroke="black" stroke-width="0.21875" stroke-linecap="round"/>
<path d="M33.5926 42.2313L33.3301 42.9531C34.539 43.4168 35.6971 44.0032 36.7864 44.7031C37.1583 44.9656 37.552 45.2063 37.8364 45.5563C37.902 45.7313 37.727 45.8844 37.552 45.8188C37.3989 45.775 37.2239 45.7094 37.0708 45.8188C36.8301 45.9281 36.6114 46.3 36.9614 46.4094C37.4864 46.7594 38.2958 46.6063 38.5364 46.0156C38.6676 45.7094 38.6895 45.3156 38.427 45.0531C37.9895 44.55 37.377 44.1781 36.8083 43.8063C35.7869 43.1838 34.7105 42.6566 33.5926 42.2313Z" fill="#F8D80E" stroke="black" stroke-width="0.175" stroke-linecap="round"/>
<path d="M36.8958 43.9375L36.8301 44.6813L36.8958 43.9375ZM37.5083 44.3094L37.3333 45.0313L37.5083 44.3094ZM38.1645 44.8125L37.7708 45.3813L38.1645 44.8125ZM38.3614 46.1688L37.7926 45.8625L38.3614 46.1688ZM38.5364 45.5563L37.8801 45.6219L38.5364 45.5563ZM37.7051 46.4969L37.6614 45.9282L37.7051 46.4969ZM37.4426 45.8625L36.9176 46.2563L37.4426 45.8625ZM34.8614 42.8219V43.5V42.8219ZM36.2395 43.5657V44.3313V43.5657ZM35.5395 43.1938V43.9156V43.1938Z" fill="#F8D80E"/>
<path d="M36.8958 43.9375L36.8301 44.6813M37.5083 44.3094L37.3333 45.0313M38.1645 44.8125L37.7708 45.3813M38.3614 46.1688L37.7926 45.8625M38.5364 45.5563L37.8801 45.6219M37.7051 46.4969L37.6614 45.9282M37.4426 45.8625L36.9176 46.2563M34.8614 42.8219V43.5M36.2395 43.5657V44.3313M35.5395 43.1938V43.9156" stroke="black" stroke-width="0.21875" stroke-linecap="round"/>
<path d="M32.9144 59.1625V60.9125H34.0082V60.0375H35.5176V60.9125H36.6988V59.1625H32.9144ZM32.9144 61.5687V63.3187H36.6769V61.5687H35.4957V62.4437H33.9863V61.5687H32.9144Z" fill="#F8D80E" stroke="black" stroke-width="0.21875"/>
<path d="M36.6769 51.7469H37.7707V64.4344H36.6769V51.7469Z" fill="#F8D80E" stroke="black" stroke-width="0.21875"/>
<path d="M36.6769 52.8406H37.7707V63.7781H36.6769V52.8406ZM37.2457 48.6187L39.5644 49.975L37.2457 51.3312L34.905 49.975L37.2457 48.6187ZM34.1175 49.4937H33.5269V50.4562H34.1175L37.2457 52.2719L40.3519 50.4562H40.9644V49.4937H40.3519L37.2457 47.6781L34.1175 49.4937Z" fill="#F8D80E" stroke="black" stroke-width="0.21875"/>
<path d="M37.1801 45.3156C36.9255 45.3674 36.6977 45.508 36.5373 45.7124C36.377 45.9169 36.2947 46.1717 36.3051 46.4312V48.8812C36.3252 49.1414 36.4376 49.3859 36.6222 49.5704C36.8067 49.7549 37.0511 49.8674 37.3113 49.8875C37.5278 49.9037 37.7441 49.8538 37.9315 49.7445C38.119 49.6351 38.2689 49.4714 38.3613 49.275L37.9895 49.0562C37.9378 49.1844 37.8458 49.2922 37.7274 49.3632C37.6089 49.4343 37.4705 49.4648 37.3332 49.45C36.9832 49.45 36.6988 49.1 36.7426 48.7719V46.3219C36.7591 46.1614 36.8362 46.0133 36.9581 45.9076C37.08 45.8019 37.2376 45.7467 37.3988 45.7531C37.5301 45.7094 37.727 45.9062 37.8145 45.7531C37.9457 45.5562 37.727 45.425 37.5957 45.3156H37.1801ZM38.4488 46.1687C38.3419 46.3185 38.199 46.4389 38.0332 46.5187V48.1594L38.4707 48.4V46.1687H38.4488Z" fill="#F8D80E" stroke="black" stroke-width="0.21875"/>
<path d="M34.0082 17.775H40.4176V29.4125H34.0082V17.775Z" fill="black"/>
<path d="M33.5707 17.775V27.5094H35.6051V24.6219C35.6051 23.9656 36.0426 23.025 37.3332 23.025C38.6239 23.025 39.0832 23.9656 39.0832 24.6219V27.5312H41.0957V17.775H33.5707ZM37.027 18.8687H37.6395V22.1937H37.027V18.8687ZM35.2114 19.525H35.8676V21.9531H35.2114V19.525ZM38.8207 19.525H39.4551V21.9531H38.7989L38.8207 19.525ZM32.8707 16.375V17.7531H41.7957V16.375H32.8707ZM32.0395 14.7562V16.375H42.6489V14.7562H41.3145V15.6312H39.7832V14.7562H38.077V15.6312H36.5895V14.7562H34.8614V15.6312H33.3957V14.7562H32.0395ZM30.0707 30.7687V31.775H44.6176V30.7687H30.0707Z" fill="#DA000C" stroke="black" stroke-width="0.21875"/>
<path d="M29.4583 27.5093V30.7906H45.2083V27.5093H43.7208V28.7781H41.7083V27.5093H39.0395V28.7781H35.5833V27.5093H32.9145V28.7781H30.9458V27.5093H29.4583Z" fill="#DA000C" stroke="black" stroke-width="0.21875"/>
<path d="M31.3614 31.775V43.675H34.1614V39.2125C34.1614 37.1343 35.5614 36.15 37.3333 36.15C39.0395 36.15 40.5051 37.1343 40.5051 39.2125V43.675H43.3051V31.775H31.3614Z" fill="#DA000C" stroke="black" stroke-width="0.21875" stroke-linejoin="round"/>
</g>
<defs>
<clipPath id="clip0_1_61507">
<rect width="74.6667" height="56" fill="white" transform="translate(0 9.375)"/>
</clipPath>
</defs>
</svg>
