<svg width="75" height="75" viewBox="0 0 75 75" fill="none" xmlns="http://www.w3.org/2000/svg">
<rect width="74.6667" height="74.75" fill="white"/>
<g clip-path="url(#clip0_1_61479)">
<path d="M0 9.375H74.6667V65.375H0V9.375Z" fill="white"/>
<path d="M0 37.375H74.6667V65.375H0V37.375ZM9.33333 37.375C9.33333 42.3257 11.3 47.0736 14.8007 50.5743C18.3014 54.075 23.0493 56.0416 28 56.0416C32.9507 56.0416 37.6986 54.075 41.1993 50.5743C44.7 47.0736 46.6667 42.3257 46.6667 37.375C46.6667 32.4243 44.7 27.6763 41.1993 24.1757C37.6986 20.675 32.9507 18.7083 28 18.7083C23.0493 18.7083 18.3014 20.675 14.8007 24.1757C11.3 27.6763 9.33333 32.4243 9.33333 37.375Z" fill="#D00C33"/>
</g>
<defs>
<clipPath id="clip0_1_61479">
<rect width="74.6667" height="56" fill="white" transform="translate(0 9.375)"/>
</clipPath>
</defs>
</svg>
