<svg width="75" height="75" viewBox="0 0 75 75" fill="none" xmlns="http://www.w3.org/2000/svg">
<rect width="74.6667" height="74.75" fill="white"/>
<g clip-path="url(#clip0_1_61490)">
<path d="M0 9.375H74.6667V65.375H0V9.375Z" fill="#E32118"/>
<path d="M0 9.375H74.6667V46.7083H0V9.375Z" fill="white"/>
<path d="M0 9.375H74.6667V28.0417H0V9.375Z" fill="#3E9A00"/>
<path d="M0 9.375V65.375L21 37.375L0 9.375Z" fill="#0073CE"/>
<path d="M32.8533 31.7516H41.79V41.1083C41.79 44.2583 37.6833 41.8316 37.3333 43.5116C36.7267 41.785 32.8767 44.2816 32.8767 40.9216L32.8533 31.7516Z" fill="white" stroke="black" stroke-width="0.116667"/>
<path d="M37.9633 42.0183C37.9633 42.0183 37.8467 42.135 37.6367 42.0417C37.4267 41.9483 37.4033 36.045 37.4033 36.045C37.87 35.5317 38.2433 35.3683 38.2433 35.3683L38.5233 35.6017C37.4733 36.1383 37.5667 36.9083 37.66 38.2383C37.6833 38.7283 37.6833 39.3583 37.8 39.965C37.9633 40.735 38.29 41.3883 38.3133 41.8783C38.3367 42.1817 37.9633 42.0183 37.9633 42.0183Z" fill="#73452B" stroke="black" stroke-width="0.0233333"/>
<path d="M37.24 35.2283H37.66C37.31 38.6117 37.6133 40.6183 37.6133 41.5983C37.6133 41.925 37.8 42.0417 37.7767 42.0417C37.3567 42.5083 37.1467 42.0183 37.1467 42.0183L37.24 35.2283Z" fill="#73452B" stroke="black" stroke-width="0.0233333"/>
<path d="M36.5867 42.0183C36.19 42.205 36.1433 41.8317 36.1667 41.785C37.03 40.035 37.4033 36.185 36.61 35.765L36.6567 35.3917C36.96 35.485 37.24 35.8817 37.24 35.8817C37.3567 40.1983 37.24 41.9717 37.17 42.0417C36.75 42.485 36.5867 41.9717 36.5633 41.925" fill="#A36629"/>
<path d="M36.5867 42.0183C36.19 42.205 36.1433 41.8317 36.1667 41.785C37.03 40.035 37.4033 36.185 36.61 35.765L36.6567 35.3917C36.96 35.485 37.24 35.8817 37.24 35.8817C37.3567 40.1983 37.24 41.9717 37.17 42.0417C36.75 42.485 36.5867 41.9717 36.5633 41.925" stroke="black" stroke-width="0.0233333"/>
<path d="M36.5633 41.9483C36.4933 41.575 37.17 40.6183 37.1233 39.615M37.7067 40.4317C37.9167 41.015 38.01 41.5283 37.9633 42.0183" stroke="black" stroke-width="0.0233333"/>
<path d="M38.6167 33.6417C38.7567 33.4783 38.7567 33.4783 39.0133 33.4783C39.06 33.1283 39.6433 33.1283 39.69 33.5717C40.1567 33.4783 40.25 33.7583 40.0633 34.0383C40.5067 33.9217 40.9033 34.0383 40.7867 34.5517C41.58 34.7617 41.2767 35.3217 40.9267 35.4383C40.88 35.7883 40.5533 35.905 40.11 35.765C39.55 36.1617 39.2233 36.0217 38.9667 35.625C38.3367 35.7183 38.29 35.5783 38.01 35.2283C37.52 35.4383 37.4267 35.4383 37.0067 35.1817C36.9833 35.5083 36.8667 35.415 36.6567 35.3917C36.68 35.8117 36.5167 35.9983 36.1433 35.8583C36.4233 36.4417 35.7 36.6983 35.35 36.2083C35.0233 36.2317 35 36.1383 34.8367 36.0217C34.6967 36.4883 34.1833 36.4183 34.09 36.1617C33.4367 36.0683 33.5067 35.7183 34.0433 35.695C34.09 35.3217 34.4167 35.3917 34.6267 35.4383C34.65 35.205 34.79 35.2517 34.9067 35.2983C34.8367 35.135 34.8833 35.0417 35.0933 34.995C34.79 34.5983 34.9767 34.4583 35.28 34.3183C35.1167 33.945 35.3967 33.9683 35.6067 33.945C35.5833 33.5483 35.7 33.4783 36.12 33.4317C36.0733 33.2917 36.1433 33.175 36.3767 33.175C36.2367 32.7783 36.4233 32.685 36.8433 32.755C36.9133 32.1717 38.15 32.4517 38.0567 33.245C38.4067 33.2917 38.5233 33.3617 38.6167 33.6417Z" fill="#009A3B" stroke="black" stroke-width="0.0233333"/>
<path d="M36.12 33.4317C36.2133 33.4783 36.33 33.4317 36.3533 33.6883C36.54 33.3617 36.7733 33.5483 36.7733 33.9217M38.0567 33.245C37.9633 33.385 37.6133 33.385 37.66 33.7583C37.5433 33.595 37.31 33.5483 37.2167 33.7117M38.6167 33.6417C38.6167 33.735 38.5933 34.015 38.5 34.155M40.0633 34.0383C40.0867 34.0617 39.7367 34.0383 39.5733 34.155M40.9267 35.4383C40.8333 35.3917 40.6467 35.275 40.5067 35.4617C40.5067 35.3683 40.5067 35.1117 40.25 35.1117M40.11 35.765C40.11 35.5317 40.0633 35.4617 40.0167 35.3917M39.34 35.4383C39.1533 35.2983 38.9667 35.5083 38.9667 35.625M37.9867 35.2283C37.9867 35.135 37.9167 34.9483 38.08 34.8783M35.3267 36.2083C35.3733 35.975 35.5367 35.975 35.5133 35.8583C35.49 35.6717 35.28 35.5083 35.0233 35.765M35.5133 35.8583C35.6533 35.8117 35.7933 35.835 35.84 35.905M35.1167 34.995C35.21 34.9017 35.4433 34.925 35.5833 34.995M35.5833 34.435C35.7 34.435 35.91 34.3883 35.98 34.5983C36.2367 34.2017 36.4233 34.2483 36.47 34.3417M36.9367 34.295C37.1233 34.225 37.45 34.4117 37.6367 34.7383C37.73 34.4817 37.87 34.5283 38.01 34.505M38.8967 34.7383C39.2 34.5983 39.3867 34.8783 39.48 34.995C39.62 34.8083 39.7367 34.8083 39.8767 34.8083M36.0733 35.2983C36.1433 35.1817 36.3067 35.1583 36.4233 35.2283C36.4 35.0183 36.54 34.925 36.6333 34.9717" stroke="black" stroke-width="0.0233333"/>
<path d="M37.03 30.4333L36.5166 30.4567L36.26 30.9233L35.98 30.48L35.4666 30.5033L35.7 30.0367L35.42 29.605L35.9566 29.5817L36.19 29.115L36.47 29.5583L36.9833 29.535L36.75 30.0017L37.03 30.4333ZM34.8366 30.6083L34.3233 30.725L34.1833 31.2267L33.81 30.8533L33.32 30.97L33.46 30.48L33.11 30.1067L33.6 29.9783L33.74 29.4767L34.1133 29.85L34.6266 29.7333L34.4633 30.235L34.8366 30.6083ZM32.7133 31.04L32.2466 31.2733L32.2233 31.7867L31.78 31.5067L31.3133 31.74L31.36 31.215L30.9166 30.935L31.3833 30.7017L31.43 30.1767L31.85 30.4683L32.3166 30.235L32.2933 30.7483L32.7133 31.04ZM37.7066 30.4333L38.22 30.4567L38.4533 30.9233L38.7333 30.48L39.2466 30.5033L39.0133 30.0367L39.2933 29.605L38.78 29.5817L38.5233 29.115L38.2433 29.5583L37.73 29.535L37.9633 30.0017L37.7066 30.4333ZM39.9 30.6083L40.39 30.725L40.53 31.2267L40.9033 30.8533L41.3933 30.97L41.2533 30.48L41.6266 30.1067L41.1133 29.9783L40.9733 29.4767L40.6 29.85L40.11 29.7333L40.25 30.235L39.9 30.6083ZM42 31.04L42.4666 31.2733L42.49 31.7867L42.9333 31.5067L43.4 31.74L43.3766 31.215L43.7966 30.935L43.33 30.7017L43.3066 30.1767L42.8633 30.4683L42.3966 30.235L42.4433 30.7483L42 31.04Z" fill="#FFD700" stroke="black" stroke-width="0.0816667"/>
<path d="M42.6299 40.9217L43.2133 41.7617L43.7499 40.9683L43.3766 40.2917L42.6299 40.9217ZM38.9199 43.3717L38.9666 44.2117C38.9666 44.2117 39.1999 44.2117 39.4099 44.1417C39.5966 44.0717 39.7599 43.9317 39.7599 43.9317L39.7366 43.4883L38.9199 43.3717ZM35.7933 43.3717L35.7466 44.1883C35.7466 44.1883 35.5366 44.1883 35.3266 44.1417C35.1399 44.095 34.9766 43.9783 34.9766 43.9783L34.7433 43.4183L35.7933 43.3717ZM32.0366 40.9217L31.4299 41.7617L30.7766 40.6883L31.2666 40.175L32.0366 40.9217Z" fill="white" stroke="black" stroke-width="0.0816667"/>
<path d="M34.9533 45.0517C34.9533 45.845 39.7599 45.845 39.7599 45.0517V43.9317C39.7599 44.515 34.9533 44.3984 34.9533 43.9317V45.0517Z" fill="white" stroke="black" stroke-width="0.0816667"/>
<path d="M30.6599 42.4617C31.0799 44.6084 34.9533 44.655 34.9533 44.655V43.9317C34.8599 43.6517 35.0233 43.5584 35.6533 43.465C35.9099 43.4417 35.7933 43.0684 35.7933 43.0684C35.7933 43.0684 34.1133 43.3717 32.9233 42.905C31.3133 42.2517 31.0799 40.9917 31.0799 40.9917C31.0799 40.9917 30.9633 41.9717 30.6599 42.4617ZM44.0299 42.4617C43.6333 44.6084 39.7599 44.655 39.7599 44.655V43.9317C39.8299 43.6517 39.6666 43.5584 39.0366 43.465C38.7799 43.4417 38.9199 43.0684 38.9199 43.0684C38.9199 43.0684 40.5999 43.3717 41.7899 42.905C43.3766 42.2517 43.5633 40.9917 43.5633 40.9917C43.5633 40.9917 43.7266 41.9717 44.0299 42.4617Z" fill="white" stroke="black" stroke-width="0.0816667"/>
<path d="M30.9633 41.645C29.89 41.0617 30.73 40.455 30.8233 38.7283C30.9867 39.7783 32.1767 40.2217 32.0367 40.8983C31.5467 40.9217 31.3133 40.175 31.08 40.9917L30.9633 41.645ZM43.7267 41.645C44.8 41.0383 43.9133 40.455 43.82 38.7283C43.6567 39.7783 42.49 40.2217 42.63 40.8983C43.0967 40.9217 43.33 40.175 43.5633 40.9917L43.7267 41.6217V41.645Z" fill="white" stroke="black" stroke-width="0.0816667"/>
<path d="M31.6167 42.4383L31.7333 42.5317L31.4767 42.8117C31.36 42.9283 31.3483 42.9983 31.4183 43.0683C31.5 43.15 31.57 43.115 31.6517 43.0217L31.9433 42.7183L32.0367 42.8117L31.7567 43.1383C31.605 43.3133 31.465 43.2783 31.3367 43.1617C31.2433 43.0683 31.1733 42.9283 31.3367 42.7533L31.6167 42.4383ZM32.0833 42.835L32.2 42.905L32.1767 43.465L32.4333 43.0683L32.55 43.1383L32.1767 43.745L32.0367 43.675L32.06 43.115L31.8033 43.5117L31.6867 43.4417L32.0833 42.835ZM32.2933 43.815L32.62 43.1617L32.7367 43.2317L32.4333 43.8617L32.2933 43.815ZM32.8067 43.255L32.55 43.9317L32.8067 44.025C33.04 44.1067 33.1567 44.0017 33.2267 43.8033C33.3083 43.5933 33.2733 43.4533 33.04 43.3483L32.8067 43.255ZM32.9 43.4183C33.1333 43.5 33.1567 43.5933 33.0867 43.7683C33.0167 43.92 32.97 43.9783 32.7367 43.8617L32.9 43.4183ZM33.5767 43.5117L33.1567 44.1417L33.32 44.1883L33.4133 44.025L33.6933 44.095L33.7167 44.2583L33.88 44.2817L33.7167 43.535L33.5767 43.5117ZM33.6233 43.675L33.67 43.955L33.4833 43.9317L33.6233 43.675ZM33.9733 43.57L33.95 44.2933H34.2183C34.475 44.305 34.545 44.1767 34.5567 43.9433C34.5567 43.7333 34.475 43.5933 34.2183 43.5933L33.9733 43.57ZM34.1133 43.6867C34.37 43.6983 34.405 43.78 34.405 43.955C34.3933 44.13 34.3583 44.2 34.1017 44.165V43.6983L34.1133 43.6867ZM36.4233 44.585V45.3317H36.5867V45.0517C36.5867 45.0517 36.7267 45.0517 36.8433 45.0283C36.925 45.005 36.995 44.9467 36.995 44.795C36.995 44.655 36.9133 44.585 36.7733 44.585H36.4233ZM36.5867 44.7017H36.75C36.8783 44.7017 36.8667 44.9117 36.75 44.9117H36.5867V44.7017ZM37.2633 44.585L36.96 45.3317H37.1233L37.1933 45.145H37.4967L37.5667 45.3317H37.73L37.4267 44.585H37.2633ZM37.3333 44.7483L37.45 45.0283H37.24L37.3333 44.7483ZM37.73 45.1917L38.1267 44.7017H37.7767V44.585H38.3367V44.7017L37.9167 45.1917H38.3367V45.3317H37.73V45.1917ZM40.0867 43.745L40.2267 43.7217L40.2967 44.1417C40.32 44.2933 40.25 44.3867 40.145 44.4333C40.0283 44.48 39.865 44.4333 39.8533 44.235L39.97 44.2117C39.9933 44.3283 40.04 44.34 40.0867 44.3283C40.145 44.305 40.1683 44.235 40.1567 44.165L40.0867 43.745ZM40.32 43.6983L40.4483 43.675L40.5183 44.025C40.5416 44.1767 40.5883 44.235 40.6933 44.2233C40.81 44.2 40.8217 44.13 40.7983 43.99L40.7167 43.6283L40.8567 43.605L40.95 43.99C40.9967 44.2233 40.88 44.305 40.7167 44.34C40.5883 44.3633 40.4367 44.34 40.39 44.1067L40.32 43.6983ZM41.0433 44.025L41.16 43.9783C41.2183 44.0833 41.3 44.0717 41.37 44.0483C41.4633 44.0017 41.4867 43.92 41.4283 43.885C41.3583 43.85 41.195 43.9083 41.1133 43.885C41.0083 43.8383 40.9617 43.7683 40.9733 43.6867C40.9733 43.57 41.0667 43.5233 41.1717 43.4883C41.2883 43.4533 41.405 43.465 41.4867 43.605L41.3467 43.6517C41.3 43.57 41.23 43.5817 41.1833 43.605C41.1367 43.6283 41.0667 43.6633 41.1133 43.7217C41.1367 43.78 41.3117 43.745 41.405 43.745C41.4983 43.745 41.5683 43.815 41.58 43.8967C41.6033 44.025 41.5567 44.095 41.405 44.1533C41.23 44.2233 41.0667 44.1533 41.0433 44.025ZM41.6733 43.4417L41.4867 43.535L41.44 43.4183L41.9533 43.2083L42 43.3017L41.8133 43.395L42.0233 43.9083L41.9067 43.9783L41.6733 43.4417ZM41.9767 43.185L42.0933 43.115L42.42 43.7217L42.3033 43.7917L41.9767 43.185ZM42.77 43.2317L42.91 43.185C42.928 43.2291 42.9344 43.2772 42.9287 43.3245C42.923 43.3718 42.9052 43.4169 42.8772 43.4555C42.8491 43.494 42.8117 43.5248 42.7685 43.5448C42.7252 43.5649 42.6775 43.5735 42.63 43.57C42.28 43.57 42.2333 43.1733 42.2917 43.045C42.385 42.8233 42.6417 42.835 42.7583 42.9517L42.6417 43.045C42.5717 42.9517 42.4083 43.01 42.4083 43.0917C42.3928 43.1599 42.4005 43.2313 42.43 43.2946C42.4596 43.358 42.5094 43.4097 42.5717 43.4417C42.6883 43.4883 42.8517 43.3483 42.77 43.2317ZM42.7 42.7417L42.8167 42.6483L43.2367 43.2083L43.12 43.3017L42.7 42.7417ZM43.1433 42.3917L43.0267 42.485L43.2833 43.185L43.4 43.0683L43.33 42.9283L43.54 42.7417L43.68 42.8117L43.7967 42.7183L43.1433 42.3917ZM43.19 42.555L43.4233 42.6717L43.2833 42.8117L43.19 42.555Z" fill="black"/>
</g>
<defs>
<clipPath id="clip0_1_61490">
<rect width="74.6667" height="56" fill="white" transform="translate(0 9.375)"/>
</clipPath>
</defs>
</svg>
