<svg width="75" height="75" viewBox="0 0 75 75" fill="none" xmlns="http://www.w3.org/2000/svg">
<rect width="74.6667" height="74.75" fill="white"/>
<g clip-path="url(#clip0_1_61638)">
<path fill-rule="evenodd" clip-rule="evenodd" d="M0 9.375H74.6667V15.5933H0V9.375Z" fill="#005BAE"/>
<path fill-rule="evenodd" clip-rule="evenodd" d="M-3.8147e-05 15.5933H74.6666V21.8233H-3.8147e-05V15.5933Z" fill="white"/>
<path fill-rule="evenodd" clip-rule="evenodd" d="M-3.8147e-05 21.8234H74.6666V28.0417H-3.8147e-05V21.8234Z" fill="#005BAE"/>
<path fill-rule="evenodd" clip-rule="evenodd" d="M-3.8147e-05 28.0417H74.6666V34.26H-3.8147e-05V28.0417Z" fill="white"/>
<path d="M0 9.375H31.115V40.49H0V9.375Z" fill="#005BAE"/>
<path fill-rule="evenodd" clip-rule="evenodd" d="M-3.8147e-05 34.26H74.6666V40.49H-3.8147e-05V34.26Z" fill="#005BAE"/>
<path fill-rule="evenodd" clip-rule="evenodd" d="M-3.8147e-05 40.49H74.6666V46.7083H-3.8147e-05V40.49Z" fill="white"/>
<path fill-rule="evenodd" clip-rule="evenodd" d="M-3.8147e-05 46.7083H74.6666V52.9266H-3.8147e-05V46.7083Z" fill="#005BAE"/>
<path fill-rule="evenodd" clip-rule="evenodd" d="M-3.8147e-05 52.9266H74.6666V59.1566H-3.8147e-05V52.9266Z" fill="white"/>
<path fill-rule="evenodd" clip-rule="evenodd" d="M12.4444 9.375H18.6666V40.4861H12.4444V9.375Z" fill="white"/>
<path fill-rule="evenodd" clip-rule="evenodd" d="M-3.8147e-05 21.8195H31.1111V28.0417H-3.8147e-05V21.8195Z" fill="white"/>
<path d="M-3.8147e-05 59.1567H74.6666V65.375H-3.8147e-05V59.1567Z" fill="#005BAE"/>
</g>
<defs>
<clipPath id="clip0_1_61638">
<rect width="74.6667" height="56" fill="white" transform="translate(0 9.375)"/>
</clipPath>
</defs>
</svg>
