<svg width="75" height="75" viewBox="0 0 75 75" fill="none" xmlns="http://www.w3.org/2000/svg">
<rect width="74.6667" height="74.75" fill="white"/>
<g clip-path="url(#clip0_1_61494)">
<path d="M0 9.375H74.6667V65.375H0V9.375Z" fill="#000066"/>
<path d="M54.9499 49.625C54.9499 49.625 54.6466 50.4183 54.4833 50.4183C54.2966 50.4183 53.6666 50.0683 53.6666 50.0683C53.6666 50.0683 53.2116 50.815 52.9666 50.85C52.7333 50.8967 52.1033 50.745 52.1033 50.745C52.1033 50.745 51.4966 50.745 51.4733 50.6633C51.4499 50.57 51.4966 50.395 51.4966 50.395C51.4966 50.395 50.6216 51.095 50.4349 51.0483C50.2366 51.0133 49.5833 50.185 49.5833 50.185L49.4666 50.6167L48.2299 50.57L47.1449 49.87C47.1449 49.87 46.5383 50.8733 46.5149 50.85C46.4916 50.8383 45.4533 51.095 45.4533 51.095L45.3833 50.8967L44.6833 50.4883C44.6833 50.4883 45.2316 49.73 45.2316 49.7067C45.2316 49.6833 44.9749 49.59 44.9749 49.59L44.5783 49.9167L43.7733 50.4417L42.9683 50.0683L43.3183 49.415L43.3649 48.9483L43.9949 47.98L51.7183 40.4783L55.5216 47.5017L54.9499 49.625Z" fill="#6A4C2D" stroke="black" stroke-width="0.116667"/>
<path d="M60.4332 50.0683L62.4516 49.9983L61.5883 49.5783L69.2532 49.2867L68.1682 48.8783L67.2116 47.5717L63.2449 47.28C63.2449 47.28 62.9416 47.0467 62.4633 47.1633C62.4399 46.86 62.0666 46.4633 62.0666 46.4633L59.6166 46.265L58.0999 47.315L59.1266 49.9517L60.4332 50.0683Z" fill="white" stroke="black" stroke-width="0.116667"/>
<path d="M52.6166 27.575L52.8266 26.875C52.8266 26.875 53.1766 26.2917 53.1766 26.0117C53.1766 25.755 53.4449 25.44 53.4449 25.44C53.4449 25.44 54.2499 25.2067 54.4249 25.7084C55.2882 24.39 56.3149 25.6384 56.3149 25.6384L56.5949 25.3117L57.1782 24.6117C57.1782 24.6117 57.9949 25.37 57.9949 25.4984C58.0182 25.6384 58.1466 25.545 58.1466 25.545L59.0332 25.475C59.0042 25.6501 59.02 25.8296 59.0792 25.9969C59.1383 26.1642 59.2389 26.3138 59.3716 26.4317C59.6866 26.6184 59.9666 27.715 59.9666 27.715L52.6166 27.575Z" fill="url(#paint0_linear_1_61494)" stroke="black" stroke-width="0.116667"/>
<path d="M60.4332 35.7533C60.5966 35.66 61.0749 35.5083 61.0166 34.7967C60.9582 34.0967 60.3516 34.0033 60.0016 34.0267C59.6516 34.05 59.3599 34.3533 59.3599 34.3533L58.2166 33.63C58.2166 33.63 58.7882 30.0483 59.3832 29.8267C59.9666 29.4183 60.0599 29.2433 60.0599 29.15C60.0599 29.045 59.8499 28.8117 59.8499 28.8117L56.1516 28.38L52.6516 28.7883C52.6516 28.7883 52.3949 29.2083 52.4182 29.3717C52.4649 29.535 52.4766 29.71 53.0949 30.1883C53.7949 30.725 54.2616 33.7817 54.2616 33.7817C54.2616 33.7817 53.2932 34.2717 53.2232 34.2017C53.1649 34.1433 52.8732 34.085 52.7216 34.1083C52.5699 34.1317 52.0566 34.4 52.0566 35.065C52.0566 35.7417 52.5699 36.1267 52.5699 36.1267C52.5699 36.1267 55.9066 35.7417 56.4082 36.6633C56.8866 35.555 60.0599 35.94 60.4449 35.7533H60.4332Z" fill="#656263" stroke="black" stroke-width="0.116667"/>
<path d="M64.0383 32.0316C64.0383 32.0316 64.0733 31.6466 64.3533 31.46C64.6333 31.2733 66.4766 31.18 66.9199 31.46C67.3633 31.74 67.5266 33.105 67.5266 33.105C67.5266 33.105 67.8066 33.5833 67.8299 33.945C67.8416 34.295 67.8883 34.5283 67.8883 34.5283C67.8883 34.5283 69.3583 36.4533 69.3816 38.1916C69.5449 39.37 69.5099 42.5316 69.0433 43.7333C69.0463 44.603 68.8253 45.4588 68.4016 46.2183C68.4016 46.2183 68.5533 46.475 68.5299 46.755C68.5066 47.0233 68.3666 47.2916 68.3666 47.2916L70.5249 48.3533L69.7316 48.0616L70.5249 48.7266L69.6266 48.3066L70.1516 48.8433C70.1399 48.82 68.8449 48.2483 68.8449 48.2483L69.4283 48.7966L68.4366 48.33C68.4366 48.33 69.0199 48.9716 69.0199 48.9366C68.7378 48.7995 68.4497 48.6749 68.1566 48.5633L68.2033 48.8783C68.2033 48.8783 67.5266 48.8433 67.5266 48.3416C67.3213 48.2241 67.1362 48.0744 66.9783 47.8983L65.4383 47.6416L63.6999 42.4383L64.1083 33.665L64.2249 33.2216L64.0383 32.0316Z" fill="black" stroke="black" stroke-width="0.116667" stroke-linejoin="round"/>
<path d="M62.8833 60.1017C62.8833 60.1017 61.9849 58.235 61.5416 58.2C61.1449 57.43 62.9416 51.2 66.4066 50.8383C68.3083 50.99 66.5583 53.0317 65.3099 52.4017C65.5021 52.8854 65.7655 53.3376 66.0916 53.7433C66.0916 53.7433 63.6066 54.8167 62.8716 60.1017H62.8833Z" fill="#FFBB00" stroke="black" stroke-width="0.116667"/>
<path d="M50.9482 60.37C50.9482 60.37 51.6832 58.235 52.1266 58.2117C52.5816 58.1883 50.9482 51.1067 47.3899 51.06C45.4766 51.2117 47.2382 53.265 48.4982 52.635C48.3023 53.1194 48.0349 53.5716 47.7049 53.9767C47.7049 53.9767 50.2132 55.05 50.9482 60.37Z" fill="#FFBB00" stroke="black" stroke-width="0.116667"/>
<path d="M54.2033 47.0583C54.2033 47.035 53.3166 47.3267 53.8883 48.2833C53.9233 47.91 54.3199 47.7 54.3199 47.7C54.3199 47.7 53.7249 48.4 54.3549 48.995C54.4366 48.435 54.7983 48.26 54.7983 48.26C54.7983 48.26 54.3433 49.5667 54.7983 49.835C54.8566 49.31 55.1833 49.0767 55.1833 49.0767C55.1833 49.0767 54.7866 50.2433 55.1483 50.5117C55.1833 50.0683 55.4866 49.87 55.4866 49.87C55.4866 49.87 55.3116 51.095 55.7783 51.1767C55.7783 50.745 56.1283 50.325 56.1283 50.325C56.1283 50.325 55.9766 51.3167 56.7116 51.3633C56.7116 50.99 56.8516 50.5583 56.8516 50.5583C56.8516 50.5583 57.1899 51.6083 57.6683 51.445V50.5467C57.6683 50.5467 57.9833 51.55 58.5666 51.3633C58.4849 51.0833 58.6016 50.745 58.6016 50.745C58.6016 50.745 58.9049 51.375 59.4649 51.165C59.5583 50.9783 59.4416 50.605 59.4416 50.605C59.4416 50.605 60.2583 51.445 60.4916 50.9433C60.7483 50.4417 59.8499 50.2667 59.8499 50.2667H60.4566C60.4566 50.2667 60.2583 49.7533 59.4416 49.6367C59.7216 49.52 60.0133 49.6133 60.0133 49.6133C60.0133 49.6133 59.8383 48.9717 58.9983 48.9017C59.3249 48.785 59.6983 48.8667 59.6983 48.8667C59.6983 48.8667 59.5816 48.26 58.6483 48.085C58.7999 47.9217 59.1966 47.9683 59.1966 47.9683C59.1966 47.9683 58.8233 47.3967 58.4033 47.4317C57.9833 47.4667 54.2033 47.0467 54.2033 47.0583Z" fill="#00713D" stroke="black" stroke-width="0.116667"/>
<path d="M57.9366 50.15C57.9366 50.15 58.2866 50.3134 58.2632 50.4534" stroke="#3EC26D" stroke-width="0.113762" stroke-linecap="round"/>
<path d="M58.1349 49.8817C58.1349 49.8817 58.5666 50.185 58.5549 50.4067" stroke="#3EC26D" stroke-width="0.113762" stroke-linecap="round"/>
<path d="M58.5199 49.73C58.5199 49.73 58.8583 49.94 58.8699 50.2783" stroke="#3EC26D" stroke-width="0.113762" stroke-linecap="round"/>
<path d="M59.0916 49.8583C59.0916 49.8583 59.2549 50.2317 59.2082 50.3017" stroke="#3EC26D" stroke-width="0.113762" stroke-linecap="round"/>
<path d="M59.4299 50.0566C59.4533 50.3483 59.4066 50.3833 59.4066 50.3833" stroke="#3EC26D" stroke-width="0.113762" stroke-linecap="round"/>
<path d="M55.2066 48.225C55.2066 48.225 55.6149 48.4816 55.5799 48.8433" stroke="#3EC26D" stroke-width="0.113762" stroke-linecap="round"/>
<path d="M55.1833 48.5283C55.1833 48.5283 55.3699 48.715 55.3349 48.8317" stroke="#3EC26D" stroke-width="0.113762" stroke-linecap="round"/>
<path d="M55.6849 48.225C55.6849 48.225 55.9532 48.5983 55.8599 48.855" stroke="#3EC26D" stroke-width="0.113762" stroke-linecap="round"/>
<path d="M56.1399 48.47C56.1399 48.47 56.2566 48.7033 56.1399 48.82" stroke="#3EC26D" stroke-width="0.113762" stroke-linecap="round"/>
<path d="M56.3499 48.575C56.3499 48.575 56.4899 48.8083 56.3616 48.89" stroke="#3EC26D" stroke-width="0.113762" stroke-linecap="round"/>
<path d="M56.1866 49.345C56.1866 49.345 56.5599 49.4266 56.6182 49.7066" stroke="#3EC26D" stroke-width="0.113762" stroke-linecap="round"/>
<path d="M56.4083 49.0883C56.4083 49.0883 56.8049 49.1117 56.8516 49.5317" stroke="#3EC26D" stroke-width="0.113762" stroke-linecap="round"/>
<path d="M56.9333 48.9366C56.9333 48.9366 57.2016 49.4033 57.1549 49.5433" stroke="#3EC26D" stroke-width="0.113762" stroke-linecap="round"/>
<path d="M57.4349 48.9833C57.4349 48.9833 57.5399 49.415 57.4582 49.5667" stroke="#3EC26D" stroke-width="0.113762" stroke-linecap="round"/>
<path d="M57.7616 49.1583V49.66" stroke="#3EC26D" stroke-width="0.113762" stroke-linecap="round"/>
<path d="M57.2716 48.47C57.2716 48.47 57.5049 48.5633 57.5049 48.8083" stroke="#3EC26D" stroke-width="0.113762" stroke-linecap="round"/>
<path d="M57.4933 48.2484C57.4933 48.2484 57.8083 48.4234 57.7849 48.7734" stroke="#3EC26D" stroke-width="0.113762" stroke-linecap="round"/>
<path d="M57.8666 48.1083C57.8666 48.1083 58.1349 48.4233 58.0416 48.785" stroke="#3EC26D" stroke-width="0.113762" stroke-linecap="round"/>
<path d="M58.3333 48.1783C58.3333 48.1783 58.2399 48.5867 58.2866 48.75" stroke="#3EC26D" stroke-width="0.113762" stroke-linecap="round"/>
<path d="M58.6366 48.4583C58.6366 48.4583 58.4616 48.5866 58.5549 48.7616" stroke="#3EC26D" stroke-width="0.113762" stroke-linecap="round"/>
<path d="M57.0732 50.0217C57.0732 50.0217 57.1316 50.325 57.0732 50.3717" stroke="#3EC26D" stroke-width="0.113762" stroke-linecap="round"/>
<path d="M56.6883 49.835C56.6883 49.835 56.8749 50.185 56.8049 50.3484" stroke="#3EC26D" stroke-width="0.113762" stroke-linecap="round"/>
<path d="M56.2682 49.8234C56.2682 49.8234 56.4899 50.08 56.4783 50.29" stroke="#3EC26D" stroke-width="0.113762" stroke-linecap="round"/>
<path d="M55.9182 49.87C55.9182 49.87 56.1282 50.0683 56.1049 50.185" stroke="#3EC26D" stroke-width="0.113762" stroke-linecap="round"/>
<path d="M55.7433 50.1733C55.7433 50.1733 55.9416 50.3833 55.9299 50.4183" stroke="#3EC26D" stroke-width="0.113762" stroke-linecap="round"/>
<path d="M51.4849 36.1267L54.3199 36.0684C54.3199 36.0684 56.1866 36.0684 56.3849 36.675C56.7349 35.87 58.3683 35.9167 58.3683 35.9167L61.2849 35.8234L61.3433 42.8934C60.7599 45.6467 58.7766 47.5834 56.5949 48.4117C55.3713 47.9953 54.2808 47.2601 53.4359 46.2819C52.591 45.3037 52.0223 44.1179 51.7883 42.8467L51.4849 36.1267Z" fill="white" stroke="black" stroke-width="0.116667"/>
<path d="M52.4999 36.0917L56.6182 47.0817L60.3516 35.8583C59.1849 35.9283 56.7116 35.6717 56.3966 36.7333C55.9299 35.7883 53.3166 36.1617 52.4883 36.0917H52.4999Z" fill="#006B00" stroke="black" stroke-width="0.116667"/>
<path d="M55.2999 42.0417C55.4633 42.1233 55.4516 39.0667 55.6616 38.9733L55.8249 38.3317C55.6499 38.0167 54.8449 38.0283 54.5416 38.3083L54.7399 38.8683C55.1483 39.5217 55.0666 42.1117 55.2999 42.0417Z" fill="#FFC900" stroke="#006B00" stroke-width="0.0583333" stroke-linecap="round"/>
<path d="M54.1916 18.3583C54.1916 18.3583 54.4832 18.02 54.4949 17.95C54.5182 17.8683 55.8249 17.81 56.5949 16.3516C57.0382 15.5933 56.5949 16.0366 56.5949 16.0366L56.5832 15.675C56.5832 15.675 57.1199 15.1616 56.9332 14.8816C56.7232 14.6016 56.7932 15.2316 56.4666 15.2316C56.1516 15.22 56.3266 14.5316 56.3266 14.5316C56.3266 14.5316 56.3032 14.4616 56.2099 14.415C56.0816 14.4383 56.1166 14.6716 55.9999 14.695C55.8832 14.73 55.7666 14.1466 55.7666 14.1466C55.7666 14.1466 55.5682 13.8783 55.4049 14.7066C55.4982 15.605 56.0582 15.43 56.0582 16.0133C56.0582 16.5966 55.5566 17.04 55.4166 17.0633C55.2649 17.0633 55.3232 16.5616 55.3232 16.5616C55.3232 16.5616 55.2416 16.3283 55.1949 16.3283C55.1366 16.3283 55.4866 16.27 55.4282 15.6166C55.3116 14.8233 55.2182 15.8033 55.0082 15.7566C54.7866 15.7216 54.9499 15.0333 55.0316 14.94C55.1132 14.87 54.9382 14.5433 54.4716 15.3833C54.4366 15.8033 54.3782 15.2783 54.2849 15.3133C54.1332 15.64 54.1566 15.8733 54.3782 16.1766C54.7166 16.4916 54.9266 16.795 54.9149 16.9466C54.9032 17.11 54.7282 17.4716 54.4832 17.4716C54.2499 17.4716 54.4949 17.0283 54.4832 16.8883C54.4832 16.7366 54.0749 16.2116 54.0749 16.2116C54.0749 16.2116 53.7949 15.7566 53.8299 15.745C53.8532 15.7333 53.7949 15.6633 53.6666 16.13C53.5382 16.5966 53.3749 15.8266 53.3749 15.8266C53.3749 15.8266 53.1882 16.3983 53.5849 16.7366C53.2816 16.7016 53.2582 16.8183 53.2582 16.8183C53.2582 16.9816 53.6666 17.0516 53.7249 17.32C53.7716 17.6 53.2932 17.7633 53.2932 17.7633C53.2932 17.7633 53.4916 18.0316 54.0516 17.495C54.0632 17.845 53.8416 18.0783 53.8416 18.0783C54.0282 18.16 54.1682 18.1483 54.1916 18.37V18.3583Z" fill="#CDAD56" stroke="black" stroke-width="0.116667" stroke-linejoin="round"/>
<path d="M52.3833 18.3583C52.3833 18.3583 52.1266 17.985 52.1149 17.915C52.1149 17.845 50.9016 18.0083 50.3299 16.5383C49.9566 15.8383 50.3299 16.2467 50.3299 16.2467L50.3533 15.9083C50.3533 15.9083 49.9566 15.43 50.1199 15.1733C50.2949 14.9167 50.2366 15.5 50.4466 15.5C50.7149 15.4883 50.5633 14.87 50.5633 14.87C50.5633 14.87 50.5866 14.8 50.6799 14.765C50.7849 14.7767 50.8316 15.1383 50.9249 15.1617C51.0299 15.185 51.2399 14.7417 51.3099 14.6483C51.4033 14.6367 51.3916 14.275 51.5433 15.0333C51.4616 15.8383 50.7966 15.675 50.7966 16.2C50.7966 16.7367 51.2166 17.145 51.3449 17.1567C51.4616 17.18 51.4266 16.7133 51.4266 16.7133C51.4266 16.7133 51.4966 16.5033 51.5433 16.5033C51.5783 16.5033 51.1466 16.585 51.1933 15.9783C51.2866 15.4183 51.5083 16.0133 51.6949 15.9783C51.8699 15.9433 51.6716 15.395 51.7183 15.3017C51.7299 15.2083 51.9983 14.8467 52.1033 15.6517C52.1383 16.0367 52.3366 15.3367 52.4183 15.36C52.5583 15.6633 52.3599 16.06 52.1733 16.34C51.8933 16.62 51.7649 16.9233 51.7766 17.0633C51.7766 17.215 51.8466 17.39 52.0566 17.39C52.2549 17.39 52.1149 17.1333 52.1266 17.005C52.1383 16.8767 52.4766 16.445 52.4766 16.445C52.5466 16.3283 52.4883 16.1417 52.5583 16.0483C52.6749 16.0483 52.7216 15.8967 52.8266 16.3167C52.9433 16.7367 53.0716 16.0367 53.0716 16.0367C53.0716 16.0367 53.2349 16.5617 52.8966 16.8767C53.1533 16.8417 53.1766 16.9467 53.1766 16.9467C53.1766 17.0867 53.0599 17.145 53.0133 17.4133C53.0014 17.4831 53.007 17.5547 53.0294 17.6218C53.0517 17.689 53.0903 17.7496 53.1416 17.7983C53.1416 17.7983 52.9783 18.055 52.4999 17.565C52.4987 17.7565 52.5647 17.9423 52.6866 18.09C52.5233 18.1717 52.4066 18.16 52.3833 18.3583Z" fill="#CDAD56" stroke="black" stroke-width="0.105" stroke-linejoin="round"/>
<path d="M59.6516 37.725C59.4182 37.515 59.3832 37.7017 59.2549 37.655C59.1966 37.6317 59.1499 37.5733 59.1032 37.5267C59.0566 37.48 58.9982 37.4567 58.9399 37.4333L58.8699 37.6317C58.8466 37.7017 58.9399 37.8067 58.9399 37.9117C58.9166 38.0633 58.8582 38.18 58.6716 38.2267C58.7299 38.1217 58.7532 38.1217 58.7416 37.9933C58.7416 37.935 58.5549 37.8183 58.5782 37.76C58.6016 37.655 58.6599 37.55 58.6249 37.445C58.5432 37.5033 58.4499 37.4683 58.3682 37.5033C58.3099 37.5383 58.2982 37.655 58.2166 37.7017C58.1232 37.7483 57.9249 37.725 57.7499 37.6317C57.8549 37.55 57.9366 37.6083 58.0416 37.515C58.0882 37.4917 58.0882 37.3167 58.1466 37.2817L58.3682 37.165C58.3216 37.1067 58.3216 37.025 58.2749 36.9783C58.2282 36.92 58.0299 36.9317 57.9832 36.885C57.8899 36.7683 57.9016 36.64 57.8199 36.535C58.0532 36.6167 58.0182 36.7333 58.0766 36.7217C58.1932 36.6633 58.3099 36.6633 58.3682 36.6867C58.4266 36.71 58.5316 36.8617 58.6016 36.885L58.6716 36.6633C58.6949 36.5933 58.5782 36.4883 58.5899 36.4183C58.6366 36.29 58.7532 36.1733 58.7999 36.0333L58.8466 36.395C58.8582 36.465 58.9866 36.5 58.9866 36.5583C58.9982 36.6283 58.9282 36.7683 58.9282 36.8383C58.9982 36.8267 59.1032 36.8383 59.1616 36.815C59.2432 36.8033 59.2782 36.64 59.3482 36.6283C59.4882 36.605 59.5816 36.6167 59.7332 36.6283C59.6166 36.7333 59.5466 36.7217 59.4882 36.815C59.4299 36.85 59.4999 36.9783 59.3599 37.0717C59.3016 37.1067 59.1499 37.0717 59.1032 37.1067L59.2432 37.2583C59.2899 37.3167 59.4882 37.34 59.5349 37.3983C59.6282 37.4917 59.6749 37.6317 59.6516 37.7367V37.725Z" fill="#FFC900"/>
<path d="M53.3166 37.8416C53.5499 37.62 53.5849 37.8183 53.7133 37.76C53.7716 37.7366 53.8183 37.69 53.8649 37.6433C53.9116 37.585 53.9699 37.5733 54.0283 37.5383L54.0983 37.7483C54.1216 37.8066 54.0283 37.9233 54.0283 38.0166C54.0516 38.1683 54.1099 38.285 54.2966 38.3433C54.2383 38.2266 54.2149 38.2266 54.2266 38.11C54.2266 38.04 54.4133 37.9233 54.3899 37.865C54.3666 37.7716 54.3083 37.655 54.3433 37.5616C54.4249 37.6083 54.5183 37.585 54.5999 37.6083C54.6583 37.6433 54.6699 37.76 54.7516 37.8066C54.8449 37.8533 55.0433 37.83 55.2183 37.7366C55.1133 37.655 55.0316 37.7133 54.9266 37.6316C54.8799 37.5966 54.8799 37.4216 54.8216 37.3983C54.7749 37.3516 54.6466 37.305 54.5999 37.27C54.6466 37.2116 54.6466 37.13 54.6933 37.0833C54.7399 37.025 54.9383 37.0366 54.9849 36.99C55.0783 36.8733 55.0666 36.745 55.1483 36.64C54.9149 36.7216 54.9499 36.8383 54.8916 36.8266C54.7749 36.78 54.6583 36.7683 54.5999 36.7916C54.5416 36.815 54.4366 36.9666 54.3666 36.99L54.2966 36.7683C54.2733 36.71 54.4016 36.5933 54.3783 36.535C54.3316 36.395 54.2149 36.2783 54.1683 36.1383L54.1216 36.5116C54.1099 36.57 53.9816 36.605 53.9816 36.6633C53.9699 36.7333 54.0399 36.885 54.0399 36.9433C53.9699 36.9316 53.8649 36.9433 53.8066 36.92C53.7249 36.92 53.6899 36.7566 53.6199 36.7333C53.4799 36.71 53.3866 36.7216 53.2349 36.745C53.3516 36.8383 53.4216 36.8383 53.4916 36.92C53.5383 36.9666 53.4683 37.095 53.6083 37.1766C53.6666 37.2116 53.8183 37.1766 53.8649 37.2116L53.7249 37.375C53.6783 37.4216 53.4799 37.445 53.4333 37.4916C53.3399 37.6083 53.2933 37.725 53.3166 37.8416Z" fill="#FFC900"/>
<path d="M59.4299 38.4483C59.2083 38.6233 57.7616 38.985 57.7499 40.2333C57.7383 41.4933 58.0066 41.7733 57.7383 41.8083C57.2133 41.8083 57.1433 40.4083 57.1549 39.79C57.1666 39.1717 57.1899 39.265 57.1899 39.265C57.1899 39.265 57.5399 39.3583 57.5166 39.6617C57.4816 39.965 57.8666 38.915 57.7383 38.635C57.9716 38.8683 58.2866 38.775 58.2866 38.7517C58.2866 38.7517 58.1116 38.5533 58.0299 38.4017C57.9599 38.2733 58.2983 38.495 58.2983 38.495C58.2983 38.495 58.3216 38.2617 58.0183 38.2617C57.6333 38.2617 58.0766 38.145 58.0766 38.145C58.0766 38.145 58.3099 38.3433 58.4499 38.1217C58.3357 38.0081 58.2011 37.9171 58.0533 37.8533C58.0533 37.8533 57.8433 37.4567 57.5633 37.3867C57.2366 37.305 57.2716 37.5267 56.8983 37.4917C56.8283 37.6317 56.8283 37.655 56.9799 37.7017C56.7233 37.8767 56.8633 38.215 56.8633 38.215C56.8633 38.215 57.2599 38.0517 57.2483 38.3317C57.2366 38.6233 57.0149 38.565 56.8633 38.39C56.7233 38.32 56.6766 38.4717 56.6766 38.4717L56.8866 38.705C56.8866 38.705 56.4899 38.6817 56.3849 38.95C56.6066 38.9383 56.7349 38.9967 56.7349 38.9967C56.7349 38.9967 56.2683 39.2067 56.2216 39.3117C56.1749 39.4283 56.1633 39.195 56.1399 39.195L55.6966 39.0317L55.5449 39.72C55.5449 39.72 55.8483 40.0117 56.0116 39.9183C56.1749 39.825 56.4783 39.5333 56.6533 39.615C56.1283 40.0117 55.6033 40.5833 55.3233 40.665C55.2533 40.595 54.9966 40.35 54.8916 40.4783C54.7866 40.595 54.8683 40.7583 55.0083 40.7467C55.1249 40.7233 54.5649 40.8633 54.6816 41.1083C54.7983 41.3417 54.7983 41.33 54.8916 41.2717C55.0083 41.2017 54.8099 41.19 55.1949 41.0733C55.5799 40.9567 55.5683 40.8517 55.5683 40.8517C55.5683 40.8517 55.4866 41.0267 55.2766 41.085C55.0783 41.12 54.9149 41.12 54.9499 41.19C54.9966 41.2483 55.0899 41.365 55.0666 41.4233C55.0316 41.4933 55.4866 41.0967 55.6149 41.4117C55.9183 41.3883 56.1283 41.015 55.9766 40.7933C55.9999 41.0267 56.1399 41.1083 56.0583 41.225C55.9649 41.33 56.7583 40.8517 56.3733 40.5717C56.4666 40.805 56.4899 40.9917 56.4899 40.9917C56.4899 40.9917 56.6649 40.9917 56.7116 40.9217C56.7583 40.8517 56.6183 41.0967 56.6766 41.1433C56.7349 41.19 57.0266 41.4583 56.9099 41.645C56.8283 41.5283 56.8166 41.365 56.7233 41.3767C56.6299 41.3883 56.2566 41.6683 56.0349 41.68C55.8133 41.6917 56.3033 42.4967 56.3033 42.4967C56.3033 42.4967 55.9649 42.4617 55.9183 42.4967C55.8716 42.52 55.6499 42.205 55.6149 42.3917C55.5333 42.625 55.6849 42.5317 55.6849 42.5317C55.6849 42.5317 55.4866 42.4383 55.3816 42.555C55.2766 42.6717 55.1833 42.7767 55.2533 42.8233C55.3233 42.87 55.6499 42.87 55.6966 42.8583C55.7433 42.835 55.3233 42.8817 55.2999 42.9283C55.2649 42.975 55.2066 43.1617 55.2999 43.22C55.3816 43.2783 55.6149 43.185 55.6266 43.1383C55.6383 43.0917 55.6499 43.3133 55.6499 43.3133C55.6499 43.3133 56.0349 43.3483 56.0349 42.9517C56.0349 42.555 56.0699 43.2317 56.0699 43.2317C56.0699 43.2317 56.4549 43.3017 56.4666 42.905C56.4899 42.5083 56.5133 43.1733 56.5133 43.1733C56.5133 43.1733 56.7699 43.0917 56.7699 43.0333C56.7699 42.9633 56.7583 43.815 56.5716 44.06C56.2916 43.8733 56.1049 44.1767 56.1049 44.1767C56.1049 44.1767 56.1283 44.6433 56.1049 44.76C56.0699 44.8767 56.2916 44.69 56.3033 44.6433C56.3266 44.5967 56.5949 44.4683 56.6066 44.445L56.6999 44.2467C56.6999 44.2467 56.6299 44.48 56.5366 44.5033C56.4199 44.5383 56.3266 44.6433 56.3733 44.7367C56.4083 44.8417 56.5716 44.9 56.6299 44.9933C56.6999 45.0867 56.8983 44.445 56.8983 44.445L56.9216 44.585C56.9216 44.585 57.1899 44.515 57.2133 44.3867C57.2483 44.27 56.9333 44.1533 57.1899 43.9433C57.4349 43.745 57.1899 44.1417 57.1899 44.1417C57.1899 44.1417 57.2716 44.445 57.3299 44.445C57.3999 44.445 57.5399 43.8617 57.3999 43.7217C57.2483 43.5817 57.6216 43.8967 57.6216 43.8967C57.6216 43.8967 57.8316 43.3133 57.5983 43.2317L57.2716 43.115C57.2716 43.115 57.3883 42.9633 57.3299 42.9517C57.2716 42.9283 57.6449 43.3017 57.7033 43.1967C57.7616 43.1033 57.8549 42.8233 57.4233 42.66C56.9916 42.5083 57.4116 42.065 57.4116 42.065C57.4116 42.065 57.6799 42.38 57.8783 42.205C58.0649 42.03 57.8549 42.03 57.8549 42.03C57.8549 42.03 58.4033 41.68 58.4266 41.505C58.3099 41.4933 58.1349 41.5167 58.1349 41.5167C58.1349 41.5167 58.4499 41.3183 58.3683 40.98C58.2516 41.155 58.0883 41.155 58.0883 41.155C58.0883 41.155 58.3566 40.8867 58.3216 40.63C58.1583 40.7583 58.1699 40.8633 58.0649 40.8283C57.9599 40.7933 57.7849 39.79 58.1933 39.7317C58.6133 39.6617 58.3916 40.2217 58.4033 40.2217C58.4266 40.2217 59.0333 39.965 58.4033 39.5567C58.5549 39.51 58.8699 39.79 58.8699 39.79C58.8699 39.79 58.7299 39.09 58.0533 39.5217C58.2283 39.3467 58.3333 39.2417 58.4616 39.265C58.6016 39.3 59.0799 39.2533 59.0799 39.1133C58.9633 39.02 58.7066 39.16 58.5666 39.1133C58.4383 39.0667 59.5233 38.985 59.4299 38.4483Z" fill="#FFC900" stroke="#006B00" stroke-width="0.0583333" stroke-linecap="round" stroke-linejoin="round"/>
<path d="M54.7166 38.8567C54.7166 38.8567 55.3116 38.5183 55.6033 38.9383" stroke="#006B00" stroke-width="0.0583333" stroke-linecap="round"/>
<path d="M55.8483 39.5684C55.8366 39.5684 55.6382 39.7784 55.5916 39.7784" stroke="#006B00" stroke-width="0.0583333" stroke-linecap="round"/>
<path d="M56.2449 40.2333C56.2449 40.2333 56.8049 40.28 57.1549 39.6967" stroke="#006B00" stroke-width="0.0583333" stroke-linecap="round"/>
<path d="M56.8399 40.0583C56.8399 40.0583 56.8866 40.3734 56.9799 40.3734C57.0616 40.3734 56.8282 40.455 56.7466 40.3967C56.8399 40.5367 56.8982 40.7934 56.7466 40.8867" stroke="#006B00" stroke-width="0.0583333" stroke-linecap="round"/>
<path d="M56.5599 44.06C56.5599 44.06 56.3733 44.2817 56.1283 44.2933L56.5599 44.06Z" fill="#E80000"/>
<path d="M56.5599 44.06C56.5599 44.06 56.3733 44.2817 56.1283 44.2933" stroke="#006B00" stroke-width="0.0583333" stroke-linecap="round"/>
<path d="M56.7816 43.045C56.7816 43.045 56.6649 42.4033 56.7349 42.2516C56.7816 42.0416 56.9683 41.96 57.1316 41.6917" stroke="#006B00" stroke-width="0.0583333" stroke-linecap="round"/>
<path d="M56.7232 42.5783C56.7232 42.5783 56.5716 42.9633 55.9182 42.835" stroke="#006B00" stroke-width="0.0583333" stroke-linecap="round"/>
<path d="M56.8982 41.6334C56.8982 41.6334 56.9449 42.135 56.3499 41.9484" stroke="#006B00" stroke-width="0.0583333" stroke-linecap="round"/>
<path d="M56.1749 39.3583C56.1749 39.3583 55.9416 39.5683 56.0233 39.8717" stroke="#006B00" stroke-width="0.0583333" stroke-linecap="round"/>
<path d="M57.0616 38.7867C57.0616 38.7867 57.3766 38.67 57.4349 38.6C57.5178 38.5197 57.585 38.4248 57.6333 38.32C57.6566 38.2267 57.4233 38.0867 57.5399 37.8767C57.6216 37.7717 57.7266 37.76 57.8899 37.8767C58.0766 37.9933 57.7382 37.5267 57.5632 37.5033C57.3766 37.4917 57.2599 37.6316 57.2132 37.5966C57.1666 37.5733 57.2249 37.725 57.1549 37.725C57.0849 37.725 57.3066 37.8533 57.2949 37.935C57.2716 38.0167 57.5283 38.285 57.5166 38.3433C57.4933 38.4133 57.1433 38.775 57.0616 38.7867Z" fill="#006B00"/>
<path d="M57.2833 37.7484C57.4233 37.7134 57.4466 37.7484 57.4233 37.865C57.3714 37.8375 57.3272 37.7974 57.2949 37.7484H57.2833Z" fill="#FFC900" stroke="#FFC900" stroke-width="0.0583333" stroke-linecap="round" stroke-linejoin="round"/>
<path d="M56.3499 44.8066C56.3499 44.8066 56.2916 45.145 56.4082 45.1683C56.4082 45.0516 56.4432 44.9583 56.4666 44.9233L56.3499 44.8066Z" fill="#E80000" stroke="#006B00" stroke-width="0.0583333" stroke-linejoin="round"/>
<path d="M56.0582 44.3983C55.9416 44.3867 55.7666 44.4917 55.8249 44.6083C55.9066 44.5267 55.9882 44.6083 56.0582 44.5267V44.41V44.3983Z" fill="#E80000" stroke="#006B00" stroke-width="0.0583333" stroke-linejoin="round"/>
<path d="M56.0583 44.165C56.0583 44.165 55.8833 44.1417 55.8599 44.27C55.9766 44.2467 56.0233 44.235 56.0583 44.27V44.165Z" fill="#E80000" stroke="#006B00" stroke-width="0.0583333" stroke-linejoin="round"/>
<path d="M55.3116 42.2983C55.3116 42.2983 55.4282 42.3333 55.4516 42.45C55.5332 42.4033 55.5683 42.1467 55.3116 42.2983Z" fill="#E80000" stroke="#006B00" stroke-width="0.07" stroke-linejoin="round"/>
<path d="M55.0432 42.5783C55.0432 42.5783 55.2766 42.4383 55.2882 42.5783C55.2416 42.6133 55.2299 42.6483 55.1949 42.66C55.1599 42.66 55.1016 42.5667 55.0432 42.5783Z" fill="#E80000" stroke="#006B00" stroke-width="0.07" stroke-linejoin="round"/>
<path d="M55.0316 43.0333C55.0316 43.0333 55.1716 42.9167 55.2182 42.9867C55.2766 43.08 55.1716 43.0683 55.1716 43.0683L55.0316 43.0333Z" fill="#E80000" stroke="#006B00" stroke-width="0.07" stroke-linejoin="round"/>
<path d="M54.8333 40.4783C54.8333 40.4783 54.6583 40.4083 54.5883 40.5367C54.7049 40.56 54.7399 40.595 54.7983 40.6417C54.7749 40.5833 54.7516 40.5017 54.8333 40.4783Z" fill="#E80000" stroke="#006B00" stroke-width="0.07" stroke-linejoin="round"/>
<path d="M54.4949 41.4466C54.4949 41.4466 54.4949 41.225 54.6116 41.1433C54.6583 41.1783 54.6699 41.225 54.7049 41.2833C54.6349 41.3066 54.5416 41.3066 54.4949 41.4466Z" fill="#E80000" stroke="#006B00" stroke-width="0.07" stroke-linejoin="round"/>
<path d="M54.9499 41.295C54.9499 41.295 54.7632 41.3883 54.8332 41.4933C54.8916 41.4116 54.9616 41.435 54.9616 41.435V41.295H54.9499Z" fill="#E80000" stroke="#006B00" stroke-width="0.07" stroke-linejoin="round"/>
<path d="M54.6816 39.2183C54.6116 39.3 54.7632 39.475 54.9266 39.4517C54.9732 39.265 54.7282 39.16 54.6932 39.2183H54.6816Z" fill="#FFC900" stroke="#006B00" stroke-width="0.07" stroke-linejoin="round"/>
<path d="M54.8566 39.0783C54.8566 39.0783 54.8916 39.23 55.0316 39.195C55.0136 39.1119 54.9733 39.0352 54.9149 38.9733C54.9149 39.0083 54.9266 39.0667 54.8566 39.0783Z" fill="#E80000" stroke="#006B00" stroke-width="0.07" stroke-linejoin="round"/>
<path d="M54.9499 39.51C54.9499 39.51 55.0316 39.6033 55.1833 39.4283C55.1133 39.44 54.9966 39.3817 54.9966 39.3817C54.9966 39.3817 54.9966 39.4983 54.9499 39.51Z" fill="#E80000" stroke="#006B00" stroke-width="0.07" stroke-linejoin="round"/>
<path d="M54.6699 38.8683C54.6116 38.95 54.7049 39.0667 54.8683 39.0433C54.9033 38.845 54.7166 38.81 54.6699 38.8683Z" fill="#FFC900" stroke="#006B00" stroke-width="0.07" stroke-linejoin="round"/>
<path d="M54.7399 38.11C54.7399 38.11 55.3816 37.9233 55.7199 38.2033C56.0699 38.4716 56.0699 38.2266 56.0699 38.2266C56.0699 38.2266 56.5599 38.4133 56.6999 38.3666C56.8399 38.3316 56.5949 38.39 56.7932 38.2616C56.9916 38.145 56.3966 38.2966 56.3499 38.04C56.2566 37.8883 56.3499 37.69 56.1516 37.76C56.0116 37.5733 56.2449 37.445 56.1866 37.2466C56.0466 37.3633 55.9649 37.2116 55.8483 37.48C55.5799 37.4216 55.8132 37.0366 55.5099 37.0016C55.5099 37.27 55.2882 37.2816 55.2766 37.445C55.1482 37.5383 54.5766 37.8766 54.7399 38.11Z" fill="url(#paint1_linear_1_61494)"/>
<path d="M47.3666 58.9583C47.7866 58.8417 50.0382 59.4483 50.9016 60.3817C50.7149 58.7133 50.2599 57.4533 50.2599 57.4533C50.2599 57.4533 48.9182 57.0683 48.7432 57.255C48.2204 57.7637 47.7585 58.3314 47.3666 58.9467V58.9583Z" fill="#C01500" stroke="black" stroke-width="0.116667"/>
<path d="M46.6783 51.2933C46.5266 51.3167 46.3633 51.4217 46.2116 51.69C46.0249 52.1333 45.8966 53.265 45.6283 53.5333C45.3716 53.79 45.1266 53.8133 45.1266 54.0583C45.1266 54.2917 45.1616 54.84 45.8616 55.05C46.5733 55.085 47.7049 53.9183 47.7049 53.9183C47.7049 53.9183 48.2883 53.2883 48.5216 52.6117C47.1566 53.0783 46.1883 51.8183 46.6783 51.2933Z" fill="#C01500" stroke="black" stroke-width="0.116667"/>
<path d="M66.4649 58.69C65.1634 58.7747 63.922 59.2688 62.9182 60.1017C63.1049 58.4567 63.5599 57.185 63.5599 57.185C63.7116 57.15 64.8782 56.8117 65.0532 56.9983C65.3216 57.2783 66.1849 58.13 66.4649 58.69Z" fill="#C01500" stroke="black" stroke-width="0.116667"/>
<path d="M67.1066 51.0717C67.2582 51.095 67.3166 51.305 67.4566 51.5617C67.6316 52.0167 67.8066 52.6583 68.0749 52.915C68.3432 53.1833 68.5766 53.5683 68.5766 53.8017C68.5766 54.035 68.5182 54.3617 67.8182 54.5717C67.1182 54.595 66.0916 53.685 66.0916 53.685C66.0916 53.685 65.5082 53.0667 65.2749 52.3783C66.6399 52.845 67.5149 51.6433 67.1066 51.0717Z" fill="#C01500" stroke="black" stroke-width="0.116667"/>
<path d="M45.8966 57.5C45.8966 57.5 47.3083 58.48 47.3433 58.9233C51.1583 53.265 60.8883 51.5033 66.4416 58.5267C67.1766 57.5583 67.9349 57.2433 67.9349 57.2433C62.1016 49.6133 50.4699 50.5583 45.8849 57.5H45.8966Z" fill="#FFBB00" stroke="black" stroke-width="0.116667"/>
<path d="M60.3633 35.8583L60.9233 35.8467L59.9316 37.1067L61.1216 38.495L58.7766 41.4467L60.9932 44.1067C60.7671 44.6907 60.4608 45.2404 60.0832 45.74L58.8116 44.34L61.1332 41.4583L59.2432 39.3117L60.3633 35.8583Z" fill="#1E5AA6" stroke="black" stroke-width="0.0910092"/>
<path d="M52.4183 36.115H51.8349L52.9433 37.3283L51.7649 38.7983L54.2149 41.4583L52.1849 44.1767C52.4183 44.76 52.7683 45.4367 53.1533 45.9267L54.3549 44.3983L51.8816 41.645L53.6899 39.3467L52.4183 36.115Z" fill="#1E5AA6" stroke="black" stroke-width="0.0910092"/>
<path d="M55.1832 43.255L54.2966 44.4217L57.4232 48.0384C57.9832 47.7584 58.4149 47.4434 58.8816 47.0584L57.2482 45.18L57.9132 43.2317L58.8699 44.3284L55.8949 48.1317C55.3932 47.9217 54.8449 47.595 54.3432 47.175L55.9182 45.18L55.1832 43.255Z" fill="#1E5AA6" stroke="black" stroke-width="0.0910092"/>
<path d="M54.2149 41.4467L54.7749 42.1583L54.4132 41.19L54.2149 41.4467Z" fill="#1E5AA6" stroke="black" stroke-width="0.0910092"/>
<path d="M58.2866 42.0767L58.7533 41.47L58.5783 41.2367L58.2866 42.0767Z" fill="#1E5AA6" stroke="black" stroke-width="0.116667"/>
<path d="M64.8666 32.125C64.8666 32.125 65.4266 31.6583 65.8116 31.6583" stroke="#FFF700" stroke-width="0.0910092" stroke-linecap="round"/>
<path d="M64.9482 32.0667C64.9599 32.055 68.2266 31.6 68.3316 31.4833" stroke="#FFF700" stroke-width="0.0910092" stroke-linecap="round"/>
<path d="M64.9599 32.09L68.6232 31.775" stroke="#FFF700" stroke-width="0.0910092" stroke-linecap="round"/>
<path d="M64.9482 32.1017C64.9482 32.1017 68.8332 31.9267 69.0666 32.125" stroke="#FFF700" stroke-width="0.0910092" stroke-linecap="round"/>
<path d="M64.9366 32.09C64.9366 32.09 68.7399 32.125 68.8099 32.2067" stroke="#FFF700" stroke-width="0.0910092" stroke-linecap="round"/>
<path d="M64.9482 32.09L68.6116 32.3934" stroke="#FFF700" stroke-width="0.0910092" stroke-linecap="round"/>
<path d="M64.9133 32.125C64.9133 32.125 68.6466 32.4517 68.9966 32.9183" stroke="#FFF700" stroke-width="0.0910092" stroke-linecap="round"/>
<path d="M69.1949 33.5833C69.1949 33.5716 67.9349 32.0783 64.9016 32.1017" stroke="#FFF700" stroke-width="0.0910092" stroke-linecap="round"/>
<path d="M64.9133 32.125C64.9133 32.125 67.0133 32.2767 67.6783 33.0117" stroke="#FFF700" stroke-width="0.0910092" stroke-linecap="round"/>
<path d="M64.9482 32.1016C64.9482 32.1016 66.3132 31.845 67.7366 33.56" stroke="#FFF700" stroke-width="0.0910092" stroke-linecap="round"/>
<path d="M64.0966 33.665C64.0966 33.665 65.9749 33.735 65.9749 33.9216C65.9749 34.1083 64.5749 34.4583 64.5516 35.2283C64.5399 36.01 65.6249 36.0683 65.7066 37.0483C65.7766 38.0283 64.8549 38.1683 64.6566 38.4366C64.4816 38.5533 64.0383 39.9533 64.0966 40.77C64.1549 41.575 64.3882 44.3283 64.8199 44.8883C65.1466 45.145 65.6366 45.9733 66.1849 45.705C66.7216 45.46 66.3482 44.515 66.3016 44.2583C66.2432 44.0016 66.5116 43.57 66.5116 43.185C66.5116 42.7883 66.3132 42.485 66.3366 42.3916C66.3482 42.2983 67.8299 42.7416 67.7366 44.2C67.6432 45.6583 67.0483 45.215 67.0483 45.215C67.0483 45.215 67.2349 47.0116 66.7799 47.245C65.9399 47.6883 65.3333 47.1516 65.3333 47.1516L65.4149 47.525L64.7733 47.1983C64.7733 47.1983 63.9566 46.0316 63.7816 45.5066C63.5428 44.4148 63.4293 43.2992 63.4432 42.1816C63.5249 41.68 63.5716 38.7633 63.5366 38.6116C63.5016 38.4716 63.3499 36.0333 63.4432 35.66C63.5366 35.2866 64.1083 33.665 64.0966 33.665Z" fill="url(#paint2_linear_1_61494)" stroke="black" stroke-width="0.116667"/>
<path d="M62.0666 33.175C62.0666 33.175 63.3733 31.9033 64.1316 32.055C64.5166 32.055 64.1549 32.335 64.1549 32.335C64.1549 32.335 64.8199 32.3817 64.9133 32.685C64.9249 32.8017 64.5983 32.8483 64.5983 32.8483C64.5983 32.8483 64.8666 32.9066 64.8899 33.14C64.9133 33.385 62.0899 33.1983 62.0549 33.1867L62.0666 33.175Z" fill="#FF7000" stroke="black" stroke-width="0.116667"/>
<path d="M62.1366 33.1283C62.1366 33.1283 63.5366 32.9417 64.1316 32.3467" stroke="black" stroke-width="0.116667"/>
<path d="M63.5599 32.7434C63.5599 32.7434 64.5982 32.6967 64.5982 32.86" stroke="black" stroke-width="0.116667"/>
<path d="M67.2349 47.8634C67.2349 47.8634 68.1216 47.6534 68.3666 47.3384C68.5066 47.2217 69.2883 48.505 67.2349 47.8634Z" fill="white" stroke="black" stroke-width="0.116667" stroke-linejoin="round"/>
<path d="M67.0016 40.525C67.0016 40.525 67.1182 41.2017 66.7916 41.6684C66.6282 41.855 66.1266 42.17 66.1266 42.3917C66.1266 42.6134 66.3132 42.905 66.2782 43.1617C66.2432 43.4184 65.9632 43.6867 65.9749 43.9084C65.9749 44.13 66.2899 45.3084 66.2549 45.3317" stroke="white" stroke-width="0.116667" stroke-linecap="round"/>
<path d="M65.3683 38.3083C65.3683 38.3083 64.6683 38.5417 64.5166 39.2417" stroke="white" stroke-width="0.116667" stroke-linecap="round"/>
<path d="M65.0766 32.7433C65.0766 32.7433 65.3099 33.4083 66.0916 32.7783C65.5899 32.09 65.0766 32.755 65.0766 32.7433Z" fill="#C75B00" stroke="black" stroke-width="0.116667"/>
<path d="M65.6483 32.7084C65.6483 32.7434 65.6133 32.7784 65.5666 32.7784C65.5199 32.7784 65.4849 32.7434 65.4849 32.7084C65.4849 32.6734 65.5199 32.65 65.5666 32.65C65.6133 32.65 65.6483 32.6734 65.6483 32.7084Z" fill="black"/>
<path d="M58.7299 31.1917C58.7299 31.1917 60.1999 32.79 61.1449 32.7667C61.3199 33.2333 60.7132 33.6767 60.4799 33.875C59.9899 33.7233 59.5466 33.91 58.4266 32.5216C58.4966 31.635 58.7416 31.2383 58.7299 31.1917Z" fill="white" stroke="black" stroke-width="0.116667"/>
<path d="M60.7133 27.4816C60.9116 26.8983 61.2966 26.4316 61.6233 26.3733C61.5299 25.93 62.3116 23.935 64.5749 23.1766C64.7149 24.1916 63.6066 25.2066 63.6066 25.2066C63.6066 25.2066 66.9549 24.6233 67.6316 23.7833C67.5616 24.1566 66.8849 26.5366 63.3149 26.5133C64.6683 27.7966 62.8833 28.8233 62.1249 28.5083C63.5249 27.435 61.7166 26.7933 60.7249 27.4816H60.7133Z" fill="white" stroke="black" stroke-width="0.116667"/>
<path d="M61.8566 26.6534C62.5333 26.2217 62.7783 26.2217 63.3383 26.3034L62.9299 26.3734C62.9299 26.3734 62.8949 26.4317 63.1399 26.6534C62.8599 26.5834 62.6266 26.42 61.8566 26.6534Z" fill="#CCCCCD" stroke="#CCCCCC" stroke-width="0.116667"/>
<path d="M61.5999 26.3733C61.5999 26.3733 62.9299 25.6733 63.6766 25.1833" stroke="black" stroke-width="0.116667"/>
<path d="M60.4566 33.875C60.4566 33.875 62.2882 34.3767 62.4982 31.7517C62.1016 30.6083 61.5532 28.135 62.3932 27.435C61.6232 26.8983 60.7599 27.4583 60.7599 27.4583C60.7132 27.575 60.0249 28.5667 60.9582 30.2933C58.7416 29.71 59.6399 31.81 59.6399 31.81C59.7332 31.46 60.9116 31.1567 61.2032 32.8367C61.3199 33.2567 60.4099 33.8867 60.4566 33.8867V33.875Z" fill="#0000FF" stroke="black" stroke-width="0.116667"/>
<path d="M62.5216 31.775C62.5216 31.775 64.4583 30.725 64.4116 28.275C62.7549 28.3217 62.1716 30.445 62.1716 30.445L62.5216 31.775Z" fill="#0000FF" stroke="black" stroke-width="0.116667"/>
<path d="M53.8183 31.6467C53.8183 31.6467 52.3833 32.895 51.5666 32.4983C50.9716 32.8483 50.2599 32.2183 50.2599 32.2183C50.2599 32.2183 51.0766 35.2867 54.0633 33.07C54.0343 32.5888 53.9561 32.1119 53.8299 31.6467H53.8183Z" fill="white" stroke="black" stroke-width="0.116667"/>
<path d="M51.5549 32.44C51.6716 31.7983 52.1732 31.4833 52.5816 32.09C53.1182 32.2067 53.6549 29.99 51.7416 30.3633C52.2782 27.4817 50.6682 26.4083 50.6682 26.4083C50.6682 26.4083 50.0966 29.605 50.3649 30.1883C50.6216 30.7717 49.9799 29.1033 47.9149 28.625C47.8799 31.04 50.2249 32.16 50.2249 32.16C50.2249 32.16 50.8782 32.7667 51.5549 32.44Z" fill="#0000FF" stroke="black" stroke-width="0.116667"/>
<path d="M51.7416 30.34C51.7416 30.34 50.8433 31.11 51.0416 32.1484" stroke="black" stroke-width="0.116667"/>
<path d="M50.3766 30.2466C50.3766 30.2466 50.1666 30.9816 50.6099 32.0433" stroke="black" stroke-width="0.116667"/>
<path d="M50.2366 32.2884C50.2366 32.2884 50.6566 31.6117 51.5549 32.475" stroke="black" stroke-width="0.116667"/>
<path d="M50.4116 27.61C50.4116 27.5867 49.0466 27.61 49.8516 28.9983C49.2566 29.185 47.9033 28.2983 48.8366 27.1317C45.7683 27.05 44.5199 25.58 44.5199 24.2267C45.4183 25.16 47.5766 24.7867 48.3349 25.3583C47.4016 24.495 47.5883 23.2933 47.5883 23.2933C47.5883 23.2933 50.2016 24.075 50.6683 26.3967C50.5166 26.8517 50.4466 27.645 50.4116 27.61Z" fill="white" stroke="black" stroke-width="0.116667"/>
<path d="M48.2999 25.3C48.8133 25.8133 50.1083 25.965 50.7616 26.5367" stroke="black" stroke-width="0.116667"/>
<path d="M48.9066 26.8167C48.9066 26.8167 49.9799 26.6767 50.2949 27.05C49.8749 27.05 49.7349 26.945 49.1283 27.1667C49.2916 27.085 49.2449 26.9333 49.3383 26.9333C49.4316 26.9333 48.9533 26.8167 48.9066 26.8167Z" fill="#CCCCCD" stroke="#CCCCCC" stroke-width="0.0816667"/>
<path d="M54.2499 18.4167C54.2499 18.4167 54.8449 17.8917 55.4866 18.3583C55.1949 19.2217 54.1566 18.895 54.1566 18.895C54.1566 18.895 54.1916 19.3267 54.0866 19.5367C54.2966 19.7 54.4599 20.2133 54.4599 20.2133C54.4599 20.2133 55.5333 19.9567 55.7666 20.4233C56.1749 20.365 56.4666 20.4233 56.4666 20.4233C56.4666 20.4233 57.3066 20.2133 57.5983 20.2133C57.8899 20.2133 58.8233 20.4467 58.9166 20.6333C58.9983 20.7967 59.3133 21.9633 59.5233 21.94C59.7333 21.9283 59.0216 22.22 58.8233 21.9283C58.6366 21.6367 58.6949 22.3133 58.6949 22.3133C58.6949 22.3133 59.2783 22.9317 59.3483 23.0717C59.4183 23.2117 58.9866 24.3317 59.3133 25.1133C59.0216 25.1367 58.9983 25.44 58.9983 25.44C58.9866 25.79 58.5549 25.8717 58.5549 25.8717L58.4383 25.405L58.1583 25.58L58.2749 25.2183C58.2749 25.2183 58.6716 24.25 58.7066 23.935C58.7416 23.62 58.3449 23.0717 58.0299 23.0717C57.7149 23.0717 57.4933 24.0633 57.4933 24.0633C57.4933 24.0633 57.3416 24.7983 57.3883 24.88L57.1783 24.635C57.1783 24.635 57.0499 25.0783 56.9449 25.2183C56.8283 25.3583 56.6066 25.405 56.6066 25.405C56.6066 25.405 56.4549 24.9617 56.5133 24.7867C56.5599 24.6117 57.3533 23.935 57.2833 23.4567C57.2133 22.9667 57.2833 23.0833 57.2716 23.0717C57.2483 23.0483 56.8516 22.71 56.8399 22.5117C56.8166 22.325 56.3149 22.7567 55.6616 22.6283C55.4633 22.9783 55.4283 23.8533 55.4283 23.8533C55.4283 23.8533 55.3699 24.9033 55.4983 25.02C55.6383 25.1483 55.1483 25.405 55.1483 25.405L54.8099 25.8717L54.6933 25.6033L54.4483 25.7783L54.5883 25.4283C54.5766 25.16 54.9266 24.4483 54.9266 23.8417C54.9266 23.235 54.9616 22.5817 54.9616 22.5817C54.9616 22.5817 54.3316 22.5467 54.3433 23.2117C54.3549 23.865 54.1916 23.9117 54.2266 24.0867C54.2616 24.285 54.4249 24.8217 54.3783 24.9733C54.3316 25.1367 54.1216 25.1833 54.1216 25.1833L54.0633 25.265C54.0633 25.265 53.4216 25.5683 53.4449 25.685L53.4216 25.335L53.3866 24.8333C53.3866 24.8333 53.7716 24.6 53.7716 23.9933C53.7716 23.3867 53.6899 23.2933 53.7016 23.1533C53.7133 23.0133 53.8066 22.5117 53.7833 22.4533C53.7716 22.4067 53.4333 22.605 53.3166 22.605C53.2116 22.605 53.5149 22.2433 53.5499 21.975C53.5849 21.7183 53.1999 22.22 52.8849 21.9283C53.0366 21.6133 53.2466 21.5083 53.2816 21.275C53.3166 21.03 53.0483 21.4733 52.8033 21.2983C52.8266 21.065 53.0599 20.8667 53.0599 20.8667C53.0599 20.8667 52.8616 20.8433 52.7799 20.8667C52.6283 20.82 52.9549 20.575 52.9783 20.225C52.9899 19.875 52.7799 19.7467 52.7799 19.7233C52.7799 19.7117 52.4299 19.42 52.3833 19.2917C52.3366 19.175 52.3366 19.035 52.3366 19.035C52.3366 19.035 51.7533 19.455 51.0883 18.5683C51.7066 18.0433 52.3716 18.4283 52.3716 18.4283C52.3716 18.4283 52.5466 17.9383 53.3399 17.9733C54.1333 18.0083 54.2966 18.4633 54.2616 18.4167H54.2499Z" fill="#923F00" stroke="black" stroke-width="0.116667"/>
<path d="M58.6132 27.365C58.6249 27.365 60.0832 27.4117 60.0949 28.1933C60.1182 28.975 59.6516 28.7767 59.6282 28.7767L58.5782 28.6367L58.6132 27.365Z" fill="#0000FF" stroke="black" stroke-width="0.116667"/>
<path d="M57.2016 27.155C57.2016 27.155 59.0216 27.1433 58.9166 27.9366C58.8116 28.73 58.3566 28.5666 58.3566 28.5666L57.4699 28.4966L57.2016 27.155Z" fill="#FFFEFF" stroke="black" stroke-width="0.116667"/>
<path d="M56.1749 27.0734L57.2249 27.155C57.2249 27.155 57.8666 27.2367 57.8316 27.855C57.8082 28.45 57.1899 28.4617 57.1899 28.4617L56.1632 28.4034L56.1749 27.0734Z" fill="#0000FF" stroke="black" stroke-width="0.116667"/>
<path d="M53.7132 27.365C53.6899 27.365 52.2432 27.4117 52.2199 28.1933C52.2199 28.975 52.6749 28.7767 52.6866 28.7767L53.7482 28.6367L53.7132 27.365Z" fill="white" stroke="black" stroke-width="0.116667"/>
<path d="M55.1249 27.155C55.1249 27.155 53.3049 27.1433 53.4099 27.9366C53.5033 28.73 53.9699 28.5666 53.9699 28.5666L54.8449 28.4966L55.1249 27.155Z" fill="#0000FF" stroke="black" stroke-width="0.116667"/>
<path d="M56.1516 27.0734L55.1016 27.155C55.1016 27.155 54.4599 27.2367 54.4833 27.855C54.5183 28.45 55.1366 28.4617 55.1366 28.4617L56.1633 28.4034L56.1516 27.0734Z" fill="white" stroke="black" stroke-width="0.116667"/>
<path d="M58.9633 35.8233C58.9633 35.8233 59.7216 34.715 60.0483 34.8317C60.3283 34.925 60.1066 35.7883 59.9783 35.87L58.9633 35.8233Z" fill="#5E0043" stroke="black" stroke-width="0.116667"/>
<path d="M53.7832 36.0216C53.5382 35.695 53.1999 34.7733 52.8732 35.03C52.5932 35.1233 52.8032 35.9866 52.9432 36.0683L53.7832 36.0216Z" fill="#5E0043" stroke="black" stroke-width="0.116667"/>
<path d="M54.2733 33.8167C54.2733 33.8167 55.7549 34.7267 56.2333 34.75C56.7233 34.7733 58.2516 33.5717 58.2516 33.5717" stroke="black" stroke-width="0.116667"/>
<path d="M54.4249 30.2583L54.7049 29.9083L56.1166 30.6083L57.5633 29.9667L57.8433 30.27L56.2333 31.4017L54.4249 30.2583Z" fill="#5E0043" stroke="black" stroke-width="0.116667"/>
<path d="M53.2932 30.235C53.8432 30.8693 54.2528 31.6128 54.4949 32.4166C54.6582 33.3383 54.4016 31.145 54.4016 31.145C54.4016 31.145 55.5332 31.705 55.5682 32.055C55.6032 32.405 56.1049 32.0316 56.1282 31.9733L52.8616 29.85L53.2932 30.235Z" fill="#474747" stroke="#474747" stroke-width="0.116667" stroke-linejoin="round"/>
<path d="M58.8932 30.1766C58.8932 30.1766 57.7032 31.74 57.8432 33.4433C57.5982 32.6266 57.7966 31.285 57.7966 31.285L57.5399 31.4483C57.5399 31.4483 57.2599 32.6033 56.9216 32.7783C56.8632 32.6383 56.8749 32.5916 56.8749 32.5916C56.8749 32.5916 56.5132 33.0583 56.4432 33.105C56.3732 33.1516 56.4666 34.7033 56.4666 34.7033C56.4666 34.7033 56.5832 35.8233 56.7232 35.8116C56.6038 35.8728 56.4871 35.939 56.3732 36.01L56.2216 33.0233L56.5599 32.685C56.5599 32.685 57.0032 32.1366 57.0382 31.6116C56.8516 31.775 56.6299 31.8216 56.6299 31.8216C56.6299 31.8216 56.5716 32.58 56.3966 32.685C56.2099 32.8016 56.2099 32.9883 56.2099 32.9883L56.1632 31.9966L58.8932 30.1766Z" fill="#474747" stroke="#474747" stroke-width="0.116667" stroke-linejoin="round"/>
<path d="M56.1632 31.985L56.3966 36.71" stroke="black" stroke-width="0.116667" stroke-linecap="round"/>
<path d="M53.2582 34.2484C53.2582 34.2484 53.8066 34.5634 54.0049 35.5317C55.7782 35.4034 56.3382 36.0217 56.3382 36.0217C56.3382 36.0217 57.7849 35.3217 58.4616 35.4617C58.6949 34.96 59.3716 34.33 59.3716 34.33" stroke="black" stroke-width="0.116667"/>
<path d="M52.5233 29.6167L56.1633 31.9967L59.4533 29.7917C59.4533 29.7917 60.1299 29.4184 60.0716 29.15C60.0133 28.87 59.7799 28.975 59.6633 29.0334C59.5466 29.0684 56.2216 31.425 56.2216 31.425L52.6983 29.185C52.6983 29.185 52.4416 29.1034 52.3949 29.2784C52.3483 29.4417 52.4883 29.535 52.5233 29.6167Z" fill="#B4B6B9" stroke="black" stroke-width="0.116667"/>
<path d="M59.0333 28.9984C59.0333 28.9984 58.0999 28.6017 58.0999 28.94C58.0999 29.29 58.1349 29.325 58.2866 29.5467C58.4383 29.7567 58.1699 29.8967 58.1699 29.8967L58.0766 29.6634C58.0299 29.5117 57.5282 29.4067 57.4932 29.22C57.4349 29.045 57.5866 28.765 57.2949 28.73C56.9916 28.695 56.6999 28.8467 56.6416 29.1967C56.5232 29.5902 56.371 29.9728 56.1866 30.34L56.2449 28.52C56.8983 28.5667 58.1116 28.7067 59.0566 28.8234C58.7766 28.7767 59.1733 28.835 59.1499 28.94C59.1266 29.01 59.0333 29.0217 59.0333 28.9984Z" fill="#474747" stroke="#474747" stroke-width="0.116667" stroke-linejoin="round"/>
<path d="M55.7433 28.5434C55.3303 28.5588 54.9217 28.6334 54.5299 28.765C54.3199 28.8817 54.8799 29.08 54.7983 29.2317C54.7283 29.4067 54.7166 29.745 54.4483 29.675C54.1916 29.605 53.3049 29.1617 53.2816 29.01C53.2466 28.87 53.0716 28.8584 53.0716 28.8584C53.0716 28.8584 55.6149 28.5084 55.7433 28.5434Z" fill="#474747" stroke="#474747" stroke-width="0.116667" stroke-linejoin="round"/>
<path d="M56.1399 28.3333V30.5616" stroke="black" stroke-width="0.116667"/>
<path d="M54.4249 25.6967L53.3749 27.4" stroke="black" stroke-width="0.116667"/>
<path d="M56.3033 25.65C56.3033 25.65 56.7466 26.2567 56.6999 26.4317C56.8749 26.5717 57.0849 27.1317 57.0849 27.1317" fill="url(#paint3_linear_1_61494)"/>
<path d="M56.3033 25.65C56.3033 25.65 56.7466 26.2567 56.6999 26.4317C56.8749 26.5717 57.0849 27.1317 57.0849 27.1317" stroke="black" stroke-width="0.116667"/>
<path d="M58.0183 25.5566C58.0183 25.5566 57.0616 26.91 57.0849 27.015" stroke="black" stroke-width="0.116667"/>
<path d="M53.0949 19.105C53.0716 19.175 52.9549 19.21 52.8266 19.175C52.6982 19.1283 52.6049 19.035 52.6283 18.965C52.6516 18.8833 52.7799 18.8483 52.9082 18.895C53.0249 18.93 53.1183 19.0233 53.0949 19.105Z" fill="black"/>
<path d="M53.4916 19.0817C53.5149 19.1517 53.6316 19.1867 53.7599 19.14C53.8882 19.105 53.9816 19.0117 53.9582 18.93C53.9349 18.86 53.8066 18.825 53.6782 18.8717C53.5616 18.9067 53.4682 19 53.4916 19.0817Z" fill="black"/>
<path d="M64.7499 47.175C64.7499 47.175 64.3766 47.2333 64.3999 47.2683C64.3999 47.3033 63.3499 47.3383 63.3383 47.3033C63.3149 47.2683 63.1749 47.4783 63.1749 47.4783L63.3499 47.3733C63.3499 47.3733 63.6066 47.6417 63.6766 47.6183C63.7583 47.6067 63.6416 47.735 63.6766 47.7467C63.6883 47.77 63.7699 47.7 63.7699 47.7L65.4966 47.6767L64.7499 47.175Z" fill="#FF7000" stroke="black" stroke-width="0.116667" stroke-linejoin="round"/>
<path d="M65.3799 47.7L63.9799 47.7467C63.9799 47.7467 63.6182 48.0733 63.5949 48.1433C63.5716 48.225 63.8282 48.2483 63.8282 48.2483L63.8983 48.5167L64.0849 48.4467C64.0849 48.4467 65.2866 48.6217 66.3832 48.3767C66.9433 48.19 67.0482 47.9567 66.6516 47.805C66.2666 47.665 65.3916 47.7117 65.3799 47.7Z" fill="#FF7000" stroke="black" stroke-width="0.116667" stroke-linejoin="round"/>
<path d="M60.5499 50.605L63.0816 50.4883L62.6149 50.0916L69.4983 49.8116L69.2649 49.2633L61.5533 49.5783L62.4866 50.01L60.3866 50.0683L60.4566 50.29L59.9083 50.2666C59.9083 50.2666 60.5266 50.5 60.5383 50.6166L60.5499 50.605Z" fill="url(#paint4_linear_1_61494)" stroke="black" stroke-width="0.116667"/>
<path d="M63.3966 36.5467C63.1983 36.4417 62.2999 36.3134 61.3083 36.9667L61.3549 39.2534C61.3549 39.2534 62.8133 38.4717 63.5133 38.6467C63.4783 37.9467 63.4783 37.0367 63.3966 36.5467Z" fill="url(#paint5_linear_1_61494)" stroke="black" stroke-width="0.116667"/>
<path d="M49.3149 43.4883L43.3182 49.4383" stroke="black" stroke-width="0.0910092"/>
<path d="M51.9983 43.5233L47.1216 49.94" stroke="black" stroke-width="0.0910092"/>
<path d="M51.7766 41.855L45.2783 49.73" stroke="black" stroke-width="0.0910092"/>
<path d="M45.0799 49.625L45.7099 48.8784" stroke="black" stroke-width="0.0910092"/>
<path d="M53.0133 45.81L50.4933 49.2867" stroke="black" stroke-width="0.0910092"/>
<path d="M50.3882 49.7416L50.4466 51.0716" stroke="black" stroke-width="0.0910092"/>
<path d="M54.1683 47.0233L51.4849 50.3833" stroke="black" stroke-width="0.0910092"/>
<path d="M53.6899 50.115L54.7749 48.33" stroke="black" stroke-width="0.0910092"/>
<path d="M54.1099 47.9916L52.8033 49.4616" stroke="black" stroke-width="0.0910092"/>
<path d="M53.7133 46.5917L52.8266 47.6767" stroke="black" stroke-width="0.0910092"/>
<path d="M52.5582 45.005C52.5582 45.005 49.8399 48.9833 49.8866 49.3217" stroke="black" stroke-width="0.0910092"/>
<path d="M52.2783 44.4916C52.2083 44.5266 49.9333 47.5483 49.9333 47.5483" stroke="black" stroke-width="0.0910092"/>
<path d="M49.8049 48.505L49.3849 49.0067" stroke="black" stroke-width="0.0910092"/>
<path d="M48.8599 49.765L48.2299 50.5933" stroke="black" stroke-width="0.0910092"/>
<path d="M49.0233 34.3184C49.0233 34.3184 48.8366 34.9017 49.0233 35.1934C49.2099 35.485 50.3649 37.8184 50.3649 37.8184C50.3649 37.8184 51.1583 36.85 51.4499 36.8267C51.7299 36.7917 51.6016 39.3467 51.6016 39.3467C51.6016 39.3467 51.1349 39.79 50.8433 39.7667C50.5516 39.7434 51.5433 40.77 51.5199 41.6334C51.4966 42.5084 50.2133 46.825 49.7349 46.895C49.2683 46.9767 49.9449 46.1134 49.9216 45.8684C49.8866 45.635 49.7583 45.7984 49.6533 45.53C49.5483 45.2734 49.8166 44.8767 49.7699 44.6084C49.7116 44.3517 49.4666 44.3984 49.4433 44.2117C49.4199 44.025 49.6066 43.9784 49.5716 43.7684C49.5483 43.5584 49.2566 43.605 49.2916 43.4184C49.3149 43.2434 49.3383 43.325 49.3149 42.975C49.2916 42.6367 49.2333 43.2084 48.9416 43.2434C48.6499 43.2667 48.4166 43.9317 48.4166 43.9317C48.4166 43.9317 47.8333 44.7484 47.2616 44.375C47.6116 45.11 47.3433 45.425 47.2033 45.4484C47.0866 45.4834 47.3199 46.0317 46.9933 46.055C46.6783 46.0784 47.2266 47.2917 46.8766 47.3967C47.2616 47.5834 46.9466 47.8167 46.9466 47.8167C46.9466 47.8167 46.0366 47.8984 46.2349 49.0884C43.5516 48.1317 42.2333 46.51 42.2683 44.8417C42.2916 43.185 42.8166 41.6917 44.0999 41.1434C44.4733 39.7667 45.1033 38.2967 45.1033 38.2967C45.1033 38.2967 44.9983 37.69 45.0799 37.2934C45.166 37.0023 45.3176 36.7349 45.5233 36.5117C45.5233 36.5117 45.4766 35.555 45.4999 35.0884C45.5233 34.6217 45.7099 34.4 45.7333 34.1434C45.7566 33.875 45.6516 32.5334 45.9199 32.3C46.1766 32.0667 46.6783 32.09 46.9466 31.9267C47.2033 31.775 47.5533 31.4834 47.8916 31.5067C48.2416 31.53 48.5216 31.775 48.5216 31.775C48.5216 31.775 49.8049 31.775 49.8866 32.265C49.9683 32.7667 49.6299 32.965 49.6299 32.965C49.6299 32.965 49.8166 33.665 49.0233 34.3184Z" fill="#8A9396" stroke="#2B2B2B" stroke-width="0.116667"/>
<path d="M47.8799 32.4983C47.9149 32.58 47.8216 32.7083 47.6699 32.79C47.5066 32.8717 47.3549 32.8833 47.3199 32.8133C47.2732 32.7317 47.3666 32.6033 47.5182 32.5217C47.6816 32.4283 47.8332 32.4283 47.8682 32.4983H47.8799Z" fill="#CECFCF" stroke="#2B2B2B" stroke-width="0.116667"/>
<path d="M47.6583 32.6383C47.6583 32.685 47.6116 32.72 47.5649 32.72C47.5066 32.72 47.4599 32.685 47.4599 32.6383C47.4599 32.58 47.5066 32.545 47.5649 32.545C47.6116 32.545 47.6583 32.58 47.6583 32.6383Z" fill="black"/>
<path d="M49.5832 33.5016C49.5832 33.5016 49.8982 34.925 49.5249 35.9166" stroke="#2B2B2B" stroke-width="0.0583333"/>
<path d="M49.6883 32.8834C49.6883 32.8834 50.3066 33.7 50.2249 34.7267" stroke="#2B2B2B" stroke-width="0.0583333"/>
<path d="M49.7466 32.7083C49.7582 32.7083 50.2716 33.14 50.2483 33.4433" stroke="#2B2B2B" stroke-width="0.0583333"/>
<path d="M49.8633 32.5217C49.8633 32.5217 50.2133 32.755 50.2833 33" stroke="#2B2B2B" stroke-width="0.0583333"/>
<path d="M49.6999 32.3817C49.6999 32.3817 48.4749 34.365 48.6383 35.6133" stroke="black" stroke-width="0.116667"/>
<path d="M49.7816 32.3116C49.7816 32.3116 48.1483 33.28 47.8566 36.4416" stroke="#2B2B2B" stroke-width="0.0583333"/>
<path d="M49.6066 32.895L48.9532 33.385" stroke="black" stroke-width="0.116667"/>
<path d="M47.2499 36.6166C47.2499 36.6166 48.1599 32.86 49.7582 32.3116" stroke="#2B2B2B" stroke-width="0.0583333"/>
<path d="M50.3883 37.8884C50.3883 37.8884 51.2516 36.8034 51.4499 36.8384C51.6483 36.885 51.5899 39.3584 51.5899 39.3584C51.5899 39.3584 50.9483 39.8367 50.8083 39.825C50.6683 39.8017 51.5316 40.9917 51.5083 41.4234C51.4966 41.8667 51.4733 41.8667 51.4733 41.8667C51.4733 41.8667 51.4733 41.61 51.2749 41.19C51.0649 40.7584 51.1933 40.28 49.8749 39.2067C49.5599 38.5534 50.5283 39.615 50.7266 39.4517C50.9249 39.3 50.3766 37.9117 50.3766 37.8884H50.3883Z" fill="#2B2B2B" stroke="#2B2B2B" stroke-width="0.116667"/>
<path d="M48.8482 31.775C48.8482 31.775 48.4866 31.8684 48.4399 32.0084C48.3816 32.1717 48.1716 32.3117 48.0549 32.265C47.9382 32.2184 47.7282 32.0317 47.7282 32.0317" stroke="#2B2B2B" stroke-width="0.116667"/>
<path d="M46.7832 33.0467C46.7832 33.0467 46.2349 33.5834 46.5032 33.6534C46.7716 33.7234 47.0516 33.2217 47.0516 33.2217C47.0516 33.2217 47.0516 34.0734 47.2849 33.9334C47.5182 33.805 48.1832 33.3267 48.1832 33.3267C48.1832 33.3267 48.4166 33.3034 48.4749 33.3267C48.5216 33.3384 49.0932 33.84 49.4782 33.6534C49.2566 34.2134 49.0116 34.2834 49.0116 34.2834C49.0116 34.2834 48.6149 34.7967 48.1016 34.68C47.5882 34.5634 47.4599 34.3534 47.4599 34.3534C47.4599 34.3534 47.0282 34.3767 46.8999 34.1784L46.7132 33.875C46.7132 33.875 46.4799 34.1084 46.3982 33.9917C46.3399 33.875 46.3982 33.21 46.7832 33.0467Z" fill="#2B2B2B" stroke="#2B2B2B" stroke-width="0.116667" stroke-linejoin="round"/>
<path d="M49.8749 32.2883C49.8749 32.2883 48.8716 31.985 48.5216 32.4867C48.1716 32.9767 48.2533 33.2567 48.4399 33.3033" stroke="#2B2B2B" stroke-width="0.116667"/>
<path d="M50.0266 32.2533C50.0266 32.37 49.9449 32.475 49.8399 32.475C49.7233 32.475 49.6533 32.37 49.6533 32.2533C49.6533 32.1367 49.7349 32.0433 49.8399 32.0433C49.9449 32.0433 50.0266 32.1367 50.0266 32.2533Z" fill="black"/>
<path d="M47.0983 34.8317C47.0983 34.8317 47.5066 35.4617 47.9966 35.6367C48.4866 35.8117 47.6466 35.9517 47.1683 35.6367C46.8183 35.1467 46.9116 34.7967 46.9116 34.7967C46.9116 34.7967 47.0049 34.7034 47.0983 34.8317Z" fill="#2B2B2B" stroke="#2B2B2B" stroke-width="0.116667"/>
<path d="M50.6099 38.5533C50.6099 38.5533 49.4549 36.955 49.1283 36.8617C48.7899 36.78 49.3849 36.71 49.7349 37.0483C50.0849 37.3983 49.6416 36.5 49.6416 36.5L50.6099 38.5533Z" fill="#2B2B2B" stroke="#2B2B2B" stroke-width="0.116667"/>
<path d="M46.9816 47.8284C47.4249 47.7117 49.3616 48.9367 49.7816 49.24C50.2249 49.555 51.1349 49.3567 51.1349 49.3567C51.1349 49.3567 50.7149 49.6134 50.4582 49.6717C50.1899 49.73 51.2282 49.73 51.2282 49.73C51.2282 49.73 48.7666 50.4184 46.2582 49.1C46.0249 48.0734 46.7949 47.84 46.9816 47.8284Z" fill="#2B2B2B" stroke="#2B2B2B" stroke-width="0.116667" stroke-linejoin="round"/>
<path d="M49.8166 38.95C49.8166 38.95 49.4783 38.8916 49.3149 38.705C49.1516 38.5066 48.9183 38.04 48.6733 37.8416C48.4283 37.655 47.2033 36.9783 46.7599 37.025C46.3166 37.0716 46.1766 36.9783 46.1183 36.92C46.0716 36.8616 45.8849 36.9433 45.9199 37.1766C45.9549 37.41 45.5699 37.9116 45.7099 38.145C45.9648 38.5878 46.266 39.0023 46.6083 39.3816C46.7249 39.4166 46.6549 39.9416 46.6549 39.9416C46.6549 39.9416 47.2149 40.5133 47.3549 40.5366C47.4949 40.5716 47.6466 40.6766 47.6233 40.8166C47.6116 40.945 47.0049 41.68 47.0049 41.68C47.0049 41.68 46.3633 42.03 46.3516 42.205C46.3516 42.4033 46.5149 42.7883 47.0283 42.9166C47.681 43.0213 48.3484 42.9895 48.9883 42.8233C49.0583 42.7066 49.1749 42.0066 49.1283 41.925C49.0816 41.855 48.7433 41.645 48.5683 41.6683C48.3933 41.7033 48.2299 41.8433 48.2533 41.8783C48.2649 41.9133 48.0083 42.0416 48.0083 41.9133C48.0083 41.7966 48.5216 41.2133 48.5683 41.2716C48.6149 41.3183 49.3383 41.3883 49.4783 41.75C49.6066 42.1116 49.6066 42.38 49.9916 42.3333C50.3649 42.2983 50.9016 41.9483 50.9483 41.225C50.9663 40.9828 50.9259 40.7398 50.8305 40.5165C50.735 40.2932 50.5874 40.096 50.3999 39.9416C50.2833 39.86 49.8866 39.6266 49.8516 39.51C49.8283 39.3933 49.7349 39.0433 49.8049 38.95H49.8166Z" fill="#2B2B2B" stroke="#2B2B2B" stroke-width="0.116667"/>
<path d="M42.9682 42.1583C42.9682 42.1583 44.1932 41.8433 44.5082 41.855C44.8232 41.855 46.0249 42.415 46.3749 42.7533C46.7249 43.1033 47.4249 43.8967 47.8916 43.8267C48.3582 43.7567 48.4982 43.6633 48.4982 43.6633L48.3116 44.0133C48.3116 44.0133 47.9382 44.1183 47.7399 44.0717C47.5532 44.025 47.1799 43.8967 46.8066 43.535C46.4449 43.185 45.2899 42.1933 44.3216 42.2633C43.3532 42.3333 42.7932 43.29 42.7932 43.29C42.7932 43.29 42.7932 42.8233 42.8399 42.7183C42.8749 42.625 42.6299 42.9517 42.6299 42.9517L42.9682 42.1583Z" fill="#2B2B2B" stroke="#2B2B2B" stroke-width="0.116667"/>
<path d="M47.4833 43.115C47.4833 43.115 47.7866 43.1967 48.2999 43.1967C48.8016 43.1967 49.0699 42.975 49.0699 42.975L49.0349 42.7767L49.1166 42.5084C49.1166 42.5084 49.5016 42.8934 49.5016 42.975C49.5016 43.0567 49.3383 43.0917 49.3383 43.0917L49.2799 42.8934L49.1516 43.0684C49.1516 43.0684 48.4166 43.6517 48.0083 43.5584C47.6116 43.4767 47.2383 43.2084 47.3433 43.15C47.4483 43.0917 47.4949 43.115 47.4833 43.115Z" fill="#2B2B2B" stroke="#2B2B2B" stroke-width="0.116667"/>
<path d="M45.6983 44.1417C45.6983 44.1417 45.2549 44.1417 45.0566 44.235C44.8583 44.3283 44.7883 44.445 44.6483 44.4333C44.5199 44.41 44.4149 44.2467 44.4499 44.1767C44.5083 44.06 44.7766 43.92 45.2666 43.955C45.7683 44.0017 45.6983 44.1417 45.6983 44.1417Z" fill="#2B2B2B" stroke="#2B2B2B" stroke-width="0.116667"/>
<path d="M47.2499 45.3433C47.2499 45.32 47.2149 44.7016 46.9699 44.445C46.8845 44.3546 46.7779 44.287 46.6597 44.2483C46.5416 44.2096 46.4156 44.201 46.2933 44.2233C46.1533 44.2583 46.7833 44.5383 46.8533 44.7133C46.9116 44.9 47.1216 45.4133 47.0633 45.53C47.0049 45.6466 46.9116 45.18 46.5149 45.04C46.1299 44.9 45.5933 44.9816 45.6983 45.1566C45.8149 45.32 46.2466 45.1566 46.4683 45.5416C46.6118 45.7864 46.7404 46.0396 46.8533 46.3L46.9349 46.0316L47.1216 45.985L47.1566 45.4716L47.2499 45.3433Z" fill="#2B2B2B" stroke="#2B2B2B" stroke-width="0.116667"/>
<path d="M46.9349 47.3733L46.5266 46.5567C46.5266 46.5567 46.4099 46.055 46.0599 45.915C45.7099 45.7633 45.2666 45.7983 45.2666 45.9617C45.2549 46.1367 45.9899 46.3583 46.0366 46.4517C46.0833 46.545 46.0599 46.7083 46.0016 46.72C45.9316 46.72 45.6049 46.6033 45.4416 46.6383C45.2783 46.6733 45.1849 46.895 44.9399 46.825C44.6949 46.7667 44.4849 45.985 44.5899 45.8917C44.6716 45.8217 44.4033 46.0433 44.3449 45.8333C44.2866 45.635 44.4266 44.9933 44.3333 44.9117C44.2399 44.83 43.7733 44.5617 43.7733 44.5033C43.7616 44.445 43.7966 41.3533 46.3749 43.92C45.2666 42.6017 44.8349 42.7533 44.6249 42.7417C44.4849 42.7417 43.4699 42.8233 43.2249 44.1067C42.9683 45.39 42.6649 44.585 42.6649 44.585C42.6649 44.585 42.6183 45.145 42.8866 45.2967C43.1549 45.46 42.7583 45.915 42.7583 45.915C42.7583 45.915 42.2683 44.7483 42.3499 44.2233C42.2449 44.6317 42.2566 45.6583 42.8633 46.7667C43.7304 47.7494 44.8178 48.513 46.0366 48.995C46.9699 47.56 46.9349 47.385 46.9349 47.3617V47.3733Z" fill="#2B2B2B" stroke="#2B2B2B" stroke-width="0.116667" stroke-linejoin="round"/>
<path d="M45.2432 47.385C45.2432 47.385 45.7566 47.4433 45.8966 47.7116C46.0482 47.98 46.1066 48.3883 46.1066 48.3883C46.1999 48.2133 46.2232 48.0733 46.4099 47.945C46.5849 47.8166 46.7132 47.7933 46.7016 47.7116C46.7016 47.6066 46.1416 47.035 45.8732 47C45.5932 46.965 45.1149 47.3033 45.1149 47.3033C45.1149 47.3033 45.0216 47.42 45.2316 47.385H45.2432Z" fill="#8A9396" stroke="#2B2B2B" stroke-width="0.116667" stroke-linejoin="round"/>
<path d="M46.4333 48.7383C46.4333 48.7383 47.7866 49.3567 50.0033 49.3917" stroke="#8A9396" stroke-width="0.113762" stroke-linecap="round"/>
<path d="M50.9482 42.4617C50.9482 42.4617 50.8316 43.5933 49.9566 45.845" stroke="#2B2B2B" stroke-width="0.113762" stroke-linecap="round"/>
<path d="M50.7733 43.1617C50.7733 43.1617 50.5049 43.9783 49.7816 44.585" stroke="#2B2B2B" stroke-width="0.116667"/>
<path d="M46.8182 57.2434L47.0516 56.9867L47.1216 57.045L47.1099 57.0684L47.0866 57.1034V57.1267L47.1099 57.15L47.4132 57.4184L47.4366 57.4417H47.4599L47.4716 57.4184C47.5027 57.3872 47.5221 57.3561 47.5299 57.325C47.5455 57.2939 47.5493 57.2628 47.5416 57.2317C47.5416 57.1928 47.526 57.1539 47.4949 57.115L47.5882 57.0684L47.7282 57.3017L47.3549 57.7217L47.2849 57.6634L47.3082 57.6284L47.3199 57.605V57.5817L47.2966 57.5584L46.9932 57.29L46.9582 57.2667H46.9466L46.9116 57.29L46.8882 57.3134L46.8182 57.2434Z" fill="black"/>
<path d="M47.3316 56.6716L47.7632 56.2516L47.9732 56.3567L47.9382 56.4383L47.8216 56.415L47.7516 56.4383C47.7282 56.4461 47.7049 56.4655 47.6816 56.4966L47.5999 56.5666L47.7166 56.695L47.7516 56.6716C47.7749 56.6561 47.7866 56.6405 47.7866 56.625V56.6016L47.7632 56.5666L47.7399 56.5433L47.8099 56.4733L48.0199 56.695L47.9499 56.7533L47.9266 56.7416L47.8916 56.7067H47.8682L47.8216 56.7416L47.7982 56.765L47.9149 56.8817L47.9382 56.905H47.9499L47.9732 56.8817L48.0199 56.8466L48.0899 56.7533C48.1055 56.7222 48.1093 56.6833 48.1016 56.6367C48.1016 56.6055 48.0899 56.5705 48.0666 56.5317L48.1599 56.485L48.2766 56.7533L47.8332 57.185L47.7632 57.115H47.7866L47.8099 57.0683V57.045L47.7866 57.01L47.5066 56.73L47.4716 56.7067H47.4482L47.4249 56.7183L47.4016 56.7416L47.3316 56.6716Z" fill="black"/>
<path d="M48.2299 55.8083C48.3232 55.7306 48.4166 55.6956 48.5099 55.7033C48.611 55.7111 48.6966 55.7578 48.7666 55.8433C48.8132 55.8978 48.8444 55.9561 48.8599 56.0183C48.8755 56.0883 48.8716 56.1506 48.8483 56.205C48.8249 56.2672 48.7821 56.3256 48.7199 56.38C48.6421 56.45 48.5566 56.485 48.4632 56.485C48.3544 56.485 48.261 56.4383 48.1832 56.345C48.1055 56.2672 48.0744 56.1778 48.0899 56.0767C48.0977 55.9756 48.1444 55.8861 48.2299 55.8083ZM48.3116 55.89C48.2727 55.9289 48.2533 55.9756 48.2533 56.03C48.2533 56.0922 48.2805 56.1544 48.3349 56.2167C48.3894 56.2789 48.4477 56.3178 48.5099 56.3333C48.5566 56.3333 48.5994 56.3178 48.6382 56.2867C48.6849 56.2556 48.7082 56.2167 48.7082 56.17C48.7082 56.1 48.6771 56.0339 48.6149 55.9717C48.5838 55.9328 48.5449 55.9017 48.4983 55.8783C48.4671 55.8628 48.4321 55.855 48.3932 55.855C48.3621 55.855 48.3349 55.8667 48.3116 55.89Z" fill="black"/>
<path d="M49.0233 55.1667L49.0816 55.1317L49.0933 55.1434L49.4316 54.91V54.8867L49.4783 54.8517L49.6999 55.0034L49.6416 55.085L49.5599 55.05C49.5288 55.0345 49.4977 55.0306 49.4666 55.0384L49.4199 55.05L49.4083 55.0617V55.085L49.6533 55.435L49.6766 55.47H49.7116L49.7699 55.435L49.8166 55.5167L49.5366 55.7267L49.4783 55.645L49.4899 55.6334L49.5249 55.5984V55.575L49.5133 55.54L49.2683 55.19L49.2449 55.1667L49.2333 55.1784C49.2177 55.1861 49.206 55.2017 49.1983 55.225C49.1827 55.2484 49.1749 55.2756 49.1749 55.3067L49.1866 55.4L49.0933 55.4234L49.0233 55.1667Z" fill="black"/>
<path d="M49.6766 54.7583L50.1899 54.4316L50.3882 54.5833L50.3182 54.665L50.2249 54.6183H50.1432C50.1199 54.6183 50.0927 54.63 50.0616 54.6533L49.9682 54.7116L50.0616 54.8633L50.0849 54.84L50.1316 54.8166V54.7816L50.1199 54.735L50.1082 54.7116L50.1899 54.665L50.3416 54.9333L50.2599 54.98L50.2482 54.945L50.2132 54.91H50.1899L50.1432 54.9333L50.1082 54.945L50.2016 55.0966L50.2132 55.12H50.2249L50.2599 55.1083L50.3066 55.0733L50.3999 55.0033L50.4349 54.8983V54.7816L50.5282 54.7583L50.5866 55.0383L50.0499 55.365L50.0032 55.2833L50.0149 55.2716L50.0499 55.2366C50.0577 55.2366 50.0577 55.2289 50.0499 55.2133V55.1783L49.8399 54.84L49.8049 54.805H49.7932L49.7582 54.8166L49.7349 54.8283L49.6766 54.7466V54.7583Z" fill="black"/>
<path d="M50.3999 54.315L50.8082 54.105L50.8899 54.07C50.921 54.0544 50.956 54.0506 50.9949 54.0583C51.026 54.0583 51.0532 54.0661 51.0766 54.0817L51.1349 54.1517C51.166 54.2061 51.1699 54.2567 51.1466 54.3033C51.131 54.35 51.0999 54.3889 51.0532 54.42L51.2632 54.5133H51.2749L51.3099 54.525H51.3449L51.3682 54.5133L51.4032 54.5017L51.4382 54.5833L51.2399 54.7L50.8899 54.525L50.8316 54.5483L50.9016 54.6767L50.9249 54.7233H50.9832L51.0066 54.7L51.0532 54.7933L50.7382 54.9567L50.6916 54.8633L50.7266 54.8517L50.7499 54.8283L50.7616 54.805L50.7499 54.77L50.5632 54.4083L50.5399 54.385C50.5399 54.3772 50.5321 54.3772 50.5166 54.385H50.4816L50.4582 54.3967L50.4116 54.315H50.3999ZM50.7032 54.2917L50.7849 54.455L50.8782 54.4083C50.9171 54.3928 50.9443 54.3733 50.9599 54.35L50.9832 54.3033V54.245L50.9366 54.21H50.8899L50.8082 54.2333L50.6916 54.2917H50.7032Z" fill="black"/>
<path d="M51.2166 53.895L51.6366 53.7083L51.7182 53.685H51.8233C51.8544 53.685 51.8816 53.6928 51.9049 53.7083L51.9632 53.79C51.9866 53.8367 51.9866 53.8833 51.9632 53.93C51.9399 53.9767 51.9049 54.0156 51.8582 54.0467L52.0682 54.1517L52.1149 54.1633H52.1733L52.1966 54.14L52.2432 54.2333L52.0332 54.3267L51.6832 54.14L51.6366 54.1633L51.6949 54.2917L51.7182 54.3383H51.7649L51.7999 54.3267L51.8349 54.4083L51.5199 54.56L51.4733 54.4667L51.5082 54.455L51.5316 54.4317L51.5432 54.4083L51.5316 54.3733L51.3682 54C51.3682 53.9844 51.3605 53.9728 51.3449 53.965H51.2866L51.2632 53.9883L51.2283 53.895H51.2166ZM51.5199 53.895L51.5899 54.07L51.6949 54.0233L51.7766 53.9767C51.7921 53.9611 51.7999 53.9417 51.7999 53.9183V53.8717L51.7649 53.825H51.7066L51.6249 53.8483L51.5082 53.895H51.5199Z" fill="black"/>
<path d="M52.3133 53.44L52.4649 53.3817L52.8616 53.8367L52.9083 53.8717H52.9666L52.9899 53.965L52.6749 54.0817L52.6399 53.9883L52.6633 53.9766C52.6788 53.9766 52.6905 53.9689 52.6983 53.9533V53.93L52.6749 53.9067L52.6283 53.8483L52.4299 53.9183V54.035L52.4649 54.0467L52.5116 54.035L52.5466 54.1283L52.2783 54.2217L52.2433 54.1283C52.2588 54.1283 52.2705 54.1205 52.2783 54.105L52.2899 54.0933V54.0467L52.3133 53.44ZM52.4299 53.8133L52.5583 53.7667L52.4299 53.6033V53.8133Z" fill="black"/>
<path d="M52.8733 53.2417L53.1883 53.1483L53.4333 53.5333V53.0667L53.7599 52.985L53.7833 53.0783L53.7483 53.09C53.7327 53.09 53.721 53.0978 53.7133 53.1133V53.16L53.8299 53.5567L53.8416 53.58L53.8649 53.5917H53.9349L53.9583 53.6733L53.6199 53.7783L53.5966 53.6733H53.6199C53.6433 53.6733 53.6549 53.6655 53.6549 53.65L53.6666 53.6383V53.6033L53.5499 53.1717L53.5383 53.8017L53.4449 53.825L53.1183 53.3117L53.2349 53.7433L53.2466 53.755L53.2699 53.7667H53.3049L53.3399 53.755L53.3633 53.8483L53.0833 53.93L53.0483 53.8367H53.0833L53.1183 53.8133V53.755L53.0016 53.37V53.335L52.9783 53.3233H52.9083L52.8733 53.2417Z" fill="black"/>
<path d="M54.3199 52.8567L54.6932 52.7867H54.8099C54.8488 52.7867 54.8799 52.7945 54.9032 52.81C54.9344 52.8256 54.9577 52.845 54.9732 52.8683L55.0082 52.95C55.016 53.0122 55.0005 53.0667 54.9616 53.1133C54.9227 53.1678 54.8644 53.2028 54.7866 53.2183L54.6699 53.2417L54.6932 53.37V53.405H54.7866L54.7982 53.4983L54.4482 53.5683V53.475H54.4599L54.5066 53.4517V53.3933L54.4366 53.0083V52.9617L54.4132 52.95H54.3432L54.3199 52.8567ZM54.5999 52.9267L54.6466 53.125H54.7049L54.7866 53.09L54.8216 53.0433V52.985C54.8216 52.9539 54.806 52.9306 54.7749 52.915C54.7516 52.9072 54.7205 52.9072 54.6816 52.915H54.5999V52.9267Z" fill="black"/>
<path d="M55.0899 52.7167L55.5332 52.6583H55.6266L55.7199 52.6817C55.751 52.6972 55.7743 52.7167 55.7899 52.74C55.8132 52.7633 55.8249 52.7905 55.8249 52.8217C55.8327 52.8761 55.821 52.9228 55.7899 52.9617C55.751 53.0005 55.7082 53.0317 55.6616 53.055L55.8249 53.2067L55.8599 53.23L55.8832 53.2417H55.9532V53.335L55.7316 53.37L55.4632 53.09H55.4049L55.4282 53.23V53.2767L55.4516 53.3H55.5216V53.3933L55.1716 53.44V53.335H55.1949L55.2299 53.3233L55.2532 53.3V53.265L55.1949 52.8567V52.8217H55.1016L55.0899 52.7167ZM55.3699 52.7983L55.3932 52.985H55.5099L55.5916 52.95L55.6382 52.915V52.8567L55.6266 52.81L55.5799 52.7867H55.4866L55.3699 52.7983Z" fill="black"/>
<path d="M56.3966 52.5767C56.5055 52.5689 56.5988 52.5961 56.6766 52.6583C56.7544 52.7283 56.7933 52.8178 56.7933 52.9267C56.7933 53.0045 56.7816 53.0706 56.7583 53.125C56.7271 53.1795 56.6883 53.2261 56.6416 53.265C56.5794 53.2961 56.5094 53.3156 56.4316 53.3233C56.3227 53.3233 56.2333 53.3 56.1633 53.2533C56.0777 53.1833 56.031 53.09 56.0233 52.9733C56.0233 52.8645 56.0544 52.7711 56.1166 52.6933C56.1866 52.6156 56.2799 52.5767 56.3966 52.5767ZM56.3966 52.6933C56.3421 52.6933 56.3033 52.7167 56.2799 52.7633C56.2333 52.81 56.2138 52.8761 56.2216 52.9617C56.2216 53.0395 56.2449 53.1017 56.2916 53.1483C56.3227 53.1872 56.3655 53.2067 56.4199 53.2067C56.4744 53.2067 56.5171 53.1833 56.5483 53.1367C56.5871 53.09 56.6027 53.0239 56.5949 52.9383C56.5949 52.8839 56.5833 52.8372 56.5599 52.7983C56.5444 52.7595 56.521 52.7322 56.4899 52.7167C56.4588 52.6933 56.4277 52.6856 56.3966 52.6933Z" fill="black"/>
<path d="M56.9333 52.565H57.3299L57.4466 52.5767L57.5283 52.6233L57.5749 52.6933L57.5983 52.7867C57.5983 52.8489 57.5749 52.8995 57.5283 52.9383C57.4816 52.9772 57.4155 52.9967 57.3299 52.9967H57.2133V53.1717L57.2599 53.1833H57.2949V53.2883H56.9449V53.1833H57.0033L57.0149 53.1717V53.125L57.0266 52.7283V52.6817L57.0149 52.67H56.9449V52.5533L56.9333 52.565ZM57.2016 52.6817V52.8917H57.2716L57.3533 52.88L57.3883 52.845C57.4038 52.8295 57.4116 52.81 57.4116 52.7867C57.4116 52.7478 57.3999 52.7206 57.3766 52.705C57.3533 52.6895 57.3221 52.6817 57.2833 52.6817H57.2016Z" fill="black"/>
<path d="M57.7266 52.565L58.1699 52.6L58.2633 52.6117L58.3566 52.6583C58.3799 52.6739 58.3994 52.6972 58.4149 52.7283L58.4266 52.8217C58.4266 52.8761 58.4033 52.915 58.3566 52.9383C58.3177 52.9772 58.271 53.0006 58.2166 53.0083L58.3566 53.1833V53.195L58.3799 53.23H58.4033L58.4383 53.2417H58.4733V53.3467L58.2399 53.335L58.0183 53.0083H57.9599V53.195H58.0299V53.3117L57.6799 53.2767V53.1833H57.7499L57.7733 53.16V53.125L57.7966 52.7167V52.6817L57.7616 52.6583H57.7149V52.5533L57.7266 52.565ZM57.9833 52.705L57.9716 52.8917H58.0766C58.1155 52.8995 58.1466 52.8995 58.1699 52.8917C58.1933 52.8917 58.2088 52.8839 58.2166 52.8683C58.2322 52.8528 58.2399 52.8333 58.2399 52.81V52.7633L58.1933 52.7283L58.0999 52.7167H57.9833V52.705Z" fill="black"/>
<path d="M58.6133 52.635L58.9633 52.6817V52.7867H58.9283C58.9049 52.7789 58.8894 52.7789 58.8816 52.7867L58.8583 52.8333L58.8116 53.23V53.2767H58.8233L58.8583 53.3H58.8932L58.8816 53.405L58.5316 53.3583L58.5432 53.2533H58.5666C58.5899 53.2611 58.6055 53.2611 58.6133 53.2533H58.6249L58.6366 53.2183L58.6833 52.81V52.7517H58.6366L58.6016 52.74L58.6133 52.635Z" fill="black"/>
<path d="M59.3716 52.74L59.5349 52.775L59.6516 53.3583C59.6516 53.3894 59.6594 53.4089 59.6749 53.4167L59.7216 53.44L59.6983 53.5333L59.3599 53.475L59.3833 53.3817H59.4416L59.4533 53.37V53.2533L59.2199 53.2183L59.1849 53.2883V53.3117C59.1772 53.3194 59.1772 53.3272 59.1849 53.335H59.1966L59.2433 53.3583L59.2316 53.4517L58.9516 53.405L58.9633 53.3117H59.0099L59.0333 53.3L59.0566 53.265L59.3716 52.74ZM59.2783 53.125L59.4299 53.1483L59.3949 52.9383L59.2783 53.125Z" fill="black"/>
<path d="M59.9666 52.845L60.2816 52.9266L60.3049 53.3933L60.5383 52.9966L60.8533 53.0783L60.8299 53.1716H60.7949C60.7794 53.1561 60.7677 53.1561 60.7599 53.1716C60.7444 53.1716 60.7366 53.1833 60.7366 53.2066L60.6316 53.6033V53.65L60.6666 53.6616L60.7016 53.6733L60.6783 53.7783L60.3399 53.685L60.3633 53.5916H60.3983L60.4333 53.6033H60.4566V53.5566L60.5733 53.125L60.2583 53.6733L60.1649 53.6383L60.1299 53.0433L60.0249 53.4633V53.4866L60.0366 53.51H60.0716L60.1066 53.5216L60.0833 53.6266L59.7916 53.5566L59.8149 53.4516H59.8499L59.8849 53.4633H59.8966L59.9199 53.4166L60.0133 53.02V52.9733L59.9783 52.9616L59.9433 52.95L59.9666 52.845Z" fill="black"/>
<path d="M61.4249 53.2534L61.7749 53.3817L61.8916 53.44L61.9499 53.51L61.9732 53.5917L61.9616 53.685C61.9382 53.7395 61.8994 53.7784 61.8449 53.8017C61.7827 53.825 61.7127 53.825 61.6349 53.8017L61.5182 53.755L61.4716 53.8717V53.93L61.5066 53.9534H61.5416L61.5066 54.0584L61.1682 53.9417L61.2032 53.8367H61.2266L61.2732 53.86H61.2849L61.3082 53.8134L61.4482 53.44V53.3817L61.4132 53.3584H61.3899L61.4249 53.2534ZM61.6232 53.4517L61.5532 53.65L61.6116 53.6734L61.6932 53.685L61.7516 53.6734L61.7866 53.615C61.7944 53.5839 61.7905 53.5567 61.7749 53.5334C61.7594 53.51 61.736 53.4945 61.7049 53.4867L61.6232 53.4517Z" fill="black"/>
<path d="M62.1599 53.5217L62.5683 53.7083L62.6499 53.755C62.681 53.7706 62.7044 53.7939 62.7199 53.825L62.7549 53.9067L62.7316 54C62.7083 54.0544 62.6733 54.0894 62.6266 54.105H62.4749L62.5333 54.3267L62.5566 54.3617L62.5683 54.385L62.6033 54.4083H62.6266L62.5916 54.5133L62.3816 54.42L62.2883 54.035L62.2299 54.0117L62.1716 54.14V54.21L62.1949 54.2217L62.2299 54.245L62.1833 54.3267L61.8683 54.1867L61.9033 54.0933L61.9383 54.105L61.9733 54.1167H61.9966L62.0083 54.0817L62.1716 53.7083L62.1833 53.6733V53.65L62.1599 53.6383H62.1366L62.1133 53.6267L62.1599 53.5217ZM62.3583 53.7433L62.2766 53.9183L62.3816 53.9533C62.4127 53.9767 62.4399 53.9883 62.4633 53.9883L62.5216 53.9767C62.5371 53.9689 62.5488 53.9533 62.5566 53.93C62.5644 53.9144 62.5644 53.8989 62.5566 53.8833L62.5449 53.8367L62.4633 53.79L62.3466 53.7433H62.3583Z" fill="black"/>
<path d="M63.3499 54.0816C63.451 54.1361 63.5171 54.21 63.5483 54.3033C63.5794 54.3966 63.5677 54.4939 63.5133 54.595C63.4821 54.6572 63.4394 54.7039 63.3849 54.735C63.3305 54.7739 63.2683 54.7933 63.1983 54.7933C63.136 54.7933 63.0699 54.7739 62.9999 54.735C62.9066 54.6883 62.8405 54.6222 62.8016 54.5366C62.7627 54.4355 62.7744 54.3344 62.8366 54.2333C62.8832 54.1322 62.9571 54.0661 63.0582 54.035C63.1516 54.0116 63.2488 54.0272 63.3499 54.0816ZM63.3032 54.1866C63.2566 54.1555 63.206 54.1516 63.1516 54.175C63.0971 54.1983 63.0505 54.2489 63.0116 54.3266C62.9727 54.3966 62.9571 54.4628 62.9649 54.525C62.9727 54.5716 63.0038 54.6105 63.0582 54.6416C63.1049 54.665 63.1516 54.665 63.1983 54.6416C63.2527 54.6183 63.2994 54.5716 63.3383 54.5016C63.3694 54.4472 63.3849 54.4005 63.3849 54.3616C63.3849 54.315 63.3771 54.2761 63.3616 54.245L63.3032 54.1866Z" fill="black"/>
<path d="M63.8866 54.3617L63.9449 54.3967V54.42L64.2949 54.6417L64.3066 54.63L64.3649 54.665L64.3066 54.9217L64.2133 54.8984V54.805C64.2133 54.7739 64.2055 54.7467 64.1899 54.7234L64.1549 54.6767H64.1316L64.1199 54.7L63.8983 55.05L63.8749 55.0967V55.1084L63.8866 55.12L63.9333 55.155L63.8866 55.2367L63.5833 55.05L63.6416 54.9684L63.6532 54.98L63.6999 55.0034H63.7116L63.7466 54.9567L63.9799 54.6067V54.5717H63.9683C63.9527 54.5561 63.9294 54.5484 63.8983 54.5484L63.8282 54.56L63.7466 54.6067L63.6766 54.5367L63.8866 54.3617Z" fill="black"/>
<path d="M64.5399 54.805L65.0299 55.155L64.9599 55.3883L64.8666 55.365V55.2483L64.8433 55.1783C64.8277 55.155 64.8044 55.1355 64.7733 55.12L64.6916 55.05L64.5749 55.2017L64.6099 55.225L64.6566 55.2483H64.6916L64.7149 55.2017L64.7383 55.1783L64.8083 55.2367L64.6333 55.4817L64.5633 55.435L64.5749 55.4117L64.5983 55.365V55.3417L64.5516 55.295L64.5166 55.2833L64.4233 55.4117L64.4116 55.4467L64.4349 55.4817L64.4816 55.5167L64.5983 55.5633C64.6294 55.5711 64.6605 55.5711 64.6916 55.5633C64.7305 55.5555 64.7694 55.5361 64.8083 55.505L64.8549 55.5867L64.6216 55.75L64.1199 55.4L64.1783 55.3067L64.1899 55.3183L64.2366 55.3417H64.2599L64.2833 55.3067L64.5166 54.98L64.5399 54.945V54.9333L64.5049 54.8983L64.4816 54.8867L64.5399 54.805Z" fill="black"/>
<path d="M65.3449 55.8317L65.6133 56.065L65.5549 56.135L65.5316 56.1233L65.5083 56.1H65.4849L65.4499 56.135L65.3099 56.31L65.2283 56.24L65.2399 56.1817L65.1233 56.1583L65.0416 56.1C64.9872 56.0533 64.9483 56.0028 64.9249 55.9483C64.9094 55.8861 64.9094 55.8239 64.9249 55.7617C64.9249 55.6994 64.9483 55.6372 64.9949 55.575C65.0416 55.5205 65.096 55.4817 65.1583 55.4583C65.2205 55.435 65.2827 55.4311 65.3449 55.4466C65.4072 55.4544 65.4655 55.4778 65.5199 55.5167L65.5783 55.5867L65.6249 55.6683L65.6599 55.6567L65.7183 55.7033L65.6133 55.9367L65.5199 55.89V55.7617L65.5083 55.68L65.4616 55.6216L65.3683 55.5867L65.2633 55.61C65.2322 55.6255 65.1972 55.6567 65.1583 55.7033L65.0883 55.82V55.9483C65.096 55.9794 65.1155 56.0066 65.1466 56.03L65.2049 56.065H65.2633L65.3099 56.0417L65.3216 56.0183L65.3449 55.9833V55.9717L65.3099 55.9367L65.2866 55.9133L65.3449 55.8317Z" fill="black"/>
<path d="M66.1266 56.065L66.2432 56.1817L66.0216 56.7417C66.006 56.765 66.0021 56.7844 66.0099 56.8L66.0332 56.835L65.9633 56.9167L65.7299 56.6833L65.7883 56.6017L65.7999 56.625L65.8349 56.6367H65.8582L65.8816 56.6017L65.9049 56.5433L65.7416 56.3917L65.6716 56.4267L65.6483 56.4383V56.4733L65.6832 56.5083L65.6133 56.5783L65.4149 56.3917L65.4849 56.3217L65.5082 56.345H65.5316L65.5782 56.3333L66.1266 56.065ZM65.8466 56.3333L65.9516 56.4383L66.0332 56.24L65.8466 56.3333Z" fill="black"/>
<path d="M66.6049 56.4967L66.6516 56.5433L66.6399 56.5667L66.9199 56.8583H66.9432L66.9899 56.8933L66.8732 57.1267L66.7799 57.0917L66.8032 56.9983V56.9167C66.8032 56.8933 66.7955 56.8739 66.7799 56.8583H66.7566L66.7332 56.87L66.4416 57.1617L66.4066 57.1967V57.22L66.4416 57.2667L66.3716 57.3367L66.1382 57.08L66.2082 57.01V57.0333L66.2549 57.0567H66.2782L66.3132 57.0333L66.6166 56.7417L66.6282 56.7183V56.7067L66.5699 56.6717H66.4882L66.3949 56.695L66.3599 56.6017L66.5932 56.485L66.6049 56.4967Z" fill="black"/>
<path d="M0 9.375H37.3333V37.375H0V9.375Z" fill="#012169"/>
<path d="M4.375 9.375L18.6083 19.9333L32.7833 9.375H37.3333V12.9917L23.3333 23.4333L37.3333 33.8167V37.375H32.6667L18.6667 26.9333L4.725 37.375H0V33.875L13.9417 23.4917L0 13.1083V9.375H4.375Z" fill="white"/>
<path d="M24.7333 25.7667L37.3333 35.0417V37.375L21.525 25.7667H24.7333ZM14 26.9333L14.35 28.975L3.15 37.375H0L14 26.9333ZM37.3333 9.375V9.55L22.8083 20.5167L22.925 17.95L34.4167 9.375H37.3333ZM0 9.375L13.9417 19.6417H10.4417L0 11.825V9.375Z" fill="#C8102E"/>
<path d="M14.0583 9.375V37.375H23.3917V9.375H14.0583ZM0 18.7083V28.0417H37.3333V18.7083H0Z" fill="white"/>
<path d="M0 20.6333V26.2333H37.3333V20.6333H0ZM15.925 9.375V37.375H21.525V9.375H15.925Z" fill="#C8102E"/>
</g>
<defs>
<linearGradient id="paint0_linear_1_61494" x1="60.288" y1="26.8056" x2="60.3291" y2="24.1274" gradientUnits="userSpaceOnUse">
<stop stop-color="#474747"/>
<stop offset="1" stop-color="#FF5500"/>
</linearGradient>
<linearGradient id="paint1_linear_1_61494" x1="59.3772" y1="36.8588" x2="59.3819" y2="38.3718" gradientUnits="userSpaceOnUse">
<stop stop-color="#B50000"/>
<stop offset="1" stop-color="#FFC500"/>
</linearGradient>
<linearGradient id="paint2_linear_1_61494" x1="66.0199" y1="37.7832" x2="68.4912" y2="37.7509" gradientUnits="userSpaceOnUse">
<stop stop-color="#D5DFFF"/>
<stop offset="1" stop-color="white"/>
</linearGradient>
<linearGradient id="paint3_linear_1_61494" x1="59.8172" y1="26.2976" x2="60.7072" y2="26.2976" gradientUnits="userSpaceOnUse">
<stop stop-color="#474747"/>
<stop offset="1" stop-color="#FF5500"/>
</linearGradient>
<linearGradient id="paint4_linear_1_61494" x1="72.6943" y1="50.2112" x2="72.2611" y2="47.5194" gradientUnits="userSpaceOnUse">
<stop stop-color="#D5DFFF"/>
<stop offset="1" stop-color="white"/>
</linearGradient>
<linearGradient id="paint5_linear_1_61494" x1="66.6188" y1="38.7056" x2="65.5143" y2="36.9244" gradientUnits="userSpaceOnUse">
<stop stop-color="#D5DFFF"/>
<stop offset="1" stop-color="white"/>
</linearGradient>
<clipPath id="clip0_1_61494">
<rect width="74.6667" height="56" fill="white" transform="translate(0 9.375)"/>
</clipPath>
</defs>
</svg>
