<svg width="75" height="75" viewBox="0 0 75 75" fill="none" xmlns="http://www.w3.org/2000/svg">
<rect width="74.6667" height="74.75" fill="white"/>
<g clip-path="url(#clip0_1_61646)">
<path d="M0 9.375H74.6667V65.375H0V9.375Z" fill="#4997D0"/>
<path d="M24.8851 9.375H49.7817V65.375H24.8851V9.375Z" fill="white"/>
<path d="M34.6969 44.8377C34.9525 44.7991 35.0945 44.722 35.2649 44.6641" stroke="#24420E" stroke-width="0.0382121"/>
<path d="M35.4826 44.2688C35.6083 44.3971 35.7052 44.5518 35.7665 44.7219" stroke="#24420E" stroke-width="0.0382121"/>
<path d="M34.9998 44.2302C35.1323 44.3556 35.2175 44.4905 35.2838 44.6352" stroke="#24420E" stroke-width="0.0382121"/>
<path d="M30.5984 31.4651C30.5037 31.6193 30.3144 31.7254 30.144 31.7929" stroke="#24420E" stroke-width="0.0382121"/>
<path d="M30.1156 31.7736C30.1156 31.6387 30.0967 31.4844 30.1156 31.3494" stroke="#24420E" stroke-width="0.0382121"/>
<path d="M29.9358 31.8315C29.9358 31.87 29.9736 31.9665 29.9926 32.0243" stroke="#24420E" stroke-width="0.0382121"/>
<path d="M30.1913 32.1207L30.002 32.1497" stroke="#24420E" stroke-width="0.0382121"/>
<path d="M29.6234 32.0629C29.6234 32.3135 29.6518 32.6028 29.6707 32.8245" stroke="#24420E" stroke-width="0.0382121"/>
<path d="M29.5004 32.7281C29.5477 32.8053 29.595 32.8728 29.6518 32.9113" stroke="#24420E" stroke-width="0.0382121"/>
<path d="M29.2164 33.538C29.2637 33.6248 29.3111 33.7309 29.3395 33.9237" stroke="#24420E" stroke-width="0.0382121"/>
<path d="M29.6897 33.4705L29.5004 33.6151" stroke="#24420E" stroke-width="0.0382121"/>
<path d="M29.6613 34.0394C29.5666 34.1261 29.453 34.184 29.33 34.2418" stroke="#24420E" stroke-width="0.0382121"/>
<path d="M28.9703 38.1369C29.0664 38.3115 29.195 38.4655 29.3489 38.59" stroke="#24420E" stroke-width="0.0382121"/>
<path d="M29.4057 38.7539C29.3057 38.7414 29.2091 38.7086 29.1217 38.6575" stroke="#24420E" stroke-width="0.0382121"/>
<path d="M29.5382 39.4771L29.6991 39.5735" stroke="#24420E" stroke-width="0.0382121"/>
<path d="M29.6613 39.9012C29.7748 39.9784 29.8979 40.123 30.0115 40.2773" stroke="#24420E" stroke-width="0.0382121"/>
<path d="M29.879 40.5472C30.0115 40.5762 30.1156 40.6147 30.1819 40.6437" stroke="#24420E" stroke-width="0.0382121"/>
<path d="M30.0872 40.8847H30.2765" stroke="#24420E" stroke-width="0.0382121"/>
<path d="M30.3996 40.3737L30.3523 40.7787" stroke="#24420E" stroke-width="0.0382121"/>
<path d="M30.4469 40.9329L30.4848 40.7786" stroke="#24420E" stroke-width="0.0382121"/>
<path d="M30.9297 41.3571L30.9202 41.6656" stroke="#24420E" stroke-width="0.0382121"/>
<path d="M34.6307 44.3556L34.5171 44.5099" stroke="#24420E" stroke-width="0.0382121"/>
<path d="M34.2899 44.1338L34.2236 43.9603" stroke="#24420E" stroke-width="0.0382121"/>
<path d="M37.9153 45.5608C37.8396 45.4354 37.7165 45.3583 37.6029 45.3005C36.8741 44.9148 36.1452 44.7316 35.3312 44.5966C35.1324 44.5677 34.9431 44.3845 34.7443 44.2881C34.2711 44.0664 33.7505 43.9796 33.2961 43.7386C33.2677 43.7289 33.1541 43.6614 33.1068 43.5939C32.9175 43.3818 32.5862 43.3143 32.3874 43.1119C31.5923 42.3599 30.7594 41.6657 30.3239 40.6533C29.7939 39.4289 29.1407 38.1659 29.2259 36.7775C29.2827 35.8905 29.1597 35.0035 29.3679 34.1744C29.6897 32.921 30.0873 31.6965 30.8256 30.6649L30.7026 30.742C30.0016 31.8031 29.5068 32.9911 29.2449 34.2419C29.0272 35.0806 29.1502 35.9773 29.1029 36.845C29.0082 38.243 29.6708 39.506 30.1914 40.7305C30.6268 41.7332 31.4693 42.437 32.2549 43.1986C32.4631 43.3915 32.785 43.459 32.9743 43.6807C33.0312 43.7368 33.0948 43.7854 33.1636 43.8253C33.6274 44.0567 34.148 44.1435 34.6213 44.3749C34.8106 44.4713 34.9999 44.6448 35.1892 44.6834C35.9852 44.784 36.7593 45.0186 37.4799 45.3776C37.6052 45.434 37.7131 45.5239 37.7922 45.6379L37.9153 45.5511" fill="#406325"/>
<path d="M37.9153 45.5608C37.8396 45.4354 37.7165 45.3583 37.6029 45.3005C36.8741 44.9148 36.1452 44.7316 35.3312 44.5966C35.1324 44.5677 34.9431 44.3845 34.7443 44.2881C34.2711 44.0664 33.7505 43.9796 33.2961 43.7386C33.2677 43.7289 33.1541 43.6614 33.1068 43.5939C32.9175 43.3818 32.5862 43.3143 32.3874 43.1119C31.5923 42.3599 30.7594 41.6657 30.3239 40.6533C29.7939 39.4289 29.1407 38.1659 29.2259 36.7775C29.2827 35.8905 29.1597 35.0035 29.3679 34.1744C29.6897 32.921 30.0873 31.6965 30.8256 30.6649L30.7026 30.742C30.0016 31.8031 29.5068 32.9911 29.2449 34.2419C29.0272 35.0806 29.1502 35.9773 29.1029 36.845C29.0082 38.243 29.6708 39.506 30.1914 40.7305C30.6268 41.7332 31.4693 42.437 32.2549 43.1986C32.4631 43.3915 32.785 43.459 32.9743 43.6807C33.0312 43.7368 33.0948 43.7854 33.1636 43.8253C33.6274 44.0567 34.148 44.1435 34.6213 44.3749C34.8106 44.4713 34.9999 44.6448 35.1892 44.6834C35.9852 44.784 36.7593 45.0186 37.4799 45.3776C37.6052 45.434 37.7131 45.5239 37.7922 45.6379L37.9153 45.5511" stroke="#24420E" stroke-width="0.019106"/>
<path d="M30.3618 40.4123C30.1668 39.671 30.1603 38.8912 30.3429 38.1466C30.9771 39.4 30.7688 40.4316 30.3618 40.4123Z" fill="#67923D" stroke="#24420E" stroke-width="0.019106"/>
<path d="M34.7065 44.7895C34.0439 44.8281 32.7566 45.6861 32.6335 45.8886C34.0628 45.8982 34.9053 45.1848 34.7065 44.7895Z" fill="#67923D" stroke="#24420E" stroke-width="0.019106"/>
<path d="M35.4164 44.3749C34.7699 43.6509 34.314 42.7719 34.0912 41.8199C35.511 42.8709 35.8802 44.1628 35.4164 44.3749Z" fill="#67923D" stroke="#24420E" stroke-width="0.019106"/>
<path d="M34.9336 44.3845C34.2523 43.796 33.7308 43.039 33.4192 42.1863C34.8674 42.9769 35.3407 44.1338 34.9336 44.3845Z" fill="#67923D" stroke="#24420E" stroke-width="0.019106"/>
<path d="M33.457 43.7289C33.5517 42.9769 32.927 41.3957 32.7471 41.2222C32.4632 42.813 33.0311 43.8832 33.457 43.7289Z" fill="#67923D" stroke="#24420E" stroke-width="0.019106"/>
<path d="M30.8729 41.3861C30.6552 40.8462 30.8162 39.5253 30.9203 39.3614C31.4409 40.4894 31.2326 41.4054 30.8729 41.3861Z" fill="#67923D" stroke="#24420E" stroke-width="0.019106"/>
<path d="M29.5762 33.9815C30.0943 33.2985 30.7799 32.7665 31.5639 32.4389C30.9203 33.8465 29.8601 34.3575 29.5762 33.9815Z" fill="#67923D" stroke="#24420E" stroke-width="0.019106"/>
<path d="M29.6424 33.4416C30.0179 32.6642 30.5855 31.9997 31.2894 31.5134C30.9392 33.0271 29.9926 33.7502 29.6424 33.4416Z" fill="#67923D" stroke="#24420E" stroke-width="0.019106"/>
<path d="M32.2833 43.0058C31.8459 42.2303 31.6082 41.3547 31.5923 40.4605C32.6525 41.6657 32.7282 42.8998 32.2738 43.0058H32.2833Z" fill="#67923D" stroke="#24420E" stroke-width="0.019106"/>
<path d="M29.5667 39.4868C28.9041 39.5928 27.5411 39.0433 27.3896 38.8794C28.7716 38.5708 29.6992 39.0722 29.5667 39.4868Z" fill="#67923D" stroke="#24420E" stroke-width="0.019106"/>
<path d="M29.3585 38.5515C29.4342 38.0212 30.1725 37.0282 30.3334 36.951C30.2388 38.108 29.633 38.7443 29.3585 38.5515Z" fill="#67923D" stroke="#24420E" stroke-width="0.019106"/>
<path d="M34.2143 44.2014C33.2923 44.4106 32.4404 44.8628 31.7438 45.5126C33.4476 45.5222 34.4604 44.6738 34.2143 44.2014Z" fill="#67923D" stroke="#24420E" stroke-width="0.019106"/>
<path d="M30.3713 40.4027C30.7688 40.422 30.9771 39.4 30.3429 38.1466C30.4624 38.893 30.4719 39.6534 30.3713 40.4027Z" fill="#406325" stroke="#24420E" stroke-width="0.019106"/>
<path d="M31.4314 42.3309C30.8476 41.7995 30.1408 41.4279 29.3774 41.2511C30.2198 42.4177 31.261 42.7069 31.4314 42.3309Z" fill="#406325" stroke="#24420E" stroke-width="0.019106"/>
<path d="M29.1218 37.221C28.8532 36.342 28.3714 35.5462 27.7209 34.9071C27.8629 36.5654 28.7243 37.4813 29.1218 37.221Z" fill="#406325" stroke="#24420E" stroke-width="0.019106"/>
<path d="M29.9169 40.528C29.4437 40.1713 28.1185 40.0074 27.9292 40.0652C28.8947 40.8751 29.8412 40.8847 29.9169 40.528Z" fill="#406325" stroke="#24420E" stroke-width="0.019106"/>
<path d="M29.0272 38.137C28.6183 37.5577 28.0665 37.0987 27.4275 36.8065C27.9481 38.002 28.8095 38.4455 29.0272 38.1273V38.137Z" fill="#406325" stroke="#24420E" stroke-width="0.019106"/>
<path d="M29.2922 33.5477C29.3679 32.8149 28.7621 31.2916 28.5918 31.118C28.3173 32.6607 28.8663 33.6923 29.2828 33.5477H29.2922Z" fill="#406325" stroke="#24420E" stroke-width="0.019106"/>
<path d="M29.7087 32.1111C29.9642 31.4844 29.7844 29.9514 29.6614 29.7586C29.0556 31.0602 29.3017 32.1304 29.7087 32.1111Z" fill="#406325" stroke="#24420E" stroke-width="0.019106"/>
<path d="M30.182 31.3687C30.4427 30.7828 30.5565 30.1401 30.5133 29.4983C29.8317 30.4335 29.8507 31.3205 30.182 31.3687Z" fill="#406325" stroke="#24420E" stroke-width="0.019106"/>
<path d="M30.7499 30.7806C31.1701 30.3048 31.4634 29.7272 31.6018 29.103C30.6836 29.7779 30.447 30.6264 30.7499 30.7806Z" fill="#406325" stroke="#24420E" stroke-width="0.019106"/>
<path d="M29.2259 34.9456C29.2354 35.0324 29.1313 34.155 28.2794 33.1813C28.3173 34.6082 28.8663 35.1481 29.2259 34.9456Z" fill="#406325" stroke="#24420E" stroke-width="0.019106"/>
<path d="M32.3117 43.218C31.5589 42.8177 30.7186 42.6187 29.8696 42.6395C31.0623 43.6422 32.2265 43.6615 32.3117 43.218Z" fill="#406325" stroke="#24420E" stroke-width="0.019106"/>
<path d="M33.457 43.7289C33.0216 43.8735 32.4631 42.813 32.7376 41.2222C33.0027 42.572 33.3245 43.6325 33.4476 43.7289H33.457Z" fill="#406325" stroke="#24420E" stroke-width="0.019106"/>
<path d="M34.7159 44.7895C34.9053 45.1848 34.0723 45.8982 32.6525 45.8886C33.7883 45.4065 34.6592 44.9341 34.7159 44.7991V44.7895Z" fill="#406325" stroke="#24420E" stroke-width="0.019106"/>
<path d="M35.4069 44.3653C35.8707 44.1435 35.511 42.8709 34.0818 41.8199C34.8958 43.0926 35.4543 44.1917 35.4069 44.3653Z" fill="#406325" stroke="#24420E" stroke-width="0.019106"/>
<path d="M34.9336 44.3749C35.3312 44.1145 34.8674 42.9769 33.4192 42.1863C34.3184 43.2661 34.9526 44.211 34.9336 44.3749Z" fill="#406325" stroke="#24420E" stroke-width="0.019106"/>
<path d="M30.8824 41.3861C31.2326 41.4054 31.4503 40.4894 30.9297 39.3614C30.996 40.4219 30.9676 41.2897 30.8824 41.3861Z" fill="#406325" stroke="#24420E" stroke-width="0.019106"/>
<path d="M29.5762 33.9912C29.8601 34.3575 30.9013 33.8562 31.5545 32.4485C30.589 33.3548 29.7276 33.9912 29.5762 33.9912Z" fill="#406325" stroke="#24420E" stroke-width="0.019106"/>
<path d="M29.6613 33.4416C30.0021 33.7502 30.9392 33.0271 31.2894 31.5134C30.5322 32.6028 29.8128 33.4223 29.6613 33.4416Z" fill="#406325" stroke="#24420E" stroke-width="0.019106"/>
<path d="M32.2833 42.9962C32.7282 42.8901 32.6619 41.6657 31.5923 40.4605C32.0656 41.7621 32.3496 42.8516 32.2833 42.9962Z" fill="#406325" stroke="#24420E" stroke-width="0.019106"/>
<path d="M29.5478 39.4867C29.6803 39.0721 28.7621 38.5804 27.3896 38.8793C28.5539 39.0914 29.4721 39.3614 29.5478 39.4867Z" fill="#406325" stroke="#24420E" stroke-width="0.019106"/>
<path d="M29.3679 38.5612C29.6424 38.7347 30.2293 38.108 30.3429 36.951C30.0953 37.5326 29.767 38.0748 29.3679 38.5612Z" fill="#406325" stroke="#24420E" stroke-width="0.019106"/>
<path d="M34.2143 44.211C34.4509 44.6931 33.457 45.5319 31.7532 45.5222C33.0973 44.9534 34.148 44.3845 34.2143 44.211Z" fill="#406325" stroke="#24420E" stroke-width="0.019106"/>
<path d="M29.7087 39.9013C29.3123 39.259 28.7575 38.7337 28.0995 38.378C28.5728 39.6892 29.4437 40.2195 29.7087 39.9013Z" fill="#406325" stroke="#24420E" stroke-width="0.019106"/>
<path d="M29.0461 34.8589C29.4247 34.4057 30.7026 33.9719 30.9014 33.9912C30.1441 35.0035 29.1976 35.206 29.0461 34.8589Z" fill="#67923D" stroke="#24420E" stroke-width="0.019106"/>
<path d="M31.4219 42.3309C31.2516 42.7166 30.2198 42.4273 29.3679 41.2607C29.9981 41.7168 30.69 42.0773 31.4219 42.3309Z" fill="#67923D" stroke="#24420E" stroke-width="0.019106"/>
<path d="M29.1123 37.221C28.7148 37.4813 27.8724 36.5654 27.7209 34.9071C28.3456 36.1894 28.9514 37.1728 29.1123 37.221Z" fill="#67923D" stroke="#24420E" stroke-width="0.019106"/>
<path d="M29.9075 40.528C29.8412 40.8847 28.8946 40.8751 27.9386 40.0748C28.57 40.3219 29.2331 40.4745 29.9075 40.528Z" fill="#67923D" stroke="#24420E" stroke-width="0.019106"/>
<path d="M29.0082 38.1273C28.7905 38.4358 27.9481 38.002 27.4275 36.8065C28.2037 37.5778 28.8946 38.1273 29.0177 38.1273H29.0082Z" fill="#67923D" stroke="#24420E" stroke-width="0.019106"/>
<path d="M29.2733 33.538C28.8568 33.6923 28.3173 32.6703 28.5823 31.1277C28.8379 32.4293 29.1502 33.4609 29.2733 33.538Z" fill="#67923D" stroke="#24420E" stroke-width="0.019106"/>
<path d="M29.6992 32.1014C29.2922 32.1304 29.0461 31.0602 29.6519 29.7586C29.5762 30.9927 29.6046 32.005 29.6992 32.1014Z" fill="#67923D" stroke="#24420E" stroke-width="0.019106"/>
<path d="M30.1725 31.3687C29.8507 31.3109 29.8223 30.4335 30.5132 29.4983C30.3086 30.1009 30.1937 30.7314 30.1725 31.3687Z" fill="#67923D" stroke="#24420E" stroke-width="0.019106"/>
<path d="M30.7404 30.7806C30.447 30.6167 30.6742 29.7779 31.5923 29.1127C31.2291 29.6228 30.942 30.1849 30.7404 30.7806Z" fill="#67923D" stroke="#24420E" stroke-width="0.019106"/>
<path d="M29.2259 34.9456C28.8568 35.1481 28.3173 34.6082 28.2794 33.1813C28.7527 34.3093 29.0934 34.8974 29.2259 34.9456Z" fill="#67923D" stroke="#24420E" stroke-width="0.019106"/>
<path d="M32.3022 43.2179C32.217 43.6615 31.0623 43.6422 29.8696 42.6491C31.119 43.0637 32.1697 43.2951 32.3022 43.2179Z" fill="#67923D" stroke="#24420E" stroke-width="0.019106"/>
<path d="M31.5261 42.302C31.1688 41.7481 30.9539 41.1115 30.9013 40.4509C31.7532 41.2897 31.8668 42.1959 31.545 42.302H31.5261Z" fill="#67923D" stroke="#24420E" stroke-width="0.019106"/>
<path d="M29.9359 39.8916C29.5951 39.3324 29.5572 37.8766 29.6519 37.6741C30.4375 38.8215 30.3429 39.8627 29.9359 39.8916Z" fill="#67923D" stroke="#24420E" stroke-width="0.019106"/>
<path d="M29.6803 39.9013C29.4247 40.2195 28.5539 39.6989 28.0901 38.378C28.5424 38.9639 29.0784 39.4774 29.6803 39.9013Z" fill="#67923D" stroke="#24420E" stroke-width="0.019106"/>
<path d="M29.0462 34.8589C29.1977 35.206 30.1253 35.0035 30.892 34.0008C29.7561 34.6564 29.3112 34.9456 29.0462 34.8589Z" fill="#406325" stroke="#24420E" stroke-width="0.019106"/>
<path d="M29.9265 39.8724C30.3335 39.8434 30.4282 38.8118 29.6425 37.6741C29.8521 38.39 29.9479 39.1353 29.9265 39.882V39.8724Z" fill="#406325" stroke="#24420E" stroke-width="0.019106"/>
<path d="M31.5356 42.302C31.8575 42.2056 31.7439 41.2897 30.9015 40.4509C31.3179 41.3861 31.583 42.1863 31.5356 42.302Z" fill="#406325" stroke="#24420E" stroke-width="0.019106"/>
<path d="M29.2166 36.575C29.4059 35.7651 29.0557 34.3961 28.8096 34.1068C28.3647 35.5916 28.7906 36.6714 29.2166 36.575Z" fill="#406325" stroke="#24420E" stroke-width="0.019106"/>
<path d="M29.1975 36.7679C28.6296 36.8932 28.374 35.6109 28.8095 34.1551C28.9041 35.4567 29.0745 36.6715 29.1881 36.7583L29.1975 36.7679Z" fill="#67923D" stroke="#24420E" stroke-width="0.019106"/>
<path d="M29.0745 36.7582C29.0272 36.0351 29.7371 34.5407 29.9264 34.3768C30.1157 35.9002 29.5004 36.9125 29.0745 36.7582Z" fill="#67923D" stroke="#24420E" stroke-width="0.019106"/>
<path d="M29.084 36.7486C29.5099 36.9029 30.1157 35.9002 29.9264 34.3768C29.5951 35.6591 29.2165 36.6715 29.084 36.7486Z" fill="#406325" stroke="#24420E" stroke-width="0.019106"/>
<path d="M29.207 37.6838C29.3381 36.8454 29.6842 36.0572 30.2104 35.3988C30.2861 36.9607 29.614 37.8959 29.207 37.6838Z" fill="#67923D" stroke="#24420E" stroke-width="0.019106"/>
<path d="M29.2165 37.6934C29.614 37.9056 30.2861 36.98 30.2104 35.4277C29.7939 36.6618 29.3585 37.6356 29.2165 37.6934Z" fill="#406325" stroke="#24420E" stroke-width="0.019106"/>
<path d="M29.4625 32.7764C29.52 32.7764 29.5666 32.7289 29.5666 32.6703C29.5666 32.6118 29.52 32.5643 29.4625 32.5643C29.405 32.5643 29.3584 32.6118 29.3584 32.6703C29.3584 32.7289 29.405 32.7764 29.4625 32.7764Z" fill="#BA1F3E" stroke="#511124" stroke-width="0.019106"/>
<path d="M30.2576 32.1786C30.3151 32.1786 30.3617 32.1311 30.3617 32.0725C30.3617 32.014 30.3151 31.9665 30.2576 31.9665C30.2001 31.9665 30.1535 32.014 30.1535 32.0725C30.1535 32.1311 30.2001 32.1786 30.2576 32.1786Z" fill="#BA1F3E" stroke="#511124" stroke-width="0.019106"/>
<path d="M29.9168 31.8508C29.9743 31.8508 30.021 31.8033 30.021 31.7447C30.021 31.6862 29.9743 31.6387 29.9168 31.6387C29.8593 31.6387 29.8127 31.6862 29.8127 31.7447C29.8127 31.8033 29.8593 31.8508 29.9168 31.8508Z" fill="#BA1F3E" stroke="#511124" stroke-width="0.019106"/>
<path d="M29.0555 38.754C29.1234 38.754 29.1785 38.6979 29.1785 38.6286C29.1785 38.5594 29.1234 38.5033 29.0555 38.5033C28.9875 38.5033 28.9324 38.5594 28.9324 38.6286C28.9324 38.6979 28.9875 38.754 29.0555 38.754Z" fill="#BA1F3E" stroke="#511124" stroke-width="0.019106"/>
<path d="M29.2921 37.2114C29.3601 37.2114 29.4152 37.1553 29.4152 37.086C29.4152 37.0168 29.3601 36.9607 29.2921 36.9607C29.2242 36.9607 29.1691 37.0168 29.1691 37.086C29.1691 37.1553 29.2242 37.2114 29.2921 37.2114Z" fill="#BA1F3E" stroke="#511124" stroke-width="0.019106"/>
<path d="M30.5416 40.8172C30.6095 40.8172 30.6646 40.7611 30.6646 40.6919C30.6646 40.6226 30.6095 40.5665 30.5416 40.5665C30.4736 40.5665 30.4185 40.6226 30.4185 40.6919C30.4185 40.7611 30.4736 40.8172 30.5416 40.8172Z" fill="#BA1F3E" stroke="#511124" stroke-width="0.019106"/>
<path d="M29.9926 41.0004C30.0605 41.0004 30.1156 40.9443 30.1156 40.8751C30.1156 40.8059 30.0605 40.7498 29.9926 40.7498C29.9246 40.7498 29.8695 40.8059 29.8695 40.8751C29.8695 40.9443 29.9246 41.0004 29.9926 41.0004Z" fill="#BA1F3E" stroke="#511124" stroke-width="0.019106"/>
<path d="M34.1858 44.0085C34.2538 44.0085 34.3088 43.9524 34.3088 43.8832C34.3088 43.8139 34.2538 43.7578 34.1858 43.7578C34.1178 43.7578 34.0627 43.8139 34.0627 43.8832C34.0627 43.9524 34.1178 44.0085 34.1858 44.0085Z" fill="#BA1F3E" stroke="#511124" stroke-width="0.019106"/>
<path d="M34.4603 44.6931C34.5282 44.6931 34.5833 44.6369 34.5833 44.5677C34.5833 44.4985 34.5282 44.4424 34.4603 44.4424C34.3923 44.4424 34.3372 44.4985 34.3372 44.5677C34.3372 44.6369 34.3923 44.6931 34.4603 44.6931Z" fill="#BA1F3E" stroke="#511124" stroke-width="0.019106"/>
<path d="M45.0145 33.4128C45.0808 33.4706 45.1281 33.4899 45.2322 33.596" stroke="#24420E" stroke-width="0.0382121"/>
<path d="M44.6075 31.7738C44.6075 31.6388 44.5507 31.417 44.5223 31.2917" stroke="#24420E" stroke-width="0.0382121"/>
<path d="M44.8536 31.5809C44.8536 31.7641 44.8252 31.9377 44.7495 32.1016" stroke="#24420E" stroke-width="0.0382121"/>
<path d="M44.3519 32.0533C44.5223 32.2076 44.6832 32.3426 44.8536 32.4294" stroke="#24420E" stroke-width="0.0382121"/>
<path d="M45.2133 32.545C45.2227 32.7379 45.2038 32.9307 45.147 33.1235" stroke="#24420E" stroke-width="0.0382121"/>
<path d="M45.1849 33.2681L45.3079 33.0464" stroke="#24420E" stroke-width="0.0382121"/>
<path d="M45.1281 34.2227C45.2606 34.2516 45.3931 34.4155 45.4594 34.5601" stroke="#24420E" stroke-width="0.0382121"/>
<path d="M45.5067 34.4348L45.6582 34.2227" stroke="#24420E" stroke-width="0.0382121"/>
<path d="M45.8191 37.1922C45.7528 37.308 45.6768 37.4176 45.5919 37.52" stroke="#24420E" stroke-width="0.0382121"/>
<path d="M45.2133 37.52C45.289 37.655 45.3647 37.8093 45.4594 37.9057" stroke="#24420E" stroke-width="0.0382121"/>
<path d="M45.696 38.4745C45.5851 38.6347 45.4393 38.7667 45.2701 38.8601" stroke="#24420E" stroke-width="0.0382121"/>
<path d="M45.289 39.294C45.1849 39.3711 45.0524 39.5832 44.9388 39.7472" stroke="#24420E" stroke-width="0.0382121"/>
<path d="M45.7339 37.7996L45.5351 37.8863" stroke="#24420E" stroke-width="0.0382121"/>
<path d="M45.4026 37.1729L45.5162 37.2693" stroke="#24420E" stroke-width="0.0382121"/>
<path d="M44.6359 40.8752H44.4466" stroke="#24420E" stroke-width="0.0382121"/>
<path d="M44.2478 40.7017L44.3046 40.8559" stroke="#24420E" stroke-width="0.0382121"/>
<path d="M43.5852 41.3476C43.5568 41.5308 43.5757 41.7043 43.5947 41.8875" stroke="#24420E" stroke-width="0.0382121"/>
<path d="M44.0017 41.0198L44.0963 41.2319" stroke="#24420E" stroke-width="0.0382121"/>
<path d="M44.4655 41.2223L44.2289 41.2512" stroke="#24420E" stroke-width="0.0382121"/>
<path d="M41.3135 43.6904L41.2188 43.864" stroke="#24420E" stroke-width="0.0382121"/>
<path d="M42.3452 43.4783C42.2032 43.4976 42.0802 43.4783 41.9571 43.459" stroke="#24420E" stroke-width="0.0382121"/>
<path d="M41.4365 44.0375C41.3419 43.9893 41.2472 43.97 41.1526 43.9411" stroke="#24420E" stroke-width="0.0382121"/>
<path d="M39.7611 44.2014C39.6759 44.2689 39.5718 44.4328 39.4772 44.5871" stroke="#24420E" stroke-width="0.0382121"/>
<path d="M39.4204 44.1532C39.1932 44.2785 39.1175 44.5099 39.0039 44.7124" stroke="#24420E" stroke-width="0.0382121"/>
<path d="M39.2689 44.9824C39.1175 44.9438 38.9471 44.8667 38.7672 44.7896" stroke="#24420E" stroke-width="0.0382121"/>
<path d="M40.348 44.7221C40.1303 44.6064 39.9031 44.6257 39.676 44.5871" stroke="#24420E" stroke-width="0.0382121"/>
<path d="M40.6982 44.5485C40.348 44.481 40.0356 44.4907 39.7233 44.5389" stroke="#24420E" stroke-width="0.0382121"/>
<path d="M40.4616 44.2882L40.3291 44.2303" stroke="#24420E" stroke-width="0.0382121"/>
<path d="M39.799 44.7607L39.5813 44.6353" stroke="#24420E" stroke-width="0.0382121"/>
<path d="M45.0618 39.8918C44.9482 39.9689 44.8252 40.1135 44.7116 40.2678" stroke="#24420E" stroke-width="0.0382121"/>
<path d="M44.882 32.5932L44.6737 32.5161" stroke="#24420E" stroke-width="0.0382121"/>
<path d="M36.8078 45.5512C36.8835 45.4259 37.0066 45.3584 37.1202 45.2909C37.849 44.9052 38.5779 44.7317 39.3919 44.5967C39.5907 44.5581 39.78 44.375 39.9787 44.2882C40.452 44.0568 40.9726 43.97 41.427 43.7386C41.4554 43.7193 41.569 43.6519 41.6163 43.5844C41.8056 43.3723 42.1369 43.3048 42.3357 43.1023C43.1308 42.3503 43.9637 41.6561 44.3991 40.6438C44.9292 39.4193 45.5823 38.1563 45.4971 36.7679C45.4404 35.8809 45.5634 34.9939 45.3552 34.1648C45.0926 32.9112 44.5979 31.7202 43.8975 30.6553L44.0205 30.7325C44.7226 31.7964 45.2175 32.9878 45.4782 34.2419C45.6959 35.0711 45.5729 35.9677 45.6202 36.8451C45.7149 38.2334 45.0523 39.4964 44.5317 40.7305C44.0962 41.7332 43.2538 42.4274 42.4682 43.1891C42.2599 43.3819 41.9381 43.4494 41.7488 43.6711C41.6919 43.7272 41.6283 43.7758 41.5595 43.8158C41.0957 44.0471 40.5751 44.1436 40.1018 44.3653C39.9125 44.4617 39.7232 44.6353 39.5339 44.6738C38.7378 44.7744 37.9637 45.009 37.2432 45.368C37.1179 45.4244 37.0099 45.5144 36.9309 45.6283L36.8078 45.5512Z" fill="#406325" stroke="#24420E" stroke-width="0.019106"/>
<path d="M44.3045 40.7015C44.5695 39.9881 44.3045 38.3105 44.172 38.0984C43.5378 39.5832 43.8501 40.7594 44.3045 40.7015Z" fill="#406325" stroke="#24420E" stroke-width="0.019106"/>
<path d="M43.6324 41.3765C43.8501 40.8366 43.6987 39.5157 43.5946 39.3518C43.074 40.4798 43.2822 41.4054 43.6324 41.3765Z" fill="#406325" stroke="#24420E" stroke-width="0.019106"/>
<path d="M45.2321 34.2322C44.7546 33.6083 44.1246 33.1229 43.4053 32.8246C43.9921 34.1069 44.9671 34.5793 45.2321 34.2322Z" fill="#406325" stroke="#24420E" stroke-width="0.019106"/>
<path d="M45.0807 33.4609C44.9103 32.8728 43.9069 31.9183 43.7082 31.8508C44.0016 33.1042 44.7872 33.7116 45.0807 33.4609Z" fill="#406325" stroke="#24420E" stroke-width="0.019106"/>
<path d="M45.5256 34.8975C45.1943 34.5119 44.0868 34.1358 43.9164 34.1551C44.579 35.0229 45.393 35.206 45.5256 34.8975Z" fill="#406325" stroke="#24420E" stroke-width="0.019106"/>
<path d="M45.2605 39.3711C45.8379 39.4675 47.059 38.9662 47.182 38.8215C45.961 38.5516 45.1469 39.0047 45.2605 39.3711Z" fill="#406325" stroke="#24420E" stroke-width="0.019106"/>
<path d="M45.2416 38.8215C45.2416 38.2816 44.6452 37.2018 44.4843 37.0861C44.437 38.243 44.9481 38.9661 45.2416 38.8215Z" fill="#406325" stroke="#24420E" stroke-width="0.019106"/>
<path d="M45.2889 37.5006C45.1562 36.6657 44.8102 35.8809 44.2856 35.2253C44.2098 36.7872 44.8819 37.7127 45.2889 37.5006Z" fill="#406325" stroke="#24420E" stroke-width="0.019106"/>
<path d="M40.2722 44.7605C40.8687 45.2964 41.5936 45.6623 42.3735 45.8211C41.5406 44.6352 40.471 44.3652 40.2817 44.7605H40.2722Z" fill="#406325" stroke="#24420E" stroke-width="0.019106"/>
<path d="M44.3045 40.6823C43.8406 40.7402 43.5377 39.5832 44.1719 38.0984C44.1246 39.4675 44.1909 40.5763 44.3045 40.6823Z" fill="#67923D" stroke="#24420E" stroke-width="0.019106"/>
<path d="M39.2499 44.8859C39.9125 44.9341 41.1998 45.7922 41.3228 45.9947C39.8935 46.0043 39.0511 45.2909 39.2404 44.8956L39.2499 44.8859Z" fill="#67923D" stroke="#24420E" stroke-width="0.019106"/>
<path d="M39.2499 44.1243C39.4392 43.353 40.6697 42.0803 40.9063 41.9935C40.5656 43.6422 39.6096 44.4521 39.2499 44.1243Z" fill="#67923D" stroke="#24420E" stroke-width="0.019106"/>
<path d="M41.266 43.729C41.1714 42.9673 41.7961 41.3861 41.9759 41.2222C42.2599 42.8034 41.692 43.8736 41.266 43.729Z" fill="#67923D" stroke="#24420E" stroke-width="0.019106"/>
<path d="M43.3011 42.3213C43.8822 41.7913 44.5856 41.4199 45.3457 41.2415C44.5032 42.4081 43.4715 42.6974 43.2917 42.3213H43.3011Z" fill="#67923D" stroke="#24420E" stroke-width="0.019106"/>
<path d="M45.7338 37.1825C45.8284 36.5751 46.6519 35.4567 46.8318 35.3603C46.7182 36.6715 46.0461 37.385 45.7338 37.1921V37.1825Z" fill="#67923D" stroke="#24420E" stroke-width="0.019106"/>
<path d="M44.6263 40.8559C45.3403 40.4846 46.1345 40.3023 46.9359 40.3256C45.8189 41.2608 44.7115 41.2704 44.6263 40.8559Z" fill="#67923D" stroke="#24420E" stroke-width="0.019106"/>
<path d="M45.6012 38.4938C45.8852 37.9153 47.0778 37.1247 47.2766 37.1054C46.7276 38.3588 45.8284 38.8216 45.6012 38.4938Z" fill="#67923D" stroke="#24420E" stroke-width="0.019106"/>
<path d="M45.4593 34.0973C45.4593 33.3646 46.2165 31.9087 46.4058 31.7641C46.5099 33.3164 45.8663 34.2901 45.4593 34.0973Z" fill="#67923D" stroke="#24420E" stroke-width="0.019106"/>
<path d="M44.8061 31.6002C44.6444 30.9684 44.6411 30.3053 44.7967 29.6719C45.3173 30.7228 45.1469 31.6002 44.7967 31.6002H44.8061Z" fill="#67923D" stroke="#24420E" stroke-width="0.019106"/>
<path d="M44.3991 31.3881C43.9021 30.7723 43.5637 30.0399 43.4147 29.2573C44.5316 30.154 44.7777 31.2242 44.3991 31.3881Z" fill="#67923D" stroke="#24420E" stroke-width="0.019106"/>
<path d="M45.5066 34.7143C45.4782 34.8011 45.7905 33.9719 46.8507 33.2392C46.4721 34.6179 45.8095 35.0036 45.5066 34.7143Z" fill="#67923D" stroke="#24420E" stroke-width="0.019106"/>
<path d="M42.2788 43.3819C42.9414 42.8902 44.7872 42.6491 45.0428 42.7359C43.6987 43.8736 42.3735 43.8929 42.2788 43.3819Z" fill="#67923D" stroke="#24420E" stroke-width="0.019106"/>
<path d="M43.6324 41.3765C43.2822 41.3958 43.0645 40.4798 43.5851 39.3518C43.5188 40.4124 43.5472 41.2801 43.6324 41.3765Z" fill="#67923D" stroke="#24420E" stroke-width="0.019106"/>
<path d="M45.2321 34.2323C44.9765 34.5794 44.0016 34.1166 43.4147 32.8246C43.946 33.3861 44.559 33.8608 45.2321 34.2323Z" fill="#67923D" stroke="#24420E" stroke-width="0.019106"/>
<path d="M45.0712 33.4609C44.7777 33.7116 44.0016 33.1138 43.7081 31.8508C44.3423 32.7571 44.9386 33.4416 45.0712 33.4609Z" fill="#67923D" stroke="#24420E" stroke-width="0.019106"/>
<path d="M45.5255 34.9072C45.393 35.2061 44.5884 35.0325 43.9258 34.1648C44.9103 34.7336 45.2983 34.9747 45.535 34.9072H45.5255Z" fill="#67923D" stroke="#24420E" stroke-width="0.019106"/>
<path d="M45.2794 39.3615C45.1564 38.9951 45.9704 38.5613 47.1915 38.8312C46.5313 38.9079 45.8866 39.0867 45.2794 39.3615Z" fill="#67923D" stroke="#24420E" stroke-width="0.019106"/>
<path d="M45.2415 38.8216C44.9386 38.9662 44.437 38.2527 44.4843 37.0958C44.6536 37.7083 44.9086 38.2928 45.2415 38.8312V38.8216Z" fill="#67923D" stroke="#24420E" stroke-width="0.019106"/>
<path d="M45.2794 37.52C44.8724 37.7321 44.2098 36.8065 44.2855 35.2543C44.702 36.4884 45.1374 37.4621 45.2794 37.52Z" fill="#67923D" stroke="#24420E" stroke-width="0.019106"/>
<path d="M40.2911 44.7606C40.4804 44.3556 41.5311 44.6256 42.3735 45.8018C41.3323 45.1559 40.4331 44.7124 40.2911 44.7606Z" fill="#67923D" stroke="#24420E" stroke-width="0.019106"/>
<path d="M41.266 43.7097C41.7014 43.864 42.2599 42.8034 41.9854 41.2126C41.7204 42.5624 41.3985 43.6326 41.266 43.7193V43.7097Z" fill="#406325" stroke="#24420E" stroke-width="0.019106"/>
<path d="M42.241 43.2083C42.5993 42.3919 42.7491 41.4964 42.6764 40.6052C41.7298 41.9164 41.7866 43.1408 42.241 43.2083Z" fill="#406325" stroke="#24420E" stroke-width="0.019106"/>
<path d="M39.2404 44.8956C39.0511 45.2909 39.8746 46.0043 41.3039 45.985C40.168 45.5223 39.2972 45.0402 39.2404 44.8956Z" fill="#406325" stroke="#24420E" stroke-width="0.019106"/>
<path d="M39.2593 44.1146C39.619 44.4424 40.5656 43.6422 40.9063 41.9935C40.1396 43.1891 39.4203 44.0953 39.2593 44.1146Z" fill="#406325" stroke="#24420E" stroke-width="0.019106"/>
<path d="M43.3011 42.3213C43.4715 42.707 44.5032 42.4178 45.3551 41.2512C44.7249 41.7072 44.033 42.0677 43.3011 42.3213Z" fill="#406325" stroke="#24420E" stroke-width="0.019106"/>
<path d="M45.7432 37.1825C46.0556 37.385 46.7181 36.6715 46.8317 35.3699C46.5587 36.0256 46.1919 36.6364 45.7432 37.1825Z" fill="#406325" stroke="#24420E" stroke-width="0.019106"/>
<path d="M44.6263 40.8558C44.7209 41.2801 45.8095 41.2608 46.9359 40.3256C45.7527 40.7112 44.7588 40.9233 44.6357 40.8558H44.6263Z" fill="#406325" stroke="#24420E" stroke-width="0.019106"/>
<path d="M45.6107 38.4841C45.8473 38.8119 46.7371 38.3491 47.2861 37.0958C46.8004 37.6429 46.2354 38.1111 45.6107 38.4841Z" fill="#406325" stroke="#24420E" stroke-width="0.019106"/>
<path d="M45.4782 34.0877C45.8757 34.2805 46.5194 33.3164 46.4058 31.7737C46.0272 33.0271 45.6107 34.0202 45.4687 34.0877H45.4782Z" fill="#406325" stroke="#24420E" stroke-width="0.019106"/>
<path d="M44.8156 31.5906C45.1469 31.6002 45.3267 30.7228 44.7967 29.6623C44.8913 30.6746 44.8913 31.5038 44.8156 31.5906Z" fill="#406325" stroke="#24420E" stroke-width="0.019106"/>
<path d="M44.4086 31.3784C44.7872 31.2145 44.5411 30.154 43.4242 29.2573C43.8544 29.9103 44.1862 30.6253 44.4086 31.3784Z" fill="#406325" stroke="#24420E" stroke-width="0.019106"/>
<path d="M45.5066 34.724C45.8095 35.0132 46.472 34.6275 46.8507 33.2392C46.1124 34.213 45.6485 34.7047 45.5066 34.724Z" fill="#406325" stroke="#24420E" stroke-width="0.019106"/>
<path d="M42.2883 43.3915C42.383 43.8929 43.6987 43.8736 45.0333 42.7455C43.6229 43.2083 42.4397 43.4783 42.2883 43.3915Z" fill="#406325" stroke="#24420E" stroke-width="0.019106"/>
<path d="M42.9319 42.6491C43.2042 42.0428 43.3214 41.3761 43.2727 40.7112C42.5628 41.6754 42.5912 42.5913 42.9319 42.6395V42.6491Z" fill="#406325" stroke="#24420E" stroke-width="0.019106"/>
<path d="M44.7872 39.8821C45.128 39.3325 45.1658 37.867 45.0712 37.6646C44.2855 38.8119 44.3802 39.8531 44.7872 39.8821Z" fill="#406325" stroke="#24420E" stroke-width="0.019106"/>
<path d="M42.241 43.1987C41.7867 43.1409 41.7393 41.9164 42.667 40.6149C42.3262 41.9454 42.1558 43.0638 42.241 43.1987Z" fill="#67923D" stroke="#24420E" stroke-width="0.019106"/>
<path d="M45.5729 36.6137C45.4782 35.8617 45.9515 34.6758 46.1976 34.4444C46.4437 35.8327 45.942 36.7583 45.5729 36.6137Z" fill="#67923D" stroke="#24420E" stroke-width="0.019106"/>
<path d="M42.932 42.6395C42.5912 42.5913 42.5629 41.6754 43.2728 40.7112C43.0642 41.3328 42.9493 41.9829 42.932 42.6395Z" fill="#67923D" stroke="#24420E" stroke-width="0.019106"/>
<path d="M45.147 32.5933C44.9387 32.0148 45.147 30.665 45.2605 30.4915C45.7622 31.6677 45.5066 32.6222 45.147 32.5933Z" fill="#67923D" stroke="#24420E" stroke-width="0.019106"/>
<path d="M39.6475 44.1725C39.8841 43.4012 41.1809 42.1478 41.427 42.0514C41.02 43.7386 40.0072 44.5196 39.6475 44.1725Z" fill="#67923D" stroke="#24420E" stroke-width="0.019106"/>
<path d="M44.8156 40.1617C45.2094 39.5206 45.7609 38.9955 46.4153 38.6384C45.942 39.9496 45.0712 40.4799 44.8062 40.1617H44.8156Z" fill="#67923D" stroke="#24420E" stroke-width="0.019106"/>
<path d="M44.7967 39.8725C44.3897 39.8339 44.2951 38.8119 45.0807 37.6646C44.8711 38.3805 44.7753 39.1258 44.7967 39.8725Z" fill="#67923D" stroke="#24420E" stroke-width="0.019106"/>
<path d="M45.5729 36.7872C46.0651 36.9704 46.4248 35.8423 46.1976 34.4829C46.0868 35.2781 45.8768 36.0557 45.5729 36.7968V36.7872Z" fill="#406325" stroke="#24420E" stroke-width="0.019106"/>
<path d="M45.6486 36.7487C45.6959 36.0256 44.986 34.5312 44.7967 34.3672C44.6074 35.8906 45.2226 36.9029 45.6486 36.7487Z" fill="#406325" stroke="#24420E" stroke-width="0.019106"/>
<path d="M45.1469 32.5836C45.5161 32.6222 45.7622 31.6773 45.2605 30.4915C45.2984 31.6002 45.2416 32.4969 45.1469 32.5836Z" fill="#406325" stroke="#24420E" stroke-width="0.019106"/>
<path d="M39.6569 44.1628C40.0166 44.5196 41.02 43.7386 41.427 42.061C40.594 43.2469 39.8178 44.1436 39.6569 44.1628Z" fill="#406325" stroke="#24420E" stroke-width="0.019106"/>
<path d="M44.8251 40.1617C45.0901 40.4799 45.9609 39.9592 46.4342 38.6384C45.9762 39.2257 45.4337 39.7393 44.8251 40.1617Z" fill="#406325" stroke="#24420E" stroke-width="0.019106"/>
<path d="M45.6391 36.739C45.2132 36.9029 44.6074 35.9002 44.7967 34.3769C45.128 35.6495 45.5066 36.6619 45.6391 36.739Z" fill="#67923D" stroke="#24420E" stroke-width="0.019106"/>
<path d="M45.3456 33.1235C45.4031 33.1235 45.4497 33.076 45.4497 33.0174C45.4497 32.9589 45.4031 32.9114 45.3456 32.9114C45.2881 32.9114 45.2415 32.9589 45.2415 33.0174C45.2415 33.076 45.2881 33.1235 45.3456 33.1235Z" fill="#BA1F3E" stroke="#511124" stroke-width="0.019106"/>
<path d="M45.7053 34.2708C45.7628 34.2708 45.8094 34.2233 45.8094 34.1648C45.8094 34.1062 45.7628 34.0587 45.7053 34.0587C45.6478 34.0587 45.6012 34.1062 45.6012 34.1648C45.6012 34.2233 45.6478 34.2708 45.7053 34.2708Z" fill="#BA1F3E" stroke="#511124" stroke-width="0.019106"/>
<path d="M45.8378 37.9056C45.9058 37.9056 45.9609 37.8495 45.9609 37.7802C45.9609 37.711 45.9058 37.6549 45.8378 37.6549C45.7698 37.6549 45.7148 37.711 45.7148 37.7802C45.7148 37.8495 45.7698 37.9056 45.8378 37.9056Z" fill="#BA1F3E" stroke="#511124" stroke-width="0.019106"/>
<path d="M45.3456 37.2307C45.4135 37.2307 45.4686 37.1745 45.4686 37.1053C45.4686 37.0361 45.4135 36.98 45.3456 36.98C45.2776 36.98 45.2225 37.0361 45.2225 37.1053C45.2225 37.1745 45.2776 37.2307 45.3456 37.2307Z" fill="#BA1F3E" stroke="#511124" stroke-width="0.019106"/>
<path d="M43.9542 41.0776C44.0221 41.0776 44.0772 41.0215 44.0772 40.9522C44.0772 40.883 44.0221 40.8269 43.9542 40.8269C43.8862 40.8269 43.8311 40.883 43.8311 40.9522C43.8311 41.0215 43.8862 41.0776 43.9542 41.0776Z" fill="#BA1F3E" stroke="#511124" stroke-width="0.019106"/>
<path d="M44.5505 41.3379C44.6185 41.3379 44.6736 41.2818 44.6736 41.2126C44.6736 41.1433 44.6185 41.0872 44.5505 41.0872C44.4826 41.0872 44.4275 41.1433 44.4275 41.2126C44.4275 41.2818 44.4826 41.3379 44.5505 41.3379Z" fill="#BA1F3E" stroke="#511124" stroke-width="0.019106"/>
<path d="M40.5371 44.4617C40.6051 44.4617 40.6602 44.4056 40.6602 44.3363C40.6602 44.2671 40.6051 44.211 40.5371 44.211C40.4692 44.211 40.4141 44.2671 40.4141 44.3363C40.4141 44.4056 40.4692 44.4617 40.5371 44.4617Z" fill="#BA1F3E" stroke="#511124" stroke-width="0.019106"/>
<path d="M39.8745 44.9437C39.9425 44.9437 39.9976 44.8876 39.9976 44.8184C39.9976 44.7492 39.9425 44.6931 39.8745 44.6931C39.8066 44.6931 39.7515 44.7492 39.7515 44.8184C39.7515 44.8876 39.8066 44.9437 39.8745 44.9437Z" fill="#BA1F3E" stroke="#511124" stroke-width="0.019106"/>
<path d="M44.6357 32.5836C44.6932 32.5836 44.7398 32.5361 44.7398 32.4775C44.7398 32.4189 44.6932 32.3715 44.6357 32.3715C44.5782 32.3715 44.5316 32.4189 44.5316 32.4775C44.5316 32.5361 44.5782 32.5836 44.6357 32.5836Z" fill="#BA1F3E" stroke="#511124" stroke-width="0.019106"/>
<path d="M33.0122 40.8655C32.9933 40.9619 33.0879 41.0872 33.2015 41.0583C33.2489 41.0583 33.2678 41.0101 33.2205 41.0101C33.1826 41.0294 33.1353 41.0101 33.1069 40.9812C33.0501 40.9233 33.0501 40.8462 33.069 40.7883L33.0122 40.8655Z" fill="#8C959D" stroke="#485654" stroke-width="0.00955302"/>
<path d="M33.2867 41.0583C33.1921 41.174 33.0501 41.2222 32.9649 41.1451C32.9081 41.0872 32.8892 41.0294 32.9176 40.9522L32.8229 41.0776C32.8229 41.0776 32.8797 41.2029 32.9744 41.2511C33.0974 41.2993 33.2583 41.2222 33.353 41.0969C33.4287 41.0005 33.5044 40.8655 33.4476 40.7498C33.4044 40.675 33.3377 40.6173 33.2583 40.5859L33.1637 40.6823C33.211 40.663 33.2773 40.6823 33.3246 40.7209C33.4476 40.8173 33.3814 40.9619 33.2867 41.0583Z" fill="#8C959D"/>
<path d="M33.2867 41.0583C33.2582 41.0968 33.2229 41.1295 33.1826 41.1547C33.1353 41.174 33.0879 41.1933 33.0406 41.1836C33.0217 41.1836 32.9933 41.174 32.9744 41.1547C32.9554 41.1451 32.9365 41.1258 32.927 41.0969C32.9081 41.0776 32.9081 41.0583 32.8986 41.0294C32.8986 41.0005 32.8986 40.9812 32.9176 40.9522L32.927 40.9619L32.8229 41.0872V41.0776L32.9176 41.2029L32.9838 41.2415L33.0595 41.2511C33.1163 41.2511 33.1637 41.2318 33.211 41.2029C33.2583 41.1836 33.3057 41.1451 33.334 41.1065L33.4287 40.9715C33.4476 40.9233 33.4666 40.8751 33.4571 40.8173C33.4571 40.7883 33.4571 40.7691 33.4382 40.7401C33.3949 40.6714 33.3322 40.6176 33.2583 40.5859H33.2678L33.1731 40.6919H33.1637C33.1826 40.6726 33.211 40.6726 33.2299 40.6726L33.3057 40.6919C33.3435 40.7209 33.3814 40.7594 33.3908 40.8076C33.4003 40.8558 33.3908 40.904 33.3719 40.9426C33.353 40.9908 33.3246 41.0294 33.2867 41.0583ZM33.2867 41.0583C33.3246 41.0294 33.3435 40.9908 33.3624 40.9426C33.3814 40.904 33.3908 40.8462 33.3814 40.8076C33.3719 40.7594 33.334 40.7305 33.2962 40.7112C33.2583 40.6823 33.2015 40.6726 33.1731 40.6919H33.1637L33.2583 40.5762C33.337 40.6089 33.4033 40.6663 33.4476 40.7401C33.4666 40.7594 33.476 40.7883 33.476 40.8173C33.476 40.8751 33.4666 40.933 33.4382 40.9812C33.4192 41.0294 33.3908 41.0776 33.3435 41.1161C33.3151 41.1644 33.2678 41.1933 33.2205 41.2222C33.1731 41.2511 33.1258 41.2704 33.0595 41.2704C33.0318 41.2715 33.0041 41.267 32.9781 41.2571C32.9521 41.2471 32.9283 41.232 32.9081 41.2126C32.8691 41.1735 32.8371 41.1278 32.8134 41.0776L32.9081 40.9522H32.927L32.9176 41.0294C32.9176 41.0487 32.9176 41.0776 32.9365 41.0969L32.9838 41.1451C32.9933 41.1644 33.0217 41.174 33.0406 41.174C33.0879 41.1836 33.1353 41.174 33.1826 41.1547L33.2867 41.0583Z" fill="#485654"/>
<path d="M40.6698 32.4775L36.8741 36.2859L32.9838 40.0653L32.5484 40.5859C32.3591 40.8076 32.1319 41.0969 31.8669 41.3572C31.8196 41.4247 31.7628 41.3958 31.706 41.4343C31.5356 41.5308 31.3557 41.7043 31.2327 41.8489L30.0684 43.1505C30.0022 43.2373 29.9738 43.2855 30.0306 43.3433L30.6553 44.1918C30.7689 44.3075 30.9014 44.3653 30.9582 44.2689C31.2516 43.7386 31.9994 42.9384 32.2834 42.3117C32.4443 41.926 32.6525 41.2415 32.804 41.0776C32.9933 40.8655 33.476 40.3256 33.9209 39.8532L34.0156 39.7567C34.0345 39.7182 34.0629 39.6893 34.1007 39.6603C36.3251 37.3464 38.8998 34.5408 40.7739 32.5643L40.6793 32.4679L40.6698 32.4775Z" fill="#6C301E" stroke="#351710" stroke-width="0.019106" stroke-linejoin="round"/>
<path d="M32.785 40.0749C32.6714 40.0749 32.5957 40.0074 32.5105 39.9399C32.6241 39.9784 32.7377 40.017 32.8418 39.9688L32.785 40.0749Z" fill="#8C959D" stroke="#485654" stroke-width="0.00955302"/>
<path d="M44.6264 29.6622L41.6164 32.1883C41.588 32.2268 41.5596 32.2172 41.5312 32.1883L41.2567 31.9569V31.899L41.3892 31.764C41.4081 31.7448 41.3892 31.7351 41.3797 31.7062L41.3229 31.6483C41.2945 31.6387 41.2756 31.6483 41.2567 31.6676L41.1241 31.8122C41.0579 31.8122 41.0011 31.8701 40.9916 31.9472C39.1743 33.7502 37.603 35.3603 35.7951 37.1343L33.6559 39.2168C33.5801 39.3132 33.2488 39.4964 33.0311 39.641C32.9554 39.6892 32.8892 39.7374 32.8608 39.7856L32.6904 40.3159C32.6336 40.4316 32.4537 40.7016 32.4537 40.7208L32.8134 41.0776L33.8641 39.9303L33.9493 39.8338C33.8797 39.7357 33.7969 39.648 33.7032 39.5735L33.6369 39.5253C33.6275 39.506 33.6653 39.4771 33.6843 39.4578C36.1831 36.9896 38.8903 34.2804 41.0863 32.0726C41.1168 32.0844 41.1505 32.0844 41.1809 32.0726L41.4554 32.3714C41.5122 32.4389 41.569 32.4389 41.6164 32.41L44.6359 29.6622H44.6264Z" fill="#B2B6BA" stroke="#485654" stroke-width="0.019106"/>
<path d="M32.6998 40.2966H32.7566L32.804 40.287L32.8702 40.0556L32.9459 39.8242C32.927 39.8049 32.9081 39.7856 32.8797 39.7856C32.9081 39.7856 32.927 39.8049 32.9459 39.8242L32.8797 40.0556L32.8134 40.287L32.7566 40.3063L32.6904 40.2966H32.6998Z" fill="#485654"/>
<path d="M33.3814 40.1327C33.4127 40.1327 33.4382 40.1068 33.4382 40.0749C33.4382 40.0429 33.4127 40.017 33.3814 40.017C33.35 40.017 33.3246 40.0429 33.3246 40.0749C33.3246 40.1068 33.35 40.1327 33.3814 40.1327Z" stroke="#485654" stroke-width="0.019106"/>
<path d="M33.0217 40.4991C33.053 40.4991 33.0785 40.4732 33.0785 40.4413C33.0785 40.4093 33.053 40.3834 33.0217 40.3834C32.9903 40.3834 32.9649 40.4093 32.9649 40.4413C32.9649 40.4732 32.9903 40.4991 33.0217 40.4991Z" stroke="#485654" stroke-width="0.019106"/>
<path d="M33.6464 39.5253C33.5845 39.48 33.5274 39.4283 33.476 39.371C33.5379 39.4163 33.595 39.468 33.6464 39.5253Z" fill="#485654"/>
<path d="M39.4393 33.4127L39.7706 33.7502L39.8274 33.6923L39.4961 33.3645L39.4393 33.4224V33.4127Z" fill="#8C959D" stroke="#485654" stroke-width="0.00955302"/>
<path d="M32.9838 43.6711C32.0682 43.4478 31.1107 43.4777 30.2104 43.7579C31.7532 44.5292 33.0027 44.2014 32.9743 43.6615L32.9838 43.6711Z" fill="#67923D" stroke="#24420E" stroke-width="0.019106"/>
<path d="M41.408 43.9893C42.1463 43.6711 43.9447 43.9218 44.1624 44.0857C42.629 44.8473 41.3701 44.5195 41.3985 43.9893H41.408Z" fill="#67923D" stroke="#24420E" stroke-width="0.019106"/>
<path d="M32.9647 43.6807C32.9931 44.211 31.7531 44.5388 30.2103 43.7675C31.6585 43.8639 32.8417 43.8061 32.9553 43.6711L32.9647 43.6807Z" fill="#406325" stroke="#24420E" stroke-width="0.019106"/>
<path d="M41.408 43.9989C41.3891 44.5292 42.629 44.857 44.1719 44.0857C42.7237 44.1821 41.5405 44.1242 41.4175 43.9893L41.408 43.9989Z" fill="#406325" stroke="#24420E" stroke-width="0.019106"/>
<path d="M40.0357 43.1505C38.1294 40.4593 35.6715 38.2222 32.8324 36.5944C33.1637 36.5751 33.9115 36.9704 34.2238 37.1728C36.4861 38.6576 38.4171 40.6244 40.4332 42.9384C40.3196 43.0541 40.2439 43.1312 40.1114 43.2276L40.0357 43.1505Z" fill="#B2B6BA" stroke="#485654" stroke-width="0.019106"/>
<path d="M40.2344 43.1312L40.083 43.2469C37.9059 40.393 34.877 37.6645 32.8229 36.5944C35.6721 37.9249 38.0668 40.6148 40.206 43.1119H40.2155L40.2344 43.1312Z" fill="#8C959D"/>
<path d="M40.2343 43.1312L40.0829 43.2469C39.077 41.931 37.9623 40.7053 36.751 39.5832C35.8454 38.7363 34.884 37.9536 33.8735 37.2403C33.5328 37.0089 33.1825 36.7872 32.8228 36.5944V36.5751C33.5801 36.9318 34.2805 37.3657 34.9526 37.8574C35.6152 38.3394 36.2399 38.889 36.8457 39.4578C37.444 40.0309 38.0218 40.6259 38.5779 41.2415C39.1458 41.8585 39.6759 42.4949 40.2249 43.1215L40.2343 43.1312ZM40.2343 43.1312C39.6853 42.4949 39.1458 41.8778 38.5779 41.2608C38.0194 40.6437 37.442 40.046 36.8457 39.4771C36.2399 38.9083 35.6152 38.3684 34.9526 37.8767C34.29 37.3946 33.5801 36.9511 32.8323 36.604V36.5847C33.5461 36.9975 34.2323 37.4581 34.8863 37.9634C36.1901 38.9771 37.4004 40.1098 38.5022 41.3475C39.0606 41.9646 39.5907 42.6009 40.0924 43.2565L40.2343 43.1312Z" fill="#485654"/>
<path d="M40.8876 42.6684C40.6983 42.7262 40.5373 42.7937 40.3859 42.8901C40.367 43.0251 40.1966 43.1794 40.0546 43.2083L39.9978 43.1312H39.9789L39.9221 43.1601C39.8653 43.1601 39.799 43.1794 39.7706 43.2565C39.7328 43.3529 39.799 43.4783 39.8842 43.5554C39.9789 43.6229 40.0167 43.6518 40.1114 43.6518C40.2155 43.6229 40.2723 43.5265 40.3007 43.4976C40.6509 43.9314 40.916 44.1724 41.3608 44.5195C41.5596 44.5195 41.6637 44.3942 41.5975 44.2496C41.5786 44.2014 41.5218 44.1724 41.4744 44.1917V44.1435C41.7016 43.9314 41.8057 43.6615 41.5596 43.1987C41.3514 42.813 41.1147 42.678 40.897 42.678H40.8876V42.6684ZM41.4744 43.1119C41.5218 43.1794 41.5407 43.2469 41.5691 43.3047C41.7205 43.594 41.5975 43.9507 41.3514 44.0567H41.3325C41.3703 43.9893 41.2567 43.8446 41.1999 43.8928C41.2283 43.8254 41.1337 43.7 41.0579 43.7289C41.0958 43.6615 41.0106 43.5458 40.9254 43.5843C40.9633 43.5168 40.897 43.4108 40.8024 43.4301C40.8308 43.3529 40.7645 43.2565 40.6793 43.2758C40.6793 43.1987 40.6604 43.1601 40.632 43.1312C40.7267 43.054 40.8497 42.9287 40.9538 42.8709C41.2094 42.7552 41.3703 42.9673 41.4744 43.1119Z" fill="#FAB81C" stroke="#6C301E" stroke-width="0.019106"/>
<path d="M41.5881 43.4204C41.5408 43.3915 41.5124 43.3433 41.5313 43.3144C41.5503 43.2758 41.5976 43.2662 41.6449 43.2951C41.6922 43.3144 41.7206 43.3626 41.7112 43.3915C41.6922 43.4301 41.6354 43.4397 41.5881 43.4204Z" fill="#FAB81C" stroke="#6C301E" stroke-width="0.00955302"/>
<path d="M41.5597 43.324C41.5124 43.2951 41.484 43.2469 41.5029 43.2083C41.5219 43.1794 41.5692 43.1698 41.6165 43.1987C41.6639 43.218 41.6923 43.2662 41.6828 43.2951C41.6639 43.3337 41.6071 43.3433 41.5597 43.324Z" fill="#FAB81C" stroke="#6C301E" stroke-width="0.00955302"/>
<path d="M41.5029 43.2083C41.4556 43.1891 41.4272 43.1409 41.4461 43.1119C41.4651 43.0734 41.5124 43.0637 41.5597 43.083C41.6071 43.1119 41.6355 43.1601 41.6165 43.1891C41.6071 43.2276 41.5503 43.2373 41.5029 43.2083Z" fill="#FAB81C" stroke="#6C301E" stroke-width="0.00955302"/>
<path d="M41.4272 43.1119C41.3799 43.0829 41.3515 43.0347 41.3704 43.0058C41.3894 42.9769 41.4367 42.9673 41.484 42.9865C41.5313 43.0155 41.5597 43.0637 41.5503 43.0926C41.5313 43.1215 41.4746 43.1408 41.4272 43.1119Z" fill="#FAB81C" stroke="#6C301E" stroke-width="0.00955302"/>
<path d="M41.3326 43.0155C41.2758 42.9962 41.2568 42.9383 41.2758 42.9191V42.8998C41.2947 42.9094 41.342 42.9191 41.3326 42.8901C41.3326 42.8708 41.3231 42.8612 41.3326 42.8708L41.3894 42.8901C41.4367 42.9191 41.4651 42.9673 41.4462 42.9962C41.4367 43.0347 41.3799 43.0444 41.3326 43.0155Z" fill="#FAB81C" stroke="#6C301E" stroke-width="0.00955302"/>
<path d="M40.3007 43.4975C40.3669 43.324 40.49 43.1697 40.632 43.1312L40.3007 43.4975Z" fill="#FAB81C"/>
<path d="M40.3197 43.5265C40.4427 43.5458 40.632 43.4012 40.6794 43.2758L40.3197 43.5265Z" fill="#FAB81C"/>
<path d="M40.4333 43.6614C40.5847 43.7 40.7456 43.5457 40.8119 43.4301L40.4333 43.6614Z" fill="#FAB81C"/>
<path d="M40.5753 43.8157C40.7646 43.8157 40.8687 43.6904 40.9255 43.5844L40.5753 43.8157Z" fill="#FAB81C"/>
<path d="M40.7172 43.9603C40.8781 43.9603 41.0201 43.835 41.058 43.7289L40.7172 43.9603Z" fill="#FAB81C"/>
<path d="M40.8497 44.0953C41.0296 44.0953 41.1432 44.0085 41.2 43.9025L40.8497 44.0953Z" fill="#FAB81C"/>
<path d="M41.0107 44.2303C41.1716 44.2399 41.2946 44.1435 41.3325 44.0568L41.0107 44.2303Z" fill="#FAB81C"/>
<path d="M41.1811 44.3749C41.3325 44.3749 41.4366 44.2785 41.4745 44.1821L41.1811 44.3749Z" fill="#FAB81C"/>
<path d="M40.3007 43.4975C40.3428 43.3756 40.4183 43.2685 40.5184 43.189C40.5468 43.1601 40.5847 43.1408 40.632 43.1312C40.5912 43.1438 40.5528 43.1634 40.5184 43.189C40.4832 43.2172 40.4515 43.2496 40.4237 43.2854C40.3764 43.3433 40.3291 43.4204 40.3007 43.4975Z" fill="#6C301E"/>
<path d="M40.3197 43.5265C40.3575 43.5265 40.3954 43.5265 40.4333 43.5072L40.5279 43.4494L40.6226 43.3722L40.6794 43.2758C40.6699 43.3144 40.651 43.3433 40.6226 43.3722C40.5706 43.4316 40.5058 43.4778 40.4333 43.5072C40.3954 43.5265 40.3575 43.5361 40.3197 43.5265Z" fill="#6C301E"/>
<path d="M40.4333 43.6614H40.5468L40.6415 43.6036C40.7072 43.5587 40.7622 43.4994 40.8024 43.4301L40.7362 43.5265L40.651 43.6132L40.5563 43.6614H40.4333Z" fill="#6C301E"/>
<path d="M40.5753 43.8157C40.6131 43.8157 40.651 43.8157 40.6794 43.7965L40.774 43.7483L40.8687 43.6711L40.9255 43.5747C40.8971 43.6518 40.8498 43.7097 40.7835 43.7579L40.6888 43.8061H40.5753V43.8157Z" fill="#6C301E"/>
<path d="M40.7172 43.9603C40.7929 43.9603 40.8592 43.9314 40.916 43.8832C40.9736 43.8427 41.022 43.7901 41.058 43.7289C41.0485 43.7579 41.0296 43.7964 41.0012 43.8254L40.9255 43.8928L40.8308 43.9507C40.794 43.9617 40.7553 43.965 40.7172 43.9603Z" fill="#6C301E"/>
<path d="M40.8497 44.0953C40.8876 44.0953 40.9255 44.0953 40.9539 44.076C41.0238 44.0602 41.0888 44.0271 41.1432 43.9796L41.2 43.8928L41.1432 43.9892C41.1148 44.0085 41.0864 44.0374 41.0485 44.0471C40.9917 44.0856 40.9255 44.0953 40.8592 44.0953H40.8497Z" fill="#6C301E"/>
<path d="M41.0107 44.2303C41.0766 44.2294 41.1414 44.2129 41.2 44.1821L41.2757 44.1339C41.2946 44.105 41.323 44.0857 41.3325 44.0568C41.3325 44.0857 41.3041 44.1146 41.2852 44.1339C41.2481 44.1709 41.2033 44.1989 41.1541 44.2156C41.1049 44.2323 41.0526 44.2373 41.0012 44.2303H41.0107Z" fill="#6C301E"/>
<path d="M41.1811 44.3749L41.2757 44.3653L41.3514 44.3267L41.4177 44.2688L41.4745 44.1917C41.452 44.2508 41.4111 44.3007 41.3581 44.3337C41.3051 44.3668 41.2429 44.3813 41.1811 44.3749Z" fill="#6C301E"/>
<path d="M30.6363 31.5808C31.3864 31.1759 32.0219 30.5817 32.482 29.855C31.0054 30.26 30.3334 31.2338 30.6363 31.5905V31.5808Z" fill="#406325" stroke="#24420E" stroke-width="0.019106"/>
<path d="M44.437 32.034C44.1143 31.2761 43.6059 30.6155 42.9604 30.1154C43.2254 31.5808 44.0962 32.3136 44.437 32.0436V32.034Z" fill="#406325" stroke="#24420E" stroke-width="0.019106"/>
<path d="M30.6363 31.5808C30.3239 31.2338 30.996 30.2696 32.4726 29.8647C31.4314 30.6746 30.6552 31.4266 30.6363 31.5808Z" fill="#67923D" stroke="#24420E" stroke-width="0.019106"/>
<path d="M44.437 32.034C44.0868 32.3232 43.2349 31.5905 42.9698 30.1346C43.6514 31.1952 44.295 32.0147 44.437 32.034Z" fill="#67923D" stroke="#24420E" stroke-width="0.019106"/>
<path d="M34.7064 39.1108C34.7064 39.1108 34.129 39.1783 33.9586 38.3588C33.7882 37.4814 34.4603 37.3946 34.4603 37.3946C34.4603 37.3946 35.227 37.3079 35.7097 37.2982L35.9179 39.0337L34.7064 39.1108Z" fill="url(#paint0_radial_1_61646)" stroke="#999270" stroke-width="0.019106"/>
<path d="M34.7821 38.8505C34.7821 38.8505 34.4035 38.918 34.3277 38.3106C34.2709 37.8767 34.536 37.8188 34.536 37.8188L35.4068 37.9731V38.7637L34.7821 38.8505Z" fill="url(#paint1_radial_1_61646)" stroke="#999270" stroke-width="0.019106"/>
<path d="M34.536 37.8188C34.536 37.8188 35.1039 37.7803 35.3879 37.7417L35.5109 38.2913L34.8389 38.3298C34.8389 38.3298 34.7915 37.8381 34.536 37.8188Z" fill="url(#paint2_radial_1_61646)" stroke="#999270" stroke-width="0.019106"/>
<path d="M34.4224 37.4043C34.4224 37.4043 35.1323 37.2211 35.227 38.0213C35.2459 38.2334 35.1323 38.7155 34.7821 38.8505L36.0978 38.7058L35.9747 37.2596L35.5393 37.2982C35.5393 37.2982 34.5928 37.3271 34.4224 37.3946V37.4043Z" fill="url(#paint3_radial_1_61646)" stroke="#999270" stroke-width="0.019106"/>
<path d="M34.7064 39.1108C34.7064 39.1108 39.619 38.7733 40.1206 38.7926C41.6162 37.9635 40.1206 34.6951 38.8617 32.8632C39.0037 32.4486 36.0315 31.5231 34.6969 31.6098C34.517 31.6098 34.3561 31.6291 34.2047 31.6388C33.4758 31.7159 33.4664 32.6704 33.7598 33.2778C34.0438 33.8563 36.6373 38.5805 34.8199 39.0915L34.7064 39.1108Z" fill="#F9F0AA" stroke="#999270" stroke-width="0.019106"/>
<path d="M39.9692 34.7915C39.6379 34.0877 39.2403 33.4128 38.8617 32.8632C39.0037 32.4486 36.0315 31.5231 34.6969 31.6098C34.517 31.6098 34.3561 31.6291 34.2047 31.6388C33.4758 31.7159 33.4664 32.6704 33.7598 33.2778C33.8545 33.4513 34.1668 34.0491 34.5076 34.7915" fill="url(#paint4_linear_1_61646)"/>
<path d="M39.9692 34.7915C39.6379 34.0877 39.2403 33.4128 38.8617 32.8632C39.0037 32.4486 36.0315 31.5231 34.6969 31.6098C34.517 31.6098 34.3561 31.6291 34.2047 31.6388C33.4758 31.7159 33.4664 32.6704 33.7598 33.2778C33.8545 33.4513 34.1668 34.0491 34.5076 34.7915" stroke="#999270" stroke-width="0.019106"/>
<path d="M34.9714 35.9195C35.5015 37.3271 35.7949 38.8119 34.8199 39.0915L34.7064 39.1108C34.7064 39.1108 39.6284 38.7733 40.1206 38.7926C40.9347 38.3395 40.8589 37.1729 40.4235 35.9002" fill="url(#paint5_linear_1_61646)"/>
<path d="M34.9714 35.9195C35.5015 37.3271 35.7949 38.8119 34.8199 39.0915L34.7064 39.1108C34.7064 39.1108 39.6284 38.7733 40.1206 38.7926C40.9347 38.3395 40.8589 37.1729 40.4235 35.9002" stroke="#999270" stroke-width="0.019106"/>
<path d="M34.252 31.9183C33.9018 31.9183 33.8071 32.2654 33.8166 32.4775C33.8261 33.056 34.252 33.0753 34.252 33.0753L34.82 33.0464L35.085 31.8701L34.252 31.9183Z" fill="url(#paint6_radial_1_61646)" stroke="#999270" stroke-width="0.019106"/>
<path d="M34.252 31.9183L35.085 31.8701L35.1796 32.7475L34.4413 32.786C34.4413 32.786 34.678 32.0822 34.252 31.9183Z" fill="url(#paint7_linear_1_61646)" stroke="#999270" stroke-width="0.019106"/>
<path d="M38.8617 32.8632C39.4959 32.7668 39.4864 31.8991 39.051 31.5423C37.5839 31.4845 35.6624 31.5327 34.2615 31.6387C34.4224 31.6387 34.8673 31.6773 34.9146 32.2654C34.9244 32.3929 34.9037 32.5209 34.8542 32.6385C34.8047 32.756 34.728 32.8596 34.6306 32.9403C34.5212 33.0241 34.3889 33.0712 34.252 33.0753H34.5928L34.8767 33.0367C36.8645 32.7764 38.8523 32.8632 38.8523 32.8632H38.8617Z" fill="url(#paint8_linear_1_61646)" stroke="#999270" stroke-width="0.019106"/>
<path d="M35.3028 34.2226C35.2838 34.1937 35.2649 34.1551 35.227 34.1455C35.2081 34.1455 35.1703 34.1455 35.1797 34.1069H35.2554L35.4069 34.0876C35.4448 34.0973 35.4353 34.1359 35.4069 34.1359C35.3596 34.1359 35.388 34.1841 35.3974 34.213L35.5205 34.5022C35.5299 34.5408 35.5583 34.5697 35.5867 34.5697L35.6909 34.5601C35.7193 34.5408 35.7098 34.5022 35.7098 34.4637C35.7003 34.4347 35.7571 34.4444 35.7571 34.4637L35.795 34.5986C35.795 34.6179 35.776 34.6083 35.7571 34.6083L35.4731 34.6276C35.4447 34.6276 35.3974 34.6565 35.3785 34.6276C35.3785 34.589 35.4353 34.6083 35.4353 34.5794L35.4069 34.4829L35.3028 34.2226Z" fill="#B07E09"/>
<path d="M35.7571 34.1841C35.7476 34.1648 35.7287 34.1262 35.6909 34.1166C35.6719 34.1166 35.6341 34.1166 35.6341 34.078C35.653 34.0587 35.6814 34.078 35.7003 34.078L35.8612 34.0587C35.8896 34.0587 35.8991 34.1069 35.8612 34.0973C35.8328 34.0973 35.8328 34.1358 35.8423 34.1648L35.9843 34.4926C35.9843 34.5119 36.0032 34.5408 36.0316 34.5504C36.0505 34.5504 36.0884 34.5504 36.0979 34.5793C36.0979 34.6083 36.06 34.589 36.0411 34.589C35.9938 34.589 35.9464 34.589 35.8896 34.6083C35.8707 34.6083 35.8423 34.6083 35.8423 34.5793C35.8423 34.5504 35.8896 34.5793 35.8991 34.5408C35.8991 34.5119 35.8802 34.4829 35.8612 34.4444L35.7571 34.1937V34.1841Z" fill="#B07E09"/>
<path d="M36.1831 34.2612C36.1831 34.2804 36.2209 34.2612 36.2304 34.2612C36.2588 34.2612 36.2872 34.2515 36.2872 34.2226C36.2872 34.1744 36.2588 34.1262 36.2209 34.1069C36.1925 34.078 36.1547 34.0876 36.1168 34.0876L36.1263 34.1358L36.1831 34.2612ZM36.2399 34.4154C36.2588 34.4443 36.2683 34.4829 36.2967 34.5118C36.3156 34.5311 36.3534 34.5215 36.3724 34.5118C36.4008 34.5118 36.4197 34.4829 36.4102 34.4636C36.4008 34.3961 36.3629 34.3383 36.2967 34.319H36.202L36.2209 34.3672L36.2399 34.4154ZM36.0505 34.184C36.0316 34.1551 36.0222 34.1069 35.9843 34.0876C35.9654 34.0876 35.9275 34.0973 35.918 34.0683C35.918 34.0394 35.9748 34.0587 35.9938 34.049C36.0789 34.049 36.1641 34.0201 36.2399 34.049C36.3061 34.0683 36.3724 34.1262 36.3818 34.2033C36.3818 34.2419 36.3534 34.2708 36.325 34.2804L36.3724 34.2901C36.4292 34.3094 36.4765 34.3479 36.5049 34.4058C36.5238 34.4443 36.5333 34.4926 36.5049 34.5311C36.467 34.5697 36.4102 34.5697 36.3724 34.5697C36.2966 34.5697 36.2304 34.5697 36.1547 34.589C36.1263 34.589 36.1168 34.5408 36.1547 34.5408C36.1831 34.5408 36.1831 34.5022 36.1736 34.4829L36.0505 34.1937V34.184Z" fill="#B07E09"/>
<path d="M36.751 34.0009C36.7794 34.0009 36.7888 34.0298 36.7983 34.0491L36.8267 34.1358C36.7983 34.1551 36.7794 34.1166 36.7699 34.0973C36.751 34.078 36.7321 34.0491 36.7037 34.0587H36.5901C36.5711 34.078 36.5901 34.0973 36.5995 34.1165L36.6563 34.2515C36.6753 34.2515 36.7131 34.2515 36.7321 34.2226C36.7321 34.2033 36.7037 34.1551 36.751 34.1648C36.7794 34.184 36.7699 34.2226 36.7889 34.2515L36.8362 34.3576C36.8078 34.3865 36.7889 34.3479 36.7794 34.319C36.7605 34.2901 36.7131 34.2901 36.6847 34.2901C36.6658 34.2901 36.6847 34.3094 36.6847 34.319L36.7415 34.4636C36.7605 34.4926 36.8078 34.4926 36.8362 34.4926C36.8646 34.4926 36.9119 34.4926 36.9308 34.454C36.9498 34.4347 36.9024 34.3865 36.9308 34.3769C36.9687 34.3769 36.9687 34.4154 36.9782 34.4347C36.9782 34.4636 36.9971 34.4926 37.0066 34.5118C37.0066 34.5311 36.9782 34.5311 36.9687 34.5311L36.6847 34.5504C36.6469 34.5504 36.5995 34.5697 36.5901 34.5311C36.5901 34.5022 36.6563 34.5215 36.6469 34.4829L36.609 34.3865L36.5049 34.1262C36.486 34.0973 36.467 34.0587 36.4292 34.0587C36.4102 34.0587 36.3724 34.0587 36.3913 34.0201H36.486L36.751 34.0009Z" fill="#B07E09"/>
<path d="M36.9687 34.1262C36.9592 34.0973 36.9403 34.0587 36.9024 34.0395C36.8835 34.0395 36.8362 34.0395 36.8362 34.0009C36.8646 33.9816 36.9024 34.0009 36.9308 34.0009C37.0066 34.0009 37.0823 33.972 37.158 34.0009C37.2337 34.0105 37.3 34.0877 37.3095 34.1744C37.3095 34.213 37.2811 34.2419 37.2432 34.2516C37.2148 34.2516 37.2621 34.2612 37.2716 34.2708C37.3379 34.2998 37.3663 34.3576 37.4041 34.4155C37.4136 34.4348 37.4514 34.483 37.4609 34.4348C37.4609 34.3865 37.5177 34.4348 37.5082 34.4637C37.5082 34.5022 37.4704 34.5215 37.442 34.5215C37.4041 34.5215 37.3568 34.5022 37.3379 34.4637C37.3 34.4058 37.2716 34.3383 37.2148 34.2998C37.1959 34.2805 37.1675 34.2708 37.1391 34.2805V34.3287L37.1959 34.4444C37.2148 34.4733 37.2527 34.4733 37.2905 34.4733C37.3189 34.483 37.3095 34.5312 37.2716 34.5215H37.1107C37.0823 34.5408 37.0255 34.5215 37.0444 34.4926C37.0728 34.4926 37.1107 34.4733 37.0917 34.4444L36.9971 34.1937L36.9687 34.1262ZM37.1012 34.2226C37.1201 34.2419 37.158 34.2226 37.1864 34.2226C37.2148 34.2226 37.2148 34.1744 37.2053 34.1552C37.1959 34.1069 37.1675 34.0587 37.1201 34.0395C37.1012 34.0395 37.0444 34.0202 37.035 34.0491L37.1012 34.2034V34.213V34.2226Z" fill="#B07E09"/>
<path d="M37.7827 34.3769C37.7922 34.4058 37.8111 34.4348 37.8395 34.4444C37.8584 34.4444 37.8963 34.4444 37.9058 34.4733C37.9058 34.5023 37.8679 34.483 37.849 34.4926H37.6975C37.6691 34.5023 37.6407 34.4926 37.6407 34.4637C37.6597 34.4444 37.707 34.4637 37.707 34.4251L37.6597 34.3191L37.5555 34.0395C37.5461 34.0105 37.5082 34.0105 37.4893 34.0105C37.4609 34.0105 37.423 34.0105 37.423 34.0491C37.423 34.078 37.4419 34.107 37.423 34.1262C37.3946 34.1262 37.3852 34.0973 37.3757 34.078C37.3757 34.0491 37.3568 34.0202 37.3378 33.9816C37.3378 33.9623 37.3757 33.972 37.3852 33.972L37.7827 33.9527C37.8111 33.9527 37.83 33.972 37.83 34.0009L37.8679 34.0973C37.8584 34.1262 37.8206 34.0973 37.8111 34.0684C37.8016 34.0395 37.7638 34.0009 37.7259 34.0009C37.707 34.0009 37.6691 34.0009 37.6502 34.0202L37.6691 34.0877L37.7827 34.3769Z" fill="#B07E09"/>
<path d="M38.1424 34.2901C38.1235 34.2901 38.133 34.319 38.133 34.3287V34.4058C38.1424 34.4444 38.1803 34.4347 38.2087 34.4444C38.2276 34.4444 38.2181 34.4926 38.1898 34.4829H38.0762C38.0478 34.4926 38.0004 34.4733 38.0288 34.4444C38.0478 34.4444 38.0667 34.4347 38.0762 34.4154V33.9334C38.0951 33.9045 38.1235 33.9334 38.133 33.9527L38.4737 34.3865C38.4926 34.4058 38.521 34.4251 38.5494 34.4251C38.5778 34.4251 38.5873 34.4733 38.5494 34.4637H38.4075C38.3885 34.4637 38.3601 34.4829 38.3412 34.4637C38.3223 34.454 38.3412 34.4251 38.3601 34.4251C38.3885 34.4251 38.3601 34.3865 38.3507 34.3672L38.2939 34.2901H38.1424ZM38.2465 34.2419C38.2655 34.2419 38.2465 34.2323 38.2465 34.2226L38.1235 34.0587V34.2515H38.2465V34.2419Z" fill="#B07E09"/>
<path d="M38.54 34.0684C38.5305 34.0298 38.5116 33.972 38.4642 33.972C38.4358 33.972 38.398 33.9527 38.4169 33.9334H38.5778C38.6441 33.9238 38.7103 33.9238 38.7671 33.943C38.9091 33.9912 39.0227 34.1166 39.0511 34.2708C39.0511 34.3287 39.0416 34.3962 38.9943 34.4251C38.9186 34.4733 38.8334 34.4637 38.7577 34.454L38.6251 34.4637C38.5967 34.4637 38.5873 34.4155 38.6251 34.4251C38.663 34.4251 38.663 34.3769 38.6441 34.3576L38.54 34.0684ZM38.7293 34.3094C38.7387 34.3383 38.7482 34.3769 38.7766 34.4058H38.8712C38.9186 34.4058 38.9375 34.3576 38.9375 34.319C38.9375 34.2516 38.9091 34.1744 38.8807 34.1166C38.8428 34.0491 38.7861 34.0009 38.7103 33.9816C38.679 33.9762 38.647 33.9762 38.6157 33.9816C38.6062 33.9816 38.6157 34.0009 38.6157 34.0202L38.7293 34.3094Z" fill="#B07E09"/>
<path d="M36.732 35.5049C36.732 35.5338 36.7699 35.5628 36.8078 35.5628C36.8267 35.5628 36.874 35.5628 36.874 35.6013C36.8551 35.6206 36.8172 35.6013 36.7983 35.6013L36.6563 35.6206H36.5711C36.5522 35.6206 36.5522 35.582 36.5806 35.582C36.609 35.582 36.6374 35.5724 36.6374 35.5435L36.6184 35.4663L36.5049 35.1964C36.5049 35.1675 36.467 35.1675 36.4386 35.1675C36.4197 35.1675 36.3818 35.1771 36.3723 35.1482C36.3723 35.1193 36.4197 35.1289 36.4386 35.1096L36.5333 35.0807C36.5522 35.0807 36.5617 35.0903 36.5617 35.1096L36.732 35.4953V35.5049Z" fill="#B07E09"/>
<path d="M36.7983 35.071H36.9876C37.0255 35.071 37.0066 35.0228 37.0255 35.0228C37.0633 35.0228 37.0633 35.071 37.0633 35.0903C37.0633 35.1289 37.035 35.1578 37.0066 35.1482H36.8646L36.9119 35.2639L36.9687 35.2446C37.0633 35.2446 37.1769 35.3024 37.2148 35.3988C37.2337 35.447 37.2432 35.4953 37.2148 35.5435C37.1769 35.5917 37.1201 35.6013 37.0633 35.6013C37.016 35.6013 36.9687 35.5917 36.9308 35.5435C36.9214 35.5242 36.9214 35.476 36.9498 35.4856C36.9876 35.4856 37.016 35.5049 37.016 35.5435C37.0255 35.5627 37.0633 35.5531 37.0823 35.5531C37.1107 35.5531 37.1391 35.5338 37.1391 35.5049C37.1391 35.4567 37.1201 35.4085 37.0917 35.3699C37.0728 35.3313 37.0255 35.3024 36.9687 35.3024L36.893 35.3121C36.8646 35.3121 36.8646 35.2831 36.8551 35.2639L36.7888 35.0807L36.8078 35.071H36.7983Z" fill="#B07E09"/>
<path d="M37.4514 35.1675C37.4325 35.1289 37.4136 35.0807 37.3662 35.0711C37.3473 35.0711 37.3 35.0614 37.3284 35.0325H37.4798C37.5461 35.0132 37.6218 35.0228 37.6786 35.0421C37.8206 35.0903 37.9342 35.2157 37.9626 35.3699C37.9626 35.4278 37.9531 35.4856 37.8963 35.5242C37.83 35.5628 37.7449 35.5531 37.6691 35.5531L37.5461 35.5724C37.5177 35.5724 37.5082 35.5242 37.5461 35.5242C37.5745 35.5242 37.5745 35.4856 37.565 35.4567L37.4514 35.1675ZM37.6407 35.4085C37.6502 35.4374 37.6691 35.476 37.6975 35.5049H37.7922C37.83 35.4953 37.849 35.4471 37.849 35.4085C37.849 35.341 37.8206 35.2735 37.7827 35.206C37.7449 35.1385 37.6881 35.0903 37.6123 35.0807C37.581 35.0753 37.549 35.0753 37.5177 35.0807V35.1193L37.6407 35.4085Z" fill="#B07E09"/>
<path d="M38.2465 34.994C38.2749 34.994 38.2844 35.0229 38.2939 35.0422C38.2939 35.0711 38.3128 35.0904 38.3223 35.1193C38.3033 35.1482 38.2749 35.1193 38.2655 35.0904C38.256 35.0711 38.2371 35.0422 38.2087 35.0422H38.0856C38.0667 35.0614 38.0856 35.0904 38.0856 35.1L38.1424 35.235C38.1708 35.235 38.1992 35.235 38.2181 35.2157C38.2371 35.1964 38.1897 35.1482 38.2371 35.1579C38.2655 35.1579 38.2655 35.2061 38.2749 35.235L38.3223 35.341C38.3128 35.3796 38.2749 35.341 38.2655 35.3121C38.256 35.2832 38.2181 35.2832 38.1897 35.2832C38.1708 35.2832 38.1519 35.2832 38.1708 35.3025L38.2276 35.4471C38.2465 35.4857 38.2939 35.476 38.3223 35.476C38.3601 35.476 38.398 35.476 38.4169 35.4471C38.4358 35.4278 38.398 35.3893 38.4169 35.37C38.4548 35.37 38.4642 35.3989 38.4642 35.4182L38.4926 35.5146C38.4926 35.5242 38.4642 35.5146 38.4548 35.5146L38.1613 35.5339C38.1329 35.5339 38.0951 35.5532 38.0762 35.5242C38.0572 35.4857 38.1235 35.5049 38.1329 35.476L38.1046 35.3893L38.0004 35.1097C37.9815 35.0807 37.9626 35.0518 37.9247 35.0422C37.9058 35.0422 37.8679 35.0422 37.8868 35.0036H37.9815L38.2465 34.994Z" fill="#B07E09"/>
<path d="M35.6719 36.3726C35.6814 36.4208 35.7287 36.4401 35.7666 36.4498C35.8423 36.469 35.9275 36.498 35.9748 36.5558C36.0032 36.5944 36.0222 36.6426 36.0222 36.6908C36.0222 36.739 35.9748 36.7776 35.9275 36.7872C35.8802 36.8065 35.8234 36.7968 35.7666 36.7776C35.7476 36.7679 35.7571 36.8161 35.7193 36.8065C35.7003 36.7872 35.7098 36.7486 35.7003 36.7197C35.6896 36.6868 35.677 36.6546 35.6625 36.6233C35.6625 36.5944 35.7003 36.6233 35.7098 36.6426C35.7382 36.7004 35.795 36.739 35.8612 36.7486C35.8991 36.7486 35.937 36.7294 35.937 36.6908C35.937 36.6426 35.8991 36.5944 35.8612 36.5751C35.795 36.5462 35.7287 36.5365 35.6719 36.498C35.6449 36.4822 35.6221 36.4598 35.6056 36.4329C35.5891 36.406 35.5794 36.3754 35.5773 36.3437C35.5773 36.3051 35.6151 36.2666 35.653 36.2569C35.7003 36.2376 35.7476 36.2376 35.8044 36.2569C35.8234 36.2569 35.8328 36.228 35.8612 36.2473C35.8612 36.2666 35.8612 36.2859 35.8802 36.3051L35.9086 36.3919C35.8896 36.4112 35.8612 36.3919 35.8612 36.3726C35.8328 36.3341 35.8139 36.2955 35.7666 36.2955C35.7287 36.2955 35.6909 36.2955 35.6719 36.3244V36.3726Z" fill="#B07E09"/>
<path d="M36.2966 36.2087C36.3345 36.2087 36.3345 36.2377 36.344 36.2569L36.3629 36.3341C36.3629 36.363 36.325 36.3341 36.3156 36.3148C36.3061 36.2955 36.2872 36.2666 36.2493 36.2666H36.1357C36.1168 36.2859 36.1357 36.3148 36.1357 36.3244L36.1831 36.4594C36.2115 36.4594 36.2398 36.4594 36.2588 36.4401C36.2777 36.4208 36.2398 36.3823 36.2682 36.3726C36.3061 36.3726 36.3061 36.4208 36.3156 36.4401C36.3156 36.4787 36.344 36.5173 36.3534 36.5655C36.344 36.5944 36.3061 36.5655 36.3061 36.5365C36.2966 36.5076 36.2588 36.498 36.2304 36.5076C36.2115 36.5076 36.1925 36.5076 36.202 36.5269L36.2588 36.6715C36.2682 36.7004 36.2966 36.7004 36.325 36.7004C36.3629 36.7004 36.4102 36.7004 36.4386 36.6715C36.4576 36.6522 36.4386 36.6137 36.4386 36.5944C36.467 36.5751 36.4954 36.5944 36.4954 36.6233L36.5143 36.7197C36.5143 36.739 36.486 36.739 36.4765 36.739L36.1925 36.7583C36.1547 36.7583 36.1168 36.7872 36.0979 36.7583C36.0979 36.7197 36.1452 36.7294 36.1547 36.7004C36.1547 36.6812 36.1547 36.6522 36.1357 36.6233L36.0411 36.3341C36.0411 36.3052 36.0127 36.2762 35.9748 36.2762C35.9559 36.2762 35.918 36.2666 35.937 36.2377H36.0316L36.2966 36.2087Z" fill="#B07E09"/>
<path d="M36.6942 36.6137C36.7037 36.6426 36.7226 36.6715 36.751 36.6812C36.7794 36.6812 36.8172 36.6715 36.8267 36.7005C36.8267 36.739 36.7794 36.7197 36.7604 36.7197C36.7037 36.7197 36.6658 36.7197 36.609 36.739C36.5901 36.739 36.5617 36.739 36.5522 36.7197C36.5522 36.6812 36.5995 36.7005 36.609 36.6812L36.5995 36.604L36.5049 36.3148C36.486 36.2859 36.4765 36.2473 36.4386 36.2473C36.4197 36.2473 36.3818 36.2473 36.3913 36.2088C36.4008 36.1895 36.4292 36.2088 36.4576 36.2088C36.5238 36.2088 36.5901 36.1798 36.6658 36.1895C36.7005 36.1919 36.7338 36.2039 36.7622 36.2243C36.7906 36.2447 36.8129 36.2727 36.8267 36.3052C36.8456 36.3437 36.8456 36.4016 36.8267 36.4305C36.7794 36.4691 36.7226 36.4787 36.6658 36.4883C36.6469 36.4883 36.6658 36.5076 36.6658 36.5173L36.6942 36.6137ZM36.6374 36.4401H36.7037C36.7321 36.4305 36.751 36.4016 36.7415 36.3727C36.7415 36.3244 36.7226 36.2859 36.6942 36.257C36.6658 36.228 36.6185 36.228 36.5901 36.2377C36.5711 36.2473 36.5901 36.2666 36.5901 36.2859L36.6374 36.4401Z" fill="#B07E09"/>
<path d="M37.2243 36.5847C37.2243 36.604 37.2432 36.6426 37.2716 36.6426C37.2905 36.6426 37.3378 36.6426 37.3378 36.6715C37.3378 36.7004 37.2905 36.6908 37.2716 36.6908L37.1201 36.7004C37.1012 36.7004 37.0728 36.7004 37.0728 36.6715C37.0917 36.6522 37.1391 36.6715 37.1391 36.6329L37.1107 36.5173L37.016 36.2377C37.016 36.2087 36.9781 36.2184 36.9498 36.2184C36.9308 36.2184 36.893 36.2184 36.8835 36.2473V36.3244C36.8646 36.3437 36.8362 36.3244 36.8456 36.2955L36.8078 36.1991C36.8078 36.1702 36.8362 36.1798 36.8551 36.1702L37.2432 36.1509C37.2716 36.1509 37.2905 36.1702 37.2905 36.1991L37.3284 36.2955C37.3189 36.3148 37.281 36.2955 37.281 36.2762C37.2621 36.2473 37.2337 36.2087 37.1864 36.2087C37.1675 36.2087 37.1391 36.1991 37.1107 36.2087L37.1296 36.2762L37.2243 36.5847Z" fill="#B07E09"/>
<path d="M37.423 36.2666C37.4136 36.2376 37.4041 36.1991 37.3662 36.1894C37.3473 36.1894 37.3094 36.1894 37.3094 36.1509C37.3189 36.1316 37.3473 36.1509 37.3662 36.1509L37.5366 36.1316C37.565 36.1219 37.5839 36.1701 37.5555 36.1701C37.5272 36.1701 37.4988 36.1894 37.5082 36.2184L37.5555 36.3726L37.6218 36.5847C37.6218 36.604 37.6502 36.6233 37.6691 36.6233C37.6975 36.6233 37.7354 36.6233 37.7259 36.6619H37.6597L37.5082 36.6811C37.4893 36.6811 37.4514 36.6619 37.4704 36.6426C37.4893 36.6329 37.5272 36.6426 37.5272 36.604L37.4988 36.4883L37.423 36.2666Z" fill="#B07E09"/>
<path d="M37.972 36.1123C38.0004 36.1123 38.0004 36.1412 38.0099 36.1605L38.0288 36.2376C38.0194 36.2666 37.9815 36.2376 37.9815 36.2184C37.972 36.1894 37.9531 36.1605 37.9152 36.1605H37.8111C37.7922 36.1798 37.8111 36.2087 37.8111 36.228L37.8584 36.3533C37.8774 36.3533 37.9058 36.3533 37.9342 36.3341C37.9531 36.3244 37.9152 36.2762 37.9436 36.2762C37.9815 36.2762 37.9815 36.3148 37.991 36.3341C37.991 36.3823 38.0194 36.4208 38.0288 36.4594C38.0194 36.4883 37.9815 36.4594 37.9815 36.4401C37.972 36.4112 37.9342 36.4015 37.9058 36.4015C37.8963 36.4015 37.8584 36.4015 37.8774 36.4208L37.9247 36.5654C37.9342 36.5944 37.972 36.604 37.991 36.604C38.0288 36.604 38.0761 36.604 38.1045 36.5751C38.1235 36.5558 38.1045 36.5172 38.114 36.4883C38.1424 36.4787 38.1613 36.498 38.1613 36.5269L38.1803 36.6233C38.1803 36.6426 38.1613 36.6426 38.1424 36.6426L37.8584 36.6522C37.8206 36.6522 37.7922 36.6715 37.7638 36.6522C37.7543 36.6137 37.8111 36.6233 37.8206 36.604C37.83 36.5751 37.8206 36.5462 37.8111 36.5269L37.7165 36.2376C37.7165 36.2087 37.6881 36.1702 37.6502 36.1702C37.6313 36.1702 37.5934 36.1509 37.6123 36.1316H37.707L37.9815 36.1123H37.972Z" fill="#B07E09"/>
<path d="M38.1613 36.2087C38.1519 36.1701 38.1235 36.1412 38.0856 36.1412C38.0572 36.1509 38.0383 36.0834 38.0856 36.1027H38.2276L38.2939 36.1894L38.5021 36.469C38.4832 36.469 38.5021 36.4497 38.4926 36.4401L38.5305 36.093C38.5494 36.0737 38.5968 36.093 38.6252 36.0737C38.6536 36.0737 38.7198 36.0737 38.7009 36.1123C38.663 36.1123 38.6252 36.1316 38.6441 36.1701L38.7577 36.5172C38.7577 36.5558 38.7955 36.5751 38.8334 36.5654C38.8618 36.5654 38.8618 36.6233 38.8334 36.6136H38.663C38.6346 36.6233 38.5873 36.6233 38.5968 36.5847C38.6252 36.5847 38.6725 36.5654 38.6536 36.5269L38.5589 36.2184C38.5684 36.228 38.5589 36.2473 38.5589 36.2569L38.54 36.5462L38.5305 36.6233C38.5021 36.6329 38.4926 36.6136 38.4832 36.5944L38.2087 36.2376L38.2276 36.2666C38.256 36.363 38.2749 36.4594 38.3128 36.5462C38.3128 36.5847 38.3601 36.5944 38.3885 36.5944C38.4264 36.6136 38.398 36.6426 38.3696 36.6329H38.2276C38.1992 36.6329 38.1992 36.5944 38.2276 36.5944C38.2749 36.5944 38.2655 36.5462 38.2465 36.5172L38.1519 36.2087H38.1613Z" fill="#B07E09"/>
<path d="M38.9848 36.2859C38.9848 36.3051 39.0227 36.2859 39.0322 36.2859C39.0606 36.2859 39.089 36.2859 39.0984 36.2473C39.0984 36.2087 39.0795 36.1509 39.0511 36.1316C39.0132 36.1027 38.9754 36.1123 38.9375 36.1123V36.1605L38.9848 36.2859ZM39.0322 36.4401L39.07 36.5365C39.0984 36.5558 39.1268 36.5462 39.1552 36.5462C39.1742 36.5462 39.2026 36.5269 39.1931 36.498C39.1931 36.4401 39.1647 36.3726 39.1079 36.3534H39.0132V36.3823L39.0322 36.4401ZM38.8523 36.2087C38.8429 36.1702 38.8334 36.1316 38.7955 36.1123C38.7766 36.1123 38.7387 36.1123 38.7387 36.0834C38.7387 36.0545 38.7861 36.0834 38.805 36.0738C38.8997 36.0738 38.9754 36.0545 39.0606 36.0738C39.1268 36.093 39.1836 36.1605 39.1836 36.228C39.1836 36.2666 39.1458 36.2955 39.1174 36.3148C39.1174 36.2955 39.1552 36.3148 39.1647 36.3148C39.212 36.3341 39.2593 36.3726 39.2783 36.4305C39.2972 36.469 39.3067 36.5173 39.2783 36.5558C39.2404 36.5944 39.1836 36.5944 39.1363 36.5944L38.9186 36.604C38.8902 36.604 38.8807 36.5558 38.9186 36.5655C38.947 36.5655 38.9564 36.5269 38.9375 36.498L38.8523 36.2087Z" fill="#B07E09"/>
<path d="M39.3351 36.1894C39.3351 36.1605 39.3162 36.1123 39.2783 36.093C39.2594 36.093 39.2215 36.093 39.2215 36.0641C39.2404 36.0352 39.2783 36.0641 39.3162 36.0544H39.5055C39.5812 36.0544 39.6474 36.1123 39.6664 36.1894C39.6758 36.228 39.6664 36.2858 39.6285 36.3051L39.5907 36.3244C39.6474 36.3437 39.6948 36.3919 39.7232 36.4401L39.7705 36.5172C39.7894 36.5365 39.7989 36.5076 39.7989 36.4883C39.8368 36.469 39.8557 36.5172 39.8368 36.5462C39.8273 36.5847 39.7705 36.5944 39.7421 36.5847C39.7042 36.5847 39.6758 36.5558 39.6664 36.5269L39.5717 36.363C39.5433 36.3533 39.5149 36.334 39.4865 36.3533V36.3919L39.5339 36.5076C39.5433 36.5365 39.5812 36.5462 39.6096 36.5462C39.6474 36.5462 39.6474 36.5944 39.6096 36.5847H39.4392C39.4203 36.5847 39.3824 36.604 39.3729 36.5847C39.354 36.5365 39.4108 36.5558 39.4297 36.5365L39.4108 36.4497L39.3351 36.1894ZM39.4581 36.2858C39.4676 36.3148 39.5149 36.2858 39.5339 36.2858C39.5623 36.2858 39.5812 36.2569 39.5717 36.2376C39.5717 36.1894 39.5528 36.1412 39.5244 36.1123C39.496 36.093 39.4581 36.093 39.4297 36.1027C39.4108 36.1027 39.4203 36.1316 39.4297 36.1509L39.4581 36.2762V36.2858Z" fill="#B07E09"/>
<path d="M40.1112 36.0352C40.1396 36.0352 40.1396 36.0641 40.1491 36.0834C40.1491 36.1123 40.168 36.1413 40.1775 36.1606C40.1586 36.1895 40.1302 36.1606 40.1207 36.1413C40.1207 36.122 40.1018 36.0834 40.0639 36.0834H39.9409C39.9219 36.0931 39.9409 36.122 39.9409 36.1413L39.9787 36.2763C40.0071 36.2763 40.0355 36.2762 40.0545 36.257C40.0829 36.2473 40.045 36.2088 40.0734 36.1895C40.1112 36.1895 40.1112 36.228 40.1112 36.257C40.1112 36.3052 40.1396 36.3437 40.1491 36.3823C40.1396 36.4112 40.1018 36.3823 40.1018 36.363C40.1018 36.3341 40.0639 36.3148 40.0355 36.3245C40.0261 36.3245 39.9882 36.3052 39.9977 36.3245L40.045 36.4884C40.0545 36.5173 40.0828 36.5173 40.1112 36.5173C40.1491 36.5173 40.1964 36.5173 40.2248 36.498C40.2438 36.4787 40.2248 36.4402 40.2343 36.4209C40.2627 36.4016 40.2911 36.4209 40.2816 36.4498L40.3006 36.5462C40.3006 36.5655 40.2722 36.5655 40.2627 36.5655H39.9693C39.9409 36.5655 39.9125 36.5848 39.8935 36.5655C39.8651 36.5269 39.9125 36.5366 39.9314 36.5173C39.9503 36.498 39.9314 36.4691 39.9314 36.4498L39.8462 36.1509C39.8462 36.122 39.8178 36.0834 39.7894 36.0834C39.761 36.0834 39.7326 36.0738 39.7421 36.0449H39.8367L40.1207 36.0352H40.1112Z" fill="#B07E09"/>
<path d="M37.0066 37.2982C37.0066 37.2693 36.9876 37.2211 36.9498 37.2018C36.9214 37.2018 36.8835 37.2018 36.9024 37.1729L36.9971 37.1632C37.0728 37.1632 37.1485 37.144 37.2243 37.1632C37.3378 37.1825 37.442 37.2789 37.4704 37.385C37.4893 37.4621 37.4988 37.5392 37.4514 37.6067C37.4041 37.6646 37.3189 37.6839 37.2432 37.6839C37.1769 37.6839 37.1201 37.6839 37.0633 37.7031C37.0444 37.7128 37.0066 37.6935 37.0255 37.6646C37.0539 37.6646 37.0917 37.6549 37.0823 37.6164L37.0444 37.4718L37.0066 37.2982ZM37.158 37.5392C37.1675 37.5682 37.1769 37.6067 37.1959 37.626C37.2243 37.6453 37.2621 37.6357 37.2905 37.626C37.3284 37.626 37.3662 37.5875 37.3757 37.5392C37.3831 37.4663 37.37 37.3927 37.3378 37.3271C37.3256 37.2973 37.3062 37.271 37.2814 37.2508C37.2566 37.2306 37.2272 37.217 37.1959 37.2114C37.1615 37.2049 37.1262 37.2049 37.0917 37.2114C37.0823 37.2114 37.0917 37.2307 37.0917 37.25L37.158 37.5392Z" fill="#B07E09"/>
<path d="M37.8301 37.1054C37.8585 37.1054 37.8585 37.1343 37.8679 37.1536L37.8869 37.2404C37.8679 37.2597 37.8395 37.2404 37.8395 37.2211C37.8301 37.1922 37.8111 37.1633 37.7827 37.1633H37.6597C37.6407 37.1729 37.6597 37.2018 37.6597 37.2211C37.6597 37.2693 37.6786 37.3175 37.6881 37.3561C37.7165 37.3561 37.7449 37.3561 37.7638 37.3368C37.7827 37.3175 37.7543 37.279 37.7827 37.2693C37.8206 37.2693 37.8111 37.3175 37.8206 37.3368L37.849 37.4621C37.849 37.4911 37.8017 37.4621 37.8017 37.4429C37.8017 37.4139 37.7638 37.3946 37.7354 37.4043C37.7259 37.4043 37.6881 37.3946 37.707 37.4139C37.707 37.4621 37.7259 37.5103 37.7449 37.5682C37.7449 37.5971 37.7827 37.5971 37.8111 37.5971C37.849 37.5971 37.8963 37.5971 37.9247 37.5682C37.9436 37.5489 37.9247 37.5103 37.9436 37.4911C37.9626 37.4718 37.9815 37.5007 37.9815 37.5296C37.9815 37.5586 37.9815 37.5875 38.0004 37.626C37.991 37.6453 37.972 37.6357 37.9531 37.6357L37.6691 37.655C37.6407 37.655 37.6124 37.6742 37.584 37.655C37.565 37.6357 37.5934 37.6164 37.6218 37.6164C37.6502 37.6068 37.6407 37.5682 37.6313 37.5489L37.565 37.2404C37.5556 37.2115 37.5366 37.1729 37.5082 37.1729C37.4798 37.1729 37.4514 37.1633 37.4609 37.1343H37.5556L37.8301 37.1054Z" fill="#B07E09"/>
<path d="M38.4453 37.5007C38.4453 37.5296 38.4737 37.5585 38.5021 37.5682C38.521 37.5682 38.5589 37.5682 38.5684 37.5875C38.5778 37.6164 38.5305 37.6068 38.5116 37.6068L38.3507 37.6164C38.3223 37.6164 38.2939 37.626 38.2749 37.6164C38.2465 37.6164 38.256 37.5778 38.2844 37.5778C38.3128 37.5778 38.3412 37.5682 38.3507 37.5393L38.3412 37.4621L38.2749 37.1922C38.2749 37.1633 38.2465 37.1632 38.2181 37.1632C38.1992 37.1632 38.1614 37.1825 38.1519 37.1536C38.1519 37.115 38.1992 37.1247 38.2181 37.115L38.3223 37.0765C38.3412 37.0765 38.3507 37.0861 38.3507 37.1054L38.4453 37.5007Z" fill="#B07E09"/>
<path d="M38.7955 37.1825C38.7955 37.1439 38.7672 37.1054 38.7293 37.1054C38.7009 37.1054 38.663 37.1054 38.6536 37.1343C38.6441 37.1728 38.6536 37.2114 38.6914 37.2307L38.7766 37.2789L38.7955 37.2211V37.1825ZM38.8713 37.4621C38.8713 37.4139 38.8145 37.385 38.7766 37.3657C38.7577 37.3657 38.7388 37.3464 38.7293 37.356C38.7146 37.3667 38.7032 37.3815 38.6965 37.3986C38.6898 37.4157 38.688 37.4344 38.6914 37.4524C38.7104 37.5103 38.7388 37.5489 38.7861 37.5489C38.8239 37.5585 38.8618 37.5489 38.8807 37.5103V37.4621H38.8713ZM38.9659 37.4428C38.9659 37.491 38.947 37.5392 38.9091 37.5681C38.8618 37.6067 38.7861 37.6067 38.7198 37.5874C38.663 37.5778 38.6252 37.5296 38.6062 37.4717C38.6062 37.4235 38.6157 37.3753 38.6536 37.3368C38.663 37.3368 38.7009 37.3271 38.6725 37.3175C38.6252 37.2982 38.5778 37.2596 38.5778 37.2018C38.5589 37.1536 38.5778 37.1054 38.6252 37.0764C38.7009 37.0379 38.8145 37.0572 38.8713 37.1439C38.8902 37.1825 38.8902 37.2307 38.8713 37.2596L38.8145 37.3078C38.8618 37.3078 38.9091 37.3464 38.9281 37.385C38.947 37.3946 38.9565 37.4235 38.9565 37.4428H38.9659Z" fill="#B07E09"/>
<path d="M39.2688 37.5007C39.2878 37.5007 39.3162 37.4814 39.3162 37.4621C39.3256 37.4428 39.3162 37.3946 39.3445 37.4042C39.3729 37.4042 39.3635 37.4332 39.3729 37.4621C39.3729 37.5007 39.3729 37.5392 39.3351 37.5681C39.3162 37.5874 39.2878 37.5778 39.2594 37.5778H39.0984C39.0795 37.5778 39.0511 37.5971 39.0322 37.5778C39.0133 37.5585 39.0322 37.5296 39.0322 37.5103C39.0511 37.4428 39.089 37.3946 39.1268 37.356C39.1647 37.3271 39.2026 37.2982 39.2026 37.25C39.2026 37.2114 39.2026 37.1729 39.1836 37.1343C39.1769 37.1234 39.1681 37.114 39.1578 37.1066C39.1474 37.0993 39.1357 37.0941 39.1234 37.0914C39.111 37.0887 39.0983 37.0885 39.0859 37.0909C39.0734 37.0933 39.0616 37.0982 39.0511 37.1054C39.0227 37.115 39.0038 37.1536 39.0227 37.1729C39.0417 37.1921 39.0795 37.1729 39.089 37.2114C39.1079 37.2307 39.089 37.2693 39.0606 37.2693C39.0227 37.2693 38.9849 37.2403 38.9659 37.2018C38.9565 37.1536 38.9754 37.0957 39.0227 37.0668C39.07 37.0379 39.1268 37.0379 39.1836 37.0475C39.231 37.0668 39.2783 37.1054 39.2972 37.1632C39.3067 37.2018 39.3067 37.25 39.2878 37.2885C39.2499 37.356 39.1742 37.385 39.1268 37.4524C39.1174 37.4621 39.1079 37.4814 39.1174 37.5103C39.1174 37.4814 39.1552 37.491 39.1647 37.491H39.2594L39.2688 37.5007Z" fill="#B07E09"/>
<path d="M39.638 37.4621C39.638 37.4814 39.6664 37.5103 39.6947 37.52C39.7137 37.52 39.7515 37.52 39.761 37.5392C39.7799 37.5682 39.7326 37.5682 39.7137 37.5682H39.4581C39.4392 37.5585 39.4581 37.52 39.477 37.5296C39.5054 37.5296 39.5338 37.52 39.5433 37.491V37.4139L39.477 37.144C39.477 37.115 39.4486 37.115 39.4297 37.115C39.4013 37.115 39.3729 37.1343 39.3635 37.115C39.3445 37.0765 39.3919 37.0765 39.4108 37.0668L39.5244 37.0283C39.5528 37.0283 39.5528 37.0379 39.5622 37.0572L39.638 37.4525V37.4621Z" fill="#B07E09"/>
<path d="M36.9405 29.5947L36.5808 30.0382C36.4672 30.5396 36.7512 30.9252 37.3096 31.253C37.7545 31.5423 38.5875 31.6098 38.8525 31.3784L37.5557 30.125L36.9405 29.6044V29.5947Z" fill="url(#paint9_radial_1_61646)" stroke="#4C0505" stroke-width="0.019106"/>
<path d="M39.5719 42.6009L39.3826 42.3599C38.5599 43.4972 37.5036 44.4382 36.2874 45.1173C37.7166 44.7123 38.6537 43.6518 39.5719 42.6009Z" fill="#448127" stroke="#34541F" stroke-width="0.019106"/>
<path d="M38.1047 46.0429C38.6373 44.9814 39.212 43.9425 39.8275 42.9287L39.6287 42.6684C38.9282 43.8446 38.1142 45.2426 38.1142 46.0429H38.1047Z" fill="#448127" stroke="#34541F" stroke-width="0.019106"/>
<path d="M42.0613 35.0036C41.9666 34.589 41.8436 34.1455 41.6543 33.7502C40.6394 32.0075 39.2146 30.5496 37.5084 29.508V29.4791H37.5462L37.5368 29.4694H37.5746L37.5557 29.4405H37.5936L37.5652 29.4019H37.603L37.5746 29.373H37.622L37.5936 29.3344H37.6314L37.5936 29.3055L37.6504 29.2959L37.603 29.267L37.6504 29.2573L37.6125 29.2284L37.6693 29.2091L37.622 29.1802L37.6788 29.1513L37.622 29.1127L37.6882 29.0934L37.6125 29.0645L37.6788 29.0259H37.603L37.6504 28.9584H37.5841L37.6125 28.9102H37.5557L37.5841 28.862L37.5178 28.8717L37.5462 28.8138L37.4894 28.8524L37.5084 28.7849L37.4421 28.8235L37.4516 28.756L37.3948 28.8042L37.4043 28.7367L37.3569 28.7849V28.7174L37.3096 28.7752V28.7078L37.2717 28.756L37.2528 28.6981L37.2149 28.756L37.2055 28.6885L37.1771 28.756L37.1582 28.6885L37.1298 28.756L37.1108 28.6981L37.0919 28.756L37.073 28.6981L37.054 28.7752L37.0351 28.7078L37.0067 28.7849L36.9783 28.7174V28.7945L36.9404 28.727V28.8042L36.8931 28.7463V28.8235L36.8553 28.7656V28.8331L36.8174 28.8042L36.8363 28.8717L36.789 28.8427L36.8079 28.9006L36.7701 28.8813L36.7795 28.9392H36.7417L36.7606 28.9777H36.7322L36.7511 29.0163C36.7168 29.1251 36.7039 29.2398 36.7133 29.3537C36.7133 29.373 36.7701 29.3923 36.7795 29.4116C36.8079 29.4501 36.7985 29.4694 36.7985 29.4694C36.647 29.7201 36.5145 29.9129 36.505 30.2022C36.6186 30.0479 36.7511 29.8551 36.9215 29.8551C36.8363 29.9997 36.7985 30.4432 36.8931 30.5107L36.9688 30.3854C36.9688 30.4818 36.9783 30.5589 37.0067 30.6071C37.0351 30.5493 37.0635 30.4818 37.1014 30.4432C37.1014 30.5878 37.1203 30.7035 37.1582 30.7614C37.2055 30.6842 37.2528 30.6457 37.3096 30.6071C37.2907 30.6939 37.2623 30.771 37.2812 30.8674C37.338 30.771 37.3948 30.7035 37.4611 30.6264C37.4232 30.7806 37.4611 30.8963 37.4989 31.0602C37.5368 30.8674 37.5557 30.8385 37.6409 30.7614C37.6504 30.9445 37.622 31.1085 37.6598 31.2145C37.7356 31.0506 37.7923 31.0699 37.8491 30.9638C37.8302 31.1181 37.8018 31.282 37.8491 31.417C37.8767 31.3137 37.9407 31.2244 38.029 31.1663C38.029 31.3784 38.0763 31.3398 37.9533 31.523C38.0101 31.5423 38.1899 31.4845 38.294 31.4363C38.2467 31.552 38.2562 31.6387 38.2088 31.7255C38.3035 31.6676 38.3981 31.5809 38.4833 31.4941C38.4455 31.6291 38.3413 31.7641 38.3887 31.8894C38.4171 31.7641 38.5117 31.6676 38.6064 31.6484C38.5874 31.7159 38.578 31.8605 38.4833 31.928C38.7105 31.9472 38.8052 31.793 38.9187 31.6676C38.9093 31.793 38.9187 31.899 39.0702 32.0822C39.0418 31.8508 39.0891 31.899 39.1932 31.7641C39.25 31.9665 39.3068 32.1883 39.5151 32.3425C39.4204 32.1208 39.4204 32.0051 39.4583 31.8701C39.4867 32.0147 39.6192 32.1883 39.6476 32.3136C39.676 32.169 39.6949 32.0244 39.7422 31.928C39.8085 32.0919 39.8558 32.2751 39.8748 32.4679C39.9221 32.3715 39.9599 32.2751 39.9789 32.1786C41.8531 34.1551 42.2695 36.6811 40.2155 39.3518C40.9538 38.8504 41.1431 38.0502 41.5502 37.3657C41.1526 38.2623 40.9822 39.265 40.2723 40.0074C40.9538 39.4096 41.0958 38.8601 41.5028 38.2816C41.0769 39.4868 40.4616 40.8076 39.6287 42.0224L40.083 42.5238L40.4616 41.8585C41.3514 40.3738 42.7996 38.243 42.0708 35.0036H42.0613Z" fill="#448127" stroke="#34541F" stroke-width="0.019106"/>
<path d="M36.6942 29.1994C36.5996 29.2187 36.5617 29.2573 36.486 29.3344C36.5806 29.3537 36.6469 29.3633 36.7321 29.3633C36.751 29.3633 36.7605 29.3248 36.7605 29.3055L36.7416 29.2091C36.7416 29.1898 36.6848 29.1994 36.6658 29.2091L36.6942 29.1994Z" fill="#EAC102" stroke="#A08307" stroke-width="0.019106"/>
<path d="M36.486 29.3345C36.5534 29.3104 36.6232 29.2942 36.6942 29.2863C36.6269 29.3104 36.557 29.3266 36.486 29.3345Z" fill="#A08307"/>
<path d="M37.1202 29.2862C37.162 29.2862 37.1959 29.2517 37.1959 29.2091C37.1959 29.1665 37.162 29.132 37.1202 29.132C37.0784 29.132 37.0445 29.1665 37.0445 29.2091C37.0445 29.2517 37.0784 29.2862 37.1202 29.2862Z" fill="black" stroke="black" stroke-width="0.00955302"/>
<path d="M37.1391 29.238C37.1548 29.238 37.1675 29.2208 37.1675 29.1995C37.1675 29.1782 37.1548 29.1609 37.1391 29.1609C37.1234 29.1609 37.1107 29.1782 37.1107 29.1995C37.1107 29.2208 37.1234 29.238 37.1391 29.238Z" fill="url(#paint10_radial_1_61646)"/>
<path d="M38.114 46.014C38.2856 45.4362 38.5205 44.8799 38.8144 44.3557C39.0247 43.9556 39.2489 43.5633 39.4865 43.1794L39.7326 42.7938L39.4959 43.1794C39.2683 43.5708 39.0474 43.9661 38.8333 44.3653C38.5564 44.8939 38.3161 45.4416 38.114 46.0043V46.014Z" fill="#34541F"/>
<path d="M36.325 45.098C37.4309 44.6081 38.3978 43.8421 39.1362 42.8708C38.7633 43.2307 38.4095 43.6105 38.0761 44.0085C37.5514 44.4621 36.9607 44.8297 36.325 45.098Z" fill="#34541F"/>
<path d="M39.8556 42.2731C39.9313 42.1767 39.9976 42.061 40.0638 41.955C40.267 41.6357 40.4565 41.3076 40.6318 40.9716C40.7643 40.7498 40.8779 40.5184 40.9914 40.2967L41.3417 39.6218L41.1808 39.9592L41.0104 40.3063C40.7809 40.7573 40.5379 41.201 40.2815 41.6368C40.1485 41.855 40.0064 42.0673 39.8556 42.2731Z" fill="#34541F"/>
<path d="M40.4141 39.8531C40.7387 39.4618 41.0094 39.0271 41.2186 38.5612C41.5263 37.8588 41.7181 37.1096 41.7866 36.3437C41.7787 36.4721 41.7756 36.6007 41.7771 36.7293C41.6974 37.3673 41.5118 37.9867 41.2281 38.5612C41.0144 39.0268 40.7406 39.4613 40.4141 39.8531Z" fill="#34541F"/>
<path d="M40.2626 39.2939C40.5937 38.9355 40.8712 38.5295 41.0861 38.0888C41.2445 37.76 41.3836 37.422 41.5026 37.0764L41.531 36.9896L41.5594 36.9029L41.6162 36.7293C41.7132 36.2399 41.7196 35.7364 41.6351 35.2446C41.641 35.4933 41.6631 35.7413 41.7014 35.987C41.7014 36.2376 41.6825 36.4883 41.6351 36.7293C41.6067 36.7872 41.5973 36.8547 41.5783 36.9125L41.5499 36.9993L41.5121 37.0861C41.3817 37.4302 41.2428 37.771 41.0956 38.108C40.9913 38.3289 40.871 38.5416 40.7359 38.7444C40.5981 38.9474 40.4395 39.1348 40.2626 39.3036V39.2939Z" fill="#34541F"/>
<path d="M39.7042 42.1092C39.8272 41.9549 39.9313 41.791 40.0449 41.6271L40.2153 41.3861L40.3762 41.145L40.6602 40.6244L40.9063 40.0941C41.0767 39.7374 41.2376 39.3807 41.3796 39.0047C41.5215 38.6383 41.6257 38.2623 41.7109 37.8766C41.7866 37.491 41.8434 37.1053 41.8812 36.71C41.961 35.9233 41.8771 35.1283 41.6351 34.3768C41.9022 35.1226 41.993 35.9219 41.9002 36.71C41.8623 37.0957 41.8055 37.491 41.7298 37.8766C41.6446 38.2623 41.5405 38.6479 41.3985 39.0143C41.2565 39.3807 41.0956 39.7374 40.9252 40.0941L40.6602 40.6244C40.575 40.8076 40.4898 40.9811 40.3857 41.145C40.3384 41.2415 40.2816 41.3089 40.2248 41.3957L40.0544 41.6368L39.7136 42.1188L39.7042 42.1092Z" fill="#34541F"/>
<path d="M39.9692 42.4081C40.4145 41.6662 40.8375 40.9106 41.2376 40.1424C41.8157 38.9717 42.0987 37.6729 42.0611 36.363C42.0611 35.9291 42.0232 35.4953 41.9475 35.071C41.9506 35.071 41.9538 35.071 41.9569 35.071C42.0421 35.4953 42.0705 35.9388 42.0705 36.363C42.0682 37.2326 41.9536 38.0981 41.7298 38.9372C41.6052 39.3548 41.4469 39.7611 41.2565 40.152C40.8532 40.9171 40.427 41.6695 39.9786 42.4081H39.9692Z" fill="#34541F"/>
<path d="M37.3378 29.7297H37.4703C37.6051 29.7513 37.736 29.7936 37.8584 29.8551C38.1746 30.0264 38.4621 30.2477 38.7103 30.5107C38.4588 30.2568 38.1717 30.0424 37.8584 29.8744C37.693 29.7998 37.5175 29.751 37.3378 29.7297Z" fill="#34541F"/>
<path d="M38.8902 30.771C38.8902 30.771 39.1741 30.9445 39.335 31.1952C39.335 31.1952 38.8902 31.1084 38.5778 30.7517" fill="#448127"/>
<path d="M38.8902 30.771C39.0714 30.8752 39.2268 31.0203 39.3445 31.1952L39.354 31.2145H39.335C39.1878 31.1804 39.0471 31.1217 38.9186 31.0409C38.786 30.9638 38.6724 30.8674 38.5683 30.7517C38.7239 30.9165 38.9151 31.042 39.1268 31.1181L39.335 31.1856V31.2049C39.2779 31.1143 39.2077 31.033 39.1268 30.9638C39.0538 30.8924 38.9746 30.8279 38.8902 30.771Z" fill="#34541F"/>
<path d="M38.2465 30.6842C38.2465 30.6842 38.928 31.1277 39.0321 31.1663C39.0321 31.1663 38.8712 30.8288 38.5494 30.6842" fill="#448127"/>
<path d="M38.2465 30.6842L38.6346 30.9252C38.7317 30.9842 38.8296 31.0421 38.928 31.0988L39.0227 31.1566V31.1663C38.9723 31.0624 38.9051 30.9678 38.8239 30.8867C38.7442 30.804 38.6514 30.7355 38.5494 30.6842C38.6566 30.7268 38.7535 30.7926 38.8334 30.877C38.915 30.9615 38.9822 31.0592 39.0321 31.1663L39.0511 31.1856L39.0227 31.1759L38.8239 31.0602C38.6285 30.9363 38.4359 30.8078 38.2465 30.6746V30.6842Z" fill="#34541F"/>
<path d="M38.521 30.4625C38.521 30.4625 38.8712 30.6167 38.9564 30.877C38.9564 30.877 38.3127 30.6071 38.1992 30.4625" fill="#448127"/>
<path d="M38.521 30.4625C38.6165 30.5 38.7058 30.552 38.786 30.6167L38.8901 30.7324L38.9659 30.877V30.8963H38.9469C38.7202 30.789 38.4991 30.67 38.2843 30.5396L38.1992 30.4625L38.2843 30.53L38.379 30.5878C38.5621 30.7025 38.7554 30.7994 38.9564 30.877H38.9469C38.928 30.8385 38.9091 30.7806 38.8712 30.7517C38.8428 30.7035 38.8144 30.6649 38.7766 30.636C38.7004 30.5654 38.6143 30.5069 38.521 30.4625Z" fill="#34541F"/>
<path d="M37.9815 30.7421C37.9815 30.7421 38.6062 31.1952 38.7955 31.1952C38.7955 31.1952 38.6062 30.877 38.2844 30.7421" fill="#448127"/>
<path d="M37.9815 30.7421C38.2102 30.8884 38.4438 31.0267 38.6819 31.1566L38.7955 31.1856L38.786 31.2048C38.7268 31.1045 38.6535 31.0135 38.5683 30.9349C38.4829 30.8575 38.3874 30.7926 38.2844 30.7421C38.447 30.8066 38.5904 30.9129 38.7009 31.0506L38.7955 31.1952L38.8144 31.2048H38.7955C38.7482 31.2048 38.7103 31.1952 38.6725 31.1759L38.5778 31.1277C38.3655 31.0223 38.1654 30.893 37.9815 30.7421Z" fill="#34541F"/>
<path d="M37.9815 30.877C37.9815 30.877 38.3033 31.1663 38.4926 31.1663C38.4926 31.1663 38.3033 30.8481 37.9815 30.7035" fill="#448127"/>
<path d="M37.9815 30.877C38.1017 30.9668 38.2282 31.0473 38.3601 31.1181L38.4169 31.1374L38.4926 31.1566L38.4831 31.1663C38.4232 31.0693 38.3499 30.9817 38.2654 30.906C38.18 30.8286 38.0845 30.7637 37.9815 30.7131C38.143 30.775 38.2864 30.8779 38.398 31.012L38.4926 31.1566L38.5115 31.1759H38.4926C38.4401 31.1739 38.3885 31.1608 38.3412 31.1374C38.2522 31.0943 38.1694 31.0392 38.0951 30.9735C38.0477 30.9445 38.0099 30.9156 37.9815 30.877Z" fill="#34541F"/>
<path d="M37.8112 30.2504C37.8112 30.2504 38.4927 30.7421 38.5684 31.012C38.5684 31.012 37.9626 30.7228 37.849 30.5782" fill="#448127"/>
<path d="M37.8112 30.2504C38.0675 30.4386 38.3052 30.6517 38.5211 30.8867L38.5874 31.0024V31.0313L38.5684 31.0217C38.3479 30.9072 38.1331 30.7817 37.9248 30.6457L37.849 30.5782L37.9248 30.6457L38.0194 30.7035C38.1998 30.8171 38.3899 30.9139 38.5874 30.9927L38.5684 31.012L38.5022 30.8963C38.3641 30.7168 38.2052 30.5549 38.0289 30.4143L37.8112 30.2504Z" fill="#34541F"/>
<path d="M34.025 44.1435C33.4297 44.4607 32.7656 44.6199 32.094 44.6063C33.0405 43.8157 33.9587 43.7965 34.025 44.1435Z" fill="#406325" stroke="#24420E" stroke-width="0.019106"/>
<path d="M40.6319 44.5774C41.1241 45.0305 42.6197 45.3487 42.8563 45.2908C41.8529 44.2592 40.7644 44.1532 40.6319 44.5774Z" fill="#406325" stroke="#24420E" stroke-width="0.019106"/>
<path d="M34.025 44.1435C33.9587 43.7868 33.0311 43.8157 32.094 44.6063C32.711 44.3537 33.3621 44.1976 34.025 44.1435Z" fill="#67923D" stroke="#24420E" stroke-width="0.019106"/>
<path d="M40.6414 44.5677C40.7739 44.1435 41.8529 44.2496 42.8563 45.2908C41.7204 44.8088 40.7739 44.5099 40.6414 44.5677Z" fill="#67923D" stroke="#24420E" stroke-width="0.019106"/>
</g>
<defs>
<radialGradient id="paint0_radial_1_61646" cx="0" cy="0" r="1" gradientUnits="userSpaceOnUse" gradientTransform="translate(34.252 38.1659) scale(1.56181 1.59082)">
<stop offset="0.2" stop-color="#F9F0AA"/>
<stop offset="1" stop-color="#B07E09"/>
</radialGradient>
<radialGradient id="paint1_radial_1_61646" cx="0" cy="0" r="1" gradientUnits="userSpaceOnUse" gradientTransform="translate(34.6496 38.6191) scale(1.03174 1.0509)">
<stop offset="0.2" stop-color="#F9F0AA"/>
<stop offset="1" stop-color="#B07E09"/>
</radialGradient>
<radialGradient id="paint2_radial_1_61646" cx="0" cy="0" r="1" gradientUnits="userSpaceOnUse" gradientTransform="translate(34.8862 38.1948) scale(0.927622 0.944852)">
<stop offset="0.2" stop-color="#F9F0AA"/>
<stop offset="1" stop-color="#B07E09"/>
</radialGradient>
<radialGradient id="paint3_radial_1_61646" cx="0" cy="0" r="1" gradientUnits="userSpaceOnUse" gradientTransform="translate(35.2932 38.0502) scale(1.647 1.67759)">
<stop offset="0.2" stop-color="#F9F0AA"/>
<stop offset="1" stop-color="#B07E09"/>
</radialGradient>
<linearGradient id="paint4_linear_1_61646" x1="36.7604" y1="33.432" x2="36.6131" y2="30.8099" gradientUnits="userSpaceOnUse">
<stop offset="0.2" stop-color="#B07E09" stop-opacity="0"/>
<stop offset="1" stop-color="#B07E09"/>
</linearGradient>
<linearGradient id="paint5_linear_1_61646" x1="37.6312" y1="37.0475" x2="37.8668" y2="39.9296" gradientUnits="userSpaceOnUse">
<stop offset="0.2" stop-color="#B07E09" stop-opacity="0"/>
<stop offset="1" stop-color="#B07E09"/>
</linearGradient>
<radialGradient id="paint6_radial_1_61646" cx="0" cy="0" r="1" gradientUnits="userSpaceOnUse" gradientTransform="translate(34.1195 32.7764) scale(1.23052 1.25337)">
<stop offset="0.2" stop-color="#F9F0AA"/>
<stop offset="1" stop-color="#B07E09"/>
</radialGradient>
<linearGradient id="paint7_linear_1_61646" x1="34.6401" y1="32.4968" x2="35.0208" y2="31.6439" gradientUnits="userSpaceOnUse">
<stop offset="0.2" stop-color="#F9F0AA"/>
<stop offset="1" stop-color="#B07E09"/>
</linearGradient>
<linearGradient id="paint8_linear_1_61646" x1="36.7036" y1="31.3109" x2="36.9589" y2="34.5111" gradientUnits="userSpaceOnUse">
<stop offset="0.2" stop-color="#F9F0AA"/>
<stop offset="1" stop-color="#B07E09"/>
</linearGradient>
<radialGradient id="paint9_radial_1_61646" cx="0" cy="0" r="1" gradientUnits="userSpaceOnUse" gradientTransform="translate(37.1392 29.1994) scale(0.0283965 0.028924)">
<stop offset="0.3" stop-color="#A50A0A"/>
<stop offset="1" stop-color="#4C0505"/>
</radialGradient>
<radialGradient id="paint10_radial_1_61646" cx="0" cy="0" r="1" gradientUnits="userSpaceOnUse" gradientTransform="translate(37.1377 29.1931) scale(0.0277457 0.0296027)">
<stop stop-color="white"/>
<stop offset="1" stop-color="white" stop-opacity="0"/>
</radialGradient>
<clipPath id="clip0_1_61646">
<rect width="74.6667" height="56" fill="white" transform="translate(0 9.375)"/>
</clipPath>
</defs>
</svg>
