<svg width="75" height="75" viewBox="0 0 75 75" fill="none" xmlns="http://www.w3.org/2000/svg">
<rect width="74.6667" height="74.75" fill="white"/>
<g clip-path="url(#clip0_1_61501)">
<path fill-rule="evenodd" clip-rule="evenodd" d="M0 9.375H74.6667V65.375H0V9.375Z" fill="#BE0027"/>
<path fill-rule="evenodd" clip-rule="evenodd" d="M2.98666 12.56H71.7617V62.54H2.98666V12.56Z" fill="#3B5AA3"/>
<path fill-rule="evenodd" clip-rule="evenodd" d="M36.68 57.5817C36.8327 57.6546 36.9995 57.6934 37.1687 57.6954C37.3379 57.6974 37.5056 57.6626 37.66 57.5933C53.7367 49.0417 53.7367 25.5917 37.6717 17.1567C37.5117 17.0838 37.3373 17.0481 37.1615 17.0521C36.9857 17.0562 36.8132 17.0999 36.6567 17.18C20.9883 25.7433 20.9417 48.925 36.6683 57.5817H36.68Z" fill="#CBE0E5"/>
<path fill-rule="evenodd" clip-rule="evenodd" d="M36.68 58.0134C36.9133 58.2117 37.4267 58.1884 37.66 58.0134C49.5017 49.1467 49.56 43.6284 49.0467 43.6284H25.5967C25.2467 43.6284 25.8067 49.2517 36.68 58.0134Z" fill="#ADD2D9"/>
<path fill-rule="evenodd" clip-rule="evenodd" d="M27.4517 48.015C28.5242 47.6789 29.6829 47.7495 30.7067 48.2133C31.5933 48.68 32.1067 48.68 33.0633 48.68C34.0667 48.7033 34.8483 49.4383 35.9333 49.4733C37.9283 49.52 38.7683 50.5116 37.2167 50.5233C36.4933 50.5233 34.9183 50.0216 34.16 50.1266C32.5733 50.29 31.57 50.64 30.0767 52.3083L31.8033 53.475C33.2967 52.88 33.5417 52.1916 34.37 52.1683C35.3033 52.1333 35.6183 51.5616 36.7033 51.5616C37.9987 51.6698 39.3029 51.5434 40.5533 51.1883C42.28 50.7916 41.4633 49.5783 40.4133 49.1466C39.5617 48.785 37.9867 49.135 37.0067 48.7733C36.26 48.4816 36.8667 48.015 37.275 47.9216C37.6717 47.84 38.1033 47.98 38.605 48.0616C39.5033 48.1316 40.635 48.05 41.4167 47.9216C43.05 47.6766 42.98 47.1983 43.75 47.1866C44.3333 47.1516 44.765 46.9883 45.15 46.7083C45.6167 46.3933 46.095 45.775 46.655 45.7983L48.1367 45.8566L46.0367 50.57L40.1217 56.6016L37.0533 57.7683L30.31 53.37L26.915 48.155L27.4633 48.015H27.4517Z" fill="#FDF9A1"/>
<path fill-rule="evenodd" clip-rule="evenodd" d="M35.21 43.4416L48.7433 43.3716L48.9767 42.17C48.9767 42.17 48.4983 42.1 48.1017 42.0766C47.6233 42.0416 46.7833 42.59 46.235 42.5783C45.8267 42.5783 45.3833 41.8783 44.9867 41.8783C44.2867 41.8783 44.24 42.4966 43.5867 42.52C43.0617 42.4966 42.84 42.1 42.1517 42.1466C41.4517 42.1816 41.4983 42.5783 40.6 42.555C39.41 42.52 38.9317 41.4933 37.975 41.4816C36.3883 41.4583 36.3417 42.9983 35.1983 43.43L35.21 43.4416Z" fill="#179A3B"/>
<path fill-rule="evenodd" clip-rule="evenodd" d="M35.21 43.7217L49.14 43.6517V43.2783L34.8833 43.3483L35.1983 43.7217H35.21Z" fill="#FDF9A1"/>
<path fill-rule="evenodd" clip-rule="evenodd" d="M40.9267 47.91C41.1483 48.7266 41.37 49.0066 42.2333 49.2283C43.085 49.4266 44.3917 48.5983 43.5867 47.7933C42.8167 47.0466 42 46.86 41.3117 46.1833C39.8533 44.7483 37.66 41.225 37.66 38.74C37.66 36.605 37.45 32.23 37.45 28.0883C37.45 27.82 36.6333 28.835 36.6333 29.115C36.68 32.7666 36.68 35.5316 36.82 39.2183C37.0533 41.9133 38.3367 43.7333 39.4683 45.3666C39.97 46.16 40.705 47 40.9267 47.91Z" fill="#A79270"/>
<path d="M32.1427 36.634C32.1117 36.5391 32.0708 36.454 32.02 36.3787C31.9701 36.3026 31.9104 36.2377 31.8408 36.1841C31.7722 36.1305 31.6941 36.0896 31.6067 36.0613C31.5192 36.0331 31.4233 36.019 31.3189 36.019C31.1478 36.019 30.9921 36.0632 30.852 36.1516C30.7119 36.24 30.6004 36.3703 30.5177 36.5424C30.4349 36.7144 30.3936 36.9256 30.3936 37.1757C30.3936 37.4259 30.4354 37.637 30.5191 37.8091C30.6028 37.9812 30.7161 38.1114 30.8591 38.1998C31.002 38.2882 31.1628 38.3324 31.3415 38.3324C31.507 38.3324 31.6528 38.2971 31.7788 38.2266C31.9057 38.1551 32.0045 38.0545 32.075 37.9247C32.1465 37.794 32.1822 37.6403 32.1822 37.4635L32.2894 37.4861H31.4205V37.1757H32.5207V37.4861C32.5207 37.724 32.47 37.9309 32.3684 38.1067C32.2678 38.2826 32.1286 38.4189 31.9509 38.5158C31.7741 38.6117 31.5709 38.6597 31.3415 38.6597C31.0857 38.6597 30.8609 38.5995 30.6672 38.4791C30.4744 38.3587 30.324 38.1876 30.2158 37.9657C30.1086 37.7437 30.055 37.4804 30.055 37.1757C30.055 36.9472 30.0856 36.7417 30.1467 36.5593C30.2088 36.3759 30.2962 36.2198 30.4091 36.091C30.5219 35.9621 30.6555 35.8634 30.8097 35.7947C30.9639 35.7261 31.1336 35.6918 31.3189 35.6918C31.4713 35.6918 31.6133 35.7148 31.7449 35.7609C31.8775 35.806 31.9955 35.8704 32.099 35.9541C32.2034 36.0369 32.2903 36.1361 32.3599 36.2518C32.4295 36.3665 32.4775 36.4939 32.5038 36.634H32.1427Z" fill="#BD0728"/>
<path d="M32.1427 36.634L32.0247 36.6726L32.0527 36.7582H32.1427V36.634ZM32.02 36.3787L31.9161 36.4467L31.9171 36.4482L32.02 36.3787ZM31.8408 36.1841L31.7644 36.2819L31.7651 36.2824L31.8408 36.1841ZM31.6067 36.0613L31.6448 35.9432H31.6448L31.6067 36.0613ZM30.5177 36.5424L30.6296 36.5962L30.5177 36.5424ZM30.5191 37.8091L30.4075 37.8634L30.5191 37.8091ZM30.8591 38.1998L30.7938 38.3054L30.8591 38.1998ZM31.7788 38.2266L31.8394 38.3349L31.8397 38.3348L31.7788 38.2266ZM32.075 37.9247L31.9661 37.8652L31.9659 37.8655L32.075 37.9247ZM32.1822 37.4635L32.2078 37.342L32.0581 37.3105V37.4635H32.1822ZM32.2894 37.4861V37.6102L32.315 37.3646L32.2894 37.4861ZM31.4205 37.4861H31.2963V37.6102H31.4205V37.4861ZM31.4205 37.1757V37.0516H31.2963V37.1757H31.4205ZM32.5207 37.1757H32.6449V37.0516H32.5207V37.1757ZM32.3684 38.1067L32.2609 38.0446L32.2607 38.0451L32.3684 38.1067ZM31.9509 38.5158L32.0101 38.6249L32.0103 38.6248L31.9509 38.5158ZM30.6672 38.4791L30.6015 38.5844L30.6017 38.5846L30.6672 38.4791ZM30.2158 37.9657L30.104 38.0197L30.1042 38.02L30.2158 37.9657ZM30.1467 36.5593L30.0291 36.5195L30.029 36.5198L30.1467 36.5593ZM30.4091 36.091L30.5024 36.1728L30.4091 36.091ZM31.7449 35.7609L31.7039 35.878L31.7049 35.8784L31.7449 35.7609ZM32.099 35.9541L32.0209 36.0506L32.0219 36.0514L32.099 35.9541ZM32.3599 36.2518L32.2536 36.3158L32.2538 36.3161L32.3599 36.2518ZM32.5038 36.634V36.7582H32.6535L32.6258 36.6111L32.5038 36.634ZM32.2607 36.5955C32.2264 36.4907 32.1807 36.395 32.1229 36.3093L31.9171 36.4482C31.9608 36.513 31.9969 36.5875 32.0247 36.6726L32.2607 36.5955ZM32.1239 36.3108C32.0667 36.2234 31.9976 36.1481 31.9166 36.0857L31.7651 36.2824C31.8233 36.3272 31.8736 36.3817 31.9161 36.4467L32.1239 36.3108ZM31.9172 36.0862C31.8365 36.0232 31.7453 35.9756 31.6448 35.9432L31.5686 36.1795C31.6429 36.2035 31.7079 36.2377 31.7644 36.2819L31.9172 36.0862ZM31.6448 35.9432C31.5435 35.9105 31.4345 35.8949 31.3189 35.8949V36.1432C31.4121 36.1432 31.495 36.1557 31.5686 36.1795L31.6448 35.9432ZM31.3189 35.8949C31.1251 35.8949 30.9464 35.9453 30.7858 36.0466L30.9182 36.2566C31.0378 36.1811 31.1704 36.1432 31.3189 36.1432V35.8949ZM30.7858 36.0466C30.6231 36.1493 30.4971 36.2987 30.4058 36.4886L30.6296 36.5962C30.7038 36.4418 30.8007 36.3308 30.9182 36.2566L30.7858 36.0466ZM30.4058 36.4886C30.3129 36.6818 30.2694 36.9125 30.2694 37.1757H30.5177C30.5177 36.9387 30.557 36.7471 30.6296 36.5962L30.4058 36.4886ZM30.2694 37.1757C30.2694 37.4391 30.3134 37.67 30.4075 37.8634L30.6307 37.7548C30.5574 37.604 30.5177 37.4126 30.5177 37.1757H30.2694ZM30.4075 37.8634C30.5 38.0536 30.6282 38.203 30.7938 38.3054L30.9243 38.0942C30.8041 38.0199 30.7056 37.9088 30.6307 37.7548L30.4075 37.8634ZM30.7938 38.3054C30.9576 38.4067 31.1413 38.4565 31.3415 38.4565V38.2083C31.1843 38.2083 31.0464 38.1697 30.9243 38.0942L30.7938 38.3054ZM31.3415 38.4565C31.5251 38.4565 31.6923 38.4173 31.8394 38.3349L31.7181 38.1183C31.6132 38.177 31.4889 38.2083 31.3415 38.2083V38.4565ZM31.8397 38.3348C31.9872 38.2517 32.1026 38.134 32.1841 37.984L31.9659 37.8655C31.9064 37.975 31.8242 38.0586 31.7179 38.1184L31.8397 38.3348ZM32.1839 37.9843C32.2671 37.8322 32.3063 37.6572 32.3063 37.4635H32.0581C32.0581 37.6234 32.0259 37.7559 31.9661 37.8652L32.1839 37.9843ZM32.1566 37.585L32.2638 37.6075L32.315 37.3646L32.2078 37.342L32.1566 37.585ZM32.2894 37.3619H31.4205V37.6102H32.2894V37.3619ZM31.5446 37.4861V37.1757H31.2963V37.4861H31.5446ZM31.4205 37.2999H32.5207V37.0516H31.4205V37.2999ZM32.3966 37.1757V37.4861H32.6449V37.1757H32.3966ZM32.3966 37.4861C32.3966 37.7059 32.3498 37.8907 32.2609 38.0446L32.4759 38.1688C32.5901 37.9711 32.6449 37.742 32.6449 37.4861H32.3966ZM32.2607 38.0451C32.1714 38.201 32.049 38.3209 31.8915 38.4068L32.0103 38.6248C32.2082 38.5169 32.3641 38.3642 32.4761 38.1684L32.2607 38.0451ZM31.8917 38.4067C31.7355 38.4914 31.5532 38.5355 31.3415 38.5355V38.7838C31.5887 38.7838 31.8127 38.732 32.0101 38.6249L31.8917 38.4067ZM31.3415 38.5355C31.1059 38.5355 30.9045 38.4804 30.7327 38.3737L30.6017 38.5846C30.8174 38.7186 31.0654 38.7838 31.3415 38.7838V38.5355ZM30.733 38.3738C30.5616 38.2668 30.4263 38.1142 30.3274 37.9113L30.1042 38.02C30.2217 38.261 30.3872 38.4506 30.6015 38.5844L30.733 38.3738ZM30.3276 37.9117C30.2302 37.7101 30.1791 37.466 30.1791 37.1757H29.9309C29.9309 37.4948 29.987 37.7774 30.104 38.0197L30.3276 37.9117ZM30.1791 37.1757C30.1791 36.9582 30.2082 36.7663 30.2644 36.5987L30.029 36.5198C29.9629 36.7171 29.9309 36.9362 29.9309 37.1757H30.1791ZM30.2643 36.5991C30.3218 36.4291 30.4017 36.2878 30.5024 36.1728L30.3157 36.0092C30.1908 36.1518 30.0957 36.3227 30.0291 36.5195L30.2643 36.5991ZM30.5024 36.1728C30.6036 36.0572 30.7226 35.9694 30.8602 35.9081L30.7592 35.6813C30.5883 35.7574 30.4402 35.867 30.3157 36.0092L30.5024 36.1728ZM30.8602 35.9081C30.997 35.8472 31.1493 35.8159 31.3189 35.8159V35.5676C31.118 35.5676 30.9308 35.6049 30.7592 35.6813L30.8602 35.9081ZM31.3189 35.8159C31.4586 35.8159 31.5866 35.837 31.7039 35.878L31.7859 35.6437C31.6399 35.5926 31.4839 35.5676 31.3189 35.5676V35.8159ZM31.7049 35.8784C31.8244 35.9191 31.9294 35.9766 32.0209 36.0506L32.1771 35.8576C32.0617 35.7643 31.9306 35.693 31.7849 35.6434L31.7049 35.8784ZM32.0219 36.0514C32.1144 36.1248 32.1915 36.2127 32.2536 36.3158L32.4663 36.1878C32.3891 36.0595 32.2923 35.949 32.1761 35.8569L32.0219 36.0514ZM32.2538 36.3161C32.3152 36.4173 32.3581 36.5306 32.3818 36.657L32.6258 36.6111C32.5969 36.4573 32.5439 36.3157 32.4661 36.1874L32.2538 36.3161ZM32.5038 36.5099H32.1427V36.7582H32.5038V36.5099Z" fill="white"/>
<path d="M35.6325 35.7468H35.9824V37.6595C35.9824 37.857 35.9358 38.0334 35.8427 38.1885C35.7505 38.3427 35.6203 38.4645 35.452 38.5539C35.2836 38.6423 35.0862 38.6865 34.8595 38.6865C34.6329 38.6865 34.4354 38.6423 34.2671 38.5539C34.0987 38.4645 33.968 38.3427 33.8749 38.1885C33.7828 38.0334 33.7367 37.857 33.7367 37.6595V35.7468H34.0865V37.6313C34.0865 37.7724 34.1175 37.8979 34.1796 38.008C34.2417 38.117 34.3301 38.2031 34.4448 38.2661C34.5605 38.3282 34.6987 38.3592 34.8595 38.3592C35.0203 38.3592 35.1586 38.3282 35.2742 38.2661C35.3899 38.2031 35.4783 38.117 35.5394 38.008C35.6015 37.8979 35.6325 37.7724 35.6325 37.6313V35.7468Z" fill="#BD0728"/>
<path d="M35.6325 35.7468V35.6226H35.5084V35.7468H35.6325ZM35.9824 35.7468H36.1065V35.6226H35.9824V35.7468ZM35.8427 38.1885L35.7363 38.1247L35.7361 38.1248L35.8427 38.1885ZM35.452 38.5539L35.5097 38.6638L35.5102 38.6635L35.452 38.5539ZM34.2671 38.5539L34.2089 38.6635L34.2093 38.6638L34.2671 38.5539ZM33.8749 38.1885L33.7682 38.2519L33.7686 38.2527L33.8749 38.1885ZM33.7367 35.7468V35.6226H33.6125V35.7468H33.7367ZM34.0865 35.7468H34.2106V35.6226H34.0865V35.7468ZM34.1796 38.008L34.0715 38.069L34.0717 38.0693L34.1796 38.008ZM34.4448 38.2661L34.385 38.3749L34.3861 38.3755L34.4448 38.2661ZM35.2742 38.2661L35.3329 38.3755L35.3336 38.3751L35.2742 38.2661ZM35.5394 38.008L35.4313 37.947L35.4311 37.9473L35.5394 38.008ZM35.6325 35.8709H35.9824V35.6226H35.6325V35.8709ZM35.8582 35.7468V37.6595H36.1065V35.7468H35.8582ZM35.8582 37.6595C35.8582 37.8367 35.8167 37.9905 35.7363 38.1247L35.9491 38.2524C36.0549 38.0762 36.1065 37.8774 36.1065 37.6595H35.8582ZM35.7361 38.1248C35.6563 38.2584 35.5434 38.3648 35.3938 38.4442L35.5102 38.6635C35.6972 38.5642 35.8448 38.4271 35.9493 38.2522L35.7361 38.1248ZM35.3943 38.444C35.2468 38.5214 35.0699 38.5623 34.8595 38.5623V38.8106C35.1024 38.8106 35.3204 38.7631 35.5097 38.6638L35.3943 38.444ZM34.8595 38.5623C34.6491 38.5623 34.4722 38.5214 34.3248 38.444L34.2093 38.6638C34.3986 38.7631 34.6166 38.8106 34.8595 38.8106V38.5623ZM34.3253 38.4442C34.1756 38.3648 34.062 38.2582 33.9812 38.1244L33.7686 38.2527C33.874 38.4273 34.0219 38.5643 34.2089 38.6635L34.3253 38.4442ZM33.9816 38.1251C33.9019 37.9909 33.8608 37.8369 33.8608 37.6595H33.6125C33.6125 37.8772 33.6636 38.0758 33.7682 38.2519L33.9816 38.1251ZM33.8608 37.6595V35.7468H33.6125V37.6595H33.8608ZM33.7367 35.8709H34.0865V35.6226H33.7367V35.8709ZM33.9624 35.7468V37.6313H34.2106V35.7468H33.9624ZM33.9624 37.6313C33.9624 37.7912 33.9977 37.9382 34.0715 38.069L34.2877 37.947C34.2373 37.8577 34.2106 37.7536 34.2106 37.6313H33.9624ZM34.0717 38.0693C34.1456 38.1993 34.2511 38.3013 34.385 38.3749L34.5045 38.1573C34.409 38.1048 34.3377 38.0348 34.2875 37.9466L34.0717 38.0693ZM34.3861 38.3755C34.5234 38.4492 34.6828 38.4833 34.8595 38.4833V38.2351C34.7146 38.2351 34.5975 38.2072 34.5035 38.1567L34.3861 38.3755ZM34.8595 38.4833C35.0362 38.4833 35.1956 38.4492 35.3329 38.3755L35.2155 38.1567C35.1215 38.2072 35.0044 38.2351 34.8595 38.2351V38.4833ZM35.3336 38.3751C35.4687 38.3015 35.5745 38.1992 35.6477 38.0686L35.4311 37.9473C35.3821 38.0349 35.3111 38.1046 35.2149 38.1571L35.3336 38.3751ZM35.6475 38.069C35.7213 37.9382 35.7567 37.7912 35.7567 37.6313H35.5084C35.5084 37.7536 35.4817 37.8577 35.4313 37.947L35.6475 38.069ZM35.7567 37.6313V35.7468H35.5084V37.6313H35.7567Z" fill="white"/>
<path d="M38.1843 38.6357H37.8176L38.8783 35.7468H39.2395L40.3002 38.6357H39.9335L39.0702 36.2038H39.0476L38.1843 38.6357ZM38.3197 37.5072H39.7981V37.8175H38.3197V37.5072Z" fill="#BD0728"/>
<path d="M38.1843 38.6357V38.7598H38.272L38.3013 38.6772L38.1843 38.6357ZM37.8176 38.6357L37.701 38.5929L37.6397 38.7598H37.8176V38.6357ZM38.8783 35.7468V35.6226H38.7917L38.7618 35.704L38.8783 35.7468ZM39.2395 35.7468L39.356 35.704L39.3261 35.6226H39.2395V35.7468ZM40.3002 38.6357V38.7598H40.4781L40.4168 38.5929L40.3002 38.6357ZM39.9335 38.6357L39.8165 38.6772L39.8458 38.7598H39.9335V38.6357ZM39.0702 36.2038L39.1872 36.1623L39.1578 36.0797H39.0702V36.2038ZM39.0476 36.2038V36.0797H38.96L38.9306 36.1623L39.0476 36.2038ZM38.3197 37.5072V37.3831H38.1956V37.5072H38.3197ZM39.7981 37.5072H39.9222V37.3831H39.7981V37.5072ZM39.7981 37.8175V37.9417H39.9222V37.8175H39.7981ZM38.3197 37.8175H38.1956V37.9417H38.3197V37.8175ZM38.1843 38.5115H37.8176V38.7598H38.1843V38.5115ZM37.9341 38.6785L38.9949 35.7895L38.7618 35.704L37.701 38.5929L37.9341 38.6785ZM38.8783 35.8709H39.2395V35.6226H38.8783V35.8709ZM39.1229 35.7895L40.1837 38.6785L40.4168 38.5929L39.356 35.704L39.1229 35.7895ZM40.3002 38.5115H39.9335V38.7598H40.3002V38.5115ZM40.0505 38.5942L39.1872 36.1623L38.9532 36.2453L39.8165 38.6772L40.0505 38.5942ZM39.0702 36.0797H39.0476V36.3279H39.0702V36.0797ZM38.9306 36.1623L38.0673 38.5942L38.3013 38.6772L39.1646 36.2453L38.9306 36.1623ZM38.3197 37.6313H39.7981V37.3831H38.3197V37.6313ZM39.6739 37.5072V37.8175H39.9222V37.5072H39.6739ZM39.7981 37.6934H38.3197V37.9417H39.7981V37.6934ZM38.4439 37.8175V37.5072H38.1956V37.8175H38.4439Z" fill="white"/>
<path d="M41.7123 35.7313H42.1298L43.1116 38.1293H43.1454L44.1272 35.7313H44.5448V38.6202H44.2175V36.4253H44.1893L43.2865 38.6202H42.9705L42.0677 36.4253H42.0395V38.6202H41.7123V35.7313Z" fill="#BD0728"/>
<path d="M41.7123 35.7313V35.6071H41.5881V35.7313H41.7123ZM42.1298 35.7313L42.2447 35.6842L42.2131 35.6071H42.1298V35.7313ZM43.1116 38.1293L42.9967 38.1763L43.0283 38.2534H43.1116V38.1293ZM43.1454 38.1293V38.2534H43.2287L43.2603 38.1763L43.1454 38.1293ZM44.1272 35.7313V35.6071H44.0439L44.0123 35.6842L44.1272 35.7313ZM44.5448 35.7313H44.6689V35.6071H44.5448V35.7313ZM44.5448 38.6202V38.7443H44.6689V38.6202H44.5448ZM44.2175 38.6202H44.0934V38.7443H44.2175V38.6202ZM44.2175 36.4253H44.3416V36.3011H44.2175V36.4253ZM44.1893 36.4253V36.3011H44.1061L44.0745 36.3781L44.1893 36.4253ZM43.2865 38.6202V38.7443H43.3697L43.4013 38.6674L43.2865 38.6202ZM42.9705 38.6202L42.8557 38.6674L42.8874 38.7443H42.9705V38.6202ZM42.0677 36.4253L42.1825 36.3781L42.1509 36.3011H42.0677V36.4253ZM42.0395 36.4253V36.3011H41.9154V36.4253H42.0395ZM42.0395 38.6202V38.7443H42.1637V38.6202H42.0395ZM41.7123 38.6202H41.5881V38.7443H41.7123V38.6202ZM41.7123 35.8554H42.1298V35.6071H41.7123V35.8554ZM42.0149 35.7783L42.9967 38.1763L43.2265 38.0823L42.2447 35.6842L42.0149 35.7783ZM43.1116 38.2534H43.1454V38.0052H43.1116V38.2534ZM43.2603 38.1763L44.2421 35.7783L44.0123 35.6842L43.0306 38.0823L43.2603 38.1763ZM44.1272 35.8554H44.5448V35.6071H44.1272V35.8554ZM44.4206 35.7313V38.6202H44.6689V35.7313H44.4206ZM44.5448 38.496H44.2175V38.7443H44.5448V38.496ZM44.3416 38.6202V36.4253H44.0934V38.6202H44.3416ZM44.2175 36.3011H44.1893V36.5494H44.2175V36.3011ZM44.0745 36.3781L43.1717 38.573L43.4013 38.6674L44.3041 36.4725L44.0745 36.3781ZM43.2865 38.496H42.9705V38.7443H43.2865V38.496ZM43.0853 38.573L42.1825 36.3781L41.9529 36.4725L42.8557 38.6674L43.0853 38.573ZM42.0677 36.3011H42.0395V36.5494H42.0677V36.3011ZM41.9154 36.4253V38.6202H42.1637V36.4253H41.9154ZM42.0395 38.496H41.7123V38.7443H42.0395V38.496ZM41.8364 38.6202V35.7313H41.5881V38.6202H41.8364Z" fill="white"/>
<path fill-rule="evenodd" clip-rule="evenodd" d="M30.2867 28.1466C30.1117 28.4966 30.7067 28.0416 30.8467 27.995C31.6284 27.715 31.9317 26.735 33.2734 27.33C34.3234 27.785 35.735 27.5166 35 27.9833C34.09 28.5316 32.2584 29.1383 32.2234 31.8566C32.375 32.1133 32.3867 32.0783 32.515 31.7866C32.795 31.1566 34.1134 29.4416 34.7667 29.5816C35.035 29.6516 35.805 28.8 35.8167 29.045C35.8984 29.7216 34.7667 31.0983 34.79 32.93C34.79 33.3616 35.315 33.5016 35.56 33.1983C35.8167 32.93 35.9567 32.6616 36.4 32.3116C37.17 31.6816 36.96 28.975 37.0534 29.1033C37.6017 29.8033 37.6834 31.8216 38.5 32.6383C39.1884 33.3266 39.7367 32.9883 39.585 32.055C39.2934 30.1416 38.395 30.69 37.9634 28.7183C37.87 28.3333 37.8467 27.995 38.36 28.1466C38.9784 28.3333 39.3517 28.6133 39.8067 29.3133C40.2734 29.99 41.1367 30.6316 41.6384 31.0166C42.5134 31.6933 42.8284 31.11 42.4084 30.2466C41.875 29.2661 41.0047 28.5119 39.9584 28.1233C39.235 27.8666 38.9784 27.8433 38.3484 27.7266C38.1734 27.6916 37.9984 27.33 38.3017 27.1316C38.9765 26.6451 39.7628 26.3362 40.5884 26.2333C41.37 26.21 41.9884 26.84 42.5367 27.0033C43.6334 27.2833 43.6334 26.595 43.1434 26.07C42.7467 25.6383 41.9067 24.9033 41.125 25.0083C39.55 25.2066 39.655 25.16 38.675 25.8016C38.325 26.0116 37.9284 26.245 38.08 25.9883C38.43 25.3466 38.1034 25.4633 38.6517 24.81C39.0717 24.3433 39.3867 23.9933 39.8184 23.8766C40.215 23.7716 40.7517 23.3516 40.9034 23.13C41.3 22.5933 40.9617 22.2783 40.355 22.465C39.8184 22.605 39.5384 22.955 39.1884 23.0483C38.325 23.3283 37.6367 25.265 37.5317 25.545C37.4034 25.8716 37.2517 25.7083 37.275 25.4283C37.3917 24.0633 37.5084 21.7533 37.0417 20.8083C36.295 19.4083 36.365 20.0616 36.085 20.7266C35.665 21.7766 35.8167 22.7683 36.085 23.795C36.2017 24.3083 36.6217 24.8916 36.7034 25.3C36.7617 25.615 36.5167 25.2066 36.3767 25.0083C35.9217 24.3083 35.5834 23.8416 34.8367 23.4566C34.0909 23.1498 33.2715 23.0687 32.48 23.2233C32.27 23.2933 32.7134 23.5966 32.8884 23.7366C33.39 24.1333 34.335 24.2616 34.9884 24.6583C35.525 24.9966 35.945 25.2066 36.1317 25.6733C36.2017 26.0233 36.3184 26.5366 36.085 26.525C35.49 26.49 34.5684 25.965 32.655 26.175C31.675 26.315 30.835 27.1433 30.2867 28.1466Z" fill="#239E46"/>
<path fill-rule="evenodd" clip-rule="evenodd" d="M34.4517 45.6117H35V46.5334H34.4517V45.6117Z" fill="black"/>
<path fill-rule="evenodd" clip-rule="evenodd" d="M31.6983 39.4633C33.8917 42.4967 37.415 44.27 37.485 45.6467H30.625C32.2 43.7567 33.1683 42.4733 31.6983 39.4633Z" fill="#FDF9FF"/>
<path fill-rule="evenodd" clip-rule="evenodd" d="M29.7033 45.7167C32.69 46.3817 36.2483 46.755 38.5233 45.6234C38.5467 46.2884 37.7883 47.2567 37.1583 47.2567H31.4417C32.1067 47.1517 32.4917 46.9534 33.565 46.9067L30.5317 46.93C30.1817 46.9417 29.5983 46.0434 29.7033 45.7167Z" fill="#A68861"/>
<path fill-rule="evenodd" clip-rule="evenodd" d="M36.47 58.9583C36.7733 59.1333 37.2517 59.1216 37.52 58.9816C54.7633 49.8 54.775 24.635 37.5433 15.5816C37.3708 15.5018 37.1824 15.4624 36.9923 15.4664C36.8023 15.4705 36.6156 15.5178 36.4467 15.605C19.6467 24.7983 19.6 49.6716 36.47 58.97V58.9583ZM36.5517 56.8933C36.6966 56.9646 36.8556 57.0026 37.017 57.0046C37.1785 57.0067 37.3384 56.9726 37.485 56.905C51.905 48.4116 52.08 25.9766 37.4967 17.9383C37.2167 17.7283 36.8083 17.7983 36.5283 17.9383C22.715 26.1166 21.945 47.63 36.5517 56.8933Z" fill="#BE0027"/>
<path d="M31.3542 35.6753C31.6231 35.6753 31.8559 35.727 32.0524 35.8305C32.3317 35.9753 32.5024 36.2339 32.5645 36.6063H32.1921C32.1403 36.3994 32.0369 36.2442 31.8817 36.1408C31.7473 36.0477 31.5662 36.0011 31.3386 36.0011C31.08 36.0011 30.8576 36.1046 30.6714 36.3115C30.4956 36.508 30.4076 36.8028 30.4076 37.1959C30.4076 37.5269 30.4801 37.8011 30.6249 38.0183C30.78 38.2252 31.0231 38.3286 31.3542 38.3286C31.6128 38.3286 31.8248 38.2562 31.9903 38.1114C32.1662 37.9666 32.2541 37.7235 32.2541 37.3821H31.3697V37.0718H32.611V38.5924H32.3627L32.2696 38.22C32.1455 38.3649 32.0317 38.4683 31.9283 38.5304C31.7524 38.6235 31.5352 38.67 31.2766 38.67C30.9456 38.67 30.6559 38.5614 30.4076 38.3442C30.1387 38.0649 30.0042 37.6873 30.0042 37.2114C30.0042 36.7356 30.1335 36.358 30.3921 36.0787C30.6404 35.8098 30.9611 35.6753 31.3542 35.6753Z" fill="#BD0728"/>
<path d="M34.1161 35.7529V37.5218C34.1161 37.7287 34.1523 37.8993 34.2248 38.0338C34.3385 38.2407 34.5351 38.3442 34.8144 38.3442C35.1351 38.3442 35.3575 38.2355 35.4816 38.0183C35.5437 37.8942 35.5747 37.7287 35.5747 37.5218V35.7529H35.9626V37.3666C35.9626 37.708 35.9109 37.9769 35.8075 38.1735C35.6419 38.5148 35.3213 38.6855 34.8454 38.6855C34.3592 38.6855 34.0282 38.5148 33.8524 38.1735C33.7593 37.9769 33.7127 37.708 33.7127 37.3666V35.7529H34.1161Z" fill="#BD0728"/>
<path d="M39.4849 37.4287L39.0504 36.1873L38.5849 37.4287H39.4849ZM38.8487 35.7529H39.2832L40.3228 38.6079H39.8883L39.609 37.7545H38.4763L38.166 38.6079H37.7781L38.8487 35.7529Z" fill="#BD0728"/>
<path d="M41.6572 35.7374H42.2158L43.0227 38.158L43.8451 35.7374H44.3882V38.5924H44.0158V36.1873L43.2089 38.5924H42.8365L42.0141 36.1873V38.5924H41.6572V35.7374Z" fill="#BD0728"/>
</g>
<defs>
<clipPath id="clip0_1_61501">
<rect width="74.6667" height="56" fill="white" transform="translate(0 9.375)"/>
</clipPath>
</defs>
</svg>
