<svg width="75" height="75" viewBox="0 0 75 75" fill="none" xmlns="http://www.w3.org/2000/svg">
<rect width="75" height="75" fill="white"/>
<g clip-path="url(#clip0_1_61654)">
<path d="M0 9.375H25.7812V65.625H0V9.375Z" fill="#CE1126"/>
<path d="M25.7812 9.375H75V37.5H25.7812V9.375Z" fill="#FCD116"/>
<path d="M25.7812 37.5H75V65.625H25.7812V37.5Z" fill="#009E49"/>
<path d="M12.8907 28.125L9.99377 37.0406L14.4516 38.4891" fill="black"/>
<path d="M12.8906 28.125L15.7875 37.0406L11.3297 38.4891" fill="black"/>
<path d="M21.8063 34.6031H12.4313V39.2906" fill="black"/>
<path d="M21.8063 34.6031L14.2219 40.1132L11.4668 36.3211" fill="black"/>
<path d="M18.4008 45.0844L15.5039 36.1688L11.0461 37.6172" fill="black"/>
<path d="M18.4008 45.0844L10.8164 39.5742L13.5715 35.782" fill="black"/>
<path d="M7.38049 45.0844L14.9649 39.5742L12.2098 35.782" fill="black"/>
<path d="M7.38049 45.0844L10.2774 36.1688L14.7352 37.6172" fill="black"/>
<path d="M3.97498 34.6031L11.5594 40.1132L14.3144 36.3211" fill="black"/>
<path d="M3.97498 34.6031H13.35V39.2906" fill="black"/>
</g>
<defs>
<clipPath id="clip0_1_61654">
<rect width="75" height="56.25" fill="white" transform="translate(0 9.375)"/>
</clipPath>
</defs>
</svg>
