<svg width="75" height="75" viewBox="0 0 75 75" fill="none" xmlns="http://www.w3.org/2000/svg">
<rect width="74.6667" height="74.75" fill="white"/>
<g clip-path="url(#clip0_1_63868)">
<path fill-rule="evenodd" clip-rule="evenodd" d="M0.28009 9.375H74.6668V65.375H0.28009V9.375Z" fill="#399408"/>
<path fill-rule="evenodd" clip-rule="evenodd" d="M0.0233333 9.375C-0.0816667 9.375 72.31 37.55 72.31 37.55L0 65.3517L0.0233333 9.375Z" fill="white"/>
<path fill-rule="evenodd" clip-rule="evenodd" d="M0.0350952 11.7317C0.431762 11.7317 65.2518 37.1534 64.8901 37.3984L0.221762 63.415L0.0350952 11.7434V11.7317Z" fill="#FFDE08"/>
<path fill-rule="evenodd" clip-rule="evenodd" d="M0.22175 9.46838C0.43175 9.46838 34.1601 37.5734 34.1601 37.5734L0.210083 65.0251V9.46838H0.22175Z" fill="black"/>
<path fill-rule="evenodd" clip-rule="evenodd" d="M0.0351042 13.3299C0.221771 11.5799 30.4734 37.6433 30.4734 37.6433L0.0234375 62.0733V13.3299H0.0351042Z" fill="#DE2110"/>
</g>
<defs>
<clipPath id="clip0_1_63868">
<rect width="74.6667" height="56" fill="white" transform="translate(0 9.375)"/>
</clipPath>
</defs>
</svg>
