<svg width="75" height="75" viewBox="0 0 75 75" fill="none" xmlns="http://www.w3.org/2000/svg">
<rect width="74.6667" height="74.75" fill="white"/>
<g clip-path="url(#clip0_1_63862)">
<path fill-rule="evenodd" clip-rule="evenodd" d="M77.5157 65.5243H-2.69452V9.375H77.5157V65.5243Z" fill="#BA0000"/>
<path fill-rule="evenodd" clip-rule="evenodd" d="M36.2701 36.5504C36.2701 36.5504 30.6113 34.1158 31.4228 27.799C32.2015 24.7612 33.5942 22.6885 36.1056 21.5589C37.29 21.197 38.4963 21.0325 39.7246 20.9338C39.3956 21.2409 39.1324 21.548 38.9898 21.9208C38.7266 22.6227 38.924 23.2807 39.2859 23.9497C39.7356 24.7173 40.0097 25.5069 40.0975 26.5378C40.1799 27.2403 40.0752 27.9521 39.794 28.6011C39.5128 29.2501 39.0652 29.8132 38.4963 30.2336C37.7725 30.7929 36.9171 30.9903 36.2153 31.6263C35.6669 32.1527 35.3379 32.6901 35.2283 33.6113C35.2063 35.3769 35.6779 35.6292 36.2701 36.5504Z" fill="white"/>
<path fill-rule="evenodd" clip-rule="evenodd" d="M35.1844 27.4152V27.3823V27.4152Z" fill="#BA0000"/>
<path d="M35.1844 27.4152V27.3823" stroke="black" stroke-width="0.2303"/>
<path d="M35.5463 35.8924C33.353 33.9513 33.5394 29.0492 35.2173 27.4152" stroke="#BA0000" stroke-width="0.2303"/>
<path fill-rule="evenodd" clip-rule="evenodd" d="M36.5662 26.3186L36.9281 26.9217L36.2701 26.6476L35.7547 27.1959L35.8424 26.4831L35.1844 26.2089L35.8972 26.0444L35.985 25.3425L36.3469 25.9457L37.0707 25.7812" fill="#BA0000"/>
<path fill-rule="evenodd" clip-rule="evenodd" d="M36.7526 36.1337C36.7526 36.1337 37.4106 30.0033 43.6945 28.9286C46.831 28.797 49.2217 29.5098 51.0422 31.5935C51.7331 32.6134 52.2376 33.721 52.6872 34.8616C52.3034 34.6422 51.9415 34.4777 51.5247 34.4558C50.79 34.401 50.2087 34.7848 49.6823 35.3222C49.0676 36.0026 48.3012 36.5286 47.4451 36.8575C46.7984 37.1434 46.0876 37.2535 45.3847 37.1764C44.6818 37.0994 44.0117 36.8381 43.4423 36.4188C42.6966 35.8815 42.2579 35.1248 41.4464 34.6422C40.7868 34.2502 40.0051 34.1173 39.253 34.2694C37.5532 34.7738 37.4655 35.3002 36.7526 36.1337Z" fill="white"/>
<path fill-rule="evenodd" clip-rule="evenodd" d="M45.1641 32.4269H45.197H45.1641Z" fill="#BA0000"/>
<path d="M45.1641 32.4269H45.197" stroke="black" stroke-width="0.2303"/>
<path d="M37.1584 35.2563C38.3867 32.5805 43.1243 31.3303 45.175 32.4489" stroke="#BA0000" stroke-width="0.2303"/>
<path fill-rule="evenodd" clip-rule="evenodd" d="M46.6227 33.4249L46.1511 33.9403L46.2169 33.2275L45.5589 32.8985L46.2498 32.7888L46.3156 32.0541L46.6885 32.7121L47.3903 32.5805L46.9188 33.0959L47.2807 33.7539" fill="#BA0000"/>
<path fill-rule="evenodd" clip-rule="evenodd" d="M37.1694 36.5723C37.1694 36.5723 43.201 35.2563 46.2059 40.8822C47.3355 43.8103 47.4122 46.2997 46.0195 48.6795C45.2737 49.6665 44.3745 50.489 43.4423 51.2896C43.53 50.8509 43.5629 50.4561 43.4533 50.0613C43.2778 49.3375 42.7295 48.9098 42.0495 48.5808C41.2059 48.2118 40.4617 47.6481 39.8781 46.9358C39.405 46.4132 39.0779 45.7752 38.9296 45.086C38.7814 44.3967 38.8173 43.6806 39.0337 43.0097C39.2969 42.1324 39.8781 41.4744 40.0755 40.5532C40.2397 39.8053 40.1184 39.023 39.7356 38.3599C38.7157 36.9123 38.1893 36.989 37.1694 36.5723Z" fill="white"/>
<path fill-rule="evenodd" clip-rule="evenodd" d="M43.3546 43.3827L43.3765 43.4046L43.3546 43.3827Z" fill="#BA0000"/>
<path d="M43.3546 43.3827L43.3765 43.4046" stroke="black" stroke-width="0.2303"/>
<path d="M38.1454 36.682C41.0625 37 43.7494 41.0906 43.3436 43.4046" stroke="#BA0000" stroke-width="0.2303"/>
<path fill-rule="evenodd" clip-rule="evenodd" d="M42.872 45.0825L42.225 44.7973L42.9378 44.6328L43.0255 43.8981L43.3655 44.5232L44.0783 44.3587L43.5848 44.907L43.9138 45.5321L43.2778 45.247L42.7843 45.8063" fill="#BA0000"/>
<path fill-rule="evenodd" clip-rule="evenodd" d="M37.0378 37.1975C37.0378 37.1975 39.9878 42.615 35.4476 47.0675C32.9472 48.9757 30.5784 49.7543 27.9025 49.0854C26.751 48.6467 25.7092 48.0216 24.6674 47.3417C25.106 47.3088 25.5118 47.232 25.8627 47.0127C26.4988 46.6398 26.751 45.9928 26.8826 45.258C26.9968 44.3417 27.3276 43.4657 27.8477 42.7028C28.2157 42.1007 28.7359 41.6063 29.3558 41.2694C29.9758 40.9324 30.6736 40.7649 31.379 40.7836C32.3002 40.7946 33.0898 41.1784 34.0329 41.1126C34.7896 41.0139 35.3818 40.8055 36.0508 40.1475C37.1474 38.7767 36.9281 38.2832 37.0378 37.1865V37.1975Z" fill="white"/>
<path fill-rule="evenodd" clip-rule="evenodd" d="M32.2344 45.0496L32.2234 45.0715L32.2344 45.0496Z" fill="#BA0000"/>
<path d="M32.2344 45.0496L32.2234 45.0715" stroke="black" stroke-width="0.2303"/>
<path d="M37.1913 38.1515C37.7286 41.0467 34.5483 44.7863 32.2124 45.0276" stroke="#BA0000" stroke-width="0.2303"/>
<path fill-rule="evenodd" clip-rule="evenodd" d="M30.4688 45.0605L30.5675 44.3586L30.9294 44.9837L31.6532 44.8741L31.1487 45.3785L31.5106 46.0036L30.8416 45.6856L30.3372 46.1901L30.4249 45.4882L29.7559 45.1702" fill="#BA0000"/>
<path fill-rule="evenodd" clip-rule="evenodd" d="M36.3688 37.0769C36.3688 37.0769 32.2453 41.6609 26.5207 38.8754C23.8887 37.1536 22.3753 35.1687 22.1231 32.427C22.156 31.1878 22.3863 30.0034 22.6824 28.808C22.8688 29.2028 23.0772 29.5537 23.3952 29.8169C23.9545 30.2885 24.6564 30.3104 25.4021 30.1898C26.2972 29.9938 27.2264 30.0163 28.1109 30.2556C28.8035 30.4014 29.4452 30.7277 29.971 31.2015C30.4968 31.6753 30.8879 32.2797 31.1048 32.9534C31.4009 33.8198 31.3022 34.6971 31.686 35.5635C32.015 36.2434 32.4098 36.7259 33.2543 37.1427C34.9212 37.7239 35.305 37.351 36.3688 37.0878V37.0769Z" fill="white"/>
<path fill-rule="evenodd" clip-rule="evenodd" d="M27.3652 35.1686L27.3433 35.1576L27.3652 35.1686Z" fill="#BA0000"/>
<path d="M27.3652 35.1686L27.3433 35.1576" stroke="black" stroke-width="0.2303"/>
<path d="M35.5134 37.5484C32.9692 39.007 28.3851 37.2523 27.3762 35.1357" stroke="#BA0000" stroke-width="0.2303"/>
<path fill-rule="evenodd" clip-rule="evenodd" d="M26.773 33.5016L27.4639 33.3591L26.9923 33.9074L27.3323 34.5544L26.6962 34.2474L26.2246 34.7957L26.3014 34.05L25.6544 33.7429L26.3453 33.6003L26.422 32.8546" fill="#BA0000"/>
</g>
<defs>
<clipPath id="clip0_1_63862">
<rect width="74.6667" height="56" fill="white" transform="translate(0 9.375)"/>
</clipPath>
</defs>
</svg>
