<svg width="75" height="75" viewBox="0 0 75 75" fill="none" xmlns="http://www.w3.org/2000/svg">
<rect width="74.6667" height="74.75" fill="white"/>
<g clip-path="url(#clip0_1_64149)">
<path d="M0 9.375H74.6667V65.375H0V9.375Z" fill="#00008B"/>
<path d="M4.375 9.375L18.6083 19.9333L32.7833 9.375H37.3333V12.9917L23.3333 23.4333L37.3333 33.8167V37.375H32.6667L18.6667 26.9333L4.725 37.375H0V33.875L13.9417 23.4917L0 13.1083V9.375H4.375Z" fill="white"/>
<path d="M24.7333 25.7667L37.3333 35.0417V37.375L21.525 25.7667H24.7333ZM14 26.9333L14.35 28.975L3.15 37.375H0L14 26.9333ZM37.3333 9.375V9.55L22.8083 20.5167L22.925 17.95L34.4167 9.375H37.3333ZM0 9.375L13.9417 19.6417H10.4417L0 11.825V9.375Z" fill="#FF0000"/>
<path d="M14.0583 9.375V37.375H23.3917V9.375H14.0583ZM0 18.7083V28.0417H37.3333V18.7083H0Z" fill="white"/>
<path d="M0 20.6333V26.2333H37.3333V20.6333H0ZM15.925 9.375V37.375H21.525V9.375H15.925Z" fill="#FF0000"/>
<path d="M61.4833 55.6567L59.0916 55.96L59.3483 58.3516L57.6216 56.6716L55.9066 58.3633L56.1399 55.9716L53.7483 55.6916L55.7666 54.385L54.4949 52.3433L56.7816 53.1016L57.5866 50.8266L58.4149 53.09L60.6899 52.3083L59.4416 54.3616L61.4716 55.6567H61.4833ZM61.0516 41.9833L61.3666 40.4666L60.2233 39.4166L61.7633 39.2416L62.4049 37.83L63.0466 39.2416L64.5866 39.4166L63.4433 40.4666L63.7583 41.9833L62.4049 41.2133L61.0516 41.9833ZM48.9066 34.9833L46.5383 35.24L46.7483 37.6083L45.0683 35.9166L43.3416 37.5616L43.6216 35.1933L41.2649 34.8783L43.2833 33.6183L42.0583 31.5766L44.3099 32.37L45.1499 30.1416L45.9316 32.3933L48.1949 31.6583L46.9233 33.6766L48.9183 34.9833H48.9066ZM72.6833 31.1566L70.2449 31.4716L70.5133 33.91L68.7516 32.195L67.0016 33.9216L67.2466 31.4716L64.8083 31.1916L66.8733 29.85L65.5783 27.7616L67.9116 28.5433L68.7283 26.2333L69.5683 28.5433L71.8899 27.7383L70.6066 29.8383L72.6833 31.1566ZM61.4716 21.415L59.0566 21.6833L59.2783 24.11L57.5633 22.3833L55.8016 24.0633L56.0816 21.6483L53.6666 21.3216L55.7316 20.0383L54.4833 17.95L56.7816 18.755L57.6333 16.48L58.4266 18.7783L60.7366 18.02L59.4416 20.0733L61.4716 21.415ZM27.2999 54.3733L21.9566 55.0033L22.4933 60.3583L18.6666 56.5783L14.8166 60.335L15.3883 54.98L10.0449 54.3033L14.5833 51.41L11.7833 46.8133L16.8699 48.5633L18.7133 43.5L20.5216 48.575L25.6199 46.86L22.7849 51.4333L27.3116 54.3616L27.2999 54.3733Z" fill="white"/>
</g>
<defs>
<clipPath id="clip0_1_64149">
<rect width="74.6667" height="56" fill="white" transform="translate(0 9.375)"/>
</clipPath>
</defs>
</svg>
