<svg width="75" height="75" viewBox="0 0 75 75" fill="none" xmlns="http://www.w3.org/2000/svg">
<rect width="75" height="75" fill="white"/>
<g clip-path="url(#clip0_1_63877)">
<path d="M0 9.375H75V65.625H0V9.375Z" fill="#18C3DF"/>
<path d="M0 28.125H75V46.875H0V28.125Z" fill="white"/>
<path d="M36.5625 37.5L38.1246 37.8128L37.5 34.3757L36.5625 37.5011V37.5Z" fill="#18C3DF"/>
<path d="M38.4375 37.5L36.8754 37.8128L37.5 34.3757L38.4375 37.5011V37.5Z" fill="#18C3DF"/>
<path d="M37.2105 36.6082L37.3957 38.1902L40.4719 36.5332L37.2105 36.607V36.6082Z" fill="#18C3DF"/>
<path d="M37.7894 38.3918L37.009 37.002L40.4719 36.5344L37.7894 38.3918Z" fill="#18C3DF"/>
<path d="M37.2106 38.3918L37.991 37.002L34.5281 36.5344L37.2106 38.3918Z" fill="#18C3DF"/>
<path d="M37.7895 36.6082L37.6043 38.1902L34.5281 36.5332L37.7895 36.607V36.6082Z" fill="#18C3DF"/>
<path d="M38.2582 36.9492L36.8109 37.6148L39.3375 40.0289L38.2594 36.9492H38.2582Z" fill="#18C3DF"/>
<path d="M36.7418 38.0508L37.8223 36.8801L39.3375 40.029L36.7418 38.052V38.0508Z" fill="#18C3DF"/>
<path d="M38.2582 38.0508L37.1777 36.8801L35.6625 40.029L38.2582 38.052V38.0508Z" fill="#18C3DF"/>
<path d="M36.7418 36.9492L38.1891 37.6148L35.6625 40.0289L36.7406 36.9492H36.7418Z" fill="#18C3DF"/>
<path d="M52.1836 32.496L53.7457 32.8089L53.1211 29.3718L52.1836 32.4972V32.496Z" fill="#18C3DF"/>
<path d="M54.0586 32.496L52.4965 32.8089L53.1211 29.3718L54.0586 32.4972V32.496Z" fill="#18C3DF"/>
<path d="M52.8316 31.6043L53.0168 33.1863L56.093 31.5293L52.8316 31.6031V31.6043Z" fill="#18C3DF"/>
<path d="M53.4105 33.3879L52.6301 31.9981L56.093 31.5305L53.4105 33.3879Z" fill="#18C3DF"/>
<path d="M52.8317 33.3879L53.6121 31.9981L50.1492 31.5305L52.8317 33.3879Z" fill="#18C3DF"/>
<path d="M53.4106 31.6043L53.2254 33.1863L50.1492 31.5293L53.4106 31.6031V31.6043Z" fill="#18C3DF"/>
<path d="M53.8793 31.9453L52.432 32.6109L54.9586 35.025L53.8805 31.9453H53.8793Z" fill="#18C3DF"/>
<path d="M52.3629 33.0469L53.4434 31.8762L54.9586 35.0251L52.3629 33.0481V33.0469Z" fill="#18C3DF"/>
<path d="M53.8793 33.0469L52.7988 31.8762L51.2836 35.0251L53.8793 33.0481V33.0469Z" fill="#18C3DF"/>
<path d="M52.3629 31.9453L53.8102 32.6109L51.2836 35.025L52.3617 31.9453H52.3629Z" fill="#18C3DF"/>
<path d="M52.1836 41.871L53.7457 42.1839L53.1211 38.7468L52.1836 41.8722V41.871Z" fill="#18C3DF"/>
<path d="M54.0586 41.871L52.4965 42.1839L53.1211 38.7468L54.0586 41.8722V41.871Z" fill="#18C3DF"/>
<path d="M52.8316 40.9793L53.0168 42.5613L56.093 40.9043L52.8316 40.9781V40.9793Z" fill="#18C3DF"/>
<path d="M53.4105 42.7629L52.6301 41.3731L56.093 40.9055L53.4105 42.7629Z" fill="#18C3DF"/>
<path d="M52.8317 42.7629L53.6121 41.3731L50.1492 40.9055L52.8317 42.7629Z" fill="#18C3DF"/>
<path d="M53.4106 40.9793L53.2254 42.5613L50.1492 40.9043L53.4106 40.9781V40.9793Z" fill="#18C3DF"/>
<path d="M53.8793 41.3203L52.432 41.9859L54.9586 44.4L53.8805 41.3203H53.8793Z" fill="#18C3DF"/>
<path d="M52.3629 42.4219L53.4434 41.2512L54.9586 44.4L52.3629 42.4231V42.4219Z" fill="#18C3DF"/>
<path d="M53.8793 42.4219L52.7988 41.2512L51.2836 44.4L53.8793 42.4231V42.4219Z" fill="#18C3DF"/>
<path d="M52.3629 41.3203L53.8102 41.9859L51.2836 44.4L52.3617 41.3203H52.3629Z" fill="#18C3DF"/>
<path d="M20.9414 32.496L22.5035 32.8089L21.8789 29.3718L20.9414 32.4972V32.496Z" fill="#18C3DF"/>
<path d="M22.8164 32.496L21.2543 32.8089L21.8789 29.3718L22.8164 32.4972V32.496Z" fill="#18C3DF"/>
<path d="M21.5894 31.6043L21.7746 33.1863L24.8508 31.5293L21.5894 31.6031V31.6043Z" fill="#18C3DF"/>
<path d="M22.1683 33.3879L21.3879 31.9981L24.8508 31.5305L22.1683 33.3879Z" fill="#18C3DF"/>
<path d="M21.5895 33.3879L22.3699 31.9981L18.907 31.5305L21.5895 33.3879Z" fill="#18C3DF"/>
<path d="M22.1684 31.6043L21.9832 33.1863L18.907 31.5293L22.1684 31.6031V31.6043Z" fill="#18C3DF"/>
<path d="M22.6371 31.9453L21.1898 32.6109L23.7164 35.025L22.6383 31.9453H22.6371Z" fill="#18C3DF"/>
<path d="M21.1207 33.0469L22.2012 31.8762L23.7164 35.0251L21.1207 33.0481V33.0469Z" fill="#18C3DF"/>
<path d="M22.6371 33.0469L21.5566 31.8762L20.0414 35.0251L22.6371 33.0481V33.0469Z" fill="#18C3DF"/>
<path d="M21.1207 31.9453L22.568 32.6109L20.0414 35.025L21.1195 31.9453H21.1207Z" fill="#18C3DF"/>
<path d="M20.9414 41.871L22.5035 42.1839L21.8789 38.7468L20.9414 41.8722V41.871Z" fill="#18C3DF"/>
<path d="M22.8164 41.871L21.2543 42.1839L21.8789 38.7468L22.8164 41.8722V41.871Z" fill="#18C3DF"/>
<path d="M21.5894 40.9793L21.7746 42.5613L24.8508 40.9043L21.5894 40.9781V40.9793Z" fill="#18C3DF"/>
<path d="M22.1683 42.7629L21.3879 41.3731L24.8508 40.9055L22.1683 42.7629Z" fill="#18C3DF"/>
<path d="M21.5895 42.7629L22.3699 41.3731L18.907 40.9055L21.5895 42.7629Z" fill="#18C3DF"/>
<path d="M22.1684 40.9793L21.9832 42.5613L18.907 40.9043L22.1684 40.9781V40.9793Z" fill="#18C3DF"/>
<path d="M22.6371 41.3203L21.1898 41.9859L23.7164 44.4L22.6383 41.3203H22.6371Z" fill="#18C3DF"/>
<path d="M21.1207 42.4219L22.2012 41.2512L23.7164 44.4L21.1207 42.4231V42.4219Z" fill="#18C3DF"/>
<path d="M22.6371 42.4219L21.5566 41.2512L20.0414 44.4L22.6371 42.4231V42.4219Z" fill="#18C3DF"/>
<path d="M21.1207 41.3203L22.568 41.9859L20.0414 44.4L21.1195 41.3203H21.1207Z" fill="#18C3DF"/>
</g>
<defs>
<clipPath id="clip0_1_63877">
<rect width="75" height="56.25" fill="white" transform="translate(0 9.375)"/>
</clipPath>
</defs>
</svg>
