<svg width="75" height="75" viewBox="0 0 75 75" fill="none" xmlns="http://www.w3.org/2000/svg">
<rect width="74.6667" height="74.75" fill="white"/>
<g clip-path="url(#clip0_1_63881)">
<path d="M0 9.375H74.6667V65.375H0V9.375Z" fill="#D21034"/>
<path d="M0 9.375H74.6667V37.375H0V9.375Z" fill="#00209F"/>
<path d="M28.5016 30.34H46.1649V44.3983H28.5016V30.34Z" fill="white"/>
<path d="M40.8916 40.5016L37.2749 40.6183L33.6932 40.6533C33.6932 40.6533 31.8499 41.3299 31.0916 41.4816C30.3449 41.6333 30.4382 41.8783 29.8666 42.0183C29.3999 42.1233 29.3416 42.1466 29.0732 42.1699C28.8982 42.1699 28.6999 42.3099 28.4899 42.4499V44.3983H46.1649V42.5433C45.9782 42.4383 45.7916 42.3683 45.6049 42.3099C45.3482 42.2166 45.1732 42.1233 44.7066 42.0183C44.1232 41.8899 44.2166 41.6333 43.4699 41.4816C42.7116 41.3299 40.8916 40.5016 40.8916 40.5016Z" fill="#016A16" stroke="#016A16" stroke-width="0.035"/>
<path d="M36.3065 36.1616H36.5679L37.0532 38.159L36.9412 38.7936L36.3065 36.1803V36.1616Z" fill="#F1B517" stroke="black" stroke-width="0.0373333"/>
<path d="M36.0265 34.8176L36.2132 36.367H36.3998L36.0265 34.8363V34.8176Z" fill="white" stroke="black" stroke-width="0.0373333"/>
<path d="M36.5305 38.2337L35.7279 36.087L36.0265 36.0684L36.9599 38.6817L36.5305 38.2337Z" fill="#F1B517" stroke="black" stroke-width="0.0373333"/>
<path d="M35.3545 34.855L35.6905 36.3483H35.9518L35.3545 34.855Z" fill="white" stroke="black" stroke-width="0.0373333"/>
<path d="M35.8212 37.487L35.3545 36.4603L35.5412 36.423L36.4185 38.103L35.8212 37.487Z" fill="#F1B517" stroke="black" stroke-width="0.0373333"/>
<path d="M34.7198 35.2843L35.2612 36.703H35.5225L34.7385 35.2843H34.7198Z" fill="white" stroke="black" stroke-width="0.0373333"/>
<path d="M35.8958 37.6363L33.7492 35.303C33.0772 35.8256 33.2078 36.7963 33.2078 36.7963L35.6345 38.7003L35.8772 37.6363H35.8958Z" fill="#0A328C" stroke="black" stroke-width="0.0373333"/>
<path d="M37.1278 38.9056L35.5412 37.3003C34.8692 37.3376 35.3918 38.327 35.4292 38.4576L37.1092 39.895V38.9056H37.1278Z" fill="#D20014" stroke="black" stroke-width="0.0373333"/>
<path d="M36.9785 38.6443L33.7118 35.135L33.5812 35.2283L37.0532 39.0737L36.9785 38.6443ZM33.5252 34.911L33.4505 34.8177V34.6497L32.7785 34.2203L33.0772 34.911L33.3198 34.9483L33.3758 35.023L33.5252 34.911Z" fill="#F1B517" stroke="black" stroke-width="0.0373333"/>
<path d="M33.1705 35.1537C33.308 34.9831 33.4797 34.8432 33.6745 34.743L33.8612 35.023L33.4505 35.359L33.1705 35.1724V35.1537Z" fill="#F1B517" stroke="black" stroke-width="0.0373333"/>
<path d="M32.8159 35.751L32.9279 35.9376C33.0025 35.919 33.6745 35.2843 33.6745 35.2843H34.1785L34.3092 35.1163C33.9359 34.743 33.6185 35.1723 33.6185 35.1723L32.8159 35.7323V35.751Z" fill="#0A328C" stroke="#0A328C" stroke-width="0.0373333"/>
<path d="M33.2265 36.0683C33.2265 35.8817 33.5625 35.471 33.5999 35.4523C33.8425 35.527 34.0665 35.6763 34.3279 35.1163C34.1039 35.3777 33.6745 35.1163 33.6745 35.1163L33.4879 35.2657V35.3403L32.9279 35.863L33.2079 36.0683H33.2265Z" fill="#D20014" stroke="#D20014" stroke-width="0.0373333"/>
<path d="M34.9625 38.2524L32.2745 36.1244C31.8078 36.5911 32.1998 38.0284 32.1998 38.0284L34.8132 39.4471L34.9438 38.2524H34.9625Z" fill="#0A328C" stroke="black" stroke-width="0.0373333"/>
<path d="M37.1839 39.9883L34.9625 38.1963C34.2159 38.3083 34.8132 39.4096 34.8505 39.5403L37.1839 40.8096V39.9696V39.9883Z" fill="#D20014" stroke="black" stroke-width="0.0373333"/>
<path d="M37.0905 39.615L32.3119 36.031L32.2185 36.143L37.2212 40.063L37.0905 39.615ZM32.0879 35.8443L32.0132 35.7696L31.9759 35.6203L31.2292 35.303L31.6585 35.919H31.9012L31.9759 35.9936L32.0879 35.8443Z" fill="#F1B517" stroke="black" stroke-width="0.0373333"/>
<path d="M31.7892 36.143C31.896 35.9525 32.0424 35.787 32.2185 35.6577L32.4425 35.9004L32.1065 36.2924L31.7892 36.143Z" fill="#F1B517" stroke="black" stroke-width="0.0373333"/>
<path d="M31.5465 36.7404V36.9457C31.6212 36.9084 32.2372 36.255 32.2372 36.255L32.7039 36.1617L32.8159 36.0124C32.4799 35.6204 32.1252 36.143 32.1252 36.143L31.5279 36.7404H31.5465Z" fill="#0A328C" stroke="#0A328C" stroke-width="0.0373333"/>
<path d="M31.9199 37.095C31.8825 36.9083 32.1438 36.3856 32.1812 36.3483C32.4798 36.4416 32.7412 36.5723 32.8345 35.975C32.6478 36.2736 32.1812 36.0496 32.1812 36.0496L32.0319 36.2363V36.3296L31.5652 36.9456L31.9199 37.095Z" fill="#D20014" stroke="#D20014" stroke-width="0.0373333"/>
<path d="M34.7572 39.559C33.6036 38.9101 32.4525 38.2567 31.3038 37.599C31.0612 38.0283 31.2852 38.6257 31.3972 38.719C31.3972 38.999 31.2852 39.1483 31.5278 39.7457C31.6025 40.119 31.7705 40.4737 32.0318 40.679C32.3305 41.8737 33.5625 41.967 34.0292 40.9777L34.7758 39.559H34.7572Z" fill="#0A328C" stroke="black" stroke-width="0.0373333"/>
<path d="M37.0159 40.8284L34.6825 39.4657C33.9359 39.559 34.6825 40.959 34.7385 41.0897L37.0159 41.8924V40.8284Z" fill="#D20014" stroke="black" stroke-width="0.0373333"/>
<path d="M36.6238 40.3244L31.3412 37.5244L31.2478 37.6364L36.8478 40.7537L36.6238 40.3244ZM31.0798 37.375L30.9865 37.319L30.9305 37.1697L30.1652 36.983L30.6692 37.5244L30.8932 37.487L31.0052 37.543L31.0798 37.375Z" fill="#F1B517" stroke="black" stroke-width="0.0373333"/>
<path d="M30.8372 37.711C30.9119 37.5243 30.9866 37.3563 31.1732 37.151L31.4346 37.3563L31.1732 37.8043L30.8372 37.711Z" fill="#F1B517" stroke="black" stroke-width="0.0373333"/>
<path d="M30.6319 38.3457L30.7438 38.5697L31.3038 37.711L31.7705 37.543L31.8638 37.3563C31.4905 37.0203 31.2105 37.6177 31.2105 37.6177L30.6319 38.3457Z" fill="#0A328C" stroke="#0A328C" stroke-width="0.0373333"/>
<path d="M31.1359 38.6443C31.0985 38.4577 31.2292 37.8603 31.2665 37.8417C31.5465 37.935 31.7892 37.9537 31.8639 37.3563C31.6772 37.6363 31.2479 37.543 31.2479 37.543L31.1172 37.7297L31.1359 37.8043L30.7625 38.551L31.1359 38.6443Z" fill="#D20014" stroke="#D20014" stroke-width="0.0373333"/>
<path d="M37.1093 32.8203L37.016 34.5003H37.5573L37.4827 32.8203L38.0427 32.7643L37.9867 32.0923L36.5867 32.1483V32.7456L37.1093 32.8203Z" fill="#016A16" stroke="#016A16" stroke-width="0.0373333"/>
<path d="M37.296 32.1296C35.84 30.6736 34.7014 31.3829 34.44 31.5883C34.6267 31.6256 34.776 31.5136 34.8694 31.4949L34.6827 31.7189C34.6827 31.7189 35.1494 31.5323 35.2054 31.5323C35.1307 31.5883 35.056 31.7189 35.056 31.7189C35.0934 31.7189 35.3547 31.5136 35.392 31.5136C35.3174 31.5883 35.2987 31.7936 35.2987 31.7936L35.5227 31.7003C35.5787 31.7376 35.504 31.8123 35.5413 31.8123C35.9147 31.7749 36.4187 32.1296 36.4747 32.2416" fill="#016A16"/>
<path d="M37.296 32.1296C35.84 30.6736 34.7014 31.3829 34.44 31.5883C34.6267 31.6256 34.776 31.5136 34.8694 31.4949L34.6827 31.7189C34.6827 31.7189 35.1494 31.5323 35.2054 31.5323C35.1307 31.5883 35.056 31.7189 35.056 31.7189C35.0934 31.7189 35.3547 31.5136 35.392 31.5136C35.3174 31.5883 35.2987 31.7936 35.2987 31.7936L35.5227 31.7003C35.5787 31.7376 35.504 31.8123 35.5413 31.8123C35.9147 31.7749 36.4187 32.1296 36.4747 32.2416" stroke="black" stroke-width="0.0373333"/>
<path d="M36.9414 32.3909C36.792 32.0549 34.0294 31.4576 33.4694 32.4469C33.6934 32.5029 33.8987 32.2603 33.8987 32.2603V32.4843L34.2534 32.1856L34.1227 32.4843L34.4027 32.2416V32.4843L34.776 32.1109L34.72 32.3163L35.0374 32.1856L35 32.3723" fill="#016A16"/>
<path d="M36.9414 32.3909C36.792 32.0549 34.0294 31.4576 33.4694 32.4469C33.6934 32.5029 33.8987 32.2603 33.8987 32.2603V32.4843L34.2534 32.1856L34.1227 32.4843L34.4027 32.2416V32.4843L34.776 32.1109L34.72 32.3163L35.0374 32.1856L35 32.3723" stroke="black" stroke-width="0.0373333"/>
<path d="M36.8107 32.447C36.1014 31.9803 35.0187 32.2976 35.0187 32.2976C34.3094 32.671 33.936 32.615 33.8614 33.343C33.9174 33.3243 34.104 33.0816 34.104 33.0816L34.2534 33.3616L34.2907 32.9696L34.4027 33.287L34.5894 32.7643L34.6267 33.119L34.888 32.7643L35 32.8763L35.112 32.5963L35.224 32.783C35.224 32.783 35.4107 32.671 35.504 32.727L35.6907 32.503L35.7467 32.671L35.9334 32.4843L35.9894 32.615L36.1574 32.4656V32.5776H36.7174" fill="#016A16"/>
<path d="M36.8107 32.447C36.1014 31.9803 35.0187 32.2976 35.0187 32.2976C34.3094 32.671 33.936 32.615 33.8614 33.343C33.9174 33.3243 34.104 33.0816 34.104 33.0816L34.2534 33.3616L34.2907 32.9696L34.4027 33.287L34.5894 32.7643L34.6267 33.119L34.888 32.7643L35 32.8763L35.112 32.5963L35.224 32.783C35.224 32.783 35.4107 32.671 35.504 32.727L35.6907 32.503L35.7467 32.671L35.9334 32.4843L35.9894 32.615L36.1574 32.4656V32.5776H36.7174" stroke="black" stroke-width="0.0373333"/>
<path d="M36.6614 32.5216C36.1574 32.5216 34.7387 33.0629 34.384 33.6043C34.4628 33.5626 34.5438 33.5252 34.6267 33.4923L34.6827 33.7163L34.776 33.4923L34.7947 33.6789C34.8507 33.5296 34.9067 33.5296 35.0187 33.6603L35.056 33.4549L35.112 33.6416L35.2054 33.4363C35.2054 33.4363 35.2614 33.6603 35.2987 33.6603C35.2987 33.6603 35.448 33.2496 35.5227 33.2309L35.5414 33.4923L35.6347 33.2309L35.728 33.4176V33.1563L35.84 33.3429C35.84 33.3429 35.8774 33.1563 35.952 33.1189L36.1014 33.2496L36.736 32.7829" fill="#016A16"/>
<path d="M36.6614 32.5216C36.1574 32.5216 34.7387 33.0629 34.384 33.6043C34.4628 33.5626 34.5438 33.5252 34.6267 33.4923L34.6827 33.7163L34.776 33.4923L34.7947 33.6789C34.8507 33.5296 34.9067 33.5296 35.0187 33.6603L35.056 33.4549L35.112 33.6416L35.2054 33.4363C35.2054 33.4363 35.2614 33.6603 35.2987 33.6603C35.2987 33.6603 35.448 33.2496 35.5227 33.2309L35.5414 33.4923L35.6347 33.2309L35.728 33.4176V33.1563L35.84 33.3429C35.84 33.3429 35.8774 33.1563 35.952 33.1189L36.1014 33.2496L36.736 32.7829" stroke="black" stroke-width="0.0373333"/>
<path d="M36.7547 32.6522C36.1014 32.8949 35.504 33.8096 35.56 34.1829C35.84 33.8096 35.784 33.8656 35.9147 34.2949C35.9147 34.2949 35.952 33.9216 36.008 33.8842L36.1014 34.1456L36.12 33.7909H36.2134L36.1947 33.5856L36.3254 33.6789C36.288 33.5482 36.2694 33.5109 36.4 33.3989C36.4 33.3989 36.2134 33.4176 36.3627 33.1189L36.4934 33.2309C36.4934 33.2309 36.456 33.1002 36.4934 33.0442L36.9787 32.8949" fill="#016A16"/>
<path d="M36.7547 32.6522C36.1014 32.8949 35.504 33.8096 35.56 34.1829C35.84 33.8096 35.784 33.8656 35.9147 34.2949C35.9147 34.2949 35.952 33.9216 36.008 33.8842L36.1014 34.1456L36.12 33.7909H36.2134L36.1947 33.5856L36.3254 33.6789C36.288 33.5482 36.2694 33.5109 36.4 33.3989C36.4 33.3989 36.2134 33.4176 36.3627 33.1189L36.4934 33.2309C36.4934 33.2309 36.456 33.1002 36.4934 33.0442L36.9787 32.8949" stroke="black" stroke-width="0.0373333"/>
<path d="M36.8107 32.7083L36.5681 33.1936L36.6987 33.2309L36.4001 33.4363L36.6427 33.4176C36.6427 33.4176 36.2694 33.5483 36.2321 33.9216L36.6054 33.7349C36.6054 33.7349 36.2881 34.0709 36.2321 34.2763L36.4747 34.0896C36.4747 34.0896 36.2507 34.3136 36.2881 34.6496L36.4561 34.4629C36.4187 34.8923 36.4187 34.9296 36.6054 35.2469C36.6054 35.2469 36.5681 34.7616 36.6054 34.6869L37.0347 35.1349L36.8107 34.5189C36.8107 34.5189 37.0721 34.8923 37.2214 34.8736L36.8854 34.3696L37.2214 34.6309L36.8481 34.0709L37.1841 34.1829C37.1841 34.1829 36.9414 33.8656 36.9601 33.6603L37.2027 33.9216C37.2027 33.9216 37.1094 33.6416 37.1281 33.5483L37.2587 33.5669L37.0161 33.3056L37.1841 33.2683L37.1654 33.0816L37.2774 33.0629V32.8576M37.0721 32.8576C36.6614 33.4176 36.8667 34.2576 36.6241 34.7056L37.0721 32.8576Z" fill="#016A16"/>
<path d="M36.8107 32.7083L36.5681 33.1936L36.6987 33.2309L36.4001 33.4363L36.6427 33.4176C36.6427 33.4176 36.2694 33.5483 36.2321 33.9216L36.6054 33.7349C36.6054 33.7349 36.2881 34.0709 36.2321 34.2763L36.4747 34.0896C36.4747 34.0896 36.2507 34.3136 36.2881 34.6496L36.4561 34.4629C36.4187 34.8923 36.4187 34.9296 36.6054 35.2469C36.6054 35.2469 36.5681 34.7616 36.6054 34.6869L37.0347 35.1349L36.8107 34.5189C36.8107 34.5189 37.0721 34.8923 37.2214 34.8736L36.8854 34.3696L37.2214 34.6309L36.8481 34.0709L37.1841 34.1829C37.1841 34.1829 36.9414 33.8656 36.9601 33.6603L37.2027 33.9216C37.2027 33.9216 37.1094 33.6416 37.1281 33.5483L37.2587 33.5669L37.0161 33.3056L37.1841 33.2683L37.1654 33.0816L37.2774 33.0629V32.8576M37.0721 32.8576C36.6614 33.4176 36.8667 34.2576 36.6241 34.7056" stroke="black" stroke-width="0.0373333"/>
<path d="M37.52 40.455C37.52 40.455 37.7253 38.5883 37.7253 37.8043C37.7253 37.1697 37.576 35.7883 37.576 35.7883H36.96C36.96 35.7883 36.8666 37.1697 36.8853 37.8043C36.8853 38.5883 37.0906 40.455 37.0906 40.455H37.52Z" fill="#F1B517" stroke="black" stroke-width="0.0373333"/>
<path d="M36.904 35.8817H37.6506L37.5573 35.3777H37.016L36.904 35.863V35.8817Z" fill="#F1B517" stroke="black" stroke-width="0.0373333"/>
<path d="M36.96 35.4709H37.6133L37.4826 34.9669H37.072L36.9413 35.4709H36.96Z" fill="#F1B517" stroke="black" stroke-width="0.0373333"/>
<path d="M36.9973 35.079H37.5573L37.4453 34.575H37.0906L36.9973 35.079Z" fill="#F1B517" stroke="black" stroke-width="0.0373333"/>
<path d="M37.464 34.5189H37.0906L37.0346 34.7056H37.5013L37.464 34.5189ZM37.5386 40.0629H37.0533H37.5386ZM37.576 39.6896H37.016H37.576ZM37.6506 39.3163H36.9413H37.6506ZM37.688 38.9243H36.9413H37.688ZM37.688 38.5136H36.9226H37.688ZM37.7066 38.1403H36.8853H37.7066ZM37.7066 37.8229H36.848H37.7066ZM37.7066 37.4123H36.848H37.7066ZM37.688 37.0203H36.848H37.688ZM37.6506 36.6096H36.8853H37.6506ZM37.6133 36.2363H36.9226H37.6133Z" fill="#F1B517"/>
<path d="M37.5386 40.0629H37.0533M37.576 39.6896H37.016M37.6506 39.3163H36.9413M37.688 38.9243H36.9413M37.688 38.5136H36.9226M37.7066 38.1403H36.8853M37.7066 37.8229H36.848M37.7066 37.4123H36.848M37.688 37.0203H36.848M37.6506 36.6096H36.8853M37.6133 36.2363H36.9226M37.464 34.5189H37.0906L37.0346 34.7056H37.5013L37.464 34.5189Z" stroke="black" stroke-width="0.0373333"/>
<path d="M37.3333 31.5883C37.184 31.5323 36.904 31.3456 36.9787 31.2336L37.1093 31.0096C37.296 30.599 37.1093 30.7483 37.1093 30.6363C37.072 30.487 37.8187 30.599 37.8187 30.879C37.8187 30.9723 37.7627 30.9163 37.7813 31.3643L37.632 31.6443C37.5248 31.6583 37.4157 31.6455 37.3147 31.607L37.3333 31.5883Z" fill="#0A328C" stroke="#0A328C" stroke-width="0.0373333"/>
<path d="M37.408 32.7083L37.2213 32.5403L37.2773 31.215L37.464 31.271L37.408 32.6896V32.7083Z" fill="#F1B517" stroke="black" stroke-width="0.0373333"/>
<path d="M37.6506 31.6443C37.7626 31.5696 37.8373 31.3643 37.7626 31.2523C37.576 31.0096 37.4453 31.103 37.128 30.991C37.072 31.0656 36.9413 31.1776 36.96 31.2896C37.3893 31.4763 37.2213 31.327 37.3706 31.3456C37.4453 31.3456 37.4826 31.439 37.6506 31.6256V31.6443Z" fill="#D20014" stroke="#D20014" stroke-width="0.0373333"/>
<path d="M35.1678 39.5776C35.1678 39.8016 34.9998 40.007 34.8132 40.007C34.6265 40.007 34.4772 39.8203 34.4772 39.559V39.335H35.1678V39.559V39.5776Z" fill="#016A16" stroke="white" stroke-width="0.0373333" stroke-linecap="round"/>
<path d="M34.8132 39.4283C34.9987 39.4283 35.1492 39.3531 35.1492 39.2603C35.1492 39.1675 34.9987 39.0923 34.8132 39.0923C34.6276 39.0923 34.4772 39.1675 34.4772 39.2603C34.4772 39.3531 34.6276 39.4283 34.8132 39.4283Z" fill="white"/>
<path d="M34.7385 39.4284L34.6825 38.8311H34.9439L34.9065 39.4471H34.7385V39.4284Z" fill="#016A16" stroke="#F1B517" stroke-width="0.0373333"/>
<path d="M35.1865 39.2604C35.1492 39.3537 34.9999 39.4284 34.8132 39.4284C34.6265 39.4284 34.4959 39.3537 34.4399 39.2604C34.4335 39.2849 34.4335 39.3106 34.4399 39.335C34.4399 39.4657 34.6079 39.559 34.8132 39.559C35.0372 39.559 35.2052 39.4657 35.2052 39.335C35.2115 39.3106 35.2115 39.2849 35.2052 39.2604H35.1865Z" fill="#016A16" stroke="white" stroke-width="0.0373333" stroke-linecap="round"/>
<path d="M36.5865 41.631L35.2798 41.2204L34.7012 40.231L32.6665 40.1377L32.7412 40.8844L34.4772 41.2017L34.6265 41.5004L36.6238 42.0604L36.5865 41.631Z" fill="#F1B517" stroke="black" stroke-width="0.0373333"/>
<path d="M35.2239 41.9111L33.1332 38.8311L33.0399 38.9244L35.0932 41.9857L35.2239 41.9111Z" fill="#503200" stroke="black" stroke-width="0.0373333"/>
<path d="M33.3385 38.9617L33.1145 38.5883C33.0585 38.5137 33.0025 38.495 32.9092 38.551C32.8159 38.5883 32.8345 38.6817 32.8719 38.7563L33.0585 39.111L33.3385 38.9617Z" fill="white" stroke="black" stroke-width="0.0373333"/>
<path d="M35.4665 40.007L31.2665 39.5776L31.1545 40.1936L35.3358 40.623L35.4665 40.007Z" fill="#F1B517" stroke="black" stroke-width="0.0373333"/>
<path d="M31.1732 39.4283L31.0798 40.2683H31.2665L31.3785 39.503L31.1918 39.4283H31.1732ZM31.8825 39.559L31.8452 40.3243H31.9572L32.0505 39.671L31.9012 39.559H31.8825ZM34.7385 39.895L34.6265 40.6043H34.8318L34.9252 39.895H34.7385ZM35.3545 39.9137L35.2238 40.735L35.4478 40.7723L35.5225 40.343C35.5225 40.4363 35.6158 40.4923 35.7092 40.4923C35.8212 40.4923 35.8958 40.399 35.8958 40.3057C35.8958 40.1937 35.8212 40.119 35.7092 40.119C35.6702 40.1158 35.6313 40.1249 35.5978 40.145C35.5643 40.1651 35.538 40.1952 35.5225 40.231L35.5785 39.9323L35.3545 39.9137ZM33.8612 40.0443L33.2638 40.6977L33.3385 40.7723L34.0852 40.2683L33.8425 40.0443H33.8612ZM32.4798 41.6683L33.0585 41.015L33.0025 40.9403L32.2558 41.4443L32.4798 41.6683ZM33.9918 41.5003L33.3012 40.959L33.2265 41.015L33.7865 41.7243L33.9918 41.5003ZM32.2558 40.2497L32.9838 40.7723L33.0585 40.7163L32.4985 40.007L32.2558 40.2497ZM33.0398 39.8203L33.1145 40.679H33.2078L33.4318 39.839L33.0398 39.8203ZM33.2638 41.8737L33.2078 41.0337H33.0958L32.9652 41.8923H33.2638V41.8737ZM34.2158 40.7537L33.3198 40.8283V40.9217L34.2158 41.0337V40.735V40.7537ZM32.0878 41.0337L32.9652 40.903V40.8283L32.0692 40.735V41.0337H32.0878Z" fill="#F1B517" stroke="black" stroke-width="0.0373333"/>
<path d="M33.1705 41.071C33.3045 41.071 33.4132 40.9708 33.4132 40.847C33.4132 40.7233 33.3045 40.623 33.1705 40.623C33.0365 40.623 32.9279 40.7233 32.9279 40.847C32.9279 40.9708 33.0365 41.071 33.1705 41.071Z" fill="#F1B517" stroke="black" stroke-width="0.0373333"/>
<path fill-rule="evenodd" clip-rule="evenodd" d="M34.4212 40.847C34.4212 41.5004 33.8612 42.0604 33.1705 42.0604C33.0087 42.0628 32.848 42.0334 32.6976 41.9738C32.5472 41.9141 32.41 41.8254 32.2938 41.7128C32.1777 41.6001 32.0849 41.4656 32.0207 41.3171C31.9566 41.1685 31.9223 41.0088 31.9198 40.847C31.9198 40.175 32.4798 39.6337 33.1705 39.6337C33.3323 39.6312 33.493 39.6606 33.6434 39.7203C33.7938 39.7799 33.931 39.8686 34.0472 39.9813C34.1633 40.094 34.2561 40.2284 34.3203 40.377C34.3845 40.5255 34.4187 40.6852 34.4212 40.847ZM34.1785 40.847C34.1761 40.9769 34.1481 41.1051 34.0961 41.2242C34.0441 41.3433 33.9692 41.451 33.8756 41.5412C33.782 41.6313 33.6715 41.7021 33.5506 41.7496C33.4296 41.797 33.3004 41.8202 33.1705 41.8177C33.039 41.8202 32.9084 41.7964 32.7862 41.7478C32.664 41.6992 32.5527 41.6267 32.4589 41.5346C32.365 41.4425 32.2904 41.3326 32.2396 41.2113C32.1887 41.0901 32.1625 40.9599 32.1625 40.8284C32.1722 40.5692 32.2833 40.3243 32.4718 40.1462C32.6604 39.9682 32.9113 39.8713 33.1705 39.8764C33.3004 39.8739 33.4296 39.897 33.5506 39.9445C33.6715 39.9919 33.782 40.0627 33.8756 40.1529C33.9692 40.243 34.0441 40.3507 34.0961 40.4698C34.1481 40.5889 34.1761 40.7171 34.1785 40.847Z" fill="#F1B517" stroke="black" stroke-width="0.0373333" stroke-linecap="round"/>
<path d="M32.3865 40.231L32.1998 40.0817L32.3865 40.231ZM33.7865 40.0817L33.9732 39.895L33.7865 40.0817ZM34.1598 41.6123L33.9545 41.4443L34.1598 41.6123ZM32.3865 41.799L32.5732 41.6123L32.3865 41.799ZM36.6238 39.6337L36.8292 40.7537L36.6612 40.8283L36.4745 39.6523H36.6238V39.6337Z" fill="#F1B517"/>
<path d="M32.3865 40.231L32.1998 40.0817M33.7865 40.0817L33.9732 39.895M34.1598 41.6123L33.9545 41.4443M32.3865 41.799L32.5732 41.6123M36.6238 39.6337L36.8292 40.7537L36.6612 40.8283L36.4745 39.6523H36.6238V39.6337Z" stroke="black" stroke-width="0.0373333"/>
<path d="M36.5119 39.503C36.4185 39.447 36.2879 39.5217 36.0639 39.2604C35.7092 39.5777 36.0639 39.6337 36.1012 39.951C36.1945 39.9884 36.2692 39.6897 36.5305 39.671L36.9599 39.6337L36.8665 39.503H36.4932H36.5119Z" fill="white" stroke="black" stroke-width="0.0373333"/>
<path d="M36.6612 39.7083L36.6239 39.3909C36.5679 39.2603 36.4372 39.3723 36.4372 39.4283L36.4745 39.7456L36.6612 39.7083Z" fill="white" stroke="black" stroke-width="0.0373333"/>
<path fill-rule="evenodd" clip-rule="evenodd" d="M35.6159 40.623V40.9217C35.5039 40.959 35.5225 41.0337 35.5225 41.1457V42.023C35.5039 42.0977 35.3919 42.0977 35.3359 42.135C35.2799 42.191 35.2985 42.2844 35.5225 42.3217L35.7092 42.3404C35.9892 42.2844 36.0452 42.191 35.8959 42.1537C35.8399 42.1164 35.7279 42.079 35.7092 42.0417V41.8177H35.8959C35.9332 41.8177 36.0265 41.7057 36.0265 41.6124V41.1457C36.0265 40.8844 35.8399 40.847 35.7652 40.8657V40.623H35.6159ZM35.9145 41.127C35.9145 41.0524 35.8025 40.9777 35.7652 40.9777C35.7279 40.9777 35.6345 41.071 35.6345 41.1457V41.3324C35.6345 41.407 35.6905 41.631 35.8025 41.6497C35.8399 41.6497 35.9145 41.575 35.9145 41.5004V41.127Z" fill="#F1B517" stroke="black" stroke-width="0.0373333"/>
<path d="M34.4025 41.5377C34.2718 41.5004 34.2718 41.7617 34.2718 41.7617H34.4585C34.5518 41.799 34.6078 41.911 34.5705 41.9857C34.5145 42.023 34.1598 41.8924 34.1412 41.9857C34.1972 42.3404 34.6825 42.471 34.8505 42.3217C35.0185 42.1537 35.0558 41.7617 34.5145 41.631L34.4025 41.5377ZM34.5145 41.6497L34.4585 41.7617L34.5145 41.6497Z" fill="white"/>
<path d="M34.5145 41.6497L34.4585 41.7617M34.4025 41.5377C34.2718 41.5004 34.2718 41.7617 34.2718 41.7617H34.4585C34.5518 41.799 34.6078 41.911 34.5705 41.9857C34.5145 42.023 34.1598 41.8924 34.1412 41.9857C34.1972 42.3404 34.6825 42.471 34.8505 42.3217C35.0185 42.1537 35.0558 41.7617 34.5145 41.631L34.4025 41.5377Z" stroke="black" stroke-width="0.0373333"/>
<path d="M30.7999 41.6683L30.6132 40.9216L30.7999 41.6683ZM31.0052 41.631L30.7252 41.0523L31.0052 41.631ZM31.4719 41.4816L30.8559 41.1456L31.4719 41.4816ZM31.7519 41.407L30.5945 40.903L31.7519 41.407Z" fill="#F1B517"/>
<path d="M30.7999 41.6683L30.6132 40.9216M31.0052 41.631L30.7252 41.0523M31.4719 41.4816L30.8559 41.1456M31.7519 41.407L30.5945 40.903" stroke="black" stroke-width="0.0373333"/>
<path d="M29.9038 40.3616L29.4185 40.3803C29.3812 40.399 29.5118 40.5483 29.4932 40.5856C29.3812 40.791 28.6718 40.7723 28.6158 40.735C28.5225 40.6416 29.2692 40.5856 29.2878 40.5483C29.2878 40.4736 29.1758 40.3243 29.1945 40.231C29.1945 40.1003 29.5118 40.0443 29.5118 40.0443L29.9038 40.3616Z" fill="#D20014" stroke="#D20014" stroke-width="0.0373333"/>
<path d="M30.4638 40.735L29.5305 39.951C29.5305 39.951 29.4745 39.9137 29.4372 39.951C29.3998 39.9884 29.4372 40.0257 29.4372 40.0257L30.4452 40.847L30.4638 40.7537V40.735Z" fill="#503200" stroke="black" stroke-width="0.0373333"/>
<path d="M31.3972 41.5189L30.6132 40.8469L30.5572 40.6603L30.4079 40.7723C30.3519 40.8096 30.2959 40.9216 30.2959 40.9216H30.5012L31.1732 41.5563L31.3785 41.5189H31.3972Z" fill="#F1B517" stroke="black" stroke-width="0.0373333"/>
<path d="M34.0665 42.5643C34.1386 42.5643 34.1971 42.5058 34.1971 42.4336C34.1971 42.3615 34.1386 42.303 34.0665 42.303C33.9943 42.303 33.9358 42.3615 33.9358 42.4336C33.9358 42.5058 33.9943 42.5643 34.0665 42.5643Z" fill="#F1B517" stroke="black" stroke-width="0.0373333"/>
<path d="M33.7118 42.303C33.784 42.303 33.8425 42.2445 33.8425 42.1723C33.8425 42.1001 33.784 42.0416 33.7118 42.0416C33.6396 42.0416 33.5811 42.1001 33.5811 42.1723C33.5811 42.2445 33.6396 42.303 33.7118 42.303Z" fill="#F1B517" stroke="black" stroke-width="0.0373333"/>
<path d="M33.2451 42.4711C33.3173 42.4711 33.3758 42.4126 33.3758 42.3404C33.3758 42.2682 33.3173 42.2097 33.2451 42.2097C33.173 42.2097 33.1145 42.2682 33.1145 42.3404C33.1145 42.4126 33.173 42.4711 33.2451 42.4711Z" fill="#F1B517" stroke="black" stroke-width="0.0373333"/>
<path d="M32.5172 42.6203C32.5893 42.6203 32.6478 42.5618 32.6478 42.4897C32.6478 42.4175 32.5893 42.359 32.5172 42.359C32.445 42.359 32.3865 42.4175 32.3865 42.4897C32.3865 42.5618 32.445 42.6203 32.5172 42.6203Z" fill="#F1B517" stroke="black" stroke-width="0.0373333"/>
<path d="M32.1998 42.6577C32.272 42.6577 32.3305 42.5992 32.3305 42.527C32.3305 42.4549 32.272 42.3964 32.1998 42.3964C32.1277 42.3964 32.0692 42.4549 32.0692 42.527C32.0692 42.5992 32.1277 42.6577 32.1998 42.6577Z" fill="#F1B517" stroke="black" stroke-width="0.0373333"/>
<path d="M31.8825 42.6577C31.9547 42.6577 32.0132 42.5992 32.0132 42.527C32.0132 42.4549 31.9547 42.3964 31.8825 42.3964C31.8103 42.3964 31.7518 42.4549 31.7518 42.527C31.7518 42.5992 31.8103 42.6577 31.8825 42.6577Z" fill="#F1B517" stroke="black" stroke-width="0.0373333"/>
<path d="M31.5838 42.6577C31.656 42.6577 31.7145 42.5992 31.7145 42.527C31.7145 42.4549 31.656 42.3964 31.5838 42.3964C31.5117 42.3964 31.4532 42.4549 31.4532 42.527C31.4532 42.5992 31.5117 42.6577 31.5838 42.6577Z" fill="#F1B517" stroke="black" stroke-width="0.0373333"/>
<path d="M31.7331 42.415C31.8053 42.415 31.8638 42.3565 31.8638 42.2844C31.8638 42.2122 31.8053 42.1537 31.7331 42.1537C31.661 42.1537 31.6025 42.2122 31.6025 42.2844C31.6025 42.3565 31.661 42.415 31.7331 42.415Z" fill="#F1B517" stroke="black" stroke-width="0.0373333"/>
<path d="M32.0318 42.4337C32.104 42.4337 32.1625 42.3752 32.1625 42.303C32.1625 42.2309 32.104 42.1724 32.0318 42.1724C31.9597 42.1724 31.9012 42.2309 31.9012 42.303C31.9012 42.3752 31.9597 42.4337 32.0318 42.4337Z" fill="#F1B517" stroke="black" stroke-width="0.0373333"/>
<path d="M32.3118 42.3963C32.384 42.3963 32.4425 42.3378 32.4425 42.2657C32.4425 42.1935 32.384 42.135 32.3118 42.135C32.2396 42.135 32.1811 42.1935 32.1811 42.2657C32.1811 42.3378 32.2396 42.3963 32.3118 42.3963Z" fill="#F1B517" stroke="black" stroke-width="0.0373333"/>
<path d="M32.1812 42.1723C32.2534 42.1723 32.3119 42.1138 32.3119 42.0417C32.3119 41.9695 32.2534 41.911 32.1812 41.911C32.109 41.911 32.0505 41.9695 32.0505 42.0417C32.0505 42.1138 32.109 42.1723 32.1812 42.1723Z" fill="#F1B517" stroke="black" stroke-width="0.0373333"/>
<path d="M31.8825 42.1537C31.9547 42.1537 32.0132 42.0952 32.0132 42.023C32.0132 41.9508 31.9547 41.8923 31.8825 41.8923C31.8103 41.8923 31.7518 41.9508 31.7518 42.023C31.7518 42.0952 31.8103 42.1537 31.8825 42.1537Z" fill="#F1B517" stroke="black" stroke-width="0.0373333"/>
<path fill-rule="evenodd" clip-rule="evenodd" d="M34.8132 42.6016C34.8132 42.5456 34.6638 42.5643 34.6638 42.4896C34.6638 42.415 34.8878 42.4896 34.9065 42.5456C35.0372 42.4336 35.0932 42.5083 35.1678 42.5456C35.2798 42.3963 35.4105 42.3963 35.5412 42.5083C35.6158 42.4336 35.8025 42.4523 35.8585 42.5456C35.9892 42.4336 36.1012 42.4523 36.1758 42.5456C36.2132 42.4896 36.2692 42.4896 36.3065 42.5456C36.3625 42.415 36.5305 42.4523 36.6052 42.5456C36.6612 42.471 36.7358 42.527 36.8105 42.5643C36.8665 42.527 36.9598 42.527 36.9598 42.5643C36.9598 42.639 36.8478 42.6203 36.8478 42.6763C36.8478 42.7136 36.9225 42.6763 36.9225 42.751C36.9225 42.807 36.8105 42.8256 36.7918 42.751C36.7358 42.8256 36.5865 42.7883 36.5678 42.7136C36.5538 42.7295 36.5366 42.7423 36.5173 42.751C36.498 42.7597 36.477 42.7642 36.4558 42.7642C36.4346 42.7642 36.4137 42.7597 36.3944 42.751C36.3751 42.7423 36.3578 42.7295 36.3438 42.7136C36.2878 42.751 36.2132 42.751 36.1945 42.7136C36.1012 42.807 35.9332 42.7883 35.8772 42.6763H35.8212C35.8036 42.6962 35.7821 42.7121 35.758 42.723C35.7338 42.7339 35.7076 42.7395 35.6812 42.7395C35.6547 42.7395 35.6285 42.7339 35.6044 42.723C35.5802 42.7121 35.5587 42.6962 35.5412 42.6763C35.3732 42.7883 35.2798 42.751 35.1865 42.6763C35.0932 42.807 34.9252 42.807 34.9065 42.6763C34.8318 42.7323 34.6825 42.751 34.6825 42.6763C34.6825 42.639 34.8132 42.6576 34.8132 42.6016ZM35.1118 42.6203C35.1118 42.6576 35.0745 42.6763 35.0372 42.6763C34.9998 42.6763 34.9625 42.6576 34.9625 42.6203C34.9625 42.583 34.9812 42.583 35.0372 42.583C35.0932 42.583 35.1118 42.6016 35.1118 42.6203ZM35.4665 42.583C35.4665 42.6203 35.4105 42.639 35.3545 42.639C35.2985 42.639 35.2612 42.6203 35.2612 42.583C35.2612 42.5643 35.2985 42.527 35.3545 42.527C35.4105 42.527 35.4478 42.5643 35.4478 42.583H35.4665ZM36.1198 42.6203C36.1198 42.6576 36.0825 42.6763 36.0265 42.6763C35.9705 42.6763 35.9518 42.6576 35.9518 42.6203C35.9518 42.6016 35.9892 42.5643 36.0265 42.5643C36.0638 42.5643 36.1198 42.583 36.1198 42.6203ZM35.7652 42.6203C35.7652 42.6576 35.7278 42.6763 35.6718 42.6763C35.6158 42.6763 35.5972 42.6576 35.5972 42.6016C35.5972 42.5643 35.6345 42.527 35.6718 42.527C35.7092 42.527 35.7652 42.5643 35.7652 42.6016V42.6203ZM36.5118 42.6203C36.5118 42.639 36.4932 42.6763 36.4558 42.6763C36.3998 42.6763 36.3625 42.639 36.3625 42.6016C36.3625 42.5643 36.3998 42.5456 36.4558 42.5456C36.4932 42.5456 36.5305 42.5643 36.5305 42.6016L36.5118 42.6203ZM36.2878 42.6203C36.2878 42.6576 36.2878 42.6763 36.2505 42.6763C36.2132 42.6763 36.1945 42.6576 36.1945 42.6203C36.1945 42.583 36.2132 42.583 36.2505 42.583L36.2878 42.6203ZM36.7358 42.639C36.7358 42.6763 36.7358 42.7136 36.6798 42.7136C36.6612 42.7136 36.6238 42.6763 36.6238 42.639C36.6238 42.6016 36.6612 42.583 36.6798 42.583C36.7172 42.583 36.7358 42.6016 36.7358 42.639Z" fill="#F1B517" stroke="black" stroke-width="0.0373333"/>
<path d="M37.2958 40.3057C36.8292 40.3057 36.4558 40.4923 36.4558 40.6977C36.4558 40.735 36.4558 40.7723 36.4932 40.8097C36.5865 40.9217 36.9225 40.9963 37.3145 40.9963C37.6878 40.9963 37.9865 40.9403 38.0985 40.8283C38.1358 40.791 38.1545 40.7537 38.1545 40.6977C38.1545 40.4923 37.7812 40.3243 37.2958 40.3243V40.3057Z" fill="#0A328C" stroke="#0A328C" stroke-width="0.0373333"/>
<path d="M38.1545 40.735V42.0417C38.1545 42.2097 37.7812 42.3217 37.3145 42.3217C36.8478 42.3217 36.4558 42.2097 36.4558 42.0417V40.735C36.4558 40.8843 36.8292 41.015 37.2958 41.015C37.7812 41.015 38.1545 40.8843 38.1545 40.735Z" fill="#F1B517" stroke="black" stroke-width="0.0373333"/>
<path d="M36.4558 40.735V40.9217L36.8665 42.2283L37.2025 41.2203L37.5758 42.247L37.8185 41.2763L38.1545 41.9297V41.575L37.8558 40.9403C37.819 40.9542 37.7816 40.9666 37.7438 40.9777L37.5572 41.687L37.2772 41.015C37.2336 41.016 37.19 41.016 37.1465 41.015L36.8665 41.687L36.5678 40.8657C36.4932 40.8283 36.4558 40.7723 36.4558 40.735Z" fill="#D20014" stroke="#D20014" stroke-width="0.0373333"/>
<path d="M38.1545 41.799V42.0416C38.1545 42.2096 37.7812 42.3216 37.3145 42.3216C36.8478 42.3216 36.4558 42.2096 36.4558 42.0416V41.799C36.4558 41.967 36.8292 42.079 37.2958 42.079C37.7812 42.079 38.1545 41.967 38.1545 41.799Z" fill="#0A328C" stroke="#0A328C" stroke-width="0.0373333"/>
<path d="M37.6505 42.0416L37.4452 42.079V42.3216L37.6692 42.3029V42.0603L37.6505 42.0416ZM36.7545 42.0229V42.2656L36.9598 42.3029V42.0603C36.8907 42.0522 36.8221 42.0397 36.7545 42.0229ZM36.4558 41.799V42.0416C36.4558 42.0976 36.4932 42.135 36.5492 42.1723V41.9296C36.4932 41.8923 36.4558 41.855 36.4558 41.799ZM38.1545 41.8363C38.1545 41.8736 38.0798 41.9296 38.0052 41.967V42.2096C38.0985 42.1723 38.1545 42.1163 38.1545 42.0416V41.855V41.8363Z" fill="#F1B517" stroke="black" stroke-width="0.0373333"/>
<path d="M38.1545 40.735V42.0417C38.1545 42.2097 37.7812 42.3217 37.3145 42.3217C36.8478 42.3217 36.4558 42.2097 36.4558 42.0417V40.735" stroke="black" stroke-width="0.0373333"/>
<path d="M37.9678 40.6416C37.9678 40.735 37.6692 40.8283 37.3145 40.8283C36.9412 40.8283 36.6425 40.735 36.6425 40.6416C36.6425 40.5483 36.9412 40.4736 37.2958 40.4736C37.6692 40.4736 37.9678 40.5483 37.9678 40.6603V40.6416Z" fill="white" stroke="white" stroke-width="0.0373333"/>
<path d="M37.0905 40.7724L37.1279 40.9964H37.3145L37.3332 40.7724H37.0905ZM37.8559 40.7164L37.6692 40.7537L37.6879 40.9777L37.8745 40.9404V40.735L37.8559 40.7164ZM36.8479 40.343L36.7172 40.399L36.7359 40.5857L36.8479 40.5484V40.3617V40.343ZM37.2959 40.287H37.2399L37.2772 40.511H37.3892L37.4265 40.287C37.383 40.2855 37.3394 40.2855 37.2959 40.287ZM37.7999 40.3617L37.7812 40.5484L37.9119 40.6044V40.4177C37.8757 40.3967 37.8383 40.378 37.7999 40.3617ZM36.5865 40.8844L36.6239 40.6417L36.4372 40.5484V40.8284L36.5865 40.8844ZM38.1545 40.8284V40.5857L38.0052 40.6417L38.1545 40.8284ZM39.8905 39.2417C40.0399 39.2417 40.2639 39.4284 40.2825 39.7084C40.2825 39.895 39.9652 39.895 39.9652 39.895C39.9652 39.9884 39.7785 40.063 39.6292 40.0817C39.4799 40.0817 39.6665 39.8017 39.6665 39.8017C39.5732 39.559 39.7039 39.2977 39.7039 39.2977L39.8905 39.2417Z" fill="#F1B517" stroke="black" stroke-width="0.0373333"/>
<path d="M39.6665 39.8016H39.8158C39.8158 39.8016 39.8158 39.8576 39.8532 39.8576C39.8905 39.8576 39.9092 39.783 39.9092 39.783H40.1332" fill="#F1B517"/>
<path d="M39.6665 39.8016H39.8158C39.8158 39.8016 39.8158 39.8576 39.8532 39.8576C39.8905 39.8576 39.9092 39.783 39.9092 39.783H40.1332" stroke="black" stroke-width="0.0373333"/>
<path d="M39.9652 39.4096C40.0959 39.3163 39.9839 39.1296 39.8905 39.1296H39.7039C39.5919 39.1296 39.4425 39.2416 39.4612 39.3163C39.4612 39.4096 39.5359 39.447 39.6105 39.4283C39.6479 39.4283 39.7225 39.3163 39.7599 39.3163C39.8159 39.3163 39.9465 39.4283 39.9652 39.4096Z" fill="#D20014" stroke="#F1B517" stroke-width="0.0373333"/>
<path fill-rule="evenodd" clip-rule="evenodd" d="M30.6505 42.0043C30.5385 42.0229 30.5199 42.1536 30.5572 42.2843C30.0719 42.4149 29.6239 42.6016 29.1759 42.7323C29.1572 42.6389 29.3999 42.3963 29.3999 42.3963C29.4559 42.4149 29.5119 42.5643 29.5119 42.5643C29.5119 42.2656 29.8105 42.0789 29.8105 42.0789C29.6239 42.0416 29.1199 42.2656 29.0639 42.3403C29.0639 42.3403 29.2505 42.3029 29.2879 42.3403C29.2879 42.3403 28.8772 42.7696 28.8585 42.9003C28.9332 43.0309 29.6052 43.1429 29.6052 43.1429C29.6052 43.1803 29.4185 43.3296 29.4185 43.3296C29.6985 43.3669 30.1092 43.1803 30.2212 43.0683C30.2212 43.0683 29.9039 43.0309 29.6612 42.8256C29.6612 42.8256 29.6985 42.9563 29.6612 43.0123C29.6612 43.0123 29.2879 42.9003 29.2319 42.8256C29.2319 42.8256 30.1652 42.6016 30.6132 42.4523C30.6319 42.5456 30.7252 42.6949 30.8372 42.6576C30.8932 42.6389 30.8745 42.5083 30.8372 42.3963C30.8524 42.4098 30.8701 42.4201 30.8894 42.4265C30.9086 42.4329 30.929 42.4353 30.9492 42.4336C31.0239 42.4336 31.0799 42.3776 31.0799 42.3029C31.0799 42.2283 31.0239 42.1723 30.9492 42.1723C30.9208 42.1738 30.8934 42.1833 30.8703 42.1999C30.8471 42.2164 30.8292 42.2392 30.8185 42.2656C30.7999 42.1723 30.7439 42.0043 30.6692 42.0229L30.6505 42.0043ZM31.0239 42.3029C31.0239 42.3403 30.9865 42.3589 30.9492 42.3589C30.9405 42.362 30.9312 42.3629 30.922 42.3615C30.9129 42.3601 30.9042 42.3565 30.8968 42.351C30.8894 42.3454 30.8835 42.3381 30.8796 42.3298C30.8758 42.3214 30.874 42.3122 30.8745 42.3029C30.8745 42.2656 30.9119 42.2283 30.9492 42.2283C30.9865 42.2283 31.0052 42.2656 31.0052 42.3029H31.0239Z" fill="#F1B517" stroke="black" stroke-width="0.0373333"/>
<path d="M45.3599 42.5829C45.3972 42.5083 45.3599 42.1723 45.3599 42.1723C45.2665 42.1723 45.1732 42.3029 45.1732 42.3029C45.2665 42.0043 45.0239 41.5563 45.0239 41.5563C45.1919 41.5749 45.7519 42.1163 45.7705 42.2283C45.7705 42.2283 45.5279 42.1349 45.4905 42.1536C45.5465 42.4336 45.7332 42.5643 45.8079 42.7136C45.8079 42.7136 45.4905 42.7696 45.5092 43.0496H45.3039C45.2292 42.9563 45.3225 42.8069 45.3225 42.8069L43.8852 42.2096C43.7919 42.1723 43.5865 42.0603 43.6239 41.9483C43.6425 41.8549 43.9972 42.0043 44.0719 42.0416L45.3785 42.5829H45.3599Z" fill="#F1B517" stroke="black" stroke-width="0.0373333"/>
<path d="M43.9785 42.3216L44.1652 42.0229C44.2212 41.9296 44.0905 41.8363 43.9972 41.9483L43.8105 42.2283C43.7359 42.3963 43.9039 42.4336 43.9972 42.3216H43.9785Z" fill="#F1B517" stroke="black" stroke-width="0.0373333"/>
<path d="M33.8565 43.0449L33.8448 42.6949L33.4365 42.7299L33.4132 43.0916L33.8565 43.0449Z" fill="white" stroke="black" stroke-width="0.035"/>
<path d="M30.8466 43.5236L30.2983 43.2086C32.5616 43.4186 33.0283 42.6253 33.5766 42.5903C33.9266 42.5553 33.9616 42.9636 33.3083 42.7653L33.4833 43.1853C33.4833 43.1853 31.8733 44.0953 30.2866 43.7219L30.8466 43.5236ZM40.7399 43.0453L40.7516 42.6953L41.2533 42.7186L41.2766 43.0803L40.7399 43.0453Z" fill="white" stroke="black" stroke-width="0.035"/>
<path d="M43.8549 43.4417L44.3799 43.15C41.7665 43.2317 42.3615 42.73 41.0665 42.59C40.7165 42.5434 40.4832 42.9867 41.3232 42.765L41.1599 43.185H41.5682C42.4549 43.7683 43.6449 43.8267 44.4382 43.64L43.8549 43.4417Z" fill="white" stroke="black" stroke-width="0.035"/>
<path d="M33.3082 42.7766V43.3599C33.3082 43.3599 34.7432 43.8966 37.3215 43.8966C39.9115 43.8966 41.3348 43.3599 41.3348 43.3599V42.7766C41.3348 42.7766 40.2498 43.2783 37.3215 43.2783C34.4048 43.2783 33.3082 42.7766 33.3082 42.7766Z" fill="white" stroke="black" stroke-width="0.035"/>
<path d="M33.5182 43.36L33.6466 42.9283L33.7049 42.9517L33.5882 43.325L33.8216 43.3833L33.7982 43.4417L33.5182 43.36ZM33.9382 43.1733V43.0917L33.9616 43.01L34.0316 43.0333L34.0082 43.1033L33.9732 43.185L33.9382 43.1733ZM34.5566 43.1383L34.6149 43.1617L34.5682 43.4067L34.5216 43.5233C34.5067 43.5439 34.4865 43.56 34.4632 43.57H34.3466C34.3082 43.5635 34.2721 43.5474 34.2416 43.5233C34.2178 43.5066 34.2012 43.4817 34.1949 43.4533L34.2066 43.3367L34.2649 43.08L34.3232 43.0917L34.2649 43.3483C34.2589 43.3792 34.2589 43.4109 34.2649 43.4417C34.2674 43.4594 34.2756 43.4758 34.2882 43.4883L34.3466 43.5117H34.4632L34.5099 43.395L34.5566 43.1383ZM34.6266 43.605L34.6966 43.1733H34.7666L34.9416 43.57L34.9999 43.22H35.0582L34.9882 43.675L34.9299 43.6633L34.7432 43.2783L34.6849 43.6283L34.6266 43.6167V43.605ZM35.0932 43.6867L35.1632 43.2433H35.2216L35.1632 43.6867H35.1049H35.0932ZM35.2799 43.4883C35.2799 43.4183 35.3149 43.36 35.3616 43.325C35.4082 43.2895 35.4665 43.2728 35.5249 43.2783C35.5716 43.2783 35.6066 43.29 35.6416 43.3133L35.6999 43.4067C35.7232 43.4417 35.7232 43.4883 35.7116 43.5233C35.7094 43.5645 35.6974 43.6045 35.6766 43.64C35.655 43.6765 35.6223 43.7051 35.5832 43.7217C35.546 43.7354 35.5058 43.7394 35.4666 43.7333C35.4253 43.7322 35.385 43.7201 35.3499 43.6983C35.322 43.6734 35.3018 43.641 35.2916 43.605C35.2783 43.5676 35.2743 43.5276 35.2799 43.4883ZM35.3382 43.4883C35.3382 43.5467 35.3382 43.605 35.3732 43.6283C35.3966 43.6633 35.4316 43.6867 35.4782 43.6867C35.5249 43.6867 35.5599 43.6867 35.5949 43.6517C35.6299 43.6283 35.6416 43.5817 35.6532 43.535C35.6637 43.4968 35.6637 43.4565 35.6532 43.4183C35.6401 43.3935 35.6198 43.3732 35.5949 43.36C35.5718 43.3405 35.5433 43.3283 35.5132 43.325C35.4782 43.325 35.4316 43.325 35.3966 43.36C35.3732 43.3833 35.3499 43.43 35.3382 43.5V43.4883ZM35.7699 43.7567L35.8049 43.3133H35.8749L36.0849 43.6867L36.1082 43.3367H36.1666L36.1316 43.7917H36.0732L35.8516 43.4183L35.8282 43.7683H35.7699V43.7567ZM36.4232 43.8033L36.4349 43.36L36.7499 43.3717V43.43L36.5049 43.4183L36.4932 43.5467L36.7149 43.5583V43.6167L36.4816 43.605V43.815H36.4232V43.8033ZM36.7732 43.815L36.9482 43.3717H37.0182L37.1932 43.8383H37.1232L37.0766 43.6867H36.8782L36.8316 43.8267H36.7616L36.7732 43.815ZM36.8899 43.64H37.0532L37.0066 43.5233C36.9971 43.4887 36.9894 43.4537 36.9832 43.4183L36.9599 43.5117L36.9016 43.64H36.8899ZM37.2516 43.8267V43.3833H37.3216V43.8267H37.2516ZM37.5432 43.8267V43.4417H37.3916V43.395H37.7532V43.4417H37.6016V43.8383H37.5432V43.8267ZM38.0099 43.8267L37.9749 43.36H38.0449L38.0566 43.7567H38.2899V43.8033L37.9982 43.815L38.0099 43.8267ZM38.3132 43.8033L38.4532 43.3367H38.5232L38.7566 43.7683H38.6749L38.6166 43.6517H38.4182L38.3832 43.8033H38.3132ZM38.4299 43.605H38.5932L38.5349 43.4883L38.4882 43.3833C38.487 43.4147 38.4831 43.4459 38.4766 43.4767L38.4299 43.605ZM38.9782 43.745L38.9316 43.3017L39.2349 43.2667L39.2466 43.325L39.0016 43.3483V43.4883L39.2349 43.465V43.5233L39.0132 43.5467L39.0366 43.745H38.9782ZM39.3282 43.5C39.319 43.469 39.3162 43.4364 39.3203 43.4042C39.3243 43.3721 39.3349 43.3411 39.3516 43.3133C39.3899 43.2678 39.4441 43.2386 39.5032 43.2317L39.6199 43.2433C39.6666 43.255 39.6899 43.2783 39.7132 43.3133L39.7599 43.43L39.7482 43.5467C39.7355 43.5845 39.7109 43.6172 39.6782 43.64C39.6477 43.6641 39.6116 43.6801 39.5732 43.6867C39.534 43.6928 39.4938 43.6888 39.4566 43.675C39.4191 43.6616 39.3866 43.6372 39.3632 43.605C39.3378 43.5708 39.3217 43.5306 39.3166 43.4883L39.3282 43.5ZM39.3866 43.4883C39.3866 43.535 39.4099 43.5817 39.4449 43.605C39.4799 43.64 39.5149 43.64 39.5616 43.64C39.6082 43.64 39.6432 43.6167 39.6782 43.5817C39.7016 43.5467 39.7016 43.5 39.7016 43.4417C39.6968 43.4084 39.6848 43.3766 39.6666 43.3483C39.6498 43.3222 39.6253 43.3018 39.5966 43.29C39.5698 43.2831 39.5417 43.2831 39.5149 43.29C39.4682 43.29 39.4332 43.3017 39.3982 43.3367C39.3866 43.3717 39.3749 43.4183 39.3866 43.4883ZM39.8649 43.64L39.7949 43.1967L39.9932 43.1617H40.0866C40.1099 43.1617 40.1332 43.1617 40.1449 43.185L40.1799 43.255C40.1799 43.29 40.1799 43.3133 40.1566 43.3367C40.1449 43.36 40.1099 43.3833 40.0749 43.395C40.087 43.3976 40.0987 43.4015 40.1099 43.4067L40.1682 43.465L40.2849 43.57H40.2032L40.1216 43.5C40.1031 43.4796 40.0836 43.4602 40.0632 43.4417C40.0528 43.4322 40.041 43.4243 40.0282 43.4183C40.0167 43.4161 40.0048 43.4161 39.9932 43.4183H39.9582L39.8882 43.43L39.9349 43.6283H39.8649V43.64ZM39.8882 43.3833L40.0049 43.36C40.0295 43.3567 40.0532 43.3488 40.0749 43.3367C40.087 43.3298 40.0969 43.3195 40.1031 43.307C40.1093 43.2946 40.1117 43.2805 40.1099 43.2667C40.1084 43.2487 40.1001 43.232 40.0866 43.22H40.0049L39.8532 43.2317L39.8882 43.3833ZM40.6232 43.3367H40.6816C40.6816 43.3833 40.6699 43.43 40.6466 43.4533C40.6155 43.4877 40.5749 43.5121 40.5299 43.5233C40.4916 43.5332 40.4515 43.5332 40.4132 43.5233C40.3754 43.5106 40.3427 43.4861 40.3199 43.4533C40.2922 43.4191 40.2723 43.3793 40.2616 43.3367C40.2526 43.2983 40.2526 43.2584 40.2616 43.22C40.2616 43.1733 40.2966 43.1383 40.3199 43.115L40.4249 43.0683H40.5416C40.5882 43.0917 40.6116 43.115 40.6349 43.1617L40.5766 43.185C40.5634 43.1601 40.5431 43.1398 40.5182 43.1267C40.4917 43.1178 40.4631 43.1178 40.4366 43.1267C40.4058 43.1271 40.3764 43.1397 40.3549 43.1617C40.3339 43.1839 40.3215 43.2128 40.3199 43.2433V43.325C40.3292 43.3589 40.3451 43.3906 40.3666 43.4183C40.3782 43.4417 40.4016 43.465 40.4366 43.465H40.5182C40.5446 43.4609 40.5691 43.4487 40.5882 43.43C40.6116 43.4067 40.6232 43.3717 40.6232 43.3367ZM40.7866 43.4533L40.6699 43.0217L40.9849 42.94L41.0082 42.9867L40.7399 43.0567L40.7749 43.185L41.0199 43.1267L41.0432 43.1733L40.7866 43.2433L40.8332 43.3833L41.1132 43.3133V43.36L40.7866 43.4533Z" fill="black"/>
</g>
<defs>
<clipPath id="clip0_1_63881">
<rect width="74.6667" height="56" fill="white" transform="translate(0 9.375)"/>
</clipPath>
</defs>
</svg>
