<svg width="75" height="75" viewBox="0 0 75 75" fill="none" xmlns="http://www.w3.org/2000/svg">
<rect width="74.6667" height="74.75" fill="white"/>
<g clip-path="url(#clip0_1_64204)">
<path fill-rule="evenodd" clip-rule="evenodd" d="M77.506 65.5243H-2.70425V9.375H77.506V65.5243Z" fill="white"/>
<path fill-rule="evenodd" clip-rule="evenodd" d="M77.506 22.0086H-2.70416V14.639H77.506V22.0086ZM77.506 60.4468H-2.70416V53.0772H77.506V60.4468ZM24.537 30.2885L36.6113 51.3006L48.9488 30.3872L24.537 30.2994V30.2885Z" fill="#0038B8"/>
<path fill-rule="evenodd" clip-rule="evenodd" d="M34.3412 44.2271L36.6333 48.1202L38.9801 44.249L34.3303 44.2271H34.3412Z" fill="white"/>
<path fill-rule="evenodd" clip-rule="evenodd" d="M24.4932 44.5341L36.5785 23.522L48.905 44.4464L24.4932 44.5341Z" fill="#0038B8"/>
<path fill-rule="evenodd" clip-rule="evenodd" d="M34.3412 30.3872L36.6333 26.494L38.9801 30.3762L34.3303 30.3872H34.3412ZM29.5378 39.1057L27.1581 43.0537L31.6544 43.0427L29.5378 39.0947V39.1057ZM27.2019 31.8129L31.7202 31.8458L29.5488 35.8267L27.2019 31.8129ZM43.7835 39.1605L46.0756 43.0537L41.5025 42.9989L43.7835 39.1605ZM46.0317 31.8129L41.5134 31.8458L43.6848 35.8267L46.0317 31.8129ZM33.4968 31.8129L30.3823 37.4497L33.5407 42.966L39.3311 43.0976L42.8404 37.4497L39.5943 31.7471L33.4968 31.8019V31.8129Z" fill="white"/>
</g>
<defs>
<clipPath id="clip0_1_64204">
<rect width="74.6667" height="56" fill="white" transform="translate(0 9.375)"/>
</clipPath>
</defs>
</svg>
