<svg width="75" height="75" viewBox="0 0 75 75" fill="none" xmlns="http://www.w3.org/2000/svg">
<rect width="74.6667" height="74.75" fill="white"/>
<g clip-path="url(#clip0_1_64122)">
<path fill-rule="evenodd" clip-rule="evenodd" d="M77.5175 65.5243H-2.69266V9.375H77.5175V65.5243Z" fill="#BA0000"/>
<path fill-rule="evenodd" clip-rule="evenodd" d="M39.3097 50.6096C39.3316 50.5438 39.3755 49.8639 39.3535 49.8639C39.3316 49.8639 38.3227 48.6685 38.3446 48.6685C38.3665 48.6685 39.6387 48.9537 39.6387 48.9098C39.6387 48.8659 40.1541 47.6486 40.1541 47.6267L40.7682 49.1072L42.0294 49.6555L41.1521 50.3903L41.3385 51.816C41.3385 51.8489 40.4612 50.9825 40.4612 50.9825L39.4851 51.0922C39.4851 51.0922 39.3535 50.6535 39.3097 50.6096Z" fill="#FFEF00" stroke="black" stroke-width="0.241267"/>
<path fill-rule="evenodd" clip-rule="evenodd" d="M32.4774 32.065C31.633 32.5037 28.4197 36.1775 27.9811 36.7478C27.5332 37.7111 26.9082 38.5816 26.1387 39.314C25.3381 39.9171 24.8994 40.7396 25.0091 41.5073C25.0091 42.4943 25.5465 43.1523 25.9742 43.8213C26.2264 44.1393 26.5773 44.3367 26.9392 44.3696C27.6959 44.4573 27.7617 44.6986 28.1456 44.8302C29.6151 46.8481 31.8304 48.3395 33.4096 49.513C34.1362 49.8575 34.8027 50.3167 35.3836 50.8728C35.8442 51.7721 35.7564 52.6275 35.6906 53.0662L34.5172 57.5186C34.3088 58.725 35.3726 58.4618 35.4274 58.2205C35.899 57.5954 36.6118 58.0341 37.6208 54.4589L39.0245 52.5836C39.0245 52.5836 39.5619 52.3643 39.5619 52.3095C40.3844 51.3225 39.7593 50.7741 39.2877 50.5877L38.2788 50.2148C38.2788 50.2148 37.0944 49.0304 37.0395 49.0304C36.4802 47.3964 33.7166 43.92 33.0806 43.4374C32.6419 42.9659 32.4226 42.7794 32.0058 42.5162C31.3588 42.2092 31.1504 42.0995 30.7556 41.946C30.4266 41.8144 30.6569 41.4525 30.8653 41.288C33.0586 40.0926 34.7804 38.7766 36.875 37.4387L37.204 37.2193L36.4473 32.9204L32.9599 31.6921C32.7735 31.8128 32.6309 31.9444 32.4774 32.065Z" fill="white" stroke="black" stroke-width="0.285133"/>
<path fill-rule="evenodd" clip-rule="evenodd" d="M35.3946 54.6783C35.3946 54.6344 37.5879 54.2396 37.5879 54.2396L37.3137 55.0512L35.1533 55.7092L35.3946 54.6893V54.6783Z" fill="#FFEC00"/>
<path d="M29.7248 46.4972C29.9486 45.984 30.2738 45.5213 30.6808 45.1368C31.0879 44.7524 31.5684 44.4541 32.0936 44.26" stroke="black" stroke-width="0.241267"/>
<path d="M35.3178 54.7002C35.4603 54.6673 36.0854 54.4809 36.2609 54.448C36.4583 54.4041 36.6447 54.3602 36.8312 54.2944C37.0505 54.2506 37.1821 54.2067 37.4014 54.1738C37.5806 54.1105 37.7638 54.0592 37.9498 54.0203M34.923 56.0491C35.006 55.9662 35.098 55.8926 35.1971 55.8298C35.3178 55.7859 35.7455 55.6104 35.91 55.5775C36.084 55.5342 36.256 55.483 36.4254 55.424L36.9299 55.2924C37.0944 55.2266 37.2479 55.1827 37.4124 55.1389" stroke="black" stroke-width="0.2632"/>
<path d="M35.8003 46.8153H35.7784C35.8661 46.8153 35.8113 46.8153 35.6797 46.9688C35.6358 47.0894 35.241 47.3746 34.9339 47.3746C34.7627 47.3932 34.5907 47.4041 34.4185 47.4075L34.2759 47.3746M35.7784 53.2417H35.9319C36.0964 53.2417 36.2609 53.2746 36.3925 53.2746C36.557 53.2746 36.7106 53.3185 36.8641 53.3185C37.0286 53.3404 37.215 53.3295 37.3795 53.3624C37.555 53.3624 37.7085 53.3953 37.8949 53.3953C38.0485 53.4062 38.1362 53.4282 38.3007 53.4282L37.8949 53.3953C38.0485 53.4062 38.1362 53.4282 38.3007 53.4282M34.7146 57.0472C34.7902 56.9648 34.8748 56.8913 34.9668 56.8278C35.0765 56.7949 35.4713 56.6085 35.6248 56.5866C35.7809 56.5391 35.9346 56.4842 36.0854 56.4221L36.557 56.3124C36.6996 56.2356 36.8421 56.1918 36.9957 56.1479M37.6318 51.6296C37.544 51.8819 37.6646 51.9477 37.7085 52.0573C37.8777 52.2379 38.0943 52.3671 38.3336 52.4302C38.4652 52.4631 38.5529 52.496 38.7065 52.5618C38.8052 52.5618 38.849 52.5947 38.9258 52.6166M25.2833 42.2202H25.3162C25.2175 42.2202 25.2833 42.2312 25.4368 42.1106C25.5465 41.9899 25.6232 41.9351 25.7219 41.8145M27.3011 44.4465C27.3231 44.4465 29.1216 43.5472 29.308 43.3498L29.7138 43.0318C29.8235 42.9769 29.9002 42.9111 29.9989 42.8453C30.0757 42.7357 30.1854 42.6589 30.2512 42.5492C30.3608 42.4505 30.306 42.3518 30.4047 42.2312L30.5473 41.8145M32.8283 43.1524C32.8393 43.2182 32.8064 43.4156 32.8064 43.5691C32.8064 43.7446 32.5761 44.282 32.3019 44.4465" stroke="black" stroke-width="0.241267"/>
<path d="M29.6151 43.1304L30.3499 43.3607C30.8982 43.5581 32.0387 44.2819 32.1594 44.3806C32.269 44.4683 32.4884 44.556 32.5542 44.6547C32.6858 44.7644 32.7735 44.885 32.8722 45.0057C32.9819 45.1373 33.0915 45.2579 33.1464 45.3785C33.7452 46.2101 34.2388 47.1125 34.6159 48.0654C34.6927 48.1421 34.7256 48.2518 34.8023 48.3724C34.8681 48.526 34.9449 48.5918 35.0217 48.7124C35.1313 48.7892 35.2629 48.9317 35.3945 48.9975C35.5371 49.1182 35.6687 49.162 35.7784 49.2498C35.9209 49.3156 37.5659 50.3464 37.6427 50.4013C37.7962 50.5219 38.2459 50.9935 37.9278 51.3444C37.7962 51.4541 37.6646 51.6186 37.555 51.6734C37.4343 51.805 37.2698 51.8598 37.1273 51.9147C36.3925 52.134 36.0087 52.0572 35.8661 52.0572H35.7126M25.9742 39.4565C26.1935 39.5443 26.1058 39.4785 26.2922 39.5662C26.4238 39.621 26.5115 39.621 26.6212 39.6759C26.7638 39.7088 27.1367 39.7855 27.3121 39.961C27.4437 40.0707 27.5314 40.1803 27.685 40.2571C27.8421 40.3646 28.0114 40.453 28.1895 40.5203C28.3649 40.5861 28.5623 40.6629 28.7378 40.6629H29.5932H29.1545H29.5932" stroke="black" stroke-width="0.241267"/>
<path fill-rule="evenodd" clip-rule="evenodd" d="M25.9303 41.5403C26.3909 41.5074 27.1695 41.6499 27.1915 41.6499L28.2223 41.628C28.7707 41.5841 28.8803 41.3758 28.9681 41.2222C29.1764 40.9152 29.308 40.8055 29.4725 40.5642C29.7138 40.3888 30.0647 40.8165 30.0757 40.8165C30.953 41.6499 30.2512 42.6589 30.2073 42.6918C29.7686 43.0975 29.6699 43.1195 29.4067 42.8672C29.1435 42.5492 29.0668 42.4066 28.8474 42.297C28.4197 42.0996 27.5534 42.2531 27.5314 42.2531L27.0818 42.4286C26.8625 42.5053 26.7309 42.6918 26.369 42.7576C25.9851 42.7795 25.8645 42.7466 25.6781 42.4395C25.4258 42.0557 25.5465 41.5841 25.9303 41.5403Z" fill="#FFE606" stroke="black" stroke-width="0.241267"/>
<path fill-rule="evenodd" clip-rule="evenodd" d="M50.3641 22.6118C50.2983 22.6118 49.6732 22.9189 49.6841 22.9408C49.6951 22.9518 49.1577 24.4213 49.1468 24.4103C49.1358 24.3884 48.7629 23.1272 48.7191 23.1492C48.6862 23.1711 47.3702 23.3246 47.3592 23.3356L48.3462 22.0744L48.2036 20.7036L49.2784 21.1203L50.4299 20.243C50.4518 20.232 50.1338 21.4274 50.1338 21.4274L50.704 22.217C50.704 22.217 50.375 22.546 50.3641 22.6118Z" fill="#FFEF00" stroke="black" stroke-width="0.241267"/>
<path fill-rule="evenodd" clip-rule="evenodd" d="M37.555 37.658C38.3336 38.1734 43.1151 39.1824 43.8389 39.2811C44.8971 39.1999 45.9612 39.3189 46.9754 39.632C47.8856 40.0268 48.8178 40.0049 49.4429 39.5223C50.2983 39.0617 50.6053 38.2721 50.9782 37.5483C51.0571 37.3763 51.0979 37.1893 51.0979 37C51.0979 36.8107 51.0571 36.6237 50.9782 36.4517C50.6931 35.7498 50.8685 35.5743 50.8027 35.1795C51.8336 32.8985 52.0529 30.2445 52.2942 28.2815C52.2723 27.13 52.3929 26.2527 52.5135 25.9017C52.9393 25.2787 53.5547 24.8095 54.2682 24.5638L58.7316 23.4013C59.8941 22.9846 59.1374 22.195 58.8961 22.2608C58.1285 22.1511 58.1504 21.3177 54.5424 22.184L52.2174 21.8879C52.2174 21.8879 51.7788 21.526 51.7239 21.5589C50.4628 21.3286 50.2873 22.1402 50.3531 22.6337L50.5286 23.7084C50.5286 23.7084 50.0789 25.3095 50.1009 25.3534C48.9494 26.6475 47.2495 30.7929 47.1399 31.5934C47.085 32.3392 46.8109 32.1966 46.8767 32.9314C46.8767 33.5016 46.8109 33.1507 46.9973 34.3132C47.0521 34.6641 46.6135 34.6422 46.3722 34.5325C44.2666 33.2165 42.2707 32.3501 40.0664 31.1877L39.7264 31.0122L36.3487 33.7758L36.9847 37.4167C37.1821 37.5264 37.3576 37.5812 37.544 37.658H37.555Z" fill="white" stroke="black" stroke-width="0.285133"/>
<path fill-rule="evenodd" clip-rule="evenodd" d="M55.8364 24.0265C55.335 23.4768 54.8487 22.9136 54.3778 22.3376L55.2113 22.1731L56.8344 23.7413L55.8364 24.0265Z" fill="#FFEC00"/>
<path d="M51.4826 32.9753C50.9252 33.0327 50.362 32.9768 49.8268 32.811C49.2916 32.6451 48.7954 32.3727 48.3681 32.0103" stroke="black" stroke-width="0.241267"/>
<path d="M55.8912 24.0813C55.7816 23.9826 55.321 23.533 55.2113 23.3795C55.0781 23.235 54.939 23.096 54.7946 22.9627C54.652 22.7982 54.5423 22.6995 54.3998 22.5241C54.2593 22.4017 54.1274 22.2697 54.005 22.1293M57.2511 23.7743C57.2182 23.7743 57.0318 23.6975 56.9221 23.6427C56.8344 23.544 56.4615 23.2698 56.3628 23.1382C56.2405 23.0082 56.1125 22.8838 55.979 22.7653C55.8474 22.6228 55.7487 22.546 55.6171 22.3815C55.4847 22.2813 55.3601 22.1713 55.2442 22.0525" stroke="black" stroke-width="0.2632"/>
<path d="M48.7739 27.5249L48.7849 27.5578C48.741 27.47 48.7629 27.5249 48.9713 27.5578C49.1029 27.5358 49.5416 27.7442 49.6841 28.0074C49.7719 28.128 49.9035 28.3145 49.9693 28.4461C49.9912 28.479 49.9912 28.5557 50.0131 28.5886M54.3998 24.3994L54.3779 24.3774L54.3121 24.2678L54.1147 23.8401C54.0379 23.7085 54.005 23.544 53.9282 23.4124C53.8624 23.2588 53.7637 23.1053 53.7089 22.9518C53.6212 22.7873 53.5773 22.6447 53.4896 22.4692C53.4128 22.3376 53.4018 22.2499 53.3141 22.1073L53.4896 22.4692C53.4128 22.3376 53.4018 22.2499 53.3141 22.1073M58.2272 23.4562C58.1207 23.4325 58.0175 23.3957 57.9201 23.3466C57.8324 23.2698 57.4814 23.0176 57.3718 22.9079C57.2564 22.7926 57.1356 22.6828 57.0099 22.5789C56.9002 22.4363 56.8015 22.3596 56.6809 22.217C56.5562 22.1278 56.4388 22.0288 56.3299 21.9209M52.0639 23.5659C52.3381 23.522 52.3381 23.3904 52.4039 23.2917C52.4587 23.1821 52.5026 22.9079 52.4258 22.5679L52.36 22.1841C52.3161 22.0854 52.3161 22.0306 52.3052 21.9648M49.9254 38.9412L49.9144 38.9192C49.9583 39.007 49.9364 38.9521 49.739 38.8644L49.3551 38.7547M50.8795 36.0898C50.8685 36.0679 49.2016 34.9493 48.9384 34.8835C48.7849 34.8067 48.6423 34.7738 48.4668 34.6861L48.1598 34.5326C48.0172 34.5106 47.8966 34.4558 47.7759 34.4558C47.6443 34.4119 47.5676 34.4997 47.425 34.4777L46.9863 34.5545M47.0412 31.9115C47.085 31.8677 47.2824 31.8019 47.414 31.7251C47.5676 31.6483 48.1488 31.5825 48.423 31.7361" stroke="black" stroke-width="0.241267"/>
<path d="M48.5984 34.7299L48.4339 33.9622C48.3692 33.2765 48.3692 32.5862 48.4339 31.9005C48.4558 31.7579 48.4339 31.5276 48.4887 31.407C48.5216 31.2535 48.5765 31.1109 48.6313 30.9683C48.6971 30.8038 48.7519 30.6613 48.8177 30.5406C48.8945 30.102 50.1337 28.3363 50.2215 28.2486C50.2907 28.1471 50.3639 28.0483 50.4408 27.9525C50.4737 27.8428 50.5505 27.7551 50.6163 27.6235C50.7259 27.5029 50.7479 27.4042 50.8137 27.2726C50.8246 27.1519 50.8795 26.9545 50.8795 26.812C50.9124 26.6255 50.8795 26.483 50.9124 26.3623C50.8904 26.1978 50.9891 24.2567 51.0001 24.169C51.033 23.9716 51.2194 23.3465 51.68 23.4562C51.8445 23.511 52.0419 23.5439 52.1626 23.6207C52.3161 23.6645 52.4477 23.7852 52.5683 23.8729C53.1167 24.4103 53.2373 24.7722 53.3141 24.9038L53.3908 25.0354M47.1618 39.643L47.1508 39.621C47.1947 39.6978 47.1727 39.6539 47.1179 39.5004C47.1069 39.3578 47.0631 39.1714 47.0411 39.0398C47.0082 38.8972 46.9424 38.7437 46.9644 38.656C46.9095 38.5134 46.9424 38.4037 46.9644 38.2612C46.9973 38.0857 47.0192 37.9651 47.0192 37.8006C47.0411 37.5812 47.0192 37.4496 47.0302 37.2522C46.9753 37.0877 46.9644 36.9561 46.8876 36.7916L46.6683 36.353L46.4489 35.9691L46.6683 36.342L46.4489 35.9691" stroke="black" stroke-width="0.241267"/>
<path fill-rule="evenodd" clip-rule="evenodd" d="M49.0151 38.7218C48.7629 38.327 48.4997 37.5813 48.4887 37.5703L47.9733 36.671C47.6662 36.2324 47.425 36.2324 47.2495 36.2324C46.8766 36.1995 46.7121 36.1227 46.438 36.1117C46.1528 35.9801 46.3612 35.4647 46.3502 35.4537C46.6463 34.2913 47.8856 34.4009 47.9294 34.4229C48.4887 34.6093 48.5545 34.6861 48.4668 35.037C48.3242 35.4208 48.2475 35.5634 48.2475 35.8047C48.2804 36.2653 48.8506 36.9562 48.8506 36.9671L49.2235 37.2742C49.399 37.4277 49.6293 37.4497 49.8596 37.7458C50.0679 38.0638 50.1008 38.1844 49.9254 38.4915C49.706 38.9082 49.2454 39.0289 49.0151 38.7218Z" fill="#FFE606" stroke="black" stroke-width="0.241267"/>
<path fill-rule="evenodd" clip-rule="evenodd" d="M20.0303 27.8757C20.0851 27.9196 20.6663 28.2815 20.6883 28.2596C20.7102 28.2376 22.2236 27.8867 22.2017 27.9086C22.1797 27.9306 21.3463 28.9285 21.3901 28.9505C21.434 28.9724 22.2675 29.9813 22.2894 29.9923L20.6992 29.8607L19.6245 30.7161L19.3832 29.5975L18.0343 29.115C18.0124 29.104 19.1858 28.7202 19.1858 28.7202L19.5368 27.8099C19.5368 27.8099 19.9864 27.8867 20.0522 27.8757H20.0303Z" fill="#FFEF00" stroke="black" stroke-width="0.241267"/>
<path fill-rule="evenodd" clip-rule="evenodd" d="M39.6386 30.3542C39.6386 29.4001 37.862 24.849 37.555 24.2019C36.9071 23.3602 36.4235 22.4041 36.1293 21.3835C35.9648 20.3965 35.4384 19.6288 34.7036 19.3656C33.8373 18.916 33.0038 19.0915 32.2032 19.1682C31.8084 19.245 31.4685 19.4643 31.282 19.7714C30.8434 20.3965 30.6131 20.3417 30.306 20.6158C27.8385 20.9997 25.5026 22.2718 23.726 23.1382C23.0853 23.6226 22.3706 24.0003 21.6094 24.2568C20.8551 24.2457 20.1245 23.9919 19.5258 23.533L16.1151 20.4294C15.1281 19.6946 14.8869 20.7584 15.0733 20.9229C15.4023 21.6248 14.6895 22.0525 17.3982 24.6077L18.4181 26.7133C18.4181 26.7133 18.3633 27.2836 18.4181 27.3055C18.9007 28.4899 19.6903 28.1938 20.0631 27.8648L20.8637 27.13C20.8637 27.13 22.4539 26.6256 22.4758 26.5817C24.1866 26.8339 28.5952 26.0005 29.319 25.6495C29.977 25.2876 30.0099 25.5947 30.5802 25.1341C31.0517 24.8161 30.7995 25.0683 31.6768 24.2677C31.94 24.0484 32.1484 24.4103 32.2032 24.6735C32.2471 27.1629 32.62 29.3014 32.8503 31.7799L32.8941 32.1637L37.0615 33.4797L39.7593 30.9574L39.6496 30.3433L39.6386 30.3542Z" fill="white" stroke="black" stroke-width="0.285133"/>
<path fill-rule="evenodd" clip-rule="evenodd" d="M18.2207 22.5131C18.2536 22.546 17.6066 24.6625 17.6066 24.6625L17.0144 24.0594L17.4311 21.8331L18.2207 22.5131Z" fill="#FFEC00"/>
<path d="M28.1017 21.2628C28.8913 22.1402 29.1435 23.5878 29.001 24.3993" stroke="black" stroke-width="0.241267"/>
<path d="M18.2536 22.4363C18.2207 22.5788 18.0891 23.2259 18.0343 23.3904C17.9826 23.5822 17.9387 23.7761 17.9027 23.9716L17.7492 24.5419C17.7272 24.7283 17.6943 24.9038 17.6395 25.0902M17.2337 21.4712C17.2447 21.5041 17.2886 21.6905 17.2995 21.8112C17.2776 21.9428 17.2447 22.4034 17.1899 22.5679C17.1491 22.7418 17.1162 22.9174 17.0912 23.0943L16.9815 23.5987C16.9651 23.7689 16.9358 23.9375 16.8938 24.1032" stroke="black" stroke-width="0.2632"/>
<path d="M25.0201 26.5159L25.031 26.483C24.9872 26.5707 25.031 26.5159 24.9433 26.3295C24.8446 26.2198 24.7898 25.7482 24.9214 25.4741C24.9877 25.3138 25.0608 25.1565 25.1407 25.0025C25.1517 24.9696 25.2065 24.9257 25.2284 24.8928M19.3284 23.522L19.3174 23.5439L19.2516 23.6536C19.1858 23.8071 19.0761 23.9387 19.0103 24.0594C18.9445 24.2019 18.8239 24.3116 18.7581 24.4542L18.4949 24.8928C18.3962 25.0464 18.2975 25.167 18.2098 25.3315L17.9904 25.6824L18.2098 25.3315L17.9904 25.6824M16.4332 20.8242C16.4551 20.8461 16.5099 21.0326 16.5209 21.1532C16.499 21.2629 16.477 21.7015 16.4332 21.8441L16.3564 22.3266C16.3125 22.5021 16.3016 22.6227 16.2467 22.7982C16.2409 22.953 16.2226 23.107 16.1919 23.2588M19.8986 25.9347C19.7122 25.7263 19.6025 25.8031 19.4819 25.7921C19.2414 25.8582 19.0246 25.9913 18.8568 26.1759C18.7691 26.2746 18.6923 26.3514 18.5717 26.4501C18.5168 26.5378 18.473 26.5598 18.4181 26.6146M33.936 19.2889L33.925 19.3218C33.9689 19.234 33.936 19.2779 33.9798 19.4863C34.0347 19.6288 34.0347 19.7275 34.0895 19.8591M31.0298 20.0565C31.0298 20.0785 30.9969 22.0854 31.0846 22.3486C31.1066 22.5131 31.1504 22.6447 31.1724 22.853C31.1724 22.9627 31.2053 23.0724 31.2162 23.182C31.282 23.3136 31.293 23.4452 31.3698 23.5439C31.4027 23.6865 31.5123 23.6975 31.5781 23.8181C31.6549 23.9168 31.7975 24.0813 31.8852 24.1471M29.637 25.5618C29.5712 25.5399 29.4177 25.4083 29.2861 25.3425C29.1326 25.2547 28.7487 24.8051 28.7378 24.4871" stroke="black" stroke-width="0.241267"/>
<path d="M31.1395 22.7104L30.5912 23.2587C30.0528 23.6922 29.4723 24.0706 28.8584 24.3883C28.7268 24.4541 28.5623 24.6076 28.4198 24.6186C28.2772 24.6844 28.1237 24.7063 27.9811 24.7392C26.9432 24.9273 25.8855 24.9826 24.8337 24.9037C24.7091 24.9013 24.5848 24.894 24.4608 24.8818C24.3511 24.9037 24.2415 24.8928 24.0989 24.9037C23.9234 24.8928 23.8357 24.9257 23.6931 24.9366C23.5835 25.0024 23.397 25.0573 23.2654 25.145C23.1009 25.2108 22.9913 25.3095 22.8706 25.3643C22.761 25.463 21.0721 26.4391 20.9844 26.4829C20.8089 26.5597 20.1838 26.7571 20.0193 26.3075C19.9754 26.132 19.9096 25.9456 19.8987 25.814C19.8438 25.6604 19.8767 25.485 19.8767 25.3314C20.0303 24.5747 20.2715 24.2786 20.3373 24.147L20.4141 24.0154M36.0197 21.2189L36.0087 21.2518C36.0416 21.1751 36.0306 21.208 35.921 21.3396C35.8113 21.4273 35.6797 21.5589 35.581 21.6686C35.4713 21.7563 35.3836 21.8879 35.2959 21.9318C35.2081 22.0414 35.0985 22.0853 34.9669 22.1511C34.8209 22.2056 34.6813 22.2754 34.5501 22.3595C34.3637 22.4472 34.254 22.5459 34.0895 22.6446C33.9799 22.7762 33.8702 22.8639 33.7825 23.0175C33.6947 23.16 33.607 23.2807 33.5302 23.4452L33.3328 23.829L33.5302 23.4452L33.3328 23.829M34.6159 31.8456L34.6488 31.7908C34.594 31.9005 34.605 31.8676 34.6598 31.6921C34.6598 31.4947 34.7146 31.2425 34.7146 31.056C34.7475 30.8586 34.7804 30.6503 34.7804 30.4529C34.7695 30.2335 34.7695 30.0142 34.7366 29.7949C34.7366 29.5975 34.7037 29.3891 34.7037 29.1807C34.7037 28.9833 34.6817 28.8188 34.6379 28.6324C34.6376 28.456 34.6229 28.28 34.594 28.106C34.605 27.9744 34.5721 27.8428 34.5392 27.7331L34.4076 27.1738L34.2979 26.7242C34.276 26.5487 34.1882 26.3294 34.1444 26.1868C34.0879 26.0684 34.0474 25.943 34.0237 25.814C33.9689 25.6933 33.8921 25.5508 33.8812 25.4192L33.7057 25.0134L33.5522 24.6186C33.4973 24.4651 33.4315 24.3335 33.3877 24.1799C33.3328 24.1251 33.3219 24.0703 33.2999 24.0264" stroke="black" stroke-width="0.241267"/>
<path fill-rule="evenodd" clip-rule="evenodd" d="M34.254 20.1772C34.0626 20.5531 33.8348 20.9094 33.5741 21.241L33.1135 22.1622C32.9161 22.6666 33.0367 22.875 33.1244 23.0176C33.3109 23.3466 33.3438 23.522 33.4754 23.7633C33.5302 24.0704 32.9819 24.18 32.9819 24.191C31.8413 24.5858 31.2601 23.4891 31.2601 23.4343C31.1066 22.864 31.1285 22.7763 31.4794 22.6557C31.8742 22.557 32.0278 22.546 32.2252 22.4144C32.609 22.1293 32.8722 21.2848 32.8832 21.2739L32.927 20.7913C32.9599 20.572 32.8612 20.3527 32.9709 20.0017C33.1244 19.6508 33.2122 19.5631 33.5631 19.5302C34.0237 19.4973 34.3856 19.8153 34.254 20.1772Z" fill="#FFE606" stroke="black" stroke-width="0.241267"/>
<path fill-rule="evenodd" clip-rule="evenodd" d="M32.7625 31.2754C32.5871 31.1109 35.9867 32.5037 36.4583 32.5146C37.0944 32.2843 39.7373 30.0581 39.7373 30.0581C39.7593 30.2774 39.858 30.8367 40.1102 30.9574C39.0903 31.7799 38.1691 32.5804 37.1492 33.4029C37.215 34.7189 36.9847 36.1117 37.6427 37.5703C37.6427 37.5703 36.8531 37.5922 36.8531 37.5703C36.1512 36.8684 35.899 33.4907 35.899 33.4907L32.5432 31.9992C32.7077 31.8895 32.8283 31.5715 32.7625 31.2644V31.2754Z" fill="#FFEF00" stroke="black" stroke-width="0.241267"/>
<path d="M35.9977 34.7409C36.0525 34.697 35.3836 35.0479 35.2081 35.1357C32.1265 36.7807 30.5363 39.1933 30.4376 39.2811L30.1963 39.6539L29.9441 39.9829C29.821 40.1611 29.6892 40.3331 29.5493 40.4984C29.5274 40.5642 29.5932 40.4655 29.5712 40.5203M38.1143 32.7778C38.343 32.9616 38.5809 33.1336 38.8271 33.2933C41.7004 35.2892 44.5627 35.6072 44.6943 35.6511C44.8039 35.6511 44.9684 35.684 45.1329 35.7059C45.2645 35.7059 45.4181 35.7498 45.5497 35.7608C45.7032 35.7827 46.0322 35.8485 46.1857 35.8924C46.2515 35.8704 46.1309 35.8595 46.1857 35.8485" stroke="black" stroke-width="0.241267"/>
</g>
<defs>
<clipPath id="clip0_1_64122">
<rect width="74.6667" height="56" fill="white" transform="translate(0 9.375)"/>
</clipPath>
</defs>
</svg>
