<svg width="75" height="75" viewBox="0 0 75 75" fill="none" xmlns="http://www.w3.org/2000/svg">
<rect width="74.6667" height="74.75" fill="white"/>
<g clip-path="url(#clip0_1_64542)">
<path d="M0 9.375H74.6667V28.0417H0V9.375Z" fill="#FF9933"/>
<path d="M-6.10352e-05 28.0416H74.6666V46.7083H-6.10352e-05V28.0416Z" fill="white"/>
<path d="M-6.10352e-05 46.7084H74.6666V65.375H-6.10352e-05V46.7084Z" fill="#128807"/>
<path d="M37.3332 44.8417C41.457 44.8417 44.7999 41.4987 44.7999 37.375C44.7999 33.2513 41.457 29.9083 37.3332 29.9083C33.2095 29.9083 29.8666 33.2513 29.8666 37.375C29.8666 41.4987 33.2095 44.8417 37.3332 44.8417Z" fill="#000088"/>
<path d="M37.3331 43.9083C40.9414 43.9083 43.8665 40.9833 43.8665 37.375C43.8665 33.7667 40.9414 30.8417 37.3331 30.8417C33.7249 30.8417 30.7998 33.7667 30.7998 37.375C30.7998 40.9833 33.7249 43.9083 37.3331 43.9083Z" fill="white"/>
<path d="M37.3332 38.6817C38.0548 38.6817 38.6398 38.0967 38.6398 37.375C38.6398 36.6534 38.0548 36.0684 37.3332 36.0684C36.6115 36.0684 36.0265 36.6534 36.0265 37.375C36.0265 38.0967 36.6115 38.6817 37.3332 38.6817Z" fill="#000088"/>
<path d="M43.7665 38.5634C43.9504 38.5876 44.1192 38.4581 44.1435 38.2741C44.1677 38.0901 44.0382 37.9213 43.8542 37.8971C43.6702 37.8729 43.5014 38.0024 43.4772 38.1864C43.453 38.3704 43.5825 38.5392 43.7665 38.5634Z" fill="#000088"/>
<path d="M37.333 43.9084L37.557 39.9884L37.333 38.1217L37.109 39.9884L37.333 43.9084Z" fill="#000088"/>
</g>
<defs>
<clipPath id="clip0_1_64542">
<rect width="74.6667" height="56" fill="white" transform="translate(0 9.375)"/>
</clipPath>
</defs>
</svg>
