<svg width="75" height="75" viewBox="0 0 75 75" fill="none" xmlns="http://www.w3.org/2000/svg">
<rect width="74.6667" height="74.75" fill="white"/>
<g clip-path="url(#clip0_1_65851)">
<path fill-rule="evenodd" clip-rule="evenodd" d="M74.6667 57.9317C73.8267 58.7133 73.115 60.4983 70.8867 60.4983C66.4417 60.4983 65.3333 56.7067 61.9967 56.7067C59.78 56.7067 58.6717 60.4983 56.4433 60.4983C51.9983 60.4983 50.89 56.7067 47.5533 56.7067C45.3367 56.7067 44.2283 60.4983 42.0117 60.4983C37.555 60.4983 36.4467 56.7067 33.11 56.7067C30.8933 56.7067 29.7733 60.4983 27.5567 60.4983C23.1117 60.4983 22.0033 56.7067 18.6667 56.7067C16.45 56.7067 15.33 60.4983 13.1133 60.4983C8.65667 60.4983 7.54833 56.7067 4.22333 56.7067C2.00667 56.7067 1.33 59.4133 0 59.4133V64.2783C1.33 64.2783 1.995 61.595 4.235 61.595C7.56 61.595 8.66833 65.375 13.1017 65.375C15.33 65.375 16.4383 61.5833 18.6667 61.5833C22.0033 61.5833 23.1117 65.375 27.5683 65.375C29.785 65.375 30.8817 61.5833 33.11 61.5833C36.4467 61.5833 37.555 65.375 42 65.375C44.2167 65.375 45.3367 61.5833 47.5533 61.5833C50.89 61.5833 51.9983 65.375 56.4433 65.375C58.66 65.375 59.78 61.5833 61.9967 61.5833C65.3333 61.5833 66.4533 65.375 70.8867 65.375C73.1033 65.375 73.8267 64.3017 74.6667 63.5317V57.9317ZM74.6667 48.4583C73.8267 49.24 73.115 51.025 70.8867 51.025C66.4417 51.025 65.3333 47.2333 61.9967 47.2333C59.78 47.2333 58.6717 51.025 56.4433 51.025C51.9983 51.025 50.89 47.2333 47.5533 47.2333C45.3367 47.2333 44.2283 51.025 42.0117 51.025C37.555 51.025 36.4467 47.2333 33.11 47.2333C30.8933 47.2333 29.7733 51.025 27.5567 51.025C23.1117 51.025 22.0033 47.2333 18.6667 47.2333C16.45 47.2333 15.33 51.025 13.1133 51.025C8.65667 51.025 7.54833 47.2333 4.22333 47.2333C2.00667 47.2333 1.33 49.94 0 49.94V54.8167C1.33 54.8167 1.995 52.1217 4.235 52.1217C7.56 52.1217 8.66833 55.9133 13.1017 55.9133C15.33 55.9133 16.4383 52.1217 18.6667 52.1217C22.0033 52.1217 23.1117 55.9133 27.5683 55.9133C29.785 55.9133 30.8817 52.1217 33.11 52.1217C36.4467 52.1217 37.555 55.9133 42.0117 55.9133C44.2283 55.9133 45.3367 52.1217 47.5533 52.1217C50.89 52.1217 51.9983 55.9133 56.4433 55.9133C58.66 55.9133 59.78 52.1217 61.9967 52.1217C65.3333 52.1217 66.4533 55.9133 70.8867 55.9133C73.1033 55.9133 73.8267 54.84 74.6667 54.07V48.4583ZM74.6667 38.9967C73.8267 39.7783 73.115 41.5633 70.8867 41.5633C66.4417 41.5633 65.3333 37.7717 61.9967 37.7717C59.78 37.7717 58.6717 41.5633 56.4433 41.5633C51.9983 41.5633 50.89 37.7717 47.5533 37.7717C45.3367 37.7717 44.2283 41.5633 42.0117 41.5633C37.555 41.5633 36.4467 37.7717 33.11 37.7717C30.8933 37.7717 29.7733 41.5633 27.5567 41.5633C23.1117 41.5633 22.0033 37.7717 18.6667 37.7717C16.45 37.7717 15.33 41.5633 13.1133 41.5633C8.65667 41.5633 7.54833 37.7717 4.22333 37.7717C2.00667 37.7717 1.33 40.4783 0 40.4783V45.355C1.33 45.355 1.995 42.6483 4.235 42.6483C7.56 42.6483 8.66833 46.44 13.1017 46.44C15.33 46.44 16.4383 42.6483 18.6667 42.6483C22.0033 42.6483 23.1117 46.44 27.5683 46.44C29.785 46.44 30.8817 42.6483 33.11 42.6483C36.4467 42.6483 37.555 46.44 42.0117 46.44C44.2283 46.44 45.3367 42.6483 47.5533 42.6483C50.89 42.6483 51.9983 46.44 56.4433 46.44C58.66 46.44 59.78 42.6483 61.9967 42.6483C65.3333 42.6483 66.4533 46.44 70.8867 46.44C73.1033 46.44 73.8267 45.3667 74.6667 44.5967V38.9967ZM74.6667 29.535C73.8267 30.305 73.115 32.1017 70.8867 32.1017C66.4417 32.1017 65.3333 28.31 61.9967 28.31C59.78 28.31 58.6717 32.1017 56.4433 32.1017C51.9983 32.1017 50.89 28.31 47.5533 28.31C45.3367 28.31 44.2283 32.1017 42.0117 32.1017C37.555 32.1017 36.4467 28.31 33.11 28.31C30.8933 28.31 29.7733 32.1017 27.5567 32.1017C23.1117 32.1017 22.0033 28.31 18.6667 28.31C16.45 28.31 15.33 32.1017 13.1133 32.1017C8.65667 32.1017 7.54833 28.31 4.22333 28.31C2.00667 28.31 1.33 31.0167 0 31.0167V35.8817C1.33 35.8817 1.995 33.1983 4.235 33.1983C7.56 33.1983 8.66833 36.9783 13.1017 36.9783C15.33 36.9783 16.4383 33.1867 18.6667 33.1867C22.0033 33.1867 23.1117 36.9783 27.5683 36.9783C29.785 36.9783 30.8817 33.1867 33.11 33.1867C36.4467 33.1867 37.555 36.9783 42.0117 36.9783C44.2283 36.9783 45.3367 33.1867 47.5533 33.1867C50.89 33.1867 51.9983 36.9783 56.4433 36.9783C58.66 36.9783 59.78 33.1867 61.9967 33.1867C65.3333 33.1867 66.4533 36.9783 70.8867 36.9783C73.1033 36.9783 73.8267 35.8933 74.6667 35.1233V29.535ZM74.6667 20.05C73.8267 20.8317 73.115 22.6283 70.8867 22.6283C66.4417 22.6283 65.3333 18.8367 61.9967 18.8367C59.78 18.8367 58.6717 22.6283 56.4433 22.6283C51.9983 22.6283 50.89 18.8367 47.5533 18.8367C45.3367 18.8367 44.2283 22.6283 42.0117 22.6283C37.555 22.6283 36.4467 18.8367 33.11 18.8367C30.8933 18.8367 29.7733 22.6283 27.5567 22.6283C23.1117 22.6283 22.0033 18.8367 18.6667 18.8367C16.45 18.8367 15.33 22.6283 13.1133 22.6283C8.65667 22.6283 7.54833 18.8367 4.22333 18.8367C2.00667 18.8483 1.33 21.555 0 21.555V26.4317C1.33 26.4317 1.995 23.7367 4.22333 23.7367C7.54833 23.7367 8.66833 27.5283 13.1133 27.5283C15.33 27.5283 16.4383 23.7367 18.6667 23.7367C22.0033 23.7367 23.1117 27.5283 27.5683 27.5283C29.785 27.5283 30.8817 23.7367 33.0983 23.7367C36.4467 23.7367 37.555 27.5283 42 27.5283C44.2167 27.5283 45.3367 23.7367 47.5533 23.7367C50.89 23.7367 51.9983 27.5283 56.4433 27.5283C58.66 27.5283 59.78 23.7367 61.9967 23.7367C65.3333 23.7367 66.4533 27.5283 70.8867 27.5283C73.1033 27.5283 73.8267 26.4433 74.6667 25.6733V20.0733V20.05ZM74.6667 10.6C73.8267 11.37 73.115 13.1667 70.8867 13.1667C66.4417 13.1667 65.3333 9.375 61.9967 9.375C59.78 9.375 58.6717 13.1667 56.4433 13.1667C51.9983 13.1667 50.89 9.375 47.5533 9.375C45.3367 9.375 44.2283 13.1667 42.0117 13.1667C37.555 13.1667 36.4467 9.375 33.11 9.375C30.8933 9.375 29.7733 13.1667 27.5567 13.1667C23.1 13.1667 22.0033 9.375 18.6667 9.375C16.45 9.375 15.33 13.1667 13.1133 13.1667C8.65667 13.1667 7.54833 9.375 4.22333 9.375C2.00667 9.375 1.33 12.0817 0 12.0817V16.97C1.33 16.9583 1.995 14.275 4.22333 14.275C7.54833 14.275 8.66833 18.055 13.1133 18.055C15.33 18.055 16.4383 14.275 18.6667 14.275C22.0033 14.275 23.1117 18.055 27.5683 18.055C29.785 18.055 30.8817 14.275 33.0983 14.275C36.4467 14.275 37.555 18.055 42 18.055C44.2167 18.055 45.3367 14.275 47.5533 14.275C50.89 14.275 51.9983 18.055 56.4433 18.055C58.66 18.055 59.78 14.275 61.9967 14.275C65.3333 14.275 66.4533 18.055 70.8867 18.055C73.1033 18.055 73.8267 16.9817 74.6667 16.2117V10.6Z" fill="#000063"/>
<path fill-rule="evenodd" clip-rule="evenodd" d="M55.3934 24.74L54.985 63.1233C54.985 65.1417 56.8167 65.1417 57.015 63.1233L56.6067 24.74H55.3934Z" fill="#A24300" stroke="white" stroke-width="0.245"/>
<path fill-rule="evenodd" clip-rule="evenodd" d="M59.5818 39.0083L58.2984 37.62L57.9951 39.0316L57.4468 36.99L56.9218 38.0166L56.8284 35.8466L56.3151 36.8733L56.2218 34.7033L55.7084 35.73L55.4168 33.175L54.9034 34.2016L54.6001 31.6583L54.0751 32.685L53.7834 30.13L53.6318 28.8466L53.8884 28.345L54.5651 28.59L55.6268 29.605L57.7618 31.635L56.4434 31.1333L58.5784 33.1633L57.2484 32.6616L59.3834 34.68L58.0534 34.19L59.9901 35.8233L58.6718 35.3333L60.5968 36.9666L59.2784 36.4766L60.7484 38.25L59.2201 37.3633L59.5701 39.0316L59.5818 39.0083Z" fill="#006D00" stroke="white" stroke-width="0.21"/>
<path d="M59.5818 39.0083L53.9001 28.345M57.7618 31.635L54.7168 29.8616L54.0868 32.6733" stroke="black" stroke-width="0.035"/>
<path d="M58.5901 33.1517L55.5218 31.39L54.9034 34.2017" stroke="black" stroke-width="0.035"/>
<path d="M59.3951 34.6683L56.3384 32.9183L55.7084 35.7183" stroke="black" stroke-width="0.035"/>
<path d="M60.0017 35.8234L57.1434 34.4351L56.3267 36.8851" stroke="black" stroke-width="0.035"/>
<path d="M60.6084 36.9667L57.7501 35.5784L56.9334 38.0284" stroke="black" stroke-width="0.035"/>
<path d="M60.7601 38.2384L58.1584 36.3484L57.9951 39.0317" stroke="black" stroke-width="0.035"/>
<path fill-rule="evenodd" clip-rule="evenodd" d="M44.6834 20.7967L46.7601 21.59L46.1534 20.015L47.9734 21.8L47.7984 20.5167L49.2684 22.6633L49.0934 21.38L50.5634 23.5267L50.3884 22.2433L52.2901 24.67L52.1151 23.3867L54.0167 25.8133L53.8534 24.53L55.7434 26.9567L56.7001 28.17L56.7817 28.8117L56.0001 28.8817L54.3667 28.38L51.0767 27.365L52.6284 27.2367L49.3501 26.2217L50.9017 26.0933L47.6234 25.0783L49.1751 24.9383L46.3284 24.215L47.8801 24.0867L45.0334 23.3633L46.5851 23.2233L44.0767 22.1383L46.0717 22.29L44.6951 20.8083L44.6834 20.7967Z" fill="#006D00" stroke="white" stroke-width="0.233333"/>
<path d="M44.6834 20.7966L56.7817 28.8116M51.0767 27.365L55.0551 27.6683L53.8534 24.53" stroke="black" stroke-width="0.035"/>
<path d="M49.3501 26.2217L53.3168 26.525L52.1151 23.375" stroke="black" stroke-width="0.035"/>
<path d="M47.6235 25.0784L51.5901 25.3817L50.3885 22.2317" stroke="black" stroke-width="0.035"/>
<path d="M46.3168 24.215L49.8751 24.2267L49.0934 21.38" stroke="black" stroke-width="0.035"/>
<path d="M45.0334 23.3517L48.5801 23.3751L47.7984 20.5167" stroke="black" stroke-width="0.035"/>
<path d="M44.0767 22.1383L47.7051 22.8033L46.1651 20.015" stroke="black" stroke-width="0.035"/>
<path fill-rule="evenodd" clip-rule="evenodd" d="M68.8101 23.4683L67.0834 24.74L68.9968 24.95L66.3251 25.58L67.7484 26L64.8668 26.21L66.2901 26.63L63.4084 26.84L64.8201 27.2717L61.4484 27.6917L62.8718 28.1117L59.5001 28.5317L60.9234 28.9517L57.5518 29.3717L55.8601 29.5817L55.1601 29.3717L55.4168 28.7417L56.6651 27.6917L59.1501 25.58L58.6134 26.84L61.0984 24.74L60.5618 26L63.0468 23.9L62.5101 25.16L64.5168 23.2583L63.9918 24.53L65.9751 22.6283L65.4501 23.8883L67.6668 22.4183L66.6518 23.9L68.8218 23.48L68.8101 23.4683Z" fill="#006D00" stroke="white" stroke-width="0.233333"/>
<path d="M68.8101 23.4684L55.1601 29.3717M59.1384 25.58L57.1084 28.5317L60.9234 28.9517" stroke="black" stroke-width="0.035"/>
<path d="M61.0984 24.74L59.0568 27.6917L62.8718 28.1117" stroke="black" stroke-width="0.035"/>
<path d="M63.0467 23.8883L61.0051 26.84L64.8201 27.2716" stroke="black" stroke-width="0.035"/>
<path d="M64.5168 23.2583L62.9651 26L66.2901 26.63" stroke="black" stroke-width="0.035"/>
<path d="M65.9751 22.6283L64.4235 25.37L67.7485 26" stroke="black" stroke-width="0.035"/>
<path d="M67.6668 22.4183L65.4034 24.95H68.9851" stroke="black" stroke-width="0.035"/>
<path fill-rule="evenodd" clip-rule="evenodd" d="M68.5301 36.2433L66.3834 35.625L67.1534 37.1416L65.1584 35.5083L65.4618 36.7566L63.7701 34.75L64.0851 36.01L62.3934 33.9916L62.6968 35.2516L60.5384 32.9883L60.8534 34.2483L58.6951 31.985L59.0101 33.245L56.8518 30.9816L55.7784 29.85L55.6268 29.22L56.3968 29.08L58.0884 29.4533L61.4718 30.2L59.9318 30.4566L63.3151 31.2033L61.7751 31.46L65.1584 32.2066L63.6184 32.475L66.5351 32.965L64.9951 33.2216L67.9118 33.7116L66.3834 33.9916L68.9851 34.8666H67.0018L68.5184 36.2666L68.5301 36.2433Z" fill="#006D00" stroke="white" stroke-width="0.233333"/>
<path d="M68.5301 36.2433L55.6268 29.22M61.4601 30.2L57.4701 30.2233L59.0101 33.2566" stroke="black" stroke-width="0.035"/>
<path d="M63.3034 31.2034L59.3134 31.2267L60.8534 34.26" stroke="black" stroke-width="0.035"/>
<path d="M65.1468 32.2067L61.1568 32.23L62.6968 35.2633" stroke="black" stroke-width="0.035"/>
<path d="M66.5351 32.965L63.0001 33.2333L64.0851 36.01" stroke="black" stroke-width="0.035"/>
<path d="M67.9234 33.7234L64.3884 33.9801L65.4618 36.7567" stroke="black" stroke-width="0.035"/>
<path d="M68.9851 34.855L65.3101 34.4817L67.1534 37.1417" stroke="black" stroke-width="0.035"/>
<path fill-rule="evenodd" clip-rule="evenodd" d="M46.1068 36.9784L47.1918 35.4617L45.5468 35.7067L47.5768 34.5517L46.2818 34.4934L48.6151 33.6767L47.3201 33.6067L49.6534 32.79L48.3584 32.72L51.0418 31.6L49.7351 31.5417L52.4184 30.41L51.1234 30.3517L53.8068 29.2317L55.1484 28.66L55.8018 28.695L55.7551 29.3134L55.0201 30.5267L53.5501 32.9534L53.6434 31.7167L52.1734 34.1434L52.2551 32.895L50.7851 35.3217L50.8668 34.085L49.7468 36.2084L49.8284 34.9717L48.7084 37.095L48.7901 35.8584L47.3668 37.655L47.7984 36.115L46.1068 36.9784Z" fill="#006D00" stroke="white" stroke-width="0.21"/>
<path d="M46.1068 36.9783L55.7901 28.6949M53.5618 32.9533L54.4135 29.8733L51.1235 30.3516" stroke="black" stroke-width="0.035"/>
<path d="M52.1734 34.1434L53.025 31.0634L49.735 31.53" stroke="black" stroke-width="0.035"/>
<path d="M50.7851 35.3217L51.6485 32.2417L48.3585 32.72" stroke="black" stroke-width="0.035"/>
<path d="M49.7468 36.2083L50.2601 33.4316L47.3201 33.6066" stroke="black" stroke-width="0.035"/>
<path d="M48.7085 37.095L49.2218 34.3184L46.2818 34.4934" stroke="black" stroke-width="0.035"/>
<path d="M47.3668 37.655L48.5334 34.9133L45.5468 35.7067" stroke="black" stroke-width="0.035"/>
<path fill-rule="evenodd" clip-rule="evenodd" d="M65.6834 17.0983L63.5951 18.4983L63.2568 16.9933L62.0318 19.07L61.7984 18.0783L60.7951 20.2016L60.6551 19.2216L59.8734 21.4033L59.4301 20.3533L58.6484 23.0016L58.2051 21.9516L57.4234 24.6L56.9684 23.55L56.1868 26.1983L55.8018 27.5283L56.0234 28.0533L56.8634 27.7733L58.3101 26.7L61.2268 24.5533L59.5468 25.1016L62.4518 22.9433L60.7718 23.5033L63.6768 21.345L61.9968 21.905L64.9134 20.225L62.9301 20.6916L66.0334 19.0933L64.1318 19.5833L66.4301 17.7633L64.4468 18.7083L65.6834 17.0983Z" fill="#006D00" stroke="white" stroke-width="0.233333"/>
<path d="M64.8668 17.8567L61.8568 20.4467L56.0234 28.0534" stroke="black" stroke-width="0.035"/>
<path d="M60.5851 24.8684L57.2484 26.4434L56.9684 24.0167" stroke="black" stroke-width="0.035"/>
<path d="M61.8567 23.2817L58.4734 24.845L58.2051 22.4183" stroke="black" stroke-width="0.035"/>
<path d="M63.0584 21.6833L59.7101 23.2467L59.4534 20.8317" stroke="black" stroke-width="0.035"/>
<path d="M64.0617 20.4934L60.9351 21.6484L60.5851 19.665" stroke="black" stroke-width="0.035"/>
<path d="M65.2168 19.35L61.8568 20.4584L61.7401 18.545" stroke="black" stroke-width="0.035"/>
<path d="M65.6601 18.265L62.5568 19.8517L63.1634 17.4484" stroke="black" stroke-width="0.035"/>
<path fill-rule="evenodd" clip-rule="evenodd" d="M54.3784 14.485L55.3118 16.6083L56.5134 15.4883L56.3151 17.7983L57.1084 17.0517L56.6768 19.315L57.3768 18.545L56.7351 20.7617L57.7501 20.0617L56.8168 22.6633L57.8201 21.9633L56.8868 24.5883L57.9018 23.8883L56.9684 26.5017L56.5018 27.8083L55.9884 28.1583L55.4284 27.54L54.8451 25.9767L53.6784 22.8383L54.7751 24.0633L53.5968 20.9133L54.6934 22.15L53.5268 19L54.6001 20.225L53.1418 17.495L54.5418 18.79L52.8618 16.0017L54.1801 17.285L53.3284 14.695L54.4484 16.3983L54.3784 14.485Z" fill="#006D00" stroke="white" stroke-width="0.233333"/>
<path d="M54.6235 15.4883L55.6151 19.0466L55.9885 28.1466" stroke="black" stroke-width="0.035"/>
<path d="M54.0168 23.3983L55.9068 26.2333L57.6218 24.285" stroke="black" stroke-width="0.035"/>
<path d="M53.9001 21.4734L55.8251 24.3201L57.5401 22.3717" stroke="black" stroke-width="0.035"/>
<path d="M53.8417 19.5601L55.7551 22.4067L57.4351 20.4584" stroke="black" stroke-width="0.035"/>
<path d="M53.7134 18.1133L55.6734 20.4933L57.1901 18.9766" stroke="black" stroke-width="0.035"/>
<path d="M53.4334 16.6083L55.6151 19.0583L56.8984 17.4716" stroke="black" stroke-width="0.035"/>
<path d="M53.7017 15.4883L55.3817 18.2299L56.3267 15.9083" stroke="black" stroke-width="0.035"/>
<path fill-rule="evenodd" clip-rule="evenodd" d="M41.8834 30.1417L44.6018 28.2517L43.2368 27.5517L45.6284 27.9483L44.8118 26.8633L47.1218 27.7383L46.3051 26.6533L48.6268 27.5167L47.8101 26.4433L50.6101 27.3883L49.7934 26.3033L52.5118 27.715L51.6951 26.63L54.4951 27.5867L55.8601 28.2867L56.2684 28.8233L55.7201 29.2083L54.2151 29.4183L51.8001 30.4217L52.2434 29.5583L49.2451 29.9783L50.3301 29.2317L47.2618 30.1183L48.3584 29.36L45.7684 30.3283L46.9234 29.115L44.2634 30.5383L45.4301 29.325L43.2368 30.8417L44.4618 29.1617L41.8834 30.1417Z" fill="#006D00" stroke="white" stroke-width="0.221667"/>
<path d="M42.735 29.6284L45.5584 28.4034L47.0634 28.1934L48.3117 28.17L50.47 28.31L52.4184 28.3917L56.2684 28.8234" stroke="black" stroke-width="0.035"/>
<path d="M52.1734 30.0134L54.3318 28.6834L52.1384 26.9684" stroke="black" stroke-width="0.035"/>
<path d="M49.7584 29.815L52.4068 28.3917L50.2251 26.665" stroke="black" stroke-width="0.035"/>
<path d="M48.0318 29.7683L50.4701 28.31L48.2534 26.7117M44.8118 30.165L47.0634 28.1933L45.2434 27.2017" stroke="black" stroke-width="0.035"/>
<path d="M43.8084 30.2934L45.5584 28.415L44.1584 27.89M46.3051 29.955L48.5217 28.1817L46.7484 26.9684" stroke="black" stroke-width="0.035"/>
<path fill-rule="evenodd" clip-rule="evenodd" d="M51.0418 50.8082L51.0161 47.626L50.0941 46.1397C49.8633 45.4091 49.9764 45.0563 50.3507 45.0313C50.7234 45.0091 51.0931 45.2202 51.6303 45.2438C52.1675 45.2674 52.0664 44.4188 52.8601 44.4424C53.6538 44.466 55.0376 44.891 56.2146 44.9619C57.3931 45.0313 58.0072 44.5841 59.3653 44.5368C60.7234 44.4896 61.081 45.1258 61.158 45.1258C61.235 45.1258 61.6197 44.8674 62.003 44.8202C62.3878 44.773 62.5161 44.9619 62.5161 44.9619C62.5161 44.9619 62.4904 45.7633 62.3109 46.2342C62.1313 46.7065 61.4915 47.4843 61.4658 47.4843C61.4402 47.4843 61.235 50.9499 61.235 50.9735C61.235 50.9971 51.0418 50.879 51.0418 50.8082Z" fill="#CC0000" stroke="black" stroke-width="0.0144775"/>
<path fill-rule="evenodd" clip-rule="evenodd" d="M61.5856 47.5473C61.5856 47.5473 62.6117 46.825 62.6388 45.0874C62.6539 44.0873 62.1198 43.365 60.7828 43.365C58.9117 43.365 56.2393 44.1026 56.2393 44.1026V44.3484C56.2393 44.3484 58.3775 43.6108 60.7843 43.6108C61.8527 43.6108 62.3884 44.3331 62.3884 45.0721C62.3884 46.3027 61.317 47.5487 61.317 47.5487V49.5169H61.5856V47.5473Z" fill="#FFF100" stroke="black" stroke-width="0.0144775"/>
<path fill-rule="evenodd" clip-rule="evenodd" d="M62.1438 47.0334C62.141 47.0673 62.1459 47.1014 62.1581 47.1336C62.1703 47.1657 62.1896 47.1951 62.2147 47.2201C62.2399 47.245 62.2703 47.2649 62.3042 47.2785C62.3381 47.2921 62.3747 47.2992 62.4116 47.2992C62.4486 47.2992 62.4852 47.2921 62.5191 47.2785C62.5529 47.2649 62.5834 47.245 62.6086 47.2201C62.6337 47.1951 62.653 47.1657 62.6652 47.1336C62.6774 47.1014 62.6823 47.0673 62.6795 47.0334C62.6744 46.9712 62.644 46.9131 62.5943 46.8707C62.5446 46.8283 62.4794 46.8047 62.4116 46.8047C62.3439 46.8047 62.2786 46.8283 62.229 46.8707C62.1793 46.9131 62.1489 46.9712 62.1438 47.0334Z" fill="white" stroke="black" stroke-width="0.0144775"/>
<path fill-rule="evenodd" clip-rule="evenodd" d="M62.4089 46.4701C62.4062 46.504 62.411 46.5381 62.4232 46.5702C62.4354 46.6023 62.4547 46.6318 62.4799 46.6567C62.505 46.6817 62.5355 46.7016 62.5694 46.7152C62.6032 46.7288 62.6398 46.7358 62.6768 46.7358C62.7137 46.7358 62.7503 46.7288 62.7842 46.7152C62.8181 46.7016 62.8485 46.6817 62.8737 46.6567C62.8988 46.6318 62.9181 46.6023 62.9303 46.5702C62.9425 46.5381 62.9474 46.504 62.9446 46.4701C62.9395 46.4079 62.9091 46.3497 62.8595 46.3073C62.8098 46.2649 62.7445 46.2413 62.6768 46.2413C62.609 46.2413 62.5438 46.2649 62.4941 46.3073C62.4444 46.3497 62.414 46.4079 62.4089 46.4701Z" fill="white" stroke="black" stroke-width="0.0144775"/>
<path fill-rule="evenodd" clip-rule="evenodd" d="M62.5525 45.8956C62.5498 45.9295 62.5546 45.9636 62.5669 45.9957C62.5791 46.0279 62.5983 46.0573 62.6235 46.0823C62.6486 46.1072 62.6791 46.1271 62.713 46.1407C62.7469 46.1543 62.7834 46.1614 62.8204 46.1614C62.8574 46.1614 62.8939 46.1543 62.9278 46.1407C62.9617 46.1271 62.9922 46.1072 63.0173 46.0823C63.0424 46.0573 63.0617 46.0279 63.0739 45.9957C63.0861 45.9636 63.091 45.9295 63.0882 45.8956C63.0832 45.8334 63.0527 45.7753 63.0031 45.7329C62.9534 45.6904 62.8881 45.6669 62.8204 45.6669C62.7526 45.6669 62.6874 45.6904 62.6377 45.7329C62.588 45.7753 62.5576 45.8334 62.5525 45.8956Z" fill="white" stroke="black" stroke-width="0.0144775"/>
<path fill-rule="evenodd" clip-rule="evenodd" d="M62.652 45.2879C62.6492 45.3219 62.6541 45.356 62.6663 45.3881C62.6785 45.4202 62.6978 45.4497 62.7229 45.4746C62.748 45.4995 62.7785 45.5194 62.8124 45.5331C62.8463 45.5467 62.8828 45.5537 62.9198 45.5537C62.9568 45.5537 62.9934 45.5467 63.0272 45.5331C63.0611 45.5194 63.0916 45.4995 63.1167 45.4746C63.1419 45.4497 63.1611 45.4202 63.1734 45.3881C63.1856 45.356 63.1904 45.3219 63.1877 45.2879C63.1826 45.2257 63.1522 45.1676 63.1025 45.1252C63.0528 45.0828 62.9876 45.0592 62.9198 45.0592C62.8521 45.0592 62.7868 45.0828 62.7371 45.1252C62.6875 45.1676 62.657 45.2257 62.652 45.2879Z" fill="white" stroke="black" stroke-width="0.0144775"/>
<path fill-rule="evenodd" clip-rule="evenodd" d="M62.6299 44.6251C62.6271 44.659 62.632 44.6931 62.6442 44.7252C62.6564 44.7574 62.6757 44.7868 62.7008 44.8118C62.726 44.8367 62.7564 44.8566 62.7903 44.8702C62.8242 44.8838 62.8608 44.8908 62.8977 44.8908C62.9347 44.8908 62.9713 44.8838 63.0051 44.8702C63.039 44.8566 63.0695 44.8367 63.0946 44.8118C63.1198 44.7868 63.1391 44.7574 63.1513 44.7252C63.1635 44.6931 63.1683 44.659 63.1656 44.6251C63.1605 44.5629 63.1301 44.5048 63.0804 44.4623C63.0307 44.4199 62.9655 44.3964 62.8977 44.3964C62.83 44.3964 62.7647 44.4199 62.715 44.4623C62.6654 44.5048 62.635 44.5629 62.6299 44.6251Z" fill="white" stroke="black" stroke-width="0.0144775"/>
<path fill-rule="evenodd" clip-rule="evenodd" d="M61.7571 47.5306C61.7544 47.5645 61.7592 47.5986 61.7714 47.6308C61.7836 47.6629 61.8029 47.6923 61.8281 47.7173C61.8532 47.7422 61.8837 47.7621 61.9176 47.7757C61.9514 47.7893 61.988 47.7964 62.025 47.7964C62.0619 47.7964 62.0985 47.7893 62.1324 47.7757C62.1663 47.7621 62.1968 47.7422 62.2219 47.7173C62.247 47.6923 62.2663 47.6629 62.2785 47.6308C62.2907 47.5986 62.2956 47.5645 62.2928 47.5306C62.2877 47.4684 62.2573 47.4103 62.2077 47.3679C62.158 47.3255 62.0927 47.3019 62.025 47.3019C61.9572 47.3019 61.892 47.3255 61.8423 47.3679C61.7926 47.4103 61.7622 47.4684 61.7571 47.5306Z" fill="white" stroke="black" stroke-width="0.0144775"/>
<path fill-rule="evenodd" clip-rule="evenodd" d="M62.3979 43.9953C62.3951 44.0293 62.4 44.0634 62.4122 44.0955C62.4244 44.1276 62.4437 44.157 62.4688 44.182C62.494 44.2069 62.5244 44.2268 62.5583 44.2405C62.5922 44.2541 62.6288 44.2611 62.6657 44.2611C62.7027 44.2611 62.7393 44.2541 62.7731 44.2405C62.807 44.2268 62.8375 44.2069 62.8626 44.182C62.8878 44.157 62.9071 44.1276 62.9193 44.0955C62.9315 44.0634 62.9363 44.0293 62.9336 43.9953C62.9285 43.9331 62.8981 43.875 62.8484 43.8326C62.7987 43.7902 62.7335 43.7666 62.6657 43.7666C62.598 43.7666 62.5327 43.7902 62.4831 43.8326C62.4334 43.875 62.403 43.9331 62.3979 43.9953Z" fill="white" stroke="black" stroke-width="0.0144775"/>
<path fill-rule="evenodd" clip-rule="evenodd" d="M61.9008 43.4983C61.898 43.5322 61.9029 43.5663 61.9151 43.5984C61.9273 43.6305 61.9465 43.66 61.9717 43.6849C61.9968 43.7099 62.0273 43.7298 62.0612 43.7434C62.0951 43.757 62.1316 43.764 62.1686 43.764C62.2056 43.764 62.2421 43.757 62.276 43.7434C62.3099 43.7298 62.3404 43.7099 62.3655 43.6849C62.3907 43.66 62.4099 43.6305 62.4221 43.5984C62.4343 43.5663 62.4392 43.5322 62.4364 43.4983C62.4314 43.4361 62.4009 43.3779 62.3513 43.3355C62.3016 43.2931 62.2364 43.2695 62.1686 43.2695C62.1008 43.2695 62.0356 43.2931 61.9859 43.3355C61.9362 43.3779 61.9058 43.4361 61.9008 43.4983Z" fill="white" stroke="black" stroke-width="0.0144775"/>
<path fill-rule="evenodd" clip-rule="evenodd" d="M61.2378 43.1668C61.2351 43.2008 61.24 43.2349 61.2522 43.267C61.2644 43.2991 61.2836 43.3286 61.3088 43.3535C61.3339 43.3785 61.3644 43.3984 61.3983 43.412C61.4322 43.4256 61.4687 43.4326 61.5057 43.4326C61.5427 43.4326 61.5792 43.4256 61.6131 43.412C61.647 43.3984 61.6775 43.3785 61.7026 43.3535C61.7277 43.3286 61.747 43.2991 61.7592 43.267C61.7714 43.2349 61.7763 43.2008 61.7735 43.1668C61.7685 43.1046 61.738 43.0465 61.6884 43.0041C61.6387 42.9617 61.5734 42.9381 61.5057 42.9381C61.4379 42.9381 61.3727 42.9617 61.323 43.0041C61.2733 43.0465 61.2429 43.1046 61.2378 43.1668Z" fill="white" stroke="black" stroke-width="0.0144775"/>
<path fill-rule="evenodd" clip-rule="evenodd" d="M60.5751 43.1226C60.5723 43.1566 60.5772 43.1907 60.5894 43.2228C60.6016 43.2549 60.6209 43.2844 60.646 43.3093C60.6711 43.3343 60.7016 43.3542 60.7355 43.3678C60.7694 43.3814 60.8059 43.3884 60.8429 43.3884C60.8799 43.3884 60.9165 43.3814 60.9503 43.3678C60.9842 43.3542 61.0147 43.3343 61.0398 43.3093C61.065 43.2844 61.0842 43.2549 61.0964 43.2228C61.1087 43.1907 61.1135 43.1566 61.1108 43.1226C61.1057 43.0605 61.0753 43.0023 61.0256 42.9599C60.9759 42.9175 60.9107 42.8939 60.8429 42.8939C60.7752 42.8939 60.7099 42.9175 60.6602 42.9599C60.6106 43.0023 60.5801 43.0605 60.5751 43.1226Z" fill="white" stroke="black" stroke-width="0.0144775"/>
<path fill-rule="evenodd" clip-rule="evenodd" d="M59.8569 43.1447C59.8542 43.1787 59.859 43.2128 59.8712 43.2449C59.8834 43.277 59.9027 43.3065 59.9279 43.3314C59.953 43.3564 59.9835 43.3763 60.0174 43.3899C60.0512 43.4035 60.0878 43.4105 60.1248 43.4105C60.1617 43.4105 60.1983 43.4035 60.2322 43.3899C60.2661 43.3763 60.2965 43.3564 60.3217 43.3314C60.3468 43.3065 60.3661 43.277 60.3783 43.2449C60.3905 43.2128 60.3954 43.1787 60.3926 43.1447C60.3875 43.0825 60.3571 43.0244 60.3074 42.982C60.2578 42.9396 60.1925 42.916 60.1248 42.916C60.057 42.916 59.9918 42.9396 59.9421 42.982C59.8924 43.0244 59.862 43.0825 59.8569 43.1447Z" fill="white" stroke="black" stroke-width="0.0144775"/>
<path fill-rule="evenodd" clip-rule="evenodd" d="M59.1389 43.2441C59.1361 43.278 59.141 43.3121 59.1532 43.3443C59.1654 43.3764 59.1847 43.4058 59.2098 43.4308C59.235 43.4557 59.2655 43.4756 59.2993 43.4892C59.3332 43.5028 59.3698 43.5099 59.4068 43.5099C59.4437 43.5099 59.4803 43.5028 59.5142 43.4892C59.5481 43.4756 59.5785 43.4557 59.6037 43.4308C59.6288 43.4058 59.6481 43.3764 59.6603 43.3443C59.6725 43.3121 59.6774 43.278 59.6746 43.2441C59.6695 43.1819 59.6391 43.1238 59.5894 43.0814C59.5398 43.039 59.4745 43.0154 59.4068 43.0154C59.339 43.0154 59.2738 43.039 59.2241 43.0814C59.1744 43.1238 59.144 43.1819 59.1389 43.2441Z" fill="white" stroke="black" stroke-width="0.0144775"/>
<path fill-rule="evenodd" clip-rule="evenodd" d="M58.4318 43.3325C58.4291 43.3664 58.4339 43.4005 58.4461 43.4326C58.4583 43.4648 58.4776 43.4942 58.5028 43.5192C58.5279 43.5441 58.5584 43.564 58.5922 43.5776C58.6261 43.5912 58.6627 43.5982 58.6997 43.5982C58.7366 43.5982 58.7732 43.5912 58.8071 43.5776C58.841 43.564 58.8714 43.5441 58.8966 43.5192C58.9217 43.4942 58.941 43.4648 58.9532 43.4326C58.9654 43.4005 58.9703 43.3664 58.9675 43.3325C58.9624 43.2703 58.932 43.2122 58.8823 43.1697C58.8327 43.1273 58.7674 43.1038 58.6997 43.1038C58.6319 43.1038 58.5667 43.1273 58.517 43.1697C58.4673 43.2122 58.4369 43.2703 58.4318 43.3325Z" fill="white" stroke="black" stroke-width="0.0144775"/>
<path fill-rule="evenodd" clip-rule="evenodd" d="M57.6585 43.443C57.6557 43.4769 57.6606 43.511 57.6728 43.5431C57.685 43.5752 57.7043 43.6047 57.7294 43.6296C57.7546 43.6546 57.785 43.6745 57.8189 43.6881C57.8528 43.7017 57.8894 43.7087 57.9263 43.7087C57.9633 43.7087 57.9999 43.7017 58.0338 43.6881C58.0677 43.6745 58.0981 43.6546 58.1233 43.6296C58.1484 43.6047 58.1677 43.5752 58.1799 43.5431C58.1921 43.511 58.197 43.4769 58.1942 43.443C58.1891 43.3808 58.1587 43.3226 58.109 43.2802C58.0594 43.2378 57.9941 43.2142 57.9263 43.2142C57.8586 43.2142 57.7933 43.2378 57.7437 43.2802C57.694 43.3226 57.6636 43.3808 57.6585 43.443Z" fill="white" stroke="black" stroke-width="0.0144775"/>
<path fill-rule="evenodd" clip-rule="evenodd" d="M56.9957 43.6197C56.9929 43.6536 56.9978 43.6877 57.01 43.7199C57.0222 43.752 57.0415 43.7814 57.0666 43.8064C57.0917 43.8313 57.1222 43.8512 57.1561 43.8648C57.19 43.8785 57.2265 43.8855 57.2635 43.8855C57.3005 43.8855 57.337 43.8785 57.3709 43.8648C57.4048 43.8512 57.4353 43.8313 57.4604 43.8064C57.4856 43.7814 57.5048 43.752 57.517 43.7199C57.5292 43.6877 57.5341 43.6536 57.5313 43.6197C57.5263 43.5575 57.4959 43.4994 57.4462 43.457C57.3965 43.4146 57.3313 43.391 57.2635 43.391C57.1958 43.391 57.1305 43.4146 57.0808 43.457C57.0312 43.4994 57.0007 43.5575 56.9957 43.6197Z" fill="white" stroke="black" stroke-width="0.0144775"/>
<path fill-rule="evenodd" clip-rule="evenodd" d="M50.3327 47.0334C50.3355 47.0673 50.3306 47.1014 50.3184 47.1336C50.3062 47.1657 50.2869 47.1951 50.2618 47.2201C50.2366 47.245 50.2062 47.2649 50.1723 47.2785C50.1384 47.2921 50.1018 47.2992 50.0649 47.2992C50.0279 47.2992 49.9913 47.2921 49.9574 47.2785C49.9236 47.2649 49.8931 47.245 49.868 47.2201C49.8428 47.1951 49.8235 47.1657 49.8113 47.1336C49.7991 47.1014 49.7943 47.0673 49.797 47.0334C49.8021 46.9712 49.8325 46.9131 49.8822 46.8707C49.9319 46.8283 49.9971 46.8047 50.0649 46.8047C50.1326 46.8047 50.1979 46.8283 50.2475 46.8707C50.2972 46.9131 50.3276 46.9712 50.3327 47.0334Z" fill="white" stroke="black" stroke-width="0.0144775"/>
<path fill-rule="evenodd" clip-rule="evenodd" d="M50.0565 46.4701C50.0593 46.504 50.0544 46.5381 50.0422 46.5702C50.03 46.6023 50.0107 46.6318 49.9856 46.6567C49.9604 46.6817 49.93 46.7016 49.8961 46.7152C49.8622 46.7288 49.8256 46.7358 49.7887 46.7358C49.7517 46.7358 49.7151 46.7288 49.6813 46.7152C49.6474 46.7016 49.6169 46.6817 49.5918 46.6567C49.5666 46.6318 49.5473 46.6023 49.5351 46.5702C49.5229 46.5381 49.5181 46.504 49.5208 46.4701C49.5259 46.4079 49.5563 46.3497 49.606 46.3073C49.6557 46.2649 49.7209 46.2413 49.7887 46.2413C49.8564 46.2413 49.9217 46.2649 49.9714 46.3073C50.021 46.3497 50.0514 46.4079 50.0565 46.4701Z" fill="white" stroke="black" stroke-width="0.0144775"/>
<path fill-rule="evenodd" clip-rule="evenodd" d="M49.9239 45.8955C49.9267 45.9294 49.9218 45.9635 49.9096 45.9956C49.8974 46.0277 49.8781 46.0572 49.853 46.0821C49.8278 46.1071 49.7974 46.127 49.7635 46.1406C49.7296 46.1542 49.693 46.1612 49.656 46.1612C49.6191 46.1612 49.5825 46.1542 49.5486 46.1406C49.5147 46.127 49.4843 46.1071 49.4591 46.0821C49.434 46.0572 49.4147 46.0277 49.4025 45.9956C49.3903 45.9635 49.3854 45.9294 49.3882 45.8955C49.3933 45.8333 49.4237 45.7752 49.4734 45.7327C49.523 45.6903 49.5883 45.6667 49.656 45.6667C49.7238 45.6667 49.7891 45.6903 49.8387 45.7327C49.8884 45.7752 49.9188 45.8333 49.9239 45.8955Z" fill="white" stroke="black" stroke-width="0.0144775"/>
<path fill-rule="evenodd" clip-rule="evenodd" d="M49.8245 45.2879C49.8273 45.3219 49.8224 45.356 49.8102 45.3881C49.798 45.4202 49.7787 45.4497 49.7536 45.4746C49.7285 45.4995 49.698 45.5194 49.6641 45.5331C49.6302 45.5467 49.5937 45.5537 49.5567 45.5537C49.5197 45.5537 49.4831 45.5467 49.4493 45.5331C49.4154 45.5194 49.3849 45.4995 49.3598 45.4746C49.3346 45.4497 49.3154 45.4202 49.3031 45.3881C49.2909 45.356 49.2861 45.3219 49.2888 45.2879C49.2939 45.2257 49.3243 45.1676 49.374 45.1252C49.4237 45.0828 49.4889 45.0592 49.5567 45.0592C49.6244 45.0592 49.6897 45.0828 49.7394 45.1252C49.789 45.1676 49.8195 45.2257 49.8245 45.2879Z" fill="white" stroke="black" stroke-width="0.0144775"/>
<path fill-rule="evenodd" clip-rule="evenodd" d="M49.8466 44.6251C49.8494 44.659 49.8445 44.6931 49.8323 44.7252C49.8201 44.7574 49.8008 44.7868 49.7757 44.8118C49.7505 44.8367 49.7201 44.8566 49.6862 44.8702C49.6523 44.8838 49.6157 44.8908 49.5788 44.8908C49.5418 44.8908 49.5052 44.8838 49.4714 44.8702C49.4375 44.8566 49.407 44.8367 49.3819 44.8118C49.3567 44.7868 49.3374 44.7574 49.3252 44.7252C49.313 44.6931 49.3082 44.659 49.3109 44.6251C49.316 44.5629 49.3464 44.5048 49.3961 44.4623C49.4458 44.4199 49.511 44.3964 49.5788 44.3964C49.6465 44.3964 49.7118 44.4199 49.7615 44.4623C49.8111 44.5048 49.8415 44.5629 49.8466 44.6251Z" fill="white" stroke="black" stroke-width="0.0144775"/>
<path fill-rule="evenodd" clip-rule="evenodd" d="M50.0675 43.9953C50.0703 44.0293 50.0654 44.0634 50.0532 44.0955C50.041 44.1276 50.0217 44.157 49.9966 44.182C49.9714 44.2069 49.941 44.2268 49.9071 44.2405C49.8732 44.2541 49.8366 44.2611 49.7997 44.2611C49.7627 44.2611 49.7261 44.2541 49.6922 44.2405C49.6584 44.2268 49.6279 44.2069 49.6028 44.182C49.5776 44.157 49.5583 44.1276 49.5461 44.0955C49.5339 44.0634 49.5291 44.0293 49.5318 43.9953C49.5369 43.9331 49.5673 43.875 49.617 43.8326C49.6667 43.7902 49.7319 43.7666 49.7997 43.7666C49.8674 43.7666 49.9327 43.7902 49.9823 43.8326C50.032 43.875 50.0624 43.9331 50.0675 43.9953Z" fill="white" stroke="black" stroke-width="0.0144775"/>
<path fill-rule="evenodd" clip-rule="evenodd" d="M50.5536 43.4983C50.5564 43.5322 50.5515 43.5663 50.5393 43.5984C50.5271 43.6305 50.5078 43.66 50.4827 43.6849C50.4575 43.7099 50.4271 43.7298 50.3932 43.7434C50.3593 43.757 50.3227 43.764 50.2857 43.764C50.2488 43.764 50.2122 43.757 50.1783 43.7434C50.1444 43.7298 50.114 43.7099 50.0888 43.6849C50.0637 43.66 50.0444 43.6305 50.0322 43.5984C50.02 43.5663 50.0151 43.5322 50.0179 43.4983C50.023 43.4361 50.0534 43.3779 50.1031 43.3355C50.1527 43.2931 50.218 43.2695 50.2857 43.2695C50.3535 43.2695 50.4188 43.2931 50.4684 43.3355C50.5181 43.3779 50.5485 43.4361 50.5536 43.4983Z" fill="white" stroke="black" stroke-width="0.0144775"/>
<path fill-rule="evenodd" clip-rule="evenodd" d="M51.2275 43.1668C51.2303 43.2008 51.2254 43.2349 51.2132 43.267C51.201 43.2991 51.1818 43.3286 51.1566 43.3535C51.1315 43.3785 51.101 43.3984 51.0671 43.412C51.0332 43.4256 50.9967 43.4326 50.9597 43.4326C50.9227 43.4326 50.8862 43.4256 50.8523 43.412C50.8184 43.3984 50.7879 43.3785 50.7628 43.3535C50.7376 43.3286 50.7184 43.2991 50.7062 43.267C50.694 43.2349 50.6891 43.2008 50.6919 43.1668C50.6969 43.1046 50.7274 43.0465 50.777 43.0041C50.8267 42.9617 50.8919 42.9381 50.9597 42.9381C51.0275 42.9381 51.0927 42.9617 51.1424 43.0041C51.192 43.0465 51.2225 43.1046 51.2275 43.1668Z" fill="white" stroke="black" stroke-width="0.0144775"/>
<path fill-rule="evenodd" clip-rule="evenodd" d="M51.8904 43.1226C51.8932 43.1566 51.8883 43.1907 51.8761 43.2228C51.8639 43.2549 51.8446 43.2844 51.8195 43.3093C51.7943 43.3343 51.7638 43.3542 51.73 43.3678C51.6961 43.3814 51.6595 43.3884 51.6225 43.3884C51.5856 43.3884 51.549 43.3814 51.5151 43.3678C51.4812 43.3542 51.4508 43.3343 51.4256 43.3093C51.4005 43.2844 51.3812 43.2549 51.369 43.2228C51.3568 43.1907 51.3519 43.1566 51.3547 43.1226C51.3598 43.0605 51.3902 43.0023 51.4399 42.9599C51.4895 42.9175 51.5548 42.8939 51.6225 42.8939C51.6903 42.8939 51.7555 42.9175 51.8052 42.9599C51.8549 43.0023 51.8853 43.0605 51.8904 43.1226Z" fill="white" stroke="black" stroke-width="0.0144775"/>
<path fill-rule="evenodd" clip-rule="evenodd" d="M52.6085 43.1447C52.6113 43.1787 52.6064 43.2128 52.5942 43.2449C52.582 43.277 52.5627 43.3065 52.5376 43.3314C52.5125 43.3564 52.482 43.3763 52.4481 43.3899C52.4142 43.4035 52.3776 43.4105 52.3407 43.4105C52.3037 43.4105 52.2671 43.4035 52.2333 43.3899C52.1994 43.3763 52.1689 43.3564 52.1438 43.3314C52.1186 43.3065 52.0993 43.277 52.0871 43.2449C52.0749 43.2128 52.0701 43.1787 52.0728 43.1447C52.0779 43.0825 52.1083 43.0244 52.158 42.982C52.2077 42.9396 52.2729 42.916 52.3407 42.916C52.4084 42.916 52.4737 42.9396 52.5234 42.982C52.573 43.0244 52.6035 43.0825 52.6085 43.1447Z" fill="white" stroke="black" stroke-width="0.0144775"/>
<path fill-rule="evenodd" clip-rule="evenodd" d="M53.3265 43.2441C53.3293 43.278 53.3244 43.3121 53.3122 43.3443C53.3 43.3764 53.2808 43.4058 53.2556 43.4308C53.2305 43.4557 53.2 43.4756 53.1661 43.4892C53.1322 43.5028 53.0957 43.5099 53.0587 43.5099C53.0217 43.5099 52.9852 43.5028 52.9513 43.4892C52.9174 43.4756 52.8869 43.4557 52.8618 43.4308C52.8366 43.4058 52.8174 43.3764 52.8052 43.3443C52.793 43.3121 52.7881 43.278 52.7909 43.2441C52.7959 43.1819 52.8264 43.1238 52.876 43.0814C52.9257 43.039 52.9909 43.0154 53.0587 43.0154C53.1265 43.0154 53.1917 43.039 53.2414 43.0814C53.291 43.1238 53.3215 43.1819 53.3265 43.2441Z" fill="white" stroke="black" stroke-width="0.0144775"/>
<path fill-rule="evenodd" clip-rule="evenodd" d="M54.0447 43.3325C54.0475 43.3664 54.0426 43.4005 54.0304 43.4326C54.0182 43.4648 53.9989 43.4942 53.9738 43.5192C53.9486 43.5441 53.9181 43.564 53.8843 43.5776C53.8504 43.5912 53.8138 43.5982 53.7768 43.5982C53.7399 43.5982 53.7033 43.5912 53.6694 43.5776C53.6355 43.564 53.6051 43.5441 53.5799 43.5192C53.5548 43.4942 53.5355 43.4648 53.5233 43.4326C53.5111 43.4005 53.5062 43.3664 53.509 43.3325C53.5141 43.2703 53.5445 43.2122 53.5942 43.1697C53.6438 43.1273 53.7091 43.1038 53.7768 43.1038C53.8446 43.1038 53.9098 43.1273 53.9595 43.1697C54.0092 43.2122 54.0396 43.2703 54.0447 43.3325Z" fill="white" stroke="black" stroke-width="0.0144775"/>
<path fill-rule="evenodd" clip-rule="evenodd" d="M54.807 43.443C54.8097 43.4769 54.8048 43.511 54.7926 43.5431C54.7804 43.5752 54.7612 43.6047 54.736 43.6296C54.7109 43.6546 54.6804 43.6745 54.6465 43.6881C54.6126 43.7017 54.5761 43.7087 54.5391 43.7087C54.5021 43.7087 54.4656 43.7017 54.4317 43.6881C54.3978 43.6745 54.3673 43.6546 54.3422 43.6296C54.3171 43.6047 54.2978 43.5752 54.2856 43.5431C54.2734 43.511 54.2685 43.4769 54.2713 43.443C54.2763 43.3808 54.3068 43.3226 54.3564 43.2802C54.4061 43.2378 54.4714 43.2142 54.5391 43.2142C54.6069 43.2142 54.6721 43.2378 54.7218 43.2802C54.7715 43.3226 54.8019 43.3808 54.807 43.443Z" fill="white" stroke="black" stroke-width="0.0144775"/>
<path fill-rule="evenodd" clip-rule="evenodd" d="M55.4698 43.6197C55.4726 43.6536 55.4677 43.6877 55.4555 43.7199C55.4433 43.752 55.424 43.7814 55.3989 43.8064C55.3737 43.8313 55.3433 43.8512 55.3094 43.8648C55.2755 43.8785 55.2389 43.8855 55.2019 43.8855C55.165 43.8855 55.1284 43.8785 55.0945 43.8648C55.0606 43.8512 55.0302 43.8313 55.005 43.8064C54.9799 43.7814 54.9606 43.752 54.9484 43.7199C54.9362 43.6877 54.9313 43.6536 54.9341 43.6197C54.9392 43.5575 54.9696 43.4994 55.0193 43.457C55.0689 43.4146 55.1342 43.391 55.2019 43.391C55.2697 43.391 55.335 43.4146 55.3846 43.457C55.4343 43.4994 55.4647 43.5575 55.4698 43.6197Z" fill="white" stroke="black" stroke-width="0.0144775"/>
<path fill-rule="evenodd" clip-rule="evenodd" d="M50.7083 47.5306C50.7111 47.5645 50.7062 47.5986 50.694 47.6308C50.6818 47.6629 50.6625 47.6923 50.6374 47.7173C50.6122 47.7422 50.5818 47.7621 50.5479 47.7757C50.514 47.7893 50.4774 47.7964 50.4405 47.7964C50.4035 47.7964 50.3669 47.7893 50.3331 47.7757C50.2992 47.7621 50.2687 47.7422 50.2436 47.7173C50.2184 47.6923 50.1991 47.6629 50.1869 47.6308C50.1747 47.5986 50.1699 47.5645 50.1726 47.5306C50.1777 47.4684 50.2081 47.4103 50.2578 47.3679C50.3075 47.3255 50.3727 47.3019 50.4405 47.3019C50.5082 47.3019 50.5735 47.3255 50.6231 47.3679C50.6728 47.4103 50.7032 47.4684 50.7083 47.5306Z" fill="white" stroke="black" stroke-width="0.0144775"/>
<path fill-rule="evenodd" clip-rule="evenodd" d="M50.8909 47.5473C50.8909 47.5473 49.8648 46.825 49.8377 45.0874C49.8226 44.0873 50.3567 43.365 51.6937 43.365C53.5648 43.365 56.2372 44.1026 56.2372 44.1026V44.3484C56.2372 44.3484 54.099 43.6108 51.6922 43.6108C50.6238 43.6108 50.0881 44.3331 50.0881 45.0721C50.0881 46.3027 51.1595 47.5487 51.1595 47.5487V49.5169H50.8909V47.5473Z" fill="#FFF100" stroke="black" stroke-width="0.0144775"/>
<path fill-rule="evenodd" clip-rule="evenodd" d="M52.7545 48.4594C52.7545 48.4594 52.8315 48.2721 53.1111 48.2721C53.3013 48.2721 53.4673 48.4594 53.4673 48.6467V49.0219H53.6458V48.6467C53.6458 48.4594 53.8239 48.2721 54.0019 48.2721C54.2695 48.2721 54.3586 48.4594 54.3586 48.4594C54.3586 48.4594 54.3586 47.8969 54.0019 47.8969C53.7349 47.8969 53.6458 48.0842 53.6458 48.0842C53.6458 48.0842 53.7349 47.8032 53.7349 47.5217C53.7349 47.2402 53.5568 47.0529 53.5568 47.0529C53.5568 47.0888 53.3782 47.2407 53.3782 47.5217C53.3782 47.8027 53.4673 48.0842 53.4673 48.0842C53.4673 48.0842 53.3782 47.8969 53.1111 47.8969C52.7545 47.8969 52.7545 48.4594 52.7545 48.4594Z" fill="#FFF100" stroke="black" stroke-width="0.0154776"/>
<path fill-rule="evenodd" clip-rule="evenodd" d="M58.1014 48.4594C58.1014 48.4594 58.1784 48.2721 58.4581 48.2721C58.6482 48.2721 58.8142 48.4594 58.8142 48.6467V49.0219H58.9927V48.6467C58.9927 48.4594 59.1708 48.2721 59.3489 48.2721C59.6165 48.2721 59.7055 48.4594 59.7055 48.4594C59.7055 48.4594 59.7055 47.8969 59.3489 47.8969C59.0818 47.8969 58.9927 48.0842 58.9927 48.0842C58.9927 48.0842 59.0818 47.8032 59.0818 47.5217C59.0818 47.2402 58.9037 47.0529 58.9037 47.0529C58.9037 47.0888 58.7252 47.2407 58.7252 47.5217C58.7252 47.8027 58.8142 48.0842 58.8142 48.0842C58.8142 48.0842 58.7252 47.8969 58.4581 47.8969C58.1014 47.8969 58.1014 48.4594 58.1014 48.4594Z" fill="#FFF100" stroke="black" stroke-width="0.0154776"/>
<path fill-rule="evenodd" clip-rule="evenodd" d="M50.8909 50.9933V48.7779C50.8909 48.7779 51.4251 49.5168 52.2279 49.5168C52.8843 49.5168 53.5648 48.532 53.5648 48.532C53.5648 48.532 54.1911 49.271 54.9018 49.271C55.5356 49.271 56.2372 48.3181 56.2372 48.3181C56.2372 48.3181 56.8891 49.271 57.5742 49.271C58.2608 49.271 58.9112 48.532 58.9112 48.532C58.9112 48.532 59.6098 49.5168 60.5152 49.5168C61.3165 49.5168 61.5851 48.7779 61.5851 48.7779V50.9933H50.8909Z" fill="#FFF100" stroke="black" stroke-width="0.0144775"/>
<path fill-rule="evenodd" clip-rule="evenodd" d="M50.8913 50.9934V49.271C50.8913 49.271 52.4953 49.7613 52.4953 50.9934H50.8913Z" fill="#FFF100" stroke="black" stroke-width="0.0144775"/>
<path fill-rule="evenodd" clip-rule="evenodd" d="M61.574 50.9934V49.271C61.574 49.271 59.97 49.7613 59.97 50.9934H61.574Z" fill="#FFF100" stroke="black" stroke-width="0.0144775"/>
<path fill-rule="evenodd" clip-rule="evenodd" d="M51.9608 50.9933C51.9608 49.7612 53.5649 48.9834 53.5649 48.9834C53.5649 48.9834 55.1689 49.7612 55.1689 50.9933H51.9608Z" fill="#FFF100" stroke="black" stroke-width="0.0144775"/>
<path fill-rule="evenodd" clip-rule="evenodd" d="M57.3077 50.9933C57.3077 49.7612 58.9118 48.9834 58.9118 48.9834C58.9118 48.9834 60.5158 49.7612 60.5158 50.9933H57.3077Z" fill="#FFF100" stroke="black" stroke-width="0.0144775"/>
<path fill-rule="evenodd" clip-rule="evenodd" d="M54.3657 51.0001C54.3657 49.7694 56.2383 48.786 56.2383 48.786C56.2383 48.786 58.1094 49.7694 58.1094 51.0001H54.3672H54.3657Z" fill="#FFF100" stroke="black" stroke-width="0.0144775"/>
<path fill-rule="evenodd" clip-rule="evenodd" d="M61.847 50.9956C61.3188 50.7498 59.3703 50.5039 56.2327 50.5039C53.0951 50.5039 51.0108 50.7498 50.4812 50.9956C49.953 51.2415 49.953 51.7346 50.4812 51.9804C51.0094 52.2263 53.0966 52.4721 56.2327 52.4721C59.3688 52.4721 61.3188 52.2263 61.847 51.9804C62.3752 51.7346 62.3752 51.2415 61.847 50.9956Z" fill="white" stroke="black" stroke-width="0.0143957"/>
<path fill-rule="evenodd" clip-rule="evenodd" d="M61.5852 51.9771C61.5852 52.4742 57.133 52.4742 56.2382 52.4742C55.266 52.4742 50.8912 52.6068 50.8912 51.9771C50.8912 51.491 55.2991 51.491 56.2382 51.491C57.1662 51.491 61.5852 51.5904 61.5852 51.9771Z" fill="#808080"/>
<path fill-rule="evenodd" clip-rule="evenodd" d="M51.4215 50.2095C51.4215 50.3752 51.311 50.5078 51.1563 50.5078C51.0016 50.5078 50.8912 50.3752 50.8912 50.2095C50.8912 50.0438 51.0016 49.9222 51.1563 49.9222C51.2999 49.9222 51.4215 50.0548 51.4215 50.2095ZM61.5852 50.2095C61.5852 50.3752 61.4636 50.5078 61.309 50.5078C61.1654 50.5078 61.0438 50.3752 61.0438 50.2095C61.0438 50.0438 61.1654 49.9222 61.309 49.9222C61.4636 49.9222 61.5741 50.0548 61.5741 50.2095H61.5852Z" fill="#CC0000"/>
<path fill-rule="evenodd" clip-rule="evenodd" d="M56.7684 50.0659C56.7684 50.2205 56.5254 50.3531 56.2382 50.3531C55.9509 50.3531 55.6968 50.2205 55.6968 50.0548C55.6968 49.8891 55.9399 49.7676 56.2382 49.7676C56.5364 49.7676 56.7684 49.9001 56.7684 50.0548V50.0659Z" fill="black"/>
<path fill-rule="evenodd" clip-rule="evenodd" d="M59.3314 50.0659C59.3314 50.2205 59.1547 50.3531 58.9337 50.3531C58.7128 50.3531 58.536 50.2205 58.536 50.0548C58.536 49.8891 58.7128 49.7676 58.9337 49.7676C59.1547 49.7676 59.3314 49.9001 59.3314 50.0548V50.0659ZM53.8298 50.0659C53.8298 50.2205 53.653 50.3531 53.4321 50.3531C53.2111 50.3531 53.0233 50.2205 53.0233 50.0548C53.0233 49.8891 53.2001 49.7676 53.4321 49.7676C53.653 49.7676 53.8298 49.9001 53.8298 50.0548V50.0659Z" fill="#006300"/>
<path fill-rule="evenodd" clip-rule="evenodd" d="M55.1643 48.3688C55.1643 48.3688 55.4695 47.9481 55.7756 47.9481H56.0808V48.2283C56.0808 48.6505 55.623 48.7918 55.623 48.7918H56.8448C56.8448 48.7918 56.3861 48.6505 56.3861 48.2283V47.9481H56.6922C56.9974 47.9481 57.3027 48.3703 57.3027 48.3703V47.244C57.3027 47.244 56.9974 47.6663 56.6922 47.6663H56.3861V47.3845C56.3861 46.963 56.8448 46.8225 56.8448 46.8225H55.6221C55.6221 46.8225 56.08 46.963 56.08 47.3845V47.6663H55.7747C55.4686 47.6663 55.1634 47.244 55.1634 47.244V48.3696L55.1643 48.3688Z" fill="#FFF100" stroke="black" stroke-width="0.0182007"/>
<path fill-rule="evenodd" clip-rule="evenodd" d="M50.8841 49.2735H51.1898C51.1898 49.2735 50.9604 49.1506 50.9604 48.7811V48.5359H51.1131C51.2661 48.5359 51.4192 48.9054 51.4192 48.9054V47.9198C51.4192 47.9198 51.2661 48.2893 51.1131 48.2893H50.9604V48.0428C50.9604 47.674 51.1898 47.551 51.1898 47.551H50.8841V49.2735Z" fill="#FFF100" stroke="black" stroke-width="0.0180592"/>
<path fill-rule="evenodd" clip-rule="evenodd" d="M61.5812 49.2735H61.2755C61.2755 49.2735 61.5049 49.1506 61.5049 48.7811V48.5359H61.3523C61.1992 48.5359 61.0461 48.9054 61.0461 48.9054V47.9198C61.0461 47.9198 61.1992 48.2893 61.3523 48.2893H61.5049V48.0428C61.5049 47.674 61.2755 47.551 61.2755 47.551H61.5812V49.2735Z" fill="#FFF100" stroke="black" stroke-width="0.0180592"/>
<path fill-rule="evenodd" clip-rule="evenodd" d="M56.5043 47.7944C56.5043 47.8596 56.4762 47.9222 56.4261 47.9683C56.376 48.0144 56.3081 48.0403 56.2372 48.0403C56.1664 48.0403 56.0985 48.0144 56.0484 47.9683C55.9983 47.9222 55.9702 47.8596 55.9702 47.7944C55.9702 47.7292 55.9983 47.6667 56.0484 47.6206C56.0985 47.5745 56.1664 47.5486 56.2372 47.5486C56.3081 47.5486 56.376 47.5745 56.4261 47.6206C56.4762 47.6667 56.5043 47.7292 56.5043 47.7944Z" fill="white" stroke="black" stroke-width="0.0144775"/>
<path fill-rule="evenodd" clip-rule="evenodd" d="M55.1643 43.1985C55.1643 43.1985 55.4695 42.7778 55.7756 42.7778H56.0808V43.058C56.0808 43.4803 55.623 43.6215 55.623 43.6215H56.8448C56.8448 43.6215 56.3861 43.4803 56.3861 43.058V42.7778H56.6922C56.9974 42.7778 57.3027 43.2001 57.3027 43.2001V42.0737C57.3027 42.0737 56.9974 42.496 56.6922 42.496H56.3861V42.2142C56.3861 41.7927 56.8448 41.6522 56.8448 41.6522H55.6221C55.6221 41.6522 56.08 41.7927 56.08 42.2142V42.496H55.7747C55.4686 42.496 55.1634 42.0737 55.1634 42.0737V43.1993L55.1643 43.1985Z" fill="#FFF100" stroke="black" stroke-width="0.0182007"/>
<path fill-rule="evenodd" clip-rule="evenodd" d="M56.5264 42.6685C56.5264 42.7337 56.4983 42.7962 56.4482 42.8423C56.3981 42.8884 56.3302 42.9143 56.2593 42.9143C56.1885 42.9143 56.1206 42.8884 56.0705 42.8423C56.0204 42.7962 55.9922 42.7337 55.9922 42.6685C55.9922 42.6033 56.0204 42.5407 56.0705 42.4946C56.1206 42.4485 56.1885 42.4226 56.2593 42.4226C56.3302 42.4226 56.3981 42.4485 56.4482 42.4946C56.4983 42.5407 56.5264 42.6033 56.5264 42.6685Z" fill="white" stroke="black" stroke-width="0.0144775"/>
<path fill-rule="evenodd" clip-rule="evenodd" d="M55.703 43.6158H56.7729V44.3548H55.7015L55.703 43.6158Z" fill="#FFF100" stroke="black" stroke-width="0.0144775"/>
<path fill-rule="evenodd" clip-rule="evenodd" d="M55.703 44.0021H56.7729V46.8148H55.7015L55.703 44.0021Z" fill="#FFF100" stroke="black" stroke-width="0.0144775"/>
<path fill-rule="evenodd" clip-rule="evenodd" d="M56.4972 46.3154C56.5 46.3493 56.4951 46.3834 56.4829 46.4155C56.4707 46.4477 56.4514 46.4771 56.4263 46.5021C56.4011 46.527 56.3707 46.5469 56.3368 46.5605C56.3029 46.5741 56.2663 46.5812 56.2294 46.5812C56.1924 46.5812 56.1558 46.5741 56.1219 46.5605C56.088 46.5469 56.0576 46.527 56.0324 46.5021C56.0073 46.4771 55.988 46.4477 55.9758 46.4155C55.9636 46.3834 55.9587 46.3493 55.9615 46.3154C55.9666 46.2532 55.997 46.1951 56.0467 46.1527C56.0963 46.1102 56.1616 46.0867 56.2294 46.0867C56.2971 46.0867 56.3624 46.1102 56.412 46.1527C56.4617 46.1951 56.4921 46.2532 56.4972 46.3154Z" fill="white" stroke="black" stroke-width="0.0144775"/>
<path fill-rule="evenodd" clip-rule="evenodd" d="M56.4972 45.6856C56.5 45.7196 56.4951 45.7537 56.4829 45.7858C56.4707 45.8179 56.4514 45.8474 56.4263 45.8723C56.4011 45.8973 56.3707 45.9172 56.3368 45.9308C56.3029 45.9444 56.2663 45.9514 56.2294 45.9514C56.1924 45.9514 56.1558 45.9444 56.1219 45.9308C56.088 45.9172 56.0576 45.8973 56.0324 45.8723C56.0073 45.8474 55.988 45.8179 55.9758 45.7858C55.9636 45.7537 55.9587 45.7196 55.9615 45.6856C55.9666 45.6234 55.997 45.5653 56.0467 45.5229C56.0963 45.4805 56.1616 45.4569 56.2294 45.4569C56.2971 45.4569 56.3624 45.4805 56.412 45.5229C56.4617 45.5653 56.4921 45.6234 56.4972 45.6856Z" fill="white" stroke="black" stroke-width="0.0144775"/>
<path fill-rule="evenodd" clip-rule="evenodd" d="M56.4972 45.1001C56.5 45.134 56.4951 45.1681 56.4829 45.2002C56.4707 45.2323 56.4514 45.2618 56.4263 45.2867C56.4011 45.3117 56.3707 45.3316 56.3368 45.3452C56.3029 45.3588 56.2663 45.3658 56.2294 45.3658C56.1924 45.3658 56.1558 45.3588 56.1219 45.3452C56.088 45.3316 56.0576 45.3117 56.0324 45.2867C56.0073 45.2618 55.988 45.2323 55.9758 45.2002C55.9636 45.1681 55.9587 45.134 55.9615 45.1001C55.9666 45.0379 55.997 44.9797 56.0467 44.9373C56.0963 44.8949 56.1616 44.8713 56.2294 44.8713C56.2971 44.8713 56.3624 44.8949 56.412 44.9373C56.4617 44.9797 56.4921 45.0379 56.4972 45.1001Z" fill="white" stroke="black" stroke-width="0.0144775"/>
<path fill-rule="evenodd" clip-rule="evenodd" d="M56.4972 44.4814C56.5 44.5153 56.4951 44.5494 56.4829 44.5816C56.4707 44.6137 56.4514 44.6431 56.4263 44.6681C56.4011 44.693 56.3707 44.7129 56.3368 44.7265C56.3029 44.7401 56.2663 44.7472 56.2294 44.7472C56.1924 44.7472 56.1558 44.7401 56.1219 44.7265C56.088 44.7129 56.0576 44.693 56.0324 44.6681C56.0073 44.6431 55.988 44.6137 55.9758 44.5816C55.9636 44.5494 55.9587 44.5153 55.9615 44.4814C55.9666 44.4192 55.997 44.3611 56.0467 44.3187C56.0963 44.2763 56.1616 44.2527 56.2294 44.2527C56.2971 44.2527 56.3624 44.2763 56.412 44.3187C56.4617 44.3611 56.4921 44.4192 56.4972 44.4814Z" fill="white" stroke="black" stroke-width="0.0144775"/>
<path fill-rule="evenodd" clip-rule="evenodd" d="M56.8016 51.0049C56.8016 51.1154 56.5586 51.2037 56.2492 51.2037C55.9399 51.2037 55.7189 51.1154 55.7189 51.0049C55.7189 50.8944 55.962 50.806 56.2603 50.806C56.5586 50.806 56.8016 50.8944 56.8016 51.0049ZM61.7288 51.491C61.6956 51.5683 61.4305 51.5794 61.1322 51.502C60.8339 51.4357 60.624 51.3253 60.6461 51.2479C60.6793 51.1706 60.9444 51.1596 61.2427 51.2369C61.541 51.3032 61.7509 51.4136 61.7288 51.491ZM59.6629 51.1595C59.6629 51.259 59.3978 51.3142 59.0884 51.3032C58.7902 51.2811 58.5471 51.1816 58.5582 51.0822C58.5692 50.9828 58.8343 50.9276 59.1326 50.9496C59.442 50.9717 59.685 51.0601 59.6629 51.1595ZM50.626 51.491C50.6481 51.5683 50.9133 51.5794 51.2116 51.502C51.5098 51.4357 51.7308 51.3253 51.6976 51.2479C51.6645 51.1706 51.3994 51.1596 51.1011 51.2369C50.8138 51.3032 50.5929 51.4136 50.626 51.491ZM52.7803 51.1154C52.7914 51.2148 53.0565 51.27 53.3548 51.2479C53.6641 51.2258 53.9072 51.1375 53.8851 51.027C53.8851 50.9386 53.6199 50.8723 53.3106 50.8944C53.0123 50.9165 52.7693 51.0049 52.7803 51.1154Z" fill="black"/>
<path d="M0 9.375H37.3333V37.375H0V9.375Z" fill="#012169"/>
<path d="M4.375 9.375L18.6083 19.9333L32.7833 9.375H37.3333V12.9917L23.3333 23.4333L37.3333 33.8167V37.375H32.6667L18.6667 26.9333L4.725 37.375H0V33.875L13.9417 23.4917L0 13.1083V9.375H4.375Z" fill="white"/>
<path d="M24.7333 25.7667L37.3333 35.0417V37.375L21.525 25.7667H24.7333ZM14 26.9333L14.35 28.975L3.15 37.375H0L14 26.9333ZM37.3333 9.375V9.55L22.8083 20.5167L22.925 17.95L34.4167 9.375H37.3333ZM0 9.375L13.9417 19.6417H10.4417L0 11.825V9.375Z" fill="#C8102E"/>
<path d="M14.0583 9.375V37.375H23.3917V9.375H14.0583ZM0 18.7083V28.0417H37.3333V18.7083H0Z" fill="white"/>
<path d="M0 20.6333V26.2333H37.3333V20.6333H0ZM15.925 9.375V37.375H21.525V9.375H15.925Z" fill="#C8102E"/>
</g>
<defs>
<clipPath id="clip0_1_65851">
<rect width="74.6667" height="56" fill="white" transform="translate(0 9.375)"/>
</clipPath>
</defs>
</svg>
