<svg width="75" height="75" viewBox="0 0 75 75" fill="none" xmlns="http://www.w3.org/2000/svg">
<rect width="74.6667" height="74.75" fill="white"/>
<g clip-path="url(#clip0_1_66542)">
<path fill-rule="evenodd" clip-rule="evenodd" d="M-3.02887 9.39685H77.6461V65.3203H-3.02887V9.39685Z" fill="#FFE900"/>
<path fill-rule="evenodd" clip-rule="evenodd" d="M-3.07269 9.39688L-2.98519 49.7125L59.7961 9.375L-3.07269 9.39688Z" fill="#35A100"/>
<path fill-rule="evenodd" clip-rule="evenodd" d="M77.7446 65.3203L77.5914 23.4078L14.2633 65.3531L77.7446 65.3203Z" fill="#C70000"/>
<path fill-rule="evenodd" clip-rule="evenodd" d="M-3.03979 52.7531L-2.98511 65.375L10.7196 65.3531L77.6243 20.4984L77.5586 9.5281L64.018 9.39685L-3.02886 52.7531H-3.03979Z" fill="black"/>
<path fill-rule="evenodd" clip-rule="evenodd" d="M50.368 26.5031L49.2961 21.8875L52.9383 24.8406L57.0946 22.15L55.1914 26.6671L58.8446 29.6203L54.0102 29.4562L52.118 33.9734L51.0352 29.3578L46.2118 29.1937L50.368 26.5031ZM20.268 46.0812L19.1852 41.4546L22.8274 44.4078L26.9836 41.7171L25.0805 46.2343L28.7336 49.1875L23.9102 49.0234L22.0071 53.5406L20.9352 48.925L16.1118 48.7609L20.268 46.0812Z" fill="white"/>
</g>
<defs>
<clipPath id="clip0_1_66542">
<rect width="74.6667" height="56" fill="white" transform="translate(0 9.375)"/>
</clipPath>
</defs>
</svg>
