<svg width="75" height="75" viewBox="0 0 75 75" fill="none" xmlns="http://www.w3.org/2000/svg">
<rect width="74.6667" height="74.75" fill="white"/>
<g clip-path="url(#clip0_1_65827)">
<path d="M0 28.0416H74.6667V46.7083H0V28.0416Z" fill="white"/>
<path d="M0 9.375H74.6667V28.0417H0V9.375Z" fill="#CE1126"/>
<path d="M0 46.7084H74.6667V65.375H0V46.7084Z" fill="black"/>
<path d="M45.607 33.9468C45.5006 33.8957 45.4038 33.8265 45.3209 33.7424C45.2596 33.6402 45.3005 33.6402 45.5662 33.7015C46.0362 33.8446 46.3428 33.7833 46.6494 33.538L46.9151 33.3132L47.2216 33.4563C47.4056 33.5584 47.5895 33.6198 47.6304 33.5993C47.7735 33.5584 48.0596 33.1906 48.0392 33.0679C48.0392 32.9249 48.1618 32.9657 48.2435 33.1292C48.3662 33.4563 48.1822 33.8446 47.8348 33.9263C47.6917 33.9672 47.5486 33.9468 47.3034 33.865C47.0173 33.7628 46.9559 33.7628 46.8129 33.865C46.6416 33.9944 46.4363 34.0711 46.2222 34.0856C46.008 34.1001 45.7942 34.0519 45.607 33.9468ZM46.7924 32.8636C46.6541 32.6136 46.5836 32.3317 46.5881 32.046C46.6085 31.9234 46.6494 31.8825 46.7516 31.9234C46.956 31.9847 46.9968 32.1278 46.956 32.5365C46.956 32.9044 46.8946 33.0066 46.7924 32.8636ZM32.9764 32.4752C32.956 32.7409 33.4669 33.4154 33.6918 33.538C33.5283 33.5993 33.3443 33.5789 33.2012 33.6402C32.3837 34.4577 29.4407 37.319 28.9093 38.0139C30.5034 38.0548 32.2611 37.9935 33.7531 37.9322C33.7531 36.8489 34.775 36.7876 35.4698 36.3993C35.8173 36.9511 36.6961 36.9103 36.8188 37.7482V41.3453H23.2275C23.1761 41.618 23.068 41.8769 22.9102 42.1053C22.7524 42.3336 22.5484 42.5262 22.3115 42.6707C22.0745 42.8152 21.8098 42.9083 21.5346 42.944C21.2594 42.9798 20.9797 42.9573 20.7137 42.8781C21.1224 42.4694 21.8173 42.3059 22.0626 41.7132C22.267 40.4051 21.6538 39.6081 21.2451 38.8519C21.7592 38.687 22.2426 38.4384 22.6757 38.1161C22.2057 39.5467 23.9429 39.4037 25.21 39.3628C25.2509 38.8723 25.2305 38.3 24.8626 38.2183C25.3327 38.0343 25.4144 37.973 26.2115 37.319V39.2811L35.6334 39.2606C35.6334 38.6475 35.7969 37.646 35.3063 37.646C34.8567 37.646 35.3063 38.9132 34.9385 38.9132H27.6421V37.6869C27.9487 37.3599 27.9078 37.3803 30.0129 35.2752C30.2173 35.0708 31.7093 33.7219 32.9969 32.4752H32.9764ZM51.1866 32.4139C51.6975 32.7 52.1063 33.0679 52.7194 33.2314C52.6581 33.4971 52.4129 33.5993 52.3516 33.865V39.3832C53.0464 39.5263 53.2099 39.1175 53.537 38.9132C53.6187 39.792 54.191 40.6504 54.1501 41.3657H51.1866V32.4344V32.4139ZM47.2216 35.3774C47.2216 35.3774 48.3049 34.4577 48.3049 34.4168V39.2197H49.0815L49.0611 33.8446C49.3676 33.5176 50.0012 33.0679 50.1443 32.7409V41.3248H43.318C43.2158 39.5467 43.1954 37.7073 45.28 38.0957V37.3803C45.2187 37.2577 45.0961 37.4008 45.0757 37.2373C45.4027 36.9103 45.5049 36.8285 46.4041 36.0519L46.4246 39.2197H47.2216V35.3774ZM44.6465 39.1789C44.7895 39.3832 45.3005 39.3832 45.2596 39.0154C45.1983 38.7088 44.5443 38.811 44.6465 39.1789Z" fill="#007A3D"/>
<path d="M24.8626 42.7759C25.0884 42.7759 25.2714 42.5929 25.2714 42.3671C25.2714 42.1414 25.0884 41.9584 24.8626 41.9584C24.6369 41.9584 24.4539 42.1414 24.4539 42.3671C24.4539 42.5929 24.6369 42.7759 24.8626 42.7759Z" fill="#007A3D"/>
<path d="M37.7385 32.4343C38.2495 32.7 38.6582 33.0883 39.2918 33.2518C39.2101 33.4971 38.9852 33.5993 38.9239 33.865V39.3832C39.6188 39.5263 39.7619 39.138 40.0889 38.9131C40.1911 39.792 40.7429 40.6708 40.7225 41.3657H37.7385V32.4343Z" fill="#007A3D"/>
</g>
<defs>
<clipPath id="clip0_1_65827">
<rect width="74.6667" height="56" fill="white" transform="translate(0 9.375)"/>
</clipPath>
</defs>
</svg>
