<svg width="75" height="75" viewBox="0 0 75 75" fill="none" xmlns="http://www.w3.org/2000/svg">
<rect width="74.6667" height="74.75" fill="white"/>
<g clip-path="url(#clip0_1_66059)">
<path fill-rule="evenodd" clip-rule="evenodd" d="M-11.6667 9.375H86.3333V65.375H-11.6667V9.375Z" fill="white"/>
<path fill-rule="evenodd" clip-rule="evenodd" d="M-11.6667 46.9781H86.3333V65.375H-11.6667V46.9781Z" fill="#DA0000"/>
<path fill-rule="evenodd" clip-rule="evenodd" d="M6.97076 47.7656H12.3301V48.1266H6.97076V47.7656ZM7.7692 49.6031H8.14108V49.9641H7.7692V49.6031ZM12.352 49.6031V49.9641H11.2801V49.5922L12.352 49.6031ZM12.9208 47.7656H13.2926V49.9531H12.9208V47.7656Z" fill="white"/>
<path fill-rule="evenodd" clip-rule="evenodd" d="M15.0646 49.5922V49.9641H13.0302V49.5922H15.0646ZM11.2802 48.7281H11.6302V49.9641H11.2693L11.2802 48.7281Z" fill="white"/>
<path fill-rule="evenodd" clip-rule="evenodd" d="M14.7583 47.7656H15.1301V49.9531H14.7583V47.7656ZM13.8395 47.7656H14.2005V49.9531H13.8395V47.7656ZM8.93951 48.6406V49.0125H6.97076V48.6406H8.93951ZM13.238 48.6406V49.0125H11.2692V48.6406H13.238Z" fill="white"/>
<path fill-rule="evenodd" clip-rule="evenodd" d="M11.2802 48.739H11.6302V49.9531H11.2693L11.2802 48.739Z" fill="white"/>
<path fill-rule="evenodd" clip-rule="evenodd" d="M11.2802 48.739H11.6302V49.9531H11.2693L11.2802 48.739Z" fill="white"/>
<path fill-rule="evenodd" clip-rule="evenodd" d="M11.2802 48.739H11.6302V49.9531H11.2693L11.2802 48.739ZM6.98175 48.739H7.34269V49.9531H6.98175V48.739ZM10.1318 48.739H10.5036V49.9531H10.1318V48.739ZM8.56769 48.739H8.93956V49.9531H8.56769V48.739Z" fill="white"/>
<path fill-rule="evenodd" clip-rule="evenodd" d="M10.3833 49.5922V49.9641H8.73175V49.5922H10.3833ZM10.4927 48.6406V49.0125H9.44269V48.6406H10.4927Z" fill="white"/>
<path fill-rule="evenodd" clip-rule="evenodd" d="M-1.84485 47.7656H3.51453V48.1266H-1.84485V47.7656ZM-1.04641 49.6031H-0.674536V49.9641H-1.05735L-1.04641 49.6031ZM3.5364 49.6031V49.9641H2.46453V49.5922L3.5364 49.6031ZM4.10515 47.7656H4.47703V49.9531H4.10515V47.7656Z" fill="white"/>
<path fill-rule="evenodd" clip-rule="evenodd" d="M6.24904 49.5922V49.9641H4.21466V49.5922H6.24904ZM2.46466 48.7281H2.8256V49.9641H2.46466V48.7281Z" fill="white"/>
<path fill-rule="evenodd" clip-rule="evenodd" d="M5.94265 47.7656H6.31453V49.9531H5.94265V47.7656ZM5.0239 47.7656H5.38484V49.9531H5.0239V47.7656ZM0.123901 48.6406V49.0125H-1.84485V48.6406H0.123901ZM4.42234 48.6406V49.0125H2.45359V48.6406H4.42234Z" fill="white"/>
<path fill-rule="evenodd" clip-rule="evenodd" d="M2.46466 48.739H2.8256V49.9531H2.46466V48.739Z" fill="white"/>
<path fill-rule="evenodd" clip-rule="evenodd" d="M2.46466 48.739H2.8256V49.9531H2.46466V48.739Z" fill="white"/>
<path fill-rule="evenodd" clip-rule="evenodd" d="M2.46464 48.739H2.82557V49.9531H2.46464V48.739ZM-1.8338 48.739H-1.47286V49.9531H-1.8338V48.739ZM1.3162 48.739H1.67714V49.9531H1.3162V48.739ZM-0.247864 48.739H0.124012V49.9531H-0.247864V48.739Z" fill="white"/>
<path fill-rule="evenodd" clip-rule="evenodd" d="M1.56775 49.5922V49.9641H-0.072876V49.5922H1.56775ZM1.67712 48.6406V49.0125H0.627124V48.6406H1.67712Z" fill="white"/>
<path fill-rule="evenodd" clip-rule="evenodd" d="M15.7098 47.7656H21.0692V48.1266H15.7098V47.7656ZM16.5083 49.6031H16.8802V49.9641H16.5083V49.6031ZM21.0911 49.6031V49.9641H20.0192V49.5922L21.0911 49.6031ZM21.6708 47.7656H22.0427V49.9531H21.6708V47.7656Z" fill="white"/>
<path fill-rule="evenodd" clip-rule="evenodd" d="M23.8037 49.5922V49.9641H21.7693V49.5922H23.8037ZM20.0193 48.7281H20.3912V49.9641H20.0193V48.7281Z" fill="white"/>
<path fill-rule="evenodd" clip-rule="evenodd" d="M23.4973 47.7656H23.8692V49.9531H23.4973V47.7656ZM22.5786 47.7656H22.9505V49.9531H22.5677L22.5786 47.7656ZM17.6786 48.6406V49.0125H15.7098V48.6406H17.6786ZM21.977 48.6406V49.0125H20.0083V48.6406H21.977Z" fill="white"/>
<path fill-rule="evenodd" clip-rule="evenodd" d="M20.0193 48.739H20.3912V49.9531H20.0193V48.739Z" fill="white"/>
<path fill-rule="evenodd" clip-rule="evenodd" d="M20.0193 48.739H20.3912V49.9531H20.0193V48.739Z" fill="white"/>
<path fill-rule="evenodd" clip-rule="evenodd" d="M20.0193 48.739H20.3912V49.9531H20.0193V48.739ZM15.7209 48.739H16.0928V49.9531H15.7209V48.739ZM18.8709 48.739H19.2428V49.9531H18.8709V48.739ZM17.3068 48.739H17.6787V49.9531H17.3068V48.739Z" fill="white"/>
<path fill-rule="evenodd" clip-rule="evenodd" d="M19.1334 49.5922V49.9641H17.4709V49.5922H19.1334ZM19.2428 48.6406V49.0125H18.1928V48.6406H19.2428Z" fill="white"/>
<path fill-rule="evenodd" clip-rule="evenodd" d="M24.5036 47.7656H29.8739V48.1266H24.5145L24.5036 47.7656ZM25.313 49.6031H25.6739V49.9641H25.313V49.6031ZM29.8849 49.6031V49.9641H28.813V49.5922L29.8849 49.6031ZM30.4645 47.7656H30.8364V49.9531H30.4645V47.7656Z" fill="white"/>
<path fill-rule="evenodd" clip-rule="evenodd" d="M32.6082 49.5922V49.9641H30.5738V49.5922H32.6082ZM28.8129 48.7281H29.1847V49.9641H28.8129V48.7281Z" fill="white"/>
<path fill-rule="evenodd" clip-rule="evenodd" d="M32.302 47.7656H32.6738V49.9531H32.302V47.7656ZM31.3723 47.7656H31.7442V49.9531H31.3723V47.7656ZM26.4723 48.6406V49.0125H24.5145V48.6406H26.4723ZM30.7707 48.6406V49.0125H28.8129V48.6406H30.7707Z" fill="white"/>
<path fill-rule="evenodd" clip-rule="evenodd" d="M28.8129 48.739H29.1847V49.9531H28.8129V48.739Z" fill="white"/>
<path fill-rule="evenodd" clip-rule="evenodd" d="M28.8129 48.739H29.1847V49.9531H28.8129V48.739Z" fill="white"/>
<path fill-rule="evenodd" clip-rule="evenodd" d="M28.8129 48.739H29.1848V49.9531H28.8129V48.739ZM24.5145 48.739H24.8863V49.9531H24.5145V48.739ZM27.6645 48.739H28.0363V49.9531H27.6645V48.739ZM26.1113 48.739H26.4723V49.9531H26.1113V48.739Z" fill="white"/>
<path fill-rule="evenodd" clip-rule="evenodd" d="M27.927 49.5922V49.9641H26.2754V49.5922H27.927ZM28.0363 48.6406V49.0125H26.9863V48.6406H28.0363Z" fill="white"/>
<path fill-rule="evenodd" clip-rule="evenodd" d="M33.3411 47.7656H38.7004V48.1266H33.3411V47.7656ZM34.1395 49.6031H34.5114V49.9641H34.1395V49.6031ZM38.7223 49.6031V49.9641H37.6504V49.5922L38.7223 49.6031ZM39.302 47.7656H39.6629V49.9531H39.302V47.7656Z" fill="white"/>
<path fill-rule="evenodd" clip-rule="evenodd" d="M41.4348 49.5922V49.9641H39.4005V49.5922H41.4348ZM37.6505 48.7281H38.0223V49.9641H37.6505V48.7281Z" fill="white"/>
<path fill-rule="evenodd" clip-rule="evenodd" d="M41.1286 47.7656H41.5004V49.9531H41.1286V47.7656ZM40.2098 47.7656H40.5817V49.9531H40.2098V47.7656ZM35.3098 48.6406V49.0125H33.3411V48.6406H35.3098ZM39.6083 48.6406V49.0125H37.6395V48.6406H39.6083Z" fill="white"/>
<path fill-rule="evenodd" clip-rule="evenodd" d="M37.6505 48.739H38.0223V49.9531H37.6505V48.739Z" fill="white"/>
<path fill-rule="evenodd" clip-rule="evenodd" d="M37.6505 48.739H38.0223V49.9531H37.6505V48.739Z" fill="white"/>
<path fill-rule="evenodd" clip-rule="evenodd" d="M37.6504 48.739H38.0223V49.9531H37.6504V48.739ZM33.352 48.739H33.7129V49.9531H33.352V48.739ZM36.502 48.739H36.8739V49.9531H36.502V48.739ZM34.9379 48.739H35.3098V49.9531H34.927L34.9379 48.739Z" fill="white"/>
<path fill-rule="evenodd" clip-rule="evenodd" d="M36.7645 49.5922V49.9641H35.102V49.5922H36.7645ZM36.8739 48.6406V49.0125H35.802V48.6406H36.8739Z" fill="white"/>
<path fill-rule="evenodd" clip-rule="evenodd" d="M-11.6667 9.375H86.3333V27.7719H-11.6667V9.375Z" fill="#239F40"/>
<path fill-rule="evenodd" clip-rule="evenodd" d="M42.2223 47.7656H47.5817V48.1266H42.2223V47.7656ZM43.0208 49.6031H43.3926V49.9641H43.0208V49.6031ZM47.6036 49.6031V49.9641H46.5208V49.5922L47.6036 49.6031ZM48.1833 47.7656H48.5442V49.9531H48.1833V47.7656Z" fill="white"/>
<path fill-rule="evenodd" clip-rule="evenodd" d="M50.316 49.5922V49.9641H48.2816V49.5922H50.316ZM46.5316 48.7281H46.9035V49.9641H46.5207L46.5316 48.7281Z" fill="white"/>
<path fill-rule="evenodd" clip-rule="evenodd" d="M50.0208 47.7656H50.3817V49.9531H50.0208V47.7656ZM49.0911 47.7656H49.4629V49.9531H49.0911V47.7656ZM44.1911 48.6406V49.0125H42.2223V48.6406H44.1911ZM48.4895 48.6406V49.0125H46.5208V48.6406H48.4895Z" fill="white"/>
<path fill-rule="evenodd" clip-rule="evenodd" d="M46.5207 48.739H46.9035V49.9531H46.5207V48.739Z" fill="white"/>
<path fill-rule="evenodd" clip-rule="evenodd" d="M46.5207 48.739H46.9035V49.9531H46.5207V48.739Z" fill="white"/>
<path fill-rule="evenodd" clip-rule="evenodd" d="M46.5207 48.739H46.9035V49.9531H46.5207V48.739ZM42.2332 48.739H42.6051V49.9531H42.2332V48.739ZM45.3832 48.739H45.7551V49.9531H45.3832V48.739ZM43.8191 48.739H44.191V49.9531H43.8191V48.739Z" fill="white"/>
<path fill-rule="evenodd" clip-rule="evenodd" d="M45.6457 49.5922V49.9641H43.9832V49.5922H45.6457ZM45.7551 48.6406V49.0125H44.7051V48.6406H45.7551Z" fill="white"/>
<path fill-rule="evenodd" clip-rule="evenodd" d="M51.0489 47.7656H56.4083V48.1266H51.0489V47.7656ZM51.8473 49.6031H52.2192V49.9641H51.8473V49.6031ZM56.4411 49.6031V49.9641H55.3583V49.5922L56.4411 49.6031ZM57.0098 47.7656H57.3817V49.9531H57.0098V47.7656Z" fill="white"/>
<path fill-rule="evenodd" clip-rule="evenodd" d="M59.1427 49.5922V49.9641H57.1083V49.5922H59.1427ZM55.3583 48.7281H55.7302V49.9641H55.3583V48.7281Z" fill="white"/>
<path fill-rule="evenodd" clip-rule="evenodd" d="M58.8474 47.7656H59.2083V49.9531H58.8474V47.7656ZM57.9177 47.7656H58.2896V49.9531H57.9177V47.7656ZM53.0177 48.6406V49.0125H51.0599V48.6406H53.0177ZM57.3162 48.6406V49.0125H55.3583V48.6406H57.3162Z" fill="white"/>
<path fill-rule="evenodd" clip-rule="evenodd" d="M55.3583 48.739H55.7302V49.9531H55.3583V48.739Z" fill="white"/>
<path fill-rule="evenodd" clip-rule="evenodd" d="M55.3583 48.739H55.7302V49.9531H55.3583V48.739Z" fill="white"/>
<path fill-rule="evenodd" clip-rule="evenodd" d="M55.3583 48.739H55.7302V49.9531H55.3583V48.739ZM51.0599 48.739H51.4318V49.9531H51.0599V48.739ZM54.2099 48.739H54.5818V49.9531H54.2099V48.739ZM52.6458 48.739H53.0177V49.9531H52.6568L52.6458 48.739Z" fill="white"/>
<path fill-rule="evenodd" clip-rule="evenodd" d="M54.4724 49.5922V49.9641H52.8208V49.5922H54.4724ZM54.5818 48.6406V49.0125H53.5208V48.6406H54.5818Z" fill="white"/>
<path fill-rule="evenodd" clip-rule="evenodd" d="M59.8864 47.7656H65.2458V48.1266H59.8864V47.7656ZM60.6848 49.6031H61.0567V49.9641H60.6848V49.6031ZM65.2676 49.6031V49.9641H64.1958V49.5922L65.2676 49.6031ZM65.8364 47.7656H66.2083V49.9531H65.8364V47.7656Z" fill="white"/>
<path fill-rule="evenodd" clip-rule="evenodd" d="M67.9801 49.5922V49.9641H65.9457V49.5922H67.9801ZM64.1848 48.7281H64.5566V49.9641H64.1848V48.7281Z" fill="white"/>
<path fill-rule="evenodd" clip-rule="evenodd" d="M67.6739 47.7656H68.0458V49.9531H67.6739V47.7656ZM66.7551 47.7656H67.1161V49.9531H66.7551V47.7656ZM61.8551 48.6406V49.0125H59.8864V48.6406H61.8551ZM66.1536 48.6406V49.0125H64.1848V48.6406H66.1536Z" fill="white"/>
<path fill-rule="evenodd" clip-rule="evenodd" d="M64.1957 48.739H64.5566V49.9531H64.1957V48.739Z" fill="white"/>
<path fill-rule="evenodd" clip-rule="evenodd" d="M64.1957 48.739H64.5566V49.9531H64.1957V48.739Z" fill="white"/>
<path fill-rule="evenodd" clip-rule="evenodd" d="M64.1957 48.739H64.5566V49.9531H64.1957V48.739ZM59.8863 48.739H60.2582V49.9531H59.8863V48.739ZM63.0472 48.739H63.4082V49.9531H63.0472V48.739ZM61.4832 48.739H61.855V49.9531H61.4832V48.739Z" fill="white"/>
<path fill-rule="evenodd" clip-rule="evenodd" d="M63.2988 49.5922V49.9641H61.6472V49.5922H63.2988ZM63.4082 48.6406V49.0125H62.3582V48.6406H63.4082Z" fill="white"/>
<path fill-rule="evenodd" clip-rule="evenodd" d="M68.7676 47.7656H74.127V48.1266H68.7676V47.7656ZM69.5661 49.6031H69.9379V49.9641H69.5661V49.6031ZM74.1489 49.6031V49.9641H73.077V49.5922L74.1489 49.6031ZM74.7176 47.7656H75.0895V49.9531H74.7176V47.7656Z" fill="white"/>
<path fill-rule="evenodd" clip-rule="evenodd" d="M76.8615 49.5922V49.9641H74.8271V49.5922H76.8615ZM73.0771 48.7281H73.438V49.9641H73.0771V48.7281Z" fill="white"/>
<path fill-rule="evenodd" clip-rule="evenodd" d="M76.5551 47.7656H76.927V49.9531H76.5551V47.7656ZM75.6364 47.7656H75.9973V49.9531H75.6364V47.7656ZM70.7364 48.6406V49.0125H68.7676V48.6406H70.7364ZM75.0348 48.6406V49.0125H73.0661V48.6406H75.0348Z" fill="white"/>
<path fill-rule="evenodd" clip-rule="evenodd" d="M73.0771 48.739H73.438V49.9531H73.0771V48.739Z" fill="white"/>
<path fill-rule="evenodd" clip-rule="evenodd" d="M73.0771 48.739H73.438V49.9531H73.0771V48.739Z" fill="white"/>
<path fill-rule="evenodd" clip-rule="evenodd" d="M73.0771 48.739H73.438V49.9531H73.0771V48.739ZM68.7787 48.739H69.1396V49.9531H68.7787V48.739ZM71.9287 48.739H72.3005V49.9531H71.9287V48.739ZM70.3646 48.739H70.7365V49.9531H70.3646V48.739Z" fill="white"/>
<path fill-rule="evenodd" clip-rule="evenodd" d="M72.1802 49.5922V49.9641H70.5287V49.5922H72.1802ZM72.2896 48.6406V49.0125H71.2396V48.6406H72.2896Z" fill="white"/>
<path fill-rule="evenodd" clip-rule="evenodd" d="M6.97076 25.0593H12.3301V25.4312H6.97076V25.0593ZM7.7692 26.9187H8.14108V27.2687H7.7692V26.9187ZM12.352 26.8968V27.2687H11.2801V26.8968H12.352ZM12.9208 25.0593H13.2926V27.2687H12.9208V25.0593Z" fill="white"/>
<path fill-rule="evenodd" clip-rule="evenodd" d="M15.0646 26.8968V27.2687H13.0302V26.8968H15.0646ZM11.2802 26.0327H11.6302V27.2687H11.2693L11.2802 26.0327Z" fill="white"/>
<path fill-rule="evenodd" clip-rule="evenodd" d="M14.7583 25.0593H15.1301V27.2687H14.7583V25.0593ZM13.8395 25.0593H14.2005V27.2687H13.8395V25.0593ZM8.93951 25.9343V26.3062H6.97076V25.9453L8.93951 25.9343ZM13.238 25.9343V26.3062H11.2692V25.9453L13.238 25.9343Z" fill="white"/>
<path fill-rule="evenodd" clip-rule="evenodd" d="M11.2802 26.0327H11.6302V27.2687H11.2693L11.2802 26.0327Z" fill="white"/>
<path fill-rule="evenodd" clip-rule="evenodd" d="M11.2802 26.0327H11.6302V27.2687H11.2693L11.2802 26.0327Z" fill="white"/>
<path fill-rule="evenodd" clip-rule="evenodd" d="M11.2802 26.0327H11.6302V27.2687H11.2693L11.2802 26.0327ZM6.98175 26.0327H7.34269V27.2687H6.98175V26.0327ZM10.1318 26.0327H10.5036V27.2687H10.1318V26.0327ZM8.56769 26.0327H8.93956V27.2687H8.56769V26.0327Z" fill="white"/>
<path fill-rule="evenodd" clip-rule="evenodd" d="M10.3833 26.8969V27.2688H8.73175V26.8969H10.3833ZM10.4927 25.9453V26.3063H9.44269V25.9453H10.4927Z" fill="white"/>
<path fill-rule="evenodd" clip-rule="evenodd" d="M-1.84485 25.0593H3.51453V25.4312H-1.84485V25.0593ZM-1.04641 26.9187H-0.674536V27.2687H-1.05735L-1.04641 26.9187ZM3.5364 26.8968V27.2687H2.46453V26.8968H3.5364ZM4.10515 25.0593H4.47703V27.2687H4.10515V25.0593Z" fill="white"/>
<path fill-rule="evenodd" clip-rule="evenodd" d="M6.24904 26.8968V27.2687H4.21466V26.8968H6.24904ZM2.46466 26.0327H2.8256V27.2687H2.46466V26.0327Z" fill="white"/>
<path fill-rule="evenodd" clip-rule="evenodd" d="M5.94265 25.0593H6.31453V27.2687H5.94265V25.0593ZM5.0239 25.0593H5.38484V27.2687H5.0239V25.0593ZM0.123901 25.9343V26.3062H-1.84485V25.9453L0.123901 25.9343ZM4.42234 25.9343V26.3062H2.45359V25.9453L4.42234 25.9343Z" fill="white"/>
<path fill-rule="evenodd" clip-rule="evenodd" d="M2.46466 26.0327H2.8256V27.2687H2.46466V26.0327Z" fill="white"/>
<path fill-rule="evenodd" clip-rule="evenodd" d="M2.46466 26.0327H2.8256V27.2687H2.46466V26.0327Z" fill="white"/>
<path fill-rule="evenodd" clip-rule="evenodd" d="M2.46464 26.0327H2.82557V27.2687H2.46464V26.0327ZM-1.8338 26.0327H-1.47286V27.2687H-1.8338V26.0327ZM1.3162 26.0327H1.67714V27.2687H1.3162V26.0327ZM-0.247864 26.0327H0.124012V27.2687H-0.247864V26.0327Z" fill="white"/>
<path fill-rule="evenodd" clip-rule="evenodd" d="M1.56775 26.8969V27.2688H-0.072876V26.8969H1.56775ZM1.67712 25.9453V26.3063H0.627124V25.9453H1.67712Z" fill="white"/>
<path fill-rule="evenodd" clip-rule="evenodd" d="M15.7098 25.0593H21.0692V25.4312H15.7098V25.0593ZM16.5083 26.9187H16.8802V27.2687H16.5083V26.9187ZM21.0911 26.8968V27.2687H20.0192V26.8968H21.0911ZM21.6708 25.0593H22.0427V27.2687H21.6708V25.0593Z" fill="white"/>
<path fill-rule="evenodd" clip-rule="evenodd" d="M23.8037 26.8968V27.2687H21.7693V26.8968H23.8037ZM20.0193 26.0327H20.3912V27.2687H20.0193V26.0327Z" fill="white"/>
<path fill-rule="evenodd" clip-rule="evenodd" d="M23.4973 25.0593H23.8692V27.2687H23.4973V25.0593ZM22.5786 25.0593H22.9505V27.2687H22.5677L22.5786 25.0593ZM17.6786 25.9343V26.3062H15.7098V25.9453L17.6786 25.9343ZM21.977 25.9343V26.3062H20.0083V25.9453L21.977 25.9343Z" fill="white"/>
<path fill-rule="evenodd" clip-rule="evenodd" d="M20.0193 26.0327H20.3912V27.2687H20.0193V26.0327Z" fill="white"/>
<path fill-rule="evenodd" clip-rule="evenodd" d="M20.0193 26.0327H20.3912V27.2687H20.0193V26.0327Z" fill="white"/>
<path fill-rule="evenodd" clip-rule="evenodd" d="M20.0193 26.0327H20.3912V27.2687H20.0193V26.0327ZM15.7209 26.0327H16.0928V27.2687H15.7209V26.0327ZM18.8709 26.0327H19.2428V27.2687H18.8709V26.0327ZM17.3068 26.0327H17.6787V27.2687H17.3068V26.0327Z" fill="white"/>
<path fill-rule="evenodd" clip-rule="evenodd" d="M19.1334 26.8969V27.2688H17.4709V26.8969H19.1334ZM19.2428 25.9453V26.3063H18.1928V25.9453H19.2428Z" fill="white"/>
<path fill-rule="evenodd" clip-rule="evenodd" d="M24.5036 25.0593H29.8739V25.4312H24.5145L24.5036 25.0593ZM25.313 26.9187H25.6739V27.2687H25.313V26.9187ZM29.8849 26.8968V27.2687H28.813V26.8968H29.8849ZM30.4645 25.0593H30.8364V27.2687H30.4645V25.0593Z" fill="white"/>
<path fill-rule="evenodd" clip-rule="evenodd" d="M32.6082 26.8968V27.2687H30.5738V26.8968H32.6082ZM28.8129 26.0327H29.1847V27.2687H28.8129V26.0327Z" fill="white"/>
<path fill-rule="evenodd" clip-rule="evenodd" d="M32.302 25.0593H32.6738V27.2687H32.302V25.0593ZM31.3723 25.0593H31.7442V27.2687H31.3723V25.0593ZM26.4723 25.9343V26.3062H24.5145V25.9453L26.4723 25.9343ZM30.7707 25.9343V26.3062H28.8129V25.9453L30.7707 25.9343Z" fill="white"/>
<path fill-rule="evenodd" clip-rule="evenodd" d="M28.8129 26.0327H29.1847V27.2687H28.8129V26.0327Z" fill="white"/>
<path fill-rule="evenodd" clip-rule="evenodd" d="M28.8129 26.0327H29.1847V27.2687H28.8129V26.0327Z" fill="white"/>
<path fill-rule="evenodd" clip-rule="evenodd" d="M28.8129 26.0327H29.1848V27.2687H28.8129V26.0327ZM24.5145 26.0327H24.8863V27.2687H24.5145V26.0327ZM27.6645 26.0327H28.0363V27.2687H27.6645V26.0327ZM26.1113 26.0327H26.4723V27.2687H26.1113V26.0327Z" fill="white"/>
<path fill-rule="evenodd" clip-rule="evenodd" d="M27.927 26.8969V27.2688H26.2754V26.8969H27.927ZM28.0363 25.9453V26.3063H26.9863V25.9453H28.0363Z" fill="white"/>
<path fill-rule="evenodd" clip-rule="evenodd" d="M33.3411 25.0593H38.7004V25.4312H33.3411V25.0593ZM34.1395 26.9187H34.5114V27.2687H34.1395V26.9187ZM38.7223 26.8968V27.2687H37.6504V26.8968H38.7223ZM39.302 25.0593H39.6629V27.2687H39.302V25.0593Z" fill="white"/>
<path fill-rule="evenodd" clip-rule="evenodd" d="M41.4348 26.8968V27.2687H39.4005V26.8968H41.4348ZM37.6505 26.0327H38.0223V27.2687H37.6505V26.0327Z" fill="white"/>
<path fill-rule="evenodd" clip-rule="evenodd" d="M41.1286 25.0593H41.5004V27.2687H41.1286V25.0593ZM40.2098 25.0593H40.5817V27.2687H40.2098V25.0593ZM35.3098 25.9343V26.3062H33.3411V25.9453L35.3098 25.9343ZM39.6083 25.9343V26.3062H37.6395V25.9453L39.6083 25.9343Z" fill="white"/>
<path fill-rule="evenodd" clip-rule="evenodd" d="M37.6505 26.0327H38.0223V27.2687H37.6505V26.0327Z" fill="white"/>
<path fill-rule="evenodd" clip-rule="evenodd" d="M37.6505 26.0327H38.0223V27.2687H37.6505V26.0327Z" fill="white"/>
<path fill-rule="evenodd" clip-rule="evenodd" d="M37.6504 26.0327H38.0223V27.2687H37.6504V26.0327ZM33.352 26.0327H33.7129V27.2687H33.352V26.0327ZM36.502 26.0327H36.8739V27.2687H36.502V26.0327ZM34.9379 26.0327H35.3098V27.2687H34.927L34.9379 26.0327Z" fill="white"/>
<path fill-rule="evenodd" clip-rule="evenodd" d="M36.7645 26.8969V27.2688H35.102V26.8969H36.7645ZM36.8739 25.9453V26.3063H35.802V25.9453H36.8739Z" fill="white"/>
<path fill-rule="evenodd" clip-rule="evenodd" d="M42.2223 25.0593H47.5817V25.4312H42.2223V25.0593ZM43.0208 26.9187H43.3926V27.2687H43.0208V26.9187ZM47.6036 26.8968V27.2687H46.5208V26.8968H47.6036ZM48.1833 25.0593H48.5442V27.2687H48.1833V25.0593Z" fill="white"/>
<path fill-rule="evenodd" clip-rule="evenodd" d="M50.316 26.8968V27.2687H48.2816V26.8968H50.316ZM46.5316 26.0327H46.9035V27.2687H46.5207L46.5316 26.0327Z" fill="white"/>
<path fill-rule="evenodd" clip-rule="evenodd" d="M50.0208 25.0593H50.3817V27.2687H50.0208V25.0593ZM49.0911 25.0593H49.4629V27.2687H49.0911V25.0593ZM44.1911 25.9343V26.3062H42.2223V25.9453L44.1911 25.9343ZM48.4895 25.9343V26.3062H46.5208V25.9453L48.4895 25.9343Z" fill="white"/>
<path fill-rule="evenodd" clip-rule="evenodd" d="M46.5207 26.0327H46.9035V27.2687H46.5207V26.0327Z" fill="white"/>
<path fill-rule="evenodd" clip-rule="evenodd" d="M46.5207 26.0327H46.9035V27.2687H46.5207V26.0327Z" fill="white"/>
<path fill-rule="evenodd" clip-rule="evenodd" d="M46.5207 26.0327H46.9035V27.2687H46.5207V26.0327ZM42.2332 26.0327H42.6051V27.2687H42.2332V26.0327ZM45.3832 26.0327H45.7551V27.2687H45.3832V26.0327ZM43.8191 26.0327H44.191V27.2687H43.8191V26.0327Z" fill="white"/>
<path fill-rule="evenodd" clip-rule="evenodd" d="M45.6457 26.8969V27.2688H43.9832V26.8969H45.6457ZM45.7551 25.9453V26.3063H44.7051V25.9453H45.7551Z" fill="white"/>
<path fill-rule="evenodd" clip-rule="evenodd" d="M51.0489 25.0593H56.4083V25.4312H51.0489V25.0593ZM51.8473 26.9187H52.2192V27.2687H51.8473V26.9187ZM56.4411 26.8968V27.2687H55.3583V26.8968H56.4411ZM57.0098 25.0593H57.3817V27.2687H57.0098V25.0593Z" fill="white"/>
<path fill-rule="evenodd" clip-rule="evenodd" d="M59.1427 26.8968V27.2687H57.1083V26.8968H59.1427ZM55.3583 26.0327H55.7302V27.2687H55.3583V26.0327Z" fill="white"/>
<path fill-rule="evenodd" clip-rule="evenodd" d="M58.8474 25.0593H59.2083V27.2687H58.8474V25.0593ZM57.9177 25.0593H58.2896V27.2687H57.9177V25.0593ZM53.0177 25.9343V26.3062H51.0599V25.9453L53.0177 25.9343ZM57.3162 25.9343V26.3062H55.3583V25.9453L57.3162 25.9343Z" fill="white"/>
<path fill-rule="evenodd" clip-rule="evenodd" d="M55.3583 26.0327H55.7302V27.2687H55.3583V26.0327Z" fill="white"/>
<path fill-rule="evenodd" clip-rule="evenodd" d="M55.3583 26.0327H55.7302V27.2687H55.3583V26.0327Z" fill="white"/>
<path fill-rule="evenodd" clip-rule="evenodd" d="M55.3583 26.0327H55.7302V27.2687H55.3583V26.0327ZM51.0599 26.0327H51.4318V27.2687H51.0599V26.0327ZM54.2099 26.0327H54.5818V27.2687H54.2099V26.0327ZM52.6458 26.0327H53.0177V27.2687H52.6568L52.6458 26.0327Z" fill="white"/>
<path fill-rule="evenodd" clip-rule="evenodd" d="M54.4724 26.8969V27.2688H52.8208V26.8969H54.4724ZM54.5818 25.9453V26.3063H53.5208V25.9453H54.5818Z" fill="white"/>
<path fill-rule="evenodd" clip-rule="evenodd" d="M59.8864 25.0593H65.2458V25.4312H59.8864V25.0593ZM60.6848 26.9187H61.0567V27.2687H60.6848V26.9187ZM65.2676 26.8968V27.2687H64.1958V26.8968H65.2676ZM65.8364 25.0593H66.2083V27.2687H65.8364V25.0593Z" fill="white"/>
<path fill-rule="evenodd" clip-rule="evenodd" d="M67.9801 26.8968V27.2687H65.9457V26.8968H67.9801ZM64.1848 26.0327H64.5566V27.2687H64.1848V26.0327Z" fill="white"/>
<path fill-rule="evenodd" clip-rule="evenodd" d="M67.6739 25.0593H68.0458V27.2687H67.6739V25.0593ZM66.7551 25.0593H67.1161V27.2687H66.7551V25.0593ZM61.8551 25.9343V26.3062H59.8864V25.9453L61.8551 25.9343ZM66.1536 25.9343V26.3062H64.1848V25.9453L66.1536 25.9343Z" fill="white"/>
<path fill-rule="evenodd" clip-rule="evenodd" d="M64.1957 26.0327H64.5566V27.2687H64.1957V26.0327Z" fill="white"/>
<path fill-rule="evenodd" clip-rule="evenodd" d="M64.1957 26.0327H64.5566V27.2687H64.1957V26.0327Z" fill="white"/>
<path fill-rule="evenodd" clip-rule="evenodd" d="M64.1957 26.0327H64.5566V27.2687H64.1957V26.0327ZM59.8863 26.0327H60.2582V27.2687H59.8863V26.0327ZM63.0472 26.0327H63.4082V27.2687H63.0472V26.0327ZM61.4832 26.0327H61.855V27.2687H61.4832V26.0327Z" fill="white"/>
<path fill-rule="evenodd" clip-rule="evenodd" d="M63.2988 26.8969V27.2688H61.6472V26.8969H63.2988ZM63.4082 25.9453V26.3063H62.3582V25.9453H63.4082Z" fill="white"/>
<path fill-rule="evenodd" clip-rule="evenodd" d="M68.7676 25.0593H74.127V25.4312H68.7676V25.0593ZM69.5661 26.9187H69.9379V27.2687H69.5661V26.9187ZM74.1489 26.8968V27.2687H73.077V26.8968H74.1489ZM74.7176 25.0593H75.0895V27.2687H74.7176V25.0593Z" fill="white"/>
<path fill-rule="evenodd" clip-rule="evenodd" d="M76.8615 26.8968V27.2687H74.8271V26.8968H76.8615ZM73.0771 26.0327H73.438V27.2687H73.0771V26.0327Z" fill="white"/>
<path fill-rule="evenodd" clip-rule="evenodd" d="M76.5551 25.0593H76.927V27.2687H76.5551V25.0593ZM75.6364 25.0593H75.9973V27.2687H75.6364V25.0593ZM70.7364 25.9343V26.3062H68.7676V25.9453L70.7364 25.9343ZM75.0348 25.9343V26.3062H73.0661V25.9453L75.0348 25.9343Z" fill="white"/>
<path fill-rule="evenodd" clip-rule="evenodd" d="M73.0771 26.0327H73.438V27.2687H73.0771V26.0327Z" fill="white"/>
<path fill-rule="evenodd" clip-rule="evenodd" d="M73.0771 26.0327H73.438V27.2687H73.0771V26.0327Z" fill="white"/>
<path fill-rule="evenodd" clip-rule="evenodd" d="M73.0771 26.0327H73.438V27.2687H73.0771V26.0327ZM68.7787 26.0327H69.1396V27.2687H68.7787V26.0327ZM71.9287 26.0327H72.3005V27.2687H71.9287V26.0327ZM70.3646 26.0327H70.7365V27.2687H70.3646V26.0327Z" fill="white"/>
<path fill-rule="evenodd" clip-rule="evenodd" d="M72.1802 26.8969V27.2688H70.5287V26.8969H72.1802ZM72.2896 25.9453V26.3063H71.2396V25.9453H72.2896Z" fill="white"/>
<path fill-rule="evenodd" clip-rule="evenodd" d="M1.80825 46.5078H2.4645V47.6562H1.80825V46.5078ZM19.3629 46.5078H20.0192V47.6562H19.3629V46.5078ZM-11.6667 46.5078H-11.0105V47.6562H-11.6667V46.5078ZM-2.75269 46.5078H-2.09644V47.6562H-2.75269V46.5078ZM6.09575 46.5078H6.752V47.6562H6.09575V46.5078ZM10.4708 46.5078H11.127V47.6562H10.4708V46.5078ZM14.9442 46.5078H15.6004V47.6562H14.9442V46.5078ZM23.7379 46.5078H24.3942V47.6562H23.7379V46.5078ZM45.9411 46.5078H46.6082V47.6562H45.952L45.9411 46.5078ZM28.2114 46.5078H28.8676V47.6562H28.2114V46.5078ZM32.5864 46.5078H33.2426V47.6562H32.5864V46.5078ZM37.0161 46.5078H37.6723V47.6562H37.0161V46.5078ZM41.4348 46.5078H42.0911V47.6562H41.4348V46.5078ZM76.7848 46.5078H77.4411V47.6562H76.7848V46.5078ZM50.2395 46.5078H50.8958V47.6562H50.2395V46.5078ZM54.702 46.5078H55.3583V47.6562H54.702V46.5078ZM59.2192 46.5078H59.8754V47.6562H59.2192V46.5078ZM63.4629 46.5078H64.1192V47.6562H63.4629V46.5078ZM67.9801 46.5078H68.6364V47.6562H67.9801V46.5078ZM72.3989 46.5078H73.0551V47.6562H72.3989V46.5078ZM85.4911 46.5078H86.1473V47.6562H85.4911V46.5078ZM81.2473 46.5078H81.9036V47.6562H81.2473V46.5078ZM-7.22612 46.5078H-6.56987V47.6562H-7.22612V46.5078Z" fill="#D90000"/>
<path fill-rule="evenodd" clip-rule="evenodd" d="M1.80825 27.1594H2.4645V28.3079H1.80825V27.1594ZM19.3629 27.1594H20.0192V28.3079H19.3629V27.1594ZM-11.6667 27.1594H-11.0105V28.3079H-11.6667V27.1594ZM-2.75269 27.1594H-2.09644V28.3079H-2.75269V27.1594ZM6.09575 27.1594H6.752V28.3079H6.09575V27.1594ZM10.4708 27.1594H11.127V28.3079H10.4708V27.1594ZM14.9442 27.1594H15.6004V28.3079H14.9442V27.1594ZM23.7379 27.1594H24.3942V28.3079H23.7379V27.1594ZM45.9411 27.1594H46.6082V28.3079H45.952L45.9411 27.1594ZM28.2114 27.1594H28.8676V28.3079H28.2114V27.1594ZM32.5864 27.1594H33.2426V28.3079H32.5864V27.1594ZM37.0161 27.1594H37.6723V28.3079H37.0161V27.1594ZM41.4348 27.1594H42.0911V28.3079H41.4348V27.1594ZM76.7848 27.1594H77.4411V28.3079H76.7848V27.1594ZM50.2395 27.1594H50.8958V28.3079H50.2395V27.1594ZM54.702 27.1594H55.3583V28.3079H54.702V27.1594ZM59.2192 27.1594H59.8754V28.3079H59.2192V27.1594ZM63.4629 27.1594H64.1192V28.3079H63.4629V27.1594ZM67.9801 27.1594H68.6364V28.3079H67.9801V27.1594ZM72.3989 27.1594H73.0551V28.3079H72.3989V27.1594ZM85.4911 27.1594H86.1473V28.3079H85.4911V27.1594ZM81.2473 27.1594H81.9036V28.3079H81.2473V27.1594ZM-7.22612 27.1594H-6.56987V28.3079H-7.22612V27.1594Z" fill="#239E3F"/>
<path fill-rule="evenodd" clip-rule="evenodd" d="M39.9363 30.9766C40.855 32.1141 43.7097 38.3703 38.2191 42.4828C35.6269 44.4297 37.2347 44.5172 37.3113 44.8453C41.4675 42.6469 42.8128 39.65 42.78 36.9703C42.7581 34.3016 41.3363 31.9391 39.9363 30.9766Z" fill="#DA0000"/>
<path fill-rule="evenodd" clip-rule="evenodd" d="M40.4832 30.6812C41.498 31.2986 42.3629 32.1339 43.0154 33.1266C43.6678 34.1193 44.0915 35.2445 44.2559 36.421C44.4202 37.5975 44.321 38.7958 43.9656 39.9292C43.6101 41.0627 43.0072 42.103 42.2004 42.9749C45.1754 42.3187 48.9817 33.5249 40.4832 30.6812ZM34.1832 30.6812C33.1692 31.2996 32.3053 32.1356 31.6539 33.1287C31.0025 34.1218 30.5799 35.2472 30.4166 36.4237C30.2533 37.6001 30.3535 38.7981 30.7098 39.9311C31.0661 41.064 31.6697 42.1037 32.477 42.9749C29.491 42.3187 25.6957 33.5249 34.1832 30.6812Z" fill="#DA0000"/>
<path fill-rule="evenodd" clip-rule="evenodd" d="M34.7301 30.9766C33.8113 32.1141 30.9566 38.3703 36.4473 42.4828C39.0285 44.4297 37.4316 44.5172 37.3551 44.8453C33.1988 42.6469 31.8535 39.65 31.8863 36.9703C31.9082 34.3016 33.3301 31.9391 34.7301 30.9766Z" fill="#DA0000"/>
<path fill-rule="evenodd" clip-rule="evenodd" d="M42.6051 44.2765C40.9754 44.2984 38.9301 44.0578 37.4098 43.2593C37.6614 43.7515 37.8692 44.0578 38.1207 44.539C39.5645 44.6812 41.566 44.8453 42.6051 44.2765ZM32.2145 44.2765C33.8442 44.2984 35.8895 44.0578 37.4098 43.2593C37.1582 43.7515 36.9504 44.0578 36.6989 44.539C35.2551 44.6812 33.2535 44.8453 32.2145 44.2765ZM35.2004 29.1062C35.5285 29.9812 36.3926 30.1125 37.3114 29.5984C37.9895 29.9921 39.0285 30.025 39.3895 29.15C39.6629 31.3156 37.3879 30.7906 37.3114 30.375C36.4582 31.1953 34.8832 30.725 35.2004 29.1062Z" fill="#DA0000"/>
<path fill-rule="evenodd" clip-rule="evenodd" d="M37.377 45.6437L38.2301 44.6593L38.3504 31.5233L37.3332 30.6265L36.316 31.4796L36.5239 44.714L37.377 45.6437Z" fill="#DA0000"/>
</g>
<defs>
<clipPath id="clip0_1_66059">
<rect width="74.6667" height="56" fill="white" transform="translate(0 9.375)"/>
</clipPath>
</defs>
</svg>
