<svg width="75" height="75" viewBox="0 0 75 75" fill="none" xmlns="http://www.w3.org/2000/svg">
<rect width="74.6667" height="74.75" fill="white"/>
<g clip-path="url(#clip0_1_65859)">
<path d="M-3.05176e-05 9.375H74.6666V65.375H-3.05176e-05V9.375Z" fill="white"/>
<path fill-rule="evenodd" clip-rule="evenodd" d="M-9.33344 9.375V13.1083L31.5466 37.375L-9.14677 61.6417V65.375H-3.17343L37.5199 41.1083L78.0266 65.375H83.9999V61.6417L43.4932 37.375L84.1866 13.1083V9.375H78.0266L37.3332 33.6417L-3.17343 9.375H-9.14677H-9.33344Z" fill="#DF112D"/>
<path d="M42.2222 17.8126C43.4005 22.6775 42.7543 28.6826 37.3193 32.0273C31.9223 28.6826 31.2382 22.6775 32.4544 17.8126C33.7466 16.6724 39.5237 15.9502 42.2222 17.8126Z" fill="#E8112D" stroke="black" stroke-width="0.0380072"/>
<path d="M37.3573 16.8244C39.0676 16.7864 40.7779 17.2045 42.2602 18.0407C42.51 16.3824 43.1481 14.8066 44.1226 13.4418C43.1724 13.4418 42.7543 13.9359 42.7543 14.43C42.5263 13.7839 41.6141 13.8219 41.31 14.1639C42.3362 14.8481 41.5381 16.0643 40.6259 15.8363C40.2078 15.7222 39.9798 15.4182 39.8658 14.9621C39.9862 14.9385 40.0936 14.8709 40.167 14.7724C40.2403 14.6739 40.2744 14.5517 40.2625 14.4295C40.2507 14.3073 40.1937 14.1939 40.1028 14.1114C40.0119 14.0288 39.8935 13.9831 39.7707 13.9831C39.648 13.9831 39.5296 14.0288 39.4387 14.1114C39.3478 14.1939 39.2908 14.3073 39.279 14.4295C39.2671 14.5517 39.3012 14.6739 39.3745 14.7724C39.4479 14.8709 39.5552 14.9385 39.6757 14.9621C39.4097 15.3422 38.9536 15.5702 38.4975 15.4562C38.0034 15.3422 37.7754 14.8861 37.7754 14.506C37.7754 13.4798 38.7636 13.3278 39.0676 13.5178C39.0676 12.8337 37.9654 12.2636 37.6233 12.8337C38.0034 12.1116 37.9274 11.1994 37.3193 10.6293C37.0412 10.909 36.8613 11.2713 36.8065 11.6618C36.7517 12.0524 36.8249 12.4502 37.0152 12.7957C36.6732 12.2256 35.609 12.7957 35.609 13.4798C35.875 13.2898 36.8632 13.4418 36.8632 14.468C36.8632 14.8481 36.6352 15.3042 36.1791 15.4182C35.9501 15.4712 35.7104 15.4522 35.4927 15.3637C35.275 15.2753 35.0899 15.1217 34.9628 14.9241C35.0388 14.9241 35.1149 14.8481 35.1909 14.7721C35.2671 14.6911 35.3137 14.5868 35.3233 14.4761C35.3329 14.3653 35.3049 14.2546 35.2437 14.1617C35.1826 14.0689 35.092 13.9994 34.9864 13.9644C34.8809 13.9295 34.7667 13.9311 34.6622 13.9691C34.5577 14.0071 34.4691 14.0792 34.4107 14.1738C34.3523 14.2683 34.3275 14.3799 34.3402 14.4903C34.353 14.6007 34.4027 14.7036 34.4812 14.7823C34.5597 14.861 34.6624 14.911 34.7728 14.9241C34.6968 15.3802 34.4307 15.6842 34.0127 15.7983C33.7994 15.8526 33.5737 15.8281 33.3771 15.7291C33.1805 15.6301 33.0263 15.4634 32.943 15.2597C32.8597 15.056 32.8528 14.8291 32.9236 14.6207C32.9945 14.4123 33.1383 14.2366 33.3285 14.1259C33.0245 13.7459 32.1123 13.7459 31.8842 14.392C31.8842 13.8979 31.4662 13.4038 30.516 13.4038C31.504 14.765 32.1552 16.3411 32.4164 18.0027C33.9325 17.1861 35.6358 16.78 37.3573 16.8244Z" fill="#F9DD16" stroke="black" stroke-width="0.0380072"/>
<path d="M41.4621 21.6134C41.31 21.6134 41.31 21.8034 41.272 21.8034C41.5761 21.8034 41.7281 21.6894 41.8041 21.5374V21.7654C42.0322 21.6894 42.1082 21.4994 42.0322 21.3853L42.2982 21.4614C42.1462 21.3473 42.2602 21.0813 41.9942 20.9293C42.0702 20.9293 42.2222 21.0053 42.2982 21.1193C42.2602 20.8532 42.2222 20.7012 41.9942 20.5492H42.1842C42.1346 20.5161 42.0944 20.4707 42.0677 20.4174C42.0411 20.364 42.0288 20.3047 42.0322 20.2451C42.0322 20.0931 41.9562 20.0931 41.8041 20.1311L41.12 20.1691C40.7399 20.1691 40.3599 20.1691 40.0558 19.9411C40.5499 20.1691 41.196 19.713 41.196 19.371C41.196 18.9909 40.6639 18.6108 39.6757 18.8389C38.6875 19.0669 37.4713 18.9909 37.4713 18.6488C37.4713 18.3068 38.3455 18.2687 38.8016 18.3448C39.2576 18.4208 39.5617 18.4588 40.3979 18.1547C40.2078 18.2307 39.5237 18.2687 38.9916 18.1167C38.4595 17.9647 37.1672 17.9647 37.1672 18.6488C37.1672 19.371 38.5355 19.2949 39.7517 19.1049C40.4359 19.0289 40.8159 19.1049 40.8159 19.2949C40.8159 19.523 40.1698 19.599 39.6757 19.561C39.154 19.4907 38.6234 19.5295 38.1174 19.675C37.6233 19.827 37.2813 19.675 36.7492 19.789C36.4831 19.789 35.837 19.789 35.5329 19.2569C35.3429 19.409 34.7728 19.675 34.6588 19.9791C34.5448 20.2071 34.6588 20.4732 34.8108 20.7392C35.0388 21.0433 34.6968 21.0053 34.4307 21.0053C34.1267 21.0053 33.6706 21.0053 33.4425 20.7012C33.2145 20.4732 32.9484 20.2831 32.7204 20.4352C32.6064 20.5492 32.7204 20.6632 32.7964 20.6252L33.1005 20.7012C33.0394 20.6734 32.9721 20.6623 32.9053 20.669C32.8386 20.6757 32.7748 20.6999 32.7204 20.7392C32.6064 20.8152 32.7204 20.9673 32.8344 20.9293C32.9104 20.8912 33.1005 20.8532 33.2145 20.9293C33.1005 20.9293 32.9484 20.9293 32.9104 21.0053C32.8724 21.0813 32.9104 21.1573 33.0245 21.1573C33.2525 21.1573 33.2905 21.3093 33.5186 21.2713C33.4654 21.2742 33.4137 21.2895 33.3676 21.3159C33.3214 21.3423 33.282 21.3791 33.2525 21.4233C33.4805 21.3093 33.6706 21.5754 33.9366 21.4994C33.8606 21.5374 33.6706 21.6514 33.6706 21.7274C33.8226 21.5374 34.8868 21.8794 34.8868 21.4614L34.8488 21.7654C34.9628 21.6894 35.3809 21.6514 35.5329 21.3853C35.5329 21.4614 35.5329 21.5754 35.4569 21.6134C35.5709 21.6134 35.761 21.5374 35.951 21.2713C36.027 21.1573 36.027 21.0813 36.027 21.0053C36.2171 21.0053 36.3311 20.9673 36.4831 20.8532C36.6351 20.7392 36.7872 20.9673 37.0532 20.7772C37.2813 20.6252 37.5093 20.7772 37.6613 20.7012C37.7754 20.6252 37.9654 20.7012 38.1174 20.6252C38.2695 20.5492 38.4975 20.6632 38.7255 20.4732C39.1056 20.6252 39.5997 20.8532 40.7019 20.6632C41.31 20.5492 41.5381 20.7772 41.5381 21.0433C41.5381 21.2713 41.386 21.2713 41.31 21.2713C40.93 21.3093 40.8159 21.1573 40.6639 21.1953C40.5879 21.2333 40.5119 21.3853 40.6639 21.4614C40.5499 21.4994 40.5499 21.6134 40.6259 21.6514C40.7019 21.6894 40.8159 21.6514 40.93 21.6134C40.7779 21.6514 40.6639 21.7654 40.7399 21.8794C40.7779 21.9554 40.892 21.9935 41.006 21.8794C41.12 21.7274 41.31 21.6134 41.4621 21.6134ZM34.3927 18.5728C34.0887 18.4588 34.0126 18.4588 34.0507 18.7248C34.0507 18.8389 34.1647 18.9909 34.2407 19.0669C34.2407 18.9529 34.2787 18.6868 34.3927 18.6108V18.5728Z" fill="#F9DD16" stroke="black" stroke-width="0.0380072"/>
<path d="M35.4189 18.6108C35.723 18.4587 35.837 18.4587 35.761 18.7248C35.761 18.8388 35.647 18.9909 35.5709 19.0669C35.5709 18.9528 35.5709 18.6868 35.4189 18.6108Z" fill="#F9DD16" stroke="black" stroke-width="0.0380072"/>
<path d="M34.9248 18.4208C35.5329 18.4208 35.6089 18.7248 35.5709 19.0669C35.5709 19.447 35.3809 19.2949 35.2669 19.827C35.2289 19.9791 35.0768 20.0171 34.8868 20.0171C34.7728 20.0171 34.6208 20.0171 34.5447 19.789C34.4307 19.2949 34.2407 19.409 34.2407 19.0289C34.2407 18.7248 34.3167 18.4208 34.9248 18.4208Z" fill="#F9DD16" stroke="black" stroke-width="0.0380072"/>
<path d="M33.3665 19.8271C33.2145 19.751 33.1005 19.8271 33.0245 19.8271C33.2525 19.8651 33.2525 20.1311 33.7086 20.2071C33.5946 20.2071 33.5566 20.2831 33.4425 20.2071C33.6326 20.3592 33.8226 20.5492 34.2787 20.5492C34.5447 20.5492 34.3547 20.6632 34.2027 20.5872C34.3547 20.7772 34.6968 20.6252 34.9248 20.9673C34.9248 20.7012 34.5447 20.3211 34.7348 20.0551C34.0887 20.0171 34.0506 19.675 33.7086 19.409C33.4045 19.1809 33.3665 18.9529 33.2525 18.5348C33.2145 18.3448 32.9864 18.2307 32.8724 18.2688C32.7584 18.2688 32.6824 18.3828 32.7964 18.4588C32.8724 18.5348 33.0245 18.5348 33.0245 18.7248C32.9104 18.5728 32.7204 18.5348 32.6444 18.6108C32.6064 18.6868 32.6444 18.8009 32.7204 18.8009C32.9104 18.8009 32.7964 19.0289 32.9864 19.1809C32.7964 18.9909 32.6444 18.9529 32.5304 19.0669C32.4923 19.1429 32.5304 19.2569 32.6824 19.2569C32.8724 19.2569 33.0625 19.713 33.3665 19.8271ZM38.3075 21.5754C38.2314 21.5754 38.2694 21.7654 38.1174 21.7654C38.4215 21.7654 38.6115 21.6894 38.7255 21.5754L38.6495 21.7654C38.8015 21.6514 39.2196 21.6134 39.4097 21.6514C39.5997 21.6894 39.6377 21.6134 39.7137 21.4994C39.7897 21.3473 39.7137 21.2713 39.5997 21.1953C39.4857 21.0813 39.4477 20.9293 39.4857 20.7012C38.9536 19.9411 37.9654 20.3211 37.9654 20.6252C38.3075 21.0433 38.3455 21.0053 38.6495 21.0433C38.9156 21.1193 39.1056 21.1193 38.9156 21.2713C38.8396 21.3473 38.5355 21.2713 38.3455 21.3093C37.8514 21.3093 37.5853 20.9673 37.4713 21.1573C37.3573 21.3093 37.4713 21.3853 37.6993 21.3853C37.5473 21.3853 37.3193 21.3853 37.3573 21.5374C37.4333 21.8034 37.6613 21.4994 37.7754 21.5754C37.6993 21.5754 37.5473 21.6134 37.5473 21.6894C37.5473 21.7654 37.7373 21.8794 37.9274 21.6894C38.0378 21.61 38.1716 21.5698 38.3075 21.5754Z" fill="#F9DD16" stroke="black" stroke-width="0.0380072"/>
<path d="M38.7255 20.4731C38.5735 20.3971 38.3835 20.3591 38.1934 20.3971M36.065 20.3971C35.913 20.7012 35.989 20.8532 36.027 21.0052M34.5067 18.8768C34.5828 18.9528 34.6588 18.8008 34.8108 18.9528C34.7728 18.9148 34.6968 19.0669 34.5828 18.9528M35.3429 18.9148C35.2289 18.9148 35.1529 18.8008 35.0008 18.9528C35.0388 18.9148 35.1149 19.0669 35.2289 18.9528M35.0008 18.9528V19.0669C35.0388 19.3329 35.1149 19.4469 34.8868 19.4469C34.6968 19.4469 34.7728 19.3329 34.8108 19.0669V18.9528" stroke="black" stroke-width="0.0380072"/>
<path d="M34.9249 19.903C35.0769 19.903 35.1529 19.903 35.1529 19.675C35.1529 19.599 35.2669 19.561 35.1909 19.4089C35.2669 19.561 34.9249 19.561 34.9249 19.485C34.9249 19.561 34.5448 19.561 34.6208 19.4089C34.5828 19.561 34.6968 19.599 34.6588 19.675C34.6588 19.903 34.7348 19.903 34.9249 19.903Z" fill="#FF0016" stroke="black" stroke-width="0.0380072"/>
<path d="M34.7348 19.4469L34.3548 19.3329L34.7348 19.4469ZM34.7348 19.4469H34.3548H34.7348ZM34.7348 19.4849L34.3928 19.5989L34.7348 19.4849ZM35.0389 19.4469L35.419 19.3329L35.0389 19.4469ZM35.0389 19.4469H35.495H35.0389ZM35.0389 19.4849L35.419 19.5989L35.0389 19.4849Z" fill="black"/>
<path d="M34.7348 19.4469L34.3548 19.3329M34.7348 19.4469H34.3548M34.7348 19.4849L34.3928 19.5989M35.0389 19.4469L35.419 19.3329M35.0389 19.4469H35.495M35.0389 19.4849L35.419 19.5989" stroke="black" stroke-width="0.0380072"/>
<path d="M32.8725 18.2688C32.7584 18.1168 32.4924 18.2688 32.4924 18.4208C32.5684 18.3068 32.7204 18.4588 32.8344 18.4208C32.8725 18.4208 32.9485 18.3448 32.8725 18.2688ZM32.7584 18.6108C32.6444 18.4588 32.3404 18.6108 32.3404 18.7629C32.4164 18.6489 32.5684 18.8009 32.6824 18.7629C32.7204 18.7629 32.7964 18.6489 32.7584 18.6108ZM32.6824 19.0669C32.5304 18.9149 32.2643 19.0669 32.3023 19.257C32.3784 19.1429 32.5304 19.257 32.6064 19.257C32.6824 19.219 32.7204 19.1049 32.6444 19.0669H32.6824ZM32.7964 20.4732C32.6444 20.3212 32.4164 20.5112 32.4164 20.7012C32.4924 20.5492 32.6824 20.7012 32.7964 20.6252C32.7964 20.6252 32.8725 20.5112 32.7964 20.4352V20.4732ZM32.7964 20.7393C32.6064 20.7012 32.4164 20.9673 32.5304 21.1193C32.5304 20.9293 32.7584 21.0053 32.8344 20.9293L32.7964 20.7393ZM33.0245 21.0053C32.8344 20.9293 32.6444 21.1573 32.7584 21.3094C32.7584 21.1953 32.9865 21.2333 33.0245 21.1573V20.9673V21.0053ZM37.4713 21.4234C37.2813 21.3854 37.0913 21.6134 37.2053 21.8035C37.2053 21.6134 37.4333 21.6894 37.5093 21.6134L37.4713 21.4234ZM37.6994 21.6514C37.5093 21.6134 37.3573 21.8795 37.4713 22.0315C37.4713 21.8415 37.6994 21.8795 37.7374 21.8035C37.7754 21.7654 37.7754 21.6514 37.7374 21.6514H37.6994ZM37.5473 21.1193C37.3953 21.0433 37.1673 21.2714 37.2053 21.4234C37.2813 21.2714 37.4713 21.3854 37.5473 21.3094V21.1573V21.1193ZM40.7019 21.4994C40.5499 21.4614 40.3979 21.7274 40.4739 21.8795C40.4739 21.7274 40.7019 21.7654 40.778 21.6894C40.778 21.6134 40.778 21.4994 40.7019 21.4994ZM40.7019 21.2333C40.5499 21.1193 40.3219 21.3474 40.3979 21.4994C40.4739 21.3854 40.6639 21.4614 40.7399 21.3854V21.1953L40.7019 21.2333ZM40.854 21.7274C40.6639 21.7274 40.5119 21.9935 40.6259 22.1075C40.6259 21.9555 40.854 21.9935 40.892 21.9175C40.93 21.8415 40.892 21.7654 40.854 21.7274ZM34.9248 19.7511C35.0389 19.7511 35.0769 19.7891 35.0769 20.0171C35.0769 20.3972 35.0769 20.6252 34.9248 20.6252C34.8108 20.6252 34.8108 20.4352 34.8108 20.1311C34.8108 19.9791 34.8108 19.8651 34.7728 19.9031C34.7728 19.7891 34.8108 19.7511 34.9248 19.7511Z" fill="#0051BA"/>
<path d="M40.8919 25.6041C40.7779 25.6041 40.7779 25.7562 40.7399 25.7562C41.0059 25.7562 41.12 25.6802 41.196 25.5281V25.7182C41.424 25.6802 41.5 25.4901 41.424 25.3761L41.6521 25.4521C41.538 25.3761 41.6521 25.1101 41.386 24.996C41.462 24.996 41.576 25.034 41.6521 25.1481C41.6521 24.92 41.576 24.768 41.386 24.654H41.538C41.4922 24.6192 41.4572 24.5723 41.437 24.5184C41.4169 24.4646 41.4123 24.4062 41.424 24.3499C41.424 24.2359 41.348 24.2359 41.196 24.2739H40.5879C40.2458 24.2739 39.9037 24.2739 39.6377 24.0839C40.0938 24.3119 40.6639 23.8938 40.6639 23.5898C40.6639 23.2097 40.1698 22.9056 39.2956 23.0957C38.4214 23.3237 37.3192 23.2477 37.3192 22.9436C37.3192 22.6396 38.0794 22.5636 38.4975 22.6396C38.9155 22.7156 39.1816 22.7536 39.9417 22.4876C39.7897 22.5636 39.1816 22.6016 38.6875 22.4496C38.1934 22.2975 37.0532 22.2975 37.0532 22.9436C37.0532 23.5898 38.2694 23.5138 39.3336 23.3237C39.9797 23.2857 40.3218 23.3237 40.3218 23.5138C40.3218 23.7038 39.7517 23.7798 39.2956 23.7418C38.824 23.6817 38.3451 23.7205 37.8893 23.8558C37.4333 24.0078 37.1292 23.8558 36.6731 23.9698C36.4071 23.9698 35.837 23.9698 35.5329 23.4757C35.3809 23.6278 34.8868 23.8558 34.7728 24.1219C34.6967 24.3499 34.7728 24.578 34.9248 24.806C35.1148 25.072 34.8108 25.034 34.5447 25.034C34.3167 25.034 33.8986 25.034 33.6705 24.768C33.4805 24.578 33.2525 24.3879 33.0244 24.5399C32.9484 24.654 33.0244 24.73 33.1004 24.692L33.3665 24.768C33.3112 24.7435 33.2504 24.7342 33.1903 24.7408C33.1302 24.7475 33.073 24.77 33.0244 24.806C32.9484 24.882 33.0244 25.034 33.1384 24.996C33.2145 24.958 33.3665 24.92 33.4805 24.996L33.2145 25.034C33.1765 25.072 33.2145 25.1861 33.3285 25.1861C33.5185 25.1861 33.5565 25.3381 33.7466 25.3001C33.7026 25.3015 33.6594 25.3124 33.62 25.332C33.5806 25.3517 33.546 25.3797 33.5185 25.4141C33.7086 25.3381 33.8986 25.5661 34.1266 25.4901C34.0506 25.5281 33.8986 25.6422 33.8986 25.7182C34.0126 25.5281 35.0008 25.8322 35.0008 25.4521L34.9628 25.7182C35.0388 25.6802 35.4189 25.6422 35.5709 25.3761C35.5709 25.4521 35.5709 25.5661 35.4949 25.6041C35.6089 25.6041 35.7609 25.5281 35.951 25.3001C36.027 25.1861 36.027 25.1101 36.027 25.034C36.179 25.034 36.293 25.034 36.4071 24.92C36.5591 24.806 36.7111 25.034 36.9392 24.844C37.1292 24.692 37.3192 24.844 37.4713 24.768C37.5853 24.692 37.7753 24.768 37.8893 24.692C38.0034 24.616 38.2694 24.73 38.4595 24.578C38.8015 24.692 39.2196 24.92 40.2078 24.73C40.7779 24.654 40.9679 24.844 40.9679 25.1101C40.9679 25.3001 40.8539 25.3001 40.7779 25.3001C40.3978 25.3001 40.3218 25.1861 40.1698 25.2241C40.1318 25.2241 40.0558 25.3761 40.1698 25.4521C40.0938 25.4901 40.0938 25.6041 40.1698 25.6422C40.2458 25.6802 40.3218 25.6422 40.4358 25.6041C40.2838 25.6041 40.1698 25.7182 40.2458 25.8322C40.2838 25.9082 40.3978 25.9462 40.5118 25.8322C40.5879 25.7182 40.7779 25.6041 40.8919 25.6041ZM34.5447 22.8676C34.2787 22.7536 34.1646 22.7536 34.2407 22.9817C34.2407 23.0957 34.3547 23.2477 34.3927 23.3237C34.3927 23.2097 34.4307 22.9436 34.5447 22.9056V22.8676Z" fill="#F9DD16" stroke="black" stroke-width="0.0380072"/>
<path d="M35.4949 22.9056C35.7229 22.7536 35.875 22.7536 35.7609 22.9817C35.7609 23.0957 35.6849 23.2477 35.6089 23.3237C35.6089 23.2097 35.6089 22.9436 35.4569 22.9056H35.4949Z" fill="#F9DD16" stroke="black" stroke-width="0.0380072"/>
<path d="M35.0388 22.7156C35.5709 22.7156 35.6469 22.9816 35.6089 23.3237C35.6089 23.6658 35.4189 23.5137 35.3429 24.0078C35.3049 24.1218 35.1528 24.1599 34.9628 24.1599C34.8868 24.1599 34.7348 24.1599 34.6968 23.9698C34.5827 23.5137 34.3927 23.5897 34.3927 23.2857C34.3927 22.9816 34.4687 22.7156 35.0388 22.7156Z" fill="#F9DD16" stroke="black" stroke-width="0.0380072"/>
<path d="M33.5945 24.0078C33.4805 23.9318 33.3665 24.0078 33.3285 24.0078C33.5185 24.0078 33.5185 24.2739 33.9366 24.3499H33.6706C33.8606 24.4639 34.0506 24.6539 34.4307 24.6539C34.6968 24.6539 34.5067 24.7299 34.3547 24.6539C34.5067 24.844 34.8108 24.6919 35.0388 25.034C35.0388 24.768 34.6587 24.4259 34.8488 24.1978C34.2787 24.1598 34.2407 23.8178 33.9366 23.6277C33.6706 23.3997 33.6326 23.2097 33.5185 22.8296C33.4805 22.6396 33.2905 22.5635 33.1385 22.6015C33.0624 22.6015 32.9864 22.6776 33.1385 22.7536C33.1385 22.8296 33.3285 22.8296 33.3285 22.9816C33.2145 22.8676 33.0244 22.8296 32.9484 22.9056C32.9484 22.9816 32.9484 23.0576 33.0244 23.0576C33.2145 23.0576 33.1004 23.2857 33.2905 23.4377C33.1004 23.2477 32.9864 23.2097 32.8724 23.3237C32.8344 23.3617 32.8724 23.4757 32.9864 23.4757C33.1765 23.4757 33.3665 23.8558 33.6326 24.0078H33.5945ZM38.0794 25.5281C38.0034 25.5281 38.0414 25.7181 37.8894 25.7181C38.1554 25.7181 38.3454 25.6801 38.4595 25.5661L38.3835 25.7181C38.4975 25.6421 38.8775 25.6041 39.0676 25.6421C39.2576 25.6801 39.2576 25.6041 39.3336 25.4901C39.4096 25.3761 39.3336 25.3001 39.2196 25.224C39.1436 25.11 39.1056 24.996 39.1436 24.768C38.6495 24.0838 37.7753 24.4259 37.7753 24.6919C38.0794 25.072 38.1174 25.072 38.3835 25.072C38.6115 25.148 38.7635 25.148 38.6115 25.3001C38.5355 25.3761 38.2694 25.3001 38.1174 25.3001C37.6613 25.3001 37.4333 25.034 37.3193 25.186C37.2052 25.3381 37.3193 25.3761 37.5093 25.3761C37.3953 25.3761 37.1672 25.3761 37.2052 25.5281C37.2812 25.7561 37.4713 25.5281 37.5853 25.5281C37.5093 25.5281 37.3953 25.6041 37.3953 25.6801C37.3953 25.7181 37.5473 25.8322 37.7373 25.6801C37.8346 25.6035 37.9556 25.5631 38.0794 25.5661V25.5281Z" fill="#F9DD16" stroke="black" stroke-width="0.0380072"/>
<path d="M38.4596 24.5779C38.3082 24.4976 38.134 24.4708 37.9655 24.5019M36.0651 24.5019C35.9131 24.768 35.9891 24.882 36.0271 25.034M34.6589 23.1336C34.6969 23.2097 34.7729 23.0576 34.9249 23.2097C34.8869 23.1716 34.8109 23.3237 34.6969 23.2097M35.381 23.1716C35.305 23.1716 35.229 23.0576 35.0769 23.1716C35.1149 23.1716 35.191 23.3237 35.305 23.1716M35.0769 23.1716V23.3237C35.1149 23.5517 35.191 23.6657 35.0009 23.6657C34.8109 23.6657 34.8869 23.5517 34.9249 23.2857V23.2097" stroke="black" stroke-width="0.0380072"/>
<path d="M35.0389 24.0458C35.153 24.0458 35.229 24.0458 35.229 23.8557C35.229 23.7797 35.343 23.7417 35.229 23.6277C35.343 23.7417 35.0389 23.7417 35.0389 23.6657C35.0389 23.7417 34.6589 23.7417 34.7349 23.6277C34.7349 23.7417 34.8109 23.7797 34.7729 23.8557C34.7729 24.0458 34.8489 24.0458 35.0389 24.0458Z" fill="#FF0016" stroke="black" stroke-width="0.0380072"/>
<path d="M34.8489 23.6658L34.5068 23.5518L34.8489 23.6658ZM34.8489 23.6658H34.5068H34.8489ZM34.8489 23.6658L34.5448 23.7798L34.8489 23.6658ZM35.1149 23.6658L35.495 23.5518L35.1149 23.6658ZM35.1149 23.6658H35.533H35.1149ZM35.1529 23.6658L35.457 23.7798L35.1529 23.6658Z" fill="black"/>
<path d="M34.8489 23.6658L34.5068 23.5518M34.8489 23.6658H34.5068M34.8489 23.6658L34.5448 23.7798M35.1149 23.6658L35.495 23.5518M35.1149 23.6658H35.533M35.1529 23.6658L35.457 23.7798" stroke="black" stroke-width="0.0380072"/>
<path d="M33.1766 22.6016C33.0625 22.4495 32.7965 22.6016 32.7965 22.7156C32.9105 22.6396 33.0245 22.7536 33.1386 22.7156C33.1386 22.7156 33.2526 22.6396 33.1386 22.6016H33.1766ZM33.0625 22.9056C32.9865 22.7536 32.6825 22.9056 32.6825 23.0196C32.7585 22.9436 32.9105 23.0577 32.9865 23.0196C33.0245 23.0196 33.1005 22.9436 33.0625 22.9056ZM32.9865 23.2857C32.8725 23.1717 32.6065 23.2857 32.6445 23.4757C32.7205 23.3617 32.8725 23.4757 32.9485 23.4757C32.9865 23.4757 33.0245 23.3237 32.9485 23.3237L32.9865 23.2857ZM33.1005 24.5779C32.9865 24.4259 32.7585 24.5779 32.7585 24.768C32.8345 24.654 32.9865 24.768 33.1386 24.692V24.5779H33.1005ZM33.1005 24.806C32.9485 24.806 32.7585 25.034 32.8725 25.1861C32.8725 24.996 33.0625 25.034 33.1386 24.996V24.806H33.1005ZM33.3286 25.034C33.1386 24.996 32.9485 25.1861 33.0625 25.3381C33.0625 25.2241 33.2906 25.2621 33.3286 25.1861V25.034ZM37.3193 25.4141C37.1293 25.4141 36.9393 25.6041 37.0913 25.7942C37.0913 25.6041 37.2813 25.6801 37.3574 25.6041L37.3193 25.4141ZM37.5094 25.6421C37.3574 25.6041 37.2053 25.8322 37.3193 25.9842C37.3193 25.7942 37.5094 25.8322 37.5474 25.7562V25.6421H37.5094ZM37.3954 25.148C37.2433 25.072 37.0153 25.3001 37.0913 25.4141C37.1293 25.3001 37.3193 25.4141 37.3954 25.3381V25.1861V25.148ZM40.2079 25.5281C40.0939 25.4521 39.9418 25.7182 40.0179 25.8322C40.0179 25.7182 40.2079 25.7182 40.2839 25.6801C40.2839 25.6041 40.2839 25.4901 40.2079 25.4901V25.5281ZM40.2079 25.2621C40.0939 25.148 39.8658 25.3761 39.9418 25.4901C40.0179 25.3761 40.1699 25.4901 40.2459 25.3761V25.2241L40.2079 25.2621ZM40.3599 25.7182C40.1699 25.7182 40.0559 25.9462 40.1699 26.0602C40.1699 25.9082 40.3599 25.9462 40.3979 25.8702L40.3599 25.7182ZM35.0389 23.9318C35.1149 23.9318 35.1529 23.9318 35.1529 24.1599C35.1529 24.5019 35.1529 24.692 35.0389 24.692C34.9249 24.692 34.9249 24.5399 34.9249 24.2739C34.9249 24.1219 34.9249 24.0078 34.8869 24.0458C34.8869 23.9698 34.8869 23.9318 35.0389 23.9318Z" fill="#0051BA"/>
<path d="M39.968 29.0058C39.8661 29.0058 39.8661 29.1483 39.8406 29.1483C40.0444 29.1483 40.1462 29.0628 40.1971 28.9487V29.1198C40.3499 29.0628 40.4009 28.9202 40.3499 28.8347L40.5282 28.8917C40.4263 28.8062 40.5027 28.6067 40.3245 28.4927C40.3754 28.4927 40.4773 28.5497 40.5282 28.6352C40.5027 28.4356 40.4773 28.3216 40.3245 28.2076H40.4518C40.4185 28.1828 40.3916 28.1487 40.3738 28.1087C40.3559 28.0687 40.3477 28.0242 40.3499 27.9796C40.3499 27.8655 40.299 27.8655 40.1971 27.894L39.7388 27.9225C39.4841 27.9225 39.2295 27.9225 39.0258 27.7515C39.3568 27.9225 39.7897 27.5805 39.7897 27.3239C39.7897 27.0389 39.4332 26.7538 38.7711 26.9249C38.109 27.0959 37.2942 27.0389 37.2942 26.7823C37.2942 26.5258 37.8798 26.4973 38.1854 26.5543C38.491 26.6113 38.6947 26.6398 39.255 26.4118C39.1276 26.4688 38.6693 26.4973 38.3128 26.3833C37.9562 26.2692 37.0904 26.2692 37.0904 26.7823C37.0904 27.3239 38.0072 27.2669 38.822 27.1244C39.2804 27.0674 39.5351 27.1244 39.5351 27.2669C39.5351 27.438 39.1022 27.495 38.7711 27.4665C38.4216 27.4137 38.066 27.4428 37.7271 27.552C37.396 27.666 37.1668 27.552 36.8103 27.6375C36.6321 27.6375 36.1992 27.6375 35.9955 27.2384C35.8681 27.3524 35.4862 27.552 35.4098 27.78C35.3334 27.9511 35.4098 28.1506 35.5116 28.3501C35.6644 28.5782 35.4352 28.5497 35.257 28.5497C35.0533 28.5497 34.7477 28.5497 34.5949 28.3216C34.4421 28.1506 34.2638 28.0081 34.1111 28.1221C34.0347 28.2076 34.1111 28.2931 34.162 28.2646L34.3657 28.3216C34.3248 28.3008 34.2797 28.2925 34.2349 28.2975C34.1902 28.3025 34.1475 28.3206 34.1111 28.3501C34.0347 28.4071 34.1111 28.5212 34.1874 28.4927C34.2384 28.4641 34.3657 28.4356 34.4421 28.4927C34.3657 28.4927 34.2638 28.4927 34.2384 28.5497C34.2129 28.6067 34.2384 28.6637 34.3148 28.6637C34.4676 28.6637 34.493 28.7777 34.6458 28.7492C34.6102 28.7514 34.5756 28.7628 34.5446 28.7826C34.5137 28.8024 34.4873 28.83 34.4676 28.8632C34.6204 28.7777 34.7477 28.9772 34.9259 28.9202C34.875 28.9487 34.7477 29.0343 34.7477 29.0913C34.8495 28.9487 35.5626 29.2053 35.5626 28.8917L35.5371 29.1198C35.6135 29.0628 35.8936 29.0343 35.9955 28.8347C35.9955 28.8917 35.9955 28.9772 35.9445 29.0058C36.0209 29.0058 36.1482 28.9487 36.2756 28.7492C36.3265 28.6637 36.3265 28.6067 36.3265 28.5497C36.4538 28.5497 36.5302 28.5212 36.6321 28.4356C36.7339 28.3501 36.8358 28.5212 37.014 28.3786C37.1668 28.2646 37.3196 28.3786 37.4215 28.3216C37.4979 28.2646 37.6252 28.3216 37.7271 28.2646C37.8289 28.2076 37.9817 28.2931 38.1345 28.1506C38.3891 28.2646 38.7202 28.4356 39.4587 28.2931C39.8661 28.2076 40.0189 28.3786 40.0189 28.5782C40.0189 28.7492 39.917 28.7492 39.8661 28.7492C39.6115 28.7777 39.5351 28.6637 39.4332 28.6922C39.3823 28.7207 39.3313 28.8347 39.4332 28.8917C39.3568 28.9202 39.3568 29.0058 39.4077 29.0343C39.4587 29.0628 39.5351 29.0343 39.6115 29.0058C39.5096 29.0343 39.4332 29.1198 39.4841 29.2053C39.5096 29.2623 39.586 29.2908 39.6624 29.2053C39.7388 29.0913 39.8661 29.0058 39.968 29.0058ZM35.2315 26.7253C35.0278 26.6398 34.9769 26.6398 35.0023 26.8393C35.0023 26.9249 35.0787 27.0389 35.1296 27.0959C35.1296 27.0104 35.1551 26.8108 35.2315 26.7538V26.7253Z" fill="#F9DD16" stroke="black" stroke-width="0.0269423"/>
<path d="M35.9191 26.7538C36.1228 26.6398 36.1992 26.6398 36.1483 26.8393C36.1483 26.9248 36.0719 27.0389 36.0209 27.0959C36.0209 27.0103 36.0209 26.8108 35.9191 26.7538Z" fill="#F9DD16" stroke="black" stroke-width="0.0269423"/>
<path d="M35.588 26.6113C35.9954 26.6113 36.0464 26.8394 36.0209 27.0959C36.0209 27.381 35.8936 27.267 35.8172 27.666C35.7917 27.78 35.6899 27.8086 35.5625 27.8086C35.4861 27.8086 35.3843 27.8086 35.3334 27.6375C35.257 27.267 35.1296 27.3525 35.1296 27.0674C35.1296 26.8394 35.1806 26.6113 35.588 26.6113Z" fill="#F9DD16" stroke="black" stroke-width="0.0269423"/>
<path d="M34.544 27.666C34.4421 27.609 34.3657 27.666 34.3148 27.666C34.4676 27.6945 34.4676 27.894 34.7731 27.9511C34.6967 27.9511 34.6713 28.0081 34.5949 27.9511C34.7222 28.0651 34.8495 28.2076 35.1551 28.2076C35.3334 28.2076 35.206 28.2931 35.1042 28.2361C35.206 28.3786 35.4352 28.2646 35.588 28.5212C35.588 28.3216 35.3334 28.0366 35.4607 27.837C35.0278 27.8085 35.0023 27.552 34.7731 27.3524C34.5694 27.1814 34.544 27.0104 34.4676 26.6968C34.4421 26.5543 34.2893 26.4688 34.2129 26.4973C34.1365 26.4973 34.0856 26.5828 34.162 26.6398C34.2129 26.6968 34.3148 26.6968 34.3148 26.8393C34.2384 26.7253 34.1111 26.6968 34.0601 26.7538C34.0347 26.8108 34.0601 26.8964 34.1111 26.8964C34.2384 26.8964 34.162 27.0674 34.2893 27.1814C34.162 27.0389 34.0601 27.0104 33.9837 27.0959C33.9583 27.1529 33.9837 27.2384 34.0856 27.2384C34.2129 27.2384 34.3402 27.5805 34.544 27.666ZM37.8544 28.9773C37.8035 28.9773 37.8289 29.1198 37.7271 29.1198C37.9308 29.1198 38.0581 29.0628 38.1345 28.9773L38.0836 29.1198C38.1854 29.0343 38.4655 29.0058 38.5929 29.0343C38.7202 29.0628 38.7457 29.0058 38.7966 28.9202C38.8475 28.8062 38.7966 28.7492 38.7202 28.6922C38.6438 28.6067 38.6183 28.4927 38.6438 28.3216C38.2873 27.7515 37.6252 28.0366 37.6252 28.2646C37.8544 28.5782 37.8799 28.5497 38.0836 28.5782C38.2618 28.6352 38.3891 28.6352 38.2618 28.7492C38.2109 28.8062 38.0072 28.7492 37.8799 28.7777C37.5488 28.7777 37.3706 28.5212 37.2942 28.6637C37.2178 28.7777 37.2942 28.8347 37.447 28.8347C37.3451 28.8347 37.1923 28.8347 37.2178 28.9487C37.2687 29.1483 37.4215 28.9202 37.4979 28.9773C37.4469 28.9773 37.3451 29.0058 37.3451 29.0628C37.3451 29.1198 37.4724 29.2053 37.5997 29.0628C37.6737 29.0032 37.7634 28.9731 37.8544 28.9773Z" fill="#F9DD16" stroke="black" stroke-width="0.0269423"/>
<path d="M38.1346 28.1506C38.0327 28.0935 37.9054 28.065 37.7781 28.0935M36.352 28.0935C36.2502 28.3216 36.3011 28.4356 36.3266 28.5496M35.308 26.9533C35.3589 27.0103 35.4098 26.8963 35.5117 27.0103C35.4862 26.9818 35.4353 27.0959 35.3589 27.0103M35.8682 26.9818C35.7918 26.9818 35.7409 26.8963 35.639 27.0103C35.6645 26.9818 35.7154 27.0959 35.7918 27.0103M35.639 27.0103V27.0959C35.6645 27.2954 35.7154 27.3809 35.5626 27.3809C35.4353 27.3809 35.4862 27.2954 35.5117 27.0959V27.0103" stroke="black" stroke-width="0.0269423"/>
<path d="M35.5881 27.723C35.69 27.723 35.7409 27.723 35.7409 27.552C35.7409 27.4949 35.8173 27.4664 35.7664 27.3524C35.8173 27.4664 35.5881 27.4664 35.5881 27.4094C35.5881 27.4664 35.3335 27.4664 35.3844 27.3524C35.3589 27.4664 35.4353 27.4949 35.4099 27.552C35.4099 27.723 35.4608 27.723 35.5881 27.723Z" fill="#FF0016" stroke="black" stroke-width="0.0269423"/>
<path d="M35.4608 27.3809L35.2061 27.2954L35.4608 27.3809ZM35.4608 27.3809H35.2061H35.4608ZM35.4608 27.4094L35.2316 27.4949L35.4608 27.4094ZM35.6645 27.3809L35.9191 27.2954L35.6645 27.3809ZM35.6645 27.3809H35.9701H35.6645ZM35.6645 27.4094L35.9191 27.4949L35.6645 27.4094Z" fill="black"/>
<path d="M35.4608 27.3809L35.2061 27.2954M35.4608 27.3809H35.2061M35.4608 27.4094L35.2316 27.4949M35.6645 27.3809L35.9191 27.2954M35.6645 27.3809H35.9701M35.6645 27.4094L35.9191 27.4949" stroke="black" stroke-width="0.0269423"/>
<path d="M34.213 26.4973C34.1366 26.3833 33.9584 26.4973 33.9584 26.6113C34.0093 26.5258 34.1111 26.6398 34.1875 26.6113C34.213 26.6113 34.2639 26.5543 34.213 26.4973ZM34.1366 26.7539C34.0602 26.6398 33.8565 26.7539 33.8565 26.8679C33.9074 26.7824 34.0093 26.8964 34.0857 26.8679C34.1111 26.8679 34.1621 26.7824 34.1366 26.7539ZM34.0857 27.0959C33.9838 26.9819 33.8056 27.0959 33.831 27.2384C33.882 27.1529 33.9838 27.2384 34.0347 27.2384C34.0857 27.2099 34.1111 27.1244 34.0602 27.0959H34.0857ZM34.1621 28.1506C34.0602 28.0366 33.9074 28.1791 33.9074 28.3216C33.9584 28.2076 34.0857 28.3216 34.1621 28.2646C34.1621 28.2646 34.213 28.1791 34.1621 28.1221V28.1506ZM34.1621 28.3502C34.0347 28.3216 33.9074 28.5212 33.9838 28.6352C33.9838 28.4927 34.1366 28.5497 34.1875 28.4927L34.1621 28.3502ZM34.3149 28.5497C34.1875 28.4927 34.0602 28.6637 34.1366 28.7777C34.1366 28.6922 34.2894 28.7207 34.3149 28.6637V28.5212V28.5497ZM37.2942 28.8633C37.1669 28.8347 37.0396 29.0058 37.116 29.1483C37.116 29.0058 37.2688 29.0628 37.3197 29.0058L37.2942 28.8633ZM37.447 29.0343C37.3197 29.0058 37.2178 29.2053 37.2942 29.3193C37.2942 29.1768 37.447 29.2053 37.4725 29.1483C37.498 29.1198 37.498 29.0343 37.4725 29.0343H37.447ZM37.3452 28.6352C37.2433 28.5782 37.0905 28.7492 37.116 28.8633C37.1669 28.7492 37.2942 28.8347 37.3452 28.7777V28.6637V28.6352ZM39.4588 28.9203C39.3569 28.8918 39.255 29.0913 39.306 29.2053C39.306 29.0913 39.4588 29.1198 39.5097 29.0628C39.5097 29.0058 39.5097 28.9203 39.4588 28.9203ZM39.4588 28.7207C39.3569 28.6352 39.2041 28.8062 39.255 28.9203C39.306 28.8347 39.4333 28.8918 39.4842 28.8347V28.6922L39.4588 28.7207ZM39.5606 29.0913C39.4333 29.0913 39.3314 29.2908 39.4078 29.3763C39.4078 29.2623 39.5606 29.2908 39.5861 29.2338C39.6115 29.1768 39.5861 29.1198 39.5606 29.0913ZM35.5881 27.609C35.6645 27.609 35.69 27.6375 35.69 27.8086C35.69 28.0936 35.69 28.2646 35.5881 28.2646C35.5117 28.2646 35.5117 28.1221 35.5117 27.8941C35.5117 27.78 35.5117 27.6945 35.4862 27.723C35.4862 27.6375 35.5117 27.609 35.5881 27.609Z" fill="#0051BA"/>
</g>
<defs>
<clipPath id="clip0_1_65859">
<rect width="74.6667" height="56" fill="white" transform="translate(0 9.375)"/>
</clipPath>
</defs>
</svg>
