<svg width="75" height="75" viewBox="0 0 75 75" fill="none" xmlns="http://www.w3.org/2000/svg">
<rect width="74.6667" height="74.75" fill="white"/>
<g clip-path="url(#clip0_1_65969)">
<path d="M0 9.375H74.6667V65.375H0V9.375Z" fill="white"/>
<path d="M0 9.375H74.6667V26.175H0V9.375Z" fill="black"/>
<path d="M-7.62939e-05 48.575H74.6666V65.375H-7.62939e-05V48.575Z" fill="#006600"/>
<path d="M27.3232 54L27.9532 54.35L44.2982 26C45.2432 25.79 45.7682 24.88 46.2932 23.97C46.6432 23.34 48.0432 20.925 48.6382 17.775C46.9778 19.2506 45.5707 20.9887 44.4732 22.92C43.9482 23.83 43.4232 24.74 43.6682 25.685L27.3232 54Z" fill="black" stroke="black" stroke-width="0.35"/>
<path d="M27.3232 54L27.9532 54.35L44.2982 26C45.2432 25.79 45.7682 24.88 46.2932 23.97C46.6432 23.34 48.0432 20.925 48.6382 17.775C46.9778 19.2506 45.5707 20.9887 44.4732 22.92C43.9482 23.83 43.4232 24.74 43.6682 25.685L27.3232 54Z" fill="white"/>
<path d="M74.7249 28.975H43.9833C42.9333 26.175 39.4333 20.575 37.3333 20.575C35.2333 20.575 31.7333 26.175 30.6833 28.975H-0.023407V45.775H30.6833C31.7333 48.5749 35.2333 54.1749 37.3333 54.1749C39.4333 54.1749 42.9333 48.5749 43.9833 45.775H74.7249V28.975Z" fill="#BB0000"/>
<path d="M43.9832 45.775C45.0332 42.975 45.7332 40.175 45.7332 37.375C45.7332 34.575 45.0332 31.775 43.9832 28.975C42.9332 31.775 42.2332 34.575 42.2332 37.375C42.2332 40.175 42.9332 42.975 43.9832 45.775Z" fill="black"/>
<path d="M37.3333 39.475C38.1065 39.475 38.7333 38.5348 38.7333 37.375C38.7333 36.2152 38.1065 35.275 37.3333 35.275C36.5601 35.275 35.9333 36.2152 35.9333 37.375C35.9333 38.5348 36.5601 39.475 37.3333 39.475Z" fill="white"/>
<path d="M37.6832 39.405C37.6832 39.405 39.0832 42.205 39.0832 46.755C39.0832 51.305 37.6832 54.105 37.6832 54.105V39.405Z" fill="white"/>
</g>
<defs>
<clipPath id="clip0_1_65969">
<rect width="74.6667" height="56" fill="white" transform="translate(0 9.375)"/>
</clipPath>
</defs>
</svg>
