<svg width="75" height="75" viewBox="0 0 75 75" fill="none" xmlns="http://www.w3.org/2000/svg">
<rect width="74.6667" height="74.75" fill="white"/>
<g clip-path="url(#clip0_1_66129)">
<path fill-rule="evenodd" clip-rule="evenodd" d="M-4.71326 9.375H79.3742V65.375H-4.71326V9.375Z" fill="#FF0000"/>
<path fill-rule="evenodd" clip-rule="evenodd" d="M20.8257 37.9328C22.3132 36.1172 25.4085 37.8891 27.9351 36.5875C24.9382 36.7516 23.3085 35.1438 20.946 35.3734C23.396 33.8641 25.4851 35.8656 28.2194 35.0672C24.5991 34.7609 24.7523 33.1313 21.4491 32.9016C24.3804 31.6547 25.8241 34.1922 28.7007 33.6125C25.3101 32.8359 24.8726 30.8453 22.3569 30.4187C26.0319 29.8719 25.7913 32.0375 29.3898 32.3C25.7366 30.7359 26.6882 29.3687 23.6366 28.1766C27.0601 28.1 26.8304 30.4734 30.3085 31.0859C27.3335 29.2047 27.6944 27.4875 25.2554 26.1422C28.1538 26.1969 28.4273 29.1609 31.3913 30.0797C28.7554 27.9906 29.4444 26.2187 27.1694 24.3484C30.0569 25.0266 29.6304 27.5859 32.6382 29.2266C30.4069 26.7547 31.2601 24.9828 29.3241 22.9594C32.1023 23.8453 31.0413 26.2844 33.9179 28.6031C32.2773 25.8797 33.2944 24.1406 31.6648 21.8547C34.246 23.1781 32.9991 25.6719 35.3835 28.1438C34.2569 25.3547 35.3835 23.6266 34.2351 21.1547C36.4444 22.7953 35.1319 25.4531 36.9148 27.9906C36.2585 24.4906 37.7679 23.9219 37.2976 20.8594C38.971 22.9156 37.1007 24.9719 38.3913 28.0016C38.2273 24.5563 40.0648 23.7578 39.7476 21.0016C41.3991 23.4734 38.8179 25.6281 39.9007 28.275C40.1741 25.0156 42.3179 24.1625 42.3507 21.625C43.6632 23.9547 40.8194 25.6391 41.2788 28.7344C42.2085 25.3219 44.4944 24.9063 44.7788 22.6094C45.5554 25.3 42.4382 26.5469 42.6241 29.5437C43.5538 26.5141 46.4085 26.1531 46.9991 23.9219C47.3601 26.7656 44.5491 27.2797 43.7507 30.4297C45.2273 27.8594 47.8194 27.6516 48.9788 25.6172C48.8913 28.4391 45.7194 28.8109 44.746 31.4469C46.5726 29.2047 48.8694 29.5875 50.696 27.6078C50.4991 30.1562 47.2726 30.0141 45.5554 32.65C47.5351 30.8234 50.521 31.3703 52.0413 29.7953C51.9648 32.0484 48.0054 31.8734 46.1351 33.8969C48.4319 32.6281 51.3632 33.3719 53.0476 32.2016C52.7413 34.1703 48.5632 33.7109 46.5616 35.2641C49.3179 34.4984 51.4507 35.6688 53.671 34.8266C52.5882 36.7406 48.7929 35.5266 46.7804 36.7734C49.1866 36.3688 51.7241 37.8234 53.9007 37.3531C53.1898 39.0156 49.0226 37.2437 46.7913 38.2828C49.4601 38.2609 51.1991 39.9781 53.6819 39.8578C52.3366 41.3672 48.6835 39.3 46.5507 39.65C49.1538 40.1969 51.1444 42.3406 53.1132 42.45C51.4835 43.6859 48.4648 40.8641 46.0038 41.2141C48.5413 41.8922 50.6632 44.7688 52.1069 44.8344C50.5429 45.9063 47.4585 42.3734 45.3476 42.5047C47.9179 43.6641 49.0882 46.6063 50.7835 47.0219C48.6944 47.6891 46.6382 43.8281 44.396 43.6859C46.9991 45.3266 47.1413 47.8422 49.1429 48.9578C47.0319 49.4719 45.5335 45.1078 43.3132 44.7359C45.446 46.3 45.7741 49.6578 47.1851 50.7078C45.0413 50.8172 44.2648 46.2563 42.0663 45.6C43.9476 47.175 43.4991 50.5875 44.9648 52.0531C42.7335 51.5828 43.0179 47.6125 40.6882 46.2672C42.3616 48.3891 41.5085 51.3969 42.6023 53.0922C40.4257 52.2172 41.3663 48.6516 39.2991 46.6391C40.4257 48.8922 39.2116 51.5172 40.1085 53.6938C38.1179 52.7203 39.4523 48.5094 37.9319 46.8359C38.6319 49.4391 37.3413 51.5938 37.8663 53.9234C35.8319 51.5719 38.1726 49.1984 36.4116 46.8031C36.871 49.5484 34.946 51.4734 35.2523 53.7703C33.6444 51.8891 36.1273 48.8813 34.8694 46.5078C35.1319 49.2094 32.6491 51.5828 32.8241 53.2891C31.5116 51.1016 34.2788 48.5203 33.5351 46.0375C33.3819 48.6188 30.8663 50.0188 30.396 52.3703C29.5538 49.7781 32.5398 47.9078 32.2773 45.3594C31.4241 47.7766 28.996 48.75 28.1429 51.1016C27.4429 48.5094 30.9866 47.1422 31.0741 44.4297C29.9804 46.9672 27.0819 47.5359 26.1194 49.4828C25.7585 46.9125 29.8163 45.7641 29.9694 43.325C28.6569 45.6656 25.4851 45.7641 24.3913 47.6234C24.2273 45.0641 28.5038 44.7469 29.171 42.0672C27.8694 44.0578 24.3913 43.8063 22.9366 45.425C23.1663 43.0516 27.7929 42.9094 28.5366 40.7656C26.8085 42.4281 23.6148 41.75 21.8101 43.0625C22.8163 40.7219 27.1585 41.2141 28.1319 39.5297C26.2179 40.525 22.8163 39.5516 21.1319 40.5578C22.6632 38.3484 26.0319 39.6719 27.946 38.1516C24.8398 38.6 22.9694 37.3641 20.8148 37.9328H20.8257Z" fill="#FFFF00"/>
<path fill-rule="evenodd" clip-rule="evenodd" d="M48.2242 37.3859C48.2242 40.2649 47.0805 43.0261 45.0447 45.0619C43.0089 47.0977 40.2477 48.2414 37.3687 48.2414C34.4896 48.2414 31.7285 47.0977 29.6927 45.0619C27.6569 43.0261 26.5132 40.2649 26.5132 37.3859C26.5132 34.5083 27.6563 31.7486 29.6911 29.7138C31.7259 27.679 34.4856 26.5359 37.3632 26.5359C40.2408 26.5359 43.0006 27.679 45.0353 29.7138C47.0701 31.7486 48.2132 34.5083 48.2132 37.3859H48.2242Z" fill="#FFFF00"/>
<path fill-rule="evenodd" clip-rule="evenodd" d="M46.8241 37.4078C46.8241 39.9112 45.8297 42.3121 44.0595 44.0822C42.2893 45.8524 39.8885 46.8469 37.3851 46.8469C34.8817 46.8469 32.4808 45.8524 30.7107 44.0822C28.9405 42.3121 27.946 39.9112 27.946 37.4078C27.946 34.9044 28.9405 32.5036 30.7107 30.7334C32.4808 28.9632 34.8817 27.9688 37.3851 27.9688C39.8885 27.9688 42.2893 28.9632 44.0595 30.7334C45.8297 32.5036 46.8241 34.9044 46.8241 37.4078Z" fill="#FF0000"/>
<path fill-rule="evenodd" clip-rule="evenodd" d="M45.5116 37.4296C45.5116 39.5791 44.6577 41.6406 43.1378 43.1605C41.6179 44.6804 39.5564 45.5343 37.4069 45.5343C35.2574 45.5343 33.196 44.6804 31.6761 43.1605C30.1561 41.6406 29.3022 39.5791 29.3022 37.4296C29.3022 35.2801 30.1561 33.2187 31.6761 31.6988C33.196 30.1788 35.2574 29.325 37.4069 29.325C39.5564 29.325 41.6179 30.1788 43.1378 31.6988C44.6577 33.2187 45.5116 35.2801 45.5116 37.4296Z" fill="#FFFF00"/>
<path fill-rule="evenodd" clip-rule="evenodd" d="M30.5054 32.125C32.7476 32.0703 35.5366 32.2781 37.3851 33.7437C39.3598 32.5113 41.6847 31.9617 44.0023 32.1796L45.2054 34.3781C43.3359 34.2075 41.4537 34.5162 39.7366 35.275C40.9639 36.1801 41.9505 37.3722 42.6103 38.7469C43.27 40.1217 43.5827 41.6373 43.521 43.1609C43.2257 43.5328 42.7554 43.9375 42.4601 44.3093C42.8976 41.1921 41.257 37.714 38.8616 35.8875C40.8085 38.6875 41.957 41.2031 41.6398 44.6812L40.546 45.3812C41.0491 42.3187 40.3273 38.7093 38.0632 36.6312C39.3757 38.5453 40.6663 41.9906 39.857 45.4906C39.507 45.6 38.9601 45.8953 38.6101 45.9937C39.0389 44.5577 39.1553 43.0466 38.9516 41.5619C38.7478 40.0772 38.2286 38.6533 37.4288 37.3859C35.9195 39.5515 35.4273 42.8546 36.2804 45.9171C35.8648 45.8078 35.5476 45.6765 35.121 45.5781C34.4976 42.2968 35.3616 38.5781 36.8601 36.6421C35.3288 37.5281 33.896 41.3125 34.3007 45.1734L33.2835 44.7031C32.7913 41.8265 34.0929 38.075 35.9632 35.9093C33.8413 37.2437 32.1132 40.5359 32.4085 44.0687C32.0804 43.7843 31.7851 43.6421 31.457 43.3468C31.0851 40.2625 32.8788 37.1562 34.9679 35.2968C33.207 34.4984 31.6866 34.3453 29.4991 34.3781C29.8382 33.6671 30.1554 32.8359 30.5054 32.114V32.125Z" fill="#FF0000"/>
</g>
<defs>
<clipPath id="clip0_1_66129">
<rect width="74.6667" height="56" fill="white" transform="translate(0 9.375)"/>
</clipPath>
</defs>
</svg>
