<svg width="75" height="75" viewBox="0 0 75 75" fill="none" xmlns="http://www.w3.org/2000/svg">
<rect width="74.6667" height="74.75" fill="white"/>
<g clip-path="url(#clip0_1_65975)">
<path d="M0 9.375H74.6667V65.375H0V9.375Z" fill="#032EA1"/>
<path d="M0 23.375H74.6667V51.375H0V23.375Z" fill="#E00025"/>
<path d="M29.4468 35.765H45.3788V41.897H29.4468V35.765Z" fill="white" stroke="black" stroke-width="0.14" stroke-linejoin="bevel"/>
<path d="M44.5668 39.139H45.0568V41.449H44.5668V39.139ZM29.4468 38.005H45.3788V38.705H29.4468V38.005ZM29.4468 37.025H45.3788V37.669H29.4468V37.025Z" fill="white" stroke="black" stroke-width="0.14" stroke-linejoin="bevel"/>
<path d="M29.4468 36.073H45.3788V36.675H29.4468V36.073Z" fill="white" stroke="black" stroke-width="0.126" stroke-linejoin="bevel"/>
<path d="M33.6468 39.139H34.1508V41.449H33.6468V39.139ZM40.5068 39.139H41.0108V41.449H40.5068V39.139ZM29.5868 39.139H30.0768V41.449H29.5868V39.139ZM30.5668 39.139H31.0568V41.449H30.5668V39.139ZM31.6168 39.139H32.1068V41.449H31.6168V39.139ZM32.6668 39.139H33.1568V41.449H32.6668V39.139ZM41.4588 39.139H41.9628V41.449H41.4588V39.139ZM42.5088 39.139H43.0128V41.449H42.5088V39.139ZM43.5588 39.139H44.0628V41.449H43.5588V39.139Z" fill="white" stroke="black" stroke-width="0.14" stroke-linejoin="bevel"/>
<path d="M23.2168 42.205C23.5096 42.0456 23.73 41.7801 23.8328 41.463H50.8668C50.9696 41.7801 51.1901 42.0456 51.4828 42.205H23.2168Z" fill="white" stroke="black" stroke-width="0.14"/>
<path d="M37.0067 26.427C37.0067 26.427 36.9927 25.853 37.3287 25.839C37.6507 25.839 37.6367 26.427 37.6367 26.427H37.0067ZM35.2567 34.057V33.287C35.2567 32.895 34.8647 32.867 34.8647 32.587C34.8647 32.587 34.8087 32.167 34.9207 31.971C35.0747 32.531 35.3407 32.433 35.3407 32.195C35.3407 31.999 35.2007 31.803 34.8787 31.313C34.7667 31.159 34.8367 30.669 34.9767 30.487C35.0327 30.907 35.1027 31.117 35.2847 31.117C35.3967 31.117 35.4807 31.047 35.4807 30.837C35.4807 30.557 35.2987 30.417 35.2007 30.165C35.1524 30.0396 35.1413 29.9029 35.1686 29.7714C35.1959 29.6398 35.2605 29.5188 35.3547 29.423C35.4247 29.843 35.4107 30.011 35.5927 30.011C35.9707 29.885 35.5927 29.339 35.5087 29.199C35.4247 29.045 35.6487 28.723 35.6487 28.723C35.7607 29.101 35.7887 29.129 35.9287 29.087C36.0967 29.045 36.0687 28.807 35.8727 28.611C35.7467 28.471 35.7607 28.289 35.9007 28.149C36.0407 28.415 36.2087 28.401 36.2227 28.233L36.1107 27.617H38.5467L38.4207 28.219C38.3927 28.387 38.6167 28.429 38.7567 28.149C38.8967 28.289 38.9107 28.485 38.7847 28.611C38.5887 28.807 38.5607 29.045 38.7287 29.087C38.8687 29.129 38.8967 29.087 39.0087 28.723C39.0087 28.723 39.2187 28.933 39.1487 29.199C39.0647 29.339 38.6867 29.899 39.0647 30.011C39.2467 30.011 39.2327 29.843 39.3027 29.423C39.3945 29.5204 39.4565 29.642 39.4813 29.7735C39.5061 29.905 39.4927 30.0409 39.4427 30.165C39.3587 30.417 39.1627 30.557 39.1627 30.837C39.1627 31.047 39.2607 31.117 39.3727 31.117C39.5547 31.117 39.6247 30.921 39.6807 30.487C39.8207 30.669 39.8907 31.159 39.7787 31.327C39.4567 31.803 39.3027 31.999 39.3027 32.195C39.3027 32.433 39.5827 32.531 39.7227 31.971C39.8487 32.167 39.7927 32.587 39.7927 32.587C39.7927 32.867 39.4147 32.895 39.4007 33.287V34.057H35.2567ZM36.2647 27.617L36.2087 27.183H38.4347L38.3787 27.617H36.2647ZM36.4047 27.169L36.3767 26.819H38.2667L38.2247 27.169H36.4047ZM36.7267 26.805L36.6847 26.441H37.9447L37.9307 26.805H36.7267ZM41.3467 42.205C41.0667 42.107 40.6467 41.799 40.6467 41.505V38.103L41.0107 37.627H33.6467L33.9967 38.103V41.505C33.9967 41.799 33.7167 42.107 33.4367 42.205H41.3467Z" fill="white" stroke="black" stroke-width="0.14"/>
<path d="M34.9347 39.139H35.4387V41.449H34.9347V39.139ZM39.1907 39.139H39.6947V41.449H39.1907V39.139Z" fill="white" stroke="black" stroke-width="0.14" stroke-linejoin="bevel"/>
<path d="M33.5067 33.7631V37.6271H41.0667V33.7631C40.9794 33.795 40.9008 33.8471 40.8375 33.9153C40.7743 33.9834 40.7281 34.0656 40.7027 34.1551V35.8071H33.8847V34.1551C33.8847 34.1551 33.8007 33.8751 33.4927 33.7631H33.5067Z" fill="white" stroke="black" stroke-width="0.14"/>
<path d="M40.0307 42.2049C39.7787 42.1069 39.2467 41.7989 39.2467 41.5049V37.6969C39.3027 37.4869 39.5827 37.3609 39.7647 37.2209H34.7667C35.0047 37.3609 35.2707 37.4589 35.3687 37.6969V41.5049C35.3687 41.7989 34.9487 42.1069 34.6967 42.2049H40.0307Z" fill="white" stroke="black" stroke-width="0.14"/>
<path d="M40.7027 37.2631V34.519H40.0167V34.2531H34.5847V34.5331H33.8847V37.2631H40.7027ZM38.9667 42.205C38.7147 42.107 38.3647 41.799 38.3647 41.5051V38.257L38.5607 37.9631H36.0827L36.2927 38.2431V41.5051C36.2927 41.799 35.9287 42.107 35.6907 42.205H38.9667Z" fill="white" stroke="black" stroke-width="0.14"/>
<path d="M36.6847 37.963H37.9447V42.205H36.6847V37.963Z" fill="white" stroke="black" stroke-width="0.14"/>
<path d="M38.6027 37.025C38.6027 36.745 39.4147 36.731 39.8347 36.493H34.7947C35.2147 36.731 36.0127 36.745 36.0127 37.025L36.1807 37.571L38.2807 37.655L38.6027 37.025Z" fill="white" stroke="black" stroke-width="0.14" stroke-linejoin="bevel"/>
<path d="M39.5827 34.0569C39.5827 33.3709 39.6107 33.1189 39.8207 33.1189V35.2749C39.3027 35.4709 38.9387 36.1149 38.9387 36.1149H35.6907C35.6907 36.1149 35.3267 35.4709 34.8087 35.2749V33.1049C35.0607 33.1049 35.0607 33.3849 35.0607 34.0429L39.5827 34.0569ZM39.8207 33.7769C39.8207 32.9929 40.5067 32.9089 40.5067 32.9089V33.6089C40.2407 33.5949 40.1147 33.8329 40.1147 34.1689C40.1147 34.5189 40.3247 34.5189 40.3247 34.5189V36.5069H39.8207V33.7769Z" fill="white" stroke="black" stroke-width="0.14"/>
<path d="M34.8087 33.7769C34.8087 32.9929 34.1227 32.9089 34.1227 32.9089V33.6089C34.3887 33.5949 34.5147 33.8329 34.5147 34.1689C34.5147 34.5189 34.3047 34.5189 34.3047 34.5189V36.5069H34.8087V33.7769Z" fill="white" stroke="black" stroke-width="0.14"/>
<path d="M36.1387 28.359H38.5467M35.8587 29.115H38.7987M35.5787 30.025H39.0647M35.2847 31.131H39.4147M35.1867 32.391H39.4427" stroke="black" stroke-width="0.112"/>
<path d="M33.8987 36.535H40.7027M36.0547 36.535H38.5747V37.459H36.0547V36.535Z" stroke="black" stroke-width="0.14"/>
<path d="M35.7467 34.463C36.1667 34.967 36.1107 35.821 36.1107 36.325H38.5467C38.5467 35.821 38.4907 34.967 38.9107 34.463H35.7467ZM37.1047 28.723L36.7687 28.541V28.051C36.9087 28.093 37.0487 28.107 37.0767 28.331C37.1187 28.009 37.2167 28.037 37.3427 27.911C37.4827 28.037 37.5527 28.009 37.6087 28.331C37.6087 28.107 37.7767 28.093 37.9027 28.051V28.541L37.5807 28.709L37.1047 28.723Z" fill="white" stroke="black" stroke-width="0.14"/>
<path d="M37.0767 29.521L36.5167 29.129V28.695C36.7267 28.737 36.9367 28.765 36.9647 29.003C37.0207 28.653 37.1467 28.485 37.3427 28.345C37.5247 28.485 37.6507 28.653 37.7207 29.003C37.7347 28.765 37.9587 28.737 38.1407 28.695V29.143L37.5947 29.521H37.0767Z" fill="white" stroke="black" stroke-width="0.14"/>
<path d="M37.0347 30.767L36.4047 30.207V29.549C36.6287 29.605 36.8807 29.633 36.9087 29.983C36.9787 29.493 37.1187 29.227 37.3287 29.031C37.5527 29.227 37.6927 29.493 37.7767 29.983C37.8047 29.633 38.0567 29.605 38.2807 29.549V30.207L37.6367 30.767H37.0347ZM38.2107 31.509L37.6507 32.307H36.9927L36.4187 31.509H38.2107ZM36.0827 32.839C36.3627 32.993 36.4747 33.315 36.5027 33.903H38.1267C38.1547 33.315 38.2667 32.993 38.5467 32.839H36.0827Z" fill="white" stroke="black" stroke-width="0.14"/>
<path d="M38.5747 31.495V30.711C38.4542 30.7367 38.3421 30.7926 38.2491 30.8734C38.156 30.9542 38.085 31.0573 38.0427 31.173C38.0427 30.893 37.6927 30.291 37.3147 29.983C36.9367 30.319 36.5727 30.879 36.5867 31.159C36.5167 30.949 36.3347 30.781 36.0547 30.711V31.509L38.5747 31.495Z" fill="white" stroke="black" stroke-width="0.14" stroke-linejoin="bevel"/>
<path d="M38.6867 32.839V32.055C38.3927 32.139 38.1967 32.293 38.1127 32.517C38.1127 32.237 37.7347 31.635 37.3147 31.327C36.8947 31.677 36.5027 32.223 36.5167 32.517C36.4467 32.307 36.2367 32.139 35.9427 32.055V32.853L38.6867 32.839Z" fill="white" stroke="black" stroke-width="0.14" stroke-linejoin="bevel"/>
<path d="M39.0227 34.477V33.553C38.7312 33.6441 38.4794 33.8317 38.3087 34.085C38.3087 33.595 37.7487 32.825 37.3147 32.587C36.8667 32.839 36.3207 33.623 36.3207 34.085C36.1457 33.83 35.8889 33.6423 35.5927 33.553V34.477H39.0227Z" fill="white" stroke="black" stroke-width="0.14" stroke-linejoin="bevel"/>
<path d="M38.8267 36.5349V35.5829C38.4907 35.7089 38.4067 36.0169 38.2947 36.2409C38.3367 35.2749 37.7627 34.2529 37.3147 33.9869C36.8667 34.2529 36.2787 35.3029 36.3347 36.2269C36.2227 36.0309 36.1247 35.7089 35.8027 35.5829V36.5209L38.8267 36.5349Z" fill="white" stroke="black" stroke-width="0.14" stroke-linejoin="bevel"/>
<path d="M38.6027 37.963V37.011C38.2527 37.095 38.2387 37.221 38.1267 37.431C38.1687 36.857 37.7627 36.199 37.3147 35.947C36.8667 36.199 36.4747 36.857 36.5027 37.431C36.3907 37.221 36.3767 37.095 36.0267 37.011V37.963H38.6027Z" fill="white" stroke="black" stroke-width="0.14"/>
<path d="M23.8467 41.4631V38.607C23.7487 38.243 23.4267 37.9071 23.2027 37.8511V35.3311L23.7207 35.6111L24.3227 38.257V41.477L23.8467 41.4631Z" fill="white" stroke="black" stroke-width="0.14"/>
<path d="M23.8467 41.4771V38.6071C23.7487 38.2431 23.4267 37.9071 23.2027 37.8511V35.1631C23.5527 35.1631 23.7207 35.6111 23.7207 35.6111L24.3227 38.2571V41.4631L23.8467 41.4771Z" fill="white" stroke="black" stroke-width="0.14"/>
<path d="M23.4688 42.2051C23.7068 42.1071 24.0567 41.7991 24.0567 41.5051V37.9211L23.8888 37.6411H30.0068L29.7688 37.9211V41.5051C29.779 41.6535 29.8285 41.7965 29.9121 41.9195C29.9958 42.0424 30.1105 42.141 30.2448 42.2051H23.4688Z" fill="white" stroke="black" stroke-width="0.14"/>
<path d="M28.9987 42.2051C28.7607 42.1071 28.4107 41.7991 28.4107 41.5051V38.1031L28.9147 37.6271H24.7707L25.2747 38.1031V41.5051C25.2747 41.7991 24.9247 42.1071 24.6867 42.2051H28.9987Z" fill="white" stroke="black" stroke-width="0.14"/>
<path d="M28.4247 42.205C28.1867 42.107 27.8227 41.799 27.8227 41.505V38.425L28.1587 37.963H25.5267L25.8627 38.425V41.505C25.8627 41.799 25.5127 42.107 25.2607 42.205H28.4247Z" fill="white" stroke="black" stroke-width="0.14"/>
<path d="M26.2267 37.963H27.4727V42.219H26.2127L26.2267 37.963Z" fill="white" stroke="black" stroke-width="0.14"/>
<path d="M24.5047 39.1391H25.0087V41.4491H24.5047V39.1391ZM28.8167 39.1391H29.3067V41.4491H28.8027L28.8167 39.1391ZM24.0707 35.2471H24.6867V37.6271H24.0707V35.2471ZM24.0707 34.7991H24.6727V35.2471H24.0707V34.7991ZM29.0547 35.7651H29.9087V37.5851H29.0547V35.7651Z" fill="white" stroke="black" stroke-width="0.14" stroke-linejoin="bevel"/>
<path d="M24.6728 37.599V33.539C24.8408 33.539 24.8688 34.1411 25.2608 34.1411C25.4708 34.1411 25.4568 33.8891 25.3308 33.6931C25.2328 33.5111 25.1068 33.2731 25.2748 32.8111C25.4008 33.1611 25.7088 33.2731 25.6528 33.0631C25.5548 32.6851 25.2608 32.6151 25.4848 32.0411C25.5548 32.5171 25.8628 32.5031 25.7928 32.2231C25.7088 31.9011 25.5268 31.7611 25.7508 31.3131C25.8768 31.8311 26.0308 31.8031 26.0308 31.4811C26.0308 31.0051 26.0308 30.501 26.6188 30.319C26.6188 30.319 26.6608 29.899 26.8848 29.899C27.0948 29.899 27.1368 30.319 27.1368 30.319C27.7388 30.501 27.7248 31.0191 27.7248 31.4811C27.7248 31.8031 27.8788 31.8311 28.0048 31.3131C28.2288 31.7611 28.0468 31.9011 27.9628 32.2231C27.8928 32.5031 28.2008 32.5171 28.2708 32.0411C28.4948 32.6151 28.2008 32.6851 28.1028 33.0631C28.0468 33.2731 28.3548 33.1611 28.4808 32.8111C28.6488 33.2731 28.5228 33.5111 28.4248 33.6931C28.3128 33.8891 28.2848 34.1411 28.4948 34.1411C28.8868 34.1411 28.9148 33.5531 29.0828 33.5531V37.599H24.6728ZM23.7068 34.5331V37.627H24.0568V34.5331C23.9308 34.4631 23.8188 34.4631 23.7068 34.5331Z" fill="white" stroke="black" stroke-width="0.14"/>
<path d="M23.7347 36.535C24.1687 36.759 24.6027 37.025 24.7147 37.627H23.7347V36.535ZM29.7827 35.611V37.627H30.0627V35.611C29.9787 35.569 29.8527 35.555 29.7827 35.611Z" fill="white" stroke="black" stroke-width="0.14"/>
<path d="M30.0628 36.5351C29.6288 36.7451 29.1948 36.9971 29.0828 37.6131H30.0628V36.5351ZM27.1788 31.8171L27.4308 31.6071V31.3271C27.3468 31.3271 27.2908 31.3691 27.2208 31.4671C27.1936 31.3772 27.1486 31.2937 27.0885 31.2215C27.0283 31.1494 26.9543 31.0901 26.8708 31.0471C26.786 31.087 26.7101 31.1435 26.6476 31.2132C26.5851 31.283 26.5372 31.3645 26.5068 31.4531C26.4368 31.3551 26.3948 31.3411 26.2968 31.3131V31.5931L26.5488 31.8171H27.1788Z" fill="white" stroke="black" stroke-width="0.14"/>
<path d="M27.3188 32.5031L27.4308 32.2371V31.8871C27.3468 31.8871 27.2908 31.9291 27.2208 32.0271C27.1936 31.9371 27.1486 31.8536 27.0885 31.7815C27.0283 31.7093 26.9543 31.65 26.8708 31.6071C26.786 31.6469 26.7101 31.7034 26.6476 31.7732C26.5851 31.8429 26.5372 31.9245 26.5068 32.0131C26.4368 31.9151 26.3948 31.9011 26.2968 31.8871V32.2371L26.4088 32.5031H27.3188Z" fill="white" stroke="black" stroke-width="0.14"/>
<path d="M27.3467 33.4271L27.7107 32.9651V32.5171C27.5707 32.5171 27.5007 32.5871 27.4027 32.7411C27.3047 32.4191 27.1227 32.3631 26.8707 32.2091C26.6047 32.3491 26.4227 32.4191 26.3387 32.7271C26.2267 32.5731 26.1567 32.5311 26.0167 32.5171V32.9651L26.3947 33.4271H27.3467Z" fill="white" stroke="black" stroke-width="0.14"/>
<path d="M27.4447 34.3371C27.4447 34.3371 27.8927 33.9591 27.9067 33.7491V33.2591C27.7387 33.2731 27.5847 33.3151 27.4587 33.5251C27.3467 33.1191 27.1787 33.0071 26.8707 32.8251C26.5487 33.0071 26.3807 33.1191 26.2827 33.5251C26.1427 33.3151 26.0027 33.2731 25.8207 33.2451V33.7491C25.9383 33.9711 26.0948 34.1703 26.2827 34.3371H27.4447Z" fill="white" stroke="black" stroke-width="0.14"/>
<path d="M27.6267 36.0171C27.6267 36.0171 28.2427 35.3591 28.2567 35.0931V34.3371C28.0327 34.3651 27.8087 34.5191 27.6407 34.8411C27.5007 34.2111 27.2767 33.7771 26.8707 33.4691C26.4507 33.7771 26.2267 34.2111 26.0867 34.8411C25.9187 34.5191 25.7087 34.3651 25.4847 34.3371V35.0931C25.5267 35.3591 26.1007 36.0171 26.1007 36.0171H27.6267Z" fill="white" stroke="black" stroke-width="0.14"/>
<path d="M27.6267 37.0111C27.6267 37.0111 28.1447 36.4931 28.2567 36.2691V35.5131C28.0327 35.5411 27.8087 35.6951 27.6407 36.0031C27.6033 35.7483 27.516 35.5035 27.3839 35.2825C27.2518 35.0615 27.0774 34.8687 26.8707 34.7151C26.4507 35.0231 26.2267 35.3731 26.0867 36.0031C25.9187 35.6951 25.7087 35.5411 25.4847 35.5131V36.2691C25.6247 36.4931 26.1007 37.0111 26.1007 37.0111H27.6267Z" fill="white" stroke="black" stroke-width="0.14"/>
<path d="M27.8367 37.5991C27.6967 36.9411 27.5567 36.4511 26.8427 35.9611C26.1147 36.4511 25.9887 36.9411 25.8347 37.5991H27.8367Z" fill="white" stroke="black" stroke-width="0.14"/>
<path d="M28.2147 37.9631V37.0111C27.8787 37.1511 27.5847 37.3331 27.4727 37.5431C27.3607 37.0111 27.1227 36.7871 26.8287 36.4651C26.5347 36.7871 26.3387 37.0251 26.2127 37.5431C26.1007 37.3331 25.8067 37.1371 25.4847 37.0111V37.9631H28.2147Z" fill="white" stroke="black" stroke-width="0.14"/>
<path d="M20.1647 45.677H54.5067V47.427H20.1647V45.677ZM19.2547 47.427H55.4167V49.177H19.2547V47.427ZM21.9707 43.045H52.6867V44.179H21.9707V43.045Z" fill="white" stroke="black" stroke-width="0.14"/>
<path d="M21.0747 44.179H53.6107V45.663H21.0747V44.179ZM22.5027 42.177H52.1827V43.045H22.5027V42.177Z" fill="white" stroke="black" stroke-width="0.14"/>
<path d="M25.7227 42.177H27.9627V49.177H25.7227V42.177Z" fill="white" stroke="black" stroke-width="0.14"/>
<path d="M26.2267 42.177H27.4727V49.177H26.2127L26.2267 42.177ZM36.1667 42.177H38.4067V49.177H36.1667V42.177Z" fill="white" stroke="black" stroke-width="0.14"/>
<path d="M36.6847 42.177H37.9447V49.177H36.6847V42.177ZM46.6947 42.177H48.9347V49.177H46.6947V42.177Z" fill="white" stroke="black" stroke-width="0.14"/>
<path d="M47.1847 42.177H48.4447V49.177H47.1847V42.177Z" fill="white" stroke="black" stroke-width="0.14"/>
<path d="M23.8467 41.463H50.8667M26.1987 48.295H27.4867M26.1987 47.413H27.4867M26.1987 46.545H27.4867M26.1987 45.663H27.4867M26.1987 44.795H27.4867M26.1987 43.913H27.4867M26.1987 43.045H27.4867M36.6987 48.295H37.9027M36.6987 47.413H37.9027M36.6987 46.545H37.9027M36.6987 45.663H37.9027M36.6987 44.795H37.9027M36.6987 43.913H37.9027M36.6987 43.045H37.9027M47.1707 48.295H48.4587M47.1707 47.413H48.4587M47.1707 46.545H48.4587M47.1707 45.663H48.4587M47.1707 44.795H48.4587M47.1707 43.913H48.4587M47.1707 43.045H48.4587" stroke="black" stroke-width="0.14"/>
</g>
<defs>
<clipPath id="clip0_1_65975">
<rect width="74.6667" height="56" fill="white" transform="translate(0 9.375)"/>
</clipPath>
</defs>
</svg>
