<svg width="75" height="75" viewBox="0 0 75 75" fill="none" xmlns="http://www.w3.org/2000/svg">
<rect width="74.6667" height="74.75" fill="white"/>
<g clip-path="url(#clip0_1_66137)">
<path fill-rule="evenodd" clip-rule="evenodd" d="M-8.52045 9.375H82.8952V42.8984H-8.52045V9.375Z" fill="#E73E2D"/>
<path fill-rule="evenodd" clip-rule="evenodd" d="M31.7952 40.2297C29.6733 38.5672 25.7139 39.136 25.0577 34.6188C28.0874 36.9703 27.5405 34.4875 32.0577 36.7297L31.7952 40.2297Z" fill="#FEC74A" stroke="#D8AA3F" stroke-width="0.185937"/>
<path fill-rule="evenodd" clip-rule="evenodd" d="M32.3639 38.1844C30.8436 35.9531 26.8952 35.275 27.6608 30.7797C29.8373 33.9406 30.067 31.4031 33.6983 34.925L32.3639 38.1844Z" fill="#FEC74A" stroke="#D8AA3F" stroke-width="0.185937"/>
<path fill-rule="evenodd" clip-rule="evenodd" d="M33.053 36.7188C32.5061 34.0828 29.1155 31.95 31.5436 28.0781C32.3311 31.8406 33.5124 29.5875 35.5249 34.225L33.053 36.7188Z" fill="#FEC74A" stroke="#D8AA3F" stroke-width="0.185937"/>
<path fill-rule="evenodd" clip-rule="evenodd" d="M34.6389 35.3625C34.9343 32.6828 32.3639 29.6094 35.853 26.6781C35.4593 30.4953 37.2749 28.7234 37.7671 33.7437L34.6389 35.3625Z" fill="#FEC74A" stroke="#D8AA3F" stroke-width="0.185937"/>
<path fill-rule="evenodd" clip-rule="evenodd" d="M36.0608 34.2797C37.417 31.95 36.3342 28.1 40.7202 26.8531C38.7952 30.1672 41.1795 29.2922 39.5717 34.0719L36.0608 34.2797Z" fill="#FEC74A" stroke="#D8AA3F" stroke-width="0.185937"/>
<path fill-rule="evenodd" clip-rule="evenodd" d="M38.1061 34.5641C40.1405 32.7922 40.3373 28.7891 44.8873 28.9969C42.0108 31.5344 44.5592 31.4579 41.4967 35.4938L38.1061 34.5641Z" fill="#FEC74A" stroke="#D8AA3F" stroke-width="0.185937"/>
<path fill-rule="evenodd" clip-rule="evenodd" d="M39.9218 35.614C42.3827 34.5093 43.7389 30.7468 48.0264 32.2781C44.5264 33.864 46.9874 34.5421 42.8858 37.4953L39.9218 35.614Z" fill="#FEC74A" stroke="#D8AA3F" stroke-width="0.185937"/>
<path fill-rule="evenodd" clip-rule="evenodd" d="M41.442 37.2656C44.1108 36.8938 46.4733 33.6563 50.1592 36.3469C46.3639 36.8828 48.5186 38.2172 43.7608 39.9016L41.442 37.2547V37.2656Z" fill="#FEC74A" stroke="#D8AA3F" stroke-width="0.185937"/>
<path fill-rule="evenodd" clip-rule="evenodd" d="M50.9577 37.7688L38.6967 38.0422L39.2108 41.3454L50.9577 37.7688Z" fill="#FEC74A" stroke="#D8AA3F" stroke-width="0.185937"/>
<path fill-rule="evenodd" clip-rule="evenodd" d="M49.153 33.2625L37.7999 37.6265L39.6921 41.2687L49.153 33.2625Z" fill="#FEC74A" stroke="#D8AA3F" stroke-width="0.185937"/>
<path fill-rule="evenodd" clip-rule="evenodd" d="M40.1405 40.0766L46.0139 29.4016L37.0014 37.7907L40.1405 40.0766Z" fill="#FEC74A" stroke="#D8AA3F" stroke-width="0.185937"/>
<path fill-rule="evenodd" clip-rule="evenodd" d="M40.0202 39.1906L41.9014 27.225L36.017 37.8562L40.0202 39.1906Z" fill="#FEC74A" stroke="#D8AA3F" stroke-width="0.185937"/>
<path fill-rule="evenodd" clip-rule="evenodd" d="M39.3092 38.2172L37.3405 26.1641L35.153 38.2719L39.3092 38.2172Z" fill="#FEC74A" stroke="#D8AA3F" stroke-width="0.185937"/>
<path fill-rule="evenodd" clip-rule="evenodd" d="M38.292 37.1891L32.5717 27.1266L34.7592 39.3547L38.292 37.1891Z" fill="#FEC74A" stroke="#D8AA3F" stroke-width="0.185937"/>
<path fill-rule="evenodd" clip-rule="evenodd" d="M37.4061 37.1125L28.5358 29.6204L34.8358 40.3391L37.4061 37.1125Z" fill="#FEC74A" stroke="#D8AA3F" stroke-width="0.185937"/>
<path fill-rule="evenodd" clip-rule="evenodd" d="M25.4186 33.3171L34.9342 41.1812L36.3998 37.0687L25.4186 33.3171Z" fill="#FEC74A" stroke="#D8AA3F" stroke-width="0.185937"/>
<path fill-rule="evenodd" clip-rule="evenodd" d="M34.8358 37.9109L23.6467 37.7468L34.792 41.4656L34.8358 37.9109Z" fill="#FEC74A" stroke="#D8AA3F" stroke-width="0.185937"/>
<path fill-rule="evenodd" clip-rule="evenodd" d="M43.9139 39.9126C43.9504 40.8165 43.8039 41.7186 43.4832 42.5645C43.1624 43.4105 42.674 44.1829 42.0473 44.8354C41.4206 45.4879 40.6685 46.0071 39.8362 46.3617C39.0039 46.7163 38.1085 46.8991 37.2038 46.8991C36.2991 46.8991 35.4037 46.7163 34.5714 46.3617C33.739 46.0071 32.987 45.4879 32.3603 44.8354C31.7336 44.1829 31.2452 43.4105 30.9244 42.5645C30.6037 41.7186 30.4571 40.8165 30.4936 39.9126C30.5636 38.1798 31.3012 36.5413 32.5519 35.34C33.8027 34.1387 35.4696 33.4679 37.2038 33.4679C38.938 33.4679 40.6049 34.1387 41.8557 35.34C43.1064 36.5413 43.844 38.1798 43.9139 39.9126Z" fill="#FEC74A" stroke="#D8AA3F" stroke-width="0.185937"/>
<path fill-rule="evenodd" clip-rule="evenodd" d="M-8.60796 42.5593H83.2561V65.375H-8.6189L-8.60796 42.5593Z" fill="#005989"/>
<path fill-rule="evenodd" clip-rule="evenodd" d="M-8.66267 59.0313C-6.95642 59.8188 -4.50642 61.7985 -1.88142 61.7985C2.49358 61.7656 2.60295 58.8016 7.04358 58.9438C11.4951 59.0532 10.6858 62.1813 16.6905 62.1703C21.6561 62.1485 23.253 58.375 27.5405 58.8235C30.7123 58.6594 32.003 62.4 36.8701 62.4547C41.9233 62.5641 43.7717 58.375 46.9326 58.725C50.3233 58.725 51.417 62.0938 56.153 62.1157C62.1905 62.1485 63.2514 58.6157 67.0139 58.8344C69.7045 58.7797 71.8264 61.4266 75.7639 61.4922C78.892 61.5469 81.528 59.1735 83.3108 58.3203L83.3873 54.2953C81.528 54.9844 78.7498 57.2594 75.9826 57.2813C71.9795 57.4344 69.5186 54.6563 66.7405 54.6891C63.4155 54.7219 62.092 58.1125 56.4592 58.1125C51.2967 58.1125 50.1155 54.6891 46.7905 54.6891C43.542 54.711 42.5467 58.4078 36.9139 58.3422C32.3201 58.2875 30.5373 54.8094 27.2889 54.8422C23.8436 54.8422 20.2889 58.2219 16.4608 58.0578C11.2108 57.8391 10.0623 54.8422 6.61702 54.8422C4.04671 54.8422 1.25764 57.6422 -1.83767 57.686C-4.92205 57.7407 -8.38923 54.8969 -8.70642 54.8422L-8.66267 59.0313ZM-8.66267 51.0469C-6.95642 51.8453 -4.50642 53.825 -1.88142 53.825C2.49358 53.7922 2.60295 50.8282 7.04358 50.9594C11.4951 51.0688 10.6858 54.2078 16.6905 54.186C21.6561 54.186 23.253 50.4016 27.5405 50.85C30.7123 50.686 32.003 54.4266 36.8701 54.4703C41.9233 54.5797 43.7717 50.4016 46.9326 50.7516C50.3233 50.7516 51.417 54.1203 56.153 54.1422C62.1905 54.175 63.2514 50.6422 67.0139 50.861C69.7045 50.8063 71.8264 53.4532 75.7639 53.5188C78.892 53.5735 81.528 51.2 83.3108 50.3469L83.3873 46.3219C81.528 47.011 78.7498 49.275 75.9826 49.3078C71.9795 49.45 69.5186 46.6828 66.7405 46.7157C63.4155 46.7485 62.092 50.1391 56.4592 50.1391C51.2967 50.1391 50.1155 46.7157 46.7905 46.7157C43.542 46.7375 42.5467 50.4344 36.9139 50.3688C32.3201 50.3141 30.5373 46.836 27.2889 46.8688C23.8436 46.8688 20.2889 50.2375 16.4608 50.0735C11.2108 49.8547 10.0623 46.8578 6.61702 46.8578C4.04671 46.8578 1.25764 49.6688 -1.83767 49.7125C-4.92205 49.7563 -8.38923 46.9235 -8.70642 46.8688L-8.66267 51.0578V51.0469Z" fill="white"/>
<path fill-rule="evenodd" clip-rule="evenodd" d="M-8.66267 43.1719C-6.95642 43.9594 -4.50642 45.9282 -1.89236 45.9282C2.48264 45.9063 2.59202 42.9313 7.03264 43.0735C11.4733 43.1829 10.6639 46.311 16.6686 46.3C21.6233 46.2891 23.2311 42.5047 27.4967 42.9641C30.6686 42.8 31.9592 46.5407 36.8264 46.5844C41.8686 46.6938 43.717 42.5047 46.8889 42.8547C50.2576 42.8547 51.3733 46.2235 56.0983 46.2454C62.1139 46.2782 63.1748 42.7454 66.9483 42.9641C69.628 42.9094 71.7498 45.5563 75.6764 45.6219C78.8155 45.6766 81.4405 43.3032 83.2233 42.45L83.2998 38.425C81.4405 39.125 78.6733 41.3891 75.8951 41.411C71.9139 41.5641 69.442 38.7969 66.6639 38.8188C63.3498 38.8516 62.0264 42.2422 56.3826 42.2422C51.242 42.2422 50.0608 38.8188 46.7358 38.8188C43.4873 38.8516 42.492 42.5375 36.8811 42.4719C32.2873 42.4172 30.5045 38.95 27.2561 38.9719C23.8108 38.9719 20.2561 42.3516 16.4498 42.1875C11.1889 41.9688 10.0514 38.9719 6.60608 38.9719C4.03577 38.9719 1.25764 41.7719 -1.83767 41.8157C-4.92205 41.8704 -8.3783 39.0375 -8.70642 38.9719L-8.66267 43.161V43.1719Z" fill="white"/>
<path fill-rule="evenodd" clip-rule="evenodd" d="M24.4124 17.6875C31.0842 17.2282 29.8811 16.6594 32.5608 16.2219C35.9514 16.6922 36.3342 18.7375 38.2264 19.9954C38.2264 19.9954 37.5155 22.4016 35.1967 22.0625C34.8795 21.1 36.3124 20.7938 32.1889 18.2782C29.7827 18.136 25.4842 18.7047 24.4233 17.6875H24.4124ZM45.117 21.3954L40.3045 21.5922V22.7844C43.553 22.8938 44.1327 22.4563 45.117 21.3954Z" fill="#FFC84B" stroke="#D8AA3F" stroke-width="0.196875"/>
<path fill-rule="evenodd" clip-rule="evenodd" d="M28.5686 21.1875C29.4108 20.7609 29.8264 20.9359 30.5592 20.914C31.0514 21.8219 31.5217 21.8984 32.6155 22.0078C33.0994 22.725 33.7482 23.3158 34.5076 23.7307C35.2669 24.1455 36.1145 24.3724 36.9795 24.3922C40.2499 24.3047 41.2889 22.0187 43.4874 21.7672H45.8061C45.4233 21.1109 45.117 20.7281 44.2749 20.6844C42.5467 20.5969 40.3155 20.6406 38.3686 21.0781L35.6233 21.7672C34.8139 21.3734 32.8561 19.3172 31.5983 19.3609C30.8655 19.5578 30.8655 19.8094 30.5045 20.0937C29.7936 20.4 29.0827 20.2469 28.5686 21.1875Z" fill="#FFC84B" stroke="#D8AA3F" stroke-width="0.185937" stroke-linejoin="round"/>
<path fill-rule="evenodd" clip-rule="evenodd" d="M31.8826 20.2032C31.8917 20.2535 31.8895 20.3053 31.8764 20.3548C31.8632 20.4042 31.8394 20.4502 31.8065 20.4894C31.7737 20.5287 31.7326 20.5603 31.6862 20.5819C31.6398 20.6036 31.5893 20.6148 31.5381 20.6148C31.4869 20.6148 31.4364 20.6036 31.39 20.5819C31.3436 20.5603 31.3026 20.5287 31.2697 20.4894C31.2369 20.4502 31.213 20.4042 31.1999 20.3548C31.1867 20.3053 31.1846 20.2535 31.1936 20.2032C31.208 20.1223 31.2505 20.0491 31.3135 19.9964C31.3765 19.9437 31.456 19.9148 31.5381 19.9148C31.6202 19.9148 31.6998 19.9437 31.7628 19.9964C31.8257 20.0491 31.8682 20.1223 31.8826 20.2032Z" fill="#FFC84B" stroke="#D8AA3F" stroke-width="0.185937"/>
<path fill-rule="evenodd" clip-rule="evenodd" d="M34.1249 21.1657C39.0358 15.2485 43.3233 15.9704 48.9233 15.5657C49.1093 16.2547 49.0327 17.2829 46.3749 18.1907C42.7218 18.7375 36.1921 22.5875 36.1593 22.5875C34.9452 22.5219 34.0921 21.2532 34.1249 21.1657Z" fill="#FFC84B" stroke="#D8AA3F" stroke-width="0.196875"/>
<path d="M44.2202 17.3047L47.8405 17.4688M43.8264 17.9062L46.4624 18.125" stroke="#D9A43E" stroke-width="0.196875" stroke-linecap="round"/>
</g>
<defs>
<clipPath id="clip0_1_66137">
<rect width="74.6667" height="56" fill="white" transform="translate(0 9.375)"/>
</clipPath>
</defs>
</svg>
