<svg width="75" height="75" viewBox="0 0 75 75" fill="none" xmlns="http://www.w3.org/2000/svg">
<rect width="74.6667" height="74.75" fill="white"/>
<g clip-path="url(#clip0_1_66551)">
<path fill-rule="evenodd" clip-rule="evenodd" d="M0 9.375H84.0875V23.375H0V9.375Z" fill="#FFFF00"/>
<path fill-rule="evenodd" clip-rule="evenodd" d="M6.10352e-05 23.375H84.0876V37.375H6.10352e-05V23.375Z" fill="white"/>
<path fill-rule="evenodd" clip-rule="evenodd" d="M6.10352e-05 37.375H84.0876V51.375H6.10352e-05V37.375Z" fill="#BE0027"/>
<path fill-rule="evenodd" clip-rule="evenodd" d="M6.10352e-05 51.375H84.0876V65.375H6.10352e-05V51.375Z" fill="#3B5AA3"/>
<path fill-rule="evenodd" clip-rule="evenodd" d="M0 9.375V65.375L41.7703 37.4516L0 9.375Z" fill="#239E46"/>
<path fill-rule="evenodd" clip-rule="evenodd" d="M17.1938 24.8406C7.89694 24.3703 3.64226 31.7859 3.65319 37.5172C3.63132 44.2984 10.0626 49.8766 15.9907 49.5484C12.7969 48.0391 8.88132 43.7844 8.85944 37.4844C8.82663 31.7859 12.086 26.8203 17.2048 24.8406H17.1938Z" fill="white"/>
<path fill-rule="evenodd" clip-rule="evenodd" d="M17.0626 30.9219L15.7501 29.9047L14.1532 30.4078L14.7219 28.8328L13.7594 27.4766L15.4219 27.5422L16.4063 26.1969L16.8766 27.8047L18.4516 28.3297L17.0735 29.2594L17.0626 30.9219ZM17.0298 36.6203L15.7173 35.5922L14.1204 36.0953L14.7001 34.5313L13.7266 33.175L15.4001 33.2297L16.3844 31.8953L16.8438 33.4922L18.4298 34.0281L17.0407 34.9578L17.0298 36.6203ZM17.0516 42.3735L15.7391 41.3453L14.1532 41.8485L14.7219 40.2844L13.7594 38.9282L15.4219 38.9828L16.4063 37.6485L16.8766 39.2453L18.4516 39.7703L17.0735 40.711L17.0516 42.3735ZM17.0298 48.1703L15.7173 47.1532L14.1094 47.6563L14.6891 46.0813L13.7157 44.725L15.3891 44.7906L16.3735 43.4453L16.8329 45.0532L18.4188 45.5781L17.0298 46.5078V48.1703Z" fill="white"/>
</g>
<defs>
<clipPath id="clip0_1_66551">
<rect width="74.6667" height="56" fill="white" transform="translate(0 9.375)"/>
</clipPath>
</defs>
</svg>
