<svg width="75" height="75" viewBox="0 0 75 75" fill="none" xmlns="http://www.w3.org/2000/svg">
<rect width="74.6667" height="74.75" fill="white"/>
<g clip-path="url(#clip0_1_66798)">
<path fill-rule="evenodd" clip-rule="evenodd" d="M84.3312 65.3194H-8.87415V9.41809H84.3312V65.3194Z" fill="white" stroke="black" stroke-width="0.109396"/>
<path fill-rule="evenodd" clip-rule="evenodd" d="M84.3314 55.2003H-8.87402V65.3194H84.3314V55.2003Z" fill="#3E5698"/>
<path fill-rule="evenodd" clip-rule="evenodd" d="M84.3314 52.8592H-8.87402V21.8783H84.3314V52.8592Z" fill="#C60000"/>
<path fill-rule="evenodd" clip-rule="evenodd" d="M84.3314 9.42908H-8.87402V19.5373H84.3314V9.42908Z" fill="#3E5698"/>
<path fill-rule="evenodd" clip-rule="evenodd" d="M35.3766 37.3687C35.3766 44.3154 29.5787 49.9493 22.4023 49.9493C15.2259 49.9493 9.42792 44.3154 9.42792 37.3687C9.42792 30.4221 15.2259 24.8101 22.4023 24.8101C29.5677 24.8101 35.3766 30.433 35.3766 37.3797V37.3687Z" fill="white"/>
<path fill-rule="evenodd" clip-rule="evenodd" d="M18.6719 38.966L12.4363 34.5136L20.2035 34.4917L22.6867 27.2278L24.995 34.4589L32.7621 34.4151L26.4281 38.9222L28.7582 46.1533L22.5227 41.7009L16.1777 46.2189L18.6719 38.966Z" fill="#C40000"/>
</g>
<defs>
<clipPath id="clip0_1_66798">
<rect width="74.6667" height="56" fill="white" transform="translate(0 9.375)"/>
</clipPath>
</defs>
</svg>
