<svg width="75" height="75" viewBox="0 0 75 75" fill="none" xmlns="http://www.w3.org/2000/svg">
<rect width="74.6818" height="74.75" fill="white"/>
<g clip-path="url(#clip0_1_66792)">
<path fill-rule="evenodd" clip-rule="evenodd" d="M0 9.375H74.6818V65.375H0V9.375Z" fill="white"/>
<path fill-rule="evenodd" clip-rule="evenodd" d="M8.18185 26.3838L15.9495 14.7358L17.8909 16.0308L10.1232 27.6777L8.18185 26.3827V26.3838ZM11.0939 28.3263L18.8615 16.6783L20.8029 17.9733L13.0352 29.6202L11.0939 28.3252V28.3263ZM14.0059 30.2688L21.7735 18.622L23.7149 19.917L15.9472 31.5638L14.0059 30.2688Z" fill="black"/>
<path fill-rule="evenodd" clip-rule="evenodd" d="M50.8889 54.8657L58.6565 43.2189L60.5979 44.5139L52.8302 56.1607L50.8889 54.8657ZM53.8009 56.8082L61.5685 45.1614L63.5099 46.4564L55.7422 58.1032L53.8009 56.8082ZM56.7129 58.7507L64.4805 47.1039L66.4219 48.3989L58.6542 60.0457L56.7129 58.7507Z" fill="black"/>
<path fill-rule="evenodd" clip-rule="evenodd" d="M53.802 48.3954L63.5087 54.8681L53.802 48.3954Z" fill="black"/>
<path d="M53.802 48.3954L63.5087 54.8681" stroke="white" stroke-width="1.16667" stroke-miterlimit="40"/>
<path fill-rule="evenodd" clip-rule="evenodd" d="M25.655 29.6225C29.9448 23.1895 38.6377 21.4523 45.0707 25.7433C51.5037 30.0343 53.2408 38.726 48.9498 45.159L25.655 29.6225Z" fill="#CD2E3A"/>
<path fill-rule="evenodd" clip-rule="evenodd" d="M25.655 29.6224C21.3652 36.0554 23.1024 44.7471 29.5342 49.0381C35.9672 53.3279 44.6589 51.5908 48.9499 45.1589C51.0954 41.9424 50.2262 37.5966 47.0097 35.4511C43.7932 33.3056 39.4474 34.1748 37.3019 37.3913L25.655 29.6236V29.6224Z" fill="#0047A0"/>
<path d="M31.4778 40.5063C35.3438 40.5063 38.4778 37.3723 38.4778 33.5063C38.4778 29.6404 35.3438 26.5063 31.4778 26.5063C27.6119 26.5063 24.4778 29.6404 24.4778 33.5063C24.4778 37.3723 27.6119 40.5063 31.4778 40.5063Z" fill="#CD2E3A"/>
<path fill-rule="evenodd" clip-rule="evenodd" d="M15.9822 60.0491L8.21451 48.4023L10.1558 47.1073L17.9235 58.7541L15.9822 60.0491ZM18.8942 58.1066L11.1265 46.4598L13.0678 45.1648L20.8355 56.8116L18.8942 58.1066ZM21.8062 56.1641L14.0385 44.5173L15.9798 43.2223L23.7475 54.8691L21.8062 56.1641Z" fill="black"/>
<path fill-rule="evenodd" clip-rule="evenodd" d="M58.6892 31.5662L50.9215 19.9194L52.8628 18.6244L60.6305 30.2712L58.6892 31.5662ZM61.6012 29.6237L53.8335 17.9769L55.7748 16.6819L63.5425 28.3287L61.6012 29.6237ZM64.5132 27.6812L56.7455 16.0344L58.6868 14.7394L66.4545 26.3862L64.5132 27.6812Z" fill="black"/>
<path fill-rule="evenodd" clip-rule="evenodd" d="M14.525 52.6069L17.437 50.6644L14.525 52.6069ZM53.8347 26.3908L57.232 24.1251L53.8347 26.3908ZM60.144 22.1826L63.056 20.2401L60.144 22.1826Z" fill="black"/>
<path d="M14.525 52.6069L17.437 50.6644M53.8347 26.3908L57.232 24.1251M60.144 22.1826L63.056 20.2401" stroke="white" stroke-width="1.16667" stroke-miterlimit="40"/>
</g>
<defs>
<clipPath id="clip0_1_66792">
<rect width="74.6818" height="56" fill="white" transform="translate(0 9.375)"/>
</clipPath>
</defs>
</svg>
