<svg width="75" height="75" viewBox="0 0 75 75" fill="none" xmlns="http://www.w3.org/2000/svg">
<rect width="74.6667" height="74.75" fill="white"/>
<g clip-path="url(#clip0_1_66678)">
<path d="M0 9.375H74.6667V65.375H0V9.375Z" fill="#000066"/>
<path d="M0 9.375H37.3333V37.375H0V9.375Z" fill="#012169"/>
<path d="M4.375 9.375L18.6083 19.9333L32.7833 9.375H37.3333V12.9917L23.3333 23.4333L37.3333 33.8167V37.375H32.6667L18.6667 26.9333L4.725 37.375H0V33.875L13.9417 23.4917L0 13.1083V9.375H4.375Z" fill="white"/>
<path d="M24.7333 25.7667L37.3333 35.0417V37.375L21.525 25.7667H24.7333ZM14 26.9333L14.35 28.975L3.15 37.375H0L14 26.9333ZM37.3333 9.375V9.55L22.8083 20.5167L22.925 17.95L34.4167 9.375H37.3333ZM0 9.375L13.9417 19.6417H10.4417L0 11.825V9.375Z" fill="#C8102E"/>
<path d="M14.0583 9.375V37.375H23.3917V9.375H14.0583ZM0 18.7083V28.0417H37.3333V18.7083H0Z" fill="white"/>
<path d="M0 20.6333V26.2333H37.3333V20.6333H0ZM15.925 9.375V37.375H21.525V9.375H15.925Z" fill="#C8102E"/>
<path d="M40.8979 52.6074C41.1927 53.38 43.2868 54.4068 45.7267 53.0954C47.3837 52.1601 48.4511 50.8589 49.4779 48.5208C49.7625 47.9311 49.915 47.1992 49.2339 46.7621C48.6951 46.3656 47.8106 45.9285 47.4243 45.5422C47.2312 45.3388 47.038 45.1965 46.8957 45.0542C46.9974 45.1559 47.0889 45.2474 47.1804 45.3897C48.1563 46.5587 47.1397 48.2666 46.0621 49.2934C45.2794 50.0253 43.8765 51.8247 41.823 50.1168C41.3858 49.7305 40.3591 51.3367 40.908 52.6074H40.8979Z" fill="#FCEA83" stroke="black" stroke-width="0.142322"/>
<path d="M70.5213 52.6074C70.1757 53.38 68.0815 54.4068 65.6925 53.0954C64.0456 52.1601 62.9681 50.8589 61.9006 48.5208C61.6567 47.9311 61.5042 47.1992 62.1853 46.7621C62.7241 46.3656 63.6085 45.9285 63.9948 45.5422C64.188 45.3388 64.3303 45.1965 64.5234 45.0542C64.4218 45.1559 64.3303 45.2474 64.2388 45.3897C63.2629 46.5587 64.2795 48.2666 65.3062 49.2934C66.089 50.0253 67.5427 51.8247 69.5962 50.1168C70.0333 49.7305 71.0093 51.3367 70.5111 52.6074H70.5213Z" fill="#FCEA83" stroke="black" stroke-width="0.142322"/>
<path d="M55.7096 56.7957C59.6031 56.7957 65.601 55.037 68.8236 48.8968C69.3522 47.8803 68.8236 47.3415 68.1831 47.006C67.4592 46.6414 66.7998 46.1606 66.2313 45.5828C67.0141 46.3655 66.8616 46.9043 66.333 47.7786C63.8423 51.9263 60.4368 54.0204 55.7096 54.0204C50.9825 54.0204 47.5769 51.9263 45.0863 47.7786C44.5577 46.9043 44.4052 46.3655 45.1371 45.5929C44.5771 46.1779 43.9158 46.6566 43.1853 47.006C42.555 47.3415 42.0162 47.8803 42.555 48.8968C45.7674 55.037 51.8059 56.7957 55.7096 56.7957Z" fill="#FCEA83" stroke="black" stroke-width="0.142322"/>
<path d="M46.6924 48.5614C46.5907 48.0734 45.9706 48.2665 45.7775 48.8562C45.5144 48.519 45.283 48.1583 45.0862 47.7786C44.5067 46.9043 44.4051 46.3147 45.2387 45.4913C45.625 45.105 46.4078 44.6577 46.9364 45.1456C48.0546 46.0707 47.4752 47.5854 46.6924 48.5614Z" fill="#C8102E" stroke="black" stroke-width="0.142322"/>
<path d="M64.6758 48.5614C64.7775 48.0734 65.4586 48.2665 65.6518 48.8562C65.8957 48.5105 66.1397 48.1751 66.3329 47.7786C66.9123 46.9043 67.014 46.3147 66.1295 45.4913C65.7941 45.105 65.0113 44.6577 64.4319 45.1456C63.3543 46.0707 63.8931 47.5854 64.6758 48.5614Z" fill="#C8102E" stroke="black" stroke-width="0.142322"/>
<path d="M40.8979 52.6074C40.4099 51.8755 40.0236 49.9643 39.9219 49.4865C39.7796 49.0494 39.7288 48.6529 40.2676 48.4699C40.8064 48.2666 41.2842 48.9477 41.5281 49.5373C41.7721 50.1168 42.1686 50.9911 42.6057 52.0686C41.5281 51.4384 40.6539 51.8653 40.8979 52.6074Z" fill="#C8102E" stroke="black" stroke-width="0.142322"/>
<path d="M70.5212 52.6074C70.9583 51.8755 71.3446 49.9643 71.4971 49.4865C71.5988 49.0494 71.6903 48.6529 71.1515 48.4699C70.6127 48.2666 70.1349 48.9477 69.8909 49.5373C69.6469 50.1168 69.2505 50.9911 68.8133 52.0686C69.8909 51.4384 70.7144 51.8653 70.5212 52.6074Z" fill="#C8102E" stroke="black" stroke-width="0.142322"/>
<path d="M43.724 48.2157L43.3377 48.419C43.236 48.4597 43.236 48.5614 43.236 48.6122H43.1852L42.9921 48.1751H43.0429C43.0429 48.2157 43.0937 48.2767 43.1852 48.2157L44.0188 47.7786C44.1205 47.7278 44.1205 47.6769 44.0696 47.6363L44.1103 47.5854L44.3543 48.0734H44.3136C44.2628 48.0226 44.212 47.9718 44.1103 48.0226L43.7748 48.2259L43.9172 48.5105L44.3136 48.3682C44.4153 48.3174 44.3543 48.2157 44.3543 48.1649H44.4051L44.6084 48.6122C44.5576 48.5614 44.5068 48.5105 44.4051 48.5614L43.5817 48.9985C43.48 49.0493 43.48 49.1002 43.5309 49.1408L43.48 49.1917L43.236 48.7545L43.2869 48.7037C43.3377 48.7545 43.3885 48.8054 43.4902 48.7545L43.8765 48.5512L43.724 48.2157Z" fill="#00493D"/>
<path d="M44.5576 48.8561C44.6593 48.8053 44.6593 48.7545 44.5983 48.6528H44.6491L45.1371 49.3848L44.8016 49.6288V49.5881C44.9947 49.4356 44.9947 49.2425 44.9439 49.1916C44.8931 49.1408 44.8423 49.09 44.8423 49.0493C44.8016 49.0493 44.8016 48.9985 44.6999 49.1001L44.3543 49.3441C44.4051 49.3848 44.4559 49.5373 44.6999 49.3848H44.7508L44.212 49.7812V49.7304C44.4559 49.5271 44.3543 49.3848 44.3136 49.3441L43.968 49.5881C43.8663 49.6288 43.8663 49.6897 43.8663 49.7304C43.9172 49.7304 43.9172 49.7812 43.968 49.8321C44.0188 49.9337 44.1713 50.0252 44.4051 49.9337L44.4559 49.9744L44.0696 50.1167L43.5817 49.3441H43.6325C43.6732 49.3848 43.7342 49.4458 43.8257 49.3848L44.5576 48.8561Z" fill="#00493D"/>
<path d="M45.3302 50.7063L44.9947 50.991C44.9439 51.0418 44.9439 51.1435 44.9947 51.1943H44.9439L44.5983 50.8487L44.6491 50.7978C44.6999 50.8487 44.7508 50.8995 44.8524 50.7978L45.4827 50.1676C45.5844 50.1167 45.5844 50.0659 45.5234 49.9642L45.869 50.3709C45.8182 50.3099 45.7267 50.3099 45.6657 50.3709L45.381 50.6555L45.625 50.8995L45.9198 50.6555C46.0215 50.5539 45.9707 50.5132 45.9198 50.4522L45.9707 50.4115L46.3061 50.7978H46.2553C46.2146 50.7978 46.1536 50.7572 46.0622 50.8487L45.4319 51.4383C45.3302 51.5399 45.3302 51.5806 45.381 51.6314V51.6823L45.0456 51.2858C45.0862 51.2858 45.1879 51.3366 45.2387 51.2858L45.5742 50.9503L45.3302 50.7063Z" fill="#00493D"/>
<path d="M46.0622 51.7331L46.2146 51.8754L46.4078 51.4383C46.4078 51.4383 46.2553 51.479 46.0113 51.6315L46.0622 51.7331L46.0113 51.7738L45.9097 51.6721C45.869 51.723 45.8182 51.723 45.7673 51.7738C45.625 51.8754 45.6657 51.9263 45.7267 51.9771V52.0178L45.4827 51.7738H45.5234L45.7267 51.723L46.6924 51.1943L46.7433 51.235C46.7433 51.235 46.6924 51.2858 46.2553 52.2618C46.2553 52.3634 46.2146 52.4041 46.2553 52.5057L45.869 52.1703L45.9198 52.1194C45.9707 52.2211 46.0622 52.2211 46.113 52.1194C46.113 52.0686 46.1638 51.9669 46.1638 51.9161L46.0113 51.7738L46.0622 51.723V51.7331Z" fill="#00493D"/>
<path d="M46.4485 52.6989L46.4993 52.6481C46.5501 52.6989 46.6009 52.6989 46.7026 52.6481L47.3329 51.8247L47.2821 51.7738C47.1804 51.723 47.0381 51.723 46.8958 51.8755V51.8247L47.0889 51.5807L47.8208 52.1195L47.5769 52.4041H47.526C47.6684 52.2618 47.6277 52.0686 47.526 52.0178V51.967L46.8958 52.8006C46.7941 52.8514 46.8449 52.9429 46.8958 52.9937H46.8449L46.4485 52.6989Z" fill="#00493D"/>
<path d="M47.7192 52.892L47.4752 53.2376C47.4244 53.3393 47.4752 53.38 47.526 53.4409L47.4752 53.4816L47.0889 53.1868V53.136C47.1906 53.1868 47.2312 53.1868 47.2821 53.0953L47.8209 52.3634C47.8615 52.2617 47.8209 52.2109 47.77 52.1601L47.8209 52.1194L48.2072 52.404V52.4549C48.1055 52.404 48.0648 52.404 48.0038 52.5057L47.77 52.8513L48.0648 53.0445L48.3088 52.6988C48.3495 52.5972 48.3088 52.5565 48.258 52.5057L48.3088 52.4549L48.6951 52.7497V52.8005C48.6443 52.7497 48.5528 52.7497 48.4918 52.8513L48.014 53.6239C47.9124 53.6748 47.9632 53.7256 48.014 53.7764V53.8171L47.5769 53.5324H47.6277C47.6684 53.5324 47.7294 53.5324 47.77 53.4816L48.014 53.0953L47.7192 52.892Z" fill="#00493D"/>
<path d="M48.6951 54.2644L48.7459 54.2136C48.7968 54.2644 48.8883 54.2644 48.9391 54.1627L49.3254 53.3393C49.3762 53.2376 49.3254 53.1868 49.2746 53.136L50.1082 53.5325L49.9049 53.9188L49.8642 53.8679C50.0065 53.6748 49.8642 53.4816 49.8134 53.4308C49.7625 53.4308 49.7117 53.38 49.671 53.38C49.6202 53.38 49.6202 53.38 49.5694 53.4816C49.5186 53.5325 49.3762 53.8171 49.3762 53.8171C49.4271 53.8679 49.5186 53.9696 49.7219 53.7154H49.7625L49.4779 54.3051L49.4271 54.2644C49.5694 53.9594 49.3762 53.9188 49.3254 53.9188L49.1323 54.3051C49.0814 54.4067 49.1323 54.4575 49.1831 54.4575V54.5084L48.6951 54.2644Z" fill="#00493D"/>
<path d="M50.1082 54.9456C49.9658 54.8439 49.9658 54.5491 50.1082 54.2645C50.2098 53.9595 50.403 53.7257 50.5961 53.8172C50.7385 53.868 50.6978 54.1628 50.5961 54.4576C50.4436 54.7931 50.2505 54.9862 50.1082 54.9456H50.0573C50.403 55.0879 50.647 54.8947 50.7893 54.5491C50.9316 54.2645 50.8909 53.9188 50.586 53.7765C50.3013 53.624 50.0065 53.8172 49.8642 54.1628C49.7219 54.5084 49.7625 54.8439 50.0675 54.9456H50.1082Z" fill="#00493D"/>
<path d="M51.6127 55.037L51.816 54.4576C51.8567 54.3559 51.816 54.3051 51.7652 54.2542L52.0092 54.3051V54.3559C51.9584 54.3559 51.9075 54.3559 51.8567 54.4576L51.6635 55.037C51.5619 55.281 51.4196 55.4742 51.1349 55.3827C50.9316 55.3318 50.7893 55.0879 50.8909 54.8439L51.1349 54.2136C51.1756 54.1119 51.1349 54.0611 51.0841 54.0103V53.9696L51.5212 54.1628V54.2136C51.4704 54.1628 51.3789 54.1628 51.3789 54.2644L51.1248 54.8845C51.0739 55.0777 51.0739 55.2708 51.2264 55.3217C51.3687 55.3725 51.5111 55.2708 51.6025 55.0269L51.6127 55.037Z" fill="#00493D"/>
<path d="M52.06 54.4068C52.06 54.356 52.06 54.356 52.0092 54.356L52.3447 54.4068L52.6496 55.3319L52.792 54.7423C52.8326 54.6406 52.792 54.5999 52.7411 54.5491L53.0258 54.5999L52.9851 54.6508C52.9343 54.6508 52.8834 54.6508 52.8326 54.7524L52.5886 55.8198H52.548L52.1515 54.6508L51.9075 55.4335C51.9075 55.5759 51.9584 55.5759 52.0092 55.6267V55.6775L51.7144 55.5759V55.525C51.7652 55.5759 51.8567 55.525 51.8567 55.4234L52.1007 54.5491L52.06 54.4068Z" fill="#00493D"/>
<path d="M53.7171 55.3826C53.6154 55.8198 53.4121 55.9214 53.3206 55.9214H53.2189C53.2189 55.9214 53.1783 55.8706 53.2189 55.8198L53.3714 54.8438C53.4222 54.793 53.4222 54.7422 53.4731 54.793H53.5747C53.6662 54.793 53.7577 54.9963 53.7171 55.3826L53.8594 55.4335C53.961 54.9455 53.7577 54.7422 53.5137 54.7015C53.3206 54.6507 53.0258 54.5999 53.0258 54.5999V54.6507C53.0766 54.7015 53.1783 54.7015 53.1274 54.854L52.9851 55.7181C52.9343 55.8198 52.8835 55.8706 52.8326 55.8706H52.792L53.2698 55.9722C53.5137 56.0129 53.7577 55.9722 53.8594 55.4335L53.7171 55.3826Z" fill="#00493D"/>
<path d="M54.1542 54.9862C54.1542 54.8846 54.0525 54.8439 54.0017 54.8439V54.7931L54.8861 54.8947L54.8353 55.2811C54.8353 55.0371 54.6828 54.9456 54.5913 54.9456C54.5405 54.8947 54.4897 54.8947 54.4388 54.8947C54.3982 54.8947 54.3982 54.8947 54.3982 55.0371L54.3473 55.4335C54.3982 55.4335 54.5405 55.4742 54.6421 55.1896L54.5913 55.8198H54.5405C54.5405 55.525 54.3982 55.525 54.3372 55.525L54.2965 55.9622C54.2965 56.0638 54.2965 56.0638 54.3473 56.0638L54.449 56.1147C54.5913 56.1147 54.7336 56.0638 54.8353 55.769H54.8861L54.7845 56.1553L53.8594 56.0537C53.961 56.0537 54.0017 56.013 54.0627 55.9215L54.1542 54.9862Z" fill="#00493D"/>
<path d="M55.7604 55.5759C55.7604 56.013 55.6079 56.1553 55.4656 56.1553C55.4147 56.1147 55.4147 56.1147 55.3639 56.1147L55.3233 56.0639L55.3741 55.0473C55.3741 54.9863 55.3741 54.9863 55.4147 54.9863H55.5164C55.6181 54.9863 55.7604 55.1388 55.7604 55.5759H55.9535C55.9535 55.0879 55.7096 54.9456 55.4656 54.9456C55.2623 54.8948 54.9776 54.8948 54.9776 54.8948V54.9456C55.0284 54.9456 55.1301 54.9863 55.1301 55.0879L55.0793 56.013C55.0793 56.1147 55.0284 56.1553 54.9776 56.1553V56.2062H55.4147C55.6587 56.2062 55.9027 56.1045 55.9535 55.5759H55.7502H55.7604Z" fill="#00493D"/>
<path d="M57.1734 55.9621C57.1734 56.0638 57.2243 56.0638 57.3158 56.0638V56.1146L56.777 56.1553C56.8278 56.1146 56.9295 56.0536 56.9295 55.9621L56.8278 55.0472C56.777 54.9455 56.7262 54.9455 56.6347 54.9455V54.8947L57.1734 54.8439C57.1226 54.8947 57.021 54.9455 57.0718 55.0472L57.1734 55.9621Z" fill="#00493D"/>
<path d="M57.6614 56.0638V56.0129C57.7122 56.0129 57.7631 55.9621 57.7631 55.8706L57.5598 54.854H57.5089C57.4073 54.8947 57.3158 54.9862 57.3666 55.1895H57.3158L57.265 54.8439L58.1494 54.7015L58.19 55.037H58.1494C58.1494 54.8439 57.9969 54.793 57.8444 54.793H57.8037L58.0071 55.8096C58.0071 55.9113 58.0477 55.9621 58.1494 55.9621V56.0129L57.6614 56.0638Z" fill="#00493D"/>
<path d="M59.7556 55.0879L59.5523 54.5084C59.5523 54.4068 59.4608 54.4068 59.4099 54.4068V54.3559L59.6539 54.2543V54.3051C59.6031 54.3559 59.6031 54.3559 59.6031 54.4576L59.8064 55.0879C59.8471 55.2912 59.8471 55.5758 59.5624 55.6775C59.3591 55.7182 59.1253 55.6267 59.0745 55.3319L58.8711 54.7016C58.8305 54.5999 58.7797 54.5999 58.7288 54.5999L58.678 54.5491L59.166 54.4068V54.4576C59.1253 54.5084 59.0643 54.5593 59.1253 54.6507L59.2676 55.281C59.3184 55.4843 59.4709 55.5758 59.6031 55.5758C59.7556 55.525 59.8064 55.3319 59.7556 55.0879Z" fill="#00493D"/>
<path d="M60.2944 54.7423C60.5282 54.6406 60.4875 54.5085 60.4367 54.356C60.3859 54.2137 60.2944 54.112 60.1927 54.1628C60.1419 54.1628 60.091 54.2137 60.1419 54.2645L60.2944 54.7423L60.335 54.7931L60.4367 55.1896C60.4875 55.2912 60.579 55.2912 60.64 55.2302V55.2811L60.1927 55.4844L60.1419 55.4336C60.2435 55.3827 60.2435 55.3319 60.2435 55.2302L59.8979 54.4068C59.8471 54.2645 59.7962 54.3051 59.7047 54.3051V54.2645L60.1927 54.0612C60.396 54.0205 60.579 54.0612 60.6807 54.2645C60.7315 54.5085 60.6298 54.6508 60.4367 54.7524C60.3859 54.7524 60.335 54.7931 60.335 54.7931L60.2944 54.7423Z" fill="#00493D"/>
<path d="M61.5041 54.8845C61.3618 54.9455 61.1686 54.7422 61.0161 54.4067C60.8738 54.1119 60.8738 53.8171 61.0161 53.7764C61.1686 53.7256 61.3618 53.9188 61.5041 54.2136C61.6566 54.5084 61.6566 54.793 61.5041 54.8947C61.8091 54.793 61.9006 54.4576 61.7481 54.1119C61.6058 53.8171 61.3109 53.624 61.0161 53.7256C60.9477 53.7599 60.8869 53.8077 60.8374 53.866C60.7878 53.9243 60.7505 53.9921 60.7278 54.0651C60.705 54.1382 60.6972 54.2151 60.7048 54.2913C60.7124 54.3674 60.7353 54.4413 60.7722 54.5084C60.9246 54.8439 61.2195 55.037 61.5041 54.8947V54.8845Z" fill="#00493D"/>
<path d="M61.5549 53.5326H61.4634L61.7481 53.3292L62.6325 53.8172L62.3275 53.2886C62.2869 53.1869 62.1852 53.1869 62.1446 53.1869V53.1361L62.3885 53.0344C62.3377 53.0954 62.2869 53.1361 62.3885 53.2377L62.8765 54.2137L62.8257 54.2645L61.7481 53.6749L62.1446 54.4068C62.1852 54.5085 62.2869 54.5085 62.3377 54.4576V54.5085L62.0937 54.6508V54.6C62.1446 54.5491 62.1446 54.4983 62.0937 54.4068L61.7074 53.624L61.5549 53.5224V53.5326Z" fill="#00493D"/>
<path d="M63.7508 53.6748V53.624C63.7508 53.5732 63.8016 53.5223 63.7508 53.4308L63.1611 52.6074H63.1103C63.0087 52.6481 62.968 52.8514 63.1103 52.9937L63.0697 53.0445L62.8663 52.6989L63.5983 52.2109L63.8016 52.5159C63.6491 52.3634 63.4966 52.3634 63.4051 52.4143L63.3543 52.4549L63.9439 53.2885C63.9947 53.3902 64.0862 53.3902 64.1472 53.3393V53.38L63.7508 53.6748Z" fill="#00493D"/>
<path d="M64.2895 52.5058L64.5742 52.8514C64.625 52.8921 64.7267 52.8921 64.7775 52.8514V52.8921L64.381 53.2377V53.1869C64.4319 53.136 64.4319 53.0852 64.381 52.9937L63.8016 52.2618C63.7508 52.1601 63.6999 52.2109 63.5983 52.2109L63.9947 51.8755V51.9263C63.9947 51.967 63.9439 52.028 63.9947 52.1195L64.2387 52.4041L64.5234 52.2109L64.2895 51.8755C64.2387 51.7738 64.1371 51.8246 64.0862 51.8246L64.4827 51.479V51.5298C64.4319 51.5807 64.4319 51.6315 64.4827 51.7332L65.0621 52.4549C65.113 52.5058 65.1638 52.5058 65.2146 52.4549L65.2553 52.5058L64.869 52.8514L64.8182 52.8006C64.869 52.7497 64.9198 52.6989 64.869 52.5972L64.5742 52.2618L64.2895 52.5058Z" fill="#00493D"/>
<path d="M64.7267 51.479C64.6759 51.4384 64.5742 51.4384 64.5234 51.479V51.4384L65.1638 50.8488L65.4586 51.1436H65.4078C65.2553 50.9403 65.0622 51.0419 64.9707 51.0927C64.9707 51.1436 64.9198 51.1436 64.869 51.1944C64.869 51.1944 64.869 51.2351 64.9198 51.3367L65.2147 51.6315C65.2553 51.5807 65.4078 51.479 65.2147 51.2351H65.2553L65.6518 51.6824V51.723C65.4078 51.479 65.3061 51.6214 65.2553 51.6824L65.5603 51.967C65.601 52.0687 65.6518 52.0687 65.6518 52.0687L65.7941 51.9263C65.8449 51.8755 65.8958 51.723 65.7941 51.4384H65.8449L66.0381 51.7738L65.4078 52.4041L65.357 52.3635C65.4078 52.3126 65.4586 52.2618 65.357 52.1602L64.7267 51.479Z" fill="#00493D"/>
<path d="M65.8958 50.1168C65.8449 50.1677 65.8449 50.2693 65.9364 50.3201C66.0381 50.4116 66.1397 50.4116 66.3329 50.3201C66.4345 50.2693 66.6175 50.2185 66.77 50.3608C67.014 50.6048 66.9124 50.7979 66.8717 50.8996C66.8209 50.9504 66.7192 51.0013 66.6684 51.0419C66.6175 51.0419 66.6175 51.0419 66.6175 51.0928V51.1436L66.2821 50.8488H66.3329C66.526 50.9504 66.7192 50.9911 66.8209 50.8488C66.9225 50.7471 66.8209 50.6455 66.77 50.6048C66.6684 50.5031 66.5667 50.5031 66.4244 50.6048C66.2821 50.6556 66.0889 50.6556 65.9364 50.554C65.7433 50.3608 65.7433 50.2185 65.8348 50.066L66.0381 49.9237C66.0889 49.9237 66.0889 49.9237 66.0381 49.822L66.3837 50.066H66.3329C66.0889 49.9643 65.9364 50.0253 65.8958 50.1168Z" fill="#00493D"/>
<path d="M66.3329 49.7305C66.2312 49.6796 66.1804 49.7305 66.1296 49.7813H66.0889L66.6277 48.9985L66.9632 49.2425L66.9123 49.2933C66.8515 49.2411 66.774 49.2124 66.6938 49.2124C66.6136 49.2124 66.5361 49.2411 66.4752 49.2933C66.4752 49.3442 66.4244 49.395 66.4244 49.4357C66.3837 49.4357 66.3837 49.4865 66.4752 49.5373C66.526 49.5882 66.8209 49.7813 66.8209 49.7813C66.8717 49.7305 66.9632 49.6288 66.77 49.4357V49.3848L67.258 49.7813C66.9632 49.6288 66.9123 49.7813 66.8717 49.822L67.2072 50.066C67.3088 50.1168 67.3495 50.1168 67.3495 50.1168C67.3495 50.066 67.4003 50.0151 67.4511 49.9745C67.502 49.8728 67.5528 49.7305 67.3495 49.5373L67.4003 49.4865L67.6443 49.7813L67.1563 50.5132H67.1055C67.1563 50.4116 67.1563 50.3608 67.0648 50.2693L66.3329 49.7305Z" fill="#00493D"/>
<path d="M67.6443 48.8562L67.502 49.1002C67.2986 48.8969 67.2072 48.7545 67.2072 48.7545L67.6443 48.8562H67.7459C67.7968 48.8562 67.8883 48.8969 67.9391 48.8969C68.0814 48.9477 68.0408 48.9985 67.9899 49.1002H68.0408L68.2847 48.6529C68.1831 48.7545 68.1323 48.7037 68.0408 48.7037C67.014 48.5105 66.9225 48.4597 66.9225 48.4597V48.5105L67.6951 49.3848C67.7459 49.4356 67.7459 49.5373 67.7459 49.5881H67.7968L67.9391 49.3441L67.8883 49.2933C67.8374 49.395 67.7866 49.4356 67.6951 49.2933L67.5935 49.1917L67.7459 48.8562H67.6443Z" fill="#00493D"/>
<path d="M67.3495 47.7786C67.3088 47.8294 67.3088 47.9311 67.4511 47.9819C67.5935 48.0226 67.6545 47.9819 67.7968 47.8802C67.9391 47.7786 68.0814 47.6769 68.2746 47.7786C68.5796 47.9311 68.5186 48.1751 68.4779 48.2666L68.3254 48.4699V48.5614L67.9391 48.358C68.1831 48.4089 68.3762 48.358 68.4271 48.2157C68.4779 48.1141 68.3762 48.0226 68.3254 47.9717C68.2237 47.9311 68.1323 47.9717 67.9899 48.0734C67.8374 48.2157 67.685 48.2767 67.502 48.1751C67.2986 48.0734 67.2072 47.9311 67.2986 47.7786C67.2986 47.6769 67.4003 47.6363 67.4511 47.5854C67.4511 47.5346 67.4511 47.5346 67.4003 47.4838V47.4431L67.7968 47.6363H67.746C67.502 47.5854 67.3495 47.6871 67.3495 47.7786Z" fill="#00493D"/>
<path d="M51.9582 30.5373C51.328 30.6796 50.8908 30.7305 50.3012 30.1917C49.9149 29.8054 50.0064 29.1242 50.4029 28.8701C50.84 28.5855 51.2263 28.3923 51.7651 28.5346C52.3039 28.6871 53.7169 29.9985 53.3713 30.0493C53.0256 30.0493 52.497 30.3848 51.9582 30.5373Z" fill="white" stroke="black" stroke-width="0.142322"/>
<path d="M53.4628 28.1992C53.6661 28.0467 53.9101 27.9552 54.5404 27.8942C55.13 27.8536 55.557 27.8536 55.7094 28.3009C55.9128 28.8295 56.0551 29.4598 56.4414 29.7546C56.1974 29.8969 54.9775 30.0494 54.5404 29.8054C53.9609 29.5106 53.8084 28.3822 53.4729 28.1992H53.4628Z" fill="white" stroke="black" stroke-width="0.142322"/>
<path d="M57.6613 28.25C57.8544 28.0975 58.0984 28.0975 58.7287 28.1483C59.359 28.1991 59.603 28.25 59.7453 28.6871C59.8978 29.1751 59.7453 29.8054 60.0503 30.2425C59.7453 30.3441 58.7795 30.3441 58.4339 29.9985C57.9053 29.6122 57.9459 28.4838 57.6613 28.2398V28.25Z" fill="white" stroke="black" stroke-width="0.142322"/>
<path d="M60.5789 28.5346C60.1418 28.433 59.8469 28.3923 59.664 28.5346C59.8978 28.8294 59.7046 29.9985 60.1926 30.3848C60.5281 30.6288 61.4125 30.6898 61.6056 30.1408C61.8496 29.6529 61.8496 28.9209 60.589 28.5346H60.5789Z" fill="#073163" stroke="black" stroke-width="0.142322"/>
<path d="M55.5671 28.0467C55.7094 27.9043 56.0043 27.8535 56.5837 27.8535C57.2242 27.8535 57.6003 27.9552 57.8036 28.3415C58.0069 28.8294 57.9459 29.4597 58.2916 29.8562C58.1493 30.0493 56.8277 30.0493 56.4414 29.7545C55.9026 29.4089 55.8518 28.2906 55.5671 28.0467Z" fill="#073163" stroke="black" stroke-width="0.142322"/>
<path d="M51.4296 28.4838C51.4296 28.2398 51.7651 28.1991 52.6495 28.1483C53.5136 28.0466 53.5644 28.0975 53.8593 28.7277C54.0016 29.0734 54.1947 29.6528 54.5912 29.846C53.5136 30.1001 53.168 30.2425 52.5885 29.8968C52.1653 29.6321 51.8157 29.265 51.5719 28.8294C51.5211 28.6871 51.5211 28.5346 51.4194 28.4838H51.4296Z" fill="#073163" stroke="black" stroke-width="0.142322"/>
<path d="M53.7679 23.5229C52.7411 22.7401 51.5212 22.0082 50.403 21.8658C51.5698 22.6437 52.6775 23.5068 53.7171 24.448" fill="#F9D050"/>
<path d="M53.7679 23.5229C52.7411 22.7401 51.5212 22.0082 50.403 21.8658C51.5698 22.6437 52.6775 23.5068 53.7171 24.448" stroke="black" stroke-width="0.0609952"/>
<path d="M54.3474 22.7909C53.1275 21.9573 51.7144 21.0322 50.3522 20.9407C51.627 21.6794 52.7624 22.6359 53.7069 23.7668" fill="#F9D050"/>
<path d="M54.3474 22.7909C53.1275 21.9573 51.7144 21.0322 50.3522 20.9407C51.627 21.6794 52.7624 22.6359 53.7069 23.7668" stroke="black" stroke-width="0.0609952"/>
<path d="M55.9027 21.4287C56.4531 20.1777 57.2681 19.0609 58.2917 18.1553C57.8037 19.182 57.2751 21.2762 57.021 22.1098" fill="#F9D050"/>
<path d="M55.9027 21.4287C56.4531 20.1777 57.2681 19.0609 58.2917 18.1553C57.8037 19.182 57.2751 21.2762 57.021 22.1098" stroke="black" stroke-width="0.0609952"/>
<path d="M56.9803 21.1847C57.4514 20.0392 58.3372 19.1135 59.4608 18.5924C58.6166 19.6456 57.988 20.8546 57.6106 22.1505" fill="#F9D050"/>
<path d="M56.9803 21.1847C57.4514 20.0392 58.3372 19.1135 59.4608 18.5924C58.6166 19.6456 57.988 20.8546 57.6106 22.1505" stroke="black" stroke-width="0.0609952"/>
<path d="M57.4175 22.1504C58.3508 20.7217 59.6886 19.6033 61.2602 18.938C60.0403 20.1579 58.2409 22.3944 57.8038 23.2788" fill="#F9D050"/>
<path d="M57.4175 22.1504C58.3508 20.7217 59.6886 19.6033 61.2602 18.938C60.0403 20.1579 58.2409 22.3944 57.8038 23.2788" stroke="black" stroke-width="0.0609952"/>
<path d="M58.0986 23.2281C58.9728 22.7401 60.7315 21.9574 61.9921 22.2115C61.2195 22.4961 58.8813 23.5636 57.8546 24.5497" fill="#F9D050"/>
<path d="M58.0986 23.2281C58.9728 22.7401 60.7315 21.9574 61.9921 22.2115C61.2195 22.4961 58.8813 23.5636 57.8546 24.5497" stroke="black" stroke-width="0.0609952"/>
<path d="M57.9054 22.8824C58.7288 22.0081 60.2436 20.6967 61.8498 20.158C60.6807 21.2762 58.1901 23.8177 57.8546 24.204" fill="#F9D050"/>
<path d="M57.9054 22.8824C58.7288 22.0081 60.2436 20.6967 61.8498 20.158C60.6807 21.2762 58.1901 23.8177 57.8546 24.204" stroke="black" stroke-width="0.0609952"/>
<path d="M55.5673 22.3538C54.9776 20.5442 54.1034 18.8465 52.792 18.3077C53.8365 19.8011 54.5631 21.4931 54.9268 23.2788" fill="#F9D050"/>
<path d="M55.5673 22.3538C54.9776 20.5442 54.1034 18.8465 52.792 18.3077C53.8365 19.8011 54.5631 21.4931 54.9268 23.2788" stroke="black" stroke-width="0.0609952"/>
<path d="M54.4388 22.303C53.4731 21.1339 52.1515 19.9648 50.647 19.7208C52.1213 20.6856 53.2861 22.0551 54.0017 23.6652" fill="#F9D050"/>
<path d="M54.4388 22.303C53.4731 21.1339 52.1515 19.9648 50.647 19.7208C52.1213 20.6856 53.2861 22.0551 54.0017 23.6652" stroke="black" stroke-width="0.0609952"/>
<path d="M54.9878 22.2522C53.7679 20.0563 52.8326 19.67 52.304 19.2329C52.7411 20.0563 53.8086 22.2522 54.4388 23.1773" fill="#F9D050"/>
<path d="M54.9878 22.2522C53.7679 20.0563 52.8326 19.67 52.304 19.2329C52.7411 20.0563 53.8086 22.2522 54.4388 23.1773" stroke="black" stroke-width="0.0609952"/>
<path d="M52.548 22.1097C53.2433 22.547 53.839 23.1254 54.2965 23.8074" stroke="black" stroke-width="0.0609952"/>
<path d="M52.548 23.1263C52.8326 23.3703 53.3714 23.6651 53.8594 24.1023L52.548 23.1263Z" fill="#F9D050"/>
<path d="M52.548 23.1263C52.8326 23.3703 53.3714 23.6651 53.8594 24.1023" stroke="black" stroke-width="0.0609952"/>
<path d="M58.3425 23.8583C58.8305 23.472 59.8979 22.8417 60.4367 22.6384L58.3425 23.8583Z" fill="#F9D050"/>
<path d="M58.3425 23.8583C58.8305 23.472 59.8979 22.8417 60.4367 22.6384" stroke="black" stroke-width="0.0609952"/>
<path d="M57.9969 23.5229C58.4848 22.8825 59.4608 22.0082 59.8064 21.7134L57.9969 23.5229Z" fill="#F9D050"/>
<path d="M57.9969 23.5229C58.4848 22.8825 59.4608 22.0082 59.8064 21.7134" stroke="black" stroke-width="0.0609952"/>
<path d="M59.3591 20.4934C58.704 21.2275 58.0865 21.9943 57.5089 22.7909L59.3591 20.4934Z" fill="#F9D050"/>
<path d="M59.3591 20.4934C58.704 21.2275 58.0865 21.9943 57.5089 22.7909" stroke="black" stroke-width="0.0609952"/>
<path d="M58.0986 20.0563C57.6372 20.7387 57.2293 21.4559 56.8786 22.2013L58.0986 20.0563Z" fill="#F9D050"/>
<path d="M58.0986 20.0563C57.6372 20.7387 57.2293 21.4559 56.8786 22.2013" stroke="black" stroke-width="0.0609952"/>
<path d="M54.2457 20.158C54.5405 20.9407 55.0793 22.2521 55.2623 22.7909L54.2457 20.158Z" fill="#F9D050"/>
<path d="M54.2457 20.158C54.5405 20.9407 55.0793 22.2521 55.2623 22.7909" stroke="black" stroke-width="0.0609952"/>
<path d="M53.8086 20.9813C54.0119 21.2863 54.3982 21.9572 54.5405 22.4452L53.8086 20.9813Z" fill="#F9D050"/>
<path d="M53.8086 20.9813C54.0119 21.2863 54.3982 21.9572 54.5405 22.4452" stroke="black" stroke-width="0.0609952"/>
<path d="M55.4656 20.7374C55.4656 20.3003 55.7604 19.8225 56.0553 19.8225C56.3907 19.8225 56.6347 20.402 56.6347 20.7374C56.6347 21.1339 56.3399 21.4694 56.0553 21.4694C55.7503 21.4694 55.4656 21.1847 55.4656 20.7374Z" fill="#F9D050" stroke="black" stroke-width="0.0609952"/>
<path d="M54.8353 21.1339C54.8862 20.6459 55.2216 20.2596 55.5165 20.3003C55.8113 20.3511 55.9536 20.9408 55.9028 21.2762C55.8519 21.6625 55.5165 21.9573 55.2725 21.9065C55.0285 21.9065 54.7845 21.571 54.8353 21.1339Z" fill="#F9D050" stroke="black" stroke-width="0.0609952"/>
<path d="M56.1467 21.2762C56.0451 20.8391 56.2484 20.3613 56.5432 20.3003C56.8279 20.2596 57.1227 20.7374 57.1735 21.1339C57.2751 21.5202 57.021 21.9065 56.777 21.9065C56.5432 21.9573 56.1976 21.7133 56.1467 21.2762Z" fill="#F9D050" stroke="black" stroke-width="0.0609952"/>
<path d="M55.4148 21.6625C55.4148 21.1847 55.7096 20.7476 56.0044 20.7476C56.3399 20.7476 56.5839 21.2762 56.5839 21.6625C56.5839 22.059 56.2992 22.3944 56.0044 22.3944C55.7096 22.3944 55.4148 22.1098 55.4148 21.6625Z" fill="#F9D050" stroke="black" stroke-width="0.0609952"/>
<path d="M54.5405 21.9065C54.5405 21.4694 54.8862 20.9916 55.1708 20.9916C55.4758 20.9916 55.7604 21.571 55.7604 21.9065C55.7604 22.303 55.4148 22.6384 55.1708 22.6384C54.8862 22.6384 54.5405 22.3538 54.5405 21.9065Z" fill="#F9D050" stroke="black" stroke-width="0.0609952"/>
<path d="M56.3399 21.7134C56.3399 21.2763 56.6449 20.7985 56.9295 20.7985C57.265 20.7985 57.509 21.3779 57.509 21.7134C57.509 22.1099 57.2243 22.4453 56.9295 22.4453C56.6347 22.4453 56.3399 22.1505 56.3399 21.7134Z" fill="#F9D050" stroke="black" stroke-width="0.0609952"/>
<path d="M56.1467 22.1098C56.1467 21.6218 56.4924 21.1847 56.777 21.1847C57.082 21.1847 57.3666 21.7133 57.3666 22.0996C57.3666 22.4961 57.0718 22.8417 56.777 22.8417C56.4924 22.8417 56.1467 22.5368 56.1467 22.1098Z" fill="#F9D050" stroke="black" stroke-width="0.0609952"/>
<path d="M55.3741 22.5469C55.3741 22.059 55.6588 21.6218 55.9536 21.6218C56.2992 21.6218 56.5432 22.2013 56.5432 22.5368C56.5432 22.9434 56.2382 23.2789 55.9536 23.2789C55.6588 23.2789 55.364 22.9739 55.364 22.5469H55.3741Z" fill="#F9D050" stroke="black" stroke-width="0.0609952"/>
<path d="M54.1542 22.5469C54.1542 22.059 54.3982 21.6218 54.6422 21.6218C54.8862 21.6218 55.0793 22.2013 55.0793 22.5368C55.0793 22.9434 54.8353 23.2789 54.6422 23.2789C54.3982 23.2789 54.1542 22.9739 54.1542 22.5469Z" fill="#F9D050" stroke="black" stroke-width="0.0609952"/>
<path d="M56.8787 22.4555C56.8787 22.0082 57.1227 21.571 57.3666 21.571C57.6106 21.571 57.8546 22.1098 57.8546 22.4453C57.8546 22.8824 57.5598 23.1773 57.3666 23.1773C57.1227 23.1773 56.8787 22.8824 56.8787 22.4453V22.4555Z" fill="#F9D050" stroke="black" stroke-width="0.0609952"/>
<path d="M57.1735 23.2687C57.2752 22.7909 57.5598 22.3944 57.753 22.4554C57.9563 22.4961 57.9969 23.0756 57.9054 23.4212C57.8546 23.8583 57.5598 24.1023 57.3667 24.0515C57.1633 24.0108 57.0718 23.6652 57.1633 23.2789L57.1735 23.2687Z" fill="#F9D050" stroke="black" stroke-width="0.0609952"/>
<path d="M56.2484 23.1264C56.2992 22.6893 56.5839 22.2522 56.8278 22.303C57.1227 22.303 57.265 22.8824 57.2243 23.2179C57.1735 23.6652 56.9193 23.96 56.6855 23.9092C56.4415 23.9092 56.1976 23.5636 56.2484 23.1264Z" fill="#F9D050" stroke="black" stroke-width="0.0609952"/>
<path d="M54.8862 23.2687C54.7337 22.7909 54.4389 22.4555 54.2457 22.4961C54.0526 22.547 54.0017 23.1264 54.1034 23.4721C54.2051 23.8584 54.4897 24.1023 54.6829 24.0515C54.8353 24.0108 54.9878 23.6652 54.8862 23.2789V23.2687Z" fill="#F9D050" stroke="black" stroke-width="0.0609952"/>
<path d="M54.5405 23.1772C54.5405 22.7401 54.7845 22.303 55.0285 22.303C55.3233 22.303 55.5165 22.8418 55.5165 23.1772C55.5165 23.6144 55.2725 23.9092 55.0285 23.9092C54.8252 23.9092 54.5405 23.6144 54.5405 23.1772Z" fill="#F9D050" stroke="black" stroke-width="0.0609952"/>
<path d="M55.2725 23.3704C55.2725 22.8824 55.5673 22.4554 55.8519 22.4554C56.1976 22.4554 56.4416 22.9841 56.4416 23.3704C56.4416 23.7668 56.1467 24.1023 55.8519 24.1023C55.5673 24.1023 55.2725 23.8075 55.2725 23.3704Z" fill="#F9D050" stroke="black" stroke-width="0.0609952"/>
<path d="M55.5165 18.013C55.4148 18.3993 55.0793 18.7449 55.3131 19.2837C54.8862 19.1312 54.4999 19.0804 54.1542 19.4769C54.5914 19.426 54.9777 19.5785 55.1708 19.8632C54.7845 19.8123 54.5914 20.0157 54.4897 20.2596C54.8353 20.158 55.1708 20.0563 55.3233 20.1072C55.1708 20.2596 54.9268 20.4935 54.8862 20.6968C55.1708 20.4528 55.5165 20.4935 55.7096 20.3511C55.5673 20.6968 55.8519 21.0322 56.0959 21.3677C56.0553 20.8899 56.3399 20.5545 56.1976 20.3003C56.6347 20.402 56.6855 20.7883 57.3158 20.7883C57.0718 20.6459 56.9295 20.158 56.6347 20.158C56.777 20.1072 57.3667 20.0563 57.4683 20.158C57.3667 19.9547 57.021 19.7717 56.8279 19.7717C57.0312 19.5684 57.3666 19.1821 57.6106 19.0804C57.265 19.1312 56.7364 19.1821 56.5432 19.4769C57.021 19.0804 56.9295 18.3586 57.4581 18.257C57.1735 18.2061 56.7364 18.3993 56.3907 18.7449C56.5432 18.4501 56.5432 18.0638 56.7364 17.9622C56.3399 18.0638 55.9028 18.5518 55.7604 18.7958C55.7394 18.5197 55.656 18.2521 55.5165 18.013Z" fill="#F9D050" stroke="black" stroke-width="0.0609952"/>
<path d="M55.7604 18.7958C55.7604 18.9381 55.7604 19.2329 55.7096 19.3244L55.7604 18.7958Z" fill="#F9D050"/>
<path d="M55.7604 18.7958C55.7604 18.9381 55.7604 19.2329 55.7096 19.3244" stroke="black" stroke-width="0.0609952"/>
<path d="M56.3907 18.7449C56.289 18.8465 56.0959 19.182 56.0959 19.4768L56.3907 18.7449Z" fill="#F9D050"/>
<path d="M56.3907 18.7449C56.289 18.8465 56.0959 19.182 56.0959 19.4768" stroke="black" stroke-width="0.0609952"/>
<path d="M56.6855 19.3243C56.518 19.4244 56.3945 19.5842 56.3399 19.7716" stroke="black" stroke-width="0.0609952"/>
<path d="M51.5212 24.1531C51.1755 24.1531 50.8909 24.0108 50.6876 23.7668C50.3521 23.3195 49.427 23.1264 49.0305 23.5228C48.8882 23.6245 48.695 23.6245 48.5527 23.6652C48.3087 23.6652 48.0139 23.9091 48.1054 24.3971C48.3087 24.2446 48.3494 24.3971 48.5019 24.3971C48.6036 24.3463 48.5527 24.4479 48.5527 24.5394C48.5527 24.7834 49.0814 25.2714 49.5693 25.2205C50.1081 25.2205 50.3521 25.4239 50.4436 25.5255C50.5961 25.6577 50.4944 25.617 50.5961 25.861C50.7384 26.0033 50.7892 26.0541 50.5452 26.2473C50.4342 26.3398 50.345 26.4556 50.2837 26.5865C50.2224 26.7174 50.1906 26.8601 50.1906 27.0046C50.1906 27.1492 50.2224 27.2919 50.2837 27.4228C50.345 27.5537 50.4342 27.6695 50.5452 27.762C51.1755 28.2398 52.7817 28.9819 54.5912 27.5587C56.3398 26.1965 59.0642 26.9792 59.2675 27.457C59.5115 27.9552 59.603 28.2398 59.6539 28.4838C59.7047 28.6871 59.9487 28.8802 60.2943 28.8294C60.6298 28.8294 61.0161 28.9717 61.2092 29.1242C61.4634 29.2666 61.7988 29.2259 61.7074 28.7786C61.504 27.4164 60.6806 27.2232 60.5891 26.5929C61.0669 26.6336 61.4024 26.6336 61.6057 26.4404C61.748 26.2473 61.9412 25.9016 62.1445 25.8102C62.2868 25.7085 62.2868 25.6068 62.0937 25.6577C61.8497 25.7085 61.7074 25.8102 61.2601 25.7593C59.0236 25.5153 52.7411 23.8075 51.5212 24.1531Z" fill="#059334" stroke="black" stroke-width="0.142322"/>
<path d="M61.4634 25.8101C61.0918 26.0723 60.7742 26.4037 60.5281 26.7861C60.0503 27.4163 58.5864 28.0466 56.7769 28.0466C55.0284 28.0466 53.961 27.762 53.1782 27.1317C52.844 26.8645 52.4828 26.6328 52.1006 26.4404C51.572 26.1964 51.4703 25.6577 51.6127 25.2205C51.4703 25.4645 51.3788 25.7085 51.084 25.6577C50.8807 25.6577 50.4944 25.6577 50.5961 25.861C50.5452 25.7593 50.5452 25.617 50.4944 25.556L50.3927 25.4645C50.5452 25.5662 50.8909 25.2713 51.1349 25.2713C51.328 25.3222 51.572 25.0782 51.5212 24.7834L51.3788 24.1531C51.7651 23.9498 56.8786 24.885 57.9053 24.9765C58.9219 25.0274 61.8497 25.4645 61.4634 25.8101Z" fill="black" stroke="black" stroke-width="0.142322"/>
<path d="M52.2023 23.96C52.6902 23.472 53.2697 23.228 53.8593 23.3703H54.0016C54.3066 23.1264 54.9775 23.0755 55.374 23.2687H55.5672C56.1466 23.0755 57.2649 23.2687 57.6613 23.6652L57.8037 23.7668C59.1252 23.6652 59.8978 24.2446 60.8229 25.1799C60.9246 25.2815 61.0669 25.4645 61.3109 25.5153C61.6057 25.5662 61.6565 25.7187 61.4125 25.861C61.0217 26.1027 60.6774 26.4126 60.396 26.7759C59.9487 27.3655 58.5356 27.9551 56.7769 27.9551C55.0792 27.9551 54.0525 27.6502 53.2697 27.0707C52.8325 26.7352 52.4971 26.5421 52.2531 26.3896C51.9583 26.2879 51.572 25.9016 51.7143 25.5153C51.816 25.129 51.572 24.6411 51.3788 24.1531C51.5212 24.0515 51.9075 23.9091 52.1006 24.0108L52.2023 23.96Z" fill="#059334" stroke="black" stroke-width="0.142322"/>
<path d="M60.8229 25.1799C59.908 24.2446 59.1252 23.6652 57.8037 23.7567C57.8037 23.8075 57.8037 23.96 57.7529 24.0616C58.6739 24.4749 59.4903 25.0899 60.1418 25.861C60.3451 25.6577 60.6806 25.4239 60.8229 25.1799Z" fill="#00493D" stroke="black" stroke-width="0.142322"/>
<path d="M57.6614 23.6652C57.2649 23.2789 56.1466 23.0756 55.5672 23.2789C55.5672 23.472 55.5672 23.7669 55.4655 23.96C55.8112 24.1023 56.0958 24.448 56.3906 24.7834C56.5939 24.7326 57.0717 24.5903 57.3157 24.5395C57.4613 24.261 57.5772 23.9679 57.6614 23.6652Z" fill="#00493D" stroke="black" stroke-width="0.142322"/>
<path d="M55.374 23.2687C54.9776 23.0755 54.2965 23.1264 54.0016 23.3703C53.9 23.5737 53.8593 23.96 53.8593 24.1531C54.0626 24.1531 54.3473 24.2954 54.4388 24.3971C54.7438 24.2954 55.1301 24.1023 55.2724 23.96C55.3232 23.7566 55.4147 23.472 55.374 23.2789V23.2687Z" fill="#00493D" stroke="black" stroke-width="0.142322"/>
<path d="M52.2023 23.96C52.6902 23.472 53.2697 23.228 53.8593 23.3703C53.7577 23.5228 53.717 23.8075 53.717 24.1023C53.1782 24.0515 52.4971 24.2039 52.2023 24.3971V23.96Z" fill="#00493D" stroke="black" stroke-width="0.142322"/>
<path d="M59.9487 25.9525C59.3362 25.2273 58.573 24.6445 57.7122 24.2446C57.7122 24.2955 57.6105 24.4886 57.5597 24.6411C57.8545 25.0782 58.434 26.0542 58.6779 26.5929C58.9219 26.4913 59.603 26.1965 59.9487 25.9525Z" fill="#00493D" stroke="black" stroke-width="0.142322"/>
<path d="M56.2483 27.0301C56.3326 26.3657 56.3801 25.6971 56.3906 25.0274C56.6346 24.9766 57.1226 24.8343 57.3157 24.7834C57.5597 25.1799 58.1493 26.2067 58.3933 26.6845C57.8037 26.8268 56.8277 27.0708 56.2483 27.0301Z" fill="#00493D" stroke="black" stroke-width="0.142322"/>
<path d="M54.5404 24.6919C54.7844 24.5903 55.13 24.387 55.3639 24.204C55.5672 24.3463 55.9535 24.6919 56.0958 24.8851C56.0958 25.3222 55.9535 26.593 55.9026 27.0199C55.5163 27.0199 54.8861 26.9284 54.5404 26.7353C54.5912 26.0033 54.6421 25.1799 54.5404 24.6919Z" fill="#00493D" stroke="black" stroke-width="0.142322"/>
<path d="M52.1006 25.2714C52.1514 25.1697 52.2023 24.8342 52.2023 24.6919C52.5886 24.4479 53.5645 24.2039 54.2964 24.5902C54.3473 25.0782 54.2964 26.2981 54.2456 26.5929C53.5936 26.0627 52.8761 25.6185 52.1108 25.2714H52.1006Z" fill="#00493D" stroke="black" stroke-width="0.142322"/>
<path d="M49.6709 24.3869C49.5693 24.3869 49.5185 24.1023 49.3253 24.1023C49.2745 24.1023 49.1322 24.1531 49.0813 24.1023C49.0813 24.204 49.1322 24.3056 49.183 24.3463C49.2338 24.4886 49.4778 24.3971 49.6709 24.3971V24.3869Z" fill="black"/>
<path d="M49.6709 25.2206C50.2504 25.2206 50.3521 24.4887 50.6469 24.448" stroke="black" stroke-width="0.142322"/>
<path d="M50.0064 25.2714C50.4436 25.4747 50.7892 24.4479 51.1247 24.4886" stroke="black" stroke-width="0.142322"/>
<path d="M49.1322 24.0108C49.2745 24.0108 49.3761 23.8075 49.6201 24.0515C49.7218 24.1531 49.8641 24.204 49.9658 24.204" stroke="black" stroke-width="0.142322"/>
<path d="M49.8641 24.7325C49.6608 25.0375 49.3253 25.2205 49.1322 25.129" stroke="black" stroke-width="0.142322"/>
<path d="M49.0305 23.5228C48.8882 23.6245 48.7967 23.8075 48.695 23.96" stroke="black" stroke-width="0.142322"/>
<path d="M48.5527 24.2446V24.4886" stroke="black" stroke-width="0.142322"/>
<path d="M64.8182 30.5882V40.0831C64.8182 48.3174 60.9247 51.1436 55.7096 53.38C50.4945 51.1436 46.5603 48.3174 46.5603 40.0831V30.578H64.8182V30.5882Z" fill="white"/>
<path d="M55.7096 38.6192C56.1467 38.6192 56.8278 38.2329 57.4174 37.6432C58.0477 36.9621 59.1253 36.7283 60.2435 37.6432C61.3618 38.5683 62.0429 38.182 62.6325 37.6432C63.212 37.1146 63.6999 36.9113 64.8182 36.9113V30.5881H46.5501V36.9215C47.6684 36.9215 48.1563 37.1248 48.7459 37.6534C49.3254 38.1922 50.0065 38.5785 51.1349 37.6534C52.304 36.7385 53.3206 36.9723 54.0017 37.6534C54.5405 38.243 55.2216 38.6293 55.7096 38.6293V38.6192Z" fill="#C8102E"/>
<path d="M55.7096 43.4988C56.2992 43.4988 57.4683 42.8584 57.7529 42.7161C58.8305 42.0756 59.6031 42.6652 60.2435 42.9601C60.9246 43.2447 62.1852 43.5903 62.968 42.9601C63.7508 42.3196 64.1879 42.3704 64.7267 42.3704C64.8283 41.6385 64.8283 40.9065 64.8283 40.0831V39.4935C64.1371 39.3512 63.8016 39.5443 63.0696 40.1848C62.3377 40.8151 61.5041 40.6727 60.4265 40.2864C59.4099 39.8391 58.3933 39.0665 57.3666 40.2864C56.9407 40.7623 56.3465 41.0539 55.7096 41.0997C54.9776 41.0997 54.3473 40.6219 54.0525 40.2864C52.9851 39.0665 52.0092 39.8391 50.9824 40.2864C49.915 40.6727 49.0306 40.8151 48.3088 40.1848C47.6277 39.5443 47.2821 39.3512 46.5501 39.4935V40.0831C46.5501 40.9065 46.6009 41.6385 46.6924 42.3704C47.2312 42.3704 47.6277 42.3196 48.4003 42.9601C49.1831 43.5903 50.4945 43.2447 51.1349 42.9601C51.816 42.6652 52.5886 42.0756 53.6662 42.7161C53.961 42.8584 55.0793 43.4887 55.7096 43.4887V43.4988Z" fill="#0B50A0"/>
<path d="M55.7095 45.5929C56.5536 45.5473 57.3738 45.2961 58.0985 44.861C59.0744 44.3222 59.7556 44.556 60.7315 45.0541C61.7481 45.5421 62.5817 45.3896 63.1713 45.0541C63.4559 44.8508 63.6999 44.4645 64.3302 44.617C64.0456 45.8369 63.5983 46.9043 63.0696 47.7786C62.6543 47.9163 62.2158 47.9701 61.7795 47.9369C61.3432 47.9038 60.9179 47.7843 60.5282 47.5854C59.5116 47.0975 58.2408 46.8026 57.5597 47.2398C57.0073 47.5993 56.3681 47.8031 55.7095 47.8294C55.1707 47.8294 54.4896 47.6261 53.8594 47.2398C53.1782 46.8026 51.9075 47.0975 50.8909 47.5854C50.5019 47.786 50.0769 47.9072 49.6406 47.9421C49.2043 47.977 48.7654 47.9249 48.3495 47.7887C47.8208 46.9043 47.3837 45.8267 47.0889 44.617C47.7192 44.4645 47.9631 44.861 48.258 45.0541C48.6224 45.2599 49.0339 45.368 49.4524 45.368C49.871 45.368 50.2825 45.2599 50.6469 45.0541C51.6635 44.5662 52.3446 44.3222 53.3206 44.8508C54.0444 45.2895 54.8646 45.5442 55.7095 45.5929Z" fill="#0B50A0"/>
<path d="M55.7095 53.38C57.5938 52.6497 59.3531 51.6312 60.9246 50.3607C60.5281 50.2184 60.2943 50.3099 59.9487 50.0659C59.603 49.8219 58.5865 49.7304 57.7122 50.2184C57.1059 50.5721 56.4165 50.7584 55.7146 50.7584C55.0127 50.7584 54.3233 50.5721 53.717 50.2184C52.8326 49.7304 51.816 49.8219 51.4805 50.0659C51.1349 50.3099 50.8909 50.2184 50.4944 50.3709C52.0596 51.6479 53.8206 52.664 55.7095 53.38Z" fill="#0B50A0"/>
<path d="M54.4389 32.9669C54.4897 33.0686 54.3982 33.3126 54.4389 33.4041C54.5405 33.6074 54.5405 33.709 54.6829 33.8005H55.0285C56.0959 33.8005 57.3667 33.3634 58.4341 33.3634C59.4608 33.3634 60.0911 33.6989 60.6706 33.6989C61.0162 33.6989 61.311 33.4549 61.311 33.2109C61.311 32.9669 60.9247 32.8246 60.0911 32.8246C58.922 32.8246 58.2917 33.1194 57.3158 33.1194C55.8519 33.1194 55.608 32.5806 55.608 32.3366C55.608 32.0927 55.8519 31.7572 56.6347 31.7572C56.8787 31.7572 57.0718 31.7064 57.1735 31.6047C57.2243 31.503 57.3666 31.3099 57.6615 31.1676C57.9969 30.9642 58.678 31.1676 59.0237 30.9236C59.0237 31.1269 58.7289 31.4115 58.4849 31.5132C58.9729 31.3607 59.5015 31.3607 59.6031 31.7572C59.3592 31.6047 58.9729 31.7064 58.8305 31.7572C58.6272 31.7978 58.5357 31.8588 58.3426 31.8995C58.5357 31.8487 58.6374 32.235 58.922 32.235C58.6374 32.479 58.1494 32.479 57.6615 32.2858C57.509 32.235 57.1227 32.0927 56.8787 32.0927C56.3907 32.0927 56.0959 32.1943 56.0959 32.3875C56.0959 32.6314 56.4009 32.7738 57.265 32.7738C58.1494 32.7738 58.6374 32.5298 59.9488 32.5298C59.8471 32.3875 59.9996 32.235 59.8065 32.0927C60.2944 32.0927 60.823 32.235 61.0264 32.5806C60.9755 32.235 61.2602 31.9503 61.1687 31.6555C61.4635 31.7064 61.7075 31.991 61.7481 32.235C61.7481 32.0927 61.9515 32.0927 61.9515 31.9503C62.0874 32.0238 62.1974 32.1374 62.2666 32.2757C62.3357 32.4139 62.3605 32.5701 62.3378 32.7229C62.4801 32.479 62.6326 32.5806 62.7241 32.2858C62.8257 32.4891 62.7749 33.0686 62.4293 33.2617C62.7342 33.0584 63.1612 33.0584 63.456 33.4041C63.1612 33.3634 63.0189 33.5057 62.8765 33.5565C62.1672 33.9191 61.3745 34.0874 60.5791 34.0445C59.8065 33.9937 59.7048 33.8412 59.2168 33.8412C59.5116 33.892 60.0911 34.4816 60.6401 34.4816C60.9755 34.4816 61.2195 34.4816 61.3618 34.4308C61.5042 34.38 61.7481 34.4308 61.9413 34.5325C62.0938 34.6748 62.3886 34.8171 62.5817 34.7764C62.5309 34.9696 62.4293 35.0611 62.2869 35.1119C62.5309 35.2644 62.3886 35.3559 62.6326 35.5491C62.5309 35.5491 62.4293 35.6507 62.2869 35.5999C62.4293 35.7422 62.4293 35.9455 62.5817 36.037C62.5309 36.037 62.3784 36.0878 62.2869 36.037C62.4293 36.2403 62.2869 36.4741 62.4293 36.5758C62.5817 36.7791 62.2869 37.0129 62.043 36.8198C62.0938 36.9621 61.9413 37.1146 61.799 37.0638C61.6566 37.0129 61.555 36.8604 61.5957 36.8198C61.5957 36.769 61.5956 36.769 61.6566 36.7181C61.555 36.8706 61.3618 36.8706 61.2602 36.8198C61.2195 36.769 61.1585 36.7181 61.1585 36.6775C60.823 36.7791 60.6807 36.4741 60.7316 36.3318C60.7722 36.1895 61.067 36.1285 61.1687 36.1895C61.2703 36.2302 61.3618 36.2912 61.4635 36.1895C61.5652 36.1387 61.6058 36.037 61.6058 35.9455C61.6058 35.793 61.4635 35.3559 60.823 35.4067C60.0911 35.4576 58.922 35.2644 58.3426 35.0611C58.2917 35.0204 58.2409 35.0204 58.1901 34.9594C58.1901 35.1627 57.9969 35.2644 57.9969 35.4576C57.9969 35.7015 58.0986 35.8947 58.3934 35.9862C58.2409 36.2302 57.9969 36.1895 57.9054 36.037C57.9054 36.1895 57.7021 36.281 57.7021 36.4741C57.6615 36.3725 57.6005 36.3318 57.5598 36.2302C57.4175 36.5758 57.021 36.769 56.8279 36.6775C56.5839 36.8706 56.2992 36.8198 56.1976 36.6266C56.0553 36.7283 55.8519 36.7283 55.7604 36.6266C55.7604 36.769 55.6588 36.7283 55.608 36.9214C55.608 37.0231 55.4148 37.0638 55.3233 37.0231C55.2217 36.9621 55.1708 36.769 55.2725 36.6775C55.1302 36.7791 54.9777 36.7791 54.8862 36.6775C54.8862 36.5758 54.8862 36.4335 54.9878 36.3725H55.0793C54.9777 36.3318 54.8353 36.3725 54.7337 36.3318C54.632 36.2302 54.632 36.1285 54.6829 36.037C54.7337 35.9862 54.8862 35.8947 54.9878 35.9862L55.0285 36.037C55.0285 35.9354 55.0793 35.8439 55.1302 35.8439C55.2318 35.793 55.364 35.793 55.5165 35.9455C55.6181 36.0878 55.7096 36.0878 56.0044 36.0472C56.2484 36.0472 56.6347 35.793 56.9194 35.5491C56.1061 35.4067 56.5839 34.8679 56.8279 34.6748C56.6347 34.624 56.3399 34.624 56.1467 34.7256C55.1302 35.2644 54.0526 35.8947 53.3715 35.7015C53.3809 35.8034 53.4159 35.9013 53.4731 35.9862C53.3206 35.9862 53.0258 35.9862 52.9343 35.8439C52.8835 35.9455 52.792 36.1895 52.8835 36.3827C52.7818 36.281 52.4972 36.1793 52.3447 36.1387C52.4464 36.2403 52.3447 36.4335 52.3955 36.5758C52.2532 36.4335 52.0092 36.3318 51.9076 36.4335C51.8059 36.5351 51.6128 36.5758 51.4704 36.5351C51.3757 36.6691 51.2402 36.769 51.0841 36.8198C51.0841 36.7181 51.0841 36.5758 51.0333 36.525C50.9825 36.6775 50.83 36.8706 50.647 36.9621C50.647 36.8605 50.647 36.7181 50.5962 36.6266C50.5962 36.8198 50.2099 36.9214 50.1591 37.0638C50.2099 36.9214 50.2099 36.769 50.2099 36.6775C50.1559 36.7639 50.0848 36.8383 50.0008 36.896C49.9169 36.9537 49.8219 36.9935 49.7219 37.0129C49.7626 36.9113 49.8236 36.8096 49.7626 36.7181C49.7219 36.9214 49.4271 37.0231 49.1831 36.9621C49.1831 37.0638 48.9798 37.2061 48.746 37.0638C48.5935 37.0129 48.502 36.8604 48.5935 36.769C48.4004 36.769 48.2072 36.5758 48.3089 36.4335C48.3089 36.3827 48.3495 36.3318 48.3495 36.281C48.2072 36.1793 48.1564 35.9862 48.3089 35.8439C48.3495 35.793 48.502 35.793 48.5935 35.793C48.5935 35.4067 48.9391 35.4067 49.0815 35.6914C49.1831 35.8439 49.4779 36.0878 49.7219 36.037C49.8236 36.037 49.8642 35.9862 49.9659 35.9862C50.4032 35.8417 50.8149 35.6289 51.1858 35.3559C51.2265 35.2136 51.2265 35.1119 51.2265 35.0204C51.0333 35.1221 50.8402 35.2136 50.7385 35.3559V35.2136C50.5962 35.2136 50.3522 35.1627 50.2505 35.1627C50.3014 35.1119 50.3522 34.8679 50.4539 34.8171C50.2099 34.8679 49.9659 34.8171 49.7626 34.7764C49.8642 34.6748 49.8642 34.5325 49.9151 34.38C49.8134 34.4308 49.5694 34.3393 49.3763 34.38C49.4271 34.2377 49.4779 34.0445 49.6203 33.9937C49.4169 34.0445 49.1831 33.9937 48.9391 33.892C49.1425 33.892 49.234 33.648 49.3763 33.648C48.99 33.648 48.8883 33.4549 48.6952 33.3634C48.8375 33.4041 48.9391 33.2617 49.0815 33.2617C48.9391 33.2109 48.6952 32.9669 48.7968 32.8246C48.746 32.8754 48.6952 32.9669 48.5935 33.0279C48.4918 33.0686 48.3089 33.0279 48.1564 32.8754C48.0547 32.6721 48.1055 32.4383 48.3089 32.3875C48.2643 32.3846 48.2214 32.369 48.1854 32.3425C48.1494 32.316 48.1217 32.2798 48.1056 32.2381C48.0896 32.1963 48.0858 32.1509 48.0948 32.1071C48.1038 32.0633 48.1252 32.023 48.1564 31.991C48.2072 31.8893 48.4004 31.7572 48.502 31.8893L48.6443 32.0927C48.5935 31.991 48.5935 31.7978 48.5935 31.6555C48.6443 31.5132 48.746 31.5132 48.8985 31.4522C49.0306 31.4522 49.1323 31.6047 49.1323 31.7572C49.1323 31.8995 49.1831 31.991 49.234 32.1943L49.2746 31.991C49.2746 31.7978 49.5186 31.8487 49.6711 31.8893C49.8134 31.9503 49.8642 32.235 49.6711 32.3875C49.5694 32.4891 49.6203 32.6314 49.7219 32.7229C50.0574 33.2617 50.6368 33.6989 51.135 33.7497C51.135 33.5464 51.2366 33.3634 51.379 33.2109C51.379 33.1092 51.4196 32.9669 51.4806 32.8754C51.5213 32.5806 51.6636 32.4383 51.8568 32.5298C51.8161 32.479 51.7551 32.4281 51.7551 32.3875C51.6128 32.235 51.4704 31.991 51.5721 31.7978C51.6738 31.6047 51.9584 31.6555 52.0601 31.7572C52.0092 31.4522 52.3447 31.2184 52.3447 31.0659C52.3955 31.2184 52.4972 31.4115 52.4464 31.5539C52.4972 31.3607 52.8327 31.1167 53.0767 31.0252C52.975 31.1676 53.28 31.4115 53.2291 31.5539C53.3308 31.3099 53.7171 31.1676 54.0017 31.1676C53.9001 31.2692 53.9001 31.4624 53.9001 31.5539C54.0526 31.5539 54.3067 31.5132 54.3982 31.3607C54.3982 31.564 54.2966 31.7572 54.1949 31.8487C54.2457 31.7978 54.4389 31.7978 54.5914 31.7978C54.4389 31.9503 54.4897 32.1028 54.3474 32.1943C54.5405 32.0927 54.7845 32.0927 54.8353 32.296C54.937 32.4383 54.7845 32.6823 54.6829 32.8246C54.5812 32.8754 54.4897 32.9669 54.4389 32.9669Z" fill="#F9D050" stroke="black" stroke-width="0.142322"/>
<path d="M51.4297 33.5565C51.084 33.6988 50.9824 34.0445 50.9315 34.2376" stroke="black" stroke-width="0.142322"/>
<path d="M51.3788 33.8921C50.8909 34.1971 50.6876 34.4309 50.7892 34.9697" stroke="black" stroke-width="0.142322"/>
<path d="M51.6127 35.366C51.9176 35.2644 52.1006 35.1627 52.3446 34.7256" stroke="black" stroke-width="0.142322"/>
<path d="M52.2023 34.9188C52.1006 35.1221 52.2023 35.4576 52.06 35.5999C52.1907 35.5349 52.3035 35.4388 52.3886 35.32C52.4737 35.2013 52.5284 35.0636 52.5479 34.9188" stroke="black" stroke-width="0.142322"/>
<path d="M52.3039 35.4575C52.4971 35.3559 52.7919 35.0611 52.9342 34.7256C52.8834 34.8679 52.9342 35.1119 52.8326 35.2644C53.0765 35.0204 53.1782 34.8679 53.229 34.6239L53.2697 34.8273C53.3714 34.7256 53.473 34.6239 53.473 34.4308" stroke="black" stroke-width="0.142322"/>
<path d="M53.4628 34.5731V34.8171C53.6662 34.6748 53.717 34.4817 53.717 34.2377" stroke="black" stroke-width="0.142322"/>
<path d="M53.6662 34.5325C53.961 34.3292 54.0016 34.0446 54.0016 33.6074" stroke="black" stroke-width="0.142322"/>
<path d="M54.0016 34.0953C54.205 33.9428 54.2456 33.8514 54.2456 33.4041" stroke="black" stroke-width="0.142322"/>
<path d="M53.6153 32.0927C53.5137 32.0927 53.412 32.1436 53.412 32.296C53.412 32.3875 53.2697 32.5299 53.2697 32.6823C53.229 32.8755 53.1274 32.9263 52.985 32.8755C52.8326 32.7738 52.8326 32.7738 52.8326 32.6315C52.8326 32.4282 53.0765 32.3875 53.0765 32.1944C53.1274 32.0927 53.1782 31.9504 53.229 31.9504C52.985 32.0927 52.6394 31.9911 52.5886 31.7064" stroke="black" stroke-width="0.142322"/>
<path d="M54.0525 32.235C53.9508 32.2858 53.8491 32.1333 53.717 32.1943C53.6662 32.1943 53.5137 32.235 53.473 32.1943" stroke="black" stroke-width="0.142322"/>
<path d="M53.3714 32.479C53.4222 32.5298 53.6662 32.6315 53.9101 32.5298C53.7068 32.5806 53.5645 32.3367 53.7577 32.1943" stroke="black" stroke-width="0.142322"/>
<path d="M52.9342 31.9911C52.7309 31.9911 52.5886 32.1436 52.6394 32.2961C52.6902 32.4384 52.8834 32.4384 53.0257 32.3367" stroke="black" stroke-width="0.142322"/>
<path d="M52.5886 34.4309C52.6394 34.3801 52.6902 34.2886 52.6902 34.2276C52.7919 34.2276 52.8935 34.1869 52.9342 34.1361C53.1274 34.1361 53.2697 33.9938 53.3205 33.8514C53.4222 33.8514 53.473 33.6075 53.5238 33.5058C53.5645 33.5566 53.6662 33.5058 53.717 33.3025C53.8186 33.3635 53.961 33.3025 54.0016 33.1602" stroke="black" stroke-width="0.142322"/>
<path d="M52.0091 32.8246C52.0091 32.8754 51.9075 32.9669 51.8058 33.0279C51.8567 33.1194 51.8058 33.3634 51.7143 33.404C51.7652 33.5057 51.7143 33.648 51.6635 33.7497C51.6635 33.8005 51.7143 33.953 51.7143 33.9937" stroke="black" stroke-width="0.142322"/>
<path d="M52.2023 31.8488C52.1006 32.0927 52.1514 32.3875 52.3446 32.4384" stroke="black" stroke-width="0.142322"/>
<path d="M52.3039 32.6213C52.2531 32.8755 52.2531 33.211 52.2023 33.3634C52.1514 33.4651 52.06 33.8006 52.4463 33.8921C52.8834 33.9937 53.1274 33.9429 53.3713 33.211" stroke="black" stroke-width="0.142322"/>
<path d="M54.1033 35.1119C54.1033 35.1628 54.0525 35.2644 53.961 35.2644" stroke="black" stroke-width="0.142322"/>
<path d="M54.4388 35.0205C54.4388 35.1222 54.3371 35.2645 54.2964 35.3052" stroke="black" stroke-width="0.142322"/>
<path d="M54.7844 34.9188C54.7844 35.0205 54.7844 35.1628 54.6828 35.2136" stroke="black" stroke-width="0.142322"/>
<path d="M51.816 31.8995C51.8566 31.8995 51.9176 32.0012 51.9583 32.0927C51.816 31.991 51.6635 32.235 51.755 32.3875" stroke="black" stroke-width="0.142322"/>
<path d="M51.6635 32.723L51.4703 32.8755" stroke="black" stroke-width="0.142322"/>
<path d="M51.5212 33.1602C51.4703 33.1602 51.4195 33.211 51.3788 33.211" stroke="black" stroke-width="0.142322"/>
<path d="M49.183 32.2859C49.183 32.235 49.183 32.235 49.2338 32.1842" stroke="black" stroke-width="0.142322"/>
<path d="M48.7459 32.1435C48.6951 32.1435 48.6951 32.1435 48.6442 32.0927" stroke="black" stroke-width="0.142322"/>
<path d="M48.7865 32.8246H48.8882" stroke="black" stroke-width="0.142322"/>
<path d="M48.5934 32.5298C48.5162 32.4531 48.4164 32.4032 48.3087 32.3875" stroke="black" stroke-width="0.142322"/>
<path d="M51.2772 34.3394C50.9315 34.624 50.7892 34.868 50.7384 35.2136" stroke="black" stroke-width="0.142322"/>
<path d="M51.6127 34.5731C51.5263 34.7542 51.3929 34.9087 51.2264 35.0204" stroke="black" stroke-width="0.142322"/>
<path d="M49.7218 36.0371C49.5591 36.0895 49.3865 36.104 49.2173 36.0793C49.0481 36.0546 48.8869 35.9915 48.7459 35.8947C48.6951 35.8439 48.6442 35.8439 48.5934 35.7931" stroke="black" stroke-width="0.142322"/>
<path d="M51.1755 35.3661C51.1349 35.5491 51.0739 35.7931 50.9824 35.8439C51.3788 35.6406 51.7143 35.356 51.7651 34.9188" stroke="black" stroke-width="0.142322"/>
<path d="M48.3494 36.2811C48.5019 36.2302 48.6544 36.3319 48.7459 36.2302" stroke="black" stroke-width="0.142322"/>
<path d="M56.8277 34.6748C56.9294 34.7256 57.0717 34.7765 57.1226 34.8171C57.1734 34.7155 57.3665 34.5731 57.5089 34.5325" stroke="black" stroke-width="0.142322"/>
<path d="M53.3713 35.7015C53.3205 35.4982 53.4222 35.2644 53.717 35.1627" stroke="black" stroke-width="0.142322"/>
<path d="M51.4703 36.525C51.5212 36.4234 51.5212 36.2811 51.572 36.1896" stroke="black" stroke-width="0.142322"/>
<path d="M49.3253 36.6775C49.2745 36.7791 49.183 36.8706 49.183 36.9621" stroke="black" stroke-width="0.142322"/>
<path d="M48.5934 36.7689C48.5934 36.7689 48.5934 36.7181 48.6442 36.7181C48.7459 36.6774 48.8882 36.5758 48.939 36.4741" stroke="black" stroke-width="0.142322"/>
<path d="M55.2215 36.0878C55.1199 36.1386 55.0792 36.0878 55.0284 36.037" stroke="black" stroke-width="0.142322"/>
<path d="M55.1707 36.3319C55.1707 36.3319 55.13 36.3827 55.069 36.3827" stroke="black" stroke-width="0.142322"/>
<path d="M55.4147 36.5758C55.3639 36.6266 55.313 36.6775 55.2724 36.6775" stroke="black" stroke-width="0.142322"/>
<path d="M56.8277 36.6775C56.9294 36.6267 56.9802 36.5251 57.0311 36.3319" stroke="black" stroke-width="0.142322"/>
<path d="M56.1974 36.6267C56.3398 36.5759 56.4414 36.4742 56.5838 36.3319" stroke="black" stroke-width="0.142322"/>
<path d="M57.5597 36.2302C57.5597 36.1285 57.5597 36.037 57.6105 35.9456" stroke="black" stroke-width="0.142322"/>
<path d="M61.1686 36.6775C61.0669 36.5759 61.0669 36.4336 61.2194 36.3319C61.3211 36.2811 61.3617 36.2302 61.4634 36.1896" stroke="black" stroke-width="0.142322"/>
<path d="M58.19 34.9595C57.4174 34.624 57.4682 34.1869 56.8277 34.2377" stroke="black" stroke-width="0.142322"/>
<path d="M61.6565 36.4844C61.7074 36.525 61.6565 36.6775 61.6565 36.7182" stroke="black" stroke-width="0.142322"/>
<path d="M62.0937 36.4844C62.0428 36.6267 62.0428 36.6775 62.0428 36.8198" stroke="black" stroke-width="0.142322"/>
<path d="M58.3425 31.8995H57.9358" stroke="black" stroke-width="0.142322"/>
<path d="M54.2456 33.5565C54.2456 33.6582 54.3981 33.8513 54.7844 33.8513C54.7336 33.8513 54.6828 33.8005 54.6828 33.8005" stroke="black" stroke-width="0.142322"/>
<path d="M54.4388 32.9669C54.3981 33.0178 54.3371 32.9669 54.3371 32.9669C54.2456 32.8653 54.3981 32.6823 54.5404 32.5806C54.3981 32.6315 54.2965 32.6315 54.1948 32.6315C54.0931 32.9263 53.8085 33.0686 53.6153 32.8754C53.5645 33.0686 53.3205 33.3126 53.1274 33.2617C52.9241 33.1601 52.8834 33.0178 52.9241 32.8754C52.6902 33.1601 52.3954 32.9771 52.3039 32.8754C52.2531 32.7738 52.3039 32.5298 52.4056 32.235" stroke="black" stroke-width="0.142322"/>
<path d="M57.5598 34.8171C57.4175 34.9188 57.265 34.8171 57.1227 34.9696C57.021 35.0713 57.1735 35.1119 57.265 35.1119C57.2243 35.2644 57.2243 35.3153 57.4683 35.3153C57.3667 35.4576 57.6615 35.5084 57.6106 35.7016C57.6719 35.6381 57.7139 35.5586 57.7319 35.4723C57.7499 35.3859 57.7431 35.2963 57.7123 35.2136C57.6615 35.0611 57.4073 34.9696 57.5598 34.8171Z" fill="black"/>
<path d="M53.1276 33.2618C52.9242 33.1601 52.8836 33.0178 52.9242 32.8755C52.8836 32.9771 52.7921 33.0178 52.6904 33.0178C52.4871 33.4549 52.2533 33.8514 51.9585 33.8514C51.6128 33.8921 51.6637 34.2377 51.9077 34.2377C52.4464 34.3394 52.6904 34.1361 53.1276 33.2618Z" fill="#073163"/>
<path d="M48.3089 32.0927C48.4513 31.9504 48.3496 31.7979 48.2581 31.7572C48.1056 31.7064 47.821 31.7572 47.6685 31.991C47.821 31.9504 47.9735 31.9504 48.0141 32.0419C48.065 32.1435 48.1564 32.2452 48.3089 32.0927Z" fill="#073163"/>
<path d="M48.5529 31.2184C48.8884 31.2184 48.9901 31.2692 49.0307 31.4116C49.0816 31.5132 48.9901 31.6555 48.8884 31.6555C48.7461 31.6555 48.5936 31.5539 48.6444 31.5132C48.6952 31.4116 48.6952 31.2692 48.5428 31.2083L48.5529 31.2184Z" fill="#073163"/>
<path d="M49.5187 31.991C49.7627 32.0419 49.8643 31.8894 49.722 31.7064C49.6712 31.5539 49.5187 31.4624 49.2747 31.5031C49.5187 31.6556 49.2747 31.8995 49.5187 31.991Z" fill="#073163"/>
<path d="M47.7193 32.8246C47.7631 32.9111 47.8363 32.9791 47.9257 33.0164C48.0152 33.0537 48.1151 33.0578 48.2073 33.0279C48.3496 32.9669 48.4106 32.8246 48.3496 32.723C48.2479 32.5806 48.1056 32.5298 48.065 32.723C47.9633 32.9263 47.821 32.8754 47.7193 32.8246Z" fill="#073163"/>
<path d="M48.4513 35.7931C48.3496 35.5999 48.0649 35.5999 47.821 35.7931C47.9226 35.7422 48.1056 35.7931 48.1564 35.8947C48.2073 35.9964 48.3089 35.9964 48.3598 35.9964C48.4004 35.9455 48.5021 35.8947 48.4513 35.7931Z" fill="#073163"/>
<path d="M48.8376 35.5084C48.8376 35.2644 48.5021 35.2034 48.3089 35.3051C48.4106 35.3051 48.5529 35.4068 48.5529 35.5084C48.5936 35.6101 48.6952 35.6507 48.7461 35.6507C48.8477 35.5999 48.8884 35.5491 48.8477 35.5084H48.8376Z" fill="#073163"/>
<path d="M48.3496 36.3827C48.0649 36.3319 47.9125 36.6775 47.9125 36.9114C47.9633 36.769 48.1158 36.6775 48.2581 36.7182C48.4004 36.7182 48.4513 36.6775 48.4513 36.5759C48.5021 36.4742 48.4513 36.4336 48.3496 36.3726V36.3827Z" fill="#073163"/>
<path d="M48.4004 37.2061C48.5021 37.2569 48.6037 37.1552 48.6444 37.0129C48.6444 36.9113 48.8477 36.9113 48.8884 36.9621C48.99 37.0129 48.99 37.2061 48.8376 37.3077C48.7359 37.3586 48.5021 37.4094 48.4004 37.2061Z" fill="#073163"/>
<path d="M55.1709 35.7422C55.0692 35.7016 54.8354 35.5999 54.6423 35.7422C54.7846 35.7016 54.8862 35.7931 54.9269 35.8947C54.9269 35.9964 55.0794 36.037 55.1302 35.9456C55.1709 35.8947 55.2319 35.7931 55.1709 35.7422Z" fill="#073163"/>
<path d="M54.7338 36.0879C54.5406 35.9863 54.2966 36.2302 54.2458 36.4336C54.3452 36.3525 54.4646 36.2998 54.5914 36.2811C54.6931 36.3319 54.7846 36.2811 54.7846 36.1794C54.8354 36.1388 54.8354 36.0879 54.7338 36.0879Z" fill="#073163"/>
<path d="M54.9879 36.4843C54.8354 36.4843 54.6423 36.6774 54.6423 36.8706C54.6829 36.7689 54.7846 36.7181 54.8862 36.7689C54.9879 36.7689 55.1302 36.7181 55.1302 36.6266C55.1302 36.525 55.0794 36.4741 54.9777 36.4741L54.9879 36.4843Z" fill="#073163"/>
<path d="M55.4149 36.8707C55.3132 36.8198 55.1709 36.8707 55.1709 37.013C55.1709 37.1553 55.1709 37.3078 55.1302 37.3586C55.2319 37.257 55.3234 37.2061 55.4149 37.1553C55.4657 37.1146 55.5165 36.9622 55.4149 36.8707Z" fill="#073163"/>
<path d="M60.9248 36.4336C60.8231 36.3319 60.6808 36.3827 60.63 36.4742C60.5791 36.5759 60.5283 36.8199 60.63 37.013C60.63 36.9114 60.7316 36.769 60.8333 36.769C60.9756 36.7182 61.0163 36.5251 60.9248 36.4336Z" fill="#073163"/>
<path d="M61.2196 36.6267C61.0163 36.7284 61.0163 37.0639 61.1688 37.257C61.1688 37.1553 61.2196 37.013 61.3111 36.9622C61.4636 36.9622 61.5144 36.769 61.4636 36.6776C61.3619 36.5759 61.2602 36.6267 61.2196 36.6267Z" fill="#073163"/>
<path d="M61.799 36.8199C61.6974 36.769 61.5957 36.8707 61.5957 36.9622C61.5551 37.1147 61.6567 37.3078 61.799 37.3993C61.799 37.2977 61.8499 37.2062 61.9007 37.1553C62.043 37.0537 62.0024 36.8707 61.799 36.8199Z" fill="#073163"/>
<path d="M62.2362 36.7689C62.1345 36.7689 62.043 36.9112 62.1345 37.0637C62.1853 37.1654 62.287 37.2061 62.4802 37.1654C62.4293 37.1654 62.3378 37.0129 62.3785 36.9621C62.4293 36.8604 62.3785 36.7689 62.2362 36.7689Z" fill="#073163"/>
<path d="M48.6951 45.8777L51.1349 38.3752L53.5747 45.8777L47.1804 41.2522H55.0894L48.6951 45.8777Z" fill="#F9D050"/>
<path d="M49.183 45.1965L54.2456 41.4961H48.0139L53.0257 45.1965L51.1348 39.2596L49.183 45.1965Z" fill="#024919"/>
<path d="M64.8182 30.5882V40.0831C64.8182 48.3174 60.9247 51.1436 55.7096 53.38C50.4945 51.1436 46.5603 48.3174 46.5603 40.0831V30.578H64.8182V30.5882Z" stroke="black" stroke-width="0.142322"/>
</g>
<defs>
<clipPath id="clip0_1_66678">
<rect width="74.6667" height="56" fill="white" transform="translate(0 9.375)"/>
</clipPath>
</defs>
</svg>
