<svg width="75" height="75" viewBox="0 0 75 75" fill="none" xmlns="http://www.w3.org/2000/svg">
<rect width="74.6667" height="74.75" fill="white"/>
<g clip-path="url(#clip0_1_66994)">
<path fill-rule="evenodd" clip-rule="evenodd" d="M0 9.375H74.6667V65.375H0V9.375Z" fill="#00ABC2"/>
<path fill-rule="evenodd" clip-rule="evenodd" d="M7.02339 63.8583C7.40839 64.2317 7.28006 64.85 8.34172 64.7683C9.95173 64.7683 9.99839 63.7883 9.99839 63.1C9.99839 62.4117 7.58339 61.455 7.46672 60.44C7.35006 59.425 8.02672 59.1567 8.58672 59.1567C9.13506 59.1567 9.52006 59.4717 9.52006 59.7517C9.52006 60.0317 9.26339 60.125 8.86672 60.125C8.47006 60.125 9.04172 59.9267 8.70339 59.775C8.36506 59.6233 8.14339 60.0083 8.14339 60.2417C8.14339 60.4983 8.98339 60.5683 9.54339 60.3933C9.66006 60.9417 9.70672 60.9767 8.92506 61.91C9.48506 61.5483 9.53172 61.4667 10.1501 61.6767C9.53172 61.14 9.99839 60.0667 10.0101 59.7983C10.0217 59.53 9.89339 59.2033 9.66006 59.04C9.20506 58.6317 8.23672 58.6083 7.65339 58.8767C6.80172 59.25 6.75506 60.37 6.97672 60.7433L9.33339 63.1233C9.49673 63.4033 9.56673 64.1967 8.56339 64.2317C7.51339 64.3133 7.14006 62.8783 6.95339 62.4C6.70839 62.925 6.42839 64.36 5.36672 64.2783C4.36339 64.2433 4.17672 63.4617 4.34006 63.17L6.75506 60.72C6.98839 60.3467 6.94173 59.2267 6.09006 58.8533C5.50672 58.585 4.53839 58.62 4.09506 59.0167C3.83839 59.18 3.69839 59.495 3.72172 59.775C3.74506 60.055 4.20006 61.1167 3.59339 61.6417C4.20006 61.4433 4.25839 61.525 4.81839 61.875C4.03672 60.9533 4.09506 60.9183 4.20006 60.3583C4.76006 60.545 5.60006 60.475 5.60006 60.23C5.60006 59.985 5.36672 59.5767 5.02839 59.74C4.70172 59.9033 5.26172 60.1017 4.86506 60.1017C4.48006 60.1017 4.20006 60.02 4.20006 59.7517C4.20006 59.4833 4.58506 59.1333 5.14506 59.1333C5.70506 59.1333 6.37006 59.4133 6.25339 60.4283C6.13672 61.4433 3.68672 62.54 3.68672 63.2283C3.68672 63.9283 3.85006 64.7567 5.46006 64.7567C6.51006 64.8383 6.63839 64.22 7.02339 63.8467V63.8583Z" fill="#FFEC2D"/>
<path fill-rule="evenodd" clip-rule="evenodd" d="M6.89506 49.4266C7.28006 49.0533 7.59506 47.9566 8.64506 48.0266C10.2551 48.0266 10.8617 48.925 10.8617 49.6133C10.8617 50.3016 7.59506 55.9133 7.4784 56.9283C7.36173 57.9433 8.0384 58.2233 8.58673 58.2233C9.14673 58.2233 9.53173 57.9083 9.53173 57.6166C9.53173 57.325 9.25173 57.2666 8.86673 57.2666C8.48173 57.2666 9.03006 57.465 8.7034 57.6166C8.37673 57.7683 8.1434 57.3833 8.1434 57.1383C8.1434 56.8933 8.9834 56.8116 9.5434 56.9983C9.6484 56.45 9.69506 56.415 8.92506 55.4816C9.48506 55.8316 9.53173 55.925 10.1501 55.715C9.53173 56.2516 9.98673 57.3133 10.0101 57.5816C10.0334 57.85 9.89339 58.1883 9.6484 58.3516C9.20506 58.76 8.22506 58.7716 7.64173 58.515C6.80173 58.13 6.75506 57.0216 6.97673 56.6483L10.1501 49.8116C10.3251 49.5316 9.88173 48.5983 8.8784 48.5633C7.8284 48.4816 7.46673 49.59 7.28006 50.0683L8.71506 49.9516C8.71506 49.9516 8.7734 50.185 8.71506 50.325C8.2336 50.3602 7.7545 50.4225 7.28006 50.5116L7.22173 51.235H7.92173L7.87506 51.5616C7.87506 51.5616 7.28006 51.515 7.22173 51.5616C7.1634 51.5966 7.10506 52.285 7.10506 52.285C7.10506 52.285 6.9884 52.3316 6.87173 52.3316C6.75506 52.3316 6.6384 52.285 6.6384 52.285C6.6384 52.285 6.59173 51.5966 6.5334 51.5616C6.47506 51.515 5.88006 51.5616 5.88006 51.5616L5.82173 51.235H6.5334L6.47506 50.5116C6.47506 50.5116 5.77506 50.3716 5.04006 50.325C4.9934 50.185 5.04006 49.9633 5.04006 49.9633L6.47506 50.0683C6.2884 49.59 5.92673 48.4816 4.87673 48.5516C3.8734 48.5983 3.43006 49.5316 3.5934 49.8116L6.76673 56.6483C6.9884 57.01 6.94173 58.13 6.10173 58.515C5.5184 58.7716 4.5384 58.7483 4.09506 58.3516C3.85006 58.1883 3.71006 57.8616 3.7334 57.5933C3.75673 57.325 4.20006 56.24 3.5934 55.7266C4.21173 55.925 4.27006 55.8433 4.8184 55.4816C4.0484 56.415 4.09506 56.45 4.21173 56.9983C4.76006 56.8116 5.60006 56.8816 5.60006 57.1383C5.60006 57.3716 5.36673 57.78 5.04006 57.6166C4.7134 57.4533 5.2734 57.2666 4.87673 57.2666C4.49173 57.2666 4.21173 57.3366 4.21173 57.6166C4.21173 57.8966 4.59673 58.2233 5.14506 58.2233C5.6934 58.2233 6.37006 57.9433 6.26506 56.94C6.1484 55.925 2.88173 50.29 2.88173 49.6133C2.88173 48.9133 3.4884 48.0383 5.0984 48.0383C6.1484 47.9566 6.5334 49.0533 6.90673 49.4266H6.89506Z" fill="#FFEC2D"/>
<path fill-rule="evenodd" clip-rule="evenodd" d="M6.89506 46.6383C7.28006 47.0116 7.59506 48.1083 8.64506 48.0383C10.2551 48.0383 10.8617 47.14 10.8617 46.4516C10.8617 45.7633 7.59506 40.1516 7.4784 39.1366C7.36173 38.1216 8.0384 37.8416 8.58673 37.8416C9.14673 37.8416 9.53173 38.1566 9.53173 38.4483C9.53173 38.74 9.25173 38.7983 8.86673 38.7983C8.48173 38.7983 9.03006 38.6116 8.7034 38.4483C8.37673 38.285 8.1434 38.6816 8.1434 38.9266C8.1434 39.1716 8.9834 39.2533 9.5434 39.0666C9.6484 39.615 9.69506 39.65 8.92506 40.5833C9.48506 40.2333 9.53173 40.14 10.1501 40.35C9.53173 39.8133 9.98673 38.7516 10.0101 38.4833C10.0334 38.215 9.89339 37.8766 9.6484 37.7133C9.20506 37.3166 8.22506 37.2933 7.64173 37.55C6.80173 37.935 6.75506 39.0433 6.97673 39.4166L10.1501 46.2416C10.3251 46.5216 9.88173 47.455 8.8784 47.49C7.8284 47.5716 7.46673 46.4633 7.28006 45.985L8.71506 46.1016C8.71506 46.1016 8.7734 45.8683 8.71506 45.7283C8.2336 45.6931 7.7545 45.6308 7.28006 45.5416L7.22173 44.8183H7.92173L7.87506 44.4916C7.87506 44.4916 7.28006 44.5383 7.22173 44.4916C7.1634 44.4566 7.10506 43.7683 7.10506 43.7683C7.10506 43.7683 6.9884 43.7216 6.87173 43.7216C6.75506 43.7216 6.6384 43.7683 6.6384 43.7683C6.6384 43.7683 6.59173 44.4566 6.5334 44.4916C6.47506 44.5383 5.88006 44.4916 5.88006 44.4916L5.82173 44.8183H6.5334L6.47506 45.5416C6.47506 45.5416 5.77506 45.6816 5.04006 45.7283C4.9934 45.8683 5.04006 46.09 5.04006 46.09L6.47506 45.985C6.2884 46.4633 5.92673 47.5716 4.87673 47.5016C3.8734 47.455 3.43006 46.5216 3.5934 46.2416L6.76673 39.4166C6.9884 39.0433 6.94173 37.935 6.10173 37.55C5.5184 37.2933 4.5384 37.3166 4.09506 37.7133C3.85006 37.8766 3.71006 38.2033 3.7334 38.4716C3.75673 38.74 4.20006 39.8133 3.5934 40.3383C4.21173 40.14 4.27006 40.2216 4.8184 40.5833C4.0484 39.65 4.09506 39.615 4.21173 39.0666C4.76006 39.2533 5.60006 39.1833 5.60006 38.9266C5.60006 38.6933 5.36673 38.285 5.04006 38.4483C4.7134 38.6116 5.2734 38.7983 4.87673 38.7983C4.49173 38.7983 4.21173 38.7283 4.21173 38.4483C4.21173 38.1683 4.59673 37.8416 5.14506 37.8416C5.6934 37.8416 6.37006 38.1216 6.26506 39.125C6.1484 40.14 2.88173 45.775 2.88173 46.4516C2.88173 47.1516 3.4884 48.0266 5.0984 48.0266C6.1484 48.1083 6.5334 47.0116 6.90673 46.6383H6.89506Z" fill="#FFEC2D"/>
<path fill-rule="evenodd" clip-rule="evenodd" d="M6.89506 28.1117C7.28006 27.7384 7.59506 26.6417 8.64506 26.7117C10.2551 26.7117 10.8617 27.61 10.8617 28.2984C10.8617 28.9867 7.59506 34.5984 7.4784 35.625C7.36173 36.6284 8.0384 36.9084 8.58673 36.9084C9.14673 36.9084 9.53173 36.5934 9.53173 36.3134C9.53173 36.0334 9.25173 35.94 8.86673 35.94C8.48173 35.94 9.03006 36.15 8.7034 36.3134C8.37673 36.4767 8.1434 36.0684 8.1434 35.8234C8.1434 35.59 8.9834 35.4967 9.5434 35.6834C9.6484 35.135 9.69506 35.1 8.92506 34.1667C9.48506 34.5284 9.53173 34.61 10.1501 34.4C9.53173 34.9367 9.98673 36.01 10.0101 36.2667C10.0334 36.5234 9.89339 36.8734 9.6484 37.0367C9.20506 37.445 8.22506 37.4567 7.64173 37.2C6.80173 36.815 6.75506 35.7067 6.97673 35.3334L10.1501 28.5084C10.3251 28.2284 9.88173 27.295 8.8784 27.26C7.8284 27.1784 7.46673 28.2867 7.28006 28.765L8.71506 28.6484C8.71506 28.6484 8.7734 28.8817 8.71506 29.0217C7.9684 29.0684 7.28006 29.2084 7.28006 29.2084L7.22173 29.9317H7.92173L7.87506 30.2584C7.87506 30.2584 7.28006 30.2234 7.22173 30.2584C7.1634 30.2934 7.10506 30.9934 7.10506 30.9934C7.10506 30.9934 6.9884 31.0284 6.87173 31.0284C6.75506 31.0284 6.6384 30.9934 6.6384 30.9934C6.6384 30.9934 6.59173 30.2934 6.5334 30.2584C6.47506 30.2234 5.88006 30.2584 5.88006 30.2584L5.82173 29.9317H6.5334L6.47506 29.2084C6.47506 29.2084 5.77506 29.0684 5.04006 29.0217C4.9934 28.8817 5.04006 28.66 5.04006 28.66L6.47506 28.765C6.2884 28.2867 5.92673 27.1784 4.87673 27.2484C3.8734 27.295 3.43006 28.2284 3.5934 28.5084L6.76673 35.3334C6.9884 35.7067 6.94173 36.815 6.10173 37.2C5.5184 37.4567 4.5384 37.4334 4.09506 37.0367C3.85006 36.8734 3.71006 36.5467 3.7334 36.2784C3.75673 36.01 4.20006 34.9367 3.5934 34.4117C4.21173 34.61 4.27006 34.5284 4.8184 34.1667C4.0484 35.1 4.09506 35.135 4.21173 35.6834C4.76006 35.4967 5.60006 35.5784 5.60006 35.8234C5.60006 36.0567 5.36673 36.465 5.04006 36.3017C4.7134 36.15 5.2734 35.9517 4.87673 35.9517C4.49173 35.9517 4.21173 36.0217 4.21173 36.3017C4.21173 36.5817 4.59673 36.9084 5.14506 36.9084C5.6934 36.9084 6.37006 36.6284 6.26506 35.625C6.1484 34.61 2.88173 28.9867 2.88173 28.2984C2.88173 27.61 3.4884 26.7234 5.0984 26.7234C6.1484 26.6417 6.5334 27.7384 6.90673 28.1234L6.89506 28.1117Z" fill="#FFEC2D"/>
<path fill-rule="evenodd" clip-rule="evenodd" d="M6.89506 25.3233C7.28006 25.6967 7.59506 26.805 8.64506 26.7234C10.2551 26.7234 10.8617 25.825 10.8617 25.1367C10.8617 24.4484 7.59506 18.8367 7.4784 17.8217C7.36173 16.8067 8.0384 16.5267 8.58673 16.5267C9.14673 16.5267 9.53173 16.8534 9.53173 17.1334C9.53173 17.4134 9.25173 17.495 8.86673 17.495C8.48173 17.495 9.03006 17.2967 8.7034 17.1334C8.37673 16.97 8.1434 17.3667 8.1434 17.6117C8.1434 17.8567 8.9834 17.9384 9.5434 17.7517C9.6484 18.3 9.69506 18.335 8.92506 19.2684C9.48506 18.9184 9.53173 18.825 10.1501 19.035C9.53173 18.51 9.98673 17.4367 10.0101 17.1684C10.0334 16.9 9.89339 16.5617 9.6484 16.3984C9.20506 16.0017 8.22506 15.9784 7.64173 16.2467C6.80173 16.62 6.75506 17.74 6.97673 18.1017L10.1501 24.9383C10.3251 25.2184 9.88173 26.1517 8.8784 26.1983C7.8284 26.2684 7.46673 25.1717 7.28006 24.6817L8.71506 24.7984C8.71506 24.7984 8.7734 24.565 8.71506 24.425C8.23385 24.3933 7.75478 24.3349 7.28006 24.25L7.22173 23.515H7.92173L7.87506 23.1884C7.87506 23.1884 7.28006 23.235 7.22173 23.1884C7.1634 23.1534 7.10506 22.465 7.10506 22.465C7.10506 22.465 6.9884 22.4184 6.87173 22.4184C6.75506 22.4184 6.6384 22.465 6.6384 22.465C6.6384 22.465 6.59173 23.1534 6.5334 23.1884C6.47506 23.235 5.88006 23.1884 5.88006 23.1884L5.82173 23.515H6.5334L6.47506 24.25C6.47506 24.25 5.77506 24.3784 5.04006 24.425C4.9934 24.5767 5.04006 24.7984 5.04006 24.7984L6.47506 24.6817C6.2884 25.1717 5.92673 26.2684 4.87673 26.1983C3.8734 26.1517 3.43006 25.2184 3.5934 24.9383L6.76673 18.1017C6.9884 17.74 6.94173 16.62 6.10173 16.235C5.5184 15.9784 4.5384 16.0017 4.09506 16.3984C3.85006 16.5617 3.71006 16.8884 3.7334 17.1567C3.75673 17.425 4.20006 18.51 3.5934 19.0234C4.21173 18.825 4.27006 18.9067 4.8184 19.2684C4.0484 18.335 4.09506 18.3 4.21173 17.7517C4.77173 17.9384 5.60006 17.8684 5.60006 17.6117C5.60006 17.3784 5.36673 16.97 5.04006 17.1334C4.7134 17.2967 5.2734 17.495 4.87673 17.495C4.49173 17.495 4.21173 17.4134 4.21173 17.1334C4.21173 16.8534 4.59673 16.5267 5.14506 16.5267C5.6934 16.5267 6.38173 16.8067 6.26506 17.81C6.1484 18.825 2.88173 24.46 2.88173 25.1367C2.88173 25.8367 3.4884 26.7234 5.0984 26.7234C6.1484 26.805 6.5334 25.6967 6.90673 25.3233H6.89506Z" fill="#FFEC2D"/>
<path fill-rule="evenodd" clip-rule="evenodd" d="M7.02339 10.8917C7.40839 10.5184 7.28006 9.90004 8.34172 9.98171C9.95173 9.98171 9.99839 10.9617 9.99839 11.65C9.99839 12.3384 7.58339 13.295 7.46672 14.31C7.35006 15.325 8.02672 15.5934 8.58672 15.5934C9.13506 15.5934 9.52006 15.2784 9.52006 14.9984C9.52006 14.7184 9.26339 14.625 8.86672 14.625C8.47006 14.625 9.04172 14.8234 8.70339 14.975C8.36506 15.1267 8.14339 14.7417 8.14339 14.5084C8.14339 14.2517 8.98339 14.17 9.54339 14.3567C9.66006 13.8084 9.70672 13.7734 8.92506 12.84C9.48506 13.2017 9.53172 13.2834 10.1501 13.0734C9.53172 13.61 9.99839 14.6834 10.0101 14.9517C10.0217 15.22 9.89339 15.5467 9.66006 15.71C9.19339 16.1417 8.22506 16.1417 7.64173 15.885C6.79006 15.5117 6.74339 14.3917 6.96506 14.0184L9.33339 11.6267C9.49673 11.3467 9.56673 10.5534 8.56339 10.5184C7.51339 10.4367 7.14006 11.8717 6.95339 12.35C6.70839 11.825 6.42839 10.3784 5.36672 10.46C4.36339 10.495 4.17672 11.2767 4.34006 11.5684L6.75506 14.0184C6.98839 14.3917 6.94173 15.5117 6.09006 15.885C5.50672 16.1534 4.53839 16.13 4.09506 15.7217C3.83839 15.5584 3.69839 15.2434 3.72172 14.9634C3.74506 14.6834 4.20006 13.6217 3.59339 13.0967C4.20006 13.295 4.25839 13.2134 4.80672 12.8634C4.03672 13.785 4.09506 13.82 4.20006 14.38C4.76006 14.1934 5.60006 14.2634 5.60006 14.5084C5.60006 14.7534 5.36672 15.1617 5.02839 14.9984C4.70172 14.835 5.26172 14.6367 4.86506 14.6367C4.48006 14.6367 4.20006 14.7184 4.20006 14.9867C4.20006 15.255 4.58506 15.605 5.14506 15.605C5.70506 15.605 6.37006 15.325 6.25339 14.31C6.13672 13.295 3.68672 12.1984 3.68672 11.51C3.68672 10.81 3.85006 9.98171 5.46006 9.98171C6.51006 9.90004 6.63839 10.5184 7.02339 10.8917Z" fill="#FFEC2D"/>
<path d="M51.5104 33.3979C51.5104 27.8516 46.7662 23.3555 40.9139 23.3555C35.0616 23.3555 30.3174 27.8516 30.3174 33.3979C30.3174 38.9441 35.0616 43.4403 40.9139 43.4403C46.7662 43.4403 51.5104 38.9441 51.5104 33.3979Z" fill="#FFEC2D"/>
<path fill-rule="evenodd" clip-rule="evenodd" d="M40.4158 17.3662C40.3162 17.3662 39.843 20.7033 39.6687 21.4504C39.4944 23.1314 41.91 23.0692 41.5116 21.3882L40.4158 17.3538V17.3662ZM41.2626 49.7161C41.3497 49.7161 42.0719 46.4163 42.3085 45.6817C42.5949 44.0256 40.1792 43.9384 40.4407 45.6319L41.2626 49.7161ZM24.3779 33.3295C24.3779 33.4166 27.8519 34.1139 28.6239 34.3381C30.3672 34.6245 30.4917 32.3458 28.6987 32.5948L24.3779 33.3419V33.3295ZM58.2095 33.7279C58.2095 33.6408 54.6981 33.068 53.9136 32.8687C52.1579 32.6571 52.1455 34.9357 53.9136 34.6245L58.2095 33.7279ZM27.9391 22.7454C27.8768 22.8077 30.168 25.3976 30.6287 26.0327C31.8241 27.2779 33.4054 25.5346 31.8241 24.6879L27.9391 22.7579V22.7454ZM54.2249 44.038C54.2872 43.9758 51.7719 41.585 51.2489 40.9998C49.9415 39.8542 48.5344 41.7095 50.1781 42.4318L54.2249 44.0505V44.038ZM33.1813 19.1344C33.1066 19.1717 34.1775 22.3843 34.3518 23.1439C34.9495 24.7252 37.1161 23.6917 35.9954 22.3345L33.1938 19.1344H33.1813ZM48.5095 48.0724C48.5967 48.0351 47.7624 44.7602 47.6503 44.0007C47.1647 42.3819 44.9358 43.2536 45.9444 44.698L48.522 48.06L48.5095 48.0724ZM52.2824 21.3757C52.2077 21.3134 49.4434 23.4427 48.771 23.8661C47.4387 24.9867 49.2442 26.5059 50.1656 25.0241L52.2824 21.3757ZM29.4956 45.4949C29.5578 45.5572 32.484 43.6271 33.1813 43.2411C34.5884 42.2201 32.9074 40.5764 31.8739 41.9959L29.508 45.4949H29.4956ZM25.1374 27.5518C25.1001 27.6265 28.1259 29.3822 28.7858 29.8429C30.3423 30.6523 31.2513 28.5355 29.4707 28.1993L25.1374 27.5518ZM56.7277 39.8044C56.7651 39.7297 53.8638 37.7748 53.2412 37.2767C51.747 36.3553 50.6886 38.4098 52.4443 38.8581L56.7277 39.8044ZM46.6916 18.2752C46.6044 18.2503 44.8736 21.1889 44.4129 21.824C44.4137 22.0268 44.478 22.2242 44.5968 22.3886C44.7155 22.553 44.8827 22.6761 45.075 22.7406C45.2672 22.8052 45.4749 22.8079 45.6688 22.7485C45.8627 22.689 46.0331 22.5704 46.1561 22.4092L46.6916 18.2752ZM34.9993 48.695C35.0864 48.7324 37.0289 45.9058 37.527 45.2957C38.436 43.8513 36.232 42.9298 35.8211 44.5984L34.9993 48.695ZM25.3491 40.0659C25.3865 40.1406 28.8356 39.3188 29.645 39.1943C31.3384 38.7211 30.3921 36.6292 28.8979 37.6004L25.3491 40.0659ZM56.7402 27.2779C56.7153 27.2032 53.2163 27.7884 52.4069 27.8631C50.6637 28.2242 51.4731 30.3784 53.0295 29.5067L56.7402 27.2779Z" fill="#FFEC2D"/>
<path fill-rule="evenodd" clip-rule="evenodd" d="M43.8525 17.5779C43.7654 17.5654 42.5949 20.7406 42.2462 21.4379C41.7357 23.0567 44.114 23.4551 44.0767 21.7368L43.865 17.5654L43.8525 17.5779ZM37.8134 49.4421C37.9006 49.467 39.3076 46.3665 39.7061 45.6817C40.3287 44.1127 37.9877 43.5649 37.9006 45.2708L37.8009 49.4421H37.8134ZM36.6056 17.8892C36.5184 17.9141 36.8421 21.2761 36.8421 22.0481C37.0787 23.7042 39.4072 23.1314 38.6352 21.5874L36.6056 17.8892ZM45.0728 49.2553C45.16 49.2429 45.0728 45.8684 45.1351 45.0964C45.023 43.4154 42.6447 43.8388 43.3171 45.4326L45.0604 49.2553H45.0728ZM30.6038 20.6784C30.5291 20.7282 32.1852 23.7042 32.4965 24.4139C33.393 25.8708 35.323 24.5011 33.9658 23.3431L30.6038 20.6784ZM51.1244 46.5657C51.1991 46.5159 49.7547 43.4279 49.5057 42.7057C48.7212 41.199 46.704 42.4442 47.9616 43.6769L51.1244 46.5657ZM26.2207 24.8622C26.1709 24.9369 28.8481 27.1533 29.4084 27.7261C30.7906 28.7721 32.0731 26.8296 30.3796 26.2195L26.2207 24.8622ZM55.3829 42.2574C55.4327 42.1827 52.9299 39.792 52.4069 39.1943C51.1119 38.0611 49.6924 39.9165 51.3361 40.6387L55.3829 42.2574ZM24.3032 30.0795C24.2782 30.1667 27.578 31.4243 28.3002 31.7854C29.9687 32.3458 30.5042 30.1169 28.6862 30.0671L24.3032 30.0795ZM57.5994 37.2767C57.6367 37.202 54.4366 35.7327 53.7393 35.3217C52.1205 34.6493 51.4108 36.8409 53.2163 37.0152L57.5994 37.2767ZM24.1911 36.4922C24.2035 36.5669 27.7648 36.5171 28.5741 36.5794C30.3423 36.4922 29.9189 34.2384 28.2255 34.8486L24.1911 36.4922ZM57.8359 30.8889C57.8359 30.8017 54.2747 30.615 53.4778 30.5029C51.6972 30.478 51.9587 32.7567 53.6895 32.2461L57.8359 30.8764V30.8889ZM27.2418 43.1415C27.2916 43.2162 30.4793 41.6971 31.2264 41.4107C32.7704 40.6013 31.3509 38.746 30.1182 40.0036L27.2418 43.1415ZM54.9222 24.1774C54.8724 24.1026 51.5976 25.4101 50.8131 25.6467C49.2068 26.3564 50.4894 28.2989 51.8093 27.1284L54.9222 24.1774ZM32.4217 47.5494C32.4965 47.5868 34.7751 44.9968 35.3479 44.4489C36.4312 43.1166 34.3518 41.9586 33.7416 43.5773L32.4217 47.5494ZM49.817 19.6822C49.7547 19.6324 47.2892 22.0605 46.6791 22.5711C45.5086 23.8287 47.5009 25.1237 48.2231 23.5548L49.8045 19.6822H49.817Z" fill="#FFEC2D"/>
<path fill-rule="evenodd" clip-rule="evenodd" d="M24.7119 40.0774C24.9021 40.7196 24.9293 44.3157 28.7609 47.7835C32.5654 51.2255 39.0874 51.9961 39.0874 51.9961C39.0874 51.9961 39.1145 52.4842 38.6526 52.5098C38.1906 52.5612 35.9623 52.1245 34.8481 51.7906C33.7611 51.4824 32.7828 50.9173 32.6741 50.943C32.5382 50.9943 32.3208 51.3539 31.9947 51.3026C31.6686 51.2512 30.0925 49.71 29.3859 49.299C27.9727 48.1444 26.7216 46.8236 25.663 45.3689C24.9021 44.213 24.7119 43.4424 24.4673 43.4424C24.2227 43.4424 23.3259 44.0075 23.3259 44.0075C23.3259 44.0075 22.5107 42.8516 21.8041 41.0021C21.0704 39.1527 21.1519 38.0738 21.315 37.9968C21.5052 37.9197 21.5052 39.3582 22.0487 40.6682C22.5922 42.0039 23.3531 42.4149 23.3531 42.4149C23.3531 42.4149 22.864 41.7214 22.4835 40.0003C22.1031 38.2793 21.94 36.6097 22.2118 36.0959C22.4835 35.5822 22.7281 35.4281 22.7553 35.4538C22.8096 35.5051 22.2933 36.2501 22.6466 38.2279C22.9998 40.2058 23.951 41.8755 24.1684 41.7984C24.3858 41.7214 24.0325 41.3104 23.8966 40.1545C23.7607 38.9985 24.0325 38.2793 24.3314 38.1766C24.4673 38.0738 24.6847 39.4609 24.7119 40.0774ZM22.0487 43.3653C21.315 42.7232 20.1736 40.4884 19.9291 40.5911C19.6573 40.7196 21.777 43.9304 21.8313 44.1873C21.8857 44.4955 22.3476 45.3689 21.9944 45.2405C21.6411 45.112 19.1138 42.5947 19.4128 43.0828C19.7117 43.5708 21.6139 45.7799 21.5052 45.9083C21.3965 46.0368 19.9291 44.6754 19.8747 44.8552C19.8475 45.0093 21.315 46.345 21.2878 46.4991C21.2606 46.6532 20.3367 45.6515 20.3367 45.8569C20.3367 46.0624 21.2878 47.0642 21.2878 47.2184C21.2878 47.3725 20.4726 46.4991 20.7443 46.9615C20.9889 47.4752 21.6954 47.9119 21.6683 48.066C21.6411 48.2201 21.0704 47.8605 21.0704 47.9376C21.0704 48.0146 22.1302 48.3743 22.3748 48.6568C22.6466 48.9394 24.3858 50.8402 25.6902 51.7906C26.9945 52.741 30.7447 54.4107 31.0164 54.4107C31.261 54.4107 31.6414 53.8969 31.5599 53.6914C31.4784 53.486 27.8098 52.3044 26.8043 51.431C25.7717 50.5576 23.2716 48.4513 23.0542 48.3486C22.864 48.2201 22.2933 48.2715 22.2933 48.1431C22.2933 48.0146 23.027 48.2201 22.9727 48.1431C22.9455 48.066 21.9672 47.655 21.9944 47.578C22.0487 47.5009 22.6737 47.7321 22.6737 47.655C22.6737 47.578 21.5324 46.9872 21.5867 46.8587C21.6139 46.7303 22.4292 47.2183 22.4292 47.1156C22.4292 47.0642 21.3422 46.345 21.3693 46.2166C21.3965 46.0881 22.2118 46.7817 22.1846 46.6276C22.1574 46.4734 21.5324 45.6001 21.5324 45.4973C21.5324 45.3689 22.5107 46.3707 22.6194 46.1652C22.6737 45.9854 22.2661 44.3157 22.2933 44.29C22.3205 44.2644 23.027 44.6497 23.1357 44.4185C23.2716 44.1616 22.6466 43.8277 22.0487 43.3653ZM34.5763 56.0033C34.06 56.0803 33.8154 55.9005 34.1144 55.4895C34.522 55.4895 35.609 55.1556 35.9894 55.0015C36.3699 54.8474 36.7775 54.6419 37.1036 54.3593C37.4297 54.0254 37.6471 54.5391 37.4569 54.8217C37.321 55.0015 36.696 55.3354 36.234 55.5152C35.5546 55.7207 34.9568 56.029 34.5763 56.0033ZM37.9732 54.6932C37.6199 54.3336 37.9188 54.0767 38.4352 53.7942C39.1961 53.4089 38.9787 52.8695 39.957 52.4328C40.3918 52.1759 46.4789 49.8641 48.4627 48.6311C50.4465 47.3982 56.0173 43.4167 57.5119 40.6682C58.9794 37.9454 58.2728 37.7399 58.4902 37.6371C58.6805 37.5087 58.8979 38.0224 58.8707 38.6389C58.8163 39.2297 58.3272 41.0278 58.4902 41.2076C58.6533 41.3874 60.7186 39.7948 61.5882 37.8683C62.4578 35.9418 63.11 33.9382 63.5176 33.9382C63.9524 33.9382 62.811 37.2262 62.0773 38.5105C61.3708 39.7948 60.5284 40.437 60.7186 40.7196C60.936 40.9764 63.0556 39.3068 63.7893 38.0738C64.4959 36.8152 65.1753 35.7106 65.3111 35.9418C65.0949 37.4465 64.4674 38.8719 63.4904 40.0774C62.3491 41.3104 60.9903 42.2094 61.2077 42.3892C61.3979 42.5947 62.9469 42.8002 64.5502 41.7727C66.1807 40.7196 66.3438 39.204 66.534 39.2811C66.7514 39.3582 66.3438 41.4388 64.7948 42.7232C63.2458 44.0075 61.2077 44.1359 61.2621 44.4185C61.3708 44.6753 65.6916 43.2369 65.6101 43.5708C65.5285 43.8791 60.012 45.934 59.9577 46.1395C59.9577 46.2936 60.9088 46.345 62.4034 46.0111C63.8709 45.7028 65.284 44.5983 65.4742 44.8552C65.5285 45.2148 64.4144 46.0881 62.7295 46.4991C61.0175 46.9101 60.1751 47.4495 60.1207 47.578C60.0935 47.7064 63.1643 47.2183 63.1643 47.3725C63.1643 47.5266 59.1424 48.2715 59.1153 48.477C59.0609 48.6568 62.9197 47.7321 62.8654 47.9633C62.7567 48.1431 57.6206 49.5815 57.675 49.6586C57.7022 49.7614 61.9686 48.7853 61.8871 48.9394C61.7784 49.1192 54.7129 50.9943 54.6586 51.1228C54.6042 51.2255 60.9088 49.787 60.8545 49.9155C60.8001 50.0439 57.5935 50.7888 57.5935 50.8659C57.5935 50.9429 60.1751 50.4806 60.1207 50.609C60.0935 50.7118 53.5988 52.2787 53.4629 52.5098C53.327 52.7667 56.8326 51.8677 56.7782 52.33C56.7239 52.7924 49.2508 55.1556 49.2236 54.7189C49.1692 54.2822 53.7618 53.1777 53.7346 53.0493C53.6803 52.9208 51.0987 53.3061 51.0443 53.075C51.0171 52.8181 52.7563 52.3044 52.6205 52.2016C52.4846 52.0732 51.1802 52.5612 51.2889 52.2787C51.4248 51.9961 53.8977 50.9173 53.8433 50.8402C53.8162 50.7631 52.9466 51.0971 53.0281 50.8402C53.1368 50.5576 58.3815 49.1192 58.3 48.9394C58.2185 48.7853 55.8814 49.299 55.664 49.3504C55.5825 49.1962 58.925 48.0146 58.8707 47.8092C58.762 47.6293 57.0771 48.5027 56.9684 48.2715C56.9141 48.0146 59.9305 46.9101 59.7403 46.7303C59.5501 46.5505 58.1913 47.1927 58.0011 47.0129C57.8109 46.833 60.8544 44.8552 60.3925 44.8038C59.9305 44.7781 59.3598 45.4203 59.3055 45.0093C59.3598 44.4955 61.6697 43.6479 61.1534 43.2369C60.3381 43.0057 57.5935 43.4167 56.4521 44.0589C55.3108 44.701 51.5063 48.2715 50.5823 48.8366C49.6584 49.3761 46.5061 50.6347 45.9083 50.8916C44.9843 51.1998 44.8213 51.6622 43.8701 52.1245C42.1581 52.5612 42.1853 53.0493 41.3701 53.3318C41.0711 53.4089 38.0004 54.796 37.9732 54.6932ZM33.6796 56.4913C33.1632 56.7482 32.7013 57.3647 33.0002 57.6215C33.1632 57.9298 33.6796 56.928 34.0872 56.9794L36.2612 57.0821C37.4297 57.1592 38.0004 56.8509 38.6526 56.9023C39.3048 56.9537 40.745 56.5684 41.4244 56.5684C42.1038 56.5684 42.2397 56.6454 42.294 56.3629C42.3755 56.106 40.1744 56.2858 39.1961 56.2601C38.2178 56.2088 36.9949 56.4399 36.2612 56.4399C35.5818 56.4143 34.4133 56.2088 33.6796 56.4913Z" fill="#FFEC2D"/>
<path d="M36.9406 56.1832C36.9406 55.9704 36.7337 55.7979 36.4786 55.7979C36.2235 55.7979 36.0166 55.9704 36.0166 56.1832C36.0166 56.396 36.2235 56.5685 36.4786 56.5685C36.7337 56.5685 36.9406 56.396 36.9406 56.1832Z" fill="#FFEC2D"/>
<path fill-rule="evenodd" clip-rule="evenodd" d="M47.7834 55.4382C48.2453 55.3612 49.4954 55.7722 50.365 55.952C51.9411 56.5428 54.876 56.2602 54.876 56.5428C54.876 56.8253 54.6858 57.1592 54.0064 57.2106C53.327 57.262 51.615 56.9538 51.6694 56.9538C51.7237 56.9538 53.0281 57.5445 52.6477 57.6987C52.2672 57.8528 51.153 57.3647 50.9628 57.4932C50.7726 57.6216 51.9955 57.8528 51.7781 57.9298C51.615 58.0069 50.7726 57.8271 50.5008 57.8528C50.2291 57.9042 50.7182 58.1867 50.3921 58.2895C50.066 58.4179 49.5226 58.1353 49.3052 58.2124C49.0606 58.2895 49.7943 58.7261 49.4682 58.7775C49.1421 58.8289 48.3812 58.572 47.9464 58.5207C47.5116 58.5207 48.354 58.9316 48.0823 58.983C47.8105 59.0087 47.0496 58.6491 46.8594 58.6491C46.6692 58.6491 46.8594 59.1628 46.5877 59.1628C46.3159 59.1628 45.9898 58.7261 45.8268 58.7261C45.6637 58.7261 45.8268 59.2399 45.555 59.2399C45.2833 59.2399 45.1746 58.7005 44.9572 58.7261C44.6854 58.7775 44.9572 59.4197 44.5767 59.3683C44.2235 59.3426 44.1691 58.7005 43.8702 58.7261C43.5984 58.7775 43.9245 59.3683 43.6528 59.3683C43.381 59.3683 43.3267 58.7775 43.0549 58.7261C42.7832 58.7005 42.8919 59.2913 42.7288 59.2913C42.5658 59.2913 42.4027 58.7261 42.294 58.7261C42.2125 58.7261 42.294 59.2913 41.9679 59.2399C41.6418 59.1885 41.6418 58.6234 41.5603 58.6491C41.4516 58.7005 41.4516 59.1114 41.2342 59.1114C41.0168 59.1114 40.9896 58.7005 40.9081 58.7518C40.7994 58.7775 40.4733 59.2913 40.2559 59.2142C40.0113 59.1371 40.3103 58.7261 40.2016 58.7261C40.0929 58.7261 39.8211 59.0087 39.6581 58.983C39.495 58.9573 39.6581 58.6234 39.6037 58.6234C39.5494 58.6234 39.1417 58.8289 38.9515 58.8289C38.7613 58.8289 38.245 59.0858 38.1091 58.8546C37.9732 58.5977 38.4624 58.5977 38.5711 58.3665C38.6526 58.1353 38.2993 57.4418 38.6798 57.2106C39.033 56.9538 40.2016 57.5445 41.9408 57.1336C45.093 56.3373 47.5388 55.4125 47.7834 55.4382Z" fill="#FFEC2D"/>
</g>
<defs>
<clipPath id="clip0_1_66994">
<rect width="74.6667" height="56" fill="white" transform="translate(0 9.375)"/>
</clipPath>
</defs>
</svg>
