<svg width="75" height="75" viewBox="0 0 75 75" fill="none" xmlns="http://www.w3.org/2000/svg">
<rect width="74.6667" height="74.75" fill="white"/>
<g clip-path="url(#clip0_1_66714)">
<path fill-rule="evenodd" clip-rule="evenodd" d="M-4.66675 9.375H79.3333V65.375H-4.66675V9.375Z" fill="#CE1126"/>
<path fill-rule="evenodd" clip-rule="evenodd" d="M-4.66675 23.2933H79.3333V51.4567H-4.66675V23.2933Z" fill="#002868"/>
<path fill-rule="evenodd" clip-rule="evenodd" d="M49.3966 37.375C49.3966 40.5744 48.1256 43.6427 45.8633 45.905C43.601 48.1674 40.5327 49.4383 37.3333 49.4383C34.1339 49.4383 31.0655 48.1674 28.8032 45.905C26.5409 43.6427 25.2699 40.5744 25.2699 37.375C25.2699 34.1756 26.5409 31.1072 28.8032 28.8449C31.0655 26.5826 34.1339 25.3116 37.3333 25.3116C40.5327 25.3116 43.601 26.5826 45.8633 28.8449C48.1256 31.1072 49.3966 34.1756 49.3966 37.375Z" fill="white"/>
</g>
<defs>
<clipPath id="clip0_1_66714">
<rect width="74.6667" height="56" fill="white" transform="translate(0 9.375)"/>
</clipPath>
</defs>
</svg>
