<svg width="75" height="75" viewBox="0 0 75 75" fill="none" xmlns="http://www.w3.org/2000/svg">
<rect width="74.6667" height="74.75" fill="white"/>
<g clip-path="url(#clip0_1_67001)">
<path fill-rule="evenodd" clip-rule="evenodd" d="M-4.66659 51.375H79.3334V65.375H-4.66659V51.375ZM-4.66659 9.375H79.3334V23.375H-4.66659V9.375Z" fill="#EE161F"/>
<path fill-rule="evenodd" clip-rule="evenodd" d="M-4.66667 23.375H79.3333V51.375H-4.66667V23.375Z" fill="white"/>
<path d="M36.9068 23.5937C36.0537 25.289 35.4849 25.289 34.063 26.4375C33.4943 26.9953 32.6412 27.2796 33.7787 27.8593C32.6302 28.4171 32.0615 28.7015 31.4927 29.839L31.7771 30.1234C31.7771 30.1234 32.8708 29.5984 32.9146 29.839C33.1115 30.0687 31.4927 30.9328 31.2849 31.075L30.0818 31.8406C28.649 32.9671 27.7849 32.6828 26.9427 34.389L29.7865 34.1046C30.3552 36.0953 28.3646 36.3796 26.9427 37.2328L24.6568 38.6546C25.2365 40.6453 26.9427 39.5078 28.3646 38.939L28.649 39.2234V39.7921L25.8052 41.214C25.8052 41.214 22.4365 43.139 22.3818 43.2046C22.3599 43.314 22.3818 43.7734 22.3818 43.7734C23.5193 44.0578 25.2255 44.3421 26.374 43.7734C27.7958 43.2046 28.0802 42.6359 29.7865 42.6359C28.1442 43.9173 26.1719 44.7062 24.099 44.9109V46.0484C25.8052 46.0484 26.9427 46.0484 28.3646 45.764L32.0615 44.6265C32.9146 44.6265 33.7787 45.4796 33.4833 46.3328C32.6412 49.4609 29.2177 48.8921 28.0802 51.4515L32.6302 49.7343C33.7677 49.1656 34.9052 48.6078 36.3271 48.8921C38.0333 49.4609 38.0333 50.5984 40.3083 51.1671L39.7396 49.7453C40.3083 50.0296 40.8771 50.0296 41.4568 50.314C42.8787 50.8828 43.163 51.4515 44.8693 51.1671C43.4474 49.4609 43.163 49.7453 42.0255 48.6078C40.888 46.9015 40.3083 44.3421 42.0255 44.0578L44.0162 44.6265C46.0068 44.9109 46.0068 44.3421 48.8505 45.4796C50.5677 46.0484 51.1365 46.9015 53.1161 46.3328C52.274 44.3421 49.1458 42.9203 47.1443 42.3515C49.4302 40.9296 48.8505 42.9203 51.9896 42.0671V41.4984C49.7255 39.7812 48.8615 38.3593 45.7333 38.3593L50.5787 37.7906V37.2218C50.5787 37.2218 45.799 35.975 45.6896 35.9203C45.7224 35.7781 45.8427 35.5593 46.1599 35.4281C47.0677 36.0187 49.8021 35.9531 49.9662 35.9421C49.8787 35.2421 48.5771 34.6625 47.4505 34.0937C47.4505 34.0937 42.5615 31.0859 42.5396 30.8234C42.638 30.0578 44.5412 30.9437 46.5865 31.5343C46.0177 30.3968 44.8802 29.8281 43.7427 29.5437L45.449 29.2593C44.3115 26.7 41.4677 26.9843 39.7615 25.8468C38.613 24.9937 38.613 24.425 36.9068 23.5828V23.5937Z" fill="#00A850"/>
<path fill-rule="evenodd" clip-rule="evenodd" d="M33.8333 42.5156C34.0411 41.8484 34.3146 41.2468 33.0458 40.6671C31.7771 40.0874 33.6802 42.9749 33.8333 42.5265V42.5156ZM35.3318 41.1702C35.0802 41.2031 34.938 42.1327 35.4521 42.3952C36.0208 42.4827 35.5615 41.1812 35.3318 41.1702ZM36.8083 41.0609C36.5458 41.1484 36.5349 42.4609 37.4646 42.2202C38.4052 41.9906 37.4646 40.9624 36.8083 41.0718V41.0609ZM38.5365 37.7031C38.7333 37.3749 38.5255 36.0624 37.7271 36.6093C36.9177 37.1671 38.274 37.7906 38.5365 37.7031ZM36.7865 36.6093C37.038 36.5109 37.0599 35.7015 36.349 35.9202C35.6599 36.1281 36.6005 36.7734 36.7865 36.6093ZM35.2115 36.9265C35.2115 36.9265 34.7193 36.2484 34.3365 36.3906C33.8661 36.8499 35.2443 36.9374 35.2115 36.9265ZM29.7865 39.0921C29.9943 39.114 31.5365 38.8406 32.0724 38.239C32.6083 37.6374 29.3271 38.4906 29.3271 38.5015C29.3271 38.5124 29.6333 39.0374 29.7865 39.0921ZM45.2193 35.264C45.2958 35.1218 44.399 34.4874 43.863 34.739C43.7208 35.2093 45.2193 35.3624 45.2193 35.264ZM42.1786 33.7327C42.3536 33.4921 41.7958 32.4968 40.6802 33.0546C39.5646 33.6015 41.8505 34.1265 42.1786 33.7437V33.7327ZM38.6677 33.1531C38.6677 33.1531 38.9411 32.2562 39.6083 32.4312C40.374 33.0109 38.7005 33.1859 38.6677 33.1531ZM38.0115 32.4749C37.9021 32.2234 37.213 32.3656 36.4146 32.9015C35.6052 33.4156 38.2521 33.0546 38.0115 32.464V32.4749ZM40.0568 30.0577C40.0568 30.0577 40.7677 29.7296 40.9865 30.0577C41.2818 30.5281 40.0458 30.0577 40.0568 30.0577ZM39.4552 29.7406C39.313 29.4562 38.5255 29.4234 38.5474 29.8499C38.4161 30.1781 39.5755 30.1124 39.4552 29.7406ZM37.574 29.7406C37.4974 29.5765 36.3708 29.7406 36.0427 30.4187C36.5896 30.6812 37.8255 30.1671 37.574 29.7406ZM35.1677 30.4296C35.1677 30.4296 33.7021 31.3374 33.6036 31.9937C33.6474 32.5624 35.4411 30.9656 35.4411 30.9656C35.4411 30.9656 35.5943 30.3312 35.1786 30.4296H35.1677ZM33.538 29.6093C33.5818 29.4234 34.2708 28.9968 34.3255 29.0296C34.3802 29.2156 33.7677 29.7187 33.538 29.6093ZM34.0083 33.0656C34.0412 32.7921 32.2583 32.814 32.9255 33.6343C33.4943 34.3234 34.1286 33.1859 34.0083 33.0656ZM32.3677 34.2359C32.2802 34.0609 32.149 33.5796 31.9083 33.5359C31.7005 33.5359 30.6286 33.7546 30.5411 33.9296C30.4974 34.0718 30.9896 34.9577 31.1536 34.9796C31.3505 35.0562 32.3458 34.3234 32.3786 34.2359H32.3677ZM42.0365 40.2734C42.0911 40.0765 43.9286 39.4531 44.5521 40.0546C45.2958 41.0718 41.9927 40.6015 42.0365 40.2734ZM47.0677 41.4656C47.4724 40.7874 45.8318 39.9781 45.1427 40.7546C45.3833 41.6843 46.7396 42.0234 47.0677 41.4656Z" fill="white" stroke="white" stroke-width="0.35" stroke-linecap="round" stroke-linejoin="round"/>
</g>
<defs>
<clipPath id="clip0_1_67001">
<rect width="74.6667" height="56" fill="white" transform="translate(0 9.375)"/>
</clipPath>
</defs>
</svg>
