<svg width="75" height="75" viewBox="0 0 75 75" fill="none" xmlns="http://www.w3.org/2000/svg">
<rect width="74.6667" height="74.75" fill="white"/>
<g clip-path="url(#clip0_1_67006)">
<path d="M0 9.375H74.6667V37.375H0V9.375Z" fill="#002B7F"/>
<path d="M-9.15527e-05 37.375H74.6666V65.375H-9.15527e-05V37.375Z" fill="#CE1126"/>
<path d="M20.1971 20.7897L20.0198 26.623H14.1024C13.3744 25.2044 12.7771 24.0097 12.7771 22.3764C12.7771 21.0137 13.8504 19.931 15.3904 19.931C17.0238 19.931 18.8251 20.4817 20.1971 20.7897Z" fill="#FFD83D"/>
<path d="M13.4865 21.0604V24.4204V21.0604ZM13.9532 20.715V25.195V20.715ZM14.4385 20.4817V25.8204V20.4817ZM14.9052 20.3697V24.5604V20.3697ZM15.3812 20.351V24.579V20.351ZM15.8572 20.1924V24.579V20.1924ZM16.3332 20.1924V24.579V20.1924ZM16.8092 20.239V24.6257V20.239ZM17.2852 20.2857V24.663V20.2857ZM17.7612 20.5564V24.943V20.5564ZM18.2279 20.603V25.5404V20.603ZM18.7132 20.603V24.9897V20.603ZM19.1799 20.603V24.9897V20.603Z" fill="#FFD83D"/>
<path d="M13.4865 21.0604V24.4204M13.9532 20.715V25.195M14.4385 20.4817V25.8204M14.9052 20.3697V24.5604M15.3812 20.351V24.579M15.8572 20.1924V24.579M16.3332 20.1924V24.579M16.8092 20.239V24.6257M17.2852 20.2857V24.663M17.7612 20.5564V24.943M18.2279 20.603V25.5404M18.7132 20.603V24.9897M19.1799 20.603V24.9897" stroke="black" stroke-width="0.14" stroke-linecap="round" stroke-linejoin="round"/>
<path d="M16.4638 20.3883C17.4718 20.547 19.6745 21.583 19.4225 22.9736C19.0678 24.9523 17.9105 24.159 16.3798 23.879L15.2225 24.2616C14.8025 24.6816 14.1958 25.0736 13.7852 24.5603H13.0945V27.2483H20.6918V20.7616L16.4638 20.3883Z" fill="black" stroke="black" stroke-width="0.14" stroke-linecap="round" stroke-linejoin="round"/>
<path d="M19.8611 20.379C20.1137 20.379 20.3184 20.1743 20.3184 19.9217C20.3184 19.6691 20.1137 19.4644 19.8611 19.4644C19.6085 19.4644 19.4037 19.6691 19.4037 19.9217C19.4037 20.1743 19.6085 20.379 19.8611 20.379Z" fill="#FFD83D" stroke="black" stroke-width="0.186667" stroke-linecap="round" stroke-linejoin="round"/>
<path d="M18.8251 20.1271C19.0777 20.1271 19.2824 19.9223 19.2824 19.6697C19.2824 19.4172 19.0777 19.2124 18.8251 19.2124C18.5725 19.2124 18.3678 19.4172 18.3678 19.6697C18.3678 19.9223 18.5725 20.1271 18.8251 20.1271Z" fill="#FFD83D" stroke="black" stroke-width="0.186667" stroke-linecap="round" stroke-linejoin="round"/>
<path d="M17.7704 19.8657C18.023 19.8657 18.2277 19.661 18.2277 19.4084C18.2277 19.1558 18.023 18.951 17.7704 18.951C17.5178 18.951 17.3131 19.1558 17.3131 19.4084C17.3131 19.661 17.5178 19.8657 17.7704 19.8657Z" fill="#FFD83D" stroke="black" stroke-width="0.186667" stroke-linecap="round" stroke-linejoin="round"/>
<path d="M16.7158 19.6883C16.9683 19.6883 17.1731 19.4836 17.1731 19.231C17.1731 18.9784 16.9683 18.7737 16.7158 18.7737C16.4632 18.7737 16.2584 18.9784 16.2584 19.231C16.2584 19.4836 16.4632 19.6883 16.7158 19.6883Z" fill="#FFD83D" stroke="black" stroke-width="0.186667" stroke-linecap="round" stroke-linejoin="round"/>
<path d="M15.6611 19.5857C15.9136 19.5857 16.1184 19.3809 16.1184 19.1284C16.1184 18.8758 15.9136 18.671 15.6611 18.671C15.4085 18.671 15.2037 18.8758 15.2037 19.1284C15.2037 19.3809 15.4085 19.5857 15.6611 19.5857Z" fill="#FFD83D" stroke="black" stroke-width="0.186667" stroke-linecap="round" stroke-linejoin="round"/>
<path d="M14.6344 19.6417C14.887 19.6417 15.0918 19.437 15.0918 19.1844C15.0918 18.9318 14.887 18.7271 14.6344 18.7271C14.3818 18.7271 14.1771 18.9318 14.1771 19.1844C14.1771 19.437 14.3818 19.6417 14.6344 19.6417Z" fill="#FFD83D" stroke="black" stroke-width="0.186667" stroke-linecap="round" stroke-linejoin="round"/>
<path d="M13.6451 19.9777C13.8977 19.9777 14.1024 19.7729 14.1024 19.5203C14.1024 19.2677 13.8977 19.063 13.6451 19.063C13.3925 19.063 13.1877 19.2677 13.1877 19.5203C13.1877 19.7729 13.3925 19.9777 13.6451 19.9777Z" fill="#FFD83D" stroke="black" stroke-width="0.186667" stroke-linecap="round" stroke-linejoin="round"/>
<path d="M12.8144 20.5936C13.067 20.5936 13.2718 20.3889 13.2718 20.1363C13.2718 19.8837 13.067 19.679 12.8144 19.679C12.5618 19.679 12.3571 19.8837 12.3571 20.1363C12.3571 20.3889 12.5618 20.5936 12.8144 20.5936Z" fill="#FFD83D" stroke="black" stroke-width="0.186667" stroke-linecap="round" stroke-linejoin="round"/>
<path d="M12.2264 21.443C12.479 21.443 12.6837 21.2382 12.6837 20.9857C12.6837 20.7331 12.479 20.5283 12.2264 20.5283C11.9738 20.5283 11.7691 20.7331 11.7691 20.9857C11.7691 21.2382 11.9738 21.443 12.2264 21.443Z" fill="#FFD83D" stroke="black" stroke-width="0.186667" stroke-linecap="round" stroke-linejoin="round"/>
<path d="M11.9371 22.451C12.1897 22.451 12.3944 22.2463 12.3944 21.9937C12.3944 21.7411 12.1897 21.5364 11.9371 21.5364C11.6845 21.5364 11.4798 21.7411 11.4798 21.9937C11.4798 22.2463 11.6845 22.451 11.9371 22.451Z" fill="#FFD83D" stroke="black" stroke-width="0.186667" stroke-linecap="round" stroke-linejoin="round"/>
<path d="M11.9464 23.4871C12.199 23.4871 12.4038 23.2823 12.4038 23.0297C12.4038 22.7771 12.199 22.5724 11.9464 22.5724C11.6939 22.5724 11.4891 22.7771 11.4891 23.0297C11.4891 23.2823 11.6939 23.4871 11.9464 23.4871Z" fill="#FFD83D" stroke="black" stroke-width="0.186667" stroke-linecap="round" stroke-linejoin="round"/>
<path d="M12.1518 24.5044C12.4043 24.5044 12.6091 24.2996 12.6091 24.0471C12.6091 23.7945 12.4043 23.5897 12.1518 23.5897C11.8992 23.5897 11.6944 23.7945 11.6944 24.0471C11.6944 24.2996 11.8992 24.5044 12.1518 24.5044Z" fill="#FFD83D" stroke="black" stroke-width="0.186667" stroke-linecap="round" stroke-linejoin="round"/>
<path d="M20.0664 20.5283L20.0198 21.135C18.8718 20.9483 17.2478 20.3137 15.7264 20.3137C14.3264 20.3137 13.2438 20.8737 13.2438 22.2923C13.2438 23.683 13.8318 24.9523 14.6158 26.2403L13.8038 26.6137C13.0758 25.2137 12.4691 24.0003 12.4691 22.3763C12.4691 21.0137 13.5424 19.6697 15.3904 19.6697C17.0238 19.6697 18.6944 20.2297 20.0664 20.5283Z" fill="#FFD83D" stroke="black" stroke-width="0.186667" stroke-linecap="round" stroke-linejoin="round"/>
<path d="M20.7198 14.331L20.2345 15.2363L20.7198 16.1323L21.1958 15.2363L20.7198 14.3217V14.331ZM20.7198 16.6083L20.2345 17.5043L20.7198 18.4097L21.1865 17.495L20.7105 16.599L20.7198 16.6083ZM19.0025 16.375L19.7585 16.851L20.5145 16.375L19.7678 15.8897L19.0025 16.375ZM20.9158 16.375L21.6718 16.851L22.4371 16.375L21.6718 15.8897L20.9251 16.375H20.9158Z" fill="#FFD83D" stroke="black" stroke-width="0.186667" stroke-linecap="round" stroke-linejoin="round"/>
<path d="M20.7198 16.7484C20.9209 16.7484 21.0838 16.5854 21.0838 16.3844C21.0838 16.1834 20.9209 16.0204 20.7198 16.0204C20.5188 16.0204 20.3558 16.1834 20.3558 16.3844C20.3558 16.5854 20.5188 16.7484 20.7198 16.7484Z" fill="#FFD83D" stroke="black" stroke-width="0.186667" stroke-linecap="round" stroke-linejoin="round"/>
<path d="M20.7198 19.6883C21.261 19.6883 21.6998 19.2495 21.6998 18.7083C21.6998 18.167 21.261 17.7283 20.7198 17.7283C20.1786 17.7283 19.7398 18.167 19.7398 18.7083C19.7398 19.2495 20.1786 19.6883 20.7198 19.6883Z" fill="#FFD83D" stroke="black" stroke-width="0.186667" stroke-linecap="round" stroke-linejoin="round"/>
<path d="M20.4678 17.7656V18.3816C20.2363 18.3928 20.0057 18.4177 19.7772 18.4563M21.6625 18.4563C21.4309 18.4172 21.1971 18.3923 20.9625 18.3816V17.7656M19.7678 18.951C20.0823 18.8965 20.4007 18.8684 20.7198 18.867C21.0372 18.867 21.3545 18.895 21.6532 18.951" stroke="black" stroke-width="0.14" stroke-linecap="round" stroke-linejoin="round"/>
<path d="M19.7678 20.3604C19.6745 21.947 19.4878 23.5804 18.8625 24.7564L19.8705 24.3457C20.2252 23.011 20.2998 21.2844 20.4025 20.463L19.7678 20.3604ZM21.6718 20.3604L21.0278 20.463C21.1398 21.2844 21.2145 23.011 21.5598 24.3457L22.5678 24.7564C21.9518 23.5804 21.7652 21.9564 21.6718 20.3604Z" fill="#FFD83D" stroke="black" stroke-width="0.186667" stroke-linecap="round" stroke-linejoin="round"/>
<path d="M20.7198 23.8137C19.5065 23.8137 18.6198 24.3737 18.5732 25.8297C18.2745 25.3071 17.0332 23.6831 15.8665 23.8977C15.1758 24.0284 14.5598 24.9897 14.6718 26.0817C14.0932 24.4391 12.4225 24.1684 11.1905 25.1484C12.2825 26.0351 12.7678 28.6764 13.6825 29.8151H27.7478C28.6625 28.6764 29.1478 26.0351 30.2398 25.1484C29.0172 24.1684 27.3372 24.4391 26.7678 26.0817C26.8612 24.9897 26.2545 24.0284 25.5545 23.8977C24.3972 23.6831 23.1558 25.3071 22.8572 25.8297C22.8105 24.3831 21.9238 23.8137 20.7105 23.8137H20.7198Z" fill="#FFD83D" stroke="black" stroke-width="0.186667" stroke-linecap="round" stroke-linejoin="round"/>
<path d="M27.7291 29.8149C27.7291 30.3376 24.5931 30.9069 20.7197 30.9069C16.8464 30.9069 13.7011 30.3469 13.7011 29.8149C13.7011 29.3016 16.8464 29.0216 20.7197 29.0216C24.5837 29.0216 27.7291 29.3016 27.7291 29.8149Z" fill="black" stroke="black" stroke-width="0.14" stroke-linecap="round" stroke-linejoin="round"/>
<path d="M20.7198 20.379C20.9002 20.379 21.0464 20.2328 21.0464 20.0524C21.0464 19.872 20.9002 19.7257 20.7198 19.7257C20.5394 19.7257 20.3931 19.872 20.3931 20.0524C20.3931 20.2328 20.5394 20.379 20.7198 20.379Z" fill="#FFD83D" stroke="black" stroke-width="0.14" stroke-linecap="round" stroke-linejoin="round"/>
<path d="M20.7198 21.107C20.9105 21.107 21.0651 20.9524 21.0651 20.7617C21.0651 20.571 20.9105 20.4164 20.7198 20.4164C20.529 20.4164 20.3744 20.571 20.3744 20.7617C20.3744 20.9524 20.529 21.107 20.7198 21.107Z" fill="#FFD83D" stroke="black" stroke-width="0.14" stroke-linecap="round" stroke-linejoin="round"/>
<path d="M20.7198 21.9096C20.9311 21.9096 21.1024 21.7383 21.1024 21.527C21.1024 21.3156 20.9311 21.1443 20.7198 21.1443C20.5084 21.1443 20.3371 21.3156 20.3371 21.527C20.3371 21.7383 20.5084 21.9096 20.7198 21.9096Z" fill="#FFD83D" stroke="black" stroke-width="0.14" stroke-linecap="round" stroke-linejoin="round"/>
<path d="M20.7197 22.815C20.962 22.815 21.1584 22.6186 21.1584 22.3763C21.1584 22.134 20.962 21.9376 20.7197 21.9376C20.4775 21.9376 20.2811 22.134 20.2811 22.3763C20.2811 22.6186 20.4775 22.815 20.7197 22.815Z" fill="#FFD83D" stroke="black" stroke-width="0.14" stroke-linecap="round" stroke-linejoin="round"/>
<path d="M20.7198 23.795C20.9827 23.795 21.1958 23.5819 21.1958 23.319C21.1958 23.0561 20.9827 22.843 20.7198 22.843C20.4569 22.843 20.2438 23.0561 20.2438 23.319C20.2438 23.5819 20.4569 23.795 20.7198 23.795Z" fill="#FFD83D" stroke="black" stroke-width="0.14" stroke-linecap="round" stroke-linejoin="round"/>
<path d="M20.5331 24.2336C20.4771 24.2336 20.4304 24.2803 20.4398 24.3643L20.4958 24.7656C20.5144 24.9056 20.5891 24.859 20.6171 24.7656C20.6358 24.6536 20.6264 24.579 20.6358 24.383C20.6358 24.2803 20.5798 24.2336 20.5238 24.2336H20.5331ZM20.9064 24.2336C20.8504 24.2336 20.8038 24.2803 20.8038 24.383C20.8038 24.579 20.8038 24.6536 20.8224 24.7563C20.8411 24.8683 20.9158 24.9056 20.9438 24.7563L20.9904 24.3643C21.0091 24.271 20.9531 24.2336 20.9064 24.2336ZM20.1878 24.2896C20.163 24.2896 20.1393 24.2995 20.1218 24.317C20.1043 24.3345 20.0944 24.3582 20.0944 24.383C20.0944 24.4763 20.1224 24.5976 20.1318 24.7376C20.1504 24.8776 20.2531 24.831 20.2624 24.7376C20.2624 24.663 20.2811 24.5323 20.2624 24.3736C20.2624 24.3176 20.2438 24.2896 20.2064 24.2803C20.2002 24.2795 20.194 24.2795 20.1878 24.2803V24.2896ZM21.2238 24.2896C21.1958 24.2896 21.1678 24.3176 21.1584 24.383C21.1534 24.5015 21.1597 24.6203 21.1771 24.7376C21.1771 24.831 21.2891 24.8776 21.2984 24.7376C21.2984 24.5976 21.3358 24.4856 21.3358 24.3923C21.3358 24.3363 21.2891 24.299 21.2424 24.2896C21.2362 24.2889 21.23 24.2889 21.2238 24.2896ZM19.7864 24.4483C19.7398 24.4576 19.6931 24.5136 19.7118 24.5696C19.7398 24.691 19.7678 24.8216 19.7678 24.943C19.7678 25.0456 19.8518 25.0083 19.8611 24.943C19.8684 24.8187 19.8715 24.6942 19.8704 24.5696C19.8704 24.4763 19.8238 24.439 19.7771 24.4483H19.7864ZM21.6158 24.4483C21.5878 24.4576 21.5598 24.495 21.5598 24.5696L21.5784 24.943C21.5784 25.0083 21.6718 25.0456 21.6718 24.943C21.6718 24.8216 21.6904 24.691 21.7184 24.5696C21.7371 24.5136 21.6904 24.4576 21.6531 24.4483C21.6439 24.4459 21.6343 24.4459 21.6251 24.4483H21.6158ZM16.1091 24.467C16.0531 24.467 16.0158 24.5323 16.0531 24.607C16.1091 24.7376 16.1744 24.8123 16.2304 24.943C16.2771 25.0643 16.3611 24.9896 16.3331 24.9056L16.2024 24.5603C16.1744 24.495 16.1371 24.467 16.1091 24.467ZM25.3304 24.467C25.2931 24.467 25.2651 24.495 25.2371 24.5603C25.1531 24.7376 25.1251 24.8216 25.0971 24.9056C25.0784 24.999 25.1531 25.0643 25.2091 24.943L25.3771 24.607C25.4144 24.5323 25.3771 24.467 25.3304 24.467ZM16.4824 24.467C16.4358 24.4856 16.4171 24.5323 16.4358 24.5883C16.4918 24.7003 16.5571 24.8216 16.6038 24.943C16.6411 25.0456 16.7344 25.0176 16.6971 24.9243L16.6038 24.579C16.5664 24.4856 16.5104 24.4576 16.4824 24.467ZM24.9291 24.467C24.8918 24.4763 24.8544 24.5136 24.8358 24.579C24.7704 24.7656 24.7611 24.8216 24.7331 24.9243C24.6958 25.0176 24.7891 25.0456 24.8264 24.943L24.9944 24.5883C25.0131 24.5323 24.9944 24.4856 24.9571 24.467C24.9479 24.4646 24.9383 24.4646 24.9291 24.467ZM16.9491 24.5603C16.8931 24.5696 16.8558 24.6443 16.8931 24.7376C16.9304 24.8496 16.9864 24.9523 17.0424 25.083C17.0984 25.2136 17.1824 25.1856 17.1638 25.1016C17.1358 25.0176 17.1171 24.887 17.0518 24.6816C17.0238 24.5883 16.9864 24.551 16.9491 24.5603ZM24.4904 24.5603C24.4531 24.5603 24.4064 24.5883 24.3784 24.6816C24.3224 24.887 24.2851 25.0176 24.2758 25.1016C24.2478 25.195 24.3411 25.2136 24.3878 25.083C24.4438 24.9523 24.4998 24.8496 24.5371 24.7376C24.5744 24.6443 24.5371 24.5696 24.4904 24.5603ZM15.7918 24.6256C15.7358 24.6256 15.6984 24.719 15.7264 24.7843C15.7731 24.8776 15.8104 24.915 15.8571 25.027C15.9131 25.139 15.9691 25.055 15.9504 24.9803C15.9224 24.9056 15.8944 24.8216 15.8758 24.719C15.8571 24.6443 15.8198 24.6256 15.7824 24.6256H15.7918ZM25.6478 24.6256C25.6104 24.6256 25.5824 24.6443 25.5544 24.719L25.4891 24.9803C25.4704 25.055 25.5264 25.139 25.5824 25.027C25.6291 24.915 25.6571 24.887 25.7131 24.7843C25.7411 24.719 25.6944 24.635 25.6478 24.6256ZM19.3944 24.887C19.3291 24.887 19.2731 24.9616 19.3011 25.027C19.3198 25.139 19.3758 25.2323 19.4038 25.3723C19.4411 25.4936 19.5251 25.4376 19.5158 25.3536C19.509 25.2283 19.4934 25.1035 19.4691 24.9803C19.4504 24.915 19.4224 24.887 19.3851 24.887H19.3944ZM22.0451 24.887C22.0171 24.887 21.9798 24.915 21.9704 24.9803C21.943 25.1033 21.9243 25.228 21.9144 25.3536C21.9144 25.4376 21.9984 25.4936 22.0264 25.3723L22.1384 25.027C22.1571 24.9616 22.1011 24.887 22.0451 24.887ZM20.7198 24.999C20.6451 24.999 20.6358 25.0923 20.6358 25.1576C20.6301 25.3702 20.5654 25.577 20.4491 25.755C20.3558 25.867 20.2344 25.839 20.1224 25.7736C20.0139 25.7145 19.9108 25.6458 19.8144 25.5683C19.6838 25.475 19.5904 25.531 19.7398 25.7456C20.1691 26.3616 20.6358 26.8843 20.6358 27.8923C20.6358 28.0136 20.6638 28.051 20.7198 28.051C20.7758 28.051 20.7944 28.0136 20.7944 27.883C20.7944 26.8843 21.2611 26.3616 21.6904 25.7363C21.8398 25.531 21.7464 25.475 21.6251 25.5683C21.5291 25.6463 21.426 25.7151 21.3171 25.7736C21.1958 25.839 21.0744 25.867 20.9904 25.755C20.8741 25.577 20.8095 25.3702 20.8038 25.1576C20.7944 25.0923 20.7851 24.999 20.7104 24.999H20.7198ZM17.4251 24.8496C17.4189 24.8486 17.4126 24.8486 17.4064 24.8496C17.3784 24.859 17.3691 24.887 17.3784 24.943L17.4811 25.307C17.5091 25.4003 17.6118 25.3723 17.5931 25.2603L17.5371 24.971C17.5184 24.8963 17.4624 24.8496 17.4251 24.8496ZM24.0144 24.8496C23.9678 24.8496 23.9211 24.8963 23.9024 24.971C23.8651 25.1016 23.8651 25.139 23.8464 25.251C23.8184 25.3723 23.9304 25.391 23.9491 25.307L24.0611 24.9336C24.0611 24.887 24.0518 24.859 24.0238 24.8496C24.0176 24.8486 24.0113 24.8486 24.0051 24.8496H24.0144ZM15.4651 24.887C15.4091 24.887 15.3718 24.9616 15.4278 25.055C15.4838 25.167 15.5864 25.2976 15.6331 25.3816C15.6798 25.4563 15.7638 25.4003 15.7078 25.307C15.6518 25.2136 15.6331 25.0923 15.5584 24.9523C15.5523 24.9326 15.5398 24.9156 15.5229 24.9037C15.506 24.8919 15.4857 24.886 15.4651 24.887ZM25.9651 24.887C25.9371 24.887 25.8998 24.9056 25.8718 24.9523C25.8064 25.0923 25.7784 25.2043 25.7318 25.307C25.6758 25.4003 25.7504 25.4563 25.7971 25.3816C25.8438 25.2976 25.9464 25.167 26.0024 25.055C26.0584 24.9616 26.0211 24.887 25.9651 24.887ZM12.5064 25.195C12.4504 25.195 12.4318 25.307 12.4878 25.3816C12.5602 25.4734 12.6415 25.5578 12.7304 25.6336C12.8051 25.7083 12.8238 25.615 12.7864 25.5403L12.6184 25.2883C12.5718 25.223 12.5344 25.195 12.5064 25.195ZM28.9238 25.195C28.8958 25.195 28.8584 25.223 28.8211 25.2883L28.6438 25.5403C28.6064 25.615 28.6251 25.7083 28.7091 25.6336C28.7981 25.5578 28.8794 25.4734 28.9518 25.3816C29.0078 25.307 28.9891 25.195 28.9238 25.195ZM12.9824 25.2883C12.9264 25.2883 12.8891 25.3256 12.9358 25.4096L13.1131 25.7643C13.1598 25.8576 13.2998 25.8856 13.2438 25.7456L13.1224 25.391C13.0944 25.3256 13.0291 25.2976 12.9824 25.2976V25.2883ZM28.4571 25.2883C28.4011 25.2883 28.3358 25.3256 28.3078 25.391L28.1958 25.7456C28.1398 25.8856 28.2798 25.8576 28.3264 25.7643C28.3731 25.671 28.4478 25.531 28.4944 25.4096C28.5411 25.3256 28.5038 25.2883 28.4571 25.2883ZM12.0678 25.3256C11.9931 25.3256 11.9931 25.391 12.0584 25.4376C12.1424 25.503 12.2451 25.5683 12.3384 25.6523C12.4598 25.7456 12.4971 25.6523 12.4318 25.5776C12.3758 25.503 12.3198 25.4283 12.1611 25.3443C12.1238 25.3256 12.0958 25.3256 12.0678 25.3256ZM29.3624 25.3256C29.3438 25.3256 29.3064 25.3256 29.2691 25.3443C29.1198 25.4283 29.0544 25.503 28.9891 25.5776C28.9331 25.6616 28.9798 25.7456 29.0918 25.6523C29.1851 25.5683 29.2971 25.503 29.3718 25.4376C29.4464 25.391 29.4371 25.3256 29.3718 25.3256H29.3624ZM19.1331 25.391C19.0864 25.391 19.0584 25.4376 19.0678 25.503L19.1611 25.839C19.1798 25.9416 19.3011 25.9416 19.2824 25.839C19.2638 25.7456 19.2544 25.6243 19.2171 25.475C19.2078 25.419 19.1798 25.391 19.1424 25.3816C19.1393 25.3814 19.1362 25.3814 19.1331 25.3816V25.391ZM22.2878 25.391C22.2598 25.391 22.2318 25.419 22.2131 25.4843C22.1758 25.6243 22.1664 25.7456 22.1478 25.8483C22.1291 25.9416 22.2504 25.9416 22.2691 25.839L22.3624 25.503C22.3811 25.4376 22.3438 25.391 22.3064 25.391C22.3002 25.3899 22.2939 25.3899 22.2878 25.391ZM16.3144 25.2043C16.2864 25.2043 16.2678 25.2696 16.2958 25.363C16.3947 25.632 16.4453 25.9164 16.4451 26.203C16.4171 26.315 16.3518 26.3243 16.2678 26.2963C16.1762 26.2511 16.0887 26.198 16.0064 26.1376C15.9318 26.091 15.8478 26.147 15.9598 26.2403C16.5198 26.707 16.9211 27.239 17.0798 27.883C17.0984 28.0136 17.1824 28.0323 17.1638 27.883C17.0331 27.071 17.0051 26.399 17.2011 25.9883C17.2758 25.8296 17.2011 25.6803 17.0891 25.9323C17.0051 26.1003 16.8838 26.1656 16.7811 26.0256C16.6352 25.7979 16.5102 25.5573 16.4078 25.307C16.3891 25.2416 16.3611 25.2136 16.3331 25.2043C16.33 25.2038 16.3268 25.2038 16.3238 25.2043H16.3144ZM25.0971 25.2043C25.0691 25.2043 25.0411 25.2416 25.0224 25.2976C24.9571 25.4843 24.7518 25.8763 24.6491 26.0256C24.5464 26.175 24.4251 26.1003 24.3504 25.9323C24.2291 25.6803 24.1638 25.8296 24.2291 25.9883C24.4251 26.399 24.3971 27.071 24.2758 27.883C24.2478 28.0323 24.3318 28.0136 24.3691 27.883C24.5417 27.2275 24.9296 26.6489 25.4704 26.2403C25.5824 26.147 25.4984 26.091 25.4238 26.147C25.3409 26.2013 25.2535 26.2481 25.1624 26.287C25.0691 26.3243 25.0131 26.315 24.9851 26.1936C24.9664 26.0816 25.0038 25.8296 25.1438 25.3536C25.1624 25.279 25.1438 25.2136 25.1158 25.2043C25.1097 25.2022 25.1031 25.2022 25.0971 25.2043ZM13.4771 25.4283C13.4304 25.4283 13.3838 25.4656 13.4118 25.5403C13.4491 25.671 13.5238 25.8016 13.5518 25.8763C13.5798 25.9603 13.6638 25.923 13.6451 25.811L13.5984 25.5216C13.5984 25.4656 13.5331 25.4283 13.4771 25.4283ZM27.9531 25.4283C27.8971 25.4283 27.8411 25.4656 27.8318 25.5216L27.7944 25.811C27.7758 25.923 27.8598 25.9603 27.8878 25.8763C27.9064 25.8016 27.9811 25.671 28.0184 25.5403C28.0464 25.4656 28.0091 25.4283 27.9531 25.4283ZM15.2318 25.2696C15.1758 25.2603 15.1664 25.4096 15.2131 25.475L15.4744 25.7643C15.5491 25.8576 15.5958 25.7736 15.5491 25.699L15.3064 25.3443C15.2784 25.2976 15.2504 25.2696 15.2318 25.2696ZM26.1984 25.2696C26.1798 25.2696 26.1518 25.2976 26.1238 25.3443L25.8811 25.699C25.8344 25.7736 25.8811 25.8576 25.9651 25.7643L26.2171 25.475C26.2638 25.4096 26.2638 25.2603 26.1984 25.2696ZM13.8784 25.643C13.8411 25.643 13.8131 25.6616 13.8318 25.7363C13.8504 25.8483 13.8784 25.923 13.9064 26.0256C13.9344 26.119 13.9998 26.1096 13.9998 26.0163L13.9718 25.7176C13.9677 25.6953 13.9563 25.6749 13.9394 25.6597C13.9225 25.6445 13.9011 25.6353 13.8784 25.6336V25.643ZM27.5518 25.643C27.5299 25.6425 27.5086 25.6498 27.4916 25.6634C27.4745 25.6771 27.4628 25.6962 27.4584 25.7176L27.4304 26.0163C27.4304 26.1096 27.5051 26.1283 27.5238 26.0256L27.6078 25.7456C27.6264 25.6616 27.5891 25.6336 27.5518 25.6336V25.643ZM15.1011 25.7736C15.0451 25.7736 14.9984 25.839 15.0638 25.923C15.1664 26.063 15.2878 26.1563 15.3344 26.203C15.3718 26.259 15.4744 26.2403 15.4091 26.1376L15.1944 25.811C15.1758 25.7736 15.1384 25.7643 15.1011 25.7736ZM26.3011 25.7736C26.2824 25.7736 26.2544 25.783 26.2451 25.811L26.0211 26.1376C25.9558 26.2403 26.0584 26.259 26.1051 26.2123C26.1424 26.1563 26.2638 26.063 26.3758 25.923C26.4411 25.8296 26.3851 25.7736 26.3291 25.7736C26.3229 25.7729 26.3166 25.7729 26.3104 25.7736H26.3011ZM13.1691 26.1563C13.1318 26.1563 13.1131 26.1936 13.1691 26.2776C13.3132 26.4525 13.4183 26.6562 13.4771 26.875C13.4864 27.0056 13.4304 27.0056 13.3744 27.0056C13.1971 27.0056 13.1131 26.875 12.9638 26.8376C12.8051 26.8096 12.7771 26.8843 12.8891 26.9683C13.4241 27.3066 13.8897 27.7437 14.2611 28.2563C14.3544 28.4336 14.4758 28.4896 14.4104 28.331C14.2291 27.967 14.1516 27.5601 14.1864 27.155C14.2331 26.8936 14.2984 26.7256 14.2891 26.5763C14.2891 26.4363 14.1958 26.4456 14.1678 26.5763L14.0744 26.8376C14.0371 26.8843 13.9064 26.9123 13.7944 26.7536C13.6357 26.5589 13.4608 26.3778 13.2718 26.2123C13.2438 26.1843 13.2064 26.1656 13.1784 26.1563H13.1691ZM28.2611 26.1563C28.2331 26.1563 28.1958 26.175 28.1584 26.2123C27.9726 26.3782 27.8009 26.5593 27.6451 26.7536C27.5238 26.9123 27.3931 26.8843 27.3651 26.847C27.3225 26.7611 27.2912 26.6702 27.2718 26.5763C27.2344 26.4456 27.1504 26.4363 27.1411 26.5763C27.1411 26.7256 27.1971 26.8936 27.2438 27.155C27.2904 27.4163 27.2438 27.827 27.0291 28.331C26.9544 28.4896 27.0851 28.4243 27.1784 28.2563C27.5464 27.744 28.0089 27.3068 28.5411 26.9683C28.6531 26.8843 28.6344 26.8096 28.4758 26.8376C28.3171 26.875 28.2331 27.0056 28.0651 27.0056C28.0091 27.0056 27.9438 27.0056 27.9531 26.875C27.9624 26.7536 28.1211 26.4643 28.2611 26.2776C28.3171 26.1843 28.3078 26.1563 28.2611 26.1563Z" fill="black"/>
<path d="M14.0091 29.2269L14.1958 29.7963L14.0091 29.2269ZM14.3824 29.1149L14.5504 29.6936L14.3824 29.1149ZM14.7931 29.0403L14.9051 29.6376L14.7931 29.0403ZM15.1664 28.9749L15.2878 29.5629L15.1664 28.9749ZM15.6424 28.9283L15.7358 29.5256L15.6424 28.9283ZM16.1558 28.9283L16.2584 29.5163L16.1558 28.9283ZM16.6598 28.7603L16.7344 29.3576L16.6598 28.7603ZM17.1264 28.7883L17.2011 29.3856L17.1264 28.7883ZM17.5838 28.7323L17.6584 29.3296L17.5838 28.7323ZM18.0318 28.6763L18.0784 29.2829L18.0318 28.6763ZM18.5264 28.6763L18.5638 29.2829L18.5264 28.6763ZM18.9744 28.6483L19.0024 29.2549L18.9744 28.6483ZM19.4598 28.6203L19.4878 29.2176L19.4598 28.6203ZM20.0198 28.6016L20.0478 29.2083L20.0198 28.6016ZM27.4211 29.2269L27.2344 29.7963L27.4211 29.2269ZM27.0478 29.1149L26.8891 29.6936L27.0478 29.1149ZM26.6464 29.0403L26.5344 29.6376L26.6464 29.0403ZM26.2731 28.9749L26.1518 29.5629L26.2731 28.9749ZM25.7784 28.9283L25.6851 29.5256L25.7784 28.9283ZM25.2744 28.9283L25.1718 29.5256L25.2744 28.9283ZM24.7798 28.7603L24.7051 29.3576L24.7798 28.7603ZM24.3038 28.7883L24.2291 29.3856L24.3038 28.7883ZM23.8558 28.7323L23.7718 29.3296L23.8558 28.7323ZM23.3984 28.6763L23.3518 29.2829L23.3984 28.6763ZM22.9038 28.6763L22.8664 29.2829L22.9038 28.6763ZM22.4651 28.6483L22.4371 29.2549L22.4651 28.6483ZM21.9704 28.6203L21.9518 29.2176L21.9704 28.6203ZM21.4104 28.6016L21.3918 29.2083L21.4104 28.6016ZM20.7198 28.5549V29.2269V28.5549Z" fill="#FFD83D"/>
<path d="M14.0091 29.2269L14.1958 29.7963M14.3824 29.1149L14.5504 29.6936M14.7931 29.0403L14.9051 29.6376M15.1664 28.9749L15.2878 29.5629M15.6424 28.9283L15.7358 29.5256M16.1558 28.9283L16.2584 29.5163M16.6598 28.7603L16.7344 29.3576M17.1264 28.7883L17.2011 29.3856M17.5838 28.7323L17.6584 29.3296M18.0318 28.6763L18.0784 29.2829M18.5264 28.6763L18.5638 29.2829M18.9744 28.6483L19.0024 29.2549M19.4598 28.6203L19.4878 29.2176M20.0198 28.6016L20.0478 29.2083M27.4211 29.2269L27.2344 29.7963M27.0478 29.1149L26.8891 29.6936M26.6464 29.0403L26.5344 29.6376M26.2731 28.9749L26.1518 29.5629M25.7784 28.9283L25.6851 29.5256M25.2744 28.9283L25.1718 29.5256M24.7798 28.7603L24.7051 29.3576M24.3038 28.7883L24.2291 29.3856M23.8558 28.7323L23.7718 29.3296M23.3984 28.6763L23.3518 29.2829M22.9038 28.6763L22.8664 29.2829M22.4651 28.6483L22.4371 29.2549M21.9704 28.6203L21.9518 29.2176M21.4104 28.6016L21.3918 29.2083M20.7198 28.5549V29.2269" stroke="black" stroke-width="0.14" stroke-linecap="round" stroke-linejoin="round"/>
</g>
<defs>
<clipPath id="clip0_1_67006">
<rect width="74.6667" height="56" fill="white" transform="translate(0 9.375)"/>
</clipPath>
</defs>
</svg>
