<svg width="75" height="75" viewBox="0 0 75 75" fill="none" xmlns="http://www.w3.org/2000/svg">
<rect width="74.6667" height="74.75" fill="white"/>
<g clip-path="url(#clip0_1_66736)">
<path d="M0 9.375H74.6667V65.375H0V9.375Z" fill="#FFB700"/>
<path d="M3.11511 37.375L13.3818 12.49H23.6484V62.26H13.3818L3.11511 37.375Z" fill="#FF5B00"/>
<path d="M3.11511 12.49H13.3818V62.26H3.11511V12.49Z" fill="#005641"/>
<path d="M26.7517 12.49H71.8667V62.26H26.7517V12.49Z" fill="#8D2029"/>
<path d="M67.5851 57.045C67.5851 57.045 68.0051 57.8967 68.4718 58.2584C69.1718 58.7717 70.5718 58.725 71.1901 59.3434C71.9018 60.055 71.1318 61 71.1318 61.0934L71.1784 61.5834C71.1784 61.5834 70.6884 61.5834 70.4784 61.6184C70.1751 61.665 70.0584 61.9217 69.4751 61.8867C68.0401 61.7934 68.0984 60.4867 68.0168 59.3784C67.9468 58.9584 67.7834 58.3984 67.6784 57.9784C67.5967 57.6284 67.5851 57.045 67.5851 57.045Z" fill="#FFB700" stroke="black" stroke-width="0.128333"/>
<path d="M42.4085 49.0184L42.6769 48.8551L42.7935 49.0184C42.9452 49.2284 43.3769 49.2167 43.6569 49.0184L43.8785 48.8434L44.0652 49.0067C44.2985 49.2284 44.7419 49.2284 45.0335 49.0067C45.2319 48.8667 45.2669 48.8551 45.3835 48.9717C45.4652 49.0417 45.6985 49.1117 45.8969 49.1467C46.2702 49.1934 46.2702 49.1934 46.4802 48.8667C46.6669 48.5984 46.6902 48.4934 46.6552 48.2251C46.6226 48.0201 46.5993 47.8138 46.5852 47.6067C46.5619 47.3034 46.5735 47.3034 47.0052 47.1401C47.2195 47.0743 47.4298 46.9964 47.6352 46.9067C47.8102 46.8017 48.3002 46.2301 48.3002 46.1134C48.3002 46.0901 48.1135 46.0434 47.8802 46.0201C46.9469 45.9034 46.7952 45.4134 47.4019 44.5034C48.3702 42.9867 48.9652 41.5284 48.9652 40.6067C48.9652 40.1867 49.0002 40.0467 49.0469 40.1401C49.2685 40.5017 48.8719 42.0534 48.2885 43.1734L48.0552 43.6167L48.2769 43.5701C48.3935 43.5351 49.1402 43.2201 49.9102 42.8701C52.0335 41.9134 52.7569 41.7267 54.1335 41.7851C55.2885 41.8317 55.7669 42.0534 56.5835 42.9051C57.0152 43.3717 57.4352 43.6867 58.1935 44.1651C59.8035 45.1684 59.8735 45.2617 59.9552 46.4517C60.0369 47.6534 59.9902 47.7234 59.0802 47.9217C58.2985 48.0967 57.8085 48.4584 57.6802 48.9717C57.6102 49.2284 57.7619 49.2401 58.1469 48.9834L58.4385 48.7967L58.5669 48.9834C58.7419 49.2284 59.0919 49.2284 59.3835 48.9834L59.6169 48.8084L59.8502 48.9834C60.2002 49.2751 60.6669 49.2051 60.8069 48.8434C60.8302 48.7851 60.9002 48.7967 61.0402 48.9251C61.3085 49.1584 61.9735 49.2517 62.0435 49.0651C62.0669 48.9951 62.0202 48.8317 61.9269 48.6917C61.5419 48.1084 61.4135 47.8401 61.4135 47.5251C61.4135 47.0817 61.5302 46.8601 62.0435 46.5101C62.6502 46.0667 62.8369 45.5067 62.3702 45.5067C62.0902 45.5067 61.7985 45.2501 61.6119 44.8417C61.2385 44.0017 61.3202 43.0684 61.8802 41.5051C62.3096 40.5852 62.525 39.5801 62.5102 38.5651C62.5102 37.7017 62.4869 37.5617 62.3002 37.0834C62.1542 36.7508 61.9744 36.4342 61.7635 36.1384L61.4369 35.7067L61.8452 35.3567C63.1052 34.3184 62.8485 32.6151 61.3319 31.9617C60.8652 31.7517 60.7485 31.7401 59.9319 31.7401C59.4652 31.7401 58.7069 31.8101 58.2985 31.8917C57.7504 31.9785 57.1968 32.0252 56.6419 32.0317C55.8485 32.0317 55.7085 32.0084 55.4052 31.8451C55.0902 31.6817 55.0319 31.6001 54.9735 31.2034C54.9679 31.166 54.9533 31.1305 54.931 31.1001C54.9086 31.0696 54.8792 31.045 54.8452 31.0284C54.7285 30.9934 54.2385 31.4251 54.1685 31.6117C54.1219 31.7167 54.0985 31.7051 53.9935 31.5767C53.8946 31.4496 53.8159 31.3079 53.7602 31.1567C53.6435 30.7717 53.7952 30.4917 54.2502 30.2701L54.6002 30.1067L54.3902 29.9784C53.9702 29.7101 53.2469 29.8967 52.9902 30.3284C52.9085 30.4451 52.8269 30.5617 52.8035 30.5617C52.7802 30.5617 52.6402 30.4451 52.5002 30.2934C51.9519 29.7567 52.1385 28.9634 52.8735 28.7301C53.2585 28.6017 53.6085 28.6951 53.6785 28.9634C53.7952 29.3484 54.1219 28.8351 54.0635 28.3567C54.0285 28.0417 54.0285 28.0301 54.2502 28.0301C54.5535 28.0301 55.1835 28.4267 55.3935 28.7301C55.6269 29.0917 55.6035 29.6634 55.3469 30.0834L55.1485 30.4101L55.4169 30.3634C55.7902 30.2817 56.1635 30.0484 56.3502 29.7567C56.4486 29.571 56.5038 29.3654 56.5119 29.1554C56.52 28.9453 56.4807 28.7362 56.3969 28.5434C56.2219 28.2284 56.2452 28.1817 56.5019 28.2867C56.9219 28.4617 57.1552 28.6601 57.3185 28.9984C57.4819 29.3017 57.4935 29.3717 57.4119 29.6984C57.356 29.8973 57.2694 30.0862 57.1552 30.2584C57.0152 30.4451 57.0035 30.4801 57.1202 30.4801C57.3302 30.4801 57.7502 30.2817 57.9019 30.1301C57.9835 30.0367 58.1002 29.8384 58.1585 29.6634L58.2752 29.3717L58.3919 29.6051C58.5669 29.9201 58.9169 30.2117 59.3369 30.3984C59.7919 30.5851 59.9785 30.5967 59.7452 30.4217C59.5819 30.3051 59.2785 29.4301 59.3835 29.3484C59.8871 29.6303 60.3469 29.984 60.7485 30.3984C61.4135 30.9934 61.8335 31.1917 62.4402 31.1917C63.2219 31.1917 63.6769 30.5151 63.3269 29.8734C63.1285 29.5001 62.6735 29.4417 62.3935 29.7567C62.2769 29.9084 62.2419 30.0251 62.2769 30.1884C62.3235 30.3751 62.3119 30.3984 62.1369 30.3984C61.9035 30.3984 61.4602 30.1067 60.6669 29.4417C59.5626 28.4914 58.2932 27.7519 56.9219 27.2601C55.9928 27.0453 55.0335 26.994 54.0869 27.1084C53.3402 27.2484 52.4535 27.6801 51.9635 28.1351C51.1119 28.9517 51.1002 30.0367 51.9285 31.0284L52.1619 31.3084L52.0102 31.5651C51.8961 31.7489 51.8396 31.9627 51.8479 32.1789C51.8562 32.3951 51.929 32.6039 52.0569 32.7784C52.1735 32.9417 52.2902 33.0701 52.3252 33.0701C52.3485 33.0701 52.3719 32.9651 52.3835 32.8367C52.4069 32.5217 52.5469 32.3117 52.7802 32.2301C52.9902 32.1484 53.1302 32.1951 54.0869 32.5801C55.1019 32.9767 56.7702 33.0001 58.5435 32.6501C59.3121 32.4726 60.112 32.4806 60.8769 32.6734C61.7169 33.0234 61.9035 33.9217 61.2969 34.5984C61.0285 34.9017 60.7835 35.0184 59.9319 35.2517C59.1904 35.4473 58.4195 35.5066 57.6569 35.4267C56.3969 35.4151 55.9419 35.4384 55.4402 35.5434C54.8685 35.6601 54.5302 35.6717 52.8969 35.6367L50.9952 35.5901L51.2052 35.7534C51.3177 35.8533 51.4387 35.943 51.5669 36.0217C51.7185 36.1034 51.7069 36.1151 51.4969 36.1967C51.3802 36.2434 51.1002 36.2784 50.8785 36.2784H50.4935L50.4469 36.6051C50.4154 36.759 50.4154 36.9178 50.4469 37.0717C50.4935 37.1884 50.4702 37.2117 50.3535 37.1651C50.2719 37.1301 50.0502 37.0717 49.8519 37.0367C49.6518 36.9938 49.4564 36.9313 49.2685 36.8501C49.0469 36.7334 49.0235 36.7334 48.9419 36.8851C48.8719 37.0017 48.2185 37.4917 48.1252 37.4917C48.083 37.189 47.9966 36.8942 47.8685 36.6167C47.7519 36.3717 47.6469 36.0917 47.6119 36.0101C47.5769 35.8817 47.5535 35.8701 47.4952 35.9751C47.4602 36.0334 47.4135 36.2084 47.3785 36.3484C47.3377 36.5374 47.2668 36.7185 47.1685 36.8851L46.9935 37.1417L46.8769 36.9201C46.7602 36.6867 46.5735 36.4301 46.5035 36.4301C46.4802 36.4301 46.4452 36.5001 46.4219 36.6051C46.3635 36.7917 45.9085 37.3401 45.7919 37.3401C45.7569 37.3401 45.7219 37.1884 45.7219 36.9901C45.7219 36.8151 45.6869 36.6517 45.6402 36.6517C45.5935 36.6517 45.5585 36.7101 45.5585 36.7684C45.5585 36.9084 45.1735 37.3517 45.0335 37.3517C44.9869 37.3517 44.8935 37.3984 44.8352 37.4684C44.6952 37.6201 44.5785 37.5967 44.6369 37.4217C44.6532 37.2723 44.6373 37.1211 44.5902 36.9784L44.4735 36.6051C44.4502 36.5467 44.3102 36.5701 44.0069 36.6634C43.5402 36.8151 43.3769 36.7801 43.6219 36.5934C43.7152 36.5234 43.8552 36.2784 43.9252 36.0567C44.0069 35.8234 44.1235 35.6251 44.1819 35.6017C44.2635 35.5784 44.2635 35.6017 44.1585 35.7417C44.091 35.8305 44.0469 35.9348 44.0302 36.0451C44.0302 36.1034 43.9719 36.2551 43.9135 36.3834C43.8435 36.5001 43.7969 36.6167 43.8085 36.6284C43.8202 36.6401 44.0069 36.5701 44.2169 36.4767L44.5902 36.2901V36.4534C44.5902 36.5467 44.6369 36.7801 44.6952 36.9784L44.8002 37.3284L45.0569 37.2117C45.3135 37.0951 45.5585 36.6751 45.5585 36.3367C45.5585 36.1734 45.6519 36.1967 45.6985 36.3717C45.6985 36.4184 45.7685 36.6167 45.8152 36.8034L45.9319 37.1301L46.1069 36.9201C46.2119 36.8034 46.3285 36.5701 46.3752 36.4184C46.4685 36.1384 46.6085 36.0101 46.6085 36.2201C46.6085 36.3601 47.0052 36.8967 47.0752 36.8501C47.1219 36.8267 47.1919 36.6284 47.2502 36.4067C47.3669 35.9401 47.5419 35.6367 47.6585 35.7067C47.7052 35.7301 47.7169 35.7767 47.6935 35.8234C47.6702 35.8467 47.7635 36.1501 47.9035 36.4767C48.005 36.7216 48.1061 36.9666 48.2069 37.2117C48.2535 37.3284 48.3002 37.3284 48.5919 37.0601C48.7669 36.8967 48.9419 36.7217 48.9535 36.6634C48.9885 36.5701 49.0235 36.5817 49.1869 36.6867C49.5308 36.8684 49.9077 36.9795 50.2952 37.0134C50.3185 36.9901 50.3419 36.7801 50.3419 36.5467L50.3535 36.1151L50.5869 36.1617C50.7035 36.1967 50.9719 36.1967 51.1702 36.1617L51.5202 36.1151L51.2052 35.8817C51.0302 35.7651 50.8552 35.6134 50.8085 35.5434C50.7735 35.4734 50.6102 35.4034 50.4352 35.3917C49.9569 35.3451 49.1052 34.8784 49.1052 34.6451C49.1052 34.5984 49.2219 34.6801 49.3619 34.8084C49.6885 35.1001 50.1319 35.2751 50.5285 35.2751H50.8085L50.6335 35.0417C50.5089 34.8608 50.4289 34.6529 50.4002 34.4351C50.3769 34.0851 50.3419 34.0384 49.9802 33.7934C49.7705 33.6448 49.5752 33.4768 49.3969 33.2917L49.1985 33.0701L49.0935 33.3384C49.0352 33.4901 48.9769 33.6067 48.9419 33.6067C48.9185 33.6067 48.8019 33.5134 48.7085 33.4084C48.6429 33.3323 48.5638 33.2691 48.4752 33.2217C48.4402 33.2217 48.3585 33.3617 48.2652 33.5367L48.1019 33.8517L47.9852 33.6767C47.8814 33.5337 47.7642 33.4008 47.6352 33.2801C47.4952 33.1634 47.4369 33.0701 47.4835 33.0701C47.5302 33.0701 47.6819 33.1867 47.8335 33.3384L48.0902 33.6067L48.2069 33.4084C48.2743 33.271 48.2948 33.1152 48.2652 32.9651C48.2185 32.7551 48.2302 32.7434 48.3002 32.8834C48.4008 33.0151 48.5185 33.1328 48.6502 33.2334L48.9069 33.4434L49.0819 33.1284C49.2569 32.8017 49.2569 32.8017 49.3269 33.0001C49.4435 33.2451 50.2019 33.8751 50.8435 34.2367C50.9602 34.2951 50.9135 34.1084 50.7269 33.6534C50.6708 33.5039 50.6393 33.3463 50.6335 33.1867C50.6335 32.9767 50.5752 32.8834 50.3069 32.6734C50.1401 32.5667 50.0005 32.4226 49.8992 32.2525C49.7979 32.0823 49.7378 31.8909 49.7235 31.6934C49.6885 31.4951 49.6185 31.2851 49.5602 31.2151C49.4902 31.0984 49.4669 31.1684 49.4902 31.5184C49.5135 31.7634 49.4785 32.0667 49.4202 32.1951L49.3269 32.4284L49.2569 32.2301C49.2102 32.1251 49.0235 31.9384 48.8485 31.8217C48.6735 31.7051 48.5452 31.5884 48.5685 31.5651C48.5919 31.5417 48.7785 31.6467 48.9769 31.7984C49.2919 32.0434 49.3502 32.0667 49.3969 31.9617C49.4435 31.8451 49.3969 31.3084 49.3035 30.9351C49.2569 30.7484 49.2569 30.7484 49.4902 30.9817C49.6535 31.1451 49.7469 31.3551 49.8285 31.7051C49.9219 32.1484 49.9685 32.2301 50.3769 32.5917C50.6219 32.8134 50.8435 32.9767 50.8552 32.9651C50.8785 32.9417 50.9019 32.3817 50.9252 31.7051C50.9719 30.4101 50.9252 30.0951 50.6102 29.6984L50.4469 29.4884L50.7035 29.2201C50.9911 28.945 51.1832 28.5853 51.2519 28.1934L51.2985 27.8784L51.0185 28.1467C50.7852 28.3684 50.6685 28.4151 50.4002 28.4151C50.1319 28.4151 50.0269 28.3684 49.8519 28.1817C49.5793 27.9193 49.2469 27.7271 48.8835 27.6217C48.7435 27.5751 48.6969 27.5984 48.6969 27.6917C48.6969 27.7617 48.6269 27.9484 48.5335 28.1234L48.3702 28.4267L48.0202 28.0767C47.7985 27.8784 47.5535 27.7034 47.3552 27.6567C46.8769 27.5401 46.8535 27.5401 46.8535 27.9017C46.8535 28.4501 46.6202 28.5551 46.2002 28.1934C45.8735 27.9134 45.6169 27.8434 44.9985 27.9251L44.5319 27.9717L44.6135 28.1817C44.6835 28.3567 44.6719 28.4384 44.5202 28.6367C44.2752 28.9634 43.9602 29.1034 43.4702 29.1034C43.2369 29.1034 42.9569 29.1501 42.8402 29.2084C42.7235 29.2667 42.4202 29.3251 42.1752 29.3484C41.9419 29.3717 41.6735 29.4184 41.5919 29.4417C41.4752 29.4884 41.4752 29.4417 41.5102 29.1851C41.5685 28.7884 41.2769 28.4851 40.8452 28.4851C40.2735 28.4851 40.0169 28.9984 40.2385 29.6751C40.2839 29.821 40.3228 29.969 40.3552 30.1184C40.5084 30.4101 40.7141 30.6712 40.9619 30.8884C41.2652 31.1917 41.5452 31.5067 41.5919 31.5884C41.6858 31.7101 41.8053 31.8096 41.9419 31.8801L42.1985 32.0201L42.1635 31.7401C42.1285 31.4367 42.1869 31.3901 42.3502 31.6117C42.4085 31.6817 42.5602 31.8101 42.6769 31.8801C42.8752 31.9967 42.9102 31.9967 42.9102 31.9034C42.9102 31.8334 42.9452 31.6817 42.9919 31.5651L43.0735 31.3551L43.2252 31.6467C43.3069 31.8101 43.5752 32.1717 43.8202 32.4634C44.2985 33.0117 44.6019 33.6301 44.4502 33.7701C44.3802 33.8284 44.2169 33.8284 43.8669 33.7584C43.6102 33.7117 43.2835 33.6767 43.1435 33.7001C42.8752 33.7351 42.8519 33.7001 43.0269 33.4901C43.2019 33.2567 43.1669 33.2217 42.8169 33.2217C42.4085 33.2217 41.3935 33.0234 40.9969 32.8717C40.6235 32.7201 40.5302 32.7551 40.4135 33.1167L40.2152 33.7701L40.0985 34.1201L40.5185 34.0851C40.7351 34.0624 40.9496 34.0234 41.1602 33.9684C41.2428 33.9409 41.3299 33.929 41.4169 33.9334C41.4402 33.9451 41.3819 34.0851 41.3002 34.2484L41.1369 34.5284L41.3935 34.4817C41.5335 34.4467 41.7435 34.3767 41.8602 34.3184C42.0702 34.2251 42.0935 34.2251 42.2569 34.4934C42.4552 34.8084 42.6069 34.7967 42.6419 34.4584C42.6769 34.1084 42.7935 34.1551 43.0152 34.6217C43.2252 35.0651 43.4352 35.2284 43.4819 34.9717C43.4935 34.8784 43.5985 34.7384 43.7269 34.6451C43.9835 34.4701 44.1702 34.5284 44.2752 34.7967C44.3919 35.0884 44.1352 35.3801 43.4119 35.8234C42.742 36.1932 42.1656 36.7114 41.7268 37.3383C41.288 37.9651 40.9984 38.6841 40.8802 39.4401C40.6585 40.8167 41.3469 42.2401 42.7002 43.2784C43.3535 43.7684 44.3919 44.2817 44.3219 44.0951C44.0419 43.2434 44.0535 41.6451 44.3335 41.3767C44.3802 41.3301 44.3685 41.4934 44.2985 41.7384C44.0652 42.6601 44.1819 43.3834 44.7652 45.0867C45.2785 46.6267 45.2085 47.2917 44.4619 47.7234C44.2285 47.8634 44.0769 47.8867 43.4352 47.8751C42.7352 47.8751 42.6535 47.8751 42.4319 48.0617C42.1638 48.3355 41.9884 48.6864 41.9302 49.0651C41.9302 49.2167 42.0935 49.1934 42.3969 49.0184H42.4085Z" fill="#FFB700"/>
<path d="M53.7252 48.9833L54.0169 48.7966L54.2152 48.9833C54.4719 49.2283 54.7869 49.2166 55.0319 48.9716C55.1485 48.8549 55.2419 48.7849 55.2535 48.7966L55.3585 48.9833C55.4169 49.0883 55.5452 49.1349 55.7785 49.1583C56.0469 49.1699 56.1285 49.1583 56.2452 48.9949L56.3619 48.7966L56.6535 48.9833C57.4469 49.4966 57.8669 48.9599 57.5052 47.8983C57.3302 47.3616 57.4352 47.0583 58.0069 46.3816C58.2519 46.0899 58.4502 45.7749 58.4502 45.6816C58.4502 45.5533 58.4035 45.5299 58.0769 45.5416C57.7735 45.5416 57.6802 45.5066 57.5169 45.3316C57.2485 45.0399 57.2719 44.7016 57.5635 44.3283L57.7969 44.0366L57.3769 43.7566C57.0416 43.509 56.7292 43.2318 56.4435 42.9283C56.1889 42.6277 55.8775 42.3803 55.5272 42.2001C55.1769 42.02 54.7945 41.9106 54.4019 41.8783L53.8535 41.8199V42.2399C53.8535 42.7649 54.1102 43.2783 54.7869 44.1416C55.5569 45.1216 55.6035 45.2733 55.6385 46.5566L55.6735 47.6416L55.4402 47.8516C55.2419 48.0383 55.1602 48.0733 54.5069 48.1083C53.8885 48.1433 53.7485 48.1783 53.5735 48.3416C53.3687 48.491 53.2272 48.7115 53.1769 48.9599C53.1419 49.1349 53.1535 49.1699 53.2819 49.1699C53.3635 49.1699 53.5619 49.0883 53.7252 48.9833ZM37.1352 46.1833C37.2058 46.0797 37.2461 45.9585 37.2519 45.8333C37.2519 45.7166 37.3219 45.6699 37.6252 45.6233L37.9869 45.5766L37.7535 45.3783C37.4619 45.1449 37.4269 44.9699 37.6835 44.9699C37.9402 44.9699 38.3602 44.7133 38.4302 44.5149C38.4652 44.4216 38.4302 44.3049 38.3835 44.2466C38.2435 44.0833 37.9752 44.1066 37.9285 44.2933C37.8702 44.4799 37.7885 44.4799 37.5785 44.2933C37.2869 44.0016 37.2752 43.4066 37.5785 43.0566C37.7069 42.8933 37.7069 42.8933 37.5319 42.7183C37.3452 42.5316 37.2052 42.1816 37.2985 42.0883C37.3219 42.0649 37.4735 42.0883 37.6252 42.1466C37.8585 42.2166 37.9402 42.2166 38.0335 42.1466C38.3019 41.9249 38.0102 41.6449 37.5669 41.7149C37.3802 41.7383 37.3102 41.7149 37.2869 41.6216C37.2635 41.5516 37.1119 41.4583 36.9369 41.4116C36.6219 41.3299 36.6219 41.3299 36.6219 41.5516C36.6219 41.7849 36.4819 41.8316 36.2252 41.6799C36.0152 41.5633 35.8169 41.6566 35.8169 41.8783C35.8169 42.0883 36.0152 42.1816 36.4002 42.1583C36.6802 42.1466 36.6919 42.3566 36.4235 42.6599L36.2252 42.8933L36.3769 43.1149C36.6102 43.4416 36.5869 43.9899 36.3419 44.2699L36.1435 44.4799L36.0152 44.3049C35.8285 44.0716 35.5835 44.0833 35.5135 44.3399C35.4785 44.5033 35.5135 44.5733 35.7235 44.7599C35.8635 44.8766 36.0735 44.9699 36.1785 44.9699C36.4469 44.9699 36.4352 45.1916 36.1552 45.4016L35.9219 45.5766L36.2719 45.6233C36.4585 45.6583 36.6219 45.7049 36.6219 45.7399C36.6219 45.8916 36.8552 46.3466 36.9252 46.3466C36.9719 46.3466 37.0652 46.2649 37.1352 46.1716V46.1833Z" fill="#FFB700"/>
<path d="M41.5919 44.2467C41.9069 44.13 42.5835 43.5467 42.5835 43.4184C42.5835 43.3717 42.3969 43.1617 42.1635 42.9517C41.6969 42.5317 41.1719 41.7967 41.0319 41.3767C40.9619 41.1434 40.6235 40.77 39.6669 39.8367L38.3952 38.6117L38.0335 38.705C37.8235 38.7517 37.5785 38.7984 37.4852 38.7984C37.3102 38.7984 37.3102 38.7984 37.5435 38.985L37.7769 39.1717L38.1269 38.985C38.4419 38.7984 38.4535 38.7984 38.4885 38.95C38.5119 39.0317 38.4652 39.1834 38.3719 39.2884C38.2902 39.3934 38.2435 39.5217 38.2552 39.5567C38.2902 39.5917 38.2085 39.6734 38.0802 39.7434C37.8469 39.86 37.6719 40.245 37.8585 40.245C38.0335 40.245 38.4069 39.7784 38.3602 39.6267C38.3369 39.545 38.3602 39.4634 38.3835 39.44C38.5352 39.3584 38.5235 39.72 38.3835 39.9067C38.2902 40 38.2435 40.1167 38.2669 40.1634C38.2902 40.1984 38.2085 40.28 38.0802 40.35C37.8469 40.4667 37.6719 40.8517 37.8585 40.8517C38.0452 40.8517 38.4069 40.4084 38.3719 40.245C38.3485 40.1634 38.3485 40.07 38.3835 40.0467C38.4885 40 38.5352 40.28 38.4535 40.42C38.4321 40.4594 38.4209 40.5035 38.4209 40.5484C38.4209 40.5932 38.4321 40.6373 38.4535 40.6767C38.5352 40.8284 38.4535 41.1084 38.3019 41.2017C38.2435 41.2367 38.2785 41.3184 38.4419 41.435C38.6752 41.5984 38.6752 41.6217 38.6752 42.3684C38.6752 42.9984 38.6985 43.1617 38.8152 43.2667C38.9319 43.3834 38.9552 43.3834 38.9552 43.2667C38.9552 43.15 39.1885 42.9867 39.3635 42.9867C39.4219 42.9867 39.7602 43.2784 40.1219 43.6284C40.4835 43.9784 40.8685 44.2934 40.9735 44.305L41.2302 44.3517C41.2652 44.3517 41.4285 44.3167 41.5919 44.235V44.2467ZM37.7069 41.2017C37.7069 41.0034 37.2869 40.7817 36.7852 40.735C36.3769 40.6767 36.3769 40.6884 36.3769 40.8867C36.3769 41.05 36.4352 41.12 36.7269 41.2367C37.1702 41.435 37.7069 41.4117 37.7069 41.2017Z" fill="#FFB700"/>
<path d="M38.1619 41.1784C38.3719 40.9917 38.4652 40.7817 38.3369 40.7817C38.1969 40.7817 37.8235 41.1084 37.8235 41.2484C37.8235 41.435 37.8935 41.4234 38.1735 41.1784H38.1619ZM37.7302 40.5834C37.7419 40.4667 37.6719 40.3967 37.4619 40.2917C36.9952 40.0934 36.4585 39.9884 36.3302 40.0934C36.0852 40.2917 36.2485 40.5484 36.6335 40.595C36.7969 40.6067 37.0069 40.6534 37.1119 40.7C37.4152 40.8167 37.6952 40.7584 37.7302 40.5834ZM37.7302 39.965C37.7535 39.8134 37.6485 39.755 36.7969 39.4517C36.1552 39.2184 35.8752 39.335 36.0852 39.72C36.1552 39.8484 36.2719 39.9067 36.5402 39.9534C36.7385 39.9767 37.0069 40.035 37.1352 40.0817C37.4852 40.1984 37.6952 40.1517 37.7185 39.965H37.7302ZM38.1502 39.3934C38.2785 39.265 38.3835 39.1134 38.3835 39.0434C38.3835 38.8684 37.8819 39.195 37.8119 39.4284C37.7419 39.6967 37.8702 39.685 38.1619 39.3934H38.1502ZM37.7302 39.3584C37.7535 39.1717 37.4502 39.0084 36.8435 38.88C36.3885 38.775 36.1902 38.8334 36.2252 39.0434C36.2485 39.16 36.4002 39.2417 36.8085 39.37C37.4969 39.58 37.6952 39.58 37.7302 39.3584ZM38.3135 38.495C39.1069 38.145 39.1652 37.27 38.4302 37.0367C38.1269 36.9434 37.9402 37.0017 37.8235 37.2C37.7302 37.3634 37.7885 37.6434 37.9052 37.6434C37.9519 37.6434 37.9869 37.7017 37.9869 37.76C37.9869 38.075 36.7969 38.2034 36.3069 37.9584C36.1319 37.8767 36.0735 37.6434 36.2019 37.6434C36.3185 37.6434 36.3885 37.41 36.3302 37.2584C36.2602 37.025 36.0269 36.955 35.7119 37.0484C34.9769 37.235 35.0002 38.0984 35.7469 38.4484C36.5729 38.7516 37.477 38.768 38.3135 38.495Z" fill="#FFB700"/>
<path d="M37.8352 37.8184C37.8819 37.7717 37.8586 37.7017 37.7886 37.6551C37.6252 37.5267 37.6369 37.3284 37.8119 37.1067C37.9519 36.9434 37.9636 36.6867 38.0102 34.1784C38.0919 29.8501 38.4186 26.5951 38.8386 25.8017C39.0136 25.4984 38.9902 25.4984 38.5469 25.8017C37.9653 26.2069 37.4957 26.7528 37.1819 27.3884C36.4586 28.7301 36.2136 30.5384 36.2136 34.4117C36.2136 36.6051 36.2252 36.8967 36.3536 37.0951C36.4702 37.3051 36.4702 37.375 36.4002 37.585C36.3419 37.7134 36.3186 37.8534 36.3419 37.8767C36.5052 38.0284 37.6719 37.9934 37.8352 37.8184ZM44.3802 33.6884C44.4152 33.6534 44.3569 33.455 44.2636 33.2684C44.1236 32.965 44.0652 32.9184 43.8669 32.9184C42.934 32.8373 42.0242 32.5841 41.1836 32.1717C40.5886 31.9034 40.3669 31.8451 40.3086 31.9151C40.1219 32.0901 40.4252 32.4984 40.8919 32.7201C41.5786 32.9675 42.298 33.113 43.0269 33.1517C43.3419 33.1517 43.3536 33.1517 43.1669 33.4201L43.0502 33.6067H43.4002L43.9836 33.6767C44.3336 33.7584 44.3336 33.7584 44.3802 33.6884Z" fill="#FFB700"/>
<path d="M48.0669 35.6367C48.0669 35.52 47.7285 35.2283 47.4018 35.03C47.1335 34.8783 47.0869 34.8667 47.0869 34.995C47.0869 35.1817 46.9235 35.66 46.8535 35.66C46.8185 35.66 46.7602 35.5667 46.7369 35.4617C46.7019 35.345 46.5735 35.1117 46.4452 34.96L46.2119 34.6683L46.0485 34.9367C45.8852 35.1933 45.5935 35.4383 45.4652 35.4383C45.4419 35.4383 45.4302 35.2983 45.4652 35.1467C45.4769 34.96 45.4652 34.82 45.4069 34.7967C45.3602 34.7617 45.3135 34.7733 45.3135 34.82C45.3135 34.9133 44.9169 35.3567 44.8469 35.3567C44.8002 35.3567 44.7535 35.24 44.7302 35.0767L44.6369 34.5167C44.6135 34.3767 44.6719 34.47 44.7535 34.75L44.9402 35.2283L45.1268 34.9367C45.2114 34.8161 45.2745 34.6819 45.3135 34.54C45.3135 34.4817 45.3485 34.4583 45.3952 34.4817C45.4419 34.505 45.5002 34.7033 45.5235 34.9133L45.5819 35.31L45.7919 35.0767C45.9018 34.9596 46.0031 34.8349 46.0952 34.7033C46.1769 34.5633 46.1885 34.5633 46.3635 34.7033C46.4569 34.7967 46.6085 34.995 46.7018 35.1583C46.7952 35.3217 46.8769 35.4383 46.8885 35.4267L46.9585 35.0533L47.0052 34.7033C47.0169 34.645 47.6352 35.0533 47.8685 35.2517C48.0085 35.38 48.1485 35.4733 48.1719 35.45C48.1952 35.4267 48.2185 35.24 48.2185 35.0183C48.2185 34.6917 48.1835 34.5983 47.9852 34.4233C47.7518 34.2133 47.7519 34.2133 47.6585 34.365C47.5419 34.5633 47.4135 34.5633 47.4135 34.365C47.4135 34.225 46.9702 33.6767 46.8652 33.6767C46.8302 33.6767 46.7369 33.7933 46.6552 33.945C46.5735 34.0967 46.4802 34.2133 46.4569 34.2133C46.3402 34.2133 45.7219 33.5133 45.7219 33.3967C45.7219 33.3033 45.7685 33.3267 45.8735 33.49C45.9778 33.6432 46.0991 33.7841 46.2352 33.91C46.4685 34.12 46.5619 34.0733 46.6552 33.665C46.6902 33.5483 46.7369 33.455 46.7719 33.455C46.8652 33.455 47.4019 34.0267 47.4719 34.2133L47.5535 34.4L47.6119 34.19C47.6819 33.9333 47.7635 33.9333 47.8802 34.1667C47.9269 34.26 48.1602 34.47 48.3935 34.61L48.8252 34.89L48.9069 34.61C48.9535 34.4583 49.0235 34.3767 49.0469 34.4233C49.0935 34.4817 48.9769 34.9483 48.8952 35.0417C48.8952 35.0533 48.7435 34.9717 48.5919 34.8667L48.3002 34.6567V35.03C48.3002 35.2283 48.2769 35.4733 48.2535 35.5667C48.1952 35.7533 48.0552 35.8 48.0552 35.6367H48.0669ZM45.9085 32.6733C45.3952 32.2533 45.3252 32.16 45.3252 31.95L45.3369 31.74L45.3719 31.9383C45.3952 32.055 45.5352 32.2417 45.6985 32.3817L46.0018 32.615L46.1768 32.405C46.2818 32.2883 46.3635 32.1483 46.3635 32.1017C46.3635 31.9617 46.3869 31.9733 46.7369 32.2767C47.0402 32.545 47.0519 32.545 47.0869 32.37C47.1219 32.2767 47.1102 32.09 47.0869 31.9617C46.9702 31.6117 46.9935 31.565 47.1452 31.775L47.4252 32.1017C47.5419 32.23 47.5535 32.23 47.6002 32.0667C47.6352 31.9617 47.6585 31.7867 47.6585 31.67V31.4483L47.9268 31.7633C48.1952 32.0667 48.2185 32.0783 48.2885 31.9267C48.3469 31.845 48.3819 31.6467 48.3819 31.495C48.3819 31.285 48.4052 31.2383 48.4518 31.3083C48.5452 31.4483 48.4869 31.7983 48.3235 32.1017L48.2069 32.335L48.0552 32.09C47.8569 31.7867 47.7869 31.7867 47.6702 32.1133C47.5535 32.4283 47.4719 32.4517 47.3552 32.2067C47.2852 32.055 47.2619 32.0783 47.2152 32.405L47.1569 32.755L46.8069 32.4867L46.4569 32.2183L46.2819 32.3933C46.2002 32.4983 46.1302 32.6267 46.1302 32.6733C46.1302 32.79 46.0369 32.79 45.9085 32.6733ZM50.4585 31.0867C50.2835 30.9233 50.1552 30.76 50.1785 30.7367C50.2135 30.7017 50.2369 30.69 50.2485 30.7133C50.3615 30.8337 50.4782 30.9504 50.5985 31.0633C50.9952 31.4833 50.9135 31.495 50.4702 31.0867H50.4585ZM44.3919 30.4567C44.2285 30.2233 44.2402 30.0833 44.4502 29.8267C44.5902 29.6517 44.6602 29.6283 44.9169 29.6633C45.0919 29.675 45.4535 29.8267 45.7219 29.99C46.1096 30.2217 46.5535 30.3427 47.0052 30.34L46.8069 30.0133C46.5502 29.6283 46.5502 29.5817 46.8535 29.815C47.1569 30.06 47.5185 30.13 48.3352 30.1067L48.7319 30.095L48.4985 29.8617C48.1835 29.5467 48.2769 29.5117 48.6385 29.8267C48.9652 30.1183 48.9535 30.1417 48.2419 30.2117C47.9451 30.2416 47.6454 30.2219 47.3552 30.1533C46.9585 30.0367 46.9352 30.0483 47.0169 30.1767C47.0635 30.2583 47.1335 30.3167 47.1685 30.3167C47.2152 30.3167 47.2502 30.3633 47.2502 30.41C47.2502 30.5617 46.3869 30.4217 45.9669 30.2233C45.0335 29.745 44.9169 29.6983 44.6835 29.7683C44.6214 29.7922 44.5646 29.8283 44.5165 29.8743C44.4685 29.9204 44.43 29.9756 44.4035 30.0367C44.2519 30.4217 44.8002 30.725 45.0219 30.3867C45.0919 30.2817 45.0802 30.2233 44.9635 30.095C44.8002 29.9317 44.8235 29.9083 45.0335 29.9783C45.1852 30.0367 45.1969 30.3983 45.0569 30.5383C44.9052 30.69 44.5319 30.655 44.3919 30.4567Z" fill="black"/>
<path d="M48.1135 29.5116C47.9969 29.395 48.0902 29.3716 48.6152 29.36C49.2685 29.3483 49.6652 29.2433 50.1319 28.94C50.5052 28.7066 50.6102 28.7533 50.2485 28.9983C49.9335 29.2316 49.4319 29.395 48.9302 29.4416L48.3352 29.5233C48.2419 29.5466 48.1369 29.535 48.1019 29.5116H48.1135Z" fill="black"/>
</g>
<defs>
<clipPath id="clip0_1_66736">
<rect width="74.6667" height="56" fill="white" transform="translate(0 9.375)"/>
</clipPath>
</defs>
</svg>
