<svg width="75" height="75" viewBox="0 0 75 75" fill="none" xmlns="http://www.w3.org/2000/svg">
<rect width="74.6667" height="74.75" fill="white"/>
<g clip-path="url(#clip0_1_67015)">
<path fill-rule="evenodd" clip-rule="evenodd" d="M0 9.375H83.9891V65.375H0V9.375Z" fill="white"/>
<path fill-rule="evenodd" clip-rule="evenodd" d="M0 9.375H25.4516V34.8375H0V9.375Z" fill="#000066"/>
<path fill-rule="evenodd" clip-rule="evenodd" d="M0 60.2234H83.9891V65.375H0V60.2234Z" fill="#CC0000"/>
<path fill-rule="evenodd" clip-rule="evenodd" d="M0 60.2781H83.9891V65.375H0V60.2781ZM0 50.1172H83.9891V55.1703H0V50.1172ZM0 39.9234H83.7812V45.0312H0V39.9234ZM25.4516 9.375H83.9781V14.4609H25.4516V9.375ZM25.4516 29.7188H83.9781V34.8375H25.4516V29.7188ZM25.4516 19.5797H83.9781V24.6656H25.4516V19.5797Z" fill="#CC0000"/>
<path fill-rule="evenodd" clip-rule="evenodd" d="M18.1891 28.789L12.6437 25.3984L7.13124 28.8218L9.17655 23.2546L3.67499 19.8203L10.4891 19.7765L12.6 14.2312L14.7656 19.7656H21.5797L16.1 23.2328L18.1891 28.789Z" fill="white"/>
</g>
<defs>
<clipPath id="clip0_1_67015">
<rect width="74.6667" height="56" fill="white" transform="translate(0 9.375)"/>
</clipPath>
</defs>
</svg>
