<svg width="75" height="75" viewBox="0 0 75 75" fill="none" xmlns="http://www.w3.org/2000/svg">
<rect width="74.6667" height="74.75" fill="white"/>
<g clip-path="url(#clip0_1_67771)">
<path d="M0 9.375H74.6667V65.375H0V9.375Z" fill="white"/>
<path d="M6.10352e-05 48.575H74.6667V65.375H6.10352e-05V48.575Z" fill="#009543"/>
<path d="M0 9.375H74.6667V26.175H0V9.375Z" fill="#00209F"/>
<path d="M37.2867 27.225C36.9717 27.225 36.6567 27.575 36.6567 27.575L36.6917 31.355L35.49 32.6033H36.4584V34.7616L30.7417 42.4616L29.9017 42.1583L28.42 45.3083C28.42 45.3083 32.0717 47.595 37.3684 47.525C43.1784 47.4666 46.34 45.2033 46.34 45.2033L44.8234 42.1L44.065 42.4266L38.2784 34.7733V32.545H39.235L37.9284 31.3083V27.5516C37.9284 27.5516 37.6134 27.2016 37.2867 27.2133V27.225Z" fill="black" stroke="black" stroke-width="0.186667"/>
<path d="M39.2817 36.255H35.3267C35.3267 36.255 33.9034 33.2333 34.1251 31.1216C34.3584 28.975 35.5951 27.96 37.2284 27.9366C39.1651 27.925 40.1684 28.8816 40.4717 31.04C40.7751 33.175 39.2817 36.255 39.2817 36.255V36.255Z" stroke="black" stroke-width="0.933333"/>
<path d="M30.3917 43.4533C30.3217 43.535 29.8434 44.4916 29.8434 44.4916L30.66 44.3166L30.3917 43.4533ZM30.8584 44.6783L29.9951 44.9583L31.0334 45.3666L30.8584 44.6783ZM31.2434 43.4766L31.6751 44.7483L32.7251 44.445L32.4567 43.8383L31.2434 43.4766ZM31.9201 45.2033L32.06 45.7166L33.46 46.0666L32.9001 44.8766L31.9201 45.2033ZM33.46 44.1183L33.9617 45.3083L35.0117 44.9L34.6617 44.375L33.46 44.1183ZM34.16 45.74L34.3234 46.1833L35.9567 46.4166L35.2684 45.3433L34.1484 45.74H34.16ZM35.7234 44.4566L36.33 45.5183L37.8467 44.9583L37.6834 44.55L35.7234 44.4683V44.4566ZM36.61 45.9033L36.9251 46.4633L38.8151 46.405L38.1151 45.355L36.5984 45.9033H36.61ZM38.605 44.5033L39.1184 45.39L40.3317 44.8066L40.005 44.34L38.605 44.5033ZM40.5884 45.18L39.3867 45.775L39.7017 46.3L41.3117 46.0433L40.5884 45.18ZM40.9734 44.2466L41.5917 45.0283L42.6067 44.2233L42.2567 43.8733L40.9734 44.2466ZM42.8284 44.655L41.86 45.39L42.1167 45.845L43.4467 45.495L42.8284 44.655ZM44.1584 43.1383L44.3917 43.4766L43.7267 44.4683L43.0384 43.5816L44.1584 43.1383ZM44.6134 43.99L45.0217 44.8066L44.205 45.0866L44.135 44.7016L44.6017 44.0016L44.6134 43.99Z" fill="white"/>
</g>
<defs>
<clipPath id="clip0_1_67771">
<rect width="74.6667" height="56" fill="white" transform="translate(0 9.375)"/>
</clipPath>
</defs>
</svg>
