<svg width="75" height="75" viewBox="0 0 75 75" fill="none" xmlns="http://www.w3.org/2000/svg">
<rect width="74.6667" height="74.75" fill="white"/>
<g clip-path="url(#clip0_1_68028)">
<path d="M-18.6666 9.375H93.3334V65.375H-18.6666V9.375Z" fill="#239E46"/>
<path d="M-18.6666 9.375H93.3334V51.375H-18.6666V9.375Z" fill="black"/>
<path d="M-18.6666 9.375H93.3334V23.375H-18.6666V9.375Z" fill="#E70013"/>
<path d="M42.2837 32.4246C41.3743 31.7757 40.3038 31.3898 39.1895 31.3092C38.0752 31.2287 36.9603 31.4566 35.967 31.9681C34.9738 32.4795 34.1406 33.2546 33.5589 34.2084C32.9772 35.1622 32.6695 36.2578 32.6695 37.375C32.6695 38.4922 32.9772 39.5878 33.5589 40.5416C34.1406 41.4954 34.9738 42.2705 35.967 42.7819C36.9603 43.2934 38.0752 43.5213 39.1895 43.4408C40.3038 43.3602 41.3743 42.9743 42.2837 42.3254C41.3047 43.3042 40.0574 43.9707 38.6996 44.2406C37.3418 44.5106 35.9344 44.3719 34.6554 43.842C33.3764 43.3121 32.2833 42.4149 31.5142 41.2638C30.7451 40.1127 30.3346 38.7594 30.3346 37.375C30.3346 35.9906 30.7451 34.6373 31.5142 33.4862C32.2833 32.3351 33.3764 31.4379 34.6554 30.908C35.9344 30.3782 37.3418 30.2394 38.6996 30.5094C40.0574 30.7793 41.3047 31.4458 42.2837 32.4246ZM40.7381 37.375L50.1573 34.3174L44.3333 42.3254V32.4246L50.1573 40.4326L40.7381 37.375Z" fill="white"/>
</g>
<defs>
<clipPath id="clip0_1_68028">
<rect width="74.6667" height="56" fill="white" transform="translate(0 9.375)"/>
</clipPath>
</defs>
</svg>
