<svg width="75" height="75" viewBox="0 0 75 75" fill="none" xmlns="http://www.w3.org/2000/svg">
<rect width="74.6667" height="74.75" fill="white"/>
<g clip-path="url(#clip0_1_67977)">
<path fill-rule="evenodd" clip-rule="evenodd" d="M0 9.375H24.885V65.375H0V9.375Z" fill="#00319C"/>
<path fill-rule="evenodd" clip-rule="evenodd" d="M24.8851 9.375H49.7817V65.375H24.8851V9.375Z" fill="#FFDE00"/>
<path fill-rule="evenodd" clip-rule="evenodd" d="M49.7818 9.375H74.6668V65.375H49.7818V9.375Z" fill="#DE2110"/>
<path fill-rule="evenodd" clip-rule="evenodd" d="M42.0467 46.755L44.8701 50.8383C45.0334 51.0716 45.1851 51.2933 44.9517 51.445C44.7184 51.5966 44.7884 52.1916 44.9517 52.425C45.2667 52.88 45.6517 52.95 45.8851 52.7983L48.0317 51.445C48.2651 51.305 48.3467 50.92 48.0317 50.465C47.8567 50.2316 47.3317 49.94 47.0984 50.0916C46.8534 50.2433 46.6901 50.01 46.5384 49.7883L43.7034 45.705" fill="#FF1900"/>
<path d="M42.0467 46.755L44.8701 50.8383C45.0334 51.0716 45.1851 51.2933 44.9517 51.445C44.7184 51.5966 44.7884 52.1916 44.9517 52.425C45.2667 52.88 45.6517 52.95 45.8851 52.7983L48.0317 51.445C48.2651 51.305 48.3467 50.92 48.0317 50.465C47.8567 50.2316 47.3317 49.94 47.0984 50.0916C46.8534 50.2433 46.6901 50.01 46.5384 49.7883L43.7034 45.705" stroke="black" stroke-width="0.0816667"/>
<path fill-rule="evenodd" clip-rule="evenodd" d="M43.1549 43.8768C44.4177 45.3111 44.857 46.9556 44.1372 47.5342C43.4175 48.1128 41.7971 47.4177 40.5344 45.9834C39.2716 44.5491 38.8385 42.8996 39.5582 42.321C40.278 41.7425 41.8932 42.4317 43.1611 43.8719L43.1549 43.8768Z" fill="#A77B3B" stroke="black" stroke-width="0.196555"/>
<path fill-rule="evenodd" clip-rule="evenodd" d="M30.5667 45.0867L28.0584 49.3683C27.9184 49.6017 27.7784 49.835 27.5334 49.7183C27.2884 49.5783 26.7634 49.9167 26.6234 50.1617C26.3434 50.6283 26.4484 51.0017 26.7051 51.1417L28.9451 52.3317C29.1784 52.46 29.5751 52.355 29.8551 51.8883C29.9834 51.6317 30.0184 51.0367 29.7734 50.9083C29.5284 50.78 29.6567 50.535 29.8084 50.3017L32.3051 46.02" fill="#FF1900"/>
<path d="M30.5667 45.0867L28.0584 49.3683C27.9184 49.6017 27.7784 49.835 27.5334 49.7183C27.2884 49.5783 26.7634 49.9167 26.6234 50.1617C26.3434 50.6283 26.4484 51.0017 26.7051 51.1417L28.9451 52.3317C29.1784 52.46 29.5751 52.355 29.8551 51.8883C29.9834 51.6317 30.0184 51.0367 29.7734 50.9083C29.5284 50.78 29.6567 50.535 29.8084 50.3017L32.3051 46.02" stroke="black" stroke-width="0.0816667"/>
<path fill-rule="evenodd" clip-rule="evenodd" d="M38.6401 42.1117H36.3534C36.2834 42.1817 35.6301 46.265 34.9301 47.8283C34.0784 49.73 31.5234 51.41 31.5234 51.41C31.5234 51.41 33.0518 51.8767 33.5068 52.18C33.6234 52.145 36.0734 51.6317 36.3534 48.645C36.6334 51.6317 34.6501 52.9967 34.6501 52.9967C34.6501 52.9967 37.4968 53.8133 37.4968 55.715C37.4968 53.8133 40.3434 52.9967 40.3434 52.9967C40.3434 52.9967 38.9201 51.6317 38.6284 48.645C39.2118 51.6317 41.3701 52.145 41.4868 52.18C41.9418 51.8767 43.4701 51.41 43.4701 51.41C43.4701 51.41 40.9151 49.73 40.0634 47.8283C39.3634 46.265 38.7101 42.1817 38.6401 42.1117ZM28.9568 28.4967L33.2268 29.8617C34.6384 29.8617 36.0734 28.4967 36.0734 27.1317C36.1201 24.0983 34.9301 23.0483 34.6501 23.0483L35.2101 22.5117L34.3584 21.695C34.3584 21.695 34.6501 20.2833 37.4968 20.33C40.3434 20.3883 40.3434 21.695 40.3434 23.0483C40.3434 24.4017 38.9201 24.4133 38.9201 27.1317C38.9201 28.4967 40.3434 29.8617 41.7668 29.8617L46.0368 28.4967V42.1117H28.9451V28.4967H28.9568Z" fill="#A77B3B" stroke="black" stroke-width="0.198333"/>
<path d="M35.4997 29.0416L35.7837 29.8602L36.0696 29.0416L36.3536 29.8602L36.9235 29.0416L37.2016 29.9038L37.4934 29.0416L37.9135 29.9038L38.3473 29.0416L38.6313 29.8602L38.9172 29.0416" stroke="black" stroke-width="0.0162895"/>
<path d="M36.6423 26.0518L36.0715 29.0476M36.9237 26.0518V29.0476M37.4944 26.0518V29.0476M38.0652 26.0518L38.3465 29.0476M38.6359 26.0518L38.9173 29.0476" stroke="black" stroke-width="0.0157165"/>
<path fill-rule="evenodd" clip-rule="evenodd" d="M26.0939 20.3365C23.2481 21.6962 23.2481 24.4232 23.2481 25.7829C23.3446 27.0196 23.2481 52.9991 23.2481 52.9991C23.2481 52.9991 23.433 51.4627 24.671 50.2797L26.0858 48.9201L27.5087 47.5604C28.5538 46.654 28.9316 44.8334 28.9316 43.4738V24.4232C28.9316 24.4232 28.9316 23.0559 26.0858 20.3365H26.0939Z" fill="#A77B3B" stroke="black" stroke-width="0.196457"/>
<path d="M28.9396 25.7829C28.9075 25.7829 27.5168 24.4232 27.5168 24.4232L26.0939 25.7829L24.671 24.4232L23.2481 25.7829" stroke="black" stroke-width="0.196457"/>
<path d="M28.9396 27.1388C28.9075 27.1388 27.5168 28.4984 27.5168 28.4984L26.0939 27.1388L24.671 28.4984L23.2481 27.1388" stroke="black" stroke-width="0.196457"/>
<path d="M28.9396 31.2195C28.9075 31.2195 27.5168 29.8599 27.5168 29.8599L26.0939 31.2195L24.671 29.8599L23.2481 31.2195" stroke="black" stroke-width="0.196457"/>
<path d="M27.5007 24.4197L27.5167 47.5615" stroke="black" stroke-width="0.27059"/>
<path d="M26.1007 25.78L26.1167 48.8656" stroke="black" stroke-width="0.256352"/>
<path d="M24.6774 24.4258L24.6934 50.2869" stroke="black" stroke-width="0.271325"/>
<path fill-rule="evenodd" clip-rule="evenodd" d="M48.8879 20.3365C51.7337 21.6962 51.7337 24.4232 51.7337 25.7829C51.6372 27.0196 51.7337 52.9991 51.7337 52.9991C51.7337 52.9991 51.5488 51.4627 50.3108 50.2797L48.8959 48.9201L47.473 47.5604C46.428 46.654 46.0502 44.8334 46.0502 43.4738V24.4232C46.0502 24.4232 46.0502 23.0559 48.8959 20.3365H48.8879Z" fill="#A77B3B" stroke="black" stroke-width="0.196457"/>
<path d="M46.0421 25.7829C46.0743 25.7829 47.465 24.4232 47.465 24.4232L48.8879 25.7829L50.3108 24.4232L51.7337 25.7829" stroke="black" stroke-width="0.196457"/>
<path d="M46.0421 27.1388C46.0743 27.1388 47.465 28.4984 47.465 28.4984L48.8879 27.1388L50.3108 28.4984L51.7337 27.1388" stroke="black" stroke-width="0.196457"/>
<path d="M46.0421 31.2195C46.0743 31.2195 47.465 29.8599 47.465 29.8599L48.8879 31.2195L50.3108 29.8599L51.7337 31.2195" stroke="black" stroke-width="0.196457"/>
<path d="M47.4811 24.4197L47.465 47.5615" stroke="black" stroke-width="0.27059"/>
<path d="M48.8928 25.78L48.8767 48.8656" stroke="black" stroke-width="0.256352"/>
<path d="M50.3161 24.4258L50.3 50.2869" stroke="black" stroke-width="0.271325"/>
<path fill-rule="evenodd" clip-rule="evenodd" d="M33.7488 44.7098C32.9944 46.44 31.6667 47.5674 30.7985 47.2218C29.9303 46.8761 29.8332 45.1814 30.5876 43.4513C31.3421 41.7211 32.6771 40.5966 33.5454 40.9423C34.4136 41.2879 34.5137 42.9755 33.7562 44.7128L33.7488 44.7098Z" fill="#A77B3B" stroke="black" stroke-width="0.196508"/>
<path fill-rule="evenodd" clip-rule="evenodd" d="M28.9451 29.8617H46.0368V38.0284H28.9451V29.8617Z" fill="#FF0000"/>
<path fill-rule="evenodd" clip-rule="evenodd" d="M28.9451 38.0283H46.0367V42.1117C46.0367 44.83 41.7667 44.83 37.4967 47.5483C33.2151 44.8417 28.9334 44.8417 28.9334 42.1117V38.0283H28.9451Z" fill="#564DFF"/>
<path d="M28.9491 29.8618H46.0398V42.1218C46.0398 44.8411 41.7712 44.8411 37.4944 47.5681C33.2258 44.8411 28.9491 44.8411 28.9491 42.1141V29.8695V29.8618Z" stroke="#FFFF00" stroke-width="0.157165"/>
<path fill-rule="evenodd" clip-rule="evenodd" d="M34.3573 30.4055C34.3573 30.4055 31.5099 32.4074 31.5099 34.3227C31.5099 36.238 34.498 36.8801 34.498 36.8801C34.498 36.8801 33.5019 36.8801 33.5019 39.4338C33.5019 40.7143 36.49 40.0758 36.49 40.7143C36.49 41.3527 36.4506 42.8965 36.49 43.9101C36.49 44.5485 34.498 43.9101 34.498 44.5485C34.498 44.8659 35.9948 46.4638 37.4917 46.4638C38.9886 46.4638 40.4798 44.8659 40.4798 44.5485C40.4798 43.9101 38.4877 44.5485 38.4877 43.9101V40.7143C38.4877 40.0758 41.4758 40.7143 41.4758 39.4338C41.4758 36.8801 40.4798 36.8801 40.4798 36.8801C40.4798 36.8801 43.4735 36.2416 43.4735 34.3227C43.4735 32.4038 40.6205 30.4055 40.6205 30.4055C40.6205 30.4055 42.2243 33.0458 42.2243 34.3227C42.2243 34.9611 41.4758 36.2416 39.4838 36.2416C39.4838 36.2416 38.9773 35.5996 38.4877 36.2416C38.4877 36.2416 37.9137 35.5996 37.4917 36.2416C37.3454 36.458 37.0865 35.5996 36.49 36.2416C36.2424 36.4111 36.0399 35.5996 35.494 36.2416C34.498 36.2416 32.5059 35.5996 32.5059 34.3227C32.5059 33.0458 34.3573 30.4055 34.3573 30.4055Z" fill="#FFFF00" stroke="black" stroke-width="0.112632"/>
<path fill-rule="evenodd" clip-rule="evenodd" d="M34.4157 41.8404C34.2132 41.9702 34.6746 44.0515 34.8096 44.1416C35.0122 44.2679 36.2108 44.2679 36.4078 44.1416C36.5485 44.0515 36.4078 42.0965 36.2108 41.9702C36.0083 41.8404 34.5564 41.7538 34.4101 41.8404H34.4157Z" fill="#FFFF00" stroke="black" stroke-width="0.112632"/>
<path fill-rule="evenodd" clip-rule="evenodd" d="M40.5777 41.8404C40.7803 41.9702 40.3189 44.0515 40.1838 44.1416C39.9812 44.2679 38.7826 44.2679 38.5857 44.1416C38.445 44.0515 38.5857 42.0965 38.7826 41.9702C38.9852 41.8404 40.4371 41.7538 40.5834 41.8404H40.5777Z" fill="#FFFF00" stroke="black" stroke-width="0.112632"/>
<path fill-rule="evenodd" clip-rule="evenodd" d="M36.4647 41.0813C36.4647 41.2721 36.3557 41.4551 36.1616 41.59C35.9676 41.7249 35.7043 41.8007 35.4299 41.8007C35.1554 41.8007 34.8922 41.7249 34.6981 41.59C34.504 41.4551 34.395 41.2721 34.395 41.0813C34.395 40.8905 34.504 40.7075 34.6981 40.5725C34.8922 40.4376 35.1554 40.3618 35.4299 40.3618C35.7043 40.3618 35.9676 40.4376 36.1616 40.5725C36.3557 40.7075 36.4647 40.8905 36.4647 41.0813Z" fill="#FFFF00" stroke="black" stroke-width="0.134823"/>
<path fill-rule="evenodd" clip-rule="evenodd" d="M40.5835 41.0817C40.5835 41.2725 40.4745 41.4555 40.2804 41.5904C40.0864 41.7253 39.8231 41.8011 39.5487 41.8011C39.2742 41.8011 39.0109 41.7253 38.8169 41.5904C38.6228 41.4555 38.5138 41.2725 38.5138 41.0817C38.5138 40.8908 38.6228 40.7078 38.8169 40.5729C39.0109 40.438 39.2742 40.3622 39.5487 40.3622C39.8231 40.3622 40.0864 40.438 40.2804 40.5729C40.4745 40.7078 40.5835 40.8908 40.5835 41.0817Z" fill="#FFFF00" stroke="black" stroke-width="0.134826"/>
<path fill-rule="evenodd" clip-rule="evenodd" d="M39.2934 45.2501C39.2934 45.4251 39.0601 45.5651 38.7917 45.5651C38.5117 45.5651 38.2901 45.4251 38.2901 45.2501C38.2901 45.0751 38.5234 44.9351 38.7917 44.9351C39.0601 44.9351 39.2934 45.0751 39.2934 45.2501ZM36.6917 45.2501C36.6917 45.4251 36.4701 45.5651 36.2017 45.5651C35.9217 45.5651 35.7001 45.4251 35.7001 45.2501C35.7001 45.0751 35.9217 44.9351 36.2017 44.9351C36.4701 44.9351 36.6917 45.0751 36.6917 45.2501Z" fill="black"/>
<path fill-rule="evenodd" clip-rule="evenodd" d="M37.4952 35.0421L36.8834 34.2702L35.8796 34.3976L36.0207 33.4383L35.2129 32.8613L36.0207 32.2767L35.8796 31.3174L36.8834 31.4523L37.4952 30.6804L38.1069 31.4523L39.103 31.3174L38.9697 32.2767L39.7696 32.8613L38.9697 33.4458L39.103 34.3976L38.0991 34.2702L37.4952 35.0421Z" fill="#FFFF00" stroke="black" stroke-width="0.084333"/>
<path fill-rule="evenodd" clip-rule="evenodd" d="M41.7631 38.0275L43.4754 38.8495L45.1877 38.0275L43.4754 37.2133L41.7711 38.0275H41.7631Z" fill="#FFFF00" stroke="black" stroke-width="0.086441"/>
<path fill-rule="evenodd" clip-rule="evenodd" d="M29.5131 38.0275L31.2254 38.8495L32.9377 38.0275L31.2254 37.2133L29.5211 38.0275H29.5131Z" fill="#FFFF00" stroke="black" stroke-width="0.086441"/>
<path fill-rule="evenodd" clip-rule="evenodd" d="M44.4059 42.8983C43.8816 42.5659 42.9986 42.7316 42.5036 43.0032C42.0087 43.2748 41.5137 43.5464 41.4471 44.5308C40.8786 43.5849 41.3264 42.7103 42.0792 42.2971C42.4785 42.1095 42.9357 42.0678 43.3649 42.1797C43.7941 42.2917 44.1657 42.5496 44.4099 42.905L44.4059 42.8983Z" fill="#FFFF00" stroke="black" stroke-width="0.0864746"/>
<path fill-rule="evenodd" clip-rule="evenodd" d="M32.6447 41.2946C32.6447 41.4382 32.585 41.576 32.4787 41.6775C32.3725 41.7791 32.2283 41.8362 32.078 41.8362C31.9277 41.8362 31.7835 41.7791 31.6772 41.6775C31.571 41.576 31.5112 41.4382 31.5112 41.2946C31.5112 41.151 31.571 41.0132 31.6772 40.9117C31.7835 40.8101 31.9277 40.7531 32.078 40.7531C32.2283 40.7531 32.3725 40.8101 32.4787 40.9117C32.585 41.0132 32.6447 41.151 32.6447 41.2946Z" fill="#FFFF00" stroke="black" stroke-width="0.086441"/>
<path fill-rule="evenodd" clip-rule="evenodd" d="M32.073 43.1962C32.073 43.3399 32.0133 43.4776 31.907 43.5792C31.8007 43.6807 31.6566 43.7378 31.5063 43.7378C31.356 43.7378 31.2118 43.6807 31.1055 43.5792C30.9992 43.4776 30.9395 43.3399 30.9395 43.1962C30.9395 43.0526 30.9992 42.9148 31.1055 42.8133C31.2118 42.7117 31.356 42.6547 31.5063 42.6547C31.6566 42.6547 31.8007 42.7117 31.907 42.8133C32.0133 42.9148 32.073 43.0526 32.073 43.1962Z" fill="#FFFF00" stroke="black" stroke-width="0.086441"/>
<path fill-rule="evenodd" clip-rule="evenodd" d="M31.793 42.1113C31.793 42.2549 31.7333 42.3926 31.627 42.4942C31.5208 42.5958 31.3766 42.6528 31.2263 42.6528C31.076 42.6528 30.9318 42.5958 30.8255 42.4942C30.7193 42.3926 30.6595 42.2549 30.6595 42.1113C30.6595 41.9676 30.7193 41.8299 30.8255 41.7283C30.9318 41.6268 31.076 41.5697 31.2263 41.5697C31.3766 41.5697 31.5208 41.6268 31.627 41.7283C31.7333 41.8299 31.793 41.9676 31.793 42.1113Z" fill="#FFFF00" stroke="black" stroke-width="0.086441"/>
<path fill-rule="evenodd" clip-rule="evenodd" d="M33.2164 43.1962C33.2164 43.3399 33.1567 43.4776 33.0504 43.5792C32.9441 43.6807 32.8 43.7378 32.6496 43.7378C32.4993 43.7378 32.3552 43.6807 32.2489 43.5792C32.1426 43.4776 32.0829 43.3399 32.0829 43.1962C32.0829 43.0526 32.1426 42.9148 32.2489 42.8133C32.3552 42.7117 32.4993 42.6547 32.6496 42.6547C32.8 42.6547 32.9441 42.7117 33.0504 42.8133C33.1567 42.9148 33.2164 43.0526 33.2164 43.1962Z" fill="#FFFF00" stroke="black" stroke-width="0.086441"/>
<path fill-rule="evenodd" clip-rule="evenodd" d="M33.4964 42.1113C33.4964 42.2549 33.4367 42.3926 33.3304 42.4942C33.2241 42.5958 33.0799 42.6528 32.9296 42.6528C32.7793 42.6528 32.6352 42.5958 32.5289 42.4942C32.4226 42.3926 32.3629 42.2549 32.3629 42.1113C32.3629 41.9676 32.4226 41.8299 32.5289 41.7283C32.6352 41.6268 32.7793 41.5697 32.9296 41.5697C33.0799 41.5697 33.2241 41.6268 33.3304 41.7283C33.4367 41.8299 33.4964 41.9676 33.4964 42.1113Z" fill="#FFFF00" stroke="black" stroke-width="0.086441"/>
<path fill-rule="evenodd" clip-rule="evenodd" d="M32.6447 42.3796C32.6447 42.5232 32.585 42.6609 32.4787 42.7625C32.3725 42.8641 32.2283 42.9211 32.078 42.9211C31.9277 42.9211 31.7835 42.8641 31.6772 42.7625C31.571 42.6609 31.5112 42.5232 31.5112 42.3796C31.5112 42.2359 31.571 42.0982 31.6772 41.9966C31.7835 41.8951 31.9277 41.838 32.078 41.838C32.2283 41.838 32.3725 41.8951 32.4787 41.9966C32.585 42.0982 32.6447 42.2359 32.6447 42.3796Z" fill="#FFFF00" stroke="black" stroke-width="0.086441"/>
<path fill-rule="evenodd" clip-rule="evenodd" d="M34.7433 23.4217C33.2966 23.4217 33.11 23.6551 32.4566 23.8767C32.4566 23.2467 34.0666 22.5117 35.49 22.5117C35.49 22.9667 35.1166 23.4217 34.7433 23.4217Z" fill="#DA4500"/>
<path fill-rule="evenodd" clip-rule="evenodd" d="M36.925 21.975C36.925 22.2666 36.6683 22.5116 36.3533 22.5116C36.0383 22.5116 35.7816 22.2666 35.7816 21.9633C35.7816 21.66 36.0383 21.4266 36.3533 21.4266C36.6683 21.4266 36.925 21.66 36.925 21.9633V21.975Z" fill="#CAC9C7"/>
<path fill-rule="evenodd" clip-rule="evenodd" d="M30.9427 20.0677V20.882H32.3656V24.961H33.2258V20.882H34.6487V20.0677H33.2258V18.9769H32.3576V20.0677H30.9347H30.9427Z" fill="#FFFF00" stroke="black" stroke-width="0.086441"/>
<path fill-rule="evenodd" clip-rule="evenodd" d="M35.5016 22.5117C34.3436 22.4456 33.1836 22.6 32.0833 22.9667C32.0833 22.1267 33.0633 21.1467 34.7433 21.1467C35.1166 21.1467 35.5016 22.0567 35.5016 22.5117Z" fill="#DA4500"/>
<path fill-rule="evenodd" clip-rule="evenodd" d="M20.6803 36.9654C20.2703 36.0816 20.2798 35.7996 21.0092 36.8107L29.7947 53.4665L29.5258 53.5423L20.6848 36.9688L20.6803 36.9654Z" fill="#008500" stroke="black" stroke-width="0.0299634"/>
<path fill-rule="evenodd" clip-rule="evenodd" d="M26.6467 47.9217C26.74 46.685 24.4767 45.355 24.3834 45.4367C24.3017 45.53 24.5234 46.2534 24.955 46.615C24.1384 46.195 23.275 45.9384 23.2517 46.1134C23.1817 46.37 24.535 46.9534 24.6517 47.1867C24.6517 47.35 23.6484 47.3267 23.6717 47.49C23.695 47.6534 26.5067 49.0767 26.6467 47.9217ZM24.3834 44.3284C24.4767 43.0917 22.2134 41.7617 22.1317 41.8434C22.0384 41.925 22.26 42.6484 22.6917 43.0217C21.875 42.6017 21.0117 42.3334 20.9884 42.52C20.93 42.765 22.2717 43.36 22.3884 43.5934C22.4 43.7567 21.3967 43.7334 21.4084 43.8967C21.4317 44.06 24.2434 45.4717 24.3834 44.3284ZM22.6567 41.0617C22.75 39.825 20.4867 38.495 20.3934 38.5767C20.3117 38.6584 20.5334 39.3817 20.965 39.755C20.1484 39.335 19.285 39.0667 19.2617 39.2534C19.2034 39.4984 20.545 40.0934 20.6617 40.3267C20.6617 40.49 19.67 40.4667 19.6817 40.63C19.705 40.7934 22.5167 42.2167 22.6567 41.0617ZM20.9534 37.515C21.035 36.29 18.7834 34.9484 18.69 35.03C18.5967 35.1234 18.83 35.8467 19.25 36.22C18.4334 35.7884 17.57 35.5317 17.5584 35.7184C17.4884 35.9634 18.8417 36.5584 18.9467 36.78C18.9584 36.9434 17.955 36.9317 17.9784 37.095C17.99 37.2584 20.8017 38.67 20.9534 37.515Z" fill="#008F00"/>
<path fill-rule="evenodd" clip-rule="evenodd" d="M21.5367 37.3634C22.6334 36.6984 22.4117 34.1667 22.2951 34.1434C22.1667 34.1317 21.6884 34.7267 21.6301 35.2867C21.5017 34.4001 21.2101 33.5834 21.0467 33.6767C20.8017 33.7701 21.0934 35.1584 20.9651 35.3801C20.8484 35.4967 20.2651 34.7034 20.1484 34.8201C20.0084 34.9367 20.4751 37.9351 21.5484 37.3634H21.5367ZM23.1234 40.4667C24.3834 40.1867 25.0717 37.7367 24.9551 37.6784C24.8384 37.6201 24.1851 38.0284 23.9401 38.5417C24.1267 37.6667 24.1384 36.8034 23.9401 36.8384C23.6717 36.8501 23.4734 38.2501 23.2751 38.4134C23.1234 38.4834 22.8434 37.5617 22.6917 37.6201C22.5284 37.6901 21.9217 40.6651 23.1234 40.4667ZM25.0134 43.6401C26.1684 43.0801 26.1801 40.5367 26.0634 40.5134C25.9467 40.4784 25.4217 41.0384 25.3051 41.5867C25.2584 40.6884 25.0484 39.8601 24.8734 39.9417C24.6167 40.0117 24.7801 41.4117 24.6401 41.6217C24.5001 41.7267 23.9984 40.8867 23.8584 40.9917C23.7184 41.0851 23.9051 44.1184 25.0251 43.6401H25.0134ZM27.0667 47.7934C28.2684 47.3384 28.5601 44.8184 28.4434 44.7717C28.3267 44.7367 27.7434 45.2384 27.5684 45.7751C27.6151 44.8767 27.4984 44.0251 27.3117 44.0951C27.0434 44.1417 27.0667 45.5534 26.9034 45.7517C26.7517 45.8334 26.3434 44.9584 26.2034 45.0517C26.0517 45.1217 25.9117 48.1667 27.0667 47.7934Z" fill="#008F00"/>
<path fill-rule="evenodd" clip-rule="evenodd" d="M29.7133 52.1222C29.4076 52.6454 28.4408 52.6927 27.5424 52.2134C26.6439 51.7341 26.1788 50.9228 26.4845 50.3997C26.7901 49.8765 27.7639 49.833 28.6553 50.3085C29.5468 50.7841 30.0189 51.5991 29.7133 52.1222Z" fill="#FF1900" stroke="black" stroke-width="0.0864739"/>
<path fill-rule="evenodd" clip-rule="evenodd" d="M52.9106 34.5994L53.0619 34.209L53.4693 34.3373L53.6205 33.9469L54.0279 34.0752L53.8788 34.4601L54.2979 34.5921L54.1445 34.988L53.7254 34.856L53.3484 35.8292L52.941 35.7009L53.318 34.7277L52.9106 34.5994ZM52.0356 38.0378L52.443 38.1661L48.0651 49.4655L47.6577 49.3372L52.0356 38.0378Z" fill="#FFFF00" stroke="black" stroke-width="0.0299923"/>
<path fill-rule="evenodd" clip-rule="evenodd" d="M47.5227 49.0788L48.3492 49.339L47.1413 52.4567L46.3149 52.1964L47.5227 49.0788ZM52.3823 35.963L53.622 36.3534C54.4426 36.6118 52.5816 38.4318 52.5816 38.4318L51.761 38.1734C51.761 38.1734 51.5558 35.7027 52.3823 35.963ZM53.5217 35.9887C53.4578 36.1536 53.2262 36.2288 52.9992 36.1573C52.7722 36.0858 52.6371 35.8952 52.6989 35.7357C52.7607 35.5763 52.9944 35.4956 53.2213 35.5671C53.4483 35.6386 53.5834 35.8292 53.5195 35.9942L53.5217 35.9887Z" fill="#FFFF00" stroke="black" stroke-width="0.0299923"/>
<path fill-rule="evenodd" clip-rule="evenodd" d="M48.1858 50.6983C48.5321 51.1978 48.1325 52.0403 47.2746 52.5833C46.4167 53.1262 45.449 53.149 45.1027 52.6494C44.7565 52.1499 45.1628 51.3031 46.014 50.7644C46.8652 50.2257 47.8396 50.1987 48.1858 50.6983Z" fill="#FF1900" stroke="black" stroke-width="0.0864794"/>
</g>
<defs>
<clipPath id="clip0_1_67977">
<rect width="74.6667" height="56" fill="white" transform="translate(0 9.375)"/>
</clipPath>
</defs>
</svg>
