<svg width="75" height="75" viewBox="0 0 75 75" fill="none" xmlns="http://www.w3.org/2000/svg">
<rect width="74.6667" height="74.75" fill="white"/>
<g clip-path="url(#clip0_1_67990)">
<path fill-rule="evenodd" clip-rule="evenodd" d="M0 9.375H74.655V65.375H0V9.375Z" fill="#3B5AA3"/>
<path fill-rule="evenodd" clip-rule="evenodd" d="M0 63.8583L74.655 9.375V19.525L0 65.375V63.8583Z" fill="#E2AE57"/>
<path fill-rule="evenodd" clip-rule="evenodd" d="M2.6133 65.375L74.6666 30.2816L74.655 19.14L-3.05176e-05 65.375H2.6133ZM20.4633 11.1483L19.7166 23.1416L16.5666 15.4883L17.78 23.6316L12.8916 17.0516L16.1 24.5533L9.6833 19.5833L14.6766 25.8366L7.43164 22.6166L13.7783 27.4233L5.87997 26.3733L13.3466 29.3367L1.6333 30.41L13.37 31.1916L5.9383 34.2483L13.755 33.1983L7.41997 37.865L14.77 34.645L9.7533 40.945L16.1233 36.1266L12.9733 43.465L18.06 37.0833L16.6833 45.0283L19.8916 37.5966L20.615 49.345L21.7466 37.6316L24.5116 45.0983L23.4616 37.0483L28.525 43.4416L25.1883 35.975L31.5583 41.1083L26.495 34.7033L34.0666 37.8533L27.37 32.965L35.525 34.3417L27.7083 31.3433L39.8533 30.585L27.72 29.4533L35.7116 26.7933L27.4283 27.8433L34.265 23.06L26.565 26.1516L31.885 19.7L25.3983 24.7633L28.5133 17.0166L23.485 23.5966L24.57 15.3833L21.5716 23.1416L20.4516 11.1483H20.4633Z" fill="white"/>
</g>
<defs>
<clipPath id="clip0_1_67990">
<rect width="74.6667" height="56" fill="white" transform="translate(0 9.375)"/>
</clipPath>
</defs>
</svg>
