<svg width="75" height="75" viewBox="0 0 75 75" fill="none" xmlns="http://www.w3.org/2000/svg">
<rect width="74.6667" height="74.75" fill="white"/>
<g clip-path="url(#clip0_1_68100)">
<path d="M0 9.375H74.6667V65.375H0V9.375Z" fill="#D20000"/>
<path d="M0 9.375H11.2L37.3333 36.3717L63.4667 9.375H74.6667L0 65.375H11.2L37.3333 38.3783L63.4667 65.375H74.6667L0 9.375ZM74.6667 31.775V42.975L0 31.775V42.975L74.6667 31.775ZM32.6667 9.375L37.3333 33.3733L42 9.375H32.6667ZM32.6667 65.375L37.3333 41.3767L42 65.375H32.6667Z" fill="#FFE600"/>
<path d="M37.3333 46.37C42.3011 46.37 46.3283 42.3428 46.3283 37.375C46.3283 32.4072 42.3011 28.38 37.3333 28.38C32.3655 28.38 28.3383 32.4072 28.3383 37.375C28.3383 42.3428 32.3655 46.37 37.3333 46.37Z" fill="#FFE600" stroke="#D20000" stroke-width="1.995"/>
</g>
<defs>
<clipPath id="clip0_1_68100">
<rect width="74.6667" height="56" fill="white" transform="translate(0 9.375)"/>
</clipPath>
</defs>
</svg>
