<svg width="75" height="75" viewBox="0 0 75 75" fill="none" xmlns="http://www.w3.org/2000/svg">
<rect width="74.6667" height="74.75" fill="white"/>
<g clip-path="url(#clip0_1_68368)">
<path d="M0 9.375H74.6667V65.375H0V9.375Z" fill="#DA2032"/>
<path d="M24.8849 9.375H49.7816V65.375H24.8849V9.375Z" fill="#0066B3"/>
<path d="M12.4483 35.2517C15.0257 35.2517 17.115 33.1623 17.115 30.585C17.115 28.0077 15.0257 25.9183 12.4483 25.9183C9.87101 25.9183 7.78168 28.0077 7.78168 30.585C7.78168 33.1623 9.87101 35.2517 12.4483 35.2517Z" fill="#FFD900"/>
<path d="M12.4484 33.5483C15.2576 33.5483 17.535 31.271 17.535 28.4617C17.535 25.6524 15.2576 23.375 12.4484 23.375C9.63907 23.375 7.36169 25.6524 7.36169 28.4617C7.36169 31.271 9.63907 33.5483 12.4484 33.5483Z" fill="#DA2032"/>
<path d="M12.4483 32.7083C14.3234 32.7083 15.8433 31.1883 15.8433 29.3133C15.8433 27.4383 14.3234 25.9183 12.4483 25.9183C10.5733 25.9183 9.05334 27.4383 9.05334 29.3133C9.05334 31.1883 10.5733 32.7083 12.4483 32.7083Z" fill="#FFD900"/>
<path d="M12.7983 18.2883C12.6261 18.3637 12.4782 18.4854 12.371 18.6399C12.2639 18.7944 12.2018 18.9756 12.1917 19.1633C12.1683 19.455 12.2967 19.7817 12.3083 20.0617C12.3083 20.5517 11.8067 20.715 11.8067 21.4033C11.8067 21.6367 12.0283 21.905 12.0283 22.5233C11.9817 22.85 11.795 22.9317 11.5967 22.955C11.5405 22.955 11.4849 22.9438 11.4332 22.9219C11.3815 22.9001 11.3346 22.8681 11.2955 22.8279C11.2563 22.7876 11.2256 22.74 11.2052 22.6876C11.1848 22.6353 11.1751 22.5795 11.1767 22.5233C11.1764 22.4147 11.2182 22.3101 11.2933 22.2317C11.308 22.2189 11.3236 22.2072 11.34 22.1967C11.4333 22.0917 11.5733 22.0567 11.5733 21.8C11.5733 21.6717 11.48 21.5433 11.3983 21.31C11.3167 21.0767 11.375 20.7033 11.5617 20.4817C11.2583 20.5983 11.0833 20.8783 10.9783 21.135C10.885 21.45 10.9783 21.625 10.8383 21.8933C10.7567 22.0567 10.6633 22.1267 10.57 22.2667C10.4533 22.43 10.3367 22.78 10.3367 22.955C10.3764 23.4894 10.6167 23.9891 11.0094 24.3538C11.4021 24.7184 11.9182 24.921 12.4542 24.921C12.9901 24.921 13.5062 24.7184 13.8989 24.3538C14.2916 23.9891 14.532 23.4894 14.5717 22.955C14.5717 22.78 14.4433 22.43 14.3383 22.2667C14.2333 22.1267 14.14 22.0567 14.0583 21.8933C13.9183 21.625 14.0117 21.45 13.9067 21.135C13.8133 20.8783 13.6383 20.5983 13.335 20.4817C13.5217 20.715 13.5683 21.0883 13.4983 21.31C13.4167 21.5433 13.335 21.66 13.335 21.8C13.335 22.0567 13.4633 22.0917 13.5683 22.1967C13.5807 22.2076 13.5924 22.2193 13.6033 22.2317C13.6785 22.3101 13.7203 22.4147 13.72 22.5233C13.7215 22.5795 13.7118 22.6353 13.6914 22.6876C13.671 22.74 13.6403 22.7876 13.6012 22.8279C13.562 22.8681 13.5152 22.9001 13.4635 22.9219C13.4117 22.9438 13.3561 22.955 13.3 22.955C13.0667 22.92 12.8917 22.815 12.8683 22.5233C12.8683 21.7067 13.2183 21.66 13.2183 21.0533C13.2183 20.19 12.4483 19.7817 12.4483 19.1517C12.4483 18.9417 12.495 18.5683 12.7983 18.2883ZM3.11499 36.0917H7.34999V56.45H3.11499V36.0917ZM17.535 36.0917H21.7817V56.45H17.535V36.0917ZM8.20166 36.0917H16.6833L12.4483 38.635L8.20166 36.0917ZM8.20166 39.475H16.6833V41.1783H8.20166V39.475ZM8.20166 51.3633H16.6833V53.0667H8.20166V51.3633ZM8.20166 53.9067H16.6833L12.4483 56.45L8.20166 53.9067Z" fill="#FFD900"/>
<path d="M12.4483 50.535C14.7937 50.535 16.695 48.6337 16.695 46.2883C16.695 43.9429 14.7937 42.0416 12.4483 42.0416C10.103 42.0416 8.20166 43.9429 8.20166 46.2883C8.20166 48.6337 10.103 50.535 12.4483 50.535Z" fill="#FFD900"/>
<path d="M12.443 44.8808C12.9116 44.8808 13.2914 44.5009 13.2914 44.0323C13.2914 43.5637 12.9116 43.1838 12.443 43.1838C11.9744 43.1838 11.5945 43.5637 11.5945 44.0323C11.5945 44.5009 11.9744 44.8808 12.443 44.8808Z" fill="#DA2032"/>
<path d="M12.443 49.3777C12.9116 49.3777 13.2914 48.9979 13.2914 48.5293C13.2914 48.0607 12.9116 47.6808 12.443 47.6808C11.9744 47.6808 11.5945 48.0607 11.5945 48.5293C11.5945 48.9979 11.9744 49.3777 12.443 49.3777Z" fill="#DA2032"/>
<path d="M12.443 41.5293C13.1068 41.5293 13.7435 41.793 14.2129 42.2624C14.6823 42.7318 14.946 43.3685 14.946 44.0323C14.946 44.6962 14.6823 45.3328 14.2129 45.8022C13.7435 46.2716 13.1068 46.5353 12.443 46.5353C11.9141 46.5353 11.407 46.7454 11.033 47.1193C10.6591 47.4933 10.449 48.0004 10.449 48.5293C10.449 49.0581 10.6591 49.5653 11.033 49.9392C11.407 50.3131 11.9141 50.5232 12.443 50.5232V51.0323C11.7791 51.0323 11.1425 50.7686 10.6731 50.2992C10.2037 49.8298 9.93994 49.1931 9.93994 48.5293C9.93994 47.8654 10.2037 47.2288 10.6731 46.7594C11.1425 46.29 11.7791 46.0262 12.443 46.0262C12.9718 46.0262 13.479 45.8162 13.8529 45.4422C14.2268 45.0683 14.4369 44.5611 14.4369 44.0323C14.4369 43.5035 14.2268 42.9963 13.8529 42.6224C13.479 42.2485 12.9718 42.0384 12.443 42.0384V41.5293Z" fill="#DA2032"/>
</g>
<defs>
<clipPath id="clip0_1_68368">
<rect width="74.6667" height="56" fill="white" transform="translate(0 9.375)"/>
</clipPath>
</defs>
</svg>
