<svg width="75" height="75" viewBox="0 0 75 75" fill="none" xmlns="http://www.w3.org/2000/svg">
<rect width="74.6667" height="74.75" fill="white"/>
<g clip-path="url(#clip0_1_68363)">
<path d="M0 9.375H74.6667V65.375H0V9.375Z" fill="#00785E"/>
<path d="M34.4167 22.0567L39.1417 25.4983L37.3334 19.9333L35.525 25.4983L40.2617 22.0567H34.4167Z" fill="#FBD116"/>
<path d="M37.3333 48.0617H25.375C25.2245 47.9089 25.0763 47.7537 24.9317 47.595H37.3333C37.4325 47.63 37.4978 47.7234 37.4967 47.8284C37.4967 47.9217 37.4383 48.0267 37.3333 48.0617ZM37.3333 44.41C37.4687 44.1359 37.5177 43.8267 37.4733 43.5234C37.4512 43.3694 37.4033 43.2189 37.3333 43.08C36.2588 44.1032 34.9603 44.8615 33.5417 45.2967C32.6527 45.5674 31.7287 45.7039 30.8 45.705H23.4383C23.653 46.0235 23.8793 46.335 24.115 46.6384H31.2317C33.565 46.6384 35.6883 45.7984 37.3333 44.41ZM24.5467 41.5284C24.1838 41.6637 23.8023 41.743 23.415 41.7617C25.2082 43.801 27.7923 44.97 30.5083 44.97C33.0867 44.97 35.5518 43.9165 37.3333 42.0534C37.6612 39.7807 37.8362 37.4894 37.8583 35.1934C37.8863 32.5509 37.7113 29.9107 37.3333 27.295C36.5633 27.995 35.1167 29.4767 34.44 31.7634C34.1857 32.6395 34.0608 33.5472 34.0667 34.4584C34.0667 36.3285 34.6232 38.1555 35.665 39.7084C34.3805 38.0575 33.6828 36.0252 33.6817 33.9334C33.6817 32.4867 34.0083 31.11 34.5917 29.885C34.1857 29.4545 33.8858 28.9354 33.7167 28.3684C32.9105 29.7905 32.4882 31.3994 32.4917 33.035C32.4917 35.135 33.18 37.0834 34.3467 38.6467C32.1265 36.3134 29.001 35.0615 25.7833 35.2167C26.1053 35.5142 26.3737 35.8654 26.5767 36.255C29.6007 36.2585 32.4917 37.4975 34.58 39.685C32.585 38.0132 30.0662 37.0962 27.4633 37.095C25.9933 37.0927 24.5385 37.382 23.1817 37.9467C24.6762 41.8982 28.6078 44.3832 32.8183 44.0367C32.27 44.13 31.71 44.1884 31.1383 44.1884C28.6825 44.193 26.3212 43.2387 24.5583 41.5284H24.5467ZM37.3333 51.8884H31.1383C33.11 52.67 35.2123 53.0702 37.3333 53.0667C37.429 52.887 37.4815 52.6875 37.485 52.4834C37.4838 52.2757 37.4313 52.0715 37.3333 51.8884ZM37.3333 49.03H26.4133C26.7085 49.282 27.0118 49.5224 27.3233 49.7534H37.3333C37.4278 49.6565 37.4815 49.527 37.485 49.3917C37.4897 49.2552 37.4348 49.1222 37.3333 49.03ZM37.3333 50.4884H28.385C28.9263 50.8314 29.4875 51.1429 30.065 51.4217H37.3333C37.4267 51.2759 37.4757 51.1055 37.4733 50.9317C37.4675 50.7742 37.4197 50.6214 37.3333 50.4884Z" fill="white"/>
<path d="M23.3917 29.7684L26.355 32.5217L25.5733 28.555L23.87 32.2184L27.405 30.2584L23.3917 29.7684ZM27.6967 26.035L31.745 26.105L28.5133 23.655L29.6917 27.54L31.01 23.7017L27.6967 26.035Z" fill="#FBD116"/>
<path d="M37.3333 48.0617H49.2917C49.4422 47.9089 49.5903 47.7537 49.735 47.595H37.3333C37.2342 47.63 37.1688 47.7234 37.17 47.8284C37.17 47.9217 37.2283 48.0267 37.3333 48.0617ZM37.3333 44.41C37.198 44.1359 37.149 43.8267 37.1933 43.5234C37.2155 43.3694 37.2633 43.2189 37.3333 43.08C38.4078 44.1032 39.7063 44.8615 41.125 45.2967C42.014 45.5674 42.938 45.7039 43.8667 45.705H51.2283C51.0137 46.0235 50.7873 46.335 50.5517 46.6384H43.435C41.1017 46.6384 38.9783 45.7984 37.3333 44.41ZM50.12 41.5284C50.4828 41.6637 50.8643 41.743 51.2517 41.7617C49.4585 43.801 46.8743 44.97 44.1583 44.97C41.58 44.97 39.1148 43.9165 37.3333 42.0534C37.0055 39.7807 36.8305 37.4894 36.8083 35.1934C36.7803 32.5509 36.9553 29.9107 37.3333 27.295C38.1033 27.995 39.55 29.4767 40.2267 31.7634C40.481 32.6395 40.6058 33.5472 40.6 34.4584C40.6 36.3285 40.0435 38.1555 39.0017 39.7084C40.2862 38.0575 40.9838 36.0252 40.985 33.9334C40.985 32.4867 40.6583 31.11 40.075 29.885C40.481 29.4545 40.7808 28.9354 40.95 28.3684C41.7562 29.7905 42.1785 31.3994 42.175 33.035C42.175 35.135 41.4867 37.0834 40.32 38.6467C42.5402 36.3134 45.6657 35.0615 48.8833 35.2167C48.5613 35.5142 48.293 35.8654 48.09 36.255C45.066 36.2585 42.175 37.4975 40.0867 39.685C42.0817 38.0132 44.6005 37.0962 47.2033 37.095C48.6733 37.0927 50.1282 37.382 51.485 37.9467C49.9905 41.8982 46.0588 44.3832 41.8483 44.0367C42.3967 44.13 42.9567 44.1884 43.5283 44.1884C45.9842 44.193 48.3455 43.2387 50.1083 41.5284H50.12ZM37.3333 51.8884H43.5283C41.5567 52.67 39.4543 53.0702 37.3333 53.0667C37.2377 52.887 37.1852 52.6875 37.1817 52.4834C37.1828 52.2757 37.2353 52.0715 37.3333 51.8884ZM37.3333 49.03H48.2533C47.9582 49.282 47.6548 49.5224 47.3433 49.7534H37.3333C37.2388 49.6565 37.1852 49.527 37.1817 49.3917C37.177 49.2552 37.2318 49.1222 37.3333 49.03ZM37.3333 50.4884H46.2817C45.7403 50.8314 45.1792 51.1429 44.6017 51.4217H37.3333C37.24 51.2759 37.191 51.1055 37.1933 50.9317C37.1992 50.7742 37.247 50.6214 37.3333 50.4884Z" fill="white"/>
<path d="M51.275 29.7684L48.3117 32.5217L49.0934 28.555L50.7967 32.2184L47.2617 30.2584L51.275 29.7684ZM46.97 26.035L42.9217 26.105L46.1534 23.655L44.975 27.54L43.6567 23.7017L46.97 26.035Z" fill="#FBD116"/>
</g>
<defs>
<clipPath id="clip0_1_68363">
<rect width="74.6667" height="56" fill="white" transform="translate(0 9.375)"/>
</clipPath>
</defs>
</svg>
