<svg width="75" height="75" viewBox="0 0 75 75" fill="none" xmlns="http://www.w3.org/2000/svg">
<rect width="74.6667" height="74.75" fill="white"/>
<g clip-path="url(#clip0_1_68373)">
<path fill-rule="evenodd" clip-rule="evenodd" d="M-18.6667 9.375H93.3333V65.375H-18.6667V9.375Z" fill="#0071BC"/>
<path fill-rule="evenodd" clip-rule="evenodd" d="M43.1666 52.04C43.1666 52.04 44.94 50.1617 46.6433 50.5234C47.1566 48.54 49.0933 48.3767 49.0933 48.3767C49.0933 48.3767 48.895 46.195 51.3683 45.7167C51.4383 44.235 52.9433 42.9984 52.9433 42.9984C52.9433 42.9984 52.64 40.7 54.2033 40.1634C53.2466 38.3434 54.53 37.0134 54.5183 36.9784C54.495 36.9434 52.885 34.085 54.3316 33.2684C52.815 31.985 53.305 30.5384 53.305 30.5384C53.305 30.5384 51.6483 30.1067 52.2433 28.1234C50.8783 27.89 50.61 25.685 50.61 25.685C50.61 25.685 48.51 26.1167 48.2533 24.285C46.8533 24.5067 46.7133 23.1417 46.69 23.1417C46.6783 23.1417 43.9483 23.8767 43.4 21.8117C42.3383 22.36 41.8833 21.38 41.8833 21.38C41.8833 21.38 40.3666 22.1384 39.4566 20.68C37.6483 21.8117 36.6333 20.6334 36.6333 20.6334C36.6333 20.6334 34.265 22.1967 33.4833 20.9834C32.0833 22.4067 30.8233 21.8 30.8233 21.8C30.8233 21.8 29.7733 23.6667 28.0583 23.2C27.6733 24.9384 25.7016 24.9734 25.7016 24.9734C25.7016 24.9734 25.9116 26.5017 23.555 26.9217C23.2516 28.73 22.015 29.0217 22.015 29.0217C22.015 29.0217 22.1316 30.795 21.0233 31.355C21.42 32.3467 20.3933 33.56 20.3933 33.56C20.3933 33.56 21.49 34.925 19.9966 36.465C21.4316 36.8384 20.3933 39.3117 20.3933 39.3117C20.3933 39.3117 22.3766 40.1984 21.1283 41.8434C22.5516 42.31 22.1083 43.43 22.12 44.095C23.03 44.5034 23.8233 44.305 23.4383 46.125C26.215 46.44 24.9083 47.9684 24.9083 47.9684C24.9083 47.9684 26.1916 48.0267 25.69 49.0534C28.0583 48.995 28.4083 50.8267 28.4083 50.8267C28.4083 50.8267 30.6016 50.2434 30.8933 51.095C31.185 51.9467 29.9366 57.71 29.9366 57.71C29.9366 57.71 28.07 57.71 26.6933 56.2167C23.45 56.135 24.1733 54 24.1266 54C24.0683 54 23.0416 54.3967 22.5166 52.6117C20.3466 53.055 20.4166 51.235 20.3933 51.2117C20.3816 51.2 19.425 50.7684 19.775 49.87C17.5466 50.0684 17.71 47.8867 17.71 47.8867C17.22 47.6884 17.045 47.2334 17.115 46.7784C16.8233 46.6734 14.84 46.6384 15.8666 44.025C13.9766 42.8817 15.155 41.575 15.155 41.575C15.155 41.575 12.5416 40.2217 14.56 38.6584C13.0433 36.4417 14.6766 35.3334 14.6766 35.3334C14.6766 35.3334 12.5883 33.2217 14.7116 31.7167C14.3616 28.5084 16.275 27.7384 16.275 27.7384C16.275 27.7384 15.2716 25.125 18.0016 24.0284C18.1766 21.38 20.09 21.31 20.09 21.31C20.09 21.31 20.1366 19.21 23.1466 19.42C23.73 17.5417 25.7716 17.915 25.7716 17.915C25.7716 17.915 26.4016 15.64 29.19 16.7367C30.6016 13.9717 32.7133 15.3834 32.7133 15.3834C32.7133 15.3834 34.0433 14.52 34.6966 14.8C35.5483 13.3417 37.3566 14.73 38.5116 15.0217C38.9433 14.8467 40.4483 13.715 41.6033 15.1384C43.1433 14.1467 44.4616 15.955 44.4616 15.955C44.4616 15.955 46.5733 14.8817 47.565 17.3317C52.0566 16.9234 51.415 19.8634 51.415 19.8634C51.415 19.8634 54.9383 19.0584 54.1683 22.5817C57.3883 22.8034 57.0616 24.915 57.0616 24.915C57.0616 24.915 59.0916 26.455 58.205 27.8317C60.0133 27.925 59.3483 29.6634 59.3483 29.6634C59.3483 29.6634 60.7366 30.2 59.5816 32.3467C62.23 34.4584 60.095 36.57 60.0833 36.5467C60.06 36.535 61.495 38.25 60.2 40.2334C60.5966 43.3834 59.01 44.1767 59.01 44.1767C59.01 44.1767 59.4183 46.2184 57.645 46.79C57.61 49.1817 55.3466 49.4734 55.3466 49.4734C55.3466 49.4734 55.9533 50.5234 53.7133 51.6084C53.62 53.2067 51.2866 53.335 51.2866 53.335C51.2866 53.335 51.065 56.275 48.09 55.4817C47.3783 57.8384 43.89 57.1384 43.82 57.115C43.7616 57.08 43.155 52.0517 43.155 52.04H43.1666Z" fill="white" stroke="black" stroke-width="0.221667"/>
<path fill-rule="evenodd" clip-rule="evenodd" d="M21.5833 23.8417C21.5833 23.8417 22.33 24.495 22.19 25.475C22.05 26.4433 21.49 27.7967 21.6066 28.8C21.6766 29.2083 21.6416 29.9317 21.6416 29.9317C21.6416 29.9317 20.9766 28.975 20.965 27.9483C20.9533 26.9217 21.6883 25.9533 21.6883 25.195C21.6883 24.4367 21.56 23.83 21.5716 23.8533L21.5833 23.8417ZM21.21 24.145C21.21 24.145 20.23 25.0783 20.1016 25.9767C20.0083 26.4433 19.985 28.625 19.9616 29.5933C19.9383 29.885 19.8216 31.0517 19.7983 31.4833C19.7633 31.9033 20.51 30.76 20.5566 29.815C20.5333 28.8467 20.5333 26.805 20.6266 26.49C20.72 26.0933 20.6966 25.6617 20.8366 25.265L21.21 24.145Z" fill="#217900" stroke="black" stroke-width="0.221667" stroke-linejoin="round"/>
<path fill-rule="evenodd" clip-rule="evenodd" d="M42.7 21.1001C42.7 21.1001 43.96 20.5167 44.3333 19.4201C44.7067 18.3234 43.225 18.3234 43.0383 18.6734C42.84 19.0234 43.2017 19.8751 43.1083 20.1084C43.015 20.3417 42.5017 20.8784 42.7 21.0884V21.1001Z" fill="#FFD200" stroke="#EF8A10" stroke-width="0.221667"/>
<path fill-rule="evenodd" clip-rule="evenodd" d="M31.4767 21.4967C31.4767 21.4967 32.2933 20.365 32.0833 19.2334C31.8617 18.1134 30.59 18.8134 30.59 19.21C30.59 19.6067 31.3133 20.1784 31.3483 20.4234C31.3833 20.6684 31.1967 21.4034 31.465 21.485L31.4767 21.4967ZM29.2483 22.1617C29.2483 22.1617 30.065 21.03 29.855 19.91C29.645 18.7784 28.3617 19.4784 28.3617 19.875C28.3617 20.2717 29.0967 20.855 29.1317 21.1C29.155 21.3334 28.98 22.0684 29.2483 22.1617ZM26.7867 22.92C26.7867 22.92 27.6033 21.8 27.3933 20.6684C27.1717 19.5367 25.9 20.2367 25.9 20.6334C25.9 21.03 26.6233 21.6134 26.6583 21.8584C26.6933 22.0917 26.5067 22.8267 26.775 22.92H26.7867ZM25.0367 24.6584C25.0367 24.6584 25.865 23.5267 25.655 22.4067C25.445 21.275 24.1617 21.975 24.1617 22.3717C24.1617 22.7684 24.8967 23.3517 24.92 23.5967C24.955 23.83 24.7683 24.565 25.0367 24.6584ZM23.2167 26.3384C23.2167 26.3384 24.0333 25.2067 23.8233 24.075C23.6133 22.9434 22.33 23.655 22.33 24.0517C22.33 24.4484 23.065 25.02 23.1 25.265C23.1233 25.51 22.9483 26.245 23.2167 26.3384Z" fill="#FFD200" stroke="#EF8A10" stroke-width="0.291667"/>
<path fill-rule="evenodd" clip-rule="evenodd" d="M27.4166 16.5734C27.4166 16.5734 26.32 17.4367 26.2266 18.5801C26.1333 19.7234 27.545 19.3967 27.65 19.0117C27.7666 18.6267 27.2183 17.8801 27.2533 17.6351C27.2883 17.4017 27.6616 16.7367 27.4166 16.5851V16.5734ZM31.0683 15.4534C31.0683 15.4534 29.9833 16.3167 29.8783 17.4601C29.785 18.6034 31.1966 18.2767 31.3133 17.8917C31.4183 17.5067 30.87 16.7484 30.905 16.5034C30.94 16.2701 31.3133 15.6051 31.0683 15.4534ZM17.4533 25.3117C17.4533 25.3117 17.6866 26.6884 18.6433 27.3301C19.6 27.9601 19.985 26.5601 19.705 26.2801C19.425 26.0001 18.5033 26.1167 18.305 25.9767C18.1066 25.8251 17.7216 25.1834 17.4533 25.3117ZM15.6333 29.9784C15.6333 29.9784 15.6333 31.3784 16.485 32.1601C17.325 32.9301 17.9316 31.6117 17.6983 31.2967C17.465 30.9817 16.5316 30.9467 16.3683 30.7717C16.1933 30.5851 15.9016 29.8967 15.6333 29.9901V29.9784ZM19.8333 35.2051C19.8333 35.2051 19.3433 33.8984 18.2816 33.4551C17.22 33.0351 17.115 34.4817 17.4416 34.7034C17.78 34.9134 18.655 34.6217 18.8766 34.7267C19.11 34.8317 19.6116 35.3801 19.845 35.1934L19.8333 35.2051ZM18.97 32.9417C18.97 32.9417 19.81 31.8334 19.6233 30.7134C19.425 29.5817 18.1416 30.2467 18.13 30.6434C18.13 31.0401 18.83 31.6351 18.865 31.8801C18.8883 32.1251 18.69 32.8484 18.97 32.9534V32.9417ZM45.29 22.2201C45.29 22.2201 46.55 21.6367 46.9233 20.5517C47.2966 19.4667 45.815 19.4551 45.6283 19.7934C45.43 20.1434 45.7916 21.0067 45.6983 21.2284C45.605 21.4617 45.0916 22.0101 45.29 22.2201ZM49.1166 24.1334C49.1166 24.1334 49.8633 22.9551 49.5716 21.8467C49.28 20.7384 48.055 21.5201 48.0783 21.9167C48.1016 22.3017 48.8716 22.8384 48.9183 23.0834C48.965 23.3167 48.8366 24.0634 49.1166 24.1334ZM59.57 34.9834C59.57 34.9834 59.0683 33.6884 58.0066 33.2451C56.945 32.8134 56.84 34.2717 57.1666 34.4817C57.505 34.7034 58.3916 34.4001 58.6016 34.5051C58.835 34.6217 59.3366 35.1701 59.57 34.9834ZM54.46 35.8001C54.46 35.8001 54.4833 34.4001 55.335 33.6301C56.1866 32.8601 56.7816 34.2017 56.5483 34.5167C56.3033 34.8317 55.3816 34.8434 55.195 35.0184C55.0316 35.1934 54.7283 35.8817 54.46 35.7884V35.8001ZM53.6433 21.0067C53.6433 21.0067 52.325 20.5051 51.31 21.0067C50.26 21.5201 51.2866 22.5701 51.66 22.4651C52.045 22.3484 52.4066 21.4967 52.64 21.4034C52.8733 21.3101 53.62 21.2867 53.6316 21.0067H53.6433ZM50.6333 18.5101C50.6333 18.5101 49.3383 18.0084 48.3 18.5101C47.2733 19.0234 48.2883 20.0734 48.6733 19.9684C49.0466 19.8517 49.42 19.0001 49.6416 18.9067C49.875 18.8134 50.6216 18.7901 50.6333 18.5101ZM46.2 16.1301C46.2 16.1301 45.0916 16.9817 44.9866 18.1134C44.87 19.2567 46.2933 18.9417 46.41 18.5684C46.5266 18.1834 45.9783 17.4251 46.0133 17.1801C46.06 16.9467 46.4333 16.2934 46.2 16.1301ZM43.3066 15.4301C43.3066 15.4301 42.7933 16.7251 43.295 17.7634C43.7966 18.8017 44.8466 17.7867 44.7416 17.4134C44.6366 17.0284 43.785 16.6551 43.6916 16.4334C43.5983 16.2001 43.5866 15.4417 43.3066 15.4301ZM35.0816 20.4467C35.0816 20.4467 35.98 19.3734 35.8516 18.2301C35.7233 17.0984 34.3933 17.7051 34.37 18.1017C34.335 18.4984 35.0233 19.1284 35.035 19.3734C35.0466 19.6067 34.8133 20.3301 35.0816 20.4351V20.4467Z" fill="#FFD200" stroke="#EF8A10" stroke-width="0.221667"/>
<path fill-rule="evenodd" clip-rule="evenodd" d="M39.9933 22.7217C39.9933 22.7217 42.1516 22.8617 42.2566 24.0983C42.3616 25.335 41.7433 26.0933 41.7433 26.0933C41.7433 26.0933 42.0116 28.7767 39.9 29.5583C37.6366 29.8267 34.0783 29.6167 34.0783 29.6167C34.0783 29.6167 33.0283 29.8733 32.6083 27.715C32.3652 26.4963 32.186 25.2657 32.0716 24.0283C32.0716 24.0283 32.2816 22.815 33.81 22.745C35.3266 22.6633 39.97 22.745 39.9933 22.7217Z" fill="#8C8A8C" stroke="black" stroke-width="0.221667"/>
<path d="M41.7316 26.0817C41.7316 26.0817 40.565 27.5283 40.6816 28.1233" stroke="black" stroke-width="0.221667" stroke-linecap="round"/>
<path fill-rule="evenodd" clip-rule="evenodd" d="M40.1683 29.4767C40.46 29.7217 40.7283 29.99 40.7866 30.8767L40.9033 32.6734L42.42 46.2767L43.75 56.1117L43.8433 57.6284C43.8433 57.6284 43.5283 58.76 42.63 58.8534C41.9883 60.2067 38.465 60.6034 38.115 60.5917C37.8 60.5684 36.68 60.1017 36.0033 60.16C35.315 60.2184 34.1366 60.6733 33.6116 60.6033C33.0866 60.5217 31.885 60.1134 31.675 59.25C30.1933 58.7834 29.96 57.6517 29.96 57.6517L31.5583 46.2767L33.11 31.88C33.11 31.88 33.2966 29.9667 34.0666 29.675C34.8716 29.605 39.0133 29.7567 40.1683 29.4767Z" fill="#8C8A8C" stroke="black" stroke-width="0.221667"/>
<path d="M32.0133 49.17L31.6983 59.2384M41.79 50.5L42.6766 58.8067" stroke="black" stroke-width="0.221667"/>
<path d="M15.9366 43.9433L15.9016 44.06M57.75 43.5817L57.785 43.6983" stroke="black" stroke-width="0.116667"/>
<path d="M14.8166 30.3517C14.8166 30.3517 15.47 31.2734 15.5983 31.7984C15.715 32.3234 15.9366 33.3617 16.2166 33.7817C16.5083 34.2134 18.1533 36.57 18.2466 37.55C18.2583 38.2034 17.5583 39.3 16.5316 39.3234C15.8783 39.3 14.2216 38.88 14.1516 37.4567C14.0816 36.0217 14.6533 35.9984 14.735 35.1234C14.7933 34.26 14.8166 30.375 14.8166 30.3517V30.3517Z" stroke="#6B18B5" stroke-width="0.221667" stroke-linejoin="round"/>
<path d="M26.1916 17.8683C26.1916 17.8683 25.4916 17.915 24.9783 18.2066C24.57 18.4516 23.87 18.825 23.3916 19.49C22.155 20.4466 20.3 20.89 19.7166 21.7066C19.3666 22.2433 19.39 23.5383 20.265 24.0983C20.825 24.4133 22.4816 24.915 23.275 23.7366C24.0683 22.5466 23.59 22.22 23.975 21.45C24.5247 20.1489 25.2725 18.9408 26.1916 17.8683V17.8683ZM42.8166 16.1416C42.8166 16.1416 42.3033 15.675 41.7316 15.5C41.265 15.3833 40.495 15.43 39.69 15.3483C38.1383 15.1383 36.54 14.0183 35.5716 14.1583C34.9416 14.275 34.02 15.2083 34.23 16.2116C34.3816 16.8416 35.0816 18.1016 36.4933 17.8566C37.8933 17.6116 37.8933 17.2966 38.71 17.04C40.74 15.9083 42.7933 16.1416 42.8166 16.1416V16.1416ZM59.3133 32.1716C59.43 31.9033 59.2083 31.4016 59.0566 30.83C58.9166 30.3633 58.695 29.6633 58.1583 29.0216C57.5283 27.5983 57.6333 25.6383 56.9916 24.8916C56.56 24.425 55.2883 24.1216 54.5416 24.845C54.0866 25.3116 53.2116 26.7816 54.1683 27.8433C55.125 28.8933 55.545 28.5083 56.1983 29.0683C57.7733 30.1183 58.5316 31.985 59.3133 32.1716V32.1716ZM58.7416 44.6083C58.9633 44.3166 59.3483 43.745 59.3016 43.2666C59.2666 42.8933 59.4766 41.75 59.5 41.2483C59.64 39.6966 60.6083 38.425 60.34 37.0833C60.1883 36.4533 59.2666 35.5666 58.2633 35.8233C57.6566 36.01 56.28 36.7566 56.595 38.1566C56.91 39.5566 57.365 39.5216 57.6566 40.3383C58.5083 42.03 57.9716 44.0366 58.7416 44.6083V44.6083Z" stroke="#6B18B5" stroke-width="0.116667" stroke-linejoin="round"/>
<path d="M47.3083 54.5017C47.3083 54.5017 47.04 55.015 48.1016 55.4584M49.42 53.3117C49.42 53.3117 50.5866 53.02 51.38 53.3117M52.92 50.3484C52.92 50.3717 52.7566 50.8734 53.69 51.6084M53.5966 49.0417C53.5966 49.0417 54.285 49.5434 55.44 49.5084M46.6433 50.5117C46.6433 50.5117 46.6783 51.8534 45.99 52.4717M48.9533 48.4467C48.9533 48.4467 50.085 48.7267 51.0183 48.26M56.2216 46.475C56.2216 46.475 56.4666 46.825 57.7266 46.7667M51.3216 45.6817C51.3566 45.705 52.8033 46.1717 53.7133 45.7517M54.2033 40.175C54.2033 40.175 54.2616 40.0934 54.705 41.6567M55.3116 35.7767C55.3116 35.7767 55.2533 36.605 54.5883 36.9667M59.5933 32.37C59.5933 32.37 58.6133 33.1634 58.8 33.4784M54.7516 31.7984C54.7516 31.7984 55.2533 32.65 54.425 33.2334M52.29 28.1584C52.29 28.1584 53.165 28.1234 53.55 28.87M50.6566 25.685H51.3216M54.1216 22.6517C54.1216 22.6634 54.2966 22.8267 53.9583 23.1767M47.8916 22.7334C47.8916 22.7334 48.3583 23.4567 48.2766 24.355M50.5866 20.26C50.7966 20.2367 51.485 19.9334 51.485 19.9334M47.5883 17.3667C47.5766 17.3667 47.3316 18.265 47.775 18.5917M46.48 21.5084C46.48 22.4884 47.25 22.2434 46.7133 23.1767M44.59 20.6917C44.1419 21.0059 43.7344 21.3743 43.3766 21.7884M41.4633 20.19C41.4633 20.19 41.9766 20.6917 41.8483 21.38M39.9816 19.7817C39.9816 19.7817 39.725 20.5517 39.3866 20.75M37.2866 19.5834C37.275 19.6184 36.8666 20.4934 36.5866 20.645M33.6 19.595C33.6233 19.595 34.0083 20.4117 33.5066 20.995M32.7483 15.395C32.7716 15.4184 32.83 16.025 32.445 16.5617M29.0966 16.7834C29.0966 16.795 29.26 17.4717 28.1866 17.6934M27.0316 22.9667C27.055 23.0017 28.07 23.165 28.07 23.165M24.5 25.3117C24.5233 25.2884 25.7366 24.9267 25.7366 24.9267M22.54 26.8284C22.575 26.8284 23.3916 26.98 23.59 26.875M21.9566 27.575C21.9566 27.575 22.225 27.7267 22.0033 29.0917M18.0133 24.0167L18.5033 24.74M16.345 27.7734C16.345 27.75 16.835 28.4967 17.4883 28.6367M20.1716 31.5767C20.4888 31.5253 20.801 31.4472 21.105 31.3434M19.8333 34.3184C19.8566 34.3184 19.8216 33.8167 20.44 33.4667M19.0166 35.59C19.0166 35.6134 19.6 36.3367 20.0083 36.4417M18.6666 36.99C18.7366 36.9667 19.3666 36.4184 20.09 36.465M18.4683 38.8684C18.4683 38.8684 18.4916 39.4984 20.3583 39.335M18.655 41.085C18.655 41.0617 19.2033 39.825 20.3116 39.3584M20.1483 42.6717C20.1483 42.6717 20.3116 42.135 21.245 41.7734M21.1866 44.7484C21.1866 44.7484 21.8516 44.2 22.0966 44.13M22.015 46.3817C22.015 46.3817 22.4233 46.8017 23.4383 46.0667M17.1383 46.72C17.255 46.6967 18.7366 46.3584 19.2383 47.1284M17.7216 47.945C17.7216 47.945 19.285 47.735 19.4833 47.8984M23.2983 48.26C23.2983 48.26 23.0883 48.6917 25.0133 47.98M25.69 49.03C25.34 49.6134 25.7716 50.08 25.3166 50.3484M19.8333 49.8467C19.8916 49.8 20.5333 49.5784 20.44 48.645M20.4166 51.2467C20.4983 51.2234 21.5716 50.7567 21.7933 51.0017M22.5283 52.6C22.5283 52.6 22.6683 51.6434 22.9716 51.55M24.1383 54.035C24.1383 54.035 25.0366 54.0234 25.4216 53.7317M25.865 50.815C25.8883 50.8384 26.6933 51.2584 28.4316 50.8384M26.5183 54.6884C26.5183 54.6884 26.7516 55.925 26.7516 56.205" stroke="black" stroke-width="0.221667"/>
<path fill-rule="evenodd" clip-rule="evenodd" d="M57.633 35.6764C57.5846 35.2896 57.3861 34.9216 57.1367 34.7564C56.8473 34.5765 56.547 34.614 56.3484 34.8549C56.1497 35.0958 56.0267 35.4843 56.0751 35.8711C56.1258 36.2772 56.3219 36.6259 56.5738 36.8105C56.8631 36.9904 57.1634 36.9528 57.3621 36.7119C57.5607 36.4711 57.7025 36.0802 57.6354 35.6957L57.633 35.6764Z" fill="#DE2010" stroke="black" stroke-width="0.288008"/>
<path fill-rule="evenodd" clip-rule="evenodd" d="M57.4696 33.6114C57.4213 33.2247 57.2228 32.8567 56.9734 32.6914C56.684 32.5115 56.3837 32.5491 56.185 32.79C55.9864 33.0308 55.8634 33.4194 55.9117 33.8062C55.9625 34.2123 56.1586 34.561 56.4104 34.7455C56.6998 34.9254 57.0001 34.8879 57.1987 34.647C57.3974 34.4061 57.5392 34.0152 57.472 33.6308L57.4696 33.6114Z" fill="#DE2010" stroke="black" stroke-width="0.288008"/>
<path fill-rule="evenodd" clip-rule="evenodd" d="M57.0355 31.3992C56.9534 31.0182 56.7233 30.6691 56.4603 30.5264C56.1563 30.3726 55.8604 30.4364 55.6837 30.6938C55.507 30.9512 55.4186 31.3491 55.5007 31.7301C55.587 32.1302 55.813 32.4603 56.08 32.622C56.3841 32.7758 56.68 32.712 56.8567 32.4546C57.0334 32.1972 57.1403 31.7953 57.0396 31.4183L57.0355 31.3992Z" fill="#DE2010" stroke="black" stroke-width="0.28801"/>
<path fill-rule="evenodd" clip-rule="evenodd" d="M56.2869 29.1202C56.1104 28.7727 55.7989 28.4938 55.5082 28.4229C55.175 28.3517 54.9052 28.4888 54.7999 28.7827C54.6947 29.0767 54.7106 29.4839 54.8872 29.8314C55.0726 30.1963 55.3752 30.4579 55.6747 30.5462C56.0079 30.6174 56.2778 30.4803 56.383 30.1863C56.4883 29.8924 56.4892 29.4765 56.2958 29.1376L56.2869 29.1202Z" fill="#DE2010" stroke="black" stroke-width="0.288009"/>
<path fill-rule="evenodd" clip-rule="evenodd" d="M55.4703 27.2653C55.2937 26.9178 54.9822 26.6388 54.6916 26.5679C54.3584 26.4967 54.0885 26.6338 53.9833 26.9278C53.878 27.2217 53.894 27.629 54.0705 27.9765C54.2559 28.3413 54.5586 28.6029 54.8581 28.6912C55.1913 28.7624 55.4611 28.6253 55.5664 28.3313C55.6716 28.0374 55.6725 27.6216 55.4791 27.2826L55.4703 27.2653Z" fill="#DE2010" stroke="black" stroke-width="0.288009"/>
<path fill-rule="evenodd" clip-rule="evenodd" d="M54.3147 25.4167C54.1094 25.0854 53.7754 24.8338 53.4798 24.7877C53.1417 24.745 52.8845 24.9045 52.8045 25.2063C52.7245 25.5081 52.7749 25.9125 52.9802 26.2439C53.1959 26.5917 53.5196 26.8267 53.8255 26.8894C54.1635 26.932 54.4208 26.7726 54.5007 26.4708C54.5807 26.169 54.5464 25.7546 54.325 25.4332L54.3147 25.4167Z" fill="#DE2010" stroke="black" stroke-width="0.288009"/>
<path fill-rule="evenodd" clip-rule="evenodd" d="M53.022 23.6197C52.7856 23.3098 52.4288 23.0917 52.1301 23.0744C51.7896 23.0646 51.5489 23.2482 51.4985 23.5563C51.4481 23.8644 51.5373 24.2621 51.7737 24.572C52.022 24.8974 52.3669 25.1 52.6774 25.1328C53.018 25.1426 53.2586 24.959 53.3091 24.6509C53.3595 24.3427 53.2853 23.9336 53.0338 23.6352L53.022 23.6197Z" fill="#DE2010" stroke="black" stroke-width="0.288009"/>
<path fill-rule="evenodd" clip-rule="evenodd" d="M51.4796 21.9593C51.2007 21.687 50.8161 21.5229 50.5181 21.5491C50.1797 21.5888 49.9682 21.8053 49.963 22.1175C49.9577 22.4297 50.1037 22.8102 50.3825 23.0825C50.6753 23.3685 51.046 23.519 51.3579 23.5064C51.6964 23.4667 51.9078 23.2502 51.9131 22.938C51.9183 22.6258 51.7856 22.2318 51.4935 21.9729L51.4796 21.9593Z" fill="#DE2010" stroke="black" stroke-width="0.28801"/>
<path fill-rule="evenodd" clip-rule="evenodd" d="M49.7544 20.4329C49.4517 20.1874 49.0536 20.0594 48.7593 20.1129C48.426 20.1835 48.2353 20.4186 48.2588 20.7299C48.2823 21.0413 48.4627 21.4067 48.7654 21.6523C49.0832 21.9101 49.4662 22.0259 49.7757 21.9846C50.109 21.914 50.2996 21.6789 50.2761 21.3676C50.2526 21.0563 50.0842 20.6761 49.7696 20.4452L49.7544 20.4329Z" fill="#DE2010" stroke="black" stroke-width="0.288009"/>
<path fill-rule="evenodd" clip-rule="evenodd" d="M47.9207 19.2107C47.5814 19.0188 47.1677 18.9586 46.8863 19.0603C46.5693 19.1852 46.4203 19.4487 46.4952 19.7518C46.57 20.0549 46.8086 20.3854 47.1478 20.5773C47.5041 20.7788 47.9009 20.8293 48.1993 20.7373C48.5162 20.6123 48.6652 20.3489 48.5904 20.0457C48.5155 19.7426 48.2863 19.3957 47.9377 19.2203L47.9207 19.2107Z" fill="#DE2010" stroke="black" stroke-width="0.28801"/>
<path fill-rule="evenodd" clip-rule="evenodd" d="M45.8694 18.1254C45.5141 17.9652 45.0965 17.9429 44.8255 18.0698C44.5213 18.2231 44.3969 18.499 44.499 18.794C44.6011 19.0891 44.8687 19.3965 45.2241 19.5567C45.5972 19.7249 45.997 19.7391 46.2857 19.6203C46.59 19.467 46.7144 19.1911 46.6122 18.8961C46.5101 18.601 46.2503 18.2764 45.8872 18.1334L45.8694 18.1254Z" fill="#DE2010" stroke="black" stroke-width="0.288009"/>
<path fill-rule="evenodd" clip-rule="evenodd" d="M43.857 17.3135C43.4917 17.1775 43.0736 17.1833 42.8118 17.328C42.5184 17.5013 42.4128 17.785 42.5345 18.0725C42.6562 18.3601 42.9438 18.6488 43.3091 18.7848C43.6926 18.9277 44.0925 18.9151 44.3726 18.7772C44.6659 18.6038 44.7715 18.3202 44.6498 18.0326C44.5282 17.7451 44.2471 17.4386 43.8753 17.3203L43.857 17.3135Z" fill="#DE2010" stroke="black" stroke-width="0.288009"/>
<path fill-rule="evenodd" clip-rule="evenodd" d="M41.8118 16.6786C41.4372 16.5709 41.0208 16.6086 40.7707 16.7728C40.4915 16.9681 40.4078 17.2589 40.5511 17.5363C40.6944 17.8138 41.0032 18.0797 41.3778 18.1875C41.7711 18.3006 42.1688 18.2575 42.4376 18.0987C42.7168 17.9034 42.8005 17.6125 42.6572 17.3351C42.5139 17.0577 42.2104 16.7736 41.8305 16.684L41.8118 16.6786Z" fill="#DE2010" stroke="black" stroke-width="0.288009"/>
<path fill-rule="evenodd" clip-rule="evenodd" d="M39.5685 16.2914C39.1818 16.2426 38.7761 16.344 38.5543 16.5448C38.3085 16.7807 38.2706 17.081 38.4549 17.333C38.6392 17.5851 38.9853 17.8003 39.372 17.8491C39.7781 17.9003 40.1644 17.7965 40.4055 17.5981C40.6513 17.3622 40.6892 17.0619 40.5049 16.8099C40.3206 16.5578 39.9769 16.3238 39.5878 16.2938L39.5685 16.2914Z" fill="#DE2010" stroke="black" stroke-width="0.288009"/>
<path fill-rule="evenodd" clip-rule="evenodd" d="M37.3425 16.1676C36.953 16.1519 36.5574 16.2875 36.3536 16.5065C36.1288 16.7625 36.1166 17.0649 36.3217 17.3003C36.5268 17.5357 36.89 17.7207 37.2795 17.7363C37.6884 17.7528 38.0645 17.6164 38.2878 17.3982C38.5126 17.1422 38.5248 16.8398 38.3197 16.6044C38.1146 16.369 37.7522 16.1651 37.3619 16.1684L37.3425 16.1676Z" fill="#DE2010" stroke="black" stroke-width="0.28801"/>
<path fill-rule="evenodd" clip-rule="evenodd" d="M35.3008 16.2375C34.9113 16.2219 34.5157 16.3574 34.3119 16.5764C34.0871 16.8324 34.0749 17.1349 34.28 17.3703C34.4851 17.6057 34.8483 17.7907 35.2378 17.8063C35.6467 17.8227 36.0228 17.6864 36.2461 17.4682C36.471 17.2121 36.4831 16.9097 36.278 16.6743C36.0729 16.4389 35.7105 16.235 35.3202 16.2383L35.3008 16.2375Z" fill="#DE2010" stroke="black" stroke-width="0.28801"/>
<path fill-rule="evenodd" clip-rule="evenodd" d="M32.9208 16.5193C32.5408 16.6062 32.1946 16.8406 32.0551 17.1053C31.9052 17.4112 31.9726 17.7063 32.2322 17.8798C32.4918 18.0533 32.8907 18.1367 33.2707 18.0499C33.6697 17.9587 33.9969 17.7286 34.1553 17.4596C34.3053 17.1536 34.2379 16.8586 33.9783 16.6851C33.7187 16.5116 33.3156 16.4097 32.9398 16.515L32.9208 16.5193Z" fill="#DE2010" stroke="black" stroke-width="0.288009"/>
<path fill-rule="evenodd" clip-rule="evenodd" d="M30.7537 17.0627C30.3822 17.1806 30.0564 17.4428 29.9393 17.7181C29.8151 18.0353 29.9066 18.3238 30.1796 18.4753C30.4526 18.6268 30.8571 18.6771 31.2286 18.5592C31.6187 18.4354 31.9259 18.1791 32.0616 17.8979C32.1858 17.5807 32.0943 17.2922 31.8213 17.1407C31.5483 16.9892 31.1381 16.9209 30.7723 17.0568L30.7537 17.0627Z" fill="#DE2010" stroke="black" stroke-width="0.28801"/>
<path fill-rule="evenodd" clip-rule="evenodd" d="M28.7759 17.9166C28.4211 18.0779 28.1289 18.377 28.0454 18.6643C27.9598 18.9941 28.0851 19.2696 28.3742 19.3875C28.6633 19.5054 29.0709 19.5071 29.4257 19.3458C29.7983 19.1764 30.0727 18.8854 30.174 18.5901C30.2595 18.2602 30.1343 17.9847 29.8452 17.8668C29.5561 17.7489 29.1407 17.73 28.7937 17.9085L28.7759 17.9166Z" fill="#DE2010" stroke="black" stroke-width="0.288008"/>
<path fill-rule="evenodd" clip-rule="evenodd" d="M26.8016 18.9249C26.4618 19.1159 26.1962 19.4389 26.1375 19.7322C26.0804 20.0681 26.2287 20.332 26.5268 20.4248C26.8249 20.5176 27.2312 20.4846 27.5709 20.2936C27.9277 20.093 28.1763 19.7796 28.252 19.4767C28.3091 19.1408 28.1608 18.877 27.8627 18.7842C27.5646 18.6913 27.1491 18.7079 26.8186 18.9154L26.8016 18.9249Z" fill="#DE2010" stroke="black" stroke-width="0.288007"/>
<path fill-rule="evenodd" clip-rule="evenodd" d="M24.9265 20.1957C24.6095 20.4225 24.3805 20.7724 24.3541 21.0704C24.3338 21.4105 24.5099 21.6567 24.8163 21.7166C25.1228 21.7764 25.523 21.6994 25.84 21.4726C26.1729 21.2345 26.386 20.896 26.4282 20.5866C26.4485 20.2465 26.2724 20.0004 25.966 19.9405C25.6596 19.8806 25.2483 19.9422 24.9423 20.1844L24.9265 20.1957Z" fill="#DE2010" stroke="black" stroke-width="0.288008"/>
<path fill-rule="evenodd" clip-rule="evenodd" d="M23.2049 21.5051C22.9082 21.7579 22.7097 22.1259 22.7086 22.4251C22.7171 22.7657 22.9134 22.996 23.2238 23.0298C23.5342 23.0635 23.9265 22.9529 24.2232 22.7001C24.5347 22.4347 24.7184 22.0793 24.7344 21.7675C24.7258 21.4269 24.5295 21.1965 24.2191 21.1628C23.9087 21.1291 23.5042 21.2253 23.2197 21.4925L23.2049 21.5051Z" fill="#DE2010" stroke="black" stroke-width="0.288007"/>
<path fill-rule="evenodd" clip-rule="evenodd" d="M21.6763 23.1002C21.3985 23.3736 21.2268 23.7549 21.2472 24.0534C21.2801 24.3925 21.4925 24.6082 21.8045 24.6196C22.1165 24.631 22.4998 24.4926 22.7776 24.2191C23.0693 23.932 23.2271 23.5644 23.2206 23.2523C23.1876 22.9132 22.9753 22.6975 22.6633 22.6861C22.3513 22.6747 21.9547 22.7996 21.6902 23.0865L21.6763 23.1002Z" fill="#DE2010" stroke="black" stroke-width="0.288008"/>
<path fill-rule="evenodd" clip-rule="evenodd" d="M20.3629 24.8776C20.109 25.1733 19.9698 25.5676 20.0151 25.8634C20.0763 26.1985 20.3059 26.3957 20.6178 26.3809C20.9297 26.3662 21.3001 26.1962 21.554 25.9004C21.8207 25.5899 21.9471 25.2104 21.9145 24.8999C21.8533 24.5647 21.6237 24.3675 21.3118 24.3823C20.9999 24.3971 20.6152 24.5548 20.3756 24.8628L20.3629 24.8776Z" fill="#DE2010" stroke="black" stroke-width="0.288009"/>
<path fill-rule="evenodd" clip-rule="evenodd" d="M19.1597 26.6849C18.9388 27.006 18.8425 27.4129 18.919 27.7021C19.0157 28.0289 19.265 28.2004 19.5735 28.1525C19.8821 28.1046 20.2322 27.896 20.4532 27.5749C20.6852 27.2377 20.7704 26.8469 20.7049 26.5416C20.6083 26.2149 20.359 26.0433 20.0504 26.0912C19.7419 26.1392 19.3762 26.337 19.1708 26.6689L19.1597 26.6849Z" fill="#DE2010" stroke="black" stroke-width="0.288009"/>
<path fill-rule="evenodd" clip-rule="evenodd" d="M18.1639 28.7351C18.0014 29.0894 17.9764 29.5067 18.1015 29.7785C18.2528 30.0838 18.5279 30.21 18.8236 30.1097C19.1193 30.0095 19.4285 29.7439 19.591 29.3896C19.7616 29.0176 19.7784 28.6179 19.6615 28.3284C19.5102 28.0232 19.2351 27.897 18.9394 27.9972C18.6437 28.0974 18.3173 28.3552 18.172 28.7173L18.1639 28.7351Z" fill="#DE2010" stroke="black" stroke-width="0.288008"/>
<path fill-rule="evenodd" clip-rule="evenodd" d="M17.3735 30.8913C17.2438 31.2589 17.2568 31.6768 17.406 31.9362C17.5844 32.2265 17.8698 32.3272 18.1552 32.2006C18.4406 32.0739 18.7243 31.7814 18.8541 31.4138C18.9903 31.0279 18.9708 30.6283 18.8281 30.3506C18.6497 30.0603 18.3643 29.9596 18.0789 30.0862C17.7935 30.2129 17.4919 30.4991 17.38 30.873L17.3735 30.8913Z" fill="#DE2010" stroke="black" stroke-width="0.288008"/>
<path fill-rule="evenodd" clip-rule="evenodd" d="M16.6852 34.9685C16.6492 35.2797 16.7639 35.602 16.9719 35.7744C17.2158 35.9651 17.5172 35.9875 17.763 35.8332C18.0088 35.6789 18.2126 35.3959 18.2486 35.0848C18.2864 34.7581 18.1699 34.4513 17.9637 34.2634C17.7198 34.0726 17.4184 34.0502 17.1726 34.2046C16.9268 34.3589 16.7042 34.6404 16.687 34.953L16.6852 34.9685Z" fill="#DE2010" stroke="black" stroke-width="0.257976"/>
<path fill-rule="evenodd" clip-rule="evenodd" d="M16.8658 33.069C16.7791 33.449 16.8401 33.8627 17.0181 34.1032C17.2286 34.371 17.5237 34.4383 17.7927 34.2797C18.0616 34.1212 18.3099 33.798 18.3965 33.4179C18.4875 33.0189 18.4222 32.6242 18.2486 32.3647C18.038 32.0969 17.7429 32.0296 17.474 32.1882C17.205 32.3467 16.9383 32.6657 16.8701 33.05L16.8658 33.069Z" fill="#DE2010" stroke="black" stroke-width="0.288007"/>
<path fill-rule="evenodd" clip-rule="evenodd" d="M56 32.09C56.2566 31.8217 56.49 31.74 56.7817 31.845C56.665 31.1334 56.455 30.8884 56.175 30.9817C55.9067 31.0634 55.7783 31.425 56 32.09ZM56.385 34.2134C56.6533 33.9684 56.8867 33.91 57.1783 34.0267C57.1317 33.3267 56.9216 33.0584 56.6417 33.1284C56.3617 33.1867 56.2216 33.5484 56.385 34.2134ZM55.475 30.13C55.65 29.815 55.86 29.6867 56.175 29.6984C55.8833 29.045 55.615 28.87 55.3583 29.0217C55.125 29.1734 55.1017 29.5584 55.475 30.1417V30.13ZM54.53 28.1934C54.705 27.8667 54.915 27.7384 55.23 27.7617C54.9383 27.0967 54.6583 26.9217 54.4133 27.0734C54.18 27.225 54.1567 27.61 54.53 28.1934ZM52.255 24.635C52.3717 24.285 52.5583 24.1217 52.8617 24.0984C52.4767 23.4917 52.1733 23.3634 51.9633 23.55C51.7533 23.7367 51.7883 24.1334 52.255 24.635ZM50.75 23.0834C50.8666 22.7334 51.03 22.57 51.3333 22.5234C50.9366 21.94 50.6333 21.8234 50.4233 22.01C50.2133 22.2084 50.26 22.5934 50.75 23.0834ZM47.635 20.4584C47.635 20.085 47.7517 19.875 48.02 19.735C47.46 19.3034 47.1216 19.2917 46.9933 19.5367C46.865 19.7817 47.0166 20.1317 47.635 20.4584ZM49.2683 21.6834C49.315 21.3217 49.4667 21.1234 49.77 21.0417C49.28 20.5167 48.965 20.435 48.79 20.6567C48.615 20.89 48.7083 21.2517 49.2567 21.6834H49.2683ZM45.7683 19.4317C45.7333 19.07 45.8267 18.8484 46.0833 18.6734C45.4767 18.3 45.15 18.3234 45.0333 18.58C44.9283 18.8484 45.1267 19.175 45.78 19.4317H45.7683ZM43.89 18.5917C43.7967 18.2417 43.855 18.0084 44.0883 17.7984C43.435 17.5184 43.1083 17.5767 43.0383 17.8567C42.9683 18.1367 43.2133 18.4284 43.89 18.5917ZM41.8483 17.9617C41.72 17.6117 41.755 17.3784 41.9767 17.145C41.3 16.9234 40.985 17.0167 40.9267 17.2967C40.8917 17.5767 41.16 17.8567 41.8483 17.9617ZM39.83 17.565C39.69 17.2384 39.7133 16.9817 39.9117 16.7484C39.2117 16.5734 38.9083 16.69 38.885 16.9817C38.85 17.2617 39.1417 17.5184 39.83 17.565ZM37.7067 17.4017C37.52 17.0867 37.52 16.8417 37.7067 16.585C36.995 16.48 36.6917 16.6317 36.7033 16.9117C36.7033 17.2034 37.0183 17.425 37.7067 17.4017ZM33.5417 17.7167C33.285 17.46 33.2267 17.215 33.3317 16.9234C32.6317 16.9934 32.375 17.2034 32.445 17.4834C32.515 17.7634 32.8767 17.9034 33.5417 17.7167ZM35.595 17.4484C35.3733 17.1567 35.3383 16.9117 35.49 16.6317C34.7783 16.6084 34.4983 16.7834 34.5333 17.075C34.5683 17.355 34.9067 17.5417 35.5833 17.4484H35.595ZM31.5233 18.1484C31.2433 17.9267 31.1383 17.705 31.2083 17.4017C30.5083 17.5767 30.2983 17.8217 30.4033 18.0784C30.52 18.3467 30.8933 18.4284 31.5233 18.1484ZM27.6733 19.9217C27.3467 19.7584 27.2067 19.56 27.2183 19.245C26.565 19.5484 26.4017 19.8284 26.565 20.0617C26.7167 20.295 27.1017 20.3184 27.6733 19.9217ZM29.54 18.9767C29.225 18.7784 29.12 18.5567 29.1667 18.2534C28.4783 18.4634 28.28 18.72 28.4083 18.9767C28.5367 19.2334 28.9217 19.3034 29.5283 18.9767H29.54ZM24.22 22.3367C23.87 22.2434 23.6833 22.0684 23.6367 21.7534C23.0533 22.1967 22.96 22.5 23.1583 22.6984C23.3683 22.8967 23.7417 22.8384 24.2083 22.3367H24.22ZM25.865 20.9834C25.515 20.8667 25.3517 20.68 25.3283 20.3767C24.7217 20.75 24.5933 21.0534 24.78 21.275C24.9667 21.485 25.3633 21.45 25.865 20.9834ZM22.75 23.7834C22.4 23.7134 22.2017 23.5617 22.12 23.2584C21.5833 23.7367 21.5133 24.0634 21.735 24.2384C21.9567 24.425 22.3183 24.32 22.75 23.7717V23.7834ZM21.4317 25.475C21.0583 25.4517 20.8483 25.3234 20.755 25.0317C20.265 25.5567 20.2183 25.8717 20.4517 26.035C20.685 26.1984 21.0467 26.0584 21.4317 25.475ZM20.335 27.225C19.9617 27.2484 19.7517 27.1434 19.5883 26.875C19.1917 27.47 19.1917 27.8084 19.4483 27.925C19.705 28.0417 20.0433 27.855 20.335 27.225ZM19.3667 29.0917C19.0167 29.1617 18.7833 29.0917 18.585 28.835C18.27 29.4767 18.3167 29.8034 18.585 29.885C18.8533 29.9784 19.1683 29.745 19.3667 29.08V29.0917ZM18.5967 30.9934C18.2467 31.1217 18.0133 31.0867 17.78 30.8767C17.57 31.5534 17.6633 31.8684 17.955 31.915C18.235 31.95 18.5033 31.6817 18.5967 30.9817V30.9934ZM18.0717 33.1167C17.745 33.2684 17.5 33.2567 17.255 33.0584C17.0917 33.7584 17.2083 34.05 17.4883 34.0734C17.78 34.1084 18.0367 33.8167 18.0717 33.1167ZM17.8617 34.89C17.5583 35.0534 17.3133 35.0767 17.045 34.9484C16.9633 35.52 17.115 35.7417 17.395 35.7184C17.675 35.695 17.8967 35.4384 17.8617 34.89ZM53.6783 26.4667C53.8067 26.1167 53.9933 25.9534 54.2966 25.93C53.9233 25.3234 53.6316 25.195 53.41 25.37C53.1883 25.5567 53.2233 25.9534 53.6783 26.4667ZM56.6183 36.3834C56.8867 36.1267 57.1317 36.0684 57.4117 36.1967C57.365 35.485 57.155 35.2284 56.875 35.2867C56.6067 35.3567 56.455 35.7067 56.6183 36.3834Z" fill="#FFE300"/>
<path fill-rule="evenodd" clip-rule="evenodd" d="M53.8183 24.775C53.8183 24.775 53.0016 25.58 53.1533 26.5484C53.2933 27.5167 53.9116 28.7184 53.795 29.7334C53.6783 30.7367 53.5033 31.4017 53.5033 31.4017C53.5033 31.4017 54.4366 30.34 54.4366 29.3017C54.46 28.2867 53.8066 26.9334 53.8066 26.1867C53.8066 25.44 53.8416 24.7634 53.8183 24.7867V24.775ZM55.3 28.0417C55.3 28.0417 54.6816 28.5084 54.74 29.5584C54.7983 30.62 55.9066 32.5684 55.9066 32.5684C55.9066 32.5684 56.7 34.2017 56.665 34.6334C56.6416 35.065 56.8166 34.225 56.735 33.2917C56.6533 32.3584 55.4516 30.2817 55.4516 30.2817C55.4516 30.2817 55.195 29.8617 55.2183 29.15C55.2416 28.45 55.3116 28.0534 55.3116 28.0417H55.3Z" fill="#217900" stroke="black" stroke-width="0.221667" stroke-linejoin="round"/>
<path fill-rule="evenodd" clip-rule="evenodd" d="M36.5166 14.905C36.5166 14.695 36.26 14.5083 35.9566 14.5083C35.6533 14.5083 35.4083 14.695 35.4083 14.905C35.4083 15.115 35.6416 15.3016 35.9566 15.3016C36.2716 15.3016 36.505 15.1266 36.505 14.905H36.5166ZM36.75 15.8383C36.75 15.6283 36.4933 15.4533 36.1666 15.4533C35.8633 15.4533 35.6066 15.6166 35.6066 15.8266C35.6066 16.0366 35.8633 16.2116 36.1783 16.2116C36.4933 16.2116 36.7383 16.0366 36.7383 15.8266L36.75 15.8383ZM37.45 14.7416C37.45 14.7416 36.7966 15.22 37.065 15.4183C37.3333 15.6166 38.0683 14.9983 38.0683 14.9983L37.45 14.7416ZM56.5016 25.8716C56.5016 25.7316 56.4433 25.6033 56.3383 25.5333C56.2871 25.4971 56.226 25.4777 56.1633 25.4777C56.1006 25.4777 56.0395 25.4971 55.9883 25.5333C55.8833 25.6033 55.825 25.7316 55.825 25.8716C55.825 26.0116 55.8833 26.14 55.9883 26.21C56.0395 26.2461 56.1006 26.2655 56.1633 26.2655C56.226 26.2655 56.2871 26.2461 56.3383 26.21C56.4433 26.14 56.5016 26.0116 56.5016 25.8716ZM56.2566 24.9383C56.2566 24.705 56.0933 24.53 55.9066 24.53C55.72 24.53 55.545 24.7166 55.545 24.95C55.545 25.1833 55.7083 25.3583 55.895 25.3583C56.0816 25.3583 56.2566 25.1716 56.2566 24.95V24.9383ZM56.4316 26.8283C56.4316 26.7116 56.3616 26.6183 56.2916 26.6183C56.2216 26.6183 56.1516 26.7116 56.1516 26.8283C56.1516 26.945 56.21 27.05 56.2916 27.05C56.3733 27.05 56.4316 26.945 56.4316 26.8283ZM57.0033 25.1483C57.0033 25.0083 56.9333 24.9033 56.8633 24.9033C56.7816 24.9033 56.7233 25.0083 56.7233 25.1366C56.7233 25.265 56.7816 25.3933 56.8633 25.3933C56.9333 25.3933 57.0033 25.2766 57.0033 25.1483ZM55.44 25.3116C55.44 25.195 55.37 25.1133 55.3 25.1133C55.23 25.1133 55.16 25.2066 55.16 25.3116C55.16 25.4166 55.2183 25.5216 55.3 25.5216C55.3816 25.5216 55.44 25.4283 55.44 25.3116ZM55.685 26.6416C55.685 26.4666 55.5566 26.3266 55.3933 26.3266C55.23 26.3266 55.1016 26.4666 55.1016 26.6416C55.1016 26.8283 55.2183 26.9683 55.3933 26.9683C55.5683 26.9683 55.685 26.8283 55.685 26.6416ZM54.915 26.0583C54.915 25.9066 54.7983 25.7783 54.67 25.7783C54.53 25.7783 54.4133 25.895 54.4133 26.0583C54.4133 26.2216 54.53 26.3383 54.67 26.3383C54.7983 26.3383 54.9033 26.2216 54.9033 26.0583H54.915ZM54.7983 25.265C54.7977 25.2246 54.7866 25.1852 54.7661 25.1504C54.7457 25.1157 54.7166 25.0868 54.6816 25.0666C54.6484 25.046 54.61 25.035 54.5708 25.035C54.5316 25.035 54.4932 25.046 54.46 25.0666C54.4272 25.0882 54.4004 25.1177 54.3821 25.1523C54.3637 25.187 54.3544 25.2257 54.355 25.265C54.3535 25.3073 54.3636 25.3491 54.3842 25.3861C54.4048 25.4231 54.435 25.4538 54.4716 25.475C54.5036 25.4934 54.5398 25.5031 54.5766 25.5031C54.6135 25.5031 54.6497 25.4934 54.6816 25.475C54.7516 25.4283 54.7983 25.3583 54.7983 25.265ZM58.31 29.2783C57.995 28.8583 57.4816 28.6833 57.1666 28.8816C56.8633 29.08 56.8633 29.5816 57.19 30.0133C57.505 30.4333 58.0066 30.6083 58.3216 30.41C58.6366 30.2 58.6366 29.71 58.3216 29.2783H58.31ZM59.22 37.06C59.2783 36.535 59.0333 36.08 58.66 36.0333C58.2866 35.9983 57.9366 36.3833 57.8666 36.8966C57.8083 37.41 58.065 37.865 58.4383 37.9116C58.8116 37.9583 59.1616 37.5616 59.22 37.06ZM59.4066 41.5866C59.5233 41.0733 59.3016 40.595 58.94 40.5133C58.5666 40.4433 58.1816 40.7933 58.0766 41.3066C57.9716 41.8083 58.1933 42.2866 58.5433 42.3566C58.9166 42.4383 59.3016 42.0883 59.4066 41.575V41.5866ZM60.2816 37.34C60.2816 37.1416 60.1416 36.9783 59.9783 36.9783C59.815 36.9783 59.6633 37.1416 59.6633 37.34C59.6633 37.55 59.8033 37.7133 59.9783 37.7133C60.1533 37.7133 60.2816 37.55 60.2816 37.34ZM59.5233 38.1916L58.8933 38.915C58.8933 38.915 58.2983 38.9266 58.3333 39.125C58.3566 39.3116 59.15 39.895 59.15 40.1283C59.1383 40.3616 59.6633 40.07 59.6633 40.07L60.095 38.775C60.095 38.775 60.0716 37.8766 59.8383 37.8883C59.605 37.9116 59.5466 38.18 59.5233 38.1916ZM17.8266 37.9116C17.8354 37.8676 17.8343 37.8223 17.8234 37.7787C17.8125 37.7352 17.7921 37.6947 17.7636 37.66C17.7352 37.6253 17.6994 37.5974 17.6588 37.5782C17.6183 37.559 17.574 37.5491 17.5291 37.5491C17.4843 37.5491 17.44 37.559 17.3994 37.5782C17.3589 37.5974 17.3231 37.6253 17.2946 37.66C17.2662 37.6947 17.2458 37.7352 17.2349 37.7787C17.224 37.8223 17.2229 37.8676 17.2316 37.9116C17.2453 37.9805 17.2825 38.0424 17.3367 38.0869C17.391 38.1314 17.459 38.1558 17.5291 38.1558C17.5993 38.1558 17.6673 38.1314 17.7216 38.0869C17.7758 38.0424 17.8129 37.9805 17.8266 37.9116ZM18.1183 36.9783C18.1183 36.815 17.9783 36.675 17.815 36.675C17.6516 36.675 17.5116 36.815 17.5116 36.99C17.5116 37.165 17.6516 37.305 17.815 37.305C17.8965 37.3019 17.9736 37.2674 18.0302 37.2087C18.0868 37.1499 18.1184 37.0715 18.1183 36.99V36.9783ZM15.6333 32.615C15.5166 32.3583 15.2833 32.2183 15.1083 32.3C14.9333 32.3816 14.875 32.65 14.9916 32.9066C15.1083 33.1633 15.3416 33.3033 15.5166 33.2216C15.7033 33.14 15.75 32.8716 15.6333 32.615ZM16.3916 35.345C16.2283 35.0183 15.9133 34.8316 15.6683 34.9366C15.4233 35.0416 15.3533 35.3916 15.505 35.7183C15.6566 36.045 15.9716 36.2316 16.2283 36.1266C16.485 36.0216 16.5433 35.6716 16.3916 35.345ZM17.185 37.3516C17.2433 36.9433 17.0683 36.5583 16.8116 36.5116C16.5433 36.4533 16.2983 36.745 16.24 37.1533C16.1933 37.5616 16.3566 37.935 16.625 37.9933C16.8816 38.0516 17.1383 37.76 17.185 37.3516ZM15.9016 37.6433C16.065 37.2583 16.0066 36.85 15.7733 36.7333C15.54 36.6166 15.2133 36.815 15.05 37.2C14.8866 37.585 14.945 37.9816 15.19 38.11C15.435 38.2383 15.7383 38.0283 15.9016 37.6433Z" fill="#6B18B5"/>
<path fill-rule="evenodd" clip-rule="evenodd" d="M15.3183 36.7684C15.3183 36.5701 15.1666 36.4184 14.98 36.4184C14.7933 36.4184 14.6416 36.5817 14.6416 36.7684C14.6416 36.9551 14.7933 37.1184 14.9916 37.1184C15.19 37.1184 15.3183 36.9667 15.3183 36.7684ZM15.05 35.8934C15.05 35.7184 14.91 35.5784 14.7466 35.5784C14.7053 35.5799 14.6646 35.5895 14.6269 35.6068C14.5893 35.624 14.5554 35.6485 14.5273 35.6788C14.4991 35.7092 14.4772 35.7448 14.4628 35.7836C14.4484 35.8224 14.4417 35.8637 14.4433 35.9051C14.4433 36.0684 14.5833 36.2201 14.7466 36.2201C14.91 36.2201 15.05 36.0684 15.05 35.8934ZM15.33 34.2251C15.33 33.9217 15.2016 33.6884 15.0383 33.6884C14.875 33.6884 14.7466 33.9217 14.7466 34.2251C14.7466 34.5167 14.875 34.7617 15.0383 34.7617C15.2016 34.7617 15.33 34.5284 15.33 34.2251ZM16.24 34.0967C16.275 33.805 16.1816 33.5484 16.0066 33.5134C15.855 33.5017 15.6916 33.7234 15.6566 34.0151C15.61 34.3067 15.715 34.5634 15.8783 34.5867C16.03 34.6101 16.1933 34.3884 16.2283 34.0967H16.24ZM22.6566 21.2634C22.785 20.8434 22.6566 20.4234 22.3883 20.3301C22.12 20.2251 21.805 20.4817 21.6883 20.9017C21.5716 21.3217 21.6883 21.7417 21.9566 21.8351C22.225 21.9401 22.54 21.6834 22.6566 21.2634ZM21.4433 23.1184C21.7933 22.8034 21.9566 22.3834 21.7933 22.1734C21.6183 21.9517 21.1866 22.0334 20.825 22.3367C20.4633 22.6401 20.3233 23.0601 20.4866 23.2701C20.6616 23.4917 21.0933 23.4217 21.4433 23.1184ZM20.7433 22.0917C21.0933 21.8234 21.2333 21.4617 21.07 21.2751C20.9066 21.0884 20.4866 21.1584 20.1366 21.4151C19.775 21.6834 19.6233 22.0451 19.7866 22.2317C19.95 22.4184 20.37 22.3484 20.7316 22.0917H20.7433ZM23.485 20.2834C23.7183 20.0967 23.8233 19.8401 23.7183 19.7117C23.6016 19.5951 23.31 19.6301 23.065 19.8167C22.82 20.0034 22.7266 20.2484 22.8433 20.3767C22.96 20.5051 23.24 20.4584 23.485 20.2834Z" fill="#6B18B5"/>
<path fill-rule="evenodd" clip-rule="evenodd" d="M22.05 22.0334C22.2133 21.7767 22.225 21.5084 22.0733 21.4267C21.9216 21.345 21.665 21.4734 21.5016 21.73C21.3383 21.9867 21.3266 22.255 21.4783 22.3367C21.63 22.4184 21.8866 22.2784 22.05 22.0334ZM24.115 20.9484C24.3716 20.7267 24.465 20.4467 24.3483 20.3067C24.2083 20.1667 23.8816 20.2367 23.625 20.4467C23.3683 20.6567 23.275 20.9484 23.4033 21.0884C23.5433 21.2284 23.8583 21.1584 24.115 20.9484ZM20.3816 23.4684C20.615 23.4684 20.8016 23.34 20.7783 23.2C20.7783 23.0717 20.5566 22.9667 20.3116 22.9784C20.0783 22.99 19.8916 23.1184 19.915 23.2467C19.9266 23.3867 20.1483 23.48 20.3816 23.48V23.4684ZM24.8966 19.6067C25.06 19.35 25.0716 19.0817 24.92 19C24.78 18.9184 24.5233 19.0467 24.36 19.3034C24.1966 19.56 24.185 19.8284 24.3366 19.91C24.4883 19.9917 24.7333 19.8634 24.8966 19.6067Z" fill="#6B18B5"/>
<path fill-rule="evenodd" clip-rule="evenodd" d="M52.1266 27.2716C52.1266 27.2716 52.8733 26.0933 52.5933 24.9733C52.3016 23.865 51.0766 24.6583 51.1 25.055C51.1233 25.44 51.8933 25.9766 51.94 26.2216C51.9866 26.455 51.8466 27.19 52.1266 27.2716Z" fill="#FFD200" stroke="#EF8A10" stroke-width="0.116667"/>
<path fill-rule="evenodd" clip-rule="evenodd" d="M37.905 17.46C37.905 17.46 40.5883 17.565 40.6 19.3033C40.6 19.5716 40.6 19.8866 40.5066 20.6683C41.0433 20.3766 41.3933 19.5833 41.3233 19.07C41.335 17.3083 38.9316 16.095 37.905 17.46Z" fill="#217900" stroke="black" stroke-width="0.268333" stroke-linejoin="round"/>
<path fill-rule="evenodd" clip-rule="evenodd" d="M36.2016 17.3783C36.2016 17.3783 38.36 16.935 38.3833 18.6617C38.395 20.4117 37.6833 20.68 37.6833 20.68C37.6833 20.68 39.3516 20.33 39.3633 18.5683C39.3633 16.795 37.2283 16.0133 36.2016 17.3783Z" fill="#217900" stroke="black" stroke-width="0.268333" stroke-linejoin="round"/>
<path fill-rule="evenodd" clip-rule="evenodd" d="M43.5516 54.875C43.5516 54.875 53.6783 52.005 56.735 39.5917C54.95 52.32 43.8666 56.3917 43.8666 56.3917L43.54 54.875H43.5516Z" fill="#F7DF73" stroke="black" stroke-width="0.291667" stroke-linejoin="round"/>
<path fill-rule="evenodd" clip-rule="evenodd" d="M44.59 55.645C44.905 55.645 45.675 54.7817 46.1183 54.6883C46.5616 54.595 46.6083 54.14 46.1066 54.1283C45.5933 54.105 45.15 54.7117 45.15 54.7117C45.15 54.7117 44.7066 55.085 44.24 55.1317C43.7733 55.1783 44.0766 55.7617 44.59 55.645Z" fill="#8C1800"/>
<path fill-rule="evenodd" clip-rule="evenodd" d="M50.4233 51.2933C50.4233 51.2933 49.3733 51.8999 49.5133 52.0516C49.6649 52.2033 50.5983 51.4683 50.6216 51.4683C50.6333 51.4449 51.0183 50.9783 50.4233 51.2933Z" fill="#8C1800" stroke="#8C1800" stroke-width="0.291667"/>
<path fill-rule="evenodd" clip-rule="evenodd" d="M46.7483 54.0583C46.7483 54.0583 46.4333 53.9416 47.2383 53.6383C48.055 53.3233 47.9966 52.9616 48.265 52.8099C48.5216 52.6583 49.0816 52.2616 49.1983 52.4949C49.315 52.7283 48.615 53.1949 48.44 53.2416C48.2766 53.2883 47.4716 54.0349 47.2383 54.0933C47.005 54.1633 46.8416 54.1283 46.7483 54.0583Z" fill="#8C1800"/>
<path d="M51.9866 49.7417C51.2866 50.5234 51.2866 50.5 51.2866 50.5" stroke="#8C1800" stroke-width="0.35" stroke-linecap="round"/>
<path d="M53.025 48.4817L52.36 49.2867" stroke="#8C1800" stroke-width="0.326667" stroke-linecap="round"/>
<path d="M54.0633 46.825L53.3167 48.015" stroke="#8C1800" stroke-width="0.291667" stroke-linecap="round"/>
<path d="M54.9383 45.145L54.32 46.37M55.3233 44.27L55.1366 44.69" stroke="#8C1800" stroke-width="0.268333" stroke-linecap="round"/>
<path d="M55.7666 43.0917L55.6033 43.605" stroke="#8C1800" stroke-width="0.163333" stroke-linecap="round"/>
<path fill-rule="evenodd" clip-rule="evenodd" d="M30.2701 54.6106C30.2701 54.6106 20.2281 51.694 17.2155 39.0358C18.9729 52.0313 29.9612 56.1383 29.9612 56.1383L30.2701 54.6106Z" fill="#F7DF73" stroke="black" stroke-width="0.293614" stroke-linejoin="round"/>
<path fill-rule="evenodd" clip-rule="evenodd" d="M29.2483 55.3883C28.9333 55.3883 28.175 54.5133 27.7316 54.42C27.2883 54.315 27.2416 53.86 27.7433 53.8367C28.2566 53.8367 28.6883 54.4317 28.6883 54.4317C28.6883 54.4317 29.1316 54.8167 29.5866 54.875C30.0533 54.9217 29.75 55.505 29.2483 55.3883Z" fill="#8C1800"/>
<path fill-rule="evenodd" clip-rule="evenodd" d="M23.4725 50.96C23.4725 50.96 24.5153 51.5949 24.3608 51.7536C24.2256 51.8925 23.2987 51.1584 23.2793 51.1386C23.26 51.1187 22.8931 50.6426 23.4725 50.96Z" fill="#8C1800" stroke="#8C1800" stroke-width="0.293614"/>
<path fill-rule="evenodd" clip-rule="evenodd" d="M27.1133 53.7784C27.1133 53.7784 27.4166 53.6617 26.6233 53.3467C25.83 53.0317 25.865 52.6467 25.6083 52.5067C25.3516 52.3551 24.7916 51.9584 24.675 52.1917C24.5583 52.4251 25.2583 52.8917 25.4333 52.9384C25.5966 52.9967 26.39 53.7551 26.6233 53.8134C26.8566 53.8834 27.0083 53.8484 27.1133 53.7784Z" fill="#8C1800"/>
<path d="M21.9275 49.3926L22.6035 50.1664" stroke="#8C1800" stroke-width="0.352337" stroke-linecap="round"/>
<path d="M20.8847 48.1029L21.5413 48.9164" stroke="#8C1800" stroke-width="0.332763" stroke-linecap="round"/>
<path d="M19.8612 46.4165L20.595 47.6268" stroke="#8C1800" stroke-width="0.293614" stroke-linecap="round"/>
<path d="M18.9922 44.7102L19.6101 45.9601M18.6059 43.7975L18.7991 44.234" stroke="#8C1800" stroke-width="0.27404" stroke-linecap="round"/>
<path d="M18.1618 42.6071L18.3356 43.1428" stroke="#8C1800" stroke-width="0.156594" stroke-linecap="round"/>
<path fill-rule="evenodd" clip-rule="evenodd" d="M57.2133 37.2933C57.2716 38.075 58.03 38.81 57.7266 40.175C57.3533 41.7267 56 45.39 56.2333 46.0317C55.8366 45.4833 55.9066 44.9817 55.8833 44.2117C55.8366 43.4533 56.98 40.6067 57.085 39.65C57.085 38.7867 57.1666 37.6083 57.2133 37.2933Z" fill="#217900" stroke="black" stroke-width="0.268333" stroke-linejoin="round"/>
<path fill-rule="evenodd" clip-rule="evenodd" d="M57.2133 37.3049C57.2133 37.3049 58.4616 38.8799 58.3916 40.1283C58.3333 41.3766 57.6333 42.8349 57.8666 43.4766C57.4975 43.0052 57.3073 42.4182 57.33 41.8199C57.295 41.0616 57.9483 40.2099 57.8083 39.3816C57.68 38.5649 57.2016 37.3049 57.225 37.3049H57.2133ZM16.4616 37.6549C16.415 38.4366 15.8316 39.1366 16.135 40.4899C16.5083 42.0416 17.885 43.9899 17.6516 46.2299C18.06 45.6816 18.1766 45.0633 18.2116 44.3049C18.235 43.5466 16.695 40.9799 16.6016 40.0116C16.6016 39.1483 16.5083 37.9699 16.4616 37.6549Z" fill="#217900" stroke="black" stroke-width="0.268333" stroke-linejoin="round"/>
<path fill-rule="evenodd" clip-rule="evenodd" d="M16.4616 37.6783C16.4616 37.6783 15.2483 39.195 15.3183 40.4433C15.33 41.2716 16.8583 44.7366 16.625 45.39C17.0333 44.8416 17.1383 44.9116 17.1266 44.0833C16.6833 41.9483 15.8783 40.595 16.0183 39.7666C16.1466 38.9383 16.485 37.6666 16.4616 37.6666V37.6783Z" fill="#217900" stroke="black" stroke-width="0.268333" stroke-linejoin="round"/>
<path d="M37.1602 23.725L40.1508 32.9972H49.9381L42.0539 38.7346L45.058 48.0068L37.1738 42.283L29.2895 48.0068L32.2801 38.7346L24.3823 32.9972H34.1424L37.1602 23.725Z" fill="white" stroke="black" stroke-width="0.231108" stroke-linecap="square" stroke-linejoin="round"/>
</g>
<defs>
<clipPath id="clip0_1_68373">
<rect width="74.6667" height="56" fill="white" transform="translate(0 9.375)"/>
</clipPath>
</defs>
</svg>
