<svg width="75" height="75" viewBox="0 0 75 75" fill="none" xmlns="http://www.w3.org/2000/svg">
<rect width="74.6667" height="74.75" fill="white"/>
<g clip-path="url(#clip0_1_68380)">
<path d="M0 9.375H74.6667V65.375H0V9.375Z" fill="#CD2A3E"/>
<path d="M-3.8147e-05 17.775H74.6666V56.975H-3.8147e-05V17.775Z" fill="#006233"/>
<path d="M54.8333 27.4116C54.8333 32.0529 52.9895 36.5041 49.7077 39.786C46.4258 43.0679 41.9746 44.9116 37.3333 44.9116C32.692 44.9116 28.2408 43.0679 24.9589 39.786C21.677 36.5041 19.8333 32.0529 19.8333 27.4116C19.4444 28.9049 19.2484 30.4419 19.25 31.985C19.25 36.781 21.1552 41.3805 24.5464 44.7718C27.9377 48.1631 32.5373 50.0683 37.3333 50.0683C42.1293 50.0683 46.7289 48.1631 50.1201 44.7718C53.5114 41.3805 55.4166 36.781 55.4166 31.985C55.4189 30.4418 55.2228 28.9048 54.8333 27.4116Z" fill="#FFC400"/>
<path d="M37.3333 20.3184L35.7583 25.16H30.6833L34.8016 28.1467L33.2266 32.9767L37.345 29.99L41.4633 32.9767L39.8883 28.1467L44.0066 25.16H38.92L37.3333 20.3184Z" fill="#FFC400"/>
</g>
<defs>
<clipPath id="clip0_1_68380">
<rect width="74.6667" height="56" fill="white" transform="translate(0 9.375)"/>
</clipPath>
</defs>
</svg>
