<svg width="75" height="75" viewBox="0 0 75 75" fill="none" xmlns="http://www.w3.org/2000/svg">
<rect width="74.6667" height="74.75" fill="white"/>
<g clip-path="url(#clip0_1_68288)">
<path d="M0 9.375H74.6667V65.375H0V9.375Z" fill="#012169"/>
<path d="M44.905 22.325H68.88L68.845 39.3933C69.0433 46.2416 64.7733 50.5 56.91 52.425C51.3217 51.025 44.8933 48.1666 44.87 39.5916L44.905 22.325Z" fill="white"/>
<path d="M45.43 22.8384H68.3433L68.32 39.195C68.5067 45.7634 64.4233 49.835 56.91 51.6784C51.5667 50.3484 45.4183 47.595 45.4067 39.3817L45.43 22.8384Z" fill="#00A2BD" stroke="black" stroke-width="0.21"/>
<path d="M68.1683 41.1317C67.3283 47.3967 62.4983 50.1384 56.91 51.5967C51.9517 50.2667 46.62 48.1434 45.5933 41.155L68.1683 41.1317Z" fill="#A53D08"/>
<path d="M56 25.8833L55.965 23.83L57.5983 23.8416L57.61 25.8833H62.0667L62.0783 27.4816L57.61 27.505L57.575 46.335L55.9883 46.3466L55.965 27.4816L51.5317 27.505V25.8716L56 25.8833Z" fill="black"/>
<path fill-rule="evenodd" clip-rule="evenodd" d="M52.3833 41.9017L56.4667 46.1367C57.8783 44.585 56.8983 38.7867 55.0433 37.725C54.8217 38.4134 54.4483 39.2417 54.04 39.4984C53.165 40.105 50.995 40.805 51.7183 41.2484C51.8817 41.0267 52.3133 40.8167 52.5233 41.3184C52.7567 42.1234 51.6133 42.17 51.6133 42.17C51.6133 42.17 50.89 42.0767 50.7617 41.3534C50.645 40.6067 51.8467 39.93 51.9517 39.8834C52.045 39.8484 53.62 39.4167 53.8883 38.0284C54.2267 36.6517 54.565 36.8617 54.6233 36.8384C56.6883 37.0367 58.03 40.7234 58.1117 43.3134C58.1817 45.9034 57.0617 47.63 56.8517 47.7467C56.6533 47.8517 51.9517 42.1584 51.9517 42.1584L52.395 41.9017H52.3833Z" fill="#FF9A08" stroke="black" stroke-width="0.0933333"/>
<path d="M55.37 37.9584L55.3933 45.6L55.37 37.9584Z" fill="#FF9A08"/>
<path d="M55.37 37.9584L55.3933 45.6" stroke="black" stroke-width="0.0933333"/>
<path d="M54.9033 38.11L54.9383 45.04L54.9033 38.11Z" fill="#FF9A08"/>
<path d="M54.9033 38.11L54.9383 45.04" stroke="black" stroke-width="0.0933333"/>
<path d="M54.4133 39.1133L54.4367 44.6199L54.4133 39.1133Z" fill="#FF9A08"/>
<path d="M54.4133 39.1133L54.4367 44.6199" stroke="black" stroke-width="0.0933333"/>
<path d="M54.005 39.4983L54.0283 44.06L54.005 39.4983Z" fill="#FF9A08"/>
<path d="M54.005 39.4983L54.0283 44.06" stroke="black" stroke-width="0.0933333"/>
<path d="M53.5733 39.7084V43.5584V39.7084Z" fill="#FF9A08"/>
<path d="M53.5733 39.7084V43.5584" stroke="black" stroke-width="0.0933333"/>
<path d="M53.1067 40.0117V43.0567V40.0117Z" fill="#FF9A08"/>
<path d="M53.1067 40.0117V43.0567" stroke="black" stroke-width="0.0933333"/>
<path d="M52.6983 40.2567V42.59V40.2567Z" fill="#FF9A08"/>
<path d="M52.6983 40.2567V42.59" stroke="black" stroke-width="0.0933333"/>
<path d="M52.3249 42.3823L56.5343 47.1983" stroke="#FFDF00" stroke-width="0.0933333" stroke-linecap="round"/>
<path d="M56.7396 39.349C56.7396 39.349 58.6436 43.521 56.8796 46.9463" stroke="#FFDF00" stroke-width="0.168" stroke-linecap="round"/>
<path d="M51.8303 41.505C51.8303 41.505 51.9703 41.141 52.1476 41.2904" stroke="#FFDF00" stroke-width="0.168" stroke-linecap="round"/>
<path d="M51.5036 40.441C51.5036 40.441 50.7383 41.113 51.1583 41.5517" stroke="#FFDF00" stroke-width="0.168" stroke-linecap="round"/>
<path d="M57.6333 29.8383C57.9017 29.605 58.0533 29.4533 58.2283 29.4883C58.4033 29.5117 58.6367 29.4883 58.8117 29.4417C59.2708 29.335 59.7464 29.3192 60.2117 29.395C60.3283 29.4183 60.5033 29.4767 60.7483 29.6867C60.9933 29.8967 61.355 30.27 61.2383 31.2733C61.1217 32.2767 61.1567 32.7083 61.0983 33.28C61.005 34.2717 60.7833 35.0883 60.3983 35.03C60.9233 35.9633 60.9817 36.78 61.3317 37.4217C61.6817 38.0633 61.8917 39.3817 61.7633 40.805C61.6233 42.24 61.25 45.4367 62.3817 47.595C62.195 47.7233 61.74 47.595 61.3317 47.1633C60.9233 46.7317 60.7483 46.7433 60.4217 47C59.395 47.7817 58.4383 48.7267 57.0267 47.7817C56.7 47.5717 56.6067 47.315 56.84 46.65C57.4233 45.0167 57.715 42.7533 57.6217 41.7033V29.8383H57.6333Z" fill="#008021" stroke="black" stroke-width="0.035"/>
<path d="M58.5971 28.8304C58.6909 29.0871 58.6875 29.3693 58.5877 29.6237C58.4664 29.9037 58.4384 30.221 58.6437 30.613C58.9611 30.1464 59.4184 30.2397 59.6891 29.9784C59.9597 29.7077 60.0157 29.4557 60.2117 29.3997C60.0157 29.2224 59.7077 29.0264 59.7731 28.5224C59.8384 28.009 60.5477 27.589 59.9037 26.8144C59.8077 26.6921 59.6826 26.5958 59.5399 26.5342C59.3971 26.4726 59.2413 26.4476 59.0864 26.4615C58.9316 26.4754 58.7827 26.5278 58.6532 26.6139C58.5237 26.6999 58.4178 26.817 58.3451 26.9544C58.3077 27.0477 58.3637 27.2344 58.2611 27.3557C58.1957 27.449 58.1117 27.5237 58.0184 27.589C57.9624 27.6357 57.9251 27.6917 57.9904 27.7757C58.0184 27.8037 58.0651 27.8037 58.1117 27.8224L58.0184 27.9904C57.9811 28.0277 57.9997 28.065 58.0371 28.1024C57.9811 28.261 58.0837 28.289 58.0184 28.401C57.9531 28.5037 57.8784 28.6344 58.0931 28.7557C58.1584 28.7837 58.4477 28.849 58.5971 28.8304Z" fill="#FFE1CF" stroke="black" stroke-width="0.0373333"/>
<path d="M55.9743 31.5183C55.601 31.6116 54.9943 31.4436 54.537 31.4996C54.3317 31.5183 54.173 31.4156 54.201 31.2196C54.229 31.0143 54.257 30.7063 54.2103 30.417C54.2176 29.8166 54.3714 29.227 54.6583 28.6996C54.8918 28.2775 55.0438 27.8153 55.1063 27.337C55.1063 27.1223 55.125 26.889 55.3117 26.7676C55.4517 26.6743 55.4797 26.5903 55.5263 26.5156C55.6383 26.3476 55.7503 26.3103 55.7597 26.413C55.769 26.469 55.7503 26.525 55.6943 26.5996C55.8157 26.5063 56.021 26.385 56.0677 26.357C56.1143 26.3196 56.3477 26.1516 56.3663 26.3103C56.4597 26.2636 56.525 26.2636 56.553 26.3103C56.5717 26.3756 56.553 26.3943 56.5157 26.4316C56.581 26.4223 56.6557 26.5343 56.5157 26.6463C56.5903 26.6183 56.665 26.7396 56.5343 26.8423C56.413 26.9543 56.2543 27.029 56.217 27.1223C56.1703 27.2156 55.8437 27.4583 55.7223 27.505C55.5917 27.561 55.5823 27.6356 55.5823 27.8223C55.5823 29.8943 55.3397 29.7263 55.3397 30.2303C55.3397 30.361 55.3117 30.4823 55.4423 30.445C55.5823 30.3983 55.7783 30.3423 55.9743 30.3423V31.509V31.5183Z" fill="#FFE1CF" stroke="black" stroke-width="0.0373333"/>
<path d="M56.0584 35.9797C56.6651 35.6717 57.3651 35.5597 57.7291 35.4663C58.1485 35.3293 58.5546 35.1543 58.9424 34.9437C59.2317 34.7943 59.4651 34.589 59.6237 34.5423C59.7194 34.5129 59.8083 34.4647 59.8852 34.4006C59.9621 34.3365 60.0255 34.2578 60.0717 34.169C60.5312 33.3925 60.8059 32.5207 60.8744 31.621C60.8744 31.1543 60.7531 30.6223 60.2957 30.9957C59.8198 31.406 59.4648 31.9385 59.2691 32.5357C59.0824 33.2823 58.9237 33.4503 58.8864 33.5997C58.8397 33.749 58.6904 33.749 58.5131 33.7863C57.9236 33.8783 57.3729 34.1374 56.9264 34.533C56.3955 34.925 55.8406 35.2835 55.2651 35.6063C54.8357 35.849 54.7517 35.8677 54.6584 36.073C54.5651 36.2597 54.4717 36.409 54.3971 36.493C54.3131 36.5863 54.2944 36.6797 54.3037 36.7917C54.3224 36.885 54.2851 37.2863 54.2757 37.417C54.2757 37.557 54.3037 37.585 54.3597 37.5943C54.4064 37.5943 54.4811 37.5757 54.5091 37.4077C54.4811 37.5757 54.7051 37.5197 54.7144 37.3983C54.7144 37.5757 54.9477 37.473 54.9571 37.305C54.9571 37.4263 55.1437 37.3423 55.1531 37.2957C55.1997 37.1557 55.2277 37.0157 55.2837 36.9037C55.3584 36.745 55.4424 36.5397 55.6011 36.437C55.7784 36.3063 55.6944 36.157 56.0584 35.9703V35.9797Z" fill="#FFE1CF" stroke="black" stroke-width="0.0373333"/>
<path d="M60.417 47.0024C60.4544 47.1517 60.529 47.3197 60.557 47.4224C60.585 47.5157 60.5384 47.553 60.5104 47.609C60.3568 47.9346 60.25 48.2803 60.193 48.6357C60.1837 48.7757 60.081 48.9157 60.0344 49.009C59.9784 49.1024 60.0064 49.177 60.1277 49.2704C60.1744 49.3077 60.361 49.2517 60.3797 49.1584C60.4544 49.2237 60.5664 49.205 60.6224 49.1024C60.6877 49.1584 60.7904 49.121 60.8557 49.0184C60.9117 49.0557 61.005 48.981 61.0424 48.925C61.1357 48.9717 61.229 48.9157 61.229 48.7384C61.229 48.6917 61.257 48.6264 61.285 48.589C61.313 48.5424 61.3224 48.4584 61.3224 48.3837C61.3224 48.309 61.3597 48.1597 61.425 48.057C61.4904 47.9544 61.6024 47.7677 61.5557 47.5904C61.509 47.4317 61.4437 47.441 61.3784 47.217C61.229 47.0584 61.033 46.8437 60.8184 46.825C60.613 46.8157 60.4917 46.9557 60.417 47.0024Z" fill="#FFE1CF" stroke="black" stroke-width="0.0373333"/>
<path d="M56.5904 48.1597C56.777 48.3463 57.197 48.3463 57.4957 48.0383C57.393 47.9917 57.1504 47.8797 57.0477 47.7957C56.8984 47.945 56.7304 48.113 56.581 48.1597H56.5904Z" fill="#FFE1CF" stroke="black" stroke-width="0.0373333"/>
<path d="M58.4967 26.7584C58.5667 26.2917 58.905 26.2917 59.115 26.3501C59.2083 26.3617 59.4183 26.3851 59.6283 26.3267C60.025 26.2217 60.3283 26.3617 60.2817 26.7467C60.3983 26.8284 60.515 27.0151 60.48 27.1784C60.4683 27.3417 60.5033 27.4117 60.6433 27.4234C60.795 27.4467 61.11 27.6334 60.9 27.8901C61.0983 28.0067 61.25 28.3217 61.145 28.5201C61.04 28.7301 60.725 28.7651 60.585 28.5784C60.4333 28.6484 60.2 28.6601 60.0483 28.5084C59.9433 28.6251 59.6983 28.6134 59.64 28.5084C59.5933 28.3917 59.5233 28.3451 59.4183 28.3101C59.3133 28.2751 59.3017 27.9834 59.465 27.9484C59.4533 27.8551 59.465 27.7617 59.5 27.7151C59.535 27.6684 59.5 27.5751 59.4067 27.5051C59.3133 27.4234 59.2317 27.1551 59.325 26.9917C59.1617 27.0501 58.8117 26.8867 58.7417 26.7817C58.66 26.6651 58.555 26.6651 58.4967 26.7584Z" fill="#870F00" stroke="black" stroke-width="0.035"/>
<path d="M58.597 28.8303C58.8583 28.8023 58.9423 28.6437 59.1383 28.6437" stroke="black" stroke-width="0.0373333"/>
<path d="M58.037 28.1023L58.1023 28.1396C58.149 28.1676 58.2143 28.177 58.261 28.1863" stroke="black" stroke-width="0.0373333"/>
<path d="M58.1117 27.8223L58.2237 27.8876" stroke="black" stroke-width="0.0373333"/>
<path d="M58.7183 26.7583C58.569 26.609 58.9797 26.3103 59.4183 26.7397C59.5117 26.8237 59.7077 26.8237 59.773 26.805" stroke="black" stroke-width="0.0373333"/>
<path d="M59.325 26.9917C59.5303 26.945 59.829 26.945 59.9223 27.1783C60.0157 27.4023 60.1836 27.253 60.3236 27.5237C60.4636 27.7943 60.6877 28.093 60.9023 27.8877" stroke="black" stroke-width="0.0373333"/>
<path d="M60.0437 28.5037C60.0104 28.4481 59.9891 28.3862 59.981 28.3219C59.973 28.2577 59.9784 28.1924 59.997 28.1303C59.9223 28.037 59.9503 27.841 59.997 27.7477" stroke="black" stroke-width="0.0373333"/>
<path d="M59.465 27.9436C59.4743 28.0276 59.5863 28.1769 59.745 28.2049" stroke="black" stroke-width="0.0373333"/>
<path d="M60.585 28.5783C60.4917 28.457 60.501 28.345 60.529 28.205" stroke="black" stroke-width="0.0373333"/>
<path d="M59.605 27.2344C59.605 27.3557 59.6703 27.5144 59.7917 27.5704C59.829 27.645 59.9597 27.8317 60.2303 27.8037" stroke="black" stroke-width="0.0373333"/>
<path d="M60.2863 26.749C60.1112 26.5983 59.8982 26.4983 59.6703 26.4597" stroke="black" stroke-width="0.0373333"/>
<path d="M58.6437 30.613C58.4103 30.921 58.2703 31.3504 58.3637 31.957C58.4757 32.5637 58.653 33.4504 58.2143 33.8517" stroke="black" stroke-width="0.0373333"/>
<path d="M60.389 35.0277C60.081 34.953 59.6423 34.953 59.3903 35.1303C59.157 35.3077 58.7463 35.317 58.4757 35.1863" stroke="black" stroke-width="0.0373333"/>
<path d="M59.7357 34.9996C59.465 35.0463 59.3436 35.2423 59.3436 35.737C59.3436 36.2316 59.2316 36.9596 59.325 37.6783" stroke="black" stroke-width="0.0373333"/>
<path d="M59.2503 35.2144C59.0637 35.261 58.8863 35.261 58.9237 35.737" stroke="black" stroke-width="0.0373333"/>
<path d="M58.3357 35.7463C58.345 35.4663 58.4477 35.1863 58.6343 35.2423" stroke="black" stroke-width="0.0373333"/>
<path d="M60.277 35.8117C60.2863 35.1583 60.1463 34.981 59.9597 34.9903C60.2117 34.9903 60.389 35.0277 60.501 36.073C60.5757 36.857 60.7437 37.1277 60.9303 37.7437C61.4157 39.3303 61.173 41.7757 61.4157 42.6437" stroke="black" stroke-width="0.0373333"/>
<path d="M59.9037 35.9983C60.417 37.473 60.6877 39.1156 59.857 41.7476C60.417 43.3156 60.977 44.445 61.089 45.089" stroke="black" stroke-width="0.0373333"/>
<path d="M58.2983 39.489C58.3917 39.153 58.0463 39.1157 58.345 37.9303C58.4757 37.417 58.4943 37.109 58.4103 36.9503" stroke="black" stroke-width="0.0373333"/>
<path d="M58.4103 37.6503C58.289 38.1729 58.8023 39.1529 58.5503 39.8716" stroke="black" stroke-width="0.0373333"/>
<path d="M57.9157 40.0023C57.9157 40.469 58.0183 41.057 57.9997 41.5143C57.9717 41.9717 58.1583 42.177 58.373 42.6157C59.157 44.1743 59.6797 45.285 59.6143 46.7597C59.5957 47.0303 59.689 47.5997 59.409 47.7583" stroke="black" stroke-width="0.0373333"/>
<path d="M57.9343 48.1504C58.0183 48.1504 58.1023 48.113 58.205 47.8704C58.459 46.9985 58.5539 46.0879 58.485 45.1824" stroke="black" stroke-width="0.0373333"/>
<path d="M58.653 46.3116C58.6903 46.6196 58.6903 47.2543 58.4943 47.7583" stroke="black" stroke-width="0.0373333"/>
<path d="M59.1663 45.3877C59.2877 46.041 59.269 46.6384 59.1757 47.0584" stroke="black" stroke-width="0.0373333"/>
<path d="M58.8957 47.0583C58.9143 47.3197 59.0357 47.9917 58.8303 48.0477" stroke="black" stroke-width="0.0373333"/>
<path d="M59.9037 43.9316C60.4077 44.7156 60.7903 46.6383 61.2103 47.0396" stroke="black" stroke-width="0.0373333"/>
<path d="M60.333 46.7317C60.3237 46.517 60.3143 46.2184 60.193 46.0784" stroke="black" stroke-width="0.0373333"/>
<path d="M54.957 37.305C54.9663 37.165 54.9383 37.025 55.1063 36.7916" stroke="black" stroke-width="0.0373333"/>
<path d="M54.7143 37.3983C54.7423 36.885 54.733 36.8383 54.8823 36.689" stroke="black" stroke-width="0.0373333"/>
<path d="M54.509 37.4077C54.509 37.0344 54.4717 36.913 54.621 36.6797" stroke="black" stroke-width="0.0373333"/>
<path d="M56.3663 26.3103L55.8343 26.7116" stroke="black" stroke-width="0.0373333"/>
<path d="M56.5157 26.4316C56.4503 26.441 56.2637 26.5996 55.937 26.8516" stroke="black" stroke-width="0.0373333"/>
<path d="M56.525 26.6464C56.413 26.693 56.217 26.8797 56.0397 27.0104" stroke="black" stroke-width="0.0373333"/>
<path d="M55.6943 26.609L55.5077 26.7957" stroke="black" stroke-width="0.0373333"/>
<path d="M60.3797 49.1583C60.3517 49.1303 60.3517 49.009 60.4077 48.8783" stroke="black" stroke-width="0.0373333"/>
<path d="M60.6317 49.1023C60.585 49.065 60.6317 48.897 60.6597 48.7943" stroke="black" stroke-width="0.0373333"/>
<path d="M60.8557 49.0183C60.809 48.9996 60.7997 48.9063 60.8557 48.7756" stroke="black" stroke-width="0.0373333"/>
<path d="M61.033 48.9251C61.005 48.9157 60.9957 48.8597 61.0423 48.7197" stroke="black" stroke-width="0.0373333"/>
<path d="M58.3916 27.1877C58.485 27.309 58.5876 27.2997 58.6063 27.3744C58.625 27.4677 58.6343 27.4677 58.653 27.4957C58.6716 27.5144 58.6063 27.5144 58.5783 27.4957H58.4196C58.373 27.4957 58.317 27.4304 58.345 27.4304C58.3823 27.421 58.3823 27.4117 58.373 27.3837C58.373 27.3557 58.3916 27.3184 58.4103 27.309L58.401 27.2717C58.3823 27.2344 58.3636 27.1597 58.3916 27.1784V27.1877Z" fill="black"/>
<path d="M58.4476 27.0663C58.5972 27.0865 58.7371 27.1516 58.849 27.253C58.9236 27.3463 58.8583 27.3183 58.821 27.3183C58.7836 27.3183 58.6996 27.2996 58.6623 27.2436C58.5993 27.1826 58.5224 27.1377 58.4383 27.113C58.401 27.1036 58.3636 27.057 58.4476 27.0663Z" fill="black"/>
<path d="M0 9.375H37.3333V37.375H0V9.375Z" fill="#012169"/>
<path d="M4.375 9.375L18.6083 19.9333L32.7833 9.375H37.3333V12.9917L23.3333 23.4333L37.3333 33.8167V37.375H32.6667L18.6667 26.9333L4.725 37.375H0V33.875L13.9417 23.4917L0 13.1083V9.375H4.375Z" fill="white"/>
<path d="M24.7333 25.7667L37.3333 35.0417V37.375L21.525 25.7667H24.7333ZM14 26.9333L14.35 28.975L3.15 37.375H0L14 26.9333ZM37.3333 9.375V9.55L22.8083 20.5167L22.925 17.95L34.4167 9.375H37.3333ZM0 9.375L13.9417 19.6417H10.4417L0 11.825V9.375Z" fill="#C8102E"/>
<path d="M14.0583 9.375V37.375H23.3917V9.375H14.0583ZM0 18.7083V28.0417H37.3333V18.7083H0Z" fill="white"/>
<path d="M0 20.6333V26.2333H37.3333V20.6333H0ZM15.925 9.375V37.375H21.525V9.375H15.925Z" fill="#C8102E"/>
</g>
<defs>
<clipPath id="clip0_1_68288">
<rect width="74.6667" height="56" fill="white" transform="translate(0 9.375)"/>
</clipPath>
</defs>
</svg>
