<svg width="75" height="75" viewBox="0 0 75 75" fill="none" xmlns="http://www.w3.org/2000/svg">
<rect width="74.6667" height="74.75" fill="white"/>
<g clip-path="url(#clip0_1_68385)">
<path fill-rule="evenodd" clip-rule="evenodd" d="M37.3334 9.375H74.6667V65.375H37.3334V9.375Z" fill="#CE0000"/>
<path fill-rule="evenodd" clip-rule="evenodd" d="M0 9.375H37.3333V65.375H0V9.375Z" fill="white"/>
<path fill-rule="evenodd" clip-rule="evenodd" d="M18.099 25.9241C18.099 26.0919 17.9311 26.2038 17.726 26.2038C17.5022 26.2038 17.353 26.0919 17.353 25.9427C17.353 25.7935 17.5022 25.663 17.726 25.663C17.9311 25.663 18.099 25.7935 18.099 25.9427V25.9241Z" fill="#F1EEEE"/>
<path fill-rule="evenodd" clip-rule="evenodd" d="M6.14407 24.6185V31.5564H13.1006C13.1006 32.7127 14.257 33.8691 15.4133 33.8691V40.807H22.3699V33.8691C23.5262 33.8691 24.6825 32.7127 24.6825 31.5564H31.6204V24.6185H24.6638C24.6638 23.4622 23.5075 22.3058 22.3512 22.3058V15.3679H15.4133V22.3058C14.2383 22.3058 13.082 23.4622 13.082 24.6185H6.14407Z" fill="#CC0000"/>
<path fill-rule="evenodd" clip-rule="evenodd" d="M6.38654 24.8424V31.3327H13.3245C13.3245 32.489 14.4808 33.6453 15.6371 33.6453V40.5832H22.1088V33.664C23.2651 33.664 24.4214 32.5077 24.4214 31.3513H31.378V24.861H24.4401C24.4401 23.7047 23.2837 22.5484 22.1274 22.5484V15.5918H15.6371V22.5297C14.4808 22.5297 13.3245 23.686 13.3245 24.8424H6.38654Z" fill="#FFE600"/>
<path fill-rule="evenodd" clip-rule="evenodd" d="M6.61036 25.0848V31.0902H13.5483C13.5483 32.2465 14.7046 33.4028 15.8609 33.4028V40.3408H21.885V33.4028C23.0413 33.4028 24.1976 32.2465 24.1976 31.0902H31.1355V25.0848H24.1976C24.1976 23.9285 23.0413 22.7722 21.885 22.7722V15.8342H15.8609V22.7535C14.7046 22.7535 13.5483 23.9098 13.5483 25.0661H6.61036V25.0848Z" fill="#707070"/>
<path fill-rule="evenodd" clip-rule="evenodd" d="M6.8528 25.3085V30.8663H13.7907C13.7907 32.0227 14.947 33.179 16.1034 33.179V40.0983H21.6425V33.1603C22.7988 33.1603 23.9552 32.004 23.9552 30.8477H30.8931V25.2899H23.9552C23.9552 24.1336 22.7988 22.9773 21.6425 22.9773V16.058H16.1034V22.9959C14.947 22.9959 13.7907 24.1522 13.7907 25.3085H6.83415H6.8528Z" fill="#A0A0A0"/>
<path fill-rule="evenodd" clip-rule="evenodd" d="M16.1593 22.4177C16.551 22.828 16.2339 23.8165 15.4133 24.6371C14.5927 25.4577 13.6229 25.7561 13.2126 25.3831C12.8023 24.9542 13.138 23.9657 13.9586 23.1451C14.7792 22.3245 15.749 22.0261 16.1593 22.4177Z" fill="#D0D0D0"/>
<path fill-rule="evenodd" clip-rule="evenodd" d="M15.6557 22.9027C16.066 23.313 15.9541 24.0777 15.4133 24.6372C14.8724 25.1967 14.1077 25.29 13.6974 24.8797C13.2871 24.4694 13.399 23.7047 13.9399 23.1638C14.4807 22.623 15.2454 22.5111 15.6557 22.9027Z" fill="#808080"/>
<path fill-rule="evenodd" clip-rule="evenodd" d="M13.6228 24.1336L13.772 23.9844L14.4248 24.3015L14.1077 23.6487L14.2756 23.4809L14.9283 24.7864L13.6228 24.1336ZM14.5926 23.1638L14.7791 22.9773L15.7489 23.9844L15.5811 24.1336L14.5926 23.1638Z" fill="#D0D0D0"/>
<path fill-rule="evenodd" clip-rule="evenodd" d="M24.5333 25.3645C24.123 25.7749 23.1345 25.4391 22.3326 24.6185C21.5306 23.7979 21.1763 22.8281 21.5866 22.4178C21.9969 22.0075 22.9853 22.3432 23.806 23.1638C24.6266 23.9844 24.925 24.9542 24.552 25.3645H24.5333Z" fill="#D0D0D0"/>
<path fill-rule="evenodd" clip-rule="evenodd" d="M24.0485 24.8796C23.6382 25.2899 22.8735 25.178 22.3326 24.6372C21.7918 24.0963 21.6799 23.3317 22.0715 22.9213C22.4818 22.511 23.2652 22.6229 23.806 23.1638C24.3469 23.7047 24.4588 24.4693 24.0485 24.8796Z" fill="#808080"/>
<path fill-rule="evenodd" clip-rule="evenodd" d="M22.8176 22.8281L22.9854 22.996L22.6497 23.6487L23.3025 23.313L23.489 23.4995L22.1648 24.1336L22.8176 22.8281ZM23.806 23.8166L23.9552 23.9658L22.9854 24.9543L22.8176 24.7864L23.806 23.8166Z" fill="#D0D0D0"/>
<path fill-rule="evenodd" clip-rule="evenodd" d="M21.5866 33.7572C21.1762 33.3469 21.512 32.3584 22.3326 31.5378C23.1532 30.7172 24.123 30.4002 24.5333 30.7918C24.9436 31.2021 24.6079 32.1906 23.7873 33.0112C22.9667 33.8318 21.9969 34.1489 21.5866 33.7572Z" fill="#D0D0D0"/>
<path fill-rule="evenodd" clip-rule="evenodd" d="M22.0902 33.2537C21.6799 32.8433 21.7918 32.0787 22.3326 31.5378C22.8735 30.997 23.6381 30.8851 24.0485 31.2954C24.4588 31.7057 24.3469 32.4703 23.806 33.0112C23.2651 33.5521 22.5005 33.664 22.0715 33.2537H22.0902Z" fill="#808080"/>
<path fill-rule="evenodd" clip-rule="evenodd" d="M24.123 32.0226L23.9552 32.2091L23.3024 31.8734L23.6381 32.5262L23.4703 32.6754L22.8175 31.3699L24.123 32.0226ZM23.1719 33.0111L22.9854 33.179L22.0155 32.1905L22.1834 32.0226L23.1719 33.0111Z" fill="#D0D0D0"/>
<path fill-rule="evenodd" clip-rule="evenodd" d="M13.2126 30.8105C13.6229 30.4002 14.6113 30.7359 15.4133 31.5378C16.2153 32.3398 16.551 33.3469 16.1593 33.7386C15.749 34.1489 14.7605 33.8318 13.9399 33.0112C13.1193 32.1906 12.8209 31.2021 13.1939 30.8105H13.2126Z" fill="#D0D0D0"/>
<path fill-rule="evenodd" clip-rule="evenodd" d="M13.6974 31.2954C14.1077 30.8851 14.8724 30.997 15.4133 31.5378C15.9541 32.0787 16.066 32.8433 15.6557 33.2537C15.2641 33.664 14.4808 33.5521 13.9399 33.0112C13.399 32.4703 13.2871 31.7057 13.6974 31.2954Z" fill="#808080"/>
<path fill-rule="evenodd" clip-rule="evenodd" d="M14.9284 33.3468L14.7605 33.1603L15.0962 32.5262L14.4435 32.8433L14.257 32.6754L15.5811 32.0227L14.9284 33.3282V33.3468ZM13.9399 32.3584L13.7907 32.1905L14.7605 31.2207L14.9284 31.3699L13.9399 32.3584Z" fill="#D0D0D0"/>
<path d="M23.7456 28.0917C23.7456 30.7683 21.5711 32.9487 18.8865 32.9487C16.2019 32.9487 14.0338 30.7748 14.0338 28.0917C14.0338 25.4086 16.2083 23.2347 18.8929 23.2347C21.5775 23.2347 23.752 25.4086 23.752 28.0917H23.7456Z" stroke="#707070" stroke-width="0.0645201"/>
<path d="M22.5662 28.0818C22.5662 30.1211 20.9095 31.7823 18.8641 31.7823C16.8187 31.7823 15.1668 30.126 15.1668 28.0818C15.1668 26.0375 16.8236 24.3812 18.8689 24.3812C20.9143 24.3812 22.5711 26.0375 22.5711 28.0818H22.5662Z" stroke="#707070" stroke-width="0.049158"/>
<path fill-rule="evenodd" clip-rule="evenodd" d="M17.2597 32.0227C17.2597 32.0845 17.2351 32.1438 17.1914 32.1875C17.1477 32.2312 17.0884 32.2558 17.0266 32.2558C16.9647 32.2558 16.9054 32.2312 16.8617 32.1875C16.818 32.1438 16.7934 32.0845 16.7934 32.0227C16.7934 31.9609 16.818 31.9016 16.8617 31.8578C16.9054 31.8141 16.9647 31.7896 17.0266 31.7896C17.0884 31.7896 17.1477 31.8141 17.1914 31.8578C17.2351 31.9016 17.2597 31.9609 17.2597 32.0227ZM20.9525 32.0227C20.9525 32.0845 20.9279 32.1438 20.8842 32.1875C20.8404 32.2312 20.7812 32.2558 20.7193 32.2558C20.6575 32.2558 20.5982 32.2312 20.5545 32.1875C20.5108 32.1438 20.4862 32.0845 20.4862 32.0227C20.4862 31.9609 20.5108 31.9016 20.5545 31.8578C20.5982 31.8141 20.6575 31.7896 20.7193 31.7896C20.7812 31.7896 20.8404 31.8141 20.8842 31.8578C20.9279 31.9016 20.9525 31.9609 20.9525 32.0227ZM18.7144 32.0227V32.2651H18.416C18.0989 32.2651 18.0989 32.5076 18.416 32.5076H18.7144V32.7314C18.7144 32.9925 18.9942 33.0111 19.0128 32.75V32.4889H19.3299C19.6469 32.4889 19.6469 32.2651 19.3299 32.2651H19.0315V32.0227C19.0315 31.7802 18.7144 31.7802 18.7144 32.0227Z" fill="#D0D0D0"/>
<path fill-rule="evenodd" clip-rule="evenodd" d="M17.7259 28.5911V28.7403C17.7259 28.7403 17.6513 28.8335 17.1851 28.8708C16.7188 28.9081 16.6442 28.8708 16.6442 28.8708C16.6629 29.0014 16.7561 29.2252 16.7188 29.4863C16.7375 29.8034 16.6442 30.0831 16.6442 30.0831C16.6442 30.1018 16.5883 30.1204 16.495 30.1018C16.5696 30.0272 16.5696 29.8407 16.5696 29.5423C16.5696 29.2811 16.2899 28.8522 16.3458 28.7403C16.4018 28.6284 17.7259 28.5911 17.7259 28.5911ZM19.5537 28.1062L20.7659 28.0875C20.7659 28.0875 20.9524 28.4605 20.9338 28.647C20.9338 28.8335 20.8592 29.02 20.7846 28.9268C20.6913 28.8335 20.8219 28.8522 20.8405 28.647C20.8405 28.4232 20.6913 28.2181 20.6913 28.2181C20.6913 28.2181 20.3556 28.3486 19.8707 28.33C19.3858 28.2927 19.6096 28.1062 19.5537 28.1062Z" fill="#D0D0D0" stroke="#707070" stroke-width="0.0186503"/>
<path fill-rule="evenodd" clip-rule="evenodd" d="M19.7029 28.4604C20.1505 28.4418 20.4489 28.4977 20.4489 28.4977C20.4489 28.4977 20.6354 28.8707 20.6354 29.0572C20.6167 29.2437 20.5608 29.4303 20.4675 29.337C20.3929 29.2624 20.5048 29.281 20.5235 29.0572C20.5235 28.8521 20.3743 28.6283 20.3743 28.6283C20.3743 28.6283 20.0572 28.7588 19.5723 28.7402C19.0874 28.7029 19.2366 28.6842 19.1807 28.6656C19.1247 28.6656 19.1061 28.8148 18.3787 28.8334C17.6327 28.8334 17.2597 28.6656 17.2597 28.6656C17.2597 28.6656 17.1851 28.7775 16.7375 28.8148H16.178C16.1966 28.9267 16.2899 29.1505 16.2712 29.4303C16.2712 29.7287 16.178 30.0271 16.178 30.0271H16.0474C16.122 29.9711 16.1034 29.766 16.122 29.4862C16.122 29.2064 15.8236 28.7961 15.8796 28.6656C15.9542 28.5537 16.2899 28.6656 16.3458 28.6096C16.4018 28.535 16.0474 28.1061 16.122 27.7144C16.178 27.3228 16.5696 27.4347 17.0359 27.4347C17.5021 27.4533 18.5279 27.5839 18.789 27.4347C19.0501 27.3041 18.9382 26.8006 19.162 26.4835C19.2363 26.3928 19.3304 26.3204 19.4372 26.2719C19.5439 26.2234 19.6603 26.2001 19.7775 26.2037C19.9453 26.2037 20.1505 26.7633 20.1505 26.8938L20.0945 26.9684H20.0199V27.0244C19.8334 27.043 19.8148 26.8752 19.7029 26.7633C19.6656 26.9498 19.8521 27.5839 19.8521 27.9942C19.8521 28.3299 19.7215 28.4791 19.7029 28.4604Z" fill="#D0D0D0" stroke="#707070" stroke-width="0.0186503"/>
<path fill-rule="evenodd" clip-rule="evenodd" d="M18.2295 27.8636C18.2295 27.9942 17.6513 28.3112 17.5954 28.4231C17.5581 28.5537 17.7446 28.6096 17.6886 28.6842C17.6327 28.7588 17.5767 28.7215 17.5581 28.7402L17.3343 28.2739C17.3343 28.2739 17.8938 28.0128 17.8752 27.9009C17.8565 27.789 17.4648 27.7144 17.3902 27.4533C17.3156 27.1922 17.3529 26.6513 17.297 26.5394C17.241 26.4275 16.551 26.3156 16.551 26.1664C16.551 25.9799 17.2597 25.5323 17.3343 25.4577C17.4089 25.3831 17.4835 25.5323 17.4089 25.5883C17.3343 25.6629 16.7934 26.0918 16.7934 26.1478C16.7934 26.2224 17.241 26.297 17.3902 26.297C17.5581 26.297 17.6327 26.2224 17.6327 26.1478C17.6327 26.0918 17.4648 26.0918 17.4648 25.9613C17.4648 25.8307 17.5581 25.7375 17.7073 25.7375C17.7819 25.7375 17.9311 25.8307 17.9311 25.9426C17.9311 26.0545 17.8006 26.0732 17.7819 26.1478C17.7633 26.241 17.9311 26.297 18.0803 26.297C18.2295 26.297 18.7517 26.6886 18.8263 26.7632C18.9196 26.8192 18.9942 26.8192 18.9196 26.8938C18.845 26.9684 18.8823 27.043 18.8077 26.9684C18.7714 26.9325 18.7456 26.8874 18.7331 26.8378C18.7331 26.7819 18.1736 26.5021 18.0803 26.5581C18.0057 26.6327 18.0803 27.4533 18.0803 27.5279C18.0803 27.6585 18.2482 27.6585 18.2295 27.8636Z" fill="#D0D0D0" stroke="#707070" stroke-width="0.0186503"/>
<path fill-rule="evenodd" clip-rule="evenodd" d="M17.2597 26.2784H18.1922V27.2296H17.2597V26.2784Z" fill="#A7A7A7"/>
<path d="M20.2265 29.7107L17.1658 25.1164C17.1373 25.0736 17.0994 25.0467 17.0812 25.0564C17.063 25.0661 17.0714 25.1087 17.1 25.1515L20.1607 29.7459C20.1892 29.7887 20.2271 29.8156 20.2453 29.8059C20.2635 29.7962 20.255 29.7536 20.2265 29.7107Z" fill="#808080"/>
<path fill-rule="evenodd" clip-rule="evenodd" d="M17.5011 25.5318C17.5011 25.5681 17.485 25.6029 17.4563 25.6286C17.4275 25.6543 17.3886 25.6687 17.348 25.6687C17.3074 25.6687 17.2684 25.6543 17.2397 25.6286C17.211 25.6029 17.1949 25.5681 17.1949 25.5318C17.1949 25.4954 17.211 25.4606 17.2397 25.4349C17.2684 25.4092 17.3074 25.3948 17.348 25.3948C17.3886 25.3948 17.4275 25.4092 17.4563 25.4349C17.485 25.4606 17.5011 25.4954 17.5011 25.5318Z" fill="#D0D0D0" stroke="#707070" stroke-width="0.020398"/>
<path fill-rule="evenodd" clip-rule="evenodd" d="M20.1691 26.7633C20.1691 26.8192 19.7961 26.8938 19.4045 26.8938C18.9942 26.8938 18.6398 26.8192 18.6398 26.7633C18.6398 26.7073 18.9942 26.8565 19.3858 26.8565C19.8148 26.8565 20.1691 26.7073 20.1691 26.7633Z" fill="#808080"/>
<path fill-rule="evenodd" clip-rule="evenodd" d="M17.3343 27.2296H18.099V27.5094H17.3529L17.3343 27.2296Z" fill="#A7A7A7"/>
<path fill-rule="evenodd" clip-rule="evenodd" d="M19.8148 26.5582C19.7402 26.7074 19.6842 26.8007 19.6656 26.782C19.6656 26.782 19.7029 26.6328 19.7775 26.5022L19.9267 26.2784C19.9453 26.2971 19.8894 26.4276 19.8148 26.5582ZM20.0013 26.9312L19.8521 27.0245C19.8907 26.9596 19.9414 26.9026 20.0013 26.8566C20.0945 26.782 20.1691 26.7447 20.1691 26.7634L20.0199 26.9126L20.0013 26.9312Z" fill="#808080"/>
<path fill-rule="evenodd" clip-rule="evenodd" d="M19.9267 26.7446L20.0199 26.9684L19.8707 26.7819L19.7775 26.5581L19.9267 26.7446ZM19.8521 27.3414C19.8521 27.3414 19.6283 27.3787 19.3299 27.3787C19.0315 27.3787 18.789 27.3601 18.789 27.3414L19.3299 27.3041C19.6283 27.3041 19.8521 27.3041 19.8521 27.3414ZM18.099 27.2668C18.099 27.2855 17.9311 27.3041 17.726 27.3041C17.5022 27.3041 17.353 27.3041 17.353 27.2668C17.353 27.2668 17.5022 27.2295 17.726 27.2295C17.9311 27.2295 18.099 27.2482 18.099 27.2668Z" fill="#808080"/>
<path fill-rule="evenodd" clip-rule="evenodd" d="M16.4204 29.6541C16.4204 29.6541 16.551 29.9525 17.0918 29.9525C17.614 29.9525 17.8005 29.8592 17.5954 29.71C17.3902 29.5608 16.9613 29.5981 17.0359 29.7287C17.0732 29.8779 16.868 29.9152 16.8307 29.8219C16.7748 29.7287 16.5883 29.4302 16.924 29.4116C17.2783 29.3929 18.0057 29.281 18.1922 29.4862C18.3787 29.6914 17.987 29.8592 18.2854 29.9152C18.5652 29.9525 18.6211 29.8592 19.1247 29.8406C19.6283 29.8033 19.8334 29.9338 20.0013 29.9152C20.1878 29.9152 20.1505 29.5981 20.0013 29.5421C19.8707 29.4489 19.6096 29.4302 19.535 29.3556C19.4791 29.2624 19.2926 29.3556 19.3112 29.2437C19.3112 29.1505 19.5723 29.2997 19.5723 29.2624L19.6096 29.2251H19.5537L19.5723 29.1878L19.535 29.2064L19.5537 29.1691C19.5537 29.1691 19.4977 29.2064 19.4977 29.1691H19.4604C19.4977 29.1318 19.4791 29.1318 19.4604 29.1132H19.4045V29.0572C19.3672 29.0572 19.3672 29.0572 19.3485 29.0945V29.0013C19.3485 28.9826 19.3858 28.964 19.4418 28.964C19.5723 28.964 19.6283 29.1132 19.6842 29.1132C19.7215 29.1132 19.7775 28.964 19.9453 29.0199L20.2251 29.1318C20.3183 29.1878 20.1691 29.2437 20.2251 29.3183C20.281 29.3929 20.6167 29.6354 20.5235 29.9152C20.4302 30.1763 20.1505 30.2136 20.1505 30.3255C20.1132 30.4374 20.9524 30.4001 21.1576 30.4374C21.3002 30.4632 21.4273 30.5435 21.512 30.6612L21.1389 30.6798C21.1389 30.6798 20.9524 30.5866 20.4862 30.5679C20.0199 30.5679 19.8521 30.3814 19.6656 30.3441L18.9196 30.3814L18.36 30.3255C18.2481 30.3068 17.5767 30.6239 17.5767 30.6985H17.1291C17.1291 30.6985 17.1851 30.5306 17.4462 30.512C17.6886 30.4747 17.9497 30.3628 17.9311 30.2882L18.0057 29.8033C18.0057 29.6914 18.1176 29.6168 18.0989 29.5794C18.0803 29.5048 17.7819 29.4489 17.5021 29.4489C17.2224 29.4489 16.924 29.4675 16.868 29.5235C16.8307 29.5981 16.868 29.8033 16.924 29.766C16.9799 29.766 16.9053 29.6167 16.9613 29.5981C17.0821 29.561 17.2078 29.5421 17.3343 29.5421C17.4835 29.5421 17.7259 29.6727 17.7259 29.7287C17.7259 29.7473 17.8005 29.8779 17.6886 29.9338C17.5025 29.9955 17.3062 30.0208 17.1105 30.0084C16.9156 29.9982 16.725 29.9474 16.551 29.8592C16.4764 29.8033 16.4204 29.6727 16.4204 29.6541Z" fill="#D0D0D0" stroke="#808080" stroke-width="0.0186503"/>
<path fill-rule="evenodd" clip-rule="evenodd" d="M19.8148 29.1878C19.8148 29.1951 19.8133 29.2024 19.8105 29.2092C19.8077 29.216 19.8036 29.2222 19.7984 29.2274C19.7932 29.2325 19.787 29.2367 19.7802 29.2395C19.7735 29.2423 19.7662 29.2437 19.7588 29.2437C19.7515 29.2437 19.7442 29.2423 19.7374 29.2395C19.7306 29.2367 19.7245 29.2325 19.7193 29.2274C19.7141 29.2222 19.71 29.216 19.7071 29.2092C19.7043 29.2024 19.7029 29.1951 19.7029 29.1878C19.7029 29.1729 19.7088 29.1587 19.7193 29.1482C19.7298 29.1377 19.744 29.1318 19.7588 29.1318C19.7737 29.1318 19.7879 29.1377 19.7984 29.1482C19.8089 29.1587 19.8148 29.1729 19.8148 29.1878Z" fill="black"/>
<path d="M22.7056 28.3113L23.004 28.3672L23.5076 28.0315L23.4703 28.218L23.2092 28.3859L23.06 28.4605L23.1532 28.6097L23.3211 28.8708L23.2838 29.0573L22.9667 28.5164L22.6683 28.4605L22.7056 28.3113ZM22.202 26.1105L22.7615 25.8494L22.6123 25.5137L22.6869 25.4764L23.06 26.297L23.004 26.3343L22.8361 25.98L22.2766 26.2597L22.202 26.1105ZM21.3068 25.0288L21.829 24.5439L21.9409 24.6558V25.4764L22.3512 25.1034L22.4445 25.2153L21.9223 25.7002L21.8104 25.5883V24.7677L21.4001 25.1407L21.3068 25.0288ZM18.9942 24.0963L19.0874 23.3876H19.2366L19.1434 24.0403L19.7029 24.0963V24.1895L18.9942 24.0963ZM17.8565 24.2082L17.726 23.4995L17.8752 23.4622L17.9871 24.0963L18.5466 23.9844V24.0776L17.8565 24.2082ZM15.749 25.234L15.6931 25.178L16.0661 24.8796L16.2526 25.0661C16.2125 25.1467 16.1624 25.2219 16.1034 25.2899C16.055 25.3585 15.9986 25.4211 15.9355 25.4764C15.8568 25.5394 15.7687 25.5898 15.6744 25.6256C15.5812 25.6443 15.4879 25.6629 15.432 25.6256C15.3606 25.618 15.2944 25.5849 15.2455 25.5324C15.2077 25.4776 15.1881 25.4124 15.1895 25.3459C15.1895 25.2713 15.2082 25.178 15.2641 25.1034C15.3014 25.0288 15.376 24.9542 15.4506 24.8982C15.5127 24.8456 15.5818 24.8017 15.6558 24.7677L15.8236 24.7304C15.8609 24.7304 15.9169 24.7304 15.9542 24.7677L15.8796 24.8609C15.8443 24.846 15.8059 24.8396 15.7677 24.8423L15.6558 24.8609C15.6083 24.886 15.5643 24.9174 15.5252 24.9542C15.4693 24.9915 15.4133 25.0288 15.3947 25.0848C15.3632 25.1172 15.3379 25.1551 15.3201 25.1967V25.2899C15.3201 25.3459 15.3387 25.4018 15.376 25.4391L15.5066 25.5324L15.6931 25.5137C15.8647 25.4412 16.004 25.3086 16.0847 25.1407L16.0101 25.0288L15.749 25.234ZM15.7304 30.4001L15.1336 30.8291L14.686 30.1949L14.7606 30.139L15.1336 30.6426L15.3014 30.512L15.003 30.083L15.059 30.0457L15.376 30.4747L15.6371 30.2882L15.7304 30.4001ZM14.8538 29.4676C14.9471 29.4489 15.003 29.393 15.0403 29.2997V29.02C15.0109 28.9237 14.9522 28.839 14.8725 28.7775C14.8165 28.7216 14.7233 28.7029 14.6487 28.7216C14.5896 28.7345 14.5369 28.7674 14.4995 28.8148C14.4808 28.8521 14.4435 28.9081 14.4435 28.964L14.4622 29.1692C14.4995 29.2811 14.5368 29.3557 14.6114 29.4303C14.6673 29.4862 14.7606 29.5049 14.8538 29.4676ZM14.9098 29.6168C14.8551 29.6342 14.7968 29.6364 14.7409 29.6233C14.6851 29.6102 14.6339 29.5821 14.5927 29.5422C14.4932 29.4526 14.4219 29.3359 14.3875 29.2065C14.3502 29.0946 14.3502 29.02 14.3502 28.9081C14.3502 28.7962 14.3875 28.7589 14.4248 28.7029C14.4673 28.6365 14.5344 28.5895 14.6114 28.5724C14.6739 28.5584 14.7393 28.5649 14.7979 28.591C14.8725 28.6283 14.9284 28.6656 14.9844 28.7402C15.0989 28.9031 15.1518 29.1014 15.1336 29.2997C15.1268 29.3734 15.1011 29.4441 15.059 29.5049C15.0217 29.5608 14.9657 29.5981 14.9098 29.6168ZM14.9657 28.1621H14.2197V27.6398L14.257 27.416L14.3316 27.2855C14.3467 27.272 14.3645 27.2617 14.3837 27.2553C14.4029 27.2489 14.4233 27.2465 14.4435 27.2482C14.4995 27.2482 14.5368 27.2668 14.5741 27.3228C14.5927 27.3787 14.63 27.4533 14.63 27.5652C14.6546 27.4865 14.6997 27.4157 14.7606 27.3601L14.9657 27.1736V27.3601L14.8165 27.4906L14.7046 27.6025C14.6824 27.6245 14.6635 27.6497 14.6487 27.6771C14.6455 27.7019 14.6455 27.727 14.6487 27.7518V27.8264L14.63 28.0129H14.9657V28.1621ZM14.5554 27.9942V27.6771C14.5617 27.6214 14.5617 27.5651 14.5554 27.5093C14.5488 27.4819 14.536 27.4564 14.5181 27.4347C14.5047 27.4157 14.4848 27.4024 14.4622 27.3974C14.4249 27.3974 14.3875 27.416 14.3689 27.4533L14.3316 27.6398V28.0129H14.5741L14.5554 27.9942ZM16.551 24.8423V24.003L16.7002 23.9098L17.4649 24.2828L17.3157 24.376L17.0918 24.2641L16.7002 24.5066V24.7677L16.551 24.8423ZM16.6815 24.4133L17.0172 24.2268L16.8307 24.1149C16.7729 24.0874 16.7169 24.0562 16.6629 24.0217L16.6815 24.1709V24.4133ZM20.1505 24.1895L20.9338 23.8725L21.0644 23.9657L21.0084 24.8236L20.8779 24.7117L20.8965 24.4693L20.5235 24.1895L20.2811 24.2828L20.1505 24.1895ZM20.5981 24.1522L20.9152 24.376V24.1522C20.9238 24.0894 20.9363 24.0271 20.9525 23.9657C20.9127 24.0018 20.8689 24.0331 20.8219 24.059L20.5981 24.1522ZM22.5191 26.8192L23.2278 26.6514L23.3397 27.1549L23.377 27.3787L23.3397 27.5093C23.3301 27.5275 23.3169 27.5435 23.3009 27.5563C23.2848 27.5692 23.2663 27.5786 23.2465 27.5839C23.1905 27.5839 23.1346 27.5839 23.0973 27.5466C23.0356 27.4841 22.9907 27.4072 22.9667 27.3228C22.9698 27.3538 22.9698 27.385 22.9667 27.416L22.8921 27.5652L22.7429 27.7891L22.7056 27.6025L22.8175 27.416L22.8921 27.3041C22.9174 27.2585 22.9302 27.2071 22.9294 27.1549C22.9253 27.1235 22.9191 27.0923 22.9108 27.0617L22.8734 26.8938L22.5564 26.9684L22.5191 26.8192ZM22.9481 26.8752L23.0227 27.1922C23.0227 27.2482 23.06 27.3041 23.0786 27.3414C23.0786 27.3787 23.1159 27.3974 23.1346 27.416L23.2092 27.4347C23.2278 27.4347 23.2651 27.3974 23.2651 27.3601C23.2801 27.2988 23.2801 27.2349 23.2651 27.1736L23.1719 26.8192L22.9481 26.8752Z" fill="#D0D0D0"/>
</g>
<defs>
<clipPath id="clip0_1_68385">
<rect width="74.6667" height="56" fill="white" transform="translate(0 9.375)"/>
</clipPath>
</defs>
</svg>
