<svg width="75" height="75" viewBox="0 0 75 75" fill="none" xmlns="http://www.w3.org/2000/svg">
<rect width="74.6667" height="74.75" fill="white"/>
<g clip-path="url(#clip0_1_68501)">
<path d="M0 9.375H74.6667V65.375H0V9.375Z" fill="#D21034"/>
<path d="M14 23.375H60.6667V51.375H14V23.375Z" fill="#007E3A"/>
<path d="M40.8333 46.7083C45.988 46.7083 50.1667 42.5296 50.1667 37.375C50.1667 32.2203 45.988 28.0416 40.8333 28.0416C35.6787 28.0416 31.5 32.2203 31.5 37.375C31.5 42.5296 35.6787 46.7083 40.8333 46.7083Z" fill="white"/>
<path d="M44.3333 46.7083C49.488 46.7083 53.6667 42.5296 53.6667 37.375C53.6667 32.2203 49.488 28.0416 44.3333 28.0416C39.1787 28.0416 35 32.2203 35 37.375C35 42.5296 39.1787 46.7083 44.3333 46.7083Z" fill="#007E3A"/>
</g>
<defs>
<clipPath id="clip0_1_68501">
<rect width="74.6667" height="56" fill="white" transform="translate(0 9.375)"/>
</clipPath>
</defs>
</svg>
