<svg width="75" height="75" viewBox="0 0 75 75" fill="none" xmlns="http://www.w3.org/2000/svg">
<rect width="74.6667" height="74.75" fill="white"/>
<g clip-path="url(#clip0_1_68357)">
<path fill-rule="evenodd" clip-rule="evenodd" d="M0 9.375H74.6667V65.375H0V9.375Z" fill="#F41408"/>
<path fill-rule="evenodd" clip-rule="evenodd" d="M-9.15527e-05 46.7084H74.6666V65.375H-9.15527e-05V46.7084Z" fill="#21873B"/>
<path fill-rule="evenodd" clip-rule="evenodd" d="M0 9.375H74.6667V28.0417H0V9.375Z" fill="black"/>
<path fill-rule="evenodd" clip-rule="evenodd" d="M25.7249 25.825C28.3266 20.085 35.5832 17.3317 41.9182 19.7C43.405 20.2041 44.7726 21.0077 45.9364 22.0612C47.1003 23.1147 48.0357 24.3957 48.6849 25.825H25.7249ZM22.6916 26.5717C20.6328 26.4316 18.5885 26.1273 16.5782 25.6617C16.0999 25.51 16.0766 25.2417 16.1349 25.0434C16.1932 24.845 16.4966 24.6234 16.8582 24.6934C17.5116 24.8567 20.2182 25.51 22.6916 26.5717ZM37.2282 16.55C36.7382 14.1 36.6216 11.4167 36.6682 10.95C36.7149 10.495 36.9832 10.425 37.2166 10.425C37.4499 10.425 37.7649 10.635 37.7649 10.9734C37.7649 11.5917 37.7532 14.1234 37.2282 16.5734V16.55ZM38.5816 16.6084C38.3881 14.7395 38.3764 12.8562 38.5466 10.985C38.6399 10.53 38.9199 10.4717 39.1416 10.495C39.3749 10.5067 39.6666 10.74 39.6316 11.0784C39.5732 11.6967 39.3282 14.2167 38.5816 16.6084ZM39.7949 16.76C39.7716 14.275 40.1449 11.5917 40.2732 11.16C40.4016 10.705 40.6932 10.67 40.9149 10.705C41.1482 10.74 41.4166 10.9967 41.3582 11.3234C41.2416 11.9417 40.7516 14.4267 39.7949 16.76ZM41.0782 17.0167C41.2882 14.5434 41.9299 11.9067 42.1049 11.475C42.2799 11.0434 42.5716 11.0317 42.7816 11.0784C43.0149 11.1367 43.2482 11.405 43.1666 11.7317C42.9799 12.3267 42.2682 14.765 41.0899 17.0167H41.0782ZM42.3499 17.39C42.8049 14.94 43.6916 12.3617 43.9016 11.9417C44.1232 11.5334 44.4032 11.5334 44.6249 11.6034C44.8349 11.6734 45.0566 11.9767 44.9399 12.28C44.2372 14.0601 43.3701 15.7709 42.3499 17.39ZM43.5282 17.8334C44.2049 15.4184 45.3366 12.9334 45.5932 12.525C45.8499 12.1284 46.1299 12.1634 46.3399 12.2567C46.5499 12.3384 46.7366 12.6534 46.5849 12.9567C46.2932 13.5167 45.1266 15.8034 43.5282 17.8334ZM44.6949 18.3817C45.3888 16.5982 46.2481 14.8835 47.2616 13.26C47.5416 12.8867 47.8332 12.945 48.0316 13.05C48.0903 13.0848 48.1415 13.131 48.1821 13.1857C48.2228 13.2405 48.2522 13.3029 48.2685 13.3691C48.2848 13.4354 48.2877 13.5043 48.277 13.5717C48.2664 13.6391 48.2425 13.7037 48.2066 13.7617C47.8566 14.2984 46.4682 16.4917 44.6949 18.3817ZM45.7916 19.0234C46.9232 16.76 48.5099 14.4734 48.8366 14.1234C49.1632 13.7734 49.4432 13.855 49.6299 13.9717C49.6856 14.0111 49.7328 14.0613 49.7689 14.1192C49.805 14.1771 49.8292 14.2416 49.84 14.3089C49.8509 14.3762 49.8482 14.4451 49.8322 14.5114C49.8161 14.5777 49.787 14.6401 49.7466 14.695C49.3382 15.2084 47.7399 17.2734 45.7799 19.0117L45.7916 19.0234ZM46.8182 19.7467C48.1716 17.5767 49.9682 15.43 50.3299 15.115C50.6799 14.7884 50.9599 14.8817 51.1349 15.0217C51.1859 15.0661 51.2275 15.1204 51.257 15.1813C51.2865 15.2421 51.3034 15.3083 51.3067 15.3759C51.3099 15.4435 51.2995 15.511 51.276 15.5745C51.2525 15.6379 51.2164 15.6959 51.1699 15.745C50.7266 16.2234 48.9416 18.16 46.8182 19.7467ZM47.7866 20.5517C48.9702 18.9913 50.2898 17.539 51.7299 16.2117C52.1149 15.92 52.3716 16.0367 52.5349 16.1767C52.5833 16.226 52.6209 16.2848 52.6455 16.3494C52.6701 16.4139 52.6811 16.4829 52.6779 16.5519C52.6746 16.6209 52.6571 16.6884 52.6264 16.7504C52.5958 16.8123 52.5527 16.8672 52.4999 16.9117C52.0216 17.355 50.0499 19.14 47.7866 20.5517ZM48.6732 21.4267C49.9954 19.9639 51.4481 18.6244 53.0132 17.425C53.4332 17.1567 53.6782 17.2967 53.8299 17.46C53.9699 17.6117 54.0049 17.9734 53.7132 18.1834C52.1271 19.4039 50.4412 20.4888 48.6732 21.4267ZM49.4316 22.3367C50.8902 20.9788 52.4633 19.7493 54.1332 18.6617C54.5649 18.4284 54.7982 18.5917 54.9266 18.7667C55.0666 18.93 55.0549 19.2917 54.7632 19.4784C54.2032 19.8284 51.9282 21.2984 49.4316 22.3367ZM50.1199 23.305C51.6976 22.074 53.3757 20.9774 55.1366 20.0267C55.6032 19.8284 55.8249 20.0034 55.9416 20.1784C56.0582 20.365 56.0116 20.715 55.7082 20.8784C53.9107 21.8384 52.0379 22.65 50.1082 23.305H50.1199ZM50.7499 24.425C52.4493 23.3301 54.2365 22.3779 56.0932 21.5784C56.5716 21.415 56.7699 21.6134 56.8632 21.8C56.9682 21.9867 56.8982 22.3367 56.5599 22.4767C55.9416 22.7334 53.4099 23.8067 50.7499 24.425ZM51.2399 25.4984C53.0372 24.538 54.9101 23.7264 56.8399 23.0717C57.3299 22.955 57.5049 23.165 57.5866 23.3634C57.6566 23.55 57.5516 23.9 57.2132 24.005C56.5716 24.2267 53.9466 25.09 51.2399 25.4984ZM51.6366 26.6417C53.5167 25.8284 55.4598 25.169 57.4466 24.67C57.9366 24.6 58.0999 24.8101 58.1582 25.0201C58.2166 25.2184 58.0766 25.545 57.7266 25.6384C57.0616 25.79 54.3666 26.455 51.6366 26.6417ZM35.9099 16.6084C35.3565 14.8055 34.9775 12.9537 34.7782 11.0784C34.7782 10.6234 35.0466 10.5184 35.2682 10.495C35.5016 10.4834 35.8516 10.67 35.8749 10.9967C35.9332 11.615 36.1782 14.135 35.9216 16.6084H35.9099ZM34.6266 16.76C33.8968 15.0138 33.3381 13.2008 32.9582 11.3467C32.9116 10.88 33.1682 10.7634 33.3899 10.7284C33.6232 10.6934 33.9732 10.845 34.0432 11.1717C34.4082 13.0127 34.6034 14.8834 34.6266 16.76ZM33.3432 17.0167C32.4473 15.3321 31.7129 13.5665 31.1499 11.7434C31.0566 11.2884 31.3016 11.1484 31.5232 11.09C31.7449 11.0434 32.1066 11.16 32.2116 11.4867C32.3866 12.0817 33.1099 14.52 33.3316 17.005L33.3432 17.0167ZM32.1182 17.3667C31.0758 15.7614 30.1853 14.0624 29.4582 12.2917C29.3299 11.8484 29.5516 11.685 29.7616 11.615C29.9832 11.545 30.3566 11.6384 30.4849 11.9417C30.7182 12.525 31.6749 14.905 32.1182 17.355V17.3667ZM30.9399 17.775C29.7441 16.2609 28.6896 14.6402 27.7899 12.9334C27.6266 12.5017 27.8366 12.315 28.0466 12.2334C28.2566 12.14 28.6299 12.21 28.7932 12.5134C29.0849 13.0734 30.2516 15.3717 30.9399 17.775ZM29.7382 18.3584C28.3967 16.9466 27.1861 15.4159 26.1216 13.785C25.9232 13.3767 26.1099 13.1784 26.3082 13.0734C26.5066 12.9684 26.8916 13.0034 27.0782 13.295C27.4282 13.8317 28.8282 16.0134 29.7382 18.3584ZM28.6416 18.9884C27.1762 17.6827 25.8293 16.2499 24.6166 14.7067C24.3716 14.31 24.5349 14.1 24.7332 13.9717C24.9082 13.855 25.3166 13.855 25.5149 14.135C25.9116 14.6367 27.5099 16.7017 28.6416 18.9767V18.9884ZM27.6266 19.6884C26.0406 18.501 24.5611 17.1777 23.2049 15.7334C22.9249 15.36 23.0766 15.15 23.2516 15.01C23.3749 14.9336 23.5205 14.9013 23.6645 14.9182C23.8086 14.9352 23.9427 15.0004 24.0449 15.1034C24.4882 15.57 26.2849 17.5184 27.6266 19.6884ZM26.6349 20.505C24.9409 19.4502 23.3406 18.2519 21.8516 16.9234C21.5249 16.5734 21.6532 16.34 21.8166 16.1884C21.9346 16.1014 22.0788 16.0574 22.2252 16.0638C22.3717 16.0701 22.5116 16.1265 22.6216 16.2234C23.1116 16.655 25.0716 18.44 26.6349 20.4934V20.505ZM25.7716 21.3217C23.9854 20.4013 22.2799 19.3319 20.6732 18.125C20.3232 17.7984 20.4282 17.565 20.5799 17.4017C20.7199 17.2384 21.1049 17.1567 21.3849 17.3667C22.9594 18.5593 24.4271 19.8865 25.7716 21.3334V21.3217ZM24.9549 22.2784C23.0844 21.5038 21.2815 20.5751 19.5649 19.5017C19.1799 19.21 19.2616 18.9534 19.3899 18.79C19.5182 18.615 19.8916 18.4984 20.1949 18.685C20.7549 19.0467 23.0299 20.4934 24.9549 22.2784ZM24.2199 23.305C21.6299 22.4884 18.9816 21.2517 18.5732 20.9834C18.1532 20.7267 18.2232 20.47 18.3282 20.2834C18.4332 20.0967 18.7949 19.9567 19.1216 20.12C19.7049 20.435 22.1316 21.695 24.2199 23.305ZM23.6016 24.355C20.9416 23.7367 18.1999 22.7217 17.7566 22.4884C17.3249 22.255 17.3482 21.9984 17.4532 21.8117C17.5466 21.625 17.8849 21.45 18.2232 21.5784C18.8416 21.8467 21.3732 22.9084 23.6016 24.355ZM23.1116 25.405C21.0777 25.0924 19.0723 24.6164 17.1149 23.9817C16.6482 23.795 16.6716 23.5267 16.7416 23.34C16.8232 23.1417 17.1499 22.9434 17.4882 23.0484C18.1416 23.27 20.7549 24.1334 23.1116 25.405Z" fill="#F31509"/>
<path fill-rule="evenodd" clip-rule="evenodd" d="M22.6916 26.5717C20.6328 26.4315 18.5886 26.1272 16.5782 25.6617C16.0999 25.51 16.0766 25.2417 16.1349 25.0434C16.1932 24.845 16.4966 24.6234 16.8582 24.6934C17.5116 24.8567 20.2182 25.51 22.6916 26.5717Z" fill="#F31509"/>
<path fill-rule="evenodd" clip-rule="evenodd" d="M15.0966 25.8833H59.5699V27.3533H15.0966V25.8833Z" fill="black"/>
</g>
<defs>
<clipPath id="clip0_1_68357">
<rect width="74.6667" height="56" fill="white" transform="translate(0 9.375)"/>
</clipPath>
</defs>
</svg>
