<svg width="75" height="75" viewBox="0 0 75 75" fill="none" xmlns="http://www.w3.org/2000/svg">
<rect width="74.6667" height="74.75" fill="white"/>
<g clip-path="url(#clip0_1_69266)">
<path d="M0 9.375H74.6667V65.375H0V9.375Z" fill="#CC0000"/>
<path d="M0.0583496 14.03H74.6084V18.51H0.0583496V14.03Z" fill="white"/>
<path d="M0.0583496 23.2117H74.6084V27.6917H0.0583496V23.2117Z" fill="white"/>
<path d="M0.0583496 32.405H74.6084V36.885H0.0583496V32.405Z" fill="white"/>
<path d="M0 9.43335H37.3333V42.1H0V9.43335Z" fill="#000066"/>
<path d="M24.2083 17.985L24.9083 22.7334L27.5916 18.7667L26.145 23.34L30.2866 20.9134L27.0083 24.4134L31.7916 24.04L27.3233 25.7667L31.7916 27.4934L27.0083 27.12L30.2866 30.62L26.145 28.1934L27.58 32.7784L24.8966 28.8L24.1966 33.5484L23.5083 28.8L20.825 32.7667L22.2716 28.1934L18.13 30.62L21.3966 27.12L16.6133 27.4934L21.0933 25.7667L16.625 24.04L21.4083 24.4134L18.13 20.9134L22.2716 23.34L20.825 18.755L23.5083 22.7334L24.2083 17.985ZM20.3233 18.1834C19.0605 17.6236 17.6778 17.388 16.3009 17.4981C14.9239 17.6081 13.5962 18.0603 12.4383 18.8136C11.2804 19.5669 10.329 20.5974 9.67036 21.8116C9.01173 23.0258 8.66676 24.3853 8.66676 25.7667C8.66676 27.148 9.01173 28.5075 9.67036 29.7218C10.329 30.936 11.2804 31.9665 12.4383 32.7198C13.5962 33.4731 14.9239 33.9253 16.3009 34.0353C17.6778 34.1454 19.0605 33.9098 20.3233 33.35C18.9286 34.3507 17.285 34.9474 15.5731 35.0744C13.8612 35.2015 12.1475 34.854 10.6204 34.0701C9.09324 33.2863 7.81185 32.0964 6.91712 30.6315C6.0224 29.1666 5.54901 27.4832 5.54901 25.7667C5.54901 24.0501 6.0224 22.3668 6.91712 20.9019C7.81185 19.4369 9.09324 18.2471 10.6204 17.4633C12.1475 16.6794 13.8612 16.3319 15.5731 16.4589C17.285 16.586 18.9286 17.1827 20.3233 18.1834Z" fill="#FFCC00"/>
<path d="M0.0583496 41.5984H74.6084V46.0784H0.0583496V41.5984Z" fill="white"/>
<path d="M0.0583496 50.7217H74.6084V55.2017H0.0583496V50.7217Z" fill="white"/>
<path d="M0 60.895H74.55V65.375H0V60.895Z" fill="white"/>
</g>
<defs>
<clipPath id="clip0_1_69266">
<rect width="74.6667" height="56" fill="white" transform="translate(0 9.375)"/>
</clipPath>
</defs>
</svg>
