<svg width="75" height="75" viewBox="0 0 75 75" fill="none" xmlns="http://www.w3.org/2000/svg">
<rect width="74.6667" height="74.75" fill="white"/>
<g clip-path="url(#clip0_1_69256)">
<path fill-rule="evenodd" clip-rule="evenodd" d="M0 9.375H84V26.875H0V9.375Z" fill="#009A00"/>
<path fill-rule="evenodd" clip-rule="evenodd" d="M-6.10352e-05 26.875H83.9999V28.625H-6.10352e-05V26.875Z" fill="white"/>
<path fill-rule="evenodd" clip-rule="evenodd" d="M-6.10352e-05 28.625H83.9999V46.125H-6.10352e-05V28.625Z" fill="black"/>
<path fill-rule="evenodd" clip-rule="evenodd" d="M-6.10352e-05 46.125H83.9999V47.875H-6.10352e-05V46.125Z" fill="white"/>
<path fill-rule="evenodd" clip-rule="evenodd" d="M-6.10352e-05 47.875H83.9999V65.375H-6.10352e-05V47.875Z" fill="#FFCA00"/>
<path fill-rule="evenodd" clip-rule="evenodd" d="M0 9.375V65.375L36.75 37.375L0 9.375Z" fill="#FF0000"/>
<path fill-rule="evenodd" clip-rule="evenodd" d="M21.7109 45.7968L16.1109 41.6953L10.5109 45.7968L12.6874 39.2015L7.05463 35.1437L13.9999 35.1656L16.1109 28.5593L18.2328 35.1765L25.1781 35.1437L19.5453 39.2015L21.7109 45.7968Z" fill="#FFCA00"/>
<path fill-rule="evenodd" clip-rule="evenodd" d="M11.2437 41.1922H15.2905C15.6187 41.5531 16.3296 41.7062 17.0187 41.1922C18.2874 40.4922 20.7374 41.1922 20.7374 41.1922L21.2187 40.6781L20.0483 36.8281L19.6218 36.3688C19.6218 36.3688 18.714 35.8219 16.9968 36.0078C15.2796 36.1938 14.678 35.9531 14.678 35.9531C14.678 35.9531 13.1796 36.1281 12.753 36.3469L12.2718 36.8281L11.2437 41.1922Z" fill="white" stroke="black" stroke-width="0.120312" stroke-linecap="round" stroke-linejoin="round"/>
<path d="M12.064 40.1969C12.064 40.1969 15.914 39.7156 17.0296 41.1922C16.4062 41.6297 15.8483 41.6625 15.2577 41.225C15.3452 41.0609 16.6358 39.7156 19.928 40.164" stroke="black" stroke-width="0.120312" stroke-linecap="round" stroke-linejoin="round"/>
<path d="M16.1874 36.3469L16.1546 40.5907M19.6218 36.4016L20.3437 39.7813" stroke="black" stroke-width="0.13125"/>
<path d="M12.7968 36.3469L12.3921 38.0969" stroke="black" stroke-width="0.120312" stroke-linecap="round" stroke-linejoin="round"/>
<path fill-rule="evenodd" clip-rule="evenodd" d="M8.62958 41.6516L9.5702 42.7672C9.67958 42.8328 9.78895 42.8328 9.88739 42.7672L11.2874 41.0828L11.878 40.35C11.9765 40.2406 11.9983 40.1203 11.9874 40.0219L13.1249 39.0047L13.3655 39.0266C13.2561 39.0047 13.1796 38.95 13.2561 38.8297L13.5186 38.6328L13.7155 38.8844C13.7155 38.8844 13.4311 39.2563 13.3983 39.2563H13.0921L12.5015 39.7922L12.764 40.0109L13.1468 41.0828L13.628 40.7437L13.3218 39.65L13.989 38.9172L13.7374 38.5234L13.9124 38.3047C13.9124 38.3047 16.2421 39.7703 17.1499 39.3766C17.1718 39.3766 17.2046 38.3266 17.2046 38.3266C17.2046 38.3266 14.7765 38.075 14.7218 37.5938C14.6671 37.1125 15.2686 37.0469 15.2686 37.0469L15.0061 36.6969L15.0608 36.5L15.4874 37.025L16.439 36.2156L22.0718 42.625C22.378 42.5047 22.4436 42.4281 22.4655 42.1219L16.953 35.7891L17.3686 35.3406C17.4561 35.2422 17.478 35.2094 17.478 35.0563L18.1343 34.4984C18.3061 34.5573 18.4527 34.6731 18.5499 34.8266L20.3436 33.3281C20.3874 33.3719 20.5296 33.4156 20.628 33.3719L23.5702 30.5391L20.3655 32.8031L20.2561 32.7266C20.2561 32.6281 20.3655 32.6172 20.2561 32.4422C20.1249 32.2891 19.939 32.5844 19.9171 32.5844C19.8843 32.5844 19.4468 32.4312 19.3483 32.2344L19.3265 32.7484L18.5061 33.5141L17.8827 33.4812L16.9858 34.3562L16.8765 34.6844L17.0186 34.9797C17.0186 34.9797 16.5374 35.3953 16.5374 35.3734C16.5374 35.3406 16.439 35.2422 16.428 35.2312L16.8436 34.8594L16.8983 34.6078L16.7671 34.3891C16.7233 34.4219 16.1983 34.9797 16.1655 34.9141L14.6343 33.2188L14.7218 32.9016L13.7702 31.8625C13.4202 31.7422 12.8624 31.7203 12.753 32.4859C12.6655 32.6609 11.9436 32.5078 11.9436 32.5078L11.5499 32.5953L9.31864 35.7344L10.5546 37.2219L13.0921 34.0172L13.1686 33.1094L13.6936 33.7C13.8796 33.7219 14.0436 33.7328 14.2077 33.6453L15.7061 35.3187L15.4546 35.5703L15.6733 35.8109L15.9358 35.6359L16.0343 35.7781C15.914 35.8437 15.8155 35.9422 15.6952 36.0078C15.4983 35.8766 15.3015 35.7125 15.3124 35.4609L14.4702 36.1609L14.4374 36.2922L11.9327 38.3703L11.714 38.4031L11.6593 39.0594L13.289 37.7031V37.5063L13.453 37.6484L14.7218 36.6312C14.7218 36.6312 14.8093 36.7406 14.7765 36.7406C14.7436 36.7406 13.6499 37.7578 13.6499 37.7578L13.628 37.8672L13.4311 38.0422L13.3218 37.9547L11.7905 39.3109H11.5718L10.7296 40.1531C10.5108 40.175 10.3249 40.1969 10.139 40.3172L8.62958 41.6516Z" fill="black" stroke="black" stroke-width="0.120312" stroke-linecap="round" stroke-linejoin="round"/>
</g>
<defs>
<clipPath id="clip0_1_69256">
<rect width="74.6667" height="56" fill="white" transform="translate(0 9.375)"/>
</clipPath>
</defs>
</svg>
