<svg width="75" height="75" viewBox="0 0 75 75" fill="none" xmlns="http://www.w3.org/2000/svg">
<rect width="74.6667" height="74.75" fill="white"/>
<g clip-path="url(#clip0_1_69376)">
<path fill-rule="evenodd" clip-rule="evenodd" d="M0 9.375H74.6667V65.375H0V9.375Z" fill="white"/>
<path fill-rule="evenodd" clip-rule="evenodd" d="M-3.0799 9.39833L-2.98656 49.7183L59.7918 9.375L-3.0799 9.39833Z" fill="#3662A2"/>
<path fill-rule="evenodd" clip-rule="evenodd" d="M77.7467 65.3284L77.5834 23.41L14.2684 65.3517L77.735 65.3284H77.7467Z" fill="#38A100"/>
<path fill-rule="evenodd" clip-rule="evenodd" d="M-3.03333 52.7517L-2.98666 65.375L10.7217 65.3634L77.63 20.505L77.5483 9.5267L64.015 9.41003L-3.03333 52.74V52.7517Z" fill="#C70000"/>
<path fill-rule="evenodd" clip-rule="evenodd" d="M25.62 29.4416L23.0767 27.9016L21.6067 30.48L20.1833 27.89L17.6167 29.395L17.6867 26.4316L14.7233 26.455L16.2633 23.9116L13.685 22.4533L16.275 21.0183L14.7817 18.4516L17.745 18.5216L17.7333 15.5466L20.265 17.0866L21.735 14.5083L23.1583 17.0983L25.725 15.5933L25.655 18.5566L28.6183 18.5333L27.0783 21.0766L29.6567 22.535L27.0667 23.97L28.56 26.5366L25.5967 26.4666L25.62 29.4416Z" fill="#FFE700"/>
<path fill-rule="evenodd" clip-rule="evenodd" d="M27.1133 22.4884C27.1133 25.4751 24.675 27.8901 21.6767 27.8901C18.6783 27.8901 16.24 25.4751 16.24 22.4884C16.24 19.5017 18.6667 17.0984 21.6767 17.0984C24.6867 17.0984 27.1133 19.5134 27.1133 22.4884Z" fill="#3662A2"/>
<path fill-rule="evenodd" clip-rule="evenodd" d="M25.935 22.4883C25.935 23.6177 25.4864 24.7008 24.6878 25.4994C23.8892 26.298 22.806 26.7466 21.6767 26.7466C20.5473 26.7466 19.4642 26.298 18.6656 25.4994C17.867 24.7008 17.4183 23.6177 17.4183 22.4883C17.4183 21.3589 17.867 20.2758 18.6656 19.4772C19.4642 18.6786 20.5473 18.23 21.6767 18.23C22.806 18.23 23.8892 18.6786 24.6878 19.4772C25.4864 20.2758 25.935 21.3589 25.935 22.4883Z" fill="#FFE700"/>
</g>
<defs>
<clipPath id="clip0_1_69376">
<rect width="74.6667" height="56" fill="white" transform="translate(0 9.375)"/>
</clipPath>
</defs>
</svg>
