<svg width="75" height="75" viewBox="0 0 75 75" fill="none" xmlns="http://www.w3.org/2000/svg">
<rect width="74.6667" height="74.75" fill="white"/>
<g clip-path="url(#clip0_1_69368)">
<path d="M0 9.375H74.6667V65.375H0V9.375Z" fill="#009543"/>
<path d="M0 9.375H74.6667V46.7083H0V9.375Z" fill="#ED4135"/>
<path d="M0 9.375H74.6667V28.0417H0V9.375Z" fill="#0035AD"/>
<path d="M28 55.7266C38.1353 55.7266 46.3516 47.5103 46.3516 37.375C46.3516 27.2396 38.1353 19.0233 28 19.0233C17.8646 19.0233 9.64832 27.2396 9.64832 37.375C9.64832 47.5103 17.8646 55.7266 28 55.7266Z" fill="#FAE600" stroke="black" stroke-width="0.618333"/>
<path d="M24.885 40.1167H31.1033H24.885ZM24.885 35.5083H31.1033H24.885ZM28 19.0817V50.4417V19.0817Z" fill="black"/>
<path d="M24.885 40.1167H31.1033M24.885 35.5083H31.1033M28 19.0817V50.4417" stroke="black" stroke-width="0.746667"/>
<path d="M20.6033 54.2216C28.0933 57.29 35.1167 54.42 35.1167 54.42C35.1167 54.42 32.4683 51.55 31.115 50.43C29.785 49.3333 25.8883 49.38 24.5583 50.43C23.18 51.6298 21.8601 52.8951 20.6033 54.2216Z" fill="black"/>
<path d="M28 48.82C29.134 48.82 30.0533 47.4828 30.0533 45.8333C30.0533 44.1839 29.134 42.8467 28 42.8467C26.866 42.8467 25.9467 44.1839 25.9467 45.8333C25.9467 47.4828 26.866 48.82 28 48.82Z" fill="black"/>
<path d="M28 39.3817C29.3724 39.3817 30.485 38.6765 30.485 37.8067C30.485 36.9368 29.3724 36.2317 28 36.2317C26.6276 36.2317 25.515 36.9368 25.515 37.8067C25.515 38.6765 26.6276 39.3817 28 39.3817Z" fill="black"/>
<path d="M28 33.0116C29.3724 33.0116 30.485 31.8991 30.485 30.5266C30.485 29.1542 29.3724 28.0416 28 28.0416C26.6276 28.0416 25.515 29.1542 25.515 30.5266C25.515 31.8991 26.6276 33.0116 28 33.0116Z" fill="black"/>
<path d="M30.9866 21.2634C30.9866 21.2634 31.1967 21.6134 30.7533 22.43C28.5833 26.3384 26.4016 26.42 25.9933 26.7584C25.5266 27.1317 25.34 27.1084 25.34 27.1084C25.375 26.77 25.3983 25.405 25.4216 25.2767C25.76 23.445 28.5133 23.4684 30.6716 21.6017C31.01 21.31 30.9866 21.2517 30.9866 21.2517V21.2634ZM23.7066 29.6634C23.7066 29.6634 24.2083 31.0634 24.2666 32.4634C24.3833 34.7034 26.53 34.7617 28 34.7617V33.5134C26.8916 33.5134 25.935 33.35 25.1416 31.7167C24.7242 30.9916 24.2441 30.3046 23.7066 29.6634ZM23.6483 47.7C23.6483 47.7 24.43 46.7317 25.3516 44.4684C25.8183 43.29 26.9616 42.6017 28 42.6017V40.8517C25.6316 40.8517 24.5 41.7267 24.3833 43.0217C24.2348 44.5948 23.9894 46.1572 23.6483 47.7Z" fill="black"/>
<path d="M32.2933 29.6633C32.2933 29.6633 31.7917 31.0633 31.7333 32.4633C31.6167 34.7033 29.47 34.7617 28 34.7617V33.525C29.1083 33.525 30.065 33.3617 30.8583 31.7167C31.2783 30.9933 31.7567 30.305 32.2933 29.6633ZM32.3517 47.7117C32.3517 47.7117 31.57 46.7317 30.6483 44.4683C30.1817 43.29 29.0383 42.6017 28 42.6017V40.875C30.3683 40.875 31.5 41.75 31.6167 43.045C31.7656 44.6142 32.0111 46.1727 32.3517 47.7117Z" fill="black"/>
</g>
<defs>
<clipPath id="clip0_1_69368">
<rect width="74.6667" height="56" fill="white" transform="translate(0 9.375)"/>
</clipPath>
</defs>
</svg>
