<svg width="75" height="75" viewBox="0 0 75 75" fill="none" xmlns="http://www.w3.org/2000/svg">
<rect width="74.6667" height="74.75" fill="white"/>
<g clip-path="url(#clip0_1_69272)">
<path fill-rule="evenodd" clip-rule="evenodd" d="M22.7267 9.375H51.9401V65.375H22.7267V9.375Z" fill="white"/>
<path fill-rule="evenodd" clip-rule="evenodd" d="M0 9.375H22.7267V65.375H0V9.375ZM51.94 9.375H74.6667V65.375H51.94V9.375Z" fill="#198200"/>
<path fill-rule="evenodd" clip-rule="evenodd" d="M36.5751 50.36V56.4966L39.0601 56.52C39.0601 56.52 38.2667 51.1766 38.6984 50.4533C39.1301 49.7533 39.5384 49.8466 39.5384 49.8466C39.5384 49.8466 41.1601 50.3366 41.3351 50.255C41.5101 50.185 41.3117 49.6483 42.1751 49.7183C42.4551 49.6133 42.3034 49.135 42.5601 49.1116C42.8167 49.0766 47.7517 50.4883 48.8251 49.1583C48.5451 48.4116 47.5767 49.1 47.3201 49.135C47.0867 49.135 46.1184 48.6683 45.5584 49.135C45.0451 48.75 42.7117 48.4933 42.7117 48.4933C42.4084 48.19 48.2651 48.645 48.6034 48.4116C49.2917 47.7233 47.3201 47.805 47.0167 48.0266C46.7687 47.8769 46.4869 47.792 46.1974 47.7798C45.9078 47.7675 45.6199 47.8284 45.3601 47.9566C45.1617 47.4783 43.2601 47.6766 42.2101 47.5483C41.8601 47.35 41.9184 47.2333 42.1517 47.105C44.3684 47.1983 46.5617 47.49 48.7784 47.3966C49.3734 46.615 48.0201 46.3116 47.1917 46.9883C46.7017 46.1716 45.7101 46.9533 45.0451 46.8716C44.3801 46.8016 44.6951 45.985 45.5351 46.1133C46.3751 46.23 47.8801 46.0666 48.1601 45.6817C48.4401 45.2966 47.9967 44.9 46.6084 45.2733C46.1417 44.8067 45.0917 45.2733 44.6134 45.425C43.9601 45.0633 42.4551 45.3666 41.9534 45.495C41.4517 45.1916 44.5784 44.6783 44.5784 44.6783C45.7917 44.655 46.4801 44.445 46.8534 44.3516C48.6851 43.3716 46.8301 43.2666 45.8734 43.9783C45.2784 43.5116 44.7067 44.0133 44.1701 44.1883C43.667 44.3586 43.1376 44.4376 42.6067 44.4216C42.6067 44.3516 44.0767 43.4533 44.0767 43.4533C44.0767 43.4533 45.8617 43.325 46.2234 43.2783C46.5734 43.22 48.4167 42.2866 45.9084 42.9166C45.0451 42.9866 44.5317 42.94 44.1934 42.9633C42.2684 42.765 44.3801 42.5783 44.3801 42.5783C44.3801 42.5783 47.1101 42.3333 47.1451 42.1933C47.1917 41.1433 44.9167 41.6333 44.8934 41.6333C44.8934 40.875 42.7701 41.6566 42.7701 41.6333C42.3617 41.4 43.0034 41.155 43.0034 41.155C43.5634 41.015 44.4034 40.9683 44.6251 40.7933C44.6251 40.7933 46.2117 40.7816 46.3984 40.3616C46.0134 39.2766 43.0384 40.5483 42.6417 40.735C42.1051 40.735 42.9917 39.8716 43.0267 39.8483C43.0501 39.8133 45.4767 39.72 46.6317 38.1566C46.7134 37.2116 45.2784 38.6933 45.2784 38.6933C45.1617 37.4566 43.7151 38.775 42.8751 38.8683C42.0234 38.985 42.0001 38.4833 42.5834 38.4016C43.1667 38.3316 43.8434 38.39 44.1701 37.4916C44.5084 36.5933 45.5001 37.5383 45.6867 37.2116C45.8617 36.8733 45.3251 36.5933 45.3251 36.5933C45.3251 36.5933 46.0717 35.8233 44.8584 35.8583C43.6684 35.8816 42.1051 35.695 42.1051 35.695C42.1051 35.695 43.3534 35.2166 44.5317 35.2283C45.6984 35.2633 45.0684 34.4 43.9484 34.4C42.8167 34.4 42.2334 34.015 42.2334 34.015L44.1467 33.2916L44.0301 32.755C44.0301 32.755 45.1501 31.8566 43.5634 32.0666L41.7901 32.3L38.5934 32.7783C38.5701 32.7783 37.7301 32.5216 38.5467 32.3116C39.3634 32.1016 42.2567 31.53 42.6884 31.6816C43.1201 31.8333 42.6417 30.6083 41.1017 30.4566C39.5734 30.305 38.6167 30.8416 38.6167 30.8416C38.6167 30.8416 37.6251 30.48 38.5467 30.1766C39.4684 29.8616 40.9267 30.2816 40.9267 30.2816C40.9267 30.2816 42.5601 29.7916 41.2067 29.5816C39.8534 29.3833 39.4217 29.7683 38.8034 29.7916C38.5584 29.4766 40.9267 29.4066 41.0784 29.15C40.8217 28.6833 39.3517 29.15 38.4884 29.15C38.1384 28.9983 38.1034 28.7416 38.5234 28.59C39.3984 28.555 40.2267 28.6016 41.1017 28.5666C41.0784 28.1 41.1017 27.5516 41.0784 27.0733C39.9584 26.875 38.6517 27.225 38.0334 27.19C38.1967 26.6883 40.6001 26.5483 40.8684 26.4083C41.4284 25.7083 38.5234 26.4083 38.4884 26.4083C37.9867 26.3383 38.0217 26.0116 38.3367 25.825C39.0834 25.7433 40.7401 25.9416 40.6234 25.4283C40.5301 24.9616 39.4567 25.2066 39.0367 25.3116C38.5934 25.4166 37.9517 25.335 37.9517 25.335C37.6834 24.9616 40.4601 25.1133 40.4367 24.8216C40.4017 24.495 38.6751 24.7283 38.0801 24.7516C37.6251 24.4366 40.2967 24.2266 40.3317 24.1916C40.4367 23.34 38.5467 24.1916 38.1851 24.1916C37.8351 24.1916 38.0101 23.655 38.0101 23.655C38.0101 23.655 38.7451 23.3166 38.7217 23.27C38.5302 23.1668 38.3264 23.0884 38.1151 23.0366C38.0567 23.0366 38.1151 22.4533 38.1151 22.4533C38.1151 22.4533 38.7217 21.9866 38.6751 21.8583C38.6167 21.73 37.9517 21.9633 37.9517 21.9633V21.45C37.9517 21.45 38.4417 21.4033 38.4884 21.17C38.5467 20.9366 37.9051 20.9133 37.9051 20.9133L37.6484 18.23L37.4151 20.7383L36.5751 20.855C36.5751 20.855 37.1584 21.1933 37.2751 21.5316C37.3684 21.8583 36.5517 21.765 36.5517 21.765C36.5517 21.765 37.2167 22.325 37.2634 22.5233C37.3217 22.7333 36.3417 22.78 36.3417 22.78C36.3417 22.78 37.1584 23.3633 37.2167 23.7016C37.2634 24.0283 37.2167 24.215 37.2167 24.215C37.2167 24.215 35.8634 23.0366 35.0001 23.3633C34.5334 23.5966 36.0267 23.7133 37.0067 24.565C37.0067 24.7633 34.6151 23.9816 34.5334 24.4716C34.5801 24.6 37.0884 24.9616 37.2634 25.2883C36.3534 25.3233 34.4634 25.09 34.5334 25.3933C34.3351 25.7433 36.3067 25.545 37.1351 25.825C37.3801 26.105 37.3567 26.3383 36.9367 26.3616C36.1317 25.9766 34.3584 25.6966 34.3467 26.1866C34.3584 26.3033 36.1901 26.2333 36.8551 26.665C35.9684 26.875 32.9584 26.2566 32.9467 26.5483C33.0284 26.7 33.5067 27.3066 34.3234 27.2833C35.1401 27.26 37.0417 27.61 37.1701 27.8666C37.2867 28.1233 34.7084 27.33 33.7401 27.7966C32.7601 28.2633 36.5284 27.9716 37.1351 28.5316C37.7534 29.1033 35.9101 28.485 35.9101 28.485C35.9101 28.485 33.3434 28.135 32.9701 28.31C32.5851 28.485 32.1534 28.8933 32.1534 28.8933C32.1534 28.8933 32.4101 29.4066 32.6667 29.3016C32.9234 29.1966 32.5851 29.6166 32.5851 29.6166C32.5851 29.6166 36.1667 30.48 36.9601 31.25C37.7534 32.02 32.4101 30.0483 32.4101 30.0483C32.4101 30.0483 30.2517 30.8416 32.5267 30.8883C32.2701 31.2733 32.6667 31.5066 32.6667 31.5066C32.6667 31.5066 36.4467 32.3 36.8317 32.9066C37.2167 33.525 34.2534 32.3233 33.5767 31.985C32.9117 31.6583 31.0217 32.195 31.0451 32.3233C31.0801 32.44 31.9784 32.6266 31.9901 32.86C32.0251 33.0933 30.8934 33.1633 30.8934 33.3733C30.8934 33.5716 35.6767 34.575 36.9601 35.6483C38.2434 36.7216 33.2034 34.365 33.2034 34.365C33.2034 34.365 33.4834 34.75 33.2034 34.855C32.9117 34.96 31.9201 33.42 30.2867 34.365C29.9834 34.7616 31.7101 35.065 32.1534 35.1116C32.0017 35.4966 31.8734 35.625 32.4801 36.01C33.0867 36.395 31.2784 35.45 31.2784 35.4966L31.4067 36.1616C30.8467 35.695 30.1584 35.5666 29.5167 36.0333C29.5167 36.0333 29.4934 36.5 30.1584 36.78C29.7967 37.515 30.5667 37.2816 31.7917 37.9816C29.9717 37.5033 29.8201 38.39 31.1267 38.5883C32.4334 38.7866 36.0151 38.9266 36.8551 40.0233C37.7067 41.12 35.6534 39.6033 35.4201 39.5567C35.3734 39.5917 35.3267 40.1283 35.3267 40.1283C34.7784 39.8133 34.2767 39.5216 33.6234 39.3933C33.5651 39.4983 33.5884 39.6383 33.5301 39.7433C32.9467 39.3116 32.4217 39.02 31.5584 38.9733L31.4534 39.3816C31.4534 39.3816 30.7417 38.4833 29.3301 39.3816C28.5484 39.9533 32.3051 39.5917 32.9117 40.2566C33.5301 40.9216 33.0401 41.0266 33.0401 41.0266L31.5117 40.455C31.5117 40.455 29.6917 40.1283 29.1784 40.5366C28.6651 40.945 36.6451 41.9366 36.8784 43.045C37.0417 43.6283 35.0117 42.415 33.2501 41.89L33.0401 42.4733C33.0401 42.4733 32.3401 41.7733 31.5584 41.6566C31.5351 41.6566 31.7101 42.3566 31.7101 42.3566C31.7101 42.3566 29.7501 41.4233 28.7467 41.9133C27.7551 42.4033 32.2234 42.66 32.6317 43.115C33.0401 43.5816 31.2784 42.8116 31.1151 43.115C30.9751 43.43 28.7934 42.555 28.8284 42.9633C28.8517 43.3716 29.1317 43.605 29.1317 43.605C29.1317 43.605 33.6584 44.0366 33.8101 44.5733C33.9617 45.11 31.3017 44.27 31.3017 44.27C31.3017 44.27 31.0451 44.655 31.2551 44.83C31.4534 45.0166 29.7151 43.815 29.8784 44.5966C29.3067 44.375 27.8484 43.6866 28.0584 44.2233C28.2567 44.76 32.1767 45.53 32.1767 45.53C32.1767 45.53 30.4617 45.6467 30.5434 46.09C28.3267 44.7483 28.3851 45.6 28.4434 45.6233C28.4901 45.6467 25.5967 44.9116 27.7784 46.09C29.9601 47.2683 28.9451 47.0583 28.9801 47.0816C29.0034 47.105 29.2134 47.665 29.1551 47.665C29.1084 47.665 27.6734 46.9066 27.1834 46.8483C26.7051 46.8016 24.3951 47.49 26.8567 48.575C29.3184 49.66 30.8234 48.3183 32.1767 48.4583C33.5301 48.6216 34.1601 48.855 34.0434 49.275C33.9151 49.7183 32.6551 47.8633 31.3367 49.4733C29.8201 49.17 28.8051 49.0066 29.5867 50.1033C27.1367 49.1816 25.6201 50.3833 28.7234 50.8733C31.7567 50.9666 33.6234 50.1266 33.6234 50.1266C33.6234 50.1266 34.1484 51.0716 34.8834 50.4067C35.6301 49.7416 35.6534 50.6633 35.6767 50.6633L36.4001 50.36H36.5751Z" fill="#198200" stroke="black" stroke-width="0.0816667" stroke-linecap="round" stroke-linejoin="round"/>
<path fill-rule="evenodd" clip-rule="evenodd" d="M36.8667 46.7317V46.3C36.8667 46.3 35.9101 46.125 35.4317 46.2184C35.1634 46.0667 34.8951 45.8567 34.5567 46.0317C34.4984 46.1717 35.1751 46.5334 35.3967 46.5334C35.8772 46.6765 36.3772 46.7435 36.8784 46.7317H36.8667ZM36.8667 47.4317C36.8667 47.4317 35.8984 47.07 35.5134 47.4784C35.5717 47.91 36.6451 48.12 36.8784 48.0034C37.1001 47.8867 36.8784 47.4434 36.8667 47.42V47.4317ZM38.5001 47.595V47.8984C38.5001 47.8984 39.6434 48.12 39.8534 47.875C40.0517 47.63 38.9201 47.4667 38.4884 47.595H38.5001ZM38.4417 46.405L38.4767 46.7434C38.4767 46.7434 39.4801 46.965 39.8651 46.4167C40.2501 45.8684 38.9901 46.4167 38.4417 46.405ZM38.4884 45.2384V45.4717C38.4884 45.4717 39.2467 45.5884 39.4217 45.2617C39.5851 44.935 38.5117 45.2617 38.4884 45.2384ZM36.9251 44.5384C36.8084 44.3867 36.4001 43.9784 35.3151 43.8617C34.5567 43.8617 36.6801 44.97 36.9251 44.55V44.5384ZM38.4651 43.4067L38.4417 43.7217C38.4417 43.7217 41.0084 42.9517 41.6034 43.01C42.1401 42.8584 42.2567 42.485 42.2334 42.485C41.7667 42.1467 39.5617 42.7534 38.4651 43.4067ZM38.5234 42.4967L38.4884 42.8C38.4884 42.8 40.2967 42.45 40.7867 42.1C41.2651 41.75 38.5467 42.5084 38.5234 42.4967ZM38.4534 41.61V41.9134C38.4534 41.9134 39.6551 41.8667 39.9117 41.6334C40.0634 41.3884 38.8384 41.5984 38.4534 41.61ZM40.9734 44.1417C40.9734 44.1417 41.6034 44.235 41.7201 44.0484C41.6967 43.7217 40.9734 44.165 40.9734 44.1417ZM38.5001 40.4784L38.5117 41.1434C38.5117 41.1434 41.4167 40.2217 41.6034 40.0584C41.7784 39.8834 42.1867 39.3584 38.5001 40.4784ZM38.4184 39.5567V40.0467C38.4184 40.0467 39.5851 39.9534 40.1217 39.5217C40.6584 39.0784 38.4184 39.5684 38.4184 39.5567ZM37.0184 38.4717L37.0884 38.9034L33.2501 37.6667C33.2617 37.6667 33.0634 37.0367 37.0184 38.4717ZM37.0767 36.92C37.0767 36.9667 37.0767 37.34 37.0534 37.3284C37.0534 37.3284 34.3934 36.22 34.2884 36.3134C33.9384 35.4967 37.0884 36.9434 37.0884 36.92H37.0767ZM38.3717 37.62L38.4184 37.9817C38.4184 37.9817 40.0517 37.6434 40.1451 37.48C40.2384 37.3167 38.3717 37.62 38.3717 37.6084V37.62ZM38.4067 38.4834C38.4301 38.565 38.4534 38.8684 38.4534 38.8684C38.4534 38.8684 39.1067 38.81 39.2117 38.6584C39.3051 38.5067 38.4067 38.4834 38.4067 38.4834ZM38.3134 36.5V36.85C38.3134 36.85 40.1101 36.5 40.2967 36.3367C40.4951 36.1617 38.2784 36.5 38.3134 36.5ZM38.3134 35.5084C38.3134 35.5317 38.2551 35.87 38.3017 35.87C38.3484 35.87 40.4717 35.52 40.8101 35.205C41.1367 34.9134 38.3601 35.5434 38.3251 35.5084H38.3134ZM38.2901 33.77V34.155C38.2901 34.155 39.6667 33.8634 39.9234 33.5717C40.1801 33.28 38.2901 33.805 38.2901 33.77ZM38.0567 31.25L38.0801 31.81C38.0801 31.81 39.9467 31.5534 40.2034 31.25C40.4717 30.935 38.0451 31.25 38.0567 31.25ZM37.1934 26.9917V27.3417C37.1934 27.3417 36.3184 27.3067 36.5284 27.155C36.7384 27.0034 37.1934 27.0267 37.1934 26.9917ZM38.0101 27.4584L38.0334 27.9484C38.0334 27.9484 39.1651 27.8317 39.2467 27.6567C39.3401 27.4817 38.0334 27.47 38.0101 27.47V27.4584ZM37.9401 28.1584C37.9401 28.1584 37.9634 28.4617 37.9867 28.4617C38.0101 28.4617 38.4417 28.4267 38.5351 28.31C38.6284 28.1934 37.9867 28.1934 37.9517 28.1584H37.9401ZM36.9834 29.535C36.9834 29.57 37.0184 30.0017 36.9834 29.9784C36.9484 29.955 34.5101 29.2667 34.2767 29.2784C34.0551 29.2784 33.9967 28.7067 36.9834 29.535ZM37.1817 30.34C37.1817 30.4217 37.2401 30.8767 37.1467 30.8534C37.0651 30.83 35.4784 30.3284 35.6417 30.1767C35.8051 30.025 37.1817 30.375 37.1817 30.34ZM37.0417 33.7234L37.0534 34.1317C37.0534 34.1317 34.2884 33.2917 34.1951 33.1517C34.1017 33.0117 33.8334 32.3584 37.0417 33.7234ZM37.1584 34.715V35.1L33.4017 33.7817C33.4017 33.7817 33.0984 32.8017 37.1467 34.715H37.1584Z" fill="white" stroke="black" stroke-width="0.0933333" stroke-linecap="round" stroke-linejoin="round"/>
<path fill-rule="evenodd" clip-rule="evenodd" d="M32.7017 47.7233L32.6784 48.1316C32.6784 48.1316 31.9551 47.9216 31.7217 47.5133C32.1417 47.3966 32.7134 47.7349 32.7017 47.7233Z" fill="white" stroke="black" stroke-width="0.0933333" stroke-linejoin="round"/>
</g>
<defs>
<clipPath id="clip0_1_69272">
<rect width="74.6667" height="56" fill="white" transform="translate(0 9.375)"/>
</clipPath>
</defs>
</svg>
