<svg width="75" height="75" viewBox="0 0 75 75" fill="none" xmlns="http://www.w3.org/2000/svg">
<rect width="74.6667" height="74.75" fill="white"/>
<g clip-path="url(#clip0_1_69278)">
<path d="M0 9.375H74.6667V65.375H0V9.375Z" fill="#0067C6"/>
<path d="M-8.15392e-05 28.0416H74.6666V46.7083H-8.15392e-05V28.0416Z" fill="white"/>
<path d="M28.9333 37.3166L29.8666 37.375V37.235L29.5166 37.2116L29.5399 36.7683L29.9249 36.4883L29.9366 36.3133L29.5283 36.605C29.5166 36.5116 29.4583 36.4066 29.3649 36.3716C29.2716 36.3483 29.1782 36.3483 29.0966 36.4066C29.0032 36.4766 28.9799 36.5933 28.9799 36.6983L28.9333 37.3166ZM29.0733 37.1883L29.1083 36.7216C29.1199 36.6516 29.1316 36.5583 29.2016 36.5116C29.2164 36.5017 29.2332 36.4953 29.2509 36.493C29.2685 36.4906 29.2865 36.4923 29.3034 36.4979C29.3203 36.5035 29.3357 36.513 29.3483 36.5255C29.361 36.5379 29.3707 36.5532 29.3766 36.57C29.4233 36.6866 29.3999 36.815 29.3882 36.9433L29.3766 37.2L29.0733 37.1883ZM29.0499 35.8816L29.9599 36.0916L30.1699 35.205C30.1271 35.1973 30.0843 35.1895 30.0416 35.1816L29.8666 35.9283L29.5866 35.87L29.7499 35.1933L29.6216 35.1583L29.4583 35.835L29.2249 35.7766L29.3882 35.0533L29.2483 35.03L29.0499 35.8816ZM29.3766 34.6566L30.2632 34.9716L30.3099 34.8433L29.9599 34.7266L30.0999 34.3183C30.1233 34.2016 30.1466 34.085 30.0882 33.9683C30.0611 33.9321 30.0259 33.9027 29.9854 33.8824C29.9449 33.8622 29.9002 33.8516 29.8549 33.8516C29.7382 33.8516 29.6682 33.9333 29.6216 34.0266C29.5516 34.1433 29.5049 34.2833 29.4699 34.4233L29.3766 34.6566ZM29.5516 34.575L29.6916 34.1783C29.7266 34.1083 29.7616 34.0266 29.8433 34.0033C29.8595 33.9999 29.8762 34.0001 29.8924 34.0037C29.9085 34.0073 29.9237 34.0143 29.937 34.0242C29.9502 34.0341 29.9612 34.0468 29.9692 34.0613C29.9771 34.0758 29.9819 34.0918 29.9833 34.1083C30.0066 34.225 29.9482 34.3416 29.9132 34.4583L29.8316 34.68L29.5516 34.575ZM29.8666 33.525L30.3682 33.8283C30.4616 33.875 30.5783 33.8983 30.6833 33.8516C30.8097 33.7659 30.9073 33.6439 30.9632 33.5016C31.0099 33.385 31.0566 33.245 30.9866 33.1283C30.9166 33.0116 30.7882 32.965 30.6716 32.895L30.3566 32.7083L30.2866 32.825L30.7533 33.105C30.8349 33.1516 30.8933 33.2216 30.8816 33.3266C30.8583 33.4335 30.8104 33.5334 30.7416 33.6183C30.6949 33.6883 30.6016 33.7466 30.5083 33.735C30.4149 33.7116 30.3332 33.6416 30.2516 33.595L29.9366 33.42L29.8666 33.5366V33.525ZM30.5432 32.44L31.2783 33L31.6283 32.5566C31.6983 32.4516 31.7449 32.3233 31.7099 32.2066C31.6882 32.1617 31.6554 32.1232 31.6145 32.0946C31.5737 32.066 31.5262 32.0483 31.4766 32.0433C31.4182 32.0433 31.3599 32.0783 31.3366 32.09C31.3599 31.985 31.2782 31.8916 31.1966 31.8683C31.0799 31.8333 30.9632 31.9033 30.8932 31.985L30.6599 32.2766L30.5432 32.44ZM30.7299 32.405C30.8116 32.2883 30.8933 32.1716 30.9866 32.0783C31.0333 32.0316 31.1033 31.9616 31.1616 32.0083C31.2199 32.0316 31.2433 32.1133 31.2083 32.16C31.1616 32.265 31.0916 32.335 31.0216 32.4283L30.9283 32.5566L30.7299 32.405ZM31.0333 32.6383L31.3016 32.2883C31.3482 32.2416 31.4182 32.1716 31.4882 32.195C31.5582 32.2066 31.6049 32.2766 31.5816 32.3466C31.5466 32.4633 31.4532 32.5566 31.3716 32.6616L31.2549 32.8133L31.0216 32.6383H31.0333ZM31.3833 31.4483L32.0249 32.125L32.5733 31.6L32.4799 31.5066L32.0366 31.9266H32.0249L31.4766 31.3433L31.3833 31.4483ZM32.1999 30.725L32.7716 31.46L32.8882 31.3783L32.3049 30.6433L32.1999 30.725ZM33.0399 30.1533C32.9487 30.2068 32.8694 30.2782 32.8066 30.3633C32.7536 30.4335 32.724 30.5185 32.7219 30.6064C32.7198 30.6943 32.7453 30.7807 32.7949 30.8533C32.8401 30.9275 32.9046 30.988 32.9816 31.0283C33.0532 31.066 33.1343 31.0822 33.2149 31.075C33.3273 31.0601 33.435 31.0203 33.5299 30.9583C33.627 30.9026 33.7076 30.8221 33.7632 30.725C33.8099 30.6316 33.8216 30.5383 33.7983 30.445L33.6816 30.4916C33.7049 30.6783 33.5883 30.7716 33.4483 30.8416C33.2383 30.9816 33.0399 30.97 32.9116 30.7833C32.7833 30.5616 32.9116 30.3866 33.0983 30.27C33.2266 30.1883 33.3549 30.13 33.4716 30.2116L33.5766 30.1183C33.5088 30.0695 33.4267 30.0449 33.3432 30.0483C33.2382 30.0483 33.1449 30.095 33.0399 30.165V30.1533ZM34.1483 29.605L34.0432 30.655L34.1949 30.5966L34.2182 30.27L34.6849 30.0833L34.9416 30.2933L35.0816 30.235L34.2882 29.5466L34.1483 29.605ZM34.2649 29.7216L34.5799 29.9783L34.2299 30.1183L34.2649 29.71V29.7216ZM36.1899 29.0216L36.2483 29.955L36.7499 29.9316C36.8899 29.9083 37.0299 29.885 37.1116 29.7683C37.2283 29.6516 37.2516 29.4533 37.1932 29.29C37.1712 29.2191 37.1302 29.1555 37.0747 29.1062C37.0192 29.0569 36.9513 29.0236 36.8783 29.01C36.7383 28.9866 36.5982 29.01 36.4583 29.01L36.1899 29.0333V29.0216ZM36.3299 29.15L36.7382 29.1383C36.8127 29.1349 36.8862 29.1553 36.9483 29.1966C37.0416 29.2666 37.0999 29.3716 37.0882 29.4883C37.0832 29.5534 37.058 29.6153 37.0162 29.6655C36.9744 29.7156 36.918 29.7516 36.8549 29.7683C36.7849 29.7916 36.7032 29.7916 36.6332 29.8033L36.3766 29.815L36.3299 29.15ZM37.4966 28.975L37.4382 29.9083L38.3483 29.955V29.8266L37.5783 29.78L37.5899 29.5L38.2899 29.535V29.4066L37.6016 29.3716L37.6132 29.115L38.3599 29.1616V29.0216L37.4849 28.975H37.4966ZM39.9233 29.36L39.5849 30.235L39.7016 30.2816L39.9816 29.5816V29.5583L40.0049 29.5933L40.3316 30.5266L40.4832 30.585L40.8216 29.71L40.7049 29.6633L40.4366 30.3633L40.4249 30.3866L40.4016 30.3516L40.0866 29.4183L39.9233 29.36ZM41.1832 29.9083L40.7516 30.725L40.6349 30.6666L41.0549 29.8383L41.1832 29.9083ZM41.8832 30.3166C41.7984 30.2598 41.7033 30.2202 41.6033 30.2C41.517 30.1755 41.4251 30.1793 41.3412 30.2108C41.2572 30.2423 41.1855 30.2998 41.1366 30.375C41.0915 30.4488 41.0673 30.5335 41.0666 30.62C41.0666 30.7016 41.0783 30.7833 41.1366 30.865C41.1833 30.9466 41.2533 31.0166 41.3699 31.0983C41.4639 31.1622 41.572 31.2022 41.6849 31.215C41.7772 31.2176 41.8677 31.1888 41.9416 31.1333L41.8483 31.0283C41.6849 31.145 41.5566 31.0633 41.4283 30.9816C41.2183 30.8416 41.1366 30.655 41.2649 30.4566C41.4049 30.2466 41.6266 30.305 41.8132 30.4216C41.9299 30.5033 42.0466 30.5966 42.0233 30.7366L42.1399 30.7833C42.1538 30.7038 42.1415 30.6219 42.1049 30.55C42.0582 30.4566 41.9882 30.3866 41.8832 30.3166ZM42.7699 30.9816L41.8016 31.3783L41.9182 31.4833L42.2216 31.3666L42.6066 31.6933L42.5249 32.0083L42.6416 32.1133L42.8866 31.0866L42.7699 30.9816ZM42.7349 31.145L42.6416 31.5416L42.3499 31.3083L42.7349 31.145ZM43.4816 31.635L42.7582 32.2183L42.8399 32.335L43.1316 32.1016L43.4116 32.4516L43.3299 32.9183L43.4349 33.0466L43.5283 32.5566C43.6099 32.615 43.7266 32.65 43.8199 32.6033C43.9016 32.5566 43.9832 32.4866 43.9832 32.3933C43.9832 32.265 43.9016 32.16 43.8316 32.0666L43.4816 31.635ZM43.4582 31.8216L43.7616 32.195C43.8083 32.265 43.8666 32.3583 43.8082 32.4283C43.7732 32.4983 43.6799 32.4983 43.6216 32.4516C43.5049 32.37 43.4349 32.2533 43.3416 32.1483L43.2249 32.02L43.4582 31.8216ZM44.5666 33.1166L43.5166 33.1633L43.5983 33.3033L43.9249 33.2916L44.1816 33.735L43.9949 34.0033L44.0766 34.1433L44.6483 33.2566L44.5666 33.1166ZM44.4849 33.2566L44.2516 33.6066L44.0766 33.28L44.4849 33.2566ZM45.1733 34.3533C45.1149 34.2016 45.0216 34.0383 44.8582 33.9566C44.77 33.9159 44.6709 33.9052 44.576 33.9263C44.4812 33.9474 44.3959 33.999 44.3332 34.0733C44.2166 34.19 44.2166 34.365 44.2516 34.5283C44.2866 34.7033 44.3682 34.8783 44.4849 35.0066L44.4149 35.03L44.4616 35.1583L44.9049 35.0066L44.7299 34.5283L44.6366 34.5633L44.7533 34.9133L44.6132 34.9716C44.4867 34.8536 44.4009 34.6983 44.3682 34.5283C44.3332 34.4 44.3332 34.2483 44.4266 34.155C44.5432 34.0383 44.7299 34.0033 44.8582 34.0966C44.9866 34.19 45.0566 34.3416 45.0916 34.4933C45.1266 34.5983 45.1149 34.715 45.0449 34.7966C45.0216 34.7966 45.0449 34.8316 45.0566 34.8433L45.0916 34.9016C45.1311 34.8715 45.1632 34.8326 45.1854 34.7882C45.2077 34.7437 45.2195 34.6947 45.2199 34.645C45.2222 34.5457 45.2064 34.4469 45.1733 34.3533ZM45.4416 35.0883L44.9166 35.1816C44.836 35.1934 44.7597 35.2255 44.6949 35.275C44.6443 35.3206 44.6113 35.3825 44.6016 35.45V35.73C44.6366 35.8466 44.6716 35.9283 44.7182 35.9983C44.7532 36.0683 44.7999 36.115 44.8582 36.115C44.9348 36.1347 45.0151 36.1347 45.0916 36.115L45.6166 36.0216L45.5932 35.8933L45.0799 35.9866C44.8466 36.0333 44.7766 35.9166 44.7299 35.7066C44.6949 35.4966 44.7299 35.3566 44.9516 35.3216L45.4649 35.2166L45.4416 35.0883ZM45.7216 36.675L44.7533 36.255L44.7649 36.4183L45.0682 36.535L45.1033 37.0483L44.8233 37.2233L44.8349 37.375L45.7332 36.8266L45.7216 36.675ZM45.5816 36.7566L45.2316 36.9783L45.2083 36.605L45.5816 36.7566ZM29.6566 39.09L29.5166 39.125L29.6683 39.6966L29.8083 39.6616L29.6566 39.09ZM45.0099 39.09L45.1499 39.125L44.9983 39.6966L44.8582 39.6616L45.0099 39.09ZM31.1033 41.4816L30.0533 41.5983L30.1466 41.7266L30.4733 41.6916L30.7533 42.1116L30.5899 42.4033L30.6833 42.52L31.1849 41.61L31.1033 41.4816ZM31.0216 41.6333L30.8233 41.9833L30.6132 41.68L31.0216 41.6333ZM31.4999 42.0533L30.8349 42.6716L30.9283 42.765L31.4882 42.24L31.1849 43.0566L31.3016 43.1616L32.0949 42.9283L31.5466 43.43L31.6399 43.5233L32.3049 42.905L32.1649 42.765L31.3483 42.9983L31.6516 42.2166L31.4999 42.0533ZM32.4682 43.0333L31.9083 43.7916L32.6316 44.3283L32.7132 44.2233L32.0949 43.7566L32.2699 43.5233L32.8182 43.955L32.8999 43.8383L32.3516 43.43L32.5033 43.2316L33.0866 43.675L33.1682 43.5583L32.4682 43.0333ZM33.3783 43.71L32.9466 44.5266L33.0632 44.5966L33.2382 44.27L33.6349 44.48L33.7283 44.9466L33.8799 45.0283L33.7749 44.5383C33.8799 44.5733 34.0083 44.55 34.0666 44.4683C34.1249 44.3983 34.1716 44.3166 34.1366 44.2233C34.1133 44.1066 33.9849 44.0366 33.8916 43.9783L33.3783 43.71ZM33.4366 43.885L33.8566 44.1183C33.9266 44.165 34.0082 44.2233 33.9966 44.305C33.9966 44.3866 33.9149 44.4216 33.8449 44.41C33.7049 44.3866 33.5882 44.305 33.4716 44.2466L33.2966 44.1533L33.4366 43.885ZM34.4399 44.2583L34.0899 45.1216L34.2066 45.18L34.5566 44.3166L34.4399 44.2583ZM35.2799 44.55C35.1829 44.5145 35.0798 44.4987 34.9766 44.5033C34.8867 44.5048 34.7997 44.535 34.7283 44.5896C34.6569 44.6442 34.6049 44.7203 34.5799 44.8066C34.5586 44.8869 34.5586 44.9714 34.5799 45.0516C34.5799 45.145 34.6266 45.215 34.6966 45.285C34.777 45.3564 34.8728 45.4083 34.9766 45.4366C35.0851 45.4752 35.2021 45.4833 35.3149 45.46C35.4068 45.4423 35.4894 45.3927 35.5483 45.32L35.4316 45.25C35.3149 45.4016 35.1633 45.3666 35.0116 45.3083C34.7783 45.2266 34.6499 45.075 34.7199 44.8416C34.8016 44.6083 35.0349 44.6083 35.2333 44.6666C35.3733 44.7133 35.5016 44.7833 35.5132 44.9116L35.6533 44.935C35.6468 44.8473 35.6096 44.7646 35.5483 44.7016C35.4727 44.6296 35.3805 44.5775 35.2799 44.55ZM36.2132 44.76L35.6066 45.6116L35.7583 45.635L35.9449 45.3666L36.4583 45.4483L36.5632 45.7516L36.7149 45.775L36.3649 44.7833L36.2132 44.76ZM36.2716 44.9116L36.4116 45.3083L36.0382 45.25L36.2716 44.9116ZM38.4066 44.7716C38.2899 44.7833 38.2082 44.8183 38.1266 44.8766C38.0495 44.9216 37.9887 44.9899 37.953 45.0717C37.9174 45.1535 37.9087 45.2446 37.9283 45.3316C37.9399 45.4133 37.9749 45.4833 38.0449 45.565C38.0916 45.6233 38.1616 45.6583 38.2549 45.6816C38.3366 45.705 38.4533 45.705 38.5816 45.6816C38.6983 45.6583 38.8149 45.6116 38.8849 45.5416C38.9533 45.481 38.9986 45.3986 39.0132 45.3083H38.8733C38.8383 45.495 38.6982 45.5416 38.5466 45.565C38.3016 45.6116 38.1149 45.53 38.0682 45.2966C38.0216 45.0516 38.2199 44.935 38.4182 44.8883C38.5699 44.865 38.7099 44.8533 38.7916 44.97L38.9082 44.9233C38.8645 44.8535 38.7988 44.8002 38.7216 44.7716C38.6183 44.745 38.5099 44.745 38.4066 44.7716ZM39.0249 44.655L39.2932 45.5533L40.1682 45.2966L40.1216 45.1683L39.3866 45.39L39.3049 45.11L39.9699 44.9116L39.9349 44.795L39.2699 44.9816L39.1999 44.7483L39.8999 44.5383L39.8649 44.41L39.0249 44.655ZM40.0399 44.34L40.4249 45.1916L40.5416 45.1333L40.2149 44.4333L41.1249 44.8416H41.1832L41.2999 44.7833L40.9033 43.9316L40.7866 43.99L41.1132 44.69L40.1799 44.27L40.0399 44.34ZM41.0666 43.8616L41.1366 43.9783L41.4632 43.745H41.4866L41.9182 44.41L42.0349 44.3283L41.6033 43.675V43.6633L41.9416 43.43L41.8716 43.325L41.0666 43.8616ZM41.9999 43.2083L42.6299 43.9083L42.7349 43.8033L42.4899 43.535L42.8166 43.2316L43.2832 43.3016L43.4233 43.185L42.9216 43.115C42.9799 43.0333 43.0033 42.905 42.9449 42.8116C42.8983 42.73 42.8283 42.66 42.7233 42.6716C42.6066 42.6716 42.4899 42.765 42.4082 42.835L41.9999 43.22V43.2083ZM42.1866 43.22L42.5366 42.8933C42.6066 42.8466 42.6999 42.7883 42.7699 42.835C42.8516 42.87 42.8516 42.9633 42.8049 43.0216C42.7349 43.1383 42.6299 43.22 42.5249 43.325L42.3966 43.4416L42.1866 43.2083V43.22ZM43.0849 42.1233L43.5049 43.0916L43.5983 42.975L43.4816 42.6716L43.7966 42.275L44.1116 42.345L44.2166 42.2283L43.1899 41.995L43.0849 42.1233ZM43.2483 42.1583L43.6566 42.24L43.4233 42.5316L43.2483 42.1583ZM43.4932 41.5983L44.2749 42.1L44.6832 41.47L44.5666 41.4L44.2516 41.9016L44.2399 41.925H44.2283L43.5632 41.4816L43.4932 41.5983Z" fill="#C8A400"/>
<path d="M37.3332 30.5057L34.3932 35.5924L32.9559 38.0844H41.7106L40.3386 35.7137L37.3332 30.5057Z" fill="white"/>
<path opacity="0.6" d="M37.3332 30.5057L37.1092 30.8791L37.3332 36.0124L37.5572 30.8791L37.3332 30.5057Z" fill="#17C0EB" stroke="#17C0EB" stroke-width="0.00933333"/>
<path d="M37.3331 35.275H37.3238L37.3331 35.555L37.3424 35.275H37.3331Z" fill="white"/>
<path d="M37.3332 34.183C36.339 34.1819 35.3778 34.5398 34.6266 35.191L33.2639 37.5617C33.2151 37.817 33.1901 38.0763 33.1892 38.3363H33.6559C33.7034 37.3943 34.1111 36.5065 34.7946 35.8566C35.4782 35.2066 36.3853 34.8442 37.3286 34.8442C38.2718 34.8442 39.179 35.2066 39.8625 35.8566C40.5461 36.5065 40.9537 37.3943 41.0012 38.3363H41.4679C41.4701 38.0766 41.4482 37.8173 41.4026 37.5617L40.0399 35.191C39.2882 34.5405 38.3273 34.1827 37.3332 34.183Z" fill="#FF0000"/>
<path d="M37.3333 34.267C36.2785 34.2648 35.2642 34.6731 34.5053 35.4056L33.3853 37.3563C33.3059 37.6738 33.2652 37.9997 33.2639 38.327H33.6653C33.7315 37.3994 34.1467 36.5313 34.8273 35.8976C35.5079 35.2638 36.4033 34.9115 37.3333 34.9115C38.2632 34.9115 39.1586 35.2638 39.8392 35.8976C40.5198 36.5313 40.935 37.3994 41.0012 38.327H41.4026C41.4018 37.9966 41.3611 37.6676 41.2812 37.347L40.1612 35.4056C39.4023 34.6731 38.388 34.2648 37.3333 34.267Z" fill="#FF6600"/>
<path d="M37.3332 34.3417C36.7693 34.3402 36.2115 34.4584 35.6966 34.6885C35.1818 34.9185 34.7216 35.2552 34.3466 35.6764L33.5346 37.0764C33.4052 37.4836 33.3422 37.9091 33.3479 38.3364H33.6559C33.7034 37.3943 34.1111 36.5066 34.7946 35.8566C35.4782 35.2067 36.3853 34.8442 37.3286 34.8442C38.2718 34.8442 39.179 35.2067 39.8625 35.8566C40.5461 36.5066 40.9537 37.3943 41.0012 38.3364H41.3279C41.3279 37.8977 41.2532 37.4777 41.1319 37.0857L40.3106 35.6764C39.9369 35.256 39.4783 34.9196 38.9651 34.6895C38.4519 34.4595 37.8957 34.3409 37.3332 34.3417Z" fill="#FFFF00"/>
<path d="M37.3332 34.4163C36.6895 34.416 36.0556 34.5742 35.4875 34.8769C34.9193 35.1797 34.4346 35.6177 34.0759 36.1523L33.8146 36.6096C33.5501 37.1468 33.4127 37.7376 33.4132 38.3363H33.6652C33.7314 37.4087 34.1466 36.5406 34.8272 35.9069C35.5078 35.2732 36.4033 34.9208 37.3332 34.9208C38.2632 34.9208 39.1586 35.2732 39.8392 35.9069C40.5198 36.5406 40.935 37.4087 41.0012 38.3363H41.2532C41.2537 37.7376 41.1164 37.1468 40.8519 36.6096L40.5906 36.143C40.2319 35.6084 39.7471 35.1704 39.179 34.8676C38.6109 34.5648 37.977 34.4066 37.3332 34.407V34.4163Z" fill="#00FF00"/>
<path d="M37.3333 34.4817C36.8275 34.4817 36.3267 34.5815 35.8595 34.7753C35.3924 34.9691 34.9681 35.2532 34.6109 35.6113C34.2537 35.9693 33.9706 36.3943 33.7779 36.8619C33.5852 37.3296 33.4867 37.8306 33.4879 38.3364H33.6653C33.7315 37.4088 34.1467 36.5407 34.8273 35.9069C35.5079 35.2732 36.4033 34.9209 37.3333 34.9209C38.2632 34.9209 39.1586 35.2732 39.8392 35.9069C40.5198 36.5407 40.935 37.4088 41.0013 38.3364H41.1786C41.1798 37.8306 41.0813 37.3296 40.8886 36.8619C40.6959 36.3943 40.4128 35.9693 40.0556 35.6113C39.6984 35.2532 39.2741 34.9691 38.807 34.7753C38.3398 34.5815 37.839 34.4817 37.3333 34.4817Z" fill="#00CCFF"/>
<path d="M37.3333 34.5564C36.3332 34.5564 35.3741 34.9537 34.667 35.6608C33.9599 36.3679 33.5626 37.327 33.5626 38.3271H33.6933C33.6933 37.3617 34.0768 36.4358 34.7594 35.7532C35.442 35.0706 36.3679 34.6871 37.3333 34.6871C38.2986 34.6871 39.2245 35.0706 39.9071 35.7532C40.5898 36.4358 40.9733 37.3617 40.9733 38.3271H41.1039C41.099 37.3303 40.6995 36.376 39.9929 35.6729C39.2863 34.9698 38.3301 34.5751 37.3333 34.5751V34.5564Z" fill="#0000FF"/>
<path d="M37.3332 34.6403C36.8423 34.6402 36.3563 34.738 35.9036 34.9278C35.4508 35.1176 35.0405 35.3957 34.6964 35.7458C34.3523 36.096 34.0814 36.5112 33.8996 36.9672C33.7177 37.4232 33.6285 37.9108 33.6372 38.4016H33.7119V38.327C33.7218 37.3665 34.1128 36.4494 34.799 35.7772C35.4851 35.1051 36.4101 34.7331 37.3706 34.743C38.331 34.7529 39.2482 35.1439 39.9203 35.83C40.5924 36.5162 40.9645 37.4412 40.9546 38.4016H41.0292V38.327C41.0292 37.8416 40.9336 37.361 40.7479 36.9126C40.5621 36.4642 40.2899 36.0567 39.9467 35.7135C39.6035 35.3703 39.196 35.0981 38.7476 34.9123C38.2992 34.7266 37.8186 34.631 37.3332 34.631V34.6403Z" fill="#800080"/>
<path d="M37.3706 36.2644C37.3053 36.2644 37.2586 36.2177 37.2026 36.2084C37.1754 36.2324 37.155 36.2631 37.1435 36.2976C37.132 36.332 37.1299 36.3688 37.1373 36.4044C37.1653 36.4137 37.1653 36.4417 37.2213 36.4884C37.2773 36.535 37.2679 36.5537 37.2586 36.675C37.2586 36.7124 37.2679 36.815 37.3146 36.8244C37.3613 36.8337 37.4079 36.7964 37.4173 36.7124C37.4266 36.647 37.4546 36.6004 37.4826 36.563C37.5106 36.3857 37.4639 36.3204 37.3706 36.2644Z" fill="#510000"/>
<path d="M37.0719 35.835C37.0159 35.835 36.9226 35.9283 36.8853 35.8817C36.8666 35.8537 36.8573 35.7977 36.8853 35.751C36.9273 35.6582 36.9997 35.5825 37.0906 35.5363C37.3053 35.4057 37.4546 35.443 37.5573 35.6297C37.6599 35.7977 37.7626 35.9843 37.7719 36.1337C37.7719 36.1803 37.7999 36.2643 37.7533 36.311C37.6319 36.4417 37.3239 36.171 37.1466 36.2177C37.0906 36.227 37.0159 36.2737 36.9599 36.2363C36.9226 36.2083 36.9599 36.143 36.9879 36.115C37.0439 36.0683 37.1279 35.891 37.1186 35.8163C37.1186 35.779 37.1186 35.835 37.0719 35.835Z" fill="#FF0000"/>
<path d="M37.0532 35.751C36.9412 35.7883 36.9599 35.8443 36.9039 35.891C36.9225 35.9003 36.9785 35.919 37.0345 35.863C37.0532 35.8443 37.0812 35.835 37.0999 35.835L37.0345 35.9003C36.9791 35.946 36.9345 36.0033 36.9039 36.0683C36.8759 36.143 36.8665 36.227 36.8759 36.2363C36.8759 36.2363 36.9132 36.311 37.0159 36.3483C37.2025 36.423 37.2399 36.5817 37.4359 36.5817C37.5852 36.5817 37.5665 36.479 37.6879 36.4977C37.7812 36.5163 37.8465 36.4323 37.7439 36.3857C37.5775 36.353 37.4063 36.353 37.2399 36.3857C37.2025 36.0123 37.2399 36.143 37.2305 35.975C37.2212 35.8163 37.1652 35.807 37.2305 35.667C37.1839 35.7603 37.1185 35.7417 37.0439 35.7417L37.0532 35.751Z" fill="url(#paint0_linear_1_69278)"/>
<path d="M37.4266 35.4896L37.4173 35.5456L37.4453 35.639L37.4639 35.7323C37.4639 35.7603 37.5013 35.7696 37.5293 35.7883C37.5666 35.8163 37.5293 35.8816 37.5573 35.891C37.5759 35.891 37.6039 35.7976 37.6039 35.779V35.7136C37.5893 35.6851 37.5738 35.6571 37.5573 35.6296C37.5515 35.62 37.5453 35.6106 37.5386 35.6016C37.5179 35.5702 37.4927 35.5419 37.4639 35.5176C37.4549 35.511 37.4455 35.5048 37.4359 35.499L37.4173 35.4896H37.4266Z" fill="#FF2A2A"/>
<path d="M37.4546 36.199L37.2679 36.1337C37.1466 36.0963 37.0252 36.0217 36.9412 36.059C36.9132 36.0683 36.9132 36.0963 36.9039 36.143C36.9039 36.1897 36.8572 36.2643 36.9039 36.2363C36.9599 36.199 37.1279 36.311 37.1839 36.339C37.2119 36.3577 37.2772 36.395 37.2866 36.4323C37.3052 36.4883 37.2866 36.6003 37.2866 36.6563C37.2866 36.703 37.3052 36.8243 37.3519 36.843C37.4079 36.8523 37.4546 36.8057 37.4732 36.7217C37.5012 36.6377 37.5106 36.591 37.5479 36.5443C37.5852 36.4977 37.6226 36.4697 37.6692 36.4603C37.7252 36.4603 37.7999 36.507 37.7999 36.4417C37.7999 36.4043 37.7626 36.367 37.7812 36.311C37.7906 36.2643 37.7439 36.2737 37.6972 36.255L37.4452 36.199H37.4546Z" fill="url(#paint1_linear_1_69278)"/>
<path d="M37.1839 36.339C37.1466 36.3204 36.9692 36.199 36.9039 36.2457C36.8759 36.2457 36.8666 36.2457 36.8666 36.2177L36.8852 36.1337C36.8852 36.1057 36.9039 36.059 36.9319 36.0404C36.9972 35.9844 37.1466 36.087 37.2212 36.115L37.1839 36.339Z" fill="#910000"/>
<path d="M37.5013 36.5723C37.5853 36.423 37.6413 36.4417 37.7439 36.4417C37.7813 36.4417 37.7906 36.4137 37.7813 36.3763C37.7533 36.4323 37.6226 36.3763 37.5479 36.4043C37.4079 36.4697 37.4359 36.7497 37.3613 36.7777C37.4359 36.843 37.4639 36.619 37.5013 36.5723Z" fill="#FF3A3A"/>
<path d="M32.9558 38.0844L32.0224 39.699H42.6531L41.7198 38.0937H32.9651L32.9558 38.0844Z" fill="white"/>
<path d="M32.6385 39.3724C32.4918 39.3721 32.3452 39.3815 32.1998 39.4004L32.1531 39.4844C32.3771 39.4564 32.5918 39.419 32.8251 39.419C33.1238 39.419 33.4038 39.4937 33.7305 39.4937H34.1598C34.4865 39.4937 34.7571 39.419 35.0651 39.419C35.3731 39.419 35.6531 39.4937 35.9798 39.4937H36.4091C36.7358 39.4937 37.0065 39.419 37.3145 39.419C37.6225 39.419 37.9025 39.4937 38.2291 39.4937H38.6491C38.9758 39.4937 39.2558 39.419 39.5638 39.419C39.8718 39.419 40.1518 39.4937 40.4785 39.4937H40.8985C41.2251 39.4937 41.5051 39.419 41.8131 39.419C42.0558 39.419 42.2798 39.4657 42.5131 39.4844L42.4665 39.391C42.33 39.3769 42.1929 39.3706 42.0558 39.3724H41.6358C41.3091 39.3724 41.0291 39.4377 40.7211 39.447C40.4131 39.447 40.1331 39.3724 39.8065 39.3724H39.3865C39.0598 39.3724 38.7798 39.4377 38.4718 39.447C38.1638 39.447 37.8838 39.3724 37.5571 39.3724H37.1465C36.8198 39.3724 36.5398 39.4377 36.2318 39.447C35.9238 39.447 35.6438 39.3724 35.3171 39.3724H34.8971C34.5705 39.3724 34.2905 39.4377 33.9825 39.447C33.6745 39.447 33.4038 39.3724 33.0771 39.3724H32.6478H32.6385Z" fill="url(#paint2_linear_1_69278)"/>
<path d="M32.9651 38.075V38.0936H41.7104L41.7011 38.075H32.9651ZM32.9464 38.103L32.9371 38.131H41.7198L41.7104 38.103H32.9371H32.9464ZM32.9278 38.1403L32.9091 38.1683H41.7571L41.7384 38.1403H32.9278ZM32.8998 38.187L32.8718 38.2336H41.7944L41.7664 38.187H32.8998ZM32.8624 38.2523L32.8344 38.299H41.8318L41.8038 38.2523H32.8624ZM32.8251 38.3176L32.8064 38.355H41.8598L41.8411 38.3176H32.8251ZM32.7878 38.383L32.7691 38.4203H41.9064L41.8784 38.383H32.7878ZM32.7504 38.4483L32.7224 38.5043H41.9438L41.9158 38.4483H32.7598H32.7504Z" fill="url(#paint3_linear_1_69278)"/>
<path d="M33.3571 38.5229C33.6744 38.5883 33.7024 38.5229 33.7024 38.5229H33.3571ZM40.9638 38.5229C40.9638 38.5229 40.9918 38.5883 41.3091 38.5229H40.9638Z" fill="url(#paint4_linear_1_69278)"/>
<path d="M40.1891 37.095C40.0304 37.095 39.9838 37.179 39.9838 37.179C39.7318 38.1683 38.8824 39.167 37.8744 39.167H37.1278V40.175H42.8584L42.2798 39.1483C41.3744 39.0176 40.6371 38.0936 40.4038 37.179C40.4038 37.179 40.3478 37.095 40.1891 37.095Z" fill="url(#paint5_linear_1_69278)"/>
<path d="M40.1891 37.1417C40.1144 37.1417 40.0771 37.151 40.0491 37.1697L40.0211 37.1977C39.8811 37.7145 39.6112 38.1868 39.2371 38.5697C38.8637 38.9524 38.3971 39.2137 37.8744 39.2137H37.1557V40.1377H42.8397L42.3077 39.2044C41.8691 39.139 41.4677 38.9057 41.1504 38.5697C40.7763 38.1868 40.5063 37.7145 40.3664 37.1977L40.3384 37.1697C40.2925 37.1458 40.2405 37.136 40.1891 37.1417Z" fill="#97C924"/>
<path d="M40.1891 37.1417H40.2264V38.1497C40.2175 38.3617 40.1531 38.5677 40.0397 38.7471C39.9931 38.8964 39.9464 38.8404 39.8251 39.0177C39.6677 39.072 39.505 39.1095 39.3397 39.1297C39.1064 39.1671 38.5931 39.2044 38.3224 39.1391C38.6698 39.0328 38.9845 38.8401 39.2371 38.5791C39.3065 38.5048 39.3719 38.4269 39.4331 38.3457C39.5371 38.2164 39.6307 38.0791 39.7131 37.9351L39.8064 37.7484C39.8511 37.6601 39.8916 37.5698 39.9277 37.4777C39.9638 37.3861 39.9949 37.2926 40.0211 37.1977L40.0491 37.1697L40.1051 37.1511L40.1984 37.1417H40.1891Z" fill="#EDE71F"/>
<path d="M40.133 37.2723C40.0864 37.8323 39.9184 38.5043 39.5077 38.9337C39.3584 39.055 39.1624 39.1763 38.985 39.1483C39.6104 38.635 39.993 37.8417 40.1237 37.2723H40.133Z" fill="#C6CB24"/>
<path d="M39.6197 38.243C39.5264 38.495 39.1717 38.8684 38.7984 39.1764H38.5277C38.7611 39.1577 39.3024 38.7097 39.6197 38.243Z" fill="#9ECB34"/>
<path d="M37.5384 37.1884C37.7998 38.1684 38.6398 39.167 39.6478 39.167H40.4038V40.175H34.2624V39.167H35.0091C36.0171 39.167 36.8664 38.1684 37.1184 37.179C37.1184 37.179 37.1744 37.1044 37.3331 37.1044C37.4918 37.1044 37.5384 37.179 37.5384 37.179V37.1884Z" fill="url(#paint6_linear_1_69278)"/>
<path d="M37.3332 37.1416C37.4078 37.1416 37.4452 37.1603 37.4732 37.1696L37.5012 37.1976C37.6411 37.7144 37.911 38.1867 38.2852 38.5696C38.6585 38.9523 39.1252 39.2136 39.6478 39.2136H40.3665V40.1376H34.2998V39.2043H35.0185C35.5318 39.2043 36.0078 38.9523 36.3812 38.5696C36.7519 38.1857 37.0186 37.7134 37.1558 37.1976L37.1838 37.1696C37.2301 37.1467 37.2818 37.137 37.3332 37.1416Z" fill="#97C924"/>
<path d="M37.2678 37.1417C37.2585 37.1413 37.2492 37.1413 37.2398 37.1417L37.1838 37.1697L37.1558 37.1977C37.1299 37.2926 37.0987 37.3861 37.0625 37.4777C37.0296 37.5727 36.9922 37.6662 36.9505 37.7577C36.9213 37.8177 36.8901 37.8769 36.8572 37.935C36.7748 38.0791 36.6812 38.2164 36.5772 38.3457C36.5158 38.4237 36.4503 38.4984 36.3812 38.5697C36.1296 38.8341 35.8148 39.0301 35.4665 39.139C35.7278 39.2043 35.8398 39.139 36.0732 39.1017C36.2598 39.0737 36.4652 39.0457 36.6332 38.9897C36.7732 38.803 36.7265 38.8683 36.7732 38.719C36.8852 38.5137 37.0532 38.327 37.0905 38.0937C37.2398 37.8137 37.2678 37.291 37.2678 37.1417Z" fill="#EDE71F"/>
<path d="M37.2678 37.2723C37.2305 37.8323 37.0532 38.5043 36.6425 38.9337C36.4932 39.055 36.3065 39.1763 36.1198 39.1483C36.7545 38.635 37.1372 37.8417 37.2678 37.2723Z" fill="#C6CB24"/>
<path d="M36.7545 38.243C36.5516 38.61 36.2714 38.9285 35.9332 39.1764H35.6719C35.9052 39.1577 36.4372 38.7097 36.7545 38.243Z" fill="#9ECB34"/>
<path d="M37.4265 37.151L37.4732 37.1697L37.5105 37.1977C37.537 37.2925 37.5682 37.3859 37.6038 37.4777C37.6367 37.5727 37.674 37.6662 37.7158 37.7577L37.8092 37.935C37.8915 38.0791 37.9851 38.2164 38.0892 38.3457C38.1506 38.4237 38.216 38.4984 38.2852 38.5697C38.535 38.8446 38.8494 39.0531 39.1998 39.1763C38.5185 39.1763 38.2292 39.1203 37.9865 38.803C37.8101 38.6162 37.6763 38.3933 37.5945 38.1497C37.5478 37.963 37.4078 37.543 37.4172 37.151H37.4265Z" fill="#EDE71F"/>
<path d="M37.4732 37.2723C37.5105 37.8323 37.6785 38.3923 38.0892 38.8217C38.2385 38.9523 38.4252 39.0643 38.6119 39.0363C38.0255 38.611 37.6193 37.9818 37.4732 37.2723Z" fill="#C6CB24"/>
<path d="M35.9146 37.095C35.7466 37.095 35.6999 37.179 35.6999 37.179C35.4666 38.0936 34.5986 39.2603 33.6932 39.4003L33.2452 40.175H37.8186V39.1203C36.9972 38.8963 36.3346 38.0283 36.1199 37.179C36.1199 37.179 36.0732 37.1043 35.9052 37.1043L35.9146 37.095Z" fill="url(#paint7_linear_1_69278)"/>
<path d="M35.9145 37.1416C35.8398 37.1416 35.7931 37.1603 35.7651 37.1696L35.7371 37.1976C35.5802 37.7097 35.3232 38.1855 34.9811 38.5976C34.6638 38.999 34.0758 39.4003 33.6745 39.4376L33.2731 40.1376H37.7531V39.139C37.4162 39.0278 37.1117 38.8355 36.8665 38.579C36.4909 38.1934 36.2209 37.7177 36.0825 37.1976L36.0545 37.1696C36.0112 37.1479 35.9628 37.1383 35.9145 37.1416Z" fill="#97C924"/>
<path d="M35.7838 37.2723C35.7278 38.1123 35.2611 39.1857 34.7291 39.363C34.5518 39.4283 34.2531 39.447 34.1504 39.4563C34.562 39.2277 34.9208 38.9151 35.2038 38.5389C35.4868 38.1626 35.6876 37.7311 35.7931 37.2723H35.7838Z" fill="#93BC30"/>
<path d="M35.9144 37.1416H35.8678V38.1496C35.8678 38.3643 35.9518 38.5416 36.0544 38.747L36.0731 38.7936C36.1198 38.8963 36.1478 38.9336 36.2878 39.0456C36.6886 39.3317 37.1788 39.4642 37.6691 39.419C37.5665 39.335 37.4545 39.2603 37.3518 39.195L37.7718 39.1483C37.4258 39.0353 37.1143 38.8361 36.8665 38.5696C36.8213 38.5244 36.7778 38.4777 36.7358 38.4296L36.6798 38.355C36.5693 38.223 36.4695 38.0826 36.3811 37.935C36.348 37.8738 36.3169 37.8115 36.2878 37.7483C36.2305 37.6302 36.1807 37.5086 36.1385 37.3843C36.1177 37.3227 36.0991 37.2605 36.0825 37.1976L36.0544 37.1696C36.0368 37.1607 36.0179 37.1545 35.9985 37.151C35.9679 37.1435 35.9365 37.1404 35.9051 37.1416H35.9144Z" fill="#EDE71F"/>
<path d="M35.9704 37.2723C36.0171 37.8323 36.1851 38.5043 36.5958 38.9337C36.7451 39.055 36.9318 39.1763 37.1184 39.1483C36.5491 38.6584 36.1476 38.0023 35.9704 37.2723Z" fill="#CCD11E"/>
<path d="M36.3624 38.0563C36.6647 38.6476 37.1401 39.1327 37.7251 39.447H37.9584C37.5478 39.223 36.8851 38.9057 36.3718 38.047L36.3624 38.0563Z" fill="#9ECB34"/>
<path d="M42.6066 39.6803C42.5506 39.699 42.1959 39.6616 42.0092 39.6803L41.8879 39.7083H41.5799C41.2439 39.7083 40.9546 39.8016 40.6372 39.8016C40.3199 39.8016 40.0306 39.7083 39.7039 39.7083H39.3866C39.0506 39.7083 38.7612 39.8016 38.4439 39.8016C38.1266 39.8016 37.8372 39.7083 37.5106 39.7083H37.1932C36.8572 39.7083 36.5679 39.8016 36.2599 39.8016C35.9332 39.8016 35.6532 39.7083 35.3172 39.7083H34.9999C34.6639 39.7083 34.3839 39.8016 34.0666 39.8016C33.7399 39.8016 33.4599 39.7083 33.1239 39.7083H32.8066C32.5452 39.7083 32.2279 39.7643 31.9759 39.783L31.3879 40.8003H43.2786L42.6066 39.6803Z" fill="white"/>
<path d="M41.8133 39.531H41.7573C41.4586 39.5403 41.2346 39.6337 40.7119 39.6337C40.1893 39.6337 40.1333 39.5403 39.5359 39.559C38.9759 39.559 38.7519 39.671 38.4439 39.671C38.1453 39.671 37.6599 39.6057 37.2773 39.643C36.9039 39.6803 36.4559 39.7643 36.1573 39.7643C35.7933 39.7643 35.4293 39.699 35.0559 39.7363C34.6733 39.7737 34.4959 39.8763 34.0199 39.8763C33.6093 39.8763 33.1799 39.811 32.8253 39.811C32.5079 39.811 32.1533 39.9043 31.8919 39.9417L31.8079 40.0817C32.0226 40.0537 32.6106 39.9603 32.8159 39.9603C33.0399 39.9603 33.8146 40.007 34.2439 39.9883C34.6826 39.979 34.7293 39.8763 35.2426 39.8763C35.5973 39.8763 35.8586 39.9137 36.2226 39.9137C36.4559 39.9137 36.6613 39.8017 37.0066 39.8017L37.2679 39.7923C37.5573 39.7457 38.0519 39.7923 38.3879 39.811C38.6959 39.8297 38.9013 39.755 39.2279 39.7457L39.6386 39.7363C39.9653 39.7177 40.2359 39.7923 40.5439 39.7923C40.8426 39.7737 41.1413 39.699 41.4586 39.699L41.8786 39.6803C42.0933 39.6803 42.4293 39.6803 42.6533 39.727L42.5786 39.5963C42.3546 39.587 42.0839 39.531 41.8133 39.531Z" fill="url(#paint8_linear_1_69278)"/>
<path d="M32.6946 40.623C32.3773 40.623 32.0973 40.6976 31.7986 40.707C31.6862 40.704 31.574 40.6947 31.4626 40.679L31.4159 40.7536H31.9759C32.3026 40.7536 32.5733 40.679 32.8719 40.6696C33.1799 40.679 33.4506 40.763 33.7773 40.763H34.1973C34.5146 40.763 34.7946 40.679 35.0933 40.6696C35.4013 40.679 35.6813 40.763 35.9986 40.763H36.4186C36.7453 40.763 37.0159 40.679 37.3239 40.6696C37.6226 40.679 37.8933 40.763 38.2199 40.763H38.6399C38.9573 40.763 39.2373 40.679 39.5453 40.6696C39.8439 40.679 40.1239 40.763 40.4413 40.763H40.8613C41.1879 40.763 41.4586 40.679 41.7573 40.6696C42.0653 40.679 42.3359 40.763 42.6626 40.763H43.0826L43.2506 40.7536L43.2039 40.679C43.1106 40.6883 43.0079 40.707 42.9053 40.707C42.5973 40.707 42.3266 40.6136 41.9999 40.6136H41.5799C41.2626 40.6136 40.9826 40.707 40.6839 40.707C40.3759 40.6976 40.1053 40.6136 39.7786 40.6136H39.3586C39.0413 40.6136 38.7613 40.707 38.4626 40.707C38.1546 40.6976 37.8839 40.6136 37.5573 40.6136H37.1373C36.8106 40.6136 36.5399 40.707 36.2413 40.707C35.9333 40.6976 35.6626 40.6136 35.3359 40.6136H34.9159C34.5986 40.6136 34.3186 40.707 34.0199 40.707C33.7119 40.6976 33.4413 40.6136 33.1146 40.6136H32.6946V40.623Z" fill="url(#paint9_linear_1_69278)"/>
<path d="M32.0973 39.6804L31.8639 40.0724C32.1346 40.0257 32.5266 39.9137 32.8626 39.9137C33.1986 39.9137 33.6093 39.9977 34.0199 40.007C34.4866 40.007 34.6733 39.895 35.0466 39.8577C35.4293 39.8204 35.7933 39.9044 36.1666 39.9137C36.4559 39.9137 36.9039 39.811 37.2866 39.7737C37.6599 39.727 38.0053 39.8017 38.4533 39.8017C38.9106 39.811 38.9852 39.6897 39.5359 39.6804C40.1333 39.671 40.1893 39.7644 40.7119 39.7644C41.1039 39.783 41.4493 39.6804 41.8039 39.6617C42.1586 39.6337 42.3173 39.6617 42.5786 39.6617L42.4013 39.363L32.9466 39.5777L32.0973 39.6804Z" fill="#97C924"/>
<path d="M41.9999 39.671L42.3732 39.699C42.4633 39.7098 42.5535 39.7191 42.6439 39.727L42.6066 39.6804C42.5506 39.699 42.1959 39.6617 42.0092 39.6804L41.9999 39.671Z" fill="white"/>
<path d="M37.3333 30.3633L34.3349 35.5549L31.2666 40.8749H43.3999L40.4016 35.6716L37.3333 30.3749V30.3633ZM37.3333 30.6433L40.2733 35.7416L43.1549 40.7349H31.5116L34.4516 35.6249L37.3333 30.6433Z" fill="#C8A400"/>
</g>
<defs>
<linearGradient id="paint0_linear_1_69278" x1="37.2119" y1="36.3577" x2="37.3892" y2="35.8257" gradientUnits="userSpaceOnUse">
<stop stop-color="#510000"/>
<stop offset="0.3" stop-color="#8A0000"/>
<stop offset="1" stop-color="#AA0000"/>
</linearGradient>
<linearGradient id="paint1_linear_1_69278" x1="37.4639" y1="36.5723" x2="37.6039" y2="36.199" gradientUnits="userSpaceOnUse">
<stop stop-color="#FF2A2A"/>
<stop offset="1" stop-color="#FF0000"/>
</linearGradient>
<linearGradient id="paint2_linear_1_69278" x1="32.1531" y1="39.0083" x2="49.8771" y2="39.0083" gradientUnits="userSpaceOnUse">
<stop stop-color="#002255"/>
<stop offset="0.5" stop-color="#0044AA"/>
<stop offset="1" stop-color="#002255"/>
</linearGradient>
<linearGradient id="paint3_linear_1_69278" x1="32.1531" y1="39.0083" x2="49.8771" y2="39.0083" gradientUnits="userSpaceOnUse">
<stop stop-color="#002255"/>
<stop offset="0.5" stop-color="#0044AA"/>
<stop offset="1" stop-color="#002255"/>
</linearGradient>
<linearGradient id="paint4_linear_1_69278" x1="32.1531" y1="39.0083" x2="49.8771" y2="39.0083" gradientUnits="userSpaceOnUse">
<stop stop-color="#002255"/>
<stop offset="0.5" stop-color="#0044AA"/>
<stop offset="1" stop-color="#002255"/>
</linearGradient>
<linearGradient id="paint5_linear_1_69278" x1="35.9144" y1="38.467" x2="35.9144" y2="39.0176" gradientUnits="userSpaceOnUse">
<stop stop-color="#F5F549"/>
<stop offset="1" stop-color="#97C924"/>
</linearGradient>
<linearGradient id="paint6_linear_1_69278" x1="35.9144" y1="38.467" x2="35.9144" y2="39.0177" gradientUnits="userSpaceOnUse">
<stop stop-color="#F5F549"/>
<stop offset="1" stop-color="#97C924"/>
</linearGradient>
<linearGradient id="paint7_linear_1_69278" x1="35.9146" y1="38.467" x2="35.9146" y2="39.0176" gradientUnits="userSpaceOnUse">
<stop stop-color="#F5F549"/>
<stop offset="1" stop-color="#97C924"/>
</linearGradient>
<linearGradient id="paint8_linear_1_69278" x1="31.8091" y1="39.5332" x2="42.6667" y2="39.5332" gradientUnits="userSpaceOnUse">
<stop stop-color="#002255"/>
<stop offset="0.5" stop-color="#0044AA"/>
<stop offset="1" stop-color="#002255"/>
</linearGradient>
<linearGradient id="paint9_linear_1_69278" x1="31.4572" y1="40.6174" x2="43.209" y2="40.6174" gradientUnits="userSpaceOnUse">
<stop stop-color="#002255"/>
<stop offset="0.5" stop-color="#0044AA"/>
<stop offset="1" stop-color="#002255"/>
</linearGradient>
<clipPath id="clip0_1_69278">
<rect width="74.6667" height="56" fill="white" transform="translate(0 9.375)"/>
</clipPath>
</defs>
</svg>
