<svg width="75" height="75" viewBox="0 0 75 75" fill="none" xmlns="http://www.w3.org/2000/svg">
<rect width="74.6667" height="74.75" fill="white"/>
<g clip-path="url(#clip0_1_69516)">
<path d="M0 9.375H74.6667V65.375H0V9.375Z" fill="white"/>
<path fill-rule="evenodd" clip-rule="evenodd" d="M0.711029 64.6641H42.1423L15.0282 37.1672L43.1704 37.2L0.721967 10.0859V64.6641H0.711029Z" fill="#CE0000" stroke="#000063" stroke-width="1.50937"/>
<path fill-rule="evenodd" clip-rule="evenodd" d="M19.7642 50.0406L16.8111 51.025L19.1299 53.1906L16.0127 52.9937L17.2924 55.8594L14.5033 54.5141L14.558 57.6422L12.5017 55.3562L11.3314 58.2656L10.3252 55.3891L8.10487 57.6422L8.30175 54.6125L5.35956 55.8594L6.73768 53.125L3.533 53.1906L5.88456 51.1891L2.89862 50.0406L5.85175 49.0562L3.52206 46.8906L6.62831 47.0875L5.35956 44.2219L8.15956 45.5672L8.10487 42.4391L10.1611 44.725L11.3314 41.8156L12.3267 44.6922L14.558 42.4391L14.3502 45.4688L17.3033 44.2219L15.9142 46.9563L19.1299 46.8906L16.7783 48.8922L19.7642 50.0406ZM16.2205 29.8391L14.9846 30.7578L15.5971 31.2609C17.0344 30.2569 18.1904 28.9013 18.9549 27.3234C19.1517 29.6531 17.0189 34.8703 11.4408 34.925C10.4213 34.938 9.40923 34.749 8.46313 34.3688C7.51702 33.9886 6.65558 33.4248 5.92851 32.71C5.20145 31.9951 4.62316 31.1433 4.22703 30.2038C3.83089 29.2642 3.62475 28.2556 3.6205 27.2359C4.71425 29.2266 5.39237 30.1891 7.1205 31.2281L7.63456 30.7469L6.47518 29.7734L7.97362 29.3797L7.16425 28.0234L8.73925 28.1328L8.54237 26.5578L9.9205 27.3672L10.358 25.8906L11.3424 27.0719L12.2721 25.9453L12.7752 27.4766L14.0658 26.5797L13.9017 28.1438L15.4549 27.9578L14.7221 29.4016L16.2205 29.8391Z" fill="white"/>
</g>
<defs>
<clipPath id="clip0_1_69516">
<rect width="74.6667" height="56" fill="white" transform="translate(0 9.375)"/>
</clipPath>
</defs>
</svg>
