<svg width="75" height="75" viewBox="0 0 75 75" fill="none" xmlns="http://www.w3.org/2000/svg">
<rect width="74.6667" height="74.75" fill="white"/>
<g clip-path="url(#clip0_1_69359)">
<path fill-rule="evenodd" clip-rule="evenodd" d="M-9.32748 9.375H102.673V65.375H-9.32748V9.375Z" fill="#002170"/>
<path fill-rule="evenodd" clip-rule="evenodd" d="M-9.32758 34.9797H102.672V39.7813H-9.32758V34.9797Z" fill="#FFB20D"/>
<path fill-rule="evenodd" clip-rule="evenodd" d="M23.6818 57.2813L20.0724 53.6719L18.924 58.6375L17.6115 53.7157L14.1224 57.4344L15.4459 52.5125L10.5787 53.9891L14.188 50.3797L9.22241 49.2204L14.1443 47.9079L10.4255 44.4297L15.3474 45.7422L13.8599 40.875L17.4693 44.4844L18.6287 39.5188L19.9412 44.4407L23.4193 40.7219L22.1068 45.6438L26.974 44.1672L23.3646 47.7766L28.3302 48.925L23.4083 50.2375L27.1271 53.7375L22.2052 52.4032L23.6818 57.2813Z" fill="white"/>
</g>
<defs>
<clipPath id="clip0_1_69359">
<rect width="74.6667" height="56" fill="white" transform="translate(0 9.375)"/>
</clipPath>
</defs>
</svg>
