<svg width="75" height="75" viewBox="0 0 75 75" fill="none" xmlns="http://www.w3.org/2000/svg">
<rect width="74.6667" height="74.75" fill="white"/>
<g clip-path="url(#clip0_1_70271)">
<path fill-rule="evenodd" clip-rule="evenodd" d="M0 9.375H74.6667V65.375H0V9.375Z" fill="#00247D"/>
<path d="M0 9.375H37.3333V37.375H0V9.375Z" fill="#012169"/>
<path d="M4.375 9.375L18.6083 19.9333L32.7833 9.375H37.3333V12.9917L23.3333 23.4333L37.3333 33.8167V37.375H32.6667L18.6667 26.9333L4.725 37.375H0V33.875L13.9417 23.4917L0 13.1083V9.375H4.375Z" fill="white"/>
<path d="M24.7333 25.7667L37.3333 35.0417V37.375L21.525 25.7667H24.7333ZM14 26.9333L14.35 28.975L3.15 37.375H0L14 26.9333ZM37.3333 9.375V9.55L22.8083 20.5167L22.925 17.95L34.4167 9.375H37.3333ZM0 9.375L13.9417 19.6417H10.4417L0 11.825V9.375Z" fill="#C8102E"/>
<path d="M14.0583 9.375V37.375H23.3917V9.375H14.0583ZM0 18.7083V28.0417H37.3333V18.7083H0Z" fill="white"/>
<path d="M0 20.6333V26.2333H37.3333V20.6333H0ZM15.925 9.375V37.375H21.525V9.375H15.925Z" fill="#C8102E"/>
</g>
<defs>
<clipPath id="clip0_1_70271">
<rect width="74.6667" height="56" fill="white" transform="translate(0 9.375)"/>
</clipPath>
</defs>
</svg>
