<svg width="75" height="75" viewBox="0 0 75 75" fill="none" xmlns="http://www.w3.org/2000/svg">
<rect width="74.6667" height="74.75" fill="white"/>
<g clip-path="url(#clip0_1_70256)">
<path fill-rule="evenodd" clip-rule="evenodd" d="M-0.38501 6.85498H81.55V71.3717H-0.38501V6.85498Z" fill="#EF2D29"/>
<path fill-rule="evenodd" clip-rule="evenodd" d="M20.37 46.3933H82.8683V70.625H20.37V46.3933Z" fill="#009025"/>
<path fill-rule="evenodd" clip-rule="evenodd" d="M20.37 5.245H86.275V27.4117H20.3583L20.37 5.245Z" fill="white"/>
<path d="M16.3333 17.4937H13.6565C13.512 17.4937 13.3948 17.603 13.3948 17.7379V19.009C13.3948 19.1439 13.512 19.2533 13.6565 19.2533H16.3333C16.4778 19.2533 16.595 19.1439 16.595 19.009V17.7379C16.595 17.603 16.4778 17.4937 16.3333 17.4937Z" fill="white" stroke="#EF2D28" stroke-width="0.030652"/>
<path d="M16.2663 17.5682H13.726C13.5892 17.5682 13.4783 17.6693 13.4783 17.7939V18.9573C13.4783 19.0819 13.5892 19.1829 13.726 19.1829H16.2663C16.4031 19.1829 16.514 19.0819 16.514 18.9573V17.7939C16.514 17.6693 16.4031 17.5682 16.2663 17.5682Z" fill="white" stroke="#EF2D28" stroke-width="0.0284626"/>
<path fill-rule="evenodd" clip-rule="evenodd" d="M14.8901 18.0059L15.0431 18.0119L15.0494 18.0822L15.1756 18.1464L15.2733 18.0652L15.3916 18.1294L15.2812 18.1997L15.308 18.2966L15.4468 18.2905V18.4177L15.3364 18.4129L15.2797 18.4929L15.4058 18.5837L15.308 18.6588L15.2024 18.5789L15.0494 18.6104L15.0573 18.7279L14.8901 18.74L14.868 18.6261L14.7292 18.568L14.652 18.6479L14.5337 18.5886L14.6031 18.4977L14.5195 18.4396H14.4012L14.3949 18.2736L14.5132 18.2845L14.5968 18.1876L14.499 18.1125L14.6252 18.0277L14.7151 18.0967L14.868 18.0749L14.8901 18.0059Z" fill="white" stroke="#EF2D28" stroke-width="0.0179691"/>
<path d="M14.9336 18.4991C15.027 18.4991 15.1028 18.4347 15.1028 18.3552C15.1028 18.2757 15.027 18.2113 14.9336 18.2113C14.8401 18.2113 14.7644 18.2757 14.7644 18.3552C14.7644 18.4347 14.8401 18.4991 14.9336 18.4991Z" fill="white" stroke="#EF2D28" stroke-width="0.0193505"/>
<path fill-rule="evenodd" clip-rule="evenodd" d="M13.8881 17.6406L13.6404 17.8601L13.8881 17.6406ZM14.0526 17.6406L13.8048 17.8601L14.0526 17.6406ZM14.2146 17.6406L13.9692 17.8601L14.2146 17.6406ZM14.3791 17.6406L14.1336 17.8601L14.3791 17.6406ZM14.5435 17.6406L14.298 17.8601L14.5435 17.6406ZM14.7079 17.6406L14.4624 17.8601L14.7079 17.6406ZM14.8723 17.6406L14.6268 17.8601L14.8723 17.6406ZM15.0367 17.6406L14.7912 17.8601L15.0367 17.6406ZM15.2011 17.6406L14.9533 17.8601L15.2011 17.6406ZM15.3655 17.6406L15.1154 17.8601L15.3655 17.6406ZM15.5253 17.6406L15.2798 17.8601L15.5253 17.6406ZM15.6897 17.6406L15.4442 17.8601L15.6897 17.6406ZM15.0344 17.6406L14.7912 17.8601L15.0344 17.6406ZM15.8564 17.6406L15.611 17.8601L15.8564 17.6406ZM16.0208 17.6406L15.7754 17.8601L16.0208 17.6406ZM16.1852 17.6406L15.9398 17.8601L16.1852 17.6406ZM16.3496 17.6406L16.1042 17.8601L16.3496 17.6406ZM16.1042 17.6406L16.3496 17.8601L16.1042 17.6406ZM15.9398 17.6406L16.1852 17.8601L15.9398 17.6406ZM15.7754 17.6406L16.0208 17.8601L15.7754 17.6406ZM15.611 17.6406L15.8564 17.8601L15.611 17.6406ZM15.4465 17.6406L15.692 17.8601L15.4465 17.6406ZM15.2821 17.6406L15.5276 17.8601L15.2821 17.6406ZM15.1177 17.6406L15.3655 17.8601L15.1177 17.6406ZM14.9533 17.6406L15.1988 17.8601L14.9533 17.6406ZM14.7866 17.6406L15.0344 17.8601L14.7866 17.6406ZM14.6245 17.6406L14.87 17.8601L14.6245 17.6406ZM14.4601 17.6406L14.7056 17.8601L14.4601 17.6406ZM14.2957 17.6406L14.5411 17.8601L14.2957 17.6406ZM14.9533 17.6406L15.1988 17.8601L14.9533 17.6406ZM14.1336 17.6406L14.3767 17.8601L14.1336 17.6406ZM13.9669 17.6406L14.2146 17.8601L13.9669 17.6406ZM13.8025 17.6406L14.0502 17.8601L13.8025 17.6406ZM13.6381 17.6406L13.8881 17.8601L13.6381 17.6406ZM13.8881 18.8868L13.6427 19.1084L13.8881 18.8868ZM14.0502 18.8868L13.8025 19.1084L14.0502 18.8868ZM14.217 18.8868L13.9692 19.1084L14.217 18.8868ZM14.3791 18.8868L14.1336 19.1084L14.3791 18.8868ZM14.5435 18.8868L14.298 19.1084L14.5435 18.8868ZM14.7079 18.8868L14.4624 19.1084L14.7079 18.8868ZM14.8723 18.8868L14.6291 19.1084L14.8723 18.8868ZM15.0367 18.8868L14.7912 19.1084L15.0367 18.8868ZM15.2011 18.8868L14.9533 19.1084L15.2011 18.8868ZM15.3632 18.8868L15.1154 19.1084L15.3632 18.8868ZM15.5322 18.8868L15.2845 19.1084L15.5322 18.8868ZM15.6943 18.8868L15.4489 19.1084L15.6943 18.8868ZM15.0367 18.8868L14.7912 19.1084L15.0367 18.8868ZM15.8564 18.8868L15.611 19.1084L15.8564 18.8868ZM16.0208 18.8868L15.7754 19.1084L16.0208 18.8868ZM16.1852 18.8868L15.9398 19.1084L16.1852 18.8868ZM16.3496 18.8868L16.1042 19.1084L16.3496 18.8868ZM16.1042 18.8868L16.3496 19.1084L16.1042 18.8868ZM15.9398 18.8868L16.1852 19.1084L15.9398 18.8868ZM15.7754 18.8868L16.0208 19.1084L15.7754 18.8868ZM15.611 18.8868L15.8564 19.1084L15.611 18.8868ZM15.4465 18.8868L15.692 19.1084L15.4465 18.8868ZM15.2821 18.8868L15.5299 19.1084L15.2821 18.8868ZM15.1154 18.8868L15.3632 19.1084L15.1154 18.8868ZM14.9533 18.8868L15.1988 19.1084L14.9533 18.8868ZM14.7912 18.8868L15.0367 19.1084L14.7912 18.8868ZM14.6268 18.8868L14.8723 19.1084L14.6268 18.8868ZM14.4624 18.8868L14.7079 19.1084L14.4624 18.8868ZM14.298 18.8868L14.5435 19.1084L14.298 18.8868ZM14.9556 18.8868L15.2011 19.1084L14.9556 18.8868ZM14.1359 18.8868L14.3791 19.1084L14.1359 18.8868ZM13.9692 18.8868L14.217 19.1084L13.9692 18.8868ZM13.8048 18.8868L14.0526 19.1084L13.8048 18.8868ZM13.6427 18.8868L13.8881 19.1084L13.6427 18.8868Z" fill="white"/>
<path d="M13.8881 17.6406L13.6404 17.8601M14.0526 17.6406L13.8048 17.8601M14.2146 17.6406L13.9692 17.8601M14.3791 17.6406L14.1336 17.8601M14.5435 17.6406L14.298 17.8601M14.7079 17.6406L14.4624 17.8601M14.8723 17.6406L14.6268 17.8601M15.0367 17.6406L14.7912 17.8601M15.2011 17.6406L14.9533 17.8601M15.3655 17.6406L15.1154 17.8601M15.5253 17.6406L15.2798 17.8601M15.6897 17.6406L15.4442 17.8601M15.0344 17.6406L14.7912 17.8601M15.8564 17.6406L15.611 17.8601M16.0208 17.6406L15.7754 17.8601M16.1852 17.6406L15.9398 17.8601M16.3496 17.6406L16.1042 17.8601M16.1042 17.6406L16.3496 17.8601M15.9398 17.6406L16.1852 17.8601M15.7754 17.6406L16.0208 17.8601M15.611 17.6406L15.8564 17.8601M15.4465 17.6406L15.692 17.8601M15.2821 17.6406L15.5276 17.8601M15.1177 17.6406L15.3655 17.8601M14.9533 17.6406L15.1988 17.8601M14.7866 17.6406L15.0344 17.8601M14.6245 17.6406L14.87 17.8601M14.4601 17.6406L14.7056 17.8601M14.2957 17.6406L14.5411 17.8601M14.9533 17.6406L15.1988 17.8601M14.1336 17.6406L14.3767 17.8601M13.9669 17.6406L14.2146 17.8601M13.8025 17.6406L14.0502 17.8601M13.6381 17.6406L13.8881 17.8601M13.8881 18.8868L13.6427 19.1084M14.0502 18.8868L13.8025 19.1084M14.217 18.8868L13.9692 19.1084M14.3791 18.8868L14.1336 19.1084M14.5435 18.8868L14.298 19.1084M14.7079 18.8868L14.4624 19.1084M14.8723 18.8868L14.6291 19.1084M15.0367 18.8868L14.7912 19.1084M15.2011 18.8868L14.9533 19.1084M15.3632 18.8868L15.1154 19.1084M15.5322 18.8868L15.2845 19.1084M15.6943 18.8868L15.4489 19.1084M15.0367 18.8868L14.7912 19.1084M15.8564 18.8868L15.611 19.1084M16.0208 18.8868L15.7754 19.1084M16.1852 18.8868L15.9398 19.1084M16.3496 18.8868L16.1042 19.1084M16.1042 18.8868L16.3496 19.1084M15.9398 18.8868L16.1852 19.1084M15.7754 18.8868L16.0208 19.1084M15.611 18.8868L15.8564 19.1084M15.4465 18.8868L15.692 19.1084M15.2821 18.8868L15.5299 19.1084M15.1154 18.8868L15.3632 19.1084M14.9533 18.8868L15.1988 19.1084M14.7912 18.8868L15.0367 19.1084M14.6268 18.8868L14.8723 19.1084M14.4624 18.8868L14.7079 19.1084M14.298 18.8868L14.5435 19.1084M14.9556 18.8868L15.2011 19.1084M14.1359 18.8868L14.3791 19.1084M13.9692 18.8868L14.217 19.1084M13.8048 18.8868L14.0526 19.1084M13.6427 18.8868L13.8881 19.1084" stroke="#EF2D28" stroke-width="0.0284626"/>
<path d="M5.57668 17.4237H2.89985C2.75533 17.4237 2.63818 17.5331 2.63818 17.668V18.939C2.63818 19.074 2.75533 19.1833 2.89985 19.1833H5.57668C5.72119 19.1833 5.83834 19.074 5.83834 18.939V17.668C5.83834 17.5331 5.72119 17.4237 5.57668 17.4237Z" fill="white" stroke="#EF2D28" stroke-width="0.030652"/>
<path d="M5.50954 17.4982H2.96933C2.83249 17.4982 2.72156 17.5992 2.72156 17.7238V18.8872C2.72156 19.0118 2.83249 19.1129 2.96933 19.1129H5.50954C5.64638 19.1129 5.75731 19.0118 5.75731 18.8872V17.7238C5.75731 17.5992 5.64638 17.4982 5.50954 17.4982Z" fill="white" stroke="#EF2D28" stroke-width="0.0284626"/>
<path fill-rule="evenodd" clip-rule="evenodd" d="M4.1334 17.9358L4.28638 17.9418L4.29268 18.0121L4.41885 18.0763L4.51663 17.9952L4.63492 18.0594L4.52452 18.1296L4.55133 18.2265L4.69012 18.2205V18.3477L4.57972 18.3428L4.52294 18.4228L4.64911 18.5136L4.55133 18.5888L4.44566 18.5088L4.29268 18.5403L4.30057 18.6578L4.1334 18.6699L4.11132 18.556L3.97253 18.4979L3.89525 18.5779L3.77697 18.5185L3.84636 18.4276L3.76278 18.3695H3.64449L3.63818 18.2035L3.75647 18.2144L3.84005 18.1175L3.74227 18.0424L3.86844 17.9576L3.95834 18.0266L4.11132 18.0048L4.1334 17.9358Z" fill="white" stroke="#EF2D28" stroke-width="0.0179691"/>
<path d="M4.17687 18.4291C4.2703 18.4291 4.34604 18.3646 4.34604 18.2852C4.34604 18.2057 4.2703 18.1412 4.17687 18.1412C4.08343 18.1412 4.00769 18.2057 4.00769 18.2852C4.00769 18.3646 4.08343 18.4291 4.17687 18.4291Z" fill="white" stroke="#EF2D28" stroke-width="0.0193505"/>
<path fill-rule="evenodd" clip-rule="evenodd" d="M3.13143 17.5707L2.88366 17.7901L3.13143 17.5707ZM3.29584 17.5707L3.04807 17.7901L3.29584 17.5707ZM3.45793 17.5707L3.21248 17.7901L3.45793 17.5707ZM3.62234 17.5707L3.37689 17.7901L3.62234 17.5707ZM3.78675 17.5707L3.54129 17.7901L3.78675 17.5707ZM3.95115 17.5707L3.7057 17.7901L3.95115 17.5707ZM4.11556 17.5707L3.87011 17.7901L4.11556 17.5707ZM4.27997 17.5707L4.03452 17.7901L4.27997 17.5707ZM4.44438 17.5707L4.19661 17.7901L4.44438 17.5707ZM4.60879 17.5707L4.3587 17.7901L4.60879 17.5707ZM4.76856 17.5707L4.52311 17.7901L4.76856 17.5707ZM4.93297 17.5707L4.68752 17.7901L4.93297 17.5707ZM4.27765 17.5707L4.03452 17.7901L4.27765 17.5707ZM5.09969 17.5707L4.85424 17.7901L5.09969 17.5707ZM5.2641 17.5707L5.01865 17.7901L5.2641 17.5707ZM5.42851 17.5707L5.18305 17.7901L5.42851 17.5707ZM5.59292 17.5707L5.34746 17.7901L5.59292 17.5707ZM5.34746 17.5707L5.59292 17.7901L5.34746 17.5707ZM5.18305 17.5707L5.42851 17.7901L5.18305 17.5707ZM5.01865 17.5707L5.2641 17.7901L5.01865 17.5707ZM4.85424 17.5707L5.09969 17.7901L4.85424 17.5707ZM4.68983 17.5707L4.93528 17.7901L4.68983 17.5707ZM4.52542 17.5707L4.77088 17.7901L4.52542 17.5707ZM4.36102 17.5707L4.60879 17.7901L4.36102 17.5707ZM4.19661 17.5707L4.44206 17.7901L4.19661 17.5707ZM4.02989 17.5707L4.27765 17.7901L4.02989 17.5707ZM3.86779 17.5707L4.11325 17.7901L3.86779 17.5707ZM3.70339 17.5707L3.94884 17.7901L3.70339 17.5707ZM3.53898 17.5707L3.78443 17.7901L3.53898 17.5707ZM4.19661 17.5707L4.44206 17.7901L4.19661 17.5707ZM3.37689 17.5707L3.62002 17.7901L3.37689 17.5707ZM3.21016 17.5707L3.45793 17.7901L3.21016 17.5707ZM3.04576 17.5707L3.29352 17.7901L3.04576 17.5707ZM2.88135 17.5707L3.13143 17.7901L2.88135 17.5707ZM3.13143 18.8169L2.88598 19.0384L3.13143 18.8169ZM3.29352 18.8169L3.04576 19.0384L3.29352 18.8169ZM3.46025 18.8169L3.21248 19.0384L3.46025 18.8169ZM3.62234 18.8169L3.37689 19.0384L3.62234 18.8169ZM3.78675 18.8169L3.54129 19.0384L3.78675 18.8169ZM3.95115 18.8169L3.7057 19.0384L3.95115 18.8169ZM4.11556 18.8169L3.87242 19.0384L4.11556 18.8169ZM4.27997 18.8169L4.03452 19.0384L4.27997 18.8169ZM4.44438 18.8169L4.19661 19.0384L4.44438 18.8169ZM4.60647 18.8169L4.3587 19.0384L4.60647 18.8169ZM4.77551 18.8169L4.52774 19.0384L4.77551 18.8169ZM4.9376 18.8169L4.69215 19.0384L4.9376 18.8169ZM4.27997 18.8169L4.03452 19.0384L4.27997 18.8169ZM5.09969 18.8169L4.85424 19.0384L5.09969 18.8169ZM5.2641 18.8169L5.01865 19.0384L5.2641 18.8169ZM5.42851 18.8169L5.18305 19.0384L5.42851 18.8169ZM5.59292 18.8169L5.34746 19.0384L5.59292 18.8169ZM5.34746 18.8169L5.59292 19.0384L5.34746 18.8169ZM5.18305 18.8169L5.42851 19.0384L5.18305 18.8169ZM5.01865 18.8169L5.2641 19.0384L5.01865 18.8169ZM4.85424 18.8169L5.09969 19.0384L4.85424 18.8169ZM4.68983 18.8169L4.93528 19.0384L4.68983 18.8169ZM4.52542 18.8169L4.77319 19.0384L4.52542 18.8169ZM4.3587 18.8169L4.60647 19.0384L4.3587 18.8169ZM4.19661 18.8169L4.44206 19.0384L4.19661 18.8169ZM4.03452 18.8169L4.27997 19.0384L4.03452 18.8169ZM3.87011 18.8169L4.11556 19.0384L3.87011 18.8169ZM3.7057 18.8169L3.95115 19.0384L3.7057 18.8169ZM3.54129 18.8169L3.78675 19.0384L3.54129 18.8169ZM4.19892 18.8169L4.44438 19.0384L4.19892 18.8169ZM3.3792 18.8169L3.62234 19.0384L3.3792 18.8169ZM3.21248 18.8169L3.46025 19.0384L3.21248 18.8169ZM3.04807 18.8169L3.29584 19.0384L3.04807 18.8169ZM2.88598 18.8169L3.13143 19.0384L2.88598 18.8169Z" fill="white"/>
<path d="M3.13143 17.5707L2.88366 17.7901M3.29584 17.5707L3.04807 17.7901M3.45793 17.5707L3.21248 17.7901M3.62234 17.5707L3.37689 17.7901M3.78675 17.5707L3.54129 17.7901M3.95115 17.5707L3.7057 17.7901M4.11556 17.5707L3.87011 17.7901M4.27997 17.5707L4.03452 17.7901M4.44438 17.5707L4.19661 17.7901M4.60879 17.5707L4.3587 17.7901M4.76856 17.5707L4.52311 17.7901M4.93297 17.5707L4.68752 17.7901M4.27765 17.5707L4.03452 17.7901M5.09969 17.5707L4.85424 17.7901M5.2641 17.5707L5.01865 17.7901M5.42851 17.5707L5.18305 17.7901M5.59292 17.5707L5.34746 17.7901M5.34746 17.5707L5.59292 17.7901M5.18305 17.5707L5.42851 17.7901M5.01865 17.5707L5.2641 17.7901M4.85424 17.5707L5.09969 17.7901M4.68983 17.5707L4.93528 17.7901M4.52542 17.5707L4.77088 17.7901M4.36102 17.5707L4.60879 17.7901M4.19661 17.5707L4.44206 17.7901M4.02989 17.5707L4.27765 17.7901M3.86779 17.5707L4.11325 17.7901M3.70339 17.5707L3.94884 17.7901M3.53898 17.5707L3.78443 17.7901M4.19661 17.5707L4.44206 17.7901M3.37689 17.5707L3.62002 17.7901M3.21016 17.5707L3.45793 17.7901M3.04576 17.5707L3.29352 17.7901M2.88135 17.5707L3.13143 17.7901M3.13143 18.8169L2.88598 19.0384M3.29352 18.8169L3.04576 19.0384M3.46025 18.8169L3.21248 19.0384M3.62234 18.8169L3.37689 19.0384M3.78675 18.8169L3.54129 19.0384M3.95115 18.8169L3.7057 19.0384M4.11556 18.8169L3.87242 19.0384M4.27997 18.8169L4.03452 19.0384M4.44438 18.8169L4.19661 19.0384M4.60647 18.8169L4.3587 19.0384M4.77551 18.8169L4.52774 19.0384M4.9376 18.8169L4.69215 19.0384M4.27997 18.8169L4.03452 19.0384M5.09969 18.8169L4.85424 19.0384M5.2641 18.8169L5.01865 19.0384M5.42851 18.8169L5.18305 19.0384M5.59292 18.8169L5.34746 19.0384M5.34746 18.8169L5.59292 19.0384M5.18305 18.8169L5.42851 19.0384M5.01865 18.8169L5.2641 19.0384M4.85424 18.8169L5.09969 19.0384M4.68983 18.8169L4.93528 19.0384M4.52542 18.8169L4.77319 19.0384M4.3587 18.8169L4.60647 19.0384M4.19661 18.8169L4.44206 19.0384M4.03452 18.8169L4.27997 19.0384M3.87011 18.8169L4.11556 19.0384M3.7057 18.8169L3.95115 19.0384M3.54129 18.8169L3.78675 19.0384M4.19892 18.8169L4.44438 19.0384M3.3792 18.8169L3.62234 19.0384M3.21248 18.8169L3.46025 19.0384M3.04807 18.8169L3.29584 19.0384M2.88598 18.8169L3.13143 19.0384" stroke="#EF2D28" stroke-width="0.0284626"/>
<path fill-rule="evenodd" clip-rule="evenodd" d="M7.66213 21.1068C3.68035 25.012 1.98176 25.5053 2.78034 25.8205C3.57891 26.1357 6.14231 24.1198 8.80921 21.4445C11.4761 18.7693 13.1097 16.3864 12.3111 16.0712C11.5125 15.756 11.8983 16.957 7.66213 21.1068Z" fill="white" stroke="#EF2D28" stroke-width="0.047635"/>
<path fill-rule="evenodd" clip-rule="evenodd" d="M4.31542 23.9484L5.71173 24.3148C4.39879 25.5631 2.92143 26.0744 2.51157 25.855C2.10171 25.6355 3.25025 25.1221 4.31774 23.9504L4.31542 23.9484Z" fill="white" stroke="#EF2D28" stroke-width="0.0262732"/>
<path fill-rule="evenodd" clip-rule="evenodd" d="M4.3149 24.0938L5.46527 24.3864C4.18633 25.5867 2.92092 25.9271 2.59385 25.7798C2.26453 25.6344 3.27731 25.2224 4.3149 24.0938Z" fill="white" stroke="#EF2D28" stroke-width="0.0275465"/>
<path d="M8.59174 20.9402C8.58847 20.959 8.57869 21.043 8.57054 21.0763C8.57054 21.1227 8.56564 21.1574 8.56075 21.1936C8.54771 21.2255 8.54934 21.2545 8.5102 21.2661C8.49212 21.295 8.46331 21.3175 8.42866 21.3298C8.39732 21.3521 8.36277 21.3706 8.32592 21.3848C8.28737 21.3997 8.24434 21.4028 8.20361 21.3935C8.16774 21.3718 8.14164 21.3486 8.11229 21.3298C8.10577 21.3008 8.09924 21.2588 8.09109 21.2298C8.10383 21.2685 8.11095 21.3084 8.11229 21.3486C8.10903 21.3921 8.09109 21.4123 8.07152 21.4471" stroke="#EF2D28" stroke-width="0.0276629"/>
<path d="M8.22146 21.5464L8.21168 21.5377C8.23614 21.5594 8.22636 21.5493 8.17091 21.5189C8.13177 21.5015 8.08937 21.4928 8.03882 21.4841H7.89531C7.83986 21.4841 7.80236 21.4914 7.76322 21.5015C7.73386 21.5276 7.69146 21.5421 7.66048 21.5652C7.63294 21.5837 7.61199 21.6089 7.60014 21.6377C7.57242 21.6623 7.55448 21.6999 7.52839 21.7188C7.51697 21.7608 7.49414 21.7593 7.47783 21.7912C7.52676 21.7941 7.56426 21.7999 7.59036 21.8274C7.63276 21.8462 7.55448 21.8085 7.53817 21.7912C7.50556 21.7825 7.4974 21.7738 7.44685 21.7738C7.40119 21.7593 7.37183 21.7839 7.32454 21.7912C7.29682 21.8057 7.28866 21.81 7.25279 21.81" stroke="#EF2D28" stroke-width="0.0276629"/>
<path d="M7.67224 21.9971C7.65104 21.9971 7.55646 22.013 7.51895 21.9971C7.47655 21.987 7.45372 21.9681 7.42763 21.9334C7.41458 21.9087 7.42763 21.9768 7.42763 22.0058C7.42273 22.0594 7.4048 22.0594 7.37544 22.0956C7.34609 22.113 7.3151 22.1361 7.28412 22.1506C7.25694 22.1703 7.22601 22.1855 7.1928 22.1955C7.16018 22.21 7.12593 22.2216 7.10147 22.2404C7.06723 22.2621 7.06886 22.2882 7.04929 22.323C7.05418 22.3664 7.06233 22.3925 7.09006 22.4128C7.1031 22.4432 7.1292 22.4736 7.15203 22.4939C7.17649 22.5373 7.20584 22.5561 7.14224 22.5663C7.10637 22.5808 7.0868 22.5692 7.04929 22.5663" stroke="#EF2D28" stroke-width="0.0276629"/>
<path d="M7.02588 22.6281C6.99979 22.6224 6.91173 22.5963 6.87259 22.5833H6.72908C6.67526 22.5876 6.66385 22.6021 6.61819 22.6195C6.5872 22.647 6.56763 22.6658 6.52523 22.6832C6.50403 22.7078 6.46 22.7513 6.4437 22.7831C6.43027 22.8206 6.42367 22.8597 6.42413 22.899C6.42413 22.9526 6.44043 22.9627 6.4437 23.0091C6.45511 23.0489 6.47627 23.086 6.50566 23.1177C6.51056 23.1293 6.51382 23.1322 6.52523 23.1351" stroke="#EF2D28" stroke-width="0.0276629"/>
<path d="M6.54486 23.2532C6.54023 23.2532 6.53097 23.2761 6.51592 23.2955C6.48234 23.3298 6.47887 23.3321 6.42908 23.3321C6.38277 23.3298 6.38856 23.3138 6.35614 23.3035C6.34109 23.2807 6.32256 23.2624 6.3052 23.2315C6.29362 23.2132 6.2832 23.1846 6.27046 23.1675C6.25657 23.1458 6.24036 23.1298 6.22647 23.1103C6.21257 23.1046 6.20794 23.0989 6.18942 23.0955C6.2311 23.1023 6.23573 23.1172 6.26236 23.1389C6.27549 23.1596 6.28747 23.181 6.29825 23.2029C6.30288 23.2338 6.31214 23.2578 6.3133 23.2955C6.3133 23.3355 6.3133 23.363 6.29825 23.3961C6.28088 23.4133 6.2693 23.4316 6.24731 23.4464C6.22901 23.464 6.21235 23.4831 6.19752 23.5036L6.13153 23.5459C6.11069 23.5585 6.08637 23.571 6.0528 23.5745C6.00996 23.571 5.99722 23.5596 5.96596 23.5459C5.93817 23.5265 5.91733 23.5139 5.89302 23.4956C5.87307 23.4793 5.85587 23.46 5.84208 23.4384C5.80387 23.4293 5.7784 23.4327 5.75524 23.4533C5.7356 23.4668 5.71871 23.4839 5.70546 23.5036C5.69388 23.5093 5.67304 23.5265 5.66146 23.5322" stroke="#EF2D28" stroke-width="0.0264612"/>
<path d="M5.74476 23.5554C5.75628 23.5597 5.79946 23.5897 5.81673 23.5996C5.82825 23.6382 5.84696 23.6581 5.85272 23.6995C5.86279 23.7366 5.86279 23.7794 5.86279 23.8236C5.85272 23.8693 5.834 23.9021 5.81673 23.9378C5.78794 23.9578 5.77355 23.972 5.73612 23.992C5.70014 23.9977 5.66415 24.002 5.61953 24.002C5.59074 24.0105 5.53892 24.0148 5.51157 24.002C5.47127 23.9963 5.44104 23.9806 5.41225 23.9663C5.37914 23.9478 5.35899 23.9292 5.32301 23.9121C5.30429 23.8864 5.27694 23.8622 5.25103 23.8322C5.228 23.8022 5.21217 23.7851 5.19634 23.7523C5.21073 23.7894 5.22944 23.8236 5.24096 23.8593C5.26255 23.8964 5.27406 23.9107 5.27694 23.9563C5.29134 23.9934 5.28702 24.0391 5.28702 24.0819C5.2827 24.1104 5.28126 24.1646 5.26831 24.1889V24.216" stroke="#EF2D28" stroke-width="0.0272282"/>
<path d="M4.41729 24.3562V24.3707C4.41729 24.3355 4.41729 24.352 4.4335 24.4224C4.45897 24.4514 4.52612 24.4597 4.57706 24.4472C4.62338 24.4121 4.62338 24.3851 4.70674 24.3707C4.7901 24.3748 4.82252 24.3955 4.86883 24.4224C4.91808 24.4388 4.95915 24.4703 4.98461 24.5114C5.00082 24.5549 5.01008 24.5859 4.95451 24.6025C4.9061 24.6315 4.85041 24.6493 4.79242 24.6543C4.72758 24.6543 4.67895 24.648 4.64885 24.6812C4.60254 24.7226 4.60717 24.7474 4.60717 24.8219C4.59096 24.8447 4.58864 24.913 4.57706 24.9399C4.53721 24.9587 4.49235 24.9673 4.44739 24.9648C4.43118 24.9234 4.41497 24.853 4.40339 24.8095C4.39182 24.764 4.3895 24.6977 4.3594 24.6667C4.33285 24.631 4.29908 24.6001 4.25983 24.5756C4.23641 24.5519 4.20587 24.5346 4.17183 24.5259C4.22972 24.5508 4.23667 24.5797 4.24362 24.6418C4.19499 24.6625 4.1811 24.6791 4.10005 24.6812C4.01901 24.675 4.00048 24.6563 3.97038 24.6149C3.96343 24.6812 3.94028 24.7019 3.92407 24.7598C3.89628 24.7971 3.8847 24.8364 3.8546 24.8882C3.86618 24.9503 3.89396 24.9524 3.89628 25.029C3.9148 25.0807 3.9148 25.1283 3.95417 25.1594C3.97269 25.1801 3.98659 25.1821 4.02827 25.1842C3.94491 25.1842 3.89396 25.1759 3.83839 25.147C3.79671 25.1221 3.76429 25.0931 3.72261 25.0683C3.67037 25.0331 3.61157 25.0065 3.54894 24.9896C3.48179 24.9896 3.43316 24.9834 3.40537 25.0165C3.36369 25.0434 3.3359 25.089 3.31738 25.147C3.3058 25.2132 3.29885 25.2587 3.33359 25.3022C3.35674 25.3519 3.36369 25.3705 3.33359 25.4306C3.29885 25.472 3.25023 25.4782 3.1715 25.4947C3.11824 25.4927 3.06498 25.4823 3.02793 25.4699" stroke="#EF2D28" stroke-width="0.0262732"/>
<path fill-rule="evenodd" clip-rule="evenodd" d="M12.2099 17.5858C13.9757 14.5293 15.1468 11.9248 14.8275 11.7774C14.5049 11.6284 12.8104 13.9913 11.0445 17.0478L12.2099 17.5858Z" fill="white" stroke="#EF2D28" stroke-width="0.0361846"/>
<path fill-rule="evenodd" clip-rule="evenodd" d="M12.0932 17.5341C13.7968 14.5855 14.9699 12.0929 14.7145 11.975C14.4564 11.8558 12.8645 14.1551 11.161 17.1037" fill="white"/>
<path d="M12.0932 17.5341C13.7968 14.5855 14.9699 12.0929 14.7145 11.975C14.4564 11.8558 12.8645 14.1551 11.161 17.1037" stroke="#EF2D28" stroke-width="0.0317886"/>
<path fill-rule="evenodd" clip-rule="evenodd" d="M11.8007 15.9959C11.5932 16.3405 11.3735 16.7353 11.161 17.1032L12.0958 17.5349C12.3084 17.167 12.5413 16.7783 12.7355 16.4276L11.8007 15.9959Z" fill="white" stroke="#EF2D28" stroke-width="0.036078"/>
<path fill-rule="evenodd" clip-rule="evenodd" d="M11.882 16.115C11.6735 16.4614 11.5302 16.7238 11.3167 17.0935L12.0145 17.4158C12.2271 17.0479 12.3856 16.7879 12.5798 16.4372L11.882 16.115Z" fill="white" stroke="#EF2D28" stroke-width="0.036078"/>
<path fill-rule="evenodd" clip-rule="evenodd" d="M12.3892 16.5146L11.9217 16.2988L11.5073 17.0161L11.9747 17.232L12.3892 16.5146ZM12.3892 16.5146L11.5073 17.0161L12.3892 16.5146ZM11.9747 17.232L11.9217 16.2988L11.9747 17.232ZM14.4974 12.8655L14.0299 12.6496L14.4974 12.8655Z" fill="white"/>
<path d="M12.3892 16.5146L11.5073 17.0161M11.9747 17.232L11.9217 16.2988M14.4974 12.8655L14.0299 12.6496M12.3892 16.5146L11.9217 16.2988L11.5073 17.0161L11.9747 17.232L12.3892 16.5146Z" stroke="#EF2D28" stroke-width="0.036078"/>
<path d="M14.4946 12.526C14.4228 12.5442 14.3514 12.5077 14.3352 12.4445C14.319 12.3814 14.364 12.3154 14.4359 12.2973C14.5077 12.2791 14.5791 12.3156 14.5953 12.3788C14.6115 12.442 14.5664 12.5079 14.4946 12.526Z" fill="#EF0000" stroke="#EF2D28" stroke-width="0.0467473"/>
<path fill-rule="evenodd" clip-rule="evenodd" d="M11.5178 21.0368C15.4996 24.9419 17.1982 25.4352 16.3996 25.7504C15.601 26.0656 13.0376 24.0497 10.3707 21.3745C7.70382 18.6992 6.07023 16.3164 6.86881 16.0012C7.66739 15.686 7.28159 16.8869 11.5178 21.0368Z" fill="white" stroke="#EF2D28" stroke-width="0.047635"/>
<path fill-rule="evenodd" clip-rule="evenodd" d="M14.8646 23.8783L13.4683 24.2447C14.7812 25.493 16.2586 26.0043 16.6684 25.7849C17.0783 25.5655 15.9297 25.0521 14.8623 23.8804L14.8646 23.8783Z" fill="white" stroke="#EF2D28" stroke-width="0.0262732"/>
<path fill-rule="evenodd" clip-rule="evenodd" d="M14.865 24.0121L13.7147 24.3047C14.9936 25.505 16.259 25.8454 16.5861 25.6981C16.9154 25.5528 15.9026 25.1407 14.865 24.0121Z" fill="white" stroke="#EF2D28" stroke-width="0.0275465"/>
<path d="M10.5882 20.8584C10.5915 20.8772 10.6012 20.9612 10.6094 20.9945C10.6094 21.0409 10.6143 21.0756 10.6192 21.1119C10.6322 21.1437 10.6306 21.1727 10.6697 21.1843C10.6878 21.2132 10.7166 21.2357 10.7513 21.248C10.7826 21.2703 10.8172 21.2888 10.854 21.303C10.8926 21.3179 10.9356 21.321 10.9763 21.3117C11.0122 21.29 11.0383 21.2668 11.0676 21.248C11.0742 21.219 11.0807 21.177 11.0888 21.1481C11.0761 21.1867 11.069 21.2266 11.0676 21.2668C11.0709 21.3103 11.0888 21.3305 11.1084 21.3653" stroke="#EF2D28" stroke-width="0.0276629"/>
<path d="M10.9585 21.4647L10.9683 21.4561C10.9439 21.4778 10.9536 21.4676 11.0091 21.4372C11.0482 21.4198 11.0906 21.4112 11.1412 21.4025H11.2847C11.3401 21.4025 11.3776 21.4097 11.4168 21.4198C11.4461 21.4459 11.4885 21.4604 11.5195 21.4836C11.5471 21.5021 11.568 21.5272 11.5799 21.556C11.6076 21.5806 11.6255 21.6183 11.6516 21.6371C11.663 21.6791 11.6859 21.6776 11.7022 21.7095C11.6532 21.7124 11.6157 21.7182 11.5896 21.7457C11.5472 21.7645 11.6255 21.7269 11.6418 21.7095C11.6744 21.7008 11.6826 21.6921 11.7331 21.6921C11.7788 21.6776 11.8082 21.7023 11.8555 21.7095C11.8832 21.724 11.8913 21.7283 11.9272 21.7283" stroke="#EF2D28" stroke-width="0.0276629"/>
<path d="M11.5077 21.927C11.5289 21.927 11.6235 21.943 11.661 21.927C11.7034 21.9169 11.7262 21.8981 11.7523 21.8633C11.7654 21.8387 11.7523 21.9067 11.7523 21.9357C11.7572 21.9893 11.7751 21.9893 11.8045 22.0255C11.8338 22.0429 11.8648 22.0661 11.8958 22.0805C11.923 22.1002 11.9539 22.1154 11.9871 22.1254C12.0198 22.1399 12.054 22.1515 12.0785 22.1703C12.1127 22.1921 12.1111 22.2181 12.1306 22.2529C12.1258 22.2963 12.1176 22.3224 12.0899 22.3427C12.0768 22.3731 12.0507 22.4035 12.0279 22.4238C12.0034 22.4672 11.9741 22.4861 12.0377 22.4962C12.0736 22.5107 12.0931 22.4991 12.1306 22.4962" stroke="#EF2D28" stroke-width="0.0276629"/>
<path d="M12.1541 22.5582C12.1802 22.5524 12.2683 22.5263 12.3074 22.5133H12.4509C12.5047 22.5177 12.5161 22.5321 12.5618 22.5495C12.5928 22.577 12.6124 22.5959 12.6548 22.6132C12.676 22.6379 12.72 22.6813 12.7363 22.7132C12.7497 22.7506 12.7563 22.7897 12.7559 22.829C12.7559 22.8826 12.7396 22.8928 12.7363 22.9391C12.7249 22.9789 12.7037 23.016 12.6743 23.0477C12.6694 23.0593 12.6662 23.0622 12.6548 23.0651" stroke="#EF2D28" stroke-width="0.0276629"/>
<path d="M12.6468 23.1832C12.6514 23.1832 12.6607 23.206 12.6757 23.2255C12.7093 23.2598 12.7128 23.262 12.7626 23.262C12.8089 23.2598 12.8031 23.2437 12.8355 23.2335C12.8506 23.2106 12.8691 23.1923 12.8865 23.1614C12.898 23.1431 12.9085 23.1146 12.9212 23.0974C12.9351 23.0757 12.9513 23.0597 12.9652 23.0403C12.9791 23.0345 12.9837 23.0288 13.0022 23.0254C12.9606 23.0322 12.9559 23.0471 12.9293 23.0688C12.9162 23.0895 12.9042 23.1109 12.8934 23.1329C12.8888 23.1637 12.8795 23.1877 12.8783 23.2255C12.8783 23.2655 12.8784 23.2929 12.8934 23.3261C12.9108 23.3432 12.9223 23.3615 12.9443 23.3764C12.9626 23.3939 12.9793 23.413 12.9941 23.4335L13.0601 23.4758C13.081 23.4884 13.1053 23.501 13.1389 23.5044C13.1817 23.501 13.1944 23.4895 13.2257 23.4758C13.2535 23.4564 13.2743 23.4438 13.2986 23.4255C13.3186 23.4093 13.3358 23.39 13.3496 23.3684C13.3878 23.3592 13.4133 23.3626 13.4364 23.3832C13.4561 23.3968 13.4729 23.4138 13.4862 23.4335C13.4978 23.4392 13.5186 23.4564 13.5302 23.4621" stroke="#EF2D28" stroke-width="0.0264612"/>
<path d="M13.4352 23.4738C13.4237 23.478 13.3805 23.508 13.3632 23.518C13.3517 23.5565 13.333 23.5765 13.3272 23.6179C13.3171 23.6549 13.3171 23.6978 13.3171 23.742C13.3272 23.7876 13.3459 23.8204 13.3632 23.8561C13.392 23.8761 13.4064 23.8904 13.4438 23.9103C13.4798 23.916 13.5158 23.9203 13.5604 23.9203C13.5892 23.9289 13.641 23.9332 13.6684 23.9203C13.7087 23.9146 13.7389 23.8989 13.7677 23.8846C13.8008 23.8661 13.8209 23.8476 13.8569 23.8304C13.8756 23.8048 13.903 23.7805 13.9289 23.7505C13.9519 23.7206 13.9678 23.7035 13.9836 23.6706C13.9692 23.7077 13.9505 23.742 13.939 23.7776C13.9174 23.8147 13.9059 23.829 13.903 23.8747C13.8886 23.9118 13.8929 23.9574 13.8929 24.0002C13.8972 24.0287 13.8987 24.083 13.9116 24.1072V24.1343" stroke="#EF2D28" stroke-width="0.0272282"/>
<path d="M14.7626 24.2862V24.3007C14.7626 24.2655 14.7626 24.2821 14.7464 24.3525C14.721 24.3814 14.6538 24.3897 14.6029 24.3773C14.5566 24.3421 14.5566 24.3152 14.4732 24.3007C14.3898 24.3048 14.3574 24.3255 14.3111 24.3525C14.2619 24.3688 14.2208 24.4004 14.1953 24.4415C14.1791 24.4849 14.1698 24.516 14.2254 24.5326C14.2738 24.5615 14.3295 24.5793 14.3875 24.5843C14.4524 24.5843 14.501 24.5781 14.5311 24.6112C14.5774 24.6526 14.5728 24.6775 14.5728 24.752C14.589 24.7748 14.5913 24.8431 14.6029 24.87C14.6427 24.8888 14.6876 24.8973 14.7325 24.8948C14.7487 24.8534 14.765 24.783 14.7765 24.7396C14.7881 24.694 14.7904 24.6278 14.8205 24.5967C14.8471 24.5611 14.8809 24.5302 14.9201 24.5056C14.9435 24.4819 14.9741 24.4647 15.0081 24.456C14.9502 24.4808 14.9433 24.5098 14.9363 24.5719C14.9849 24.5926 14.9988 24.6092 15.0799 24.6112C15.1609 24.605 15.1795 24.5864 15.2096 24.545C15.2165 24.6112 15.2397 24.6319 15.2559 24.6899C15.2837 24.7272 15.2952 24.7665 15.3253 24.8182C15.3138 24.8803 15.286 24.8824 15.2837 24.959C15.2651 25.0108 15.2651 25.0584 15.2258 25.0894C15.2072 25.1101 15.1933 25.1122 15.1517 25.1143C15.235 25.1143 15.286 25.106 15.3415 25.077C15.3832 25.0522 15.4156 25.0232 15.4573 24.9983C15.5096 24.9631 15.5684 24.9365 15.631 24.9197C15.6981 24.9197 15.7468 24.9135 15.7746 24.9466C15.8162 24.9735 15.844 25.019 15.8626 25.077C15.8741 25.1432 15.8811 25.1888 15.8463 25.2323C15.8232 25.2819 15.8162 25.3006 15.8463 25.3606C15.8811 25.402 15.9297 25.4082 16.0084 25.4248C16.0617 25.4227 16.115 25.4124 16.152 25.3999" stroke="#EF2D28" stroke-width="0.0262732"/>
<path fill-rule="evenodd" clip-rule="evenodd" d="M6.97007 17.5158C5.20424 14.4593 4.03312 11.8547 4.35243 11.7073C4.67504 11.5583 6.36956 13.9212 8.13539 16.9777L6.97007 17.5158Z" fill="white" stroke="#EF2D28" stroke-width="0.0361846"/>
<path fill-rule="evenodd" clip-rule="evenodd" d="M7.08675 17.4641C5.38324 14.5154 4.21007 12.0228 4.46553 11.9049C4.72361 11.7857 6.31551 14.085 8.01902 17.0336" fill="white"/>
<path d="M7.08675 17.4641C5.38324 14.5154 4.21007 12.0228 4.46553 11.9049C4.72361 11.7857 6.31551 14.085 8.01902 17.0336" stroke="#EF2D28" stroke-width="0.0317886"/>
<path fill-rule="evenodd" clip-rule="evenodd" d="M7.37928 15.9259C7.5867 16.2705 7.80645 16.6653 8.01897 17.0331L7.08408 17.4648C6.87156 17.0969 6.63864 16.7082 6.44439 16.3575L7.37928 15.9259Z" fill="white" stroke="#EF2D28" stroke-width="0.036078"/>
<path fill-rule="evenodd" clip-rule="evenodd" d="M7.29797 16.0449C7.50645 16.3914 7.64969 16.6538 7.86327 17.0235L7.1654 17.3457C6.95288 16.9778 6.79434 16.7178 6.60009 16.3672L7.29797 16.0449Z" fill="white" stroke="#EF2D28" stroke-width="0.036078"/>
<path fill-rule="evenodd" clip-rule="evenodd" d="M6.79077 16.4446L7.25821 16.2287L7.67263 16.9461L7.20518 17.1619L6.79077 16.4446ZM6.79077 16.4446L7.67263 16.9461L6.79077 16.4446ZM7.20518 17.1619L7.25821 16.2287L7.20518 17.1619ZM4.68256 12.7954L5.15 12.5796L4.68256 12.7954Z" fill="white"/>
<path d="M6.79077 16.4446L7.67263 16.9461M7.20518 17.1619L7.25821 16.2287M4.68256 12.7954L5.15 12.5796M6.79077 16.4446L7.25821 16.2287L7.67263 16.9461L7.20518 17.1619L6.79077 16.4446Z" stroke="#EF2D28" stroke-width="0.036078"/>
<path d="M4.68536 12.4561C4.75718 12.4743 4.82855 12.4378 4.84476 12.3746C4.86097 12.3114 4.81588 12.2455 4.74406 12.2273C4.67224 12.2092 4.60087 12.2457 4.58466 12.3088C4.56845 12.372 4.61354 12.4379 4.68536 12.4561Z" fill="#EF0000" stroke="#EF2D28" stroke-width="0.0467473"/>
<path fill-rule="evenodd" clip-rule="evenodd" d="M8.38209 15.958C8.38209 18.525 8.39753 19.4917 8.2092 19.6242C8.03013 19.7671 3.05017 19.6242 3.05017 20.357C3.05017 21.0899 7.15022 21.8268 8.38209 21.8268C10.0246 21.8268 10.8427 21.0919 10.8427 19.6242V15.9601H8.38209V15.958Z" fill="white" stroke="#EF2D28" stroke-width="0.0328653"/>
<path fill-rule="evenodd" clip-rule="evenodd" d="M8.38312 16.6908V17.0572C9.19716 17.1792 10.0282 17.1792 10.8423 17.0572V16.6908C10.0282 16.8128 9.19716 16.8128 8.38312 16.6908Z" fill="white" stroke="#EF2D28" stroke-width="0.0284626"/>
<path fill-rule="evenodd" clip-rule="evenodd" d="M8.38312 15.9579V16.3243C9.19716 16.4463 10.0282 16.4463 10.8423 16.3243V15.9579C10.0282 16.0799 9.19716 16.0799 8.38312 15.9579Z" fill="white" stroke="#EF2D28" stroke-width="0.0284626"/>
<path fill-rule="evenodd" clip-rule="evenodd" d="M8.38312 16.3243V16.6908C9.19716 16.8128 10.0282 16.8128 10.8423 16.6908V16.3243C10.0282 16.4464 9.19716 16.4464 8.38312 16.3243Z" fill="white" stroke="#EF2D28" stroke-width="0.0284626"/>
<path fill-rule="evenodd" clip-rule="evenodd" d="M8.38312 17.0571V17.4235C9.19716 17.5456 10.0282 17.5456 10.8423 17.4235V17.0571C10.0282 17.1792 9.19716 17.1792 8.38312 17.0571Z" fill="white" stroke="#EF2D28" stroke-width="0.0284626"/>
<path d="M8.49486 16.611C8.55694 16.611 8.60727 16.5756 8.60727 16.5318C8.60727 16.4881 8.55694 16.4526 8.49486 16.4526C8.43277 16.4526 8.38245 16.4881 8.38245 16.5318C8.38245 16.5756 8.43277 16.611 8.49486 16.611Z" fill="white" stroke="#EF2D28" stroke-width="0.0269827"/>
<path d="M8.942 16.6505C9.00408 16.6505 9.05441 16.615 9.05441 16.5713C9.05441 16.5275 9.00408 16.4921 8.942 16.4921C8.87992 16.4921 8.82959 16.5275 8.82959 16.5713C8.82959 16.615 8.87992 16.6505 8.942 16.6505Z" fill="white" stroke="#EF2D28" stroke-width="0.0269827"/>
<path d="M9.39036 16.6908C9.45245 16.6908 9.50278 16.6553 9.50278 16.6115C9.50278 16.5678 9.45245 16.5323 9.39036 16.5323C9.32828 16.5323 9.27795 16.5678 9.27795 16.6115C9.27795 16.6553 9.32828 16.6908 9.39036 16.6908Z" fill="white" stroke="#EF2D28" stroke-width="0.0269827"/>
<path d="M9.83751 16.6908C9.89959 16.6908 9.94992 16.6553 9.94992 16.6115C9.94992 16.5678 9.89959 16.5323 9.83751 16.5323C9.77543 16.5323 9.7251 16.5678 9.7251 16.6115C9.7251 16.6553 9.77543 16.6908 9.83751 16.6908Z" fill="white" stroke="#EF2D28" stroke-width="0.0269827"/>
<path d="M10.2846 16.6505C10.3467 16.6505 10.397 16.615 10.397 16.5713C10.397 16.5275 10.3467 16.4921 10.2846 16.4921C10.2225 16.4921 10.1722 16.5275 10.1722 16.5713C10.1722 16.615 10.2225 16.6505 10.2846 16.6505Z" fill="white" stroke="#EF2D28" stroke-width="0.0269827"/>
<path d="M10.733 16.611C10.795 16.611 10.8454 16.5756 10.8454 16.5318C10.8454 16.4881 10.795 16.4526 10.733 16.4526C10.6709 16.4526 10.6205 16.4881 10.6205 16.5318C10.6205 16.5756 10.6709 16.611 10.733 16.611Z" fill="white" stroke="#EF2D28" stroke-width="0.0269827"/>
<path fill-rule="evenodd" clip-rule="evenodd" d="M8.38308 17.79L10.8422 19.7712L8.38308 17.79ZM8.62853 17.79L10.8446 19.5497L8.62853 17.79ZM8.95503 17.8646L10.8446 19.3323L8.95503 17.8646ZM9.20049 17.8625L10.8446 19.1108L9.20049 17.8625ZM9.44826 17.8646L10.8422 18.8913L9.44826 17.8646ZM9.69371 17.8646L10.8422 18.6719L9.69371 17.8646ZM9.93916 17.8646L10.8422 18.4504L9.93916 17.8646ZM10.1892 17.8646L10.8469 18.3034L10.1892 17.8646ZM10.4324 17.8646L10.8446 18.1585L10.4324 17.8646ZM10.6802 17.8646L10.8422 18.0095L10.6802 17.8646ZM8.38308 18.0095L10.8422 19.9927L8.38308 18.0095ZM10.8422 17.7921L8.133 19.9906L10.8422 17.7921ZM10.5945 17.79L8.21636 19.6987L10.5945 17.79ZM10.268 17.8646L8.38077 19.3302L10.268 17.8646ZM10.0202 17.8646L8.38077 19.1108L10.0202 17.8646ZM9.77707 17.8646L8.38308 18.8913L9.77707 17.8646ZM9.53162 17.8646L8.38308 18.6719L9.53162 17.8646ZM9.28616 17.8646L8.38308 18.4504L9.28616 17.8646ZM9.03608 17.8646L8.38077 18.3034L9.03608 17.8646ZM8.79063 17.8646L8.38077 18.1585L8.79063 17.8646ZM8.54286 17.8646L8.38077 18.0095L8.54286 17.8646ZM10.8422 18.0095L8.133 20.2142L10.8422 18.0095ZM10.8422 18.233L8.133 20.4315L10.8422 18.233ZM10.8422 18.4504L8.133 20.651L10.8422 18.4504ZM10.8422 18.6698L8.133 20.8745L10.8422 18.6698ZM10.8422 18.8934L8.133 21.0919L10.8422 18.8934ZM10.8422 19.1108L8.133 21.3113L10.8422 19.1108ZM10.8422 19.3302L8.133 21.5308L10.8422 19.3302ZM10.8422 19.5517L8.133 21.7523L10.8422 19.5517ZM10.8422 19.7712L8.2974 21.8247L10.8422 19.7712ZM10.8422 19.9906L8.54517 21.8247L10.8422 19.9906ZM10.7589 20.2846L8.95272 21.7523L10.7589 20.2846ZM10.6802 20.5764L9.2028 21.7502L10.6802 20.5764ZM10.5157 20.9429L9.77476 21.5287L10.5157 20.9429ZM8.38308 18.2289L10.7612 20.1355L8.38308 18.2289ZM8.38308 18.4483L10.7612 20.357L8.38308 18.4483ZM8.38308 18.6719L10.6802 20.504L8.38308 18.6719ZM8.38308 18.8893L10.6802 20.7255L8.38308 18.8893ZM8.38308 19.1108L10.5968 20.8704L8.38308 19.1108ZM8.29972 19.2578L10.5157 21.0174L8.29972 19.2578ZM8.29972 19.4793L10.3513 21.094L8.29972 19.4793ZM8.21867 19.6242L10.2703 21.2389L8.21867 19.6242ZM8.133 19.7691L10.1013 21.3093L8.133 19.7691ZM8.133 19.9885L10.0202 21.4562L8.133 19.9885ZM8.133 20.21L9.77707 21.5287L8.133 20.21Z" fill="white"/>
<path d="M8.38308 17.79L10.8422 19.7712M8.62853 17.79L10.8446 19.5497M8.95503 17.8646L10.8446 19.3323M9.20049 17.8625L10.8446 19.1108M9.44826 17.8646L10.8422 18.8913M9.69371 17.8646L10.8422 18.6719M9.93916 17.8646L10.8422 18.4504M10.1892 17.8646L10.8469 18.3034M10.4324 17.8646L10.8446 18.1585M10.6802 17.8646L10.8422 18.0095M8.38308 18.0095L10.8422 19.9927M10.8422 17.7921L8.133 19.9906M10.5945 17.79L8.21636 19.6987M10.268 17.8646L8.38077 19.3302M10.0202 17.8646L8.38077 19.1108M9.77707 17.8646L8.38308 18.8913M9.53162 17.8646L8.38308 18.6719M9.28616 17.8646L8.38308 18.4504M9.03608 17.8646L8.38077 18.3034M8.79063 17.8646L8.38077 18.1585M8.54286 17.8646L8.38077 18.0095M10.8422 18.0095L8.133 20.2142M10.8422 18.233L8.133 20.4315M10.8422 18.4504L8.133 20.651M10.8422 18.6698L8.133 20.8745M10.8422 18.8934L8.133 21.0919M10.8422 19.1108L8.133 21.3113M10.8422 19.3302L8.133 21.5308M10.8422 19.5517L8.133 21.7523M10.8422 19.7712L8.2974 21.8247M10.8422 19.9906L8.54517 21.8247M10.7589 20.2846L8.95272 21.7523M10.6802 20.5764L9.2028 21.7502M10.5157 20.9429L9.77476 21.5287M8.38308 18.2289L10.7612 20.1355M8.38308 18.4483L10.7612 20.357M8.38308 18.6719L10.6802 20.504M8.38308 18.8893L10.6802 20.7255M8.38308 19.1108L10.5968 20.8704M8.29972 19.2578L10.5157 21.0174M8.29972 19.4793L10.3513 21.094M8.21867 19.6242L10.2703 21.2389M8.133 19.7691L10.1013 21.3093M8.133 19.9885L10.0202 21.4562M8.133 20.21L9.77707 21.5287" stroke="#EF2D28" stroke-width="0.0284626"/>
<path fill-rule="evenodd" clip-rule="evenodd" d="M8.38312 17.4257V17.7921C9.19716 17.9141 10.0282 17.9141 10.8423 17.7921V17.4257C10.0282 17.5477 9.19716 17.5477 8.38312 17.4257Z" fill="white" stroke="#EF2D28" stroke-width="0.0284626"/>
<path fill-rule="evenodd" clip-rule="evenodd" d="M8.13531 20.4316L9.61266 21.6054L8.13531 20.4316ZM8.13531 20.6531L9.44826 21.6779L8.13531 20.6531ZM8.13531 20.8705L9.28385 21.7524L8.13531 20.8705ZM8.13531 21.0899L8.95735 21.7524L8.13531 21.0899ZM8.133 21.3114L8.79063 21.8248L8.133 21.3114ZM8.133 21.5309L8.54286 21.8248L8.133 21.5309Z" fill="white"/>
<path d="M8.13531 20.4316L9.61266 21.6054M8.13531 20.6531L9.44826 21.6779M8.13531 20.8705L9.28385 21.7524M8.13531 21.0899L8.95735 21.7524M8.133 21.3114L8.79063 21.8248M8.133 21.5309L8.54286 21.8248" stroke="#EF2D28" stroke-width="0.0284626"/>
<path d="M8.49486 17.7124C8.55694 17.7124 8.60727 17.6769 8.60727 17.6332C8.60727 17.5894 8.55694 17.554 8.49486 17.554C8.43277 17.554 8.38245 17.5894 8.38245 17.6332C8.38245 17.6769 8.43277 17.7124 8.49486 17.7124Z" fill="white" stroke="#EF2D28" stroke-width="0.0269827"/>
<path d="M8.942 17.7518C9.00408 17.7518 9.05441 17.7163 9.05441 17.6726C9.05441 17.6288 9.00408 17.5934 8.942 17.5934C8.87992 17.5934 8.82959 17.6288 8.82959 17.6726C8.82959 17.7163 8.87992 17.7518 8.942 17.7518Z" fill="white" stroke="#EF2D28" stroke-width="0.0269827"/>
<path d="M9.39036 17.79C9.45245 17.79 9.50278 17.7545 9.50278 17.7108C9.50278 17.6671 9.45245 17.6316 9.39036 17.6316C9.32828 17.6316 9.27795 17.6671 9.27795 17.7108C9.27795 17.7545 9.32828 17.79 9.39036 17.79Z" fill="white" stroke="#EF2D28" stroke-width="0.0269827"/>
<path d="M9.83751 17.79C9.89959 17.79 9.94992 17.7545 9.94992 17.7108C9.94992 17.6671 9.89959 17.6316 9.83751 17.6316C9.77543 17.6316 9.7251 17.6671 9.7251 17.7108C9.7251 17.7545 9.77543 17.79 9.83751 17.79Z" fill="white" stroke="#EF2D28" stroke-width="0.0269827"/>
<path d="M10.2846 17.7518C10.3467 17.7518 10.397 17.7163 10.397 17.6726C10.397 17.6288 10.3467 17.5934 10.2846 17.5934C10.2225 17.5934 10.1722 17.6288 10.1722 17.6726C10.1722 17.7163 10.2225 17.7518 10.2846 17.7518Z" fill="white" stroke="#EF2D28" stroke-width="0.0269827"/>
<path d="M10.733 17.7124C10.795 17.7124 10.8454 17.6769 10.8454 17.6332C10.8454 17.5894 10.795 17.554 10.733 17.554C10.6709 17.554 10.6205 17.5894 10.6205 17.6332C10.6205 17.6769 10.6709 17.7124 10.733 17.7124Z" fill="white" stroke="#EF2D28" stroke-width="0.0269827"/>
<path fill-rule="evenodd" clip-rule="evenodd" d="M4.85418 21.2389L7.80657 19.6987L4.85418 21.2389ZM4.68977 21.1644L7.48007 19.6987L4.68977 21.1644ZM4.60873 21.0174L7.15126 19.6987L4.60873 21.0174ZM4.52537 20.8725L6.74139 19.6987L4.52537 20.8725ZM4.35864 20.7255L6.41026 19.6987L4.35864 20.7255ZM4.442 20.5061L5.836 19.7712L4.442 20.5061ZM4.35864 20.357L5.42382 19.7712L4.35864 20.357ZM4.35864 20.1376L5.09963 19.7712L4.35864 20.1376ZM5.09963 21.3114L7.88762 19.8436L5.09963 21.3114ZM5.3474 21.3838L7.97098 19.9906L5.3474 21.3838ZM5.59286 21.4583L8.05434 20.1376L5.59286 21.4583ZM5.83831 21.5308L7.88993 20.4316L5.83831 21.5308ZM6.16481 21.5308L7.97098 20.5785L6.16481 21.5308ZM6.41026 21.6053L7.96866 20.798L6.41026 21.6053ZM6.65572 21.6778L7.88762 21.0174L6.65572 21.6778ZM6.98453 21.6798L7.96866 21.1644L6.98453 21.6798ZM7.31335 21.7523L7.97098 21.3838L7.31335 21.7523ZM7.64679 21.7523L8.05666 21.5329L7.64679 21.7523Z" fill="white"/>
<path d="M4.85418 21.2389L7.80657 19.6987M4.68977 21.1644L7.48007 19.6987M4.60873 21.0174L7.15126 19.6987M4.52537 20.8725L6.74139 19.6987M4.35864 20.7255L6.41026 19.6987M4.442 20.5061L5.836 19.7712M4.35864 20.357L5.42382 19.7712M4.35864 20.1376L5.09963 19.7712M5.09963 21.3114L7.88762 19.8436M5.3474 21.3838L7.97098 19.9906M5.59286 21.4583L8.05434 20.1376M5.83831 21.5308L7.88993 20.4316M6.16481 21.5308L7.97098 20.5785M6.41026 21.6053L7.96866 20.798M6.65572 21.6778L7.88762 21.0174M6.98453 21.6798L7.96866 21.1644M7.31335 21.7523L7.97098 21.3838M7.64679 21.7523L8.05666 21.5329" stroke="#EF2D28" stroke-width="0.0284626"/>
<path fill-rule="evenodd" clip-rule="evenodd" d="M8.21649 19.6263H7.80663C7.67014 20.3541 7.67014 21.0971 7.80663 21.8248H8.21649C8.08 21.0971 8.08 20.3541 8.21649 19.6263Z" fill="white" stroke="#EF2D28" stroke-width="0.0284626"/>
<path fill-rule="evenodd" clip-rule="evenodd" d="M3.37683 20.651L4.36096 19.9182L3.37683 20.651ZM3.37683 20.1376L4.36096 21.0175L3.37683 20.1376Z" fill="white"/>
<path d="M3.37683 20.651L4.36096 19.9182M3.37683 20.1376L4.36096 21.0175" stroke="#EF2D28" stroke-width="0.0284626"/>
<path fill-rule="evenodd" clip-rule="evenodd" d="M4.85413 19.7698L4.36137 19.8432C4.25207 20.3086 4.25207 20.6993 4.36137 21.1648L4.85413 21.3103C4.74483 20.8462 4.74483 20.2352 4.85413 19.7698Z" fill="white" stroke="#EF2D28" stroke-width="0.0202598"/>
<path fill-rule="evenodd" clip-rule="evenodd" d="M10.8425 16.1029V15.7323C10.4713 15.7365 10.225 15.515 10.225 15.2935L8.99679 15.2955C8.99679 15.515 8.75392 15.7365 8.38269 15.7365V16.1029H10.8425Z" fill="white" stroke="#EF2D28" stroke-width="0.0348396"/>
<path fill-rule="evenodd" clip-rule="evenodd" d="M9.0824 14.8567H10.1383V15.2977H9.0824V14.8567ZM9.17271 14.4158H10.0503V14.8567H9.17039L9.17271 14.4158ZM9.17271 13.9769H10.0503V14.4158H9.17039L9.17271 13.9769ZM9.2607 13.389H9.96233V13.9769H9.2607V13.389ZM9.2306 12.8756H9.99474V13.389H9.2306V12.8756Z" fill="white" stroke="#EF2D28" stroke-width="0.030652"/>
<path d="M9.65222 13.0971C10.2138 13.0971 10.6691 12.7847 10.6691 12.3994C10.6691 12.0141 10.2138 11.7018 9.65222 11.7018C9.0906 11.7018 8.63531 12.0141 8.63531 12.3994C8.63531 12.7847 9.0906 13.0971 9.65222 13.0971Z" fill="white" stroke="#EF2D28" stroke-width="0.0289326"/>
<path fill-rule="evenodd" clip-rule="evenodd" d="M10.1618 12.3622C10.1618 12.5547 10.4155 12.8756 10.4155 12.8756C10.2312 13.0039 9.93214 13.0971 9.65219 13.0971C9.37224 13.0971 9.02291 13.0432 8.88892 12.8756C8.88892 12.8756 9.14254 12.5568 9.14254 12.3642C9.14254 12.1717 8.88892 11.9233 8.88892 11.9233C9.111 11.7821 9.379 11.7053 9.65458 11.7039C9.93214 11.7039 10.2288 11.797 10.4155 11.9233C10.4155 11.9233 10.1618 12.1717 10.1618 12.3642V12.3622Z" fill="white" stroke="#EF2D28" stroke-width="0.0289326"/>
<path fill-rule="evenodd" clip-rule="evenodd" d="M9.99199 12.3622C9.99199 12.5547 10.2456 12.9501 10.2456 12.9501C10.0614 13.0743 9.93457 13.095 9.65223 13.095C9.36989 13.095 9.19283 13.1178 9.05884 12.9501C9.05884 12.9501 9.31246 12.5568 9.31246 12.3622C9.31246 12.1676 9.05884 11.8488 9.05884 11.8488C9.24308 11.7246 9.36989 11.7039 9.65223 11.7039C9.93218 11.7039 10.0614 11.7246 10.2456 11.8488C10.2456 11.8488 9.99199 12.1696 9.99199 12.3622Z" fill="white" stroke="#EF2D28" stroke-width="0.0289326"/>
<path d="M8.63528 12.6541C8.77535 12.6541 8.88891 12.5558 8.88891 12.4346C8.88891 12.3135 8.77535 12.2152 8.63528 12.2152C8.49521 12.2152 8.38165 12.3135 8.38165 12.4346C8.38165 12.5558 8.49521 12.6541 8.63528 12.6541Z" fill="white" stroke="#EF2D28" stroke-width="0.0289326"/>
<path d="M10.6707 12.6541C10.8108 12.6541 10.9243 12.5558 10.9243 12.4346C10.9243 12.3135 10.8108 12.2152 10.6707 12.2152C10.5306 12.2152 10.4171 12.3135 10.4171 12.4346C10.4171 12.5558 10.5306 12.6541 10.6707 12.6541Z" fill="white" stroke="#EF2D28" stroke-width="0.0289326"/>
<path d="M9.65414 12.6541C9.79421 12.6541 9.90777 12.5558 9.90777 12.4346C9.90777 12.3135 9.79421 12.2152 9.65414 12.2152C9.51407 12.2152 9.40051 12.3135 9.40051 12.4346C9.40051 12.5558 9.51407 12.6541 9.65414 12.6541Z" fill="white" stroke="#EF2D28" stroke-width="0.0289326"/>
<path d="M9.65414 11.9213C9.79421 11.9213 9.90777 11.823 9.90777 11.7019C9.90777 11.5807 9.79421 11.4824 9.65414 11.4824C9.51407 11.4824 9.40051 11.5807 9.40051 11.7019C9.40051 11.823 9.51407 11.9213 9.65414 11.9213Z" fill="white" stroke="#EF2D28" stroke-width="0.0289326"/>
<path d="M8.91063 16.1029C9.05571 16.1029 9.17332 16.0047 9.17332 15.8835C9.17332 15.7623 9.05571 15.6641 8.91063 15.6641C8.76556 15.6641 8.64795 15.7623 8.64795 15.8835C8.64795 16.0047 8.76556 16.1029 8.91063 16.1029Z" fill="white" stroke="#EF2D28" stroke-width="0.0294447"/>
<path d="M10.3139 16.1029C10.459 16.1029 10.5766 16.0047 10.5766 15.8835C10.5766 15.7623 10.459 15.6641 10.3139 15.6641C10.1688 15.6641 10.0512 15.7623 10.0512 15.8835C10.0512 16.0047 10.1688 16.1029 10.3139 16.1029Z" fill="white" stroke="#EF2D28" stroke-width="0.0294447"/>
<path fill-rule="evenodd" clip-rule="evenodd" d="M8.99731 15.2955H10.2265L9.6119 15.9559L8.99731 15.2955Z" fill="white" stroke="#EF2D28" stroke-width="0.0294447"/>
<path d="M9.61088 16.1014C9.80433 16.1014 9.96114 15.9704 9.96114 15.8088C9.96114 15.6472 9.80433 15.5162 9.61088 15.5162C9.41744 15.5162 9.26062 15.6472 9.26062 15.8088C9.26062 15.9704 9.41744 16.1014 9.61088 16.1014Z" fill="white" stroke="#EF2D28" stroke-width="0.03926"/>
<path d="M10.0524 18.0024H8.36434C8.30935 18.0024 8.26477 18.0367 8.26477 18.079V18.3668C8.26477 18.4091 8.30935 18.4434 8.36434 18.4434H10.0524C10.1074 18.4434 10.152 18.4091 10.152 18.3668V18.079C10.152 18.0367 10.1074 18.0024 10.0524 18.0024Z" fill="white" stroke="#EF2D28" stroke-width="0.0262732"/>
<path fill-rule="evenodd" clip-rule="evenodd" d="M10.7262 17.636C10.4993 17.636 10.3164 17.8079 10.3164 18.019V18.3523C10.3148 18.4016 10.3242 18.4507 10.3441 18.4967C10.3639 18.5427 10.3937 18.5847 10.4318 18.6203C10.47 18.6559 10.5156 18.6844 10.5661 18.7042C10.6167 18.7239 10.6711 18.7345 10.7262 18.7353C10.7814 18.7345 10.8358 18.7239 10.8863 18.7042C10.9368 18.6844 10.9825 18.6559 11.0206 18.6203C11.0587 18.5847 11.0886 18.5427 11.1084 18.4967C11.1282 18.4507 11.1376 18.4016 11.1361 18.3523V18.0211C11.1379 17.9716 11.1288 17.9224 11.1091 17.8761C11.0894 17.8299 11.0596 17.7876 11.0215 17.7518C10.9833 17.7159 10.9375 17.6872 10.8869 17.6674C10.8362 17.6475 10.7816 17.6368 10.7262 17.636ZM10.7262 17.781C10.5896 17.781 10.4808 17.9197 10.4808 18.0894V18.2819C10.4808 18.4517 10.5896 18.5883 10.7262 18.5883C10.8628 18.5883 10.9717 18.4517 10.9717 18.2819V18.0894C10.9717 17.9197 10.8628 17.783 10.7262 17.783V17.781ZM8.59356 17.7085C8.45462 17.7085 8.3481 17.8451 8.3481 18.017V18.3565C8.3481 18.5262 8.45694 18.6628 8.59356 18.6628C8.73018 18.6628 8.83901 18.5262 8.83901 18.3565V18.0149C8.83901 17.8431 8.73018 17.7064 8.59356 17.7064V17.7085ZM8.59356 17.5636C8.53842 17.5644 8.48401 17.575 8.43348 17.5947C8.38294 17.6144 8.33729 17.6429 8.29917 17.6786C8.26105 17.7142 8.23121 17.7562 8.21139 17.8022C8.19157 17.8482 8.18216 17.8973 8.1837 17.9466V18.4268C8.18216 18.4761 8.19157 18.5252 8.21139 18.5712C8.23121 18.6172 8.26105 18.6592 8.29917 18.6948C8.33729 18.7305 8.38294 18.759 8.43348 18.7787C8.48401 18.7984 8.53842 18.809 8.59356 18.8098C8.82048 18.8098 9.00342 18.638 9.00342 18.4268V17.9466C9.00527 17.8971 8.99609 17.8478 8.97641 17.8016C8.95672 17.7553 8.92694 17.7131 8.88879 17.6772C8.85063 17.6414 8.80488 17.6127 8.75419 17.5928C8.7035 17.573 8.64889 17.5623 8.59356 17.5615V17.5636Z" fill="white" stroke="#EF2D28" stroke-width="0.0262732"/>
<path fill-rule="evenodd" clip-rule="evenodd" d="M7.93596 17.8555C7.79934 17.8555 7.69051 17.9921 7.69051 18.1619V18.2426C7.69051 18.4123 7.79934 18.549 7.93596 18.549C8.0749 18.549 8.18373 18.4123 8.18373 18.2426V18.1619C8.18373 17.9921 8.07258 17.8555 7.93596 17.8555ZM7.93596 17.7106C7.88083 17.7114 7.82642 17.7219 7.77588 17.7417C7.72535 17.7614 7.6797 17.7899 7.64158 17.8255C7.60346 17.8612 7.57362 17.9032 7.5538 17.9492C7.53398 17.9952 7.52456 18.0443 7.5261 18.0935V18.313C7.52456 18.3623 7.53398 18.4113 7.5538 18.4573C7.57362 18.5033 7.60346 18.5454 7.64158 18.581C7.6797 18.6166 7.72535 18.6451 7.77588 18.6648C7.82642 18.6846 7.88083 18.6951 7.93596 18.6959C8.16289 18.6959 8.34814 18.5241 8.34814 18.313V18.0935C8.34999 18.0439 8.34074 17.9945 8.32091 17.9481C8.30109 17.9017 8.2711 17.8593 8.2327 17.8235C8.1943 17.7876 8.14827 17.7589 8.09731 17.7392C8.04635 17.7195 7.9915 17.709 7.93596 17.7085V17.7106Z" fill="white" stroke="#EF2D28" stroke-width="0.0262732"/>
<path fill-rule="evenodd" clip-rule="evenodd" d="M6.95462 17.6529C6.70453 17.6529 6.50863 17.8056 6.50863 17.9953V18.3771C6.50863 18.5645 6.7087 18.7195 6.95462 18.7195C7.19637 18.7195 7.39643 18.5668 7.39643 18.3747V17.9953C7.39643 17.8056 7.19637 17.6529 6.95462 17.6529ZM6.95462 17.491C6.85538 17.4916 6.75734 17.5031 6.66618 17.5249C6.57502 17.5466 6.49254 17.5782 6.42354 17.6178C6.35453 17.6574 6.30037 17.7042 6.26418 17.7555C6.22799 17.8068 6.21049 17.8616 6.2127 17.9167V18.4534C6.20937 18.5087 6.22589 18.5638 6.26132 18.6154C6.29675 18.6671 6.35036 18.7144 6.41904 18.7544C6.48771 18.7945 6.57007 18.8266 6.66131 18.8488C6.75255 18.871 6.85084 18.8828 6.95045 18.8837C7.36309 18.8837 7.69237 18.6917 7.69237 18.4534V17.9167C7.69514 17.8616 7.67819 17.8068 7.64251 17.7553C7.60683 17.7039 7.55313 17.657 7.48451 17.6171C7.41589 17.5773 7.33372 17.5455 7.24276 17.5234C7.1518 17.5014 7.05386 17.4895 6.95462 17.4886V17.491Z" fill="white" stroke="#EF2D28" stroke-width="0.0279481"/>
<path fill-rule="evenodd" clip-rule="evenodd" d="M12.2874 17.7254C12.0374 17.7254 11.8415 17.8781 11.8415 18.0678V18.4496C11.8415 18.637 12.0415 18.792 12.2874 18.792C12.5292 18.792 12.7293 18.6393 12.7293 18.4473V18.0678C12.7293 17.8781 12.5292 17.7254 12.2874 17.7254ZM12.2874 17.5635C12.1882 17.5641 12.0902 17.5756 11.999 17.5974C11.9078 17.6191 11.8254 17.6507 11.7564 17.6903C11.6874 17.7299 11.6332 17.7767 11.597 17.828C11.5608 17.8793 11.5433 17.9341 11.5455 17.9892V18.5259C11.5422 18.5812 11.5587 18.6363 11.5941 18.6879C11.6296 18.7396 11.6832 18.7869 11.7519 18.8269C11.8205 18.867 11.9029 18.8991 11.9941 18.9213C12.0854 18.9435 12.1837 18.9554 12.2833 18.9562C12.6959 18.9562 13.0252 18.7642 13.0252 18.5259V17.9892C13.028 17.9341 13.011 17.8793 12.9753 17.8278C12.9397 17.7764 12.886 17.7295 12.8173 17.6897C12.7487 17.6498 12.6665 17.618 12.5756 17.5959C12.4846 17.5739 12.3867 17.5621 12.2874 17.5612V17.5635Z" fill="white" stroke="#EF2D28" stroke-width="0.0279481"/>
<path d="M11.8216 18.0024H10.9439C10.9145 18.0024 10.8907 18.0367 10.8907 18.079V18.3668C10.8907 18.4091 10.9145 18.4434 10.9439 18.4434H11.8216C11.851 18.4434 11.8748 18.4091 11.8748 18.3668V18.079C11.8748 18.0367 11.851 18.0024 11.8216 18.0024Z" fill="white" stroke="#EF2D28" stroke-width="0.0262732"/>
<path d="M10.5318 17.9299H10.0177C10.0011 17.9299 9.98761 17.9753 9.98761 18.0314V18.4164C9.98761 18.4724 10.0011 18.5178 10.0177 18.5178H10.5318C10.5484 18.5178 10.5619 18.4724 10.5619 18.4164V18.0314C10.5619 17.9753 10.5484 17.9299 10.5318 17.9299Z" fill="white" stroke="#EF2D28" stroke-width="0.0262732"/>
<path d="M7.82481 17.9299H7.31074C7.29412 17.9299 7.28064 17.9753 7.28064 18.0314V18.4164C7.28064 18.4724 7.29412 18.5178 7.31074 18.5178H7.82481C7.84143 18.5178 7.85491 18.4724 7.85491 18.4164V18.0314C7.85491 17.9753 7.84143 17.9299 7.82481 17.9299Z" fill="white" stroke="#EF2D28" stroke-width="0.0262732"/>
<path d="M6.56282 17.8555H5.53469C5.50144 17.8555 5.47449 17.912 5.47449 17.9817V18.462C5.47449 18.5318 5.50144 18.5883 5.53469 18.5883H6.56282C6.59607 18.5883 6.62303 18.5318 6.62303 18.462V17.9817C6.62303 17.912 6.59607 17.8555 6.56282 17.8555Z" fill="white" stroke="#EF2D28" stroke-width="0.0262732"/>
<path d="M13.6231 17.9299H12.6714C12.6394 17.9299 12.6135 17.9865 12.6135 18.0562V18.5365C12.6135 18.6062 12.6394 18.6628 12.6714 18.6628H13.6231C13.655 18.6628 13.681 18.6062 13.681 18.5365V18.0562C13.681 17.9865 13.655 17.9299 13.6231 17.9299Z" fill="white" stroke="#EF2D28" stroke-width="0.0262732"/>
</g>
<defs>
<clipPath id="clip0_1_70256">
<rect width="74.6667" height="56" fill="white" transform="translate(0 9.375)"/>
</clipPath>
</defs>
</svg>
