<svg width="75" height="75" viewBox="0 0 75 75" fill="none" xmlns="http://www.w3.org/2000/svg">
<rect width="74.6667" height="74.75" fill="white"/>
<g clip-path="url(#clip0_1_70376)">
<path d="M0 9.375H74.6667V65.375H0V9.375Z" fill="white"/>
<path fill-rule="evenodd" clip-rule="evenodd" d="M10.7916 9.375H66.4649V65.375H10.7799L10.7916 9.375Z" fill="white"/>
<path fill-rule="evenodd" clip-rule="evenodd" d="M37.6832 9.79504H79.4499V35.66H37.6832V9.79504Z" fill="#DB0000"/>
<path fill-rule="evenodd" clip-rule="evenodd" d="M0.37323 35.66H37.6949V65.375H0.37323V35.66ZM25.0599 30.1067L20.1599 26.6767L15.2949 30.13L17.1032 24.53L12.2499 21.0417L18.2699 20.995L20.1366 15.395L22.0382 20.9834H28.0582L23.2166 24.4834L25.0716 30.0834L25.0599 30.1067Z" fill="#0000AB"/>
<path fill-rule="evenodd" clip-rule="evenodd" d="M60.3049 57.6634L55.3582 54.4317L50.4466 57.6984L52.2666 52.3784L47.3666 49.1117L53.4332 49.0534L55.3232 43.7567L57.2366 49.0417H63.3032L58.4266 52.3667L60.2932 57.6634H60.3049Z" fill="#D80000"/>
</g>
<defs>
<clipPath id="clip0_1_70376">
<rect width="74.6667" height="56" fill="white" transform="translate(0 9.375)"/>
</clipPath>
</defs>
</svg>
