<svg width="75" height="75" viewBox="0 0 75 75" fill="none" xmlns="http://www.w3.org/2000/svg">
<rect width="74.6667" height="74.75" fill="white"/>
<g clip-path="url(#clip0_1_70386)">
<path d="M0 9.375H74.6667V65.375H0V9.375Z" fill="white"/>
<path d="M9.33331 9.375H65.3333V65.375H9.33331V9.375Z" fill="white"/>
<path fill-rule="evenodd" clip-rule="evenodd" d="M32.3516 49.135C32.3516 49.135 33.6116 48.1083 34.8483 48.1083C36.085 48.1083 36.4116 48.96 37.275 49.03C38.1266 49.1 38.8383 48.1783 39.9 48.1433C40.9616 48.1083 42.2916 48.89 42.2916 48.89L37.6483 50.29L32.3516 49.1233V49.135ZM29.68 47.6183L45.4766 47.7C45.4766 47.7 44.1116 46.2183 42.5016 46.1833C40.8916 46.16 41.335 46.8833 40.11 46.9766C38.8733 47.0816 38.57 46.23 37.4383 46.2533C36.3183 46.2883 35.665 46.9766 34.8133 47.0116C33.95 47.0466 32.865 46.16 32.2116 46.195C31.5583 46.23 29.2366 47.21 29.2366 47.21L29.68 47.63V47.6183ZM27.6616 45.7516L47.145 45.81C47.46 45.3666 46.1883 44.305 45.0333 44.2116C44.0766 44.2466 43.4 45.2033 42.6066 45.2383C41.8133 45.2733 40.9266 44.2466 40.04 44.2816C39.1533 44.3166 38.2316 45.2383 37.345 45.2383C36.4466 45.2383 35.805 44.2466 34.6733 44.2466C33.5416 44.2466 33.04 45.3316 32.1766 45.2733C31.325 45.2033 30.5666 44.1766 29.75 44.1766C28.9333 44.1766 27.5683 45.4016 27.3 45.3433C27.02 45.2616 27.6383 45.845 27.6616 45.74V45.7516Z" fill="#083D9C" stroke="#083D9C" stroke-width="0.233333"/>
<path fill-rule="evenodd" clip-rule="evenodd" d="M35.1517 34.9134L39.6317 36.1034V29.7101C37.5783 29.8267 35.875 25.8134 39.4917 25.5451C35.9333 25.0317 35.525 25.9534 35.1167 26.9451L35.1517 34.9134Z" fill="#FF0000" stroke="black" stroke-width="0.291667" stroke-linejoin="round"/>
<path fill-rule="evenodd" clip-rule="evenodd" d="M32.3167 39.5566L42.4317 39.5916L32.3167 39.5566Z" fill="#083D9C"/>
<path d="M32.3167 39.5566L42.4317 39.5916" stroke="#083D9C" stroke-width="0.583333" stroke-linecap="round"/>
<path d="M32.795 37.1417L33.9966 38.74M32.795 38.74L34.09 37.165M33.4833 37.025L33.4483 38.0167M34.7083 37.13L35.91 38.74M34.7083 38.74L36.0033 37.165M35.3966 37.025L35.3616 38.0167M36.6567 37.13L37.8583 38.74M36.6567 38.74L37.9516 37.165M37.345 37.025L37.31 38.0167M38.675 37.13L39.865 38.74M38.675 38.74L39.97 37.165M39.3516 37.025L39.3283 38.0167M40.6116 37.13L41.8133 38.74M40.6233 38.74L41.9183 37.165M41.3 37.025L41.265 38.0167" stroke="black" stroke-width="0.466667" stroke-linecap="round"/>
<path fill-rule="evenodd" clip-rule="evenodd" d="M25.515 39.6617L29.82 39.6967V37.0017L24.8967 36.7567L25.515 39.6617ZM25.305 35.9283L29.89 36.3833L29.855 34.47L25.375 32.685L25.305 35.94V35.9283ZM26.2383 32.1133L29.75 33.8167L30.2517 33.2917C30.2517 33.2917 29.925 33.07 29.9483 32.86C29.9483 32.6617 30.275 32.6267 30.275 32.3933C30.275 32.195 29.925 32.16 29.9133 31.9617C29.89 31.7283 30.1933 31.495 30.1933 31.495L27.02 28.73L26.2267 32.1133H26.2383ZM49.3383 39.6967H44.7883L44.7533 37.06L49.7467 36.6867L49.3383 39.6967ZM44.8233 36.4417L50.225 35.7883L49.0583 32.6733L44.7883 34.4933L44.8233 36.4417ZM48.755 31.8217L44.8583 33.875C44.8 33.6417 44.7533 33.4317 44.485 33.2567C44.485 33.2567 44.7183 33.1167 44.7183 32.8833C44.7183 32.65 44.415 32.6033 44.415 32.475C44.415 32.3467 44.695 32.2183 44.7183 31.9033C44.6833 31.6933 44.415 31.39 44.4617 31.3317L47.495 29.0217L48.755 31.8217ZM40.3083 36.3833L42.2567 36.3017L42.2917 35.52L40.3083 36.3833ZM34.3583 36.325L32.3167 36.2667V35.45L34.37 36.325H34.3583ZM34.3583 36.0917L32.3167 35.0417V33.665C32.3167 33.665 32.0833 33.7 32.1067 33.4317C32.1183 32.86 33.6117 34.47 34.37 34.995L34.3583 36.0917ZM40.3083 35.9633V35.065C40.3083 35.065 42.1517 33.4083 42.5367 33.0933C42.5367 33.4433 42.3267 33.7 42.3267 33.7V35.0067L40.3083 35.9633ZM28.35 28.485L30.4267 30.7833C30.4733 30.5733 30.9517 30.5383 31.43 30.5733C31.8967 30.6083 32.2817 30.5383 32.2817 30.8767C32.2817 31.215 32.0483 31.1683 32.0483 31.4133C32.0483 31.6583 32.3983 31.635 32.3983 31.9383C32.3983 32.2417 32.1417 32.1833 32.1417 32.4167C32.1417 32.615 32.4217 32.6267 32.4217 32.6267L34.3583 34.505V32.4983L30.3683 26.2333L28.35 28.485ZM31.5467 26.105L34.265 31.6467C34.265 31.6467 34.2883 26.5367 34.7433 26.2683L33.985 24.8683L31.5467 26.105ZM43.33 26.3267L40.2967 31.7167V29.4417C40.2967 29.4417 40.5533 29.0683 40.1567 29.0917C39.76 29.1267 39.2817 29.0683 39.2817 29.0683L40.495 24.7983L43.33 26.315V26.3267ZM46.4333 28.625C46.3983 28.6833 44.3917 30.725 44.3917 30.725C44.2983 30.4917 43.6917 30.6083 43.1083 30.6083C42.5367 30.6083 42.455 30.795 42.49 30.9467C42.5483 31.3317 42.7467 31.04 42.7467 31.4133C42.7467 31.775 42.4667 31.6467 42.4317 31.9033C42.4667 32.2183 42.875 32.1367 42.63 32.37L40.3083 34.61V32.4867L44.6367 25.7667L46.4333 28.625Z" fill="#EF7D08"/>
<path fill-rule="evenodd" clip-rule="evenodd" d="M36.1433 40.6883C35.175 42.2983 32.5733 41.82 31.955 40.6883C31.78 40.6417 31.885 33.7467 31.885 33.7467C31.885 33.7467 31.5933 33.6183 31.5816 33.3967C31.57 33.1867 31.9783 33.1633 31.9783 32.895C31.9783 32.6267 31.5583 32.7317 31.5466 32.4517C31.5466 32.195 32.0016 32.2183 31.9783 31.985C31.955 31.705 31.4766 31.7517 31.4533 31.495C31.4533 31.2967 31.8033 31.1217 31.8966 31.0283C31.7878 31.0308 31.6789 31.0308 31.57 31.0283L30.8233 31.04C30.2866 31.04 30.8233 31.1567 30.8233 31.46C30.8233 31.6583 30.555 31.7983 30.5316 31.9617C30.52 32.1483 30.905 32.265 30.9166 32.4867C30.9166 32.6733 30.5316 32.685 30.5433 32.8717C30.5666 33.1633 30.8933 33.2333 30.8816 33.42C30.8816 33.595 30.4616 33.665 30.45 33.805C30.4733 34.085 30.52 40.8983 30.52 40.8983C31.185 44.375 35.0466 45.25 36.1433 40.6883ZM38.6983 40.6883C39.6666 42.2983 42.2683 41.82 42.875 40.6883C43.0616 40.6417 42.9566 33.7467 42.9566 33.7467C42.9566 33.7467 43.2483 33.6183 43.26 33.3967C43.2716 33.1867 42.8866 33.1633 42.8866 32.895C42.8866 32.6267 43.2833 32.7317 43.2833 32.4517C43.2833 32.195 42.875 32.2183 42.8983 31.9617C42.9216 31.6933 43.2483 31.7283 43.26 31.4717C43.2716 31.25 43.0617 31.1217 42.9566 31.0283H43.2716L44.0183 31.04C44.5433 31.04 44.0183 31.1567 44.0183 31.46C44.0183 31.6583 44.2866 31.7983 44.31 31.9617C44.31 32.1483 43.9366 32.265 43.925 32.4867C43.925 32.6733 44.31 32.685 44.2983 32.8717C44.275 33.1633 43.9483 33.2333 43.9483 33.42C43.96 33.595 44.38 33.665 44.38 33.805L44.3216 40.8983C43.6566 44.375 39.7833 45.25 38.6983 40.6883Z" fill="#FF0000" stroke="black" stroke-width="0.291667" stroke-linejoin="round"/>
<path fill-rule="evenodd" clip-rule="evenodd" d="M35.1983 43.8617H39.55C39.585 43.8267 38.57 42.345 37.38 42.4617C36.0383 42.4967 35.1283 43.8617 35.1983 43.8617ZM49.07 43.745H43.12C43.12 43.745 43.89 43.3017 44.1 42.8817C44.485 43.0917 44.38 43.3017 45.15 43.3367C45.92 43.3717 46.655 42.4617 47.39 42.4967C48.125 42.5317 49.07 43.78 49.07 43.7567V43.745ZM25.62 43.745H31.57C31.57 43.745 30.8 43.3017 30.59 42.8817C30.205 43.0917 30.31 43.3017 29.54 43.3367C28.77 43.3717 28.0233 42.4617 27.3 42.4967C26.565 42.5317 25.62 43.78 25.62 43.7567V43.745ZM26.0633 41.8784L30.2983 41.9134C30.2983 41.9134 30.03 41.33 29.995 40.6184C28.8983 40.245 28.0117 41.435 27.2183 41.47C26.4367 41.505 25.62 40.6184 25.62 40.6184L26.0633 41.8784ZM48.6967 41.8784L44.45 41.9134C44.45 41.9134 44.7183 41.33 44.7533 40.6184C45.85 40.245 46.7367 41.435 47.53 41.47C48.3117 41.505 49.1283 40.6184 49.1283 40.6184L48.685 41.8784H48.6967ZM36.2833 41.925L38.43 41.8667C38.43 41.8667 38.465 41.2134 37.345 41.2134C36.225 41.2134 36.3183 41.96 36.2833 41.925ZM34.9767 41.0034C35.3864 40.8241 35.7235 40.5117 35.9333 40.1167L34.4633 40.1517C34.4633 40.1517 33.7867 40.56 33.4483 41.0034H34.9767ZM39.7367 41.0034C39.3269 40.8241 38.9898 40.5117 38.78 40.1167L40.25 40.1517C40.25 40.1517 40.9267 40.56 41.265 41.0034H39.7367Z" fill="#083D9C" stroke="#083D9C" stroke-width="0.233333"/>
<path fill-rule="evenodd" clip-rule="evenodd" d="M-4.66672 51.375H79.3333V65.375H-4.66672V51.375ZM-4.66672 9.375H79.3333V23.375H-4.66672V9.375Z" fill="#DE2010"/>
</g>
<defs>
<clipPath id="clip0_1_70386">
<rect width="74.6667" height="56" fill="white" transform="translate(0 9.375)"/>
</clipPath>
</defs>
</svg>
