<svg width="75" height="75" viewBox="0 0 75 75" fill="none" xmlns="http://www.w3.org/2000/svg">
<rect width="74.6667" height="74.75" fill="white"/>
<g clip-path="url(#clip0_1_70282)">
<path fill-rule="evenodd" clip-rule="evenodd" d="M0.18666 9.375L0.128326 65.375H74.795L0.18666 9.375Z" fill="black"/>
<path fill-rule="evenodd" clip-rule="evenodd" d="M74.7367 65.375L74.795 9.375H0.128326L74.7367 65.375Z" fill="#FF0000"/>
<path d="M46.228 23.3102L45.2439 23.2586C44.9331 22.536 44.0785 22.2779 43.5346 22.5876C42.5329 22.5878 41.5314 22.5706 40.5303 22.536L42.3691 23.336C42.8612 24.6005 44.4151 24.8585 44.4151 24.8585C44.2597 27.1294 42.1102 24.5747 40.2972 25.865C39.0023 26.6391 39.0023 27.5423 38.303 29.0391C38.07 29.452 37.1635 30.5358 37.1635 30.5358L38.6915 30.4068L38.1994 31.052L40.0124 30.7939L39.6239 31.1552C39.8829 31.2068 41.6958 30.7165 41.6958 30.7165L41.5663 31.31L43.6382 30.5616C43.6382 30.5616 44.0526 30.8971 44.4151 31.052L44.6741 30.0197L45.7101 30.2778L45.9691 29.2455C47.523 31.31 48.041 33.3745 50.8898 33.8906L50.6308 32.8584C51.3881 33.1888 52.1393 33.5329 52.884 33.8906L53.1171 33.4519C54.3602 34.3293 55.3703 34.3035 56.0696 34.4067L55.5516 33.1164L56.0696 33.3745L55.2926 31.31L56.0696 31.5681L55.0336 30.0197L55.4221 29.7617L55.2926 28.9875C56.8465 29.5036 58.9184 30.2778 59.1774 32.0842C59.4364 34.9229 56.3285 35.697 54.2567 35.439C55.8106 36.7293 58.6594 36.2131 59.9544 34.9229C60.4723 34.4067 60.7313 33.6326 60.9903 32.8584C61.2493 33.6326 61.7673 34.6648 61.7673 35.697C61.5083 38.0196 58.4004 38.7937 56.3285 39.0518C58.6594 40.3421 62.8032 38.7937 63.0622 35.439C63.0622 32.6003 61.2493 31.31 60.4723 30.0197L60.2134 28.6262L60.9903 28.9875C60.9903 28.9875 60.5241 28.1359 60.4723 27.9552C60.4723 27.9552 59.6695 25.7617 59.3846 25.2714L59.9544 25.3746L57.8307 22.7166L58.4263 22.665C58.4263 22.665 55.966 20.7296 55.2926 20.4715L56.0696 20.2134C54.5156 19.4393 52.7027 19.9554 51.1488 20.9876L51.4078 20.2134L50.9416 20.2651V19.3619L51.4078 18.6651L50.6308 18.407L51.1488 17.1167L50.3718 17.3748L50.6308 16.0845C50.6308 16.0845 50.0611 16.3426 49.6985 16.3167C49.8472 16.0294 49.9854 15.7367 50.1129 15.4393C49.8539 15.0523 50.1129 14.2781 50.1129 14.2781C48.2999 14.5361 48.041 14.7942 47.005 16.3426C45.4511 19.1812 45.9691 20.4715 46.228 23.3102Z" fill="#FFCC00" stroke="#FFCC00" stroke-width="0.284375"/>
<path fill-rule="evenodd" clip-rule="evenodd" d="M56.0178 27.5424C56.1473 27.7746 57.6235 28.4714 58.7112 29.0907C58.4263 27.9036 56.2767 27.6456 56.0178 27.5424Z" fill="#FF0000" stroke="#FF0000" stroke-width="0.361932"/>
<path fill-rule="evenodd" clip-rule="evenodd" d="M20.4167 55.925L18.76 54.875L16.5433 55.9367L17.045 54.0467L15.3533 52.285L17.3017 52.1683L18.4683 50.0217L19.18 51.83L21.595 52.2733L20.0783 53.51L20.4167 55.925ZM24.64 46.7083L23.87 46.3583L23.135 46.7783L23.2517 45.9383L22.6217 45.3667L23.45 45.215L23.8 44.445L24.2083 45.1917L25.0483 45.285L24.465 45.8917L24.64 46.7083ZM28.3733 41.435L26.6817 40.6183L25.06 41.5283L25.3283 39.6967L23.9517 38.4367L25.7833 38.11L26.5533 36.43L27.44 38.0633L29.2833 38.2733L28 39.615L28.3733 41.435ZM20.6967 34.085L18.7133 33.0933L16.7883 34.155L17.115 31.985L15.505 30.4683L17.6867 30.1183L18.62 28.135L19.635 30.0833L21.8283 30.3517L20.2767 31.915L20.6967 34.085ZM13.6033 41.715L11.62 40.5483L9.63666 41.75L10.1383 39.4983L8.37666 37.9817L10.675 37.7717L11.5733 35.6367L12.495 37.76L14.805 37.9467L13.0667 39.4633L13.6033 41.715Z" fill="white"/>
</g>
<defs>
<clipPath id="clip0_1_70282">
<rect width="74.6667" height="56" fill="white" transform="translate(0 9.375)"/>
</clipPath>
</defs>
</svg>
