<svg width="75" height="75" viewBox="0 0 75 75" fill="none" xmlns="http://www.w3.org/2000/svg">
<rect width="74.6667" height="74.75" fill="white"/>
<g clip-path="url(#clip0_1_70392)">
<path d="M0 9.375H74.6667V37.375H0V9.375Z" fill="#0038A8"/>
<path d="M3.8147e-05 37.375H74.6667V65.375H3.8147e-05V37.375Z" fill="#CE1126"/>
<path d="M48.4983 37.375L0 65.375V9.375" fill="white"/>
<path d="M3.11504 14.3217L4.78338 15.7917L6.72004 14.7183L5.85671 16.76L7.49004 18.2767L5.27338 18.09L4.32838 20.0967L3.82671 17.9383L1.63338 17.6583L3.53504 16.4917L3.11504 14.3217ZM40.8917 34.4233L40.9384 36.64L43.0384 37.375L40.9384 38.0983L40.8917 40.315L39.55 38.5533L37.4267 39.195L38.6867 37.375L37.4267 35.555L39.55 36.1967L40.8917 34.4233ZM4.34004 54.6533L5.27338 56.66L7.49004 56.4733L5.86838 57.99L6.73171 60.0317L4.79504 58.97L3.11504 60.4167L3.53504 58.235L1.63338 57.0917L3.83838 56.8117L4.34004 54.6533Z" fill="#FCD116"/>
<path d="M17.6633 25.6034L16.94 26.3267L17.3017 31.8101L16.9517 31.8451L16.2867 26.8401L15.6917 27.4234L16.5783 31.9034C15.8614 32.0445 15.1794 32.326 14.5717 32.7317L12.04 28.9517H11.2L14.28 32.9534C14.1842 33.0281 14.0908 33.1059 14 33.1867L10.3717 29.0451H9.34499V30.0717L13.475 33.6884L13.2417 33.9801L9.23999 30.9117V31.7401L13.0317 34.2717C12.635 34.8784 12.3433 35.5551 12.2033 36.2784L7.735 35.3917L7.13999 35.9751L12.145 36.6401C12.1217 36.7567 12.11 36.8851 12.11 37.0017L6.62666 36.6517L5.90333 37.3751L6.62666 38.0984L12.11 37.7367L12.145 38.0984L7.13999 38.7634L7.72333 39.3467L12.2033 38.4601C12.3444 39.177 12.626 39.859 13.0317 40.4667L9.23999 42.9984V43.8384L13.2417 40.7701C13.3164 40.8659 13.3942 40.9593 13.475 41.0501L9.34499 44.6667V45.6934H10.3833L14 41.5634L14.2917 41.7967L11.2 45.7984H12.04L14.5717 42.0067C15.1667 42.4034 15.855 42.6951 16.5783 42.8351L15.6917 47.3151L16.275 47.8984L16.94 42.8934C17.0567 42.9167 17.1733 42.9284 17.3017 42.9284L16.9517 48.4117L17.6633 49.1351L18.3983 48.4117L18.0367 42.9284L18.3867 42.8934L19.0517 47.9101L19.6467 47.3151L18.76 42.8351C19.477 42.6939 20.1589 42.4124 20.7667 42.0067L23.2983 45.7984H24.1383L21.0583 41.7967C21.1542 41.722 21.2476 41.6442 21.3383 41.5634L24.9667 45.6934H25.9933V44.6667L21.8633 41.0501L22.0967 40.7701L26.0983 43.8384V42.9984L22.3067 40.4667C22.7033 39.8717 22.995 39.1834 23.135 38.4601L27.6033 39.3467L28.1983 38.7634L23.1933 38.0984C23.2167 37.9817 23.2283 37.8651 23.2283 37.7367L28.7117 38.0867L29.435 37.3751L28.7117 36.6517L23.2283 37.0017L23.1933 36.6517L28.1983 35.9867L27.615 35.4034L23.135 36.2784C22.9939 35.5614 22.7124 34.8795 22.3067 34.2717L26.0983 31.7401V30.9117L22.0967 33.9801C22.0219 33.8842 21.9441 33.7908 21.8633 33.7001L25.9933 30.0834V29.0451H24.9667L21.35 33.1867C21.2554 33.1057 21.1581 33.0279 21.0583 32.9534L24.1383 28.9517H23.2983L20.7667 32.7317C20.1717 32.3351 19.4833 32.0434 18.76 31.9034L19.6467 27.4351L19.0633 26.8517L18.3983 31.8451L18.0367 31.8101L18.3867 26.3267L17.6633 25.6034Z" fill="#FCD116"/>
</g>
<defs>
<clipPath id="clip0_1_70392">
<rect width="74.6667" height="56" fill="white" transform="translate(0 9.375)"/>
</clipPath>
</defs>
</svg>
