<svg width="75" height="75" viewBox="0 0 75 75" fill="none" xmlns="http://www.w3.org/2000/svg">
<rect width="74.6667" height="74.75" fill="white"/>
<g clip-path="url(#clip0_1_70290)">
<path fill-rule="evenodd" clip-rule="evenodd" d="M-4.674 9.375H79.326V65.375H-4.674V9.375Z" fill="#0C590B"/>
<path fill-rule="evenodd" clip-rule="evenodd" d="M-4.674 9.375H16.3807V65.375H-4.674V9.375Z" fill="white"/>
<path fill-rule="evenodd" clip-rule="evenodd" d="M49.8712 34.0282L46.4587 33.3063L44.665 36.2922L44.2931 32.836L40.9025 32.0485L44.0744 30.6266L43.779 27.1594L46.1197 29.7407L49.3244 28.3844L47.5853 31.4032L49.8822 34.0282H49.8712Z" fill="white"/>
<path fill-rule="evenodd" clip-rule="evenodd" d="M51.1509 42.8438C50.4231 44.4321 49.3884 45.8609 48.1064 47.0479C46.8244 48.235 45.3204 49.1569 43.6808 49.7607C42.0413 50.3645 40.2985 50.6382 38.5529 50.5661C36.8072 50.494 35.0929 50.0775 33.5088 49.3406C30.2947 47.8525 27.8034 45.1486 26.5829 41.8236C25.3625 38.4986 25.5128 34.825 27.001 31.6109C27.74 29.9587 28.8166 28.4795 30.1615 27.2683C31.5065 26.057 33.09 25.1407 34.8103 24.5781C34.36 24.9531 33.9292 25.351 33.5197 25.7703C31.3858 28.1336 30.253 31.2331 30.3602 34.4154C30.4673 37.5977 31.8061 40.614 34.0942 42.8283C36.3823 45.0427 39.4408 46.2819 42.6249 46.2848C45.809 46.2877 48.8698 45.0539 51.1619 42.8438H51.1509Z" fill="white"/>
</g>
<defs>
<clipPath id="clip0_1_70290">
<rect width="74.6667" height="56" fill="white" transform="translate(0 9.375)"/>
</clipPath>
</defs>
</svg>
