<svg width="75" height="75" viewBox="0 0 75 75" fill="none" xmlns="http://www.w3.org/2000/svg">
<rect width="74.6667" height="74.75" fill="white"/>
<g clip-path="url(#clip0_1_70402)">
<path d="M0 9.375H74.6667V65.375H0V9.375Z" fill="#00247D"/>
<path d="M0 9.375H37.3333V37.375H0V9.375Z" fill="#012169"/>
<path d="M4.375 9.375L18.6083 19.9333L32.7833 9.375H37.3333V12.9917L23.3333 23.4333L37.3333 33.8167V37.375H32.6667L18.6667 26.9333L4.725 37.375H0V33.875L13.9417 23.4917L0 13.1083V9.375H4.375Z" fill="white"/>
<path d="M24.7333 25.7667L37.3333 35.0417V37.375L21.525 25.7667H24.7333ZM14 26.9333L14.35 28.975L3.15 37.375H0L14 26.9333ZM37.3333 9.375V9.55L22.8083 20.5167L22.925 17.95L34.4167 9.375H37.3333ZM0 9.375L13.9417 19.6417H10.4417L0 11.825V9.375Z" fill="#C8102E"/>
<path d="M14.0583 9.375V37.375H23.3917V9.375H14.0583ZM0 18.7083V28.0417H37.3333V18.7083H0Z" fill="white"/>
<path d="M0 20.6333V26.2333H37.3333V20.6333H0ZM15.925 9.375V37.375H21.525V9.375H15.925Z" fill="#C8102E"/>
<path d="M47.8451 38.8101C46.7937 39.6407 46.0205 40.7721 45.6284 42.0534C44.9634 45.2384 44.0768 45.9501 42.7118 45.2617C42.7118 46.9767 44.2168 47.1051 44.8701 46.1134C44.8701 47.7117 45.4534 49.1001 46.7601 50.2901C47.3201 50.7917 47.4251 50.4534 47.1568 49.8934C46.9001 49.3451 46.9001 47.5601 46.3751 46.5334C47.2151 47.1284 48.4518 46.7901 48.3584 45.1334C47.2734 45.7634 46.2001 45.7401 46.0834 44.2351C45.9551 42.4851 46.6318 39.9184 47.8451 38.8101Z" fill="#F7E017" stroke="black" stroke-width="0.0474683"/>
<path d="M46.5617 26.14C46.6434 25.4983 46.5034 24.8566 46.0367 24.4483C45.1501 23.6666 44.2751 23.9233 43.6217 24.565C42.6534 24.0283 42.1284 25.895 41.0317 25.58C41.2067 26.1866 41.4984 26.4433 42.0584 26.2333C41.4751 26.7583 42.0584 27.4 41.3701 28.03C42.6067 28.4266 43.2601 27.7383 43.2134 26.5483C43.323 26.6493 43.4516 26.7275 43.5918 26.7781C43.732 26.8288 43.8809 26.851 44.0297 26.8434C44.1786 26.8358 44.3244 26.7985 44.4587 26.7338C44.593 26.6692 44.713 26.5783 44.8117 26.4666C44.1584 26.2566 44.1584 25.685 44.4151 25.16C44.8117 24.3666 46.6667 24.4016 46.5617 26.14Z" fill="#F7E017" stroke="black" stroke-width="0.0474683"/>
<path d="M49.4201 35.2867C48.0201 36.0333 45.4767 35.7183 45.2317 33.8867C44.9984 32.0783 46.7601 31.2617 47.2384 31.0283C47.9734 30.655 48.5567 31.32 48.3117 32.0783C49.1284 31.7983 49.3151 30.8417 48.9184 30.2933C50.0034 30.375 50.9951 29.5583 51.4151 28.4033C51.0417 28.7533 50.0151 28.52 49.1634 28.4617C49.4201 28.17 49.4201 27.61 49.3384 27.3183C48.4517 28.24 47.1567 27.82 45.4534 30.4683C45.8537 29.0327 46.2271 27.5896 46.5734 26.14C46.6667 24.39 44.8234 24.3666 44.4267 25.16C44.8584 25.65 44.6251 26.21 44.4734 27.085C44.2867 28.1 43.8901 30.4683 43.5517 31.2617C43.4467 30.025 42.6301 29.9433 42.4784 29.3367C42.2451 29.5 42.1051 29.92 42.1634 30.2117C41.8717 29.8967 40.8684 30.2933 40.4951 29.815C40.1101 30.5966 40.7284 31.39 41.3934 31.74C41.0084 31.7633 40.9267 32.2183 40.4951 32.2183C41.0667 32.8833 41.6501 33.1516 42.3151 33.1983C42.9917 33.245 43.4817 33.5016 43.8901 34.3183C44.5551 35.6367 47.0634 36.4883 49.4201 35.2867Z" fill="#337321" stroke="black" stroke-width="0.0474683"/>
<path d="M52.8968 33.6884C52.1034 35.87 49.9451 37.4217 48.9768 37.655C47.3201 38.0634 43.9368 39.7084 43.0268 40.5484C42.8937 40.5224 42.7669 40.4709 42.6534 40.3967C42.2101 40.0817 41.8368 39.055 42.6301 38.18C45.1034 35.87 47.7634 36.8734 49.4201 35.2867C48.0201 36.0217 45.4768 35.7067 45.2434 33.8867C46.3749 34.1808 47.5652 34.1601 48.6858 33.827C49.8063 33.494 50.8146 32.8611 51.6018 31.9967C52.0812 32.5194 52.5109 33.0858 52.8851 33.6884H52.8968Z" fill="#F7E017" stroke="black" stroke-width="0.0474683"/>
<path d="M47.8451 38.81C46.5967 39.86 45.9551 42.4733 46.0834 44.235C46.1184 44.725 46.2584 45.0517 46.4684 45.2617C46.5617 44.2583 47.2501 41.68 49.0351 40.525C50.5284 39.5567 52.8734 37.375 53.7367 34.8667C53.57 34.4089 53.2424 34.0274 52.8151 33.7933C51.9517 36.15 49.6534 37.2817 47.8451 38.81Z" fill="#337321" stroke="black" stroke-width="0.0474683"/>
<path d="M52.0917 32.6733C51.4713 33.5352 50.6286 34.2126 49.6534 34.6333C49.8374 34.4094 49.9402 34.1298 49.9451 33.84C48.4073 34.2792 46.78 34.2993 45.2318 33.8983C46.3649 34.1946 47.5576 34.1752 48.6804 33.842C49.8033 33.5089 50.8136 32.8747 51.6017 32.0083C51.8015 32.2006 51.9672 32.4255 52.0917 32.6733Z" fill="#316D3A" stroke="black" stroke-width="0.0474683"/>
<path d="M42.6301 38.1916C40.6234 40.0583 41.9534 41.7149 42.7467 42.0766C42.5251 43.3949 43.7617 43.2433 43.7384 44.3399C44.2401 44.0599 44.3684 43.2899 44.2867 42.6833C44.9284 43.3716 46.5267 42.6016 46.8651 43.8733C47.0867 42.4733 46.0017 41.0733 44.6601 41.2133C45.2201 40.7116 44.8934 39.8949 44.3684 39.6849C44.2634 40.7116 43.1084 40.7116 42.6651 40.3849C42.2101 40.0816 41.8484 39.0549 42.6301 38.1799V38.1916Z" fill="#337321" stroke="black" stroke-width="0.0474683"/>
<path d="M46.9817 50.1617C46.7717 50.2783 46.7834 50.57 46.9234 50.745C47.1917 51.1183 46.7251 51.9583 47.6234 52.1333C47.8801 52.1917 48.0901 52.0167 48.1834 51.725C48.4634 50.8967 47.5767 50.8033 47.4951 50.4067C47.4251 50.01 47.1684 50.0567 46.9817 50.1617Z" fill="#F7E017" stroke="black" stroke-width="0.0474683"/>
<path d="M47.7401 51.7133C47.4484 51.8533 47.1801 52.04 47.3084 52.9967C47.3551 53.3817 47.3318 54.3267 46.9818 54.3383C47.1918 54.455 47.6467 54.5717 47.8334 54.315C48.0084 54.6183 48.4167 54.525 48.5684 54.1633C48.7784 54.3267 49.0701 54.0467 49.0701 53.79C49.2451 53.9067 49.6184 53.7433 49.5251 53.1717C49.7584 53.2533 50.0384 53.09 50.1434 52.95C49.8167 52.88 48.9768 52.4367 48.7901 52.0867C48.5918 51.725 48.0901 51.55 47.7401 51.7133Z" fill="#F7E017" stroke="black" stroke-width="0.0474683"/>
<path d="M43.1667 25.09C43.3067 24.9033 43.4584 24.7167 43.6334 24.5533" stroke="black" stroke-width="0.0474683"/>
<path d="M48.1834 28.5784C48.4167 28.45 48.7667 28.4267 49.1634 28.4617" stroke="black" stroke-width="0.0474683"/>
<path d="M47.8334 54.3151C47.7401 54.1867 47.7051 53.6384 47.7634 53.3" stroke="black" stroke-width="0.0474683"/>
<path d="M48.5684 54.1633C48.4167 54.0466 48.1484 53.6616 48.1017 53.335" stroke="black" stroke-width="0.0474683"/>
<path d="M49.0701 53.79C48.7289 53.5232 48.4734 53.1622 48.3351 52.7517" stroke="black" stroke-width="0.0474683"/>
<path d="M49.5251 53.1716C49.3034 53.1249 48.6384 52.6933 48.3584 52.2383" stroke="black" stroke-width="0.0474683"/>
<path d="M61.6584 38.215C64.8901 40.9216 65.1001 43.08 64.6101 44.34C64.3418 43.1616 63.0001 41.3183 61.6001 40.84L61.6584 38.215Z" fill="#F7E017" stroke="black" stroke-width="0.0474683"/>
<path d="M55.8718 36.675H61.8684V43.7917C61.8684 49.8467 58.5084 53.4167 55.0784 55.3184C52.9835 54.2235 51.2377 52.5629 50.0394 50.5252C48.8412 48.4876 48.2386 46.1547 48.3001 43.7917V36.675H52.5001C52.5001 37.0484 52.5468 37.6084 52.9668 38.1567C53.9701 38.0634 55.0901 37.3167 55.8718 36.6867V36.675Z" fill="#337321" stroke="black" stroke-width="0.0474683"/>
<path d="M61.8684 36.675V43.7917C61.8684 45.6117 61.5651 47.2217 61.0517 48.61L55.0667 37.6784L49.1167 48.61C48.5917 47.21 48.2884 45.6117 48.2884 43.7917V36.675H61.8684Z" fill="#006EC7" stroke="black" stroke-width="0.0474683"/>
<path d="M61.2267 48.0967C61.097 48.4922 60.949 48.8815 60.7834 49.2633L55.0667 38.6583L49.3851 49.275C49.2334 48.9483 49.0467 48.4233 48.9417 48.1083L55.0901 36.7217L61.2267 48.0967Z" fill="#F7E017"/>
<path d="M57.7851 51.9934L58.3684 52.2617C58.6696 51.5312 58.7585 50.7305 58.6251 49.9517C58.2868 50.815 57.1318 50.7917 56.8168 51.3167C57.0034 51.41 57.1901 51.55 57.3418 51.655C56.9451 52.0517 56.0234 52.705 55.4984 52.8684V47.2217C55.4984 46.825 55.3584 46.4984 55.3584 46.1717V45.005C55.3584 44.7367 55.3118 44.3517 55.0784 44.3517C54.8451 44.3517 54.7868 44.7367 54.7868 45.005V46.1717C54.7868 46.4984 54.6584 46.8717 54.6584 47.2217V52.8684C54.3668 52.0284 53.2351 52.3084 52.7101 51.4684C52.9166 51.4197 53.1306 51.4118 53.3401 51.445C52.9434 50.1034 51.8584 49.9984 51.6601 49.6017C51.6601 50.1617 51.4268 51.445 51.7884 52.005C51.8701 51.9 51.9984 51.795 52.1384 51.7134C52.5934 52.6817 54.6001 52.6817 55.0784 54.2917C55.4634 53.7084 56.8284 53.0084 57.7851 51.9934Z" fill="#F7E017" stroke="black" stroke-width="0.0474683"/>
<path d="M55.0784 47.2916C55.5218 47.2916 56.9451 47.1516 57.4584 47.1516C57.5984 47.1516 57.7034 46.9416 57.7034 46.6966C57.7034 46.4633 57.5984 46.2533 57.4701 46.2533C56.9451 46.2533 55.5334 46.1133 55.0784 46.1133C54.6351 46.1133 53.2118 46.2533 52.6984 46.2533C52.5584 46.2533 52.4534 46.4516 52.4534 46.6966C52.4534 46.9416 52.5701 47.1516 52.6868 47.1516C53.2118 47.1516 54.6351 47.2916 55.0784 47.2916Z" fill="#F7E017" stroke="black" stroke-width="0.0474683"/>
<path d="M54.7868 44.9817C54.6934 44.9 54.5768 44.865 54.4368 44.865C54.1334 44.865 53.8884 45.075 53.8884 45.3434C53.8884 45.6234 54.1334 45.845 54.4368 45.845C54.7284 45.845 54.9734 45.6117 54.9734 45.3434C54.9734 45.1334 55.2767 45.1334 55.2767 45.3434C55.2767 45.775 54.9034 46.125 54.4368 46.125C53.9701 46.125 53.5851 45.775 53.5851 45.3434C53.5851 44.9234 53.9701 44.5734 54.4368 44.5734C54.5703 44.5766 54.7016 44.6084 54.8218 44.6667C54.8218 44.7367 54.7868 44.865 54.7868 44.9817Z" fill="#F7E017" stroke="black" stroke-width="0.0474683"/>
<path d="M52.6984 47.1516C52.8268 47.1516 52.9318 46.9416 52.9318 46.6966C52.9318 46.4633 52.8268 46.2533 52.6984 46.2533" fill="#F7E017"/>
<path d="M52.6984 47.1516C52.8268 47.1516 52.9318 46.9416 52.9318 46.6966C52.9318 46.4633 52.8268 46.2533 52.6984 46.2533" stroke="black" stroke-width="0.0474683"/>
<path d="M52.8967 47.1516C53.0251 47.1516 53.1301 46.9416 53.1301 46.6966C53.1301 46.4633 53.0251 46.2533 52.8967 46.2533" fill="#F7E017"/>
<path d="M52.8967 47.1516C53.0251 47.1516 53.1301 46.9416 53.1301 46.6966C53.1301 46.4633 53.0251 46.2533 52.8967 46.2533" stroke="black" stroke-width="0.0474683"/>
<path d="M54.1917 47.2334C54.3551 47.2334 54.4834 47 54.4834 46.6967C54.4834 46.405 54.3667 46.16 54.1917 46.16" fill="#F7E017"/>
<path d="M54.1917 47.2334C54.3551 47.2334 54.4834 47 54.4834 46.6967C54.4834 46.405 54.3667 46.16 54.1917 46.16" stroke="black" stroke-width="0.0474683"/>
<path d="M54.4951 47.2567C54.6701 47.2567 54.7984 47.0117 54.7984 46.6967C54.7984 46.3817 54.6701 46.1367 54.4951 46.1367" fill="#F7E017"/>
<path d="M54.4951 47.2567C54.6701 47.2567 54.7984 47.0117 54.7984 46.6967C54.7984 46.3817 54.6701 46.1367 54.4951 46.1367" stroke="black" stroke-width="0.0474683"/>
<path d="M55.5101 47.2683C55.6851 47.2683 55.8134 47.0117 55.8134 46.6967C55.8134 46.3817 55.6734 46.125 55.5101 46.125" fill="#F7E017"/>
<path d="M55.5101 47.2683C55.6851 47.2683 55.8134 47.0117 55.8134 46.6967C55.8134 46.3817 55.6734 46.125 55.5101 46.125" stroke="black" stroke-width="0.0474683"/>
<path d="M55.8251 47.245C55.9884 47.245 56.1284 47.0116 56.1284 46.6966C56.1284 46.3933 55.9884 46.1483 55.8251 46.1483" fill="#F7E017"/>
<path d="M55.8251 47.245C55.9884 47.245 56.1284 47.0116 56.1284 46.6966C56.1284 46.3933 55.9884 46.1483 55.8251 46.1483" stroke="black" stroke-width="0.0474683"/>
<path d="M57.2368 47.1516C57.3768 47.1516 57.4818 46.9533 57.4818 46.6966C57.4818 46.44 57.3768 46.23 57.2484 46.23" fill="#F7E017"/>
<path d="M57.2368 47.1516C57.3768 47.1516 57.4818 46.9533 57.4818 46.6966C57.4818 46.44 57.3768 46.23 57.2484 46.23" stroke="black" stroke-width="0.0474683"/>
<path d="M52.1501 51.7133C52.3018 51.6083 52.5001 51.5266 52.7101 51.48L52.1501 51.7133Z" fill="#F7E017"/>
<path d="M52.1501 51.7133C52.3018 51.6083 52.5001 51.5266 52.7101 51.48" stroke="black" stroke-width="0.0474683"/>
<path d="M57.5051 51.76L57.3417 51.6433L57.5051 51.76Z" fill="#F7E017"/>
<path d="M57.5051 51.76L57.3417 51.6433" stroke="black" stroke-width="0.0474683"/>
<path d="M57.7851 51.9933C58.1584 51.5966 58.4618 51.1416 58.6368 50.6283L57.7851 51.9933Z" fill="#F7E017"/>
<path d="M57.7851 51.9933C58.1584 51.5966 58.4618 51.1416 58.6368 50.6283" stroke="black" stroke-width="0.0474683"/>
<path d="M53.8768 41.7149C53.8768 41.5749 53.9818 41.5283 54.1101 41.4349C54.2501 41.3183 54.3084 41.2716 54.4484 41.2716H56.1751C56.2918 41.2716 56.3268 41.3066 56.3268 41.4233V43.7566C56.3268 43.8733 56.3034 43.9199 56.1751 43.9199H53.8768V41.6799" fill="white"/>
<path d="M53.8768 41.7149C53.8768 41.5749 53.9818 41.5283 54.1101 41.4349C54.2501 41.3183 54.3084 41.2716 54.4484 41.2716H56.1751C56.2918 41.2716 56.3268 41.3066 56.3268 41.4233V43.7566C56.3268 43.8733 56.3034 43.9199 56.1751 43.9199H53.8768V41.6799" stroke="black" stroke-width="0.0474683"/>
<path d="M55.7434 44.1183C55.9768 44.1183 55.9301 44.1183 56.0934 43.955C56.2568 43.7917 56.2451 43.8033 56.2451 43.6517V41.505C56.2451 41.3883 56.2101 41.365 56.0934 41.365H54.4951C54.3784 41.365 54.3201 41.4117 54.1801 41.5167C54.0634 41.61 53.9701 41.6567 53.9701 41.7733V44.1183H55.7434Z" fill="#E5E5E5" stroke="black" stroke-width="0.0474683"/>
<path d="M55.9184 44.0716C55.9184 44.1883 55.8834 44.2233 55.7551 44.2233H54.0284C53.9001 44.2233 53.8768 44.1883 53.8768 44.0716V41.7266C53.8768 41.6099 53.9001 41.575 54.0284 41.575H55.7551C55.8834 41.575 55.9184 41.6099 55.9184 41.7266V44.0716Z" fill="white" stroke="black" stroke-width="0.0474683"/>
<path d="M59.2667 35.3099C59.5934 35.6833 59.7101 36.1849 59.5234 36.6866H59.0334C59.2434 36.0449 59.1151 35.4499 58.2167 35.3683C56.8867 35.2516 55.3234 37.8416 52.9784 38.1566C52.3017 37.3399 52.3367 35.7883 53.2117 35.0533C52.7614 33.8103 52.0582 32.6742 51.1467 31.7166C50.7343 31.6488 50.3162 31.6214 49.8984 31.6349C50.2484 30.8883 51.2167 30.1183 52.0101 29.8033C52.1362 29.6238 52.2685 29.4487 52.4067 29.2783C52.4884 28.2633 57.3067 28.7299 58.3217 29.3599C58.3217 30.5033 58.7767 34.2833 59.2784 35.3099H59.2667Z" fill="#96877D" stroke="black" stroke-width="0.0474683"/>
<path d="M53.4334 35.9983C53.3167 34.2483 52.6051 32.8016 51.6017 31.8216C51.9574 31.9063 52.3265 31.9189 52.6871 31.8588C53.0478 31.7987 53.3927 31.6671 53.7017 31.4716C54.5767 30.8883 56.8517 29.885 57.6684 30.3166C57.7384 30.4683 57.7851 30.7833 57.7267 31.005C57.5284 30.48 55.3467 31.285 54.7284 31.5416C54.1451 31.81 53.8767 32.1833 54.0867 33.0116C53.7367 32.72 53.8534 32.4516 53.5034 32.2416C53.6434 32.58 53.7601 33.1983 53.8067 33.7C53.6667 33.35 53.4334 32.58 52.9201 32.125C53.4608 33.4062 53.6849 34.7988 53.5734 36.185C53.9234 36.185 54.7167 35.835 55.0201 35.6016C54.7517 35.9866 53.9467 36.2666 53.4451 36.3716C53.189 36.7848 53.0555 37.2622 53.0601 37.7483C53.0251 37.2583 53.1767 36.08 53.4217 35.9983H53.4334Z" fill="black"/>
<path d="M59.2667 35.31C58.8234 34.82 58.0184 34.5633 56.9801 34.8433C57.2319 34.7202 57.4985 34.63 57.7734 34.575C57.7384 34.3067 57.4934 33.1167 57.4467 32.825L57.7384 32.7083C57.8901 33.42 58.0651 34.2367 58.1817 34.575C58.2751 34.5867 58.4851 34.6333 58.6717 34.7267C58.5901 34.4467 58.1467 32.4633 58.1584 32.2533L58.5551 32.0433C58.6745 33.1536 58.9091 34.2483 59.2551 35.31H59.2667Z" fill="black"/>
<path d="M59.0334 36.6749C59.2318 36.0566 59.1034 35.4499 58.2168 35.3683C57.5168 35.3099 56.7701 35.9866 55.8834 36.6866L59.0334 36.6749Z" fill="#96877D" stroke="black" stroke-width="0.0474683"/>
<path d="M53.2117 31.0167C52.6305 31.0546 52.0469 30.9954 51.4851 30.8417C51.5084 30.7251 51.5551 30.6084 51.6134 30.4684C51.2532 30.6935 50.9204 30.9598 50.6217 31.2617C51.2517 31.4017 52.5584 31.4601 53.2117 31.0167Z" fill="#96877D" stroke="black" stroke-width="0.0474683"/>
<path d="M53.2001 35.0416C53.3401 35.4733 53.4334 35.8816 53.4451 36.2433" stroke="black" stroke-width="0.0474683"/>
<path d="M51.9984 29.8033C51.7651 30.1533 51.5551 30.5267 51.4851 30.8533C52.0485 30.9979 52.6312 31.053 53.2117 31.0167" stroke="black" stroke-width="0.0474683"/>
<path d="M51.1467 31.7167C51.3101 31.7517 51.4734 31.775 51.6134 31.8217C52.0801 31.95 53.0484 31.95 53.7134 31.4717C54.3667 31.005 56.1634 29.5234 58.1817 29.3717" stroke="black" stroke-width="0.0474683"/>
<path d="M50.6217 31.2617C51.2517 31.4017 52.5584 31.46 53.2117 31.0167C54.5182 30.0406 56.0682 29.4432 57.6917 29.29" stroke="black" stroke-width="0.0474683"/>
<path d="M61.6584 38.215C63.8751 39.7316 65.5084 41.2133 65.9751 43.5816C66.4418 45.95 67.3401 46.58 68.4484 45.95C68.1918 47.315 66.8151 47.4666 65.6601 46.4166C65.7767 48.0033 65.1351 49.8933 63.5017 50.5816C63.3967 49.6366 64.0267 48.8783 63.8517 48.1083C63.7701 47.7583 63.7351 46.9766 64.1901 46.6033C63.3151 46.895 61.9501 46.3466 61.8218 45.0516C62.8251 45.5183 64.1084 45.6 64.6101 44.34C65.1001 43.08 64.8901 40.9216 61.6584 38.215Z" fill="#337321" stroke="black" stroke-width="0.0474683"/>
<path d="M64.4467 25.895C65.1351 24.11 66.9201 24.2967 67.5267 25.055C69.2884 24.0517 69.5334 26.315 71.0267 25.8717C71.0034 26.2917 70.5017 26.6883 69.9534 26.6533C70.5367 27.1783 69.7201 27.9717 70.9451 28.45C69.8951 28.975 68.4251 28.4267 68.0284 26.9683C67.6784 27.6567 66.4534 27.6567 65.9517 27.1083C67.0251 26.8167 66.9551 25.825 66.3484 25.4167C65.7301 25.02 64.6567 25.1833 64.4467 25.895Z" fill="#337321" stroke="black" stroke-width="0.0474683"/>
<path d="M59.1151 29.8383C59.6223 31.3912 60.5179 32.7887 61.7167 33.8983C62.9767 35.065 64.8784 34.7617 65.9517 33.665C65.9751 35.8583 63.6884 36.0333 62.4284 35.345C61.8684 35.0417 61.4134 35.1933 61.9501 35.695C62.7667 36.4183 64.5517 36.9783 66.6634 37.4217C70.3384 38.215 69.0317 41.1317 67.9467 41.1083C68.2617 41.1083 68.5184 40.77 68.0634 40.3733C64.8667 37.4917 58.3801 38.6233 58.4734 32.2067C57.7967 33.8983 54.9734 33.2333 56.2917 31.2383C56.7117 31.5767 57.4584 31.6 57.6567 31.075C57.8201 30.6667 57.7151 29.955 56.9801 29.3367C57.0967 29.3367 57.3651 29.3367 57.3301 29.0333C57.3651 29.22 57.5284 29.4767 57.9484 29.3833C58.0651 29.5817 58.1817 29.6983 58.3567 29.6283C58.3917 29.6283 58.4851 29.57 58.4501 29.3833C58.4734 29.7333 58.8934 29.8617 59.1151 29.8383Z" fill="#337321" stroke="black" stroke-width="0.0474683"/>
<path d="M62.4168 35.345C63.9451 36.3367 65.6834 36.3367 67.2584 34.505C67.7601 33.9217 68.5417 33.42 69.1018 33.3733C69.6618 33.315 69.6268 32.79 70.0468 32.6733C69.7901 32.6033 69.6851 32.2883 69.2884 32.3233C70.2801 31.985 69.9884 31.1917 70.4668 30.8067C70.0701 30.9583 69.4634 30.375 68.8918 31.1217C69.0434 30.7717 68.8334 30.375 68.6934 30.2117C68.7517 30.6083 67.9234 30.6783 67.7601 31.6817C67.6784 32.2417 67.3634 32.2183 67.3168 31.3433C67.2818 30.7133 66.9668 28.9517 66.6168 28.0533C66.2434 27.1667 66.1501 25.93 66.6518 25.755C66.5797 25.6224 66.4754 25.51 66.3484 25.4283C65.7301 25.0317 64.6568 25.195 64.4468 25.895C63.7701 27.6917 65.6834 28.7183 65.5318 30.6667C65.2401 29.22 62.8951 28.8467 62.9184 27.4233C62.1601 27.7733 62.2651 28.4033 62.5568 28.905C62.0901 28.17 61.0051 29.3717 60.0834 28.38C59.9668 29.6983 61.1334 30.1883 62.0784 30.2467C61.6117 31.0867 62.2418 31.7983 62.8718 32.0317C62.8951 30.5617 65.9168 31.1567 65.9518 33.6883C65.9751 35.8467 63.6534 36.0217 62.4168 35.345Z" fill="#F7E017" stroke="black" stroke-width="0.0474683"/>
<path d="M66.6634 37.4216C70.3384 38.215 69.0318 41.1316 67.9468 41.1083C67.2584 41.085 66.6051 40.5133 66.5701 40.0116C65.7768 40.4316 65.9868 41.26 66.5934 41.5866C64.9368 41.4 64.2368 42.485 64.2018 43.6866C64.5051 43.1266 65.4151 43.1033 65.7651 43.22C66.1151 43.3366 66.9901 43.395 67.3401 42.9866C67.0484 43.2433 67.5268 43.8266 67.1068 44.27C68.5068 44.2233 69.1018 42.9283 68.8568 42.3683C70.6534 40.735 70.3151 38.075 66.6634 37.4216Z" fill="#F7E017" stroke="black" stroke-width="0.0474683"/>
<path d="M63.8517 49.9284C64.0851 50.0684 64.0618 50.395 63.8984 50.5934C63.5718 50.99 64.0618 51.935 63.0584 52.11C62.7668 52.145 62.5451 51.9584 62.4517 51.62C62.1717 50.6867 63.1634 50.6167 63.2684 50.185C63.3851 49.7417 63.6534 49.8 63.8517 49.9284Z" fill="#F7E017" stroke="black" stroke-width="0.0474683"/>
<path d="M62.9534 51.62C63.2684 51.7833 63.5484 52.0167 63.3851 53.0667C63.3034 53.4983 63.2918 54.56 63.6768 54.5833C63.4434 54.7 62.9301 54.805 62.7434 54.525C62.5218 54.8517 62.0784 54.735 61.9268 54.315C61.6701 54.5017 61.3668 54.1633 61.3784 53.8833C61.1684 54 60.7601 53.8017 60.8884 53.1833C60.6318 53.2533 60.3168 53.0667 60.2118 52.9033C60.5734 52.8333 61.5184 52.3783 61.7634 51.9933C61.9968 51.5967 62.5801 51.4333 62.9534 51.62Z" fill="#F7E017" stroke="black" stroke-width="0.0474683"/>
<path d="M62.7318 54.525C62.8484 54.385 62.9068 53.7666 62.8484 53.3933" stroke="black" stroke-width="0.0474683"/>
<path d="M61.9151 54.315C62.0901 54.1983 62.4051 53.79 62.4751 53.4166" stroke="black" stroke-width="0.0474683"/>
<path d="M61.3668 53.8834C61.7555 53.5951 62.0548 53.2028 62.2301 52.7517" stroke="black" stroke-width="0.0474683"/>
<path d="M60.8884 53.1833C61.1217 53.1366 61.8917 52.6816 62.2184 52.1799" stroke="black" stroke-width="0.0474683"/>
<path d="M58.4734 32.2184C58.4268 34.9017 59.5468 36.2784 61.1101 37.165C60.5268 36.815 60.7834 35.6367 60.0018 35.2517C60.1884 35.2401 60.4684 35.4967 60.9351 35.3917C60.7018 34.9017 60.3518 34.1317 59.4884 34.0267C59.7218 34.0034 60.1884 34.0851 60.5151 33.9684C60.0718 33.2684 58.8818 33.6067 58.4734 32.2184Z" fill="#F7E017" stroke="black" stroke-width="0.0474683"/>
<path d="M58.1934 29.6517C58.1001 29.6167 58.0184 29.5234 57.9484 29.395C57.5284 29.4884 57.3651 29.22 57.3301 29.045C57.3651 29.3484 57.0967 29.3367 56.9801 29.3484C57.7151 29.955 57.8201 30.6667 57.6567 31.075C57.4467 31.6 56.7234 31.5767 56.2917 31.2384C56.2334 32.3584 57.6917 32.72 58.2167 31.32C58.2167 31.5534 58.5201 31.53 58.5901 31.845C58.9634 31.2384 58.6834 30.3634 58.1934 29.6517Z" fill="#F7E017" stroke="black" stroke-width="0.0474683"/>
<path d="M55.8834 24.3084C55.2942 23.7249 54.9588 22.9326 54.9501 22.1034C54.9734 21.52 55.2068 20.9017 56.0584 21.17C55.7901 21.17 55.9768 21.6834 55.7084 21.7417C55.9184 21.8234 56.2217 21.6367 56.2684 21.5084C56.3151 21.695 56.6651 21.6484 56.6884 21.8584C56.8167 21.7534 56.6768 21.24 56.4784 21.135C56.6184 21.0534 56.7118 20.645 56.6418 20.4467C56.5018 20.47 56.3034 20.6567 56.2684 20.925C56.3384 20.715 56.2568 20.19 55.8834 20.1084C55.7784 20.2484 55.7551 20.61 55.8951 20.8084C55.5568 20.7267 55.0551 20.9484 54.9384 21.24C54.9617 20.89 55.0084 20.3884 55.2301 20.0734C55.3001 19.98 55.1134 19.7934 54.9851 20.0384C54.7284 19.5367 54.0518 19.28 53.7368 19.525C53.4334 19.7817 53.0367 19.4084 52.7801 19.805C52.5351 20.2017 51.6834 20.2367 51.7301 20.6567C51.7534 20.9134 51.6951 21.2984 51.5668 21.4384C51.2634 21.7767 51.7184 22.0217 51.8001 22.325C51.7418 21.3334 53.3284 19.385 54.9267 20.1434C54.733 20.5691 54.6259 21.0291 54.6118 21.4967C54.5418 22.395 54.6818 23.655 55.5451 24.4017L55.8834 24.3084Z" fill="#337321" stroke="black" stroke-width="0.0474683"/>
<path d="M56.3501 21.17C56.3501 20.9367 56.7584 20.6217 57.3068 20.6334C57.9718 20.6334 58.4734 21.24 59.0101 21.1817C59.5468 21.1234 59.2901 21.415 59.1734 21.5084C59.0568 21.5784 58.9984 21.695 59.0334 21.8467C59.0684 21.9867 59.0101 22.08 58.8001 21.9517C58.3218 21.6484 57.8434 22.0684 57.2134 21.835C56.6884 21.6367 56.3734 21.52 56.3501 21.17Z" fill="#C8102E" stroke="black" stroke-width="0.0474683"/>
<path d="M53.6434 27.3883C53.2951 26.5609 52.6788 25.8747 51.8934 25.44L51.8701 24.9966C52.2988 24.7521 52.6947 24.4542 53.0484 24.11C55.0318 25.0433 57.7151 23.7133 58.9518 22.325L59.4184 22.605L59.1851 22.92L58.9401 22.7916C58.3943 23.3905 57.8013 23.9445 57.1668 24.4483C57.6218 24.565 58.2518 24.6466 58.4268 24.635C59.5234 23.8416 60.3984 23.13 60.8184 23.0833L61.1684 23.55L60.8534 23.7833L60.6084 23.6316C59.2728 24.9006 58.2297 26.4453 57.5518 28.1583C56.8168 27.995 54.1801 28.1 53.6434 27.3883Z" fill="#96877D" stroke="black" stroke-width="0.0474683"/>
<path d="M57.1667 24.4483C56.9917 24.4017 56.8401 24.355 56.7584 24.3083C56.3346 24.5708 55.8453 24.7083 55.3467 24.705" stroke="black" stroke-width="0.0474683"/>
<path d="M53.7484 27.0967C53.5734 26.1167 53.8651 25.02 54.3551 24.6933C54.9726 25.0552 55.6775 25.2411 56.3932 25.2308C57.1089 25.2205 57.8082 25.0145 58.4151 24.635" stroke="black" stroke-width="0.0474683"/>
<path d="M53.7484 26.5833C54.5884 26.56 56.4317 26.7 56.8634 26.7583C57.3184 26.8283 58.0651 27.015 57.9601 27.2366" stroke="black" stroke-width="0.0474683"/>
<path d="M54.1334 26.4433L54.3784 26.21L54.1451 25.965L53.9001 26.1983L54.1334 26.4433Z" stroke="black" stroke-width="0.0474683"/>
<path d="M54.7168 21.5433C54.4134 21.1233 53.5734 20.9833 53.3984 21.5433C53.3168 21.8 53.2001 22.0683 53.0018 22.185C52.8034 22.3016 52.8501 22.6633 52.9318 22.815C53.1418 23.2 52.9551 23.5733 53.3634 23.8183C53.3634 23.515 53.8184 23.2 54.1918 23.1183C54.5768 23.0483 55.1601 22.6983 55.2418 22.325C55.3118 21.9283 55.4518 21.625 54.7168 21.5433Z" fill="#337321" stroke="black" stroke-width="0.0474683"/>
<path d="M52.8151 25.335H52.9317V26.0466L52.9901 26.0816L53.6084 25.7316L53.6667 25.8133L53.0367 26.175V26.245L53.6667 26.595L53.6084 26.6883L52.9784 26.3383C52.9667 26.35 52.9434 26.3733 52.9201 26.3733V27.0966H52.8151V26.3733C52.794 26.3645 52.7744 26.3527 52.7567 26.3383L52.1384 26.7L52.0801 26.6066L52.6984 26.2566V26.175L52.0801 25.825L52.1384 25.7316L52.7567 26.0816L52.8151 26.0466V25.335Z" fill="#96877D" stroke="black" stroke-width="0.0474683"/>
<path d="M53.7484 27.0849C53.5697 27.266 53.3399 27.388 53.0899 27.4348C52.8398 27.4816 52.5814 27.4509 52.3493 27.3468C52.1172 27.2427 51.9224 27.0701 51.7911 26.8523C51.6598 26.6344 51.5981 26.3816 51.6144 26.1277C51.6308 25.8739 51.7243 25.631 51.8824 25.4318C52.0406 25.2325 52.2558 25.0863 52.4993 25.0128C52.7429 24.9392 53.0031 24.9418 53.2451 25.0203C53.4871 25.0987 53.6993 25.2492 53.8534 25.4516C53.78 25.6668 53.7329 25.8901 53.7134 26.1166C53.6976 25.9526 53.6346 25.7967 53.5319 25.6677C53.4293 25.5388 53.2914 25.4425 53.1351 25.3903C52.9787 25.3382 52.8106 25.3326 52.6512 25.3741C52.4917 25.4156 52.3477 25.5025 52.2366 25.6242C52.1255 25.746 52.0521 25.8973 52.0254 26.0599C51.9986 26.2225 52.0196 26.3894 52.0857 26.5403C52.1519 26.6912 52.2605 26.8197 52.3982 26.9102C52.5359 27.0006 52.697 27.0492 52.8618 27.0499C53.2584 27.0499 53.5968 26.7816 53.7018 26.4199C53.7018 26.5833 53.7018 26.9566 53.7484 27.0849Z" fill="#96877D" stroke="black" stroke-width="0.0474683"/>
<path d="M52.3368 28.275C52.2668 28.1816 52.1151 27.925 52.1384 27.75C52.3021 27.7546 52.459 27.8166 52.5818 27.925C52.5701 27.785 52.5118 27.505 52.5468 27.365C52.6868 27.4233 52.9901 27.5983 53.0951 27.785C53.0718 27.6566 53.0134 27.3183 53.0718 27.1083C53.2234 27.2016 53.4918 27.4466 53.5384 27.6216C53.5618 27.3533 53.6551 26.9216 53.7251 26.805C53.8418 26.9216 54.0284 27.0383 54.1451 27.2016C54.1684 26.98 54.2851 26.735 54.4368 26.6766C54.5534 26.7933 54.7401 27.1083 54.7868 27.4466C54.9034 27.4116 55.0551 27.2133 55.1251 27.0966C55.1834 27.2133 55.2534 27.3883 55.2068 27.6216C55.3584 27.4816 55.5334 27.3066 55.5568 27.1433C55.6734 27.225 55.8718 27.4233 55.9184 27.6333C55.8951 27.4583 55.9184 27.155 55.8601 26.98C56.0468 27.0966 56.2101 27.2716 56.2451 27.47C56.3034 27.2833 56.4201 26.9566 56.5251 26.8866C56.6301 27.0966 56.7351 27.3533 56.7234 27.5516C56.7934 27.4233 56.8868 27.1783 56.9918 27.1316C57.0851 27.2716 57.0734 27.5983 57.0501 27.7616C57.1434 27.6333 57.3184 27.47 57.4234 27.4116C57.4234 27.505 57.4468 27.6566 57.4234 27.7733C57.591 27.601 57.7185 27.3939 57.7968 27.1666C57.9834 27.26 58.1701 27.575 58.1818 27.7383C58.3218 27.68 58.5784 27.4466 58.6484 27.3183C58.6484 27.4116 58.6951 27.6683 58.6484 27.855C58.7301 27.7733 58.8001 27.6216 58.8468 27.5516C58.8934 27.68 58.8468 27.995 58.8001 28.17C58.9105 28.0711 59.0494 28.0099 59.1968 27.995C59.1634 28.3152 59.0641 28.625 58.9051 28.905C57.6451 28.555 54.9968 28.4266 52.3368 28.275Z" fill="#337321" stroke="black" stroke-width="0.0474683"/>
<path d="M56.7467 21.31C56.7467 21.205 56.9567 20.995 57.3417 20.995C57.8084 20.995 58.2401 21.345 58.6134 21.31C58.9867 21.2867 58.8001 21.415 58.7301 21.4383C58.6367 21.4733 58.6017 21.52 58.6134 21.5783C58.6484 21.6483 58.6134 21.6833 58.4501 21.625C58.1234 21.5083 57.7851 21.6717 57.3534 21.5783C56.9801 21.4967 56.7584 21.4617 56.7467 21.31Z" fill="#F7E017"/>
<path d="M52.7451 29.0683C52.3601 29.535 51.9634 29.465 51.8818 29.1617C51.8001 28.8583 52.0918 28.7183 51.9868 28.45C51.8818 28.1817 52.1618 28.065 52.2901 28.1817C52.4184 28.2983 52.8501 27.925 53.0251 28.3217C53.2118 28.7183 53.3518 28.9867 53.2584 29.1383C53.1418 29.3017 52.8268 29.22 52.7451 29.0683Z" fill="#F7E017" stroke="black" stroke-width="0.0474683"/>
<path d="M54.4484 28.3567C54.3784 28.1817 54.7867 27.8434 54.9967 28.0884C55.2067 28.3217 55.5334 27.8317 55.7201 28.205C55.9067 28.5784 55.9534 28.7767 56.0584 28.9867C56.1401 29.1967 55.5567 29.3017 55.3701 29.1267C55.3934 29.2434 54.8567 29.3484 54.7167 28.9867L54.4484 28.3567Z" fill="#F7E017" stroke="black" stroke-width="0.0474683"/>
<path d="M57.1784 28.5783C57.0851 28.3916 57.5634 28.1233 57.8201 28.4616C57.8784 28.3216 58.3567 28.2983 58.3917 28.695L58.4501 29.5C58.4617 29.6516 58.1584 29.8033 57.9484 29.395C57.5517 29.4766 57.3767 29.255 57.3301 29.0333C57.2834 28.8 57.2367 28.6833 57.1784 28.5666V28.5783Z" fill="#F7E017" stroke="black" stroke-width="0.0474683"/>
<path d="M53.0018 28.31C52.9434 28.1816 53.3518 27.9133 53.6084 28.1116C53.8768 28.31 54.2501 27.9483 54.4251 28.2983C54.7401 29.0216 54.7518 29.0683 54.6584 29.2083C54.5651 29.3483 54.1334 29.29 54.0284 29.0916C54.0168 29.2316 53.6434 29.2083 53.4568 29.1033C53.2468 28.9866 53.0951 28.5433 53.0018 28.31Z" fill="#337321" stroke="black" stroke-width="0.0474683"/>
<path d="M55.7667 28.345C55.6851 28.135 56.3034 27.96 56.5834 28.3217C56.7117 28.1933 57.0151 28.1817 57.1784 28.5783C57.3534 28.9633 57.3767 29.1733 57.2601 29.2783C57.1667 29.3483 56.8517 29.395 56.7467 29.22C56.5951 29.3133 56.1517 29.2317 56.0467 28.9867C55.9534 28.7417 55.8717 28.52 55.7784 28.345H55.7667Z" fill="#337321" stroke="black" stroke-width="0.0474683"/>
<path d="M58.3918 28.7417C58.3918 28.5434 58.7184 28.4617 58.8468 28.7417C58.9634 28.9984 59.3718 28.7534 59.4068 29.2084C59.4068 29.29 59.3601 29.6167 59.2318 29.78C59.1151 29.9317 58.4968 29.78 58.4501 29.4417L58.3918 28.7417Z" fill="#337321" stroke="black" stroke-width="0.0474683"/>
<path d="M52.7451 29.0683C52.6051 28.87 52.4067 28.555 52.1617 28.8933" stroke="black" stroke-width="0.0474683"/>
<path d="M54.0401 29.0917C53.9467 28.9867 53.8417 28.8 53.8067 28.66" stroke="black" stroke-width="0.0474683"/>
<path d="M55.3701 29.1267C55.2767 29.0567 55.1367 28.9283 55.0667 28.7883" stroke="black" stroke-width="0.0474683"/>
<path d="M55.2534 28.4384C55.4868 28.4617 55.6384 28.6717 55.7084 28.7767C55.7784 28.87 55.9418 29.0567 56.0584 29.0684" stroke="black" stroke-width="0.0474683"/>
<path d="M56.7467 29.22C56.6651 29.1033 56.5834 28.9866 56.5717 28.8933" stroke="black" stroke-width="0.0474683"/>
<path d="M56.5834 28.3217C56.6534 28.4383 56.7117 28.52 56.7584 28.625" stroke="black" stroke-width="0.0474683"/>
<path d="M57.9368 29.3949C57.8471 29.2073 57.7054 29.0493 57.5284 28.9399" stroke="black" stroke-width="0.0474683"/>
<path d="M57.8901 28.6716C57.9017 29.0566 58.4151 29.0916 58.4384 29.3716" stroke="black" stroke-width="0.0474683"/>
<path d="M58.8467 28.7417C58.8934 28.835 58.9167 28.9284 58.9167 29.0917" stroke="black" stroke-width="0.0474683"/>
</g>
<defs>
<clipPath id="clip0_1_70402">
<rect width="74.6667" height="56" fill="white" transform="translate(0 9.375)"/>
</clipPath>
</defs>
</svg>
