<svg width="75" height="75" viewBox="0 0 75 75" fill="none" xmlns="http://www.w3.org/2000/svg">
<rect width="74.6667" height="74.75" fill="white"/>
<g clip-path="url(#clip0_1_71195)">
<path d="M29.8668 9.375H74.6668V65.375H29.8668V9.375Z" fill="#FF0000"/>
<path d="M0 9.375H29.8667V65.375H0V9.375Z" fill="#006600"/>
<path fill-rule="evenodd" clip-rule="evenodd" d="M39.6085 45.0983C35.8402 44.9817 18.6085 34.225 18.4919 32.4983L19.4369 30.9233C21.1519 33.4083 38.7686 43.8733 40.5069 43.5L39.6085 45.0983Z" fill="#FFFF00" stroke="black" stroke-width="0.07" stroke-linecap="round" stroke-linejoin="round"/>
<path fill-rule="evenodd" clip-rule="evenodd" d="M19.2385 30.7017C18.9002 31.6117 23.7418 34.5984 29.5518 38.145C35.3735 41.68 40.3902 43.8617 40.7518 43.5584L40.9268 43.2317C40.8568 43.3484 40.6935 43.3834 40.4252 43.3017C38.8502 42.8467 34.7552 40.9684 29.6802 37.8884C24.5935 34.8084 20.1835 31.9734 19.4952 30.7717C19.4415 30.659 19.4174 30.5346 19.4252 30.41H19.4018L19.2618 30.6667L19.2385 30.7017ZM39.6902 45.145C39.6318 45.2617 39.5035 45.2617 39.2818 45.2384C37.8818 45.0867 33.6118 43.01 28.5602 39.9884C22.6802 36.465 17.8268 33.2684 18.3635 32.4284L18.5035 32.1717L18.5268 32.1834C18.0602 33.6067 28.1052 39.3467 28.7002 39.72C34.5102 43.3134 39.4102 45.425 39.8418 44.8767L39.6902 45.145Z" fill="#FFFF00" stroke="black" stroke-width="0.07" stroke-linecap="round" stroke-linejoin="round"/>
<path fill-rule="evenodd" clip-rule="evenodd" d="M29.8902 33.5483C33.6469 33.5133 38.2902 33.035 40.9736 31.9617L40.3902 31.0283C38.8152 31.9033 34.1486 32.4867 29.8552 32.5683C24.7919 32.5217 21.2102 32.0433 19.4136 30.8417L18.8769 31.845C22.1669 33.245 25.5502 33.5367 29.8902 33.5483Z" fill="#FFFF00"/>
<path d="M29.8902 33.5483C33.6469 33.5133 38.2902 33.035 40.9736 31.9617L40.3902 31.0283C38.8152 31.9033 34.1486 32.4867 29.8552 32.5683C24.7919 32.5217 21.2102 32.0433 19.4136 30.8417L18.8769 31.845C22.1669 33.245 25.5502 33.5367 29.8902 33.5483" stroke="black" stroke-width="0.07" stroke-linecap="round" stroke-linejoin="round"/>
<path fill-rule="evenodd" clip-rule="evenodd" d="M41.1252 31.985C41.0319 32.1367 39.2819 32.7317 36.7152 33.175C34.4526 33.5179 32.167 33.6856 29.8786 33.6767C27.686 33.6849 25.4955 33.5446 23.3219 33.2567C20.6269 32.8367 19.2386 32.2534 18.7136 32.0434L18.8419 31.7867C20.3236 32.37 21.7236 32.72 23.3569 32.9767C25.5146 33.268 27.6896 33.4123 29.8669 33.4084C32.1434 33.4107 34.417 33.2431 36.6686 32.9067C39.2936 32.475 40.7286 31.9267 40.9386 31.6817L41.1252 31.9967V31.985ZM40.6119 31.04C40.3319 31.2734 38.9086 31.775 36.4119 32.1717C34.2559 32.4836 32.0803 32.6396 29.9019 32.6384C27.3352 32.6384 25.2236 32.4517 23.6252 32.2184C21.0819 31.8917 19.7286 31.285 19.2386 31.1217L19.3902 30.865C19.7752 31.0634 21.0702 31.5884 23.6486 31.95C25.7212 32.2277 27.8108 32.3602 29.9019 32.3467C32.0648 32.3474 34.2249 32.1914 36.3652 31.88C38.8736 31.53 40.2269 30.9 40.4369 30.7367L40.6119 31.04ZM17.5352 38.075C19.8452 39.3234 24.9902 39.9417 29.8552 39.9884C34.2886 40 40.0519 39.3117 42.2102 38.1684L42.1519 36.92C41.4752 37.97 35.2919 38.985 29.8086 38.95C24.3252 38.9034 19.2269 38.0634 17.5236 36.9667V38.075" fill="#FFFF00"/>
<path d="M17.5352 38.075C19.8452 39.3234 24.9902 39.9417 29.8552 39.9884C34.2886 40 40.0519 39.3117 42.2102 38.1684L42.1519 36.92C41.4752 37.97 35.2919 38.985 29.8086 38.95C24.3252 38.9034 19.2269 38.0634 17.5236 36.9667V38.075M41.1252 31.985C41.0319 32.1367 39.2819 32.7317 36.7152 33.175C34.4526 33.5179 32.167 33.6856 29.8786 33.6767C27.686 33.6849 25.4955 33.5446 23.3219 33.2567C20.6269 32.8367 19.2386 32.2534 18.7136 32.0434L18.8419 31.7867C20.3236 32.37 21.7236 32.72 23.3569 32.9767C25.5146 33.268 27.6896 33.4123 29.8669 33.4084C32.1434 33.4107 34.417 33.2431 36.6686 32.9067C39.2936 32.475 40.7286 31.9267 40.9386 31.6817L41.1252 31.9967V31.985ZM40.6119 31.04C40.3319 31.2734 38.9086 31.775 36.4119 32.1717C34.2559 32.4836 32.0803 32.6396 29.9019 32.6384C27.3352 32.6384 25.2236 32.4517 23.6252 32.2184C21.0819 31.8917 19.7286 31.285 19.2386 31.1217L19.3902 30.865C19.7752 31.0634 21.0702 31.5884 23.6486 31.95C25.7212 32.2277 27.8108 32.3602 29.9019 32.3467C32.0648 32.3474 34.2249 32.1914 36.3652 31.88C38.8736 31.53 40.2269 30.9 40.4369 30.7367L40.6119 31.04V31.04Z" stroke="black" stroke-width="0.07" stroke-linecap="round" stroke-linejoin="round"/>
<path fill-rule="evenodd" clip-rule="evenodd" d="M42.3269 37.9V38.1917C42.0002 38.5883 39.9702 39.1717 37.4269 39.5917C34.9001 39.9549 32.3495 40.1265 29.7969 40.105C27.3764 40.1256 24.958 39.9579 22.5635 39.6033C20.7769 39.3969 19.031 38.925 17.3835 38.2033V37.865C18.5152 38.6117 21.5719 39.1717 22.5985 39.335C24.4419 39.615 26.8102 39.825 29.7969 39.825C32.9352 39.825 35.4435 39.6033 37.3802 39.3117C39.2119 39.0433 41.8135 38.355 42.3269 37.9ZM42.3269 36.85V37.1417C42.0002 37.5267 39.9702 38.11 37.4269 38.53C34.9004 38.8971 32.3498 39.0726 29.7969 39.055C27.3766 39.0693 24.9587 38.9016 22.5635 38.5533C20.7769 38.3469 19.031 37.875 17.3835 37.1533V36.8033C18.5152 37.5617 21.5835 38.11 22.5985 38.2733C24.9818 38.6225 27.3882 38.7902 29.7969 38.775C32.9352 38.775 35.4552 38.5417 37.3802 38.25C39.2119 37.9933 41.8135 37.305 42.3269 36.85ZM29.8435 44.8767C24.5235 44.8533 19.9619 43.43 18.9935 43.1967L19.6935 44.2933C22.9659 45.4523 26.4191 46.0173 29.8902 45.9617C33.9385 45.845 37.4735 45.53 39.9585 44.3167L40.6819 43.1733C38.9902 43.9783 33.2152 44.8767 29.8319 44.8767" fill="#FFFF00"/>
<path d="M29.8435 44.8767C24.5235 44.8533 19.9619 43.43 18.9935 43.1967L19.6935 44.2933C22.9659 45.4523 26.4191 46.0173 29.8902 45.9617C33.9385 45.845 37.4735 45.53 39.9585 44.3167L40.6819 43.1733C38.9902 43.9783 33.2152 44.8767 29.8319 44.8767M42.3269 37.9V38.1917C42.0002 38.5883 39.9702 39.1717 37.4269 39.5917C34.9001 39.9549 32.3495 40.1265 29.7969 40.105C27.3764 40.1256 24.958 39.9579 22.5635 39.6033C20.7769 39.3969 19.031 38.925 17.3835 38.2033V37.865C18.5152 38.6117 21.5719 39.1717 22.5985 39.335C24.4419 39.615 26.8102 39.825 29.7969 39.825C32.9352 39.825 35.4435 39.6033 37.3802 39.3117C39.2119 39.0433 41.8135 38.355 42.3269 37.9V37.9ZM42.3269 36.85V37.1417C42.0002 37.5267 39.9702 38.11 37.4269 38.53C34.9004 38.8971 32.3498 39.0726 29.7969 39.055C27.3766 39.0693 24.9587 38.9016 22.5635 38.5533C20.7769 38.3469 19.031 37.875 17.3835 37.1533V36.8033C18.5152 37.5617 21.5835 38.11 22.5985 38.2733C24.9818 38.6225 27.3882 38.7902 29.7969 38.775C32.9352 38.775 35.4552 38.5417 37.3802 38.25C39.2119 37.9933 41.8135 37.305 42.3269 36.85V36.85Z" stroke="black" stroke-width="0.07" stroke-linecap="round" stroke-linejoin="round"/>
<path fill-rule="evenodd" clip-rule="evenodd" d="M40.2385 44.0601C40.1323 44.2175 40.0234 44.373 39.9118 44.5267C38.7452 44.9467 36.8785 45.3901 36.1085 45.5067C34.0423 45.8917 31.9453 46.087 29.8435 46.0901C25.1302 46.0201 21.2685 45.0984 19.4602 44.3051L19.3085 44.0601L19.3318 44.0134L19.5768 44.1184C22.8972 45.2172 26.3695 45.788 29.8668 45.8101C32.0602 45.8101 34.2418 45.5651 36.0035 45.2501C38.7102 44.7017 39.8068 44.2934 40.1452 44.1067L40.2268 44.0601H40.2385ZM40.8568 43.0334C40.78 43.1701 40.7022 43.3062 40.6235 43.4417C39.9935 43.6751 38.2902 44.1651 35.8052 44.5151C34.1718 44.7367 33.1568 44.9584 29.9018 45.0167C26.1809 44.9794 22.4828 44.4298 18.9118 43.3834L18.7835 43.0917C22.4117 44.0945 26.1502 44.6431 29.9135 44.7251C32.8885 44.6667 34.1602 44.4451 35.7818 44.2234C38.6752 43.7801 40.1335 43.2901 40.5652 43.1617C40.5654 43.154 40.5654 43.1462 40.5652 43.1384L40.8685 43.0217L40.8568 43.0334Z" fill="#FFFF00" stroke="black" stroke-width="0.07" stroke-linecap="round" stroke-linejoin="round"/>
<path fill-rule="evenodd" clip-rule="evenodd" d="M40.9268 37.095C40.9385 40.595 39.1419 43.745 37.7069 45.1217C35.5874 47.1887 32.757 48.366 29.7969 48.4117C26.2619 48.47 22.9368 46.1717 22.0385 45.1567C20.0288 43.0255 18.8851 40.2221 18.8302 37.2933C19.0402 33.4667 20.5452 30.8067 22.7152 28.975C24.8232 27.2397 27.4749 26.3021 30.2052 26.3267C31.799 26.4039 33.3591 26.8133 34.7855 27.5285C36.2119 28.2437 37.4732 29.249 38.4885 30.48C39.9468 32.2533 40.5885 34.1783 40.9268 37.095ZM29.8202 25.125C33.0839 25.1249 36.2154 26.415 38.5319 28.7141C40.8484 31.0131 42.1622 34.1347 42.1869 37.3983C42.1869 39.0178 41.8679 40.6213 41.2482 42.1175C40.6284 43.6136 39.7201 44.973 38.575 46.1181C37.4299 47.2632 36.0705 48.1716 34.5743 48.7913C33.0782 49.411 31.4746 49.73 29.8552 49.73C28.2358 49.73 26.6322 49.411 25.1361 48.7913C23.6399 48.1716 22.2805 47.2632 21.1354 46.1181C19.9903 44.973 19.0819 43.6136 18.4622 42.1175C17.8425 40.6213 17.5235 39.0178 17.5235 37.3983C17.5119 30.6317 23.0419 25.125 29.8202 25.125Z" fill="#FFFF00"/>
<path d="M29.8202 25.125C33.0839 25.1249 36.2154 26.415 38.5319 28.7141C40.8484 31.0131 42.1622 34.1347 42.1869 37.3983C42.1869 39.0178 41.8679 40.6213 41.2482 42.1175C40.6284 43.6136 39.7201 44.973 38.575 46.1181C37.4299 47.2632 36.0705 48.1716 34.5743 48.7913C33.0782 49.411 31.4746 49.73 29.8552 49.73C28.2358 49.73 26.6322 49.411 25.1361 48.7913C23.6399 48.1716 22.2805 47.2632 21.1354 46.1181C19.9903 44.973 19.0819 43.6136 18.4622 42.1175C17.8425 40.6213 17.5235 39.0178 17.5235 37.3983C17.5119 30.6317 23.0419 25.125 29.8202 25.125M40.9268 37.095C40.9385 40.595 39.1419 43.745 37.7069 45.1217C35.5874 47.1887 32.757 48.366 29.7969 48.4117C26.2619 48.47 22.9368 46.1717 22.0385 45.1567C20.0288 43.0255 18.8851 40.2221 18.8302 37.2933C19.0402 33.4667 20.5452 30.8067 22.7152 28.975C24.8232 27.2397 27.4749 26.3021 30.2052 26.3267C31.799 26.4039 33.3591 26.8133 34.7855 27.5285C36.2119 28.2437 37.4732 29.249 38.4885 30.48C39.9468 32.2533 40.5885 34.1783 40.9268 37.095V37.095Z" stroke="black" stroke-width="0.07" stroke-linecap="round" stroke-linejoin="round"/>
<path fill-rule="evenodd" clip-rule="evenodd" d="M29.8552 25.0667C36.6452 25.0667 42.1752 30.5967 42.1752 37.3867C42.1752 44.1767 36.6452 49.7067 29.8669 49.7067C23.0885 49.7067 17.5469 44.1767 17.5469 37.3867C17.5469 30.5967 23.0769 25.0667 29.8669 25.0667H29.8552ZM17.8035 37.375C17.8035 44.0016 23.2519 49.4266 29.8552 49.4266C36.4585 49.4266 41.9069 44.0016 41.9069 37.375C41.9069 30.7483 36.4585 25.3233 29.8552 25.3233C23.2519 25.3233 17.8035 30.7483 17.8035 37.375Z" fill="#FFFF00" stroke="black" stroke-width="0.07" stroke-linecap="round" stroke-linejoin="round"/>
<path fill-rule="evenodd" clip-rule="evenodd" d="M29.8669 26.0934C32.8561 26.1026 35.7203 27.2942 37.834 29.4079C39.9477 31.5216 41.1393 34.3858 41.1485 37.3751C41.1393 40.3654 39.9481 43.2308 37.8347 45.3463C35.7213 47.4619 32.8572 48.6561 29.8669 48.6684C23.6835 48.6684 18.5852 43.5817 18.5852 37.3751C18.5975 34.3867 19.79 31.5243 21.9031 29.4113C24.0162 27.2982 26.8786 26.1057 29.8669 26.0934ZM18.8535 37.3751C18.8535 43.4417 23.8235 48.3884 29.8669 48.3884C35.9102 48.3884 40.8802 43.43 40.8802 37.3751C40.8802 31.3084 35.9102 26.3617 29.8669 26.3617C26.9497 26.374 24.1556 27.5383 22.0928 29.601C20.0301 31.6638 18.8658 34.4579 18.8535 37.3751Z" fill="#FFFF00" stroke="black" stroke-width="0.07" stroke-linecap="round" stroke-linejoin="round"/>
<path fill-rule="evenodd" clip-rule="evenodd" d="M30.3686 25.0083H29.3069V49.7766H30.3569L30.3686 25.0083Z" fill="#FFFF00" stroke="black" stroke-width="0.07" stroke-linecap="round" stroke-linejoin="round"/>
<path fill-rule="evenodd" clip-rule="evenodd" d="M30.2518 24.8683H30.5202V49.9166H30.2635V24.8683H30.2518ZM29.2018 24.8683H29.4818V49.9166H29.2135V24.8683H29.2018Z" fill="#FFFF00" stroke="black" stroke-width="0.07" stroke-linecap="round" stroke-linejoin="round"/>
<path fill-rule="evenodd" clip-rule="evenodd" d="M42.1869 37.8651V36.9551L41.4402 36.2551L37.2052 35.1351L31.1152 34.5167L23.7652 34.8901L18.5385 36.1267L17.4885 36.9084V37.8301L20.1602 36.6284L26.5069 35.6367H32.6085L37.0885 36.1267L40.1919 36.8734L42.1869 37.8651Z" fill="#FFFF00" stroke="black" stroke-width="0.07" stroke-linecap="round" stroke-linejoin="round"/>
<path fill-rule="evenodd" clip-rule="evenodd" d="M29.8669 35.485C32.7719 35.485 35.5835 35.7533 37.8352 36.185C40.1452 36.6516 41.7669 37.235 42.3269 37.8766V38.2033C41.6502 37.3866 39.4685 36.8033 37.7769 36.4533C35.5602 36.0333 32.7602 35.7533 29.8552 35.7533C26.8102 35.7533 23.9635 36.0566 21.7702 36.4766C20.0202 36.8266 17.6752 37.5266 17.3835 38.2033V37.865C17.5352 37.3983 19.2852 36.6983 21.7352 36.1966C23.9402 35.765 26.7869 35.485 29.8552 35.485H29.8669ZM29.8669 34.4233C32.5386 34.418 35.2054 34.6522 37.8352 35.1233C40.1452 35.59 41.7669 36.1733 42.3269 36.8266V37.1416C41.6502 36.3366 39.4685 35.7416 37.7769 35.4033C35.5602 34.9716 32.7602 34.7033 29.8552 34.7033C27.1475 34.6947 24.4449 34.9369 21.7819 35.4266C20.0902 35.7416 17.6519 36.465 17.3835 37.1416V36.815C17.5469 36.3483 19.3202 35.6133 21.7352 35.1466C23.9519 34.715 26.7869 34.4233 29.8669 34.4233ZM29.7969 29.0333C34.3819 29.01 38.3835 29.675 40.2152 30.6083L40.8802 31.775C39.2935 30.9116 34.9769 30.025 29.8085 30.1416C25.5969 30.1766 21.0935 30.6083 18.8419 31.8216L19.6352 30.4916C21.4902 29.5233 25.8535 29.0333 29.7969 29.0333Z" fill="#FFFF00"/>
<path d="M29.7969 29.0333C34.3819 29.01 38.3835 29.675 40.2152 30.6083L40.8802 31.775C39.2935 30.9116 34.9769 30.025 29.8085 30.1416C25.5969 30.1766 21.0935 30.6083 18.8419 31.8216L19.6352 30.4916C21.4902 29.5233 25.8535 29.0333 29.7969 29.0333M29.8669 35.485C32.7719 35.485 35.5835 35.7533 37.8352 36.185C40.1452 36.6516 41.7669 37.235 42.3269 37.8766V38.2033C41.6502 37.3866 39.4685 36.8033 37.7769 36.4533C35.5602 36.0333 32.7602 35.7533 29.8552 35.7533C26.8102 35.7533 23.9635 36.0566 21.7702 36.4766C20.0202 36.8266 17.6752 37.5266 17.3835 38.2033V37.865C17.5352 37.3983 19.2852 36.6983 21.7352 36.1966C23.9402 35.765 26.7869 35.485 29.8552 35.485H29.8669ZM29.8669 34.4233C32.5386 34.418 35.2054 34.6522 37.8352 35.1233C40.1452 35.59 41.7669 36.1733 42.3269 36.8266V37.1416C41.6502 36.3366 39.4685 35.7416 37.7769 35.4033C35.5602 34.9716 32.7602 34.7033 29.8552 34.7033C27.1475 34.6947 24.4449 34.9369 21.7819 35.4266C20.0902 35.7416 17.6519 36.465 17.3835 37.1416V36.815C17.5469 36.3483 19.3202 35.6133 21.7352 35.1466C23.9519 34.715 26.7869 34.4233 29.8669 34.4233V34.4233Z" stroke="black" stroke-width="0.07" stroke-linecap="round" stroke-linejoin="round"/>
<path fill-rule="evenodd" clip-rule="evenodd" d="M29.8669 29.99C32.2608 29.9496 34.6537 30.1175 37.0185 30.4917C38.8852 30.8417 40.6702 31.355 40.9269 31.635L41.1252 31.985C40.5069 31.5884 38.9552 31.1334 36.9719 30.76C34.9885 30.3867 32.4569 30.2584 29.8552 30.27C26.9035 30.2584 24.6052 30.41 22.6452 30.76C21.2941 30.9494 19.9823 31.3552 18.7602 31.9617L18.9585 31.6C19.6585 31.25 20.7435 30.8184 22.5869 30.48C24.6285 30.1067 26.9502 30.0017 29.8669 29.99ZM29.8669 28.94C32.3635 28.9167 34.8369 29.0567 36.7619 29.4067C38.009 29.5919 39.216 29.9863 40.3319 30.5734L40.6235 31.04C40.1335 30.4917 38.2902 29.9667 36.6452 29.6867C34.7319 29.3484 32.3635 29.22 29.8669 29.1967C27.5428 29.176 25.221 29.3477 22.9252 29.71C21.7248 29.8773 20.5589 30.2357 19.4719 30.7717L19.7285 30.3867C20.4052 30.0367 21.5019 29.71 22.8785 29.4417C25.1894 29.0746 27.5271 28.9029 29.8669 28.9284V28.94ZM35.9802 42.5084C33.958 42.1583 31.9071 42.002 29.8552 42.0417C22.2135 42.135 19.7519 43.6167 19.4485 44.06L18.8652 43.1267C20.8252 41.7267 24.9785 40.9334 29.9019 41.0034C32.4569 41.05 34.6619 41.225 36.5052 41.5867L35.9802 42.52" fill="#FFFF00"/>
<path d="M35.9802 42.5084C33.958 42.1583 31.9071 42.002 29.8552 42.0417C22.2135 42.135 19.7519 43.6167 19.4485 44.06L18.8652 43.1267C20.8252 41.7267 24.9785 40.9334 29.9019 41.0034C32.4569 41.05 34.6619 41.225 36.5052 41.5867L35.9802 42.52M29.8669 29.99C32.2608 29.9496 34.6537 30.1175 37.0185 30.4917C38.8852 30.8417 40.6702 31.355 40.9269 31.635L41.1252 31.985C40.5069 31.5884 38.9552 31.1334 36.9719 30.76C34.9885 30.3867 32.4569 30.2584 29.8552 30.27C26.9035 30.2584 24.6052 30.41 22.6452 30.76C21.2941 30.9494 19.9823 31.3552 18.7602 31.9617L18.9585 31.6C19.6585 31.25 20.7435 30.8184 22.5869 30.48C24.6285 30.1067 26.9502 30.0017 29.8669 29.99V29.99ZM29.8669 28.94C32.3635 28.9167 34.8369 29.0567 36.7619 29.4067C38.009 29.5919 39.216 29.9863 40.3319 30.5734L40.6235 31.04C40.1335 30.4917 38.2902 29.9667 36.6452 29.6867C34.7319 29.3484 32.3635 29.22 29.8669 29.1967C27.5428 29.176 25.221 29.3477 22.9252 29.71C21.7248 29.8773 20.5589 30.2357 19.4719 30.7717L19.7285 30.3867C20.4052 30.0367 21.5019 29.71 22.8785 29.4417C25.1894 29.0746 27.5271 28.9029 29.8669 28.9284V28.94Z" stroke="black" stroke-width="0.07" stroke-linecap="round" stroke-linejoin="round"/>
<path fill-rule="evenodd" clip-rule="evenodd" d="M29.8202 41.9133C31.9435 41.9483 34.0202 42.03 36.0385 42.4033L35.8985 42.66C34.0319 42.31 32.0252 42.1933 29.8319 42.1933C26.9969 42.17 24.1502 42.4383 21.6652 43.15C20.8835 43.3717 19.5885 43.8733 19.4485 44.2933L19.3085 44.06C19.3552 43.8033 20.1252 43.29 21.5952 42.8933C24.4419 42.0766 27.1019 41.925 29.8202 41.9133ZM29.9135 40.84C32.1547 40.8377 34.3916 41.0329 36.5985 41.4233L36.4469 41.6917C34.2919 41.2963 32.1044 41.1049 29.9135 41.12C27.0902 41.12 24.0919 41.33 21.3619 42.1233C20.4869 42.38 18.9585 42.94 18.9119 43.3717L18.7719 43.115C18.7952 42.7183 20.1135 42.1933 21.3035 41.855C24.0452 41.05 27.0552 40.8517 29.9135 40.84Z" fill="#FFFF00" stroke="black" stroke-width="0.07" stroke-linecap="round" stroke-linejoin="round"/>
<path fill-rule="evenodd" clip-rule="evenodd" d="M40.7636 43.2667L39.8536 44.7017L37.2052 42.3567L30.3686 37.7484L22.6452 33.5134L18.6436 32.1484L19.4952 30.5617L19.7869 30.41L22.2719 31.0284L30.4852 35.2634L35.2219 38.25L39.2002 41.1084L40.8219 42.975L40.7636 43.2667Z" fill="#FFFF00" stroke="black" stroke-width="0.07" stroke-linecap="round" stroke-linejoin="round"/>
<path fill-rule="evenodd" clip-rule="evenodd" d="M18.5035 32.1833C19.2035 31.7167 24.3602 34.0033 29.7735 37.27C35.1519 40.5367 40.3085 44.2233 39.8419 44.9117L39.6902 45.1567L39.6202 45.215C39.6319 45.2033 39.7135 45.0983 39.6202 44.8533C39.3869 44.095 35.7235 41.1783 29.6685 37.515C23.7535 34.0033 18.8302 31.88 18.3519 32.4867L18.5035 32.1833ZM40.9502 43.255C41.3935 42.3683 36.6102 38.7633 30.6719 35.2517C24.6052 31.81 20.2185 29.78 19.4135 30.3867L19.2502 30.725C19.2502 30.7367 19.2502 30.7017 19.2969 30.6667C19.4369 30.55 19.6819 30.55 19.7869 30.55C21.1635 30.5733 25.0952 32.3817 30.6135 35.5433C33.0402 36.9433 40.8335 41.96 40.7985 43.36C40.7985 43.4767 40.8102 43.5 40.7635 43.57L40.9619 43.2667L40.9502 43.255Z" fill="#FFFF00" stroke="black" stroke-width="0.07" stroke-linecap="round" stroke-linejoin="round"/>
<path d="M22.4748 38.7479C22.4766 39.7139 22.6701 40.6699 23.0439 41.5607C23.4177 42.4514 23.9645 43.2592 24.6526 43.9372C25.3323 44.6274 26.1418 45.1762 27.0346 45.5521C27.9274 45.928 28.8857 46.1236 29.8544 46.1274C31.8148 46.1273 33.6949 45.3484 35.0811 43.9621C35.7667 43.2803 36.311 42.4699 36.6826 41.5772C37.0542 40.6845 37.2458 39.7272 37.2464 38.7603V28.9043L22.4748 28.8794V38.7479Z" fill="white" stroke="black" stroke-width="0.0871114"/>
<path d="M22.7485 38.7604C22.7512 39.687 22.9373 40.604 23.2961 41.4583C23.6549 42.3127 24.1794 43.0875 24.8392 43.7382C26.1641 45.07 27.9633 45.8219 29.8419 45.8288C31.7172 45.8299 33.5164 45.0869 34.8446 43.763C35.5022 43.1114 36.0243 42.3361 36.381 41.4818C36.7377 40.6275 36.9218 39.711 36.9228 38.7853V29.203H22.7734V38.7604M34.0979 32.0777V38.163L34.0855 38.7977C34.0897 39.3536 33.9816 39.9047 33.7678 40.4179C33.5539 40.9311 33.2387 41.3959 32.841 41.7844C32.0496 42.5785 30.9754 43.0261 29.8543 43.0288C28.6846 43.0288 27.6517 42.531 26.8801 41.7595C26.086 40.9681 25.6384 39.8939 25.6357 38.7728V32.0528L34.0979 32.0777Z" fill="#FF0000"/>
<path d="M22.7485 38.7604C22.7512 39.687 22.9373 40.604 23.2961 41.4583C23.6549 42.3127 24.1794 43.0875 24.8392 43.7382C26.1641 45.07 27.9633 45.8219 29.8419 45.8288C31.7172 45.8299 33.5164 45.0869 34.8446 43.763C35.5022 43.1114 36.0243 42.3361 36.381 41.4818C36.7377 40.6275 36.9218 39.711 36.9228 38.7853V29.203H22.7734V38.7604M34.0979 32.0777V38.163L34.0855 38.7977C34.0897 39.3536 33.9816 39.9047 33.7678 40.4179C33.5539 40.9311 33.2387 41.3959 32.841 41.7844C32.0496 42.5785 30.9754 43.0261 29.8543 43.0288C28.6846 43.0288 27.6517 42.531 26.8801 41.7595C26.086 40.9681 25.6384 39.8939 25.6357 38.7728V32.0528L34.0979 32.0777Z" stroke="black" stroke-width="0.0622224"/>
<path d="M23.6693 31.7043C23.6818 31.0198 24.1671 30.858 24.1671 30.858C24.1795 30.858 24.7022 31.0323 24.7022 31.7167H23.6693" fill="#FFFF00"/>
<path d="M23.2462 30.8705L23.1591 31.6545H23.6817C23.6817 31.0074 24.1795 30.9078 24.1795 30.9078C24.192 30.9078 24.6773 31.0447 24.6897 31.6545H25.2124L25.1128 30.858H23.2462V30.8705ZM23.1217 31.6669H25.2373C25.2746 31.6669 25.312 31.7043 25.312 31.754C25.312 31.8163 25.2746 31.8536 25.2373 31.8536H23.1217C23.0844 31.8536 23.0471 31.8163 23.0471 31.754C23.0471 31.7043 23.0844 31.6669 23.1342 31.6669H23.1217Z" fill="#FFFF00" stroke="black" stroke-width="0.0622224"/>
<path d="M23.8933 31.6545C23.8933 31.2439 24.1795 31.1319 24.1795 31.1319C24.1795 31.1319 24.4658 31.2563 24.4658 31.6545H23.8933ZM23.1715 30.5345H25.2C25.2373 30.5345 25.2746 30.5843 25.2746 30.6341C25.2746 30.6714 25.2373 30.7088 25.2 30.7088H23.1715C23.1342 30.7088 23.0969 30.6714 23.0969 30.6216C23.0969 30.5843 23.1342 30.547 23.1715 30.547V30.5345ZM23.9431 31.8412H25.1378C25.1751 31.8412 25.2124 31.8785 25.2124 31.9283C25.2124 31.9781 25.1751 32.0154 25.1378 32.0154H23.2089C23.1591 32.0154 23.1342 31.9781 23.1342 31.9283C23.1342 31.8785 23.1591 31.8412 23.2089 31.8412H23.9431ZM24.5653 30.5221H24.7146V30.6216H24.8266V30.5221H24.9884V30.6341H25.1004V30.5096H25.2498V30.7585C25.2498 30.8083 25.2249 30.8332 25.1875 30.8332H24.64C24.6026 30.8332 24.5653 30.8083 24.5653 30.771V30.5221ZM25.1378 30.8581L25.1751 31.6545H24.64L24.6773 30.8456H25.1378" fill="#FFFF00"/>
<path d="M25.1378 30.8581L25.1751 31.6545H24.64L24.6773 30.8456H25.1378M23.8933 31.6545C23.8933 31.2439 24.1795 31.1319 24.1795 31.1319C24.1795 31.1319 24.4658 31.2563 24.4658 31.6545H23.8933ZM23.1715 30.5345H25.2C25.2373 30.5345 25.2746 30.5843 25.2746 30.6341C25.2746 30.6714 25.2373 30.7088 25.2 30.7088H23.1715C23.1342 30.7088 23.0969 30.6714 23.0969 30.6216C23.0969 30.5843 23.1342 30.547 23.1715 30.547V30.5345ZM23.9431 31.8412H25.1378C25.1751 31.8412 25.2124 31.8785 25.2124 31.9283C25.2124 31.9781 25.1751 32.0154 25.1378 32.0154H23.2089C23.1591 32.0154 23.1342 31.9781 23.1342 31.9283C23.1342 31.8785 23.1591 31.8412 23.2089 31.8412H23.9431ZM24.5653 30.5221H24.7146V30.6216H24.8266V30.5221H24.9884V30.6341H25.1004V30.5096H25.2498V30.7585C25.2498 30.8083 25.2249 30.8332 25.1875 30.8332H24.64C24.6026 30.8332 24.5653 30.8083 24.5653 30.771V30.5221Z" stroke="black" stroke-width="0.0622224"/>
<path d="M23.7688 30.1113V30.5344H23.2711V30.1113H23.7688Z" fill="#FFFF00" stroke="black" stroke-width="0.0622224"/>
<path d="M23.184 29.7878H23.3333V29.9123H23.4453V29.7878H23.5946V29.9123H23.7066V29.7878H23.856V30.0367C23.856 30.0865 23.8311 30.1114 23.7937 30.1114H23.2586C23.2388 30.1114 23.2198 30.1035 23.2058 30.0895C23.1918 30.0755 23.184 30.0565 23.184 30.0367V29.7878Z" fill="#FFFF00" stroke="black" stroke-width="0.0622224"/>
<path d="M24.1298 29.9869C24.1298 29.9122 24.2418 29.9122 24.2418 29.9869V30.186H24.1298V29.9869Z" fill="black"/>
<path d="M23.4702 30.2607C23.4702 30.186 23.5698 30.186 23.5698 30.2607V30.41H23.4702V30.2607Z" fill="black"/>
<path d="M28.9459 37.6776C28.9436 37.9403 29.0415 38.1939 29.2197 38.387C29.3028 38.4799 29.4044 38.5544 29.5179 38.6059C29.6315 38.6573 29.7546 38.6845 29.8792 38.6856C30.1406 38.6856 30.377 38.5612 30.5388 38.387C30.7169 38.1939 30.8148 37.9403 30.8126 37.6776V36.3336H28.9459V37.6776Z" fill="#003399"/>
<path d="M29.3816 37.0306C29.4846 37.0306 29.5682 36.947 29.5682 36.8439C29.5682 36.7408 29.4846 36.6572 29.3816 36.6572C29.2785 36.6572 29.1949 36.7408 29.1949 36.8439C29.1949 36.947 29.2785 37.0306 29.3816 37.0306Z" fill="white"/>
<path d="M30.4145 37.0306C30.5175 37.0306 30.6011 36.947 30.6011 36.8439C30.6011 36.7408 30.5175 36.6572 30.4145 36.6572C30.3114 36.6572 30.2278 36.7408 30.2278 36.8439C30.2278 36.947 30.3114 37.0306 30.4145 37.0306Z" fill="white"/>
<path d="M29.8918 37.5284C29.9949 37.5284 30.0785 37.4448 30.0785 37.3417C30.0785 37.2386 29.9949 37.155 29.8918 37.155C29.7887 37.155 29.7051 37.2386 29.7051 37.3417C29.7051 37.4448 29.7887 37.5284 29.8918 37.5284Z" fill="white"/>
<path d="M29.3816 38.0509C29.4846 38.0509 29.5682 37.9674 29.5682 37.8643C29.5682 37.7612 29.4846 37.6776 29.3816 37.6776C29.2785 37.6776 29.1949 37.7612 29.1949 37.8643C29.1949 37.9674 29.2785 38.0509 29.3816 38.0509Z" fill="white"/>
<path d="M30.4145 38.0509C30.5175 38.0509 30.6011 37.9674 30.6011 37.8643C30.6011 37.7612 30.5175 37.6776 30.4145 37.6776C30.3114 37.6776 30.2278 37.7612 30.2278 37.8643C30.2278 37.9674 30.3114 38.0509 30.4145 38.0509Z" fill="white"/>
</g>
<defs>
<clipPath id="clip0_1_71195">
<rect width="74.6667" height="56" fill="white" transform="translate(0 9.375)"/>
</clipPath>
</defs>
</svg>
