<svg width="75" height="75" viewBox="0 0 75 75" fill="none" xmlns="http://www.w3.org/2000/svg">
<rect width="74.6667" height="74.75" fill="white"/>
<g clip-path="url(#clip0_1_71093)">
<path fill-rule="evenodd" clip-rule="evenodd" d="M-12.0283 9.375H86.7067V65.375H-12.0283V9.375Z" fill="#4AADD6"/>
<path fill-rule="evenodd" clip-rule="evenodd" d="M47.355 36.4533C47.4124 38.4805 47.045 40.4981 46.2743 42.387C45.5037 44.2759 44.3454 45.9979 42.868 47.4511C41.3906 48.9044 39.624 50.0595 37.6725 50.8482C35.7209 51.637 33.6241 52.0433 31.5058 52.0433C29.3875 52.0433 27.2907 51.637 25.3392 50.8482C23.3877 50.0595 21.621 48.9044 20.1436 47.4511C18.6662 45.9979 17.508 44.2759 16.7373 42.387C15.9666 40.4981 15.5992 38.4805 15.6567 36.4533C15.5992 34.4262 15.9666 32.4085 16.7373 30.5196C17.508 28.6307 18.6662 26.9087 20.1436 25.4555C21.621 24.0022 23.3877 22.8471 25.3392 22.0584C27.2907 21.2696 29.3875 20.8633 31.5058 20.8633C33.6241 20.8633 35.7209 21.2696 37.6725 22.0584C39.624 22.8471 41.3906 24.0022 42.868 25.4555C44.3454 26.9087 45.5037 28.6307 46.2743 30.5196C47.045 32.4085 47.4124 34.4262 47.355 36.4533Z" fill="#FFDE00"/>
</g>
<defs>
<clipPath id="clip0_1_71093">
<rect width="74.6667" height="56" fill="white" transform="translate(0 9.375)"/>
</clipPath>
</defs>
</svg>
