<svg width="75" height="75" viewBox="0 0 75 75" fill="none" xmlns="http://www.w3.org/2000/svg">
<rect width="74.6667" height="74.75" fill="white"/>
<g clip-path="url(#clip0_1_71445)">
<path d="M-6.10352e-05 46.6733H74.6666V65.375H-6.10352e-05V46.6733Z" fill="#0038A8"/>
<path d="M-6.10352e-05 28.0416H74.6666V46.7083H-6.10352e-05V28.0416Z" fill="white"/>
<path d="M0 9.375H74.6667V28.0417H0V9.375Z" fill="#D52B1E"/>
<path d="M37.3291 44.5363C41.2842 44.5363 44.4904 41.3301 44.4904 37.3751C44.4904 33.4201 41.2842 30.2139 37.3291 30.2139C33.3741 30.2139 30.1679 33.4201 30.1679 37.3751C30.1679 41.3301 33.3741 44.5363 37.3291 44.5363Z" stroke="black" stroke-width="0.186667"/>
<path d="M37.3291 43.2636C40.5812 43.2636 43.2176 40.6272 43.2176 37.3751C43.2176 34.1229 40.5812 31.4866 37.3291 31.4866C34.077 31.4866 31.4406 34.1229 31.4406 37.3751C31.4406 40.6272 34.077 43.2636 37.3291 43.2636Z" stroke="black" stroke-width="0.0848488"/>
<path d="M37.3291 41.889C39.8221 41.889 41.843 39.868 41.843 37.375C41.843 34.8821 39.8221 32.8611 37.3291 32.8611C34.8361 32.8611 32.8151 34.8821 32.8151 37.375C32.8151 39.868 34.8361 41.889 37.3291 41.889Z" stroke="black" stroke-width="0.067879"/>
<path d="M33.5183 40.14L32.6899 40.63L32.4333 40.1983C32.3974 40.1403 32.3699 40.0774 32.3516 40.0117C32.3384 39.9612 32.3425 39.9078 32.3633 39.86C32.3866 39.8133 32.4216 39.7783 32.4799 39.7433C32.5266 39.72 32.5616 39.7083 32.6083 39.7083C32.6523 39.7054 32.6964 39.7134 32.7366 39.7317L32.8299 39.8017V39.65L32.8649 39.5917L33.0399 39.3233L33.2033 39.615L33.0399 39.895L33.0049 39.9883L33.0166 40.0583L33.0283 40.0817L33.3783 39.8833L33.5183 40.14ZM32.8766 40.175L32.8066 40.0583L32.7599 40C32.7522 39.9924 32.7431 39.9865 32.7331 39.9825C32.7231 39.9785 32.7124 39.9765 32.7016 39.9767C32.6814 39.9741 32.6609 39.9782 32.6433 39.9883L32.5966 40.0583C32.5966 40.0817 32.6083 40.1167 32.6433 40.1633L32.7016 40.28L32.8766 40.175ZM32.0949 39.5333L31.8383 38.775L32.0366 38.705L32.1883 39.1833L32.3399 39.1367L32.1883 38.6933L32.3749 38.635L32.5266 39.0667L32.7016 39.0083L32.5383 38.5183L32.7483 38.46L33.0049 39.23L32.0949 39.5333ZM31.7566 38.4017L31.7099 37.9117C31.6866 37.795 31.7099 37.725 31.7566 37.6667C31.8033 37.5967 31.8733 37.5617 31.9666 37.55C32.0599 37.55 32.1416 37.5617 32.1999 37.62C32.2583 37.6667 32.2933 37.76 32.3166 37.8767L32.3283 38.04L32.6783 37.9933L32.7249 38.2967L31.7566 38.4017ZM32.1416 38.0517L32.1299 37.9817C32.1299 37.9233 32.1066 37.8883 32.0833 37.865C32.0725 37.8549 32.0594 37.8476 32.0452 37.8435C32.031 37.8394 32.0161 37.8388 32.0016 37.8417C31.9733 37.848 31.9483 37.8646 31.9316 37.8883C31.9083 37.9 31.9083 37.9467 31.9083 38.005L31.9199 38.0867L32.1416 38.0517ZM31.7333 36.5933L31.7683 36.29L32.3283 36.36C32.385 36.3659 32.4403 36.3817 32.4916 36.4067C32.5383 36.43 32.5849 36.4533 32.6083 36.5C32.6549 36.535 32.6666 36.5817 32.6783 36.6167C32.7016 36.6867 32.7016 36.7567 32.6899 36.8383L32.6666 36.99C32.6549 37.0483 32.6316 37.0833 32.6083 37.1183C32.5602 37.1939 32.4851 37.2482 32.3983 37.27H32.2349L31.6633 37.2117L31.6983 36.92L32.2816 36.9783C32.3283 36.9783 32.3749 36.9783 32.3983 36.955C32.4449 36.9317 32.4566 36.885 32.4683 36.8383C32.4721 36.7964 32.4595 36.7546 32.4333 36.7217C32.4099 36.675 32.3633 36.6633 32.3166 36.6517L31.7333 36.5933ZM31.8499 35.8933L32.0483 35.3567C32.0716 35.2633 32.1183 35.205 32.1766 35.1817C32.2044 35.165 32.2353 35.1544 32.2675 35.1503C32.2996 35.1463 32.3322 35.149 32.3633 35.1583C32.4216 35.1817 32.4566 35.2167 32.4799 35.2633C32.5033 35.2983 32.5149 35.3333 32.5149 35.38C32.5499 35.3217 32.5966 35.2867 32.6433 35.2633C32.6959 35.2436 32.7539 35.2436 32.8066 35.2633C32.8526 35.2783 32.8934 35.3059 32.9244 35.3431C32.9553 35.3802 32.9752 35.4254 32.9816 35.4733V35.59L32.9466 35.7067L32.7716 36.1967L31.8499 35.8933ZM32.3166 35.73L32.3633 35.6017C32.3633 35.555 32.3749 35.52 32.3633 35.5083C32.3633 35.485 32.3399 35.4617 32.3166 35.45C32.3057 35.4448 32.2937 35.4421 32.2816 35.4421C32.2695 35.4421 32.2575 35.4448 32.2466 35.45C32.2233 35.4733 32.1999 35.4967 32.1883 35.5433L32.1416 35.66L32.3166 35.73ZM32.6666 35.8467L32.7249 35.7067C32.7366 35.66 32.7483 35.625 32.7249 35.59C32.7156 35.5693 32.699 35.5527 32.6783 35.5433C32.6659 35.5362 32.6518 35.5324 32.6374 35.5324C32.6231 35.5324 32.609 35.5362 32.5966 35.5433L32.5383 35.6483L32.4916 35.7883L32.6666 35.8467ZM32.3166 34.7267L32.4683 34.47L33.0983 34.8433L33.3316 34.4467L33.5416 34.5633L33.1449 35.2167L32.3166 34.7267ZM32.8999 33.84L33.0866 33.6067L33.8333 34.225L33.6466 34.4583L32.8999 33.84ZM34.1949 33.3383L34.4516 33.2217C34.4866 33.2917 34.4983 33.3617 34.5099 33.42C34.5131 33.4803 34.501 33.5405 34.4749 33.595C34.4414 33.6627 34.3937 33.7224 34.3349 33.77C34.2713 33.8345 34.1902 33.8791 34.1016 33.8983C34.0255 33.921 33.9444 33.921 33.8683 33.8983C33.7747 33.8589 33.6939 33.7943 33.6349 33.7117C33.5183 33.595 33.4716 33.4783 33.4833 33.35C33.4898 33.2839 33.5098 33.2198 33.5418 33.1616C33.5739 33.1035 33.6175 33.0525 33.6699 33.0117C33.7454 32.9463 33.839 32.9056 33.9383 32.895C34.0199 32.8833 34.1133 32.895 34.2066 32.9533L34.0433 33.175C34.0222 33.1593 33.9985 33.1474 33.9733 33.14C33.9464 33.1336 33.9184 33.1336 33.8916 33.14C33.8648 33.1496 33.8408 33.1656 33.8216 33.1867C33.7964 33.2052 33.7766 33.2301 33.7643 33.2588C33.752 33.2875 33.7476 33.319 33.7516 33.35C33.7516 33.3967 33.7983 33.455 33.8449 33.5133C33.9149 33.595 33.9733 33.6417 34.0316 33.6533C34.0783 33.6533 34.1249 33.6533 34.1716 33.6067C34.2183 33.5717 34.2416 33.5367 34.2416 33.49C34.2416 33.4433 34.2299 33.3967 34.1949 33.3383ZM35.2216 32.965L34.9299 33.1283L34.9649 33.2917L34.6966 33.4317L34.5566 32.4167L34.8483 32.265L35.6183 32.9417L35.3383 33.0933L35.2216 32.965ZM35.0699 32.8133L34.8133 32.5567L34.8833 32.9067L35.0699 32.8133ZM35.9799 31.8217L36.4233 31.7517C36.4926 31.7378 36.564 31.7378 36.6333 31.7517C36.6916 31.7633 36.7499 31.7867 36.7849 31.8333C36.8199 31.88 36.8666 31.915 36.8899 31.9733C36.9133 32.02 36.9366 32.09 36.9366 32.1483C36.9599 32.2533 36.9599 32.335 36.9483 32.3817C36.9376 32.4407 36.9137 32.4965 36.8783 32.545C36.8489 32.5893 36.8087 32.6254 36.7616 32.65C36.7061 32.6771 36.6473 32.6967 36.5866 32.7083L36.1549 32.7783L35.9799 31.8217ZM36.3183 31.985L36.4116 32.51L36.4816 32.4983C36.5399 32.4867 36.5866 32.475 36.5983 32.4517C36.6333 32.44 36.6449 32.405 36.6566 32.37V32.2067C36.6333 32.1017 36.5983 32.0433 36.5633 32.0083C36.5283 31.9733 36.4699 31.9617 36.3883 31.9733L36.3183 31.985ZM37.2283 31.6583L38.0216 31.6933V31.9033L37.5199 31.88L37.5083 32.0317L37.9749 32.055L37.9633 32.2533L37.4966 32.23V32.4167L38.0099 32.44L37.9983 32.6617L37.1816 32.6267L37.2283 31.6583ZM38.3949 31.7517L38.6749 31.8217L38.4999 32.5217L38.9666 32.6383L38.8966 32.8717L38.1616 32.685L38.3949 31.7517ZM39.9349 32.265L40.3666 32.5217C40.4599 32.5683 40.5183 32.6383 40.5299 32.7083C40.5533 32.7783 40.5299 32.86 40.4949 32.9417C40.4752 32.98 40.4471 33.0136 40.4128 33.0398C40.3785 33.066 40.3388 33.0843 40.2966 33.0933C40.2266 33.105 40.1333 33.0933 40.0283 33.0233L39.8883 32.9417L39.7016 33.245L39.4449 33.0933L39.9349 32.265ZM39.9816 32.7783L40.0516 32.8133L40.1683 32.8483C40.1828 32.8466 40.1967 32.8414 40.2088 32.8333C40.221 32.8252 40.2311 32.8144 40.2383 32.8017C40.2481 32.7753 40.2481 32.7463 40.2383 32.72C40.2383 32.685 40.2149 32.6617 40.1683 32.6267L40.0983 32.5917L39.9816 32.7783ZM40.8216 33.8983L40.5766 33.665L40.4366 33.7467L40.2033 33.5483L41.1366 33.0817L41.3699 33.315L40.9733 34.26L40.7399 34.05L40.8216 33.8983ZM40.9149 33.7L41.0783 33.3733L40.7633 33.56L40.9149 33.7ZM41.0316 34.3417L41.8366 33.7933L42.1049 34.2017L42.2216 34.4L42.2099 34.54C42.1863 34.5945 42.1453 34.6396 42.0933 34.6683C42.0583 34.7033 42.0116 34.715 41.9766 34.715C41.9287 34.7199 41.8803 34.7119 41.8366 34.6917C41.8133 34.6917 41.7783 34.6567 41.7433 34.6333L41.7666 34.715L41.7433 34.785C41.7378 34.809 41.7299 34.8325 41.7199 34.855L41.5683 35.1233L41.3816 34.855L41.5333 34.5517L41.5683 34.47C41.571 34.4408 41.5627 34.4116 41.5449 34.3883L41.5333 34.365L41.2066 34.5983L41.0316 34.3417ZM41.6733 34.2717L41.7549 34.3767L41.8016 34.4233C41.8249 34.4467 41.8366 34.4467 41.8599 34.4467C41.8801 34.4492 41.9006 34.4451 41.9183 34.435C41.9288 34.4266 41.9374 34.4159 41.9435 34.4038C41.9495 34.3918 41.9529 34.3785 41.9533 34.365C41.9533 34.3417 41.9533 34.3067 41.9183 34.26L41.8366 34.155L41.6733 34.2717ZM41.9766 35.7183L41.8599 35.3917L41.6849 35.415L41.5683 35.1233L42.6066 35.1117L42.7233 35.415L41.9649 36.115L41.8483 35.8117L41.9766 35.7183ZM42.1516 35.5783L42.4316 35.345L42.0699 35.38L42.1516 35.5783ZM42.3966 36.6283L42.5949 36.605L42.6649 37.06L42.2566 37.1183C42.1965 37.0557 42.1455 36.985 42.1049 36.9083C42.0697 36.8346 42.0461 36.7559 42.0349 36.675C42.014 36.5784 42.0181 36.478 42.0466 36.3833C42.08 36.3089 42.1323 36.2446 42.1983 36.1967C42.2739 36.1411 42.3621 36.1051 42.4549 36.0917C42.5488 36.0765 42.6449 36.0845 42.7349 36.115C42.8165 36.1474 42.8858 36.2045 42.9333 36.2783C42.9799 36.3483 43.0033 36.43 43.0266 36.535V36.7683C43.0173 36.8243 42.9932 36.8767 42.9566 36.92C42.9216 36.9667 42.8749 36.99 42.8166 37.025L42.7233 36.745C42.7583 36.7333 42.7816 36.71 42.8049 36.675C42.8283 36.64 42.8166 36.605 42.8049 36.5583C42.8019 36.5306 42.7931 36.5037 42.7791 36.4796C42.765 36.4555 42.746 36.4346 42.7233 36.4183C42.6766 36.3833 42.6066 36.3717 42.4899 36.395C42.4169 36.4008 42.3475 36.4294 42.2916 36.4767C42.2449 36.5233 42.2333 36.5933 42.2449 36.6517C42.2449 36.6867 42.2566 36.7217 42.2799 36.745L42.3383 36.8383H42.4316L42.3966 36.6283ZM43.0266 38.0283L43.0033 38.3317L42.4199 38.285C42.3672 38.2778 42.316 38.262 42.2683 38.2383C42.2231 38.216 42.1833 38.1841 42.1516 38.145C42.1195 38.1076 42.0956 38.0639 42.0816 38.0167C42.0614 37.9486 42.0535 37.8775 42.0583 37.8067L42.0816 37.655L42.1399 37.515C42.1648 37.4782 42.1965 37.4466 42.2333 37.4217C42.2685 37.3981 42.3082 37.3822 42.3499 37.375C42.403 37.3594 42.458 37.3515 42.5133 37.3517L43.0966 37.41L43.0616 37.7017L42.4783 37.655C42.4199 37.655 42.3733 37.655 42.3499 37.69C42.3327 37.7044 42.3187 37.7222 42.3086 37.7422C42.2986 37.7623 42.2928 37.7842 42.2916 37.8067C42.2916 37.8533 42.2916 37.9 42.3266 37.9233C42.3499 37.9583 42.3849 37.9817 42.4433 37.9817L43.0266 38.0283ZM41.9649 39.055L42.0699 38.7283L41.9299 38.635L42.0233 38.3433L42.8399 38.9967L42.7233 39.3L41.6966 39.3467L41.8016 39.055H41.9649ZM42.1866 39.055L42.5366 39.0667L42.2449 38.8567L42.1866 39.055ZM42.5366 39.8483L42.3616 40.1283H41.9766L42.1516 40.4667L41.9883 40.7467L41.6966 40.14L41.3466 39.93L41.5099 39.6733L41.8599 39.8833L42.5366 39.8483Z" fill="black"/>
<path d="M38.2782 34.0266C38.2782 34.0266 41.0082 35.2049 40.5299 37.6316C40.0632 40.0583 38.5466 40.0349 37.9399 40.3149C37.3566 40.5716 36.9366 40.9566 36.7032 40.8983C36.4699 40.8516 36.1549 40.6649 36.1549 40.6649C36.1549 40.6649 36.1316 41.0733 36.6099 41.1316C37.0882 41.2133 37.7182 40.5133 38.0099 40.4316C38.3132 40.3616 40.1682 40.1516 40.6232 37.6899C41.1482 35.0533 38.2899 34.1083 38.2899 34.0266H38.2782Z" fill="#009B3A" stroke="black" stroke-width="0.0116667"/>
<path d="M39.6549 34.5517C39.6628 34.6144 39.6636 34.6675 39.6574 34.7047C39.6511 34.7419 39.638 34.7617 39.6196 34.7617C39.6012 34.7617 39.5782 34.7419 39.5535 34.7047C39.5287 34.6675 39.5032 34.6144 39.4799 34.5517C39.4595 34.4966 39.4414 34.436 39.4275 34.3754C39.4136 34.3149 39.4042 34.2564 39.4002 34.2053C39.3962 34.1542 39.3978 34.1121 39.4048 34.083C39.4117 34.0538 39.4238 34.0386 39.44 34.0386C39.4562 34.0386 39.4759 34.0538 39.4973 34.083C39.5187 34.1121 39.5412 34.1542 39.5626 34.2053C39.584 34.2564 39.6037 34.3149 39.6198 34.3754C39.6359 34.436 39.648 34.4966 39.6549 34.5517Z" fill="#009B3A" stroke="black" stroke-width="0.0116667"/>
<path d="M39.5616 34.575C39.5853 34.6227 39.6066 34.6707 39.6244 34.7163C39.6421 34.7619 39.656 34.8041 39.6651 34.8405C39.6743 34.877 39.6786 34.907 39.6777 34.9288C39.6769 34.9506 39.6709 34.9638 39.6602 34.9676C39.6495 34.9715 39.6342 34.9659 39.6152 34.9511C39.5963 34.9364 39.574 34.9128 39.5496 34.8818C39.5253 34.8508 39.4994 34.8128 39.4734 34.7702C39.4475 34.7276 39.4219 34.6811 39.3982 34.6333C39.3504 34.5369 39.3132 34.4414 39.2947 34.3678C39.2762 34.2941 39.278 34.2484 39.2996 34.2407C39.3213 34.2329 39.361 34.2638 39.4102 34.3265C39.4593 34.3892 39.5138 34.4786 39.5616 34.575ZM39.2932 34.75C39.3777 34.7774 39.4547 34.8113 39.5094 34.8452C39.5641 34.8791 39.5928 34.9106 39.5899 34.9337C39.587 34.9568 39.5528 34.9699 39.4938 34.9704C39.4347 34.971 39.355 34.9589 39.2699 34.9367C39.1854 34.9092 39.1085 34.8753 39.0537 34.8415C38.999 34.8076 38.9703 34.776 38.9732 34.7529C38.9761 34.7298 39.0103 34.7168 39.0694 34.7162C39.1284 34.7157 39.2081 34.7277 39.2932 34.75Z" fill="#009B3A" stroke="black" stroke-width="0.0116667"/>
<path d="M39.3282 34.6567C39.4171 34.7165 39.498 34.7818 39.5532 34.8383C39.6084 34.8948 39.6333 34.9379 39.6225 34.958C39.6117 34.9781 39.566 34.9736 39.4955 34.9456C39.425 34.9175 39.3354 34.8681 39.2466 34.8083C39.2026 34.7787 39.1601 34.7474 39.1214 34.7163C39.0828 34.6851 39.0489 34.6547 39.0216 34.6267C38.9664 34.5702 38.9415 34.5272 38.9523 34.507C38.9631 34.4869 39.0088 34.4914 39.0793 34.5195C39.1498 34.5475 39.2394 34.5969 39.3282 34.6567Z" fill="#009B3A" stroke="black" stroke-width="0.0116667"/>
<path d="M39.4449 34.61C39.5164 34.6844 39.5787 34.7618 39.6183 34.8254C39.6579 34.8889 39.6714 34.9333 39.656 34.9487C39.6405 34.9642 39.5973 34.9495 39.5358 34.9079C39.4744 34.8662 39.3997 34.801 39.3283 34.7267C39.2568 34.6523 39.1944 34.5749 39.1549 34.5113C39.1153 34.4478 39.1017 34.4034 39.1172 34.388C39.1327 34.3725 39.1759 34.3872 39.2374 34.4288C39.2988 34.4705 39.3735 34.5357 39.4449 34.61Z" fill="#009B3A" stroke="black" stroke-width="0.0116667"/>
<path d="M39.6316 34.9483L39.5149 35.0183C39.4799 35.0183 39.4449 34.9833 39.3749 35.0183C39.3049 35.0533 39.2582 35.1233 39.2466 35.1583C39.2349 35.1933 39.2699 35.2166 39.3516 35.1699C39.4332 35.1349 39.4566 35.0649 39.4916 35.0416L39.6432 34.9599L39.7366 34.8083C39.7716 34.7616 39.8766 34.6916 39.9232 34.5983C39.9582 34.5283 39.9466 34.4699 39.8999 34.4933C39.8391 34.5286 39.7903 34.5815 39.7599 34.6449C39.7366 34.6916 39.7599 34.7616 39.7249 34.8083L39.6316 34.9483ZM40.4832 35.2283C40.486 35.3905 40.4751 35.5431 40.4529 35.6523C40.4308 35.7616 40.3992 35.8186 40.3652 35.8109C40.3311 35.8032 40.2974 35.7313 40.2714 35.6111C40.2454 35.4909 40.2293 35.3322 40.2266 35.1699C40.2238 35.0077 40.2348 34.8551 40.2569 34.7459C40.279 34.6366 40.3106 34.5796 40.3446 34.5873C40.3787 34.595 40.4124 34.6669 40.4384 34.7871C40.4644 34.9073 40.4805 35.066 40.4832 35.2283Z" fill="#009B3A" stroke="black" stroke-width="0.0116667"/>
<path d="M40.3433 35.2167C40.3784 35.3808 40.3987 35.5388 40.3995 35.6559C40.4003 35.7731 40.3816 35.8397 40.3476 35.8413C40.3135 35.8428 40.2669 35.7791 40.218 35.6642C40.169 35.5492 40.1218 35.3925 40.0866 35.2284C40.0703 35.1516 40.0573 35.0755 40.0484 35.0045C40.0394 34.9336 40.0348 34.8691 40.0346 34.8148C40.0344 34.7604 40.0388 34.7174 40.0474 34.688C40.056 34.6586 40.0688 34.6434 40.0848 34.6434C40.1009 34.6434 40.1201 34.6586 40.1412 34.688C40.1623 34.7174 40.1849 34.7604 40.2079 34.8148C40.2308 34.8691 40.2535 34.9336 40.2747 35.0045C40.2959 35.0755 40.3153 35.1516 40.3316 35.2284L40.3433 35.2167Z" fill="#009B3A" stroke="black" stroke-width="0.0116667"/>
<path d="M39.8999 35.3567C39.9597 35.3971 40.0179 35.4403 40.0711 35.4841C40.1243 35.5278 40.1714 35.5711 40.2099 35.6116C40.2484 35.6521 40.2775 35.6888 40.2954 35.7199C40.3133 35.7509 40.3198 35.7755 40.3144 35.7924C40.309 35.8092 40.292 35.818 40.2641 35.8181C40.2363 35.8182 40.1983 35.8097 40.1522 35.7931C40.1061 35.7765 40.0529 35.752 39.9956 35.7212C39.9383 35.6904 39.8781 35.6537 39.8183 35.6134C39.7585 35.573 39.7003 35.5297 39.6471 35.486C39.594 35.4422 39.5468 35.3989 39.5083 35.3585C39.4698 35.318 39.4408 35.2812 39.4228 35.2502C39.4049 35.2192 39.3984 35.1945 39.4038 35.1777C39.4092 35.1608 39.4263 35.1521 39.4541 35.152C39.4819 35.1519 39.52 35.1603 39.566 35.177C39.6121 35.1936 39.6653 35.218 39.7226 35.2489C39.7799 35.2797 39.8401 35.3163 39.8999 35.3567Z" fill="#009B3A" stroke="black" stroke-width="0.0116667"/>
<path d="M39.9933 35.2283C40.0964 35.3534 40.1866 35.4832 40.2442 35.5892C40.3018 35.6951 40.322 35.7686 40.3003 35.7933C40.2787 35.8181 40.2169 35.7921 40.1287 35.7212C40.0405 35.6502 39.933 35.5401 39.8299 35.415C39.7301 35.2935 39.643 35.1678 39.5877 35.0655C39.5324 34.9632 39.5135 34.8927 39.5352 34.8695C39.5568 34.8463 39.6173 34.8723 39.7032 34.9418C39.7891 35.0112 39.8934 35.1185 39.9933 35.24V35.2283Z" fill="#009B3A" stroke="black" stroke-width="0.0116667"/>
<path d="M40.1683 35.2166C40.2451 35.3598 40.3078 35.5032 40.3424 35.6153C40.377 35.7275 40.3809 35.7992 40.353 35.8146C40.3252 35.8301 40.2679 35.7881 40.1939 35.6978C40.1199 35.6075 40.0351 35.4764 39.9583 35.3333C39.9202 35.2624 39.8852 35.1908 39.8554 35.1224C39.8255 35.0539 39.8013 34.9902 39.7841 34.9346C39.7495 34.8225 39.7457 34.7508 39.7735 34.7353C39.8014 34.7199 39.8586 34.7619 39.9326 34.8521C40.0067 34.9424 40.0914 35.0735 40.1683 35.2166Z" fill="#009B3A" stroke="black" stroke-width="0.0116667"/>
<path d="M40.3199 35.7884L40.1099 35.8351C40.0749 35.8351 40.0399 35.7534 39.9349 35.7767C39.8299 35.8001 39.7366 35.8701 39.7016 35.9167C39.6782 35.9634 39.7132 36.0101 39.8416 35.9867C39.9816 35.9634 40.0282 35.8701 40.0982 35.8701C40.1566 35.8467 40.2616 35.8234 40.3316 35.8234C40.3549 35.7767 40.4482 35.6834 40.5066 35.6367C40.5649 35.5784 40.7399 35.5201 40.8216 35.4267C40.9032 35.3334 40.9032 35.2401 40.8216 35.2517C40.7323 35.2818 40.652 35.334 40.5882 35.4034C40.5299 35.4734 40.5416 35.5784 40.4832 35.6367L40.3199 35.7884ZM40.9149 36.3601C40.8888 36.5159 40.8515 36.6593 40.8112 36.7586C40.7708 36.8579 40.7308 36.905 40.6999 36.8895C40.6689 36.874 40.6496 36.7973 40.6462 36.6761C40.6427 36.5549 40.6555 36.3993 40.6816 36.2434C40.6945 36.1662 40.7103 36.0913 40.7281 36.0229C40.7459 35.9545 40.7653 35.894 40.7853 35.8448C40.8053 35.7957 40.8254 35.7588 40.8445 35.7364C40.8636 35.7139 40.8813 35.7063 40.8966 35.7139C40.9119 35.7216 40.9246 35.7444 40.9338 35.781C40.943 35.8176 40.9486 35.8673 40.9503 35.9273C40.952 35.9873 40.9497 36.0564 40.9437 36.1307C40.9376 36.2049 40.9278 36.2829 40.9149 36.3601Z" fill="#009B3A" stroke="black" stroke-width="0.0116667"/>
<path d="M40.7866 36.325C40.7905 36.4063 40.7909 36.488 40.788 36.5647C40.785 36.6414 40.7786 36.7114 40.7693 36.7703C40.76 36.8291 40.7479 36.8754 40.7338 36.9063C40.7197 36.9371 40.7039 36.9518 40.6875 36.9493C40.6711 36.9469 40.6545 36.9273 40.6386 36.892C40.6227 36.8567 40.6079 36.8063 40.5952 36.7441C40.5826 36.682 40.5723 36.6095 40.5651 36.5313C40.5578 36.453 40.5538 36.3708 40.5532 36.29C40.5494 36.2087 40.5489 36.127 40.5519 36.0503C40.5548 35.9736 40.5612 35.9036 40.5705 35.8447C40.5799 35.7859 40.592 35.7396 40.606 35.7087C40.6201 35.6779 40.6359 35.6632 40.6523 35.6657C40.6687 35.6681 40.6854 35.6877 40.7013 35.723C40.7172 35.7584 40.7319 35.8087 40.7446 35.8709C40.7572 35.933 40.7675 36.0055 40.7747 36.0837C40.782 36.162 40.786 36.2442 40.7866 36.325Z" fill="#009B3A" stroke="black" stroke-width="0.0116667"/>
<path d="M40.3316 36.3717C40.3918 36.4239 40.4529 36.4835 40.51 36.5456C40.5672 36.6077 40.6189 36.6707 40.6611 36.7296C40.7032 36.7886 40.7347 36.8418 40.753 36.8852C40.7713 36.9287 40.7759 36.961 40.7666 36.9798C40.7572 36.9986 40.734 37.0032 40.6989 36.9934C40.6638 36.9836 40.6177 36.9596 40.5642 36.9233C40.5108 36.8869 40.4514 36.8393 40.3908 36.7841C40.3302 36.7288 40.27 36.6675 40.2149 36.605C40.1548 36.5527 40.0937 36.4932 40.0365 36.4311C39.9793 36.369 39.9277 36.306 39.8855 36.247C39.8433 36.1881 39.8119 36.1348 39.7936 36.0914C39.7752 36.048 39.7706 36.0157 39.78 35.9969C39.7894 35.9781 39.8125 35.9735 39.8476 35.9833C39.8827 35.9931 39.9288 36.0171 39.9823 36.0534C40.0358 36.0897 40.0951 36.1374 40.1558 36.1926C40.2164 36.2478 40.2766 36.3091 40.3316 36.3717Z" fill="#009B3A" stroke="black" stroke-width="0.0116667"/>
<path d="M40.4482 36.2666C40.4869 36.3377 40.5227 36.41 40.5535 36.4795C40.5842 36.5489 40.6094 36.6142 40.6276 36.6715C40.6457 36.7287 40.6565 36.777 40.6593 36.8134C40.662 36.8498 40.6568 36.8736 40.6438 36.8836C40.6307 36.8935 40.6102 36.8894 40.5834 36.8714C40.5565 36.8534 40.5239 36.8219 40.4873 36.7787C40.4507 36.7355 40.411 36.6814 40.3702 36.6196C40.3295 36.5577 40.2886 36.4893 40.2499 36.4183C40.2112 36.3472 40.1754 36.2749 40.1447 36.2054C40.1139 36.136 40.0887 36.0707 40.0706 36.0134C40.0524 35.9561 40.0416 35.9079 40.0389 35.8715C40.0361 35.8351 40.0414 35.8113 40.0544 35.8013C40.0674 35.7913 40.0879 35.7955 40.1148 35.8135C40.1416 35.8315 40.1742 35.863 40.2108 35.9062C40.2474 35.9494 40.2872 36.0035 40.3279 36.0653C40.3687 36.1271 40.4095 36.1955 40.4482 36.2666Z" fill="#009B3A" stroke="black" stroke-width="0.0116667"/>
<path d="M40.6116 36.29C40.6598 36.4421 40.6945 36.5923 40.7078 36.7075C40.7211 36.8227 40.7121 36.8935 40.6827 36.9044C40.6533 36.9152 40.606 36.8652 40.5511 36.7653C40.4961 36.6654 40.4382 36.5238 40.3899 36.3717C40.3649 36.2928 40.3432 36.2136 40.326 36.1387C40.3088 36.0638 40.2964 35.9945 40.2896 35.935C40.2828 35.8754 40.2816 35.8266 40.2862 35.7915C40.2908 35.7564 40.3011 35.7355 40.3164 35.7301C40.3317 35.7248 40.3518 35.735 40.3755 35.7602C40.3992 35.7855 40.4261 35.8252 40.4546 35.8772C40.4831 35.9292 40.5126 35.9924 40.5416 36.0632C40.5705 36.1341 40.5983 36.2111 40.6232 36.29H40.6116Z" fill="#009B3A" stroke="black" stroke-width="0.0116667"/>
<path d="M40.6583 36.885H40.4599C40.4249 36.885 40.4016 36.7917 40.2966 36.7917C40.2065 36.7932 40.1198 36.8262 40.0516 36.885C40.0049 36.9317 40.0399 36.9784 40.1683 36.9784C40.2966 36.9784 40.3666 36.92 40.4366 36.9084H40.6699L40.8799 36.7684C40.9499 36.7217 41.1249 36.6984 41.2299 36.6167C41.3116 36.5467 41.3349 36.4534 41.2649 36.4534C41.1681 36.4654 41.0759 36.5015 40.9966 36.5584C40.9383 36.605 40.9266 36.71 40.8566 36.7567C40.8099 36.78 40.6699 36.885 40.6583 36.8734M40.9499 37.62C40.8677 37.7508 40.7803 37.8657 40.7068 37.9395C40.6333 38.0134 40.5799 38.0401 40.5582 38.0138C40.5366 37.9875 40.5485 37.9103 40.5913 37.7993C40.6341 37.6883 40.7044 37.5524 40.7866 37.4217C40.8688 37.291 40.9563 37.176 41.0297 37.1022C41.1032 37.0284 41.1566 37.0016 41.1783 37.0279C41.1999 37.0542 41.188 37.1314 41.1452 37.2424C41.1024 37.3535 41.0322 37.4893 40.9499 37.62Z" fill="#009B3A"/>
<path d="M40.6583 36.885H40.4599C40.4249 36.885 40.4016 36.7917 40.2966 36.7917C40.2065 36.7932 40.1198 36.8262 40.0516 36.885C40.0049 36.9317 40.0399 36.9784 40.1683 36.9784C40.2966 36.9784 40.3666 36.92 40.4366 36.9084H40.6699L40.8799 36.7684C40.9499 36.7217 41.1249 36.6984 41.2299 36.6167C41.3116 36.5467 41.3349 36.4534 41.2649 36.4534C41.1681 36.4654 41.0759 36.5015 40.9966 36.5584C40.9383 36.605 40.9266 36.71 40.8566 36.7567C40.8099 36.78 40.6699 36.885 40.6583 36.8734M40.9499 37.62C40.8677 37.7508 40.7803 37.8657 40.7068 37.9395C40.6333 38.0134 40.5799 38.0401 40.5582 38.0138C40.5366 37.9875 40.5485 37.9103 40.5913 37.7993C40.6341 37.6883 40.7044 37.5524 40.7866 37.4217C40.8688 37.291 40.9563 37.176 41.0297 37.1022C41.1032 37.0284 41.1566 37.0016 41.1783 37.0279C41.1999 37.0542 41.188 37.1314 41.1452 37.2424C41.1024 37.3535 41.0322 37.4893 40.9499 37.62" stroke="black" stroke-width="0.0116667"/>
<path d="M40.8449 37.5267C40.7874 37.6763 40.7211 37.813 40.6608 37.9067C40.6004 38.0005 40.5508 38.0436 40.523 38.0266C40.4951 38.0096 40.4913 37.9338 40.5123 37.816C40.5333 37.6982 40.5774 37.548 40.6349 37.3984C40.6925 37.2488 40.7587 37.1121 40.8191 37.0183C40.8795 36.9246 40.929 36.8815 40.9569 36.8985C40.9847 36.9155 40.9886 36.9913 40.9676 37.1091C40.9466 37.2269 40.9025 37.3771 40.8449 37.5267ZM40.4133 37.3867C40.4717 37.5397 40.5166 37.6956 40.5382 37.8201C40.5598 37.9447 40.5563 38.0277 40.5284 38.0509C40.5006 38.0741 40.4507 38.0356 40.3897 37.9439C40.3287 37.8521 40.2617 37.7147 40.2033 37.5617C40.1449 37.4087 40.0999 37.2528 40.0783 37.1283C40.0567 37.0037 40.0602 36.9207 40.0881 36.8975C40.1159 36.8743 40.1658 36.9128 40.2268 37.0045C40.2878 37.0963 40.3549 37.2337 40.4133 37.3867Z" fill="#009B3A"/>
<path d="M40.4133 37.3867C40.4717 37.5397 40.5166 37.6956 40.5382 37.8201C40.5598 37.9447 40.5563 38.0277 40.5284 38.0509C40.5006 38.0741 40.4507 38.0356 40.3897 37.9439C40.3287 37.8521 40.2617 37.7147 40.2033 37.5617C40.1449 37.4087 40.0999 37.2528 40.0783 37.1283C40.0567 37.0037 40.0602 36.9207 40.0881 36.8975C40.1159 36.8743 40.1658 36.9128 40.2268 37.0045C40.2878 37.0963 40.3549 37.2337 40.4133 37.3867M40.8449 37.5267C40.7874 37.6763 40.7211 37.813 40.6608 37.9067C40.6004 38.0005 40.5508 38.0436 40.523 38.0266C40.4951 38.0096 40.4913 37.9338 40.5123 37.816C40.5333 37.6982 40.5774 37.548 40.6349 37.3984C40.6925 37.2488 40.7587 37.1121 40.8191 37.0183C40.8795 36.9246 40.929 36.8815 40.9569 36.8985C40.9847 36.9155 40.9886 36.9913 40.9676 37.1091C40.9466 37.2269 40.9025 37.3771 40.8449 37.5267Z" stroke="black" stroke-width="0.0116667"/>
<path d="M40.5533 37.34C40.568 37.5 40.5698 37.6564 40.5583 37.775C40.5468 37.8935 40.523 37.9645 40.4921 37.9722C40.4611 37.9799 40.4256 37.9238 40.3933 37.8162C40.361 37.7086 40.3346 37.5583 40.3199 37.3984C40.3127 37.3192 40.3085 37.24 40.3076 37.1654C40.3067 37.0908 40.3092 37.0221 40.3149 36.9634C40.3206 36.9047 40.3294 36.8571 40.3407 36.8233C40.3521 36.7894 40.3658 36.77 40.3812 36.7662C40.3965 36.7624 40.4131 36.7742 40.43 36.8009C40.447 36.8277 40.4639 36.8689 40.4799 36.9222C40.4959 36.9755 40.5106 37.0398 40.5232 37.1115C40.5358 37.1832 40.546 37.2609 40.5533 37.34Z" fill="#009B3A"/>
<path d="M40.5533 37.34C40.568 37.5 40.5698 37.6564 40.5583 37.775C40.5468 37.8935 40.523 37.9645 40.4921 37.9722C40.4611 37.9799 40.4256 37.9238 40.3933 37.8162C40.361 37.7086 40.3346 37.5583 40.3199 37.3984C40.3127 37.3192 40.3085 37.24 40.3076 37.1654C40.3067 37.0908 40.3092 37.0221 40.3149 36.9634C40.3206 36.9047 40.3294 36.8571 40.3407 36.8233C40.3521 36.7894 40.3658 36.77 40.3812 36.7662C40.3965 36.7624 40.4131 36.7742 40.43 36.8009C40.447 36.8277 40.4639 36.8689 40.4799 36.9222C40.4959 36.9755 40.5106 37.0398 40.5232 37.1115C40.5358 37.1832 40.546 37.2609 40.5533 37.34" stroke="black" stroke-width="0.0116667"/>
<path d="M40.7166 37.4217C40.7014 37.5819 40.6746 37.735 40.642 37.8472C40.6094 37.9594 40.5737 38.0215 40.5428 38.02C40.5119 38.0184 40.4882 37.9533 40.477 37.8389C40.4659 37.7245 40.4681 37.5703 40.4833 37.41C40.4908 37.3307 40.5012 37.2523 40.514 37.1793C40.5268 37.1063 40.5417 37.0402 40.5578 36.9846C40.574 36.929 40.591 36.8852 40.6081 36.8555C40.6251 36.8259 40.6417 36.811 40.6571 36.8118C40.688 36.8133 40.7117 36.8785 40.7228 36.9929C40.734 37.1072 40.7318 37.2615 40.7166 37.4217Z" fill="#009B3A" stroke="black" stroke-width="0.0116667"/>
<path d="M40.5183 37.9933C40.5183 37.9933 40.3549 37.935 40.3316 37.9117C40.2966 37.8883 40.3199 37.8183 40.2149 37.76C40.1323 37.7286 40.0409 37.7286 39.9583 37.76C39.8999 37.76 39.9116 37.83 40.0283 37.8767C40.1449 37.9467 40.2383 37.9 40.2966 37.9233L40.5066 38.0283C40.5649 38.005 40.6933 37.9933 40.7633 37.9817C40.8333 37.97 41.0083 38.0283 41.1366 37.9817C41.2416 37.9467 41.2883 37.865 41.2183 37.8417C41.1303 37.8184 41.0379 37.8184 40.9499 37.8417C40.8683 37.8533 40.8216 37.9583 40.7399 37.9583C40.6816 37.9583 40.5183 38.005 40.5066 37.9933M40.6233 38.8917C40.5542 38.9575 40.48 39.021 40.4064 39.0773C40.3328 39.1336 40.2616 39.1813 40.1981 39.2169C40.1346 39.2524 40.0805 39.2749 40.0397 39.2827C39.9989 39.2904 39.9726 39.2832 39.9627 39.2615C39.9528 39.2399 39.9595 39.2044 39.9824 39.1577C40.0053 39.111 40.0438 39.0543 40.095 38.9919C40.1461 38.9294 40.2087 38.8628 40.2779 38.7969C40.3472 38.7311 40.4214 38.6678 40.4949 38.6117C40.5651 38.542 40.6422 38.4737 40.7198 38.4124C40.7975 38.3511 40.8736 38.2985 40.9418 38.2589C41.01 38.2194 41.0684 38.194 41.1122 38.185C41.1559 38.1759 41.1838 38.1833 41.1935 38.2066C41.2033 38.23 41.1946 38.2686 41.1681 38.3192C41.1417 38.3699 41.0983 38.4312 41.0414 38.4981C40.9846 38.5649 40.916 38.6355 40.8413 38.7039C40.7666 38.7723 40.6879 38.8367 40.6116 38.8917" fill="#009B3A"/>
<path d="M40.5183 37.9933C40.5183 37.9933 40.3549 37.935 40.3316 37.9117C40.2966 37.8883 40.3199 37.8183 40.2149 37.76C40.1323 37.7286 40.0409 37.7286 39.9583 37.76C39.8999 37.76 39.9116 37.83 40.0283 37.8767C40.1449 37.9467 40.2383 37.9 40.2966 37.9233L40.5066 38.0283C40.5649 38.005 40.6933 37.9933 40.7633 37.9817C40.8333 37.97 41.0083 38.0283 41.1366 37.9817C41.2416 37.9467 41.2883 37.865 41.2183 37.8417C41.1303 37.8184 41.0379 37.8184 40.9499 37.8417C40.8683 37.8533 40.8216 37.9583 40.7399 37.9583C40.6816 37.9583 40.5183 38.005 40.5066 37.9933M40.6233 38.8917C40.5542 38.9575 40.48 39.021 40.4064 39.0773C40.3328 39.1336 40.2616 39.1813 40.1981 39.2169C40.1346 39.2524 40.0805 39.2749 40.0397 39.2827C39.9989 39.2904 39.9726 39.2832 39.9627 39.2615C39.9528 39.2399 39.9595 39.2044 39.9824 39.1577C40.0053 39.111 40.0438 39.0543 40.095 38.9919C40.1461 38.9294 40.2087 38.8628 40.2779 38.7969C40.3472 38.7311 40.4214 38.6678 40.4949 38.6117C40.5651 38.542 40.6422 38.4737 40.7198 38.4124C40.7975 38.3511 40.8736 38.2985 40.9418 38.2589C41.01 38.2194 41.0684 38.194 41.1122 38.185C41.1559 38.1759 41.1838 38.1833 41.1935 38.2066C41.2033 38.23 41.1946 38.2686 41.1681 38.3192C41.1417 38.3699 41.0983 38.4312 41.0414 38.4981C40.9846 38.5649 40.916 38.6355 40.8413 38.7039C40.7666 38.7723 40.6879 38.8367 40.6116 38.8917" stroke="black" stroke-width="0.0116667"/>
<path d="M40.5183 38.7633C40.407 38.9048 40.291 39.0283 40.1959 39.1064C40.1008 39.1846 40.0343 39.2112 40.0111 39.1802C39.9879 39.1493 40.0099 39.0634 40.0722 38.9414C40.1344 38.8195 40.232 38.6715 40.3433 38.53C40.3984 38.4599 40.4552 38.3935 40.5105 38.3347C40.5659 38.2758 40.6186 38.2256 40.6657 38.1869C40.7128 38.1481 40.7533 38.1217 40.785 38.109C40.8167 38.0964 40.839 38.0977 40.8505 38.1131C40.8619 38.1284 40.8625 38.1574 40.852 38.1983C40.8415 38.2393 40.8202 38.2915 40.7894 38.3518C40.7586 38.4122 40.7187 38.4796 40.6722 38.5502C40.6257 38.6208 40.5734 38.6932 40.5183 38.7633Z" fill="#009B3A"/>
<path d="M40.5183 38.7633C40.407 38.9048 40.291 39.0283 40.1959 39.1064C40.1008 39.1846 40.0343 39.2112 40.0111 39.1802C39.9879 39.1493 40.0099 39.0634 40.0722 38.9414C40.1344 38.8195 40.232 38.6715 40.3433 38.53C40.3984 38.4599 40.4552 38.3935 40.5105 38.3347C40.5659 38.2758 40.6186 38.2256 40.6657 38.1869C40.7128 38.1481 40.7533 38.1217 40.785 38.109C40.8167 38.0964 40.839 38.0977 40.8505 38.1131C40.8619 38.1284 40.8625 38.1574 40.852 38.1983C40.8415 38.2393 40.8202 38.2915 40.7894 38.3518C40.7586 38.4122 40.7187 38.4796 40.6722 38.5502C40.6257 38.6208 40.5734 38.6932 40.5183 38.7633" stroke="black" stroke-width="0.0116667"/>
<path d="M40.0983 38.4483C40.1134 38.5411 40.1237 38.6424 40.1283 38.7439C40.1329 38.8453 40.1316 38.9441 40.1245 39.0319C40.1175 39.1197 40.1049 39.1941 40.0877 39.2489C40.0706 39.3037 40.0494 39.3374 40.026 39.3472C40.0026 39.3569 39.9776 39.3425 39.953 39.305C39.9284 39.2676 39.905 39.2082 39.8847 39.1318C39.8644 39.0554 39.8478 38.9641 39.8363 38.8656C39.8247 38.767 39.8185 38.664 39.8183 38.565C39.8031 38.4722 39.7928 38.3709 39.7882 38.2695C39.7836 38.168 39.7849 38.0693 39.792 37.9815C39.799 37.8936 39.8117 37.8193 39.8288 37.7644C39.8459 37.7096 39.8671 37.6759 39.8905 37.6662C39.9139 37.6564 39.9389 37.6708 39.9635 37.7083C39.9881 37.7457 40.0115 37.8051 40.0318 37.8815C40.0521 37.958 40.0687 38.0492 40.0803 38.1478C40.0918 38.2463 40.098 38.3493 40.0983 38.4483Z" fill="#009B3A"/>
<path d="M40.0983 38.4483C40.1134 38.5411 40.1237 38.6424 40.1283 38.7439C40.1329 38.8453 40.1316 38.9441 40.1245 39.0319C40.1175 39.1197 40.1049 39.1941 40.0877 39.2489C40.0706 39.3037 40.0494 39.3374 40.026 39.3472C40.0026 39.3569 39.9776 39.3425 39.953 39.305C39.9284 39.2676 39.905 39.2082 39.8847 39.1318C39.8644 39.0554 39.8478 38.9641 39.8363 38.8656C39.8247 38.767 39.8185 38.664 39.8183 38.565C39.8031 38.4722 39.7928 38.3709 39.7882 38.2695C39.7836 38.168 39.7849 38.0693 39.792 37.9815C39.799 37.8936 39.8117 37.8193 39.8288 37.7644C39.8459 37.7096 39.8671 37.6759 39.8905 37.6662C39.9139 37.6564 39.9389 37.6708 39.9635 37.7083C39.9881 37.7457 40.0115 37.8051 40.0318 37.8815C40.0521 37.958 40.0687 38.0492 40.0803 38.1478C40.0918 38.2463 40.098 38.3493 40.0983 38.4483" stroke="black" stroke-width="0.0116667"/>
<path d="M40.2616 38.4484C40.2252 38.5855 40.1832 38.7047 40.1419 38.7883C40.1006 38.8719 40.0621 38.9157 40.0321 38.913C40.002 38.9104 39.9821 38.8616 39.9751 38.7738C39.9681 38.686 39.9745 38.5637 39.9933 38.4251C40.0062 38.3232 40.0257 38.215 40.0501 38.1092C40.0744 38.0034 40.1029 37.9031 40.1333 37.8167C40.1637 37.7303 40.195 37.6602 40.2247 37.6121C40.2544 37.5641 40.2816 37.5396 40.3041 37.5406C40.3265 37.5415 40.3436 37.568 40.3539 37.6178C40.3642 37.6675 40.3674 37.7391 40.3633 37.8267C40.3591 37.9143 40.3478 38.0153 40.3301 38.1213C40.3124 38.2274 40.2889 38.3355 40.2616 38.4367" fill="#009B3A"/>
<path d="M40.2616 38.4484C40.2252 38.5855 40.1832 38.7047 40.1419 38.7883C40.1006 38.8719 40.0621 38.9157 40.0321 38.913C40.002 38.9104 39.9821 38.8616 39.9751 38.7738C39.9681 38.686 39.9745 38.5637 39.9933 38.4251C40.0062 38.3232 40.0257 38.215 40.0501 38.1092C40.0744 38.0034 40.1029 37.9031 40.1333 37.8167C40.1637 37.7303 40.195 37.6602 40.2247 37.6121C40.2544 37.5641 40.2816 37.5396 40.3041 37.5406C40.3265 37.5415 40.3436 37.568 40.3539 37.6178C40.3642 37.6675 40.3674 37.7391 40.3633 37.8267C40.3591 37.9143 40.3478 38.0153 40.3301 38.1213C40.3124 38.2274 40.2889 38.3355 40.2616 38.4367" stroke="black" stroke-width="0.0116667"/>
<path d="M40.4016 38.5884C40.3693 38.6894 40.329 38.796 40.2843 38.899C40.2395 39.0021 40.1916 39.0986 40.1446 39.1802C40.0977 39.2618 40.0531 39.3262 40.0146 39.3677C39.9762 39.4092 39.9451 39.4267 39.9239 39.4186C39.9028 39.4106 39.8922 39.3772 39.8932 39.3214C39.8942 39.2656 39.9066 39.1891 39.9295 39.0983C39.9524 39.0075 39.985 38.9052 40.0245 38.8001C40.0641 38.695 40.1094 38.5904 40.1566 38.495C40.1889 38.394 40.2292 38.2874 40.2739 38.1843C40.3187 38.0813 40.3666 37.9848 40.4136 37.9032C40.4605 37.8215 40.5051 37.7572 40.5436 37.7157C40.582 37.6742 40.6132 37.6567 40.6343 37.6648C40.6555 37.6728 40.666 37.7062 40.665 37.762C40.664 37.8178 40.6516 37.8943 40.6287 37.9851C40.6058 38.0759 40.5732 38.1782 40.5337 38.2833C40.4941 38.3884 40.4488 38.493 40.4016 38.5884Z" fill="#009B3A"/>
<path d="M40.4016 38.5884C40.3693 38.6894 40.329 38.796 40.2843 38.899C40.2395 39.0021 40.1916 39.0986 40.1446 39.1802C40.0977 39.2618 40.0531 39.3262 40.0146 39.3677C39.9762 39.4092 39.9451 39.4267 39.9239 39.4186C39.9028 39.4106 39.8922 39.3772 39.8932 39.3214C39.8942 39.2656 39.9066 39.1891 39.9295 39.0983C39.9524 39.0075 39.985 38.9052 40.0245 38.8001C40.0641 38.695 40.1094 38.5904 40.1566 38.495C40.1889 38.394 40.2292 38.2874 40.2739 38.1843C40.3187 38.0813 40.3666 37.9848 40.4136 37.9032C40.4605 37.8215 40.5051 37.7572 40.5436 37.7157C40.582 37.6742 40.6132 37.6567 40.6343 37.6648C40.6555 37.6728 40.666 37.7062 40.665 37.762C40.664 37.8178 40.6516 37.8943 40.6287 37.9851C40.6058 38.0759 40.5732 38.1782 40.5337 38.2833C40.4941 38.3884 40.4488 38.493 40.4016 38.5884" stroke="black" stroke-width="0.0116667"/>
<path d="M40.0166 39.16C39.9509 39.1097 39.8885 39.0552 39.8299 38.9967C39.8066 38.9617 39.8416 38.88 39.7483 38.7867C39.6549 38.6934 39.5383 38.67 39.4683 38.67C39.3983 38.6817 39.3983 38.7517 39.5033 38.8567C39.6199 38.9734 39.7366 38.95 39.7833 38.9967C39.8533 39.0434 39.9466 39.125 39.9816 39.1834L40.2849 39.23C40.3666 39.23 40.5416 39.3584 40.6933 39.3584C40.8099 39.3584 40.9033 39.3 40.8333 39.2417C40.7444 39.1765 40.6396 39.1362 40.5299 39.125C40.4366 39.125 40.3549 39.2184 40.2733 39.195L40.0049 39.16M39.7366 40.0117C39.5533 40.0417 39.3794 40.0527 39.253 40.0422C39.1267 40.0317 39.0583 40.0006 39.063 39.9557C39.0676 39.9108 39.1449 39.8559 39.2778 39.8029C39.4107 39.75 39.5883 39.7034 39.7716 39.6734C39.8624 39.6585 39.9518 39.6482 40.0348 39.6429C40.1177 39.6377 40.1926 39.6377 40.2552 39.6429C40.3177 39.6481 40.3667 39.6584 40.3993 39.6732C40.4319 39.6881 40.4475 39.7072 40.4452 39.7294C40.443 39.7516 40.4228 39.7765 40.3859 39.8027C40.3491 39.8289 40.2962 39.8559 40.2304 39.8821C40.1646 39.9084 40.0872 39.9333 40.0024 39.9555C39.9177 39.9778 39.8274 39.9968 39.7366 40.0117Z" fill="#009B3A"/>
<path d="M40.0166 39.16C39.9509 39.1097 39.8885 39.0552 39.8299 38.9967C39.8066 38.9617 39.8416 38.88 39.7483 38.7867C39.6549 38.6934 39.5383 38.67 39.4683 38.67C39.3983 38.6817 39.3983 38.7517 39.5033 38.8567C39.6199 38.9734 39.7366 38.95 39.7833 38.9967C39.8533 39.0434 39.9466 39.125 39.9816 39.1834L40.2849 39.23C40.3666 39.23 40.5416 39.3584 40.6933 39.3584C40.8099 39.3584 40.9033 39.3 40.8333 39.2417C40.7444 39.1765 40.6396 39.1362 40.5299 39.125C40.4366 39.125 40.3549 39.2184 40.2733 39.195L40.0049 39.16M39.7366 40.0117C39.5533 40.0417 39.3794 40.0527 39.253 40.0422C39.1267 40.0317 39.0583 40.0006 39.063 39.9557C39.0676 39.9108 39.1449 39.8559 39.2778 39.8029C39.4107 39.75 39.5883 39.7034 39.7716 39.6734C39.8624 39.6585 39.9518 39.6482 40.0348 39.6429C40.1177 39.6377 40.1926 39.6377 40.2552 39.6429C40.3177 39.6481 40.3667 39.6584 40.3993 39.6732C40.4319 39.6881 40.4475 39.7072 40.4452 39.7294C40.443 39.7516 40.4228 39.7765 40.3859 39.8027C40.3491 39.8289 40.2962 39.8559 40.2304 39.8821C40.1646 39.9084 40.0872 39.9333 40.0024 39.9555C39.9177 39.9778 39.8274 39.9968 39.7366 40.0117" stroke="black" stroke-width="0.0116667"/>
<path d="M39.7249 39.825C39.5399 39.8962 39.3595 39.9486 39.2232 39.9705C39.0869 39.9924 39.006 39.9821 38.9983 39.9419C38.9906 39.9016 39.0566 39.8348 39.1819 39.756C39.3073 39.6772 39.4816 39.5929 39.6666 39.5217C39.8582 39.448 40.045 39.3939 40.186 39.3713C40.3269 39.3487 40.4105 39.3595 40.4182 39.4013C40.426 39.443 40.3573 39.5124 40.2272 39.594C40.0972 39.6757 39.9165 39.763 39.7249 39.8367" fill="#009B3A"/>
<path d="M39.7249 39.825C39.5399 39.8962 39.3595 39.9486 39.2232 39.9705C39.0869 39.9924 39.006 39.9821 38.9983 39.9419C38.9906 39.9016 39.0566 39.8348 39.1819 39.756C39.3073 39.6772 39.4816 39.5929 39.6666 39.5217C39.8582 39.448 40.045 39.3939 40.186 39.3713C40.3269 39.3487 40.4105 39.3595 40.4182 39.4013C40.426 39.443 40.3573 39.5124 40.2272 39.594C40.0972 39.6757 39.9165 39.763 39.7249 39.8367" stroke="black" stroke-width="0.0116667"/>
<path d="M39.4799 39.2883C39.405 39.4285 39.3244 39.5519 39.2516 39.6377C39.1788 39.7235 39.1182 39.7666 39.0799 39.7598C39.0416 39.753 39.028 39.6966 39.0414 39.6002C39.0547 39.5037 39.0942 39.373 39.1532 39.23C39.1916 39.1371 39.2369 39.0419 39.286 38.9515C39.335 38.8612 39.3865 38.7778 39.4367 38.7075C39.4869 38.6373 39.5345 38.5819 39.576 38.5454C39.6176 38.509 39.6521 38.4924 39.6769 38.4968C39.7018 38.5012 39.7164 38.5266 39.7197 38.5711C39.723 38.6156 39.715 38.678 39.6961 38.7539C39.6772 38.8297 39.648 38.9171 39.6106 39.0095C39.5732 39.102 39.5285 39.1972 39.4799 39.2883Z" fill="#009B3A"/>
<path d="M39.4799 39.2883C39.405 39.4285 39.3244 39.5519 39.2516 39.6377C39.1788 39.7235 39.1182 39.7666 39.0799 39.7598C39.0416 39.753 39.028 39.6966 39.0414 39.6002C39.0547 39.5037 39.0942 39.373 39.1532 39.23C39.1916 39.1371 39.2369 39.0419 39.286 38.9515C39.335 38.8612 39.3865 38.7778 39.4367 38.7075C39.4869 38.6373 39.5345 38.5819 39.576 38.5454C39.6176 38.509 39.6521 38.4924 39.6769 38.4968C39.7018 38.5012 39.7164 38.5266 39.7197 38.5711C39.723 38.6156 39.715 38.678 39.6961 38.7539C39.6772 38.8297 39.648 38.9171 39.6106 39.0095C39.5732 39.102 39.5285 39.1972 39.4799 39.2883" stroke="black" stroke-width="0.0116667"/>
<path d="M39.6549 39.3817C39.5861 39.4596 39.5145 39.5345 39.4442 39.6021C39.3739 39.6697 39.3062 39.7287 39.2451 39.7757C39.1839 39.8226 39.1306 39.8567 39.0879 39.8759C39.0453 39.8951 39.0143 39.8991 38.9967 39.8876C38.9791 39.8761 38.9752 39.8494 38.9852 39.8089C38.9953 39.7685 39.0191 39.7151 39.0553 39.6519C39.0915 39.5887 39.1394 39.5168 39.1963 39.4404C39.2531 39.364 39.3178 39.2846 39.3866 39.2067C39.5256 39.0493 39.6731 38.9076 39.7965 38.8127C39.9199 38.7178 40.0093 38.6775 40.0449 38.7008C40.0805 38.724 40.0594 38.8087 39.9862 38.9364C39.9131 39.0641 39.7939 39.2243 39.6549 39.3817Z" fill="#009B3A"/>
<path d="M39.6549 39.3817C39.5861 39.4596 39.5145 39.5345 39.4442 39.6021C39.3739 39.6697 39.3062 39.7287 39.2451 39.7757C39.1839 39.8226 39.1306 39.8567 39.0879 39.8759C39.0453 39.8951 39.0143 39.8991 38.9967 39.8876C38.9791 39.8761 38.9752 39.8494 38.9852 39.8089C38.9953 39.7685 39.0191 39.7151 39.0553 39.6519C39.0915 39.5887 39.1394 39.5168 39.1963 39.4404C39.2531 39.364 39.3178 39.2846 39.3866 39.2067C39.5256 39.0493 39.6731 38.9076 39.7965 38.8127C39.9199 38.7178 40.0093 38.6775 40.0449 38.7008C40.0805 38.724 40.0594 38.8087 39.9862 38.9364C39.9131 39.0641 39.7939 39.2243 39.6549 39.3817" stroke="black" stroke-width="0.0116667"/>
<path d="M39.7016 39.6034C39.6173 39.6725 39.5278 39.7397 39.4392 39.8001C39.3506 39.8605 39.2651 39.9127 39.1888 39.9531C39.1125 39.9934 39.0471 40.0209 38.9974 40.0336C38.9477 40.0463 38.9147 40.044 38.9009 40.0267C38.8871 40.0094 38.8927 39.9776 38.9173 39.9335C38.942 39.8894 38.9851 39.8342 39.0436 39.7716C39.1021 39.709 39.1746 39.6406 39.2561 39.5712C39.3375 39.5019 39.4259 39.4332 39.515 39.37C39.6584 39.2683 39.7963 39.1862 39.9045 39.1379C40.0127 39.0897 40.0842 39.0786 40.1065 39.1064C40.1288 39.1343 40.1004 39.1994 40.0264 39.2903C39.9523 39.3811 39.8373 39.492 39.7016 39.6034Z" fill="#009B3A"/>
<path d="M39.7016 39.6034C39.6173 39.6725 39.5278 39.7397 39.4392 39.8001C39.3506 39.8605 39.2651 39.9127 39.1888 39.9531C39.1125 39.9934 39.0471 40.0209 38.9974 40.0336C38.9477 40.0463 38.9147 40.044 38.9009 40.0267C38.8871 40.0094 38.8927 39.9776 38.9173 39.9335C38.942 39.8894 38.9851 39.8342 39.0436 39.7716C39.1021 39.709 39.1746 39.6406 39.2561 39.5712C39.3375 39.5019 39.4259 39.4332 39.515 39.37C39.6584 39.2683 39.7963 39.1862 39.9045 39.1379C40.0127 39.0897 40.0842 39.0786 40.1065 39.1064C40.1288 39.1343 40.1004 39.1994 40.0264 39.2903C39.9523 39.3811 39.8373 39.492 39.7016 39.6034" stroke="black" stroke-width="0.0116667"/>
<path d="M39.0133 39.9067C38.9806 39.8229 38.9533 39.7372 38.9316 39.65C38.9199 39.6033 39.0016 39.5567 38.9666 39.4167C38.9271 39.3036 38.8485 39.2084 38.7449 39.1483C38.6866 39.1133 38.6399 39.1717 38.6866 39.335C38.7333 39.4983 38.8499 39.5567 38.8849 39.6383L38.9783 39.9183L39.2349 40.14C39.3049 40.1983 39.4099 40.42 39.5499 40.5017C39.6666 40.5833 39.7833 40.56 39.7599 40.4783C39.7073 40.3666 39.627 40.2702 39.5266 40.1983C39.4449 40.1283 39.3166 40.1633 39.2349 40.105C39.1883 40.0467 39.0016 39.9183 39.0016 39.9067" fill="#009B3A"/>
<path d="M39.0133 39.9067C38.9806 39.8229 38.9533 39.7372 38.9316 39.65C38.9199 39.6033 39.0016 39.5567 38.9666 39.4167C38.9271 39.3036 38.8485 39.2084 38.7449 39.1483C38.6866 39.1133 38.6399 39.1717 38.6866 39.335C38.7333 39.4983 38.8499 39.5567 38.8849 39.6383L38.9783 39.9183L39.2349 40.14C39.3049 40.1983 39.4099 40.42 39.5499 40.5017C39.6666 40.5833 39.7833 40.56 39.7599 40.4783C39.7073 40.3666 39.627 40.2702 39.5266 40.1983C39.4449 40.1283 39.3166 40.1633 39.2349 40.105C39.1883 40.0467 39.0016 39.9183 39.0016 39.9067" stroke="black" stroke-width="0.0116667"/>
<path d="M38.5933 40.6416C38.438 40.633 38.2999 40.6091 38.2011 40.5736C38.1024 40.5382 38.0486 40.4933 38.0486 40.4461C38.0486 40.399 38.1024 40.3524 38.2011 40.3138C38.2999 40.2752 38.438 40.2468 38.5933 40.2333C38.7485 40.2419 38.8866 40.2658 38.9854 40.3013C39.0842 40.3367 39.1379 40.3816 39.1379 40.4288C39.1379 40.4759 39.0842 40.5225 38.9854 40.5611C38.8866 40.5997 38.7485 40.6281 38.5933 40.6416Z" fill="#009B3A"/>
<path d="M38.5933 40.6416C38.438 40.633 38.2999 40.6091 38.2011 40.5736C38.1024 40.5382 38.0486 40.4933 38.0486 40.4461C38.0486 40.399 38.1024 40.3524 38.2011 40.3138C38.2999 40.2752 38.438 40.2468 38.5933 40.2333C38.7485 40.2419 38.8866 40.2658 38.9854 40.3013C39.0842 40.3367 39.1379 40.3816 39.1379 40.4288C39.1379 40.4759 39.0842 40.5225 38.9854 40.5611C38.8866 40.5997 38.7485 40.6281 38.5933 40.6416" stroke="black" stroke-width="0.0116667"/>
<path d="M38.4999 40C38.3778 40.1579 38.2441 40.2959 38.1282 40.3834C38.0124 40.471 37.9238 40.5011 37.882 40.4671C37.8403 40.433 37.8487 40.3377 37.9055 40.202C37.9623 40.0662 38.0628 39.9013 38.1849 39.7434C38.2441 39.667 38.3066 39.5948 38.369 39.5307C38.4313 39.4667 38.4921 39.412 38.5481 39.37C38.604 39.3279 38.6539 39.2993 38.695 39.2856C38.736 39.272 38.7674 39.2736 38.7873 39.2905C38.8072 39.3073 38.8153 39.3391 38.811 39.3838C38.8068 39.4286 38.7903 39.4856 38.7625 39.5515C38.7348 39.6174 38.6963 39.6909 38.6492 39.7678C38.6021 39.8448 38.5475 39.9237 38.4883 40" fill="#009B3A"/>
<path d="M38.4999 40C38.3778 40.1579 38.2441 40.2959 38.1282 40.3834C38.0124 40.471 37.9238 40.5011 37.882 40.4671C37.8403 40.433 37.8487 40.3377 37.9055 40.202C37.9623 40.0662 38.0628 39.9013 38.1849 39.7434C38.2441 39.667 38.3066 39.5948 38.369 39.5307C38.4313 39.4667 38.4921 39.412 38.5481 39.37C38.604 39.3279 38.6539 39.2993 38.695 39.2856C38.736 39.272 38.7674 39.2736 38.7873 39.2905C38.8072 39.3073 38.8153 39.3391 38.811 39.3838C38.8068 39.4286 38.7903 39.4856 38.7625 39.5515C38.7348 39.6174 38.6963 39.6909 38.6492 39.7678C38.6021 39.8448 38.5475 39.9237 38.4883 40" stroke="black" stroke-width="0.0116667"/>
<path d="M38.5933 40.3266C38.4115 40.4046 38.2299 40.4592 38.0883 40.4782C37.9467 40.4973 37.8567 40.4793 37.8381 40.4283C37.8195 40.3772 37.8739 40.2973 37.9893 40.206C38.1046 40.1147 38.2715 40.0196 38.4533 39.9416C38.635 39.8636 38.8166 39.8091 38.9582 39.79C39.0999 39.7709 39.1899 39.7889 39.2084 39.84C39.227 39.891 39.1726 39.971 39.0572 40.0622C38.9419 40.1535 38.775 40.2486 38.5933 40.3266ZM38.7916 34.0966C38.8715 34.1715 38.9376 34.2456 38.9769 34.3043C39.0162 34.363 39.0258 34.4021 39.0038 34.4138C38.9818 34.4255 38.9299 34.409 38.8582 34.3676C38.7865 34.3261 38.7003 34.2628 38.6166 34.19C38.5702 34.1496 38.5261 34.1077 38.4869 34.0667C38.4478 34.0257 38.4145 33.9867 38.3892 33.9521C38.3639 33.9174 38.3472 33.8879 38.34 33.8655C38.3328 33.843 38.3354 33.828 38.3476 33.8216C38.3598 33.8151 38.3813 33.8172 38.4107 33.8278C38.4402 33.8383 38.4769 33.8572 38.5187 33.883C38.5604 33.9089 38.6063 33.9412 38.6532 33.978C38.7002 34.0148 38.7473 34.0552 38.7916 34.0966ZM38.5699 34.2716C38.6665 34.2895 38.7531 34.3126 38.8164 34.3373C38.8797 34.3619 38.9162 34.3868 38.9202 34.408C38.9242 34.4293 38.8954 34.4457 38.8385 34.4548C38.7815 34.4639 38.6994 34.4651 38.6049 34.4583C38.5389 34.4535 38.469 34.445 38.4007 34.4333C38.3323 34.4217 38.2673 34.4072 38.2107 34.3911C38.1541 34.3749 38.1075 34.3576 38.0744 34.3403C38.0413 34.323 38.0226 34.3063 38.0198 34.2915C38.017 34.2766 38.0302 34.264 38.0583 34.2547C38.0864 34.2453 38.1287 34.2395 38.1819 34.2376C38.2351 34.2356 38.2978 34.2377 38.3651 34.2436C38.4324 34.2495 38.5025 34.2591 38.5699 34.2716Z" fill="#009B3A"/>
<path d="M38.5933 40.3266C38.4115 40.4046 38.2299 40.4592 38.0883 40.4782C37.9467 40.4973 37.8567 40.4793 37.8381 40.4283C37.8195 40.3772 37.8739 40.2973 37.9893 40.206C38.1046 40.1147 38.2715 40.0196 38.4533 39.9416C38.635 39.8636 38.8166 39.8091 38.9582 39.79C39.0999 39.7709 39.1899 39.7889 39.2084 39.84C39.227 39.891 39.1726 39.971 39.0572 40.0622C38.9419 40.1535 38.775 40.2486 38.5933 40.3266M38.7916 34.0966C38.8715 34.1715 38.9376 34.2456 38.9769 34.3043C39.0162 34.363 39.0258 34.4021 39.0038 34.4138C38.9818 34.4255 38.9299 34.409 38.8582 34.3676C38.7865 34.3261 38.7003 34.2628 38.6166 34.19C38.5702 34.1496 38.5261 34.1077 38.4869 34.0667C38.4478 34.0257 38.4145 33.9867 38.3892 33.9521C38.3639 33.9174 38.3472 33.8879 38.34 33.8655C38.3328 33.843 38.3354 33.828 38.3476 33.8216C38.3598 33.8151 38.3813 33.8172 38.4107 33.8278C38.4402 33.8383 38.4769 33.8572 38.5187 33.883C38.5604 33.9089 38.6063 33.9412 38.6532 33.978C38.7002 34.0148 38.7473 34.0552 38.7916 34.0966M38.5699 34.2716C38.6665 34.2895 38.7531 34.3126 38.8164 34.3373C38.8797 34.3619 38.9162 34.3868 38.9202 34.408C38.9242 34.4293 38.8954 34.4457 38.8385 34.4548C38.7815 34.4639 38.6994 34.4651 38.6049 34.4583C38.5389 34.4535 38.469 34.445 38.4007 34.4333C38.3323 34.4217 38.2673 34.4072 38.2107 34.3911C38.1541 34.3749 38.1075 34.3576 38.0744 34.3403C38.0413 34.323 38.0226 34.3063 38.0198 34.2915C38.017 34.2766 38.0302 34.264 38.0583 34.2547C38.0864 34.2453 38.1287 34.2395 38.1819 34.2376C38.2351 34.2356 38.2978 34.2377 38.3651 34.2436C38.4324 34.2495 38.5025 34.2591 38.5699 34.2716" stroke="black" stroke-width="0.0116667"/>
<path d="M38.6632 34.155C38.7226 34.1852 38.7802 34.217 38.8327 34.2487C38.8851 34.2804 38.9315 34.3113 38.9692 34.3397C39.0068 34.3681 39.035 34.3934 39.052 34.4141C39.0691 34.4349 39.0747 34.4507 39.0685 34.4606C39.0624 34.4706 39.0447 34.4745 39.0163 34.4722C38.9879 34.4698 38.9495 34.4612 38.9032 34.4469C38.8569 34.4327 38.8036 34.4129 38.7464 34.3888C38.6892 34.3648 38.6293 34.3369 38.5699 34.3067C38.45 34.2457 38.34 34.1793 38.264 34.122C38.188 34.0647 38.1522 34.0212 38.1646 34.0011C38.177 33.981 38.2365 33.9859 38.33 34.0148C38.4235 34.0436 38.5434 34.0941 38.6632 34.155ZM35.4316 39.9417C35.4316 39.9417 36.0266 40.07 36.5516 40.2567C37.0766 40.455 37.8699 41.0967 38.0799 41.1434C38.3132 41.1434 38.6516 41.0617 38.7799 40.7234C38.4066 40.8167 38.1966 40.9684 37.8466 40.7817C37.7182 40.735 37.3099 40.3617 36.8549 40.1634C36.4116 39.965 35.5132 39.7434 35.5132 39.7434L35.4316 39.9417ZM36.0732 34.5167L36.7616 34.155L36.0032 34.3534L35.9099 34.4817L36.0732 34.5167Z" fill="#009B3A"/>
<path d="M38.6632 34.155C38.7226 34.1852 38.7802 34.217 38.8327 34.2487C38.8851 34.2804 38.9315 34.3113 38.9692 34.3397C39.0068 34.3681 39.035 34.3934 39.052 34.4141C39.0691 34.4349 39.0747 34.4507 39.0685 34.4606C39.0624 34.4706 39.0447 34.4745 39.0163 34.4722C38.9879 34.4698 38.9495 34.4612 38.9032 34.4469C38.8569 34.4327 38.8036 34.4129 38.7464 34.3888C38.6892 34.3648 38.6293 34.3369 38.5699 34.3067C38.45 34.2457 38.34 34.1793 38.264 34.122C38.188 34.0647 38.1522 34.0212 38.1646 34.0011C38.177 33.981 38.2365 33.9859 38.33 34.0148C38.4235 34.0436 38.5434 34.0941 38.6632 34.155M35.4316 39.9417C35.4316 39.9417 36.0266 40.07 36.5516 40.2567C37.0766 40.455 37.8699 41.0967 38.0799 41.1434C38.3132 41.1434 38.6516 41.0617 38.7799 40.7234C38.4066 40.8167 38.1966 40.9684 37.8466 40.7817C37.7182 40.735 37.3099 40.3617 36.8549 40.1634C36.4116 39.965 35.5132 39.7434 35.5132 39.7434L35.4316 39.9417M36.0732 34.5167L36.7616 34.155L36.0032 34.3534L35.9099 34.4817L36.0732 34.5167" stroke="black" stroke-width="0.0116667"/>
<path d="M36.7266 34.6916C36.4583 34.6333 36.0499 34.54 35.7933 34.5283C35.9683 34.33 36.2133 33.9799 36.3766 33.7816C36.2599 33.9799 36.1083 34.2483 36.0499 34.4233C36.2249 34.5283 36.5166 34.6099 36.7266 34.6799" fill="#009B3A"/>
<path d="M36.7266 34.6916C36.4583 34.6333 36.0499 34.54 35.7933 34.5283C35.9683 34.33 36.2133 33.9799 36.3766 33.7816C36.2599 33.9799 36.1083 34.2483 36.0499 34.4233C36.2249 34.5283 36.5166 34.6099 36.7266 34.6799" stroke="black" stroke-width="0.0116667"/>
<path d="M35.9449 34.5633C36.1494 34.4017 36.3555 34.2422 36.5633 34.085L35.8516 34.4L35.7816 34.5516H35.9449" fill="#009B3A"/>
<path d="M35.9449 34.5633C36.1494 34.4017 36.3555 34.2422 36.5633 34.085L35.8516 34.4L35.7816 34.5516H35.9449" stroke="black" stroke-width="0.0116667"/>
<path d="M36.5983 34.68C36.3299 34.6217 35.9216 34.5283 35.6649 34.505C35.8283 34.3067 36.0732 33.9567 36.2249 33.735C36.1316 33.945 35.9682 34.2133 35.9099 34.4117C36.0966 34.5167 36.3882 34.5983 36.6099 34.68" fill="#009B3A"/>
<path d="M36.5983 34.68C36.3299 34.6217 35.9216 34.5283 35.6649 34.505C35.8283 34.3067 36.0732 33.9567 36.2249 33.735C36.1316 33.945 35.9682 34.2133 35.9099 34.4117C36.0966 34.5167 36.3882 34.5983 36.6099 34.68" stroke="black" stroke-width="0.0116667"/>
<path d="M35.8516 34.5984L36.5632 34.295L35.7932 34.4234L35.6882 34.54L35.8399 34.5984" fill="#009B3A"/>
<path d="M35.8516 34.5984L36.5632 34.295L35.7932 34.4234L35.6882 34.54L35.8399 34.5984" stroke="black" stroke-width="0.0116667"/>
<path d="M36.5166 34.6917C36.2483 34.6567 35.8166 34.61 35.5599 34.6217C35.7116 34.3884 35.9099 34.0034 36.0383 33.77C35.9683 33.9917 35.8399 34.2834 35.8049 34.4817C36.0033 34.575 36.3066 34.6217 36.5166 34.68" fill="#009B3A"/>
<path d="M36.5166 34.6917C36.2483 34.6567 35.8166 34.61 35.5599 34.6217C35.7116 34.3884 35.9099 34.0034 36.0383 33.77C35.9683 33.9917 35.8399 34.2834 35.8049 34.4817C36.0033 34.575 36.3066 34.6217 36.5166 34.68" stroke="black" stroke-width="0.0116667"/>
<path d="M35.7699 34.5983L36.2599 34.015L35.6416 34.47L35.6066 34.6217L35.7699 34.5983Z" fill="#009B3A"/>
<path d="M35.7699 34.5983L36.2599 34.015L35.6416 34.47L35.6066 34.6217L35.7699 34.5983" stroke="black" stroke-width="0.0116667"/>
<path d="M36.5166 34.7266C36.2249 34.7266 35.7699 34.6916 35.4899 34.7266C35.6299 34.4583 35.8049 34.0266 35.9099 33.7583C35.8633 34.0033 35.7583 34.3416 35.7466 34.5633C35.9566 34.6333 36.2833 34.68 36.5166 34.7266Z" fill="#009B3A"/>
<path d="M36.5166 34.7266C36.2249 34.7266 35.7699 34.6916 35.4899 34.7266C35.6299 34.4583 35.8049 34.0266 35.9099 33.7583C35.8633 34.0033 35.7583 34.3416 35.7466 34.5633C35.9566 34.6333 36.2833 34.68 36.5166 34.7266" stroke="black" stroke-width="0.0116667"/>
<path d="M35.6766 34.7383L36.2599 34.1666L35.5483 34.575L35.5016 34.7383H35.6766Z" fill="#009B3A" stroke="black" stroke-width="0.0116667"/>
<path d="M36.3882 34.7383C36.0732 34.7383 35.5949 34.7266 35.2799 34.7616C35.4899 34.47 35.7699 33.9916 35.9332 33.7C35.8166 33.9683 35.6532 34.33 35.5832 34.575C35.8049 34.6566 36.1432 34.6916 36.3882 34.7383Z" fill="#009B3A" stroke="black" stroke-width="0.0116667"/>
<path d="M35.4666 34.785L36.2366 34.1433L35.3732 34.5983L35.2799 34.785H35.4666Z" fill="#009B3A"/>
<path d="M35.4666 34.785L36.2366 34.1433L35.3732 34.5983L35.2799 34.785H35.4666" stroke="black" stroke-width="0.0116667"/>
<path d="M36.2833 34.7616C35.9683 34.8083 35.4783 34.8549 35.1866 34.9366C35.3383 34.6216 35.5482 34.1199 35.6766 33.8049C35.6066 34.0849 35.4782 34.4583 35.4432 34.7149C35.6766 34.7616 36.0266 34.7499 36.2716 34.7616" fill="#009B3A"/>
<path d="M36.2833 34.7616C35.9683 34.8083 35.4783 34.8549 35.1866 34.9366C35.3383 34.6216 35.5482 34.1199 35.6766 33.8049C35.6066 34.0849 35.4782 34.4583 35.4432 34.7149C35.6766 34.7616 36.0266 34.7499 36.2716 34.7616" stroke="black" stroke-width="0.0116667"/>
<path d="M35.3733 34.9133L35.9566 34.0967L35.2216 34.7617L35.1866 34.96L35.3733 34.9133Z" fill="#009B3A"/>
<path d="M35.3733 34.9133L35.9566 34.0967L35.2216 34.7617L35.1866 34.96L35.3733 34.9133" stroke="black" stroke-width="0.0116667"/>
<path d="M36.0966 34.855C35.7933 34.89 35.3033 34.9133 34.9999 34.9717C35.1749 34.6683 35.4083 34.1783 35.5599 33.875C35.4666 34.1433 35.3266 34.5167 35.2799 34.7733C35.5133 34.8317 35.8633 34.8317 36.0966 34.855Z" fill="#009B3A"/>
<path d="M36.0966 34.855C35.7933 34.89 35.3033 34.9133 34.9999 34.9717C35.1749 34.6683 35.4083 34.1783 35.5599 33.875C35.4666 34.1433 35.3266 34.5167 35.2799 34.7733C35.5133 34.8317 35.8633 34.8317 36.0966 34.855" stroke="black" stroke-width="0.0116667"/>
<path d="M35.2683 34.9951L36.0149 34.3534L35.1633 34.8084L35.0816 34.9951H35.2683Z" fill="#009B3A" stroke="black" stroke-width="0.0116667"/>
<path d="M36.0149 34.89C35.6999 34.96 35.2099 35.0417 34.9183 35.135C35.0583 34.82 35.2449 34.3067 35.3616 33.9917C35.3033 34.2717 35.1983 34.645 35.1749 34.9017C35.4083 34.9367 35.7583 34.9017 36.0149 34.89Z" fill="#009B3A" stroke="black" stroke-width="0.0116667"/>
<path d="M35.1399 35.0416L35.6066 34.1433L34.9766 34.9133L34.9649 35.1116L35.1399 35.03" fill="#009B3A"/>
<path d="M35.1399 35.0416L35.6066 34.1433L34.9766 34.9133L34.9649 35.1116L35.1399 35.03" stroke="black" stroke-width="0.0116667"/>
<path d="M36.0149 34.9367C35.6649 35.0301 35.1516 35.1467 34.8483 35.2634C34.9649 34.9017 35.0933 34.3301 35.1866 33.9684C35.1516 34.2834 35.0816 34.7034 35.0933 34.9951C35.3616 35.0184 35.7349 34.9601 36.0033 34.9367" fill="#009B3A"/>
<path d="M36.0149 34.9367C35.6649 35.0301 35.1516 35.1467 34.8483 35.2634C34.9649 34.9017 35.0933 34.3301 35.1866 33.9684C35.1516 34.2834 35.0816 34.7034 35.0933 34.9951C35.3616 35.0184 35.7349 34.9601 36.0033 34.9367" stroke="black" stroke-width="0.0116667"/>
<path d="M35.0466 35.2401L35.6533 34.3534L34.8833 35.0651L34.8483 35.2984L35.0466 35.2401Z" fill="#009B3A"/>
<path d="M35.0466 35.2401L35.6533 34.3534L34.8833 35.0651L34.8483 35.2984L35.0466 35.2401" stroke="black" stroke-width="0.0116667"/>
<path d="M35.8749 35.0417C35.5482 35.1467 35.0349 35.2867 34.7316 35.4267C34.8249 35.0533 34.9416 34.4817 35.0116 34.12C34.9999 34.435 34.9532 34.855 34.9766 35.135C35.2332 35.1467 35.6066 35.065 35.8749 35.0417Z" fill="#009B3A"/>
<path d="M35.8749 35.0417C35.5482 35.1467 35.0349 35.2867 34.7316 35.4267C34.8249 35.0533 34.9416 34.4817 35.0116 34.12C34.9999 34.435 34.9532 34.855 34.9766 35.135C35.2332 35.1467 35.6066 35.065 35.8749 35.0417" stroke="black" stroke-width="0.0116667"/>
<path d="M34.9299 35.3683L35.3849 34.3883L34.7316 35.2283V35.4616L34.9299 35.3683Z" fill="#009B3A"/>
<path d="M34.9299 35.3683L35.3849 34.3883L34.7316 35.2283V35.4616L34.9299 35.3683" stroke="black" stroke-width="0.0116667"/>
<path d="M35.7466 35.1817C35.4199 35.2517 34.8949 35.3567 34.5799 35.4617C34.7082 35.1117 34.8716 34.5283 34.9766 34.1783C34.9299 34.4933 34.8482 34.925 34.8482 35.1933C35.1049 35.2283 35.4782 35.1817 35.7466 35.17" fill="#009B3A"/>
<path d="M35.7466 35.1817C35.4199 35.2517 34.8949 35.3567 34.5799 35.4617C34.7082 35.1117 34.8716 34.5283 34.9766 34.1783C34.9299 34.4933 34.8482 34.925 34.8482 35.1933C35.1049 35.2283 35.4782 35.1817 35.7466 35.17" stroke="black" stroke-width="0.0116667"/>
<path d="M34.8133 35.4617L35.5599 34.6917L34.6849 35.2633L34.6149 35.4733L34.8133 35.4617Z" fill="#009B3A"/>
<path d="M34.8133 35.4617L35.5599 34.6917L34.6849 35.2633L34.6149 35.4733L34.8133 35.4617" stroke="black" stroke-width="0.0116667"/>
<path d="M35.6066 35.31C35.2683 35.3566 34.7549 35.4033 34.4399 35.485C34.5916 35.135 34.7899 34.575 34.9066 34.225C34.8366 34.54 34.7316 34.96 34.7083 35.24C34.9649 35.2983 35.3383 35.2866 35.6066 35.31Z" fill="#009B3A"/>
<path d="M35.6066 35.31C35.2683 35.3566 34.7549 35.4033 34.4399 35.485C34.5916 35.135 34.7899 34.575 34.9066 34.225C34.8366 34.54 34.7316 34.96 34.7083 35.24C34.9649 35.2983 35.3383 35.2866 35.6066 35.31" stroke="black" stroke-width="0.0116667"/>
<path d="M34.6732 35.3917L35.1749 34.4233L34.4866 35.24V35.4617L34.6732 35.38" fill="#009B3A"/>
<path d="M34.6732 35.3917L35.1749 34.4233L34.4866 35.24V35.4617L34.6732 35.38" stroke="black" stroke-width="0.0116667"/>
<path d="M35.6416 35.1933C35.2916 35.345 34.7083 35.5433 34.3699 35.73C34.4866 35.2983 34.6033 34.6217 34.6733 34.2017C34.6733 34.5633 34.6149 35.065 34.6383 35.38C34.9299 35.38 35.3383 35.2517 35.6416 35.1933Z" fill="#009B3A"/>
<path d="M35.6416 35.1933C35.2916 35.345 34.7083 35.5433 34.3699 35.73C34.4866 35.2983 34.6033 34.6217 34.6733 34.2017C34.6733 34.5633 34.6149 35.065 34.6383 35.38C34.9299 35.38 35.3383 35.2517 35.6416 35.1933" stroke="black" stroke-width="0.0116667"/>
<path d="M34.6033 35.6716L35.2099 34.575L34.4049 35.5083L34.3816 35.765L34.6033 35.6716Z" fill="#009B3A"/>
<path d="M34.6033 35.6716L35.2099 34.575L34.4049 35.5083L34.3816 35.765L34.6033 35.6716" stroke="black" stroke-width="0.0116667"/>
<path d="M35.5016 35.3333C35.1516 35.4966 34.5916 35.73 34.265 35.9283C34.3583 35.5083 34.44 34.82 34.4983 34.4116C34.4983 34.7616 34.475 35.2633 34.51 35.5783C34.8016 35.5433 35.21 35.4033 35.5016 35.3333Z" fill="#009B3A" stroke="black" stroke-width="0.0116667"/>
<path d="M34.4749 35.835L34.9182 34.6566L34.2532 35.7066L34.2766 35.9749L34.4749 35.835Z" fill="#009B3A"/>
<path d="M34.4749 35.835L34.9182 34.6566L34.2532 35.7066L34.2766 35.9749L34.4749 35.835" stroke="black" stroke-width="0.0116667"/>
<path d="M35.3499 35.4267C34.9999 35.6017 34.4399 35.8351 34.1133 36.0451C34.1949 35.6134 34.2766 34.9367 34.3349 34.5167C34.3349 34.8667 34.3116 35.3684 34.3583 35.6834C34.6499 35.6484 35.0583 35.4967 35.3499 35.4267Z" fill="#009B3A"/>
<path d="M35.3499 35.4267C34.9999 35.6017 34.4399 35.8351 34.1133 36.0451C34.1949 35.6134 34.2766 34.9367 34.3349 34.5167C34.3349 34.8667 34.3116 35.3684 34.3583 35.6834C34.6499 35.6484 35.0583 35.4967 35.3499 35.4267" stroke="black" stroke-width="0.0116667"/>
<path d="M34.3816 35.975L35.0582 34.9366L34.1949 35.7883L34.1599 36.045L34.3816 35.975Z" fill="#009B3A" stroke="black" stroke-width="0.0116667"/>
<path d="M35.3149 35.3684C34.9999 35.6251 34.4983 35.9984 34.2183 36.2784C34.2183 35.8351 34.1599 35.1701 34.1249 34.7617C34.1949 35.1001 34.2766 35.5784 34.3933 35.8701C34.6733 35.7651 35.0349 35.5201 35.3266 35.3801" fill="#009B3A"/>
<path d="M35.3149 35.3684C34.9999 35.6251 34.4983 35.9984 34.2183 36.2784C34.2183 35.8351 34.1599 35.1701 34.1249 34.7617C34.1949 35.1001 34.2766 35.5784 34.3933 35.8701C34.6733 35.7651 35.0349 35.5201 35.3266 35.3801" stroke="black" stroke-width="0.0116667"/>
<path d="M34.4166 36.0334L34.4866 34.785L34.1599 35.9984L34.2532 36.2317L34.4166 36.0334Z" fill="#009B3A"/>
<path d="M34.4166 36.0334L34.4866 34.785L34.1599 35.9984L34.2532 36.2317L34.4166 36.0334" stroke="black" stroke-width="0.0116667"/>
<path d="M35.2333 35.485C34.9066 35.7417 34.4166 36.1034 34.1249 36.3834C34.1249 35.9517 34.0666 35.275 34.0316 34.8667C34.1133 35.2167 34.1833 35.6834 34.2999 35.975C34.5799 35.8817 34.9416 35.625 35.2333 35.485Z" fill="#009B3A" stroke="black" stroke-width="0.0116667"/>
<path d="M34.3349 36.2433L34.6499 35.0183L34.1016 36.1383L34.1366 36.395L34.3349 36.2433Z" fill="#009B3A"/>
<path d="M34.3349 36.2433L34.6499 35.0183L34.1016 36.1383L34.1366 36.395L34.3349 36.2433" stroke="black" stroke-width="0.0116667"/>
<path d="M35.1866 35.5083C34.8949 35.8116 34.4166 36.255 34.1483 36.5583C34.1016 36.1266 33.9733 35.4383 33.8916 35.0183C34.0083 35.3683 34.1366 35.8466 34.2883 36.1266C34.5566 35.9983 34.9183 35.7066 35.1866 35.52" fill="#009B3A"/>
<path d="M35.1866 35.5083C34.8949 35.8116 34.4166 36.255 34.1483 36.5583C34.1016 36.1266 33.9733 35.4383 33.8916 35.0183C34.0083 35.3683 34.1366 35.8466 34.2883 36.1266C34.5566 35.9983 34.9183 35.7066 35.1866 35.52" stroke="black" stroke-width="0.0116667"/>
<path d="M34.3349 36.395L34.3932 35.1L34.0782 36.36L34.1716 36.5933L34.3349 36.395Z" fill="#009B3A"/>
<path d="M34.3349 36.395L34.3932 35.1L34.0782 36.36L34.1716 36.5933L34.3349 36.395" stroke="black" stroke-width="0.0116667"/>
<path d="M35.0932 35.7416C34.7782 35.9983 34.2766 36.3833 33.9732 36.675C33.9732 36.2316 33.8916 35.5316 33.8566 35.1C33.9382 35.45 34.0316 35.9516 34.1482 36.255C34.4399 36.1383 34.8132 35.8933 35.0932 35.73" fill="#009B3A"/>
<path d="M35.0932 35.7416C34.7782 35.9983 34.2766 36.3833 33.9732 36.675C33.9732 36.2316 33.8916 35.5316 33.8566 35.1C33.9382 35.45 34.0316 35.9516 34.1482 36.255C34.4399 36.1383 34.8132 35.8933 35.0932 35.73" stroke="black" stroke-width="0.0116667"/>
<path d="M34.2416 36.5467L34.6849 35.3217L34.0082 36.4067L34.0316 36.675L34.2416 36.5467Z" fill="#009B3A"/>
<path d="M34.2416 36.5467L34.6849 35.3217L34.0082 36.4067L34.0316 36.675L34.2416 36.5467" stroke="black" stroke-width="0.0116667"/>
<path d="M35.0932 35.7417C34.8016 36.0333 34.3582 36.4883 34.1016 36.8033C34.0549 36.36 33.9266 35.66 33.8566 35.24C33.9732 35.59 34.0899 36.08 34.2299 36.36C34.4982 36.22 34.8249 35.9283 35.0932 35.7417Z" fill="#009B3A"/>
<path d="M35.0932 35.7417C34.8016 36.0333 34.3582 36.4883 34.1016 36.8033C34.0549 36.36 33.9266 35.66 33.8566 35.24C33.9732 35.59 34.0899 36.08 34.2299 36.36C34.4982 36.22 34.8249 35.9283 35.0932 35.7417" stroke="black" stroke-width="0.0116667"/>
<path d="M34.2533 36.605L34.2066 35.3217L33.9966 36.605L34.1132 36.8267L34.2533 36.605Z" fill="#009B3A" stroke="black" stroke-width="0.0116667"/>
<path d="M34.9532 35.835C34.6732 36.1383 34.2416 36.5933 33.9966 36.92C33.9382 36.4533 33.7866 35.7766 33.7049 35.345C33.8216 35.695 33.9732 36.185 34.1132 36.465C34.3699 36.325 34.6966 36.0216 34.9532 35.835Z" fill="#009B3A" stroke="black" stroke-width="0.0116667"/>
<path d="M34.1832 36.7333L34.3232 35.4266L33.9382 36.6633L34.0199 36.92L34.1832 36.7333Z" fill="#009B3A"/>
<path d="M34.1832 36.7333L34.3232 35.4266L33.9382 36.6633L34.0199 36.92L34.1832 36.7333" stroke="black" stroke-width="0.0116667"/>
<path d="M34.8832 35.8816C34.6499 36.2199 34.2416 36.6983 34.0199 37.0483C33.9266 36.6049 33.7282 35.9399 33.6116 35.5316C33.7632 35.8583 33.9382 36.325 34.1016 36.5933C34.3466 36.43 34.6499 36.1033 34.8949 35.8933" fill="#009B3A"/>
<path d="M34.8832 35.8816C34.6499 36.2199 34.2416 36.6983 34.0199 37.0483C33.9266 36.6049 33.7282 35.9399 33.6116 35.5316C33.7632 35.8583 33.9382 36.325 34.1016 36.5933C34.3466 36.43 34.6499 36.1033 34.8949 35.8933" stroke="black" stroke-width="0.0116667"/>
<path d="M34.1832 36.8617L34.0899 35.5433L33.9266 36.85L34.0432 37.0833L34.1716 36.85" fill="#009B3A"/>
<path d="M34.1832 36.8617L34.0899 35.5433L33.9266 36.85L34.0432 37.0833L34.1716 36.85" stroke="black" stroke-width="0.0116667"/>
<path d="M34.8716 35.9634C34.6383 36.3134 34.2533 36.815 34.0549 37.1767C33.9383 36.7334 33.7049 36.0684 33.5649 35.66C33.7283 35.9867 33.9266 36.4534 34.1133 36.71C34.3466 36.535 34.6383 36.185 34.8716 35.9634Z" fill="#009B3A" stroke="black" stroke-width="0.0116667"/>
<path d="M34.2533 36.9784L34.3933 35.66L34.02 36.8967L34.09 37.165L34.2533 36.9784Z" fill="#009B3A" stroke="black" stroke-width="0.0116667"/>
<path d="M34.8133 36.0917C34.6149 36.4534 34.2883 37.025 34.1133 37.41C33.9616 36.99 33.6699 36.36 33.4949 35.9634C33.6933 36.2667 33.9266 36.6984 34.1366 36.9434C34.3583 36.7334 34.6033 36.3367 34.8133 36.08" fill="#009B3A"/>
<path d="M34.8133 36.0917C34.6149 36.4534 34.2883 37.025 34.1133 37.41C33.9616 36.99 33.6699 36.36 33.4949 35.9634C33.6933 36.2667 33.9266 36.6984 34.1366 36.9434C34.3583 36.7334 34.6033 36.3367 34.8133 36.08" stroke="black" stroke-width="0.0116667"/>
<path d="M34.2182 37.095L33.8449 35.835L33.9616 37.1533L34.1366 37.34L34.2066 37.095" fill="#009B3A"/>
<path d="M34.2182 37.095L33.8449 35.835L33.9616 37.1533L34.1366 37.34L34.2066 37.095" stroke="black" stroke-width="0.0116667"/>
<path d="M34.8132 36.2317C34.6032 36.605 34.2532 37.165 34.0782 37.55C33.9266 37.13 33.6349 36.5 33.4482 36.115C33.6466 36.4183 33.8916 36.85 34.1016 37.0833C34.3349 36.8733 34.5916 36.4883 34.8016 36.2317" fill="#009B3A"/>
<path d="M34.8132 36.2317C34.6032 36.605 34.2532 37.165 34.0782 37.55C33.9266 37.13 33.6349 36.5 33.4482 36.115C33.6466 36.4183 33.8916 36.85 34.1016 37.0833C34.3349 36.8733 34.5916 36.4883 34.8016 36.2317" stroke="black" stroke-width="0.0116667"/>
<path d="M34.2299 37.3283L34.0899 36.01L33.9733 37.3283L34.1016 37.5617L34.2299 37.3283Z" fill="#009B3A"/>
<path d="M34.2299 37.3283L34.0899 36.01L33.9733 37.3283L34.1016 37.5617L34.2299 37.3283" stroke="black" stroke-width="0.0116667"/>
<path d="M34.8366 36.3483C34.6149 36.71 34.2532 37.27 34.0782 37.6433C33.9266 37.2233 33.6466 36.5933 33.4716 36.1967C33.6699 36.5 33.9032 36.9433 34.1132 37.1767C34.3466 36.9783 34.6149 36.5933 34.8366 36.3483Z" fill="#009B3A" stroke="black" stroke-width="0.0116667"/>
<path d="M34.2183 37.4334L33.9733 36.15L33.9616 37.4567L34.1133 37.6667L34.2183 37.4334Z" fill="#009B3A"/>
<path d="M34.2183 37.4334L33.9733 36.15L33.9616 37.4567L34.1133 37.6667L34.2183 37.4334" stroke="black" stroke-width="0.0116667"/>
<path d="M34.7433 36.535C34.51 36.885 34.125 37.41 33.9266 37.7834C33.7983 37.3517 33.5416 36.6867 33.39 36.29C33.565 36.605 33.7866 37.06 33.9733 37.3167C34.2183 37.13 34.51 36.7684 34.7433 36.535Z" fill="#009B3A" stroke="black" stroke-width="0.0116667"/>
<path d="M34.1016 37.5733L34.2182 36.255L33.8566 37.5033L33.9382 37.76L34.1016 37.5733Z" fill="#009B3A"/>
<path d="M34.1016 37.5733L34.2182 36.255L33.8566 37.5033L33.9382 37.76L34.1016 37.5733" stroke="black" stroke-width="0.0116667"/>
<path d="M34.755 36.5584C34.5566 36.9434 34.2183 37.5267 34.055 37.9117C33.8916 37.5034 33.5883 36.8851 33.39 36.5117C33.6 36.7917 33.8566 37.2117 34.0666 37.4451C34.3 37.2234 34.5333 36.8267 34.755 36.5701" fill="#009B3A"/>
<path d="M34.755 36.5584C34.5566 36.9434 34.2183 37.5267 34.055 37.9117C33.8916 37.5034 33.5883 36.8851 33.39 36.5117C33.6 36.7917 33.8566 37.2117 34.0666 37.4451C34.3 37.2234 34.5333 36.8267 34.755 36.5701" stroke="black" stroke-width="0.0116667"/>
<path d="M34.0666 37.69L33.6583 36.4534L33.8099 37.76L33.9849 37.9467L34.0549 37.69" fill="#009B3A"/>
<path d="M34.0666 37.69L33.6583 36.4534L33.8099 37.76L33.9849 37.9467L34.0549 37.69" stroke="black" stroke-width="0.0116667"/>
<path d="M34.6966 36.6633C34.5566 37.0833 34.3233 37.7133 34.2299 38.145C33.9966 37.7717 33.5883 37.235 33.3433 36.8967C33.5883 37.1417 33.9149 37.5033 34.1599 37.6783C34.3466 37.41 34.5333 36.9783 34.6966 36.6633Z" fill="#009B3A" stroke="black" stroke-width="0.0116667"/>
<path d="M34.4166 37.7834L33.9849 36.5701L34.1716 37.8767L34.3466 38.0401L34.4166 37.7834Z" fill="#009B3A"/>
<path d="M34.4166 37.7834L33.9849 36.5701L34.1716 37.8767L34.3466 38.0401L34.4166 37.7834" stroke="black" stroke-width="0.0116667"/>
<path d="M34.6966 36.7916C34.5566 37.2116 34.3233 37.8533 34.2299 38.2733C33.9966 37.9 33.5999 37.375 33.3433 37.0483C33.5883 37.2816 33.9149 37.6316 34.1599 37.8183C34.3466 37.55 34.5333 37.1066 34.6966 36.7916Z" fill="#009B3A"/>
<path d="M34.6966 36.7916C34.5566 37.2116 34.3233 37.8533 34.2299 38.2733C33.9966 37.9 33.5999 37.375 33.3433 37.0483C33.5883 37.2816 33.9149 37.6316 34.1599 37.8183C34.3466 37.55 34.5333 37.1066 34.6966 36.7916" stroke="black" stroke-width="0.0116667"/>
<path d="M34.4166 37.9934L33.8566 36.8617L34.1832 38.1217L34.3816 38.2617L34.4282 37.9934" fill="#009B3A"/>
<path d="M34.4166 37.9934L33.8566 36.8617L34.1832 38.1217L34.3816 38.2617L34.4282 37.9934" stroke="black" stroke-width="0.0116667"/>
<path d="M34.6499 36.8966C34.5683 37.3283 34.4166 38.0049 34.3583 38.4366C34.0899 38.0983 33.6233 37.6199 33.3433 37.3399C33.6116 37.5383 33.9733 37.8533 34.2416 37.9816C34.3933 37.6899 34.5216 37.2233 34.6499 36.8966Z" fill="#009B3A"/>
<path d="M34.6499 36.8966C34.5683 37.3283 34.4166 38.0049 34.3583 38.4366C34.0899 38.0983 33.6233 37.6199 33.3433 37.3399C33.6116 37.5383 33.9733 37.8533 34.2416 37.9816C34.3933 37.6899 34.5216 37.2233 34.6499 36.8966" stroke="black" stroke-width="0.0116667"/>
<path d="M34.4632 38.1683L34.1599 36.8966L34.2066 38.2149L34.3699 38.4133L34.4632 38.1799" fill="#009B3A"/>
<path d="M34.4632 38.1683L34.1599 36.8966L34.2066 38.2149L34.3699 38.4133L34.4632 38.1799" stroke="black" stroke-width="0.0116667"/>
<path d="M34.6499 37.025C34.6033 37.48 34.5099 38.1684 34.5099 38.6C34.2066 38.3084 33.7049 37.9 33.4016 37.655C33.6816 37.8184 34.0666 38.075 34.3466 38.1684C34.4633 37.865 34.5566 37.375 34.6499 37.0367" fill="#009B3A"/>
<path d="M34.6499 37.025C34.6033 37.48 34.5099 38.1684 34.5099 38.6C34.2066 38.3084 33.7049 37.9 33.4016 37.655C33.6816 37.8184 34.0666 38.075 34.3466 38.1684C34.4633 37.865 34.5566 37.375 34.6499 37.0367" stroke="black" stroke-width="0.0116667"/>
<path d="M34.4749 38.2617L33.6699 37.3517L34.2766 38.46L34.5099 38.53L34.4749 38.2617Z" fill="#009B3A"/>
<path d="M34.4749 38.2617L33.6699 37.3517L34.2766 38.46L34.5099 38.53L34.4749 38.2617" stroke="black" stroke-width="0.0116667"/>
<path d="M34.6733 37.1884C34.6266 37.6317 34.5333 38.32 34.5216 38.7517C34.2183 38.46 33.7166 38.0517 33.4133 37.795C33.7049 37.9584 34.0899 38.2267 34.3583 38.32C34.4866 38.0167 34.5683 37.5267 34.6733 37.1884Z" fill="#009B3A"/>
<path d="M34.6733 37.1884C34.6266 37.6317 34.5333 38.32 34.5216 38.7517C34.2183 38.46 33.7166 38.0517 33.4133 37.795C33.7049 37.9584 34.0899 38.2267 34.3583 38.32C34.4866 38.0167 34.5683 37.5267 34.6733 37.1884" stroke="black" stroke-width="0.0116667"/>
<path d="M34.5682 38.4717L33.9499 37.375L34.3349 38.6233L34.5332 38.7517L34.5682 38.4833" fill="#009B3A"/>
<path d="M34.5682 38.4717L33.9499 37.375L34.3349 38.6233L34.5332 38.7517L34.5682 38.4833" stroke="black" stroke-width="0.0116667"/>
<path d="M34.7082 37.3749C34.6732 37.8183 34.6149 38.5066 34.6149 38.9499C34.2497 38.6344 33.8681 38.3384 33.4716 38.0633C33.7749 38.2033 34.1716 38.4483 34.4399 38.5299C34.5566 38.2149 34.6266 37.7133 34.7082 37.3633" fill="#009B3A"/>
<path d="M34.7082 37.3749C34.6732 37.8183 34.6149 38.5066 34.6149 38.9499C34.2497 38.6344 33.8681 38.3384 33.4716 38.0633C33.7749 38.2033 34.1716 38.4483 34.4399 38.5299C34.5566 38.2149 34.6266 37.7133 34.7082 37.3633" stroke="black" stroke-width="0.0116667"/>
<path d="M34.6499 38.6817L33.8799 37.7134L34.4399 38.8567L34.6499 38.95V38.6817Z" fill="#009B3A" stroke="black" stroke-width="0.0116667"/>
<path d="M34.7199 37.585C34.6849 38.0284 34.6266 38.7167 34.6383 39.16C34.3233 38.88 33.8099 38.5067 33.4833 38.2734C33.7866 38.425 34.1833 38.6584 34.4633 38.74C34.5799 38.425 34.6383 37.9234 34.7199 37.5734" fill="#009B3A"/>
<path d="M34.7199 37.585C34.6849 38.0284 34.6266 38.7167 34.6383 39.16C34.3233 38.88 33.8099 38.5067 33.4833 38.2734C33.7866 38.425 34.1833 38.6584 34.4633 38.74C34.5799 38.425 34.6383 37.9234 34.7199 37.5734" stroke="black" stroke-width="0.0116667"/>
<path d="M34.7082 38.845L34.1832 37.6783L34.4749 38.9617L34.6616 39.1133L34.7082 38.845Z" fill="#009B3A" stroke="black" stroke-width="0.0116667"/>
<path d="M34.7316 37.7134C34.7549 38.1684 34.7549 38.8567 34.8016 39.3C34.4083 39.0408 34.0034 38.7994 33.5883 38.5767C33.8916 38.6817 34.2999 38.8567 34.5916 38.9034C34.6733 38.565 34.6849 38.075 34.7316 37.7134Z" fill="#009B3A"/>
<path d="M34.7316 37.7134C34.7549 38.1684 34.7549 38.8567 34.8016 39.3C34.4083 39.0408 34.0034 38.7994 33.5883 38.5767C33.8916 38.6817 34.2999 38.8567 34.5916 38.9034C34.6733 38.565 34.6849 38.075 34.7316 37.7134" stroke="black" stroke-width="0.0116667"/>
<path d="M34.8016 38.7983L33.8333 38.1333L34.6499 39.0433L34.8833 39.055L34.8016 38.7983Z" fill="#009B3A"/>
<path d="M34.8016 38.7983L33.8333 38.1333L34.6499 39.0433L34.8833 39.055L34.8016 38.7983" stroke="black" stroke-width="0.0116667"/>
<path d="M34.7666 37.76C34.8016 38.215 34.8483 38.9033 34.9183 39.335C34.5683 39.1133 34.0083 38.8333 33.6583 38.6583C33.9733 38.7517 34.3933 38.915 34.6849 38.95C34.7433 38.6117 34.7316 38.1217 34.7666 37.76Z" fill="#009B3A" stroke="black" stroke-width="0.0116667"/>
<path d="M34.9182 39.0433L34.1016 38.11L34.7199 39.23L34.9416 39.3117L34.9066 39.0433" fill="#009B3A"/>
<path d="M34.9182 39.0433L34.1016 38.11L34.7199 39.23L34.9416 39.3117L34.9066 39.0433" stroke="black" stroke-width="0.0116667"/>
<path d="M34.8366 37.9351C34.8949 38.3784 34.9532 39.0667 35.0582 39.4984C34.7082 39.3001 34.1249 39.0551 33.7749 38.9034C34.0899 38.9734 34.5216 39.1134 34.8016 39.1367C34.8482 38.7867 34.8249 38.2967 34.8366 37.9351Z" fill="#009B3A"/>
<path d="M34.8366 37.9351C34.8949 38.3784 34.9532 39.0667 35.0582 39.4984C34.7082 39.3001 34.1249 39.0551 33.7749 38.9034C34.0899 38.9734 34.5216 39.1134 34.8016 39.1367C34.8482 38.7867 34.8249 38.2967 34.8366 37.9351" stroke="black" stroke-width="0.0116667"/>
<path d="M35.0699 39.2066L34.1016 38.5183L34.9182 39.4516L35.1516 39.4633L35.0699 39.2066Z" fill="#009B3A" stroke="black" stroke-width="0.0116667"/>
<path d="M34.8716 38.1217C34.9533 38.565 35.07 39.2534 35.1866 39.6734C34.825 39.4984 34.23 39.3117 33.8683 39.195C34.195 39.23 34.6266 39.335 34.9183 39.3117C34.9416 38.9734 34.8833 38.495 34.8716 38.1217Z" fill="#009B3A"/>
<path d="M34.8716 38.1217C34.9533 38.565 35.07 39.2534 35.1866 39.6734C34.825 39.4984 34.23 39.3117 33.8683 39.195C34.195 39.23 34.6266 39.335 34.9183 39.3117C34.9416 38.9734 34.8833 38.495 34.8716 38.1217" stroke="black" stroke-width="0.0116667"/>
<path d="M35.1866 39.3467L34.3699 38.39L34.9766 39.5217L35.2099 39.615L35.1866 39.3467Z" fill="#009B3A" stroke="black" stroke-width="0.0116667"/>
<path d="M34.9183 38.2383C35.0466 38.6699 35.2216 39.3466 35.3849 39.7549C34.9999 39.6383 34.4049 39.5216 34.0316 39.4516C34.3583 39.4516 34.7899 39.4866 35.0816 39.44C35.0816 39.09 34.9649 38.6116 34.9183 38.2499" fill="#009B3A"/>
<path d="M34.9183 38.2383C35.0466 38.6699 35.2216 39.3466 35.3849 39.7549C34.9999 39.6383 34.4049 39.5216 34.0316 39.4516C34.3583 39.4516 34.7899 39.4866 35.0816 39.44C35.0816 39.09 34.9649 38.6116 34.9183 38.2499" stroke="black" stroke-width="0.0116667"/>
<path d="M35.2332 39.3466L34.1016 39.1133L35.1632 39.6383L35.3849 39.5566L35.2216 39.3466" fill="#009B3A"/>
<path d="M35.2332 39.3466L34.1016 39.1133L35.1632 39.6383L35.3849 39.5566L35.2216 39.3466" stroke="black" stroke-width="0.0116667"/>
<path d="M34.9999 38.3783C35.1166 38.81 35.2916 39.475 35.4432 39.8833C35.0699 39.7666 34.4749 39.65 34.1016 39.58C34.4282 39.58 34.8599 39.615 35.1516 39.58C35.1516 39.23 35.0349 38.74 34.9999 38.3783Z" fill="#009B3A"/>
<path d="M34.9999 38.3783C35.1166 38.81 35.2916 39.475 35.4432 39.8833C35.0699 39.7666 34.4749 39.65 34.1016 39.58C34.4282 39.58 34.8599 39.615 35.1516 39.58C35.1516 39.23 35.0349 38.74 34.9999 38.3783" stroke="black" stroke-width="0.0116667"/>
<path d="M35.4082 39.4634L34.3349 38.9384L35.2916 39.72L35.5249 39.6967L35.4082 39.4634Z" fill="#009B3A" stroke="black" stroke-width="0.0116667"/>
<path d="M34.9416 38.4484C35.1516 38.845 35.4666 39.4634 35.6999 39.8134C35.3032 39.79 34.6966 39.8134 34.3232 39.8134C34.6382 39.755 35.0699 39.6967 35.3382 39.58C35.2566 39.2417 35.0582 38.7984 34.9416 38.4484Z" fill="#009B3A" stroke="black" stroke-width="0.0116667"/>
<path d="M35.5833 39.5799L34.4633 39.2766L35.5133 39.8599L35.7233 39.8016L35.5716 39.5683" fill="#009B3A"/>
<path d="M35.5833 39.5799L34.4633 39.2766L35.5133 39.8599L35.7233 39.8016L35.5716 39.5683" stroke="black" stroke-width="0.0116667"/>
<path d="M35.0466 38.6233C35.2683 39.0083 35.5833 39.6266 35.8283 39.9766C35.4316 39.9533 34.8249 39.9766 34.4516 40C34.7549 39.9183 35.1983 39.86 35.4549 39.7433C35.3849 39.405 35.1749 38.9616 35.0583 38.6233" fill="#009B3A"/>
<path d="M35.0466 38.6233C35.2683 39.0083 35.5833 39.6266 35.8283 39.9766C35.4316 39.9533 34.8249 39.9766 34.4516 40C34.7549 39.9183 35.1983 39.86 35.4549 39.7433C35.3849 39.405 35.1749 38.9616 35.0583 38.6233" stroke="black" stroke-width="0.0116667"/>
<path d="M35.7116 39.6733L34.6733 39.0549L35.5833 39.9183H35.8166L35.7116 39.6733Z" fill="#009B3A"/>
<path d="M35.7116 39.6733L34.6733 39.0549L35.5833 39.9183H35.8166L35.7116 39.6733" stroke="black" stroke-width="0.0116667"/>
<path d="M35.1399 38.7167C35.3849 39.0783 35.7583 39.65 36.0266 39.9883C35.5717 40.025 35.1196 40.0912 34.6733 40.1867C34.9766 40.07 35.3966 39.9533 35.6533 39.8017C35.5366 39.475 35.2916 39.0433 35.1399 38.7167Z" fill="#009B3A"/>
<path d="M35.1399 38.7167C35.3849 39.0783 35.7583 39.65 36.0266 39.9883C35.5717 40.025 35.1196 40.0912 34.6733 40.1867C34.9766 40.07 35.3966 39.9533 35.6533 39.8017C35.5366 39.475 35.2916 39.0433 35.1399 38.7167" stroke="black" stroke-width="0.0116667"/>
<path d="M35.7933 39.7667L34.6733 39.7317L35.7816 40.07L35.9799 39.9417L35.7933 39.7667ZM36.4466 34.33L37.2516 34.2017L36.4466 34.2133L36.3066 34.2833L36.4466 34.33Z" fill="#009B3A"/>
<path d="M35.7933 39.7667L34.6733 39.7317L35.7816 40.07L35.9799 39.9417L35.7933 39.7667M36.4466 34.33L37.2516 34.2017L36.4466 34.2133L36.3066 34.2833L36.4466 34.33Z" stroke="black" stroke-width="0.0116667"/>
<path d="M36.8899 34.5049C36.6566 34.4349 36.3066 34.3183 36.0616 34.2716L36.9249 33.8633C36.7499 33.9799 36.4816 34.1199 36.3416 34.2366C36.4816 34.3299 36.7266 34.4233 36.8899 34.5049Z" fill="#009B3A"/>
<path d="M36.8899 34.5049C36.6566 34.4349 36.3066 34.3183 36.0616 34.2716L36.9249 33.8633C36.7499 33.9799 36.4816 34.1199 36.3416 34.2366C36.4816 34.3299 36.7266 34.4233 36.8899 34.5049" stroke="black" stroke-width="0.0116667"/>
<path d="M36.4 34.3533L37.1933 34.1433L36.3766 34.2483L36.2599 34.33L36.4116 34.3533" fill="#009B3A"/>
<path d="M36.4 34.3533L37.1933 34.1433L36.3766 34.2483L36.2599 34.33L36.4116 34.3533" stroke="black" stroke-width="0.0116667"/>
<path d="M36.9249 34.5633C36.6449 34.5283 36.2249 34.4817 35.9566 34.4817C36.1666 34.295 36.4466 34.0033 36.6216 33.8167C36.5049 33.9917 36.3183 34.2133 36.2366 34.3767C36.4233 34.4583 36.7149 34.505 36.9249 34.5633Z" fill="#009B3A"/>
<path d="M36.9249 34.5633C36.6449 34.5283 36.2249 34.4817 35.9566 34.4817C36.1666 34.295 36.4466 34.0033 36.6216 33.8167C36.5049 33.9917 36.3183 34.2133 36.2366 34.3767C36.4233 34.4583 36.7149 34.505 36.9249 34.5633" stroke="black" stroke-width="0.0116667"/>
<path d="M36.1199 34.4117L36.9366 34.3184L36.1432 34.295L35.9916 34.365L36.1082 34.4117" fill="#009B3A"/>
<path d="M36.1199 34.4117L36.9366 34.3184L36.1432 34.295L35.9916 34.365L36.1082 34.4117" stroke="black" stroke-width="0.0116667"/>
<path d="M36.7149 34.5867L35.8399 34.435L36.6449 33.9917C36.4816 34.1084 36.2482 34.2717 36.1316 34.3884C36.2832 34.4584 36.5399 34.5284 36.7149 34.5867Z" fill="#009B3A"/>
<path d="M36.7149 34.5867L35.8399 34.435L36.6449 33.9917C36.4816 34.1084 36.2482 34.2717 36.1316 34.3884C36.2832 34.4584 36.5399 34.5284 36.7149 34.5867" stroke="black" stroke-width="0.0116667"/>
<path d="M36.0499 34.4117L36.7616 34.0967L35.9799 34.3067L35.8866 34.4H36.0499" fill="#009B3A"/>
<path d="M36.0499 34.4117L36.7616 34.0967L35.9799 34.3067L35.8866 34.4H36.0499" stroke="black" stroke-width="0.0116667"/>
<path d="M36.6916 34.68C36.4933 34.5984 36.1666 34.4467 35.9683 34.3884L36.4816 33.8284C36.3883 33.98 36.2483 34.1784 36.1783 34.3417C36.3183 34.4584 36.5283 34.575 36.6916 34.68Z" fill="#009B3A"/>
<path d="M36.6916 34.68C36.4933 34.5984 36.1666 34.4467 35.9683 34.3884L36.4816 33.8284C36.3883 33.98 36.2483 34.1784 36.1783 34.3417C36.3183 34.4584 36.5283 34.575 36.6916 34.68" stroke="black" stroke-width="0.0116667"/>
<path d="M36.0849 34.4583L36.6449 34.225L36.0382 34.295L35.9682 34.4116L36.0849 34.4583ZM35.6182 39.6616H34.4749L35.6416 39.9533L35.8282 39.8366L35.6182 39.6616Z" fill="#009B3A" stroke="black" stroke-width="0.0116667"/>
<path d="M35.8283 39.7317L34.6616 39.4634L35.7816 40.0117L36.015 39.9417L35.8283 39.7317Z" fill="#009B3A"/>
<path d="M35.8283 39.7317L34.6616 39.4634L35.7816 40.0117L36.015 39.9417L35.8283 39.7317" stroke="black" stroke-width="0.0116667"/>
<path d="M36.0266 39.8133L34.8599 39.755L36.0266 40.105L36.2249 39.9883L36.0266 39.8133Z" fill="#009B3A" stroke="black" stroke-width="0.0116667"/>
<path d="M35.2916 38.9967C35.5833 39.3234 36.0383 39.86 36.3533 40.1517C35.9683 40.21 35.3849 40.3617 35.0233 40.4667C35.3033 40.3267 35.7233 40.1634 35.9566 40C35.7933 39.6967 35.4899 39.3 35.2916 38.9967Z" fill="#009B3A"/>
<path d="M35.2916 38.9967C35.5833 39.3234 36.0383 39.86 36.3533 40.1517C35.9683 40.21 35.3849 40.3617 35.0233 40.4667C35.3033 40.3267 35.7233 40.1634 35.9566 40C35.7933 39.6967 35.4899 39.3 35.2916 38.9967" stroke="black" stroke-width="0.0116667"/>
<path d="M36.1783 39.8717L35.0116 39.4867L36.1083 40.14L36.3416 40.0934L36.1783 39.86" fill="#009B3A"/>
<path d="M36.1783 39.8717L35.0116 39.4867L36.1083 40.14L36.3416 40.0934L36.1783 39.86" stroke="black" stroke-width="0.0116667"/>
<path d="M35.3966 39.0667C35.7232 39.37 36.2132 39.8483 36.5632 40.1167C36.1899 40.2217 35.6299 40.4433 35.2799 40.5833C35.5482 40.42 35.9332 40.21 36.1432 40C35.9566 39.72 35.6182 39.3583 35.3966 39.0667Z" fill="#009B3A" stroke="black" stroke-width="0.0116667"/>
<path d="M36.2833 39.9417L35.1749 40.1633L36.3416 40.2333L36.5049 40.0817L36.2716 39.9417" fill="#009B3A"/>
<path d="M36.2833 39.9417L35.1749 40.1633L36.3416 40.2333L36.5049 40.0817L36.2716 39.9417" stroke="black" stroke-width="0.0116667"/>
<path d="M36.0499 39.8717L34.9066 39.965L36.0849 40.1634L36.2716 40.0234L36.0383 39.8717" fill="#009B3A"/>
<path d="M36.0499 39.8717L34.9066 39.965L36.0849 40.1634L36.2716 40.0234L36.0383 39.8717" stroke="black" stroke-width="0.0116667"/>
<path d="M36.2599 39.9416L35.0699 39.7433L36.2366 40.21L36.4466 40.1283L36.2599 39.93V39.9416Z" fill="#009B3A" stroke="black" stroke-width="0.0116667"/>
<path d="M36.4582 40L35.2916 40.0233L36.4816 40.2917L36.6682 40.1633L36.4582 40Z" fill="#009B3A" stroke="black" stroke-width="0.0116667"/>
<path d="M35.6649 39.2416C35.9916 39.545 36.4816 40.035 36.8199 40.315C36.4349 40.3966 35.8516 40.595 35.5016 40.7116C35.7816 40.56 36.1783 40.3733 36.3999 40.1866C36.2133 39.895 35.8866 39.5216 35.6649 39.23V39.2416Z" fill="#009B3A" stroke="black" stroke-width="0.0116667"/>
<path d="M36.6216 40.0466L35.4316 39.7433L36.5749 40.3266L36.7966 40.2566L36.6216 40.0466Z" fill="#009B3A" stroke="black" stroke-width="0.0116667"/>
<path d="M35.77 39.3C36.12 39.58 36.6566 40.0234 37.0183 40.2567C36.645 40.3851 36.1083 40.665 35.7816 40.8284C36.0383 40.63 36.4 40.3967 36.5983 40.1867C36.3883 39.9067 36.015 39.5684 35.7816 39.3H35.77Z" fill="#009B3A" stroke="black" stroke-width="0.0116667"/>
<path d="M36.7266 40.105L35.6416 40.4083H36.8083L36.9599 40.2333L36.7266 40.1166V40.105Z" fill="#009B3A" stroke="black" stroke-width="0.0116667"/>
<path d="M38.2199 38.4833L37.3332 37.865L36.4466 38.4833L36.7849 37.5033L36.0032 36.8966H37.0066L37.3332 35.9166L37.6599 36.8966H38.6632L37.8816 37.5033L38.2199 38.4833Z" fill="#FEDF00" stroke="black" stroke-width="0.0466667"/>
</g>
<defs>
<clipPath id="clip0_1_71445">
<rect width="74.6667" height="56" fill="white" transform="translate(0 9.375)"/>
</clipPath>
</defs>
</svg>
