<svg width="75" height="75" viewBox="0 0 75 75" fill="none" xmlns="http://www.w3.org/2000/svg">
<rect width="74.6667" height="74.75" fill="white"/>
<g clip-path="url(#clip0_1_71474)">
<path d="M0 9.375H74.6667V65.375H0V9.375Z" fill="#20603D"/>
<path d="M0 9.375H74.6667V51.375H0V9.375Z" fill="#FAD201"/>
<path d="M0 9.375H74.6667V37.375H0V9.375Z" fill="#00A1DE"/>
<path d="M68.6467 24.005L62.3934 24.3706L68.3356 26.3461L62.2067 25.0784L67.4412 28.5162L61.8411 25.7006L65.9945 30.3906L61.32 26.2295L64.1356 31.8295L60.69 26.595L61.95 32.7162L59.9822 26.7817L59.6167 33.0351L59.5389 23.9272L68.6467 24.005Z" fill="#E5BE01"/>
<path d="M59.6166 26.6727C61.09 26.6727 62.2844 25.4783 62.2844 24.0049C62.2844 22.5316 61.09 21.3372 59.6166 21.3372C58.1432 21.3372 56.9488 22.5316 56.9488 24.0049C56.9488 25.4783 58.1432 26.6727 59.6166 26.6727Z" fill="#E5BE01" stroke="#00A1DE" stroke-width="0.264446"/>
</g>
<defs>
<clipPath id="clip0_1_71474">
<rect width="74.6667" height="56" fill="white" transform="translate(0 9.375)"/>
</clipPath>
</defs>
</svg>
