<svg width="75" height="75" viewBox="0 0 75 75" fill="none" xmlns="http://www.w3.org/2000/svg">
<rect width="74.6667" height="74.75" fill="white"/>
<g clip-path="url(#clip0_1_71219)">
<path fill-rule="evenodd" clip-rule="evenodd" d="M-4.66667 9.375H79.3333V65.375H-4.66667V9.375Z" fill="#199D00"/>
<path fill-rule="evenodd" clip-rule="evenodd" d="M16.4974 25.2453C16.4099 26.5578 16.2786 28.8547 17.4052 29.0953C18.7505 29.2266 18.0067 26.8203 18.4989 26.3828C18.5864 26.1641 18.7505 26.1641 18.7614 26.4375V28.4828C18.7614 29.1391 19.1989 29.336 19.527 29.4672C19.877 29.4453 20.1177 29.4672 20.2489 29.7953L20.4239 33.3281C20.4239 33.3281 21.2333 33.5688 21.277 31.3485C21.3099 30.036 21.0145 28.9531 21.1895 28.7016C21.1895 28.45 21.5177 28.4391 21.7364 28.5594C22.0864 28.8 22.2395 29.1063 22.7864 28.9969C23.6177 28.7563 24.1208 28.3516 24.1317 27.7172C24.1153 27.0938 23.9856 26.4786 23.7489 25.9016C23.7927 25.7922 23.5958 25.4969 23.6395 25.3875C23.7817 25.6281 24.0114 25.6063 24.0552 25.3875C23.913 24.9281 23.6942 24.4797 23.3442 24.2938C23.0489 24.0313 22.6114 24.075 22.4692 24.6219C22.3817 25.2453 22.688 25.9781 23.1364 26.5906C23.2349 26.8203 23.3661 27.2141 23.3114 27.5641C23.0708 27.7063 22.8302 27.6406 22.6224 27.4328C22.6224 27.4328 21.9661 26.9406 21.9661 26.8203C22.1411 25.7047 21.9989 25.5735 21.9005 25.2563C21.8349 24.8297 21.627 24.6875 21.463 24.4031C21.2989 24.2281 21.0802 24.2281 20.9708 24.4031C20.6755 24.9063 20.8177 25.9891 21.0255 26.4813C21.1786 26.9297 21.4083 27.2141 21.2989 27.2141C21.2114 27.4656 21.0255 27.4 20.8833 27.1047C20.7232 26.4832 20.646 25.8433 20.6536 25.2016C20.5989 24.6985 20.5333 23.6266 20.1942 23.3422C19.9974 23.0797 19.702 23.211 19.5927 23.4516C19.5638 23.9402 19.5748 24.4304 19.6255 24.9172C19.8442 25.7266 19.9208 26.4485 20.0302 27.2688C20.063 28.3735 19.3958 27.75 19.4286 27.1922C19.5721 26.4909 19.5609 25.7668 19.3958 25.0703C19.2864 24.786 19.1661 24.7203 18.8927 24.7641C18.6849 24.7641 18.1489 25.3438 17.9958 26.3281C17.9958 26.3281 17.8645 26.8313 17.8099 27.2797C17.7333 27.7828 17.4052 28.1547 17.1645 27.2141C16.9677 26.525 16.8364 24.8516 16.5083 25.2453H16.4974Z" fill="white"/>
<path fill-rule="evenodd" clip-rule="evenodd" d="M20.1614 30.6157L16.6614 32.3C16.6942 31.5016 18.313 30.0688 19.4286 30.0579C20.1395 30.0688 19.9645 30.3313 20.1505 30.6157H20.1614Z" fill="white"/>
<path fill-rule="evenodd" clip-rule="evenodd" d="M19.538 31.7094C17.7005 36.4672 23.8583 37.1344 24.5474 31.9063C24.613 31.6876 24.8755 31.4797 24.9192 31.8297C24.777 36.5657 20.1505 36.8829 19.363 35.3954C19.1777 34.8835 19.0851 34.3428 19.0895 33.7985C18.9802 32.8688 18.488 33.2297 18.4114 34.1485C18.3349 34.6626 18.3567 34.8047 18.3567 35.2969C18.5974 39.0376 24.5583 37.4297 25.5317 34.3454C26.0458 32.6391 25.4442 31.3813 25.7177 31.3813C26.3083 32.0157 27.1395 31.4688 27.3255 31.2501C27.402 31.1407 27.5989 31.0641 27.7302 31.2063C28.1895 31.5344 28.9989 31.3813 29.1739 30.8016C29.2724 30.2219 29.3489 29.6313 29.3708 29.0297C28.988 29.1391 28.7145 29.2157 28.6817 29.3797L28.6052 29.8829C28.5724 30.0469 28.2552 30.0469 28.2333 29.8391C28.0911 29.1829 27.5005 29.1063 27.1395 30.1126C26.9099 30.3094 26.4724 30.3532 26.4286 30.0579C26.4833 29.3797 26.2099 29.2922 25.663 29.6094L25.138 25.6501C25.3567 25.6501 25.5755 25.8141 25.7833 25.5516C25.5645 24.8407 25.0724 23.3969 24.7989 23.2876C24.6786 23.1344 24.5692 23.2329 24.3942 23.2766C24.1099 23.3641 23.8474 23.6047 23.9349 24.086C24.263 26.1422 24.4817 27.7063 24.8208 29.7735C24.8755 30.0032 24.6786 30.3204 24.4161 30.2876C23.9786 29.9922 23.8692 29.3907 23.1036 29.4126C22.5567 29.4126 21.9442 30.0141 21.8677 30.5829C21.7692 31.0422 21.7364 31.5344 21.8677 31.9282C22.2505 32.3876 22.7099 32.3438 23.1145 32.2454C23.4427 32.1032 23.7161 31.7751 23.8364 31.8516C23.913 31.9501 23.8474 33.0438 22.2724 33.8751C21.3208 34.3126 20.5552 34.4001 20.1505 33.6235C19.8989 33.1313 20.1724 31.2829 19.538 31.7094Z" fill="white"/>
<path fill-rule="evenodd" clip-rule="evenodd" d="M27.3802 26.875C27.7411 26.7438 29.4911 24.7313 29.4911 24.7313L29.2286 24.5125C29.1302 24.436 29.1411 24.3485 29.2286 24.2719C29.6661 24.0094 29.5239 23.4625 29.3052 23.2C29.1567 23.1276 28.9933 23.0909 28.8281 23.0928C28.6629 23.0947 28.5004 23.1352 28.3536 23.211C28.0474 23.5063 27.9817 23.9766 28.2224 24.261C28.452 24.3704 28.6817 24.611 28.5286 24.7422C27.8067 25.5079 25.8489 26.8313 26.0786 26.875C26.1224 26.9407 27.3364 26.9407 27.3692 26.875H27.3802ZM16.7708 33.9844C16.1145 35.0344 16.0599 36.5985 16.4208 37.0688C16.6177 37.2875 16.9349 37.386 17.1645 37.3094C17.5802 37.1344 17.7661 36.2922 17.6677 35.9969C17.5255 35.7782 17.4161 35.7454 17.2739 35.9204C16.9895 36.511 16.8692 36.1063 16.8364 35.7782C16.8051 35.2225 16.8344 34.665 16.9239 34.1157C17.0005 33.6563 16.9239 33.7875 16.7708 33.9844ZM44.8911 32.311C44.2567 30.9329 43.3708 29.5766 43.0974 29.0625C42.245 27.7151 41.3401 26.4016 40.3849 25.125C39.7067 24.3157 41.5005 25.4641 40.1661 23.8454L39.1927 23.025C38.9739 22.8719 38.4489 22.5875 38.3614 23.0469C38.3177 23.4625 38.3395 23.6813 38.4052 24.0204C38.4599 24.2391 38.788 24.6219 38.952 24.8407C41.1944 27.8107 43.1638 30.9772 44.8364 34.3016C45.1208 34.1594 45.0552 32.5407 44.8911 32.311Z" fill="white"/>
<path fill-rule="evenodd" clip-rule="evenodd" d="M42.1021 36.8828C41.9708 37.025 42.4083 37.6265 42.9771 37.6265C43.9177 37.5172 44.7489 36.9922 45.5145 35.5922C45.8257 35.1265 46.0241 34.5947 46.0942 34.039C46.1869 31.3839 45.974 28.7269 45.4599 26.1203C45.427 25.9016 45.4599 25.6391 45.4817 25.5734C45.5474 25.4969 45.7552 25.5734 45.8646 25.3875C46.0286 25.2234 45.4271 23.8562 45.0989 23.3422C44.9896 23.1015 44.9349 22.9484 44.738 23.364C44.5004 23.8227 44.3873 24.3356 44.4099 24.8515C44.8583 27.9687 45.0005 30.6922 45.2849 33.8094C45.3177 34.1156 45.2739 34.5531 45.0661 34.7281C44.2408 35.647 43.2307 36.3813 42.1021 36.8828ZM54.8442 36.8719C54.1661 37.2656 54.1661 37.7141 54.713 37.725C55.6536 37.6156 56.7692 37.539 57.5349 36.3797C57.8053 35.8336 57.9616 35.2382 57.9942 34.6297C58.1319 32.0154 57.9594 29.394 57.4802 26.8203C57.4583 26.6015 57.3599 26.0875 57.3927 26.0219C57.4583 25.8687 57.7645 26.0328 57.8739 25.8578C58.027 25.6937 57.0755 24.4687 56.7364 23.9437C56.627 23.7031 56.5833 23.55 56.3755 23.9656C56.1552 24.4284 56.0863 24.9489 56.1786 25.4531C56.6817 28.8437 57.0536 31.3812 57.1302 34.3781C57.0864 34.6625 57.0755 34.8156 56.9442 35.1765C56.6489 35.5484 56.3208 36.0297 56.0145 36.2594C55.7083 36.4781 55.0521 36.6969 54.8442 36.8719Z" fill="white"/>
<path fill-rule="evenodd" clip-rule="evenodd" d="M55.3473 33.8422C55.3473 33.0437 55.3583 32.3656 55.3364 31.7641C55.3293 31.2546 55.2177 30.752 55.0083 30.2875C54.8114 29.8391 54.9317 29.4781 54.8333 28.9969C54.7458 28.5156 54.7677 27.7937 54.6364 27.2359C54.5927 27.0172 54.4833 26.3062 54.5161 26.2297C54.5708 26.0766 54.7786 26.2297 54.888 26.0547C55.0411 25.8906 54.3411 24.0859 53.9911 23.5719C53.8708 23.3422 53.6302 23.4187 53.3567 23.7906C53.0833 24.0422 53.1817 24.6 53.2911 25.1359C53.9583 28.6687 54.4723 31.8734 54.363 35.2312C54.3192 35.5156 55.3473 34.3781 55.3473 33.8422ZM50.3489 29.4672C49.9223 29.4453 49.0364 28.625 48.7739 28.1547C48.7309 28.0397 48.7126 27.917 48.7202 27.7946C48.7277 27.6721 48.7609 27.5526 48.8177 27.4437C48.9817 27.3344 49.2223 27.225 49.4083 27.3344C49.4083 27.3344 49.5942 27.5969 49.5614 27.6297C49.7802 27.7391 49.8895 27.6844 49.9114 27.5859C49.9223 27.4219 49.8458 27.3234 49.8458 27.1484C49.9442 26.6453 50.502 26.5687 50.7208 26.8859C50.8739 27.0828 50.9395 27.4875 50.9505 27.7609C50.9505 27.9031 50.7317 27.7391 50.5895 27.7609C50.4692 27.8047 50.4364 27.9578 50.4255 28.0891C50.4036 28.45 50.3598 29.0297 50.3489 29.4562V29.4672ZM42.4958 34.7172C42.6052 33.6453 42.452 31.7312 42.4411 31.0969C42.3826 29.4654 42.2475 27.8376 42.0364 26.2187C41.9052 25.3 42.4083 26.3172 42.3427 25.7812C42.1786 24.8734 41.6755 24.25 41.0739 23.4297C40.888 23.1562 40.888 23.1016 40.5927 23.4953C40.2645 24.2281 40.5489 24.7422 40.6364 25.3219C41.063 27.2031 41.3145 28.9312 41.4348 30.6484C41.5608 32.4322 41.5754 34.2222 41.4786 36.0078C41.8067 36.0187 42.3098 35.4937 42.4958 34.7172Z" fill="white"/>
<path fill-rule="evenodd" clip-rule="evenodd" d="M56.802 33C56.0474 31.7312 54.9208 30.375 54.6145 29.8609C53.6003 28.4446 52.5351 27.0655 51.4208 25.7265C50.4911 24.7421 51.8583 25.5625 51.2458 24.7968C50.7317 24.239 50.5895 24.0531 50.1411 23.714C49.9224 23.5718 49.7911 23.2984 49.7036 23.7687C49.6687 24.1761 49.6614 24.5854 49.6817 24.9937C49.6817 25.1796 49.8786 25.5406 50.0536 25.7593C52.3177 28.5484 54.8005 31.3921 56.7911 34.9687C57.0755 34.8265 56.977 33.2187 56.7911 33H56.802Z" fill="white"/>
<path fill-rule="evenodd" clip-rule="evenodd" d="M22.7427 30.6703C22.688 30.7687 22.5677 30.889 22.6114 31.0093C22.688 31.1187 22.7645 31.1515 22.8958 31.1515C23.0161 31.1515 23.1911 31.1843 23.2239 31.1187C23.2895 31.0422 23.3333 30.9 23.2895 30.7578C23.1583 30.4297 22.8083 30.5609 22.7427 30.6703Z" fill="#1BA400"/>
<path fill-rule="evenodd" clip-rule="evenodd" d="M48.0739 49.0235C49.0802 49.0672 49.7364 49.0781 50.6224 49.1766L51.6724 49.0672C52.8317 48.9578 52.8755 50.7188 52.8755 50.7188C52.8755 51.7578 52.4708 51.8125 51.9567 51.9219C51.6614 51.9656 51.5192 51.7469 51.3552 51.5281C51.1078 51.6074 50.8443 51.6225 50.5895 51.5719C50.163 51.55 49.7474 51.55 49.3317 51.5172C48.8942 51.4844 48.6536 51.5719 48.2052 51.5281C48.1177 51.6703 47.9864 51.8672 47.7239 51.8125C47.5052 51.7797 47.2317 51.1563 47.3083 50.6641C47.4724 50.3141 47.4177 50.4344 47.4177 50.2813C43.3052 50.1719 39.1599 49.986 35.1349 50.0406C31.9849 50.0516 28.8786 50.1828 25.7614 50.3141C24.0989 50.2922 22.8302 50.0297 21.9552 48.75C22.0427 48.75 26.1989 48.9797 27.413 48.9031C29.6552 48.8813 31.7114 48.6953 33.9974 48.6297C38.5036 48.7063 42.977 48.7063 47.4833 49.0235C47.0458 48.7281 47.0458 48.0391 47.702 47.8641C47.7567 47.8203 47.7895 48.2031 47.888 48.1922C48.4239 48.1594 48.1833 48.8813 48.0739 49.0235ZM29.9614 24.1735C29.2833 26.1203 30.3552 28.2641 31.0989 28.0563C31.6458 28.275 31.9739 27.2469 32.1927 26.1313C32.3567 25.8141 32.4661 25.7813 32.5427 25.9453C32.5208 27.4328 32.652 27.7719 33.0349 28.2203C33.888 28.8766 34.5989 28.3078 34.6536 28.2531L35.3099 27.586C35.463 27.4219 35.6599 27.4219 35.8677 27.5531C36.0755 27.7391 36.0427 28.0563 36.4802 28.275C36.852 28.4281 37.6286 28.3188 37.8145 28.0016C38.0552 27.575 38.1208 27.4328 38.2302 27.2797C38.4052 27.05 38.7005 27.1485 38.7005 27.225C38.6677 27.3563 38.4927 27.4766 38.613 27.7172C38.8317 27.8703 38.8755 27.7719 38.9958 27.7391C39.4333 27.5203 39.7614 26.5797 39.7614 26.5797C39.7724 26.2297 39.5755 26.2516 39.4442 26.3391L39.1052 26.5688C38.8864 26.6016 38.4817 26.7438 38.2739 26.4266C38.0661 26.0547 38.0661 25.5188 37.913 25.136C37.913 25.1141 37.6286 24.5344 37.8911 24.5016C38.0224 24.5235 38.2958 24.6 38.3395 24.3703C38.4708 24.1406 38.0552 23.4953 37.7599 23.1672C37.5083 22.8938 37.1583 22.861 36.8192 23.1453C36.5786 23.3641 36.6114 23.6047 36.5677 23.8344C36.5262 23.999 36.5244 24.1711 36.5624 24.3365C36.6004 24.502 36.6772 24.656 36.7864 24.786C37.027 25.2453 37.4536 25.8469 37.3114 26.7C37.3114 26.7 37.0599 27.0938 36.6224 27.0391C36.4364 27.0063 36.1411 26.9297 35.988 25.7485C35.8677 24.8735 36.0099 23.6266 35.638 23.0469C35.4958 22.686 35.3974 22.3469 35.0692 22.9485C34.9817 23.1891 34.5989 23.55 34.8724 24.2828C35.1311 24.9432 35.2067 25.6612 35.0911 26.361C34.927 26.6016 34.8942 26.6781 34.6864 26.9078C34.402 27.236 34.0849 27.1485 33.8442 27.0281C33.6255 26.886 33.4505 26.8094 33.3411 26.3172C33.363 25.5516 33.4067 24.2938 33.2645 24.0313C33.0567 23.6156 32.7177 23.7688 32.5755 23.9C31.9248 24.6228 31.4892 25.5131 31.3177 26.4703C31.1208 27.1047 30.913 26.9188 30.7708 26.6672C30.4208 26.3391 30.388 23.7469 29.9614 24.1735Z" fill="white"/>
<path fill-rule="evenodd" clip-rule="evenodd" d="M32.0177 28.4171C32.3348 28.1984 32.1927 28.0453 32.652 28.5046C33.245 29.5538 33.5892 30.725 33.6583 31.9281C33.6364 32.2125 33.8333 32.3875 33.9317 32.3218C33.9755 31.6656 35.5833 30.7468 37.0598 30.6156C37.2786 30.5609 37.1692 30.1343 37.202 29.9156C37.1145 29.0953 37.6614 28.3515 38.427 28.2968C39.477 28.4499 39.827 29.0078 39.8489 29.8499C39.7286 31.4906 38.0224 31.764 37.0708 31.8953C36.9286 31.9499 36.863 32.0156 37.0708 32.0921L41.0739 32.114L41.2817 32.2234C41.3036 32.3328 41.2161 32.2453 41.063 32.5078C40.8428 32.8946 40.705 33.3229 40.6583 33.7656C39.4661 34.1593 38.2302 34.3125 36.9833 34.4765C36.5458 34.6953 36.327 34.9906 36.4145 35.3187C36.5677 35.6796 37.5302 36.0515 37.5302 36.0625C37.7161 36.1718 37.9239 36.4453 37.4755 37.0031C35.5286 36.9156 34.0083 36.0843 33.4833 34.914C33.3302 34.7937 33.1552 34.914 33.0458 35.0671C32.2802 36.0515 31.5364 36.9265 30.2348 37.4078C29.4692 37.6046 28.6708 37.2875 28.2989 36.7843C28.0473 36.489 28.0583 36.1718 27.9708 36.1062C27.5442 36.2921 23.9348 37.8234 24.3942 37.1015C25.2692 36.1718 26.8005 35.4718 28.1348 34.5531C28.2333 34.2359 28.4083 33.1859 28.9333 32.8468C28.9661 32.8468 28.8567 33.4593 28.8677 33.7218C28.8677 33.9406 28.8458 34.0171 28.8895 33.9625C28.988 33.9078 30.6067 32.6281 30.7489 32.2343C30.902 32.0156 30.7817 31.4468 30.7817 31.425C30.4755 30.6375 30.0489 30.5718 29.8958 30.1781C29.7536 29.664 29.8192 29.0734 30.1145 28.8984C30.377 28.6687 30.6833 28.6906 30.9786 28.9531C31.3067 29.2484 31.5911 29.8281 31.6786 30.2546C31.6239 30.4187 31.2411 30.1453 31.1317 30.2218C31.3422 30.4637 31.4822 30.7589 31.5364 31.0749C31.7552 31.9718 31.6895 32.3218 31.4708 32.9015C30.7489 34.4218 29.8302 34.8703 29.0208 35.439C28.9989 35.439 28.988 35.8218 29.2833 36.0296C29.3927 36.139 29.8192 36.1937 30.3114 36.0296C31.3629 35.4457 32.2132 34.5573 32.7505 33.4812C32.8434 32.6624 32.7538 31.8331 32.488 31.0531C32.1708 30.3203 31.7989 29.2812 31.7989 29.2593C31.788 28.8 31.8208 28.6468 32.0177 28.4171ZM21.5395 24.1953C21.9989 24.414 22.8739 24.3156 22.8302 23.5718L22.8083 23.2328C22.7208 23.014 22.4583 23.0687 22.4036 23.2874C22.3817 23.364 22.4364 23.4843 22.3708 23.5171C22.327 23.5609 22.1848 23.539 22.1848 23.3312C22.1848 23.2656 22.1411 23.1999 22.1083 23.1562C22.0864 23.1343 22.0645 23.1343 22.0098 23.1343C21.9442 23.1343 21.9442 23.1453 21.9114 23.1999C21.9005 23.2546 21.8786 23.3093 21.8786 23.3749C21.8786 23.4515 21.8348 23.4734 21.7911 23.4843C21.7255 23.4843 21.7364 23.4843 21.6817 23.4625C21.6598 23.4296 21.627 23.4187 21.627 23.3531L21.5942 23.1781C21.5723 23.1453 21.5286 23.1234 21.4848 23.1124C21.2333 23.1124 21.2114 23.4078 21.2333 23.5171C21.2114 23.539 21.2005 24.0531 21.5395 24.1953Z" fill="white"/>
<path fill-rule="evenodd" clip-rule="evenodd" d="M35.0473 29.9047C35.5067 30.1235 36.6114 30.0032 36.338 29.2922L36.3161 28.9422C36.2177 28.7235 35.9661 28.7782 35.9114 29.0078C35.8895 29.0735 35.9442 29.1938 35.8677 29.2266C35.8348 29.2703 35.6817 29.2485 35.6927 29.0516C35.6927 28.986 35.6489 28.9094 35.6161 28.8657C35.5833 28.8547 35.5723 28.8438 35.5067 28.8438C35.452 28.8438 35.452 28.8657 35.4192 28.9203C35.3973 28.975 35.3864 29.0297 35.3864 29.0953C35.3755 29.161 35.3427 29.1828 35.288 29.2047C35.2333 29.2047 35.2442 29.2047 35.2005 29.1719C35.1677 29.1391 35.1348 29.1282 35.1348 29.0735L35.102 28.8985C35.0802 28.8657 35.0364 28.8438 34.9927 28.8328C34.7411 28.8328 34.7192 29.1172 34.7302 29.2266C34.7192 29.2485 34.7083 29.7735 35.0583 29.9047H35.0473ZM42.9223 27.5422C43.3817 27.761 44.2458 27.6625 44.213 26.9297L44.1911 26.5797C44.0927 26.361 43.8411 26.4157 43.7864 26.6344C43.7645 26.711 43.8192 26.8313 43.7427 26.875C43.7098 26.9078 43.5567 26.886 43.5677 26.6782C43.5677 26.6125 43.5239 26.5469 43.4911 26.5032C43.4583 26.4813 43.4473 26.4813 43.3817 26.4813C43.327 26.4813 43.327 26.5032 43.2942 26.5578L43.2614 26.7219C43.2505 26.7985 43.2177 26.8313 43.163 26.8313C43.1083 26.8313 43.1192 26.8313 43.0755 26.8094C43.0427 26.7766 43.0098 26.7657 43.0098 26.711C43.0098 26.6563 42.9989 26.5688 42.977 26.525C42.9552 26.4922 42.9114 26.4813 42.8677 26.4703C42.6161 26.4703 42.5942 26.7547 42.6052 26.8641C42.5942 26.886 42.5833 27.4 42.9333 27.5422H42.9223ZM47.002 33.4813C46.2036 34.3891 46.5536 35.8875 46.7395 36.2157C47.002 36.7407 47.2098 37.0797 47.7239 37.3422C48.1942 37.6813 48.5661 37.4735 48.763 37.2328C49.2333 36.7407 49.2442 35.4828 49.463 35.2422C49.6161 34.7828 50.0098 34.8594 50.1958 35.0672C50.3697 35.3141 50.6029 35.5135 50.8739 35.6469C51.3114 36.0297 51.8364 36.1063 52.3614 35.7563C52.7114 35.5485 52.9411 35.2969 53.1489 34.7828C53.3677 34.1703 53.2583 31.3266 53.2036 29.6422L52.7442 27.2907C52.7442 27.2688 52.6895 26.175 52.6348 25.9235C52.6348 25.8141 52.602 25.7813 52.7114 25.7922C52.8317 25.9016 52.8427 25.9016 52.9302 25.9344C53.0395 25.9563 53.1489 25.7485 53.0723 25.5735L51.9786 23.5391C51.8911 23.4516 51.7708 23.3641 51.6286 23.561C51.5447 23.6369 51.4779 23.7298 51.4327 23.8335C51.3874 23.9372 51.3647 24.0494 51.3661 24.1625C51.3989 24.6438 51.4755 25.136 51.5083 25.6172L51.9458 28.0891C52.088 29.8391 52.1208 31.2828 52.263 33.0438C52.2411 33.7875 52.0114 34.4328 51.7927 34.5313C51.7927 34.5313 51.4645 34.7172 51.2458 34.5094C51.0817 34.4438 50.4364 33.4266 50.4364 33.4266C50.1083 33.1313 49.8895 33.2078 49.6598 33.4266C49.0036 34.061 48.7192 35.2203 48.2708 36.0297C48.1614 36.2157 47.8333 36.3578 47.4833 36.0188C46.5864 34.7828 47.1114 33.0328 47.002 33.4813ZM43.1302 23.2328C43.5458 23.3969 43.8302 24.2391 43.7427 24.6547C43.6552 25.1469 43.4364 25.6938 43.2833 25.6282C43.1083 25.5625 43.3927 25.125 43.2286 24.6657C43.1411 24.3594 42.5723 23.8125 42.638 23.6594C42.5286 23.3203 42.8786 23.1672 43.1302 23.2219V23.2328Z" fill="white"/>
<path fill-rule="evenodd" clip-rule="evenodd" d="M48.3364 33.9844C48.413 32.9782 48.2708 32.3657 48.2489 31.7751C48.227 31.1844 47.5817 26.6782 47.4505 26.2407C47.2864 25.3876 48.0739 26.1313 47.9864 25.6282C47.713 25.0157 47.0458 24.1079 46.838 23.5719C46.7067 23.3532 46.7614 23.1344 46.477 23.5172C46.2322 24.1884 46.1461 24.9072 46.2255 25.6172C46.9036 29.1501 47.5927 32.0813 47.4833 35.4391C47.8114 35.4391 48.1724 34.7063 48.3364 33.9844ZM55.3802 24.6547C55.763 24.8407 55.9817 25.8907 55.938 26.186C55.8614 26.7329 55.6645 27.3235 55.5224 27.2469C55.3583 27.1813 55.5552 26.4376 55.4786 26.2079C55.3911 25.8797 54.877 25.2891 54.9317 25.1141C54.8224 24.7422 55.1505 24.5891 55.3802 24.6547ZM27.413 32.0813C27.7739 32.2235 27.9927 32.9891 27.9599 33.2079C27.8724 33.6126 27.6864 34.0501 27.5442 33.9844C27.402 33.9407 27.577 33.3938 27.5114 33.2188C27.4786 32.8141 26.9755 32.5954 26.9864 32.4204C26.8989 32.0922 27.2052 32.0376 27.4239 32.0813H27.413Z" fill="white"/>
<path fill-rule="evenodd" clip-rule="evenodd" d="M36.1192 33.2406C36.5786 33.2625 36.8083 33.6343 36.3817 33.7875C35.9442 33.9296 35.5395 34.05 35.5286 34.6625C35.6927 35.5375 35.3098 35.2312 35.0911 35.1218C34.8286 34.925 34.0848 34.4656 33.9755 33.4812C33.9645 33.2515 34.1505 33.0437 34.4458 33.0437C34.8833 33.164 35.5395 33.175 36.1192 33.2406Z" fill="#1B9D00"/>
<path fill-rule="evenodd" clip-rule="evenodd" d="M17.7989 22.9812C18.3239 23.1343 18.3567 23.9218 18.3239 24.1515C18.2474 24.5671 18.0614 25.0156 17.9302 24.9609C17.777 24.9062 17.9302 24.3374 17.8536 24.1624C17.777 23.9218 17.3286 23.4624 17.3724 23.3312C17.2739 23.0577 17.5911 22.9265 17.7989 22.9812ZM28.288 26.6562C27.8724 26.8749 27.7192 27.5312 27.9708 27.9249C28.2114 28.2531 28.5833 28.1327 28.627 28.1327C29.0317 28.1765 29.2724 27.3781 29.2724 27.3781C29.2724 27.3781 29.2833 27.1593 28.813 27.5859C28.6052 27.6187 28.5942 27.5421 28.5395 27.4327C28.4895 27.2245 28.5087 27.0056 28.5942 26.8093C28.6708 26.6124 28.5177 26.5249 28.288 26.6562ZM31.3505 22.6749C31.1317 22.8171 30.727 23.2437 30.7161 23.7249C30.7052 23.9984 30.6505 23.9984 30.8255 24.1624C30.9677 24.3593 31.088 24.3484 31.3505 24.2062C31.4159 24.165 31.472 24.1107 31.5153 24.0467C31.5586 23.9827 31.5882 23.9103 31.602 23.8343C31.6677 23.5281 31.2739 23.9874 31.2302 23.6374C31.1427 23.3093 31.3942 23.1781 31.6349 22.8718C31.6349 22.6531 31.6349 22.5109 31.3395 22.6749H31.3505ZM33.8005 23.1124C33.7041 23.5107 33.6455 23.9172 33.6255 24.3265C33.5599 24.6327 33.9536 24.764 34.1177 24.3702C34.3802 23.6593 34.3802 23.3531 34.402 23.0577C34.3255 22.5874 34.0083 22.5984 33.8005 23.1124ZM49.3317 31.0202C49.3755 30.9656 51.5192 29.4452 51.5192 29.4452C51.738 29.3687 51.6833 30.2327 51.5849 30.2218C50.92 30.8625 50.1553 31.3908 49.3208 31.7859C49.2114 31.8624 49.113 31.2062 49.3208 31.0202H49.3317ZM51.2677 30.9984C51.6505 31.1843 51.8036 32.289 51.7599 32.5843C51.7599 33.1749 51.3989 33.6343 51.2458 33.5687C51.0927 33.4921 51.2677 32.8359 51.1911 32.6062C51.1036 32.2781 50.7864 31.6765 50.8411 31.5015C50.7317 31.1296 51.038 30.9327 51.2786 30.9984H51.2677ZM38.5802 35.7452C38.7576 35.5382 38.9639 35.3577 39.1927 35.2093C39.4114 35.0999 39.6083 35.2968 39.5974 35.2859C39.6302 35.5046 39.4661 35.6906 39.5208 35.9749C39.5645 36.0843 39.5974 36.2156 39.8052 36.1718C40.1442 35.8984 40.4614 35.8765 40.7895 35.8656C41.063 35.8765 41.0739 36.3249 40.8989 36.3249C40.2755 36.4562 40.002 36.6312 39.5536 36.7952C39.3349 36.9265 39.1599 36.7624 39.1599 36.7515C39.1599 36.7406 39.0395 36.6312 39.1161 36.3468C39.138 36.1281 39.0505 35.9968 38.8536 36.0187C38.7224 36.1062 38.5911 36.1499 38.5255 35.9859C38.4927 35.8765 38.4817 35.8109 38.5802 35.7452ZM53.5208 36.3359C53.6083 36.4452 53.6739 36.5546 53.5099 36.7515L53.1052 37.1015C53.0395 37.2109 52.9958 37.4077 53.2145 37.4624C53.6083 37.5718 54.527 36.9702 54.527 36.9593C54.6802 36.8499 54.6364 36.6312 54.6145 36.6312C54.527 36.5327 54.3302 36.5984 54.1989 36.5765C54.1333 36.5765 53.9255 36.5546 54.0239 36.3577C54.0974 36.2611 54.1563 36.1542 54.1989 36.0406C54.2536 35.9093 54.1989 35.8218 53.9802 35.7452C53.7505 35.7015 53.652 35.7234 53.4005 35.7452C53.2692 35.7671 53.2255 35.8327 53.1927 35.9968C53.2036 36.2484 53.3567 36.2374 53.5208 36.3249V36.3359Z" fill="white"/>
<path fill-rule="evenodd" clip-rule="evenodd" d="M38.6567 30.1234C38.602 30.2328 38.4052 30.2328 38.2192 30.1234C38.0333 30.014 37.9239 29.839 37.9895 29.7406C38.0552 29.6422 38.2411 29.6422 38.427 29.7406C38.613 29.839 38.7114 30.025 38.6567 30.1234ZM28.9223 24.2609C28.813 24.2937 28.6598 24.1953 28.5942 24.0422C28.5286 23.889 28.5614 23.7578 28.6708 23.725C28.7802 23.6922 28.9223 23.8015 28.9989 23.9437C29.0755 24.0859 29.0317 24.239 28.9114 24.2719L28.9223 24.2609Z" fill="#259F00"/>
<path fill-rule="evenodd" clip-rule="evenodd" d="M48.1833 50.3906C49.2114 50.4344 50.1739 50.3906 51.1911 50.4453C51.377 50.6094 51.2458 50.9922 51.1255 50.9703L50.2723 50.9375C50.2614 50.6094 49.4301 50.6641 49.452 50.9484C49.0036 51.0031 48.5989 50.9375 48.1395 50.9156C48.0083 50.7516 48.0302 50.4563 48.1833 50.3906Z" fill="#209000"/>
</g>
<defs>
<clipPath id="clip0_1_71219">
<rect width="74.6667" height="56" fill="white" transform="translate(0 9.375)"/>
</clipPath>
</defs>
</svg>
