<svg width="75" height="75" viewBox="0 0 75 75" fill="none" xmlns="http://www.w3.org/2000/svg">
<rect width="74.6667" height="74.75" fill="white"/>
<g clip-path="url(#clip0_1_71479)">
<path fill-rule="evenodd" clip-rule="evenodd" d="M0 64.85L107.997 9.375H0V64.85Z" fill="#0000D6"/>
<path fill-rule="evenodd" clip-rule="evenodd" d="M112 9.375L2.97504 65.375H112V9.375Z" fill="#006000"/>
<path fill-rule="evenodd" clip-rule="evenodd" d="M112 9.375H105.995L0 62.4656V65.375H6.00469L112 12.3937V9.375Z" fill="#FFCC00"/>
<path fill-rule="evenodd" clip-rule="evenodd" d="M7.80941 10.3704L9.10003 14.1438H13.311L9.90941 16.4516L11.211 20.2141L7.80941 17.9063L4.40784 20.225L5.70941 16.4625L2.30784 14.1329H6.50784L7.80941 10.3704ZM28.711 10.3704L30.0125 14.1438H34.2235L30.811 16.4625L32.1235 20.225L28.7 17.9063L25.3094 20.236L26.611 16.4735L23.1985 14.1438H27.4094L28.711 10.3704ZM28.711 26.175L30.0125 29.9485H34.2235L30.811 32.2672L32.1235 36.0297L28.711 33.7L25.3203 36.0297L26.6219 32.2672L23.2094 29.9375H27.4203L28.711 26.175ZM18.3203 18.3657L19.6219 22.1282H23.8219L20.4313 24.4579L21.7219 28.2204L18.3313 25.8907L14.9188 28.2204L16.2313 24.4579L12.8188 22.1282H17.0297L18.3203 18.3657ZM7.80941 26.175L9.10003 29.9485H13.311L9.90941 32.2672L11.211 36.0297L7.80941 33.7L4.40784 36.0297L5.72034 32.2672L2.29691 29.9375H6.49691L7.80941 26.175Z" fill="white"/>
</g>
<defs>
<clipPath id="clip0_1_71479">
<rect width="74.6667" height="56" fill="white" transform="translate(0 9.375)"/>
</clipPath>
</defs>
</svg>
