<svg width="75" height="75" viewBox="0 0 75 75" fill="none" xmlns="http://www.w3.org/2000/svg">
<rect width="74.6667" height="74.75" fill="white"/>
<g clip-path="url(#clip0_1_72203)">
<path fill-rule="evenodd" clip-rule="evenodd" d="M-2.33325 9.375H81.6667V65.375H-2.33325V9.375Z" fill="white"/>
<path fill-rule="evenodd" clip-rule="evenodd" d="M-2.33325 9.375H81.6667V37.375H-2.33325V9.375Z" fill="#DF0000"/>
<path fill-rule="evenodd" clip-rule="evenodd" d="M17.0334 14.065C14.8235 14.5399 12.8443 15.7607 11.4281 17.5224C10.0118 19.284 9.24478 21.4793 9.25573 23.7396C9.26667 25.9999 10.0549 28.1876 11.4882 29.9355C12.9214 31.6833 14.9124 32.8849 17.1268 33.3384C15.8582 33.7054 14.5297 33.8185 13.2173 33.671C11.905 33.5235 10.6347 33.1184 9.47926 32.4789C8.32383 31.8394 7.30601 30.9781 6.48418 29.9444C5.66234 28.9107 5.05266 27.7249 4.69009 26.455C3.96999 23.9025 4.28984 21.1686 5.57972 18.8512C6.86959 16.5338 9.02455 14.8214 11.5734 14.0884C13.4401 13.5517 15.1668 13.54 17.0451 14.065H17.0334Z" fill="white"/>
<path fill-rule="evenodd" clip-rule="evenodd" d="M15.5168 22.2084L16.0884 23.9584L14.5718 22.8851L13.0784 23.9817L13.6268 22.2084L12.1334 21.1234L13.9884 21.1001L14.5718 19.3501L15.1551 21.1001H16.9984L15.5168 22.2084ZM17.5584 28.2751L18.1418 30.0367L16.6251 28.9634L15.1201 30.0484L15.6801 28.2867L14.1868 27.1901L16.0418 27.1784L16.6134 25.4167L17.1968 27.1667H19.0634L17.5584 28.2751ZM24.3834 28.2284L24.9551 30.0017L23.4384 28.9167L21.9451 30.0017L22.4934 28.2401L21.0001 27.1551L22.8551 27.1317L23.4384 25.3817L24.0218 27.1317H25.8651L24.3834 28.2284ZM26.4134 22.2084L26.9851 23.9701L25.4684 22.8967L23.9751 23.9817L24.5351 22.2201L23.0301 21.1234L24.8968 21.1117L25.4568 19.3501L26.0401 21.1001H27.9068L26.4134 22.2084ZM21.0118 18.2067L21.5951 19.9801L20.0784 18.8951L18.5734 19.9917L19.1334 18.2184L17.6401 17.1217L19.4834 17.1101L20.0668 15.3484L20.6501 17.0984H22.5168L21.0118 18.2067Z" fill="white"/>
</g>
<defs>
<clipPath id="clip0_1_72203">
<rect width="74.6667" height="56" fill="white" transform="translate(0 9.375)"/>
</clipPath>
</defs>
</svg>
