<svg width="75" height="75" viewBox="0 0 75 75" fill="none" xmlns="http://www.w3.org/2000/svg">
<rect width="74.6667" height="74.75" fill="white"/>
<g clip-path="url(#clip0_1_72292)">
<path d="M74.6667 65.375V9.375H0V65.375H74.6667Z" fill="#000066"/>
<path d="M67.025 32.6733C67.025 40.105 65.835 48.1317 56.175 51.9583C46.5383 48.1317 45.36 40.105 45.3133 32.6733H67.025Z" fill="#8FC5FF" stroke="white" stroke-width="0.501667"/>
<path d="M56.1634 51.9233C59.8356 50.6376 62.897 48.0296 64.75 44.6083H63.84C63.5717 44.5617 54.5767 43.6983 53.4917 43.2433C52.57 42.9167 49.0117 43.5583 47.3784 44.1533C49.1826 47.7908 52.3407 50.5761 56.175 51.9117L56.1634 51.9233Z" fill="#366CC9" stroke="black" stroke-width="0.501667"/>
<path d="M49.42 47.3616H49.9683C50.0966 47.3616 50.0966 47.3616 50.1433 47.2216C50.19 47.0816 50.33 47.1283 50.4233 47.175C50.505 47.2216 50.6917 47.175 50.7733 47.0816C50.8783 46.9883 50.8783 46.9883 50.9716 47.0816C51.0533 47.175 51.1 47.1283 51.205 47.0816C51.24 47.0816 51.4267 46.9883 51.4733 46.8483C51.5083 46.72 51.6483 46.6733 51.7067 46.7666C51.7417 46.86 51.8233 46.86 51.9283 46.86C52.01 46.86 52.01 46.895 52.01 47.035C52.01 47.1283 52.01 47.175 52.2433 46.9883C52.43 47.175 52.4766 47.0816 52.4766 46.895C52.4766 46.72 52.4767 45.985 52.3833 45.9383C52.29 45.8916 52.2433 45.5766 52.1966 45.355C52.1966 44.8883 52.1967 44.8883 51.7417 44.655C51.7417 44.5383 51.6483 44.48 51.275 44.48C51.3333 44.4333 51.275 44.305 51.1933 44.2466C51.1 44.2116 51.1 44.165 51.1933 43.9783C51.2866 43.9783 51.4733 43.9783 51.5083 43.8383C51.6017 43.7566 51.8817 43.7566 52.0567 43.8383C52.2433 43.9316 52.43 43.9316 52.745 43.8383L53.2933 43.57C53.5266 43.43 53.5617 43.3833 53.5617 43.2083C53.5617 42.7416 53.4333 42.2983 53.3283 42.065C53.2117 41.8316 53.2116 41.5983 53.0133 41.2016C52.8383 40.8283 52.8383 40.735 52.6633 40.5133C52.5583 40.42 52.5117 40.3733 52.5117 40.245C52.4981 40.0648 52.4143 39.8972 52.2783 39.7783C51.9283 39.4633 51.835 38.4133 51.6483 37.6433C51.555 37.1766 51.6483 36.1266 51.4733 35.9516C51.1467 35.7183 51.0067 35.765 50.7733 35.6833C50.5983 35.45 50.5516 35.0416 50.3766 34.6333C50.1433 34.68 50.0033 34.9016 49.875 34.9833C49.735 35.0883 49.6883 35.0883 49.6883 35.31C49.6883 35.4966 49.5483 35.7766 49.3733 36.1266C49.1867 36.5 48.7783 36.36 48.4516 36.8616C47.8216 36.0916 47.8217 35.8583 47.775 35.6366C47.775 35.4033 47.635 35.3566 47.2733 35.0416V34.3416C46.9467 34.1083 46.7717 34.1666 46.6317 34.3416C46.4917 34.4816 46.3983 34.7033 46.1766 34.8083C46.0833 34.9833 45.71 35.345 45.4417 35.8583C45.7217 39.9533 46.6317 44.06 49.4083 47.35L49.42 47.3616Z" fill="#5D3100" stroke="black" stroke-width="0.0466667"/>
<path d="M67.025 32.6733C67.025 29.8383 66.885 27.0966 66.9317 24.74C63.4998 23.4054 59.8454 22.7363 56.1633 22.7683C53.7483 22.7683 49 23.13 45.4067 24.7283C45.4883 27.0966 45.3133 29.8383 45.3133 32.6616L67.025 32.6733Z" fill="#FFFF00" stroke="white" stroke-width="0.501667"/>
<path d="M45.9083 35.9051C46.025 36.0917 46.2467 36.4067 46.2583 36.6051C46.3517 36.4184 46.4217 36.3484 46.4333 36.2434C46.4333 36.1267 46.585 35.9284 46.5267 35.8117C46.48 35.6951 46.445 35.6134 46.5733 35.6951C46.7017 35.7767 46.6783 35.9284 46.655 36.1384C46.5733 36.7217 46.34 36.8384 46.305 37.2234C46.6433 38.0401 46.3867 38.3434 46.7717 39.1601C46.83 39.1834 46.9817 39.1251 47.0283 39.1367C47.2383 38.9967 47.3783 39.0317 47.67 39.1017C47.95 39.1601 48.1017 39.3584 48.1017 39.5451C48.1017 39.7317 48.1017 39.7667 48.1717 39.8717C48.23 39.9651 48.335 40.1401 48.3233 40.2684C48.2883 40.3851 48.335 40.4551 48.3817 40.5017C48.4167 40.5601 48.3583 40.7117 48.335 40.7817C48.3 40.8517 48.3117 40.9801 48.4517 41.1551C48.5917 41.3301 48.9183 42.0767 48.9183 42.5084C48.9183 42.9634 48.9533 43.1617 49.1283 43.2434C49.3033 43.3251 49.3617 43.3951 49.3383 43.5817C49.315 43.7567 49.42 44.7484 49.4433 44.9117C49.455 45.0634 49.525 45.0284 49.6067 45.1101C49.6767 45.1917 49.7233 45.2851 49.9567 45.2851C50.2017 45.2851 50.4233 45.2617 50.5633 45.2851C50.7967 45.5767 50.9133 45.9851 50.9717 46.2301C51.03 46.4867 51.0183 46.8134 51.0883 46.8134C51.1817 46.8134 51.2633 46.8134 51.24 46.5217C51.2167 46.2184 51.1933 46.1717 51.0883 46.0084C50.9717 45.8567 50.9133 45.7751 50.9717 45.6934C51.03 45.6001 51.0417 45.4601 51.03 45.3317C51.0067 45.2151 50.96 45.0284 51.17 45.2617L51.485 45.6467C51.5433 45.7167 51.5667 45.8801 51.555 46.0317C51.5433 46.1717 51.555 46.2301 51.66 46.1484C51.7417 46.0784 51.835 46.2067 51.7767 46.3584C51.7417 46.5101 51.8117 46.6034 51.9517 46.6617C52.0917 46.7084 52.15 46.7434 52.185 46.8484C52.22 46.9417 52.3367 47.0001 52.3367 46.7784C52.3251 46.5051 52.2781 46.2345 52.1967 45.9734C52.1383 45.8334 52.0917 45.5301 52.08 45.3434C52.0567 45.1684 52.0333 45.1217 51.9517 45.0984C51.87 45.0634 51.7883 44.9817 51.7767 44.9117C51.7767 44.8301 51.695 44.7951 51.6483 44.7951C51.59 44.7951 51.5433 44.7601 51.5083 44.7017C51.485 44.6317 51.45 44.6317 51.3917 44.6317C51.3333 44.6201 51.24 44.6551 51.205 44.5617C51.1817 44.4684 51.135 44.3284 51.0767 44.2584C51.0183 44.1884 50.9717 44.1534 50.96 43.8851C50.96 43.6167 50.96 43.5817 50.8667 43.4884C50.7733 43.3951 50.6333 43.1384 50.575 43.0451C50.5283 42.9284 50.4583 42.8234 50.4583 43.0451C50.4583 43.2784 50.4583 43.3951 50.61 43.4767C50.75 43.5584 50.785 43.5584 50.7267 43.6867C50.6567 43.8034 50.7267 43.8851 50.75 43.9667C50.785 44.0484 50.82 44.1301 50.75 44.2001C50.68 44.2934 50.61 44.2701 50.6217 44.1417C50.6222 44.0063 50.5859 43.8732 50.5167 43.7567C50.47 43.6401 50.4117 43.5701 50.3417 43.6401C50.2717 43.6867 50.2133 43.6167 50.26 43.5701C50.3183 43.5234 50.295 43.4884 50.26 43.4534C50.2367 43.4301 50.2133 43.3834 50.2717 43.3134C50.33 43.2434 50.33 43.2084 50.295 43.0451C50.26 42.8817 50.0033 42.0417 49.8867 41.8551C49.77 41.6567 49.7817 41.5284 49.9217 41.7034C50.0733 41.8901 50.2133 42.0534 50.2367 42.2167C50.2367 42.3801 50.2717 42.4734 50.3183 42.5201C50.3767 42.5784 50.4 42.5667 50.435 42.4267C50.435 42.2984 50.5517 42.3451 50.3883 42.1001C50.2133 41.8551 49.91 41.4351 49.7817 40.6767C49.665 39.9301 49.6183 39.4517 49.5017 39.2534C49.385 39.0434 49.35 38.9967 49.3383 38.8101C49.3267 38.6234 49.3383 38.4251 49.2567 38.2851C49.175 38.1451 49.1167 38.1217 49.105 38.3317C49.0933 38.5417 49.105 39.0317 49.175 39.1017C49.245 39.1834 49.1983 39.4051 49.175 39.5101C49.1517 39.6267 48.9767 39.7551 49.3733 39.9884C49.525 40.0934 49.49 40.2217 49.49 40.2917C49.455 40.3851 49.4317 40.3734 49.35 40.2451C49.2683 40.1167 49.1867 40.0001 49.105 39.9417C49.0233 39.8834 49 39.8251 49.0233 39.6501C49.0467 39.4751 49.0583 39.3584 49.0233 39.3001C48.9767 39.2534 48.9533 39.2884 48.9183 39.3934C48.895 39.4867 48.8833 39.7434 48.8133 39.8134C48.755 39.8834 48.755 39.8367 48.72 39.6851C48.6733 39.5334 48.7317 39.2884 48.8133 39.0201C48.895 38.7634 48.9533 38.4601 48.8833 38.1101C48.8133 37.7601 48.8367 37.6434 48.58 37.3517C48.3 37.0484 47.985 36.7684 47.8683 36.4067C47.7283 36.0334 47.705 35.7067 47.5533 35.5434C47.422 35.3754 47.2644 35.2296 47.0867 35.1117V34.5634C47.0867 34.4234 47.0283 34.3534 46.8767 34.3767C46.725 34.4001 46.62 34.5284 46.5267 34.7034C46.4333 34.8901 46.3633 34.8084 46.2233 35.1117C46.0833 35.4151 45.92 35.5784 45.92 35.9051H45.9083Z" fill="#CF6200"/>
<path d="M46.76 39.37C46.8767 39.44 46.9583 39.475 47.11 39.405C47.2383 39.335 47.4017 39.125 47.6117 39.335C47.789 39.5573 47.8875 39.8323 47.8917 40.1166C47.8917 40.385 47.8917 40.875 48.195 41.1433C48.4983 41.4116 48.65 41.7033 48.6617 42.0533C48.686 42.4073 48.7406 42.7586 48.825 43.1033C48.8717 43.2433 48.9417 43.4066 49.0467 43.5116C49.1283 43.605 49.21 43.8733 49.2217 44.1533C49.2333 44.445 49.1867 44.6316 49.2217 44.7833C49.2683 44.9233 49.2217 45.04 49.1283 44.9816C49.0117 44.9233 48.9883 44.865 48.9183 44.7483C48.8483 44.6316 48.8017 44.6433 48.86 44.83C48.9183 45.0166 49.0933 45.18 49.245 45.18C49.3967 45.18 49.4433 45.1916 49.5483 45.2966C49.6417 45.39 49.6533 45.4366 49.8167 45.4366C49.98 45.4366 50.0033 45.4366 50.1667 45.4833C50.3183 45.5183 50.3183 45.5066 50.4 45.4833C50.4817 45.4483 50.5633 45.53 50.6217 45.6816C50.6683 45.8333 50.82 46.265 50.82 46.3816C50.82 46.4983 50.82 46.615 50.9017 46.7316C50.9833 46.86 50.96 46.965 50.8667 46.9066C50.785 46.8366 50.7733 46.8483 50.715 46.8716C50.645 46.895 50.5983 46.8483 50.4933 46.7783C50.4 46.7316 50.4583 46.7433 50.365 46.6033C50.2717 46.4516 50.2133 46.405 50.2133 46.5216C50.2133 46.6383 50.19 46.755 50.12 46.685C50.05 46.6266 50.015 46.6266 49.9567 46.685C49.8983 46.755 49.875 46.8016 49.805 46.685C49.735 46.5683 49.6533 46.5683 49.5717 46.5333C49.5133 46.5216 49.5133 46.5216 49.4783 46.4166C49.4433 46.3 49.3267 46.2766 49.245 46.2766C49.14 46.2766 49.0933 46.23 49.0817 46.16C49.0817 46.09 49.0117 46.0433 48.965 46.0083C48.9067 45.9733 48.9417 45.8916 48.93 45.81C48.93 45.7283 48.8483 45.7516 48.8017 45.74C48.7433 45.7166 48.72 45.7283 48.72 45.6C48.72 45.4833 48.6617 45.4483 48.6383 45.3666C48.5917 45.2733 48.6383 45.1916 48.6617 45.11C48.6733 44.9933 48.6617 44.9466 48.5917 44.8766C48.5217 44.7833 48.5917 44.7016 48.3933 44.5266C48.195 44.375 48.1017 44.515 48.0433 44.13C48.0098 43.6761 47.9156 43.2288 47.7633 42.8C47.6467 42.6833 47.5883 42.5666 47.4717 42.5316C47.355 42.4966 47.3083 42.5316 47.2967 42.2983C47.285 42.065 47.215 41.785 47.0633 41.645L46.795 41.3883C46.725 41.3416 46.69 41.225 46.795 41.0383C46.9 40.8283 46.8533 40.5483 46.8417 40.42C46.83 40.3033 46.795 40.1166 46.8183 39.9766C46.8417 39.8366 46.8183 39.6616 46.795 39.5683C46.76 39.4866 46.7133 39.4516 46.7717 39.37H46.76ZM49.6183 36.01C49.4633 36.2152 49.2785 36.3961 49.07 36.5466C48.8483 36.71 48.5683 36.8266 48.72 37.095C48.8833 37.3633 49.0117 37.3983 49.035 37.5966C49.07 37.8066 49.1283 37.9816 49.2683 38.0283C49.4433 38.075 49.5017 38.0516 49.5017 38.3783C49.5017 38.6933 49.5017 38.845 49.6417 38.9616C49.7817 39.0783 49.7583 39.2183 49.8283 39.51C49.8983 39.8133 49.8983 40.4666 50.085 40.91C50.26 41.3416 50.7033 42.1933 50.645 42.3566C50.5983 42.5316 50.5517 42.66 50.7267 42.87C50.925 43.0683 51.0417 43.3716 51.0767 43.5466C51.0767 43.7216 51.1117 43.78 51.31 43.7216C51.4394 43.6891 51.5568 43.6203 51.6483 43.5233C51.7067 43.4416 51.835 43.4533 52.01 43.5466C52.185 43.6516 52.4533 43.7333 52.6167 43.6516C52.7683 43.5466 52.85 43.4066 52.99 43.4066C53.2117 43.2433 53.2933 42.9166 53.34 42.8233C53.3867 42.73 53.3517 42.73 53.2583 42.6366C53.165 42.5433 53.2117 42.38 53.2 42.2283C53.1767 42.065 53.1183 41.82 52.9317 41.47C52.745 41.12 52.6167 40.7 52.5 40.595C52.3833 40.4783 52.3133 40.21 52.3017 40.0816C52.29 39.965 52.1383 39.8483 52.045 39.755C51.94 39.65 51.8583 39.5216 51.7417 38.9616C51.625 38.4133 51.555 38.0283 51.555 37.9116C51.555 37.8183 51.5317 37.8183 51.4383 37.7716C51.345 37.7366 51.2983 37.585 51.345 37.515C51.3567 37.4333 51.2983 37.3516 51.2633 37.2583C51.24 37.165 51.2633 36.99 51.3333 36.885C51.3917 36.7916 51.38 36.535 51.3217 36.3016C51.2633 36.0916 51.1933 35.905 50.9367 35.8583C50.6917 35.835 50.6333 35.765 50.5517 35.555C50.435 35.3566 50.3417 34.995 50.3183 34.9133C50.295 34.8316 50.2367 34.82 50.05 34.9833C49.8633 35.135 49.7933 35.1816 49.7933 35.485C49.7933 35.6833 49.84 35.7416 49.8983 35.8466C49.9567 35.9633 49.98 35.9983 50.015 36.29C50.0617 36.5816 50.33 37.06 49.9917 37.34C49.6417 37.5966 49.6883 37.6666 49.7 37.8533C49.7233 38.0516 49.6067 38.1683 49.5483 37.9116C49.4783 37.6316 49.5483 37.48 49.735 37.3516C49.9217 37.235 50.0967 37.06 49.9683 36.885C49.8563 36.6424 49.7892 36.3815 49.77 36.115C49.7583 35.9283 49.735 35.8583 49.6183 36.01Z" fill="#CF6200"/>
<path d="M46.8067 40.035L46.8417 40.42C46.8417 40.5483 46.8883 40.8283 46.7833 41.0266C46.69 41.225 46.7133 41.33 46.7833 41.3883H46.795C46.9933 41.33 47.0283 41.12 46.97 41.015C46.9449 40.9592 46.9339 40.8981 46.938 40.8371C46.9421 40.776 46.9611 40.7169 46.9933 40.665C47.0517 40.5483 47.0517 40.49 46.9933 40.4083C46.935 40.3266 46.935 40.3266 46.9933 40.105C47.0633 39.9066 46.9117 39.9066 46.8067 40.035ZM48.8367 43.1033C48.8017 42.9633 48.6617 42.4033 48.6617 42.0533C48.65 41.7033 48.4867 41.4116 48.195 41.1433C47.9617 40.9333 47.915 40.595 47.8917 40.3266C47.7167 40.2216 47.6583 40.2683 47.67 40.4666C47.67 40.6766 47.9033 40.77 47.8683 41.085C47.8333 41.3883 47.8333 41.3183 47.985 41.47C48.1133 41.61 48.1833 41.7733 48.1017 41.82C48.02 41.8783 48.02 41.995 48.125 42.03C48.2417 42.0766 48.2417 42.1933 48.23 42.31C48.2183 42.415 48.335 42.4383 48.3817 42.5083C48.4517 42.59 48.4517 42.7883 48.3817 42.8933C48.335 43.01 48.3233 43.185 48.4283 43.0916C48.545 42.9866 48.5917 43.0916 48.6733 43.2316C48.7433 43.3483 48.8133 43.3133 48.9067 43.29C48.8731 43.2307 48.8457 43.1682 48.825 43.1033H48.8367ZM50.3533 45.8566C50.3067 45.9966 50.225 45.9616 50.155 45.8916C50.085 45.8216 50.0033 45.8216 50.0383 45.6816C50.0617 45.5533 50.0383 45.53 49.9567 45.46L49.9217 45.425H49.8283C49.6533 45.425 49.6417 45.39 49.5367 45.285C49.518 45.2685 49.4985 45.2529 49.4783 45.2383V45.3316C49.4783 45.46 49.4783 45.425 49.3617 45.4716C49.245 45.5066 49.245 45.3433 49.2217 45.2383C49.2199 45.2147 49.216 45.1912 49.21 45.1683C49.1262 45.1496 49.0491 45.1081 48.9874 45.0484C48.9256 44.9887 48.8816 44.9131 48.86 44.83C48.8017 44.6433 48.86 44.6316 48.93 44.7483C49 44.865 49.0117 44.9 49.1167 44.9816C49.21 45.04 49.2567 44.9233 49.21 44.7833C49.2037 44.7329 49.2037 44.682 49.21 44.6316C49.1925 44.5836 49.1597 44.5426 49.1167 44.515C48.9067 44.4333 48.9767 44.4216 48.9767 44.2583C49 44.1066 48.965 44.1066 48.8367 44.1883C48.72 44.27 48.72 44.1883 48.72 43.9316C48.72 43.6983 48.5567 43.6983 48.5217 43.8616C48.4867 44.0366 48.4167 43.92 48.3583 43.6866C48.3 43.4533 48.1833 43.3833 48.1833 43.6166C48.1833 43.815 48.1133 43.85 47.9967 43.7566L48.0433 44.1183C48.1017 44.5033 48.195 44.3516 48.3933 44.5266C48.58 44.69 48.5217 44.7833 48.5917 44.865C48.6617 44.9466 48.6733 45.005 48.6617 45.0983C48.6267 45.1916 48.5917 45.2733 48.6267 45.355C48.6617 45.4483 48.72 45.4716 48.72 45.6C48.72 45.7166 48.7433 45.705 48.8017 45.74H48.895L48.9767 45.6233C49.1283 45.4833 49.3267 45.6233 49.4083 45.8216C49.4783 45.9966 49.56 46.0433 49.6767 45.8916C49.7933 45.7516 49.7467 45.775 49.8633 45.9033C49.98 46.0433 50.0267 46.02 50.0267 46.02C50.0267 46.02 50.1433 45.9733 50.2367 46.0433C50.3183 46.1133 50.3533 46.1016 50.5167 45.88C50.6683 45.6466 50.4467 45.7166 50.3767 45.8566H50.3533ZM50.7967 39.3466C50.8433 38.9966 50.8083 38.6583 50.9483 38.53C51.1 38.4133 51.2633 38.145 51.2633 38.6933C51.24 39.23 51.2167 39.195 51.1117 39.3233C50.995 39.4516 50.9017 39.4866 50.995 39.685C51.1233 39.8833 51.135 39.9183 51.1233 40.2216C51.1117 40.5366 51.1117 40.6766 51.2283 40.8283C51.3567 40.9916 51.3917 40.9916 51.4267 41.1783C51.4633 41.3781 51.5612 41.5616 51.7067 41.7033C51.8467 41.8433 52.01 42.1933 52.0217 42.45C52.045 42.7066 52.255 42.765 52.465 42.9516C52.675 43.1266 52.4183 43.2433 52.2667 43.1616C52.1033 43.0916 52.1617 43.1616 52.0683 43.2783C51.975 43.395 51.9517 43.4066 51.87 43.2083C51.7883 43.0216 51.52 42.8933 51.3917 42.8466C51.2633 42.8 51.1583 42.59 51.0417 42.38C50.9949 42.2973 50.9293 42.2268 50.8503 42.1741C50.7713 42.1214 50.681 42.088 50.5867 42.0766C50.6333 42.205 50.6567 42.31 50.645 42.3566C50.5983 42.5316 50.5517 42.66 50.7267 42.87C50.925 43.0683 51.0417 43.3716 51.0767 43.5466C51.0767 43.7216 51.1117 43.78 51.31 43.7216C51.4368 43.6831 51.5528 43.6152 51.6483 43.5233C51.7067 43.4416 51.835 43.4416 52.01 43.5466C52.185 43.64 52.4533 43.7333 52.6167 43.64C52.7683 43.535 52.85 43.4066 52.99 43.4066C53.2117 43.2433 53.2933 42.905 53.34 42.8233C53.3867 42.7066 53.3517 42.7066 53.2583 42.625C53.165 42.5316 53.2117 42.3683 53.1883 42.2166C53.1883 42.0533 53.1183 41.82 52.9317 41.47C52.7333 41.12 52.6167 40.7 52.5 40.595C52.3833 40.4783 52.3017 40.21 52.3017 40.0816C52.2783 39.965 52.1383 39.8483 52.045 39.7433C51.94 39.65 51.8467 39.51 51.7417 38.9616C51.66 38.53 51.5783 38.1916 51.5667 38.0283C51.45 38.2033 51.3683 38.2616 51.3333 38.1216C51.275 37.9816 51.2283 37.9116 51.1583 38.005C51.1 38.0983 51.0767 37.9116 51.0767 37.83C51.0767 37.7483 51.0767 37.7483 50.9717 37.7483C50.8783 37.7483 50.9717 37.6316 50.9367 37.375C50.9017 37.1416 50.855 37.1183 50.8317 37.3983C50.7967 37.6783 50.6333 37.865 50.7033 37.9116C50.7617 37.9816 50.7267 38.11 50.6683 38.2966C50.6173 38.432 50.6173 38.5813 50.6683 38.7166C50.715 38.8333 50.645 39.09 50.6217 39.2883C50.5867 39.4866 50.75 39.6966 50.7967 39.3583V39.3466ZM47.9033 36.5233C47.7867 36.5233 47.705 36.64 47.775 36.99C47.8217 37.2233 47.6583 37.1766 47.5883 37.06C47.53 36.9433 47.4717 36.71 47.355 36.5116C47.2267 36.3133 47.285 36.64 47.2733 36.8383C47.25 37.0366 47.3783 37.0366 47.4833 37.1883C47.6 37.3516 47.5067 37.41 47.39 37.41C47.2733 37.41 47.3083 37.6666 47.3433 37.83C47.3783 38.005 47.3083 38.04 47.2267 37.9C47.11 37.7483 47.1917 37.55 47.2033 37.27C47.2267 37.0016 47.2383 37.06 47.0633 37.0016C46.8883 36.9316 46.9117 36.8966 46.9933 36.745C47.0517 36.5816 47.11 36.5116 47.0283 36.43C46.9583 36.3483 46.97 36.3016 47.0983 36.29C47.215 36.2666 47.1683 36.1733 47.285 36.15C47.4017 36.115 47.4483 36.15 47.46 35.9516C47.4717 35.7766 47.53 35.6833 47.6583 35.73C47.74 35.9983 47.8333 36.4066 47.9033 36.5233ZM49.5017 38.39C49.5017 38.7166 49.5017 38.8566 49.6417 38.9733C49.7817 39.09 49.7583 39.23 49.8283 39.5216C49.8983 39.825 49.8983 40.4783 50.085 40.9216L50.295 41.3883C50.3937 41.3051 50.4732 41.2017 50.5283 41.085C50.5633 40.9916 50.4233 40.7583 50.3183 40.5833C50.2017 40.3733 50.33 40.315 50.435 40.07C50.5517 39.8483 50.435 39.8366 50.2483 39.7666C50.085 39.7083 50.085 39.5333 49.9917 39.2883C49.8983 39.0316 49.91 38.9266 49.9683 38.775C50.0267 38.635 49.9917 38.53 49.8633 38.495C49.735 38.46 49.77 38.3783 49.8167 38.215C49.8633 38.0633 49.8983 38.0283 49.7 38.0633C49.56 38.11 49.525 38.145 49.4783 38.18L49.5017 38.39Z" fill="#00B800"/>
<path d="M51.3217 39.0433C51.2983 39.23 51.2983 39.335 51.2517 39.3933C51.205 39.4516 51.24 39.545 51.2867 39.65C51.345 39.7433 51.3567 39.86 51.3217 40.0466C51.275 40.2216 51.345 40.35 51.4383 40.3966C51.5317 40.4433 51.5783 40.3966 51.555 40.63C51.5451 40.7304 51.5577 40.8317 51.5921 40.9266C51.6264 41.0215 51.6815 41.1075 51.7533 41.1783C51.87 41.2716 51.9517 41.4233 51.9283 41.5283C51.9283 41.6216 52.01 41.7033 52.1267 41.7616C52.2433 41.8083 52.22 41.82 52.22 41.8783C52.22 41.9366 52.2667 41.9483 52.3833 41.9833C52.5 42.0183 52.6167 42.0883 52.7567 42.2633C52.8967 42.45 53.1067 42.5316 53.0717 42.345C53.0367 42.17 53.0717 42.0183 52.885 41.9366C52.6867 41.8433 52.5467 41.3883 52.4767 41.0733C52.3906 40.7634 52.2304 40.4791 52.01 40.245C51.975 40.0116 52.01 39.9066 51.87 39.8016C51.8099 39.7594 51.7606 39.7036 51.7261 39.6387C51.6917 39.5738 51.673 39.5017 51.6717 39.4283C51.6717 39.335 51.6017 39.195 51.5317 39.1483C51.4733 39.1133 51.4383 39.0433 51.4383 38.9383C51.4383 38.845 51.345 38.8566 51.3217 39.055V39.0433Z" fill="#5D3100"/>
<path d="M50.4817 47.525C50.8714 47.4654 51.2518 47.3556 51.6133 47.1984C51.8117 47.3267 52.1383 47.5017 52.2783 47.5017C52.01 47.56 51.8233 47.5367 51.765 47.4784C51.8 47.56 51.8817 47.7 51.9517 47.7117C51.6833 47.7117 51.3917 47.6417 51.2983 47.5484C51.065 47.6417 50.6917 47.665 50.4817 47.525ZM50.9833 47.875C51.0883 47.91 51.59 47.9917 51.66 47.9917C51.4967 48.1317 51.6367 48.2717 51.905 48.2484C51.7883 48.2717 51.625 48.3184 51.73 48.3417C52.0862 48.3373 52.4384 48.266 52.7683 48.1317C52.535 48.4234 51.4383 48.6917 50.9833 47.875ZM51.45 48.5867C51.6549 48.5359 51.8704 48.5481 52.0683 48.6217C51.905 48.6917 51.5433 48.6917 51.4383 48.5984L51.45 48.5867Z" fill="#00D860"/>
<path d="M51.9517 48.5867C52.185 48.5517 52.885 48.7034 53.1183 48.5634C53.0367 48.785 52.6167 48.82 52.4533 48.7617C52.3017 48.7267 52.1617 48.6684 52.0567 48.6684C52.1267 48.6334 52.0333 48.6334 51.94 48.5867H51.9517Z" fill="black"/>
<path d="M52.1967 48.925C52.5511 48.9347 52.905 48.8915 53.2467 48.7966C53.445 48.8666 53.8767 48.9833 53.97 48.9716C53.7717 49.0883 53.3867 49.0183 53.27 48.9716C53.0985 49.0426 52.9136 49.0753 52.7282 49.0672C52.5427 49.0592 52.3613 49.0106 52.1967 48.925Z" fill="#00D860"/>
<path d="M52.5 49.03C52.7683 49.0883 53.0017 49.0533 53.2583 48.9717C53.34 48.995 53.5267 49.0417 53.7133 49.0417C53.83 49.1 53.9817 49.1933 54.145 49.2167C53.8509 49.2569 53.5516 49.2289 53.27 49.135C52.95 49.126 52.6317 49.1856 52.3367 49.31C52.3424 49.2546 52.3612 49.2013 52.3917 49.1547C52.4221 49.108 52.4632 49.0692 52.5117 49.0417L52.5 49.03Z" fill="#00D860"/>
<path d="M52.1967 47.7117C52.395 47.77 53.1533 47.735 53.515 47.56C53.6783 47.4784 53.7717 47.6067 53.5967 47.6534C52.99 47.8867 52.4883 47.9567 52.1383 47.77C51.9983 47.7 51.975 47.63 52.1967 47.7V47.7117Z" fill="black"/>
<path d="M55.8367 46.6851C54.915 47.1167 54.32 47.2451 53.0484 46.8484C52.9317 46.8251 52.85 46.8484 52.9784 46.9301C53.2966 47.0677 53.6292 47.1694 53.97 47.2334C54.1334 47.2451 54.075 47.3151 53.97 47.3501C53.8767 47.3734 53.8534 47.4434 53.9817 47.3967C54.11 47.3384 54.8917 47.3151 55.2067 47.4784C55.335 47.5601 55.37 47.5367 55.3584 47.4784C55.3467 47.4317 55.4167 47.3967 55.5217 47.3851C55.615 47.3734 55.685 47.3384 55.6034 47.3151C55.5217 47.2801 55.51 47.2567 55.5684 47.2334C55.6267 47.1984 55.6384 47.1634 55.545 47.1517C55.4634 47.1284 55.3934 47.1051 55.475 47.0701C55.5715 47.0278 55.6737 47.0003 55.7784 46.9884C55.8017 46.9301 55.7667 46.7551 55.8367 46.6851Z" fill="#00D860"/>
<path d="M54.32 46.79C55.0434 46.8006 55.7469 46.5524 56.3033 46.09C56.49 46.2066 56.735 46.3233 56.875 46.3466C57.0033 46.37 57.1083 46.4866 56.91 46.4866C56.7117 46.4866 56.4433 46.405 56.3033 46.3466C55.7084 46.711 55.0167 46.886 54.32 46.8483C54.1917 46.8483 54.1567 46.79 54.32 46.8016V46.79Z" fill="black"/>
<path d="M52.7683 43.9434C52.955 44.0717 53.27 44.2817 53.6783 44.2467C53.8757 44.4047 54.1014 44.5235 54.3433 44.5967C54.0633 44.69 53.76 44.795 53.69 44.8767C53.5733 44.76 53.3983 44.7834 53.3633 44.7134C53.2467 44.83 53.2583 44.865 53.34 44.9234C53.6048 45.0021 53.8806 45.0375 54.1567 45.0284C54.2967 44.9817 54.355 45.11 54.2267 45.145C53.9117 45.2617 53.2933 45.145 53.0833 44.8067C52.85 44.4684 52.675 44.34 52.0917 44.655C52.0333 44.48 52.0333 44.4567 51.9167 44.4567C51.8 44.4567 51.59 44.305 51.7533 44.305C51.9167 44.305 52.3833 44.235 52.7683 43.955V43.9434Z" fill="#00D860"/>
<path d="M52.92 44.725C52.8033 44.7367 52.535 44.8883 52.4417 44.9C52.3367 44.9233 52.1617 45.0633 52.3367 45.0633C52.535 45.0633 52.7683 44.865 52.8967 44.865C53.025 44.865 53.0367 44.69 52.92 44.7133V44.725ZM53.5033 45.3083C53.4217 45.3317 53.1183 45.4017 53.0367 45.4017C52.955 45.4017 52.8617 45.4017 52.8733 45.4717C52.885 45.53 52.9083 45.5767 52.7683 45.5533C52.6517 45.53 52.5467 45.5883 52.5233 45.6233C52.4883 45.6583 52.465 45.6933 52.5933 45.705C52.71 45.705 52.78 45.74 52.9317 45.6583C53.0717 45.5883 53.2 45.5067 53.3517 45.495C53.5033 45.495 53.655 45.285 53.4917 45.32L53.5033 45.3083Z" fill="#00D860"/>
<path d="M53.0717 45.67C53.2 45.775 53.8417 45.9733 54.0633 45.9733C54.2967 45.9617 54.2617 46.055 54.0867 46.09C53.8883 46.1194 53.686 46.1065 53.493 46.0522C53.3 45.9979 53.1206 45.9034 52.9667 45.775C52.8267 45.6583 52.9667 45.6117 53.06 45.67H53.0717Z" fill="black"/>
<path d="M56.0933 46.0083C55.7056 46.1176 55.2968 46.1296 54.9033 46.0433C54.705 45.9733 54.5183 45.9733 54.67 46.1133C54.7867 46.2416 55.23 46.3233 55.4867 46.265C54.6 46.4633 54.3667 46.4516 54.1567 46.4166C53.8857 46.3837 53.6124 46.3759 53.34 46.3933C53.2098 46.4143 53.0764 46.3981 52.955 46.3466C52.8733 46.2883 52.85 46.2183 53.0833 46.2416C53.3167 46.2533 53.3517 46.2183 53.1533 46.1833C52.9433 46.1483 52.675 46.23 52.9433 46.4166C53.2233 46.58 53.8067 46.3933 54.1917 46.51C54.5282 46.5976 54.8808 46.603 55.2199 46.5259C55.559 46.4487 55.8745 46.2912 56.14 46.0666C56.175 46.0433 56.245 45.95 56.0933 45.9966V46.0083ZM53.69 45.2733C53.7133 45.3433 53.7133 45.39 53.69 45.4366C53.6667 45.4833 53.6783 45.5416 53.7483 45.4833C53.8183 45.425 53.865 45.3433 53.9583 45.39C54.04 45.425 54.2267 45.425 54.3083 45.4133C54.4017 45.4133 54.425 45.3783 54.3083 45.3316C54.2014 45.2857 54.0863 45.2619 53.97 45.2616C53.9 45.2733 53.8067 45.2616 53.7483 45.2266C53.69 45.1916 53.6783 45.2266 53.69 45.2733Z" fill="#00D860"/>
<path d="M54.95 45.5067C54.8567 45.5067 54.67 45.4367 54.5883 45.39C54.495 45.355 54.355 45.355 54.4484 45.5067C54.5534 45.6467 54.985 45.705 55.1484 45.6467C55.3 45.5767 55.2417 45.5067 55.3817 45.6C55.545 45.6934 55.6967 45.7517 55.8133 45.7517C55.93 45.7517 55.965 45.7517 55.8484 45.6817C55.7317 45.6117 55.6617 45.6 55.6383 45.5417C55.615 45.4834 55.615 45.4367 55.7433 45.4834C55.86 45.5184 55.9767 45.5767 56.07 45.53C56.1634 45.4834 56.3267 45.3784 56.4784 45.3784L56.5017 45.285C56.2917 45.285 56.1517 45.3434 56.0933 45.355C56.0467 45.3784 55.93 45.4017 55.8133 45.3784C55.6967 45.355 55.5567 45.3434 55.5217 45.32C55.475 45.285 55.4867 45.2617 55.58 45.25C55.6733 45.2267 55.6967 45.1684 55.58 45.18C55.4633 45.2034 55.09 45.2034 54.9034 45.145C54.7284 45.0867 54.6467 45.075 54.5767 45.11C54.495 45.1334 54.5067 45.2267 54.6117 45.2267C54.7284 45.2267 54.985 45.2617 55.0784 45.3434C55.1484 45.425 55.1483 45.425 55.055 45.39C54.95 45.3434 54.7634 45.3667 54.95 45.5067Z" fill="#00D860"/>
<path d="M56.5017 45.285L56.4667 45.3784C56.6883 45.3784 57.2133 45.425 57.4 45.53C57.5633 45.4017 57.5283 45.355 57.6333 45.39C57.75 45.425 57.9133 45.4484 57.9833 45.425C58.0364 45.3946 58.0992 45.3863 58.1583 45.4017C58.2283 45.4017 58.3917 45.3784 58.4733 45.3317C58.5667 45.2734 58.7533 45.215 58.8583 45.215C58.9517 45.215 59.0917 45.18 58.8933 45.145C58.7067 45.11 58.4033 45.18 58.31 45.215C58.1933 45.25 57.9017 45.2734 57.7267 45.2734C57.5517 45.2734 57.3067 45.355 57.1083 45.3084C56.8983 45.2617 56.6183 45.285 56.49 45.285H56.5017Z" fill="#00D860"/>
<path d="M59.255 45.1917C58.905 45.4484 58.4617 45.5067 57.96 45.5417C57.8083 45.5417 57.855 45.5884 57.9833 45.6C58.52 45.6584 59.1267 45.46 59.3367 45.25C59.395 45.18 59.3833 45.0867 59.255 45.18V45.1917Z" fill="black"/>
<path d="M56.8283 45.7983C57.1171 45.8416 57.4018 45.9079 57.68 45.9966C57.82 45.9733 57.855 45.9499 57.8317 45.8916C57.7967 45.8449 57.785 45.7983 58.03 45.8216H58.905C58.9983 45.7866 59.1733 45.6466 59.255 45.6466C59.045 45.6466 58.1467 45.6933 58.0417 45.6816C57.925 45.6816 57.8667 45.6816 57.7967 45.7283C57.7267 45.7633 57.6917 45.7866 57.5983 45.7399C57.4817 45.7049 57.3533 45.6583 57.2483 45.7283C57.1783 45.7749 56.98 45.7283 56.8283 45.7983Z" fill="#00D860"/>
<path d="M58.905 45.8217C58.9867 45.7867 59.1733 45.6467 59.255 45.635C59.4183 45.6234 59.5817 45.6817 59.6633 45.705C59.745 45.7284 59.8383 45.705 59.78 45.635C59.7333 45.5767 59.78 45.4484 60.0133 45.4834C60.27 45.5067 60.3867 45.5534 60.6317 45.53C60.8767 45.5067 60.97 45.6817 61.4133 45.5067C61.39 45.6817 61.4717 45.6934 61.5533 45.6584C61.635 45.635 61.7283 45.635 61.8683 45.74C62.02 45.8567 62.8833 45.8567 63.0817 45.8217C63.2917 45.7867 63.385 45.8917 63.2333 45.9384C63.0817 45.985 63.0467 46.055 63.0817 46.1134C63.1167 46.16 63.1517 46.2184 62.965 46.195C62.7667 46.1717 62.7317 46.23 62.65 46.2884C62.5567 46.3584 62.5333 46.405 62.265 46.3467C62.0083 46.3 61.95 46.335 61.81 46.3467C61.67 46.37 61.635 46.3817 61.4833 46.335C61.2774 46.2609 61.0544 46.2488 60.8417 46.3C60.655 46.37 60.5267 46.4167 60.3517 46.37C60.1767 46.335 60.1767 46.3467 60.2817 46.2534C60.375 46.1367 60.3983 46.1367 60.6083 46.125C60.8183 46.1017 60.9583 46.0434 60.83 45.9617C60.6783 45.88 60.6433 45.8917 60.445 45.9734C60.2583 46.0667 60.165 46.1367 59.9433 46.02C59.7333 45.9034 59.64 45.915 59.4767 45.9617C59.3367 45.9967 59.1033 45.9034 58.905 45.8217ZM59.6167 46.1717C59.3367 46.2184 59.2667 46.0434 58.9867 46.0667C58.8933 46.09 58.73 46.2067 58.9517 46.1834C59.1733 46.1717 59.4183 46.2884 59.6283 46.2767C59.8383 46.265 59.745 46.16 59.6283 46.1717H59.6167ZM59.3133 46.37C59.4417 46.3234 59.7333 46.4284 59.8733 46.405C60.0017 46.3817 60.1067 46.4517 59.9667 46.51C59.8267 46.5567 59.535 46.4284 59.3833 46.4634C59.255 46.51 59.1033 46.4517 59.3017 46.37H59.3133ZM56.4667 47.1517C56.665 47.1517 57.3767 47.1167 57.6567 46.5334C57.68 46.4867 57.6917 46.4634 57.7733 46.5334C57.855 46.5917 58.1933 46.7784 58.8 46.8367C58.975 46.8367 59.15 46.93 58.8117 46.9184C58.4617 46.895 57.925 46.8017 57.75 46.685C57.435 47.1634 56.8867 47.2217 56.4667 47.21C56.2217 47.21 56.28 47.14 56.4667 47.1517Z" fill="#00D860"/>
<path d="M57.995 46.335C57.9017 46.4633 57.575 46.685 57.435 46.7083C57.2833 46.7083 56.8283 46.685 56.7233 46.6383C56.6067 46.6033 56.4783 46.6033 56.63 46.72C56.8442 46.8359 57.087 46.8885 57.33 46.8716C57.5167 46.8366 57.6917 46.7783 57.82 46.8716C57.9367 46.9416 58.17 47.0816 58.31 47.0583C58.45 47.0233 58.7183 47.0233 58.8117 47.0583C58.905 47.105 59.0567 47.245 58.8233 47.175C58.59 47.0933 58.4033 47.1516 58.2983 47.105C58.415 47.2683 58.6833 47.5366 58.905 47.5366C58.9633 47.5366 59.01 47.6416 58.905 47.6883C58.9983 47.735 59.255 47.7933 59.4067 47.6533C59.36 47.7116 59.3833 47.735 59.4417 47.7583C59.5 47.7816 59.57 47.8283 59.465 47.8516C59.3483 47.875 59.115 47.8866 59.045 47.8516C59.2783 48.0033 59.8617 48.2483 60.48 48.12C60.5967 48.1083 60.6667 48.05 60.48 48.0616C60.0717 48.0616 60.0483 48.0616 59.9783 48.0266C59.9083 47.98 59.9317 47.945 60.0483 47.91C60.2127 47.8676 60.3806 47.8403 60.55 47.8283C60.6667 47.8283 60.795 47.7933 60.55 47.7933C60.3167 47.7933 60.0133 47.7933 59.885 47.7466C59.7683 47.7116 59.6867 47.6416 59.815 47.56C59.9317 47.4783 60.06 47.5016 60.1183 47.4433C59.7333 47.4433 59.255 47.21 59.5117 47.0233C59.57 46.9883 59.5583 46.9766 59.465 46.965C59.2846 46.9295 59.1086 46.8747 58.94 46.8016C58.8233 46.7433 58.8933 46.6733 58.9983 46.65C58.765 46.685 58.2983 46.5683 57.995 46.3466V46.335ZM61.4717 46.335C61.2617 46.4866 60.8533 46.5683 60.6783 46.5683C60.515 46.5683 60.48 46.615 60.62 46.6266C60.76 46.6383 60.9116 46.6733 60.97 46.65C61.0283 46.6266 61.075 46.6266 61.1567 46.6733C61.3005 46.7213 61.4561 46.7213 61.6 46.6733C61.775 46.6266 62.0317 46.6033 62.1483 46.6033C62.265 46.615 62.3817 46.615 62.1483 46.5566C61.9383 46.4983 61.565 46.5333 61.4717 46.5566C61.39 46.58 61.145 46.5566 61.2733 46.5333C61.4017 46.4983 61.5067 46.4166 61.5767 46.37L61.4717 46.335ZM61.355 46.8016C61.1477 46.9561 60.901 47.0491 60.6433 47.07C60.8767 47.1633 61.0867 47.42 61.25 47.3966C61.1683 47.455 61.075 47.5133 60.9817 47.5366C61.1988 47.5733 61.422 47.532 61.6116 47.42C61.9616 47.5133 62.4283 47.4433 62.58 47.3033C62.3467 47.3033 62.0783 47.2333 61.95 47.1166C62.0667 47.1166 62.1717 47.0583 62.2183 46.9883C61.95 47.035 61.5183 46.9066 61.3667 46.7783L61.355 46.8016Z" fill="#00D860"/>
<path d="M60.9817 47.525C61.075 47.525 61.18 47.455 61.25 47.4084C60.7976 47.4407 60.346 47.3349 59.955 47.105C59.6983 46.8834 59.6983 47.0584 59.8733 47.21C60.0209 47.3491 60.1994 47.4512 60.3941 47.508C60.5887 47.5648 60.7941 47.5746 60.9933 47.5367L60.9817 47.525ZM61.6117 48.0734C61.5067 48.1317 60.9933 48.1784 60.83 48.1317C60.655 48.0967 60.5967 48.1084 60.62 48.19C60.655 48.26 60.69 48.3067 60.55 48.2834C60.3923 48.2764 60.2345 48.2961 60.0833 48.3417C59.9667 48.365 59.85 48.4584 60.06 48.4234C60.2817 48.4 60.4683 48.3534 60.6433 48.3884C60.795 48.4234 61.355 48.435 61.46 48.3884C61.5767 48.3417 61.5067 48.3534 61.46 48.3534C61.4017 48.3534 61.3783 48.3184 61.46 48.2717C61.5417 48.2367 61.5883 48.155 61.6117 48.0734ZM56.6767 47.3967C56.3117 47.5237 55.9372 47.6212 55.5567 47.6884C55.3233 47.7934 55.1367 47.8517 55.02 47.8517C55.1017 47.9217 55.4283 47.9917 55.545 47.9567C55.475 48.0384 55.3117 48.1084 55.2533 48.155C55.4517 48.12 55.6617 48.1784 55.7667 48.19C55.527 48.318 55.2558 48.3746 54.985 48.3534C55.055 48.4234 55.1367 48.505 55.2417 48.505C55.033 48.5656 54.8125 48.5736 54.6 48.5284C54.67 48.645 54.7167 48.715 54.81 48.7384C54.6117 48.75 54.3783 48.785 54.18 48.6684C54.3317 48.8784 54.67 48.9367 55.1833 48.8784C55.6967 48.82 56.1167 48.5984 56.2333 48.505C56.0233 48.5284 55.7317 48.54 55.6033 48.505C55.957 48.4108 56.295 48.2654 56.6067 48.0734C56.4896 48.0727 56.3756 48.036 56.28 47.9684C56.594 47.984 56.9086 47.9526 57.2133 47.875C57.0485 47.8396 56.9029 47.7439 56.805 47.6067C57.4506 47.7929 58.1328 47.8129 58.7883 47.665C58.8817 47.6417 58.8817 47.5134 58.7067 47.5367C58.38 47.56 57.7383 47.4667 57.5633 47.385C57.7026 47.4842 57.8619 47.5519 58.03 47.5834C57.7383 47.6767 57.3067 47.735 56.6767 47.385V47.3967Z" fill="#00D860"/>
<path d="M55.2533 48.155C55.3117 48.1083 55.4867 48.0383 55.545 47.9566C55.4167 47.9916 55.1017 47.9216 55.02 47.84C55.1367 47.84 55.3233 47.7933 55.5567 47.6883C55.1367 47.6766 54.8567 47.6766 54.6817 47.5833C54.5183 47.49 54.25 47.5366 54.1333 47.56C54.0167 47.5716 54.0633 47.7583 54.5183 47.7116C54.2404 47.836 53.9323 47.8766 53.6317 47.8283C53.6783 47.9916 53.7133 48.1433 53.6667 48.2366C53.9117 48.3766 54.565 48.5516 54.8917 48.5283C54.6 48.4233 54.4483 48.3066 54.6817 48.2716C54.915 48.2483 55.055 48.2016 55.265 48.155H55.2533Z" fill="#00D860"/>
<path d="M54.5183 48.9251C55.0783 48.8784 55.8483 48.8667 56.455 48.3417C56.6067 48.2251 56.7117 48.2717 56.56 48.4001C56.0229 48.8169 55.3721 49.061 54.6933 49.1001C54.3783 49.1001 54.2383 48.9484 54.5183 48.9134V48.9251Z" fill="black"/>
<path d="M58.765 47.9916C58.5531 48.0552 58.3329 48.0866 58.1117 48.085C57.9837 48.0565 57.8503 48.0646 57.7267 48.1083C57.6333 48.1666 57.6217 48.225 57.75 48.225L58.135 48.2483C58.053 48.2906 57.9813 48.3503 57.925 48.4233C58.135 48.3766 58.4733 48.4583 58.5783 48.5166C58.5383 48.525 58.497 48.5252 58.4569 48.5171C58.4168 48.5091 58.3787 48.4931 58.345 48.47C58.66 48.82 59.6167 48.82 59.7683 48.75C59.6983 48.8083 59.6283 48.8666 59.57 48.8666C59.8267 48.925 60.13 48.9133 60.445 48.75L59.955 48.7266C60.0204 48.6619 60.1004 48.6139 60.1883 48.5866C60.0717 48.5633 59.6983 48.575 59.605 48.6216C59.6397 48.538 59.7013 48.4682 59.78 48.4233C59.3133 48.4233 58.7417 48.4233 58.5433 48.3066C58.8583 48.3533 59.2317 48.155 59.3833 48.155C59.1267 48.155 58.8467 48.0966 58.7767 47.98L58.765 47.9916ZM57.5867 48.225C57.3533 48.2833 57.0033 48.3883 56.8983 48.435C56.805 48.4933 56.7117 48.5166 56.91 48.5166C56.9333 48.5127 56.9567 48.5088 56.98 48.505C56.8983 48.505 56.805 48.505 56.9683 48.4466C57.12 48.4 57.3183 48.295 57.575 48.2483L57.5867 48.225ZM57.12 48.7966C57.2017 48.7966 57.5517 48.7966 57.7033 48.68C57.8433 48.7733 58.135 48.9366 58.31 48.9366C58.4967 48.9366 58.4733 48.9833 58.31 49.0066C58.0858 48.9995 57.8679 48.9309 57.68 48.8083C57.47 48.89 57.295 48.82 57.0967 48.7966H57.12ZM54.3667 50.395C54.7441 50.5617 55.1642 50.6066 55.5683 50.5233C55.7783 50.6983 56.1867 50.71 56.4083 50.6633C56.6417 50.6166 56.84 50.5933 57.0967 50.6633C57.33 50.7566 57.8433 50.7683 57.995 50.885L57.5167 50.8966C57.4467 50.92 57.4817 50.955 57.61 51.0133C57.147 51.0089 56.6915 51.1299 56.2917 51.3633C56.3515 51.2286 56.45 51.1145 56.5745 51.0356C56.6991 50.9567 56.8442 50.9165 56.9917 50.92C56.7817 50.85 56.0933 50.8383 55.86 50.9783C55.798 50.9108 55.7504 50.8314 55.72 50.745C55.3583 50.9433 54.6467 50.64 54.355 50.395H54.3667ZM53.4333 49.7183C53.7425 49.6925 54.0379 49.5792 54.285 49.3916C54.3667 49.4616 54.6933 49.5316 55.0433 49.4266C54.9733 49.4733 54.9617 49.5783 54.985 49.625C54.7033 49.6511 54.4277 49.722 54.1683 49.835C54.0283 49.905 53.585 49.9633 53.445 49.8816C53.305 49.8116 53.305 49.7416 53.4217 49.7183H53.4333Z" fill="#00D860"/>
<path d="M54.985 49.6367C54.7033 49.6628 54.4277 49.7337 54.1683 49.8467L54.2267 50.045C54.8063 49.8794 55.4103 49.8162 56.0117 49.8584C55.825 49.87 55.4867 50.0684 55.3 50.08C55.7667 50.045 56.21 50.1384 56.3267 50.1734C56.4433 50.1967 56.4783 50.29 56.385 50.3834C56.2917 50.4884 56.2567 50.465 56.4433 50.4884C56.63 50.4884 57.0267 50.4534 57.2017 50.2784C57.12 50.2084 56.945 50.2434 56.8867 50.1734C57.0044 50.1358 57.1122 50.0719 57.2017 49.9867C57.0221 49.9914 56.8425 49.9797 56.665 49.9517C56.5717 49.9284 56.49 49.8934 56.6183 49.8234C56.7066 49.7804 56.7857 49.721 56.8517 49.6484C56.6183 49.7067 56.2567 49.765 55.9417 49.5317C56.0583 49.555 56.3267 49.5317 56.42 49.4967C56.3427 49.4465 56.2549 49.4146 56.1633 49.4034C56.3967 49.2867 56.8633 49.1817 57.4817 49.415C57.7586 49.394 58.0372 49.4097 58.31 49.4617C58.4267 49.3684 58.6133 49.135 58.7183 49.0884C58.0183 49.135 56.7583 49.0184 56.7933 48.645C56.56 48.9484 56.035 49.1117 55.8133 49.065C55.79 49.1584 55.8833 49.2984 55.965 49.3684C55.7317 49.415 55.3233 49.4617 55.1367 49.415C55.2533 49.52 55.44 49.6134 55.5567 49.6134C55.3233 49.6134 55.1833 49.66 54.985 49.6367Z" fill="#00D860"/>
<path d="M56.4317 50.4767C56.6417 50.4767 57.015 50.4533 57.2017 50.2783C57.12 50.2083 56.945 50.2433 56.8867 50.1733C57.0044 50.1358 57.1122 50.0719 57.2017 49.9867C57.715 49.94 58.1467 49.9633 58.3683 49.905C58.5783 49.8467 59.1267 49.87 59.2317 49.8467C58.7533 49.9283 58.66 49.9633 58.6483 50.045C58.625 50.1267 58.7883 50.1733 58.905 50.1733C58.7067 50.1733 58.4267 50.395 58.3917 50.4883C58.1117 50.325 57.995 50.5117 57.9483 50.5817C57.8317 50.535 57.435 50.5467 57.2367 50.7217C56.98 50.64 56.805 50.605 56.5367 50.64C56.7117 50.605 56.6767 50.4883 56.4433 50.4767H56.4317ZM58.7067 49.0767C58.87 49.0767 59.22 49.1 59.3483 49.0767C59.2702 49.1148 59.1991 49.1661 59.1383 49.2283C59.5467 49.1817 60.095 49.1467 60.2583 49.1817C60.0483 49.1467 59.85 49.2867 59.745 49.345C59.6517 49.4033 59.71 49.45 59.85 49.4617C59.99 49.485 60.165 49.5783 59.92 49.555C59.6867 49.5317 59.1733 49.52 59.0567 49.5317C58.94 49.555 58.87 49.4967 59.0567 49.4617C59.1828 49.4428 59.305 49.4034 59.4183 49.345C59.2783 49.38 59.01 49.38 58.9167 49.345C58.8233 49.31 58.7883 49.2867 58.8817 49.2517C58.9867 49.2167 58.9167 49.205 58.8117 49.2167C58.7067 49.2167 58.4617 49.3333 58.31 49.4617C58.4617 49.2983 58.6133 49.1583 58.7067 49.0883V49.0767Z" fill="#00D860"/>
<path d="M56.91 49.3567C57.0082 49.47 57.1302 49.5602 57.2674 49.6207C57.4046 49.6812 57.5535 49.7106 57.7033 49.7067C57.7733 49.7067 57.9367 49.8117 57.7383 49.8234C57.2367 49.8467 56.9917 49.7184 56.77 49.4034C56.7233 49.3334 56.805 49.24 56.91 49.3567ZM59.885 45.2034C60.1417 45.32 60.6667 45.4367 61.075 45.425C61.1567 45.425 61.285 45.495 61.11 45.5067C60.676 45.5598 60.2362 45.4783 59.85 45.2734C59.745 45.215 59.78 45.1567 59.885 45.2034Z" fill="black"/>
<path d="M60.1417 45.2033C60.55 45.2033 60.8533 45.2033 60.9583 45.3083C61.1917 45.25 61.6233 45.2033 61.705 45.2267C61.7983 45.25 61.915 45.1917 61.6933 45.145C61.46 45.0983 60.97 45.075 60.8067 45.11C60.6433 45.1333 60.1417 45.1567 59.99 45.1333C60.0483 45.1333 60.095 45.1567 60.1417 45.2033ZM61.705 45.355C61.8917 45.2617 62.44 45.355 62.6033 45.285C62.4867 45.425 62.9883 45.4367 63.42 45.3317C63.2567 45.425 62.895 45.4483 62.7433 45.5183C62.5917 45.5883 62.51 45.53 62.3933 45.4833C62.1791 45.3816 61.9408 45.3412 61.705 45.3667V45.355Z" fill="#00D860"/>
<path d="M63.42 45.3317C62.9883 45.425 62.4866 45.425 62.6033 45.285C62.44 45.355 61.9033 45.2617 61.705 45.355C61.915 45.2384 62.055 45.3434 62.195 45.0984C62.2883 45.11 62.4983 45.1217 62.5683 45.0284C62.685 45.0634 62.9183 45.11 62.9766 45.18C63.035 45.25 63.1283 45.1567 63.0583 45.0634C63.2567 44.9934 63.1283 45.145 63.5833 45.0284C63.6883 45.005 63.91 44.9584 63.9917 44.9584C63.8134 45.1065 63.6175 45.2319 63.4083 45.3317H63.42Z" fill="#00D860"/>
<path d="M55.02 43.3367L54.9383 33.21C54.9383 32.755 54.705 32.86 54.705 33.21V43.2433L55.02 43.3367ZM58.31 32.6733L58.6717 43.3367L58.625 43.43H58.3917L58.17 32.6733H58.31ZM61.4133 41.7033L61.2267 33.035C61.2267 32.755 60.9933 32.8017 60.9933 33.0817L61.18 41.7033H61.4133Z" fill="#FFFF00" stroke="black" stroke-width="0.0466667"/>
<path d="M56.49 34.4467L53.2933 34.4001C53.1533 35.0417 53.935 34.9834 54.2033 34.8667C54.565 35.0884 54.845 35.0884 55.02 34.8667C55.3 35.0884 55.6617 35.0417 55.8017 34.8667C56.1633 35.1817 56.5717 34.8667 56.49 34.4001V34.4467ZM56.7233 35.9984H53.515C52.9317 36.5467 53.655 36.8151 54.2967 36.4534C54.39 36.6401 54.7517 36.7217 55.02 36.5934C55.3 36.7684 55.6617 36.6401 55.8367 36.4534C56.1633 36.5934 56.5717 36.6401 56.7583 35.9867L56.7233 35.9984ZM56.6183 38.0517H53.515C53.48 38.5534 54.11 38.5067 54.3317 38.3667C54.565 38.7401 55.1133 38.6467 55.3 38.4134C55.615 38.6467 55.8833 38.6001 56.0233 38.4134C56.35 38.6934 56.665 38.3201 56.6183 38.0517ZM56.8167 40.0584L53.305 40.0117C53.1183 40.5951 53.6667 40.7001 53.8883 40.5601C53.9933 40.8751 54.4483 40.7934 54.5883 40.5601C54.7633 40.7001 54.9967 40.6067 55.0783 40.4667C55.125 40.7817 55.545 40.8284 55.86 40.5601C56.5017 41.0151 57.085 40.4667 56.77 40.0584H56.8167ZM59.8733 39.2417H57.0033C57.1317 39.7784 57.4117 39.9184 57.8667 39.5917C58.2283 39.9651 58.7767 39.8251 58.9167 39.6501C59.5583 40.1517 59.8733 39.5567 59.8733 39.1834V39.2417ZM59.5933 37.2351L56.77 37.1417C56.8167 37.8651 57.505 37.8184 57.8667 37.5501C58.1 37.8651 58.555 37.7834 58.7767 37.5501C59.0917 37.9117 59.6867 37.6901 59.5933 37.2351ZM59.9667 34.9951H56.9333C56.9333 35.4967 57.61 35.7651 58.1117 35.3101C58.2517 35.9051 58.8 35.7184 59.0333 35.4967C59.3833 35.9517 60.165 35.4034 59.9433 35.0301L59.9667 34.9951ZM59.78 33.4784L57.0383 33.5367C57.0383 33.9917 57.68 34.1784 57.9133 33.8051C58.0533 34.0384 58.4967 33.9917 58.6367 33.8051C58.8233 34.1317 59.1033 33.8984 59.185 33.8051C59.5117 34.0384 59.8267 33.8984 59.78 33.4901V33.4784ZM62.93 34.4934L59.64 34.4467C59.64 34.7617 59.9667 34.9134 60.1883 34.7617C60.1883 35.1351 60.655 35.2284 60.97 34.9484C61.145 35.2634 61.74 35.3101 61.9733 34.9484C62.4283 35.3567 62.9767 35.0417 62.8833 34.4817L62.93 34.4934ZM62.8833 37.1767H59.6867C59.6867 37.6434 60.1883 37.7717 60.5033 37.5501C60.5617 37.9117 60.97 37.9584 61.2033 37.7367C61.5183 38.0517 61.9733 38.0867 62.2533 37.7367C62.6033 37.8651 62.93 37.5501 62.8833 37.1884V37.1767ZM62.6967 39.6034H60.1417C60.1417 40.0584 60.69 40.0584 60.9233 39.8367C61.1917 40.1517 61.565 40.1517 61.7867 39.9184C62.1017 40.1984 62.65 40.1051 62.6967 39.6034Z" fill="white" stroke="black" stroke-width="0.0466667"/>
<path d="M58.625 43.4417C57.26 43.4417 55.8483 43.4417 54.8917 43.3367C53.935 43.255 53.655 43.0683 52.9783 42.66L50.4 41.1083C50.1783 41.015 49.9567 41.155 50.2717 41.3417L52.8267 43.0217C53.4086 43.3974 53.9315 43.8574 54.3783 44.3867C54.9267 44.9817 55.2883 44.9817 55.5567 44.8883C55.8367 44.8067 56.1983 44.655 56.6067 44.76C56.98 44.8417 57.5167 44.8883 57.7967 44.8417C58.03 45.075 58.6133 45.0283 58.94 44.935C59.255 44.8417 59.4883 44.8417 59.71 44.8883H60.4917C60.725 44.8883 61.3083 44.76 61.7167 44.8067C62.1833 44.8883 62.58 44.8067 62.86 44.8067C63.1571 44.7296 63.4666 44.7137 63.77 44.76C64.05 44.5733 64.1317 44.34 64.2367 44.1183C64.505 44.0717 64.5867 44.025 64.6333 43.885L64.9133 43.1617H65.0067V42.8817L64.82 42.6133L64.9133 42.1467L65.1467 42.065L65.0533 41.5983L61.04 41.7033C60.895 41.8359 60.7967 42.0119 60.76 42.205L59.57 42.38C59.4417 42.4267 59.3017 42.4267 59.1617 42.6133L58.625 43.4417Z" fill="black" stroke="black" stroke-width="0.0466667"/>
<path d="M63.42 41.6566L64.0033 39.4166C64.0967 39.1833 63.875 39.1483 63.7817 39.4166L63.1983 41.6566H63.42Z" fill="black" stroke="black" stroke-width="0.0466667"/>
<path d="M65.7417 39.1483C65.24 39.3816 64.9717 39.51 64.7383 39.4166C64.505 39.3233 64.2367 39.2766 64.0617 39.37C64.0632 39.3855 64.0632 39.4011 64.0617 39.4166C63.8968 39.9968 63.7295 40.5762 63.56 41.155C63.91 41.295 64.5633 41.295 64.6917 41.155C64.8783 40.9683 65.2867 41.015 65.5083 41.015C65.6483 40.8283 65.695 40.6066 65.6483 40.5133C65.6017 40.42 65.6483 40.1983 65.6483 40.0466C65.6483 39.93 65.835 39.4166 65.7417 39.1483Z" fill="white" stroke="black" stroke-width="0.0466667"/>
<path d="M54.25 34.855C53.365 37.1595 52.1336 39.3154 50.5983 41.2484M51.5083 41.7967C53.5329 40.1637 55.2887 38.2228 56.7117 36.045M53.515 38.005C53.3867 39.2417 53.0133 41.4234 52.8383 42.5667M54.0167 40.7467C53.5617 41.2017 52.9667 41.925 52.4767 42.3334M58.2633 38.2734C57.9017 38.6467 57.4933 39.09 57.0733 39.195M58.4967 38.3784C58.8308 38.7592 59.2507 39.0551 59.7217 39.2417M58.2633 36.4067C57.8666 36.7579 57.402 37.0239 56.8983 37.1884M58.45 36.4417C58.7183 36.71 59.0333 37.025 59.4533 37.2234M56.9917 34.9834C57.446 34.8476 57.8644 34.6125 58.2167 34.295M58.3567 34.295C58.7101 34.6217 59.1271 34.8719 59.5817 35.03M57.0733 33.5134C57.5024 33.4412 57.8915 33.2177 58.17 32.8834M58.31 32.79C58.625 33.07 59.22 33.4317 59.5467 33.4784M61.005 33.84C60.8183 34.0734 60.3167 34.435 60.0017 34.435M61.2267 33.8517C61.3667 34.0734 61.7283 34.435 61.9617 34.435M59.7683 37.1767C60.2597 36.9923 60.6998 36.6922 61.0517 36.3017M61.285 36.3484C61.5013 36.6833 61.7929 36.963 62.1367 37.165M60.27 39.545C60.4567 39.545 60.9583 39.265 61.0867 38.9617M61.3667 38.81C61.6179 39.1257 61.9267 39.3909 62.2767 39.5917M53.7483 40C54.3317 39.8134 55.4867 39.09 56.0817 38.4017M54.985 39.265C55.44 39.5917 56.035 39.965 56.4433 40.0467M53.6083 37.9934C54.012 37.8311 54.3834 37.598 54.705 37.305M54.9383 37.2584C55.0667 37.445 56.0233 38.04 56.4433 38.04M54.705 35.3567C54.3568 35.6215 53.9716 35.8338 53.5617 35.9867M54.9383 35.345C55.2533 35.5784 55.9417 35.9867 56.3383 35.9867M54.7167 33.525C54.4483 33.7934 53.9933 34.2484 53.62 34.3884M54.95 33.5717C55.125 33.8867 55.6733 34.3417 56.035 34.3884M59.6867 35.5784C60.5617 37.0834 62.1017 38.9617 63.6533 39.9534M57.2367 33.8867C58.5083 35.7067 60.97 39.685 63.3383 41.1434M63.805 39.5917C63.1937 40.4234 62.4343 41.1353 61.565 41.6917M63.6067 40.0934C62.8367 38.81 62.4283 37.2234 61.7867 35.0767M55.405 40.735L56.315 43.465M55.2183 40.6884L56.0817 43.4184M54.9967 40.5484L55.8133 43.3717M54.9033 40.595L55.5333 43.3717M55.5333 43.29H56.315M56.2217 43.01H55.4983M56.1283 42.7767H55.405M56.035 42.555H55.3M55.8833 42.2867H55.3M55.2533 42.0534H55.8367M55.2067 41.8667H55.79M55.16 41.6334H55.7083M55.125 41.4584H55.615M55.0667 41.225H55.5333M55.02 41.05H55.4867M54.985 40.91H55.44M54.9733 40.735H55.3933M54.2033 40.735L53.655 43.01M54.3433 40.735L53.8767 43.1034M54.4833 40.6417L54.11 43.15M54.6583 40.5834L54.39 43.2434M54.705 43.0567H53.795M54.705 42.8234H53.655M54.705 42.555H53.7483M54.6583 42.3217H53.795M54.705 42.0884H53.8417M54.705 41.82H53.935M54.705 41.5867H53.935M54.6583 41.365H53.9817M54.6583 41.1317H54.075M54.6583 40.91H54.11M54.6583 40.77H54.1567M54.6233 43.29V40.595M57.575 39.685L55.7667 43.3834M57.7267 39.65L56.175 43.43M57.82 39.6034L56.5833 43.43M57.96 39.6967L56.9567 43.43M57.0033 43.3017H55.86M57.085 42.9284H56M57.1317 42.66H56.2217M57.3183 42.38H56.4083M57.365 42.1117H56.5017M57.4583 41.8317H56.6417M57.54 41.5167H56.8167M57.5867 41.2834H56.91M57.68 41.015H57.0383M57.7383 40.8284H57.1317M57.7733 40.6534H57.1317M57.7267 40.4667H57.2717M57.7383 40.3267H57.3183M57.7733 40.1517H57.4M57.855 39.965H57.4933M57.8433 39.825H57.5283M59.08 39.7784L59.8617 42.345M59.22 39.825L60.1767 42.2984M59.36 39.825L60.5033 42.2517M60.7717 42.0184L59.4883 39.7784M60.7717 42.065H59.8617M60.6783 41.7034H59.7683M60.55 41.4234H59.675M60.3633 41.1084H59.5817M60.1767 40.8284H59.5M60.0017 40.5134H59.4067M59.8617 40.1984H59.3133M59.675 39.9184H59.22M60.6783 39.965L59.8617 42.3334M60.9117 39.8834L60.1767 42.2984M60.5033 42.2517L61.0517 39.965M61.18 40.0584L60.725 42.205M59.955 42.065H60.725M60.0483 41.7967H60.8183M60.13 41.47H60.865M60.2817 41.2017H60.9583M60.3633 40.875H61.005M60.4567 40.6067H61.04M60.585 40.28H61.1333M60.6783 40.0117H61.145M61.5533 40.0584L61.9033 41.6917M61.6817 39.965L62.1833 41.6567M61.8683 39.965L62.4167 41.6567M62.09 40.0584L62.685 41.6567M62.6383 41.5167H61.8683M62.5567 41.2834H61.8217M62.4633 41.0617H61.775M62.3583 40.7817H61.6817M62.23 40.5484H61.6M62.1483 40.3267H61.565M62.0667 40.0934H61.5183" stroke="black" stroke-width="0.0466667"/>
<path d="M54.5533 44.2816C54.915 44.0483 55.545 44.0833 55.8717 44.3283C56.2567 44.1183 56.945 44.1766 57.26 44.4683C57.75 44.1183 58.1583 44.0716 58.625 44.3983C58.8316 44.2612 59.0749 44.1901 59.3228 44.1942C59.5707 44.1984 59.8115 44.2777 60.0133 44.4216C60.445 44.2233 60.9117 44.0599 61.32 44.4916C61.1219 44.3582 60.8853 44.294 60.647 44.3087C60.4086 44.3235 60.1818 44.4165 60.0017 44.5733C59.5933 44.1649 58.87 44.3166 58.625 44.6083C58.5391 44.5151 58.4345 44.4412 58.3179 44.3913C58.2014 44.3415 58.0757 44.3168 57.9489 44.319C57.8222 44.3212 57.6974 44.3502 57.5827 44.4041C57.468 44.458 57.366 44.5355 57.2833 44.6316C56.8517 44.2816 56.2217 44.2583 55.8833 44.5149C55.6947 44.376 55.4765 44.2826 55.2457 44.2421C55.015 44.2016 54.778 44.2151 54.5533 44.2816Z" fill="#00B800"/>
<path d="M61.0283 43.7683C59.15 44.095 55.0317 43.885 54.145 43.64C53.83 43.57 53.9117 43.4533 54.18 43.5233C55.2183 43.7567 57.435 43.7567 58.6483 43.6867L59.3717 42.695C59.4883 42.5433 59.535 42.5317 59.78 42.4967L60.795 42.3217V42.4617C60.7717 42.4967 60.7483 42.5317 60.7133 42.5433C60.7133 42.7767 60.76 43.3717 60.8183 43.5933L60.9467 43.5583C61.0283 43.535 61.11 43.7567 61.0283 43.7683Z" fill="#CF6200"/>
<path d="M64.12 43.8617H64.3767C64.4467 43.8617 64.5633 43.8034 64.5983 43.6867L64.855 42.9517L64.6567 42.66L64.7617 42.0417L64.995 41.9367C65.0183 41.9017 64.995 41.75 64.9483 41.7034L61.2617 41.82C61.145 41.82 61.0983 41.82 61.0633 41.9717C60.9544 42.4651 60.9839 42.9789 61.1486 43.4565C61.3133 43.9342 61.6068 44.357 61.9967 44.6784C62.055 44.725 62.1367 44.6784 62.0317 44.5967C61.8347 44.3992 61.6659 44.1754 61.53 43.9317H62.1367C62.1833 44.13 62.335 44.5384 62.37 44.62C62.3933 44.7017 62.4633 44.7017 62.4167 44.585C62.3467 44.3517 62.3 44.06 62.265 43.92H62.8833L62.93 44.5267C62.93 44.6084 63 44.6084 63 44.515V43.9084L63.56 43.885L63.5133 44.4917C63.5017 44.5967 63.5483 44.6317 63.5717 44.4917L63.6533 43.885L64.0383 43.8617C64.0383 44.0017 63.91 44.375 63.875 44.4684C63.84 44.585 63.8983 44.585 63.9333 44.48C64.0135 44.2838 64.076 44.0807 64.12 43.8734V43.8617Z" fill="#CF6200"/>
<path d="M61.425 43.7683C61.3667 43.64 61.1567 43.1733 61.145 42.835H61.9617C61.985 43.08 62.055 43.6283 62.1017 43.7567L61.425 43.7683ZM62.1017 42.8117C62.1133 43.0217 62.2183 43.6867 62.2417 43.745H62.895L62.8483 42.8L62.1017 42.8117ZM61.18 41.995C61.151 42.2272 61.1432 42.4615 61.1567 42.695L61.9383 42.66L61.8683 41.9717L61.18 41.995ZM62.0317 41.9717L62.0783 42.6717L62.8483 42.6483L62.8133 41.9483L62.0317 41.9717ZM62.965 41.9367L62.9883 42.6367L63.6533 42.625C63.6533 42.4733 63.6883 42.0183 63.6767 41.9133L62.965 41.9367ZM63.805 41.9133L63.7817 42.6133L64.505 42.59C64.54 42.4383 64.61 42.0417 64.61 41.89L63.805 41.9133ZM64.54 42.7533L63.77 42.7767L63.7 43.71L64.435 43.6867C64.5383 43.4589 64.6279 43.2252 64.7033 42.9867C64.645 42.87 64.5983 42.835 64.54 42.7533ZM62.9883 42.8L63.0117 43.7333L63.5717 43.71L63.6417 42.7767L62.9883 42.8ZM59.8383 42.6133L59.535 42.66C59.2995 43.0089 59.0544 43.3513 58.8 43.6867L59.885 43.6633L59.85 42.6133H59.8383ZM59.9783 42.5783L60.025 43.6517L60.6783 43.605L60.5617 42.485L59.9783 42.5783Z" fill="black"/>
<path d="M56.805 40.0584H53.2933V39.9651L56.7933 40.0117L56.805 40.0584ZM59.5467 37.2351C59.5817 37.2351 59.5817 37.2351 59.5467 37.2351L56.805 37.1884C56.7583 37.1884 56.7583 37.1884 56.805 37.1884H59.5467V37.2351ZM56.63 38.0051C56.665 38.0051 56.665 38.0517 56.63 38.0517H53.515C53.48 38.0517 53.515 38.0051 53.515 38.0051H56.63ZM56.7117 35.9984C56.7583 35.9984 56.7583 36.0451 56.7117 36.0451H53.48C53.4333 36.0451 53.4333 35.9984 53.48 35.9984H56.7117ZM56.4783 34.4001C56.525 34.4001 56.525 34.4467 56.4783 34.4467H53.3283C53.2933 34.4467 53.3283 34.3534 53.3283 34.3534L56.525 34.4001H56.4783Z" fill="black" stroke="black" stroke-width="0.0466667"/>
<path d="M59.7683 33.49L57.0267 33.5367L59.7683 33.49Z" fill="white" stroke="black" stroke-width="0.0466667"/>
<path d="M59.9083 35.0417C59.955 35.0417 59.955 35.0417 59.9083 35.0417H56.9333C56.8866 35.0417 56.8866 35.0417 56.9333 35.0417H59.9083ZM62.8717 37.1417V37.1883H59.675C59.5816 37.1883 59.5816 37.1883 59.675 37.1883H62.8833L62.8717 37.1417ZM62.8717 34.4467C62.965 34.4467 62.965 34.4933 62.8717 34.4933H59.6166C59.57 34.4933 59.57 34.4467 59.6166 34.4467H62.9067H62.8717ZM59.85 39.195C59.8966 39.195 59.8966 39.2417 59.85 39.2417H56.9333V39.195H59.85ZM62.6733 39.6033C62.72 39.6033 62.72 39.6033 62.6733 39.6033H60.1183H62.6733Z" fill="black" stroke="black" stroke-width="0.0466667"/>
<path d="M65.0183 40.0584C65.0693 39.8475 65.0693 39.6275 65.0183 39.4167C64.9269 39.4433 64.8298 39.4433 64.7383 39.4167C64.6936 39.3827 64.6469 39.3516 64.5983 39.3234C64.5852 39.6223 64.5262 39.9174 64.4233 40.1984C64.2833 40.1984 63.9567 40.1984 63.8283 40.105L63.6883 40.56C63.915 40.61 64.1499 40.61 64.3767 40.56C64.3767 40.8284 64.33 41.0617 64.19 41.2484C64.4233 41.2484 64.6567 41.2484 64.6917 41.1084C64.8317 40.9217 64.8317 40.6417 64.8783 40.5134L65.1117 40.4667L65.3333 40.3734L65.6483 40.3267V40.0584L65.7417 39.8717L65.0183 40.105V40.0584Z" fill="#EF072D" stroke="black" stroke-width="0.0466667"/>
<path d="M53.7017 24.635C53.34 24.635 52.5117 24.635 52.3367 24.7283C52.1967 24.8217 52.15 24.8683 52.43 24.915C52.6983 24.9617 53.2 25.1483 53.48 25.2767C53.7483 25.4633 53.935 25.7433 53.935 26.1867C53.8336 26.7493 53.9107 27.3296 54.1555 27.8463C54.4003 28.363 54.8004 28.7903 55.3 29.0683C55.3467 29.115 55.3933 29.15 55.3467 29.3367L55.2067 29.8383C55.2067 29.9317 55.16 30.025 55.3 29.9783C55.1559 30.2266 55.0002 30.468 54.8333 30.7017C54.11 30.62 53.48 30.7017 53.48 31.5183C53.48 31.6233 53.48 31.705 53.5617 31.5183C53.7017 31.3433 53.8417 31.1683 54.1567 31.075C53.9817 31.39 53.8883 31.6583 53.9233 31.845C53.9233 31.985 54.0167 32.0783 54.11 31.845C54.1567 31.6583 54.3433 31.4833 54.4833 31.3433C54.565 31.2967 54.565 31.2967 54.5183 31.4367C54.4987 31.6157 54.5489 31.7953 54.6583 31.9383C54.7517 32.0317 54.7983 31.985 54.7517 31.845C54.7517 31.6583 54.7517 31.3433 54.985 31.2617C55.2533 31.075 55.5217 31.1567 55.615 31.3433C55.755 31.5767 55.8483 31.3433 55.7083 31.1567C55.5683 30.9817 55.44 30.7483 55.2533 30.7483L55.72 29.9783C55.72 29.885 55.8017 29.8383 55.895 29.885C55.895 29.9317 55.9883 29.9317 56.0233 29.7917L56.35 29.15L56.6183 29.0683L57.085 29.745V30.025C57.085 30.2 56.8983 30.6083 56.8517 30.7483C56.3033 30.7483 56.035 30.7483 55.8483 31.075C55.755 31.2033 55.895 31.25 56.0233 31.2033C56.1645 31.1192 56.3257 31.0749 56.49 31.075C56.5717 31.075 56.6183 31.1567 56.49 31.2033C56.1633 31.3433 55.9417 31.5767 55.9417 31.8917C55.9417 31.985 56.0233 32.0317 56.07 31.8917C56.2035 31.6676 56.4156 31.5012 56.665 31.425C56.665 31.6583 56.7117 32.0317 56.8983 32.125C57.0267 32.2067 57.0267 32.125 56.9917 31.985C56.8983 31.7517 56.9917 31.5183 57.12 31.39C57.3533 31.1217 57.9017 31.4833 58.0417 31.5767C58.1233 31.6583 58.2167 31.705 58.1233 31.4367C58.0767 31.1217 57.6217 30.97 57.2133 30.8883L57.7617 28.975C57.995 29.115 58.2283 28.7417 58.5783 28.8817C59.1908 29.1553 59.7734 29.4915 60.3167 29.885C60.5033 30.025 60.55 29.9783 60.6317 29.885C60.725 29.8383 60.865 29.885 61.005 29.885C61.0867 29.9317 61.18 29.9783 61.0517 29.6983C60.7892 29.2203 60.4123 28.8154 59.955 28.52C60.3167 28.52 60.7717 28.52 60.7717 28.4267C60.7717 28.3333 60.2233 28.1467 60.0017 28.1467C60.27 28.0977 60.5201 27.9767 60.725 27.7967C60.8183 27.6917 60.725 27.645 60.3633 27.645C59.4067 27.645 58.905 27.645 58.4033 27.3767C57.5867 26.91 57.0733 26.3733 56.665 26.1867C56.49 26.0583 56.35 25.7783 56.21 25.5567C55.9767 24.8567 55.9767 24.5067 55.3933 24.2733C54.7983 24.04 54.0167 24.32 53.7017 24.635Z" fill="black" stroke="black" stroke-width="0.0466667"/>
<path d="M53.7483 24.8217H52.9783C52.9783 24.8217 52.885 24.8217 52.9783 24.8217L53.655 25.0083C53.795 25.0083 53.7483 25.1367 53.655 25.09C53.5616 25.055 53.48 25.09 53.5616 25.1833C54.0283 25.51 54.11 25.65 54.0283 26.875L54.25 27.0617C54.3433 27.0617 54.2966 27.1433 54.25 27.0967C54.2033 27.0617 54.0166 27.0967 54.1566 27.19C54.2966 27.2833 54.39 27.2833 54.25 27.2833C54.11 27.2833 53.9816 27.3767 54.25 27.33C54.4833 27.33 54.6116 27.4233 54.25 27.47C53.9816 27.47 54.0633 27.5633 54.25 27.5633C54.565 27.5633 54.4833 27.645 54.39 27.645C54.2966 27.645 54.25 27.7383 54.4833 27.7383H54.7983C54.845 27.7383 54.8916 27.7383 54.7983 27.785C54.705 27.785 54.705 27.8783 54.845 27.8783C54.985 27.8783 55.0783 27.8783 54.9383 27.925C54.8916 27.925 54.7983 27.9717 54.9383 28.0183C55.2533 28.0183 55.2883 28.1 55.2066 28.1467C55.1133 28.1933 55.0666 28.1933 55.2066 28.1933C55.3466 28.1933 55.4866 28.24 55.3466 28.2867C55.2533 28.2867 55.2066 28.38 55.3466 28.38C55.4866 28.38 55.58 28.4733 55.4866 28.52C55.3933 28.5667 55.3466 28.6133 55.4866 28.6133C55.615 28.6133 55.6616 28.6483 55.5683 28.695C55.4866 28.7883 55.44 28.7883 55.335 28.695C55.335 28.6133 55.2533 28.6133 55.2533 28.695L55.16 28.5667C55.1133 28.4267 55.02 28.4267 55.02 28.5667C55.02 28.695 54.9383 28.6133 54.845 28.5667C55.0658 28.8197 55.3649 28.9916 55.6947 29.0551C56.0245 29.1185 56.3661 29.0698 56.665 28.9167C56.7116 28.9167 56.7583 28.9167 56.805 29.0683L57.0733 29.57C57.12 29.6517 57.2133 29.57 57.2133 29.4767L57.4933 28.695C57.4933 28.5667 57.6683 28.4617 57.6216 28.835C57.7616 28.7417 58.31 28.695 58.765 28.835C59.2048 29.0109 59.6204 29.2422 60.0016 29.5233C60.0343 29.5485 60.0724 29.5659 60.1129 29.574C60.1533 29.582 60.1951 29.5807 60.235 29.57C60.3516 29.57 60.41 29.57 60.1766 29.3367C59.9433 29.1033 60.0483 29.0217 60.1766 29.1033C60.3166 29.1967 60.41 29.15 60.27 29.0217L59.815 28.6133C59.7683 28.6133 59.7683 28.52 59.5466 28.52H58.8466C58.765 28.52 58.6716 28.52 58.9516 28.6133C59.22 28.695 59.7216 29.0683 59.8616 29.15C60.0016 29.2433 60.0483 29.43 59.815 29.2433C59.2952 28.8976 58.7491 28.5934 58.1816 28.3333C56.945 28.4733 55.9416 28.6133 55.2066 27.8317C54.845 27.4233 54.845 26.5483 55.44 26.1983C55.3466 26.0933 55.3466 26.0117 55.3933 26.0117V25.7317C55.3 25.685 55.2066 25.5917 55.2066 25.4983C55.0666 25.4983 54.9733 25.2767 54.7516 25.37C54.5183 25.4633 54.4833 25.37 54.39 25.3233C54.3433 25.23 54.2966 25.23 54.1566 25.23C54.0166 25.23 53.9233 25.23 53.9233 25.1367C53.9233 25.055 54.0166 25.055 54.2033 25.1367C54.5183 25.2767 54.7866 25.37 55.02 25.055C55.2066 24.775 54.9383 24.5533 54.565 24.46C54.1566 24.3667 53.8883 24.6933 53.7016 24.8217H53.7483Z" fill="white" stroke="black" stroke-width="0.0466667"/>
<path d="M55.755 24.6817C55.6202 24.5602 55.4611 24.4688 55.2883 24.4133C55.1717 24.4133 55.1717 24.5067 55.2067 24.5533V24.8217C55.3 24.8683 55.3467 24.9617 55.2067 24.9617C55.1133 25.055 55.2067 25.37 55.3467 25.2767H55.44C55.44 25.2767 55.44 25.4167 55.5217 25.4167C55.615 25.4167 55.5217 25.51 55.5217 25.5567H55.615C55.7083 25.5567 55.6617 25.7317 55.5683 25.79C55.7083 25.79 55.755 25.79 55.755 25.8717C55.8017 25.965 55.9417 26.0117 55.9417 26.14C55.9417 26.28 55.9417 26.28 55.755 26.2333C55.5683 26.1867 55.5683 26.2333 55.5217 26.3267C55.4867 26.42 55.44 26.4667 55.5217 26.4667C55.615 26.4667 55.7083 26.5133 55.5683 26.56C55.44 26.595 55.3 26.56 55.2533 26.6883C55.2533 26.8283 55.2533 26.875 55.3467 26.8283L55.6617 26.6417L55.895 26.6883C55.9883 26.735 55.895 26.9217 55.8017 26.8283C55.7083 26.735 55.615 26.8283 55.5683 26.875L55.335 26.9683C55.2533 26.9683 55.16 26.9683 55.2183 27.2017C55.2183 27.8317 55.7083 28.2867 56.6183 28.2867H58.135C57.855 28.1 57.6683 28.0183 57.5283 28.0183H57.4C57.4467 27.9717 57.4 27.8783 57.3533 27.8783C57.3067 27.8783 57.2133 27.785 57.12 27.8783L56.665 28.1117C56.5717 28.1117 56.4317 28.1117 56.5717 28.0183L56.9917 27.8317C57.0733 27.8317 57.0267 27.7383 57.0267 27.7383C57.0267 27.7383 57.0267 27.5983 57.1667 27.645C57.4467 27.8317 57.855 28.065 57.9833 28.065C58.1233 28.065 58.17 27.9717 58.0767 27.925C57.995 27.8783 57.9483 27.785 57.9483 27.7383C57.9483 27.6917 57.995 27.645 58.1817 27.7383C58.3567 27.8783 58.625 27.9717 58.765 28.0183C58.905 28.065 58.9983 28.065 58.765 27.925L57.715 27.1433C57.575 27.015 57.575 27.1433 57.6217 27.2367C57.6683 27.33 57.4933 27.3767 57.3883 27.2833C57.3067 27.19 57.26 27.1433 57.3883 27.0967C57.5283 27.0617 57.4933 27.015 57.3533 26.8633C57.1667 26.7467 57.12 26.7467 57.1667 26.8633C57.2133 27.015 57.2133 27.0967 57.0733 27.0617C56.945 27.015 56.805 26.9217 56.945 26.875C57.0267 26.7817 57.1783 26.735 56.945 26.595C56.7117 26.4667 56.8517 26.595 56.805 26.6883C56.7583 26.7817 56.6183 26.7817 56.5717 26.6883C56.525 26.595 56.4433 26.56 56.49 26.5133C56.525 26.4667 56.525 26.42 56.6183 26.5133C56.7117 26.595 56.805 26.5133 56.665 26.3733C56.525 26.2333 56.49 26.28 56.525 26.3733C56.5717 26.4667 56.4433 26.56 56.2567 26.3733C56.1633 26.3267 56.1633 26.2333 56.2567 26.1867C56.35 26.1867 56.35 26.14 56.2567 26.0583C55.9417 25.51 56.07 25.09 55.7083 24.6817H55.755Z" fill="white" stroke="black" stroke-width="0.0466667"/>
<path d="M55.7667 24.775C55.7434 24.8217 55.7317 24.81 55.6734 24.8567C55.615 24.9033 55.5917 25.0317 55.7084 25.02C55.7406 25.0166 55.7717 25.0066 55.7998 24.9905C55.828 24.9745 55.8524 24.9527 55.8717 24.9267C55.8451 24.8735 55.8138 24.8227 55.7784 24.775H55.7667ZM55.4167 24.4717C55.3117 24.565 55.3 24.6117 55.3467 24.6117C55.405 24.6117 55.3817 24.6117 55.3467 24.6817C55.3 24.74 55.4167 24.775 55.4634 24.7167C55.5217 24.67 55.5217 24.6583 55.545 24.7167C55.5567 24.775 55.6617 24.7167 55.6967 24.6817C55.615 24.6 55.4984 24.53 55.405 24.4717H55.4167ZM55.2417 24.985C55.125 25.0433 55.16 25.3583 55.3467 25.265C55.405 25.2417 55.4517 25.265 55.4517 25.3V25.3817C55.5274 25.3504 55.5952 25.3026 55.65 25.2417C55.755 25.1017 55.65 25.125 55.4867 25.125C55.3234 25.125 55.2884 25.09 55.44 24.9967C55.58 24.9033 55.475 24.8567 55.2884 24.88C55.3117 24.915 55.3 24.95 55.2417 24.985ZM55.93 25.685C55.8367 25.58 55.895 25.545 55.9884 25.4867C56.0066 25.4792 56.0227 25.4671 56.035 25.4517L55.9534 25.1483C55.9184 25.1717 55.86 25.2767 55.8367 25.3233C55.8134 25.405 55.79 25.4517 55.72 25.44C55.6384 25.405 55.5684 25.4867 55.5567 25.5683H55.615C55.6384 25.58 55.65 25.6383 55.6384 25.685C55.86 25.685 55.895 25.8133 55.93 25.9183C55.9767 26.035 56.0117 26.0233 56.0467 25.9533C56.0817 25.8833 56.0117 25.7783 55.93 25.685Z" fill="#CF6200"/>
<path d="M55.9883 26.9216C55.9417 27.015 55.9417 27.0033 55.8133 27.0033C55.6967 27.015 55.5333 27.0383 55.4633 27.1083C55.4283 27.1433 55.2067 27.1666 55.2067 27.26C55.2067 27.365 55.2067 27.435 55.3 27.4466C55.3933 27.4466 55.4167 27.47 55.3817 27.54C55.335 27.61 55.3117 27.715 55.475 27.7383C55.6383 27.7383 55.7667 27.7033 55.8017 27.785C55.8483 27.9016 55.8017 28.03 55.8367 28.1C55.86 28.1583 55.9767 28.1816 56.1517 28.24C56.2683 28.2633 56.7117 28.2983 56.8517 28.275C56.9683 28.2516 56.9217 28.1816 56.7933 28.1816C56.6533 28.1583 56.56 28.135 56.525 28.0416C56.49 27.9366 56.4667 27.89 56.5483 27.8083C56.6183 27.715 56.6883 27.6566 56.6417 27.5166C56.6067 27.3883 56.525 27.225 56.3733 27.1783C56.2217 27.1316 56.2683 26.91 56.105 26.8983C56.0467 26.8983 56.0117 26.8983 55.9883 26.9216Z" fill="#FFFF00"/>
<path d="M55.2183 28.205C55.3583 28.2283 55.4633 28.2633 55.3583 28.2983C55.2533 28.3333 55.1833 28.3916 55.3233 28.4033C55.4633 28.4033 55.5917 28.4733 55.475 28.4966C55.3583 28.5316 55.3583 28.6133 55.4867 28.6133C55.615 28.6133 55.685 28.66 55.5917 28.73C55.4867 28.7766 55.4283 28.8116 55.3583 28.7183C55.3 28.6133 55.265 28.6016 55.2533 28.66C55.23 28.73 55.195 28.6833 55.1483 28.5783C55.1133 28.485 55.0083 28.4383 55.0317 28.52C55.0667 28.6016 54.9617 28.625 54.8567 28.5783C54.9525 28.6904 55.067 28.7851 55.195 28.8583C55.335 28.8116 55.4983 28.8583 55.545 28.8583C55.615 28.8583 55.79 28.905 55.895 28.9633C56 29.01 56.07 28.9166 56.0233 28.8116C55.9767 28.695 55.9767 28.73 55.93 28.8116C55.86 28.8583 55.86 28.7766 55.86 28.6483C55.86 28.555 55.79 28.5666 55.7783 28.6366C55.755 28.695 55.6967 28.59 55.72 28.5316C55.755 28.4733 55.72 28.4383 55.6733 28.4616C55.615 28.485 55.615 28.4616 55.6033 28.345C55.5917 28.2166 55.545 28.2283 55.5333 28.2866C55.5217 28.3333 55.4633 28.2633 55.3817 28.17C55.3233 28.1 55.265 28.1466 55.1367 28.1816L55.2183 28.205Z" fill="#CF6200"/>
<path d="M56.6533 28.9516C56.0117 29.2083 55.545 29.0916 55.195 28.8583C55.335 28.8116 55.4983 28.8583 55.5567 28.8583C55.615 28.8583 55.8017 28.905 55.895 28.9633C55.9883 29.01 56.07 28.9166 56.0233 28.8116C56.105 28.9283 56.175 28.9983 56.28 28.9866L56.6533 28.9516ZM55.2767 25.9416C55.23 25.8016 55.195 25.7783 55.125 25.79C55.055 25.79 55.02 25.7783 54.9383 25.7433C54.8683 25.7083 54.7633 25.7433 54.7517 25.895C54.7283 26.0466 54.635 26.105 54.5183 26.1983C54.4017 26.28 54.3433 26.35 54.3433 26.5016C54.3433 26.6416 54.3083 26.665 54.2267 26.7816L54.0983 26.9333L54.2383 27.015C54.3317 27.0616 54.2967 27.12 54.215 27.0966C54.1333 27.0733 54.04 27.12 54.1917 27.1433C54.3317 27.1783 54.39 27.26 54.2617 27.26C54.11 27.225 53.9583 27.3533 54.2267 27.3183C54.495 27.295 54.5883 27.4233 54.285 27.4233C53.97 27.4233 54.0867 27.5283 54.2617 27.5283C54.5533 27.5283 54.46 27.61 54.3783 27.61C54.3083 27.61 54.2733 27.7266 54.4717 27.6916L54.5417 27.575C54.5767 27.4816 54.6 27.2133 54.7167 27.1316C54.8217 27.0616 54.88 26.9333 54.88 26.8633C54.88 26.7933 55.055 26.4316 55.1483 26.35C55.265 26.2683 55.3117 26.0816 55.265 25.9533L55.2767 25.9416Z" fill="#FFFF00"/>
<path d="M55.0433 25.9651C54.9383 25.8834 54.8217 25.9417 54.8217 26.0817C54.8217 26.1984 54.7517 26.2567 54.6583 26.3151C54.6061 26.342 54.5602 26.38 54.524 26.4263C54.4878 26.4726 54.4619 26.5262 54.4483 26.5834C54.4483 26.7001 54.4717 26.7584 54.4017 26.8517C54.32 26.9334 54.3083 27.0034 54.355 27.0617C54.425 27.1084 54.425 27.1084 54.4367 27.1784C54.4717 27.2484 54.6 27.1784 54.6 27.0967C54.6 27.0151 54.635 27.0151 54.7167 26.9684C54.81 26.9217 54.95 26.6884 54.915 26.6301C54.8917 26.5717 54.7983 26.5134 54.915 26.4317C55.0317 26.3384 55.125 26.3151 55.125 26.2451C55.125 26.1517 55.1483 26.1284 55.1833 26.0934C55.2183 26.0584 55.1133 26.0117 55.0433 25.9767V25.9651Z" fill="#CF6200"/>
<path d="M55.0433 25.8484C54.9733 25.825 54.9267 25.9767 55.0317 26C55.1367 26.0234 55.1483 25.895 55.0317 25.86L55.0433 25.8484ZM55.0317 26.0467C54.95 26.0584 54.8567 26.1634 54.985 26.1634C55.125 26.14 55.1717 26.0467 55.02 26.0467H55.0317ZM54.8683 26.245C54.7867 26.28 54.81 26.3967 54.9267 26.315C55.0433 26.2334 55.0667 26.14 54.8683 26.245ZM54.7517 26.4084C54.67 26.4434 54.67 26.56 54.7983 26.4784C54.915 26.4084 54.95 26.3034 54.7517 26.4084Z" fill="black"/>
<path d="M54.5883 26.49C54.5067 26.525 54.5533 26.63 54.67 26.56C54.7867 26.49 54.7867 26.385 54.5883 26.49ZM54.6817 26.595C54.5883 26.63 54.6467 26.735 54.7633 26.665C54.88 26.595 54.88 26.49 54.67 26.595H54.6817Z" fill="black"/>
<path d="M54.53 26.63C54.46 26.6767 54.5067 26.77 54.635 26.7C54.7517 26.63 54.74 26.525 54.53 26.63ZM54.635 26.7467C54.5417 26.7817 54.5883 26.8867 54.7167 26.8167C54.8333 26.735 54.8333 26.6417 54.6233 26.7467H54.635Z" fill="black"/>
<path d="M54.4833 26.8166C54.4133 26.8516 54.46 26.9566 54.5883 26.8866C54.705 26.8166 54.6817 26.7116 54.495 26.8166H54.4833Z" fill="black"/>
<path d="M54.4833 26.9101C54.425 26.9567 54.4717 27.0734 54.6 26.9917C54.7167 26.9101 54.6933 26.8167 54.4833 26.9101Z" fill="black"/>
<path d="M54.4367 27.9133C54.355 27.9133 54.2967 28.0417 54.4017 28.065C54.5067 28.0883 54.53 28.1 54.53 28.17C54.53 28.24 54.565 28.3683 54.67 28.3683C54.7867 28.3683 54.88 28.2517 54.7867 28.2167C54.6817 28.1817 54.6 28.1467 54.5883 28.0533C54.5883 27.9717 54.495 27.9133 54.4367 27.9133Z" fill="#CF6200"/>
<path d="M57.3417 27.225L57.4 27.295C57.4817 27.3533 57.6333 27.295 57.5983 27.2367C57.5867 27.19 57.505 27.0033 57.715 27.1433L58.7883 27.9017C59.01 28.065 58.8583 28.0883 58.765 28.03L58.1817 27.7617C58.0067 27.6567 57.9833 27.7033 57.9483 27.7267C57.9483 27.7617 57.9483 27.8317 58.0183 27.89C57.9133 27.9017 57.75 27.89 57.6917 27.7733C57.6333 27.6333 57.4933 27.47 57.3883 27.3417C57.3533 27.295 57.3417 27.26 57.3533 27.2367L57.3417 27.225Z" fill="#FFFF00"/>
<path d="M63.2333 46.65C63.0817 46.755 62.8833 46.93 63.0117 47.175L63.0583 47.1634C63.6274 46.4726 64.1313 45.7305 64.5633 44.9467V44.8767C64.4048 45.0069 64.2279 45.1131 64.0383 45.1917C64.1083 45.39 63.77 45.635 63.6067 45.705C63.6767 45.8217 63.6533 46.0084 63.49 46.0434C63.525 46.1367 63.4083 46.1367 63.2567 46.2067C63.1283 46.265 63.0583 46.3 63.0117 46.3817C63.0817 46.335 63.1983 46.3 63.245 46.3234C63.2917 46.3467 63.315 46.4284 63.21 46.4517C63.1167 46.4867 63.0467 46.5334 63 46.5684C63.1517 46.5334 63.3733 46.545 63.2333 46.65Z" fill="#00D860"/>
<path d="M56.21 27.015C56.0233 26.875 55.9767 26.9683 56.0233 27.015C56.07 27.0616 56.0233 27.19 55.895 27.2483H55.4283C55.3467 27.2483 55.2067 27.4233 55.4283 27.365L56.1633 27.2483C56.2567 27.2483 56.35 27.1433 56.1633 27.015H56.21ZM56.525 27.2833C56.3967 27.1433 56.35 27.19 56.3967 27.2833C56.4433 27.3766 56.35 27.4233 56.2567 27.4233L55.615 27.5983C55.44 27.5983 55.44 27.7383 55.6617 27.7383C55.895 27.7383 56.35 27.505 56.3967 27.505C56.4433 27.505 56.49 27.3766 56.525 27.4233C56.5717 27.47 56.665 27.4233 56.525 27.2833ZM56.665 27.645L56.21 27.8783C56.07 27.8783 55.9767 28.0183 56.21 28.0183C56.4433 28.0183 56.6767 27.785 56.7583 27.7383L56.945 27.645C56.945 27.645 57.12 27.5983 56.945 27.47C56.7583 27.33 56.5717 27.47 56.665 27.5166C56.7583 27.5633 56.665 27.645 56.665 27.645Z" fill="black" stroke="black" stroke-width="0.0466667"/>
<path d="M54.7983 24.6817C54.5067 24.4834 54.1917 24.88 54.5067 25.1017C54.7867 25.3 55.09 24.8684 54.81 24.6817H54.7983Z" fill="black"/>
<path d="M54.4367 24.8567H54.5183C54.5183 24.95 54.6 25.09 54.7283 25.055C54.6233 25.1367 54.425 25.0317 54.4367 24.8567ZM55.5567 29.1734C55.65 29.2084 55.9533 29.2317 56.07 29.2317L55.93 29.4884C55.895 29.57 55.8833 29.5817 55.8716 29.4534C55.8716 29.3367 55.8016 29.255 55.7433 29.3834L55.6266 29.6167C55.5916 29.6634 55.545 29.675 55.5567 29.5467C55.58 29.4184 55.5683 29.2784 55.5567 29.1734Z" fill="white"/>
<path d="M67.025 32.6733C67.025 40.105 65.835 48.1316 56.175 51.9583C46.5383 48.1316 45.36 40.105 45.3133 32.6733H67.025ZM67.025 32.6733C67.025 29.8383 66.885 27.0966 66.9317 24.74C63.4998 23.4054 59.8454 22.7363 56.1633 22.7683C53.7483 22.7683 49 23.13 45.4067 24.7283C45.4883 27.0966 45.3133 29.8383 45.3133 32.6616L67.025 32.6733Z" stroke="black" stroke-width="0.14"/>
<path d="M0 9.375H37.3333V37.375H0V9.375Z" fill="#012169"/>
<path d="M4.375 9.375L18.6083 19.9333L32.7833 9.375H37.3333V12.9917L23.3333 23.4333L37.3333 33.8167V37.375H32.6667L18.6667 26.9333L4.725 37.375H0V33.875L13.9417 23.4917L0 13.1083V9.375H4.375Z" fill="white"/>
<path d="M24.7333 25.7667L37.3333 35.0417V37.375L21.525 25.7667H24.7333ZM14 26.9333L14.35 28.975L3.15 37.375H0L14 26.9333ZM37.3333 9.375V9.55L22.8083 20.5167L22.925 17.95L34.4167 9.375H37.3333ZM0 9.375L13.9417 19.6417H10.4417L0 11.825V9.375Z" fill="#C8102E"/>
<path d="M14.0583 9.375V37.375H23.3917V9.375H14.0583ZM0 18.7083V28.0417H37.3333V18.7083H0Z" fill="white"/>
<path d="M0 20.6333V26.2333H37.3333V20.6333H0ZM15.925 9.375V37.375H21.525V9.375H15.925Z" fill="#C8102E"/>
</g>
<defs>
<clipPath id="clip0_1_72292">
<rect width="74.6667" height="56" fill="white" transform="translate(0 9.375)"/>
</clipPath>
</defs>
</svg>
