<svg width="75" height="75" viewBox="0 0 75 75" fill="none" xmlns="http://www.w3.org/2000/svg">
<rect width="74.6667" height="74.75" fill="white"/>
<g clip-path="url(#clip0_1_72288)">
<path fill-rule="evenodd" clip-rule="evenodd" d="M-5.13632 9.375H106.864V65.375H-5.13632V9.375Z" fill="white"/>
<path fill-rule="evenodd" clip-rule="evenodd" d="M-5.13641 46.7047H106.864V65.375H-5.13641V46.7047Z" fill="#D50000"/>
<path fill-rule="evenodd" clip-rule="evenodd" d="M-5.13641 28.0453H106.864V46.7047H-5.13641V28.0453Z" fill="#0000BF"/>
<path fill-rule="evenodd" clip-rule="evenodd" d="M26.6261 19.5469C26.1886 26.2844 25.9261 29.9812 24.9089 31.6875C23.7933 33.525 22.7214 34.8703 18.3792 36.5C14.048 34.8703 12.9761 33.525 11.8605 31.6875C10.8323 29.9812 10.5808 26.2844 10.1433 19.5469L10.7777 19.3281C12.0683 18.9344 13.0308 18.6172 13.7417 18.475C14.7589 18.2562 15.6339 18.0156 18.3683 17.9609C21.1027 18.0047 21.9777 18.2672 22.9948 18.4859C23.6948 18.6391 24.7011 18.9234 25.9808 19.3281L26.6261 19.5469Z" fill="#D50000"/>
<path fill-rule="evenodd" clip-rule="evenodd" d="M25.9917 19.3281C25.5761 26.0547 25.2261 29.1391 24.6792 30.6156C23.6292 33.1531 21.9667 34.5422 18.3792 35.8656C14.7917 34.5422 13.1292 33.1531 12.0683 30.6156C11.5214 29.1281 11.1933 26.0547 10.7776 19.3172C12.0464 18.9234 13.0308 18.6172 13.7417 18.475C14.7589 18.2562 15.6339 18.0047 18.3683 17.9609C21.1026 18.0047 21.9776 18.2562 22.9948 18.475C24.0072 18.7055 25.0075 18.9865 25.9917 19.3172V19.3281Z" fill="#0000BF"/>
<path fill-rule="evenodd" clip-rule="evenodd" d="M18.3792 21.3844L18.5433 21.7891L19.3089 21.8985L18.8167 22.1938L19.287 22.511L18.598 22.6203L18.3792 22.9922L18.1605 22.6094L17.5042 22.5219L17.9417 22.1938L17.4823 21.8985L18.2151 21.7891L18.3792 21.3844Z" fill="#FFDF00"/>
<path fill-rule="evenodd" clip-rule="evenodd" d="M24.4277 29.0188L24.0011 28.6906L23.7058 28.1875L23.1152 27.6735L22.798 27.1594L22.2073 26.6235L21.923 26.1094L21.5948 25.8578L21.398 25.65L20.8511 26.1203L20.5667 26.6344L20.2058 26.9625L19.8011 26.6453L19.5058 26.1203L18.3792 24.1188L17.2527 26.1203L16.9573 26.6453L16.5527 26.9625L16.1917 26.6344L15.8964 26.1203L15.3605 25.65L15.1527 25.8469L14.8355 26.1094L14.5511 26.6235L13.9605 27.1594L13.6433 27.6735L13.0527 28.1875L12.7573 28.6906L12.3308 29.0188C12.5712 30.5243 13.2836 31.9145 14.3652 32.9891C15.5385 33.9933 16.899 34.7553 18.3683 35.2313C19.8487 34.766 21.2184 34.003 22.3933 32.9891C23.0277 32.3328 24.2089 30.8781 24.4277 29.0188Z" fill="white"/>
<path fill-rule="evenodd" clip-rule="evenodd" d="M20.173 18.5516L20.348 18.9563L21.1136 19.0656L20.6105 19.361L21.0917 19.6781L20.4026 19.7875L20.1839 20.1594L19.9651 19.7766L19.3089 19.6891L19.7464 19.361L19.287 19.0656L20.0089 18.9563L20.1839 18.5516H20.173ZM16.5636 18.5516L16.7386 18.9563L17.5042 19.0547L17.012 19.35L17.4823 19.6672L16.7933 19.7766L16.5745 20.1485L16.3558 19.7766L15.6995 19.6781L16.137 19.35L15.6776 19.0547L16.4105 18.9453L16.5745 18.5406L16.5636 18.5516Z" fill="#FFDF00"/>
<path fill-rule="evenodd" clip-rule="evenodd" d="M23.487 31.5781H22.6776L21.912 31.5234L21.0042 31.0859H19.9761L19.0901 31.5234L18.3792 31.589L17.6792 31.5234L16.7933 31.0859H15.7542L14.8355 31.5234L14.0808 31.589L13.2495 31.5781L12.8558 30.9L12.8667 30.8781L14.0917 31.0859L14.8464 31.0312L15.7542 30.5828H16.7823L17.6792 31.0203L18.3792 31.0859L19.0901 31.0203L19.9761 30.5828H21.0042L21.923 31.0203L22.6776 31.0859L23.8589 30.8671L23.8808 30.9109L23.4761 31.5781H23.487ZM14.037 32.6171L14.8464 32.5625L15.7542 32.125H16.7823L17.6792 32.5625L18.3792 32.6171L19.0792 32.5625L19.9761 32.125H21.0042L21.912 32.5625L22.7323 32.6171L23.2573 31.9609H23.2464L22.6776 32.114L21.923 32.0593L21.0151 31.6218H19.987L19.0901 32.0593L18.3901 32.125L17.6792 32.0593L16.7933 31.6218H15.7542L14.8355 32.0593L14.0808 32.125L13.5339 31.9828V32.0046L14.0261 32.6171H14.037Z" fill="#0000BF"/>
</g>
<defs>
<clipPath id="clip0_1_72288">
<rect width="74.6667" height="56" fill="white" transform="translate(0 9.375)"/>
</clipPath>
</defs>
</svg>
