<svg width="75" height="75" viewBox="0 0 75 75" fill="none" xmlns="http://www.w3.org/2000/svg">
<rect width="74.6667" height="74.75" fill="white"/>
<g clip-path="url(#clip0_1_72249)">
<path d="M0 9.375H74.6667V65.375H0V9.375Z" fill="#EE1C25"/>
<path d="M0 9.375H74.6667V46.7083H0V9.375Z" fill="#0B4EA2"/>
<path d="M0 9.375H74.6667V28.0417H0V9.375Z" fill="white"/>
<path d="M27.1833 52.635C22.1666 50.22 14.98 45.4133 14.98 35.9283C14.98 26.4317 15.4466 22.115 15.4466 22.115H38.9316C38.9316 22.115 39.3866 26.4317 39.3866 35.9283C39.3866 45.425 32.2 50.2083 27.1833 52.635Z" fill="white"/>
<path d="M27.1833 51.375C22.575 49.1583 15.9833 44.7483 15.9833 36.045C15.9833 27.3417 16.4033 23.375 16.4033 23.375H37.9633C37.9633 23.375 38.3716 27.3417 38.3716 36.045C38.3833 44.76 31.7916 49.1583 27.1833 51.375Z" fill="#EE1C25"/>
<path d="M28.1633 33.7583C29.4116 33.7817 31.85 33.8283 34.0083 33.105C34.0083 33.105 33.9616 33.8867 33.9616 34.785C33.9616 35.6833 34.02 36.465 34.02 36.465C32.0366 35.8 29.575 35.7883 28.1633 35.8V40.6067H26.2033V35.8C24.8033 35.7883 22.3416 35.8 20.3583 36.465C20.3583 36.465 20.4166 35.6833 20.4166 34.785C20.4166 33.875 20.3583 33.105 20.3583 33.105C22.5166 33.8283 24.955 33.7817 26.1916 33.7583V30.7367C25.06 30.7367 23.4266 30.7833 21.5716 31.4017C21.5716 31.4017 21.63 30.6317 21.63 29.7217C21.63 28.8233 21.5716 28.0417 21.5716 28.0417C23.4266 28.66 25.06 28.7183 26.1916 28.7067C26.1333 26.7933 25.5733 24.39 25.5733 24.39C25.5733 24.39 26.7283 24.4717 27.1833 24.4717C27.65 24.4717 28.7933 24.39 28.7933 24.39C28.7933 24.39 28.2333 26.7933 28.175 28.7067C29.3066 28.7183 30.94 28.66 32.795 28.0417C32.795 28.0417 32.7366 28.8233 32.7366 29.7217C32.7366 30.6317 32.795 31.4017 32.795 31.4017C31.2998 30.9196 29.7337 30.6947 28.1633 30.7367V33.77V33.7583Z" fill="white"/>
<path d="M27.1833 40.0934C24.8616 40.0934 23.625 43.3017 23.625 43.3017C23.625 43.3017 22.925 41.7851 21.035 41.7851C19.7516 41.7851 18.8183 42.9167 18.2116 43.9784C20.545 47.6767 24.2666 49.9634 27.1833 51.3751C30.1 49.9751 33.8333 47.6767 36.155 43.9784C35.5483 42.9284 34.615 41.7851 33.3316 41.7851C31.4416 41.7851 30.7416 43.3017 30.7416 43.3017C30.7416 43.3017 29.5166 40.0934 27.1833 40.0934Z" fill="#0B4EA2"/>
</g>
<defs>
<clipPath id="clip0_1_72249">
<rect width="74.6667" height="56" fill="white" transform="translate(0 9.375)"/>
</clipPath>
</defs>
</svg>
