<svg width="75" height="75" viewBox="0 0 75 75" fill="none" xmlns="http://www.w3.org/2000/svg">
<rect width="74.6667" height="74.75" fill="white"/>
<g clip-path="url(#clip0_1_72255)">
<path fill-rule="evenodd" clip-rule="evenodd" d="M4.05312e-05 37.375H74.6667V65.375H4.05312e-05V37.375Z" fill="#19B6EF"/>
<path fill-rule="evenodd" clip-rule="evenodd" d="M0 9.375H74.6667V37.375H0V9.375Z" fill="white"/>
<path fill-rule="evenodd" clip-rule="evenodd" d="M36.9834 48.9484C43.12 44.375 49.7 35.0417 41.9884 30.1184C40.5534 29.8384 38.955 29.92 38.1734 30.5384C37.765 30.305 37.4384 30.3284 37.03 30.76C36.7384 30.41 36.4467 30.2467 35.8634 30.4217C35.305 30.1216 34.6923 29.936 34.0612 29.8759C33.4301 29.8158 32.7934 29.8824 32.1884 30.0717C25.4334 34.085 29.5634 43.675 36.9834 48.9367V48.9484Z" fill="#FFDD00" stroke="#7D6C00" stroke-width="0.28"/>
<path fill-rule="evenodd" clip-rule="evenodd" d="M48.3 38.5532C48.3 38.5532 49 37.6198 49.0233 37.6198C49.7117 37.2232 49.7817 36.6982 49.7817 36.6982C50.47 36.4882 50.2483 35.9165 50.3067 35.8465C50.4143 35.741 50.4875 35.6055 50.5166 35.4576C50.5458 35.3098 50.5295 35.1566 50.47 35.0182C50.47 34.9248 50.7033 34.0382 50.3767 33.9215C50.3883 32.9882 49.8167 33.0698 49.35 33.6882C48.86 33.8282 48.755 34.2365 48.93 34.6798C48.2883 34.6798 48.265 35.6132 48.4517 36.1265C47.6 36.1032 48.0667 37.0598 48.0433 37.1065C47.7633 37.2465 48.265 38.5998 48.3117 38.5532H48.3ZM42.9333 46.5098L43.3533 46.7665C43.4467 47.0932 43.75 47.3032 43.9717 47.2448C44.0883 47.7465 44.625 47.6765 45.0217 47.3848C45.3367 47.8515 45.7217 47.8515 46.2583 47.6998C46.725 48.0498 47.3433 47.8982 47.7517 47.5365C48.1833 47.8865 48.475 47.6298 48.6967 47.2448C49.0467 47.3382 49.3033 47.2798 49.4317 46.9415C50.0967 46.8832 49.77 46.2532 49.2217 45.9848C49.6533 45.6115 50.1433 44.8182 49.455 44.7015C49.245 44.5498 48.8367 44.5848 48.5333 44.7248C48.4517 44.3748 47.9733 44.2932 47.4367 44.6782C47.2617 44.2932 46.62 44.4798 46.3283 44.7482C45.9433 44.4215 45.4883 44.4215 44.8233 44.7948L42.9333 46.5098ZM42.9333 45.4948C43.0033 45.0515 42.7 44.2582 43.1667 44.1882C43.085 43.4532 43.2017 42.6365 44.0417 42.7065C44.1817 42.0182 44.1583 41.3765 44.9517 41.2832C44.9517 41.2832 45.5933 39.0548 46.2583 40.5948C46.515 41.0498 46.4683 41.7848 45.9433 41.6448C46.0483 42.1932 45.8617 42.6832 45.255 42.6598C45.5233 43.0565 45.4417 43.5815 45.1383 43.8265L42.9217 45.4948H42.9333ZM46.795 42.7065L47.495 42.5665C48.195 42.0998 48.4867 41.9015 48.8367 42.4265C49.4317 42.3098 50.0033 42.3565 49.98 42.8232C50.68 42.8815 50.68 43.3248 50.5983 43.6865C50.715 44.3048 50.435 45.1215 50.015 44.1298C48.6267 43.2898 47.845 43.4065 45.6633 43.8965L46.795 42.7065ZM47.1567 42.0182C47.18 41.9948 49.1983 41.4698 48.9883 40.8515C49.56 40.7582 49.6767 40.1865 49.6883 40.1865C50.89 39.8132 50.82 39.1248 50.82 39.1248C51.1583 38.7632 51.7533 38.3898 51.625 37.7482C51.66 37.0132 51.73 36.5582 50.7383 37.0365C50.0033 36.9665 49.7467 37.3865 49.5367 38.0282C49.1867 37.6198 48.6267 38.2732 48.5567 38.8565C48.5567 38.8565 47.6583 39.7432 47.6583 39.7665L46.9 41.1665L47.1567 42.0182Z" fill="#4FD46B" stroke="#3A9D4F" stroke-width="0.28" stroke-linejoin="round"/>
<path fill-rule="evenodd" clip-rule="evenodd" d="M47.1917 40.4549C46.7133 40.0933 46.445 39.6499 46.5267 39.2183C46.2117 38.7866 45.99 38.5299 46.2933 38.1449L46.06 37.2699C45.43 37.0366 45.6983 36.5116 45.8617 36.3249C45.57 35.9166 45.5583 35.4849 45.8383 35.1116C45.8383 34.3533 46.375 34.6449 46.8067 35.1116C46.8067 35.1116 47.5533 35.6366 47.005 36.1033C47.5533 36.3016 47.705 36.7683 47.4017 36.9666C47.88 37.1766 47.95 37.6083 47.6933 37.8999C48.1717 38.2733 47.9967 38.7633 48.1367 39.1949L47.1917 40.4549Z" fill="#4FD46B" stroke="#3A9D4F" stroke-width="0.28" stroke-linejoin="round"/>
<path fill-rule="evenodd" clip-rule="evenodd" d="M48.0433 36.9082C48.02 36.8966 47.2383 35.8932 47.46 35.8232C47.4017 35.5199 47.1683 35.1816 47.3083 34.8782C46.9233 34.4816 46.9117 34.0266 47.215 33.6649C46.9583 33.3149 47.075 32.8366 47.425 32.5216C47.3083 31.9382 47.7283 31.7982 48.09 31.6932C48.3583 30.7599 48.79 30.9932 49.0467 31.7166C49.42 32.0432 49.3617 32.5332 49.2333 32.9066C49.6767 33.1982 49.4083 33.5716 49.21 33.7232L48.0433 36.9199V36.9082Z" fill="#4FD46B" stroke="#3A9D4F" stroke-width="0.28" stroke-linejoin="round"/>
<path fill-rule="evenodd" clip-rule="evenodd" d="M47.9267 31.9032L47.2617 31.2382C47.4367 30.8882 47.5767 30.2699 47.075 29.9782C46.795 29.3132 45.4183 28.4732 45.1967 30.0715C44.9867 29.5932 44.5433 29.1149 44.2283 29.6749C43.505 29.0565 43.12 29.2432 43.4933 30.0249C43.4933 30.0249 43.155 30.5499 44.03 30.9582C44.1 31.0282 43.75 31.9032 44.8 31.9265C44.6017 32.2299 44.9167 32.6499 45.3367 32.6265C45.045 32.9882 45.5467 33.3849 45.8617 33.2332C45.7333 33.6415 45.745 33.8398 46.3167 33.8982L46.9583 34.6332L47.4833 35.3449L47.9267 31.9032Z" fill="#4FD46B" stroke="#3A9D4F" stroke-width="0.28" stroke-linejoin="round"/>
<path d="M48.335 38.1333C48.37 38.0983 49.6183 35.2399 49.7817 34.3766M48.4633 33.0583C48.4633 33.0583 48.6733 35.3916 48.1017 37.0949M44.6367 30.7133C44.6367 30.7133 47.1917 33.1633 47.4367 34.1783M46.4217 30.4449C46.4217 30.4449 46.585 32.4633 47.2967 34.4466M50.9133 37.7599C50.9133 37.7599 48.37 39.9183 47.1333 41.8083M48.51 45.3083C48.51 45.3083 45.15 45.7749 43.68 45.8099M47.4133 46.7433C47.4133 46.7433 43.2367 46.6499 42.9333 46.3466M45.325 41.3299C45.325 41.3766 43.2017 44.8649 43.1317 45.9966" stroke="#3A9D4F" stroke-width="0.256667" stroke-linecap="round"/>
<path fill-rule="evenodd" clip-rule="evenodd" d="M36.9717 48.2717C32.5617 44.1183 28.0467 36.325 32.5384 32.3817C33.3317 32.825 34.2767 32.4283 35.5717 31.915C35.9684 32.3467 36.47 32.4517 36.9717 32.125C37.1779 32.2264 37.4117 32.2573 37.6372 32.2131C37.8627 32.1688 38.0674 32.0518 38.22 31.88C39.5034 32.615 41.125 33 41.51 32.265C45.92 36.465 41.44 44.305 36.96 48.2833L36.9717 48.2717Z" fill="#65C7FF" stroke="#7D6C00" stroke-width="0.28"/>
<path fill-rule="evenodd" clip-rule="evenodd" d="M36.9834 48.155C34.9713 46.2092 33.3028 43.9372 32.0484 41.435C32.2817 41.2367 32.3867 41.1784 32.5034 40.8517C33.18 40.945 33.5417 40.9684 34.4284 40.805C34.615 41.4817 34.65 42.0417 35.07 42.6017L35.9684 40.8517C36.6001 41.0117 37.2617 41.0117 37.8934 40.8517C38.2667 41.3417 38.1267 42.1 38.7917 42.6717C39.1884 41.505 39.5734 41.435 39.97 40.805C40.5534 41.015 40.9267 40.9217 41.405 40.77C41.6384 41.0617 41.5217 41.05 41.9884 41.47C40.7533 43.989 39.06 46.2559 36.995 48.155H36.9834Z" fill="#8FC753"/>
<path fill-rule="evenodd" clip-rule="evenodd" d="M31.8034 28.5434C31.8133 28.6004 31.8106 28.6588 31.7955 28.7146C31.7804 28.7705 31.7533 28.8223 31.716 28.8666C31.6788 28.9108 31.6323 28.9464 31.5799 28.9708C31.5275 28.9952 31.4704 29.0078 31.4125 29.0078C31.3547 29.0078 31.2976 28.9952 31.2452 28.9708C31.1927 28.9464 31.1463 28.9108 31.109 28.8666C31.0718 28.8223 31.0447 28.7705 31.0296 28.7146C31.0145 28.6588 31.0118 28.6004 31.0217 28.5434C31.0217 28.4382 31.0635 28.3373 31.1379 28.2629C31.2123 28.1885 31.3132 28.1467 31.4184 28.1467C31.5236 28.1467 31.6245 28.1885 31.6989 28.2629C31.7732 28.3373 31.815 28.4382 31.815 28.5434H31.8034ZM31.395 27.6451C31.4095 27.7035 31.4105 27.7645 31.398 27.8234C31.3854 27.8823 31.3596 27.9375 31.3225 27.985C31.2854 28.0324 31.238 28.0707 31.1838 28.0971C31.1297 28.1235 31.0703 28.1372 31.01 28.1372C30.9498 28.1372 30.8904 28.1235 30.8363 28.0971C30.7821 28.0707 30.7347 28.0324 30.6976 27.985C30.6605 27.9375 30.6347 27.8823 30.6221 27.8234C30.6095 27.7645 30.6105 27.7035 30.625 27.6451C30.641 27.553 30.689 27.4695 30.7605 27.4093C30.832 27.3492 30.9224 27.3162 31.0159 27.3162C31.1093 27.3162 31.1998 27.3492 31.2713 27.4093C31.3428 27.4695 31.3907 27.553 31.4067 27.6451H31.395ZM30.9284 26.8167C30.9383 26.8737 30.9356 26.9322 30.9205 26.988C30.9054 27.0438 30.8783 27.0957 30.841 27.1399C30.8038 27.1842 30.7573 27.2197 30.7049 27.2441C30.6525 27.2685 30.5954 27.2812 30.5375 27.2812C30.4797 27.2812 30.4226 27.2685 30.3702 27.2441C30.3177 27.2197 30.2713 27.1842 30.234 27.1399C30.1968 27.0957 30.1697 27.0438 30.1546 26.988C30.1395 26.9322 30.1368 26.8737 30.1467 26.8167C30.1627 26.7247 30.2106 26.6412 30.2821 26.581C30.3536 26.5208 30.4441 26.4878 30.5375 26.4878C30.631 26.4878 30.7214 26.5208 30.7929 26.581C30.8644 26.6412 30.9124 26.7247 30.9284 26.8167ZM30.6017 26.0001C30.6116 26.057 30.6089 26.1155 30.5938 26.1713C30.5787 26.2271 30.5516 26.279 30.5144 26.3232C30.4771 26.3675 30.4307 26.4031 30.3783 26.4275C30.3258 26.4519 30.2687 26.4645 30.2109 26.4645C30.153 26.4645 30.0959 26.4519 30.0435 26.4275C29.9911 26.4031 29.9446 26.3675 29.9074 26.3232C29.8701 26.279 29.843 26.2271 29.8279 26.1713C29.8129 26.1155 29.8102 26.057 29.82 26.0001C29.836 25.908 29.884 25.8245 29.9555 25.7643C30.027 25.7042 30.1174 25.6712 30.2109 25.6712C30.3043 25.6712 30.3948 25.7042 30.4663 25.7643C30.5378 25.8245 30.5857 25.908 30.6017 26.0001ZM30.66 25.1134C30.6699 25.1704 30.6672 25.2288 30.6521 25.2846C30.6371 25.3405 30.6099 25.3923 30.5727 25.4366C30.5355 25.4808 30.489 25.5164 30.4366 25.5408C30.3842 25.5652 30.327 25.5778 30.2692 25.5778C30.2114 25.5778 30.1542 25.5652 30.1018 25.5408C30.0494 25.5164 30.0029 25.4808 29.9657 25.4366C29.9285 25.3923 29.9014 25.3405 29.8863 25.2846C29.8712 25.2288 29.8685 25.1704 29.8784 25.1134C29.8943 25.0213 29.9423 24.9378 30.0138 24.8777C30.0853 24.8175 30.1758 24.7845 30.2692 24.7845C30.3627 24.7845 30.4531 24.8175 30.5246 24.8777C30.5961 24.9378 30.6441 25.0213 30.66 25.1134ZM32.7134 23.6551C32.7233 23.712 32.7206 23.7705 32.7055 23.8263C32.6904 23.8821 32.6633 23.934 32.626 23.9782C32.5888 24.0225 32.5424 24.0581 32.4899 24.0825C32.4375 24.1069 32.3804 24.1195 32.3225 24.1195C32.2647 24.1195 32.2076 24.1069 32.1552 24.0825C32.1027 24.0581 32.0563 24.0225 32.019 23.9782C31.9818 23.934 31.9547 23.8821 31.9396 23.8263C31.9245 23.7705 31.9218 23.712 31.9317 23.6551C31.9477 23.563 31.9956 23.4795 32.0671 23.4193C32.1386 23.3592 32.2291 23.3262 32.3225 23.3262C32.416 23.3262 32.5064 23.3592 32.5779 23.4193C32.6494 23.4795 32.6974 23.563 32.7134 23.6551Z" fill="white" stroke="black" stroke-width="0.128333"/>
<path fill-rule="evenodd" clip-rule="evenodd" d="M31.9434 23.795C31.9533 23.852 31.9506 23.9104 31.9355 23.9662C31.9204 24.0221 31.8933 24.0739 31.856 24.1182C31.8188 24.1624 31.7724 24.198 31.7199 24.2224C31.6675 24.2468 31.6104 24.2594 31.5525 24.2594C31.4947 24.2594 31.4376 24.2468 31.3852 24.2224C31.3327 24.198 31.2863 24.1624 31.249 24.1182C31.2118 24.0739 31.1847 24.0221 31.1696 23.9662C31.1545 23.9104 31.1518 23.852 31.1617 23.795C31.1777 23.7029 31.2256 23.6194 31.2971 23.5593C31.3686 23.4991 31.4591 23.4661 31.5525 23.4661C31.646 23.4661 31.7364 23.4991 31.8079 23.5593C31.8794 23.6194 31.9274 23.7029 31.9434 23.795ZM31.0917 24.2966C31.1016 24.3536 31.0989 24.4121 31.0838 24.4679C31.0687 24.5237 31.0416 24.5756 31.0044 24.6198C30.9671 24.6641 30.9207 24.6996 30.8683 24.724C30.8158 24.7484 30.7587 24.7611 30.7009 24.7611C30.643 24.7611 30.5859 24.7484 30.5335 24.724C30.4811 24.6996 30.4346 24.6641 30.3974 24.6198C30.3601 24.5756 30.333 24.5237 30.3179 24.4679C30.3029 24.4121 30.3002 24.3536 30.31 24.2966C30.326 24.2046 30.374 24.1211 30.4455 24.0609C30.517 24.0008 30.6074 23.9678 30.7009 23.9678C30.7943 23.9678 30.8848 24.0008 30.9563 24.0609C31.0278 24.1211 31.0757 24.2046 31.0917 24.2966ZM33.705 23.6666C33.7195 23.7251 33.7205 23.7861 33.708 23.845C33.6954 23.9039 33.6696 23.9591 33.6325 24.0065C33.5954 24.054 33.548 24.0923 33.4938 24.1187C33.4397 24.1451 33.3803 24.1588 33.32 24.1588C33.2598 24.1588 33.2004 24.1451 33.1463 24.1187C33.0921 24.0923 33.0447 24.054 33.0076 24.0065C32.9705 23.9591 32.9447 23.9039 32.9321 23.845C32.9195 23.7861 32.9205 23.7251 32.935 23.6666C32.9564 23.5807 33.0059 23.5043 33.0756 23.4497C33.1454 23.3951 33.2315 23.3655 33.32 23.3655C33.4086 23.3655 33.4947 23.3951 33.5644 23.4497C33.6342 23.5043 33.6837 23.5807 33.705 23.6666ZM34.8017 23.76C34.8116 23.817 34.8089 23.8754 34.7938 23.9312C34.7787 23.9871 34.7516 24.0389 34.7144 24.0832C34.6771 24.1274 34.6307 24.163 34.5783 24.1874C34.5258 24.2118 34.4687 24.2244 34.4109 24.2244C34.353 24.2244 34.2959 24.2118 34.2435 24.1874C34.1911 24.163 34.1446 24.1274 34.1074 24.0832C34.0701 24.0389 34.043 23.9871 34.0279 23.9312C34.0129 23.8754 34.0102 23.817 34.02 23.76C34.036 23.6679 34.084 23.5844 34.1555 23.5243C34.227 23.4641 34.3174 23.4311 34.4109 23.4311C34.5043 23.4311 34.5948 23.4641 34.6663 23.5243C34.7378 23.5844 34.7857 23.6679 34.8017 23.76ZM35.7584 23.7016C35.7729 23.7601 35.7739 23.8211 35.7613 23.88C35.7487 23.9389 35.7229 23.9941 35.6858 24.0415C35.6487 24.089 35.6013 24.1273 35.5472 24.1537C35.493 24.1801 35.4336 24.1938 35.3734 24.1938C35.3132 24.1938 35.2537 24.1801 35.1996 24.1537C35.1455 24.1273 35.098 24.089 35.0609 24.0415C35.0238 23.9941 34.998 23.9389 34.9855 23.88C34.9729 23.8211 34.9739 23.7601 34.9884 23.7016C35.0043 23.6096 35.0523 23.5261 35.1238 23.4659C35.1953 23.4058 35.2858 23.3728 35.3792 23.3728C35.4727 23.3728 35.5631 23.4058 35.6346 23.4659C35.7061 23.5261 35.7541 23.6096 35.77 23.7016H35.7584Z" fill="white" stroke="black" stroke-width="0.128333"/>
<path fill-rule="evenodd" clip-rule="evenodd" d="M38.0217 23.0833C38.0217 23.3494 37.916 23.6046 37.7278 23.7928C37.5397 23.9809 37.2845 24.0866 37.0184 24.0866C36.7523 24.0866 36.4971 23.9809 36.3089 23.7928C36.1207 23.6046 36.015 23.3494 36.015 23.0833C36.015 22.8172 36.1207 22.562 36.3089 22.3738C36.4971 22.1857 36.7523 22.08 37.0184 22.08C37.2845 22.08 37.5397 22.1857 37.7278 22.3738C37.916 22.562 38.0217 22.8172 38.0217 23.0833Z" fill="#FFDD00" stroke="#7D6C00" stroke-width="0.128333"/>
<path fill-rule="evenodd" clip-rule="evenodd" d="M39.0834 23.69C39.0834 23.7952 39.0416 23.8961 38.9672 23.9705C38.8928 24.0448 38.7919 24.0866 38.6867 24.0866C38.5815 24.0866 38.4806 24.0448 38.4062 23.9705C38.3318 23.8961 38.29 23.7952 38.29 23.69C38.306 23.5979 38.354 23.5144 38.4255 23.4542C38.497 23.3941 38.5874 23.3611 38.6809 23.3611C38.7743 23.3611 38.8648 23.3941 38.9363 23.4542C39.0078 23.5144 39.0557 23.5979 39.0717 23.69H39.0834ZM40.0867 23.7716C40.1012 23.8301 40.1022 23.8911 40.0896 23.95C40.0771 24.0089 40.0512 24.0641 40.0141 24.1115C39.977 24.159 39.9296 24.1973 39.8755 24.2237C39.8214 24.2501 39.7619 24.2638 39.7017 24.2638C39.6415 24.2638 39.5821 24.2501 39.5279 24.2237C39.4738 24.1973 39.4264 24.159 39.3893 24.1115C39.3522 24.0641 39.3264 24.0089 39.3138 23.95C39.3012 23.8911 39.3022 23.8301 39.3167 23.7716C39.3327 23.6796 39.3806 23.5961 39.4521 23.5359C39.5236 23.4757 39.6141 23.4428 39.7075 23.4428C39.801 23.4428 39.8914 23.4757 39.9629 23.5359C40.0344 23.5961 40.0824 23.6796 40.0984 23.7716H40.0867ZM41.0784 23.725C41.0883 23.782 41.0856 23.8404 41.0705 23.8962C41.0554 23.9521 41.0283 24.0039 40.991 24.0482C40.9538 24.0924 40.9074 24.128 40.8549 24.1524C40.8025 24.1768 40.7454 24.1894 40.6875 24.1894C40.6297 24.1894 40.5726 24.1768 40.5202 24.1524C40.4677 24.128 40.4213 24.0924 40.384 24.0482C40.3468 24.0039 40.3197 23.9521 40.3046 23.8962C40.2895 23.8404 40.2868 23.782 40.2967 23.725C40.3127 23.6329 40.3606 23.5494 40.4321 23.4892C40.5036 23.4291 40.5941 23.3961 40.6875 23.3961C40.781 23.3961 40.8714 23.4291 40.9429 23.4892C41.0144 23.5494 41.0624 23.6329 41.0784 23.725ZM41.9067 23.69C41.9166 23.747 41.9139 23.8054 41.8988 23.8612C41.8837 23.9171 41.8566 23.9689 41.8194 24.0132C41.7821 24.0574 41.7357 24.093 41.6833 24.1174C41.6308 24.1418 41.5737 24.1544 41.5159 24.1544C41.458 24.1544 41.4009 24.1418 41.3485 24.1174C41.2961 24.093 41.2496 24.0574 41.2124 24.0132C41.1751 23.9689 41.148 23.9171 41.1329 23.8612C41.1179 23.8054 41.1152 23.747 41.125 23.69C41.141 23.5979 41.189 23.5144 41.2605 23.4542C41.332 23.3941 41.4224 23.3611 41.5159 23.3611C41.6093 23.3611 41.6998 23.3941 41.7713 23.4542C41.8428 23.5144 41.8907 23.5979 41.9067 23.69ZM42.945 23.8066C42.9549 23.8636 42.9522 23.9221 42.9371 23.9779C42.9221 24.0337 42.8949 24.0856 42.8577 24.1298C42.8205 24.1741 42.774 24.2096 42.7216 24.234C42.6692 24.2584 42.612 24.2711 42.5542 24.2711C42.4964 24.2711 42.4393 24.2584 42.3868 24.234C42.3344 24.2096 42.2879 24.1741 42.2507 24.1298C42.2135 24.0856 42.1864 24.0337 42.1713 23.9779C42.1562 23.9221 42.1535 23.8636 42.1634 23.8066C42.1793 23.7146 42.2273 23.6311 42.2988 23.5709C42.3703 23.5107 42.4608 23.4778 42.5542 23.4778C42.6477 23.4778 42.7381 23.5107 42.8096 23.5709C42.8811 23.6311 42.9291 23.7146 42.945 23.8066ZM43.7617 24.32C43.7716 24.377 43.7689 24.4354 43.7538 24.4912C43.7387 24.5471 43.7116 24.5989 43.6744 24.6432C43.6371 24.6874 43.5907 24.723 43.5383 24.7474C43.4858 24.7718 43.4287 24.7844 43.3709 24.7844C43.313 24.7844 43.2559 24.7718 43.2035 24.7474C43.1511 24.723 43.1046 24.6874 43.0674 24.6432C43.0301 24.5989 43.003 24.5471 42.9879 24.4912C42.9729 24.4354 42.9702 24.377 42.98 24.32C42.996 24.2279 43.044 24.1444 43.1155 24.0842C43.187 24.0241 43.2774 23.9911 43.3709 23.9911C43.4643 23.9911 43.5548 24.0241 43.6263 24.0842C43.6978 24.1444 43.7457 24.2279 43.7617 24.32Z" fill="white" stroke="black" stroke-width="0.128333"/>
<path fill-rule="evenodd" clip-rule="evenodd" d="M31.43 27.0733L32.4334 28.9983H41.6734L42.7467 27.1433C42.1167 26.7116 41.6967 26.385 40.7984 26.5833C40.2967 25.86 39.7484 25.7316 38.9317 25.8016C38.6867 25.5566 38.465 25.405 38.045 25.335L36.1084 25.3933C35.595 25.44 35.1984 25.8366 35.175 25.8366C34.3584 25.7316 33.6 25.755 33.4017 26.56C32.6434 26.3733 32.1184 26.5833 31.43 27.0733Z" fill="#E40000" stroke="#AC0000" stroke-width="0.28"/>
<path fill-rule="evenodd" clip-rule="evenodd" d="M44.1 25.1599C44.1099 25.2169 44.1072 25.2754 44.0921 25.3312C44.0771 25.387 44.0499 25.4389 44.0127 25.4831C43.9755 25.5274 43.929 25.5629 43.8766 25.5873C43.8242 25.6117 43.767 25.6244 43.7092 25.6244C43.6514 25.6244 43.5942 25.6117 43.5418 25.5873C43.4894 25.5629 43.4429 25.5274 43.4057 25.4831C43.3685 25.4389 43.3414 25.387 43.3263 25.3312C43.3112 25.2754 43.3085 25.2169 43.3184 25.1599C43.3343 25.0679 43.3823 24.9844 43.4538 24.9242C43.5253 24.864 43.6158 24.8311 43.7092 24.8311C43.8027 24.8311 43.8931 24.864 43.9646 24.9242C44.0361 24.9844 44.0841 25.0679 44.1 25.1599ZM44.17 26.0933C44.1799 26.1503 44.1772 26.2087 44.1621 26.2645C44.1471 26.3204 44.1199 26.3722 44.0827 26.4165C44.0455 26.4607 43.999 26.4963 43.9466 26.5207C43.8942 26.5451 43.837 26.5577 43.7792 26.5577C43.7214 26.5577 43.6642 26.5451 43.6118 26.5207C43.5594 26.4963 43.5129 26.4607 43.4757 26.4165C43.4385 26.3722 43.4114 26.3204 43.3963 26.2645C43.3812 26.2087 43.3785 26.1503 43.3884 26.0933C43.4043 26.0012 43.4523 25.9177 43.5238 25.8576C43.5953 25.7974 43.6858 25.7644 43.7792 25.7644C43.8727 25.7644 43.9631 25.7974 44.0346 25.8576C44.1061 25.9177 44.1541 26.0012 44.17 26.0933ZM43.8784 26.9333C43.8883 26.9903 43.8856 27.0487 43.8705 27.1045C43.8554 27.1604 43.8283 27.2122 43.791 27.2565C43.7538 27.3007 43.7074 27.3363 43.6549 27.3607C43.6025 27.3851 43.5454 27.3977 43.4875 27.3977C43.4297 27.3977 43.3726 27.3851 43.3202 27.3607C43.2677 27.3363 43.2213 27.3007 43.184 27.2565C43.1468 27.2122 43.1197 27.1604 43.1046 27.1045C43.0895 27.0487 43.0868 26.9903 43.0967 26.9333C43.1127 26.8412 43.1606 26.7577 43.2321 26.6976C43.3036 26.6374 43.3941 26.6044 43.4875 26.6044C43.581 26.6044 43.6714 26.6374 43.7429 26.6976C43.8144 26.7577 43.8624 26.8412 43.8784 26.9333ZM43.5284 27.6333C43.5284 27.7385 43.4866 27.8394 43.4122 27.9138C43.3378 27.9882 43.2369 28.0299 43.1317 28.0299C43.0265 28.0299 42.9256 27.9882 42.8512 27.9138C42.7768 27.8394 42.735 27.7385 42.735 27.6333C42.751 27.5412 42.799 27.4577 42.8705 27.3976C42.942 27.3374 43.0324 27.3044 43.1259 27.3044C43.2193 27.3044 43.3098 27.3374 43.3813 27.3976C43.4528 27.4577 43.5007 27.5412 43.5167 27.6333H43.5284ZM43.0967 28.5083C43.1066 28.5653 43.1039 28.6237 43.0888 28.6795C43.0737 28.7354 43.0466 28.7872 43.0094 28.8315C42.9721 28.8757 42.9257 28.9113 42.8733 28.9357C42.8208 28.9601 42.7637 28.9727 42.7059 28.9727C42.648 28.9727 42.5909 28.9601 42.5385 28.9357C42.4861 28.9113 42.4396 28.8757 42.4024 28.8315C42.3651 28.7872 42.338 28.7354 42.3229 28.6795C42.3079 28.6237 42.3052 28.5653 42.315 28.5083C42.331 28.4162 42.379 28.3327 42.4505 28.2726C42.522 28.2124 42.6124 28.1794 42.7059 28.1794C42.7993 28.1794 42.8898 28.2124 42.9613 28.2726C43.0328 28.3327 43.0807 28.4162 43.0967 28.5083ZM37.6367 27.3883C37.6367 27.543 37.5752 27.6914 37.4659 27.8008C37.3565 27.9102 37.2081 27.9716 37.0534 27.9716C36.8987 27.9716 36.7503 27.9102 36.6409 27.8008C36.5315 27.6914 36.47 27.543 36.47 27.3883C36.47 27.2336 36.5315 27.0852 36.6409 26.9758C36.7503 26.8664 36.8987 26.8049 37.0534 26.8049C37.2081 26.8049 37.3565 26.8664 37.4659 26.9758C37.5752 27.0852 37.6367 27.2336 37.6367 27.3883Z" fill="white" stroke="black" stroke-width="0.128333"/>
<path fill-rule="evenodd" clip-rule="evenodd" d="M37.7534 26.0583C37.7534 26.2439 37.6796 26.422 37.5483 26.5533C37.4171 26.6845 37.239 26.7583 37.0534 26.7583C36.8677 26.7583 36.6897 26.6845 36.5584 26.5533C36.4271 26.422 36.3534 26.2439 36.3534 26.0583C36.3534 25.8726 36.4271 25.6946 36.5584 25.5633C36.6897 25.432 36.8677 25.3583 37.0534 25.3583C37.239 25.3583 37.4171 25.432 37.5483 25.5633C37.6796 25.6946 37.7534 25.8726 37.7534 26.0583Z" fill="white" stroke="black" stroke-width="0.128333"/>
<path fill-rule="evenodd" clip-rule="evenodd" d="M37.6484 24.775C37.6484 24.9421 37.582 25.1023 37.4639 25.2205C37.3457 25.3386 37.1855 25.405 37.0184 25.405C36.8513 25.405 36.6911 25.3386 36.5729 25.2205C36.4548 25.1023 36.3884 24.9421 36.3884 24.775C36.3884 24.6079 36.4548 24.4477 36.5729 24.3295C36.6911 24.2114 36.8513 24.145 37.0184 24.145C37.1855 24.145 37.3457 24.2114 37.4639 24.3295C37.582 24.4477 37.6484 24.6079 37.6484 24.775Z" fill="white" stroke="black" stroke-width="0.128333"/>
<path fill-rule="evenodd" clip-rule="evenodd" d="M36.8084 22.0917V21.6017L36.3884 21.59L36.4117 21.2167H36.7617V20.89H37.2867V21.1817H37.695L37.6834 21.5783H37.2634V22.1033H36.7967L36.8084 22.0917Z" fill="#FFDD00" stroke="#7D6C00" stroke-width="0.128333"/>
<path d="M32.3867 28.9983C31.5584 27.5983 30.3334 25.685 31.1034 24.8567C32.1417 23.6783 34.5917 24.74 36.155 24.0633C36.2717 25.3933 35.8984 27.61 36.4934 28.065L35.9334 28.555C35.5834 28.1233 34.9534 27.5283 34.16 28.5783C33.6934 28.1817 33.1917 28.2517 32.9467 28.7767C32.7134 28.8117 32.725 28.905 32.3867 28.9983V28.9983ZM41.72 28.94C42.56 27.54 43.7734 25.6383 43.015 24.81C41.965 23.6317 39.515 24.6933 37.9634 24.005C37.8467 25.3467 38.22 27.5633 37.6134 28.0183L38.1734 28.5083C38.7217 27.75 39.3867 27.7267 39.9584 28.5317C40.4134 28.135 40.88 28.1817 41.1717 28.73C41.405 28.765 41.3817 28.8467 41.7317 28.94H41.72Z" stroke="#FFDD00" stroke-width="0.385"/>
<path fill-rule="evenodd" clip-rule="evenodd" d="M32.3517 30.0366C35.4292 29.7563 38.5259 29.7563 41.6034 30.0366L41.965 28.9866C38.7334 28.4033 36.505 28.3333 32.2817 28.9166L32.3517 30.0366Z" fill="#FFDD00" stroke="#7D6C00" stroke-width="0.28"/>
<path fill-rule="evenodd" clip-rule="evenodd" d="M36.645 47.805L36.715 47.315C37.0534 47.4084 37.2984 47.3734 37.5784 47.2684L37.8584 46.8367L37.6484 46.5917C37.4617 46.6267 37.2984 46.8017 37.1817 46.9534C36.995 46.965 36.8317 46.8717 36.645 46.8367L36.47 46.09C36.295 45.88 35.9217 45.8917 36.0034 46.265L36.0384 46.5567C36.1084 46.7317 36.1434 46.9767 36.26 47.105V47.4084L36.645 47.805ZM36.785 45.67C36.5517 45.7867 36.2484 45.5767 35.9334 45.4484C35.6417 45.4367 35.42 45.6817 35.07 45.6C35.14 45.4134 35.2917 45.3784 35.3967 45.2734C35.315 44.795 35.5717 44.6317 35.6417 44.6317C35.7117 44.6317 36.0034 44.7017 36.0034 44.7017L36.2834 44.7367C36.4584 45.0517 36.6917 45.32 36.785 45.67Z" fill="#C76E2E"/>
<path fill-rule="evenodd" clip-rule="evenodd" d="M35.0934 52.075C35.91 50.745 41.65 48.0617 47.04 42.2517C41.5567 47.5367 38.1267 48.8317 33.6467 52.0517L35.0934 52.0867V52.075Z" fill="#FFE100" stroke="#E9BF00" stroke-width="0.28"/>
<path fill-rule="evenodd" clip-rule="evenodd" d="M42.98 45.9149C42.98 46.0263 42.9358 46.1332 42.857 46.2119C42.7783 46.2907 42.6714 46.3349 42.56 46.3349C42.4486 46.3349 42.3418 46.2907 42.263 46.2119C42.1843 46.1332 42.14 46.0263 42.14 45.9149C42.14 45.8035 42.1843 45.6967 42.263 45.618C42.3418 45.5392 42.4486 45.4949 42.56 45.4949C42.6714 45.4949 42.7783 45.5392 42.857 45.618C42.9358 45.6967 42.98 45.8035 42.98 45.9149ZM46.9934 41.8433C46.9934 41.9686 46.9436 42.0888 46.855 42.1774C46.7664 42.266 46.6462 42.3158 46.5209 42.3158C46.3956 42.3158 46.2754 42.266 46.1868 42.1774C46.0981 42.0888 46.0484 41.9686 46.0484 41.8433C46.0484 41.7195 46.0975 41.6008 46.1851 41.5133C46.2726 41.4258 46.3913 41.3766 46.515 41.3766C46.6388 41.3766 46.7575 41.4258 46.845 41.5133C46.9325 41.6008 46.9817 41.7195 46.9817 41.8433H46.9934ZM48.3234 38.3899C48.3335 38.4501 48.3304 38.5118 48.3143 38.5707C48.2981 38.6296 48.2693 38.6843 48.2299 38.7309C48.1905 38.7775 48.1414 38.815 48.086 38.8407C48.0306 38.8664 47.9703 38.8797 47.9092 38.8797C47.8481 38.8797 47.7878 38.8664 47.7324 38.8407C47.677 38.815 47.6279 38.7775 47.5885 38.7309C47.5491 38.6843 47.5203 38.6296 47.5041 38.5707C47.488 38.5118 47.4849 38.4501 47.495 38.3899C47.5115 38.292 47.5622 38.2031 47.638 38.139C47.7138 38.0749 47.8099 38.0397 47.9092 38.0397C48.0085 38.0397 48.1046 38.0749 48.1804 38.139C48.2562 38.2031 48.3069 38.292 48.3234 38.3899ZM47.0167 33.9099C47.0268 33.9701 47.0237 34.0318 47.0076 34.0907C46.9914 34.1496 46.9627 34.2043 46.9232 34.2509C46.8838 34.2975 46.8347 34.335 46.7793 34.3607C46.7239 34.3864 46.6636 34.3997 46.6025 34.3997C46.5415 34.3997 46.4812 34.3864 46.4258 34.3607C46.3704 34.335 46.3213 34.2975 46.2818 34.2509C46.2424 34.2043 46.2136 34.1496 46.1975 34.0907C46.1813 34.0318 46.1782 33.9701 46.1884 33.9099C46.2049 33.812 46.2555 33.7231 46.3313 33.659C46.4071 33.5949 46.5032 33.5597 46.6025 33.5597C46.7018 33.5597 46.7979 33.5949 46.8737 33.659C46.9496 33.7231 47.0002 33.812 47.0167 33.9099Z" fill="#9D4916" stroke="#68300E" stroke-width="0.128333"/>
<path fill-rule="evenodd" clip-rule="evenodd" d="M32.5617 40.8283V39.055L32.3867 38.915V38.495L32.7134 38.46L32.7717 36.4767L32.5617 36.36L32.5384 36.0333C32.5384 36.0333 32.7717 36.1267 32.7717 36.0683L32.83 35.6717C32.83 35.6717 32.6784 35.6483 32.6784 35.59C32.6784 35.5317 32.865 35.38 32.865 35.38C32.865 35.38 32.7717 35.2867 32.7484 35.2283L32.655 34.9017L32.7484 34.5633L32.69 34.3883L32.5384 34.12L32.7484 33.91L32.69 33.5833C32.7294 33.4617 32.7886 33.3474 32.865 33.245C32.9 33.2217 33.1334 32.895 33.1334 32.895L33.6467 32.7783L34.2417 32.86L34.5684 33.07L34.6267 33.6067C34.6267 33.6067 34.5684 33.9333 34.545 33.9333L34.2767 34.05C34.2767 34.05 33.9734 34.085 33.9384 34.05C33.9034 34.015 34.0317 34.4233 34.0317 34.4233V34.7733L34.0084 35.2283C34.0084 35.2283 34.0084 35.4383 33.9734 35.4617C33.9384 35.485 33.88 35.5783 33.88 35.5783L33.8567 36.045L34.3234 36.1617L34.3 36.43L33.9734 36.4533L34.0317 38.285L34.51 38.3667V38.88L34.3 38.9967L34.2417 40.8283H32.5617ZM39.8417 40.8633V39.09L39.6667 38.9383V38.5183L39.9934 38.495L40.0517 36.5117L39.8417 36.395L39.8184 36.0683C39.8184 36.0683 40.0517 36.15 40.0517 36.0917L40.11 35.7067C40.11 35.7067 39.9584 35.6717 39.9584 35.6133C39.9584 35.555 40.145 35.4033 40.145 35.4033C40.145 35.4033 40.0517 35.3217 40.0284 35.2517L39.935 34.925L40.0284 34.5983L39.9584 34.4233L39.8184 34.155L40.0284 33.945L39.9584 33.6067C40.0025 33.4884 40.0656 33.3781 40.145 33.28L40.4134 32.93L40.9267 32.8017L41.5217 32.895L41.8484 33.105L41.9067 33.6417C41.9067 33.6417 41.8484 33.9683 41.825 33.9683L41.5567 34.085C41.5567 34.085 41.2534 34.12 41.2184 34.085C41.1834 34.05 41.3117 34.4467 41.3117 34.4467V34.8083L41.2767 35.2633C41.2767 35.2633 41.2767 35.4617 41.2534 35.4967L41.16 35.6133L41.1367 36.0683L41.6034 36.185L41.58 36.4533L41.2534 36.4883L41.3117 38.3083L41.79 38.4017V38.915L41.58 39.0317L41.5217 40.8633H39.8417ZM36.155 40.9217V39.1483L35.98 39.0083V38.5767L36.3067 38.5533L36.365 36.57L36.155 36.4533L36.1317 36.1267C36.1317 36.1267 36.365 36.22 36.365 36.1617L36.4234 35.765C36.4234 35.765 36.2834 35.7417 36.2834 35.6833C36.2834 35.625 36.4584 35.4617 36.4584 35.4617C36.4584 35.4617 36.365 35.38 36.3417 35.3217L36.2484 34.9833L36.3417 34.6567L36.2834 34.4817L36.1317 34.2133L36.3417 34.0033L36.2834 33.665C36.3219 33.5466 36.3811 33.436 36.4584 33.3383C36.4934 33.315 36.7267 32.9883 36.7267 32.9883L37.24 32.8717L37.835 32.9533L38.1617 33.1633L38.2317 33.7C38.2317 33.7 38.1617 34.0267 38.1384 34.0267L37.87 34.1433C37.87 34.1433 37.5667 34.1783 37.5434 34.1433C37.52 34.1083 37.625 34.505 37.625 34.505V34.8667L37.6017 35.3217C37.6017 35.3217 37.6017 35.5317 37.5667 35.555L37.4734 35.6717L37.45 36.1267L37.9167 36.2433L37.8934 36.5117L37.5667 36.5467L37.625 38.3783L38.1034 38.46V38.9733L37.8934 39.09L37.835 40.9217H36.1667H36.155Z" fill="white" stroke="#A9A9A9" stroke-width="0.128333"/>
<path fill-rule="evenodd" clip-rule="evenodd" d="M33.0167 40.8167V39.4167H33.7867V40.875L33.005 40.8167H33.0167ZM36.68 40.9334L36.715 39.51H37.415V40.8984L36.68 40.9217V40.9334ZM40.2967 40.8984L40.25 39.5567L41.0084 39.5334V40.9334L40.3084 40.8984H40.2967ZM33.2034 36.6984H33.6467V37.41H33.2034V36.6984ZM36.7384 36.7217H37.3567V37.4217H36.7384V36.7217ZM40.355 36.78H40.8917V37.445H40.3667L40.355 36.78Z" fill="black"/>
<path d="M33.4367 33.525C33.9034 34.0617 33.9384 34.0617 33.9384 34.0617M36.995 33.525C37.0884 33.7 37.2284 34.085 37.415 34.12M40.8334 33.6067C40.8334 33.6067 40.985 34.0267 41.1834 34.085" stroke="#A8A8A8" stroke-width="0.128333"/>
<path fill-rule="evenodd" clip-rule="evenodd" d="M32.9234 32.0083C34.3234 31.5533 32.5967 30.655 32.305 32.0083C31.8617 32.09 31.8034 32.4167 30.8234 32.2767C28.4434 36.1267 30.205 42.3684 37.135 48.82C24.7217 38.25 29.7617 30.4333 33.2034 30.7367C35.07 30.8533 34.1367 33.1867 32.9234 32.02V32.0083Z" fill="#B97700"/>
<path d="M33.32 30.025C33.32 30.025 34.4517 30.34 34.4517 30.8184M34.4517 29.9434C34.4517 29.9434 35.245 30.2934 35.42 30.5967M40.6817 30.0717C40.6817 30.0717 39.6784 30.2117 39.4567 30.515M39.1534 30.165C39.1534 30.165 38.57 30.6434 38.6284 30.7834M39.025 32.265C38.9317 32.23 38.535 31.6934 38.6284 31.04M35.1517 31.915C35.1517 31.915 35.42 31.6117 35.42 31.04M36.995 30.8184L37.0417 32.1017M38.1384 31.915C38.1384 31.8334 38.4884 30.9934 38.0917 30.5967M35.7234 30.4217C35.7234 30.4217 35.42 31.2617 35.6417 31.9617M37.975 31.1684C37.975 31.1684 37.485 31.3084 37.275 31.5184M35.8984 31.2967C35.8984 31.2617 36.435 31.18 36.5984 31.4834" stroke="#7D6C00" stroke-width="0.28"/>
<path fill-rule="evenodd" clip-rule="evenodd" d="M35.07 44.5967C35.0934 44.5967 35.5134 44.515 35.5134 44.3167C35.7234 44.1767 35.5717 43.7917 35.5717 43.7917L35.175 43.7217L34.6384 43.115C34.615 42.9284 34.6734 42.7534 34.5567 42.555C34.1834 42.6484 33.9734 42.9634 33.8567 43.3134C33.9384 43.43 33.95 43.5467 34.125 43.6517C34.3 43.675 34.4167 43.57 34.58 43.605C34.6617 43.7567 34.6384 43.885 34.6734 44.025C34.895 44.1767 34.9417 44.3984 35.07 44.5967ZM34.5917 42.0067V41.2834L34.0784 41.26C34.0084 41.3767 33.8917 41.4234 33.8217 41.5167L33.46 41.7034C33.6117 41.8784 33.7984 41.9834 33.9034 42.0767C34.1717 42.1467 34.3817 42.1467 34.5917 42.0067ZM32.9817 43.0684L32.7017 42.6017C32.8832 42.5516 33.0764 42.5639 33.25 42.6367C33.25 42.6367 33.3667 42.9284 33.285 43.0334C33.2384 43.1384 32.97 43.0917 32.9817 43.0684ZM37.24 43.5467C37.3197 43.5127 37.39 43.4599 37.4448 43.3929C37.4997 43.3259 37.5375 43.2465 37.555 43.1617L37.03 42.5667L36.5634 42.555C36.4467 42.4384 36.2834 42.415 36.1434 42.415C36.1434 42.415 36.2834 42.6484 36.47 42.6834C36.61 42.9867 37.1934 43.5467 37.24 43.5467ZM37.7417 43.6167C37.7417 43.605 38.2084 43.4534 38.4417 43.465C38.43 43.2784 38.7917 42.8467 38.7917 42.8467L39.445 43.6984C39.3284 43.7917 39.1184 43.7684 38.955 43.7917C38.955 43.7917 38.64 44.095 38.605 44.1067C38.57 44.1184 37.9984 44.2584 37.7184 44.0834C37.6017 43.85 37.7534 43.5817 37.7417 43.6167ZM38.115 42.1234C38.1968 41.8335 38.1968 41.5266 38.115 41.2367H37.3684L36.8784 41.47C36.8784 41.47 37.03 41.96 37.2284 41.9134C37.31 42.1584 37.5667 42.1 37.695 42.1934L38.115 42.1234ZM41.02 41.3767C40.9034 41.6917 40.8567 42.0184 40.9967 42.31C41.1367 42.345 41.3 42.4267 41.4167 42.4034L42.0117 41.33C41.6034 41.2017 41.265 41.2134 41.0084 41.3767H41.02Z" fill="#C76E2E"/>
<path fill-rule="evenodd" clip-rule="evenodd" d="M41.195 31.915C39.795 31.46 41.5217 30.55 41.8134 31.915C42.2684 31.985 42.3267 32.3233 43.3067 32.1833C45.675 36.0333 43.9134 42.275 36.9834 48.7267C49.4084 38.1567 44.3567 30.34 40.915 30.6317C39.0484 30.7483 39.9817 33.0817 41.195 31.915Z" fill="#B97700"/>
<path fill-rule="evenodd" clip-rule="evenodd" d="M41.335 42.59C41.3117 42.59 40.985 42.8234 40.985 42.8234L40.495 43.0217L39.9817 43.0334L39.865 42.6834L40.2617 42.3334C39.935 42.275 39.5967 42.415 39.3284 42.66C39.3284 42.66 39.3284 43.045 39.5617 43.2434C39.69 43.4067 40.0867 43.71 40.0867 43.71C40.1942 43.7341 40.3054 43.7361 40.4136 43.7161C40.5219 43.696 40.625 43.6543 40.7167 43.5934L41.335 42.59ZM38.6284 46.1017C38.7917 46.1484 39.9467 44.62 39.9467 44.62C39.8422 44.3456 39.6381 44.1206 39.375 43.99C39.375 43.99 38.815 44.655 38.8034 44.8767C38.71 45.075 38.4534 45.845 38.57 45.95C38.5584 45.9734 38.5117 46.2884 38.6284 46.1017Z" fill="#C76E2E"/>
<path fill-rule="evenodd" clip-rule="evenodd" d="M31.08 46.405C29.3534 44.9 27.02 44.0717 23.765 45.2034C24.64 45.5767 25.585 45.705 26.39 46.125L31.08 46.405Z" fill="#006800" stroke="#004100" stroke-width="0.28" stroke-linejoin="round"/>
<path d="M26.0634 45.3434C29.4817 45.4134 30.4734 46.2651 30.2984 46.1251" stroke="#00A400" stroke-width="0.256667" stroke-linecap="round"/>
<path fill-rule="evenodd" clip-rule="evenodd" d="M31.15 46.5917C30.1234 46.7784 28.7234 47.7584 28.3034 47.7234C27.195 47.5951 26.145 47.1401 25.0717 46.7901C24.6284 46.6501 24.1734 46.7901 23.7184 46.7901C27.545 44.9817 28.8517 45.2267 31.15 46.58V46.5917Z" fill="#006800" stroke="#004100" stroke-width="0.256667" stroke-linejoin="round"/>
<path fill-rule="evenodd" clip-rule="evenodd" d="M28.63 43.9084C28.63 43.9084 27.3467 44.0951 26.775 44.1301C26.215 44.0951 25.375 43.5701 24.465 42.6134C23.9984 42.0767 22.9017 42.1467 22.9017 42.1467C25.305 41.6334 27.1834 42.1234 28.6184 43.9201L28.63 43.9084ZM26.88 41.4351C25.1417 41.3184 22.9717 39.7667 22.4817 37.9117C22.4817 37.9351 23.1234 38.3201 23.0184 38.4134C25.865 39.1367 26.0517 39.7201 26.88 41.4351ZM29.7967 44.4101C30.0417 42.8351 30.1117 41.7967 29.3767 40.8634C28.7584 40.1634 28.6067 39.7317 28.1634 38.7284C28.035 40.8051 27.58 42.5201 29.7967 44.4101ZM27.0667 40.0584C28.35 38.1801 28.5834 36.7567 28.3734 34.5167C28.3384 34.6917 27.9067 35.8001 27.8834 35.8001C25.9584 37.0017 26.81 38.8917 27.0667 40.0584Z" fill="#006800" stroke="#004100" stroke-width="0.28" stroke-linejoin="round"/>
<path fill-rule="evenodd" clip-rule="evenodd" d="M25.9234 30.9584C27.2067 32.8367 27.02 34.61 26.81 36.85C26.775 36.675 26.3434 35.5667 26.32 35.5667C24.395 34.365 25.6784 32.125 25.9234 30.9584Z" fill="#006800" stroke="#004100" stroke-width="0.28" stroke-linejoin="round"/>
<path fill-rule="evenodd" clip-rule="evenodd" d="M26.985 33.875C30.1117 32.2884 28.91 30.2934 29.4817 28.7417C27.3117 30.3634 27.0317 32.0784 26.9967 33.875H26.985Z" fill="#006800" stroke="#004100" stroke-width="0.28" stroke-linejoin="round"/>
<path d="M27.4167 33.4784C27.8134 32.37 28.5834 30.4917 28.665 30.4917M26.4834 35.7884C26.4134 35.0067 26.0167 32.9067 25.9817 32.6967" stroke="#00A400" stroke-width="0.256667" stroke-linecap="round"/>
<path fill-rule="evenodd" clip-rule="evenodd" d="M26.635 39.3C24.885 39.1833 23.0184 36.815 22.5167 34.9716C22.5167 34.995 23.1584 35.3683 23.0534 35.4616C25.55 36.5816 25.8067 37.585 26.635 39.3ZM26.1217 37.6666C24.8384 35.7883 24.605 34.365 24.8034 32.125C24.8384 32.3 25.27 33.4083 25.305 33.4083C27.2184 34.61 26.3667 36.5 26.1217 37.6666ZM27.2767 34.365C30.5084 32.93 29.5167 31.425 30.4734 29.85C28.3034 31.46 27.3117 32.58 27.2767 34.365Z" fill="#006800" stroke="#004100" stroke-width="0.28" stroke-linejoin="round"/>
<path d="M27.4167 34.0383C28.1503 33.3483 28.7513 32.5298 29.19 31.6233" stroke="#00A400" stroke-width="0.256667" stroke-linecap="round"/>
<path fill-rule="evenodd" clip-rule="evenodd" d="M38.92 52.1218L40.4833 52.1451C35.2683 47.2451 25.2583 45.1218 26.6467 36.1151C25.2117 45.8801 34.825 46.7901 38.92 52.1218Z" fill="#FFE100" stroke="#E9BF00" stroke-width="0.28"/>
<path fill-rule="evenodd" clip-rule="evenodd" d="M27.4634 34.19C27.4634 34.3231 27.4105 34.4507 27.3164 34.5448C27.2224 34.6388 27.0948 34.6917 26.9617 34.6917C26.8287 34.6917 26.7011 34.6388 26.607 34.5448C26.5129 34.4507 26.46 34.3231 26.46 34.19C26.46 34.057 26.5129 33.9294 26.607 33.8353C26.7011 33.7412 26.8287 33.6884 26.9617 33.6884C27.0948 33.6884 27.2224 33.7412 27.3164 33.8353C27.4105 33.9294 27.4634 34.057 27.4634 34.19ZM27.16 36.9434C27.16 37.0687 27.1103 37.1889 27.0217 37.2775C26.933 37.3661 26.8129 37.4159 26.6875 37.4159C26.5622 37.4159 26.442 37.3661 26.3534 37.2775C26.2648 37.1889 26.215 37.0687 26.215 36.9434C26.215 36.8196 26.2642 36.7009 26.3517 36.6134C26.4392 36.5259 26.5579 36.4767 26.6817 36.4767C26.8055 36.4767 26.9242 36.5259 27.0117 36.6134C27.0992 36.7009 27.1484 36.8196 27.1484 36.9434H27.16ZM27.6034 40.875C27.6034 40.9302 27.5925 40.9848 27.5714 41.0357C27.5503 41.0867 27.5194 41.133 27.4804 41.172C27.4414 41.211 27.3951 41.2419 27.3441 41.2631C27.2931 41.2842 27.2385 41.295 27.1834 41.295C27.1282 41.295 27.0736 41.2842 27.0226 41.2631C26.9717 41.2419 26.9254 41.211 26.8864 41.172C26.8474 41.133 26.8165 41.0867 26.7953 41.0357C26.7742 40.9848 26.7634 40.9302 26.7634 40.875C26.7634 40.7636 26.8076 40.6568 26.8864 40.578C26.9652 40.4993 27.072 40.455 27.1834 40.455C27.2948 40.455 27.4016 40.4993 27.4804 40.578C27.5591 40.6568 27.6034 40.7636 27.6034 40.875ZM31.255 45.215C31.255 45.3264 31.2108 45.4332 31.132 45.512C31.0533 45.5908 30.9464 45.635 30.835 45.635C30.7236 45.635 30.6168 45.5908 30.5381 45.512C30.4593 45.4332 30.415 45.3264 30.415 45.215C30.415 45.1036 30.4593 44.9968 30.5381 44.918C30.6168 44.8393 30.7236 44.795 30.835 44.795C30.9464 44.795 31.0533 44.8393 31.132 44.918C31.2108 44.9968 31.255 45.1036 31.255 45.215ZM31.78 46.4634C31.78 46.5747 31.7358 46.6816 31.657 46.7603C31.5783 46.8391 31.4714 46.8834 31.36 46.8834C31.2487 46.8834 31.1418 46.8391 31.0631 46.7603C30.9843 46.6816 30.94 46.5747 30.94 46.4634C30.94 46.352 30.9843 46.2451 31.0631 46.1664C31.1418 46.0876 31.2487 46.0434 31.36 46.0434C31.4714 46.0434 31.5783 46.0876 31.657 46.1664C31.7358 46.2451 31.78 46.352 31.78 46.4634Z" fill="#9D4916" stroke="#68300E" stroke-width="0.128333"/>
<path fill-rule="evenodd" clip-rule="evenodd" d="M33.6234 50.0915C33.384 49.9154 33.1916 49.683 33.0634 49.4149L31.4301 49.2399L31.4067 50.1732L33.6234 50.0915Z" fill="white" stroke="black" stroke-width="0.128333"/>
<path fill-rule="evenodd" clip-rule="evenodd" d="M21.6184 48.9949C22.5751 49.1699 24.0101 48.9015 24.4767 49.5199C25.0367 50.1499 22.7151 51.1415 23.0417 51.6899C23.7651 52.4482 24.5001 52.1332 25.3051 51.7132C25.5034 51.3049 25.6551 50.5699 25.7484 50.3482C25.4567 49.6832 24.6634 49.3449 24.8734 48.3299C26.1917 47.8399 28.7467 47.8749 29.0267 48.0732C29.2367 48.4932 29.0384 48.6799 29.0851 49.0182C28.8634 49.4499 28.3034 50.1615 28.3034 50.5465C29.7034 51.0365 30.0534 50.4765 31.3134 50.4999C32.7834 50.5232 33.6701 50.9199 33.9967 50.3365C33.7634 49.8232 32.4217 50.2432 31.9201 49.9165C31.6634 49.8349 31.5001 49.6249 31.2784 49.4032C31.0567 49.1815 30.4384 49.1699 30.3451 48.5982C30.6017 47.4082 32.3284 47.5949 32.5967 47.4082L37.0767 47.7232C37.8934 47.6999 38.3601 49.1582 37.2517 49.5899C36.1551 50.0332 32.9234 48.9482 31.5117 49.6949C31.4417 49.3915 30.4267 48.9249 30.3567 48.9132C29.9251 49.0299 29.0851 48.9949 29.0851 48.9949C28.8867 49.3682 28.6417 49.6482 28.4434 50.0332C27.5101 49.6249 26.6351 50.3482 25.6201 50.1382L24.0334 50.3132L23.0301 50.2199L21.4901 50.6632L22.5867 49.6949L21.6184 48.9949Z" fill="white" stroke="black" stroke-width="0.128333" stroke-linejoin="round"/>
<path fill-rule="evenodd" clip-rule="evenodd" d="M21.5484 48.8082C21.5484 48.9196 21.5042 49.0264 21.4254 49.1052C21.3466 49.1839 21.2398 49.2282 21.1284 49.2282C21.017 49.2282 20.9102 49.1839 20.8314 49.1052C20.7527 49.0264 20.7084 48.9196 20.7084 48.8082C20.7084 48.6968 20.7527 48.59 20.8314 48.5112C20.9102 48.4324 21.017 48.3882 21.1284 48.3882C21.2398 48.3882 21.3466 48.4324 21.4254 48.5112C21.5042 48.59 21.5484 48.6968 21.5484 48.8082ZM21.4317 50.9082C21.4317 51.0196 21.3875 51.1264 21.3087 51.2052C21.23 51.2839 21.1231 51.3282 21.0117 51.3282C20.9003 51.3282 20.7935 51.2839 20.7148 51.2052C20.636 51.1264 20.5917 51.0196 20.5917 50.9082C20.5917 50.7952 20.6366 50.6869 20.7165 50.6071C20.7963 50.5272 20.9046 50.4824 21.0176 50.4824C21.1305 50.4824 21.2388 50.5272 21.3187 50.6071C21.3985 50.6869 21.4434 50.7952 21.4434 50.9082H21.4317Z" fill="white" stroke="black" stroke-width="0.128333"/>
<path fill-rule="evenodd" clip-rule="evenodd" d="M40.4017 50.1033C40.67 49.8583 40.845 49.695 40.95 49.4267L42.5834 49.24L42.6184 50.1733L40.4017 50.1033Z" fill="white" stroke="black" stroke-width="0.128333"/>
<path fill-rule="evenodd" clip-rule="evenodd" d="M52.3951 48.9949C51.4501 49.1699 50.0151 48.9133 49.5484 49.5199C48.9767 50.1616 51.2984 51.1533 50.9717 51.6899C50.2484 52.4599 49.5134 52.1449 48.7084 51.7249C48.5217 51.3166 48.3701 50.5816 48.2651 50.3599C48.5684 49.6833 49.3501 49.3566 49.1517 48.3416C47.8217 47.8399 45.2667 47.8749 44.9984 48.0733C44.7767 48.5049 44.9751 48.6916 44.9284 49.0299C45.1617 49.4499 45.7217 50.1733 45.7217 50.5466C44.3217 51.0483 43.9601 50.4766 42.7117 50.5116C41.2417 50.5349 40.3434 50.9199 40.0284 50.3366C40.2501 49.8349 41.5917 50.2433 42.1051 49.9283C42.3617 49.8349 42.5251 49.6366 42.7467 49.4033C42.9684 49.1699 43.5867 49.1699 43.6801 48.6099C43.4234 47.4199 41.6967 47.5949 41.4167 47.4199L36.9367 47.7233C36.1201 47.6999 35.6651 49.1583 36.7617 49.6016C37.8584 50.0449 41.1017 48.9483 42.5017 49.6949C42.5834 49.3916 43.5867 48.9366 43.6684 48.9133C44.0884 49.0416 44.9284 48.9949 44.9284 48.9949C45.1384 49.3799 45.3717 49.6599 45.5817 50.0449C46.5151 49.6249 47.3901 50.3599 48.4051 50.1383L49.9801 50.3133L50.9951 50.2316L52.5351 50.6633L51.4384 49.7066L52.3951 49.0066V48.9949Z" fill="white" stroke="black" stroke-width="0.128333" stroke-linejoin="round"/>
<path fill-rule="evenodd" clip-rule="evenodd" d="M52.465 48.8084C52.465 48.9213 52.5099 49.0297 52.5898 49.1095C52.6696 49.1894 52.7779 49.2342 52.8909 49.2342C53.0038 49.2342 53.1121 49.1894 53.192 49.1095C53.2718 49.0297 53.3167 48.9213 53.3167 48.8084C53.3167 48.6955 53.2718 48.5872 53.192 48.5073C53.1121 48.4274 53.0038 48.3826 52.8909 48.3826C52.7779 48.3826 52.6696 48.4274 52.5898 48.5073C52.5099 48.5872 52.465 48.6955 52.465 48.8084ZM52.5817 50.9084C52.5817 51.0198 52.6259 51.1266 52.7047 51.2054C52.7835 51.2842 52.8903 51.3284 53.0017 51.3284C53.1131 51.3284 53.2199 51.2842 53.2987 51.2054C53.3774 51.1266 53.4217 51.0198 53.4217 50.9084C53.4217 50.797 53.3774 50.6902 53.2987 50.6114C53.2199 50.5326 53.1131 50.4884 53.0017 50.4884C52.8903 50.4884 52.7835 50.5326 52.7047 50.6114C52.6259 50.6902 52.5817 50.797 52.5817 50.9084Z" fill="white" stroke="black" stroke-width="0.128333"/>
<path fill-rule="evenodd" clip-rule="evenodd" d="M36.9834 47.7931C36.6101 47.7231 36.4701 47.7465 36.2134 47.7231L35.6184 49.5665C36.5517 49.6481 37.4034 49.6481 37.4034 49.6481C36.8434 49.5315 36.9717 47.8048 36.9834 47.7931Z" fill="white"/>
<path d="M33.0633 49.0649V47.8212H33.277V48.8706H33.86V49.0649H33.0633Z" fill="black"/>
<path d="M34.0349 49.1232V47.8795H34.2487V49.1232H34.0349Z" fill="black"/>
<path d="M35.0066 49.2204H34.6179V47.9767L34.9872 47.9573C35.1167 47.9573 35.2139 47.9832 35.2787 48.035C35.3564 48.0998 35.3953 48.184 35.3953 48.2876C35.3953 48.3783 35.3434 48.4561 35.2398 48.5208C35.3953 48.5727 35.473 48.6828 35.473 48.8512C35.473 48.9678 35.4277 49.0585 35.337 49.1233C35.2592 49.188 35.1491 49.2204 35.0066 49.2204ZM34.8511 48.1516V48.4431H34.9677C35.0973 48.4431 35.1621 48.3913 35.1621 48.2876C35.1621 48.1969 35.0973 48.1516 34.9677 48.1516H34.8511ZM34.8511 48.618V49.0261H34.9677C35.0584 49.0261 35.1232 49.0131 35.1621 48.9872C35.2139 48.9613 35.2398 48.9095 35.2398 48.8318C35.2398 48.754 35.2204 48.7022 35.1815 48.6763C35.1426 48.6374 35.0714 48.618 34.9677 48.618H34.8511Z" fill="black"/>
<path d="M35.9977 48.2293V48.5403H36.4058V48.7346H35.9977V49.1038H36.5807V49.2982H35.7839V48.0544H36.5613V48.2488L35.9977 48.2293Z" fill="black"/>
<path d="M37.5912 49.3176L37.2608 48.7929H37.1054V49.3176H36.8916V48.0739H37.0277L37.222 48.0544C37.5459 48.0544 37.7078 48.1775 37.7078 48.4237C37.7078 48.5014 37.6884 48.5662 37.6495 48.618C37.5977 48.6828 37.5394 48.7281 37.4746 48.754L37.8633 49.3176H37.5912ZM37.1054 48.2682V48.5986H37.2025L37.3969 48.5791C37.4487 48.5532 37.4746 48.5014 37.4746 48.4237C37.4746 48.3589 37.4552 48.3135 37.4163 48.2876C37.3645 48.2617 37.2868 48.2488 37.1831 48.2488H37.1054V48.2682Z" fill="black"/>
<path d="M38.4851 48.2294V49.2788H38.2519V48.2294H37.8633V48.035H38.8932V48.2294H38.4851Z" fill="black"/>
<path d="M39.7483 49.1039L39.6511 48.8512H39.2236L39.1459 49.1039H38.8932L39.3985 47.8407H39.4957L40.0009 49.1039H39.7483ZM39.4374 48.2099L39.3013 48.6763H39.5928L39.4374 48.2099Z" fill="black"/>
<path d="M40.1758 49.0066L40.2536 48.8123C40.3442 48.8641 40.4285 48.89 40.5062 48.89C40.6357 48.89 40.7005 48.8447 40.7005 48.754L40.6617 48.6374L40.4673 48.5014L40.273 48.3848L40.1953 48.2682L40.1758 48.1321C40.1758 48.0285 40.2082 47.9443 40.273 47.8795C40.3507 47.8277 40.4414 47.8018 40.5451 47.8018C40.6876 47.8018 40.7977 47.8277 40.8754 47.8795L40.7977 48.0738C40.72 48.009 40.6357 47.9767 40.5451 47.9767C40.4932 47.9767 40.4544 47.9896 40.4285 48.0155C40.4025 48.0414 40.3896 48.0803 40.3896 48.1321C40.3896 48.1969 40.4673 48.2682 40.6228 48.3459C40.7135 48.3848 40.7783 48.4236 40.8171 48.4625L40.8949 48.5791L40.9143 48.7346C40.9143 48.8382 40.8754 48.9224 40.7977 48.9872C40.72 49.052 40.6163 49.0843 40.4868 49.0843C40.3572 49.0843 40.2536 49.052 40.1758 48.9872V49.0066Z" fill="black"/>
<path d="M26.985 46.545C28.1634 46.685 29.7967 46.58 30.5084 46.545M25.2 42.5316C26.2034 43.3133 28.3617 43.78 28.3267 43.78M29.575 43.99C29.2484 42.3566 28.8984 41.96 28.6067 40.9333M23.5317 39.09C25.2 39.8366 25.4567 40.3266 26.5184 41.0733M27.125 39.44C27.265 37.4216 27.545 36.885 28.0467 36.4183M23.5317 36.185C24.1384 36.85 26.1217 38.95 26.1217 38.95M25.305 34.33C26.0517 34.855 26.0517 36.78 26.0517 36.78" stroke="#00A400" stroke-width="0.256667" stroke-linecap="round"/>
</g>
<defs>
<clipPath id="clip0_1_72255">
<rect width="74.6667" height="56" fill="white" transform="translate(0 9.375)"/>
</clipPath>
</defs>
</svg>
