<svg width="75" height="75" viewBox="0 0 75 75" fill="none" xmlns="http://www.w3.org/2000/svg">
<rect width="74.6667" height="74.75" fill="white"/>
<g clip-path="url(#clip0_1_73974)">
<path fill-rule="evenodd" clip-rule="evenodd" d="M0 9.375H84V37.375H37.3297L0 9.375Z" fill="#ED2939"/>
<path fill-rule="evenodd" clip-rule="evenodd" d="M6.10352e-05 65.375H84.0001V37.375H37.3297L6.10352e-05 65.375Z" fill="#002395"/>
<path fill-rule="evenodd" clip-rule="evenodd" d="M0 9.375L37.3297 37.375L0 65.375V9.375Z" fill="white"/>
<path d="M18.8454 30.5063L18.8563 30.0688C18.8563 30.0688 18.6267 29.697 18.9001 29.3032C18.9001 29.3032 18.3204 28.997 18.4626 28.5157C18.4626 28.5157 17.9376 28.3845 17.9704 27.8157C17.9704 27.8157 17.4235 27.7829 17.3579 27.3017C17.3579 27.3017 16.8001 27.3892 16.5485 26.9298C16.5485 26.9298 16.0017 27.0392 15.8485 26.6563C15.8485 26.6563 15.3126 26.8313 15.0063 26.3829C15.0063 26.3829 14.4376 26.6126 14.2079 26.186C13.9782 26.6126 13.4095 26.3829 13.4095 26.3829C13.1032 26.8313 12.5673 26.6454 12.5673 26.6454C12.4142 27.0282 11.8782 26.9188 11.8782 26.9188C11.6267 27.3892 11.0688 27.2907 11.0688 27.2907C11.0142 27.772 10.4563 27.8157 10.4563 27.8157C10.4721 27.9705 10.4324 28.1259 10.3443 28.2541C10.2561 28.3823 10.1253 28.475 9.9751 28.5157C10.1173 28.986 9.5376 29.2923 9.5376 29.2923C9.82197 29.697 9.59229 30.0579 9.59229 30.0579L9.58135 30.4626L18.8454 30.5063Z" fill="#FFFF00"/>
<path d="M18.8587 30.5036V30.0649C18.8587 30.0649 18.633 29.6888 18.9089 29.3127C18.9089 29.3127 18.3321 28.9993 18.47 28.523C18.47 28.523 17.9434 28.3976 17.981 27.821C17.981 27.821 17.4168 27.7834 17.3541 27.3071C17.3541 27.3071 16.8024 27.3948 16.5642 26.931C16.5642 26.931 16.0124 27.0313 15.862 26.6552C15.862 26.6552 15.3228 26.8432 15.0093 26.392C15.0093 26.392 14.4451 26.6176 14.2194 26.1914C13.9812 26.6176 13.4169 26.392 13.4169 26.392C13.116 26.8307 12.5768 26.6427 12.5768 26.6427C12.4264 27.0313 11.8872 26.931 11.8872 26.931C11.6364 27.3948 11.0722 27.3071 11.0722 27.3071C11.022 27.7709 10.4578 27.8085 10.4578 27.8085C10.4785 27.9618 10.4429 28.1174 10.3576 28.2465C10.2723 28.3756 10.1431 28.4694 9.99385 28.5105C10.1192 28.9868 9.55499 29.2877 9.55499 29.2877C9.83085 29.6888 9.59261 30.0649 9.59261 30.0649V30.466L18.8587 30.5036V30.5036Z" stroke="black" stroke-width="0.0376113"/>
<path d="M18.6267 29.9593C17.172 29.8171 15.4985 29.4671 14.2079 30.1999C13.3329 29.6858 12.1298 29.7187 11.1017 29.8171C10.5438 29.9265 9.8876 29.9265 9.29697 30.014L9.20947 30.0249C8.14853 30.1015 7.18604 29.7843 6.25635 29.3687C6.5626 31.0312 6.87979 32.7265 7.04385 34.4655C7.39385 37.0468 5.82979 39.2015 6.45322 41.7499C6.83604 42.9749 8.18135 43.6858 9.40635 43.828C10.5911 43.9028 11.7684 44.0674 12.9282 44.3202C13.1346 44.3711 13.336 44.4406 13.5298 44.528C13.8034 44.6475 14.0493 44.8226 14.2517 45.0421C14.9079 44.353 15.8923 44.1562 16.8438 44.0577C18.572 43.8499 20.7048 43.9593 21.7657 42.3952V42.3077C22.3454 41.4327 22.2688 40.1202 22.0173 39.1358C21.9954 38.7968 21.9079 38.4905 21.8532 38.1624C20.8032 35.3733 21.711 32.2343 22.1595 29.4124C21.5932 29.6971 20.9892 29.8997 20.3657 30.014C19.8735 30.0796 19.3267 30.0577 18.8345 30.0249L18.6157 29.9702" fill="#FF0000"/>
<path d="M20.8032 37.9766C20.8032 38.1516 20.9016 38.3047 20.9344 38.4688C21.1423 39.6938 21.3282 41.3125 20.0813 42.0672C18.6813 42.9422 16.8657 42.5704 15.2579 43.0407C14.9298 43.1282 14.4923 43.4235 14.2735 43.6313C14.1204 43.5329 13.9782 43.3907 13.7923 43.3032C12.4688 42.6032 10.7407 42.8329 9.2532 42.45C8.49851 42.2204 7.72195 41.6297 7.52507 40.8641C7.04382 38.8516 8.2032 37.1344 8.07195 35.1329C7.98445 33.6016 7.72195 32.1469 7.37195 30.7141C8.54226 31.261 9.88757 31.3485 11.2001 31.086C12.2124 30.9002 13.2563 30.9947 14.2188 31.3594C14.7219 31.1407 15.3126 31.0422 15.8594 30.9875C16.8766 31.0969 17.9813 31.2719 19.0423 31.2719C19.7532 31.2282 20.3985 31.0313 21.011 30.7579C20.6501 33.1204 19.9391 35.5922 20.8032 37.9766Z" fill="#80CFE1"/>
<path d="M18.7032 38.4468V36.2156H18.9657L15.5751 34.0281L15.5641 32.8796H15.8923L14.186 31.6765L12.5016 32.8796H12.8298V34.0281L9.45007 36.2156H9.72351V38.4359H18.7032" fill="white"/>
<path d="M18.7083 38.4511V36.2198H18.9716L15.5862 34.0261L15.5736 32.8979H15.8996L14.1944 31.6694L12.5016 32.8854H12.8276L12.8402 34.0261L9.45471 36.2198H9.73056V38.4386H18.7083V38.4511Z" stroke="black" stroke-width="0.150445"/>
<path d="M19.7532 41.3671V42.0562H8.80475V41.3562H19.7422" fill="white"/>
<path d="M19.7615 41.3719V42.0614H8.80267V41.3594H19.7615V41.3719Z" stroke="black" stroke-width="0.150445"/>
<path d="M9.52665 41.3234V38.9718H9.96415L9.94227 41.3453L9.96415 38.9828L9.32977 38.9718V38.4578L19.1079 38.4796V38.9718H18.5173V41.3562L18.5063 38.9718H18.9438L18.9657 41.3343" fill="white"/>
<path d="M9.52994 41.3217V38.965H9.9688L9.94372 41.3468L9.9688 38.9901L9.34186 38.965V38.4636L19.1221 38.4762V38.9776H18.5202L18.5328 41.3593L18.5077 38.9776H18.9591L18.9716 41.3342" stroke="black" stroke-width="0.150445"/>
<path d="M11.6364 40.7452V39.103H10.3073V40.7326L11.6239 40.7452" stroke="black" stroke-width="0.150445"/>
<path d="M10.6835 39.4416V40.3943H11.2854V39.4416H10.671M18.0688 40.7453L18.0563 39.1157H16.7523V40.7453H18.0688Z" stroke="black" stroke-width="0.150445"/>
<path d="M17.1033 39.4541V40.4068H17.7052V39.4541H17.1033ZM18.0563 38.0752V36.4456H16.7397V38.0752H18.0563Z" stroke="black" stroke-width="0.150445"/>
<path d="M17.0908 36.7841V37.7368H17.6926V36.7841H17.0908ZM11.6239 38.0752V36.4331H10.3073V38.0627H11.6239V38.0752Z" stroke="black" stroke-width="0.150445"/>
<path d="M14.0063 38.0752V36.4331H12.6897V38.0627H14.0063M10.671 36.7716V37.7243H11.2728V36.7716H10.671Z" stroke="black" stroke-width="0.150445"/>
<path d="M13.0408 36.7716V37.7243H13.6426V36.7716H13.0408ZM15.8369 38.0752V36.4456L14.5203 36.4331V38.0627L15.8369 38.0752Z" stroke="black" stroke-width="0.150445"/>
<path d="M14.8714 36.7715V37.7242H15.4858V36.7715H14.8714Z" stroke="black" stroke-width="0.150445"/>
<path d="M16.1548 37.5718L16.1766 41.3562H12.3594L12.3485 37.5718H16.1438" fill="white"/>
<path d="M12.3386 38.6518H16.1755M12.8151 41.3595V38.6769M15.7115 41.3595V38.6895M16.1629 37.5738L16.1755 41.3595H12.3762L12.3637 37.5738H16.1629ZM17.5547 35.9567L15.4231 34.4023H13.0032L10.8716 35.9567H17.5547ZM13.1913 33.0986V34.0513H15.2225V33.0986H13.1913Z" stroke="black" stroke-width="0.150445"/>
<path d="M14.1943 31.9954L15.3228 32.7976H13.0784L14.2069 31.9954M13.7429 33.3367V33.813H14.6708V33.3367H13.7429Z" stroke="black" stroke-width="0.150445"/>
<path d="M18.7469 31.4688C19.0641 31.4688 19.1407 32.7812 19.1407 33.4375C19.4251 33.525 20.0266 33.9078 20.3001 34.2469H17.2157C17.4782 33.9078 18.0798 33.525 18.3532 33.4484C18.3532 32.7922 18.4188 31.4578 18.7469 31.4797" fill="white"/>
<path d="M20.0499 31.469H20.3257L20.238 31.632C20.238 31.632 20.3759 31.7949 20.238 31.9955L20.3132 32.1208H20.0624L20.1251 31.9955C20.1251 31.9955 19.9997 31.7698 20.1251 31.6194L20.0499 31.4815M18.7459 31.469C19.0719 31.469 19.1471 32.7852 19.1471 33.4496C19.423 33.5248 20.0374 33.9134 20.3007 34.2519H17.2161C17.4795 33.9134 18.0939 33.5248 18.3572 33.4496C18.3572 32.7852 18.4324 31.469 18.7459 31.469ZM12.5392 37.6741H12.815L12.7398 37.8245C12.7398 37.8245 12.8652 38 12.7398 38.2005L12.815 38.3259H12.5392L12.6144 38.2005C12.6144 38.2005 12.489 37.9749 12.6144 37.8245L12.5392 37.6741ZM13.1034 37.6741H13.3793L13.304 37.8245C13.304 37.8245 13.4294 38 13.304 38.2005L13.3793 38.3259H13.1034L13.1787 38.2005C13.1787 38.2005 13.0533 37.9749 13.1787 37.8245L13.1034 37.6741ZM13.7304 37.6741H13.9937L13.9184 37.8245C13.9184 37.8245 14.0438 38 13.9184 38.2005L13.9937 38.3259H13.7304L13.7931 38.2005C13.7931 38.2005 13.6677 37.9749 13.7931 37.8245L13.7178 37.6741H13.7304ZM19.4355 31.469H19.7114L19.6236 31.632C19.6236 31.632 19.7615 31.7949 19.6236 31.9955L19.6988 32.1208H19.4355L19.5107 31.9955C19.5107 31.9955 19.3853 31.7698 19.5107 31.6194L19.4355 31.4815V31.469ZM20.6643 31.4815H20.9401L20.8524 31.632C20.8524 31.632 20.9903 31.7949 20.8524 31.9955L20.9276 32.1208H20.6768L20.7395 31.9955C20.7395 31.9955 20.6141 31.7698 20.7395 31.6194L20.6643 31.4815Z" stroke="black" stroke-width="0.150445"/>
<path d="M14.2735 46.2126C15.6954 46.2126 17.4454 45.9173 18.2657 45.5017L20.0704 45.3376L20.1141 47.536C18.5829 48.3782 15.061 48.5642 14.2845 48.5532C13.5079 48.5532 9.94227 48.3782 8.40009 47.536L8.42196 45.3267L10.2266 45.4907C11.5164 45.9902 12.8906 46.2353 14.2735 46.2126Z" fill="#FFFF00"/>
<path d="M14.2821 46.2107C15.7115 46.2107 17.4544 45.9224 18.282 45.4962L20.075 45.3458L20.1126 47.5395C18.5954 48.3794 15.0595 48.5674 14.2946 48.5549C13.5172 48.5549 9.94369 48.3794 8.40143 47.527L8.42651 45.3333L10.2321 45.4962C11.0596 45.9224 12.8652 46.2107 14.2821 46.2107" stroke="black" stroke-width="0.0376113"/>
<path d="M3.76259 36.8281L5.34853 37.3313L4.86728 39.9016L3.36884 40.1422C3.36884 40.1422 3.11728 38.7859 3.76259 36.8281Z" fill="#FFFF00"/>
<path d="M3.77463 36.8342L5.35452 37.3356L4.87805 39.9054L3.37339 40.1436C3.37339 40.1436 3.12262 38.7898 3.77463 36.8342Z" stroke="black" stroke-width="0.0376113"/>
<path d="M4.86727 39.8796L3.36884 40.1421L4.3204 38.7859L4.86727 39.8796Z" fill="#7E7E7E"/>
<path d="M4.87807 39.8801L3.37341 40.1308L4.32636 38.7896L4.87807 39.8801Z" stroke="black" stroke-width="0.0376113"/>
<path d="M2.81105 38.6875L4.3423 38.7969C4.37511 40.0875 4.53917 45.0312 10.4454 45.3047L10.2595 47.1094C3.07355 47.175 2.52667 41.0391 2.82198 38.6875" fill="#FFFF00"/>
<path d="M8.43904 47.4768L10.2446 47.0882M2.82168 38.6895L4.35141 38.7897C4.38903 40.0934 4.53949 45.0324 10.4578 45.3082L10.2697 47.1133C3.07246 47.1885 2.53329 41.0461 2.82168 38.6895V38.6895Z" stroke="black" stroke-width="0.0376113"/>
<path d="M24.6532 36.8501L23.0782 37.3532L23.5813 39.9126L25.0907 40.1532C25.0907 40.1532 25.3313 38.8079 24.6532 36.8501Z" fill="#FFFF00"/>
<path d="M24.6642 36.8467L23.0843 37.3481L23.5858 39.9179L25.0905 40.1686C25.0905 40.1686 25.3413 38.8147 24.6642 36.8467Z" stroke="black" stroke-width="0.0376113"/>
<path d="M23.5813 39.8907L25.0797 40.1641L24.1172 38.8079L23.5704 39.8907" fill="#7E7E7E"/>
<path d="M23.5859 39.8927L25.0905 40.156L24.125 38.8147L23.5859 39.8927Z" stroke="black" stroke-width="0.0376113"/>
<path d="M25.6266 38.6985L24.0954 38.8079C24.0735 40.0985 23.9532 45.0422 18.0469 45.3157L18.2657 47.1094C25.4516 47.1969 25.9438 41.05 25.6376 38.6985" fill="#FFFF00"/>
<path d="M20.0876 47.4767L18.282 47.1007M25.6297 38.7019L24.1 38.8022C24.0749 40.1059 23.9746 45.0574 18.0563 45.3206L18.2569 47.1132C25.4541 47.2009 25.9432 41.0586 25.6297 38.7144V38.7019Z" stroke="black" stroke-width="0.0376113"/>
<path d="M13.322 47.2952C13.2782 47.3171 13.2126 47.3281 13.1579 47.3171L12.8735 47.3062L12.8954 46.9452L13.1798 46.9671C13.2345 46.9671 13.2892 46.9781 13.311 46.9999C13.3657 47.0218 13.3876 47.0765 13.3876 47.1531C13.3876 47.2187 13.3548 47.2624 13.311 47.2952M12.8407 47.8421L12.8626 47.4156L13.1907 47.4374C13.3001 47.4484 13.3876 47.4156 13.4423 47.3609C13.497 47.3171 13.5298 47.2515 13.5298 47.164C13.5353 47.125 13.5322 47.0852 13.5209 47.0474C13.5096 47.0097 13.4902 46.9748 13.4642 46.9452C13.4051 46.8877 13.3277 46.8528 13.2454 46.8468L12.7642 46.814L12.6985 47.8421H12.8407ZM13.8689 46.9999H14.2189L14.3392 47.0218C14.3939 47.0546 14.4157 47.0984 14.4157 47.1749C14.4157 47.2406 14.4048 47.2843 14.361 47.3171C14.3141 47.3422 14.261 47.3535 14.2079 47.3499H13.8689V46.9999ZM13.8689 47.8968V47.4593L14.197 47.4702C14.2517 47.4702 14.3064 47.4702 14.3282 47.4921C14.372 47.514 14.4048 47.5577 14.4048 47.6234V47.8749L14.4267 47.9077H14.6017V47.8859C14.591 47.8803 14.5816 47.8725 14.5741 47.8631C14.5666 47.8537 14.561 47.8428 14.5579 47.8312C14.5508 47.8025 14.5471 47.7732 14.547 47.7437V47.6015C14.547 47.5359 14.5251 47.4921 14.5032 47.4702C14.4813 47.4401 14.4508 47.4172 14.4157 47.4046C14.4595 47.3827 14.5032 47.3499 14.5251 47.3171C14.547 47.2734 14.5689 47.2296 14.5689 47.164C14.5689 47.0546 14.5142 46.9671 14.4157 46.9234C14.3536 46.8959 14.2867 46.8811 14.2189 46.8796H13.7267V47.9077H13.8689M14.9626 47.689C14.897 47.6082 14.8587 47.5086 14.8532 47.4046C14.8532 47.2624 14.8751 47.1531 14.9407 47.0765C14.974 47.0403 15.0146 47.0118 15.06 46.993C15.1053 46.9741 15.1542 46.9653 15.2032 46.9671C15.2507 46.9617 15.2988 46.9667 15.3442 46.9818C15.3895 46.997 15.431 47.0218 15.4657 47.0546C15.5423 47.1202 15.5751 47.2187 15.586 47.339C15.5945 47.4453 15.5717 47.5517 15.5204 47.6452C15.4657 47.7327 15.3782 47.7874 15.247 47.7874C15.1157 47.7874 15.0282 47.7656 14.9517 47.689M14.7876 47.0437C14.7243 47.1531 14.6939 47.2784 14.7001 47.4046C14.711 47.5577 14.7548 47.689 14.8532 47.7765C14.9048 47.8271 14.9667 47.8659 15.0346 47.8905C15.1026 47.915 15.175 47.9246 15.247 47.9187C15.3217 47.9178 15.3952 47.8996 15.4616 47.8654C15.5281 47.8313 15.5856 47.7821 15.6298 47.7218C15.7072 47.6055 15.7455 47.4676 15.7392 47.3281C15.7354 47.2034 15.6891 47.0837 15.6079 46.989C15.5095 46.8796 15.3673 46.8249 15.1814 46.8359C15.0064 46.8359 14.8751 46.9124 14.7876 47.0437ZM19.6001 45.5671C19.7095 45.5562 19.797 45.5562 19.8735 45.5781C19.9829 45.6218 20.0595 45.6984 20.1142 45.8296L19.972 45.8515C19.9479 45.7891 19.901 45.7383 19.8407 45.7093C19.7715 45.6808 19.6955 45.6732 19.622 45.6874C19.5777 45.6949 19.5355 45.7114 19.4979 45.7358C19.4602 45.7603 19.428 45.7922 19.4032 45.8296C19.3485 45.9062 19.3267 46.0156 19.3485 46.1577C19.3602 46.2643 19.4062 46.3641 19.4798 46.4421C19.5454 46.5077 19.6439 46.5296 19.7642 46.5187C19.8494 46.5068 19.9273 46.464 19.9829 46.3984C20.0485 46.3327 20.0595 46.2452 20.0376 46.1249L19.7095 46.1796L19.6985 46.0702L20.1579 45.9937L20.2454 46.5406H20.147L20.0923 46.4312L19.9829 46.5406C19.9282 46.5952 19.8517 46.6171 19.7642 46.639C19.642 46.6606 19.5162 46.6331 19.4142 46.5624C19.3564 46.5175 19.3083 46.4614 19.2726 46.3976C19.2369 46.3337 19.2144 46.2633 19.2064 46.1906C19.1885 46.1163 19.186 46.0391 19.1992 45.9639C19.2124 45.8886 19.2409 45.8168 19.2829 45.7531C19.3208 45.7001 19.3698 45.656 19.4265 45.6239C19.4831 45.5918 19.5461 45.5724 19.611 45.5671M20.6392 45.4906L20.9673 45.3702C21.011 45.3484 21.0548 45.3484 21.0876 45.3484C21.1532 45.3484 21.197 45.3921 21.2189 45.4577C21.2407 45.5234 21.2407 45.5781 21.2189 45.6218C21.186 45.6546 21.1423 45.6874 21.0767 45.7093L20.7704 45.8187L20.6392 45.4906ZM20.9673 46.3327L20.8142 45.9281L21.1204 45.8187C21.1581 45.8002 21.1989 45.789 21.2407 45.7859C21.2954 45.7968 21.3392 45.8296 21.372 45.8952L21.4376 46.0484L21.4704 46.1249L21.4923 46.1577L21.6564 46.0921V46.0702C21.6235 46.0702 21.6017 46.0593 21.5907 46.0265C21.5689 46.0156 21.5579 45.9827 21.547 45.9499L21.4923 45.8187C21.4704 45.764 21.4376 45.7312 21.4157 45.7093C21.3813 45.6943 21.344 45.6868 21.3064 45.6874L21.372 45.5562C21.372 45.5124 21.372 45.4577 21.3501 45.4031C21.3064 45.2937 21.2407 45.2281 21.1314 45.2281C21.0605 45.2239 20.9896 45.2351 20.9235 45.2609L20.4642 45.4249L20.836 46.3874L20.9673 46.3437M22.1704 45.8296L21.5907 44.9765L22.2251 44.5609L22.3017 44.6702L21.7767 44.9984L21.9517 45.2609L22.4439 44.9546L22.5095 45.0531L22.0173 45.3593L22.2142 45.6546L22.761 45.3046L22.8267 45.414L22.1704 45.8296ZM22.6845 44.3202L22.8485 44.1343C22.936 44.0468 23.0126 44.014 23.1001 44.0249C23.1985 44.0249 23.286 44.0796 23.3845 44.1671C23.4539 44.2253 23.5067 44.3007 23.5376 44.3859C23.5595 44.4515 23.5485 44.5062 23.5376 44.5609C23.5178 44.601 23.492 44.6379 23.461 44.6702L23.297 44.8452L22.6845 44.3202ZM23.5704 44.714C23.6907 44.5827 23.7126 44.4515 23.647 44.2765C23.6012 44.1881 23.538 44.1099 23.461 44.0468C23.3684 43.9592 23.249 43.9053 23.122 43.8937C22.9907 43.8827 22.8814 43.9265 22.7829 44.0359L22.4985 44.3421L23.286 45.0312L23.5704 44.7249M24.1829 43.9265L23.2751 43.3796L23.3517 43.2702L24.2595 43.8062L24.1829 43.9156M24.5439 43.3031L23.5595 42.9093L23.8439 42.2202L23.9642 42.264L23.7345 42.8327L24.0298 42.9421L24.2485 42.4281L24.3579 42.4718L24.1392 42.9968L24.4673 43.1281L24.7189 42.5593L24.8282 42.6031L24.5439 43.3031ZM24.9814 42.0999L23.9532 41.8812L23.997 41.7171L24.9485 41.389L24.1064 41.2031L24.1392 41.0827L25.1673 41.3015L25.1345 41.4546L24.1829 41.7827L25.0251 41.9687L24.9923 42.0999M24.9048 40.7874L24.9157 40.6562C24.9814 40.6562 25.0251 40.6562 25.0689 40.6343C25.1454 40.5906 25.1782 40.514 25.2001 40.4046C25.2063 40.3533 25.2025 40.3014 25.1892 40.2515C25.1673 40.1749 25.1235 40.1202 25.047 40.1202C24.9814 40.1093 24.9376 40.1202 24.9157 40.1531C24.8829 40.1859 24.861 40.2406 24.8392 40.3171L24.7845 40.4484C24.7626 40.5359 24.7298 40.6015 24.697 40.6343C24.6532 40.6999 24.5876 40.7218 24.5001 40.7109C24.4581 40.7086 24.417 40.6978 24.3793 40.679C24.3417 40.6601 24.3083 40.6338 24.2814 40.6015C24.2157 40.5359 24.1939 40.4374 24.2048 40.3171C24.2157 40.2077 24.2485 40.1202 24.3142 40.0546C24.3689 39.989 24.4564 39.9452 24.5767 39.9671L24.5657 40.0984C24.511 40.0984 24.4564 40.0984 24.4345 40.1312C24.3689 40.164 24.336 40.2406 24.3251 40.339C24.3251 40.4156 24.3251 40.4702 24.3689 40.514C24.4017 40.5577 24.4345 40.5796 24.4782 40.5796C24.5329 40.5796 24.5767 40.5796 24.5985 40.5359L24.6751 40.3499L24.7189 40.2077C24.7407 40.1421 24.7735 40.0984 24.8064 40.0546C24.861 39.9999 24.9376 39.9781 25.0251 39.9781C25.1454 39.989 25.2329 40.0437 25.2657 40.1312C25.3095 40.2187 25.3314 40.3062 25.3204 40.4265C25.3143 40.5345 25.2674 40.6361 25.1892 40.7109C25.1126 40.7765 25.0251 40.7984 24.9048 40.7874ZM3.51104 40.7218L3.54385 40.8531C3.47823 40.864 3.43448 40.8859 3.40167 40.9187C3.34698 40.9734 3.3251 41.0609 3.34698 41.1812C3.35451 41.227 3.36928 41.2713 3.39073 41.3124C3.43448 41.389 3.5001 41.4218 3.57667 41.4109C3.63135 41.3999 3.66417 41.3781 3.68604 41.3343L3.71885 41.1593V41.0171C3.71885 40.9296 3.74073 40.8531 3.75167 40.8202C3.78448 40.7546 3.8501 40.7109 3.9376 40.689C4.0251 40.6781 4.1126 40.689 4.17823 40.7546C4.25479 40.7984 4.29854 40.8859 4.32042 40.9952C4.34168 41.091 4.33012 41.1912 4.2876 41.2796C4.24385 41.3671 4.17823 41.4109 4.05792 41.4327L4.03604 41.3124C4.07644 41.2979 4.1136 41.2756 4.14542 41.2468C4.2001 41.1921 4.21104 41.1156 4.2001 41.0171C4.17823 40.9296 4.15635 40.8749 4.1126 40.8531C4.09432 40.8386 4.07315 40.8281 4.05052 40.8225C4.02789 40.8168 4.00431 40.8161 3.98135 40.8202C3.95723 40.8191 3.93341 40.826 3.91363 40.8399C3.89384 40.8537 3.8792 40.8738 3.87198 40.8968L3.86104 41.0937L3.8501 41.2359C3.84967 41.2968 3.83467 41.3568 3.80635 41.4109C3.7886 41.4464 3.76233 41.477 3.72988 41.4999C3.69744 41.5228 3.65983 41.5373 3.62042 41.5421C3.51104 41.564 3.40167 41.5312 3.34698 41.4546C3.28013 41.3807 3.23474 41.2899 3.21573 41.1921C3.2033 41.1383 3.20173 41.0825 3.21112 41.028C3.22051 40.9735 3.24067 40.9215 3.27042 40.8749C3.29758 40.835 3.33324 40.8015 3.37483 40.7769C3.41643 40.7524 3.46294 40.7373 3.51104 40.7327M3.44542 42.0781L4.4626 41.7718L4.69229 42.4827L4.57198 42.5265L4.3751 41.9468L4.06885 42.0343L4.25479 42.5812L4.13448 42.614L3.95948 42.0671L3.60948 42.1765L3.80635 42.7671L3.69698 42.7999L3.44542 42.0781ZM3.89385 43.314L4.82354 42.8218L4.93292 42.9968L4.2876 43.664L5.21729 43.5109L5.31573 43.6749L4.38604 44.1671L4.32042 44.0577L4.86729 43.7624L4.96573 43.7187L5.10792 43.6421L4.17823 43.8062L4.1126 43.6859L4.74698 43.0077L4.71417 43.0296L4.60479 43.0843C4.57336 43.1049 4.54046 43.1232 4.50635 43.139L3.95948 43.4234L3.89385 43.314ZM5.62198 44.6812C5.57823 44.6702 5.53448 44.6374 5.49073 44.5937L5.29385 44.3968L5.55635 44.1562L5.75323 44.3531C5.78597 44.3839 5.81204 44.4211 5.82979 44.4624C5.85167 44.5171 5.82979 44.5718 5.7751 44.6265C5.72042 44.6702 5.66573 44.6921 5.62198 44.6812ZM4.87823 44.7687L5.20635 44.4734L5.4251 44.7031C5.5126 44.7796 5.58917 44.8124 5.66573 44.8124C5.74696 44.8113 5.82491 44.7802 5.88448 44.7249C5.93972 44.6654 5.9709 44.5874 5.97198 44.5062C5.97198 44.4406 5.93917 44.364 5.87354 44.2984L5.54542 43.9702L4.77979 44.6702L4.88917 44.7796M5.80792 45.5999L6.36573 44.7249L7.02198 45.1187L6.95635 45.2281L6.40948 44.8999L6.24542 45.1734L6.7376 45.4687L6.68292 45.5781L6.17979 45.2718L5.99385 45.5671L6.54073 45.8952L6.4751 46.0046L5.80792 45.5999ZM7.44854 45.4249L7.7876 45.5343L7.89698 45.589C7.94073 45.6327 7.95167 45.6874 7.91885 45.7531C7.89698 45.8187 7.8751 45.8624 7.82042 45.8734L7.65635 45.8624L7.33917 45.7531L7.44854 45.4249ZM7.16417 46.289L7.30635 45.8734L7.6126 45.9718C7.66729 45.9827 7.72198 46.0046 7.73292 46.0265C7.76573 46.0593 7.77667 46.114 7.76573 46.1796L7.71104 46.3437L7.7001 46.4202V46.4531L7.86417 46.5077V46.4859L7.84229 46.4093L7.86417 46.3327L7.90792 46.2015C7.91885 46.1359 7.92979 46.0921 7.90792 46.0702C7.90792 46.0374 7.8751 46.0046 7.84229 45.9718C7.89698 45.9718 7.95167 45.9499 7.98448 45.9171C8.01729 45.8843 8.0501 45.8406 8.06104 45.7859C8.10479 45.6765 8.08292 45.5781 7.99542 45.5124C7.94338 45.4695 7.88413 45.4362 7.82042 45.414L7.3501 45.2718L7.02198 46.2452L7.16417 46.289Z" fill="#009FC5"/>
<path d="M8.586 28.5812C8.69537 28.2858 9.82194 27.4874 13.486 27.8374C13.486 27.8374 14.1094 28.2202 14.4704 28.1655C14.6891 28.1437 14.361 28.1874 14.0766 27.9577C13.8032 27.739 13.7485 27.2687 14.3719 27.2905C15.0063 27.3015 17.3579 27.4327 17.4016 27.6515C17.4454 27.8593 16.1547 27.9468 15.6844 27.9358C15.2032 27.9249 15.2469 28.1655 15.7282 28.1546C17.2266 28.089 18.8563 27.564 20.5735 28.789C20.7813 28.9312 20.0594 28.953 19.5016 28.7233C19.5016 28.7233 17.9704 28.7999 17.3141 28.6905C17.3141 28.6905 16.8219 29.1062 16.1547 29.0624C16.2422 29.2812 15.9141 30.0687 13.8579 29.4671C13.5079 29.5765 12.2719 29.7843 12.4032 29.4124C12.0751 29.4124 11.5063 29.5218 11.4188 29.3358C11.3313 29.1499 12.4251 28.8765 12.6219 28.6796C12.6219 28.6796 10.3032 28.7015 9.86569 28.5374C9.86569 28.5374 8.4985 28.8437 8.586 28.5812Z" fill="#BC715F"/>
<path d="M9.3298 31.8188C9.37355 31.7532 9.39542 31.6219 9.5048 31.6329C9.72355 31.6876 9.88761 32.1141 10.161 31.8407C10.2704 31.8188 10.3032 31.9501 10.3798 31.9719C10.4345 32.2016 10.6314 31.9173 10.7626 31.9391C11.0689 31.8079 11.4298 31.7751 11.7907 31.8298C11.7907 32.0704 11.6157 32.3219 11.397 32.4532C11.397 32.6719 11.6157 32.8251 11.6048 33.0548C11.572 33.1423 11.6048 33.2735 11.4735 33.3063C11.2985 33.2735 11.1454 33.2626 11.0032 33.1641C10.9814 33.1532 10.9704 33.1204 10.9376 33.1313C10.9157 33.2079 11.047 33.2844 11.0907 33.361C11.0032 33.5032 10.872 33.3719 10.7517 33.3719C10.7189 33.4594 10.7517 33.5579 10.6642 33.6126C10.522 33.6126 10.4892 33.4485 10.4017 33.3719C10.3032 33.4704 10.4673 33.5251 10.4892 33.6016C10.4235 33.9079 10.4345 34.2032 10.1392 34.4001L9.93136 34.4985C9.87667 34.3454 9.90949 34.1157 9.87667 33.9516C9.7673 34.1485 9.65792 34.3235 9.49386 34.4876C9.27511 34.4219 9.16574 34.1813 9.12199 33.9735C9.07738 33.8589 9.06708 33.7337 9.09232 33.6133C9.11757 33.4929 9.17727 33.3825 9.26417 33.2954C9.20949 33.186 8.99074 33.2079 8.95792 33.0329C8.6298 32.8141 8.46574 33.3938 8.25792 33.0985C8.22571 32.9525 8.22875 32.801 8.2668 32.6564C8.30484 32.5119 8.37679 32.3785 8.47667 32.2673C8.42199 32.1579 8.26886 32.1798 8.18136 32.1141C7.98449 31.9391 7.68917 31.7641 7.71105 31.4579C7.98557 31.3585 8.28278 31.3397 8.56765 31.4036C8.85251 31.4676 9.11316 31.6116 9.31886 31.8188" fill="#008737"/>
<path d="M9.61415 31.7859C9.60321 32.0375 9.77821 31.8515 9.9204 32.0046C9.81102 31.9609 9.73446 32.1906 9.62508 32.0593L9.55946 32.125C9.60321 32.2125 9.66883 32.2234 9.60321 32.3218C9.49383 32.3656 9.46102 32.2125 9.40633 32.1578C9.40633 32.1359 9.42821 32.0921 9.38446 32.0703C9.31883 32.125 9.25321 32.1468 9.16571 32.1359C9.14383 32.0921 9.08915 32.0265 9.14383 31.9828C9.23133 31.8734 9.36258 32.0265 9.42821 31.95C9.43915 31.8734 9.37352 31.7859 9.46102 31.7312C9.51571 31.7421 9.59227 31.7093 9.61415 31.7859ZM10.2923 31.9937C10.3032 32.0375 10.2704 32.1031 10.336 32.1468C10.4235 32.1031 10.511 32.1359 10.5548 32.2125C10.5548 32.2562 10.5657 32.3218 10.511 32.3437L10.3798 32.3109C10.3907 32.289 10.347 32.2781 10.336 32.2453C10.2813 32.2343 10.2376 32.2781 10.2048 32.3109C10.2376 32.3546 10.3141 32.3875 10.2923 32.4421C10.2157 32.5187 10.1829 32.3765 10.0954 32.4203C10.0298 32.3984 10.1063 32.2781 10.0188 32.2343C9.90946 32.2343 9.98602 32.4093 9.84383 32.3437C9.80008 32.289 9.75633 32.2125 9.80008 32.1578C9.83247 32.1386 9.87018 32.1303 9.90761 32.1343C9.94505 32.1382 9.98022 32.1541 10.0079 32.1796C10.0954 32.0812 10.0954 31.7312 10.3032 31.9937M9.45008 32.3546C9.50477 32.4421 9.42821 32.5515 9.50477 32.639C9.61415 32.4203 9.72352 32.6828 9.85477 32.6609C9.89852 32.7156 9.86571 32.7812 9.87665 32.8359C9.71258 32.8796 9.51571 32.9343 9.37352 32.8031L9.32977 32.8468C9.41727 32.9234 9.49383 33.0218 9.42821 33.1531C9.3079 33.175 9.11102 33.1859 9.05633 33.0546C9.02352 32.9453 9.1329 32.8796 9.01258 32.7921C8.93602 32.9015 8.93602 33.0328 8.77196 32.9343C8.725 32.9088 8.6897 32.8661 8.6734 32.8151C8.6571 32.7642 8.66106 32.709 8.68446 32.6609C8.79383 32.4859 8.99071 32.6609 9.10008 32.5843C9.12196 32.4312 9.06727 32.3 9.20946 32.2234C9.31883 32.2015 9.37352 32.289 9.45008 32.3546Z" fill="#FFFF00"/>
<path d="M9.90948 32.4532C9.8548 32.7048 9.66886 32.4423 9.58136 32.4313C9.69073 32.2126 9.7673 32.497 9.90948 32.4532ZM10.5001 32.7266C10.3689 32.7595 10.3907 32.5954 10.3251 32.5298L10.3798 32.486C10.4235 32.5407 10.4564 32.6501 10.5001 32.7266Z" fill="white"/>
<path d="M10.3251 32.6718C10.3579 32.7593 10.2376 32.8358 10.347 32.8905L10.4345 32.814C10.5329 32.8358 10.6313 32.8577 10.697 32.9452C10.7626 33.1312 10.5767 33.1312 10.4782 33.1858H10.3688C10.3907 33.1202 10.3142 33.0983 10.3032 33.0765C10.2822 33.069 10.2594 33.0682 10.2379 33.0741C10.2164 33.0799 10.1972 33.0922 10.1829 33.1093C10.2048 33.2187 10.347 33.328 10.2048 33.4265C10.0735 33.4265 9.87666 33.4702 9.8876 33.2952C9.84385 33.1858 10.0188 33.0437 9.83291 33.0327C9.76729 33.1749 9.70166 33.2952 9.5376 33.1749L9.55947 32.978C9.7126 32.978 9.89854 33.0108 9.96416 32.8358C10.0079 32.7155 9.8876 32.5952 9.99697 32.5077C10.161 32.464 10.2485 32.5733 10.3251 32.6718Z" fill="#FFFF00"/>
<path d="M10.2157 32.9563C10.2485 33.0547 10.1501 33.0657 10.0954 33.1094C10.0298 33.1094 9.98603 33.0876 9.94228 33.0438C9.90947 32.9344 9.99697 32.9126 10.0517 32.8688C10.1282 32.836 10.161 32.9235 10.2157 32.9563Z" fill="black"/>
<path d="M10.1173 33.0218C10.1063 33.0437 10.0735 33.0328 10.0517 33.0437L10.0298 32.9343C10.0845 32.9343 10.1392 32.9453 10.1173 33.0218Z" fill="white"/>
</g>
<defs>
<clipPath id="clip0_1_73974">
<rect width="74.6667" height="56" fill="white" transform="translate(0 9.375)"/>
</clipPath>
</defs>
</svg>
