<svg width="75" height="75" viewBox="0 0 75 75" fill="none" xmlns="http://www.w3.org/2000/svg">
<rect width="74.6667" height="74.75" fill="white"/>
<g clip-path="url(#clip0_1_74095)">
<path d="M74.6667 28.0417H0V46.7084H74.6667V28.0417Z" fill="white"/>
<path d="M74.6667 46.7083H0V65.3749H74.6667V46.7083Z" fill="black"/>
<path fill-rule="evenodd" clip-rule="evenodd" d="M0 9.375H74.6667V28.0417H0V9.375Z" fill="#FF0000"/>
<path fill-rule="evenodd" clip-rule="evenodd" d="M23.555 42.1584L20.195 39.7201L16.8466 42.1817L18.095 38.1917L14.7466 35.7184L18.8766 35.6834L20.16 31.7051L21.4783 35.6717H25.6083L22.2833 38.1801L23.555 42.1701V42.1584ZM59.4416 42.1584L56.0816 39.7201L52.7333 42.1817L53.9816 38.1917L50.645 35.7184L54.775 35.6834L56.0583 31.7051L57.365 35.6717H61.495L58.17 38.1684L59.4533 42.1584H59.4416Z" fill="#009900"/>
</g>
<defs>
<clipPath id="clip0_1_74095">
<rect width="74.6667" height="56" fill="white" transform="translate(0 9.375)"/>
</clipPath>
</defs>
</svg>
