<svg width="75" height="75" viewBox="0 0 75 75" fill="none" xmlns="http://www.w3.org/2000/svg">
<rect width="74.6667" height="74.75" fill="white"/>
<g clip-path="url(#clip0_1_74083)">
<path fill-rule="evenodd" clip-rule="evenodd" d="M-4.66675 9.375H79.3333V65.375H-4.66675V9.375Z" fill="#3E5EB9"/>
<path fill-rule="evenodd" clip-rule="evenodd" d="M-4.66675 19.3718H79.3333V55.3781H-4.66675V19.3718Z" fill="#FFD900"/>
<path fill-rule="evenodd" clip-rule="evenodd" d="M-4.66675 23.375H79.3333V51.375H-4.66675V23.375Z" fill="#B10C0C"/>
<path d="M71.0754 36.7734H4.34574C3.99538 36.7734 3.71136 37.0428 3.71136 37.375C3.71136 37.7072 3.99538 37.9766 4.34574 37.9766H71.0754C71.4258 37.9766 71.7098 37.7072 71.7098 37.375C71.7098 37.0428 71.4258 36.7734 71.0754 36.7734Z" fill="#FFD900" stroke="black" stroke-width="0.164062"/>
<path fill-rule="evenodd" clip-rule="evenodd" d="M64.3315 30.9741L60.9309 32.173L64.3315 33.3718L67.732 32.173L64.3315 30.9741Z" fill="white" stroke="black" stroke-width="0.151422"/>
<path d="M62.0672 31.7712H12.9957C12.7401 31.7712 12.5328 31.9507 12.5328 32.172C12.5328 32.3933 12.7401 32.5727 12.9957 32.5727H62.0672C62.3228 32.5727 62.53 32.3933 62.53 32.172C62.53 31.9507 62.3228 31.7712 62.0672 31.7712Z" fill="#FFD900" stroke="black" stroke-width="0.146752"/>
<path d="M61.332 32.5727C61.5296 32.5727 61.7271 32.3695 61.7271 32.1663C61.7271 31.9631 61.5296 31.7712 61.332 31.7712" stroke="black" stroke-width="0.152398"/>
<path d="M60.9369 32.5727C61.1345 32.5727 61.332 32.3695 61.332 32.1663C61.332 31.9631 61.1345 31.7712 60.9369 31.7712" stroke="black" stroke-width="0.152398"/>
<path d="M60.5305 32.584C60.7281 32.584 60.9256 32.3808 60.9256 32.1776C60.9256 31.9744 60.7281 31.7825 60.5305 31.7825" stroke="black" stroke-width="0.152398"/>
<path fill-rule="evenodd" clip-rule="evenodd" d="M61.1269 33.3694L57.7263 34.5682L61.1269 35.7671L64.5275 34.5682L61.1269 33.3694Z" fill="white" stroke="black" stroke-width="0.151422"/>
<path d="M58.8626 34.1665H9.79108C9.53547 34.1665 9.32825 34.3459 9.32825 34.5672C9.32825 34.7886 9.53547 34.968 9.79108 34.968H58.8626C59.1182 34.968 59.3254 34.7886 59.3254 34.5672C59.3254 34.3459 59.1182 34.1665 58.8626 34.1665Z" fill="#FFD900" stroke="black" stroke-width="0.146752"/>
<path d="M58.1275 34.968C58.325 34.968 58.5226 34.7648 58.5226 34.5616C58.5226 34.3584 58.325 34.1665 58.1275 34.1665" stroke="black" stroke-width="0.152398"/>
<path d="M57.7324 34.968C57.9299 34.968 58.1275 34.7648 58.1275 34.5616C58.1275 34.3584 57.9299 34.1665 57.7324 34.1665" stroke="black" stroke-width="0.152398"/>
<path d="M57.326 34.9792C57.5235 34.9792 57.7211 34.776 57.7211 34.5728C57.7211 34.3696 57.5235 34.1777 57.326 34.1777" stroke="black" stroke-width="0.152398"/>
<path fill-rule="evenodd" clip-rule="evenodd" d="M66.92 36.9038C66.3218 37.9497 67.3877 36.558 70.0089 38.3124C70.4874 38.6329 70.9116 39.4933 70.9116 40.0922C70.7919 40.0078 70.6941 39.8391 70.5635 39.7126C70.3678 39.9066 70.7484 40.7754 70.8028 41.1887C70.3895 40.9609 70.433 40.8513 70.2916 40.5645C70.3243 40.9019 70.2264 41.8466 70.3895 42.2009C70.0632 42.1165 70.085 41.855 69.9218 41.796C70.0306 42.2093 69.8131 42.6479 69.8783 43.1118C69.6826 42.9262 69.4868 42.7744 69.3998 42.6985C69.3889 42.9178 69.0409 43.4914 69.03 43.7022C68.8668 43.601 68.8233 43.4492 68.8016 43.348C68.6058 43.601 67.8989 44.5289 67.8554 44.7988C67.3115 44.318 65.9194 43.154 65.7345 42.5298C65.5713 42.8841 65.3429 43.0022 64.8861 43.2636C64.7012 42.2768 64.016 41.1718 64.3858 40.3283C64.1355 40.4844 63.8959 40.6505 63.668 40.826C63.825 40.0319 64.1957 39.2723 64.756 38.5966C65.3162 37.9209 66.0536 37.3441 66.92 36.9038Z" fill="#3D5DA7" stroke="black" stroke-width="0.134093"/>
<path fill-rule="evenodd" clip-rule="evenodd" d="M64.6661 42.0999C64.9177 41.5968 65.1474 41.4436 65.3114 41.1155C65.5958 40.5468 65.6395 40.0874 65.8911 40.153C66.1427 40.2186 66.1427 40.4593 65.8145 41.0171C65.4864 41.564 65.3333 41.6952 64.6661 42.0999ZM66.3614 43.303C66.3286 42.9093 66.4489 42.7561 66.427 42.5046C66.3942 42.0671 66.2083 41.7718 66.438 41.7499C66.6677 41.728 66.777 41.8811 66.777 42.3186C66.777 42.7561 66.7114 42.8655 66.3614 43.303ZM67.652 44.0468C67.5536 43.4999 67.6302 43.2811 67.5645 42.9311C67.4552 42.3186 67.2364 41.9249 67.4552 41.8702C67.663 41.8155 67.7833 42.0124 67.8708 42.6249C67.9474 43.2374 67.9036 43.4124 67.652 44.0468ZM68.9974 40.2952C68.6802 40.0655 68.4942 40.0436 68.2974 39.8905C67.9364 39.6171 67.7505 39.3327 67.6411 39.4749C67.5317 39.6171 67.6083 39.7702 67.9802 40.0218C68.363 40.2733 68.4833 40.2952 68.9974 40.2952ZM68.7786 42.078C68.6145 41.728 68.4395 41.6405 68.3302 41.4218C68.1333 41.028 68.1333 40.689 67.9364 40.7765C67.7177 40.864 67.7177 41.039 67.9364 41.4218C68.1552 41.7936 68.2645 41.8593 68.7786 42.078Z" fill="#A70000"/>
<path fill-rule="evenodd" clip-rule="evenodd" d="M6.64495 37.9136C6.60764 37.6037 6.68226 37.5693 6.48325 37.3397C6.75689 37.4545 6.76933 37.7644 7.10516 37.5463C7.22954 37.4774 7.27929 37.4774 7.13004 37.1445C7.4783 37.1445 8.62261 37.5463 8.79674 37.5578C9.28183 37.5807 10.1525 37.0527 10.7495 37.6955C11.3341 38.2809 11.1351 38.8893 11.1351 39.7043C10.9112 39.5895 11.0107 39.5436 10.762 39.2452C10.961 39.9569 10.762 41.2425 10.762 42.0001C10.6625 41.8164 10.6749 41.8853 10.5878 41.7017C10.3391 42.3904 10.0406 42.5396 10.0406 43.3431C9.95349 43.0332 10.0406 43.0906 9.94105 42.9299C9.69229 43.4465 8.07533 43.8941 8.69724 44.4222C8.14996 44.1007 7.9012 44.1352 7.64 43.8367C7.52806 43.9056 7.44099 44.0434 7.34149 44.227C6.34644 43.7679 6.71958 42.7922 5.93597 42.1379C5.81159 42.4133 5.86135 42.3674 5.71209 42.8151C5.56283 42.1953 5.51308 41.7935 5.33895 41.3458C5.18969 41.5983 5.21456 41.495 4.92849 41.8853C4.8041 41.1277 4.62997 40.944 4.7046 40.4505C4.40609 40.6571 4.60509 40.5652 4.30658 40.8293C4.58022 38.8778 5.78672 37.4545 6.64495 37.9136Z" fill="#3D5DA7" stroke="black" stroke-width="0.167285"/>
<path fill-rule="evenodd" clip-rule="evenodd" d="M5.4285 41.072C5.68006 40.4485 5.90975 40.2517 6.08475 39.847C6.36912 39.147 6.41287 38.5782 6.6535 38.6657C6.90506 38.7532 6.89412 39.0376 6.566 39.7376C6.34359 40.2952 5.94386 40.7641 5.4285 41.072ZM6.391 42.636C6.50037 42.0782 6.6535 41.8704 6.71912 41.5095C6.8285 40.8751 6.77381 40.4048 7.0035 40.4267C7.22225 40.4595 7.27693 40.6892 7.12381 41.3235C6.97068 41.9579 6.87225 42.1001 6.391 42.636ZM7.53943 43.7188C7.57225 43.172 7.7035 42.9642 7.71444 42.6251C7.74725 42.0017 7.63787 41.5642 7.84568 41.5642C8.06443 41.5642 8.141 41.7829 8.07537 42.3954C8.00975 43.0079 7.93318 43.161 7.53943 43.7079V43.7188ZM10.0222 40.1751C9.541 39.7048 9.25662 39.6173 8.95037 39.3001C8.41443 38.7751 8.15193 38.272 7.966 38.4579C7.76912 38.6329 7.88943 38.8954 8.45818 39.4095C9.02693 39.9126 9.22381 39.9782 10.0222 40.1751ZM9.72693 41.9907C9.42068 41.5314 9.20193 41.4001 9.00506 41.0938C8.65506 40.5579 8.53475 40.0985 8.34881 40.2188C8.13006 40.3282 8.18475 40.5688 8.56756 41.0938C8.93944 41.6079 9.09256 41.6954 9.73787 41.9907H9.72693Z" fill="#A70000"/>
<path fill-rule="evenodd" clip-rule="evenodd" d="M57.3325 37.3766C53.3363 41.3728 48.0006 49.3786 37.329 49.3786C27.9971 49.3786 21.3293 41.3795 17.3331 37.3766C21.3293 33.3804 27.9971 25.3813 37.329 25.3813C48.0006 25.3813 53.3288 33.3737 57.3325 37.3766Z" fill="white" stroke="black" stroke-width="0.149931"/>
<path fill-rule="evenodd" clip-rule="evenodd" d="M35.9332 29.5437C37.0051 30.7468 36.1082 31.228 37.2457 31.3046C38.427 31.3921 37.7489 32.5733 38.7551 32.6171C39.4551 32.639 38.6786 35.428 39.3567 36.3577C40.0457 37.3093 40.6145 36.6312 40.6254 37.3312C40.6364 38.0421 38.7661 37.9765 38.7332 40.1749C38.6786 41.4546 37.1473 41.5421 37.0707 42.3624C36.9832 43.128 40.0786 43.5655 40.0457 44.2546C40.002 44.9437 36.6879 44.8343 36.5457 45.6108C36.4801 46.3218 41.0957 46.9015 41.4676 48.9358C40.7786 49.1546 38.8098 49.3733 37.3332 49.3733C28.0036 49.3733 21.3317 41.378 17.3286 37.3749C21.3317 33.3718 28.0036 25.3765 37.3332 25.3765C37.3332 25.3765 34.5661 27.903 35.9332 29.5546V29.5437Z" fill="black"/>
<path fill-rule="evenodd" clip-rule="evenodd" d="M24.7988 33.1094H25.7723V36.3031H24.7988V33.1094ZM24.7988 38.4469H25.7723V41.6406H24.7988V38.4469ZM26.7348 33.1094H27.7082V36.3031H26.7348V33.1094ZM26.7348 38.4469H27.7082V41.6406H26.7348V38.4469ZM28.6926 33.1094H29.6551V36.3031H28.6926V33.1094ZM28.6926 38.4469H29.6551V41.6406H28.6926V38.4469ZM30.6285 33.1094H31.602V36.3031H30.6285V33.1094ZM30.6285 38.4469H31.602V41.6406H30.6285V38.4469ZM32.5645 33.1094H33.5379V36.3031H32.5645V33.1094ZM32.5645 38.4469H33.5379V41.6406H32.5645V38.4469ZM34.5113 33.1094H35.4738V36.3031H34.5113V33.1094ZM34.5113 38.4469H35.4738V41.6406H34.5113V38.4469Z" fill="white"/>
<path fill-rule="evenodd" clip-rule="evenodd" d="M39.466 33.1094H40.4394V36.3031H39.466V33.1094ZM39.466 38.4469H40.4394V41.6406H39.466V38.4469ZM41.4019 33.1094H42.3754V36.3031H41.4019V33.1094ZM41.4019 38.4469H42.3754V41.6406H41.4019V38.4469ZM43.3488 33.1094H44.3113V36.3031H43.3488V33.1094ZM43.3488 38.4469H44.3113V41.6406H43.3488V38.4469ZM45.2848 33.1094H46.2582V36.3031H45.2738L45.2848 33.1094ZM45.2848 38.4469H46.2582V41.6406H45.2738L45.2848 38.4469ZM47.2207 33.1094H48.1941V36.3031H47.2207V33.1094ZM47.2207 38.4469H48.1941V41.6406H47.2207V38.4469ZM49.1676 33.1094H50.1301V36.3031H49.1676V33.1094ZM49.1676 38.4469H50.1301V41.6406H49.1676V38.4469Z" fill="black"/>
<path fill-rule="evenodd" clip-rule="evenodd" d="M30.8558 27.5078C30.3087 28.5758 31.8305 27.1547 34.2177 28.9462C34.8174 29.5949 35.1932 30.3772 35.3019 31.2029C34.7946 31.0995 33.8895 30.5999 33.8895 30.5999C33.8895 30.5999 34.9438 31.6507 34.9438 32.8738C34.5758 32.6413 34.3868 32.6757 34.2674 32.3915C34.2674 32.7791 34.5957 33.0375 34.5957 33.649C34.3718 33.4662 34.1287 33.3018 33.8696 33.1581C34.2177 33.7696 33.223 34.9582 33.7204 35.3544C32.855 35.2252 31.9598 34.6654 31.6117 34.0624C31.4227 34.183 31.4128 34.3811 31.3929 34.5965C31.4227 34.6137 30.07 33.5887 30.1993 33.1925C30.0103 33.4509 29.9904 33.5887 29.9506 33.8816C29.4241 33.4326 29.0375 32.8756 28.8267 32.2623L28.3691 32.8394C28.21 31.8316 28.21 31.8661 28.5382 31.0048C28.3093 31.1641 28.0902 31.3337 27.8817 31.5129C28.0248 30.7019 28.3635 29.9261 28.8759 29.236C29.3884 28.5459 30.063 27.957 30.8558 27.5078Z" fill="#3D5DA7" stroke="black" stroke-width="0.129582"/>
<path fill-rule="evenodd" clip-rule="evenodd" d="M29.5019 32.7376C29.5894 32.0048 29.7754 31.7204 29.83 31.2501C29.9394 30.4079 29.8191 29.8063 30.1144 29.8173C30.4097 29.8282 30.4972 30.1454 30.355 30.9767C30.2019 31.8079 30.0816 32.0157 29.5019 32.7376ZM31.0441 34.0938C30.9894 33.4704 31.0988 33.2079 31.066 32.8032C31.0004 32.1032 30.7816 31.622 31.0332 31.5782C31.2957 31.5345 31.4269 31.7642 31.4488 32.486C31.4816 33.197 31.416 33.3829 31.0441 34.0938ZM33.4613 35.1876C33.1988 34.6626 32.9691 34.4985 32.805 34.1485C32.4988 33.536 32.4441 33.0438 32.2144 33.1313C31.9738 33.2188 31.9957 33.4813 32.3238 34.0829C32.6519 34.6735 32.816 34.7938 33.4613 35.1985V35.1876ZM34.2925 30.3751C33.6363 30.0142 33.2863 30.0142 32.8488 29.7845C32.0941 29.3907 31.6457 28.9423 31.4925 29.1829C31.3394 29.4345 31.5472 29.6751 32.3347 30.036C33.1113 30.397 33.3519 30.4188 34.3035 30.3642L34.2925 30.3751ZM34.5441 32.3876C34.0519 31.9829 33.7675 31.9173 33.4504 31.6548C32.9035 31.2063 32.6191 30.7579 32.4332 30.9329C32.2582 31.1188 32.3785 31.3595 32.9582 31.786C33.5379 32.2235 33.7347 32.2782 34.5441 32.3876Z" fill="#A70000"/>
</g>
<defs>
<clipPath id="clip0_1_74083">
<rect width="74.6667" height="56" fill="white" transform="translate(0 9.375)"/>
</clipPath>
</defs>
</svg>
