<svg width="75" height="75" viewBox="0 0 75 75" fill="none" xmlns="http://www.w3.org/2000/svg">
<rect width="74.6667" height="74.75" fill="white"/>
<g clip-path="url(#clip0_1_74171)">
<path d="M74.6667 65.375V9.375H0V65.375H74.6667Z" fill="#000066"/>
<path d="M67.0251 32.6733C67.0251 40.105 65.8351 48.1317 56.1751 51.9583C46.5384 48.1317 45.3601 40.105 45.3134 32.6733H67.0251Z" fill="#8FC5FF" stroke="white" stroke-width="0.501667"/>
<path d="M56.1634 51.9233C59.8357 50.6376 62.897 48.0296 64.7501 44.6083H63.8401C63.5718 44.5617 54.5768 43.6983 53.4918 43.2433C52.5701 42.9167 49.0118 43.5583 47.3784 44.1533C49.1826 47.7908 52.3407 50.5761 56.1751 51.9117L56.1634 51.9233Z" fill="#366CC9" stroke="black" stroke-width="0.501667"/>
<path d="M49.4201 47.3616H49.9684C50.0967 47.3616 50.0967 47.3616 50.1434 47.2216C50.1901 47.0816 50.3301 47.1283 50.4234 47.175C50.5051 47.2216 50.6917 47.175 50.7734 47.0816C50.8784 46.9883 50.8784 46.9883 50.9717 47.0816C51.0534 47.175 51.1001 47.1283 51.2051 47.0816C51.2401 47.0816 51.4267 46.9883 51.4734 46.8483C51.5084 46.72 51.6484 46.6733 51.7067 46.7666C51.7417 46.86 51.8234 46.86 51.9284 46.86C52.0101 46.86 52.0101 46.895 52.0101 47.035C52.0101 47.1283 52.0101 47.175 52.2434 46.9883C52.4301 47.175 52.4767 47.0816 52.4767 46.895C52.4767 46.72 52.4767 45.985 52.3834 45.9383C52.2901 45.8916 52.2434 45.5766 52.1967 45.355C52.1967 44.8883 52.1967 44.8883 51.7417 44.655C51.7417 44.5383 51.6484 44.48 51.2751 44.48C51.3334 44.4333 51.2751 44.305 51.1934 44.2466C51.1001 44.2116 51.1001 44.165 51.1934 43.9783C51.2867 43.9783 51.4734 43.9783 51.5084 43.8383C51.6017 43.7566 51.8817 43.7566 52.0567 43.8383C52.2434 43.9316 52.4301 43.9316 52.7451 43.8383L53.2934 43.57C53.5267 43.43 53.5617 43.3833 53.5617 43.2083C53.5617 42.7416 53.4334 42.2983 53.3284 42.065C53.2117 41.8316 53.2117 41.5983 53.0134 41.2016C52.8384 40.8283 52.8384 40.735 52.6634 40.5133C52.5584 40.42 52.5117 40.3733 52.5117 40.245C52.4982 40.0648 52.4144 39.8972 52.2784 39.7783C51.9284 39.4633 51.8351 38.4133 51.6484 37.6433C51.5551 37.1766 51.6484 36.1266 51.4734 35.9516C51.1467 35.7183 51.0067 35.765 50.7734 35.6833C50.5984 35.45 50.5517 35.0416 50.3767 34.6333C50.1434 34.68 50.0034 34.9016 49.8751 34.9833C49.7351 35.0883 49.6884 35.0883 49.6884 35.31C49.6884 35.4966 49.5484 35.7766 49.3734 36.1266C49.1867 36.5 48.7784 36.36 48.4517 36.8616C47.8217 36.0916 47.8217 35.8583 47.7751 35.6366C47.7751 35.4033 47.6351 35.3566 47.2734 35.0416V34.3416C46.9467 34.1083 46.7717 34.1666 46.6317 34.3416C46.4917 34.4816 46.3984 34.7033 46.1767 34.8083C46.0834 34.9833 45.7101 35.345 45.4417 35.8583C45.7217 39.9533 46.6317 44.06 49.4084 47.35L49.4201 47.3616Z" fill="#5D3100" stroke="black" stroke-width="0.0466667"/>
<path d="M67.0251 32.6734C67.0251 29.8384 66.8851 27.0968 66.9318 24.7401C63.4999 23.4055 59.8455 22.7364 56.1634 22.7684C53.7484 22.7684 49.0001 23.1301 45.4068 24.7284C45.4884 27.0968 45.3134 29.8384 45.3134 32.6618L67.0251 32.6734Z" fill="#FFFF00" stroke="white" stroke-width="0.501667"/>
<path d="M45.9084 35.9051C46.0251 36.0917 46.2468 36.4067 46.2584 36.6051C46.3518 36.4184 46.4218 36.3484 46.4334 36.2434C46.4334 36.1267 46.5851 35.9284 46.5267 35.8117C46.4801 35.6951 46.4451 35.6134 46.5734 35.6951C46.7018 35.7767 46.6784 35.9284 46.6551 36.1384C46.5734 36.7217 46.3401 36.8384 46.3051 37.2234C46.6434 38.0401 46.3867 38.3434 46.7717 39.1601C46.8301 39.1834 46.9818 39.1251 47.0284 39.1367C47.2384 38.9967 47.3784 39.0317 47.6701 39.1017C47.9501 39.1601 48.1017 39.3584 48.1017 39.5451C48.1017 39.7317 48.1017 39.7667 48.1717 39.8717C48.2301 39.9651 48.3351 40.1401 48.3234 40.2684C48.2884 40.3851 48.3351 40.4551 48.3818 40.5017C48.4168 40.5601 48.3584 40.7117 48.3351 40.7817C48.3001 40.8517 48.3117 40.9801 48.4517 41.1551C48.5917 41.3301 48.9184 42.0767 48.9184 42.5084C48.9184 42.9634 48.9534 43.1617 49.1284 43.2434C49.3034 43.3251 49.3617 43.3951 49.3384 43.5817C49.3151 43.7567 49.4201 44.7484 49.4434 44.9117C49.4551 45.0634 49.5251 45.0284 49.6068 45.1101C49.6768 45.1917 49.7234 45.2851 49.9568 45.2851C50.2018 45.2851 50.4234 45.2617 50.5634 45.2851C50.7967 45.5767 50.9134 45.9851 50.9717 46.2301C51.0301 46.4867 51.0184 46.8134 51.0884 46.8134C51.1817 46.8134 51.2634 46.8134 51.2401 46.5217C51.2168 46.2184 51.1934 46.1717 51.0884 46.0084C50.9717 45.8567 50.9134 45.7751 50.9717 45.6934C51.0301 45.6001 51.0417 45.4601 51.0301 45.3317C51.0067 45.2151 50.9601 45.0284 51.1701 45.2617L51.4851 45.6467C51.5434 45.7167 51.5667 45.8801 51.5551 46.0317C51.5434 46.1717 51.5551 46.2301 51.6601 46.1484C51.7417 46.0784 51.8351 46.2067 51.7767 46.3584C51.7417 46.5101 51.8117 46.6034 51.9517 46.6617C52.0917 46.7084 52.1501 46.7434 52.1851 46.8484C52.2201 46.9417 52.3368 47.0001 52.3368 46.7784C52.3252 46.5051 52.2782 46.2345 52.1967 45.9734C52.1384 45.8334 52.0917 45.5301 52.0801 45.3434C52.0567 45.1684 52.0334 45.1217 51.9517 45.0984C51.8701 45.0634 51.7884 44.9817 51.7767 44.9117C51.7767 44.8301 51.6951 44.7951 51.6484 44.7951C51.5901 44.7951 51.5434 44.7601 51.5084 44.7017C51.4851 44.6317 51.4501 44.6317 51.3918 44.6317C51.3334 44.6201 51.2401 44.6551 51.2051 44.5617C51.1817 44.4684 51.1351 44.3284 51.0767 44.2584C51.0184 44.1884 50.9717 44.1534 50.9601 43.8851C50.9601 43.6167 50.9601 43.5817 50.8668 43.4884C50.7734 43.3951 50.6334 43.1384 50.5751 43.0451C50.5284 42.9284 50.4584 42.8234 50.4584 43.0451C50.4584 43.2784 50.4584 43.3951 50.6101 43.4767C50.7501 43.5584 50.7851 43.5584 50.7267 43.6867C50.6567 43.8034 50.7267 43.8851 50.7501 43.9667C50.7851 44.0484 50.8201 44.1301 50.7501 44.2001C50.6801 44.2934 50.6101 44.2701 50.6217 44.1417C50.6223 44.0063 50.586 43.8732 50.5168 43.7567C50.4701 43.6401 50.4118 43.5701 50.3418 43.6401C50.2717 43.6867 50.2134 43.6167 50.2601 43.5701C50.3184 43.5234 50.2951 43.4884 50.2601 43.4534C50.2367 43.4301 50.2134 43.3834 50.2717 43.3134C50.3301 43.2434 50.3301 43.2084 50.2951 43.0451C50.2601 42.8817 50.0034 42.0417 49.8868 41.8551C49.7701 41.6567 49.7817 41.5284 49.9217 41.7034C50.0734 41.8901 50.2134 42.0534 50.2368 42.2167C50.2368 42.3801 50.2717 42.4734 50.3184 42.5201C50.3767 42.5784 50.4001 42.5667 50.4351 42.4267C50.4351 42.2984 50.5517 42.3451 50.3884 42.1001C50.2134 41.8551 49.9101 41.4351 49.7818 40.6767C49.6651 39.9301 49.6184 39.4517 49.5017 39.2534C49.3851 39.0434 49.3501 38.9967 49.3384 38.8101C49.3267 38.6234 49.3384 38.4251 49.2568 38.2851C49.1751 38.1451 49.1167 38.1217 49.1051 38.3317C49.0934 38.5417 49.1051 39.0317 49.1751 39.1017C49.2451 39.1834 49.1984 39.4051 49.1751 39.5101C49.1518 39.6267 48.9768 39.7551 49.3734 39.9884C49.5251 40.0934 49.4901 40.2217 49.4901 40.2917C49.4551 40.3851 49.4318 40.3734 49.3501 40.2451C49.2684 40.1167 49.1867 40.0001 49.1051 39.9417C49.0234 39.8834 49.0001 39.8251 49.0234 39.6501C49.0468 39.4751 49.0584 39.3584 49.0234 39.3001C48.9768 39.2534 48.9534 39.2884 48.9184 39.3934C48.8951 39.4867 48.8834 39.7434 48.8134 39.8134C48.7551 39.8834 48.7551 39.8367 48.7201 39.6851C48.6734 39.5334 48.7317 39.2884 48.8134 39.0201C48.8951 38.7634 48.9534 38.4601 48.8834 38.1101C48.8134 37.7601 48.8367 37.6434 48.5801 37.3517C48.3001 37.0484 47.9851 36.7684 47.8684 36.4067C47.7284 36.0334 47.7051 35.7067 47.5534 35.5434C47.4221 35.3754 47.2645 35.2296 47.0868 35.1117V34.5634C47.0868 34.4234 47.0284 34.3534 46.8767 34.3767C46.7251 34.4001 46.6201 34.5284 46.5267 34.7034C46.4334 34.8901 46.3634 34.8084 46.2234 35.1117C46.0834 35.4151 45.9201 35.5784 45.9201 35.9051H45.9084Z" fill="#CF6200"/>
<path d="M46.7601 39.3701C46.8768 39.4401 46.9584 39.4751 47.1101 39.4051C47.2384 39.3351 47.4018 39.1251 47.6118 39.3351C47.7891 39.5574 47.8876 39.8324 47.8918 40.1168C47.8918 40.3851 47.8918 40.8751 48.1951 41.1434C48.4984 41.4118 48.6501 41.7034 48.6618 42.0534C48.6861 42.4075 48.7407 42.7587 48.8251 43.1034C48.8718 43.2434 48.9418 43.4068 49.0468 43.5118C49.1284 43.6051 49.2101 43.8734 49.2218 44.1534C49.2334 44.4451 49.1868 44.6318 49.2218 44.7834C49.2684 44.9234 49.2218 45.0401 49.1284 44.9818C49.0118 44.9234 48.9884 44.8651 48.9184 44.7484C48.8484 44.6318 48.8018 44.6434 48.8601 44.8301C48.9184 45.0168 49.0934 45.1801 49.2451 45.1801C49.3968 45.1801 49.4434 45.1918 49.5484 45.2968C49.6418 45.3901 49.6534 45.4368 49.8168 45.4368C49.9801 45.4368 50.0034 45.4368 50.1668 45.4834C50.3184 45.5184 50.3184 45.5068 50.4001 45.4834C50.4818 45.4484 50.5634 45.5301 50.6218 45.6818C50.6684 45.8334 50.8201 46.2651 50.8201 46.3818C50.8201 46.4984 50.8201 46.6151 50.9018 46.7318C50.9834 46.8601 50.9601 46.9651 50.8668 46.9068C50.7851 46.8368 50.7734 46.8484 50.7151 46.8718C50.6451 46.8951 50.5984 46.8484 50.4934 46.7784C50.4001 46.7318 50.4584 46.7434 50.3651 46.6034C50.2718 46.4518 50.2134 46.4051 50.2134 46.5218C50.2134 46.6384 50.1901 46.7551 50.1201 46.6851C50.0501 46.6268 50.0151 46.6268 49.9568 46.6851C49.8984 46.7551 49.8751 46.8018 49.8051 46.6851C49.7351 46.5684 49.6534 46.5684 49.5718 46.5334C49.5134 46.5218 49.5134 46.5218 49.4784 46.4168C49.4434 46.3001 49.3268 46.2768 49.2451 46.2768C49.1401 46.2768 49.0934 46.2301 49.0818 46.1601C49.0818 46.0901 49.0118 46.0434 48.9651 46.0084C48.9068 45.9734 48.9418 45.8918 48.9301 45.8101C48.9301 45.7284 48.8484 45.7518 48.8018 45.7401C48.7434 45.7168 48.7201 45.7284 48.7201 45.6001C48.7201 45.4834 48.6618 45.4484 48.6384 45.3668C48.5918 45.2734 48.6384 45.1918 48.6618 45.1101C48.6734 44.9934 48.6618 44.9468 48.5918 44.8768C48.5218 44.7834 48.5918 44.7018 48.3934 44.5268C48.1951 44.3751 48.1018 44.5151 48.0434 44.1301C48.0099 43.6762 47.9157 43.2289 47.7634 42.8001C47.6468 42.6834 47.5884 42.5668 47.4718 42.5318C47.3551 42.4968 47.3084 42.5318 47.2968 42.2984C47.2851 42.0651 47.2151 41.7851 47.0634 41.6451L46.7951 41.3884C46.7251 41.3418 46.6901 41.2251 46.7951 41.0384C46.9001 40.8284 46.8534 40.5484 46.8418 40.4201C46.8301 40.3034 46.7951 40.1168 46.8184 39.9768C46.8418 39.8368 46.8184 39.6618 46.7951 39.5684C46.7601 39.4868 46.7134 39.4518 46.7718 39.3701H46.7601ZM49.6184 36.0101C49.4634 36.2153 49.2786 36.3962 49.0701 36.5468C48.8484 36.7101 48.5684 36.8268 48.7201 37.0951C48.8834 37.3634 49.0118 37.3984 49.0351 37.5968C49.0701 37.8068 49.1284 37.9818 49.2684 38.0284C49.4434 38.0751 49.5018 38.0518 49.5018 38.3784C49.5018 38.6934 49.5018 38.8451 49.6418 38.9618C49.7818 39.0784 49.7584 39.2184 49.8284 39.5101C49.8984 39.8134 49.8984 40.4668 50.0851 40.9101C50.2601 41.3418 50.7034 42.1934 50.6451 42.3568C50.5984 42.5318 50.5518 42.6601 50.7268 42.8701C50.9251 43.0684 51.0418 43.3718 51.0768 43.5468C51.0768 43.7218 51.1118 43.7801 51.3101 43.7218C51.4395 43.6892 51.5568 43.6204 51.6484 43.5234C51.7068 43.4418 51.8351 43.4534 52.0101 43.5468C52.1851 43.6518 52.4534 43.7334 52.6168 43.6518C52.7684 43.5468 52.8501 43.4068 52.9901 43.4068C53.2118 43.2434 53.2934 42.9168 53.3401 42.8234C53.3868 42.7301 53.3518 42.7301 53.2584 42.6368C53.1651 42.5434 53.2118 42.3801 53.2001 42.2284C53.1768 42.0651 53.1184 41.8201 52.9318 41.4701C52.7451 41.1201 52.6168 40.7001 52.5001 40.5951C52.3834 40.4784 52.3134 40.2101 52.3018 40.0818C52.2901 39.9651 52.1384 39.8484 52.0451 39.7551C51.9401 39.6501 51.8584 39.5218 51.7418 38.9618C51.6251 38.4134 51.5551 38.0284 51.5551 37.9118C51.5551 37.8184 51.5318 37.8184 51.4384 37.7718C51.3451 37.7368 51.2984 37.5851 51.3451 37.5151C51.3568 37.4334 51.2984 37.3518 51.2634 37.2584C51.2401 37.1651 51.2634 36.9901 51.3334 36.8851C51.3918 36.7918 51.3801 36.5351 51.3218 36.3018C51.2634 36.0918 51.1934 35.9051 50.9368 35.8584C50.6918 35.8351 50.6334 35.7651 50.5518 35.5551C50.4351 35.3568 50.3418 34.9951 50.3184 34.9134C50.2951 34.8318 50.2368 34.8201 50.0501 34.9834C49.8634 35.1351 49.7934 35.1818 49.7934 35.4851C49.7934 35.6834 49.8401 35.7418 49.8984 35.8468C49.9568 35.9634 49.9801 35.9984 50.0151 36.2901C50.0618 36.5818 50.3301 37.0601 49.9918 37.3401C49.6418 37.5968 49.6884 37.6668 49.7001 37.8534C49.7234 38.0518 49.6068 38.1684 49.5484 37.9118C49.4784 37.6318 49.5484 37.4801 49.7351 37.3518C49.9218 37.2351 50.0968 37.0601 49.9684 36.8851C49.8564 36.6425 49.7893 36.3816 49.7701 36.1151C49.7584 35.9284 49.7351 35.8584 49.6184 36.0101Z" fill="#CF6200"/>
<path d="M46.8068 40.035L46.8418 40.42C46.8418 40.5483 46.8884 40.8283 46.7834 41.0266C46.6901 41.225 46.7134 41.33 46.7834 41.3883H46.7951C46.9934 41.33 47.0284 41.12 46.9701 41.015C46.945 40.9592 46.934 40.8981 46.9381 40.8371C46.9422 40.776 46.9612 40.7169 46.9934 40.665C47.0518 40.5483 47.0518 40.49 46.9934 40.4083C46.9351 40.3266 46.9351 40.3266 46.9934 40.105C47.0634 39.9066 46.9118 39.9066 46.8068 40.035ZM48.8368 43.1033C48.8018 42.9633 48.6618 42.4033 48.6618 42.0533C48.6501 41.7033 48.4868 41.4116 48.1951 41.1433C47.9618 40.9333 47.9151 40.595 47.8918 40.3266C47.7168 40.2216 47.6584 40.2683 47.6701 40.4666C47.6701 40.6766 47.9034 40.77 47.8684 41.085C47.8334 41.3883 47.8334 41.3183 47.9851 41.47C48.1134 41.61 48.1834 41.7733 48.1018 41.82C48.0201 41.8783 48.0201 41.995 48.1251 42.03C48.2418 42.0766 48.2418 42.1933 48.2301 42.31C48.2184 42.415 48.3351 42.4383 48.3818 42.5083C48.4518 42.59 48.4518 42.7883 48.3818 42.8933C48.3351 43.01 48.3234 43.185 48.4284 43.0916C48.5451 42.9866 48.5918 43.0916 48.6734 43.2316C48.7434 43.3483 48.8134 43.3133 48.9068 43.29C48.8732 43.2307 48.8458 43.1682 48.8251 43.1033H48.8368ZM50.3534 45.8566C50.3068 45.9966 50.2251 45.9616 50.1551 45.8916C50.0851 45.8216 50.0034 45.8216 50.0384 45.6816C50.0618 45.5533 50.0384 45.53 49.9568 45.46L49.9218 45.425H49.8284C49.6534 45.425 49.6418 45.39 49.5368 45.285C49.5181 45.2685 49.4986 45.2529 49.4784 45.2383V45.3316C49.4784 45.46 49.4784 45.425 49.3618 45.4716C49.2451 45.5066 49.2451 45.3433 49.2218 45.2383C49.22 45.2147 49.2161 45.1912 49.2101 45.1683C49.1263 45.1496 49.0492 45.1081 48.9875 45.0484C48.9257 44.9887 48.8816 44.9131 48.8601 44.83C48.8018 44.6433 48.8601 44.6316 48.9301 44.7483C49.0001 44.865 49.0118 44.9 49.1168 44.9816C49.2101 45.04 49.2568 44.9233 49.2101 44.7833C49.2037 44.7329 49.2037 44.682 49.2101 44.6316C49.1926 44.5836 49.1598 44.5426 49.1168 44.515C48.9068 44.4333 48.9768 44.4216 48.9768 44.2583C49.0001 44.1066 48.9651 44.1066 48.8368 44.1883C48.7201 44.27 48.7201 44.1883 48.7201 43.9316C48.7201 43.6983 48.5568 43.6983 48.5218 43.8616C48.4868 44.0366 48.4168 43.92 48.3584 43.6866C48.3001 43.4533 48.1834 43.3833 48.1834 43.6166C48.1834 43.815 48.1134 43.85 47.9968 43.7566L48.0434 44.1183C48.1018 44.5033 48.1951 44.3516 48.3934 44.5266C48.5801 44.69 48.5218 44.7833 48.5918 44.865C48.6618 44.9466 48.6734 45.005 48.6618 45.0983C48.6268 45.1916 48.5918 45.2733 48.6268 45.355C48.6618 45.4483 48.7201 45.4716 48.7201 45.6C48.7201 45.7166 48.7434 45.705 48.8018 45.74H48.8951L48.9768 45.6233C49.1284 45.4833 49.3268 45.6233 49.4084 45.8216C49.4784 45.9966 49.5601 46.0433 49.6768 45.8916C49.7934 45.7516 49.7468 45.775 49.8634 45.9033C49.9801 46.0433 50.0268 46.02 50.0268 46.02C50.0268 46.02 50.1434 45.9733 50.2368 46.0433C50.3184 46.1133 50.3534 46.1016 50.5168 45.88C50.6684 45.6466 50.4468 45.7166 50.3768 45.8566H50.3534ZM50.7968 39.3466C50.8434 38.9966 50.8084 38.6583 50.9484 38.53C51.1001 38.4133 51.2634 38.145 51.2634 38.6933C51.2401 39.23 51.2168 39.195 51.1118 39.3233C50.9951 39.4516 50.9018 39.4866 50.9951 39.685C51.1234 39.8833 51.1351 39.9183 51.1234 40.2216C51.1118 40.5366 51.1118 40.6766 51.2284 40.8283C51.3568 40.9916 51.3918 40.9916 51.4268 41.1783C51.4634 41.3781 51.5613 41.5616 51.7068 41.7033C51.8468 41.8433 52.0101 42.1933 52.0218 42.45C52.0451 42.7066 52.2551 42.765 52.4651 42.9516C52.6751 43.1266 52.4184 43.2433 52.2668 43.1616C52.1034 43.0916 52.1618 43.1616 52.0684 43.2783C51.9751 43.395 51.9518 43.4066 51.8701 43.2083C51.7884 43.0216 51.5201 42.8933 51.3918 42.8466C51.2634 42.8 51.1584 42.59 51.0418 42.38C50.995 42.2973 50.9294 42.2268 50.8504 42.1741C50.7713 42.1214 50.681 42.088 50.5868 42.0766C50.6334 42.205 50.6568 42.31 50.6451 42.3566C50.5984 42.5316 50.5518 42.66 50.7268 42.87C50.9251 43.0683 51.0418 43.3716 51.0768 43.5466C51.0768 43.7216 51.1118 43.78 51.3101 43.7216C51.4369 43.6831 51.5529 43.6152 51.6484 43.5233C51.7068 43.4416 51.8351 43.4416 52.0101 43.5466C52.1851 43.64 52.4534 43.7333 52.6168 43.64C52.7684 43.535 52.8501 43.4066 52.9901 43.4066C53.2118 43.2433 53.2934 42.905 53.3401 42.8233C53.3868 42.7066 53.3518 42.7066 53.2584 42.625C53.1651 42.5316 53.2118 42.3683 53.1884 42.2166C53.1884 42.0533 53.1184 41.82 52.9318 41.47C52.7334 41.12 52.6168 40.7 52.5001 40.595C52.3834 40.4783 52.3018 40.21 52.3018 40.0816C52.2784 39.965 52.1384 39.8483 52.0451 39.7433C51.9401 39.65 51.8468 39.51 51.7418 38.9616C51.6601 38.53 51.5784 38.1916 51.5668 38.0283C51.4501 38.2033 51.3684 38.2616 51.3334 38.1216C51.2751 37.9816 51.2284 37.9116 51.1584 38.005C51.1001 38.0983 51.0768 37.9116 51.0768 37.83C51.0768 37.7483 51.0768 37.7483 50.9718 37.7483C50.8784 37.7483 50.9718 37.6316 50.9368 37.375C50.9018 37.1416 50.8551 37.1183 50.8318 37.3983C50.7968 37.6783 50.6334 37.865 50.7034 37.9116C50.7618 37.9816 50.7268 38.11 50.6684 38.2966C50.6174 38.432 50.6174 38.5813 50.6684 38.7166C50.7151 38.8333 50.6451 39.09 50.6218 39.2883C50.5868 39.4866 50.7501 39.6966 50.7968 39.3583V39.3466ZM47.9034 36.5233C47.7868 36.5233 47.7051 36.64 47.7751 36.99C47.8218 37.2233 47.6584 37.1766 47.5884 37.06C47.5301 36.9433 47.4718 36.71 47.3551 36.5116C47.2268 36.3133 47.2851 36.64 47.2734 36.8383C47.2501 37.0366 47.3784 37.0366 47.4834 37.1883C47.6001 37.3516 47.5068 37.41 47.3901 37.41C47.2734 37.41 47.3084 37.6666 47.3434 37.83C47.3784 38.005 47.3084 38.04 47.2268 37.9C47.1101 37.7483 47.1918 37.55 47.2034 37.27C47.2268 37.0016 47.2384 37.06 47.0634 37.0016C46.8884 36.9316 46.9118 36.8966 46.9934 36.745C47.0518 36.5816 47.1101 36.5116 47.0284 36.43C46.9584 36.3483 46.9701 36.3016 47.0984 36.29C47.2151 36.2666 47.1684 36.1733 47.2851 36.15C47.4018 36.115 47.4484 36.15 47.4601 35.9516C47.4718 35.7766 47.5301 35.6833 47.6584 35.73C47.7401 35.9983 47.8334 36.4066 47.9034 36.5233ZM49.5018 38.39C49.5018 38.7166 49.5018 38.8566 49.6418 38.9733C49.7818 39.09 49.7584 39.23 49.8284 39.5216C49.8984 39.825 49.8984 40.4783 50.0851 40.9216L50.2951 41.3883C50.3938 41.3051 50.4733 41.2017 50.5284 41.085C50.5634 40.9916 50.4234 40.7583 50.3184 40.5833C50.2018 40.3733 50.3301 40.315 50.4351 40.07C50.5518 39.8483 50.4351 39.8366 50.2484 39.7666C50.0851 39.7083 50.0851 39.5333 49.9918 39.2883C49.8984 39.0316 49.9101 38.9266 49.9684 38.775C50.0268 38.635 49.9918 38.53 49.8634 38.495C49.7351 38.46 49.7701 38.3783 49.8168 38.215C49.8634 38.0633 49.8984 38.0283 49.7001 38.0633C49.5601 38.11 49.5251 38.145 49.4784 38.18L49.5018 38.39Z" fill="#00B800"/>
<path d="M51.3217 39.0433C51.2984 39.23 51.2984 39.335 51.2517 39.3933C51.2051 39.4516 51.2401 39.545 51.2867 39.65C51.3451 39.7433 51.3567 39.86 51.3217 40.0466C51.2751 40.2216 51.3451 40.35 51.4384 40.3966C51.5317 40.4433 51.5784 40.3966 51.5551 40.63C51.5452 40.7304 51.5578 40.8317 51.5922 40.9266C51.6265 41.0215 51.6816 41.1075 51.7534 41.1783C51.8701 41.2716 51.9517 41.4233 51.9284 41.5283C51.9284 41.6216 52.0101 41.7033 52.1267 41.7616C52.2434 41.8083 52.2201 41.82 52.2201 41.8783C52.2201 41.9366 52.2667 41.9483 52.3834 41.9833C52.5001 42.0183 52.6167 42.0883 52.7567 42.2633C52.8967 42.45 53.1067 42.5316 53.0717 42.345C53.0367 42.17 53.0717 42.0183 52.8851 41.9366C52.6867 41.8433 52.5467 41.3883 52.4767 41.0733C52.3906 40.7634 52.2305 40.4791 52.0101 40.245C51.9751 40.0116 52.0101 39.9066 51.8701 39.8016C51.81 39.7594 51.7607 39.7036 51.7262 39.6387C51.6917 39.5738 51.6731 39.5017 51.6717 39.4283C51.6717 39.335 51.6017 39.195 51.5317 39.1483C51.4734 39.1133 51.4384 39.0433 51.4384 38.9383C51.4384 38.845 51.3451 38.8566 51.3217 39.055V39.0433Z" fill="#5D3100"/>
<path d="M50.4818 47.5249C50.8715 47.4653 51.2519 47.3555 51.6134 47.1982C51.8117 47.3266 52.1384 47.5016 52.2784 47.5016C52.0101 47.5599 51.8234 47.5366 51.7651 47.4782C51.8001 47.5599 51.8817 47.6999 51.9517 47.7116C51.6834 47.7116 51.3918 47.6416 51.2984 47.5482C51.0651 47.6416 50.6918 47.6649 50.4818 47.5249ZM50.9834 47.8749C51.0884 47.9099 51.5901 47.9916 51.6601 47.9916C51.4967 48.1316 51.6367 48.2716 51.9051 48.2482C51.7884 48.2716 51.6251 48.3182 51.7301 48.3416C52.0863 48.3372 52.4385 48.2659 52.7684 48.1316C52.5351 48.4232 51.4384 48.6916 50.9834 47.8749ZM51.4501 48.5866C51.655 48.5358 51.8705 48.548 52.0684 48.6216C51.9051 48.6916 51.5434 48.6916 51.4384 48.5982L51.4501 48.5866Z" fill="#00D860"/>
<path d="M51.9517 48.5866C52.1851 48.5516 52.8851 48.7032 53.1184 48.5632C53.0367 48.7849 52.6167 48.8199 52.4534 48.7616C52.3017 48.7266 52.1617 48.6682 52.0567 48.6682C52.1267 48.6332 52.0334 48.6332 51.9401 48.5866H51.9517Z" fill="black"/>
<path d="M52.1967 48.925C52.5512 48.9347 52.9051 48.8915 53.2467 48.7966C53.4451 48.8666 53.8767 48.9833 53.9701 48.9716C53.7717 49.0883 53.3867 49.0183 53.2701 48.9716C53.0986 49.0426 52.9137 49.0753 52.7282 49.0672C52.5428 49.0592 52.3614 49.0106 52.1967 48.925Z" fill="#00D860"/>
<path d="M52.5001 49.03C52.7684 49.0883 53.0018 49.0533 53.2584 48.9717C53.3401 48.995 53.5268 49.0417 53.7134 49.0417C53.8301 49.1 53.9818 49.1933 54.1451 49.2167C53.851 49.2569 53.5517 49.2289 53.2701 49.135C52.9501 49.126 52.6318 49.1856 52.3368 49.31C52.3425 49.2546 52.3613 49.2013 52.3918 49.1547C52.4222 49.108 52.4633 49.0692 52.5118 49.0417L52.5001 49.03Z" fill="#00D860"/>
<path d="M52.1968 47.7117C52.3951 47.77 53.1534 47.735 53.5151 47.56C53.6784 47.4784 53.7718 47.6067 53.5968 47.6534C52.9901 47.8867 52.4884 47.9567 52.1384 47.77C51.9984 47.7 51.9751 47.63 52.1968 47.7V47.7117Z" fill="black"/>
<path d="M55.8368 46.6851C54.9151 47.1167 54.3201 47.2451 53.0484 46.8484C52.9318 46.8251 52.8501 46.8484 52.9784 46.9301C53.2967 47.0677 53.6293 47.1694 53.9701 47.2334C54.1334 47.2451 54.0751 47.3151 53.9701 47.3501C53.8768 47.3734 53.8534 47.4434 53.9818 47.3967C54.1101 47.3384 54.8918 47.3151 55.2068 47.4784C55.3351 47.5601 55.3701 47.5367 55.3584 47.4784C55.3468 47.4317 55.4168 47.3967 55.5218 47.3851C55.6151 47.3734 55.6851 47.3384 55.6034 47.3151C55.5218 47.2801 55.5101 47.2567 55.5684 47.2334C55.6268 47.1984 55.6384 47.1634 55.5451 47.1517C55.4634 47.1284 55.3934 47.1051 55.4751 47.0701C55.5716 47.0278 55.6738 47.0003 55.7784 46.9884C55.8018 46.9301 55.7668 46.7551 55.8368 46.6851Z" fill="#00D860"/>
<path d="M54.3201 46.7901C55.0435 46.8008 55.747 46.5525 56.3034 46.0901C56.4901 46.2068 56.7351 46.3234 56.8751 46.3468C57.0034 46.3701 57.1084 46.4868 56.9101 46.4868C56.7118 46.4868 56.4434 46.4051 56.3034 46.3468C55.7084 46.7111 55.0168 46.8861 54.3201 46.8484C54.1918 46.8484 54.1568 46.7901 54.3201 46.8018V46.7901Z" fill="black"/>
<path d="M52.7684 43.9434C52.9551 44.0717 53.2701 44.2817 53.6784 44.2467C53.8758 44.4047 54.1015 44.5235 54.3434 44.5967C54.0634 44.69 53.7601 44.795 53.6901 44.8767C53.5734 44.76 53.3984 44.7834 53.3634 44.7134C53.2468 44.83 53.2584 44.865 53.3401 44.9234C53.6049 45.0021 53.8807 45.0375 54.1568 45.0284C54.2968 44.9817 54.3551 45.11 54.2268 45.145C53.9118 45.2617 53.2934 45.145 53.0834 44.8067C52.8501 44.4684 52.6751 44.34 52.0918 44.655C52.0334 44.48 52.0334 44.4567 51.9168 44.4567C51.8001 44.4567 51.5901 44.305 51.7534 44.305C51.9168 44.305 52.3834 44.235 52.7684 43.955V43.9434Z" fill="#00D860"/>
<path d="M52.9201 44.725C52.8034 44.7367 52.5351 44.8883 52.4418 44.9C52.3368 44.9233 52.1618 45.0633 52.3368 45.0633C52.5351 45.0633 52.7684 44.865 52.8968 44.865C53.0251 44.865 53.0368 44.69 52.9201 44.7133V44.725ZM53.5034 45.3083C53.4218 45.3317 53.1184 45.4017 53.0368 45.4017C52.9551 45.4017 52.8618 45.4017 52.8734 45.4717C52.8851 45.53 52.9084 45.5767 52.7684 45.5533C52.6518 45.53 52.5468 45.5883 52.5234 45.6233C52.4884 45.6583 52.4651 45.6933 52.5934 45.705C52.7101 45.705 52.7801 45.74 52.9318 45.6583C53.0718 45.5883 53.2001 45.5067 53.3518 45.495C53.5034 45.495 53.6551 45.285 53.4918 45.32L53.5034 45.3083Z" fill="#00D860"/>
<path d="M53.0718 45.6699C53.2001 45.7749 53.8418 45.9732 54.0634 45.9732C54.2968 45.9616 54.2618 46.0549 54.0868 46.0899C53.8884 46.1192 53.6861 46.1063 53.4931 46.0521C53.3001 45.9978 53.1207 45.9033 52.9668 45.7749C52.8268 45.6582 52.9668 45.6116 53.0601 45.6699H53.0718Z" fill="black"/>
<path d="M56.0934 46.0083C55.7057 46.1176 55.2969 46.1296 54.9034 46.0433C54.7051 45.9733 54.5184 45.9733 54.6701 46.1133C54.7867 46.2416 55.2301 46.3233 55.4867 46.265C54.6001 46.4633 54.3668 46.4516 54.1568 46.4166C53.8858 46.3837 53.6124 46.3759 53.3401 46.3933C53.2099 46.4143 53.0765 46.3981 52.9551 46.3466C52.8734 46.2883 52.8501 46.2183 53.0834 46.2416C53.3167 46.2533 53.3517 46.2183 53.1534 46.1833C52.9434 46.1483 52.6751 46.23 52.9434 46.4166C53.2234 46.58 53.8067 46.3933 54.1917 46.51C54.5283 46.5976 54.8809 46.603 55.22 46.5259C55.559 46.4487 55.8746 46.2912 56.1401 46.0666C56.1751 46.0433 56.2451 45.95 56.0934 45.9966V46.0083ZM53.6901 45.2733C53.7134 45.3433 53.7134 45.39 53.6901 45.4366C53.6668 45.4833 53.6784 45.5416 53.7484 45.4833C53.8184 45.425 53.8651 45.3433 53.9584 45.39C54.0401 45.425 54.2267 45.425 54.3084 45.4133C54.4017 45.4133 54.4251 45.3783 54.3084 45.3316C54.2015 45.2857 54.0864 45.2619 53.9701 45.2616C53.9001 45.2733 53.8068 45.2616 53.7484 45.2266C53.6901 45.1916 53.6784 45.2266 53.6901 45.2733Z" fill="#00D860"/>
<path d="M54.9501 45.5067C54.8568 45.5067 54.6701 45.4367 54.5884 45.39C54.4951 45.355 54.3551 45.355 54.4484 45.5067C54.5534 45.6467 54.9851 45.705 55.1484 45.6467C55.3001 45.5767 55.2418 45.5067 55.3818 45.6C55.5451 45.6934 55.6968 45.7517 55.8134 45.7517C55.9301 45.7517 55.9651 45.7517 55.8484 45.6817C55.7318 45.6117 55.6618 45.6 55.6384 45.5417C55.6151 45.4834 55.6151 45.4367 55.7434 45.4834C55.8601 45.5184 55.9768 45.5767 56.0701 45.53C56.1634 45.4834 56.3268 45.3784 56.4784 45.3784L56.5018 45.285C56.2918 45.285 56.1518 45.3434 56.0934 45.355C56.0468 45.3784 55.9301 45.4017 55.8134 45.3784C55.6968 45.355 55.5568 45.3434 55.5218 45.32C55.4751 45.285 55.4868 45.2617 55.5801 45.25C55.6734 45.2267 55.6968 45.1684 55.5801 45.18C55.4634 45.2034 55.0901 45.2034 54.9034 45.145C54.7284 45.0867 54.6468 45.075 54.5768 45.11C54.4951 45.1334 54.5068 45.2267 54.6118 45.2267C54.7284 45.2267 54.9851 45.2617 55.0784 45.3434C55.1484 45.425 55.1484 45.425 55.0551 45.39C54.9501 45.3434 54.7634 45.3667 54.9501 45.5067Z" fill="#00D860"/>
<path d="M56.5017 45.285L56.4667 45.3784C56.6884 45.3784 57.2134 45.425 57.4001 45.53C57.5634 45.4017 57.5284 45.355 57.6334 45.39C57.7501 45.425 57.9134 45.4484 57.9834 45.425C58.0364 45.3946 58.0993 45.3863 58.1584 45.4017C58.2284 45.4017 58.3917 45.3784 58.4734 45.3317C58.5667 45.2734 58.7534 45.215 58.8584 45.215C58.9517 45.215 59.0917 45.18 58.8934 45.145C58.7067 45.11 58.4034 45.18 58.3101 45.215C58.1934 45.25 57.9017 45.2734 57.7267 45.2734C57.5517 45.2734 57.3067 45.355 57.1084 45.3084C56.8984 45.2617 56.6184 45.285 56.4901 45.285H56.5017Z" fill="#00D860"/>
<path d="M59.2551 45.1916C58.9051 45.4482 58.4617 45.5066 57.9601 45.5416C57.8084 45.5416 57.8551 45.5882 57.9834 45.5999C58.5201 45.6582 59.1267 45.4599 59.3367 45.2499C59.3951 45.1799 59.3834 45.0866 59.2551 45.1799V45.1916Z" fill="black"/>
<path d="M56.8284 45.7984C57.1171 45.8417 57.4019 45.9081 57.6801 45.9967C57.8201 45.9734 57.8551 45.9501 57.8318 45.8917C57.7968 45.8451 57.7851 45.7984 58.0301 45.8217H58.9051C58.9984 45.7867 59.1734 45.6467 59.2551 45.6467C59.0451 45.6467 58.1468 45.6934 58.0418 45.6817C57.9251 45.6817 57.8668 45.6817 57.7968 45.7284C57.7268 45.7634 57.6918 45.7867 57.5984 45.7401C57.4818 45.7051 57.3534 45.6584 57.2484 45.7284C57.1784 45.7751 56.9801 45.7284 56.8284 45.7984Z" fill="#00D860"/>
<path d="M58.9051 45.8216C58.9867 45.7866 59.1734 45.6466 59.2551 45.6349C59.4184 45.6232 59.5817 45.6816 59.6634 45.7049C59.7451 45.7282 59.8384 45.7049 59.7801 45.6349C59.7334 45.5766 59.7801 45.4482 60.0134 45.4832C60.2701 45.5066 60.3867 45.5532 60.6317 45.5299C60.8767 45.5066 60.9701 45.6816 61.4134 45.5066C61.3901 45.6816 61.4717 45.6932 61.5534 45.6582C61.6351 45.6349 61.7284 45.6349 61.8684 45.7399C62.0201 45.8566 62.8834 45.8566 63.0817 45.8216C63.2917 45.7866 63.3851 45.8916 63.2334 45.9382C63.0817 45.9849 63.0467 46.0549 63.0817 46.1132C63.1167 46.1599 63.1517 46.2182 62.9651 46.1949C62.7667 46.1716 62.7317 46.2299 62.6501 46.2882C62.5567 46.3582 62.5334 46.4049 62.2651 46.3466C62.0084 46.2999 61.9501 46.3349 61.8101 46.3466C61.6701 46.3699 61.6351 46.3816 61.4834 46.3349C61.2775 46.2608 61.0545 46.2487 60.8417 46.2999C60.6551 46.3699 60.5267 46.4166 60.3517 46.3699C60.1767 46.3349 60.1767 46.3466 60.2817 46.2532C60.3751 46.1366 60.3984 46.1366 60.6084 46.1249C60.8184 46.1016 60.9584 46.0432 60.8301 45.9616C60.6784 45.8799 60.6434 45.8916 60.4451 45.9732C60.2584 46.0666 60.1651 46.1366 59.9434 46.0199C59.7334 45.9032 59.6401 45.9149 59.4767 45.9616C59.3367 45.9966 59.1034 45.9032 58.9051 45.8216ZM59.6167 46.1716C59.3367 46.2182 59.2667 46.0432 58.9867 46.0666C58.8934 46.0899 58.7301 46.2066 58.9517 46.1832C59.1734 46.1716 59.4184 46.2882 59.6284 46.2766C59.8384 46.2649 59.7451 46.1599 59.6284 46.1716H59.6167ZM59.3134 46.3699C59.4417 46.3232 59.7334 46.4282 59.8734 46.4049C60.0017 46.3816 60.1067 46.4516 59.9667 46.5099C59.8267 46.5566 59.5351 46.4282 59.3834 46.4632C59.2551 46.5099 59.1034 46.4516 59.3017 46.3699H59.3134ZM56.4667 47.1516C56.6651 47.1516 57.3767 47.1166 57.6567 46.5332C57.6801 46.4866 57.6917 46.4632 57.7734 46.5332C57.8551 46.5916 58.1934 46.7782 58.8001 46.8366C58.9751 46.8366 59.1501 46.9299 58.8117 46.9182C58.4617 46.8949 57.9251 46.8016 57.7501 46.6849C57.4351 47.1632 56.8867 47.2216 56.4667 47.2099C56.2217 47.2099 56.2801 47.1399 56.4667 47.1516Z" fill="#00D860"/>
<path d="M57.9951 46.335C57.9017 46.4633 57.5751 46.685 57.4351 46.7083C57.2834 46.7083 56.8284 46.685 56.7234 46.6383C56.6067 46.6033 56.4784 46.6033 56.6301 46.72C56.8443 46.8359 57.0871 46.8885 57.3301 46.8716C57.5167 46.8366 57.6917 46.7783 57.8201 46.8716C57.9367 46.9416 58.1701 47.0816 58.3101 47.0583C58.4501 47.0233 58.7184 47.0233 58.8117 47.0583C58.9051 47.105 59.0567 47.245 58.8234 47.175C58.5901 47.0933 58.4034 47.1516 58.2984 47.105C58.4151 47.2683 58.6834 47.5366 58.9051 47.5366C58.9634 47.5366 59.0101 47.6416 58.9051 47.6883C58.9984 47.735 59.2551 47.7933 59.4067 47.6533C59.3601 47.7116 59.3834 47.735 59.4417 47.7583C59.5001 47.7816 59.5701 47.8283 59.4651 47.8516C59.3484 47.875 59.1151 47.8866 59.0451 47.8516C59.2784 48.0033 59.8617 48.2483 60.4801 48.12C60.5967 48.1083 60.6667 48.05 60.4801 48.0616C60.0717 48.0616 60.0484 48.0616 59.9784 48.0266C59.9084 47.98 59.9317 47.945 60.0484 47.91C60.2128 47.8676 60.3807 47.8403 60.5501 47.8283C60.6667 47.8283 60.7951 47.7933 60.5501 47.7933C60.3167 47.7933 60.0134 47.7933 59.8851 47.7466C59.7684 47.7116 59.6867 47.6416 59.8151 47.56C59.9317 47.4783 60.0601 47.5016 60.1184 47.4433C59.7334 47.4433 59.2551 47.21 59.5117 47.0233C59.5701 46.9883 59.5584 46.9766 59.4651 46.965C59.2847 46.9295 59.1087 46.8747 58.9401 46.8016C58.8234 46.7433 58.8934 46.6733 58.9984 46.65C58.7651 46.685 58.2984 46.5683 57.9951 46.3466V46.335ZM61.4717 46.335C61.2617 46.4866 60.8534 46.5683 60.6784 46.5683C60.5151 46.5683 60.4801 46.615 60.6201 46.6266C60.7601 46.6383 60.9117 46.6733 60.9701 46.65C61.0284 46.6266 61.0751 46.6266 61.1567 46.6733C61.3006 46.7213 61.4562 46.7213 61.6001 46.6733C61.7751 46.6266 62.0317 46.6033 62.1484 46.6033C62.2651 46.615 62.3817 46.615 62.1484 46.5566C61.9384 46.4983 61.5651 46.5333 61.4717 46.5566C61.3901 46.58 61.1451 46.5566 61.2734 46.5333C61.4017 46.4983 61.5067 46.4166 61.5767 46.37L61.4717 46.335ZM61.3551 46.8016C61.1478 46.9561 60.9011 47.0491 60.6434 47.07C60.8767 47.1633 61.0867 47.42 61.2501 47.3966C61.1684 47.455 61.0751 47.5133 60.9817 47.5366C61.1989 47.5733 61.4221 47.532 61.6117 47.42C61.9617 47.5133 62.4284 47.4433 62.5801 47.3033C62.3467 47.3033 62.0784 47.2333 61.9501 47.1166C62.0667 47.1166 62.1717 47.0583 62.2184 46.9883C61.9501 47.035 61.5184 46.9066 61.3667 46.7783L61.3551 46.8016Z" fill="#00D860"/>
<path d="M60.9817 47.525C61.0751 47.525 61.1801 47.455 61.2501 47.4084C60.7976 47.4407 60.3461 47.3349 59.9551 47.105C59.6984 46.8834 59.6984 47.0584 59.8734 47.21C60.021 47.3491 60.1994 47.4512 60.3941 47.508C60.5888 47.5648 60.7942 47.5746 60.9934 47.5367L60.9817 47.525ZM61.6117 48.0734C61.5067 48.1317 60.9934 48.1784 60.8301 48.1317C60.6551 48.0967 60.5967 48.1084 60.6201 48.19C60.6551 48.26 60.6901 48.3067 60.5501 48.2834C60.3923 48.2764 60.2345 48.2961 60.0834 48.3417C59.9667 48.365 59.8501 48.4584 60.0601 48.4234C60.2817 48.4 60.4684 48.3534 60.6434 48.3884C60.7951 48.4234 61.3551 48.435 61.4601 48.3884C61.5767 48.3417 61.5067 48.3534 61.4601 48.3534C61.4017 48.3534 61.3784 48.3184 61.4601 48.2717C61.5417 48.2367 61.5884 48.155 61.6117 48.0734ZM56.6767 47.3967C56.3118 47.5237 55.9372 47.6212 55.5567 47.6884C55.3234 47.7934 55.1367 47.8517 55.0201 47.8517C55.1017 47.9217 55.4284 47.9917 55.5451 47.9567C55.4751 48.0384 55.3117 48.1084 55.2534 48.155C55.4517 48.12 55.6617 48.1784 55.7667 48.19C55.5271 48.318 55.2559 48.3746 54.9851 48.3534C55.0551 48.4234 55.1367 48.505 55.2417 48.505C55.033 48.5656 54.8126 48.5736 54.6001 48.5284C54.6701 48.645 54.7167 48.715 54.8101 48.7384C54.6117 48.75 54.3784 48.785 54.1801 48.6684C54.3317 48.8784 54.6701 48.9367 55.1834 48.8784C55.6967 48.82 56.1167 48.5984 56.2334 48.505C56.0234 48.5284 55.7317 48.54 55.6034 48.505C55.9571 48.4108 56.2951 48.2654 56.6067 48.0734C56.4897 48.0727 56.3756 48.036 56.2801 47.9684C56.5941 47.984 56.9087 47.9526 57.2134 47.875C57.0486 47.8396 56.903 47.7439 56.8051 47.6067C57.4507 47.7929 58.1329 47.8129 58.7884 47.665C58.8817 47.6417 58.8817 47.5134 58.7067 47.5367C58.3801 47.56 57.7384 47.4667 57.5634 47.385C57.7027 47.4842 57.8619 47.5519 58.0301 47.5834C57.7384 47.6767 57.3067 47.735 56.6767 47.385V47.3967Z" fill="#00D860"/>
<path d="M55.2534 48.1551C55.3117 48.1084 55.4867 48.0384 55.5451 47.9568C55.4167 47.9918 55.1017 47.9218 55.0201 47.8401C55.1367 47.8401 55.3234 47.7934 55.5567 47.6884C55.1367 47.6768 54.8567 47.6768 54.6817 47.5834C54.5184 47.4901 54.2501 47.5368 54.1334 47.5601C54.0167 47.5718 54.0634 47.7584 54.5184 47.7118C54.2405 47.8362 53.9324 47.8767 53.6317 47.8284C53.6784 47.9918 53.7134 48.1434 53.6667 48.2368C53.9117 48.3768 54.5651 48.5518 54.8917 48.5284C54.6001 48.4234 54.4484 48.3068 54.6817 48.2718C54.9151 48.2484 55.0551 48.2018 55.2651 48.1551H55.2534Z" fill="#00D860"/>
<path d="M54.5184 48.9251C55.0784 48.8784 55.8484 48.8667 56.4551 48.3417C56.6067 48.2251 56.7117 48.2717 56.5601 48.4001C56.023 48.8169 55.3721 49.061 54.6934 49.1001C54.3784 49.1001 54.2384 48.9484 54.5184 48.9134V48.9251Z" fill="black"/>
<path d="M58.7651 47.9916C58.5532 48.0552 58.333 48.0866 58.1118 48.085C57.9838 48.0565 57.8504 48.0646 57.7268 48.1083C57.6334 48.1666 57.6218 48.225 57.7501 48.225L58.1351 48.2483C58.0531 48.2906 57.9814 48.3503 57.9251 48.4233C58.1351 48.3766 58.4734 48.4583 58.5784 48.5166C58.5384 48.525 58.4971 48.5252 58.457 48.5171C58.4169 48.5091 58.3788 48.4931 58.3451 48.47C58.6601 48.82 59.6168 48.82 59.7684 48.75C59.6984 48.8083 59.6284 48.8666 59.5701 48.8666C59.8268 48.925 60.1301 48.9133 60.4451 48.75L59.9551 48.7266C60.0205 48.6619 60.1005 48.6139 60.1884 48.5866C60.0718 48.5633 59.6984 48.575 59.6051 48.6216C59.6398 48.538 59.7014 48.4682 59.7801 48.4233C59.3134 48.4233 58.7418 48.4233 58.5434 48.3066C58.8584 48.3533 59.2318 48.155 59.3834 48.155C59.1268 48.155 58.8468 48.0966 58.7768 47.98L58.7651 47.9916ZM57.5868 48.225C57.3534 48.2833 57.0034 48.3883 56.8984 48.435C56.8051 48.4933 56.7118 48.5166 56.9101 48.5166C56.9334 48.5127 56.9567 48.5088 56.9801 48.505C56.8984 48.505 56.8051 48.505 56.9684 48.4466C57.1201 48.4 57.3184 48.295 57.5751 48.2483L57.5868 48.225ZM57.1201 48.7966C57.2018 48.7966 57.5518 48.7966 57.7034 48.68C57.8434 48.7733 58.1351 48.9366 58.3101 48.9366C58.4968 48.9366 58.4734 48.9833 58.3101 49.0066C58.0859 48.9995 57.868 48.9309 57.6801 48.8083C57.4701 48.89 57.2951 48.82 57.0968 48.7966H57.1201ZM54.3668 50.395C54.7442 50.5617 55.1643 50.6066 55.5684 50.5233C55.7784 50.6983 56.1868 50.71 56.4084 50.6633C56.6418 50.6166 56.8401 50.5933 57.0968 50.6633C57.3301 50.7566 57.8434 50.7683 57.9951 50.885L57.5168 50.8966C57.4468 50.92 57.4818 50.955 57.6101 51.0133C57.1471 51.0089 56.6916 51.1299 56.2918 51.3633C56.3516 51.2286 56.45 51.1145 56.5746 51.0356C56.6992 50.9567 56.8443 50.9165 56.9918 50.92C56.7818 50.85 56.0934 50.8383 55.8601 50.9783C55.7981 50.9108 55.7505 50.8314 55.7201 50.745C55.3584 50.9433 54.6468 50.64 54.3551 50.395H54.3668ZM53.4334 49.7183C53.7426 49.6925 54.038 49.5792 54.2851 49.3916C54.3668 49.4616 54.6934 49.5316 55.0434 49.4266C54.9734 49.4733 54.9618 49.5783 54.9851 49.625C54.7034 49.6511 54.4277 49.722 54.1684 49.835C54.0284 49.905 53.5851 49.9633 53.4451 49.8816C53.3051 49.8116 53.3051 49.7416 53.4218 49.7183H53.4334Z" fill="#00D860"/>
<path d="M54.9851 49.6367C54.7034 49.6628 54.4278 49.7337 54.1684 49.8467L54.2268 50.045C54.8064 49.8794 55.4104 49.8162 56.0118 49.8584C55.8251 49.87 55.4868 50.0684 55.3001 50.08C55.7668 50.045 56.2101 50.1384 56.3268 50.1734C56.4434 50.1967 56.4784 50.29 56.3851 50.3834C56.2918 50.4884 56.2568 50.465 56.4434 50.4884C56.6301 50.4884 57.0268 50.4534 57.2018 50.2784C57.1201 50.2084 56.9451 50.2434 56.8868 50.1734C57.0045 50.1358 57.1122 50.0719 57.2018 49.9867C57.0222 49.9914 56.8425 49.9797 56.6651 49.9517C56.5718 49.9284 56.4901 49.8934 56.6184 49.8234C56.7066 49.7804 56.7858 49.721 56.8518 49.6484C56.6184 49.7067 56.2568 49.765 55.9418 49.5317C56.0584 49.555 56.3268 49.5317 56.4201 49.4967C56.3427 49.4465 56.255 49.4146 56.1634 49.4034C56.3968 49.2867 56.8634 49.1817 57.4818 49.415C57.7587 49.394 58.0372 49.4097 58.3101 49.4617C58.4268 49.3684 58.6134 49.135 58.7184 49.0884C58.0184 49.135 56.7584 49.0184 56.7934 48.645C56.5601 48.9484 56.0351 49.1117 55.8134 49.065C55.7901 49.1584 55.8834 49.2984 55.9651 49.3684C55.7318 49.415 55.3234 49.4617 55.1368 49.415C55.2534 49.52 55.4401 49.6134 55.5568 49.6134C55.3234 49.6134 55.1834 49.66 54.9851 49.6367Z" fill="#00D860"/>
<path d="M56.4317 50.4767C56.6417 50.4767 57.0151 50.4533 57.2017 50.2783C57.1201 50.2083 56.9451 50.2433 56.8867 50.1733C57.0045 50.1358 57.1122 50.0719 57.2017 49.9867C57.7151 49.94 58.1467 49.9633 58.3684 49.905C58.5784 49.8467 59.1267 49.87 59.2317 49.8467C58.7534 49.9283 58.6601 49.9633 58.6484 50.045C58.6251 50.1267 58.7884 50.1733 58.9051 50.1733C58.7067 50.1733 58.4267 50.395 58.3917 50.4883C58.1117 50.325 57.9951 50.5117 57.9484 50.5817C57.8317 50.535 57.4351 50.5467 57.2367 50.7217C56.9801 50.64 56.8051 50.605 56.5367 50.64C56.7117 50.605 56.6767 50.4883 56.4434 50.4767H56.4317ZM58.7067 49.0767C58.8701 49.0767 59.2201 49.1 59.3484 49.0767C59.2702 49.1148 59.1992 49.1661 59.1384 49.2283C59.5467 49.1817 60.0951 49.1467 60.2584 49.1817C60.0484 49.1467 59.8501 49.2867 59.7451 49.345C59.6517 49.4033 59.7101 49.45 59.8501 49.4617C59.9901 49.485 60.1651 49.5783 59.9201 49.555C59.6867 49.5317 59.1734 49.52 59.0567 49.5317C58.9401 49.555 58.8701 49.4967 59.0567 49.4617C59.1829 49.4428 59.305 49.4034 59.4184 49.345C59.2784 49.38 59.0101 49.38 58.9167 49.345C58.8234 49.31 58.7884 49.2867 58.8817 49.2517C58.9867 49.2167 58.9167 49.205 58.8117 49.2167C58.7067 49.2167 58.4617 49.3333 58.3101 49.4617C58.4617 49.2983 58.6134 49.1583 58.7067 49.0883V49.0767Z" fill="#00D860"/>
<path d="M56.9101 49.3566C57.0083 49.4699 57.1303 49.56 57.2675 49.6205C57.4047 49.6811 57.5536 49.7104 57.7034 49.7066C57.7734 49.7066 57.9368 49.8116 57.7384 49.8232C57.2368 49.8466 56.9918 49.7182 56.7701 49.4032C56.7234 49.3332 56.8051 49.2399 56.9101 49.3566ZM59.8851 45.2032C60.1418 45.3199 60.6668 45.4366 61.0751 45.4249C61.1568 45.4249 61.2851 45.4949 61.1101 45.5066C60.6761 45.5596 60.2363 45.4782 59.8501 45.2732C59.7451 45.2149 59.7801 45.1566 59.8851 45.2032Z" fill="black"/>
<path d="M60.1417 45.2034C60.5501 45.2034 60.8534 45.2034 60.9584 45.3084C61.1917 45.2501 61.6234 45.2034 61.7051 45.2268C61.7984 45.2501 61.9151 45.1918 61.6934 45.1451C61.4601 45.0984 60.9701 45.0751 60.8067 45.1101C60.6434 45.1334 60.1417 45.1568 59.9901 45.1334C60.0484 45.1334 60.0951 45.1568 60.1417 45.2034ZM61.7051 45.3551C61.8917 45.2618 62.4401 45.3551 62.6034 45.2851C62.4867 45.4251 62.9884 45.4368 63.4201 45.3318C63.2567 45.4251 62.8951 45.4484 62.7434 45.5184C62.5917 45.5884 62.5101 45.5301 62.3934 45.4834C62.1792 45.3817 61.9409 45.3413 61.7051 45.3668V45.3551Z" fill="#00D860"/>
<path d="M63.4201 45.3316C62.9884 45.4249 62.4867 45.4249 62.6034 45.2849C62.4401 45.3549 61.9034 45.2616 61.7051 45.3549C61.9151 45.2383 62.0551 45.3433 62.1951 45.0983C62.2884 45.1099 62.4984 45.1216 62.5684 45.0283C62.6851 45.0633 62.9184 45.1099 62.9767 45.1799C63.0351 45.2499 63.1284 45.1566 63.0584 45.0633C63.2567 44.9933 63.1284 45.1449 63.5834 45.0283C63.6884 45.0049 63.9101 44.9583 63.9917 44.9583C63.8135 45.1064 63.6176 45.2318 63.4084 45.3316H63.4201Z" fill="#00D860"/>
<path d="M55.0201 43.3367L54.9384 33.21C54.9384 32.755 54.7051 32.86 54.7051 33.21V43.2433L55.0201 43.3367ZM58.3101 32.6733L58.6717 43.3367L58.6251 43.43H58.3917L58.1701 32.6733H58.3101ZM61.4134 41.7033L61.2267 33.035C61.2267 32.755 60.9934 32.8017 60.9934 33.0817L61.1801 41.7033H61.4134Z" fill="#FFFF00" stroke="black" stroke-width="0.0466667"/>
<path d="M56.4901 34.4466L53.2934 34.3999C53.1534 35.0416 53.9351 34.9833 54.2034 34.8666C54.5651 35.0883 54.8451 35.0883 55.0201 34.8666C55.3001 35.0883 55.6618 35.0416 55.8018 34.8666C56.1634 35.1816 56.5718 34.8666 56.4901 34.3999V34.4466ZM56.7234 35.9983H53.5151C52.9318 36.5466 53.6551 36.8149 54.2968 36.4533C54.3901 36.6399 54.7518 36.7216 55.0201 36.5933C55.3001 36.7683 55.6618 36.6399 55.8368 36.4533C56.1634 36.5933 56.5718 36.6399 56.7584 35.9866L56.7234 35.9983ZM56.6184 38.0516H53.5151C53.4801 38.5533 54.1101 38.5066 54.3318 38.3666C54.5651 38.7399 55.1134 38.6466 55.3001 38.4133C55.6151 38.6466 55.8834 38.5999 56.0234 38.4133C56.3501 38.6933 56.6651 38.3199 56.6184 38.0516ZM56.8168 40.0583L53.3051 40.0116C53.1184 40.5949 53.6668 40.6999 53.8884 40.5599C53.9934 40.8749 54.4484 40.7933 54.5884 40.5599C54.7634 40.6999 54.9968 40.6066 55.0784 40.4666C55.1251 40.7816 55.5451 40.8283 55.8601 40.5599C56.5018 41.0149 57.0851 40.4666 56.7701 40.0583H56.8168ZM59.8734 39.2416H57.0034C57.1318 39.7783 57.4118 39.9183 57.8668 39.5916C58.2284 39.9649 58.7768 39.8249 58.9168 39.6499C59.5584 40.1516 59.8734 39.5566 59.8734 39.1833V39.2416ZM59.5934 37.2349L56.7701 37.1416C56.8168 37.8649 57.5051 37.8183 57.8668 37.5499C58.1001 37.8649 58.5551 37.7833 58.7768 37.5499C59.0918 37.9116 59.6868 37.6899 59.5934 37.2349ZM59.9668 34.9949H56.9334C56.9334 35.4966 57.6101 35.7649 58.1118 35.3099C58.2518 35.9049 58.8001 35.7183 59.0334 35.4966C59.3834 35.9516 60.1651 35.4033 59.9434 35.0299L59.9668 34.9949ZM59.7801 33.4783L57.0384 33.5366C57.0384 33.9916 57.6801 34.1783 57.9134 33.8049C58.0534 34.0383 58.4968 33.9916 58.6368 33.8049C58.8234 34.1316 59.1034 33.8983 59.1851 33.8049C59.5118 34.0383 59.8268 33.8983 59.7801 33.4899V33.4783ZM62.9301 34.4933L59.6401 34.4466C59.6401 34.7616 59.9668 34.9133 60.1884 34.7616C60.1884 35.1349 60.6551 35.2283 60.9701 34.9483C61.1451 35.2633 61.7401 35.3099 61.9734 34.9483C62.4284 35.3566 62.9768 35.0416 62.8834 34.4816L62.9301 34.4933ZM62.8834 37.1766H59.6868C59.6868 37.6433 60.1884 37.7716 60.5034 37.5499C60.5618 37.9116 60.9701 37.9583 61.2034 37.7366C61.5184 38.0516 61.9734 38.0866 62.2534 37.7366C62.6034 37.8649 62.9301 37.5499 62.8834 37.1883V37.1766ZM62.6968 39.6033H60.1418C60.1418 40.0583 60.6901 40.0583 60.9234 39.8366C61.1918 40.1516 61.5651 40.1516 61.7868 39.9183C62.1018 40.1983 62.6501 40.1049 62.6968 39.6033Z" fill="white" stroke="black" stroke-width="0.0466667"/>
<path d="M58.6251 43.4417C57.2601 43.4417 55.8484 43.4417 54.8918 43.3367C53.9351 43.255 53.6551 43.0683 52.9784 42.66L50.4001 41.1083C50.1784 41.015 49.9568 41.155 50.2718 41.3417L52.8268 43.0217C53.4087 43.3974 53.9316 43.8574 54.3784 44.3867C54.9268 44.9817 55.2884 44.9817 55.5568 44.8883C55.8368 44.8067 56.1984 44.655 56.6068 44.76C56.9801 44.8417 57.5168 44.8883 57.7968 44.8417C58.0301 45.075 58.6134 45.0283 58.9401 44.935C59.2551 44.8417 59.4884 44.8417 59.7101 44.8883H60.4918C60.7251 44.8883 61.3084 44.76 61.7168 44.8067C62.1834 44.8883 62.5801 44.8067 62.8601 44.8067C63.1572 44.7296 63.4667 44.7137 63.7701 44.76C64.0501 44.5733 64.1318 44.34 64.2368 44.1183C64.5051 44.0717 64.5868 44.025 64.6334 43.885L64.9134 43.1617H65.0068V42.8817L64.8201 42.6133L64.9134 42.1467L65.1468 42.065L65.0534 41.5983L61.0401 41.7033C60.895 41.8359 60.7968 42.0119 60.7601 42.205L59.5701 42.38C59.4418 42.4267 59.3018 42.4267 59.1618 42.6133L58.6251 43.4417Z" fill="black" stroke="black" stroke-width="0.0466667"/>
<path d="M63.4201 41.6566L64.0034 39.4166C64.0968 39.1833 63.8751 39.1483 63.7818 39.4166L63.1984 41.6566H63.4201Z" fill="black" stroke="black" stroke-width="0.0466667"/>
<path d="M65.7418 39.1484C65.2401 39.3818 64.9718 39.5101 64.7384 39.4168C64.5051 39.3234 64.2368 39.2768 64.0618 39.3701C64.0633 39.3856 64.0633 39.4013 64.0618 39.4168C63.8969 39.9969 63.7296 40.5763 63.5601 41.1551C63.9101 41.2951 64.5634 41.2951 64.6918 41.1551C64.8784 40.9684 65.2868 41.0151 65.5084 41.0151C65.6484 40.8284 65.6951 40.6068 65.6484 40.5134C65.6018 40.4201 65.6484 40.1984 65.6484 40.0468C65.6484 39.9301 65.8351 39.4168 65.7418 39.1484Z" fill="white" stroke="black" stroke-width="0.0466667"/>
<path d="M54.2501 34.855C53.3651 37.1595 52.1337 39.3154 50.5984 41.2484M51.5084 41.7967C53.533 40.1637 55.2888 38.2228 56.7118 36.045M53.5151 38.005C53.3868 39.2417 53.0134 41.4234 52.8384 42.5667M54.0168 40.7467C53.5618 41.2017 52.9667 41.925 52.4767 42.3334M58.2634 38.2734C57.9018 38.6467 57.4934 39.09 57.0734 39.195M58.4968 38.3784C58.8309 38.7592 59.2508 39.0551 59.7218 39.2417M58.2634 36.4067C57.8667 36.7579 57.4021 37.0239 56.8984 37.1884M58.4501 36.4417C58.7184 36.71 59.0334 37.025 59.4534 37.2234M56.9918 34.9834C57.4461 34.8476 57.8645 34.6125 58.2168 34.295M58.3568 34.295C58.7102 34.6217 59.1272 34.8719 59.5818 35.03M57.0734 33.5134C57.5025 33.4412 57.8916 33.2177 58.1701 32.8834M58.3101 32.79C58.6251 33.07 59.2201 33.4317 59.5468 33.4784M61.0051 33.84C60.8184 34.0734 60.3167 34.435 60.0017 34.435M61.2267 33.8517C61.3667 34.0734 61.7284 34.435 61.9617 34.435M59.7684 37.1767C60.2598 36.9923 60.6999 36.6922 61.0517 36.3017M61.2851 36.3484C61.5014 36.6833 61.793 36.963 62.1367 37.165M60.2701 39.545C60.4567 39.545 60.9584 39.265 61.0867 38.9617M61.3668 38.81C61.618 39.1257 61.9268 39.3909 62.2767 39.5917M53.7484 40C54.3318 39.8134 55.4868 39.09 56.0818 38.4017M54.9851 39.265C55.4401 39.5917 56.0351 39.965 56.4434 40.0467M53.6084 37.9934C54.0121 37.8311 54.3834 37.598 54.7051 37.305M54.9384 37.2584C55.0668 37.445 56.0234 38.04 56.4434 38.04M54.7051 35.3567C54.3569 35.6215 53.9716 35.8338 53.5618 35.9867M54.9384 35.345C55.2534 35.5784 55.9418 35.9867 56.3384 35.9867M54.7168 33.525C54.4484 33.7934 53.9934 34.2484 53.6201 34.3884M54.9501 33.5717C55.1251 33.8867 55.6734 34.3417 56.0351 34.3884M59.6868 35.5784C60.5618 37.0834 62.1017 38.9617 63.6534 39.9534M57.2368 33.8867C58.5084 35.7067 60.9701 39.685 63.3384 41.1434M63.8051 39.5917C63.1938 40.4234 62.4344 41.1353 61.5651 41.6917M63.6068 40.0934C62.8368 38.81 62.4284 37.2234 61.7867 35.0767M55.4051 40.735L56.3151 43.465M55.2184 40.6884L56.0818 43.4184M54.9968 40.5484L55.8134 43.3717M54.9034 40.595L55.5334 43.3717M55.5334 43.29H56.3151M56.2218 43.01H55.4984M56.1284 42.7767H55.4051M56.0351 42.555H55.3001M55.8834 42.2867H55.3001M55.2534 42.0534H55.8368M55.2068 41.8667H55.7901M55.1601 41.6334H55.7084M55.1251 41.4584H55.6151M55.0668 41.225H55.5334M55.0201 41.05H55.4868M54.9851 40.91H55.4401M54.9734 40.735H55.3934M54.2034 40.735L53.6551 43.01M54.3434 40.735L53.8767 43.1034M54.4834 40.6417L54.1101 43.15M54.6584 40.5834L54.3901 43.2434M54.7051 43.0567H53.7951M54.7051 42.8234H53.6551M54.7051 42.555H53.7484M54.6584 42.3217H53.7951M54.7051 42.0884H53.8418M54.7051 41.82H53.9351M54.7051 41.5867H53.9351M54.6584 41.365H53.9818M54.6584 41.1317H54.0751M54.6584 40.91H54.1101M54.6584 40.77H54.1568M54.6234 43.29V40.595M57.5751 39.685L55.7668 43.3834M57.7267 39.65L56.1751 43.43M57.8201 39.6034L56.5834 43.43M57.9601 39.6967L56.9568 43.43M57.0034 43.3017H55.8601M57.0851 42.9284H56.0001M57.1318 42.66H56.2218M57.3184 42.38H56.4084M57.3651 42.1117H56.5017M57.4584 41.8317H56.6418M57.5401 41.5167H56.8168M57.5868 41.2834H56.9101M57.6801 41.015H57.0384M57.7384 40.8284H57.1318M57.7734 40.6534H57.1318M57.7267 40.4667H57.2718M57.7384 40.3267H57.3184M57.7734 40.1517H57.4001M57.8551 39.965H57.4934M57.8434 39.825H57.5284M59.0801 39.7784L59.8617 42.345M59.2201 39.825L60.1767 42.2984M59.3601 39.825L60.5034 42.2517M60.7718 42.0184L59.4884 39.7784M60.7718 42.065H59.8617M60.6784 41.7034H59.7684M60.5501 41.4234H59.6751M60.3634 41.1084H59.5818M60.1767 40.8284H59.5001M60.0017 40.5134H59.4068M59.8617 40.1984H59.3134M59.6751 39.9184H59.2201M60.6784 39.965L59.8617 42.3334M60.9117 39.8834L60.1767 42.2984M60.5034 42.2517L61.0517 39.965M61.1801 40.0584L60.7251 42.205M59.9551 42.065H60.7251M60.0484 41.7967H60.8184M60.1301 41.47H60.8651M60.2818 41.2017H60.9584M60.3634 40.875H61.0051M60.4568 40.6067H61.0401M60.5851 40.28H61.1334M60.6784 40.0117H61.1451M61.5534 40.0584L61.9034 41.6917M61.6818 39.965L62.1834 41.6567M61.8684 39.965L62.4168 41.6567M62.0901 40.0584L62.6851 41.6567M62.6384 41.5167H61.8684M62.5568 41.2834H61.8218M62.4634 41.0617H61.7751M62.3584 40.7817H61.6818M62.2301 40.5484H61.6001M62.1484 40.3267H61.5651M62.0668 40.0934H61.5184" stroke="black" stroke-width="0.0466667"/>
<path d="M54.5534 44.2816C54.9151 44.0483 55.5451 44.0833 55.8718 44.3283C56.2568 44.1183 56.9451 44.1766 57.2601 44.4683C57.7501 44.1183 58.1584 44.0716 58.6251 44.3983C58.8317 44.2612 59.075 44.1901 59.3229 44.1942C59.5708 44.1984 59.8116 44.2777 60.0134 44.4216C60.4451 44.2233 60.9118 44.0599 61.3201 44.4916C61.122 44.3582 60.8854 44.294 60.6471 44.3087C60.4087 44.3235 60.1819 44.4165 60.0018 44.5733C59.5934 44.1649 58.8701 44.3166 58.6251 44.6083C58.5392 44.5151 58.4345 44.4412 58.318 44.3913C58.2015 44.3415 58.0758 44.3168 57.949 44.319C57.8223 44.3212 57.6975 44.3502 57.5828 44.4041C57.4681 44.458 57.3661 44.5355 57.2834 44.6316C56.8518 44.2816 56.2218 44.2583 55.8834 44.5149C55.6948 44.376 55.4766 44.2826 55.2458 44.2421C55.0151 44.2016 54.7781 44.2151 54.5534 44.2816Z" fill="#00B800"/>
<path d="M61.0284 43.7684C59.1501 44.0951 55.0317 43.8851 54.1451 43.6401C53.8301 43.5701 53.9117 43.4534 54.1801 43.5234C55.2184 43.7568 57.4351 43.7568 58.6484 43.6868L59.3717 42.6951C59.4884 42.5434 59.5351 42.5318 59.7801 42.4968L60.7951 42.3218V42.4618C60.7717 42.4968 60.7484 42.5318 60.7134 42.5434C60.7134 42.7768 60.7601 43.3718 60.8184 43.5934L60.9467 43.5584C61.0284 43.5351 61.1101 43.7568 61.0284 43.7684Z" fill="#CF6200"/>
<path d="M64.1201 43.8617H64.3768C64.4468 43.8617 64.5634 43.8034 64.5984 43.6867L64.8551 42.9517L64.6568 42.66L64.7618 42.0417L64.9951 41.9367C65.0184 41.9017 64.9951 41.75 64.9484 41.7034L61.2618 41.82C61.1451 41.82 61.0984 41.82 61.0634 41.9717C60.9545 42.4651 60.984 42.9789 61.1487 43.4565C61.3134 43.9342 61.6069 44.357 61.9968 44.6784C62.0551 44.725 62.1368 44.6784 62.0318 44.5967C61.8348 44.3992 61.6659 44.1754 61.5301 43.9317H62.1368C62.1834 44.13 62.3351 44.5384 62.3701 44.62C62.3934 44.7017 62.4634 44.7017 62.4168 44.585C62.3468 44.3517 62.3001 44.06 62.2651 43.92H62.8834L62.9301 44.5267C62.9301 44.6084 63.0001 44.6084 63.0001 44.515V43.9084L63.5601 43.885L63.5134 44.4917C63.5018 44.5967 63.5484 44.6317 63.5718 44.4917L63.6534 43.885L64.0384 43.8617C64.0384 44.0017 63.9101 44.375 63.8751 44.4684C63.8401 44.585 63.8984 44.585 63.9334 44.48C64.0136 44.2838 64.0761 44.0807 64.1201 43.8734V43.8617Z" fill="#CF6200"/>
<path d="M61.4251 43.7682C61.3667 43.6399 61.1567 43.1732 61.1451 42.8349H61.9617C61.9851 43.0799 62.0551 43.6282 62.1017 43.7566L61.4251 43.7682ZM62.1017 42.8116C62.1134 43.0216 62.2184 43.6866 62.2417 43.7449H62.8951L62.8484 42.7999L62.1017 42.8116ZM61.1801 41.9949C61.1511 42.227 61.1433 42.4613 61.1567 42.6949L61.9384 42.6599L61.8684 41.9716L61.1801 41.9949ZM62.0317 41.9716L62.0784 42.6716L62.8484 42.6482L62.8134 41.9482L62.0317 41.9716ZM62.9651 41.9366L62.9884 42.6366L63.6534 42.6249C63.6534 42.4732 63.6884 42.0182 63.6767 41.9132L62.9651 41.9366ZM63.8051 41.9132L63.7817 42.6132L64.5051 42.5899C64.5401 42.4382 64.6101 42.0416 64.6101 41.8899L63.8051 41.9132ZM64.5401 42.7532L63.7701 42.7766L63.7001 43.7099L64.4351 43.6866C64.5384 43.4588 64.628 43.225 64.7034 42.9866C64.6451 42.8699 64.5984 42.8349 64.5401 42.7532ZM62.9884 42.7999L63.0117 43.7332L63.5717 43.7099L63.6417 42.7766L62.9884 42.7999ZM59.8384 42.6132L59.5351 42.6599C59.2996 43.0088 59.0545 43.3512 58.8001 43.6866L59.8851 43.6632L59.8501 42.6132H59.8384ZM59.9784 42.5782L60.0251 43.6516L60.6784 43.6049L60.5617 42.4849L59.9784 42.5782Z" fill="black"/>
<path d="M56.8051 40.0583H53.2934V39.9649L56.7934 40.0116L56.8051 40.0583ZM59.5468 37.2349C59.5818 37.2349 59.5818 37.2349 59.5468 37.2349L56.8051 37.1883C56.7584 37.1883 56.7584 37.1883 56.8051 37.1883H59.5468V37.2349ZM56.6301 38.0049C56.6651 38.0049 56.6651 38.0516 56.6301 38.0516H53.5151C53.4801 38.0516 53.5151 38.0049 53.5151 38.0049H56.6301ZM56.7118 35.9983C56.7584 35.9983 56.7584 36.0449 56.7118 36.0449H53.4801C53.4334 36.0449 53.4334 35.9983 53.4801 35.9983H56.7118ZM56.4784 34.3999C56.5251 34.3999 56.5251 34.4466 56.4784 34.4466H53.3284C53.2934 34.4466 53.3284 34.3533 53.3284 34.3533L56.5251 34.3999H56.4784Z" fill="black" stroke="black" stroke-width="0.0466667"/>
<path d="M59.7684 33.49L57.0268 33.5367L59.7684 33.49Z" fill="white" stroke="black" stroke-width="0.0466667"/>
<path d="M59.9084 35.0418C59.9551 35.0418 59.9551 35.0418 59.9084 35.0418H56.9334C56.8867 35.0418 56.8867 35.0418 56.9334 35.0418H59.9084ZM62.8717 37.1418V37.1884H59.6751C59.5817 37.1884 59.5817 37.1884 59.6751 37.1884H62.8834L62.8717 37.1418ZM62.8717 34.4468C62.9651 34.4468 62.9651 34.4934 62.8717 34.4934H59.6167C59.5701 34.4934 59.5701 34.4468 59.6167 34.4468H62.9067H62.8717ZM59.8501 39.1951C59.8967 39.1951 59.8967 39.2418 59.8501 39.2418H56.9334V39.1951H59.8501ZM62.6734 39.6034C62.7201 39.6034 62.7201 39.6034 62.6734 39.6034H60.1184H62.6734Z" fill="black" stroke="black" stroke-width="0.0466667"/>
<path d="M65.0184 40.0582C65.0694 39.8474 65.0694 39.6274 65.0184 39.4166C64.927 39.4431 64.8299 39.4431 64.7384 39.4166C64.6937 39.3826 64.647 39.3514 64.5984 39.3232C64.5853 39.6222 64.5263 39.9173 64.4234 40.1982C64.2834 40.1982 63.9567 40.1982 63.8284 40.1049L63.6884 40.5599C63.9151 40.6099 64.15 40.6099 64.3767 40.5599C64.3767 40.8282 64.3301 41.0616 64.1901 41.2482C64.4234 41.2482 64.6567 41.2482 64.6917 41.1082C64.8317 40.9216 64.8317 40.6416 64.8784 40.5132L65.1117 40.4666L65.3334 40.3732L65.6484 40.3266V40.0582L65.7417 39.8716L65.0184 40.1049V40.0582Z" fill="#EF072D" stroke="black" stroke-width="0.0466667"/>
<path d="M53.7017 24.635C53.3401 24.635 52.5117 24.635 52.3367 24.7283C52.1967 24.8217 52.1501 24.8683 52.4301 24.915C52.6984 24.9617 53.2001 25.1483 53.4801 25.2767C53.7484 25.4633 53.9351 25.7433 53.9351 26.1867C53.8337 26.7493 53.9108 27.3296 54.1556 27.8463C54.4003 28.363 54.8005 28.7903 55.3001 29.0683C55.3467 29.115 55.3934 29.15 55.3467 29.3367L55.2067 29.8383C55.2067 29.9317 55.1601 30.025 55.3001 29.9783C55.156 30.2266 55.0002 30.468 54.8334 30.7017C54.1101 30.62 53.4801 30.7017 53.4801 31.5183C53.4801 31.6233 53.4801 31.705 53.5617 31.5183C53.7017 31.3433 53.8417 31.1683 54.1567 31.075C53.9817 31.39 53.8884 31.6583 53.9234 31.845C53.9234 31.985 54.0167 32.0783 54.1101 31.845C54.1567 31.6583 54.3434 31.4833 54.4834 31.3433C54.5651 31.2967 54.5651 31.2967 54.5184 31.4367C54.4988 31.6157 54.5489 31.7953 54.6584 31.9383C54.7517 32.0317 54.7984 31.985 54.7517 31.845C54.7517 31.6583 54.7517 31.3433 54.9851 31.2617C55.2534 31.075 55.5217 31.1567 55.6151 31.3433C55.7551 31.5767 55.8484 31.3433 55.7084 31.1567C55.5684 30.9817 55.4401 30.7483 55.2534 30.7483L55.7201 29.9783C55.7201 29.885 55.8017 29.8383 55.8951 29.885C55.8951 29.9317 55.9884 29.9317 56.0234 29.7917L56.3501 29.15L56.6184 29.0683L57.0851 29.745V30.025C57.0851 30.2 56.8984 30.6083 56.8517 30.7483C56.3034 30.7483 56.0351 30.7483 55.8484 31.075C55.7551 31.2033 55.8951 31.25 56.0234 31.2033C56.1645 31.1192 56.3258 31.0749 56.4901 31.075C56.5717 31.075 56.6184 31.1567 56.4901 31.2033C56.1634 31.3433 55.9417 31.5767 55.9417 31.8917C55.9417 31.985 56.0234 32.0317 56.0701 31.8917C56.2036 31.6676 56.4157 31.5012 56.6651 31.425C56.6651 31.6583 56.7117 32.0317 56.8984 32.125C57.0267 32.2067 57.0267 32.125 56.9917 31.985C56.8984 31.7517 56.9917 31.5183 57.1201 31.39C57.3534 31.1217 57.9017 31.4833 58.0417 31.5767C58.1234 31.6583 58.2167 31.705 58.1234 31.4367C58.0767 31.1217 57.6217 30.97 57.2134 30.8883L57.7617 28.975C57.9951 29.115 58.2284 28.7417 58.5784 28.8817C59.1909 29.1553 59.7734 29.4915 60.3167 29.885C60.5034 30.025 60.5501 29.9783 60.6317 29.885C60.7251 29.8383 60.8651 29.885 61.0051 29.885C61.0867 29.9317 61.1801 29.9783 61.0517 29.6983C60.7892 29.2203 60.4123 28.8154 59.9551 28.52C60.3167 28.52 60.7717 28.52 60.7717 28.4267C60.7717 28.3333 60.2234 28.1467 60.0017 28.1467C60.2701 28.0977 60.5201 27.9767 60.7251 27.7967C60.8184 27.6917 60.7251 27.645 60.3634 27.645C59.4067 27.645 58.9051 27.645 58.4034 27.3767C57.5867 26.91 57.0734 26.3733 56.6651 26.1867C56.4901 26.0583 56.3501 25.7783 56.2101 25.5567C55.9767 24.8567 55.9767 24.5067 55.3934 24.2733C54.7984 24.04 54.0167 24.32 53.7017 24.635Z" fill="black" stroke="black" stroke-width="0.0466667"/>
<path d="M53.7484 24.8216H52.9784C52.9784 24.8216 52.8851 24.8216 52.9784 24.8216L53.6551 25.0082C53.7951 25.0082 53.7484 25.1366 53.6551 25.0899C53.5617 25.0549 53.4801 25.0899 53.5617 25.1832C54.0284 25.5099 54.1101 25.6499 54.0284 26.8749L54.2501 27.0616C54.3434 27.0616 54.2967 27.1432 54.2501 27.0966C54.2034 27.0616 54.0167 27.0966 54.1567 27.1899C54.2967 27.2832 54.3901 27.2832 54.2501 27.2832C54.1101 27.2832 53.9817 27.3766 54.2501 27.3299C54.4834 27.3299 54.6117 27.4232 54.2501 27.4699C53.9817 27.4699 54.0634 27.5632 54.2501 27.5632C54.5651 27.5632 54.4834 27.6449 54.3901 27.6449C54.2967 27.6449 54.2501 27.7382 54.4834 27.7382H54.7984C54.8451 27.7382 54.8917 27.7382 54.7984 27.7849C54.7051 27.7849 54.7051 27.8782 54.8451 27.8782C54.9851 27.8782 55.0784 27.8782 54.9384 27.9249C54.8917 27.9249 54.7984 27.9716 54.9384 28.0182C55.2534 28.0182 55.2884 28.0999 55.2067 28.1466C55.1134 28.1932 55.0667 28.1932 55.2067 28.1932C55.3467 28.1932 55.4867 28.2399 55.3467 28.2866C55.2534 28.2866 55.2067 28.3799 55.3467 28.3799C55.4867 28.3799 55.5801 28.4732 55.4867 28.5199C55.3934 28.5666 55.3467 28.6132 55.4867 28.6132C55.6151 28.6132 55.6617 28.6482 55.5684 28.6949C55.4867 28.7882 55.4401 28.7882 55.3351 28.6949C55.3351 28.6132 55.2534 28.6132 55.2534 28.6949L55.1601 28.5666C55.1134 28.4266 55.0201 28.4266 55.0201 28.5666C55.0201 28.6949 54.9384 28.6132 54.8451 28.5666C55.0659 28.8196 55.365 28.9915 55.6948 29.0549C56.0246 29.1184 56.3661 29.0696 56.6651 28.9166C56.7117 28.9166 56.7584 28.9166 56.8051 29.0682L57.0734 29.5699C57.1201 29.6516 57.2134 29.5699 57.2134 29.4766L57.4934 28.6949C57.4934 28.5666 57.6684 28.4616 57.6217 28.8349C57.7617 28.7416 58.3101 28.6949 58.7651 28.8349C59.2049 29.0108 59.6205 29.2421 60.0017 29.5232C60.0344 29.5484 60.0725 29.5657 60.1129 29.5738C60.1534 29.5819 60.1952 29.5806 60.2351 29.5699C60.3517 29.5699 60.4101 29.5699 60.1767 29.3366C59.9434 29.1032 60.0484 29.0216 60.1767 29.1032C60.3167 29.1966 60.4101 29.1499 60.2701 29.0216L59.8151 28.6132C59.7684 28.6132 59.7684 28.5199 59.5467 28.5199H58.8467C58.7651 28.5199 58.6717 28.5199 58.9517 28.6132C59.2201 28.6949 59.7217 29.0682 59.8617 29.1499C60.0017 29.2432 60.0484 29.4299 59.8151 29.2432C59.2953 28.8975 58.7492 28.5932 58.1817 28.3332C56.9451 28.4732 55.9417 28.6132 55.2067 27.8316C54.8451 27.4232 54.8451 26.5482 55.4401 26.1982C55.3467 26.0932 55.3467 26.0116 55.3934 26.0116V25.7316C55.3001 25.6849 55.2067 25.5916 55.2067 25.4982C55.0667 25.4982 54.9734 25.2766 54.7517 25.3699C54.5184 25.4632 54.4834 25.3699 54.3901 25.3232C54.3434 25.2299 54.2967 25.2299 54.1567 25.2299C54.0167 25.2299 53.9234 25.2299 53.9234 25.1366C53.9234 25.0549 54.0167 25.0549 54.2034 25.1366C54.5184 25.2766 54.7867 25.3699 55.0201 25.0549C55.2067 24.7749 54.9384 24.5532 54.5651 24.4599C54.1567 24.3666 53.8884 24.6932 53.7017 24.8216H53.7484Z" fill="white" stroke="black" stroke-width="0.0466667"/>
<path d="M55.7551 24.6817C55.6203 24.5602 55.4612 24.4688 55.2884 24.4133C55.1718 24.4133 55.1718 24.5067 55.2068 24.5533V24.8217C55.3001 24.8683 55.3468 24.9617 55.2068 24.9617C55.1134 25.055 55.2068 25.37 55.3468 25.2767H55.4401C55.4401 25.2767 55.4401 25.4167 55.5218 25.4167C55.6151 25.4167 55.5218 25.51 55.5218 25.5567H55.6151C55.7084 25.5567 55.6618 25.7317 55.5684 25.79C55.7084 25.79 55.7551 25.79 55.7551 25.8717C55.8018 25.965 55.9418 26.0117 55.9418 26.14C55.9418 26.28 55.9418 26.28 55.7551 26.2333C55.5684 26.1867 55.5684 26.2333 55.5218 26.3267C55.4868 26.42 55.4401 26.4667 55.5218 26.4667C55.6151 26.4667 55.7084 26.5133 55.5684 26.56C55.4401 26.595 55.3001 26.56 55.2534 26.6883C55.2534 26.8283 55.2534 26.875 55.3468 26.8283L55.6618 26.6417L55.8951 26.6883C55.9884 26.735 55.8951 26.9217 55.8018 26.8283C55.7084 26.735 55.6151 26.8283 55.5684 26.875L55.3351 26.9683C55.2534 26.9683 55.1601 26.9683 55.2184 27.2017C55.2184 27.8317 55.7084 28.2867 56.6184 28.2867H58.1351C57.8551 28.1 57.6684 28.0183 57.5284 28.0183H57.4001C57.4468 27.9717 57.4001 27.8783 57.3534 27.8783C57.3068 27.8783 57.2134 27.785 57.1201 27.8783L56.6651 28.1117C56.5718 28.1117 56.4318 28.1117 56.5718 28.0183L56.9918 27.8317C57.0734 27.8317 57.0268 27.7383 57.0268 27.7383C57.0268 27.7383 57.0268 27.5983 57.1668 27.645C57.4468 27.8317 57.8551 28.065 57.9834 28.065C58.1234 28.065 58.1701 27.9717 58.0768 27.925C57.9951 27.8783 57.9484 27.785 57.9484 27.7383C57.9484 27.6917 57.9951 27.645 58.1818 27.7383C58.3568 27.8783 58.6251 27.9717 58.7651 28.0183C58.9051 28.065 58.9984 28.065 58.7651 27.925L57.7151 27.1433C57.5751 27.015 57.5751 27.1433 57.6218 27.2367C57.6684 27.33 57.4934 27.3767 57.3884 27.2833C57.3068 27.19 57.2601 27.1433 57.3884 27.0967C57.5284 27.0617 57.4934 27.015 57.3534 26.8633C57.1668 26.7467 57.1201 26.7467 57.1668 26.8633C57.2134 27.015 57.2134 27.0967 57.0734 27.0617C56.9451 27.015 56.8051 26.9217 56.9451 26.875C57.0268 26.7817 57.1784 26.735 56.9451 26.595C56.7118 26.4667 56.8518 26.595 56.8051 26.6883C56.7584 26.7817 56.6184 26.7817 56.5718 26.6883C56.5251 26.595 56.4434 26.56 56.4901 26.5133C56.5251 26.4667 56.5251 26.42 56.6184 26.5133C56.7118 26.595 56.8051 26.5133 56.6651 26.3733C56.5251 26.2333 56.4901 26.28 56.5251 26.3733C56.5718 26.4667 56.4434 26.56 56.2568 26.3733C56.1634 26.3267 56.1634 26.2333 56.2568 26.1867C56.3501 26.1867 56.3501 26.14 56.2568 26.0583C55.9418 25.51 56.0701 25.09 55.7084 24.6817H55.7551Z" fill="white" stroke="black" stroke-width="0.0466667"/>
<path d="M55.7667 24.775C55.7434 24.8217 55.7317 24.81 55.6734 24.8567C55.6151 24.9033 55.5917 25.0317 55.7084 25.02C55.7406 25.0166 55.7718 25.0066 55.7999 24.9905C55.828 24.9745 55.8525 24.9527 55.8717 24.9267C55.8451 24.8735 55.8139 24.8227 55.7784 24.775H55.7667ZM55.4167 24.4717C55.3117 24.565 55.3001 24.6117 55.3467 24.6117C55.4051 24.6117 55.3817 24.6117 55.3467 24.6817C55.3001 24.74 55.4167 24.775 55.4634 24.7167C55.5217 24.67 55.5217 24.6583 55.5451 24.7167C55.5567 24.775 55.6617 24.7167 55.6967 24.6817C55.6151 24.6 55.4984 24.53 55.4051 24.4717H55.4167ZM55.2417 24.985C55.1251 25.0433 55.1601 25.3583 55.3467 25.265C55.4051 25.2417 55.4517 25.265 55.4517 25.3V25.3817C55.5275 25.3504 55.5953 25.3026 55.6501 25.2417C55.7551 25.1017 55.6501 25.125 55.4867 25.125C55.3234 25.125 55.2884 25.09 55.4401 24.9967C55.5801 24.9033 55.4751 24.8567 55.2884 24.88C55.3117 24.915 55.3001 24.95 55.2417 24.985ZM55.9301 25.685C55.8367 25.58 55.8951 25.545 55.9884 25.4867C56.0067 25.4792 56.0227 25.4671 56.0351 25.4517L55.9534 25.1483C55.9184 25.1717 55.8601 25.2767 55.8367 25.3233C55.8134 25.405 55.7901 25.4517 55.7201 25.44C55.6384 25.405 55.5684 25.4867 55.5567 25.5683H55.6151C55.6384 25.58 55.6501 25.6383 55.6384 25.685C55.8601 25.685 55.8951 25.8133 55.9301 25.9183C55.9767 26.035 56.0117 26.0233 56.0467 25.9533C56.0817 25.8833 56.0117 25.7783 55.9301 25.685Z" fill="#CF6200"/>
<path d="M55.9884 26.9218C55.9417 27.0151 55.9417 27.0034 55.8134 27.0034C55.6967 27.0151 55.5334 27.0384 55.4634 27.1084C55.4284 27.1434 55.2067 27.1668 55.2067 27.2601C55.2067 27.3651 55.2067 27.4351 55.3001 27.4468C55.3934 27.4468 55.4167 27.4701 55.3817 27.5401C55.3351 27.6101 55.3117 27.7151 55.4751 27.7384C55.6384 27.7384 55.7667 27.7034 55.8017 27.7851C55.8484 27.9018 55.8017 28.0301 55.8367 28.1001C55.8601 28.1584 55.9767 28.1818 56.1517 28.2401C56.2684 28.2634 56.7117 28.2984 56.8517 28.2751C56.9684 28.2518 56.9217 28.1818 56.7934 28.1818C56.6534 28.1584 56.5601 28.1351 56.5251 28.0418C56.4901 27.9368 56.4667 27.8901 56.5484 27.8084C56.6184 27.7151 56.6884 27.6568 56.6417 27.5168C56.6067 27.3884 56.5251 27.2251 56.3734 27.1784C56.2217 27.1318 56.2684 26.9101 56.1051 26.8984C56.0467 26.8984 56.0117 26.8984 55.9884 26.9218Z" fill="#FFFF00"/>
<path d="M55.2184 28.2051C55.3584 28.2284 55.4634 28.2634 55.3584 28.2984C55.2534 28.3334 55.1834 28.3918 55.3234 28.4034C55.4634 28.4034 55.5917 28.4734 55.4751 28.4968C55.3584 28.5318 55.3584 28.6134 55.4867 28.6134C55.6151 28.6134 55.6851 28.6601 55.5917 28.7301C55.4867 28.7768 55.4284 28.8118 55.3584 28.7184C55.3001 28.6134 55.2651 28.6018 55.2534 28.6601C55.2301 28.7301 55.1951 28.6834 55.1484 28.5784C55.1134 28.4851 55.0084 28.4384 55.0318 28.5201C55.0668 28.6018 54.9618 28.6251 54.8568 28.5784C54.9526 28.6905 55.0671 28.7852 55.1951 28.8584C55.3351 28.8118 55.4984 28.8584 55.5451 28.8584C55.6151 28.8584 55.7901 28.9051 55.8951 28.9634C56.0001 29.0101 56.0701 28.9168 56.0234 28.8118C55.9768 28.6951 55.9767 28.7301 55.9301 28.8118C55.8601 28.8584 55.8601 28.7768 55.8601 28.6484C55.8601 28.5551 55.7901 28.5668 55.7784 28.6368C55.7551 28.6951 55.6967 28.5901 55.7201 28.5318C55.7551 28.4734 55.7201 28.4384 55.6734 28.4618C55.6151 28.4851 55.6151 28.4618 55.6034 28.3451C55.5917 28.2168 55.5451 28.2284 55.5334 28.2868C55.5217 28.3334 55.4634 28.2634 55.3818 28.1701C55.3234 28.1001 55.2651 28.1468 55.1367 28.1818L55.2184 28.2051Z" fill="#CF6200"/>
<path d="M56.6534 28.9518C56.0117 29.2084 55.5451 29.0918 55.1951 28.8584C55.3351 28.8118 55.4984 28.8584 55.5568 28.8584C55.6151 28.8584 55.8017 28.9051 55.8951 28.9634C55.9884 29.0101 56.0701 28.9168 56.0234 28.8118C56.1051 28.9284 56.1751 28.9984 56.2801 28.9868L56.6534 28.9518ZM55.2767 25.9418C55.2301 25.8018 55.1951 25.7784 55.1251 25.7901C55.0551 25.7901 55.0201 25.7784 54.9384 25.7434C54.8684 25.7084 54.7634 25.7434 54.7517 25.8951C54.7284 26.0468 54.6351 26.1051 54.5184 26.1984C54.4017 26.2801 54.3434 26.3501 54.3434 26.5018C54.3434 26.6418 54.3084 26.6651 54.2267 26.7818L54.0984 26.9334L54.2384 27.0151C54.3317 27.0618 54.2968 27.1201 54.2151 27.0968C54.1334 27.0734 54.0401 27.1201 54.1917 27.1434C54.3317 27.1784 54.3901 27.2601 54.2617 27.2601C54.1101 27.2251 53.9584 27.3534 54.2267 27.3184C54.4951 27.2951 54.5884 27.4234 54.2851 27.4234C53.9701 27.4234 54.0867 27.5284 54.2617 27.5284C54.5534 27.5284 54.4601 27.6101 54.3784 27.6101C54.3084 27.6101 54.2734 27.7268 54.4717 27.6918L54.5417 27.5751C54.5767 27.4818 54.6001 27.2134 54.7167 27.1318C54.8217 27.0618 54.8801 26.9334 54.8801 26.8634C54.8801 26.7934 55.0551 26.4318 55.1484 26.3501C55.2651 26.2684 55.3118 26.0818 55.2651 25.9534L55.2767 25.9418Z" fill="#FFFF00"/>
<path d="M55.0434 25.9651C54.9384 25.8834 54.8218 25.9417 54.8218 26.0817C54.8218 26.1984 54.7518 26.2567 54.6584 26.3151C54.6062 26.342 54.5603 26.38 54.5241 26.4263C54.4878 26.4726 54.462 26.5262 54.4484 26.5834C54.4484 26.7001 54.4718 26.7584 54.4018 26.8517C54.3201 26.9334 54.3084 27.0034 54.3551 27.0617C54.4251 27.1084 54.4251 27.1084 54.4368 27.1784C54.4718 27.2484 54.6001 27.1784 54.6001 27.0967C54.6001 27.0151 54.6351 27.0151 54.7168 26.9684C54.8101 26.9217 54.9501 26.6884 54.9151 26.6301C54.8918 26.5717 54.7984 26.5134 54.9151 26.4317C55.0318 26.3384 55.1251 26.3151 55.1251 26.2451C55.1251 26.1517 55.1484 26.1284 55.1834 26.0934C55.2184 26.0584 55.1134 26.0117 55.0434 25.9767V25.9651Z" fill="#CF6200"/>
<path d="M55.0434 25.8484C54.9734 25.825 54.9268 25.9767 55.0318 26C55.1368 26.0234 55.1484 25.895 55.0318 25.86L55.0434 25.8484ZM55.0318 26.0467C54.9501 26.0584 54.8568 26.1634 54.9851 26.1634C55.1251 26.14 55.1718 26.0467 55.0201 26.0467H55.0318ZM54.8684 26.245C54.7868 26.28 54.8101 26.3967 54.9268 26.315C55.0434 26.2334 55.0668 26.14 54.8684 26.245ZM54.7518 26.4084C54.6701 26.4434 54.6701 26.56 54.7984 26.4784C54.9151 26.4084 54.9501 26.3034 54.7518 26.4084Z" fill="black"/>
<path d="M54.5884 26.49C54.5068 26.525 54.5534 26.63 54.6701 26.56C54.7868 26.49 54.7868 26.385 54.5884 26.49ZM54.6818 26.595C54.5884 26.63 54.6468 26.735 54.7634 26.665C54.8801 26.595 54.8801 26.49 54.6701 26.595H54.6818Z" fill="black"/>
<path d="M54.5301 26.6301C54.4601 26.6768 54.5067 26.7701 54.6351 26.7001C54.7517 26.6301 54.7401 26.5251 54.5301 26.6301ZM54.6351 26.7468C54.5417 26.7818 54.5884 26.8868 54.7167 26.8168C54.8334 26.7351 54.8334 26.6418 54.6234 26.7468H54.6351Z" fill="black"/>
<path d="M54.4834 26.8166C54.4134 26.8516 54.4601 26.9566 54.5884 26.8866C54.7051 26.8166 54.6817 26.7116 54.4951 26.8166H54.4834Z" fill="black"/>
<path d="M54.4834 26.9101C54.4251 26.9567 54.4718 27.0734 54.6001 26.9917C54.7168 26.9101 54.6934 26.8167 54.4834 26.9101Z" fill="black"/>
<path d="M54.4367 27.9133C54.3551 27.9133 54.2967 28.0417 54.4017 28.065C54.5067 28.0883 54.5301 28.1 54.5301 28.17C54.5301 28.24 54.5651 28.3683 54.6701 28.3683C54.7867 28.3683 54.8801 28.2517 54.7867 28.2167C54.6817 28.1817 54.6001 28.1467 54.5884 28.0533C54.5884 27.9717 54.4951 27.9133 54.4367 27.9133Z" fill="#CF6200"/>
<path d="M57.3417 27.2249L57.4001 27.2949C57.4817 27.3532 57.6334 27.2949 57.5984 27.2365C57.5867 27.1899 57.5051 27.0032 57.7151 27.1432L58.7884 27.9015C59.0101 28.0649 58.8584 28.0882 58.7651 28.0299L58.1817 27.7615C58.0067 27.6565 57.9834 27.7032 57.9484 27.7265C57.9484 27.7615 57.9484 27.8315 58.0184 27.8899C57.9134 27.9015 57.7501 27.8899 57.6917 27.7732C57.6334 27.6332 57.4934 27.4699 57.3884 27.3415C57.3534 27.2949 57.3417 27.2599 57.3534 27.2365L57.3417 27.2249Z" fill="#FFFF00"/>
<path d="M63.2334 46.65C63.0818 46.755 62.8834 46.93 63.0118 47.175L63.0584 47.1634C63.6275 46.4726 64.1314 45.7305 64.5634 44.9467V44.8767C64.4049 45.0069 64.228 45.1131 64.0384 45.1917C64.1084 45.39 63.7701 45.635 63.6068 45.705C63.6768 45.8217 63.6534 46.0084 63.4901 46.0434C63.5251 46.1367 63.4084 46.1367 63.2568 46.2067C63.1284 46.265 63.0584 46.3 63.0118 46.3817C63.0818 46.335 63.1984 46.3 63.2451 46.3234C63.2918 46.3467 63.3151 46.4284 63.2101 46.4517C63.1168 46.4867 63.0468 46.5334 63.0001 46.5684C63.1518 46.5334 63.3734 46.545 63.2334 46.65Z" fill="#00D860"/>
<path d="M56.2101 27.0151C56.0234 26.8751 55.9768 26.9684 56.0234 27.0151C56.0701 27.0618 56.0234 27.1901 55.8951 27.2484H55.4284C55.3468 27.2484 55.2068 27.4234 55.4284 27.3651L56.1634 27.2484C56.2568 27.2484 56.3501 27.1434 56.1634 27.0151H56.2101ZM56.5251 27.2834C56.3968 27.1434 56.3501 27.1901 56.3968 27.2834C56.4434 27.3768 56.3501 27.4234 56.2568 27.4234L55.6151 27.5984C55.4401 27.5984 55.4401 27.7384 55.6618 27.7384C55.8951 27.7384 56.3501 27.5051 56.3968 27.5051C56.4434 27.5051 56.4901 27.3768 56.5251 27.4234C56.5718 27.4701 56.6651 27.4234 56.5251 27.2834ZM56.6651 27.6451L56.2101 27.8784C56.0701 27.8784 55.9768 28.0184 56.2101 28.0184C56.4434 28.0184 56.6768 27.7851 56.7584 27.7384L56.9451 27.6451C56.9451 27.6451 57.1201 27.5984 56.9451 27.4701C56.7584 27.3301 56.5718 27.4701 56.6651 27.5168C56.7584 27.5634 56.6651 27.6451 56.6651 27.6451Z" fill="black" stroke="black" stroke-width="0.0466667"/>
<path d="M54.7984 24.6816C54.5068 24.4832 54.1918 24.8799 54.5068 25.1016C54.7868 25.2999 55.0901 24.8682 54.8101 24.6816H54.7984Z" fill="black"/>
<path d="M54.4367 24.8567H54.5184C54.5184 24.95 54.6001 25.09 54.7284 25.055C54.6234 25.1367 54.4251 25.0317 54.4367 24.8567ZM55.5567 29.1734C55.6501 29.2084 55.9534 29.2317 56.0701 29.2317L55.9301 29.4884C55.8951 29.57 55.8834 29.5817 55.8717 29.4534C55.8717 29.3367 55.8017 29.255 55.7434 29.3834L55.6267 29.6167C55.5917 29.6634 55.5451 29.675 55.5567 29.5467C55.5801 29.4184 55.5684 29.2784 55.5567 29.1734Z" fill="white"/>
<path d="M67.0251 32.6734C67.0251 40.1051 65.8351 48.1318 56.1751 51.9584C46.5384 48.1318 45.3601 40.1051 45.3134 32.6734H67.0251ZM67.0251 32.6734C67.0251 29.8384 66.8851 27.0968 66.9318 24.7401C63.4999 23.4055 59.8455 22.7364 56.1634 22.7684C53.7484 22.7684 49.0001 23.1301 45.4068 24.7284C45.4884 27.0968 45.3134 29.8384 45.3134 32.6618L67.0251 32.6734Z" stroke="black" stroke-width="0.14"/>
<path d="M0 9.375H37.3333V37.375H0V9.375Z" fill="#012169"/>
<path d="M4.375 9.375L18.6083 19.9333L32.7833 9.375H37.3333V12.9917L23.3333 23.4333L37.3333 33.8167V37.375H32.6667L18.6667 26.9333L4.725 37.375H0V33.875L13.9417 23.4917L0 13.1083V9.375H4.375Z" fill="white"/>
<path d="M24.7333 25.7667L37.3333 35.0417V37.375L21.525 25.7667H24.7333ZM14 26.9333L14.35 28.975L3.15 37.375H0L14 26.9333ZM37.3333 9.375V9.55L22.8083 20.5167L22.925 17.95L34.4167 9.375H37.3333ZM0 9.375L13.9417 19.6417H10.4417L0 11.825V9.375Z" fill="#C8102E"/>
<path d="M14.0583 9.375V37.375H23.3917V9.375H14.0583ZM0 18.7083V28.0417H37.3333V18.7083H0Z" fill="white"/>
<path d="M0 20.6333V26.2333H37.3333V20.6333H0ZM15.925 9.375V37.375H21.525V9.375H15.925Z" fill="#C8102E"/>
</g>
<defs>
<clipPath id="clip0_1_74171">
<rect width="74.6667" height="56" fill="white" transform="translate(0 9.375)"/>
</clipPath>
</defs>
</svg>
