<svg width="75" height="75" viewBox="0 0 75 75" fill="none" xmlns="http://www.w3.org/2000/svg">
<rect width="74.6667" height="74.75" fill="white"/>
<g clip-path="url(#clip0_1_73985)">
<path d="M74.6667 65.375V9.375H0V65.375H74.6667Z" fill="#002868"/>
<path d="M68.8333 29.7451V40.2451C68.8333 47.2451 65.3333 54.7847 56.5833 58.868C47.8333 54.7847 44.3333 47.2451 44.3333 40.2451V29.7451H68.8333Z" fill="#FCD116" stroke="black" stroke-width="0.933333"/>
<path d="M68.8333 29.7451V40.2451C68.8333 47.2451 65.3333 54.7847 56.5833 58.868C47.8333 54.7847 44.3333 47.2451 44.3333 40.2451V29.7451H68.8333Z" stroke="white" stroke-width="0.816667"/>
<path d="M52.1646 41.3097C51.8437 41.8493 51.3041 41.9659 50.8812 41.7909C50.4437 41.6159 50.05 40.5951 49.6125 40.0409C49.1896 39.5014 49.0729 39.7347 48.7812 39.4139C48.5041 39.1076 48.0666 38.8743 47.3812 38.5534C47.0021 38.3784 46.6083 38.218 46.3458 37.5472C46.4479 37.2701 46.725 37.0368 46.9437 36.9493C47.1625 36.8764 47.3375 36.5555 47.3666 36.2784C47.3958 36.0159 47.6291 35.7243 47.95 35.5055C47.8041 35.5347 47.4979 35.4764 47.3521 35.3743C47.2208 35.2576 47.0021 35.2868 46.8708 35.3889C46.7396 35.4764 46.5791 35.5055 46.3458 35.4764C46.4333 35.4034 46.5937 35.243 46.6083 35.0972C46.6229 34.9514 46.7979 34.8784 47.1333 34.8784C47.4541 34.8784 47.6729 34.4993 47.9354 34.4993C47.7458 34.4993 47.7896 34.1784 47.8916 34.1639C47.425 34.0764 47.4833 33.6972 47.6729 33.6972C47.6583 33.6389 47.6 33.5805 47.3812 33.5076C47.1771 33.4347 47.2791 33.2451 47.4396 33.1284C47.2937 32.8368 47.425 32.618 47.6583 32.4284C47.3375 32.4139 47.6875 31.9618 47.775 31.7139C47.8625 31.4805 47.9062 31.4514 48.0083 31.5972C48.125 31.7284 48.3875 32.0347 48.6937 32.1222C48.9854 32.2097 49.1604 32.3701 49.2187 32.618C49.2771 32.8805 49.3937 33.0118 49.7146 33.1284C50.05 33.2305 50.5021 33.5076 50.4437 34.1347C50.7062 34.1493 50.8958 34.2222 51.0562 34.3534" fill="#FCAD56"/>
<path d="M52.1646 41.3097C51.8437 41.8493 51.3041 41.9659 50.8812 41.7909C50.4437 41.6159 50.05 40.5951 49.6125 40.0409C49.1896 39.5014 49.0729 39.7347 48.7812 39.4139C48.5041 39.1076 48.0666 38.8743 47.3812 38.5534C47.0021 38.3784 46.6083 38.218 46.3458 37.5472C46.4479 37.2701 46.725 37.0368 46.9437 36.9493C47.1625 36.8764 47.3375 36.5555 47.3666 36.2784C47.3958 36.0159 47.6291 35.7243 47.95 35.5055C47.8041 35.5347 47.4979 35.4764 47.3521 35.3743C47.2208 35.2576 47.0021 35.2868 46.8708 35.3889C46.7396 35.4764 46.5791 35.5055 46.3458 35.4764C46.4333 35.4034 46.5937 35.243 46.6083 35.0972C46.6229 34.9514 46.7979 34.8784 47.1333 34.8784C47.4541 34.8784 47.6729 34.4993 47.9354 34.4993C47.7458 34.4993 47.7896 34.1784 47.8916 34.1639C47.425 34.0764 47.4833 33.6972 47.6729 33.6972C47.6583 33.6389 47.6 33.5805 47.3812 33.5076C47.1771 33.4347 47.2791 33.2451 47.4396 33.1284C47.2937 32.8368 47.425 32.618 47.6583 32.4284C47.3375 32.4139 47.6875 31.9618 47.775 31.7139C47.8625 31.4805 47.9062 31.4514 48.0083 31.5972C48.125 31.7284 48.3875 32.0347 48.6937 32.1222C48.9854 32.2097 49.1604 32.3701 49.2187 32.618C49.2771 32.8805 49.3937 33.0118 49.7146 33.1284C50.05 33.2305 50.5021 33.5076 50.4437 34.1347C50.7062 34.1493 50.8958 34.2222 51.0562 34.3534" stroke="black" stroke-width="0.0320833" stroke-linecap="round" stroke-linejoin="round"/>
<path d="M52.9665 33.4054C52.9665 33.7554 53.127 33.9741 53.3311 34.1491C53.5499 34.3241 53.7395 34.47 53.6957 34.6887C53.652 34.9221 53.7395 35.0679 53.929 35.2137C54.1332 35.3596 54.279 35.5346 54.2207 35.8262C54.1624 36.1179 54.2061 36.2929 54.3228 36.5116C54.4395 36.7304 54.6436 36.9054 54.5561 37.2554C54.4686 37.6054 54.5124 38.0721 54.629 38.3054C54.7311 38.5241 54.629 38.6991 54.4249 39.0929C54.2207 39.4721 54.104 39.6179 53.6811 39.7637C53.2436 39.895 53.2145 40.1575 53.2145 40.6096C53.2145 41.0762 52.9082 41.3096 52.3395 41.2221C51.7561 41.7033 51.3915 41.1346 51.2457 40.42C51.0999 39.7054 51.0707 38.9325 50.2103 38.3054C49.3645 37.6637 49.6999 36.5846 50.4145 36.1471C51.129 35.7241 51.0415 34.47 50.954 33.6971C50.8811 32.9241 51.3915 32.4866 51.7853 32.0637C52.3103 32.2679 52.9665 33.07 52.9665 33.4054Z" fill="#FFA1A1" stroke="black" stroke-width="0.0320833" stroke-linecap="round" stroke-linejoin="round"/>
<path d="M51.727 38.3783C51.5665 37.9991 51.3915 37.62 51.8145 36.8033C52.252 35.9721 51.9749 35.345 51.8436 34.9221C51.7124 34.5137 51.6832 34.1346 51.8436 33.9596C52.0186 33.7991 52.0915 33.6971 52.1061 33.42C52.1207 33.1575 52.3395 33.245 52.3686 33.3762C52.3978 33.5075 52.427 33.7262 52.1936 34.12C51.9603 34.5283 52.8499 35.52 52.4415 36.5846C52.1645 37.3283 52.529 38.2762 52.6749 38.9325C52.8207 39.5887 52.9082 41.1637 51.9457 41.3971C52.602 41.0762 51.9895 38.9908 51.727 38.3783Z" fill="#F1B2DC" stroke="black" stroke-width="0.0320833" stroke-linecap="round" stroke-linejoin="round"/>
<path d="M47.3957 38.2616C47.5561 38.2908 47.6436 38.2033 47.6874 38.1012C47.7311 37.9991 47.7603 37.9408 47.9061 37.9262C48.0519 37.9262 48.2853 37.8824 48.3436 37.7658C48.3874 37.6491 48.5624 37.7512 48.7228 37.4595C48.8686 37.1533 48.9707 36.8033 49.3644 36.672M50.4436 34.1345C50.2978 34.1345 49.8749 34.1491 49.6999 34.5283M48.4894 32.3262C48.8394 32.4283 48.6936 32.6616 48.8686 32.7928C49.1894 33.0408 48.8978 33.3033 49.1603 33.3762C49.4228 33.4491 49.4082 33.4928 49.3499 33.7845C49.2624 34.1199 49.5832 34.1345 49.4665 34.3533M47.9499 35.5053C48.154 35.3158 48.6644 35.1699 48.7811 34.9658M47.9353 34.4991C48.2415 34.4845 48.6499 34.6012 48.7082 34.4845M47.8915 34.1637C48.0374 34.1637 48.3436 34.0616 48.4019 33.8574M47.6728 33.697C47.8478 33.697 48.0665 33.6824 48.2853 33.522M47.4394 33.1283C47.5707 33.0262 47.804 33.1428 48.0228 32.997M47.6582 32.4283C47.7603 32.4283 47.979 32.3991 47.979 32.5303" stroke="black" stroke-width="0.0320833" stroke-linecap="round" stroke-linejoin="round"/>
<path d="M61.6146 35.0971C61.6146 35.0971 60.5938 34.2367 59.748 33.6533C58.9021 33.07 57.8813 32.3554 57.8813 32.2096C58.0417 32.0929 58.9021 32.6471 60.0834 33.3617C61.2792 34.0908 61.9501 34.8054 61.9501 34.8054L61.6146 35.0971ZM61.5417 35.6804C61.5417 35.6804 60.5501 35.0825 59.573 34.6596C58.5521 34.2367 57.0209 34.2367 56.8605 34.0908C56.8605 33.945 58.6396 33.8575 59.9084 34.3679C61.2063 34.9658 61.8771 35.3887 61.8771 35.3887L61.5417 35.6804ZM61.5271 36.6721C61.5271 36.6721 60.448 36.1762 59.398 35.9429C58.3771 35.7096 56.9188 35.7971 56.7438 35.6658C56.7438 35.52 58.5521 35.2283 59.9084 35.6658C61.2792 36.0887 61.8626 36.3804 61.8626 36.3804L61.5271 36.6721ZM61.4688 37.6783C61.4688 37.6783 60.6521 37.1242 59.573 37.0075C58.5521 36.9054 57.1959 37.6783 57.0209 37.5325C57.0209 37.3867 58.2021 36.5262 59.6751 36.6721C61.1188 36.8179 61.8042 37.3867 61.8042 37.3867L61.4688 37.6783ZM61.8042 34.4992C61.8042 34.4992 60.7688 33.5512 60.7688 32.9096C60.7688 32.3408 61.3959 31.4658 61.673 31.4658C61.5271 31.7575 61.0459 32.3408 61.0459 32.9096C61.0459 33.4929 62.1396 34.2075 62.1396 34.2075L61.8042 34.4992Z" fill="#9E540A" stroke="black" stroke-width="0.0320833" stroke-linecap="round" stroke-linejoin="round"/>
<path d="M61.8042 34.4992C61.8042 34.4992 62.0084 33.5513 62.0084 32.9096C62.0084 32.0492 61.3959 31.2617 61.4542 31.043C61.673 31.2617 62.2855 31.9034 62.2855 32.9096C62.2855 33.7846 62.1396 34.2076 62.1396 34.2076L61.8042 34.4992Z" fill="#9E540A" stroke="black" stroke-width="0.0320833" stroke-linecap="round" stroke-linejoin="round"/>
<path d="M62.0521 34.193C62.0521 33.916 61.9501 33.668 61.7751 33.4785C61.5417 33.2014 61.1917 33.1139 60.8271 33.1722C60.3896 33.2451 60.0396 33.5076 59.8209 33.916C59.5292 34.4555 59.5001 35.0389 59.4855 35.6076C59.4855 37.5764 59.5584 38.3785 59.6167 40.318C59.6313 40.8868 59.7334 42.0534 59.4709 42.9722C59.3688 43.3659 59.2521 43.7305 59.0771 44.1097C59.1938 43.6284 59.2521 43.3805 59.3105 43.016C59.4709 42.068 59.4271 41.1784 59.398 40.3035C59.3396 38.5097 59.2376 37.591 59.1792 35.418C59.1646 34.7618 59.223 34.266 59.5292 33.741C59.8501 33.2014 60.4042 32.8076 61.0313 32.8076C61.2938 32.8076 61.5126 32.8514 61.7313 32.9826C62.1688 33.216 62.373 33.6972 62.373 34.1785L62.0521 34.193Z" fill="#9E540A"/>
<path d="M62.1397 41.222C62.1397 41.222 61.7313 41.9512 61.4251 42.4762C61.1188 43.0012 60.8709 43.1178 60.6376 42.9574C60.4188 42.797 60.6084 42.3741 60.7834 42.1699C60.9584 41.9657 61.9355 41.0178 61.9355 41.0178L62.1397 41.222Z" fill="#9E540A" stroke="black" stroke-width="0.0320833" stroke-linecap="round" stroke-linejoin="round"/>
<path d="M62.2417 41.2804C62.2417 41.2804 62.0813 42.1117 61.9501 42.7096C61.8334 43.3075 61.6292 43.5117 61.3813 43.4388C61.1188 43.3804 61.1626 42.8992 61.2646 42.6513C61.3667 42.4033 61.9792 41.1492 61.9792 41.1492L62.2417 41.2804Z" fill="#9E540A" stroke="black" stroke-width="0.0320833" stroke-linecap="round" stroke-linejoin="round"/>
<path d="M62.4167 41.3095V42.7678C62.4167 43.3803 62.2709 43.6282 61.9938 43.6137C61.7313 43.5991 61.673 43.1324 61.7313 42.8553C61.7751 42.5928 62.1396 41.2366 62.1396 41.2366L62.4167 41.3095Z" fill="#9E540A" stroke="black" stroke-width="0.0320833" stroke-linecap="round" stroke-linejoin="round"/>
<path d="M62.4167 41.2949C61.6438 41.2804 61.5709 41.0033 61.5709 41.0033C61.5709 41.0033 61.4688 40.6533 61.4542 40.4345C61.4396 40.4054 61.2355 39.9679 61.2938 39.7783C61.2209 39.6033 61.0459 39.1804 61.2063 39.1074C61.1334 38.9033 61.0167 38.6699 61.0021 38.4512C60.9438 38.2908 60.798 37.9408 60.9146 37.8241C60.9146 37.8241 60.6376 37.2408 60.7688 37.0949C60.7688 37.0949 60.6376 36.5262 60.7688 36.3804C60.7688 36.3804 60.7688 35.797 60.9146 35.6512C60.9146 35.6512 60.9146 35.0824 61.0459 34.9366C61.0459 34.9658 61.4542 34.1345 62.4167 34.1345L62.4021 35.3741H62.4167V41.2949Z" fill="#9E540A" stroke="black" stroke-width="0.0320833" stroke-linecap="round" stroke-linejoin="round"/>
<path d="M62.4167 38.1158C61.1771 38.1012 60.9146 37.8241 60.9146 37.8241M62.4167 37.3866C61.1771 37.3866 60.7688 37.0949 60.7688 37.0949M62.4167 36.672C61.1771 36.6574 60.7688 36.3803 60.7688 36.3803M62.4167 35.9428C61.1771 35.9283 60.9146 35.6512 60.9146 35.6512M62.4021 35.3741C62.4167 35.3741 61.4688 35.3741 61.323 35.2283L61.0459 34.9512M62.4167 40.7116C62.0521 40.7116 61.6438 40.6533 61.4542 40.4345M62.4167 40.1283C61.7313 40.1283 61.323 39.8512 61.323 39.8512C61.323 39.8512 61.3084 39.822 61.2938 39.7783M62.4167 39.4137C61.5125 39.3991 61.2646 39.2095 61.2063 39.1074M62.4167 38.8303C61.1771 38.8303 61.0459 38.5387 61.0459 38.5387L61.0021 38.4512" stroke="black" stroke-width="0.0320833" stroke-linecap="round" stroke-linejoin="round"/>
<path d="M56.5833 54.7118C55.9562 55.2951 54.7458 54.9159 54.3666 54.6534C53.9729 54.7847 52.9229 54.3763 52.6458 53.9243C51.8875 54.0263 51.625 52.9472 51.7562 52.6701C51.9604 52.2618 51.5958 51.9993 51.8583 51.7222C52.2229 51.3722 51.6541 51.0368 52.0041 50.8034C52.3541 50.5555 51.9166 50.1472 52.2666 49.8847C52.6312 49.6076 52.0771 49.2284 52.4562 49.0388C52.8354 48.8493 52.4125 48.3534 52.7333 48.1638C53.0541 47.9743 52.5437 47.493 52.9812 47.2743C53.4041 47.0555 53.025 46.6763 53.3604 46.5159C53.725 46.3263 53.3896 45.9326 53.725 45.8013C54.1041 45.6409 53.8271 45.218 54.1479 45.1013C54.425 44.9993 54.25 44.7368 54.425 44.5034H56.5833" fill="#009E49"/>
<path d="M56.5833 54.7118C55.9562 55.2951 54.7458 54.9159 54.3666 54.6534C53.9729 54.7847 52.9229 54.3763 52.6458 53.9243C51.8875 54.0263 51.625 52.9472 51.7562 52.6701C51.9604 52.2618 51.5958 51.9993 51.8583 51.7222C52.2229 51.3722 51.6541 51.0368 52.0041 50.8034C52.3541 50.5555 51.9166 50.1472 52.2666 49.8847C52.6312 49.6076 52.0771 49.2284 52.4562 49.0388C52.8354 48.8493 52.4125 48.3534 52.7333 48.1638C53.0541 47.9743 52.5437 47.493 52.9812 47.2743C53.4041 47.0555 53.025 46.6763 53.3604 46.5159C53.725 46.3263 53.3896 45.9326 53.725 45.8013C54.1041 45.6409 53.8271 45.218 54.1479 45.1013C54.425 44.9993 54.25 44.7368 54.425 44.5034H56.5833" stroke="black" stroke-width="0.0320833" stroke-linecap="round" stroke-linejoin="round"/>
<path d="M55.1396 44.5908C54.8479 44.8825 55.1979 45.1012 54.9062 45.4512C54.6 45.8158 54.8771 46.0054 54.6292 46.3262C54.3812 46.6471 54.7458 46.8075 54.4687 47.1721C54.1917 47.5221 54.5271 47.7408 54.2208 48.0325C53.9292 48.3387 54.2792 48.6012 53.9729 48.9221C53.6812 49.2575 54.0312 49.4762 53.7396 49.7679C53.4333 50.0742 53.7833 50.395 53.4917 50.6867C53.2 50.9929 53.55 51.3721 53.2146 51.7221C52.8937 52.0721 53.2729 52.3492 53.0104 52.6117C52.7333 52.8887 52.9812 53.1658 52.7917 53.3554C52.6021 53.545 52.5729 53.8075 52.6458 53.9242M55.7083 44.6929C55.4458 45.0575 55.8542 45.2179 55.6062 45.5096C55.3583 45.8158 55.7083 45.9179 55.5187 46.2679C55.3292 46.6179 55.6646 46.7054 55.4167 47.0554C55.1687 47.4054 55.5479 47.6825 55.2854 48.0325C55.0083 48.3825 55.4167 48.5721 55.1687 48.9221C54.9354 49.2867 55.2854 49.4762 55.0667 49.7387C54.8479 50.0158 55.2271 50.2783 54.95 50.6137C54.6875 50.9346 55.0667 51.1825 54.8479 51.4742C54.6292 51.7804 54.9354 52.1012 54.7458 52.3492C54.5562 52.5825 54.8771 52.9471 54.6 53.2679C54.3375 53.5887 54.6583 53.8075 54.4979 54.0262C54.3375 54.245 54.2062 54.5658 54.3667 54.6533" stroke="black" stroke-width="0.0320833" stroke-linecap="round" stroke-linejoin="round"/>
<path d="M56.5833 54.7118V44.5034" stroke="#009E49" stroke-width="0.0320833" stroke-linecap="round" stroke-linejoin="round"/>
<path d="M56.5833 45.0283C56.4521 45.5971 56.7729 46.0929 56.5833 46.5742C56.3937 47.0408 56.7146 47.2304 56.6125 47.6096C56.4958 47.9887 56.7437 48.2658 56.5833 48.6742C56.4229 49.0825 56.8021 49.4033 56.5833 49.9429C56.3646 50.4679 56.7291 50.5992 56.5833 51.1387C56.4229 51.7512 56.8604 52.0721 56.5833 52.5096C56.3062 52.9471 56.8312 53.0492 56.6125 53.545C56.3937 54.0262 56.7437 54.2158 56.5833 54.7117" stroke="black" stroke-width="0.0320833" stroke-linecap="round" stroke-linejoin="round"/>
<path d="M56.8021 46.8658C56.7292 47.0262 57.0208 47.4053 56.8604 47.697C56.6854 47.9741 56.9479 48.4116 56.7729 48.7616C56.5979 49.1116 57.05 49.5491 56.875 49.9574C56.6854 50.3658 56.9625 50.8762 56.875 51.2553C56.8021 51.6345 57.0646 52.3637 56.875 52.6262C56.6854 52.9033 57.0646 52.9762 56.8458 53.647C56.6271 54.3178 56.4812 53.7491 56.6125 53.5449C56.8896 53.0928 56.3062 52.947 56.5833 52.5095C56.8604 52.072 56.4229 51.7512 56.5833 51.1387C56.7292 50.5991 56.3646 50.4678 56.5833 49.9428C56.8021 49.4033 56.4229 49.0824 56.5833 48.6741C56.7437 48.2658 56.4958 47.9887 56.6125 47.6095C56.7146 47.2303 56.3937 47.0408 56.5833 46.5741C56.7292 46.1074 56.875 46.7053 56.8021 46.8658ZM55.5771 47.3324C55.475 47.5074 55.7521 47.8428 55.5042 48.1783C55.3292 48.4116 55.6208 48.6887 55.3729 49.0241C55.2125 49.2574 55.5333 49.5491 55.3146 49.8845C55.1687 50.0741 55.4167 50.4387 55.2417 50.7158C55.0667 51.0074 55.3292 51.2408 55.0229 51.6199C54.8479 51.8241 55.1542 52.3345 54.9646 52.4949C54.775 52.6553 54.95 53.2824 54.8187 53.3699C54.7021 53.472 54.8187 53.9241 54.4979 54.0262C54.6583 53.8074 54.3375 53.5887 54.6 53.2678C54.8771 52.947 54.5562 52.5824 54.7458 52.3491C54.9354 52.1012 54.6292 51.7803 54.8479 51.4741C55.0667 51.1824 54.6875 50.9345 54.95 50.6137C55.2271 50.2783 54.8479 50.0158 55.0667 49.7387C55.2854 49.4762 54.9354 49.2866 55.1687 48.922C55.4167 48.572 55.0083 48.3824 55.2854 48.0324C55.5479 47.6824 55.1687 47.4053 55.4167 47.0553C55.6646 46.7053 55.3292 46.6178 55.5187 46.2678C55.8687 46.3991 55.6937 47.1574 55.5771 47.3324ZM54.8479 46.3845C54.7021 46.6178 54.9062 46.8949 54.6875 47.1866C54.4687 47.4928 54.6875 47.872 54.4687 48.1199C54.25 48.3533 54.5271 48.8199 54.25 49.0095C53.9729 49.1991 54.1479 49.7678 53.9292 49.9574C53.7104 50.147 53.9292 50.6866 53.6812 50.9637C53.4333 51.2408 53.55 51.8095 53.4042 51.9408C53.2729 52.072 53.5937 52.3491 53.3604 52.5387C53.1125 52.7283 53.1125 53.1074 52.7917 53.3553C52.9812 53.1658 52.7333 52.8887 53.0104 52.6116C53.2729 52.3491 52.8937 52.072 53.2146 51.722C53.55 51.372 53.2 50.9928 53.4917 50.6866C53.7833 50.3949 53.4333 50.0741 53.7396 49.7678C54.0312 49.4762 53.6812 49.2574 53.9729 48.922C54.2792 48.6012 53.9292 48.3387 54.2208 48.0324C54.5271 47.7408 54.1917 47.522 54.4687 47.172C54.7458 46.8074 54.3812 46.647 54.6292 46.3262C54.7458 46.1803 54.7458 46.0491 54.7458 45.9324C54.9208 45.4803 54.9208 46.2678 54.8479 46.3845Z" fill="#FCD116" stroke="black" stroke-width="0.0320833" stroke-linecap="round" stroke-linejoin="round"/>
<path d="M54.5562 44.8388C54.5562 41.7763 54.9791 40.7117 56.5833 40.7117C58.1875 40.7117 58.6104 41.7763 58.6104 44.8388H54.5562Z" fill="#CE1126" stroke="black" stroke-width="0.0320833" stroke-linecap="round" stroke-linejoin="round"/>
<path d="M54.5562 44.8388C54.5562 41.7763 54.9791 40.7117 56.5833 40.7117C55.8541 40.7117 55.4021 41.2804 55.2854 41.6596C55.1541 42.0388 55.2271 42.0096 55.3875 41.8638C55.5479 41.7179 55.475 42.0388 55.3291 42.2138C55.1979 42.3888 55.0666 42.8992 55.2562 42.7388C55.4458 42.5638 55.5916 42.7533 55.3875 43.045C55.1833 43.3221 55.0083 43.9929 55.2125 43.7596C55.4166 43.5263 55.4604 43.9054 55.3291 44.095C55.2125 44.2846 55.2271 44.4596 55.3291 44.3721C55.4458 44.2846 55.4312 44.6783 55.3291 44.8388H54.5562ZM57.3416 44.7804C57.3416 44.3283 57.3562 43.2638 57.1083 42.9138C56.9333 42.6367 56.9333 42.345 57.1375 42.6658C57.3416 42.9867 57.4437 42.8263 57.2979 42.5054C57.1229 42.0971 56.8896 41.645 56.9479 41.5575C57.0208 41.4554 57.0646 41.4992 57.2104 41.7179C57.3562 41.9367 57.3854 41.6158 57.225 41.3971C57.0646 41.1929 57.0791 41.1492 57.4146 41.295C58.0125 41.5429 58.3041 42.2575 58.3041 44.6638L57.3416 44.7804Z" fill="black" stroke="black" stroke-width="0.0320833" stroke-linecap="round" stroke-linejoin="round"/>
<path d="M56.5833 45.2763C55.9416 45.2763 55.2416 45.1742 54.775 44.9846C54.2208 44.7658 54.1916 44.5763 54.3812 44.3429C54.5271 44.1679 54.8187 44.27 55.1104 44.4013C55.3875 44.5179 56.175 44.6054 56.5833 44.6054C56.9916 44.6054 57.7791 44.5179 58.0562 44.3867C58.3479 44.27 58.6396 44.1679 58.7854 44.3429C58.975 44.5763 58.9458 44.7658 58.3916 44.9846C57.925 45.1742 57.225 45.2763 56.5833 45.2763Z" fill="#CE1126" stroke="black" stroke-width="0.0320833" stroke-linecap="round" stroke-linejoin="round"/>
<path d="M0 9.375H37.3333V37.375H0V9.375Z" fill="#012169"/>
<path d="M4.375 9.375L18.6083 19.9333L32.7833 9.375H37.3333V12.9917L23.3333 23.4333L37.3333 33.8167V37.375H32.6667L18.6667 26.9333L4.725 37.375H0V33.875L13.9417 23.4917L0 13.1083V9.375H4.375Z" fill="white"/>
<path d="M24.7333 25.7667L37.3333 35.0417V37.375L21.525 25.7667H24.7333ZM14 26.9333L14.35 28.975L3.15 37.375H0L14 26.9333ZM37.3333 9.375V9.55L22.8083 20.5167L22.925 17.95L34.4167 9.375H37.3333ZM0 9.375L13.9417 19.6417H10.4417L0 11.825V9.375Z" fill="#C8102E"/>
<path d="M14.0583 9.375V37.375H23.3917V9.375H14.0583ZM0 18.7083V28.0417H37.3333V18.7083H0Z" fill="white"/>
<path d="M0 20.6333V26.2333H37.3333V20.6333H0ZM15.925 9.375V37.375H21.525V9.375H15.925Z" fill="#C8102E"/>
</g>
<defs>
<clipPath id="clip0_1_73985">
<rect width="74.6667" height="56" fill="white" transform="translate(0 9.375)"/>
</clipPath>
</defs>
</svg>
