<svg width="75" height="75" viewBox="0 0 75 75" fill="none" xmlns="http://www.w3.org/2000/svg">
<rect width="74.6667" height="74.75" fill="white"/>
<g clip-path="url(#clip0_1_73994)">
<path d="M0 9.375H74.6667V65.375H0V9.375Z" fill="#002395"/>
<path d="M0 9.375H34.16V32.335H0V9.375Z" fill="white"/>
<path d="M0 9.375H11.2V31.775H0V9.375Z" fill="#002395"/>
<path d="M22.4001 9.375H33.6001V31.775H22.4001V9.375Z" fill="#ED2939"/>
<path d="M49.7001 34.9951L51.4967 37.8651H56.6301V47.8751L52.7801 41.8551L47.6001 50.1151H50.1201L52.7801 45.3551L58.2401 55.1551L63.7001 45.3551L66.3601 50.1151H68.8801L63.7001 41.8551L59.8501 47.8751V42.3451H62.1601L63.8751 39.6151H59.8501V37.8651H64.9834L66.7801 34.9951H49.7001ZM55.7201 47.2451H50.1201V49.2051H55.7201V47.2451ZM66.3601 47.2451H60.7601V49.2051H66.3601V47.2451Z" fill="white"/>
<path d="M58.2401 57.115L59.9621 62.435L55.4401 59.145H61.0401L56.5181 62.435L58.2401 57.115Z" fill="white"/>
<path d="M51.9401 52.355L53.6621 57.675L49.1401 54.385H54.7401L50.2181 57.675L51.9401 52.355Z" fill="white"/>
<path d="M64.5401 52.355L66.2621 57.675L61.7401 54.385H67.3401L62.8181 57.675L64.5401 52.355Z" fill="white"/>
<path d="M46.6201 38.2151L48.3421 43.5351L43.8201 40.2451H49.4201L44.8981 43.5351L46.6201 38.2151Z" fill="white"/>
<path d="M69.8601 38.2151L71.5821 43.5351L67.0601 40.2451H72.6601L68.1381 43.5351L69.8601 38.2151Z" fill="white"/>
</g>
<defs>
<clipPath id="clip0_1_73994">
<rect width="74.6667" height="56" fill="white" transform="translate(0 9.375)"/>
</clipPath>
</defs>
</svg>
