<svg width="75" height="75" viewBox="0 0 75 75" fill="none" xmlns="http://www.w3.org/2000/svg">
<rect width="74.6667" height="74.75" fill="white"/>
<g clip-path="url(#clip0_1_74191)">
<path d="M0 9.375H74.6667V65.375H0V9.375Z" fill="#00247D"/>
<path d="M12.6116 50.7451C11.83 50.7334 19.9383 46.4284 26.7166 40.8984C35.6066 33.6534 54.7516 22.0684 60.3866 20.1784C60.97 19.9801 59.185 21.1818 58.9516 21.5668C52.9433 28.6834 57.7383 42.1001 65.2516 48.8551C67.515 50.5818 67.3983 50.6751 71.5866 50.8384V51.2351L12.6116 50.7451ZM12.1216 51.5268C12.1216 51.5268 11.55 51.9351 11.55 52.2384C11.55 52.5768 12.1916 53.0201 12.1916 53.0201L70.35 53.6618L71.4233 52.9501L69.93 52.0284L12.1216 51.5268Z" fill="#FED100"/>
<path d="M12.4599 22.1033L11.9933 23.5266L13.2066 22.6516L14.4083 23.5266L13.9533 22.1033L15.1549 21.2283H13.6616L13.2066 19.8049L12.7399 21.2283H11.2466L12.4599 22.1033ZM21.5716 28.7999L22.5749 28.0649H21.3266L20.9416 26.8866L20.5566 28.0649H19.3199L20.3233 28.7999L19.9383 29.9783L20.9416 29.2433L21.9566 29.9783L21.5716 28.7999ZM4.63161 30.3166L4.16495 28.8933L3.70995 30.3166H2.21661L3.41828 31.1916L2.96328 32.6149L4.16495 31.7399L5.37828 32.6149L4.91161 31.1916L6.12495 30.3166H4.63161ZM13.7433 44.5849L13.2066 42.9283L12.6699 44.5849H10.9199L12.3316 45.5999L11.7949 47.2683L13.2066 46.2416L14.6183 47.2683L14.0699 45.5999L15.4816 44.5849H13.7433Z" fill="white"/>
</g>
<defs>
<clipPath id="clip0_1_74191">
<rect width="74.6667" height="56" fill="white" transform="translate(0 9.375)"/>
</clipPath>
</defs>
</svg>
