<svg width="75" height="75" viewBox="0 0 75 75" fill="none" xmlns="http://www.w3.org/2000/svg">
<rect width="74.6667" height="74.75" fill="white"/>
<g clip-path="url(#clip0_1_74197)">
<path fill-rule="evenodd" clip-rule="evenodd" d="M-4.66663 9.375H79.3334V65.375H-4.66663V9.375Z" fill="#00843D"/>
<path fill-rule="evenodd" clip-rule="evenodd" d="M24.1319 24.4142C27.1835 25.8798 30.8147 24.4142 32.1272 22.3798C33.4835 20.4767 33.6475 17.2938 31.3178 14.3735C34.9272 17.3704 35.7366 20.772 33.9319 23.572C31.5256 26.7767 26.21 26.6782 24.1319 24.4142Z" fill="white"/>
<path fill-rule="evenodd" clip-rule="evenodd" d="M29.5459 16.9656L30.1584 16.9766L29.6771 17.3594L29.8631 17.9719L29.349 17.6109L28.8568 17.9719L29.0209 17.3703L28.5287 16.9875L29.1412 16.9766L29.349 16.375L29.5459 16.9656ZM26.5162 20.7719H27.1287L26.6474 21.1656L26.8334 21.7672L26.3193 21.4062L25.8162 21.7781L25.9912 21.1656L25.499 20.7937L26.1115 20.7719L26.3084 20.1703L26.5162 20.7719ZM26.7131 17.775H27.3365L26.8443 18.1687L27.0303 18.7703L26.5271 18.4094L26.024 18.7812L26.199 18.1687L25.7068 17.7859L26.3193 17.775L26.5162 17.1734L26.7131 17.775ZM26.7131 14.7672H27.3365L26.8334 15.1719L27.0193 15.7734L26.5162 15.4234L26.0131 15.7844L26.1881 15.1828L25.6959 14.8L26.3084 14.7891L26.5053 14.1875L26.7131 14.7672ZM23.3553 18.5734H23.9678L23.4756 18.9672L23.6615 19.5687L23.1584 19.2078L22.6553 19.5797L22.8303 18.9672L22.3381 18.5953L22.9506 18.5734L23.1474 17.9719L23.3553 18.5734Z" fill="white"/>
<path fill-rule="evenodd" clip-rule="evenodd" d="M0.528687 9.375H18.5318V65.375H0.528687V9.375Z" fill="#CA3745"/>
<path fill-rule="evenodd" clip-rule="evenodd" d="M0.528687 23.9766V23.5719L1.27244 22.5766L1.13025 22.3688L1.56775 21.7781L1.42556 21.5703L1.13025 21.975L0.977124 21.7781L2.02712 20.3781L2.18025 20.575L2.02712 20.7719L2.33337 21.1875L3.07712 20.1813L2.32244 19.2078L2.02712 19.5797L2.18025 19.7875L2.02712 19.9844L0.977124 18.5844L1.13025 18.3875L1.42556 18.7812L1.57869 18.5844L1.13025 17.9828L1.27244 17.7859L0.528687 16.7797V16.375L1.57869 17.775L1.42556 17.9719L1.874 18.5734L1.57869 18.9781L1.874 19.3719L2.33337 18.7812L3.39431 20.2031L2.33337 21.5812L1.89587 20.9797L1.58962 21.3844L1.88494 21.7891L1.44744 22.3797L1.58962 22.5875L0.539624 23.9875L0.528687 23.9766Z" fill="#FAAE29"/>
<path fill-rule="evenodd" clip-rule="evenodd" d="M0.528687 18.978L0.681812 19.3718V19.9843H1.13025L1.4365 20.1812L1.13025 20.389H0.692749V20.9796L0.539624 21.3843V18.978H0.528687Z" fill="#FAAE29"/>
<path fill-rule="evenodd" clip-rule="evenodd" d="M0.528687 33.5798V33.1751L1.27244 32.1798L1.13025 31.972L1.56775 31.3704L1.42556 31.1735L1.13025 31.5782L0.977124 31.3704L2.02712 29.9704L2.18025 30.1782L2.02712 30.3751L2.33337 30.7798L3.07712 29.7735L2.32244 28.8001L2.02712 29.172L2.18025 29.3798L2.02712 29.5767L0.977124 28.1767L1.13025 27.9688L1.42556 28.3626L1.57869 28.1657L1.13025 27.5642L1.27244 27.3673L0.528687 26.361V25.9673L1.57869 27.3673L1.42556 27.5642L1.874 28.1657L1.57869 28.5595L1.874 28.9642L2.32244 28.3626L3.38337 29.7845L2.32244 31.1626L1.88494 30.561L1.57869 30.9657L1.874 31.3595L1.4365 31.961L1.57869 32.1688L0.528687 33.5688V33.5798Z" fill="#FAAE29"/>
<path fill-rule="evenodd" clip-rule="evenodd" d="M0.528687 28.5703L0.681812 28.975V29.5766H1.13025L1.4365 29.7734L1.13025 29.9703H0.692749V30.5719L0.539624 30.9766V28.5703H0.528687Z" fill="#FAAE29"/>
<path fill-rule="evenodd" clip-rule="evenodd" d="M0.528687 43.1719V42.7781L1.27244 41.7719L1.13025 41.575L1.56775 40.9734L1.42556 40.7766L1.13025 41.1703L0.977124 40.9734L2.02712 39.5734L2.18025 39.7703L2.02712 39.9781L2.33337 40.3828L3.07712 39.3766L2.32244 38.3922L2.02712 38.775L2.18025 38.9719L2.02712 39.1687L0.977124 37.7688L1.13025 37.5719L1.42556 37.9766L1.57869 37.7688L1.13025 37.1781L1.27244 36.9703L0.528687 35.975V35.5703L1.57869 36.9703L1.42556 37.1781L1.874 37.7688L1.57869 38.1734L1.874 38.5781L2.33337 37.9766L3.38337 39.3984L2.32244 40.7766L1.88494 40.175L1.57869 40.5688L1.874 40.9734L1.4365 41.575L1.57869 41.7719L0.528687 43.1719Z" fill="#FAAE29"/>
<path fill-rule="evenodd" clip-rule="evenodd" d="M0.528687 38.1735L0.692749 38.5782V39.1798H1.13025L1.4365 39.3767L1.13025 39.5626H0.692749V40.1642L0.539624 40.5688V38.1626L0.528687 38.1735Z" fill="#FAAE29"/>
<path fill-rule="evenodd" clip-rule="evenodd" d="M0.528687 52.1733V51.7687L1.27244 50.7733L1.13025 50.5765L1.56775 49.9749L1.42556 49.778L1.13025 50.1718L0.977124 49.9749L2.02712 48.5749L2.18025 48.7718L2.02712 48.9687L2.33337 49.3733L3.07712 48.378L2.32244 47.3937L2.02712 47.7765L2.18025 47.9733L2.02712 48.1702L0.977124 46.7702L1.13025 46.5733L1.42556 46.978L1.57869 46.7702L1.13025 46.1687L1.27244 45.9718L0.528687 44.9765V44.5718L1.57869 45.9718L1.42556 46.1687L1.874 46.7702L1.57869 47.1749L1.874 47.5687L2.33337 46.978L3.38337 48.3999L2.32244 49.778L1.88494 49.1765L1.57869 49.5702L1.874 49.9749L1.4365 50.5765L1.57869 50.7733L0.528687 52.1733Z" fill="#FAAE29"/>
<path fill-rule="evenodd" clip-rule="evenodd" d="M0.528687 47.175L0.681812 47.5688V48.1703H1.13025L1.4365 48.3781L1.13025 48.575H0.692749V49.1766L0.539624 49.5703V47.1641L0.528687 47.175Z" fill="#FAAE29"/>
<path fill-rule="evenodd" clip-rule="evenodd" d="M18.5318 23.9766V23.5719L17.7881 22.5766L17.9412 22.3688L17.4927 21.7781L17.6349 21.5703L17.9412 21.975L18.0943 21.7781L17.0443 20.3781L16.8912 20.575L17.0443 20.7719L16.7271 21.1766L15.9943 20.1703L16.7381 19.1969L17.0443 19.5687L16.8912 19.7766L17.0334 19.9734L18.0834 18.5734L17.9412 18.3766L17.6349 18.7703L17.4927 18.5734L17.9302 17.9719L17.7881 17.775L18.5318 16.7687V16.375L17.4927 17.775L17.6349 17.9719L17.1974 18.5734L17.4927 18.9781L17.1865 19.3719L16.7381 18.7703L15.6771 20.1922L16.7381 21.5703L17.1865 20.9688L17.4927 21.3734L17.1865 21.7781L17.6349 22.3688L17.4927 22.5766L18.5318 23.9766Z" fill="#FAAE29"/>
<path fill-rule="evenodd" clip-rule="evenodd" d="M18.5318 18.978L18.3787 19.3718V19.9843H17.9412L17.6349 20.1812L17.9303 20.389H18.3787V20.9796L18.5318 21.3843V18.978Z" fill="#FAAE29"/>
<path fill-rule="evenodd" clip-rule="evenodd" d="M18.5865 33.5796V33.1749L17.8427 32.1796L17.9849 31.9718L17.5474 31.3702L17.6896 31.1733L17.9849 31.578L18.1381 31.3702L17.0881 29.9702L16.9349 30.178L17.0881 30.3749L16.7818 30.7796L16.0381 29.7733L16.7927 28.7999L17.0881 29.1718L16.9349 29.3687L17.0881 29.5765L18.1381 28.1765L17.9849 27.9687L17.6896 28.3733L17.5365 28.1765L17.9849 27.5749L17.8427 27.378L18.5865 26.3718V25.978L17.5365 27.378L17.6896 27.5749L17.2412 28.1765L17.5365 28.5702L17.2412 28.9749L16.7927 28.3733L15.7318 29.7952L16.7927 31.1733L17.2302 30.5718L17.5365 30.9765L17.2412 31.3702L17.6787 31.9718L17.5365 32.1687L18.5865 33.5687V33.5796Z" fill="#FAAE29"/>
<path fill-rule="evenodd" clip-rule="evenodd" d="M18.5865 28.5703L18.4333 28.975V29.5766H17.974L17.6677 29.7734L17.974 29.9703H18.4115V30.5719L18.5755 30.9766V28.5703H18.5865Z" fill="#FAAE29"/>
<path fill-rule="evenodd" clip-rule="evenodd" d="M18.5318 43.1719V42.7781L17.7881 41.7719L17.9412 41.575L17.4927 40.9734L17.6349 40.7766L17.9412 41.1703L18.0943 40.9734L17.0443 39.5734L16.8912 39.7703L17.0443 39.9781L16.7271 40.3828L15.9943 39.3766L16.7381 38.3922L17.0443 38.775L16.8912 38.9719L17.0334 39.1687L18.0834 37.7688L17.9412 37.5719L17.6349 37.9766L17.4927 37.7688L17.9302 37.1781L17.7881 36.9703L18.5318 35.975V35.5703L17.4927 36.9703L17.6349 37.1781L17.1974 37.7688L17.4927 38.1734L17.1865 38.5781L16.7381 37.9766L15.6771 39.3984L16.7381 40.7766L17.1865 40.175L17.4927 40.5688L17.1865 40.9734L17.6349 41.575L17.4927 41.7719L18.5209 43.1719H18.5318Z" fill="#FAAE29"/>
<path fill-rule="evenodd" clip-rule="evenodd" d="M18.5318 38.1733L18.3787 38.578V39.1796H17.9412L17.6349 39.3765L17.9303 39.5733H18.3787V40.1749L18.5318 40.5796V38.1733Z" fill="#FAAE29"/>
<path fill-rule="evenodd" clip-rule="evenodd" d="M18.5318 52.1734V51.7687L17.7881 50.7734L17.9412 50.5765L17.4927 49.975L17.6349 49.7781L17.9412 50.1718L18.0943 49.975L17.0443 48.575L16.8912 48.7718L17.0443 48.9687L16.7271 49.3734L15.9943 48.3781L16.7381 47.3937L17.0443 47.7765L16.8912 47.9734L17.0334 48.1703L18.0834 46.7812L17.9412 46.5843L17.6349 46.989L17.4927 46.7812L17.9302 46.1796L17.7881 45.9828L18.5318 44.9875V44.5828L17.4927 45.9828L17.6349 46.1796L17.1974 46.7812L17.4927 47.1859L17.1865 47.5796L16.7381 46.989L15.6771 48.4109L16.7381 49.789L17.1865 49.1875L17.4927 49.5812L17.1865 49.9859L17.6349 50.5875L17.4927 50.7843L18.5318 52.1843V52.1734Z" fill="#FAAE29"/>
<path fill-rule="evenodd" clip-rule="evenodd" d="M18.5318 47.175L18.3787 47.5688V48.1703H17.9412L17.6349 48.3781L17.9303 48.575H18.3787V49.1766L18.5318 49.5703V47.1641V47.175Z" fill="#FAAE29"/>
<path fill-rule="evenodd" clip-rule="evenodd" d="M0.528699 13.1703V12.7766L1.27245 11.7703L1.13026 11.5734L1.56776 10.9719L1.42557 10.775L1.13026 11.1797L0.977136 10.9719L2.02714 9.57188L2.18026 9.77969L2.02714 9.97656L2.33339 10.3813L3.07714 9.375H3.38339L2.33339 10.775L1.87401 10.1734L1.5787 10.5781L1.87401 10.9719L1.43651 11.5734L1.56776 11.7813L0.528699 13.1813V13.1703ZM0.528699 9.375H1.43651L1.13026 9.57188H0.692761V10.1734L0.517761 10.5781V9.375H0.528699ZM18.5318 13.1703V12.7766L17.7881 11.7703L17.9412 11.5734L17.4928 10.9719L17.635 10.775L17.9412 11.1797L18.0834 10.9719L17.0334 9.57188L16.8912 9.77969L17.0334 9.97656L16.7271 10.3813L15.9834 9.375H15.6771L16.7381 10.775L17.1865 10.1734L17.4928 10.5781L17.1865 10.9719L17.635 11.5734L17.4928 11.7703L18.5318 13.1703ZM18.5318 9.375H17.635L17.9303 9.57188H18.3787V10.1734L18.5318 10.5781V9.375Z" fill="#FAAE29"/>
<path fill-rule="evenodd" clip-rule="evenodd" d="M8.0318 64.5766C8.0318 64.5766 8.68805 63.4391 10.3068 63.1C11.9365 62.75 12.2209 63.8547 13.1505 63.8547C14.0802 63.8547 15.5568 63.0891 15.5568 63.0891C15.5568 63.0891 14.0802 64.5438 12.9318 64.511C11.8052 64.4781 11.4224 63.7453 10.2521 63.8547C9.09274 63.9641 8.0318 64.6094 8.0318 64.5766Z" fill="#FAAE29"/>
<path fill-rule="evenodd" clip-rule="evenodd" d="M11.1709 64.5766C11.1709 64.5766 10.5255 63.4391 8.9068 63.1C7.26617 62.75 6.99274 63.8547 6.06305 63.8547C5.13336 63.8547 3.6568 63.0891 3.6568 63.0891C3.6568 63.0891 5.13336 64.5438 6.27086 64.511C7.40836 64.4781 7.80211 63.7453 8.95055 63.8547C10.1209 63.9641 11.1709 64.6094 11.1709 64.5766Z" fill="#FAAE29"/>
<path fill-rule="evenodd" clip-rule="evenodd" d="M5.85519 62.6954C5.713 62.4001 5.35207 61.0876 5.538 60.9235C5.83332 60.8141 6.59894 62.1594 6.52238 63.3516C6.01925 63.6251 4.33488 63.2422 4.34582 62.8922C4.46613 62.4001 5.42863 62.5641 5.85519 62.6954Z" fill="#FAAE29"/>
<path fill-rule="evenodd" clip-rule="evenodd" d="M4.82709 61.5468C4.73959 61.2187 4.58646 59.8406 4.80521 59.7312C5.10052 59.7093 5.63646 61.2296 5.3849 62.3781C4.84896 62.5093 3.25209 61.6671 3.32865 61.3281C3.52552 60.8906 4.4224 61.3062 4.82709 61.5468Z" fill="#FAAE29"/>
<path fill-rule="evenodd" clip-rule="evenodd" d="M3.99581 60.278C3.93018 59.928 3.90831 58.528 4.12706 58.4624C4.42237 58.4843 4.82706 60.0812 4.47706 61.1858C3.93018 61.2296 2.42081 60.1358 2.53018 59.8187C2.74893 59.403 3.62393 59.9608 3.99581 60.278Z" fill="#FAAE29"/>
<path fill-rule="evenodd" clip-rule="evenodd" d="M3.33955 58.9218C3.31767 58.5608 3.44892 57.1718 3.67861 57.1499C3.97392 57.2265 4.18174 58.889 3.70048 59.9062C3.16455 59.8405 1.79736 58.4515 1.95049 58.1562C2.21299 57.7952 3.01142 58.528 3.33955 58.9218Z" fill="#FAAE29"/>
<path fill-rule="evenodd" clip-rule="evenodd" d="M2.88018 57.4891C2.90206 57.1282 3.18643 55.7938 3.41612 55.8048C3.68956 55.9469 3.72237 57.6204 3.14268 58.5391C2.61768 58.3641 1.40362 56.7344 1.57862 56.461C1.89581 56.1548 2.59581 57.0407 2.89112 57.4891H2.88018Z" fill="#FAAE29"/>
<path fill-rule="evenodd" clip-rule="evenodd" d="M3.01145 55.8593C2.97864 57.2812 2.71614 57.303 2.24583 56.253C2.02708 55.8483 2.0052 54.2077 2.19114 54.1421C2.46458 54.1421 3.00051 55.3124 3.01145 55.8593Z" fill="#FAAE29"/>
<path fill-rule="evenodd" clip-rule="evenodd" d="M13.2709 62.8594C13.4131 62.5532 13.7741 61.2407 13.5881 61.0766C13.2928 60.9672 12.5381 62.3016 12.6038 63.5047C13.1069 63.7782 14.8022 63.3954 14.7803 63.0454C14.66 62.5532 13.7084 62.7172 13.2709 62.8485V62.8594Z" fill="#FAAE29"/>
<path fill-rule="evenodd" clip-rule="evenodd" d="M14.299 61.6999C14.3975 61.3718 14.5397 59.9936 14.3319 59.8843C14.0365 59.8624 13.4897 61.3718 13.7522 62.5311C14.2772 62.6624 15.885 61.8202 15.7975 61.4811C15.6115 61.0327 14.7037 61.4593 14.299 61.6999Z" fill="#FAAE29"/>
<path fill-rule="evenodd" clip-rule="evenodd" d="M15.1303 60.4313C15.196 60.0813 15.2178 58.6813 14.9991 58.6157C14.7038 58.6376 14.2991 60.2235 14.66 61.3282C15.2069 61.372 16.7163 60.2892 16.6069 59.961C16.3663 59.5454 15.5131 60.1142 15.1303 60.4313Z" fill="#FAAE29"/>
<path fill-rule="evenodd" clip-rule="evenodd" d="M15.7866 59.0642C15.8085 58.7142 15.6772 57.3251 15.4475 57.3032C15.1522 57.3798 14.9444 59.0423 15.4256 60.0595C15.9725 59.9938 17.3288 58.6048 17.1866 58.3095C16.9131 57.9376 16.1256 58.6813 15.7866 59.0642Z" fill="#FAAE29"/>
<path fill-rule="evenodd" clip-rule="evenodd" d="M16.2459 57.6312C16.235 57.2812 15.9397 55.9359 15.7209 55.9578C15.4366 56.089 15.4037 57.7734 15.9944 58.6922C16.5194 58.5172 17.7225 56.8875 17.5475 56.614C17.2303 56.3078 16.5303 57.1937 16.235 57.6312H16.2459Z" fill="#FAAE29"/>
<path fill-rule="evenodd" clip-rule="evenodd" d="M16.1147 56.0126C16.1584 57.4345 16.41 57.4454 16.8803 56.3954C17.0991 56.0017 17.1209 54.3501 16.935 54.2954C16.6616 54.2954 16.1256 55.4657 16.1147 56.0126Z" fill="#FAAE29"/>
<path fill-rule="evenodd" clip-rule="evenodd" d="M15.7418 45.3501H14.8465V45.9507H13.9839V46.5512H10.5331L9.94718 47.1689L10.2402 47.4778H11.6888L11.9655 47.1689H10.5331L10.8099 46.8601H12.8282L11.9655 47.7695H9.96346L9.39376 47.4778L8.80779 47.7695H6.78945L5.92678 46.8601H7.94512L8.2381 47.1689H6.78945L7.08244 47.4778H8.53109L8.80779 47.1689L8.2381 46.5512H5.0641V45.9507H4.20142V45.3501H3.33875V42.6047H4.20142V42.0042H5.0641V41.3865H8.2381L8.80779 40.7859L8.53109 40.4771H7.08244L6.78945 40.7859H8.2381L7.94512 41.0776H5.92678L6.78945 40.1682H8.82407L9.41004 40.4771L9.97973 40.1682H11.9981L12.8608 41.0776H10.8424L10.5657 40.7859H11.9981L11.7051 40.4771H10.2727L9.96346 40.7859L10.5494 41.3865H14.0001V42.0042H14.8628V42.6047H15.7418V45.3501Z" fill="#CA3745" stroke="black" stroke-width="0.016712"/>
<path fill-rule="evenodd" clip-rule="evenodd" d="M3.62781 42.9246V45.0522H4.49047V45.6528H5.35314V46.2533H8.24226L9.3979 47.1713L10.5454 46.2619H13.7194V45.6614L14.582 45.6528V45.0522H15.461V42.916H14.5902V42.3154H13.7275V41.6977H10.5536L9.40604 40.7883L8.25039 41.6977H5.36128V42.3154H4.49861V42.916H3.63595L3.62781 42.9246Z" fill="#00843D" stroke="#FAAE29" stroke-width="0.116983"/>
<path fill-rule="evenodd" clip-rule="evenodd" d="M7.66115 41.9954L5.93329 43.5175V41.9954H7.66115ZM11.1169 41.9954L12.8557 43.5175V41.9954H11.1169ZM7.66115 45.9529L5.93329 44.4308V45.9529H7.66115ZM11.1169 45.9529L12.8557 44.4308V45.9529H11.1169ZM11.6965 42.9086L11.1169 43.5175H12.2761L11.6965 42.9086ZM7.08155 42.9086L6.51289 43.5175H7.66115L7.08155 42.9086ZM7.08155 45.0396L6.51289 44.4308H7.66115L7.08155 45.0396ZM11.6965 45.0396L11.1169 44.4308H12.2761L11.6965 45.0396Z" fill="#CA3745"/>
<path fill-rule="evenodd" clip-rule="evenodd" d="M9.38905 46.5617L8.80945 45.9529H9.96865L9.38905 46.5617ZM9.38905 43.5175L8.80945 42.9086H9.96865L9.38905 43.5175ZM9.38905 41.3865L8.80945 42.0092H9.96865L9.38905 41.3865ZM9.38905 44.4307L8.80945 45.0396H9.96865L9.38905 44.4307Z" fill="#FAAE29"/>
<path fill-rule="evenodd" clip-rule="evenodd" d="M11.1232 43.5249H12.287V43.8252H11.1314L11.1232 43.5249Z" fill="#FAAE29" stroke="black" stroke-width="0.00835592"/>
<path fill-rule="evenodd" clip-rule="evenodd" d="M6.80176 43.8252H7.37144V44.134H6.80176V43.8252ZM11.4162 43.8252H11.9859V44.134H11.4162V43.8252Z" fill="#CC0000" stroke="black" stroke-width="0.00835592"/>
<path fill-rule="evenodd" clip-rule="evenodd" d="M8.82007 42.0063H9.96758V42.3066H8.82007V42.0063ZM8.82007 42.6069H9.96758V42.9158H8.82007V42.6069Z" fill="#990000" stroke="black" stroke-width="0.00835592"/>
<path fill-rule="evenodd" clip-rule="evenodd" d="M8.5271 42.3066H10.2606V42.6155H8.5271V42.3066ZM8.82008 45.052H9.96759V45.3437H8.82008V45.052ZM8.82008 45.6526H9.96759V45.9528H8.82008V45.6526ZM8.5271 45.3523H10.2606V45.6526H8.5271V45.3523Z" fill="#990000" stroke="black" stroke-width="0.00835592"/>
<path fill-rule="evenodd" clip-rule="evenodd" d="M11.1232 44.134H12.287V44.4343H11.1314L11.1232 44.134ZM6.50878 43.5249H7.66443V43.8252H6.50878V43.5249ZM6.50878 44.1255H7.66443V44.4343H6.50878V44.1255ZM6.22394 43.8252H6.79362V44.134H6.22394V43.8252ZM7.37959 43.8252H7.94927V44.134H7.37959V43.8252ZM10.8384 43.8252H11.4081V44.134H10.8384V43.8252ZM11.994 43.8252H12.5637V44.134H11.994V43.8252Z" fill="#FAAE29" stroke="black" stroke-width="0.00835592"/>
<path d="M8.68604 45.5653C8.72649 45.5653 8.75928 45.5307 8.75928 45.4881C8.75928 45.4455 8.72649 45.4109 8.68604 45.4109C8.64559 45.4109 8.61279 45.4455 8.61279 45.4881C8.61279 45.5307 8.64559 45.5653 8.68604 45.5653Z" fill="white"/>
<path d="M9.39686 45.5653C9.43731 45.5653 9.4701 45.5307 9.4701 45.4881C9.4701 45.4455 9.43731 45.4109 9.39686 45.4109C9.3564 45.4109 9.32361 45.4455 9.32361 45.4881C9.32361 45.5307 9.3564 45.5653 9.39686 45.5653Z" fill="white"/>
<path d="M10.1186 45.5653C10.159 45.5653 10.1918 45.5307 10.1918 45.4881C10.1918 45.4455 10.159 45.4109 10.1186 45.4109C10.0781 45.4109 10.0453 45.4455 10.0453 45.4881C10.0453 45.5307 10.0781 45.5653 10.1186 45.5653Z" fill="white"/>
<path d="M8.97034 45.2745C9.01079 45.2745 9.04359 45.24 9.04359 45.1973C9.04359 45.1547 9.01079 45.1201 8.97034 45.1201C8.92989 45.1201 8.89709 45.1547 8.89709 45.1973C8.89709 45.24 8.92989 45.2745 8.97034 45.2745Z" fill="white"/>
<path d="M9.82337 45.2745C9.86382 45.2745 9.89661 45.24 9.89661 45.1973C9.89661 45.1547 9.86382 45.1201 9.82337 45.1201C9.78292 45.1201 9.75012 45.1547 9.75012 45.1973C9.75012 45.24 9.78292 45.2745 9.82337 45.2745Z" fill="white"/>
<path d="M8.95942 45.8698C8.99987 45.8698 9.03266 45.8352 9.03266 45.7925C9.03266 45.7499 8.99987 45.7153 8.95942 45.7153C8.91896 45.7153 8.88617 45.7499 8.88617 45.7925C8.88617 45.8352 8.91896 45.8698 8.95942 45.8698Z" fill="white"/>
<path d="M9.82337 45.8834C9.86382 45.8834 9.89661 45.8489 9.89661 45.8062C9.89661 45.7636 9.86382 45.729 9.82337 45.729C9.78292 45.729 9.75012 45.7636 9.75012 45.8062C9.75012 45.8489 9.78292 45.8834 9.82337 45.8834Z" fill="white"/>
<path d="M10.9716 44.0431C11.0121 44.0431 11.0449 44.0085 11.0449 43.9659C11.0449 43.9232 11.0121 43.8887 10.9716 43.8887C10.9312 43.8887 10.8984 43.9232 10.8984 43.9659C10.8984 44.0085 10.9312 44.0431 10.9716 44.0431Z" fill="white"/>
<path d="M11.6934 44.0431C11.7338 44.0431 11.7666 44.0085 11.7666 43.9659C11.7666 43.9232 11.7338 43.8887 11.6934 43.8887C11.6529 43.8887 11.6201 43.9232 11.6201 43.9659C11.6201 44.0085 11.6529 44.0431 11.6934 44.0431Z" fill="white"/>
<path d="M12.4152 44.0431C12.4556 44.0431 12.4884 44.0085 12.4884 43.9659C12.4884 43.9232 12.4556 43.8887 12.4152 43.8887C12.3747 43.8887 12.3419 43.9232 12.3419 43.9659C12.3419 44.0085 12.3747 44.0431 12.4152 44.0431Z" fill="white"/>
<path d="M11.2669 43.7387C11.3074 43.7387 11.3402 43.7041 11.3402 43.6614C11.3402 43.6188 11.3074 43.5842 11.2669 43.5842C11.2265 43.5842 11.1937 43.6188 11.1937 43.6614C11.1937 43.7041 11.2265 43.7387 11.2669 43.7387Z" fill="white"/>
<path d="M12.1199 43.7387C12.1603 43.7387 12.1931 43.7041 12.1931 43.6614C12.1931 43.6188 12.1603 43.5842 12.1199 43.5842C12.0794 43.5842 12.0466 43.6188 12.0466 43.6614C12.0466 43.7041 12.0794 43.7387 12.1199 43.7387Z" fill="white"/>
<path d="M11.2559 44.3336C11.2964 44.3336 11.3292 44.2991 11.3292 44.2564C11.3292 44.2138 11.2964 44.1792 11.2559 44.1792C11.2155 44.1792 11.1827 44.2138 11.1827 44.2564C11.1827 44.2991 11.2155 44.3336 11.2559 44.3336Z" fill="white"/>
<path d="M12.1199 44.3475C12.1603 44.3475 12.1931 44.313 12.1931 44.2703C12.1931 44.2277 12.1603 44.1931 12.1199 44.1931C12.0794 44.1931 12.0466 44.2277 12.0466 44.2703C12.0466 44.313 12.0794 44.3475 12.1199 44.3475Z" fill="white"/>
<path d="M8.67505 42.5348C8.71551 42.5348 8.7483 42.5002 8.7483 42.4576C8.7483 42.4149 8.71551 42.3804 8.67505 42.3804C8.6346 42.3804 8.60181 42.4149 8.60181 42.4576C8.60181 42.5002 8.6346 42.5348 8.67505 42.5348Z" fill="white"/>
<path d="M9.39686 42.5348C9.43731 42.5348 9.4701 42.5002 9.4701 42.4576C9.4701 42.4149 9.43731 42.3804 9.39686 42.3804C9.3564 42.3804 9.32361 42.4149 9.32361 42.4576C9.32361 42.5002 9.3564 42.5348 9.39686 42.5348Z" fill="white"/>
<path d="M10.1186 42.5209C10.159 42.5209 10.1918 42.4863 10.1918 42.4437C10.1918 42.401 10.159 42.3665 10.1186 42.3665C10.0781 42.3665 10.0453 42.401 10.0453 42.4437C10.0453 42.4863 10.0781 42.5209 10.1186 42.5209Z" fill="white"/>
<path d="M8.95942 42.2304C8.99987 42.2304 9.03266 42.1958 9.03266 42.1531C9.03266 42.1105 8.99987 42.0759 8.95942 42.0759C8.91896 42.0759 8.88617 42.1105 8.88617 42.1531C8.88617 42.1958 8.91896 42.2304 8.95942 42.2304Z" fill="white"/>
<path d="M9.82337 42.2304C9.86382 42.2304 9.89661 42.1958 9.89661 42.1531C9.89661 42.1105 9.86382 42.0759 9.82337 42.0759C9.78292 42.0759 9.75012 42.1105 9.75012 42.1531C9.75012 42.1958 9.78292 42.2304 9.82337 42.2304Z" fill="white"/>
<path d="M8.95942 42.8253C8.99987 42.8253 9.03266 42.7908 9.03266 42.7481C9.03266 42.7055 8.99987 42.6709 8.95942 42.6709C8.91896 42.6709 8.88617 42.7055 8.88617 42.7481C8.88617 42.7908 8.91896 42.8253 8.95942 42.8253Z" fill="white"/>
<path d="M9.82337 42.8392C9.86382 42.8392 9.89661 42.8047 9.89661 42.762C9.89661 42.7194 9.86382 42.6848 9.82337 42.6848C9.78292 42.6848 9.75012 42.7194 9.75012 42.762C9.75012 42.8047 9.78292 42.8392 9.82337 42.8392Z" fill="white"/>
<path d="M6.36762 44.0707C6.40807 44.0707 6.44086 44.0361 6.44086 43.9935C6.44086 43.9508 6.40807 43.9163 6.36762 43.9163C6.32717 43.9163 6.29437 43.9508 6.29437 43.9935C6.29437 44.0361 6.32717 44.0707 6.36762 44.0707Z" fill="white"/>
<path d="M7.08936 44.0707C7.12981 44.0707 7.16261 44.0361 7.16261 43.9935C7.16261 43.9508 7.12981 43.9163 7.08936 43.9163C7.04891 43.9163 7.01611 43.9508 7.01611 43.9935C7.01611 44.0361 7.04891 44.0707 7.08936 44.0707Z" fill="white"/>
<path d="M7.81116 44.057C7.85161 44.057 7.88441 44.0224 7.88441 43.9798C7.88441 43.9372 7.85161 43.9026 7.81116 43.9026C7.77071 43.9026 7.73792 43.9372 7.73792 43.9798C7.73792 44.0224 7.77071 44.057 7.81116 44.057Z" fill="white"/>
<path d="M6.66291 43.7662C6.70336 43.7662 6.73615 43.7317 6.73615 43.689C6.73615 43.6464 6.70336 43.6118 6.66291 43.6118C6.62246 43.6118 6.58966 43.6464 6.58966 43.689C6.58966 43.7317 6.62246 43.7662 6.66291 43.7662Z" fill="white"/>
<path d="M7.51587 43.7662C7.55633 43.7662 7.58912 43.7317 7.58912 43.689C7.58912 43.6464 7.55633 43.6118 7.51587 43.6118C7.47542 43.6118 7.44263 43.6464 7.44263 43.689C7.44263 43.7317 7.47542 43.7662 7.51587 43.7662Z" fill="white"/>
<path d="M6.65198 44.3615C6.69243 44.3615 6.72523 44.3269 6.72523 44.2842C6.72523 44.2416 6.69243 44.207 6.65198 44.207C6.61153 44.207 6.57874 44.2416 6.57874 44.2842C6.57874 44.3269 6.61153 44.3615 6.65198 44.3615Z" fill="white"/>
<path d="M7.51587 44.3751C7.55633 44.3751 7.58912 44.3406 7.58912 44.2979C7.58912 44.2553 7.55633 44.2207 7.51587 44.2207C7.47542 44.2207 7.44263 44.2553 7.44263 44.2979C7.44263 44.3406 7.47542 44.3751 7.51587 44.3751Z" fill="white"/>
<path fill-rule="evenodd" clip-rule="evenodd" d="M10.5255 37.353L11.0177 37.1124L11.5208 37.353H10.5255ZM9.03804 37.353L9.53023 37.1124L10.0333 37.353H9.03804ZM7.55054 37.353L8.04272 37.1124L8.54585 37.353H7.55054ZM10.5255 31.9937L11.0177 32.2343L11.5208 32.0046H10.5255V31.9937ZM9.03804 31.9937L9.53023 32.2343L10.0333 32.0046H9.03804V31.9937ZM7.55054 31.9937L8.04272 32.2343L8.54585 32.0046H7.55054V31.9937Z" fill="white"/>
<path fill-rule="evenodd" clip-rule="evenodd" d="M10.1099 38.0422L9.53025 38.5125L8.95056 38.0422L8.37087 38.5125L7.79119 38.0422V38.2828L8.18494 38.5016L7.98806 38.7422V38.9719H8.18494L8.37087 38.7531L8.56775 38.9719H8.76462V38.7531L8.56775 38.5125L8.95056 38.2828L9.34431 38.5016L9.14744 38.7422V38.9719H9.34431L9.53025 38.7531L9.72712 38.9719H9.91306V38.7531L9.72712 38.5125L10.1099 38.2828L10.4927 38.5016L10.3068 38.7422V38.9719H10.4927L10.6896 38.7531L10.8865 38.9719H11.0724V38.7531L10.8865 38.5125L11.2693 38.2828V38.0313L10.6896 38.5016L10.1099 38.0313V38.0422ZM10.1099 31.3047L9.53025 30.8344L8.95056 31.3047L8.37087 30.8344L7.79119 31.3047V31.075L8.18494 30.8344L7.98806 30.6156V30.375H8.18494L8.37087 30.6047L8.56775 30.375H8.76462V30.6047L8.56775 30.8453L8.95056 31.0641L9.34431 30.8453L9.14744 30.6047V30.375H9.34431L9.53025 30.6047L9.72712 30.375H9.91306V30.6047L9.72712 30.8453L10.1099 31.0641L10.4927 30.8453L10.3068 30.6047V30.375H10.4927L10.6896 30.6047L10.8865 30.375H11.0724V30.6047L10.8865 30.8453L11.2693 31.0641V31.3047L10.6896 30.8344L10.1099 31.3047ZM14.4849 35.1766L15.1193 34.6734L14.4959 34.1703L15.1193 33.6672L14.4959 33.1641H14.8021L15.1193 33.4922L15.4256 33.3281H15.7318V33.5031L15.4256 33.6672L15.7318 33.8313V34.0062H15.4256L15.1193 33.8313L14.8021 34.1703L15.1193 34.4984L15.4256 34.3453H15.7318V34.5094L15.4256 34.6734L15.7318 34.8375V35.0125H15.4256L15.1193 34.8375L14.8021 35.1766L15.1193 35.5047L15.4256 35.3406H15.7318V35.5156L15.4256 35.6797L15.7318 35.8547V36.0188H15.4256L15.1193 35.8547L14.8021 36.1828H14.4959L15.1193 35.6797L14.4959 35.1766H14.4849ZM4.57556 35.1766L3.95212 34.6734L4.57556 34.1703L3.95212 33.6672L4.57556 33.1641H4.25837L3.95212 33.4922L3.64587 33.3281H3.31775V33.5031L3.64587 33.6563L3.32869 33.8203V33.9953H3.64587L3.95212 33.8203L4.25837 34.1594L3.95212 34.4875L3.64587 34.3344H3.31775V34.4984L3.63494 34.6625L3.31775 34.8266V35.0016H3.64587L3.95212 34.8266L4.25837 35.1656L3.95212 35.5047L3.64587 35.3406H3.31775V35.5047L3.63494 35.6687L3.31775 35.8438V36.0078H3.64587L3.95212 35.8438L4.25837 36.1719H4.57556L3.95212 35.6687L4.57556 35.1656V35.1766Z" fill="#00843D"/>
<path fill-rule="evenodd" clip-rule="evenodd" d="M14.7318 36.8909H14.9838V37.1139H14.7318V36.8909ZM14.4799 37.1139H14.7318V37.3501H14.4939L14.4799 37.1139ZM13.2481 38.2815H13.5V38.5177H13.2481V38.2815ZM13.5 38.0454H13.738V38.2815H13.5V38.0454ZM5.3113 38.0454H5.56326V38.2815H5.2973L5.3113 38.0454ZM4.06549 36.8909H4.31745V37.1139H4.06549V36.8909ZM4.31745 37.1139H4.56941V37.3501H4.31745V37.1139ZM4.31745 31.9973H4.56941V32.2334H4.31745V31.9973ZM4.06549 32.2334H4.31745V32.4696H4.06549V32.2334ZM5.56326 30.8428H5.80122V31.0789H5.57725L5.56326 30.8428ZM5.3113 31.0789H5.56326V31.3151H5.2973L5.3113 31.0789ZM13.2481 30.8428H13.5V31.0789H13.2481V30.8428ZM13.5 31.0789H13.738V31.3151H13.5V31.0789ZM14.4799 31.9973H14.7318V32.2334H14.4939L14.4799 31.9973ZM14.7318 32.2466H14.9838V32.4696H14.7318V32.2466ZM5.57725 38.2815H5.81522V38.5177H5.57725V38.2815Z" fill="#00843D" stroke="black" stroke-width="0.0406547"/>
<path fill-rule="evenodd" clip-rule="evenodd" d="M8.77554 34.6735H8.04272V34.2141H8.53491V33.7875H9.01616V33.3938H9.50835V33.886C9.10366 33.886 8.77554 34.2141 8.77554 34.6735Z" fill="white"/>
<path fill-rule="evenodd" clip-rule="evenodd" d="M10.2412 34.6735H10.974V34.2141H10.4818V33.7875H9.98961V33.3938H9.50836V33.886C9.91305 33.886 10.2412 34.2141 10.2412 34.6735Z" fill="#FAAE29"/>
<path fill-rule="evenodd" clip-rule="evenodd" d="M10.2412 34.6733H10.974V35.1327H10.4818V35.5593H9.98961V35.953H9.50836V35.4608C9.91305 35.4608 10.2412 35.1327 10.2412 34.6733Z" fill="white"/>
<path fill-rule="evenodd" clip-rule="evenodd" d="M8.77554 34.6733H8.04272V35.1327H8.53491V35.5593H9.01616V35.953H9.50835V35.4608C9.10366 35.4608 8.77554 35.1327 8.77554 34.6733Z" fill="#FAAE29"/>
<path fill-rule="evenodd" clip-rule="evenodd" d="M10.2412 34.6735H9.50836V33.886C9.91305 33.886 10.2412 34.2469 10.2412 34.6735Z" fill="#00843D"/>
<path fill-rule="evenodd" clip-rule="evenodd" d="M10.2412 34.6733H9.50836V35.4608C9.91305 35.4608 10.2412 35.1108 10.2412 34.6733Z" fill="#CA3745"/>
<path fill-rule="evenodd" clip-rule="evenodd" d="M8.77557 34.6733H9.50839V35.4608C9.1037 35.4608 8.77557 35.1108 8.77557 34.6733Z" fill="#00843D"/>
<path fill-rule="evenodd" clip-rule="evenodd" d="M8.77557 34.6735H9.50839V33.886C9.1037 33.886 8.77557 34.2469 8.77557 34.6735Z" fill="#CA3745"/>
<path fill-rule="evenodd" clip-rule="evenodd" d="M10.274 37.5829L9.53026 37.1126L8.78651 37.5829L8.04276 37.1126L7.29901 37.5829V37.3532L7.7912 37.1126L7.55057 36.8829V36.6532H7.7912L8.04276 36.8829L8.29432 36.6532H8.54589V36.8829L8.29432 37.1126L8.78651 37.3532L9.28964 37.1126L9.03807 36.8829V36.6532H9.28964L9.53026 36.8829L9.78182 36.6532H10.0334V36.8829L9.78182 37.1126L10.274 37.3532L10.7771 37.1126L10.5256 36.8829V36.6532H10.7771L11.0178 36.8829L11.2693 36.6532H11.5209V36.8829L11.2693 37.1126L11.7615 37.3532V37.572L11.0178 37.1126L10.274 37.5829ZM10.274 31.7751L9.53026 32.2345L8.78651 31.7751L8.04276 32.2345L7.29901 31.7751V31.9938L7.7912 32.2345L7.55057 32.4642V32.7048H7.7912L8.04276 32.4642L8.29432 32.7048H8.54589V32.4532L8.29432 32.2345L8.78651 31.9938L9.28964 32.2235L9.03807 32.4532V32.6938H9.28964L9.53026 32.4532L9.78182 32.6938H10.0334V32.4532L9.78182 32.2345L10.274 31.9938L10.7771 32.2235L10.5256 32.4532V32.6938H10.7771L11.0178 32.4532L11.2693 32.6938H11.5209V32.4532L11.2693 32.2345L11.7615 31.9938V31.7642L11.0178 32.2235L10.274 31.7642V31.7751ZM13.0084 35.2532L12.6365 34.6735L13.0084 34.0938L12.6365 33.5142L13.0084 32.9345H12.8224L12.6365 33.3173L12.4506 33.1204H12.2646V33.3173L12.4506 33.5142L12.2646 33.711V33.897H12.4506L12.6365 33.711L12.8224 34.0938L12.6365 34.4767L12.4506 34.2907H12.2646V34.4767L12.4506 34.6735L12.2646 34.8704V35.0673H12.4506L12.6365 34.8704L12.8224 35.2532L12.6365 35.647L12.4506 35.4501H12.2646V35.647L12.4506 35.8329L12.2646 36.0298V36.2267H12.4506L12.6365 36.0298L12.8224 36.4235H13.0084L12.6365 35.8329L13.0084 35.2532Z" fill="#00843D"/>
<path fill-rule="evenodd" clip-rule="evenodd" d="M7.30343 32.0102L6.32358 32.9286V36.4184L7.30343 37.3499H11.7827L12.7626 36.4315V32.9417L11.7687 32.0102H7.30343ZM7.05147 31.3018L4.57385 33.637V35.7362L7.06546 38.0452H12.0207L14.4983 35.723V33.6239L12.0207 31.3018H7.06546H7.05147Z" fill="#00843D" stroke="black" stroke-width="0.0542062"/>
<path fill-rule="evenodd" clip-rule="evenodd" d="M8.33383 37.5774L8.72577 38.0497L9.12891 37.5774H8.32263H8.33383Z" fill="#FAAE29" stroke="black" stroke-width="0.0296899"/>
<path fill-rule="evenodd" clip-rule="evenodd" d="M8.33383 31.7695L8.72577 31.2972L9.12891 31.7695H8.32263H8.33383Z" fill="#FAAE29" stroke="black" stroke-width="0.0296899"/>
<path fill-rule="evenodd" clip-rule="evenodd" d="M9.93069 31.7695L10.3226 31.2972L10.7258 31.7695H9.91949H9.93069Z" fill="#FAAE29" stroke="black" stroke-width="0.0296899"/>
<path fill-rule="evenodd" clip-rule="evenodd" d="M9.93069 37.5774L10.3226 38.0497L10.7258 37.5774H9.91949H9.93069Z" fill="#FAAE29" stroke="black" stroke-width="0.0296899"/>
<path fill-rule="evenodd" clip-rule="evenodd" d="M7.54635 31.7695L7.93829 31.2972L8.34143 31.7695H7.53516H7.54635Z" fill="#CA3745" stroke="black" stroke-width="0.0296899"/>
<path fill-rule="evenodd" clip-rule="evenodd" d="M9.13229 31.7695L9.52423 31.2972L9.92737 31.7695H9.12109H9.13229Z" fill="#CA3745" stroke="black" stroke-width="0.0296899"/>
<path fill-rule="evenodd" clip-rule="evenodd" d="M10.7182 31.7695L11.1102 31.2972L11.5133 31.7695H10.707H10.7182Z" fill="#CA3745" stroke="black" stroke-width="0.0296899"/>
<path fill-rule="evenodd" clip-rule="evenodd" d="M6.56641 36.8831L7.30125 37.5718H6.56641V36.8831Z" fill="#CA3745" stroke="black" stroke-width="0.0609779"/>
<path fill-rule="evenodd" clip-rule="evenodd" d="M6.05212 35.2531L6.43494 34.6734L6.05212 34.0937L6.424 33.514L6.05212 32.9343H6.23806L6.424 33.3171L6.60994 33.1203H6.79587V33.3171L6.60994 33.514L6.79587 33.7109V33.8968H6.60994L6.424 33.7109L6.23806 34.0937L6.424 34.4765L6.60994 34.2906H6.79587V34.4765L6.60994 34.6734L6.79587 34.8703V35.0671H6.60994L6.424 34.8703L6.23806 35.2531L6.424 35.6468L6.60994 35.45H6.79587V35.6468L6.60994 35.8328L6.79587 36.0296V36.2265H6.60994L6.424 36.0296L6.23806 36.4234H6.05212L6.424 35.8328L6.05212 35.2531Z" fill="#00843D"/>
<path fill-rule="evenodd" clip-rule="evenodd" d="M13.2467 34.046H14.2405L14.4925 34.2585L14.2405 34.4711H13.2607V34.0342L13.2467 34.046Z" fill="#CA3745" stroke="black" stroke-width="0.0385689"/>
<path fill-rule="evenodd" clip-rule="evenodd" d="M6.56006 32.4695L6.05614 32.9418V36.4185L6.56006 36.8908H5.81818V32.4695H6.56006Z" fill="#CA3745" stroke="black" stroke-width="0.0542062"/>
<path fill-rule="evenodd" clip-rule="evenodd" d="M7.54635 37.5774L7.93829 38.0497L8.34143 37.5774H7.53516H7.54635Z" fill="#CA3745" stroke="black" stroke-width="0.0296899"/>
<path fill-rule="evenodd" clip-rule="evenodd" d="M9.13229 37.5774L9.52423 38.0497L9.92737 37.5774H9.12109H9.13229Z" fill="#CA3745" stroke="black" stroke-width="0.0296899"/>
<path fill-rule="evenodd" clip-rule="evenodd" d="M10.7182 37.5774L11.1102 38.0497L11.5133 37.5774H10.707H10.7182Z" fill="#CA3745" stroke="black" stroke-width="0.0296899"/>
<path fill-rule="evenodd" clip-rule="evenodd" d="M12.5005 32.4695L13.0044 32.9418V36.4185L12.5005 36.8908H13.2424V32.4695H12.5005Z" fill="#CA3745" stroke="black" stroke-width="0.0542062"/>
<path fill-rule="evenodd" clip-rule="evenodd" d="M12.5051 36.8831L11.7702 37.5718H12.5051V36.8831Z" fill="#CA3745" stroke="black" stroke-width="0.0609779"/>
<path fill-rule="evenodd" clip-rule="evenodd" d="M12.5051 32.4639L11.7702 31.7751H12.5051V32.4639Z" fill="#CA3745" stroke="black" stroke-width="0.0609779"/>
<path fill-rule="evenodd" clip-rule="evenodd" d="M6.56641 32.4639L7.30125 31.7751H6.56641V32.4639Z" fill="#CA3745" stroke="black" stroke-width="0.0609779"/>
<path fill-rule="evenodd" clip-rule="evenodd" d="M7.3034 32.0103L6.32356 32.9287V36.4185L7.3034 37.35H11.7827L12.7625 36.4316V32.9418L11.7687 32.0103H7.3034ZM7.3034 31.7742L6.07159 32.9287V36.4185L7.3034 37.5861H11.7827L13.0145 36.4185V32.9287L11.7687 31.7742H7.3034Z" fill="#00843D" stroke="black" stroke-width="0.0542062"/>
<path fill-rule="evenodd" clip-rule="evenodd" d="M13.2467 34.4627H14.2405L14.4925 34.6753L14.2405 34.8878H13.2607V34.4509L13.2467 34.4627Z" fill="#FAAE29" stroke="black" stroke-width="0.0385702"/>
<path fill-rule="evenodd" clip-rule="evenodd" d="M13.2467 34.8773H14.2405L14.4925 35.0898L14.2405 35.3024H13.2607V34.8655L13.2467 34.8773Z" fill="#CA3745" stroke="black" stroke-width="0.0385689"/>
<path fill-rule="evenodd" clip-rule="evenodd" d="M13.2467 35.294H14.2405L14.4925 35.5066L14.2405 35.7191H13.2607V35.2822L13.2467 35.294Z" fill="#FAAE29" stroke="black" stroke-width="0.0385702"/>
<path fill-rule="evenodd" clip-rule="evenodd" d="M13.2467 33.6207H14.2405L14.4925 33.8333L14.2405 34.0458H13.2607V33.6089L13.2467 33.6207Z" fill="#FAAE29" stroke="black" stroke-width="0.0385702"/>
<path fill-rule="evenodd" clip-rule="evenodd" d="M5.81378 34.046H4.81994L4.56798 34.2585L4.81994 34.4711H5.79978V34.0342L5.81378 34.046Z" fill="#CA3745" stroke="black" stroke-width="0.0385689"/>
<path fill-rule="evenodd" clip-rule="evenodd" d="M5.81378 34.4627H4.81994L4.56798 34.6753L4.81994 34.8878H5.79978V34.4509L5.81378 34.4627Z" fill="#FAAE29" stroke="black" stroke-width="0.0385702"/>
<path fill-rule="evenodd" clip-rule="evenodd" d="M5.81378 34.8773H4.81994L4.56798 35.0898L4.81994 35.3024H5.79978V34.8655L5.81378 34.8773Z" fill="#CA3745" stroke="black" stroke-width="0.0385689"/>
<path fill-rule="evenodd" clip-rule="evenodd" d="M5.81378 35.294H4.81994L4.56798 35.5066L4.81994 35.7191H5.79978V35.2822L5.81378 35.294Z" fill="#FAAE29" stroke="black" stroke-width="0.0385702"/>
<path fill-rule="evenodd" clip-rule="evenodd" d="M5.81378 33.6207H4.81994L4.56798 33.8333L4.81994 34.0458H5.79978V33.6089L5.81378 33.6207Z" fill="#FAAE29" stroke="black" stroke-width="0.0385702"/>
<path fill-rule="evenodd" clip-rule="evenodd" d="M4.31744 32.2466V37.1008H5.56325V38.2684H13.5V37.1008H14.7318V32.2466H13.5V31.092H5.56325V32.2466H4.31744ZM4.5694 32.4696V36.8909H5.80121V38.0454H13.248V36.8909H14.4939V32.4696H13.248V31.3282H5.80121V32.4827H4.5694V32.4696Z" fill="#970000" stroke="black" stroke-width="0.0406547"/>
<path fill-rule="evenodd" clip-rule="evenodd" d="M15.7267 14.0788L14.9849 13.183V12.5143L14.243 11.8457H12.7592L11.5134 11.177H7.55203L6.30622 11.8457H4.82245L4.08057 12.5143V13.183L3.33868 14.0662V15.8703L4.08057 16.7535V17.4347L4.82245 18.1034H6.30622L7.55203 18.7721H11.5134L12.7592 18.1034H14.243L14.9989 17.4347V16.7661L15.7407 15.8703V14.0662L15.7267 14.0788Z" fill="#CA3745" stroke="black" stroke-width="0.0398675"/>
<path fill-rule="evenodd" clip-rule="evenodd" d="M3.58026 14.9751V15.6423L4.32401 16.5392V17.2063L5.06776 17.8845H6.55526L7.80214 18.5407H9.53026V14.986H3.58026V14.9751Z" fill="#FAAE29"/>
<path fill-rule="evenodd" clip-rule="evenodd" d="M7.44121 16.5391L6.5334 17.1188H5.98652L6.17246 17.3047L5.81152 17.6875L5.99746 17.8844L6.54434 17.6875L6.71934 17.8844L6.7959 17.3703L7.80215 16.7578L7.44121 16.5391Z" fill="#CA3745"/>
<path fill-rule="evenodd" clip-rule="evenodd" d="M6.44585 16.0907L5.53804 16.6704H5.0021L5.1771 16.8563L4.8271 17.2392L5.0021 17.436L5.54897 17.2392L5.72397 17.436L5.81148 16.922L6.80679 16.3204L6.44585 16.1017V16.0907ZM5.95366 15.1938L5.04585 15.7735H4.49898L4.68491 15.9704L4.32397 16.3532L4.50991 16.5392L5.05679 16.3423L5.23179 16.5392L5.30835 16.0251L6.3146 15.4235L5.95366 15.2048V15.1938Z" fill="#CA3745"/>
<path fill-rule="evenodd" clip-rule="evenodd" d="M15.4803 14.975V14.3078L14.7365 13.4109V12.7437L13.9928 12.0656H12.5053L11.2693 11.3984H9.53027V14.975H15.4803Z" fill="#FAAE29"/>
<path fill-rule="evenodd" clip-rule="evenodd" d="M9.53027 18.5516H9.0709L8.5459 18.1032H7.69277L7.2334 17.8844L7.46309 17.6657L7.92246 17.8844H8.38184L8.84121 17.2063L9.53027 17.425V17.8844H8.84121L9.53027 18.5407V18.5516Z" fill="#CA3745"/>
<path fill-rule="evenodd" clip-rule="evenodd" d="M3.58026 14.975V14.3078L4.32401 13.4109V12.7437L5.06776 12.0656H6.55526L7.80214 11.3984H9.53026V14.975H3.58026Z" fill="white"/>
<path fill-rule="evenodd" clip-rule="evenodd" d="M9.53027 11.3984H9.0709L8.5459 11.8359H7.69277L7.2334 12.0656L7.46309 12.2844L7.92246 12.0656H8.38184L8.84121 12.7437L9.53027 12.525V12.0656H8.84121L9.53027 11.3984Z" fill="#CA3745"/>
<path fill-rule="evenodd" clip-rule="evenodd" d="M9.53027 11.3984H9.98965L10.5256 11.8359H11.3678L11.8271 12.0656L11.6084 12.2844L11.1381 12.0656H10.6787L10.2193 12.7437L9.53027 12.525V12.0656H10.2193L9.53027 11.3984Z" fill="#CA3745"/>
<path fill-rule="evenodd" clip-rule="evenodd" d="M15.4803 14.9751V15.6423L14.7365 16.5392V17.2063L13.9928 17.8845H12.5053L11.2693 18.5407H9.53027V14.986H15.4803V14.9751Z" fill="white"/>
<path fill-rule="evenodd" clip-rule="evenodd" d="M9.53027 18.5516H9.98965L10.5256 18.1032H11.3678L11.8271 17.8844L11.6084 17.6657L11.1381 17.8844H10.6787L10.2193 17.2063L9.53027 17.425V17.8844H10.2193L9.53027 18.5407V18.5516ZM6.4459 13.8485L5.53809 13.2797H5.00215L5.17715 13.0938L4.82715 12.711L5.00215 12.5141L5.54902 12.711L5.72402 12.5141L5.81152 13.0282L6.80684 13.6297L6.4459 13.8485ZM11.6303 13.411L12.5271 12.8313H13.074L12.8881 12.6454L13.249 12.2625L13.074 12.0657L12.5271 12.2625L12.3521 12.0657L12.2646 12.5797L11.2693 13.1922L11.6303 13.411Z" fill="#CA3745"/>
<path fill-rule="evenodd" clip-rule="evenodd" d="M7.44117 13.411L6.53336 12.8313H5.98649L6.17242 12.6454L5.81149 12.2625L5.99742 12.0657L6.5443 12.2625L6.7193 12.0657L6.79586 12.5797L7.80211 13.1813L7.44117 13.4V13.411ZM5.94274 14.7563L5.03492 14.1766H4.48805L4.67399 13.9797L4.31305 13.5969L4.52086 13.4219L5.06774 13.6188L5.24274 13.4219L5.3193 13.936L6.32555 14.5375L5.96461 14.7563H5.94274Z" fill="#CA3745"/>
<path fill-rule="evenodd" clip-rule="evenodd" d="M4.02869 14.9751H4.24744L4.47712 15.1938L4.70681 14.9751H9.53025V18.1032H9.3115L9.53025 18.322V18.5626L8.84119 17.8954V17.6767H9.07087V17.8954H9.30056V17.6767L7.44119 16.6923H5.86619V15.7079L5.17712 15.2157H4.71775L4.48806 15.4345L4.70681 15.6532H4.48806L4.02869 14.997V14.9751Z" fill="white"/>
<path fill-rule="evenodd" clip-rule="evenodd" d="M4.02869 14.975H4.24744L4.47712 14.7562L4.70681 14.975H9.53025V11.8469H9.3115L9.53025 11.6281V11.3984L8.84119 12.0656V12.2844H9.07087V12.0656H9.30056V12.2844L7.44119 13.2797H5.86619V14.2531L5.17712 14.7562H4.71775L4.48806 14.5375L4.70681 14.3078H4.48806L4.02869 14.975Z" fill="#FAAE29"/>
<path fill-rule="evenodd" clip-rule="evenodd" d="M5.06775 14.9751H9.53025V17.6548L7.55056 16.5392H6.06306V15.6423L5.07869 14.9751H5.06775Z" fill="#00843D"/>
<path fill-rule="evenodd" clip-rule="evenodd" d="M12.6146 13.8595L13.5225 13.2798H14.0693L13.8834 13.0938L14.2443 12.711L14.0693 12.5142L13.5225 12.711L13.3475 12.5142L13.26 13.0282L12.2646 13.6298L12.6146 13.8485V13.8595ZM13.1178 14.7563L14.0256 14.1767H14.5615L14.3756 13.9798L14.7365 13.597L14.5615 13.411L14.0146 13.6079L13.8396 13.411L13.7521 13.9251L12.7568 14.5267L13.1178 14.7454V14.7563Z" fill="#CA3745"/>
<path fill-rule="evenodd" clip-rule="evenodd" d="M15.0428 14.975H14.8131L14.5834 14.7562L14.3537 14.975H9.53027V11.8469H9.75996L9.53027 11.6281V11.3984L10.2193 12.0656V12.2844H9.98965V12.0656H9.75996V12.2844L11.6193 13.2797H13.1943V14.2531L13.8943 14.7562H14.3537L14.5725 14.5375L14.3537 14.3078H14.5725L15.0428 14.975Z" fill="white"/>
<path fill-rule="evenodd" clip-rule="evenodd" d="M13.9928 14.9751H9.53027V12.2954L11.5209 13.411H13.0084V14.3079L14.0037 14.9751H13.9928Z" fill="#00843D"/>
<path fill-rule="evenodd" clip-rule="evenodd" d="M11.6302 16.5391L12.5271 17.1188H13.074L12.888 17.3047L13.249 17.6875L13.074 17.8844L12.5271 17.6875L12.3521 17.8844L12.2646 17.3703L11.2693 16.7578L11.6302 16.5391Z" fill="#CA3745"/>
<path fill-rule="evenodd" clip-rule="evenodd" d="M12.6146 16.0907L13.5225 16.6704H14.0693L13.8834 16.8563L14.2443 17.2392L14.0693 17.436L13.5225 17.2392L13.3475 17.436L13.26 16.922L12.2646 16.3204L12.6146 16.1017V16.0907ZM13.1178 15.1938L14.0256 15.7735H14.5615L14.3756 15.9595L14.7365 16.3423L14.5615 16.5392L14.0146 16.3423L13.8396 16.5392L13.7521 16.0251L12.7568 15.4235L13.1178 15.2048V15.1938Z" fill="#CA3745"/>
<path fill-rule="evenodd" clip-rule="evenodd" d="M15.0428 14.9751H14.8131L14.5834 15.1938L14.3537 14.9751H9.53027V18.1032H9.75996L9.53027 18.322V18.5626L10.2193 17.8954V17.6767H9.98965V17.8954H9.75996V17.6767L11.6193 16.6923H13.1943V15.7079L13.8943 15.2157H14.3537L14.5725 15.4345L14.3537 15.6532H14.5725L15.0428 14.997V14.9751Z" fill="#FAAE29"/>
<path fill-rule="evenodd" clip-rule="evenodd" d="M13.9928 14.9751H9.53025V17.6548L11.5209 16.5392H13.0084V15.6423L14.0037 14.9751H13.9928ZM5.06775 14.9751H9.53025V12.2954L7.55056 13.411H6.06306V14.3079L5.07869 14.9751H5.06775Z" fill="#CA3745"/>
<path fill-rule="evenodd" clip-rule="evenodd" d="M10.0224 14.975L11.2693 14.3078H12.0131L11.7615 14.089L12.2646 13.6296L12.0131 13.4109L11.2693 13.6296L11.0178 13.4109L10.9084 14.0125L9.53026 14.7125L10.0224 14.975ZM9.03807 14.975L7.80214 15.6421H7.05839L7.29901 15.8609L6.80682 16.3203L7.05839 16.539L7.80214 16.3203L8.04276 16.539L8.15214 15.9375L9.53026 15.2375L9.03807 14.975Z" fill="#CA3745"/>
<path fill-rule="evenodd" clip-rule="evenodd" d="M9.03806 14.975L7.80212 14.3078H7.05837L7.30994 14.089L6.81775 13.6296L7.06931 13.4109L7.81306 13.6296L8.05369 13.4109L8.16306 14.0125L9.54119 14.7125L9.049 14.975H9.03806ZM10.0224 14.975L11.2693 15.6421H12.0131L11.7615 15.8609L12.2646 16.3203L12.0131 16.539L11.2693 16.3203L11.0177 16.539L10.9084 15.9375L9.53025 15.2375L10.0224 14.975Z" fill="#00843D"/>
<path fill-rule="evenodd" clip-rule="evenodd" d="M8.04272 14.975L9.53023 13.8594L11.0177 14.975L9.53023 16.0906L8.04272 14.975Z" fill="white"/>
<path fill-rule="evenodd" clip-rule="evenodd" d="M4.70684 15.4235L4.93652 15.6423L4.71777 15.861H4.47715L3.78809 14.9751H4.01777L4.47715 15.6423H4.70684L4.48809 15.4235L4.70684 15.2048H5.17715V15.4235H4.71777H4.70684Z" fill="#CA3745"/>
<path fill-rule="evenodd" clip-rule="evenodd" d="M4.70684 14.5266L4.93652 14.3079L4.71777 14.0891H4.47715L3.78809 14.975H4.01777L4.47715 14.3079H4.70684L4.48809 14.5266L4.70684 14.7454H5.17715V14.5266H4.71777H4.70684ZM14.3537 15.4235L14.135 15.6422L14.3537 15.861H14.5834L15.2725 14.975H15.0537L14.5834 15.6422H14.3646L14.5834 15.4235L14.3646 15.2047H13.8943V15.4235H14.3537Z" fill="#CA3745"/>
<path fill-rule="evenodd" clip-rule="evenodd" d="M14.3646 14.5266L14.124 14.3079L14.3537 14.0891H14.5834L15.2724 14.975H15.0537L14.5834 14.3079H14.3646L14.5834 14.5266L14.3646 14.7454H13.8943V14.5266H14.3537H14.3646ZM9.30054 14.0891H9.75991V15.8719H9.30054V14.0891Z" fill="#CA3745"/>
<path fill-rule="evenodd" clip-rule="evenodd" d="M8.61151 14.5266H10.449V15.4235H8.61151V14.5266Z" fill="#CA3745"/>
<path fill-rule="evenodd" clip-rule="evenodd" d="M7.43188 48.9458L3.3103 51.2179V54.9207L7.47077 57.1928H11.5923L15.7139 54.9207V51.2179L11.5923 48.9879H7.47077L7.43188 48.9458Z" fill="#00843D" stroke="black" stroke-width="0.0404482"/>
<path fill-rule="evenodd" clip-rule="evenodd" d="M4.87085 52.7204H5.11148V52.2501H5.6146V52.7095H5.86616V51.6376H5.6146V52.097H5.12241V51.6376H4.87085V52.7095V52.7204ZM11.2037 56.286H11.4552V55.8267H11.9474V56.286H12.199V55.2032H11.9583V55.6626H11.4552V55.2032H11.2146V56.2751L11.2037 56.286ZM7.20054 50.9267H7.4521V50.4782H7.95522V50.9376H8.19585V49.8657H7.95522V50.3251H7.4521V49.8657H7.20054V50.9376V50.9267ZM10.8646 50.9267H11.1162V50.4782H11.6193V50.9376H11.8708V49.8657H11.6193V50.3251H11.1162V49.8657H10.8646V50.9376V50.9267ZM13.2052 52.7204H13.4459V52.2501H13.949V52.7095H14.2005V51.6376H13.949V52.097H13.4459V51.6376H13.2052V52.7095V52.7204ZM13.2052 54.5032H13.4459V54.0438H13.949V54.5032H14.2005V53.4313H13.949V53.8907H13.4459V53.4313H13.2052V54.5032Z" fill="#CC0000"/>
<path fill-rule="evenodd" clip-rule="evenodd" d="M9.53025 56.997V53.0704H15.5349V54.8532L11.5209 56.997H9.51931H9.53025ZM9.53025 49.1548V53.0704H3.5365V51.2876L7.52869 49.1548H9.53025Z" fill="#FAAE29"/>
<path fill-rule="evenodd" clip-rule="evenodd" d="M9.53025 49.1548V53.0704H15.5349V51.2876L11.5209 49.1548H9.51931H9.53025ZM9.53025 56.997V53.0704H3.5365V54.8532L7.52869 56.997H9.53025Z" fill="white"/>
<path fill-rule="evenodd" clip-rule="evenodd" d="M12.7362 51.4755H15.1407L12.7362 50.4089V51.4755ZM15.5358 51.2944V53.0754H11.7428V51.6566H10.9413L9.93667 51.1233V49.8756L10.5462 49.3322H9.74476V51.1233H9.54156V49.1611H11.5396L15.5358 51.2944Z" fill="#FAAE29" stroke="black" stroke-width="0.0106579"/>
<path fill-rule="evenodd" clip-rule="evenodd" d="M7.52869 51.8235V54.3282H8.13025L9.53025 55.0501L10.9302 54.3282H11.5318V51.8345H10.9302L9.53025 51.1235L8.13025 51.8345H7.52869V51.8235Z" fill="#CA3745"/>
<path fill-rule="evenodd" clip-rule="evenodd" d="M6.33517 54.6759H3.9307L6.33517 55.7425V54.6759ZM3.5356 54.857V53.0759H7.32857V54.4947H8.13006L9.13475 55.028V56.2758L8.52516 56.8192H9.32665V55.028H9.52985V56.9902H7.53177L3.5356 54.857Z" fill="#FAAE29" stroke="black" stroke-width="0.0106579"/>
<path fill-rule="evenodd" clip-rule="evenodd" d="M6.33517 51.4755H3.9307L6.33517 50.4089V51.4755ZM3.5356 51.2944V53.0754H7.32857V51.6566H8.13006L9.13475 51.1233V49.8756L8.52516 49.3322H9.32665V51.1233H9.52985V49.1611H7.53177L3.5356 51.2944Z" fill="white" stroke="black" stroke-width="0.0106579"/>
<path fill-rule="evenodd" clip-rule="evenodd" d="M12.7362 54.6759H15.1407L12.7362 55.7425V54.6759ZM15.5358 54.857V53.0759H11.7428V54.4947H10.9413L9.93667 55.028V56.2758L10.5462 56.8192H9.74476V55.028H9.54156V56.9902H11.5396L15.5358 54.857Z" fill="white" stroke="black" stroke-width="0.0106579"/>
<path fill-rule="evenodd" clip-rule="evenodd" d="M4.73964 54.5032H4.98026V53.9563H5.48339V54.5032H5.73495V53.2563H5.48339V53.7922H4.98026V53.2454H4.73964V54.5032ZM7.13495 56.286H7.38651V55.7391H7.8787V56.286H8.13026V55.0391H7.8787V55.575H7.38651V55.0282H7.13495V56.2969V56.286ZM4.7287 51.6485H4.98026V52.1844H5.48339V51.6375H5.73495V52.9063H5.48339V52.3594H4.98026V52.8954H4.73964V51.6485H4.7287ZM7.13495 49.8657H7.38651V50.4016H7.8787V49.8547H8.13026V51.1125H7.8787V50.5766H7.38651V51.1235H7.13495V49.8657ZM10.9303 56.286H11.1818V55.7391H11.6849V56.286H11.9365V55.0391H11.6849V55.575H11.1818V55.0282H10.9303V56.2969V56.286ZM13.3365 52.8954H13.5881V52.3594H14.0803V52.9063H14.3318V51.6485H14.0803V52.1844H13.599V51.6375H13.3474V52.9063L13.3365 52.8954Z" fill="#CA3745"/>
<path fill-rule="evenodd" clip-rule="evenodd" d="M10.9302 56.2859H11.1818V55.739H11.6849V56.2859H11.9365V55.039H11.6849V55.575H11.1818V55.0281H10.9302V56.2968V56.2859Z" fill="#CA3745"/>
<path fill-rule="evenodd" clip-rule="evenodd" d="M10.9302 56.286H11.1818V55.7391H11.6849V56.286H11.9365V55.0391H11.6849V55.575H11.1818V55.0282H10.9302V56.2969V56.286ZM13.3365 54.5032H13.588V53.9563H14.0802V54.5032H14.3318V53.2563H14.0802V53.7813H13.599V53.2454H13.3474V54.5032H13.3365ZM10.9302 51.1125H11.1818V50.5766H11.6849V51.1235H11.9365V49.8657H11.6849V50.4016H11.1818V49.8547H10.9302V51.1125Z" fill="#CA3745"/>
<path fill-rule="evenodd" clip-rule="evenodd" d="M9.73804 53.0704L10.5365 52.4141H10.9302V52.7422H10.5365V52.9063H11.138V52.261H10.5365V51.7688H9.73804V52.261H9.93491V51.9329H10.3287V52.261L9.53023 52.9172L8.73179 52.261V51.9329H9.13647V52.261H9.33335V51.7688H8.53491V52.261H7.93335V52.9172H8.53491V52.7532H8.13022V52.425H8.53491L9.33335 53.0813L8.53491 53.7266H8.13022V53.3985H8.53491V53.2344H7.93335V53.8907H8.53491V54.3719H9.33335V53.8907H9.13647V54.2188H8.73179V53.8907L9.53023 53.2344L10.3287 53.8907V54.2188H9.93491V53.8907H9.73804V54.3719H10.5365V53.8907H11.138V53.2344H10.5365V53.3985H10.9302V53.7266H10.5365L9.73804 53.0704Z" fill="white"/>
<path fill-rule="evenodd" clip-rule="evenodd" d="M3.92737 25.4433L4.31118 25.045H6.63663L8.37507 23.2944H10.7005L12.439 25.0555H14.7644L15.1482 25.4433L14.7644 25.8311H12.4277L10.6892 27.5922H8.36378L6.63663 25.8311H4.29989L3.91608 25.4433H3.92737Z" fill="#CA3745"/>
<path fill-rule="evenodd" clip-rule="evenodd" d="M4.12457 25.4753L4.33478 25.2847H6.73108L8.52832 23.436H10.5252L12.333 25.2942H14.7293L14.929 25.4848L14.7293 25.6659H12.333L10.7249 27.3335H8.32863L6.73108 25.6659H4.32426L4.12457 25.4753Z" fill="#CA3745" stroke="black" stroke-width="0.030023"/>
<path fill-rule="evenodd" clip-rule="evenodd" d="M10.5086 25.6425L11.2762 26.4182L10.8924 26.8061L10.6892 26.6174H10.5086V26.8061L10.7005 27.0052H11.0956L11.4794 26.6174V26.2191L10.7005 25.4434L11.4794 24.6572V24.2694L11.0956 23.8815H10.7005L10.5086 24.0702V24.2694H10.7005L10.9037 24.0702L11.2875 24.4685L10.5086 25.2442L9.74098 24.4685L10.5086 23.6824V23.4832H10.3167L9.54908 24.2694L8.77017 23.4832H8.57826V23.6824L9.34588 24.4685L8.57826 25.2442L7.79935 24.4685L8.19445 24.0702L8.38635 24.2694H8.57826V24.0702L8.38635 23.8815H7.99125L7.60744 24.2694V24.6572L8.38635 25.4434L7.60744 26.2191V26.6174L7.99125 27.0052H8.38635L8.57826 26.8061V26.6174H8.36378L8.17187 26.8061L7.77677 26.4182L8.55568 25.6425L9.32331 26.4182L8.55568 27.2044V27.3931H8.74759L9.5265 26.6174L10.2941 27.3931H10.486V27.2044L9.71841 26.4182L10.486 25.6425H10.5086ZM9.53779 24.6572L8.75888 25.4434L9.53779 26.2191L10.3054 25.4434L9.53779 24.6572ZM8.37507 27.5922V29.1646L8.56697 28.9549L8.75888 29.1646L8.95078 28.9549L9.14269 29.1646L9.34588 28.9549L9.53779 29.1646L9.7297 28.9549L9.9216 29.1646L10.1135 28.9549L10.3054 29.1646L10.4973 28.9549L10.7005 29.1646V27.5922H8.36378H8.37507ZM10.7005 23.2945V21.7222L10.4973 21.9318L10.3054 21.7222L10.1135 21.9318L9.9216 21.7222L9.7297 21.9318L9.53779 21.7222L9.3346 21.9318L9.14269 21.7222L8.95078 21.9318L8.75888 21.7222L8.56697 21.9318L8.37507 21.7222V23.2945H10.7005ZM13.9742 25.0555V23.4832L13.7936 23.6928L13.6017 23.4832L13.4098 23.6928L13.2066 23.4832L13.0147 23.6928L12.8228 23.4832L12.6309 23.6928L12.439 23.4832V25.0555H13.9855H13.9742ZM6.63662 25.0555V23.4832L6.43343 23.6928L6.24152 23.4832L6.04962 23.6928L5.85771 23.4832L5.6658 23.6928L5.4739 23.4832L5.2707 23.6928L5.0788 23.4832V25.0555H6.62533H6.63662ZM13.9855 25.8312V27.4036L13.7936 27.1939L13.6017 27.4036L13.4098 27.1939L13.2066 27.4036L13.0147 27.1939L12.8228 27.4036L12.6309 27.1939L12.439 27.4036V25.8312H13.9855ZM6.62533 25.8312V27.4036L6.43343 27.1939L6.24152 27.4036L6.04962 27.1939L5.85771 27.4036L5.6658 27.1939L5.4739 27.4036L5.2707 27.1939L5.0788 27.4036V25.8312H6.62533Z" fill="#FAAE29"/>
<path fill-rule="evenodd" clip-rule="evenodd" d="M10.6893 27.5922V28.567L10.8925 28.3679L11.0844 28.5775L11.2763 28.3679L11.4682 28.5775L11.6601 28.3679L11.852 28.5775L12.0552 28.3679L12.2471 28.5775L12.439 28.3679V25.8311L10.6893 27.5922ZM8.37509 27.5922V28.567L8.1719 28.3679L7.97999 28.5775L7.78809 28.3679L7.59618 28.5775L7.40428 28.3679L7.21237 28.5775L7.02046 28.3679L6.82856 28.5775L6.62536 28.3679V25.8311L8.37509 27.5922ZM8.37509 23.2944V22.3196L8.1719 22.5083L7.97999 22.3196L7.78809 22.5083L7.59618 22.3196L7.40428 22.5083L7.21237 22.3196L7.02046 22.5083L6.82856 22.3196L6.62536 22.5083V25.0555L8.37509 23.2944ZM10.6893 23.2944V22.3196L10.8925 22.5083L11.0844 22.3196L11.2763 22.5083L11.4682 22.3196L11.6601 22.5083L11.852 22.3196L12.0439 22.5083L12.2471 22.3196L12.439 22.5083V25.0555L10.6893 23.2944ZM5.07883 27.0052L4.88692 26.806L4.69501 27.0156L4.50311 26.806L4.3112 27.0156L4.11929 26.806L3.9161 27.0156L3.72419 26.806L3.53229 27.0156V23.871L3.72419 24.0806L3.9161 23.871L4.11929 24.0806L4.3112 23.871L4.50311 24.0806L4.69501 23.871L4.88692 24.0806L5.07883 23.871V25.0555H4.3112L3.9161 25.4433L4.3112 25.8311H5.07883V27.0052ZM13.9855 27.0052L14.1774 26.806L14.3693 27.0156L14.5612 26.806L14.7644 27.0156L14.9563 26.806L15.1482 27.0156L15.3402 26.806L15.5321 27.0156V23.871L15.3402 24.0806L15.1482 23.871L14.9563 24.0806L14.7644 23.871L14.5612 24.0806L14.3693 23.871L14.1774 24.0806L13.9855 23.871V25.0555H14.7644L15.1482 25.4433L14.7644 25.8311H13.9855V27.0052Z" fill="#00843D"/>
<path fill-rule="evenodd" clip-rule="evenodd" d="M7.41556 27.7181C7.41556 27.7181 7.25752 27.8648 7.25752 27.9487C7.25752 28.022 7.42685 28.1793 7.50587 28.1793C7.59618 28.1793 7.74293 28.022 7.74293 27.9487C7.74293 27.8753 7.58489 27.7181 7.58489 27.7181V27.4036C7.58489 27.4036 7.92355 27.9382 7.92355 27.7076C7.92355 27.5399 7.58489 27.2568 7.58489 27.2568H7.41556C7.41556 27.2568 7.0769 27.5923 7.0769 27.7076C7.0769 27.9382 7.41556 27.4036 7.41556 27.4036V27.7181Z" fill="white"/>
<path fill-rule="evenodd" clip-rule="evenodd" d="M9.43622 28.3154C9.43622 28.3154 9.24431 28.5251 9.24431 28.6299C9.24431 28.7347 9.44751 28.9653 9.53782 28.9653C9.6507 28.9653 9.82003 28.7452 9.82003 28.6404C9.82003 28.5356 9.62812 28.3154 9.62812 28.3154V27.8752C9.62812 27.8752 9.96678 28.588 9.96678 28.263C9.96678 28.0534 9.62812 27.6655 9.62812 27.6655H9.43622C9.43622 27.6655 9.04112 28.1477 9.09756 28.263C9.09756 28.588 9.43622 27.8752 9.43622 27.8752V28.3154Z" fill="#CA3745"/>
<path d="M7.40091 25.6306C7.61208 25.6306 7.78326 25.5417 7.78326 25.432C7.78326 25.3223 7.61208 25.2334 7.40091 25.2334C7.18974 25.2334 7.01855 25.3223 7.01855 25.432C7.01855 25.5417 7.18974 25.6306 7.40091 25.6306Z" fill="#00843D"/>
<path d="M9.53445 25.6306C9.74562 25.6306 9.91681 25.5417 9.91681 25.432C9.91681 25.3223 9.74562 25.2334 9.53445 25.2334C9.32329 25.2334 9.1521 25.3223 9.1521 25.432C9.1521 25.5417 9.32329 25.6306 9.53445 25.6306Z" fill="#00843D"/>
<path d="M11.6567 25.6306C11.8679 25.6306 12.0391 25.5417 12.0391 25.432C12.0391 25.3223 11.8679 25.2334 11.6567 25.2334C11.4455 25.2334 11.2744 25.3223 11.2744 25.432C11.2744 25.5417 11.4455 25.6306 11.6567 25.6306Z" fill="#00843D"/>
<path fill-rule="evenodd" clip-rule="evenodd" d="M7.38169 23.1897C7.38169 23.1897 7.22364 23.0325 7.22364 22.9591C7.22364 22.8857 7.39297 22.718 7.46071 22.718C7.55101 22.718 7.69777 22.8753 7.69777 22.9486C7.69777 23.0325 7.53973 23.1897 7.53973 23.1897V23.5042C7.53973 23.5042 7.88967 22.9591 7.88967 23.1897C7.88967 23.3574 7.55101 23.6509 7.55101 23.6509H7.38169C7.38169 23.6509 7.03174 23.3155 7.03174 23.2002C7.03174 22.9696 7.3704 23.4937 7.3704 23.4937V23.1792L7.38169 23.1897Z" fill="white"/>
<path fill-rule="evenodd" clip-rule="evenodd" d="M9.39105 22.5816C9.39105 22.5816 9.19914 22.3719 9.19914 22.2671C9.19914 22.1623 9.41363 21.9421 9.49265 21.9421C9.60553 21.9421 9.78615 22.1518 9.78615 22.2566C9.78615 22.3614 9.59424 22.592 9.59424 22.592V23.0113C9.59424 23.0113 9.9329 22.309 9.9329 22.634C9.9329 22.8436 9.59424 23.2419 9.59424 23.2419H9.37976C9.37976 23.2419 8.98466 22.7493 9.0411 22.634C9.0411 22.3195 9.37976 23.0218 9.37976 23.0218V22.5816H9.39105Z" fill="#CA3745"/>
<path fill-rule="evenodd" clip-rule="evenodd" d="M11.5359 27.7181C11.5359 27.7181 11.3778 27.8648 11.3778 27.9487C11.3778 28.0221 11.5471 28.1793 11.6262 28.1793C11.7165 28.1793 11.8632 28.0221 11.8632 27.9487C11.8632 27.8753 11.7052 27.7181 11.7052 27.7181V27.4036C11.7052 27.4036 12.0438 27.9382 12.0438 27.7076C12.0438 27.5399 11.7052 27.2568 11.7052 27.2568H11.5246C11.5246 27.2568 11.1859 27.5923 11.1859 27.7076C11.1859 27.9382 11.5246 27.4036 11.5246 27.4036V27.7181H11.5359ZM11.502 23.1897C11.502 23.1897 11.3439 23.0325 11.3439 22.9486C11.3439 22.8857 11.5133 22.718 11.581 22.718C11.6713 22.718 11.8181 22.8753 11.8181 22.9486C11.8181 23.0325 11.66 23.1897 11.66 23.1897V23.5042C11.66 23.5042 12.01 22.9591 12.01 23.1897C12.01 23.3574 11.6713 23.6509 11.6713 23.6509H11.502C11.502 23.6509 11.152 23.3155 11.152 23.2002C11.152 22.9696 11.4907 23.4937 11.4907 23.4937V23.1792L11.502 23.1897Z" fill="white"/>
<path fill-rule="evenodd" clip-rule="evenodd" d="M5.73354 26.6278C5.73354 26.6278 5.51906 26.7745 5.51906 26.8374C5.51906 26.9108 5.74483 27.068 5.84642 27.0576C5.95931 27.0576 6.16251 26.9213 6.16251 26.8479C6.16251 26.7745 5.94802 26.6278 5.94802 26.6278V26.3343C5.94802 26.3343 6.33183 26.806 6.33183 26.5963C6.33183 26.4496 5.94802 26.1875 5.94802 26.1875H5.73354C5.73354 26.1875 5.29328 26.523 5.36102 26.5963C5.36102 26.806 5.73354 26.3343 5.73354 26.3343V26.6278ZM5.68838 24.416C5.68838 24.416 5.4739 24.2693 5.4739 24.1959C5.4739 24.1225 5.69967 23.9758 5.80127 23.9862C5.91416 23.9862 6.11735 24.1225 6.11735 24.1959C6.11735 24.2693 5.90287 24.4055 5.90287 24.4055V24.699C5.90287 24.699 6.28668 24.2273 6.28668 24.4475C6.28668 24.5837 5.90287 24.8458 5.90287 24.8458H5.68838C5.68838 24.8458 5.24813 24.5208 5.31586 24.4475C5.31586 24.2378 5.68838 24.699 5.68838 24.699V24.416ZM13.1727 26.5754C13.1727 26.5754 12.9469 26.7221 12.9469 26.7955C12.9469 26.8689 13.184 27.0156 13.2856 27.0156C13.3985 27.0156 13.6017 26.8689 13.6017 26.806C13.6017 26.7221 13.3759 26.5754 13.3759 26.5754V26.2924C13.3759 26.2924 13.7597 26.7641 13.7597 26.5439C13.7597 26.4077 13.3872 26.1456 13.3872 26.1456H13.1614C13.1614 26.1456 12.7325 26.4706 12.7889 26.5439C12.7889 26.7641 13.1727 26.2924 13.1727 26.2924V26.5859V26.5754ZM13.1276 24.3741C13.1276 24.3741 12.9018 24.2273 12.9018 24.154C12.9018 24.0806 13.1389 23.9338 13.2405 23.9338C13.3533 23.9338 13.5565 24.0806 13.5565 24.1435C13.5565 24.2273 13.3308 24.3636 13.3308 24.3636V24.6571C13.3308 24.6571 13.7146 24.1854 13.7146 24.3951C13.7146 24.5418 13.342 24.8039 13.342 24.8039H13.1163C13.1163 24.8039 12.6873 24.4789 12.7438 24.4055C12.7438 24.1854 13.1276 24.6571 13.1276 24.6571V24.3636V24.3741Z" fill="#CA3745"/>
<path fill-rule="evenodd" clip-rule="evenodd" d="M4.15314 26.6068C4.0854 26.4706 4.10798 26.4077 4.10798 26.3343C4.10798 26.2609 4.29989 26.1247 4.36762 26.1247C4.45793 26.1247 4.60468 26.2714 4.60468 26.3553C4.60468 26.4286 4.60468 26.4915 4.57081 26.6278L4.48051 26.4077C4.35633 26.7221 4.34504 26.7221 4.27731 26.3972L4.16443 26.6068H4.15314ZM4.15314 24.3532C4.09669 24.4894 4.10798 24.5523 4.10798 24.6257C4.10798 24.6991 4.29989 24.8353 4.37891 24.8353C4.46922 24.8353 4.61597 24.6886 4.61597 24.6047C4.61597 24.5314 4.61597 24.4685 4.5821 24.3322L4.48051 24.5523C4.36762 24.2378 4.35633 24.2378 4.27731 24.5628L4.16443 24.3532H4.15314ZM14.5951 26.5754C14.5274 26.4391 14.5386 26.3762 14.5386 26.3029C14.5386 26.2295 14.7418 26.0932 14.8096 26.0932C14.8999 26.0932 15.0466 26.2504 15.0466 26.3238C15.0466 26.3972 15.0466 26.4706 15.0128 26.5964L14.9112 26.3762C14.7983 26.6907 14.787 26.7012 14.708 26.3762L14.5951 26.5754ZM14.5951 24.3322C14.5274 24.458 14.5499 24.5209 14.5499 24.6047C14.5499 24.6676 14.7418 24.8144 14.8096 24.8144C14.8999 24.8144 15.0579 24.6571 15.0579 24.5838C15.0579 24.4999 15.0579 24.437 15.0241 24.3007L14.9112 24.5314C14.7983 24.2064 14.7983 24.1959 14.7193 24.5314L14.6064 24.3217L14.5951 24.3322Z" fill="white"/>
<path fill-rule="evenodd" clip-rule="evenodd" d="M8.34124 29.2062V28.6402H6.53506V27.5291H4.93208V27.1622H3.5323V23.8079H4.93208V23.441H6.53506V22.3299H8.34124V21.7744H10.7344V22.3299H12.5406V23.441H14.1323V23.8184H15.5434V27.1622H14.1436V27.5291H12.5519V28.6402H10.7457V29.1958H8.35253L8.34124 29.2062ZM8.13805 29.3844V28.8289H6.33187V27.7178H4.74018V27.3404H3.34039V23.6297H4.74018V23.2628H6.33187V22.1412H8.13805V21.5857H10.9376V22.1412H12.7438V23.2628H14.3355V23.6297H15.7353V27.3404H14.3355V27.7178H12.7325V28.8289H10.9263V29.3844H8.13805Z" fill="#CA3745" stroke="black" stroke-width="0.010878"/>
</g>
<defs>
<clipPath id="clip0_1_74197">
<rect width="74.6667" height="56" fill="white" transform="translate(0 9.375)"/>
</clipPath>
</defs>
</svg>
