<svg width="75" height="75" viewBox="0 0 75 75" fill="none" xmlns="http://www.w3.org/2000/svg">
<rect width="74.6667" height="74.75" fill="white"/>
<g clip-path="url(#clip0_1_74500)">
<path fill-rule="evenodd" clip-rule="evenodd" d="M-4.66669 9.375H79.3333V65.375H-4.66669V9.375Z" fill="#E70013"/>
<path fill-rule="evenodd" clip-rule="evenodd" d="M51.5302 37.3532C51.5302 41.0982 50.0426 44.6897 47.3945 47.3378C44.7464 49.9859 41.1549 51.4735 37.4099 51.4735C33.665 51.4735 30.0734 49.9859 27.4254 47.3378C24.7773 44.6897 23.2896 41.0982 23.2896 37.3532C23.2896 33.6083 24.7773 30.0167 27.4254 27.3687C30.0734 24.7206 33.665 23.2329 37.4099 23.2329C41.1549 23.2329 44.7464 24.7206 47.3945 27.3687C50.0426 30.0167 51.5302 33.6083 51.5302 37.3532Z" fill="white"/>
<path fill-rule="evenodd" clip-rule="evenodd" d="M37.4099 46.7157C34.9808 46.6327 32.6789 45.6093 30.9898 43.8616C29.3007 42.1138 28.3566 39.7783 28.3566 37.3477C28.3566 34.9171 29.3007 32.5816 30.9898 30.8339C32.6789 29.0861 34.9808 28.0628 37.4099 27.9797C38.7005 27.9797 40.1771 28.286 41.1724 29.0188C34.3255 29.2704 32.5865 35.0891 32.5865 37.4297C32.5865 39.7704 33.6912 44.9875 41.1724 45.7641C40.3193 46.311 38.7005 46.7157 37.4099 46.7157Z" fill="#E70013"/>
<path fill-rule="evenodd" clip-rule="evenodd" d="M45.6568 41.2906L41.4021 39.7375L38.5912 43.2812L38.7552 38.7641L34.5115 37.1781L38.8646 35.9313L39.0505 31.4141L41.588 35.1656L45.9412 33.9625L43.1521 37.5172L45.6568 41.2906Z" fill="#E70013"/>
</g>
<defs>
<clipPath id="clip0_1_74500">
<rect width="74.6667" height="56" fill="white" transform="translate(0 9.375)"/>
</clipPath>
</defs>
</svg>
