<svg width="75" height="75" viewBox="0 0 75 75" fill="none" xmlns="http://www.w3.org/2000/svg">
<rect width="74.6667" height="74.75" fill="white"/>
<g clip-path="url(#clip0_1_75176)">
<path d="M0 9.375H74.6667V65.375H0V9.375Z" fill="#009FCA"/>
<path fill-rule="evenodd" clip-rule="evenodd" d="M69.2184 23.69H72.45L69.8484 25.4633L70.84 28.345L68.2384 26.56L65.6484 28.345L66.64 25.4633L64.0384 23.69H67.2467L68.2384 20.8083L69.2184 23.69ZM61.145 46.65H64.365L61.7634 48.4234L62.755 51.305L60.1534 49.52L57.5517 51.305L58.555 48.4234L55.9534 46.65H59.15L60.1417 43.7683L61.145 46.65ZM69.2184 41.4467H72.45L69.8484 43.22L70.84 46.1017L68.2384 44.3167L65.6484 46.1017L66.64 43.22L64.0384 41.4467H67.2467L68.2384 38.565L69.2184 41.4467ZM34.51 58.1067H37.73L35.1167 59.8683L36.12 62.7383L33.5184 60.965L30.9167 62.7383L31.92 59.8683L29.3067 58.0834H32.5267L33.5184 55.2133L34.51 58.1067ZM41.8134 49.1817H38.5934L41.195 47.3967L40.2034 44.5267L42.805 46.3L45.4067 44.5267L44.4034 47.3967L47.005 49.1817H43.7967L42.805 52.0517L41.8134 49.1817ZM51.2984 36.0567H48.0667L50.6684 34.2833L49.6767 31.4017L52.2784 33.1867L54.88 31.4017L53.8767 34.2833L56.4784 36.0567H53.27L52.2784 38.9383L51.2984 36.0567ZM59.2667 33.3383H56.0467L58.66 31.5534L57.6567 28.6833L60.2584 30.4567L62.86 28.6833L61.8567 31.5534L64.47 33.3383H61.25L60.2584 36.2083L59.2667 33.3383ZM51.2984 56.0417H48.0667L50.6684 54.2683L49.7 51.375L52.3017 53.1483L54.9034 51.375L53.9 54.2567L56.5017 56.03H53.2934L52.3017 58.9117L51.2984 56.0417ZM41.8134 58.3633H38.5934L41.195 56.59L40.2034 53.7084L42.805 55.4817L45.4067 53.7084L44.4034 56.5784L47.0167 58.375H43.8084L42.8167 61.2567L41.8134 58.3633Z" fill="#FFF40D"/>
<path d="M0 9.375H37.3333V37.375H0V9.375Z" fill="#012169"/>
<path d="M4.375 9.375L18.6083 19.9333L32.7833 9.375H37.3333V12.9917L23.3333 23.4333L37.3333 33.8167V37.375H32.6667L18.6667 26.9333L4.725 37.375H0V33.875L13.9417 23.4917L0 13.1083V9.375H4.375Z" fill="white"/>
<path d="M24.7333 25.7667L37.3333 35.0417V37.375L21.525 25.7667H24.7333ZM14 26.9333L14.35 28.975L3.15 37.375H0L14 26.9333ZM37.3333 9.375V9.55L22.8083 20.5167L22.925 17.95L34.4167 9.375H37.3333ZM0 9.375L13.9417 19.6417H10.4417L0 11.825V9.375Z" fill="#C8102E"/>
<path d="M14.0583 9.375V37.375H23.3917V9.375H14.0583ZM0 18.7083V28.0417H37.3333V18.7083H0Z" fill="white"/>
<path d="M0 20.6333V26.2333H37.3333V20.6333H0ZM15.925 9.375V37.375H21.525V9.375H15.925Z" fill="#C8102E"/>
</g>
<defs>
<clipPath id="clip0_1_75176">
<rect width="74.6667" height="56" fill="white" transform="translate(0 9.375)"/>
</clipPath>
</defs>
</svg>
