<svg width="75" height="75" viewBox="0 0 75 75" fill="none" xmlns="http://www.w3.org/2000/svg">
<rect width="74.6667" height="74.75" fill="white"/>
<g clip-path="url(#clip0_1_75073)">
<path d="M0 9.375H84V65.375H0V9.375Z" fill="#FF0000"/>
<path d="M0 9.375H42V37.375H0V9.375Z" fill="#000095"/>
<path d="M17.9666 24.1801L17.6749 25.3001L18.7716 25.6034L18.5616 24.7751L17.9666 24.1801ZM23.4382 24.7751L23.2282 25.6034L24.3249 25.3001L24.0332 24.1801L23.4382 24.7751ZM18.5616 21.9751L17.9666 22.5701L18.1882 23.3751L18.5616 21.9751Z" fill="white"/>
<path d="M18.1882 23.375L17.9666 24.18L18.5616 24.775L18.1882 23.375Z" fill="white"/>
<path d="M17.9666 22.5701L17.1616 23.3751L17.9666 24.1801L18.1882 23.3751L17.9666 22.5701ZM19.5999 25.8134L20.1949 26.4084L20.9999 26.1867L19.5999 25.8134ZM21.8049 26.4084L22.9249 26.7001L23.2282 25.6034L22.3999 25.8134L21.8049 26.4084Z" fill="white"/>
<path d="M22.3999 25.8132L23.2282 25.6032L23.4382 24.7749L22.3999 25.8132ZM18.7716 25.6032L19.0749 26.6999L20.1949 26.4082L19.5999 25.8132L18.7716 25.6032ZM20.9999 26.1866L21.8049 26.4082L22.3999 25.8132L20.9999 26.1866Z" fill="white"/>
<path d="M20.1949 26.4084L20.9999 27.2134L21.8049 26.4084L20.9999 26.1867L20.1949 26.4084ZM18.7716 21.1467L17.6749 21.4501L17.9666 22.5701L18.5616 21.9751L18.7716 21.1467ZM18.5616 24.7751L18.7716 25.6034L19.5999 25.8134L18.5616 24.7751ZM23.8116 23.3751L24.0332 22.5701L23.4382 21.9751L23.8116 23.3751Z" fill="white"/>
<path d="M19.5999 20.9368L18.7716 21.1468L18.5616 21.9751L19.5999 20.9368ZM23.4382 21.9751L23.2283 21.1468L22.3999 20.9368L23.4382 21.9751ZM24.0333 24.1801L24.8382 23.3751L24.0333 22.5701L23.8116 23.3751L24.0333 24.1801Z" fill="white"/>
<path d="M23.4382 21.9749L22.3999 20.9366L20.9999 20.5632L19.5999 20.9366L18.5616 21.9749L18.1882 23.3749L18.5616 24.7749L19.5999 25.8132L20.9999 26.1866L22.3999 25.8132L23.4382 24.7749L23.8116 23.3749L23.4382 21.9749Z" fill="white"/>
<path d="M23.4382 24.775L24.0332 24.18L23.8116 23.375L23.4382 24.775ZM24.0332 22.57L24.3249 21.45L23.2282 21.1467L23.4382 21.975L24.0332 22.57ZM23.2282 21.1467L22.9249 20.05L21.8049 20.3417L22.3999 20.9367L23.2282 21.1467ZM20.1949 20.3417L19.0749 20.05L18.7716 21.1467L19.5999 20.9367L20.1949 20.3417ZM20.9999 20.5634L20.1949 20.3417L19.5999 20.9367L20.9999 20.5634Z" fill="white"/>
<path d="M21.8049 20.3416L20.9999 19.5366L20.1949 20.3416L20.9999 20.5633L21.8049 20.3416Z" fill="white"/>
<path d="M22.3999 20.9366L21.8049 20.3416L20.9999 20.5632L22.3999 20.9366ZM20.1949 26.4082L19.0749 26.6999L19.5999 28.6366L20.9999 27.2132L20.1949 26.4082ZM19.5999 28.6366L20.9999 33.8749L22.3999 28.6366L20.9999 27.2132L19.5999 28.6366ZM18.7716 25.6032L17.6749 25.2999L17.1616 27.2132L19.0749 26.6999L18.7716 25.6032Z" fill="white"/>
<path d="M17.1616 27.2132L15.7616 32.4749L19.5999 28.6366L19.0749 26.6999L17.1616 27.2132ZM15.7616 24.7749L11.8999 28.6366L17.1616 27.2132L17.6749 25.2999L15.7616 24.7749Z" fill="white"/>
<path d="M17.9666 24.18L17.1616 23.375L15.7616 24.775L17.6749 25.3L17.9666 24.18ZM17.9666 22.57L17.6749 21.45L15.7616 21.975L17.1616 23.375L17.9666 22.57Z" fill="white"/>
<path d="M15.7616 21.9751L10.4999 23.3751L15.7616 24.7751L17.1616 23.3751L15.7616 21.9751ZM26.2616 24.7751L24.3249 25.3001L24.8382 27.2134L30.0999 28.6368L26.2616 24.7751Z" fill="white"/>
<path d="M23.2282 25.6033L22.9249 26.7L24.8382 27.2133L24.3249 25.3L23.2282 25.6033ZM21.8049 26.4083L20.9999 27.2133L22.3999 28.6367L22.9249 26.7L21.8049 26.4083ZM24.0332 24.18L24.3249 25.3L26.2616 24.775L24.8382 23.375L24.0332 24.18Z" fill="white"/>
<path d="M22.3999 28.6366L26.2616 32.475L24.8383 27.2133L22.9249 26.7L22.3999 28.6366ZM23.2283 21.1466L24.3249 21.45L24.8383 19.5366L22.9249 20.05L23.2283 21.1466Z" fill="white"/>
<path d="M26.2616 21.9749L30.0999 18.1366L24.8383 19.5366L24.3249 21.4499L26.2616 21.9749ZM24.8383 19.5366L26.2616 14.2749L22.3999 18.1366L22.9249 20.0499L24.8383 19.5366ZM26.2616 24.7749L31.4999 23.3749L26.2616 21.9749L24.8383 23.3749L26.2616 24.7749Z" fill="white"/>
<path d="M24.0332 22.5699L24.8382 23.3749L26.2616 21.9749L24.3249 21.4499L24.0332 22.5699ZM19.5999 18.1366L15.7616 14.2749L17.1616 19.5366L19.0749 20.0499L19.5999 18.1366Z" fill="white"/>
<path d="M18.7716 21.1466L19.0749 20.05L17.1616 19.5366L17.6749 21.45L18.7716 21.1466Z" fill="white"/>
<path d="M17.1616 19.5367L11.8999 18.1367L15.7616 21.9751L17.6749 21.4501L17.1616 19.5367ZM21.8049 20.3417L22.9249 20.0501L22.3999 18.1367L20.9999 19.5367L21.8049 20.3417Z" fill="white"/>
<path d="M22.3999 18.1367L20.9999 12.875L19.5999 18.1367L20.9999 19.5367L22.3999 18.1367Z" fill="white"/>
<path d="M20.1949 20.3417L20.9999 19.5367L19.5999 18.1367L19.0749 20.0501L20.1949 20.3417Z" fill="white"/>
<path d="M21 29.3367C24.2925 29.3367 26.9616 26.6675 26.9616 23.375C26.9616 20.0825 24.2925 17.4133 21 17.4133C17.7074 17.4133 15.0383 20.0825 15.0383 23.375C15.0383 26.6675 17.7074 29.3367 21 29.3367Z" fill="#000095"/>
<path d="M21 28.6366C23.9059 28.6366 26.2616 26.2809 26.2616 23.3749C26.2616 20.469 23.9059 18.1133 21 18.1133C18.094 18.1133 15.7383 20.469 15.7383 23.3749C15.7383 26.2809 18.094 28.6366 21 28.6366Z" fill="white"/>
</g>
<defs>
<clipPath id="clip0_1_75073">
<rect width="74.6667" height="56" fill="white" transform="translate(0 9.375)"/>
</clipPath>
</defs>
</svg>
