<svg width="75" height="75" viewBox="0 0 75 75" fill="none" xmlns="http://www.w3.org/2000/svg">
<rect width="74.6667" height="74.75" fill="white"/>
<g clip-path="url(#clip0_1_75258)">
<path fill-rule="evenodd" clip-rule="evenodd" d="M-4.66667 46.7156H79.3333V56.0453H-4.66667V46.7156Z" fill="#FFE700"/>
<path fill-rule="evenodd" clip-rule="evenodd" d="M-4.66667 37.375H79.3333V46.7047H-4.66667V37.375Z" fill="black"/>
<path fill-rule="evenodd" clip-rule="evenodd" d="M-4.66667 28.0454H79.3333V37.3751H-4.66667V28.0454Z" fill="#DE3908"/>
<path fill-rule="evenodd" clip-rule="evenodd" d="M-4.66667 18.7156H79.3333V28.0453H-4.66667V18.7156Z" fill="#FFE700"/>
<path fill-rule="evenodd" clip-rule="evenodd" d="M-4.66671 9.375H79.3333V18.7047H-4.66671V9.375Z" fill="black"/>
<path fill-rule="evenodd" clip-rule="evenodd" d="M46.0505 37.3749C46.0505 39.6868 45.1321 41.9041 43.4973 43.5389C41.8625 45.1737 39.6453 46.0921 37.3333 46.0921C35.0214 46.0921 32.8041 45.1737 31.1694 43.5389C29.5346 41.9041 28.6161 39.6868 28.6161 37.3749C28.6161 35.063 29.5346 32.8457 31.1694 31.2109C32.8041 29.5761 35.0214 28.6577 37.3333 28.6577C39.6453 28.6577 41.8625 29.5761 43.4973 31.2109C45.1321 32.8457 46.0505 35.063 46.0505 37.3749Z" fill="#FFFDFF" stroke="black" stroke-width="0.109375"/>
<path fill-rule="evenodd" clip-rule="evenodd" d="M35.8021 30.6921L35.2333 29.653C35.4521 29.4343 35.813 29.2593 36.4036 29.2593L36.338 30.4077L35.7911 30.6921H35.8021Z" fill="#DE3108" stroke="black" stroke-width="0.109375"/>
<path fill-rule="evenodd" clip-rule="evenodd" d="M36.349 30.4079L36.4255 29.2595C36.4255 29.2595 37.5958 29.1938 38.2302 29.9595L37.6068 30.8563L36.338 30.4188L36.349 30.4079Z" fill="#FFE700" stroke="black" stroke-width="0.109375"/>
<path fill-rule="evenodd" clip-rule="evenodd" d="M37.6177 30.8454L38.1974 29.9485C38.5802 30.3532 38.7443 30.6375 38.799 31.075C38.8099 31.086 37.8911 31.3047 37.8911 31.2938L37.6177 30.8454Z" fill="#DE3108" stroke="black" stroke-width="0.109375"/>
<path fill-rule="evenodd" clip-rule="evenodd" d="M36.0865 45.589C36.0865 45.589 37.1693 44.353 39.2693 44.6155C38.9521 44.1015 37.924 44.1671 37.924 44.1671C37.924 44.1671 37.6177 41.7608 37.8583 41.6296C38.099 41.4983 39.1708 41.6405 39.1708 41.6405C39.3021 41.6405 39.5427 41.2686 39.3458 41.028C39.1599 40.7874 38.6021 39.8796 38.8318 39.6937C39.0615 39.5187 40.2974 39.803 40.2974 39.803L36.7974 35.3186C36.7974 35.3186 36.4365 33.6233 37.1583 32.803C38.0224 32.0921 37.924 31.3155 37.9021 31.3265C37.7818 30.539 36.5896 29.9811 35.7802 30.703C35.3099 31.2718 35.6271 31.7093 35.6271 31.7093C35.6271 31.7093 34.3693 32.0483 34.3255 32.2671C34.2708 32.4858 35.7365 32.2343 35.7365 32.2343L35.5943 33.2296C35.5943 33.2296 32.7505 35.8108 34.938 38.0421L35.0036 37.9546C35.0036 37.9546 35.7693 38.8952 36.5677 39.103C37.3333 39.8686 37.2568 39.7593 37.2568 39.7593C37.2568 39.7593 37.399 40.9733 37.2568 41.214C37.0708 41.1593 35.1458 41.0827 34.8615 41.1921C34.599 41.2796 33.6146 41.2249 33.8552 42.8436L34.2161 42.0233C34.2161 42.0233 34.1833 42.603 34.424 42.8108C34.3802 42.1983 34.6536 41.7827 34.6536 41.7827C34.6536 41.7827 34.6974 42.4608 34.8505 42.5483C35.0036 42.6577 35.0036 41.4546 35.8349 41.564C36.6443 41.6624 37.2458 41.6296 37.2458 41.6296C37.2458 41.6296 37.5193 43.9702 37.4318 44.189C36.8411 44.0468 35.4193 44.2436 35.3318 44.6046C36.163 44.5499 36.5458 44.6483 36.5458 44.6483C36.5458 44.6483 35.8786 45.2499 36.0865 45.589Z" fill="black" stroke="black" stroke-width="0.0984375" stroke-linecap="round" stroke-linejoin="round"/>
<path fill-rule="evenodd" clip-rule="evenodd" d="M36.4146 32.8688C36.4146 32.8688 34.3474 35.1438 35.2443 36.8829C35.288 36.6423 35.2661 36.4892 35.299 36.5001C35.2443 36.4673 35.5505 36.7079 35.5286 36.6642C35.5286 36.5329 35.4411 36.2595 35.4411 36.2595L35.7146 36.336L35.5505 36.0298L35.9552 36.0735C35.9552 36.0735 35.813 35.7017 35.8568 35.7017L36.1849 35.7235C35.5943 34.6735 36.1521 33.7985 36.4146 32.8579V32.8688Z" fill="#9CA69C" stroke="#9CA69C" stroke-width="0.0984375" stroke-linecap="round" stroke-linejoin="round"/>
<path fill-rule="evenodd" clip-rule="evenodd" d="M37.1364 30.9109C37.1364 30.9109 37.2458 31.6984 36.8083 31.9171C36.7536 31.9718 36.4802 32.0593 36.5239 32.2234C36.5677 32.4421 36.688 32.3984 36.8521 32.3546C37.3005 32.2781 37.8255 31.3265 37.1364 30.9109Z" fill="#9CA69C" stroke="#9CA69C" stroke-width="0.109375"/>
<path fill-rule="evenodd" clip-rule="evenodd" d="M36.3708 31.5781C36.3708 31.6216 36.3536 31.6634 36.3228 31.6941C36.292 31.7249 36.2503 31.7422 36.2068 31.7422C36.1633 31.7422 36.1215 31.7249 36.0908 31.6941C36.06 31.6634 36.0427 31.6216 36.0427 31.5781C36.0427 31.5346 36.06 31.4929 36.0908 31.4621C36.1215 31.4313 36.1633 31.4141 36.2068 31.4141C36.2503 31.4141 36.292 31.4313 36.3228 31.4621C36.3536 31.4929 36.3708 31.5346 36.3708 31.5781Z" fill="white"/>
<path fill-rule="evenodd" clip-rule="evenodd" d="M35.7036 32.2344C35.5943 32.3328 35.0255 32.9234 35.5943 33.1422C36.1739 32.9891 36.0099 32.8797 36.1411 32.7484C36.1411 32.475 35.8568 32.4094 35.7036 32.2453V32.2344Z" fill="#DE3108" stroke="black" stroke-width="0.109375"/>
<path fill-rule="evenodd" clip-rule="evenodd" d="M36.9615 37.8672C36.9287 37.9984 36.7974 38.4797 36.9724 38.8516C37.4755 38.6328 37.7052 38.6984 37.8693 38.8078C37.4646 38.4797 37.3005 38.3375 36.9615 37.8672Z" fill="#9CA69C" stroke="#9CA69C" stroke-width="0.0984375" stroke-linecap="round" stroke-linejoin="round"/>
<path fill-rule="evenodd" clip-rule="evenodd" d="M37.8146 40.1204L37.8365 41.236C37.8365 41.236 38.2302 41.3016 38.4052 41.236C38.5802 41.1704 38.4052 40.4704 37.8146 40.1204Z" fill="white" stroke="white" stroke-width="0.0984375" stroke-linecap="round" stroke-linejoin="round"/>
<path fill-rule="evenodd" clip-rule="evenodd" d="M40.6146 40.2625C40.6146 40.2625 39.9036 38.5343 38.0771 38.0968C36.2505 37.6593 36.4911 35.7125 36.6333 35.5921C36.7208 35.4281 36.7755 35.1656 37.3005 35.4171C37.8255 35.6687 40.2536 36.8828 40.6036 36.9484C40.9536 37.014 40.6474 40.3062 40.6255 40.2625H40.6146Z" fill="#9CA69C" stroke="black" stroke-width="0.109375"/>
<path fill-rule="evenodd" clip-rule="evenodd" d="M38.8865 38.0858C38.8536 38.1077 41.3255 39.5515 40.5818 40.7874C41.2818 40.3171 41.063 39.5077 41.063 39.5077C41.063 39.5077 41.6318 41.0062 40.2318 41.739C40.3849 41.8702 40.4833 41.8483 40.4833 41.8483L40.2427 42.078C40.2427 42.078 40.1333 42.264 41.074 41.8046C40.8224 42.0124 40.8005 42.1655 40.8005 42.1655C40.8005 42.1655 40.8661 42.3624 41.4786 41.8265C40.9865 42.3624 40.8771 42.6358 40.8771 42.6249C42.2224 42.5155 45.1427 38.1405 39.9583 36.8608L40.188 37.1015L38.8755 38.0858H38.8865Z" fill="#DE3108" stroke="black" stroke-width="0.0984375" stroke-linejoin="round"/>
<path fill-rule="evenodd" clip-rule="evenodd" d="M38.9958 37.6594C39.324 37.9 39.4443 37.9875 39.488 38.0969C39.1818 38.0312 38.9083 38.0531 38.9083 38.0531C38.9083 38.0531 38.2412 37.4187 38.1208 37.3641C38.0333 37.3641 37.5083 37.0359 37.5083 37.0359C37.2568 36.9047 37.0161 36.0187 37.9677 36.2703C38.3327 36.4607 38.7089 36.6287 39.0943 36.7734L40.2646 37.1453L40.9427 37.9C40.9427 37.9 39.7396 37.3094 39.5865 37.2984C39.9146 37.5609 40.1005 37.9328 40.1005 37.9328C39.7177 37.8234 39.3896 37.7141 38.9958 37.6594Z" fill="white" stroke="black" stroke-width="0.0984375" stroke-linecap="round" stroke-linejoin="round"/>
<path d="M34.3146 32.3328C34.3146 32.3328 35.463 32.0485 35.6052 32.0922" stroke="white" stroke-width="0.0984375" stroke-linecap="round"/>
<path fill-rule="evenodd" clip-rule="evenodd" d="M-4.66667 56.0454H79.3333V65.3751H-4.66667V56.0454Z" fill="#DE3908"/>
</g>
<defs>
<clipPath id="clip0_1_75258">
<rect width="74.6667" height="56" fill="white" transform="translate(0 9.375)"/>
</clipPath>
</defs>
</svg>
