<svg width="75" height="75" viewBox="0 0 75 75" fill="none" xmlns="http://www.w3.org/2000/svg">
<rect width="74.6667" height="74.75" fill="white"/>
<g clip-path="url(#clip0_1_75124)">
<path fill-rule="evenodd" clip-rule="evenodd" d="M0 9.375H106.4V13.6844H0V9.375ZM0 17.9938H106.4V22.3031H0V17.9938ZM0 26.6016H106.4V30.9219H0V26.6016ZM0 35.2203H106.4V39.5297H0V35.2203ZM0 43.8391H106.4V48.1484H0V43.8391ZM0 52.4469H106.4V56.7563H0V52.4469ZM0 61.0656H106.4V65.375H0V61.0656Z" fill="#BD3D44"/>
<path fill-rule="evenodd" clip-rule="evenodd" d="M0 13.6843H106.4V17.9937H0V13.6843ZM0 22.3031H106.4V26.6015H0V22.3031ZM0 30.9109H106.4V35.2203H0V30.9109ZM0 39.5296H106.4V43.839H0V39.5296ZM0 48.1484H106.4V52.4578H0V48.1484ZM0 56.7562H106.4V61.0656H0V56.7562Z" fill="white"/>
<path fill-rule="evenodd" clip-rule="evenodd" d="M0 9.375H42.5578V39.5297H0V9.375Z" fill="#192F5D"/>
<path fill-rule="evenodd" clip-rule="evenodd" d="M3.54375 10.6655L3.9375 11.8577H5.18437L4.17812 12.5905L4.56093 13.7937L3.54375 13.0499L2.5375 13.7827L2.92031 12.5905L1.90312 11.8577H3.17187L3.54375 10.6655ZM10.6422 10.6655L11.025 11.8577H12.2828L11.2656 12.5905L11.6484 13.7937L10.6422 13.0499L9.625 13.7827L10.0078 12.5905L9.00156 11.8577H10.2484L10.6422 10.6655ZM17.7297 10.6655L18.1234 11.8577H19.3594L18.3531 12.5905L18.7359 13.7937L17.7187 13.0499L16.7125 13.7827L17.0953 12.5905L16.0781 11.8577H17.3359L17.7297 10.6655ZM24.8281 10.6655L25.2109 11.8577H26.4688L25.4516 12.5905L25.8453 13.7937L24.8281 13.0499L23.8109 13.7827L24.2047 12.5905L23.1875 11.8577H24.4344L24.8281 10.6655ZM31.9156 10.6655L32.3094 11.8577H33.5562L32.55 12.5905L32.9328 13.7937L31.9156 13.0499L30.9094 13.7827L31.2922 12.5905L30.2859 11.8577H31.5328L31.9156 10.6655ZM39.0141 10.6655L39.3969 11.8577H40.6547L39.6375 12.5905L40.0312 13.7937L39.0141 13.0499L37.9969 13.7827L38.3906 12.5905L37.3734 11.8577H38.6313L39.0141 10.6655ZM7.09843 13.6843L7.48125 14.8765H8.73906L7.72187 15.6093L8.09375 16.8015L7.10937 16.0687L6.09219 16.8015L6.45312 15.6093L5.46875 14.8765H6.71562L7.09843 13.6843ZM14.1859 13.6843L14.5797 14.8765H15.8266L14.8094 15.6093L15.2031 16.8015L14.1859 16.0687L13.1687 16.8015L13.5625 15.6093L12.5453 14.8765H13.8031L14.1859 13.6843ZM21.2844 13.6843L21.6672 14.8765H22.925L21.9078 15.6093L22.2906 16.8015L21.2844 16.0687L20.2672 16.8015L20.65 15.6093L19.6437 14.8765H20.8906L21.2844 13.6843ZM28.3719 13.6843L28.7656 14.8765H30.0125L28.9953 15.6093L29.3891 16.8015L28.3719 16.0687L27.3656 16.8015L27.7484 15.6093L26.7312 14.8765H28L28.3719 13.6843ZM35.4703 13.6843L35.8531 14.8765H37.1109L36.0938 15.6093L36.4766 16.8015L35.4703 16.0687L34.4531 16.8015L34.8359 15.6093L33.8297 14.8765H35.0766L35.4703 13.6843ZM3.54375 16.6921L3.9375 17.9062H5.18437L4.17812 18.639L4.56093 19.8312L3.54375 19.0874L2.5375 19.8312L2.92031 18.628L1.90312 17.8952H3.17187L3.54375 16.6921ZM10.6422 16.6921L11.025 17.8952H12.2828L11.2656 18.628L11.6484 19.8202L10.6422 19.0765L9.625 19.8202L10.0078 18.6171L9.00156 17.8843H10.2484L10.6422 16.6921ZM17.7297 16.6921L18.1234 17.8952H19.3594L18.3531 18.628L18.7359 19.8202L17.7187 19.0765L16.7125 19.8202L17.0953 18.6171L16.0781 17.8843H17.3359L17.7297 16.6921ZM24.8281 16.6921L25.2109 17.8952H26.4688L25.4516 18.628L25.8453 19.8202L24.8281 19.0765L23.8109 19.8202L24.2047 18.6171L23.1875 17.8843H24.4344L24.8281 16.6921ZM31.9156 16.6921L32.3094 17.8952H33.5562L32.55 18.628L32.9328 19.8202L31.9156 19.0765L30.9094 19.8202L31.2922 18.6171L30.2859 17.8843H31.5328L31.9156 16.6921ZM39.0141 16.6921L39.3969 17.8952H40.6547L39.6375 18.628L40.0312 19.8202L39.0141 19.0765L37.9969 19.8202L38.3906 18.6171L37.3734 17.8843H38.6313L39.0141 16.6921ZM7.09843 19.7108L7.48125 20.903H8.73906L7.72187 21.6358L8.10468 22.839L7.09843 22.0952L6.08125 22.828L6.46406 21.6358L5.45781 20.903H6.70468L7.09843 19.7108ZM14.1859 19.7108L14.5797 20.903H15.8266L14.8094 21.6358L15.2031 22.839L14.1859 22.0952L13.1687 22.828L13.5625 21.6358L12.5453 20.903H13.8031L14.1859 19.7108ZM21.2844 19.7108L21.6672 20.903H22.925L21.9078 21.6358L22.2906 22.839L21.2844 22.0952L20.2672 22.828L20.65 21.6358L19.6437 20.903H20.8906L21.2844 19.7108ZM28.3719 19.7108L28.7656 20.903H30.0125L29.0063 21.6358L29.3891 22.839L28.3719 22.0952L27.3656 22.828L27.7484 21.6358L26.7312 20.903H28L28.3719 19.7108ZM35.4703 19.7108L35.8531 20.903H37.1109L36.0938 21.6358L36.4766 22.839L35.4703 22.0952L34.4531 22.828L34.8359 21.6358L33.8297 20.903H35.0766L35.4703 19.7108ZM3.54375 22.7296L3.9375 23.9218H5.18437L4.17812 24.6546L4.56093 25.8577L3.54375 25.114L2.5375 25.8468L2.92031 24.6546L1.90312 23.9218H3.17187L3.54375 22.7296ZM10.6422 22.7296L11.025 23.9218H12.2828L11.2656 24.6546L11.6484 25.8468L10.6422 25.114L9.625 25.8468L10.0078 24.6546L9.00156 23.9218H10.2484L10.6422 22.7296ZM17.7297 22.7296L18.1234 23.9218H19.3594L18.3531 24.6546L18.7359 25.8577L17.7187 25.114L16.7125 25.8468L17.0953 24.6546L16.0781 23.9218H17.3359L17.7297 22.7296ZM24.8281 22.7296L25.2109 23.9218H26.4688L25.4516 24.6546L25.8453 25.8577L24.8281 25.114L23.8109 25.8468L24.2047 24.6546L23.1875 23.9218H24.4344L24.8281 22.7296ZM31.9156 22.7296L32.3094 23.9218H33.5562L32.55 24.6546L32.9328 25.8577L31.9156 25.114L30.9094 25.8468L31.2922 24.6546L30.2859 23.9218H31.5328L31.9156 22.7296ZM39.0141 22.7296L39.3969 23.9218H40.6547L39.6375 24.6546L40.0312 25.8577L39.0141 25.114L37.9969 25.8468L38.3906 24.6546L37.3734 23.9218H38.6313L39.0141 22.7296ZM7.09843 25.7483L7.48125 26.9405H8.73906L7.72187 27.6733L8.10468 28.8655L7.09843 28.1218L6.08125 28.8655L6.46406 27.6624L5.45781 26.9296H6.70468L7.09843 25.7483ZM14.1859 25.7483L14.5797 26.9405H15.8266L14.8094 27.6733L15.2031 28.8655L14.1859 28.1218L13.1687 28.8655L13.5625 27.6624L12.5453 26.9296H13.8031L14.1859 25.7483ZM21.2844 25.7483L21.6672 26.9405H22.925L21.9078 27.6733L22.2906 28.8655L21.2844 28.1218L20.2672 28.8655L20.65 27.6624L19.6437 26.9296H20.8906L21.2844 25.7483ZM28.3719 25.7483L28.7656 26.9405H30.0125L29.0063 27.6733L29.3891 28.8655L28.3719 28.1218L27.3656 28.8655L27.7484 27.6624L26.7312 26.9296H28L28.3719 25.7483ZM35.4703 25.7483L35.8531 26.9405H37.1109L36.0938 27.6733L36.4766 28.8655L35.4703 28.1218L34.4531 28.8655L34.8359 27.6624L33.8297 26.9296H35.0766L35.4703 25.7483ZM3.54375 28.7562L3.9375 29.9593H5.18437L4.17812 30.6921L4.56093 31.8733L3.54375 31.1405L2.5375 31.8733L2.92031 30.6812L1.90312 29.9483H3.17187L3.54375 28.7562ZM10.6422 28.7562L11.025 29.9593H12.2828L11.2656 30.6921L11.6594 31.8733L10.6422 31.1405L9.625 31.8733L10.0187 30.6812L9.00156 29.9483H10.2484L10.6422 28.7562ZM17.7297 28.7562L18.1234 29.9593H19.3594L18.3531 30.6921L18.7359 31.8733L17.7187 31.1405L16.7125 31.8733L17.0953 30.6812L16.0781 29.9483H17.3359L17.7297 28.7562ZM24.8281 28.7562L25.2109 29.9593H26.4688L25.4516 30.6921L25.8453 31.8733L24.8281 31.1405L23.8109 31.8733L24.2047 30.6812L23.1875 29.9483H24.4344L24.8281 28.7562ZM31.9156 28.7562L32.3094 29.9593H33.5562L32.55 30.6921L32.9328 31.8733L31.9156 31.1405L30.9094 31.8733L31.2922 30.6812L30.2859 29.9483H31.5328L31.9156 28.7562ZM39.0141 28.7562L39.3969 29.9593H40.6547L39.6375 30.6921L40.0312 31.8733L39.0141 31.1405L37.9969 31.8733L38.3906 30.6812L37.3734 29.9483H38.6313L39.0141 28.7562ZM7.09843 31.7749L7.48125 32.9671H8.73906L7.72187 33.6999L8.10468 34.903L7.09843 34.1593L6.08125 34.8921L6.46406 33.6999L5.45781 32.9671H6.70468L7.09843 31.7749ZM14.1859 31.7749L14.5797 32.9671H15.8266L14.8094 33.6999L15.2031 34.903L14.1859 34.1593L13.1687 34.8921L13.5625 33.6999L12.5453 32.9671H13.8031L14.1859 31.7749ZM21.2844 31.7749L21.6672 32.9671H22.925L21.9078 33.6999L22.2906 34.903L21.2844 34.1593L20.2672 34.8921L20.65 33.6999L19.6437 32.9671H20.8906L21.2844 31.7749ZM28.3719 31.7749L28.7656 32.9671H30.0125L29.0063 33.6999L29.3891 34.903L28.3719 34.1593L27.3656 34.8921L27.7484 33.6999L26.7312 32.9671H28L28.3719 31.7749ZM35.4703 31.7749L35.8531 32.9671H37.1109L36.0938 33.6999L36.4766 34.903L35.4703 34.1593L34.4531 34.8921L34.8359 33.6999L33.8297 32.9671H35.0766L35.4703 31.7749ZM3.54375 34.7936L3.9375 35.9858H5.18437L4.17812 36.7187L4.56093 37.9108L3.54375 37.178L2.5375 37.9108L2.92031 36.7077L1.90312 35.9749H3.17187L3.54375 34.7936ZM10.6422 34.7936L11.025 35.9858H12.2828L11.2656 36.7187L11.6594 37.9108L10.6422 37.178L9.625 37.9108L10.0187 36.7077L9.00156 35.9749H10.2484L10.6422 34.7936ZM17.7297 34.7936L18.1234 35.9858H19.3594L18.375 36.7187L18.7578 37.9108L17.7406 37.178L16.7344 37.9108L17.1172 36.7077L16.1 35.9749H17.3578L17.7297 34.7936ZM24.8281 34.7936L25.2109 35.9858H26.4688L25.4516 36.7187L25.8453 37.9108L24.8281 37.178L23.8109 37.9108L24.2047 36.7077L23.1875 35.9749H24.4344L24.8281 34.7936ZM31.9156 34.7936L32.3094 35.9858H33.5562L32.55 36.7187L32.9328 37.9108L31.9156 37.178L30.9094 37.9108L31.2922 36.7077L30.2859 35.9749H31.5328L31.9156 34.7936ZM39.0141 34.7936L39.3969 35.9858H40.6547L39.6375 36.7187L40.0312 37.9108L39.0141 37.178L37.9969 37.9108L38.3906 36.7077L37.3734 35.9749H38.6313L39.0141 34.7936Z" fill="white"/>
</g>
<defs>
<clipPath id="clip0_1_75124">
<rect width="74.6667" height="56" fill="white" transform="translate(0 9.375)"/>
</clipPath>
</defs>
</svg>
