<svg width="75" height="75" viewBox="0 0 75 75" fill="none" xmlns="http://www.w3.org/2000/svg">
<rect width="74.6667" height="74.75" fill="white"/>
<g clip-path="url(#clip0_1_75266)">
<path fill-rule="evenodd" clip-rule="evenodd" d="M0 9.375H74.6667V65.375H0V9.375Z" fill="#4B92DB"/>
<path d="M41.7363 50.4651C41.5332 50.6854 41.3106 50.8869 41.0713 51.0671C39.5873 49.5271 37.8373 47.8331 36.1783 47.8331C35.1493 47.8331 34.4143 48.6171 33.5463 49.1631C32.3493 49.9331 30.7043 50.3671 29.2973 49.8001C28.5015 49.5276 27.7949 49.0436 27.2533 48.4001C27.849 48.7717 28.5243 48.9972 29.2238 49.058C29.9233 49.1188 30.6273 49.0133 31.2783 48.7501C32.6573 48.1761 34.0713 47.4131 35.6463 47.4131C37.9703 47.4131 40.1823 48.9881 41.7363 50.4651ZM24.5443 45.6351C26.0843 47.3851 28.5973 46.8251 30.6483 47.2591C30.9353 47.3291 31.2083 47.4201 31.5163 47.3711C31.2713 47.2171 30.9423 47.1961 30.6623 47.0911C29.0663 46.4891 28.8213 44.7811 27.9463 43.6121C29.0663 44.3541 29.9833 45.3621 31.0263 46.3211C31.7615 46.9291 32.6507 47.3216 33.5953 47.4551C33.3713 47.5391 33.0773 47.5251 32.8253 47.5811C31.1453 48.0011 29.2833 48.6591 27.4913 48.0711C26.2416 47.6544 25.1929 46.7855 24.5513 45.6351H24.5443ZM22.0803 41.5751C23.0393 43.7521 25.4543 43.9271 27.0503 45.2571C27.3365 45.5113 27.6541 45.7277 27.9953 45.9011L28.0163 45.8871C27.6216 45.5431 27.2671 45.1556 26.9593 44.7321C26.0423 43.4021 26.3433 41.5821 25.6363 40.1681C26.293 40.8981 26.8379 41.7214 27.2533 42.6111C27.8483 44.0251 28.0513 45.6421 29.3883 46.7201C27.9393 46.2441 26.2733 46.3351 24.9783 45.4881C23.6063 44.5921 22.3393 43.1781 22.0803 41.5821V41.5751ZM21.0513 37.1791C21.1913 39.0971 23.2213 40.1191 24.2013 41.6941C24.4113 42.0301 24.6213 42.3801 24.9223 42.6461C24.8733 42.4431 24.7123 42.2611 24.6143 42.0651C24.2929 41.3575 24.1649 40.5773 24.2433 39.8041C24.3343 38.8241 24.7403 37.9141 24.5863 36.8851C25.4263 38.6981 25.1533 40.9591 25.6363 42.9121C25.7483 43.3461 26.0073 43.7241 26.1683 44.1371C25.3493 43.5071 24.2713 42.9471 23.3683 42.2471C22.468 41.5999 21.7652 40.7154 21.3383 39.6921C21.0634 38.8847 20.9655 38.0277 21.0513 37.1791ZM21.1073 33.6511C21.2053 33.2241 21.2823 32.7831 21.4643 32.3911C21.1143 34.1971 22.3183 35.4991 22.7243 37.0671C22.8783 37.6551 22.9343 38.2781 23.1723 38.8311C23.1933 38.8381 23.2143 38.8171 23.2283 38.8031C22.6333 37.1371 23.5083 35.5971 24.3483 34.2881C24.5541 33.929 24.7006 33.5389 24.7823 33.1331C24.8733 33.8891 24.7123 34.7571 24.5723 35.5341C24.3973 36.5351 24.0543 37.4731 23.7813 38.4391C23.6334 39.0687 23.6215 39.7226 23.7463 40.3571L23.6553 40.2871C23.0253 39.1251 21.7793 38.2151 21.4083 36.9411C21.0536 35.8827 20.9506 34.7563 21.1073 33.6511ZM21.7723 31.7051C21.7951 30.4193 22.2655 29.1816 23.1023 28.2051C23.1233 28.1911 23.1443 28.1701 23.1723 28.1771C22.2903 29.5071 23.0953 31.2011 22.9763 32.7201L22.8643 34.2741C22.8783 34.2881 22.8783 34.3371 22.9203 34.3161C22.9763 34.1411 22.9903 33.9591 23.0183 33.7771C23.2283 32.5171 24.3343 31.6491 25.2653 30.7671C25.4806 30.5638 25.648 30.3151 25.7553 30.0391C25.6783 30.6691 25.5033 31.3061 25.2233 31.8731C24.5023 33.3291 23.1163 34.5051 22.8643 36.1641C22.7453 34.5751 21.7723 33.3921 21.7723 31.7051ZM24.0823 27.0921C24.4847 26.6083 25.0201 26.253 25.6223 26.0701C24.4673 26.8611 24.5303 28.2681 24.1803 29.4441C24.0543 29.8711 23.8653 30.2771 23.7603 30.7181L23.7953 30.7461C24.0016 30.2167 24.3246 29.7405 24.7403 29.3531C25.5453 28.5971 26.7563 28.1351 27.1553 27.0221C27.1343 28.5691 25.8183 29.7451 24.6143 30.6551C24.0783 31.0595 23.6424 31.5816 23.3403 32.1811C23.3823 31.7611 23.4103 31.3971 23.3683 30.9841C23.2423 29.6331 23.1583 28.1141 24.0893 27.0921H24.0823ZM28.7373 24.4951C27.8903 25.2441 27.3233 26.2031 26.6653 27.0641C26.1263 27.7851 25.3773 28.2261 24.7403 28.8281C25.0903 28.1141 25.1463 27.2881 25.5873 26.5951C26.3363 25.4051 27.5823 24.9431 28.7373 24.4951Z" fill="white"/>
<path d="M47.7166 39.9416L47.4716 39.8016C46.9394 40.8953 46.2342 41.8959 45.3833 42.7649L43.9249 41.2949C44.6298 40.5669 45.2093 39.7272 45.6399 38.8099L45.3949 38.6699C44.9735 39.5664 44.4057 40.3865 43.7149 41.0966L42.3849 39.7666C42.948 39.1848 43.4059 38.5098 43.7383 37.7716L43.4933 37.6316C43.1733 38.348 42.7311 39.0033 42.1866 39.5682L40.7283 38.1099C41.1293 37.6831 41.446 37.1844 41.6616 36.6399L41.4166 36.4999C41.2127 37.0187 40.9117 37.4938 40.5299 37.8999L39.1883 36.5699C39.5649 36.1509 39.7871 35.6158 39.8183 35.0532H41.7083C41.6941 35.5485 41.5955 36.0378 41.4166 36.4999L41.6616 36.6399C41.8626 36.1342 41.9732 35.5972 41.9883 35.0532H44.0649C44.0437 35.9429 43.8454 36.8194 43.4816 37.6316L43.7383 37.7716C44.1205 36.9152 44.3268 35.9908 44.3449 35.0532H46.2349C46.214 36.3046 45.9277 37.5374 45.3949 38.6699L45.6399 38.8099C46.1916 37.6333 46.486 36.3526 46.5033 35.0532H48.5916C48.5721 36.6991 48.1897 38.3204 47.4716 39.8016L47.7166 39.9416C48.48 38.3792 48.8789 36.6639 48.8833 34.9249C48.8847 33.4415 48.5994 31.9718 48.0433 30.5966L47.7866 30.7132C48.3095 32.0079 48.5864 33.3887 48.6033 34.7849H46.5149C46.5024 33.666 46.2849 32.5588 45.8733 31.5182L45.6166 31.6349C46.0166 32.6378 46.2301 33.7053 46.2466 34.7849H44.3333C44.3201 33.9626 44.1621 33.149 43.8666 32.3816L43.6099 32.4982C43.8897 33.2288 44.0397 34.0027 44.0533 34.7849H41.9999C41.9865 34.283 41.8919 33.7866 41.7199 33.3149L41.4633 33.4316C41.6197 33.8663 41.7064 34.3231 41.7199 34.7849H39.8299C39.7988 34.2223 39.5765 33.6873 39.1999 33.2682L40.5416 31.9266C40.947 32.3566 41.2606 32.8647 41.4633 33.4199L41.7199 33.3149C41.5042 32.725 41.1708 32.1852 40.7399 31.7282L42.2099 30.2582C42.8288 30.9027 43.3127 31.6642 43.6333 32.4982L43.8899 32.3816C43.5515 31.5161 43.0438 30.7268 42.3966 30.0599L43.7383 28.7299C44.5503 29.569 45.1886 30.5601 45.6166 31.6466L45.8733 31.5299C45.4271 30.4121 44.7651 29.3933 43.9249 28.5316L45.3949 27.0616C46.4235 28.1105 47.236 29.3512 47.7866 30.7132L48.0433 30.5966C47.4612 29.1631 46.5962 27.8616 45.4999 26.7699C44.4026 25.6666 43.0929 24.7974 41.6499 24.2149L41.5566 24.4832C42.9177 25.0303 44.1583 25.8389 45.2083 26.8632L43.7383 28.3332C42.8907 27.512 41.8924 26.8623 40.7983 26.4199L40.6816 26.6766C41.7463 27.1078 42.7171 27.7417 43.5399 28.5432L42.2099 29.8732C41.5698 29.2544 40.8174 28.7634 39.9933 28.4266L39.8999 28.6832C40.6802 29.0061 41.3926 29.4731 41.9999 30.0599L40.5416 31.5299C40.1337 31.1445 39.6594 30.8361 39.1416 30.6199L39.0366 30.8882C39.5189 31.0878 39.9614 31.3723 40.3433 31.7282L38.9899 33.0582C38.5709 32.6816 38.0358 32.4594 37.4733 32.4282V30.5382C38.0068 30.5551 38.5328 30.6698 39.0249 30.8766L39.1299 30.6199C38.6046 30.3987 38.043 30.2761 37.4733 30.2582V28.1816C38.3016 28.1946 39.1203 28.3608 39.8883 28.6716L39.9933 28.4149C39.1922 28.0896 38.3378 27.9156 37.4733 27.9016V26.0116C38.574 26.0286 39.6619 26.2501 40.6816 26.6649L40.7749 26.4082C39.7249 25.9844 38.6055 25.7589 37.4733 25.7432V23.6549C38.8694 23.6717 40.2502 23.9487 41.5449 24.4716L41.6383 24.2032C40.2688 23.658 38.8073 23.3807 37.3333 23.3866C35.5432 23.383 33.7772 23.7986 32.1766 24.5999L32.2933 24.8332C33.8168 24.0773 35.4925 23.6784 37.1933 23.6666V25.7432C35.8285 25.7598 34.4848 26.0827 33.2616 26.6882L33.3899 26.9216C34.574 26.3386 35.8735 26.0277 37.1933 26.0116V27.9016C36.1817 27.9203 35.1864 28.1592 34.2766 28.6016L34.3933 28.8466C35.2675 28.4249 36.2228 28.1981 37.1933 28.1816V30.2582C36.5588 30.2789 35.9353 30.4298 35.3616 30.7016L35.4783 30.9349C36.017 30.6875 36.6006 30.5526 37.1933 30.5382V32.4282C36.9124 32.4438 36.6363 32.5069 36.3766 32.6149L36.4933 32.8482C36.7608 32.7437 37.0461 32.6922 37.3333 32.6966C37.6232 32.6955 37.9106 32.7516 38.1788 32.8617C38.4471 32.9718 38.691 33.1337 38.8966 33.3382C39.106 33.5456 39.2717 33.7929 39.3839 34.0654C39.4961 34.3379 39.5526 34.6302 39.5499 34.9249C39.5499 35.5128 39.3164 36.0766 38.9007 36.4923C38.485 36.908 37.9212 37.1416 37.3333 37.1416C37.0425 37.1411 36.7546 37.0832 36.4863 36.9711C36.218 36.8589 35.9746 36.6948 35.7699 36.4882C35.5633 36.2836 35.3992 36.0401 35.2871 35.7718C35.175 35.5035 35.117 35.2157 35.1166 34.9249C35.1155 34.6321 35.1727 34.3421 35.2849 34.0717C35.397 33.8013 35.5619 33.5559 35.7699 33.3499C35.9772 33.1444 36.223 32.9818 36.4933 32.8716L36.3649 32.6266C36.1085 32.7343 35.8719 32.8842 35.6649 33.0699L34.3349 31.7282C34.6756 31.4076 35.0656 31.1437 35.4899 30.9466L35.3616 30.7132C34.9126 30.9189 34.4991 31.1946 34.1366 31.5299L32.6666 30.0599C33.1757 29.5715 33.7584 29.166 34.3933 28.8582L34.2766 28.6249C33.6164 28.9449 33.0102 29.3661 32.4799 29.8732L31.1383 28.5082C31.8019 27.8657 32.5616 27.3304 33.3899 26.9216L33.2733 26.6882C32.4155 27.1085 31.6284 27.6595 30.9399 28.3216L29.4699 26.8399C30.3056 26.0285 31.2619 25.3516 32.3049 24.8332L32.1766 24.5882C29.9244 25.7206 28.1021 27.5552 26.9849 29.8149L27.2183 29.9316C27.7456 28.8648 28.4387 27.8882 29.2716 27.0382L30.7533 28.5199C30.0634 29.2289 29.4922 30.0443 29.0616 30.9349L29.2949 31.0632C29.712 30.1938 30.2676 29.3978 30.9399 28.7066L32.2816 30.0366C31.7381 30.6004 31.2925 31.251 30.9633 31.9616L31.1966 32.0899C31.5168 31.4037 31.9507 30.7765 32.4799 30.2349L33.9499 31.7049C33.5672 32.1061 33.2591 32.5723 33.0399 33.0816L33.2849 33.2216C33.4868 32.7343 33.7753 32.2876 34.1366 31.9032L35.4783 33.2332C35.1 33.6559 34.8777 34.1952 34.8483 34.7616H32.9583C32.9731 34.2327 33.0838 33.7109 33.2849 33.2216L33.0516 33.0816C32.8233 33.6133 32.6967 34.1832 32.6783 34.7616H30.6016C30.6179 33.8388 30.8244 32.9292 31.2083 32.0899L30.9749 31.9732C30.5663 32.8474 30.3439 33.7969 30.3216 34.7616H28.4316C28.4525 33.48 28.751 32.2183 29.3066 31.0632L29.0616 30.9349C28.4873 32.1299 28.1807 33.4358 28.1633 34.7616H26.0749C26.0954 33.0894 26.49 31.443 27.2299 29.9432L26.9849 29.8149C26.2022 31.3963 25.795 33.137 25.7949 34.9016C25.7948 36.0032 25.9519 37.0993 26.2616 38.1566L26.5299 38.0866C26.24 37.0971 26.0869 36.0726 26.0749 35.0416H28.1633C28.1729 35.8993 28.3024 36.7514 28.5483 37.5732L28.8166 37.5032C28.5736 36.7047 28.444 35.8761 28.4316 35.0416H30.3333C30.3444 35.7227 30.4544 36.3987 30.6599 37.0482L30.9399 36.9782C30.7371 36.3521 30.627 35.6996 30.6133 35.0416H32.6666C32.6814 35.5271 32.7719 36.0073 32.9349 36.4649L33.2033 36.3949C33.047 35.9601 32.9603 35.5034 32.9466 35.0416H34.8366C34.8677 35.6041 35.09 36.1392 35.4666 36.5582L34.1249 37.8999C33.7184 37.4662 33.4048 36.9541 33.2033 36.3949L32.9349 36.4649C33.1518 37.0733 33.4936 37.6297 33.9383 38.0982L32.4566 39.5682C31.7535 38.8328 31.2269 37.9472 30.9166 36.9782L30.6366 37.0482C30.9651 38.0677 31.524 38.9978 32.2699 39.7666L30.9399 41.1082C29.9598 40.0958 29.2358 38.8638 28.8283 37.5149L28.5599 37.5849C28.9792 38.982 29.7273 40.2583 30.7416 41.3066L29.2833 42.7766C28 41.4652 27.0585 39.8587 26.5416 38.0982L26.2616 38.1682C26.8058 40.0211 27.809 41.7065 29.1783 43.0682C30.1037 43.9981 31.1808 44.7635 32.3633 45.3316L32.5033 45.0866C31.3826 44.5548 30.3577 43.8412 29.4699 42.9749L30.9399 41.5049C31.6934 42.2309 32.5654 42.8227 33.5183 43.2549L33.6583 43.0216C32.7259 42.599 31.8734 42.0189 31.1383 41.3066L32.4683 39.9766C33.0846 40.569 33.8043 41.0435 34.5916 41.3766L34.7316 41.1316C33.9656 40.8119 33.2654 40.353 32.6666 39.7782L34.1366 38.3082C34.6062 38.7487 35.1625 39.0865 35.7699 39.2999L35.8983 39.0549C35.3163 38.8537 34.7835 38.5317 34.3349 38.1099L35.6766 36.7682C36.0956 37.1448 36.6307 37.3671 37.1933 37.3982V39.2882C36.7562 39.275 36.3236 39.1964 35.9099 39.0549L35.7583 39.2882C36.2188 39.4568 36.7031 39.5513 37.1933 39.5682V41.6449C36.3477 41.6305 35.5125 41.4563 34.7316 41.1316L34.5916 41.3649C35.415 41.7162 36.2982 41.9063 37.1933 41.9249V43.8149C35.9729 43.7966 34.7694 43.5265 33.6583 43.0216L33.5183 43.2549C34.6716 43.787 35.9232 44.0731 37.1933 44.0949V46.1716C35.5698 46.1541 33.9695 45.7839 32.5033 45.0866L32.3633 45.3199C33.9143 46.0644 35.6128 46.4511 37.3333 46.4516C39.1766 46.4516 40.9499 46.0199 42.5366 45.2149L42.3966 44.9582C40.8701 45.7345 39.1857 46.1496 37.4733 46.1716V44.0832C38.8516 44.0639 40.2077 43.7328 41.4399 43.1149L41.3233 42.8699C40.1272 43.4685 38.8107 43.7877 37.4733 43.8032V41.9366C38.512 41.9132 39.5324 41.6581 40.4599 41.1899L40.3316 40.9449C39.4425 41.3873 38.4662 41.6264 37.4733 41.6449V39.5682C38.1332 39.55 38.7815 39.3909 39.3749 39.1016L39.2583 38.8449C38.7016 39.1182 38.093 39.2693 37.4733 39.2882V37.3982C38.0358 37.3671 38.5709 37.1448 38.9899 36.7682L40.3316 38.1099C40.0087 38.4077 39.6429 38.6555 39.2466 38.8449L39.3749 39.1016C39.7977 38.8968 40.187 38.6293 40.5299 38.3082L41.9999 39.7666C41.5068 40.2416 40.9442 40.639 40.3316 40.9449L40.4483 41.1899C41.0906 40.8732 41.6808 40.4601 42.1983 39.9649L43.5283 41.2949C42.8742 41.93 42.1266 42.4612 41.3116 42.8699L41.4516 43.1149C42.2882 42.6936 43.0554 42.1467 43.7266 41.4932L45.1849 42.9632C44.3623 43.7661 43.4221 44.4389 42.3966 44.9582L42.5366 45.2149C43.628 44.6603 44.6244 43.9357 45.4883 43.0682C46.4003 42.1576 47.1535 41.1008 47.7166 39.9416Z" fill="white"/>
<path d="M37.9983 32.2418H37.9283V32.3234H37.9983V32.2418ZM37.8233 32.1251H37.9166V32.1951H37.8233V32.1251ZM37.6599 32.1018L37.7299 32.1134L37.7416 32.0434H37.6599V32.1018ZM37.5899 32.0784H37.5083V31.9968L37.6016 32.0084L37.5899 32.0784ZM36.9133 31.9851H37.0066V32.0551H36.9133V31.9851ZM36.7149 32.1251L36.7966 32.1368V32.0668H36.7266L36.7149 32.1251ZM36.7149 32.2418L36.6333 32.2068V32.1368L36.7383 32.1718L36.7149 32.2418ZM36.5516 32.3234V32.2534L36.6099 32.2418L36.6216 32.3118L36.5516 32.3234ZM27.3816 39.5101V39.4518H27.3233V39.5684H27.4166V39.7201H27.4866V39.5451L27.3816 39.5101ZM28.2566 40.5601L28.1399 40.4434L28.0349 40.3151L27.9883 40.1984L27.9066 39.9884L28.0816 40.0818L28.1399 40.2451L28.2216 40.3034L28.3033 40.4784L28.2566 40.5601ZM30.6716 43.7218L30.6599 43.6168L30.5549 43.4768L30.7066 43.5001L30.8466 43.6284L30.9166 43.7801L30.8233 43.8268L30.7883 43.7568L30.6716 43.7218ZM36.9716 33.0001H36.8549L36.8199 32.7434L36.8899 32.6968V32.5684H36.4816V32.4401L36.5283 32.4051L36.4349 32.3701L36.3649 32.4634L36.3416 32.5684L36.2249 32.5918V32.6501H36.1433V32.8018L35.8166 33.0701L35.1633 33.0468C35.1283 33.1634 35.0116 33.0468 35.0116 33.0468C34.9766 32.9651 34.8249 33.0468 34.8249 33.0468C34.8249 33.1634 34.5916 32.9768 34.5916 32.9768L34.1949 32.6851C33.9616 32.4751 33.6116 32.7434 33.5999 32.8018C33.5999 32.9651 33.3316 32.8368 33.3316 32.8368C33.3316 32.8368 33.0983 32.7668 33.0633 32.8601C33.0283 32.9534 32.8766 32.9301 32.8766 32.9301L32.8533 32.9768L32.7366 33.0001L32.7133 33.0701L32.5733 33.0934H32.9233C33.0166 33.0701 32.8883 33.2918 32.8299 33.2801H32.6666L32.6083 33.3501H32.4566L32.3866 33.4434L32.1649 33.4318C32.1649 33.4318 32.0483 33.5368 32.0483 33.5718C32.0599 33.6068 32.0249 33.7118 31.9899 33.7118C31.9549 33.7118 31.8849 33.8284 31.9083 33.8518C31.9316 33.8868 31.8383 34.0034 31.8383 34.0034L31.8149 34.1201L31.7449 34.1551V34.4701L31.6049 34.5634V34.7034L31.3949 34.9368L31.4183 35.1118L31.2433 35.3101L31.2666 35.4968L31.1616 35.5318L31.1383 35.6134L31.0916 35.8584L31.2083 35.8701C31.2666 35.8468 31.2549 36.0218 31.2083 36.0568C31.1616 36.0801 31.0333 36.1268 31.1033 36.1734C31.1733 36.2201 30.9166 36.2084 30.9166 36.1384C30.9166 36.0568 30.7766 35.9984 30.7416 36.0218C30.7066 36.0451 30.6483 35.9168 30.6483 35.9168C30.5316 35.8001 30.1349 35.9284 30.1349 35.9284L30.0766 36.1268C29.9483 36.1384 29.8666 36.3601 29.8666 36.3601C29.7499 36.3951 29.6799 36.5234 29.7149 36.5584C29.7499 36.5934 29.6566 36.6051 29.6566 36.6051V36.8618L29.5983 36.9434V37.2351C29.6799 37.2351 29.6683 37.3518 29.6683 37.3518C29.5516 37.3751 29.5749 37.5268 29.5749 37.5268L29.3299 37.6084L29.2833 37.6784H28.9799L28.8983 37.7484L28.8166 37.6668H28.2333L28.2099 37.6084L28.0933 37.5851V37.4568H27.9066L27.8716 37.5384L27.6849 37.5501C27.6966 37.6668 27.4983 37.8418 27.4749 37.7951C27.4516 37.7484 27.3233 37.6201 27.3816 37.5968C27.4504 37.5763 27.5206 37.5607 27.5916 37.5501V37.4684L27.1599 37.4568L27.1133 37.5268L26.9383 37.5384V37.7251L26.8566 37.7484C26.7983 37.7834 26.8683 37.9118 26.8683 37.9118C26.9499 37.9934 26.8683 38.1334 26.8683 38.1334C26.7866 38.2034 26.9149 38.3318 26.9149 38.3318C27.0083 38.3551 26.8566 38.4251 26.8566 38.4251C26.8799 38.5418 26.9499 38.5768 26.9499 38.5768C26.8799 38.6934 26.9966 38.7518 26.9966 38.7518L27.0083 38.9501L27.0899 38.9968V39.1368L27.1366 39.2184H27.3233V38.9151C27.1483 38.7284 27.4516 38.6818 27.4633 38.7518C27.4749 38.8218 27.6033 38.8684 27.6033 38.8684C27.6266 39.0434 27.8366 39.1484 27.8833 38.9618C27.9416 38.7868 27.9999 38.8918 28.0233 38.9734C28.0583 39.0668 28.2799 39.2651 28.2799 39.2651H28.4549L28.4783 39.4284C28.6766 39.4168 28.7349 39.4284 28.8166 39.7084C28.8362 39.7865 28.8738 39.8588 28.9265 39.9196C28.9792 39.9804 29.0455 40.028 29.1199 40.0584L29.2833 40.0468C29.2833 39.8951 29.4466 40.0701 29.4466 40.1401C29.4466 40.2101 29.7616 40.4784 29.7616 40.4784L30.0766 40.5484L30.3683 40.7818L30.5899 40.7584H30.6833C30.7416 40.5601 31.0216 40.7701 31.0333 40.8401C31.0566 40.9101 31.2433 41.0384 31.2666 40.9801C31.2899 40.9218 31.4183 40.9568 31.4416 41.1318C31.4649 41.3068 31.5583 41.2718 31.5583 41.2718L32.2116 41.2601L32.4449 41.0618L33.0399 41.0501C33.3433 41.0384 33.1566 40.6184 33.0983 40.6184C32.9933 40.5368 33.1333 40.1984 33.1333 40.1984L32.2816 39.4051C32.0833 39.4051 32.2583 39.1251 32.2583 39.1251C32.4099 39.0318 32.2233 38.8684 32.2233 38.8684C32.2466 38.7284 32.1416 38.5651 32.1416 38.5651C31.9316 38.4251 31.9899 38.1568 31.9899 38.1568V37.9584C31.8149 37.7951 32.0599 37.7718 32.0599 37.7718C32.1416 37.6318 32.0016 37.5268 32.0016 37.5268V37.3751L31.8033 37.3518L31.7799 36.7918L31.3599 36.1968C31.2783 36.1734 31.3366 36.0218 31.3366 36.0218C31.4533 35.9634 31.3133 35.8234 31.3133 35.8234V35.5668L31.5466 35.5434L31.6049 35.4501H31.7216V35.1468C31.7683 34.9834 31.9083 35.0651 31.9083 35.0651L32.0716 35.0768L32.1649 34.9018L32.1883 34.7618H32.0716C31.9199 34.6684 31.9899 34.3651 31.9899 34.3651C32.2233 34.0268 32.4683 34.2251 32.4683 34.2251L32.6316 34.2134C32.8766 34.3768 32.6549 34.6801 32.6549 34.6801C32.6083 34.7501 32.6316 34.9718 32.6316 34.9718L32.6899 35.3568L32.5383 35.4734C32.4216 35.5551 32.4216 35.7184 32.5499 35.7534C32.6433 35.7651 32.6083 35.9868 32.4683 35.8351C32.2583 35.8351 32.5849 36.0218 32.4916 35.9751C32.7016 36.0918 32.6549 35.8818 32.6549 35.8818L32.9349 35.6601C33.0516 35.5784 33.2266 35.8351 33.2266 35.8701C33.2266 35.9051 33.6933 35.8818 33.6933 35.8818C33.8099 35.9634 33.8683 36.1851 33.8683 36.1851C33.9849 36.0101 34.2649 36.1734 34.0666 36.2668C34.2533 36.3834 34.2533 36.4884 34.2533 36.4884C34.4049 36.4418 34.4049 36.5584 34.4049 36.5934L34.4516 36.4184C34.2766 36.2901 34.6849 36.2434 34.5683 36.4768L34.4983 36.5818L34.6149 36.6751V36.9434C34.8833 36.9201 34.8133 36.6051 34.8133 36.6051L34.9299 36.5818C34.9299 36.4651 35.0116 36.5351 35.0116 36.5351C34.9299 36.1384 35.1983 36.0684 35.1983 36.0684C35.3499 36.0218 35.3616 35.7068 35.3616 35.7068C35.2449 35.6601 35.3149 35.4968 35.4316 35.6368C35.5483 35.7768 35.3616 35.3568 35.3616 35.3568L35.2683 35.2751L35.1399 35.2634L35.1283 35.1351H34.9183L34.8833 35.2984L34.8016 35.3218L34.7783 35.2751L34.7433 35.3918H34.5333L34.5216 35.2634L34.6383 35.2284L34.6966 35.1584L34.7316 34.9601H34.8833L35.0816 34.9018C35.0816 34.7034 35.1983 34.7501 35.1983 34.7501L35.2683 34.8084L35.3733 34.8901V34.9601L35.3149 34.9951L35.3033 35.0884L35.3383 35.2284H35.4199C35.4549 35.0301 35.6999 35.0301 35.7699 35.1584L35.8399 34.9834C35.6766 34.9018 35.8399 34.7734 35.8866 34.8318C35.9333 34.8901 36.0383 34.6801 36.0383 34.6801C36.0383 34.6801 36.1199 34.7968 36.0383 34.6451C35.9566 34.5051 36.0966 34.4351 36.0966 34.4351C36.0733 34.2951 36.2483 34.3184 36.2483 34.3184L36.2599 34.1201H36.0966C36.0616 34.2834 35.9216 34.1318 35.9916 34.0968C36.0616 34.0618 36.1316 33.9918 36.1316 33.9918V33.8751L36.2016 33.8518L36.2133 33.7351H36.3883L36.5399 33.6651L36.5749 33.6068L36.7383 33.5951L36.9716 33.3851L36.9483 33.2918C36.8083 33.2918 36.9483 33.1751 36.9483 33.1751L36.9716 33.0001Z" fill="white"/>
<path d="M32.2816 35.3451L32.0716 35.3218L32.0833 35.4034H32.1416C32.2349 35.5668 32.1533 35.9634 32.1533 35.9634C32.1533 35.9634 32.0133 35.9751 31.9899 35.9051C31.9666 35.8351 31.9083 36.0568 31.9549 36.1034C32.0016 36.1384 32.1649 36.1034 32.1883 36.2201C32.1883 36.3601 32.2816 36.1501 32.2816 36.1501V35.3334V35.3451Z" fill="white"/>
<path d="M32.2816 36.3482L32.3516 36.3366L32.3632 36.2549L32.1882 36.3715L32.0716 36.3016V36.5815L32.2582 36.8266L32.3282 36.6632L32.3516 36.5582L32.2699 36.5232L32.2816 36.3482ZM32.3749 37.0949V36.9782H32.2932V37.0832L32.3749 37.0949ZM32.2699 37.6549V37.5732L32.1766 37.5849V37.6666L32.2699 37.6549ZM32.4099 37.2932C32.4238 37.2932 32.4372 37.2877 32.447 37.2778C32.4569 37.268 32.4624 37.2546 32.4624 37.2407C32.4624 37.2268 32.4569 37.2134 32.447 37.2036C32.4372 37.1937 32.4238 37.1882 32.4099 37.1882C32.4027 37.188 32.3955 37.1894 32.3889 37.1925C32.3823 37.1955 32.3765 37.2 32.372 37.2057C32.3674 37.2114 32.3643 37.218 32.3628 37.2251C32.3613 37.2322 32.3614 37.2395 32.3632 37.2465C32.3632 37.2699 32.3866 37.2932 32.4099 37.2932Z" fill="white"/>
<path d="M32.4916 37.5384C32.5174 37.5384 32.5383 37.5175 32.5383 37.4917C32.5383 37.466 32.5174 37.4451 32.4916 37.4451C32.4658 37.4451 32.4449 37.466 32.4449 37.4917C32.4449 37.5175 32.4658 37.5384 32.4916 37.5384Z" fill="white"/>
<path d="M32.4916 36.1849C32.5174 36.1849 32.5383 36.164 32.5383 36.1382C32.5383 36.1124 32.5174 36.0916 32.4916 36.0916C32.4658 36.0916 32.4449 36.1124 32.4449 36.1382C32.4449 36.164 32.4658 36.1849 32.4916 36.1849Z" fill="white"/>
<path d="M36.4466 34.4L36.3299 34.3884L36.2949 34.4467H36.2366V34.54H36.2949L36.3066 34.61L36.2599 34.6567L36.2366 34.715L36.1433 34.7384L35.9333 34.9367V35.03L35.8633 35.1117L35.7933 35.2984H35.5599L35.5016 35.52L35.5366 35.695L35.7466 35.7767L35.7699 35.66L35.8399 35.625L35.8516 35.5084L35.8983 35.4267L35.9683 35.345L35.9916 35.2517L36.1083 35.1817L36.2483 35.1467L36.3066 35.0767L36.3299 34.9367V34.8317L36.3883 34.7617L36.5283 34.7034V34.47H36.4583L36.4466 34.4ZM36.7733 35.205V35.03L36.7499 34.8784L36.5749 34.7967L36.4583 34.9134L36.4233 35.0767V35.1934L36.3066 35.2167L36.2833 35.5317L36.1899 35.5667L36.2016 35.6834L36.0849 35.7184L35.9449 35.7534L35.9216 35.905L35.8283 35.9634L35.7816 36.115L35.7233 36.4534C35.7233 36.4534 35.8399 36.6517 35.8866 36.5584C35.9449 36.465 36.0383 36.4417 36.0383 36.4417L36.0733 36.3717H36.3883C36.4116 36.255 36.5633 36.3017 36.5633 36.36C36.5633 36.4184 36.6799 36.36 36.6799 36.36L36.7616 36.2434H36.8899L36.9016 36.0917L36.9599 36.0567V35.8584C37.1466 35.8 37.1233 35.625 37.1233 35.625L37.1699 35.5667L37.1466 35.485C37.0533 35.45 37.0999 35.3684 37.1583 35.3917C37.2166 35.415 37.0766 35.275 37.0766 35.275C37.0066 35.345 36.9599 35.2167 36.9599 35.2167H36.7733V35.205ZM36.9599 36.6284C36.9599 36.7684 36.7733 36.815 36.7733 36.815L36.6566 36.78L36.5749 36.7217V36.5584L36.6683 36.5467L36.6916 36.6167L36.9599 36.6284ZM37.5899 35.87C37.6133 35.9867 37.6133 35.7067 37.6599 35.7184C37.7066 35.73 37.6716 35.555 37.6716 35.555L37.4616 35.7067C37.5666 35.7184 37.5783 35.8234 37.5899 35.87ZM38.2083 35.2634C38.2549 35.3684 38.2433 35.52 38.4183 35.6367C38.4766 35.6717 38.3833 35.7534 38.3249 35.7184C38.237 35.6298 38.1587 35.532 38.0916 35.4267V35.275C38.1383 35.1817 38.1849 35.2167 38.2083 35.2634ZM38.2433 38.88L38.2783 38.9384L38.3599 38.8217L38.2899 38.7867L38.2083 38.845L38.2433 38.88ZM37.9166 38.6584V38.7984V38.6584ZM39.5966 38.495L39.6899 38.4367L39.6549 38.3667L39.5616 38.425L39.5966 38.495ZM41.2883 41.1084L41.3933 41.1667V41.365C41.5449 41.505 41.9999 41.3884 41.9999 41.3534L41.9766 40.91L41.9183 40.8517L41.9066 40.56C41.9533 40.4084 41.6733 40.1867 41.6616 40.2334C41.6383 40.28 41.4866 40.2334 41.4866 40.2917C41.4866 40.3384 41.3933 40.5717 41.4399 40.6534C41.4866 40.735 41.4049 40.735 41.3933 40.8167C41.3816 40.8984 41.2649 41.05 41.2766 41.12L41.2883 41.1084ZM41.0316 40.6417C41.0083 40.735 40.9149 40.7817 40.8799 40.7584C40.8333 40.7117 40.9383 40.805 40.9616 40.8517C40.9849 40.8984 41.0549 40.8984 41.0783 40.8517C41.1016 40.805 41.0783 40.7 41.1133 40.6534C41.1366 40.6067 41.0433 40.595 41.0316 40.6534V40.6417ZM40.4833 38.4717H40.5649V38.705H40.4833V38.4717ZM41.6966 36.2084C41.6383 36.1384 41.9299 36.01 41.9766 36.1617C42.0233 36.3017 41.9766 36.2784 41.9299 36.2667C41.8833 36.255 41.7666 36.3017 41.6966 36.2084ZM41.9416 34.6217V34.6917L42.0583 34.715L42.0699 34.645L41.9416 34.6217ZM41.4166 34.8084L41.5099 34.8667H41.5449L41.6149 34.82V34.8434L41.6849 34.82L41.6616 34.7617V34.7267L41.6149 34.7384L41.5333 34.7967L41.4516 34.7384L41.4166 34.8084ZM43.7499 31.775H43.5749C43.5749 31.775 43.6333 31.7984 43.4583 31.6467C43.3066 31.495 43.2016 31.6817 43.2016 31.6817L43.0149 31.705V31.8917L42.9216 31.9267V32.0434H43.0616C43.0616 32.0434 43.0616 32.1717 43.0966 32.1134C43.1316 32.055 43.4233 32.125 43.3999 32.2767C43.3883 32.335 43.6916 32.4867 43.6566 32.6734C43.8083 32.6967 43.7733 32.8484 43.7733 32.8484L43.9716 32.8717L44.0299 32.755L44.0883 32.7667V32.6967L43.9599 32.6617L43.9366 32.2767L43.8549 32.2184L43.8783 32.125L43.7849 32.09L43.8316 31.9384L43.7499 31.775ZM44.2516 32.9767H44.1583L43.9483 33L43.8316 33.2334C43.8316 33.2334 43.8899 33.2684 43.9483 33.35C43.9833 33.4317 44.0066 33.91 43.8666 33.9917C43.7266 34.0734 43.8783 34.0267 43.8783 34.0267L43.8549 34.295C43.8899 34.4117 43.9483 34.3534 43.9833 34.295C44.0183 34.2367 44.0533 34.225 44.0999 34.1667C44.1466 34.1084 44.2166 33.9917 44.2283 33.91C44.2399 33.8284 44.2983 33.7 44.2633 33.665C44.2283 33.63 44.2983 33.4667 44.2983 33.4667C44.2983 33.4667 44.3449 33.3734 44.2983 33.28C44.2516 33.1867 44.3099 33.07 44.3449 33.0234L44.2516 32.9767ZM44.3916 33.4667L44.4033 33.3734H44.4733V33.4667H44.3916ZM44.3916 33.7934L44.3333 33.7584L44.3683 33.6884L44.4266 33.7234L44.3916 33.7934ZM44.2866 32.86L44.2399 32.7434C44.2399 32.7434 44.2399 32.65 44.2633 32.6034C44.2866 32.5567 44.2166 32.51 44.1816 32.4867C44.1466 32.4867 44.1583 32.3934 44.1466 32.3467C44.1466 32.3 44.0533 32.265 44.0533 32.265L44.0299 32.0434C44.0299 32.0084 43.9249 31.9617 43.9599 31.9267L44.0533 31.8217C44.0883 31.7984 44.0183 31.635 44.0766 31.67C44.1349 31.705 44.1349 31.7634 44.1583 31.81C44.1816 31.8567 44.1583 32.02 44.2049 32.055C44.2633 32.09 44.2049 32.2184 44.2866 32.2184C44.3799 32.2184 44.3216 32.44 44.3216 32.44C44.3216 32.44 44.2983 32.6034 44.3566 32.615C44.4149 32.6267 44.3799 32.9067 44.3799 32.9067L44.2866 32.8484V32.86ZM43.5399 30.935C43.5749 30.9817 43.6449 31.0167 43.6449 31.0634C43.6449 31.11 43.6216 31.145 43.6916 31.1567C43.7616 31.1684 43.8083 31.1567 43.8316 31.2034C43.8549 31.2617 43.8549 31.3667 43.8316 31.4134C43.8316 31.46 43.8549 31.53 43.9133 31.53C43.9716 31.53 43.9833 31.53 43.9833 31.5767C43.9833 31.6117 44.0533 31.4484 44.0533 31.4484C43.9949 31.4017 43.9366 31.2967 43.9366 31.2967L43.8899 31.0984C43.8899 31.075 43.8083 31.0517 43.7733 31.04C43.7383 31.04 43.6799 30.9234 43.6799 30.9234L43.5399 30.935ZM43.6566 30.83C43.6216 30.7834 43.5866 30.7484 43.5399 30.725C43.4933 30.7017 43.4583 30.6784 43.4116 30.6784C43.3981 30.6778 43.385 30.6738 43.3735 30.6669C43.3619 30.66 43.3522 30.6504 43.3453 30.6388C43.3384 30.6273 43.3344 30.6142 43.3338 30.6007C43.3331 30.5873 43.3358 30.5739 43.3416 30.5617C43.3649 30.515 43.3066 30.4917 43.3066 30.445C43.3066 30.3984 43.3416 30.3984 43.3999 30.4334C43.4583 30.4684 43.4466 30.48 43.4933 30.5384C43.5399 30.5967 43.5633 30.655 43.6099 30.6434C43.6566 30.6317 43.6916 30.7484 43.7266 30.7134C43.7849 30.6784 43.7733 30.795 43.7733 30.795L43.6566 30.83ZM42.2916 32.16C42.3499 32.23 41.9416 32.2067 41.9416 32.16C41.9416 32.1134 41.9766 31.95 42.0816 31.985C42.1866 32.02 42.1983 31.775 42.1983 31.775C42.1983 31.775 42.1049 31.7867 42.1866 31.74C42.2683 31.6934 42.1866 31.6234 42.1516 31.5884L42.0816 31.495H42.2449C42.3149 31.4484 42.3383 31.2267 42.3383 31.2267C42.4783 31.2734 42.5483 31.1684 42.5483 31.1684L42.6183 31.3084C42.6649 31.3667 42.5016 31.39 42.5599 31.425C42.6183 31.46 42.6416 31.565 42.6183 31.6C42.5949 31.635 42.4666 31.6 42.4666 31.565C42.4666 31.53 42.4199 31.6234 42.4666 31.6817C42.5133 31.74 42.4083 31.8217 42.3849 31.8217C42.3616 31.8217 42.2099 31.845 42.3383 31.915C42.4549 31.985 42.6066 31.95 42.6066 31.95C42.6066 31.95 42.7116 31.95 42.7466 31.9967C42.7816 32.055 42.7349 32.0667 42.6766 32.0667L42.3266 32.0434C42.3266 32.0434 42.2566 32.125 42.2916 32.16ZM41.5449 32.2767C41.6033 32.265 41.7433 32.2534 41.7783 32.2767C41.7899 32.3234 41.6849 32.37 41.6849 32.37L41.5449 32.3934C41.4983 32.335 41.4866 32.2767 41.5449 32.2767ZM43.0499 31.285C43.1433 31.2384 43.3416 31.2384 43.3299 31.1684C43.3183 31.0867 43.4466 31.0634 43.4466 31.0634L43.4816 31.2034L43.5866 31.285V31.4017L43.5049 31.425C43.3766 31.46 43.4583 31.5184 43.4583 31.5184H43.1666L43.1316 31.4017L43.0383 31.285H43.0499ZM42.5833 30.6434C42.6649 30.6434 42.5716 30.9117 42.7583 30.8884C42.9449 30.865 42.7583 30.97 42.9099 30.9817C43.0499 30.9934 43.0149 30.8767 43.0616 30.795C43.1083 30.7134 43.0849 30.6667 43.0033 30.6434C42.9216 30.62 42.9216 30.62 42.8866 30.5267C42.8749 30.4334 42.7699 30.41 42.7699 30.41L42.7466 30.27L42.5949 30.3634L42.4433 30.5617C42.4433 30.7134 42.5249 30.6434 42.5949 30.6434H42.5833ZM42.8983 31.635L42.9333 31.565L43.0033 31.6L42.9683 31.67L42.8983 31.635ZM42.7816 31.5184H42.8516V31.6117H42.7816V31.5184ZM42.8399 29.955V30.06H42.7816L42.7699 29.9667L42.8399 29.955ZM42.6416 31.0517H42.7116V31.11H42.6416V31.0517ZM42.4549 31.0517V30.9817H42.5716V31.04L42.4549 31.0517ZM41.4983 32.195L41.4283 32.16L41.4633 32.0784L41.5333 32.1134L41.4983 32.195ZM41.1249 31.9734V31.9034H41.2416V31.9617L41.1249 31.9734ZM39.1066 31.95L38.8499 31.9617V32.0317H39.1183L39.1066 31.95ZM38.6866 32.055L38.6633 31.95L38.7333 31.9384L38.7566 32.0434L38.6866 32.055ZM38.6399 32.125L38.6166 32.0667L38.6516 32.055L38.6749 32.1134L38.6399 32.125ZM39.2233 31.9267L39.2116 32.0084L39.3283 32.02C39.3283 32.02 39.3866 32.0667 39.3866 32.1017C39.3866 32.1367 39.4683 32.1717 39.5149 32.1717C39.5616 32.1717 39.6899 32.0784 39.6899 32.0784C39.6899 32.0784 39.7483 31.915 39.7016 31.9267C39.6549 31.9384 39.5616 32.0084 39.5499 31.9384C39.5499 31.8684 39.3983 31.9034 39.3983 31.9034L39.2116 31.9267H39.2233ZM39.8066 31.81C39.8066 31.8334 39.7716 31.88 39.8416 31.8917C39.9116 31.9034 40.0399 31.845 40.0516 31.915C40.0633 31.985 40.0633 32.0317 40.1683 32.0667C40.2348 32.0951 40.306 32.111 40.3783 32.1134L40.6116 32.09C40.6116 32.09 40.7633 32.125 40.7983 32.1484C40.9266 32.2884 41.0083 32.3234 41.0433 32.265C41.0783 32.2067 41.0433 32.0667 41.0199 32.0317C41.0199 31.9734 40.8449 31.7517 40.7866 31.7984C40.7283 31.845 40.7166 31.7984 40.6116 31.8334C40.5066 31.8684 40.2849 31.845 40.2733 31.7984C40.2733 31.7517 40.0983 31.7284 40.0983 31.6817C40.0983 31.635 39.9816 31.565 39.9933 31.6467C40.0049 31.7167 39.9116 31.7517 39.8883 31.7284C39.8649 31.705 39.7949 31.7984 39.7949 31.7984L39.8066 31.81ZM42.4783 30.2934L42.5599 30.025C42.4433 30.0017 42.4666 29.8734 42.4666 29.8734C42.4549 29.7567 42.2916 29.64 42.2333 29.6867C42.1749 29.7217 42.1983 29.4417 42.1983 29.4417C42.1983 29.4417 42.3033 29.3717 42.3499 29.4067C42.3966 29.4417 41.9533 28.8117 41.8599 28.87C41.7666 28.9284 41.5566 28.8117 41.5683 28.7067C41.5799 28.59 41.1483 28.24 41.1483 28.24C41.1483 28.24 41.0083 28.1467 40.9849 28.2167C40.9616 28.2867 40.9149 28.3334 40.9849 28.38C41.0549 28.415 41.0433 28.3217 41.1249 28.4034C41.2066 28.485 41.3583 28.59 41.2999 28.66C41.2416 28.73 41.1833 28.7534 41.1833 28.7534L41.2533 28.8467H41.3816L41.4049 29.045C41.4049 29.045 41.5449 29.115 41.5799 29.1967C41.6149 29.2784 41.6149 29.325 41.5799 29.3834C41.5449 29.43 41.4749 29.5 41.4866 29.5934C41.4983 29.675 41.6033 29.71 41.6033 29.71H41.6849L41.7549 29.7567V29.9084C41.8483 29.885 41.9999 30.025 41.9883 30.095C41.9883 30.1767 42.0116 30.13 42.1283 30.2117C42.2449 30.2934 42.2099 30.305 42.2916 30.375C42.3733 30.4334 42.4433 30.3984 42.4783 30.2817V30.2934Z" fill="white"/>
<path d="M40.5416 28.6951C40.5416 28.6484 40.5066 28.4851 40.5766 28.4967C40.6466 28.4967 40.5999 28.4967 40.6933 28.5317C40.7866 28.5667 40.7749 28.4734 40.7749 28.4734H40.9033L41.0666 28.5901L41.0433 28.7067H40.9266C40.8683 28.6251 40.7516 28.6601 40.7749 28.7417C40.7983 28.8234 40.7166 28.9751 40.6699 28.9867C40.6233 28.9984 40.4716 28.9984 40.4833 28.9284L40.5416 28.6951ZM40.4483 28.3801V28.2751C40.4483 28.2751 40.4483 28.1817 40.3783 28.1817C40.3083 28.1817 40.2149 28.1117 40.2383 28.0651C40.2616 28.0184 40.0399 27.9717 40.0399 27.9717C40.0399 27.9717 39.8416 27.7851 39.9233 27.8084C39.9816 27.8317 39.9466 27.7267 39.9466 27.7267C39.9466 27.7267 39.8066 27.7501 39.7716 27.7267C39.7366 27.7267 39.7483 27.6101 39.7483 27.6101C39.7483 27.6101 39.6083 27.5867 39.6083 27.6101C39.6083 27.6334 39.6549 27.6567 39.6783 27.7267C39.7016 27.7967 39.6899 27.9134 39.7949 27.9367C39.9116 27.9601 39.9233 27.9834 39.9349 28.0301C39.9466 28.0767 40.0749 28.0884 40.0749 28.0884L40.1683 28.1351L40.4483 28.3684V28.3801ZM39.1999 27.1667L39.1649 27.0734L39.0716 27.0501V27.1667H39.1999ZM39.1649 26.6767C39.0483 26.5834 39.3283 26.7467 39.3283 26.7467C39.4216 26.7467 39.4799 26.8167 39.4799 26.8517C39.4799 26.8867 39.5966 26.8751 39.5966 26.8751L39.6083 26.7934L39.5149 26.6767L39.4333 26.6184C39.4333 26.6184 39.3166 26.6067 39.3166 26.5717C39.3166 26.5367 39.1999 26.7117 39.1533 26.6767H39.1649ZM41.2999 26.7467C41.2649 26.8517 41.2533 26.9917 41.1949 26.9917C41.1366 26.9917 41.1599 27.1434 41.1599 27.1434L41.3583 27.1551C41.4049 27.1667 41.4049 27.2834 41.4049 27.2834C41.5799 27.2834 41.6499 27.5167 41.6383 27.5751C41.6033 27.6334 41.6966 27.6334 41.6966 27.6334C41.6966 27.6334 41.6966 27.8201 41.6733 27.8667C41.6499 27.9134 41.8249 27.9484 41.8716 28.0184C41.9183 28.0884 41.8483 28.3217 41.8133 28.3334C41.7783 28.3567 41.9066 28.3917 41.8949 28.4501C41.8833 28.5084 41.9299 28.4501 41.9416 28.5434L41.9766 28.8351L42.1399 28.8467C42.1633 28.6951 42.4666 28.6834 42.5133 28.7067C42.7116 28.7767 42.8633 29.0801 42.8633 29.1501C42.8633 29.2201 42.7349 29.2317 42.7349 29.2317L42.7583 29.5817C42.9566 29.6401 43.1083 29.9317 43.0966 29.9667C43.0733 30.0134 43.2366 30.0017 43.2366 30.0017C43.2599 29.7917 43.4583 29.8617 43.4699 29.9317C43.4699 30.0017 43.5166 30.1651 43.5166 30.1651L43.5749 30.2584L43.6566 30.3401H43.7733L43.8199 30.4101L43.9599 30.4334C43.9599 30.4334 44.0883 30.5734 44.0999 30.6084C44.1116 30.6434 44.2866 30.6317 44.3333 30.6434C44.3799 30.6434 44.4499 30.6901 44.4616 30.7484C44.4733 30.8067 44.5433 30.9001 44.5433 30.9001C44.5433 30.9001 44.6833 30.9351 44.6949 30.9817L44.7649 31.1334L44.8816 31.2267L44.8933 31.3434H45.0216L45.0566 31.4951L45.2666 31.4834L45.3833 31.4017C45.4913 31.3484 45.5837 31.268 45.6516 31.1684C45.6633 31.1101 45.6866 30.9351 45.8033 30.9701C45.9199 31.0051 45.8383 30.7134 45.8383 30.7134C45.8383 30.7134 45.6749 30.5967 45.6866 30.5384C45.6983 30.4801 45.5233 30.3634 45.5349 30.3051C45.5466 30.2701 45.3833 30.1651 45.3949 30.1184C45.4066 30.0717 45.3133 29.9434 45.3133 29.9434L45.1499 29.7917L45.1266 29.6751H44.9866L44.7066 29.3251L44.7183 29.2317H44.6366V29.0917L44.5549 29.0451H44.4383L44.1699 28.7534L44.1466 28.6251H44.0299L44.0533 28.3801C44.1349 28.2634 44.0883 28.0651 44.0883 28.0651C44.0883 28.0651 43.9249 28.1467 43.8433 28.1117C43.7616 28.0767 43.8783 27.9951 43.8783 27.9951V27.9017L43.8083 27.8317C43.8083 27.8317 43.6099 27.8551 43.5983 27.8201L43.5516 27.6334L43.5399 27.4351L43.4583 27.4001L43.4466 27.3184L43.3183 27.3301V27.1901L43.2483 27.1667L43.1783 27.1317L43.1666 26.9917L42.9099 26.9801L42.8283 26.8634L42.7349 26.7234L42.4433 26.7001L42.3733 26.6301L42.2566 26.6067L42.1749 26.5717L42.1399 26.6301H41.9066V26.7117C41.7899 26.7701 41.3233 26.7117 41.3233 26.7584L41.2999 26.7467ZM42.5249 26.4317C42.5016 26.3501 42.7583 26.2567 42.8166 26.3267C42.8749 26.3967 43.0383 26.4084 43.0499 26.7701C43.0616 26.8867 42.8516 26.6417 42.8516 26.6417L42.6766 26.5834C42.5833 26.5601 42.5366 26.5017 42.5249 26.4434V26.4317ZM39.1066 26.5834L39.0483 26.5484L39.0949 26.4434L39.1533 26.4784L39.1066 26.5834ZM38.5116 25.4167L38.3599 25.2651V25.1484L38.3133 25.0901L38.2666 24.9267L38.1149 24.8801L37.9633 24.9384L37.7999 25.0434L37.6249 25.0667L37.5316 25.1834L37.9049 25.2067L37.9749 25.3234L38.2433 25.3467L38.4183 25.5217C38.5699 25.5801 38.6049 25.4984 38.5116 25.4167ZM38.4883 24.8334C38.4649 24.7401 38.3133 24.9734 38.4649 25.0201C38.6166 25.0667 38.7683 25.0201 38.7683 25.0201L38.8033 24.9501L39.3866 24.9617C39.4333 24.9151 39.4566 24.8451 39.4566 24.8451C39.4566 24.8451 39.5966 24.7984 39.6549 24.8217C39.7133 24.8451 39.6549 24.6584 39.6083 24.6817C39.5499 24.7051 39.4333 24.6817 39.4333 24.6817H39.2233C39.2116 24.6117 39.0249 24.6467 39.0133 24.6817C39.0016 24.7401 38.9316 24.7517 38.9316 24.7517L38.6633 24.7751C38.6399 24.8451 38.4999 24.8917 38.4883 24.8451V24.8334ZM37.3333 26.8401C37.5083 26.8984 37.5783 26.8401 37.5899 26.8051C37.6016 26.7584 37.6133 26.7467 37.6833 26.7351C37.7533 26.7234 37.6716 26.5834 37.6016 26.5951C37.5316 26.5951 37.4616 26.5717 37.4499 26.5134C37.4383 26.4434 37.3216 26.2917 37.3099 26.4084C37.2983 26.5251 37.2283 26.5251 37.2399 26.6184C37.2516 26.7001 37.2866 26.8167 37.3333 26.8401ZM35.9916 26.9684C35.9916 26.9217 36.2249 26.9217 36.2599 26.9567C36.2949 26.9917 36.2716 27.0501 36.3766 27.0501C36.4816 27.0501 36.4349 27.1201 36.4233 27.1667C36.4233 27.1901 36.3066 27.1784 36.2833 27.1434C36.2833 27.1084 36.0966 27.0967 36.0966 27.0967C36.0966 27.0967 36.0033 27.0267 35.9916 26.9684ZM39.9583 24.4367L39.8649 24.5067L39.8066 24.4484L39.7483 24.5067L39.8299 24.5884L39.8533 24.6117L39.8766 24.5884L39.9933 24.4951L39.9583 24.4367ZM39.3166 24.2267L39.2349 24.1801L39.1999 24.2384L39.2933 24.2967H39.3283L39.4566 24.2151L39.4216 24.1567L39.3166 24.2267ZM38.9316 26.6534H38.9199L38.8033 26.6417V26.7117H38.8966L38.9666 26.8284L39.0249 26.7934L38.9433 26.6767L38.9316 26.6534ZM35.0816 29.9434L35.0933 30.0717H35.2683C35.3383 30.0717 35.2099 29.9901 35.2099 29.9901C35.2099 29.9901 35.0699 30.0017 35.0933 29.9434H35.0816ZM35.3149 29.9434L35.3499 29.8967L35.4199 29.9551L35.3733 30.0017L35.3149 29.9434ZM33.1916 27.7384L33.2383 27.6917L33.3083 27.7617L33.2616 27.8084L33.1916 27.7384ZM36.5749 42.9401L36.4583 42.8817L36.4233 42.9401L36.4933 42.9751L36.4699 42.9984L36.5166 43.0567L36.5749 42.9984L36.6099 42.9634L36.5749 42.9401ZM35.6649 42.0884L35.6183 42.0301L35.5483 42.0884L35.5133 42.1234L35.5599 42.1467L35.6416 42.2051L35.6766 42.1467L35.6299 42.1117L35.6649 42.0884ZM44.3216 39.8484C44.3099 39.7901 44.2399 39.7667 44.2283 39.7551L44.2049 39.8251L44.2283 39.8367L44.2399 39.8951L44.2283 39.9184L44.2749 39.9651C44.3216 39.9301 44.3333 39.8834 44.3216 39.8484ZM44.4383 39.6151H44.3216V39.5101L44.4383 39.5334V39.6151ZM47.1216 38.7051C47.1799 38.6701 47.2383 38.6117 47.2383 38.7517C47.2266 38.8801 47.1683 38.8334 47.1216 38.8801C47.0866 38.9267 47.0516 38.7517 47.1216 38.7051ZM47.7166 38.2034C47.7163 38.1995 47.7163 38.1956 47.7166 38.1917C47.7152 38.1631 47.7072 38.1351 47.6933 38.1101L47.6349 38.1451L47.6466 38.1917C47.6466 38.2151 47.6466 38.2384 47.6699 38.2501C47.6816 38.2617 47.6933 38.2617 47.7166 38.2501L47.7049 38.1917L47.7166 38.2034ZM47.5649 38.2617L47.6116 38.4017L47.6699 38.3784C47.6558 38.3324 47.6442 38.2856 47.6349 38.2384L47.5649 38.2617ZM47.3083 38.5417H47.2383C47.2383 38.5884 47.2383 38.6584 47.2966 38.6584L47.3199 38.6001L47.3083 38.5417ZM47.0049 37.1417C47.0034 37.1286 46.9983 37.1161 46.99 37.1058C46.9818 37.0955 46.9707 37.0877 46.9583 37.0834C46.9116 37.0601 46.8299 37.0951 46.7833 37.1301L46.8183 37.1884C46.8649 37.1534 46.9233 37.1417 46.9349 37.1417L47.0049 37.1301V37.1417ZM43.7733 33.3617C43.7266 33.4084 43.6216 33.4317 43.6216 33.4317L43.5866 33.5484L43.5399 33.6067V33.7234C43.5399 33.8051 43.4233 33.8517 43.4233 33.8517L43.3766 33.9101H43.0616C42.9449 33.8634 43.0266 33.7234 43.0966 33.7351C43.1666 33.7467 43.0849 33.5367 43.0849 33.5367L43.1783 33.5251C43.1783 33.5251 43.1783 33.3151 43.2249 33.3151C43.2599 33.3151 43.2133 33.2451 43.1666 33.1984C43.1199 33.1634 43.0499 33.0467 43.0149 33.0584H42.7816L42.7466 33.1284L42.6183 33.1517L42.6066 33.2684C42.5366 33.3617 42.2566 33.5367 42.3733 33.2451L42.4199 33.1634V33.0584H42.2099C42.2099 33.0584 42.0933 33.0117 42.0933 32.9651V32.8601L41.8483 32.5917L41.5566 32.5567L41.5333 32.4984L41.3583 32.4751C41.1483 32.3584 40.9616 32.4634 41.0083 32.6384C41.0316 32.8134 41.0899 32.8834 40.9733 32.8834C40.8566 32.8834 40.8333 32.7901 40.8333 32.7901C40.8333 32.7901 40.7399 32.7551 40.7399 32.8017C40.7399 32.8484 40.7049 32.9417 40.7399 32.9884C40.7749 33.0351 40.6933 33.1051 40.6583 33.0701C40.6233 33.0351 40.5416 32.9301 40.5533 32.8951C40.5766 32.8601 40.3899 32.6384 40.5766 32.6034C40.7633 32.5684 40.5766 32.4634 40.6349 32.4401L40.7283 32.3934H40.8216L40.8799 32.3467L40.7283 32.3234L40.6349 32.3117L40.4599 32.3001C40.3622 32.3586 40.288 32.4494 40.2499 32.5567C40.1566 32.7317 39.9349 32.4867 40.0166 32.3934C40.0983 32.3001 39.7599 32.3817 39.7016 32.4284C39.6433 32.4751 39.4683 32.4517 39.4683 32.4517C39.4333 32.5567 39.2699 32.4401 39.3166 32.3701C39.3633 32.3001 39.3633 32.2534 39.3633 32.2534L39.3049 32.2301L39.2349 32.3701C39.0833 32.3701 39.0366 32.4634 39.0599 32.5217C39.0949 32.5801 39.0133 32.5101 38.9899 32.5917C38.9783 32.6734 39.0133 32.6734 39.0716 32.7084C39.1416 32.7434 39.0366 32.7434 39.0833 32.8017C39.1299 32.8601 39.2699 32.8017 39.1999 32.8834C39.1066 32.9651 38.9549 32.9301 38.9549 32.9301C38.9433 33.0467 38.7216 33.0117 38.6983 32.9767L38.4999 32.7317L38.2666 32.7201C38.2549 32.5567 38.3833 32.6384 38.4299 32.5101C38.4766 32.3817 38.4999 32.1601 38.4999 32.1601C38.4999 32.1601 38.3133 32.1601 38.3016 32.2067C38.2899 32.2651 38.1733 32.3117 38.1733 32.3117C38.1733 32.3117 38.0799 32.3467 38.1149 32.3934C38.1499 32.4401 38.0449 32.4634 38.0449 32.4634C38.0449 32.4634 38.0566 32.5334 38.0333 32.5684C37.9399 32.6617 37.7066 32.5684 37.6716 32.5451L37.5316 32.4867L37.3916 32.3934L37.2283 32.4634L37.1816 32.5101H37.0066L36.9949 32.6501L37.3099 32.6851L37.3333 32.9767L37.2049 32.9301H37.1233L37.0883 32.8601H37.0183V33.1051L37.0883 33.1634L37.1466 33.2217L37.2633 33.2334L37.2866 33.3851H37.5783L37.6133 33.4551H37.7883L38.1266 33.8051L38.1033 33.9217L38.0449 33.9451C38.0683 34.0267 37.8933 33.9801 37.8933 33.9801V34.0501L37.9749 34.0617L38.0566 34.1084L38.1733 33.9101C38.2899 33.8284 38.3599 33.9451 38.3716 34.0267C38.3716 34.0851 38.3133 34.0734 38.3133 34.0734V34.2484L38.3833 34.2717C38.4999 34.4117 38.3366 34.4934 38.3366 34.4934L38.3016 34.6101C38.2666 34.7151 38.1383 34.6917 38.1383 34.6917L38.0916 34.7617L37.9516 34.7967L38.2316 34.8317C38.2549 34.7384 38.3249 34.7151 38.3483 34.7617C38.3949 34.8084 38.3949 34.8901 38.3949 34.8901L38.4649 34.9017L38.4533 35.0301L38.5233 35.0534V35.4384L38.6049 35.5317C38.7449 35.4734 38.7449 35.5667 38.6749 35.6134C38.6049 35.6601 38.6516 35.8701 38.6516 35.8701L38.5933 35.9284V36.0217L38.5233 36.0684V36.2084C38.4066 36.1501 38.2666 36.1734 38.2316 36.2084C38.1149 36.1384 37.9049 36.1617 37.9049 36.2084C37.9749 36.3134 37.8233 36.3251 37.8233 36.3251L37.7416 36.4301C37.7999 36.5467 37.6833 36.5584 37.6833 36.5584V36.7917L37.5433 36.9084V37.2234C37.5433 37.3051 37.7299 37.3167 37.7649 37.2701C37.7999 37.2234 37.9399 37.3634 37.9399 37.3634H38.0449L38.0683 37.1534L37.9983 37.1184V36.7684L38.1149 36.6517C38.2549 36.5934 38.2083 36.9434 38.2083 36.9784C38.2083 37.1184 38.2783 37.0951 38.3249 37.0717C38.4416 37.0251 38.3599 37.2117 38.2666 37.1884C38.1733 37.1884 38.2316 37.3051 38.2316 37.3051L38.2899 37.3401L38.1733 37.4217L38.0916 37.5267L37.9749 37.4917L37.8349 37.4801L37.7883 37.3984L37.7066 37.3867L37.6949 37.5501L37.6366 37.6201L37.4966 37.7601C37.6833 37.7601 37.4733 37.8884 37.4266 37.8884C37.5316 37.9234 37.4149 38.0284 37.1466 37.9467V38.0284L37.0533 38.0401L37.1349 38.1451H37.2283L37.1933 38.3551C37.1933 38.5067 36.8083 38.4017 36.7733 38.3551V38.5884H36.6916L36.7033 38.7284V38.9267L36.8199 38.9034V38.9851L37.1349 38.9967L37.5899 38.5184L37.8583 38.4601C37.8816 38.3434 37.9983 38.4834 37.9983 38.4834C38.1149 38.4717 38.1383 38.5534 38.1383 38.5534L38.2899 38.5767C38.4066 38.6117 38.3366 38.6234 38.3483 38.6701C38.3483 38.7401 38.4183 38.7167 38.4183 38.7167L38.4416 38.5651L38.5116 38.5767L38.4416 38.4951L38.3133 38.4367L38.1733 38.3784C38.0799 38.2501 38.1966 38.2617 38.2899 38.2851H38.4416C38.4416 38.2851 38.6166 38.5184 38.6166 38.5767C38.6166 38.6351 38.6983 38.6467 38.6983 38.6467H38.8033L38.8383 38.7167H38.9433L38.9783 38.7867H39.1883V38.6817L39.0016 38.6467L38.9899 38.5301L38.8499 38.4951C38.8033 38.2967 38.8849 38.2384 38.9433 38.3317H39.0133L38.9899 38.1684L39.0716 38.1451L39.0483 37.8884L38.9783 37.8651V37.7834L39.2699 37.7951C39.2466 37.6434 39.2699 37.5734 39.2699 37.5734H39.3633V37.6317L39.7249 37.6667L39.9816 37.3751C39.9699 37.3517 40.0049 37.3401 39.9816 37.3167C39.9349 37.2817 39.8883 37.3167 39.8299 37.2817C39.7716 37.2467 39.8299 37.0484 39.8299 36.9901C39.8066 36.9434 40.0166 36.8734 39.9816 36.9901C39.9466 37.0834 39.9816 37.1417 39.9816 37.1417C40.1333 36.9901 40.2616 37.1417 40.2499 37.1884C40.2499 37.2234 40.3316 37.2584 40.3899 37.2234C40.4483 37.1884 40.5183 37.3284 40.5066 37.3984C40.4716 37.4684 40.2733 37.4567 40.2499 37.3867C40.2499 37.3167 40.2033 37.3401 40.1799 37.3751C40.1566 37.4101 40.0633 37.4334 39.9933 37.3984C39.9877 37.3916 39.9837 37.3836 39.9816 37.3751L39.7249 37.6667H39.7366C39.8766 37.7484 39.8066 37.8534 39.7599 37.8767C39.7133 37.9001 39.6433 37.9001 39.6433 37.9001L39.6083 37.9467L39.3049 37.9701L39.2816 38.0867C39.1416 38.0751 39.0833 38.2384 39.1183 38.3201C39.1533 38.4017 39.1183 38.4717 39.1183 38.4717L39.2349 38.5301L39.4099 38.4834C39.4333 38.3667 39.5266 38.3434 39.6199 38.2734C39.7133 38.2034 39.8649 38.3901 39.8183 38.4951C39.7716 38.5884 39.7716 38.6234 39.7716 38.6234L39.7833 38.7401L39.6666 38.7751L39.5733 38.8217V38.8801H39.2466L39.1999 38.9384L39.0483 38.9501L39.0016 39.0317H38.8849C38.8849 39.0317 38.7216 39.1251 38.7916 39.2184C38.8616 39.3117 38.4999 39.3001 38.4183 39.1717C38.3949 39.2884 38.2666 39.1717 38.2666 39.1717L38.1383 39.1484L38.1266 38.9734C38.1033 38.8567 37.8816 38.8567 37.8933 38.9384C37.8933 39.0201 37.4733 38.9734 37.4733 38.9734L37.3333 39.0317L37.2049 39.1134L37.1933 39.1717L36.9833 39.1951L36.8899 39.2417L36.8549 39.1717H36.7616L36.6683 39.2884C36.4349 39.3117 36.2016 39.4517 36.2133 39.5217C36.2366 39.5684 36.1199 39.6384 36.1199 39.6384L36.0149 39.6617L35.9449 39.7784L35.8049 39.8134L35.7816 40.0701L35.7116 40.1167V40.2217L35.6299 40.2451V40.3034H35.5133L35.5833 40.4901L35.6766 40.5367C35.8399 40.5601 35.7699 40.7701 35.7699 40.7701H35.8633L35.9099 40.8984L36.0033 41.0967C36.0383 41.2367 36.1433 41.2017 36.1899 41.1901C36.2366 41.1784 36.2833 41.3301 36.2833 41.3301L36.7499 41.3417C36.7499 41.3417 36.7266 41.3884 36.8083 41.4117C36.8899 41.4351 37.4266 41.4584 37.4499 41.4234C37.4266 41.3184 37.7416 41.2951 37.8699 41.3884C37.9866 41.4817 38.1733 41.4234 38.1733 41.4234L38.3483 41.6334L38.4649 41.9017L38.6633 41.9601L38.8033 41.9951L38.8499 42.1934H38.9549L38.9899 42.3334C39.1066 42.4267 38.9549 42.6251 38.9549 42.6251V42.8934L39.0483 42.9401L39.0366 43.0334L39.1883 43.1851H39.3633L39.7949 43.6634L40.1449 43.7801L40.2033 43.9667L40.2966 43.9551L40.3666 43.8967L40.6466 43.8851L40.7866 43.7451L40.9383 43.7217L42.2216 42.6251L42.1049 42.5551V42.2984C42.3266 42.1467 42.3383 41.8667 42.1399 41.8434C41.9883 41.8317 42.0583 41.6684 42.1983 41.6451L42.2799 41.6101V41.5051L42.5483 41.2601V41.0734L41.9649 40.5834C41.7083 40.4901 41.9649 39.9184 42.1399 39.9301C42.3149 39.9417 42.1283 39.0667 42.1283 39.0667L42.0349 39.0201L42.0583 38.7284H41.9299L41.7199 39.0084L41.6616 39.1951C41.6383 39.4401 40.9149 39.3934 40.8799 39.3584C40.8449 39.3234 40.5999 39.2184 40.5999 39.2184C40.5999 39.2184 40.4133 39.0667 40.3783 39.1017C40.3433 39.1601 40.1799 39.0551 40.1799 39.0901C40.1799 39.1251 40.0283 38.9967 40.0283 38.9967L39.7949 38.9151L39.9699 38.8801L39.9349 38.7401L40.2383 38.8917C40.2733 38.9384 40.4249 38.9267 40.4249 38.9267L40.4716 38.9851C40.4716 38.9851 40.5649 38.9851 40.6233 39.0434C40.6816 39.1251 40.9849 39.0667 40.9849 39.0667L41.0666 39.1367L41.1949 39.1834H41.5566L41.5683 38.9617L41.6383 38.8917V38.7517L41.7083 38.6817V38.5651L41.7783 38.5417L41.7899 38.2851L41.8483 38.2734V37.7017L41.6733 37.5384C41.6616 37.5967 41.4749 37.5967 41.4749 37.5967C41.4749 37.5967 41.4283 37.6784 41.3933 37.6784C41.3583 37.6784 41.4399 37.7951 41.4166 37.8534C41.3933 37.9234 41.2999 37.9234 41.2999 37.9234L41.1249 37.9701L41.0783 38.0284H40.8916L40.8683 37.8767L41.0783 37.8184L41.1949 37.7601L41.2533 37.6434C41.2649 37.5267 41.4049 37.5384 41.4049 37.5384C41.4049 37.5384 41.6733 37.3051 41.6849 37.2117C41.6966 37.0951 41.7899 36.8034 41.9533 36.8034H42.2566C42.3733 36.7567 42.3383 36.6051 42.3383 36.6051L42.4899 36.5817L42.5133 36.6634C42.5133 36.6634 42.7233 36.6867 42.7466 36.6634C42.7699 36.6167 42.8166 36.5467 42.8633 36.5701C42.9333 36.6051 43.1199 36.4884 43.1199 36.4884C43.1199 36.4067 43.4233 36.4417 43.4233 36.4417L43.4583 36.3251C43.4583 36.3251 43.2599 36.0567 43.2249 36.0567C43.1899 36.0567 42.9916 35.8934 42.9799 35.9517C42.7933 35.9051 42.8049 35.6484 42.8049 35.6484L42.7349 35.4851C42.7349 35.3917 42.5599 35.1934 42.5249 35.2167C42.4983 35.2014 42.4761 35.1793 42.4607 35.1527C42.4453 35.126 42.4372 35.0958 42.4372 35.0651C42.4372 35.0343 42.4453 35.0041 42.4607 34.9775C42.4761 34.9508 42.4983 34.9287 42.5249 34.9134C42.5716 34.9134 42.6883 34.7384 42.6883 34.7384L42.7466 34.5751L42.9449 34.5167L42.9683 34.3651L42.8516 34.3534C42.8516 34.3534 42.9683 34.1317 43.0383 34.1317C43.1083 34.1317 43.4816 34.1317 43.5049 34.1084C43.5516 34.0851 43.6216 33.8984 43.6216 33.8751C43.6216 33.8284 43.7149 33.8167 43.7383 33.8051C43.7849 33.8051 43.8549 33.7001 43.8899 33.6534C43.9133 33.6067 43.8316 33.3034 43.7733 33.3617Z" fill="white"/>
<path d="M37.3332 37.6084C37.3449 37.6084 37.3682 37.6667 37.4032 37.655C37.4382 37.655 37.4616 37.725 37.4149 37.725C37.3916 37.725 37.3916 37.76 37.3916 37.7834C37.3916 37.795 37.3916 37.8417 37.3566 37.8767C37.3332 37.9 37.3099 37.8767 37.2749 37.865C37.2399 37.8417 37.2166 37.8417 37.1699 37.8417C37.1349 37.8417 37.1699 37.9117 37.1699 37.9117C37.1699 37.9117 36.9832 37.9117 37.0182 37.8767C37.0532 37.8534 37.0882 37.8417 37.0649 37.83C37.0416 37.8067 37.0649 37.795 37.0649 37.76C37.0649 37.725 37.1466 37.7367 37.1232 37.7134C37.0999 37.69 37.1232 37.585 37.1699 37.6434L37.1932 37.585C37.1699 37.55 37.1932 37.55 37.1349 37.5267C37.0766 37.5034 37.1232 37.41 37.1232 37.41V37.3284C37.1466 37.2467 37.3216 37.235 37.3332 37.3167V37.445L37.3916 37.4684C37.3916 37.4684 37.3799 37.515 37.3332 37.515C37.2866 37.515 37.3332 37.5384 37.3099 37.5734L37.3332 37.62V37.6084ZM36.7499 37.7017C36.7849 37.655 36.8432 37.4217 36.9132 37.4917C36.9832 37.5617 37.0299 37.4917 37.0299 37.4917C37.0299 37.4917 37.0649 37.5267 37.0416 37.6084C37.0299 37.6667 37.0066 37.7367 36.9716 37.7484C36.9249 37.7484 36.8899 37.7834 36.8316 37.795C36.7849 37.795 36.7616 37.7017 36.7616 37.7017H36.7499Z" fill="white"/>
</g>
<defs>
<clipPath id="clip0_1_75266">
<rect width="74.6667" height="56" fill="white" transform="translate(0 9.375)"/>
</clipPath>
</defs>
</svg>
