<svg width="75" height="75" viewBox="0 0 75 75" fill="none" xmlns="http://www.w3.org/2000/svg">
<rect width="74.6667" height="74.75" fill="white"/>
<g clip-path="url(#clip0_1_75130)">
<path fill-rule="evenodd" clip-rule="evenodd" d="M0 9.375H106.4V13.6844H0V9.375ZM0 17.9938H106.4V22.3031H0V17.9938ZM0 26.6016H106.4V30.9219H0V26.6016ZM0 35.2203H106.4V39.5297H0V35.2203ZM0 43.8391H106.4V48.1484H0V43.8391ZM0 52.4469H106.4V56.7563H0V52.4469ZM0 61.0656H106.4V65.375H0V61.0656Z" fill="#BD3D44"/>
<path fill-rule="evenodd" clip-rule="evenodd" d="M9.15527e-05 13.6843H106.4V17.9937H9.15527e-05V13.6843ZM9.15527e-05 22.3031H106.4V26.6015H9.15527e-05V22.3031ZM9.15527e-05 30.9109H106.4V35.2203H9.15527e-05V30.9109ZM9.15527e-05 39.5296H106.4V43.839H9.15527e-05V39.5296ZM9.15527e-05 48.1484H106.4V52.4578H9.15527e-05V48.1484ZM9.15527e-05 56.7562H106.4V61.0656H9.15527e-05V56.7562Z" fill="white"/>
<path fill-rule="evenodd" clip-rule="evenodd" d="M0 9.375H42.5578V39.5297H0V9.375Z" fill="#192F5D"/>
<path fill-rule="evenodd" clip-rule="evenodd" d="M3.54382 10.6655L3.93757 11.8577H5.18445L4.1782 12.5905L4.56101 13.7937L3.54382 13.0499L2.53757 13.7827L2.92039 12.5905L1.9032 11.8577H3.17195L3.54382 10.6655ZM10.6423 10.6655L11.0251 11.8577H12.2829L11.2657 12.5905L11.6485 13.7937L10.6423 13.0499L9.62507 13.7827L10.0079 12.5905L9.00164 11.8577H10.2485L10.6423 10.6655ZM17.7298 10.6655L18.1235 11.8577H19.3594L18.3532 12.5905L18.736 13.7937L17.7188 13.0499L16.7126 13.7827L17.0954 12.5905L16.0782 11.8577H17.336L17.7298 10.6655ZM24.8282 10.6655L25.211 11.8577H26.4688L25.4516 12.5905L25.8454 13.7937L24.8282 13.0499L23.811 13.7827L24.2048 12.5905L23.1876 11.8577H24.4345L24.8282 10.6655ZM31.9157 10.6655L32.3095 11.8577H33.5563L32.5501 12.5905L32.9329 13.7937L31.9157 13.0499L30.9095 13.7827L31.2923 12.5905L30.286 11.8577H31.5329L31.9157 10.6655ZM39.0141 10.6655L39.397 11.8577H40.6548L39.6376 12.5905L40.0313 13.7937L39.0141 13.0499L37.997 13.7827L38.3907 12.5905L37.3735 11.8577H38.6313L39.0141 10.6655ZM7.09851 13.6843L7.48132 14.8765H8.73914L7.72195 15.6093L8.09382 16.8015L7.10945 16.0687L6.09226 16.8015L6.4532 15.6093L5.46882 14.8765H6.7157L7.09851 13.6843ZM14.186 13.6843L14.5798 14.8765H15.8266L14.8094 15.6093L15.2032 16.8015L14.186 16.0687L13.1688 16.8015L13.5626 15.6093L12.5454 14.8765H13.8032L14.186 13.6843ZM21.2845 13.6843L21.6673 14.8765H22.9251L21.9079 15.6093L22.2907 16.8015L21.2845 16.0687L20.2673 16.8015L20.6501 15.6093L19.6438 14.8765H20.8907L21.2845 13.6843ZM28.372 13.6843L28.7657 14.8765H30.0126L28.9954 15.6093L29.3891 16.8015L28.372 16.0687L27.3657 16.8015L27.7485 15.6093L26.7313 14.8765H28.0001L28.372 13.6843ZM35.4704 13.6843L35.8532 14.8765H37.111L36.0938 15.6093L36.4766 16.8015L35.4704 16.0687L34.4532 16.8015L34.836 15.6093L33.8298 14.8765H35.0766L35.4704 13.6843ZM3.54382 16.6921L3.93757 17.9062H5.18445L4.1782 18.639L4.56101 19.8312L3.54382 19.0874L2.53757 19.8312L2.92039 18.628L1.9032 17.8952H3.17195L3.54382 16.6921ZM10.6423 16.6921L11.0251 17.8952H12.2829L11.2657 18.628L11.6485 19.8202L10.6423 19.0765L9.62507 19.8202L10.0079 18.6171L9.00164 17.8843H10.2485L10.6423 16.6921ZM17.7298 16.6921L18.1235 17.8952H19.3594L18.3532 18.628L18.736 19.8202L17.7188 19.0765L16.7126 19.8202L17.0954 18.6171L16.0782 17.8843H17.336L17.7298 16.6921ZM24.8282 16.6921L25.211 17.8952H26.4688L25.4516 18.628L25.8454 19.8202L24.8282 19.0765L23.811 19.8202L24.2048 18.6171L23.1876 17.8843H24.4345L24.8282 16.6921ZM31.9157 16.6921L32.3095 17.8952H33.5563L32.5501 18.628L32.9329 19.8202L31.9157 19.0765L30.9095 19.8202L31.2923 18.6171L30.286 17.8843H31.5329L31.9157 16.6921ZM39.0141 16.6921L39.397 17.8952H40.6548L39.6376 18.628L40.0313 19.8202L39.0141 19.0765L37.997 19.8202L38.3907 18.6171L37.3735 17.8843H38.6313L39.0141 16.6921ZM7.09851 19.7108L7.48132 20.903H8.73914L7.72195 21.6358L8.10476 22.839L7.09851 22.0952L6.08132 22.828L6.46414 21.6358L5.45789 20.903H6.70476L7.09851 19.7108ZM14.186 19.7108L14.5798 20.903H15.8266L14.8094 21.6358L15.2032 22.839L14.186 22.0952L13.1688 22.828L13.5626 21.6358L12.5454 20.903H13.8032L14.186 19.7108ZM21.2845 19.7108L21.6673 20.903H22.9251L21.9079 21.6358L22.2907 22.839L21.2845 22.0952L20.2673 22.828L20.6501 21.6358L19.6438 20.903H20.8907L21.2845 19.7108ZM28.372 19.7108L28.7657 20.903H30.0126L29.0063 21.6358L29.3891 22.839L28.372 22.0952L27.3657 22.828L27.7485 21.6358L26.7313 20.903H28.0001L28.372 19.7108ZM35.4704 19.7108L35.8532 20.903H37.111L36.0938 21.6358L36.4766 22.839L35.4704 22.0952L34.4532 22.828L34.836 21.6358L33.8298 20.903H35.0766L35.4704 19.7108ZM3.54382 22.7296L3.93757 23.9218H5.18445L4.1782 24.6546L4.56101 25.8577L3.54382 25.114L2.53757 25.8468L2.92039 24.6546L1.9032 23.9218H3.17195L3.54382 22.7296ZM10.6423 22.7296L11.0251 23.9218H12.2829L11.2657 24.6546L11.6485 25.8468L10.6423 25.114L9.62507 25.8468L10.0079 24.6546L9.00164 23.9218H10.2485L10.6423 22.7296ZM17.7298 22.7296L18.1235 23.9218H19.3594L18.3532 24.6546L18.736 25.8577L17.7188 25.114L16.7126 25.8468L17.0954 24.6546L16.0782 23.9218H17.336L17.7298 22.7296ZM24.8282 22.7296L25.211 23.9218H26.4688L25.4516 24.6546L25.8454 25.8577L24.8282 25.114L23.811 25.8468L24.2048 24.6546L23.1876 23.9218H24.4345L24.8282 22.7296ZM31.9157 22.7296L32.3095 23.9218H33.5563L32.5501 24.6546L32.9329 25.8577L31.9157 25.114L30.9095 25.8468L31.2923 24.6546L30.286 23.9218H31.5329L31.9157 22.7296ZM39.0141 22.7296L39.397 23.9218H40.6548L39.6376 24.6546L40.0313 25.8577L39.0141 25.114L37.997 25.8468L38.3907 24.6546L37.3735 23.9218H38.6313L39.0141 22.7296ZM7.09851 25.7483L7.48132 26.9405H8.73914L7.72195 27.6733L8.10476 28.8655L7.09851 28.1218L6.08132 28.8655L6.46414 27.6624L5.45789 26.9296H6.70476L7.09851 25.7483ZM14.186 25.7483L14.5798 26.9405H15.8266L14.8094 27.6733L15.2032 28.8655L14.186 28.1218L13.1688 28.8655L13.5626 27.6624L12.5454 26.9296H13.8032L14.186 25.7483ZM21.2845 25.7483L21.6673 26.9405H22.9251L21.9079 27.6733L22.2907 28.8655L21.2845 28.1218L20.2673 28.8655L20.6501 27.6624L19.6438 26.9296H20.8907L21.2845 25.7483ZM28.372 25.7483L28.7657 26.9405H30.0126L29.0063 27.6733L29.3891 28.8655L28.372 28.1218L27.3657 28.8655L27.7485 27.6624L26.7313 26.9296H28.0001L28.372 25.7483ZM35.4704 25.7483L35.8532 26.9405H37.111L36.0938 27.6733L36.4766 28.8655L35.4704 28.1218L34.4532 28.8655L34.836 27.6624L33.8298 26.9296H35.0766L35.4704 25.7483ZM3.54382 28.7562L3.93757 29.9593H5.18445L4.1782 30.6921L4.56101 31.8733L3.54382 31.1405L2.53757 31.8733L2.92039 30.6812L1.9032 29.9483H3.17195L3.54382 28.7562ZM10.6423 28.7562L11.0251 29.9593H12.2829L11.2657 30.6921L11.6594 31.8733L10.6423 31.1405L9.62507 31.8733L10.0188 30.6812L9.00164 29.9483H10.2485L10.6423 28.7562ZM17.7298 28.7562L18.1235 29.9593H19.3594L18.3532 30.6921L18.736 31.8733L17.7188 31.1405L16.7126 31.8733L17.0954 30.6812L16.0782 29.9483H17.336L17.7298 28.7562ZM24.8282 28.7562L25.211 29.9593H26.4688L25.4516 30.6921L25.8454 31.8733L24.8282 31.1405L23.811 31.8733L24.2048 30.6812L23.1876 29.9483H24.4345L24.8282 28.7562ZM31.9157 28.7562L32.3095 29.9593H33.5563L32.5501 30.6921L32.9329 31.8733L31.9157 31.1405L30.9095 31.8733L31.2923 30.6812L30.286 29.9483H31.5329L31.9157 28.7562ZM39.0141 28.7562L39.397 29.9593H40.6548L39.6376 30.6921L40.0313 31.8733L39.0141 31.1405L37.997 31.8733L38.3907 30.6812L37.3735 29.9483H38.6313L39.0141 28.7562ZM7.09851 31.7749L7.48132 32.9671H8.73914L7.72195 33.6999L8.10476 34.903L7.09851 34.1593L6.08132 34.8921L6.46414 33.6999L5.45789 32.9671H6.70476L7.09851 31.7749ZM14.186 31.7749L14.5798 32.9671H15.8266L14.8094 33.6999L15.2032 34.903L14.186 34.1593L13.1688 34.8921L13.5626 33.6999L12.5454 32.9671H13.8032L14.186 31.7749ZM21.2845 31.7749L21.6673 32.9671H22.9251L21.9079 33.6999L22.2907 34.903L21.2845 34.1593L20.2673 34.8921L20.6501 33.6999L19.6438 32.9671H20.8907L21.2845 31.7749ZM28.372 31.7749L28.7657 32.9671H30.0126L29.0063 33.6999L29.3891 34.903L28.372 34.1593L27.3657 34.8921L27.7485 33.6999L26.7313 32.9671H28.0001L28.372 31.7749ZM35.4704 31.7749L35.8532 32.9671H37.111L36.0938 33.6999L36.4766 34.903L35.4704 34.1593L34.4532 34.8921L34.836 33.6999L33.8298 32.9671H35.0766L35.4704 31.7749ZM3.54382 34.7936L3.93757 35.9858H5.18445L4.1782 36.7187L4.56101 37.9108L3.54382 37.178L2.53757 37.9108L2.92039 36.7077L1.9032 35.9749H3.17195L3.54382 34.7936ZM10.6423 34.7936L11.0251 35.9858H12.2829L11.2657 36.7187L11.6594 37.9108L10.6423 37.178L9.62507 37.9108L10.0188 36.7077L9.00164 35.9749H10.2485L10.6423 34.7936ZM17.7298 34.7936L18.1235 35.9858H19.3594L18.3751 36.7187L18.7579 37.9108L17.7407 37.178L16.7345 37.9108L17.1173 36.7077L16.1001 35.9749H17.3579L17.7298 34.7936ZM24.8282 34.7936L25.211 35.9858H26.4688L25.4516 36.7187L25.8454 37.9108L24.8282 37.178L23.811 37.9108L24.2048 36.7077L23.1876 35.9749H24.4345L24.8282 34.7936ZM31.9157 34.7936L32.3095 35.9858H33.5563L32.5501 36.7187L32.9329 37.9108L31.9157 37.178L30.9095 37.9108L31.2923 36.7077L30.286 35.9749H31.5329L31.9157 34.7936ZM39.0141 34.7936L39.397 35.9858H40.6548L39.6376 36.7187L40.0313 37.9108L39.0141 37.178L37.997 37.9108L38.3907 36.7077L37.3735 35.9749H38.6313L39.0141 34.7936Z" fill="white"/>
</g>
<defs>
<clipPath id="clip0_1_75130">
<rect width="74.6667" height="56" fill="white" transform="translate(0 9.375)"/>
</clipPath>
</defs>
</svg>
