<svg width="75" height="75" viewBox="0 0 75 75" fill="none" xmlns="http://www.w3.org/2000/svg">
<rect width="74.6667" height="74.75" fill="white"/>
<g clip-path="url(#clip0_1_75271)">
<path d="M0 9.375H74.6667V65.375H0V9.375Z" fill="white"/>
<path d="M31.0333 15.5933H74.6667V21.8233H31.0333V15.5933ZM31.0333 28.0416H74.6667V34.2599H31.0333V28.0416ZM0 40.4899H74.6667V46.7083H0V40.4899ZM0 52.9266H74.6667V59.1566H0V52.9266Z" fill="#0038A8"/>
<path d="M14.847 27.9683L15.8772 29.5059C11.6457 32.5684 14.2287 34.3791 11.2303 35.3603C13.0958 33.5403 10.9363 33.3863 12.5078 29.5923" fill="#FCD116"/>
<path d="M14.847 27.9683L15.8772 29.5059C11.6457 32.5684 14.2287 34.3791 11.2303 35.3603C13.0958 33.5403 10.9363 33.3863 12.5078 29.5923" stroke="black" stroke-width="0.205333" stroke-miterlimit="58.67" stroke-linecap="square"/>
<path d="M14.1109 28.4045C11.7764 32.2534 13.307 34.3685 11.2292 35.3602" stroke="black" stroke-width="0.205333" stroke-miterlimit="58.67"/>
<path d="M15.5517 24.9268H17.605L15.5517 36.2201L13.4984 24.9268H15.5517V36.2201V24.9268Z" fill="#FCD116"/>
<path d="M15.5517 24.9268H17.605L15.5517 36.2201L13.4984 24.9268H15.5517ZM15.5517 24.9268V36.2201" stroke="black" stroke-width="0.205333" stroke-miterlimit="58.67"/>
<path d="M12.9022 26.5798L12.5428 28.3952C7.385 27.568 7.931 30.676 5.117 29.248C7.72334 29.2795 6.30467 27.645 10.0987 26.0735" fill="#FCD116"/>
<path d="M12.9022 26.5798L12.5428 28.3952C7.385 27.568 7.931 30.676 5.117 29.248C7.72334 29.2795 6.30467 27.645 10.0987 26.0735" stroke="black" stroke-width="0.205333" stroke-miterlimit="58.67" stroke-linecap="square"/>
<path d="M12.0738 26.3674C7.70116 27.4373 7.28816 30.0168 5.11816 29.2491" stroke="black" stroke-width="0.205333" stroke-miterlimit="58.67"/>
<path d="M15.5517 24.9267L17.0042 26.3792L7.56702 32.9125L14.1003 23.4753L15.5528 24.9278L7.56702 32.9137" fill="#FCD116"/>
<path d="M15.5517 24.9267L17.0042 26.3792L7.56702 32.9125L14.1003 23.4753L15.5528 24.9278L7.56702 32.9137" stroke="black" stroke-width="0.205333" stroke-miterlimit="58.67"/>
<path d="M12.5102 24.2219L10.9725 25.2521C7.91 21.0206 6.09933 23.6036 5.11816 20.6052C6.93816 22.4707 7.09216 20.3112 10.8862 21.8827" fill="#FCD116"/>
<path d="M12.5102 24.2219L10.9725 25.2521C7.91 21.0206 6.09933 23.6036 5.11816 20.6052C6.93816 22.4707 7.09216 20.3112 10.8862 21.8827" stroke="black" stroke-width="0.205333" stroke-miterlimit="58.67" stroke-linecap="square"/>
<path d="M12.0738 23.4859C8.225 21.1514 6.10983 22.6821 5.11816 20.6042" stroke="black" stroke-width="0.205333" stroke-miterlimit="58.67"/>
<path d="M15.5517 24.9266V26.98L4.25836 24.9266L15.5517 22.8733V24.9266H4.25836H15.5517Z" fill="#FCD116"/>
<path d="M15.5517 24.9266V26.98L4.25836 24.9266L15.5517 22.8733V24.9266ZM15.5517 24.9266H4.25836" stroke="black" stroke-width="0.205333" stroke-miterlimit="58.67"/>
<path d="M13.8985 22.2771L12.0832 21.9178C12.9103 16.7599 9.80233 17.3059 11.2303 14.4919C11.1988 17.0983 12.8333 15.6796 14.4048 19.4736" fill="#FCD116"/>
<path d="M13.8985 22.2771L12.0832 21.9178C12.9103 16.7599 9.80233 17.3059 11.2303 14.4919C11.1988 17.0983 12.8333 15.6796 14.4048 19.4736" stroke="black" stroke-width="0.205333" stroke-miterlimit="58.67" stroke-linecap="square"/>
<path d="M14.1108 21.4488C13.041 17.0762 10.4615 16.6632 11.2292 14.4932" stroke="black" stroke-width="0.205333" stroke-miterlimit="58.67"/>
<path d="M15.5517 24.9268L14.0992 26.3793L7.56586 16.9421L17.003 23.4754L15.5505 24.9279L7.56586 16.9409" fill="#FCD116"/>
<path d="M15.5517 24.9268L14.0992 26.3793L7.56586 16.9421L17.003 23.4754L15.5505 24.9279L7.56586 16.9409" stroke="black" stroke-width="0.205333" stroke-miterlimit="58.67"/>
<path d="M16.2564 21.8852L15.2262 20.3475C19.4577 17.285 16.8747 15.4743 19.873 14.4932C18.0075 16.3132 20.167 16.4672 18.5955 20.2612" fill="#FCD116"/>
<path d="M16.2564 21.8852L15.2262 20.3475C19.4577 17.285 16.8747 15.4743 19.873 14.4932C18.0075 16.3132 20.167 16.4672 18.5955 20.2612" stroke="black" stroke-width="0.205333" stroke-miterlimit="58.67" stroke-linecap="square"/>
<path d="M16.9925 21.4488C19.327 17.6 17.7963 15.4848 19.8742 14.4932" stroke="black" stroke-width="0.205333" stroke-miterlimit="58.67"/>
<path d="M15.5517 24.9266H13.4984L15.5517 13.6333L17.605 24.9266H15.5517V13.6333V24.9266Z" fill="#FCD116"/>
<path d="M15.5517 24.9266H13.4984L15.5517 13.6333L17.605 24.9266H15.5517ZM15.5517 24.9266V13.6333" stroke="black" stroke-width="0.205333" stroke-miterlimit="58.67"/>
<path d="M18.2012 23.2734L18.5605 21.458C23.7183 22.2852 23.1723 19.1772 25.9863 20.6052C23.38 20.5737 24.7987 22.2082 21.0047 23.7797" fill="#FCD116"/>
<path d="M18.2012 23.2734L18.5605 21.458C23.7183 22.2852 23.1723 19.1772 25.9863 20.6052C23.38 20.5737 24.7987 22.2082 21.0047 23.7797" stroke="black" stroke-width="0.205333" stroke-miterlimit="58.67" stroke-linecap="square"/>
<path d="M19.0295 23.4858C23.4021 22.4159 23.8151 19.8364 25.9851 20.6041" stroke="black" stroke-width="0.205333" stroke-miterlimit="58.67"/>
<path d="M15.5517 24.9267L14.0992 23.4742L23.5363 16.9409L17.003 26.378L15.5505 24.9255L23.5363 16.9397" fill="#FCD116"/>
<path d="M15.5517 24.9267L14.0992 23.4742L23.5363 16.9409L17.003 26.378L15.5505 24.9255L23.5363 16.9397" stroke="black" stroke-width="0.205333" stroke-miterlimit="58.67"/>
<path d="M18.5932 25.6312L20.1309 24.6011C23.1934 28.8326 25.004 26.2496 25.9852 29.2479C24.1652 27.3824 24.0112 29.5419 20.2172 27.9704" fill="#FCD116"/>
<path d="M18.5932 25.6312L20.1309 24.6011C23.1934 28.8326 25.004 26.2496 25.9852 29.2479C24.1652 27.3824 24.0112 29.5419 20.2172 27.9704" stroke="black" stroke-width="0.205333" stroke-miterlimit="58.67" stroke-linecap="square"/>
<path d="M19.0295 26.3674C22.8783 28.7019 24.9935 27.1713 25.9851 29.2491" stroke="black" stroke-width="0.205333" stroke-miterlimit="58.67"/>
<path d="M15.5517 24.9266V22.8733L26.845 24.9266L15.5517 26.98V24.9266H26.845H15.5517Z" fill="#FCD116"/>
<path d="M15.5517 24.9266V22.8733L26.845 24.9266L15.5517 26.98V24.9266ZM15.5517 24.9266H26.845" stroke="black" stroke-width="0.205333" stroke-miterlimit="58.67"/>
<path d="M17.2048 27.5762L19.0202 27.9355C18.193 33.0933 21.301 32.5473 19.873 35.3613C19.9045 32.755 18.27 34.1737 16.6985 30.3797" fill="#FCD116"/>
<path d="M17.2048 27.5762L19.0202 27.9355C18.193 33.0933 21.301 32.5473 19.873 35.3613C19.9045 32.755 18.27 34.1737 16.6985 30.3797" stroke="black" stroke-width="0.205333" stroke-miterlimit="58.67" stroke-linecap="square"/>
<path d="M16.9925 28.4045C18.0623 32.7772 20.6418 33.1902 19.8742 35.3602" stroke="black" stroke-width="0.205333" stroke-miterlimit="58.67"/>
<path d="M15.5517 24.9266L17.0042 23.4741L23.5375 32.9113L14.1003 26.378L15.5528 24.9255L23.5387 32.9113" fill="#FCD116"/>
<path d="M15.5517 24.9266L17.0042 23.4741L23.5375 32.9113L14.1003 26.378L15.5528 24.9255L23.5387 32.9113" stroke="black" stroke-width="0.205333" stroke-miterlimit="58.67"/>
<path d="M15.5517 28.6915C17.631 28.6915 19.3165 27.006 19.3165 24.9267C19.3165 22.8474 17.631 21.1619 15.5517 21.1619C13.4724 21.1619 11.7869 22.8474 11.7869 24.9267C11.7869 27.006 13.4724 28.6915 15.5517 28.6915Z" fill="#FCD116" stroke="black" stroke-width="0.205333" stroke-miterlimit="58.67"/>
<path d="M18.3237 23.4204C18.0845 23.6945 17.9468 23.215 17.0917 23.215C16.2365 23.215 16.0988 23.7284 15.9623 23.6257C15.8258 23.523 16.681 22.907 16.9552 22.8732C17.2293 22.8394 18.0157 23.1124 18.3237 23.4204ZM17.3308 23.7284C17.57 23.9337 17.3647 24.3782 17.1255 24.3782C16.8863 24.3782 16.4407 23.9675 16.646 23.6934" fill="black"/>
<path d="M16.2015 24.0366C16.2354 23.626 16.5784 23.5571 17.1255 23.5571C17.6727 23.5571 17.913 23.9678 18.1184 24.0705C17.8792 24.0705 17.6739 23.7286 17.1255 23.7286C16.5772 23.7286 16.5784 23.7286 16.2015 24.0705M16.3042 24.1393C16.4407 23.934 16.6122 24.3446 16.989 24.3446C17.3659 24.3446 17.5712 24.242 17.8104 24.0705C18.0495 23.899 17.4685 24.4811 17.0917 24.4811C16.7149 24.4811 16.2015 24.2758 16.3042 24.1393Z" fill="black"/>
<path d="M17.4685 24.3444C17.913 24.1052 17.64 23.7622 17.4685 23.6946C17.5374 23.7634 17.8104 24.1052 17.4685 24.3444ZM15.5517 26.3977C15.757 26.3977 15.8259 26.3289 16.0989 26.3289C16.3719 26.3289 17.0229 26.7057 17.3997 26.5681C16.6122 26.8761 16.9202 26.6707 15.5517 26.6707H15.3802M17.5362 26.8761C17.3997 26.6369 17.4335 26.7046 17.1594 26.3289C17.4335 26.5342 17.5012 26.6369 17.5362 26.8761ZM15.5517 27.2179C16.4069 27.2179 16.2704 27.0464 17.3997 26.5681C16.5784 26.6707 16.4069 26.9449 15.5517 26.9449H15.3802M15.5517 25.9521C15.7909 25.9521 15.8597 25.7806 16.1339 25.7806C16.408 25.7806 16.7837 25.8832 16.9552 26.0197C16.989 26.0536 16.8525 25.7456 16.5784 25.7117C16.3042 25.6779 16.4069 25.2322 16.0989 25.1646C16.0989 25.3011 16.2015 25.2672 16.2354 25.4726C16.2354 25.6441 15.9274 25.6441 15.8585 25.4726C15.9274 25.7467 15.722 25.7467 15.5505 25.7467" fill="black"/>
<path d="M12.7797 23.4204C13.0188 23.6945 13.1565 23.215 14.0117 23.215C14.8668 23.215 15.0045 23.7284 15.141 23.6257C15.2775 23.523 14.4223 22.907 14.1482 22.8732C13.874 22.8394 13.0877 23.1124 12.7797 23.4204ZM13.7725 23.7284C13.5333 23.9337 13.7387 24.3782 13.9778 24.3782C14.217 24.3782 14.6627 23.9675 14.4573 23.6934" fill="black"/>
<path d="M14.9018 24.0366C14.868 23.626 14.525 23.5571 13.9778 23.5571C13.4307 23.5571 13.1903 23.9678 12.985 24.0705C13.2242 24.0705 13.4295 23.7286 13.9778 23.7286C14.5262 23.7286 14.525 23.7286 14.9018 24.0705M14.7992 24.1393C14.6627 23.934 14.4912 24.3446 14.1143 24.3446C13.7375 24.3446 13.5322 24.242 13.293 24.0705C13.0538 23.899 13.6348 24.4811 14.0117 24.4811C14.3885 24.4811 14.9018 24.2758 14.7992 24.1393Z" fill="black"/>
<path d="M13.6349 24.3444C13.1904 24.1052 13.4634 23.7622 13.6349 23.6946C13.566 23.7634 13.293 24.1052 13.6349 24.3444ZM15.5517 26.3977C15.3464 26.3977 15.2775 26.3289 15.0045 26.3289C14.7315 26.3289 14.0805 26.7057 13.7037 26.5681C14.4912 26.8761 14.1832 26.6707 15.5517 26.6707H15.7232M13.5672 26.8761C13.7037 26.6369 13.6699 26.7046 13.944 26.3289C13.6699 26.5342 13.6022 26.6369 13.5672 26.8761ZM15.5517 27.2179C14.6965 27.2179 14.833 27.0464 13.7037 26.5681C14.525 26.6707 14.6965 26.9449 15.5517 26.9449H15.7232M15.5517 25.9521C15.3125 25.9521 15.2437 25.7806 14.9695 25.7806C14.6954 25.7806 14.3197 25.8832 14.1482 26.0197C14.1144 26.0536 14.2509 25.7456 14.525 25.7117C14.7992 25.6779 14.6965 25.2322 15.0045 25.1646C15.0045 25.3011 14.9019 25.2672 14.868 25.4726C14.868 25.6441 15.176 25.6441 15.2449 25.4726C15.176 25.7467 15.3814 25.7467 15.5529 25.7467" fill="black"/>
<path d="M15.5517 27.5271C15.3802 27.5271 14.9357 27.6298 15.5517 27.6298C16.1677 27.6298 15.7232 27.5271 15.5517 27.5271Z" fill="black"/>
</g>
<defs>
<clipPath id="clip0_1_75271">
<rect width="74.6667" height="56" fill="white" transform="translate(0 9.375)"/>
</clipPath>
</defs>
</svg>
