<svg width="75" height="75" viewBox="0 0 75 75" fill="none" xmlns="http://www.w3.org/2000/svg">
<rect width="74.6667" height="74.75" fill="white"/>
<g clip-path="url(#clip0_1_76222)">
<path d="M0 46.7083H74.6667V65.3749H0V46.7083Z" fill="#1EB53A"/>
<path d="M0 9.375H74.6667V28.0417H0V9.375Z" fill="#0099B5"/>
<path d="M0 27.2949H74.6667V47.4549H0V27.2949Z" fill="#CE1126"/>
<path d="M0 28.415H74.6667V46.335H0V28.415Z" fill="white"/>
<path d="M15.68 25.055C19.3914 25.055 22.4 22.0463 22.4 18.335C22.4 14.6236 19.3914 11.615 15.68 11.615C11.9687 11.615 8.96002 14.6236 8.96002 18.335C8.96002 22.0463 11.9687 25.055 15.68 25.055Z" fill="white"/>
<path d="M17.92 25.055C21.6314 25.055 24.64 22.0463 24.64 18.335C24.64 14.6236 21.6314 11.615 17.92 11.615C14.2087 11.615 11.2 14.6236 11.2 18.335C11.2 22.0463 14.2087 25.055 17.92 25.055Z" fill="#0099B5"/>
<path d="M30.4617 22.3694L30.0358 23.6457L30.6857 23.8697" fill="white"/>
<path d="M30.4617 22.3694L30.8875 23.6457L30.2377 23.8697" fill="white"/>
<path d="M31.7403 23.2981L30.394 23.2876L30.3812 23.9748" fill="white"/>
<path d="M31.7404 23.2981L30.6577 24.0973L30.2435 23.5489" fill="white"/>
<path d="M29.183 23.2981L30.2657 24.0973L30.6798 23.5489" fill="white"/>
<path d="M29.183 23.2981L30.5293 23.2876L30.5422 23.9748" fill="white"/>
<path d="M31.2515 24.8007L30.8455 23.5173L30.1887 23.718" fill="white"/>
<path d="M31.2515 24.8007L30.1572 24.0178L30.5515 23.4543" fill="white"/>
<path d="M29.6719 24.8007L30.7662 24.0178L30.3719 23.4543" fill="white"/>
<path d="M29.6719 24.8007L30.0779 23.5173L30.7347 23.718" fill="white"/>
<path d="M30.4617 16.9934L30.0358 18.2697L30.6857 18.4937" fill="white"/>
<path d="M30.4617 16.9934L30.8875 18.2697L30.2377 18.4937" fill="white"/>
<path d="M31.7403 17.9219L30.394 17.9114L30.3812 18.5985" fill="white"/>
<path d="M31.7404 17.9221L30.6577 18.7213L30.2435 18.173" fill="white"/>
<path d="M29.183 17.9221L30.2657 18.7213L30.6798 18.173" fill="white"/>
<path d="M29.183 17.9219L30.5293 17.9114L30.5422 18.5985" fill="white"/>
<path d="M31.2515 19.4247L30.8455 18.1414L30.1887 18.342" fill="white"/>
<path d="M31.2515 19.4247L30.1572 18.6419L30.5515 18.0784" fill="white"/>
<path d="M29.6719 19.4247L30.7662 18.6419L30.3719 18.0784" fill="white"/>
<path d="M30.4617 11.6174L30.0358 12.8938L30.6857 13.1178" fill="white"/>
<path d="M30.4617 11.6174L30.8875 12.8938L30.2377 13.1178" fill="white"/>
<path d="M31.7403 12.5459L30.394 12.5354L30.3812 13.2226" fill="white"/>
<path d="M31.7404 12.5459L30.6577 13.3451L30.2435 12.7967" fill="white"/>
<path d="M29.183 12.5459L30.2657 13.3451L30.6798 12.7967" fill="white"/>
<path d="M29.183 12.5459L30.5293 12.5354L30.5422 13.2226" fill="white"/>
<path d="M31.2515 14.0487L30.8455 12.7654L30.1887 12.966" fill="white"/>
<path d="M31.2515 14.0487L30.1572 13.2659L30.5515 12.7024" fill="white"/>
<path d="M29.6719 14.0487L30.7662 13.2659L30.3719 12.7024" fill="white"/>
<path d="M35.8377 22.3694L35.4119 23.6457L36.0617 23.8697" fill="white"/>
<path d="M35.8376 22.3694L36.2635 23.6457L35.6136 23.8697" fill="white"/>
<path d="M37.1164 23.2981L35.77 23.2876L35.7572 23.9748" fill="white"/>
<path d="M37.1163 23.2981L36.0337 24.0973L35.6195 23.5489" fill="white"/>
<path d="M34.559 23.2981L35.6417 24.0973L36.0559 23.5489" fill="white"/>
<path d="M34.559 23.2981L35.9054 23.2876L35.9182 23.9748" fill="white"/>
<path d="M36.6275 24.8007L36.2215 23.5173L35.5647 23.718" fill="white"/>
<path d="M36.6275 24.8007L35.5332 24.0178L35.9275 23.4543" fill="white"/>
<path d="M35.0479 24.8007L36.1422 24.0178L35.7479 23.4543" fill="white"/>
<path d="M35.8377 16.9934L35.4119 18.2697L36.0617 18.4937" fill="white"/>
<path d="M35.8376 16.9934L36.2635 18.2697L35.6136 18.4937" fill="white"/>
<path d="M37.1164 17.9219L35.77 17.9114L35.7572 18.5985" fill="white"/>
<path d="M34.559 17.9221L35.6417 18.7213L36.0559 18.173" fill="white"/>
<path d="M34.559 17.9219L35.9054 17.9114L35.9182 18.5985" fill="white"/>
<path d="M36.6275 19.4247L36.2215 18.1414L35.5647 18.342" fill="white"/>
<path d="M35.0479 19.4247L36.1422 18.6419L35.7479 18.0784" fill="white"/>
<path d="M35.8377 11.6174L35.4119 12.8938L36.0617 13.1178" fill="white"/>
<path d="M35.8376 11.6174L36.2635 12.8938L35.6136 13.1178" fill="white"/>
<path d="M37.1164 12.5459L35.77 12.5354L35.7572 13.2226" fill="white"/>
<path d="M34.559 12.5459L35.6417 13.3451L36.0559 12.7967" fill="white"/>
<path d="M34.559 12.5459L35.9054 12.5354L35.9182 13.2226" fill="white"/>
<path d="M36.6275 14.0487L36.2215 12.7654L35.5647 12.966" fill="white"/>
<path d="M35.0479 14.0487L36.1422 13.2659L35.7479 12.7024" fill="white"/>
<path d="M41.2137 22.3694L40.7878 23.6457L41.4377 23.8697" fill="white"/>
<path d="M41.2137 22.3694L41.6395 23.6457L40.9897 23.8697" fill="white"/>
<path d="M42.4923 23.2981L41.146 23.2876L41.1332 23.9748" fill="white"/>
<path d="M42.4923 23.2981L41.4096 24.0973L40.9955 23.5489" fill="white"/>
<path d="M39.935 23.2981L41.0177 24.0973L41.4318 23.5489" fill="white"/>
<path d="M39.935 23.2981L41.2813 23.2876L41.2942 23.9748" fill="white"/>
<path d="M42.0035 24.8007L41.5975 23.5173L40.9407 23.718" fill="white"/>
<path d="M42.0035 24.8007L40.9092 24.0178L41.3035 23.4543" fill="white"/>
<path d="M40.4238 24.8007L41.5182 24.0178L41.1238 23.4543" fill="white"/>
<path d="M41.2137 16.9934L40.7878 18.2697L41.4377 18.4937" fill="white"/>
<path d="M41.2137 16.9934L41.6395 18.2697L40.9897 18.4937" fill="white"/>
<path d="M42.4923 17.9219L41.146 17.9114L41.1332 18.5985" fill="white"/>
<path d="M39.935 17.9221L41.0177 18.7213L41.4318 18.173" fill="white"/>
<path d="M39.935 17.9219L41.2813 17.9114L41.2942 18.5985" fill="white"/>
<path d="M42.0035 19.4247L41.5975 18.1414L40.9407 18.342" fill="white"/>
<path d="M40.4239 19.4247L41.5182 18.6419L41.1239 18.0784" fill="white"/>
<path d="M41.2137 11.6174L40.7878 12.8938L41.4377 13.1178" fill="white"/>
<path d="M41.2137 11.6174L41.6395 12.8938L40.9897 13.1178" fill="white"/>
<path d="M42.4923 12.5459L41.146 12.5354L41.1332 13.2226" fill="white"/>
<path d="M39.935 12.5459L41.0177 13.3451L41.4318 12.7967" fill="white"/>
<path d="M39.935 12.5459L41.2813 12.5354L41.2942 13.2226" fill="white"/>
<path d="M42.0035 14.0487L41.5975 12.7654L40.9407 12.966" fill="white"/>
<path d="M40.4239 14.0487L41.5182 13.2659L41.1239 12.7024" fill="white"/>
<path d="M19.7096 22.3694L19.2838 23.6457L19.9336 23.8697" fill="white"/>
<path d="M19.7097 22.3694L20.1355 23.6457L19.4857 23.8697" fill="white"/>
<path d="M20.9883 23.2981L19.642 23.2876L19.6292 23.9748" fill="white"/>
<path d="M20.9883 23.2981L19.9057 24.0973L19.4915 23.5489" fill="white"/>
<path d="M18.431 23.2981L19.5137 24.0973L19.9279 23.5489" fill="white"/>
<path d="M18.431 23.2981L19.7774 23.2876L19.7902 23.9748" fill="white"/>
<path d="M20.4995 24.8007L20.0935 23.5173L19.4367 23.718" fill="white"/>
<path d="M20.4995 24.8007L19.4052 24.0178L19.7995 23.4543" fill="white"/>
<path d="M18.9199 24.8007L20.0142 24.0178L19.6199 23.4543" fill="white"/>
<path d="M18.9199 24.8007L19.3259 23.5173L19.9827 23.718" fill="white"/>
<path d="M25.0857 22.3694L24.6599 23.6457L25.3097 23.8697" fill="white"/>
<path d="M25.0857 22.3694L25.5115 23.6457L24.8617 23.8697" fill="white"/>
<path d="M26.3644 23.2981L25.018 23.2876L25.0052 23.9748" fill="white"/>
<path d="M26.3643 23.2981L25.2817 24.0973L24.8675 23.5489" fill="white"/>
<path d="M23.807 23.2981L24.8897 24.0973L25.3038 23.5489" fill="white"/>
<path d="M23.807 23.2981L25.1533 23.2876L25.1662 23.9748" fill="white"/>
<path d="M25.8755 24.8007L25.4695 23.5173L24.8127 23.718" fill="white"/>
<path d="M25.8755 24.8007L24.7812 24.0178L25.1755 23.4543" fill="white"/>
<path d="M24.2958 24.8007L25.3902 24.0178L24.9958 23.4543" fill="white"/>
<path d="M24.2958 24.8007L24.7018 23.5173L25.3587 23.718" fill="white"/>
<path d="M25.0857 16.9934L24.6599 18.2697L25.3097 18.4937" fill="white"/>
<path d="M25.0857 16.9934L25.5115 18.2697L24.8617 18.4937" fill="white"/>
<path d="M26.3644 17.9219L25.018 17.9114L25.0052 18.5985" fill="white"/>
<path d="M26.3643 17.9221L25.2817 18.7213L24.8675 18.173" fill="white"/>
<path d="M23.807 17.9221L24.8897 18.7213L25.3038 18.173" fill="white"/>
<path d="M23.807 17.9219L25.1533 17.9114L25.1662 18.5985" fill="white"/>
<path d="M25.8755 19.4247L25.4695 18.1414L24.8127 18.342" fill="white"/>
<path d="M25.8755 19.4247L24.7812 18.6419L25.1755 18.0784" fill="white"/>
<path d="M24.2958 19.4247L25.3902 18.6419L24.9958 18.0784" fill="white"/>
<path d="M24.2958 19.4247L24.7018 18.1414L25.3587 18.342" fill="white"/>
</g>
<defs>
<clipPath id="clip0_1_76222">
<rect width="74.6667" height="56" fill="white" transform="translate(0 9.375)"/>
</clipPath>
</defs>
</svg>
