<svg width="75" height="75" viewBox="0 0 75 75" fill="none" xmlns="http://www.w3.org/2000/svg">
<rect width="74.6667" height="74.75" fill="white"/>
<g clip-path="url(#clip0_1_76291)">
<path d="M0 9.375H74.6667V65.375H0V9.375Z" fill="#000066"/>
<path d="M0 9.375H37.3333V37.375H0V9.375Z" fill="#012169"/>
<path d="M4.375 9.375L18.6083 19.9333L32.7833 9.375H37.3333V12.9917L23.3333 23.4333L37.3333 33.8167V37.375H32.6667L18.6667 26.9333L4.725 37.375H0V33.875L13.9417 23.4917L0 13.1083V9.375H4.375Z" fill="white"/>
<path d="M24.7333 25.7667L37.3333 35.0417V37.375L21.525 25.7667H24.7333ZM14 26.9333L14.35 28.975L3.15 37.375H0L14 26.9333ZM37.3333 9.375V9.55L22.8083 20.5167L22.925 17.95L34.4167 9.375H37.3333ZM0 9.375L13.9417 19.6417H10.4417L0 11.825V9.375Z" fill="#C8102E"/>
<path d="M14.0583 9.375V37.375H23.3917V9.375H14.0583ZM0 18.7083V28.0417H37.3333V18.7083H0Z" fill="white"/>
<path d="M0 20.6333V26.2333H37.3333V20.6333H0ZM15.925 9.375V37.375H21.525V9.375H15.925Z" fill="#C8102E"/>
<path d="M44.8126 21.2979L67.4521 21.2166L67.4069 41.3787C67.4069 41.3787 68.2025 44.4527 57.9135 49.109C61.6114 48.7293 65.6438 44.7873 65.6438 44.7873C65.6438 44.7873 67.2803 42.6806 68.085 43.856C68.8806 45.0314 69.6311 45.6281 70.2188 46.0892C70.8064 46.5413 71.2675 47.8071 70.3905 48.7293C69.5045 49.6605 68.1212 49.7781 67.7414 48.6479C67.1537 48.9463 63.5463 53.3132 56.1505 53.5212C48.6281 53.3946 44.5143 48.6027 44.5143 48.6027C44.5143 48.6027 43.5107 50.203 42.0731 48.9463C40.6898 47.3008 41.7386 46.252 41.7386 46.252C41.7386 46.252 42.914 45.5829 43.2575 45.1218C43.8 44.4889 43.9718 43.6481 44.885 43.6481C45.988 43.7385 46.4039 44.6155 46.4039 44.6155C46.4039 44.6155 50.1832 48.6027 54.2608 49.109C45.0658 44.6969 44.7222 41.9664 44.7674 41.2973L44.8126 21.307V21.2979Z" fill="white"/>
<path d="M45.3552 21.8495L66.9459 21.7229V41.1256C66.9911 43.6571 62.7417 46.2158 56.1054 49.4888C49.2611 45.9627 45.31 43.8199 45.2739 41.0804L45.3552 21.8495Z" fill="#006129" stroke="black" stroke-width="0.171785"/>
<path d="M48.2936 24.7155L49.5594 22.844L50.8523 24.7246" stroke="#FFC72C" stroke-width="0.171785"/>
<path d="M49.8216 24.0102C49.8216 24.0774 49.7949 24.1418 49.7474 24.1892C49.7 24.2367 49.6356 24.2634 49.5684 24.2634C49.5013 24.2634 49.4369 24.2367 49.3894 24.1892C49.342 24.1418 49.3153 24.0774 49.3153 24.0102C49.3153 23.9431 49.342 23.8787 49.3894 23.8312C49.4369 23.7838 49.5013 23.7571 49.5684 23.7571C49.6356 23.7571 49.7 23.7838 49.7474 23.8312C49.7949 23.8787 49.8216 23.9431 49.8216 24.0102Z" fill="#FFC72C" stroke="black" stroke-width="0.0813719"/>
<path d="M48.5287 26.0988H50.5087C50.5087 26.0988 50.5359 25.8457 50.3008 25.6919C51.3405 25.5473 51.0693 24.6432 51.9282 24.5889C52.109 24.616 51.4762 24.9777 51.4762 24.9777C51.4762 24.9777 50.9608 25.3393 51.2049 25.5292C51.3857 25.6829 51.4762 25.4388 51.4942 25.258C51.5214 25.0771 52.3351 24.9596 52.2175 24.4442C52.0277 24.0193 50.8885 24.7336 50.8885 24.7336L50.0747 24.7245C50.0205 24.6341 49.8035 24.2725 49.5684 24.2725C49.2972 24.2725 49.0983 24.7245 49.0983 24.7245H47.2629C47.2629 24.7245 47.1996 25.2037 48.1309 25.2941C48.3388 25.5654 48.5016 25.6377 48.6914 25.71C48.5648 25.8095 48.5287 25.9361 48.5287 26.0988Z" fill="#FFC72C" stroke="black" stroke-width="0.0813719"/>
<path d="M48.6733 25.7009H50.3189H48.6733Z" fill="#FFC72C"/>
<path d="M48.6733 25.7009H50.3189" stroke="black" stroke-width="0.0813719"/>
<path d="M47.9229 24.7336C47.9229 24.7336 48.0495 25.5022 48.6643 25.683L47.9229 24.7336Z" fill="#FFC72C"/>
<path d="M47.9229 24.7336C47.9229 24.7336 48.0495 25.5022 48.6643 25.683" stroke="black" stroke-width="0.0813719"/>
<path d="M47.8235 24.7154C47.8777 24.4261 47.9953 24.3718 48.1128 23.9921C48.1309 23.6304 47.8235 23.6756 47.9139 23.4496C48.0766 23.1874 47.9953 22.9433 47.6879 22.7534C47.7511 23.0879 47.29 23.4044 47.29 23.6756C47.29 23.9469 47.5251 23.8926 47.498 24.3085C47.5161 24.5436 47.4347 24.4894 47.4076 24.7154H47.8235Z" fill="url(#paint0_linear_1_76291)" stroke="black" stroke-width="0.0813719"/>
<path d="M49.8035 22.8982C49.8035 22.9605 49.7788 23.0203 49.7347 23.0644C49.6906 23.1085 49.6308 23.1332 49.5685 23.1332C49.5061 23.1332 49.4463 23.1085 49.4022 23.0644C49.3581 23.0203 49.3334 22.9605 49.3334 22.8982C49.3334 22.8358 49.3581 22.776 49.4022 22.7319C49.4463 22.6879 49.5061 22.6631 49.5685 22.6631C49.6308 22.6631 49.6906 22.6879 49.7347 22.7319C49.7788 22.776 49.8035 22.8358 49.8035 22.8982Z" fill="#FFC72C" stroke="black" stroke-width="0.0813719"/>
<path d="M57.4255 45.0131C57.4255 45.0131 57.9408 46.2066 58.5285 45.4652C59.1162 44.7419 58.9082 44.4254 58.9082 44.4254L57.5882 43.7112L57.1994 44.5249L57.4255 45.0131Z" fill="#FFC72C" stroke="black" stroke-width="0.0813719"/>
<path d="M58.5647 44.8595C58.5647 44.8595 58.6551 44.8686 58.7184 44.742C58.7907 44.6154 58.5647 44.5612 58.4562 44.4165L58.3477 44.6425L58.5647 44.8595Z" fill="#FFC6B5" stroke="black" stroke-width="0.0813719"/>
<path d="M55.5811 44.534L54.4238 45.1669C54.4238 45.1669 53.8451 45.2844 53.809 45.1669C53.7638 45.0584 53.818 44.9589 54.1254 44.9409C54.4238 44.9318 55.2375 44.1814 55.2375 44.1814L55.5811 44.543V44.534Z" fill="#FFC6B5" stroke="black" stroke-width="0.0813719"/>
<path d="M55.5991 23.929L55.6353 24.3449C55.6534 24.4895 55.4093 24.7969 55.4002 24.7788C55.3821 24.7608 55.2646 24.7969 55.2827 24.8783C55.2917 24.9687 55.4635 24.9958 55.4635 24.9958C55.4635 24.9958 55.4002 25.2942 55.4635 25.3123C55.5358 25.3213 55.2827 25.692 55.4635 25.7915C55.6534 25.8909 55.9698 26.0265 56.1145 25.9994C56.2591 25.9632 56.1145 26.5509 56.1145 26.5509L55.7076 27.4099L57.9137 27.1838L57.4616 26.4605C57.4616 26.4605 57.2446 26.3068 57.2989 25.8909C57.3622 25.4841 57.2718 23.6035 57.2718 23.6035L55.6986 23.3865L55.5991 23.929Z" fill="#FFC6B5" stroke="black" stroke-width="0.0813719"/>
<path d="M55.1923 27.2019C55.1923 27.2019 54.478 27.5274 54.5051 28.4134C54.3243 29.2724 54.2249 30.1313 54.2249 30.1313C54.2249 30.1313 53.375 31.0897 53.1218 31.4423C52.8596 31.7859 52.4708 32.482 52.3352 32.6719C52.1906 32.8527 51.63 33.4675 51.639 33.7026C51.6571 33.9286 51.5125 34.9503 52.073 35.0588C52.2177 35.1221 52.6788 33.8834 52.6788 33.8834C52.6788 33.8834 52.7059 33.359 52.5432 33.2505C52.3895 33.1601 52.8867 32.8166 52.8867 32.8166L54.0621 31.9396C54.2791 31.7587 54.8668 31.1078 54.8668 31.1078L55.1923 27.2019Z" fill="#FFC6B5" stroke="black" stroke-width="0.0813719"/>
<path d="M56.015 26.5237C56.015 26.5237 56.1958 27.03 56.6117 26.9396C57.0276 26.8492 57.5159 26.4694 57.5159 26.4694C57.5159 26.4694 57.9047 26.4513 57.9589 26.5146C58.0132 26.5689 59.0077 27.5273 58.9715 27.8256C58.9444 28.133 58.5195 28.0426 58.3567 28.2415C58.203 28.4404 57.9408 28.9468 58.0132 29.3265C58.0855 29.6881 58.3025 30.1764 58.2754 30.3662C58.2482 30.5471 58.0945 30.6104 58.0945 30.7098C58.0945 30.8002 58.2211 30.9811 58.2211 31.1619C58.2211 31.3517 58.0403 31.623 58.0764 31.8128C58.1036 31.9937 58.1126 32.5362 58.1126 32.5362L58.0764 35.0677C58.0764 35.0677 58.2211 35.1491 58.2301 35.2938C58.2482 35.4294 59.2066 39.5974 59.2066 39.5974C59.2066 39.5974 59.1614 39.733 59.0619 39.715C58.9625 39.6969 59.4507 40.3569 59.4598 40.5468C59.4778 40.7276 59.9661 42.1923 59.948 42.3912C59.939 42.5901 59.8576 43.0422 59.8214 43.0512C59.7762 43.0693 60.1379 43.9734 60.0746 44.109C60.0203 44.2537 59.4417 44.2447 59.4417 44.2447L59.2789 44.2085C59.2789 44.2085 59.288 44.3984 59.1795 44.4164C59.0619 44.4255 58.2211 44.3712 58.2211 44.3712C58.2211 44.3712 57.977 44.7419 57.8323 44.7329C57.6877 44.7148 57.4978 44.4617 57.4616 44.4978C57.4164 44.543 57.5882 44.7871 57.552 44.8595C57.4978 44.9318 56.7745 45.0855 56.6298 44.7419C56.4852 44.3984 56.7202 44.4888 56.666 44.4164C56.6298 44.3441 56.3043 44.1542 56.1958 44.2085C56.1054 44.2718 56.458 44.3532 56.44 44.4978C56.4309 44.6425 56.1235 44.8595 56.015 44.8595C55.8975 44.8595 55.6262 44.326 55.2194 44.3803C54.8216 44.4436 54.5684 44.543 54.5684 44.543C54.5684 44.543 54.0892 44.7419 53.8903 44.6967C53.6914 44.6606 53.601 44.4978 53.601 44.4164C53.601 44.326 53.7457 43.9553 53.7366 43.8378C53.7185 43.7293 53.601 43.6118 53.601 43.44C53.601 43.2592 53.9355 42.6805 53.9355 42.6805L53.9174 40.0404C53.9174 40.0404 53.6191 40.0404 53.601 39.8596C53.5919 39.6788 54.0621 35.6916 54.1435 35.4294L54.3966 34.254C54.3966 34.254 54.1796 34.3625 54.1616 34.254C54.1525 34.1636 54.8125 31.8852 54.8125 31.8852C54.8125 31.8852 54.921 30.746 54.921 30.4476C54.921 30.1492 54.8668 29.7333 54.8668 29.7333C54.8668 29.7333 54.2791 29.4802 54.261 29.1005C54.2068 28.4947 54.8216 28.1602 54.8939 27.9612L55.1832 27.1475C55.1832 27.1475 55.4997 26.6051 56.015 26.5237Z" fill="white" stroke="black" stroke-width="0.0813719"/>
<path d="M55.798 44.7148C55.798 44.7148 54.4057 45.4381 54.2068 45.5014C54.0078 45.5556 53.8813 45.2573 54.0802 45.203C54.2791 45.1397 54.5955 45.1126 54.5955 45.1126C54.5955 45.1126 54.1254 44.7419 54.1435 44.7238L54.7944 44.4888C54.8125 44.4888 54.9934 44.8504 55.1199 44.8323C55.2995 44.7452 55.4692 44.6391 55.6262 44.5159L55.798 44.7148Z" fill="#FFC72C" stroke="black" stroke-width="0.0813719"/>
<path d="M57.7509 45.1127C57.8866 45.2845 57.9318 45.5738 58.2392 45.402C58.5375 45.2303 58.0855 44.9138 58.0855 44.9138L57.7509 45.1127Z" fill="#FFC6B5" stroke="black" stroke-width="0.0813719"/>
<path d="M58.3025 45.0856C58.3025 45.0856 58.4472 45.2031 58.5737 45.0675C58.7003 44.9409 58.3206 44.6697 58.3206 44.6697L58.1307 44.8867L58.3025 45.0856Z" fill="#FFC6B5" stroke="black" stroke-width="0.0813719"/>
<path d="M58.9173 27.8979C58.9354 27.8979 59.3874 29.3084 59.4507 29.67C59.505 30.0317 59.6948 31.4602 59.6225 31.6591C59.5502 31.858 58.8178 32.8164 58.7365 33.0605C58.6461 33.3047 58.1307 34.2359 58.1307 34.2359C58.1307 34.2359 58.0041 35.1581 57.9499 35.1943C57.8866 35.2395 58.0945 35.4655 58.0765 35.5379C58.0493 35.6283 57.6606 36.0261 57.4888 35.9899C57.3079 35.9447 57.0367 35.7458 57.0367 35.5559C57.0096 35.3751 57.0367 34.7513 57.1723 34.5976C57.2989 34.4348 57.977 32.8526 58.0132 32.7531C58.0584 32.6446 58.628 31.3969 58.6461 31.189C58.6641 30.972 58.4652 30.4747 58.2663 30.2939C57.8143 28.9648 57.9951 28.1692 58.9173 27.8979Z" fill="#FFC6B5" stroke="black" stroke-width="0.0813719"/>
<path d="M55.5449 23.8475C55.5449 23.8475 55.8703 23.8927 56.0421 23.7932C56.2139 23.6938 56.4128 23.6486 56.5575 23.8475C56.7022 24.0464 56.8016 24.0283 56.8016 24.0283C56.8016 24.0283 56.5846 24.5708 56.8016 24.625C57.0096 24.6793 57.118 24.6793 57.1271 24.7516C57.1452 24.8239 56.9463 24.9776 57.0005 25.05C57.0548 25.1223 57.1542 25.2037 57.1723 25.267C57.1813 25.3212 57.0457 25.5653 57.0819 25.6286C57.1271 25.6829 57.2627 25.9089 57.3441 25.9089C57.4345 25.9089 57.3712 26.2705 57.6334 26.1801C57.8866 26.0897 57.8775 25.8637 57.8775 25.8637C57.8775 25.8637 58.1488 25.8275 58.2211 25.5834C58.2844 25.3393 58.4562 25.276 58.4562 25.276C58.4562 25.276 58.7997 25.0952 58.3477 24.8059C58.3477 22.7987 57.0276 23.0157 57.0276 23.0157C57.0276 23.0157 56.8739 22.654 56.6117 22.6992C56.3586 22.7444 56.3405 23.0428 56.1597 23.0157C55.9698 22.9885 55.9246 22.862 55.9156 22.871C55.8975 22.8891 55.7347 23.1784 55.7347 23.2417C55.7347 23.314 55.2375 23.1513 55.2827 23.5129C55.3279 23.8927 55.572 23.8746 55.5539 23.8475H55.5449Z" fill="#9C5100" stroke="black" stroke-width="0.0813719"/>
<path d="M57.8775 27.0842C57.8775 27.0842 56.6026 27.8979 56.6298 28.1873" stroke="black" stroke-width="0.0813719"/>
<path d="M58.1668 27.229C58.1668 27.229 57.8775 27.5454 57.8594 27.5454" stroke="black" stroke-width="0.0813719"/>
<path d="M58.5465 27.5725C58.5465 27.5725 57.9137 28.0879 58.0131 28.4134" stroke="black" stroke-width="0.0813719"/>
<path d="M55.5719 27.012C55.5719 27.012 55.3821 27.4007 55.4273 27.5273C55.4634 27.6539 55.7889 28.1421 55.8251 28.4405C55.8703 28.7479 55.8251 28.9558 55.8251 28.9558" stroke="black" stroke-width="0.0813719"/>
<path d="M55.2374 27.7263C55.2374 27.7263 55.2917 28.1784 55.3821 28.2688C55.4725 28.3592 55.6985 28.748 55.7257 28.9017" stroke="black" stroke-width="0.0813719"/>
<path d="M55.1199 29.634C55.1199 29.634 55.4996 29.8148 55.8432 29.1006" stroke="black" stroke-width="0.0813719"/>
<path d="M56.3947 28.6033C56.3856 28.6033 56.1234 29.2995 56.5845 29.5617C57.0366 29.8238 57.3892 29.7877 57.5791 29.7154C57.787 29.6521 58.004 29.5164 58.004 29.5164" stroke="black" stroke-width="0.0813719"/>
<path d="M56.1958 29.4622C56.1958 29.4622 56.2229 30.4025 57.6153 31.3337" stroke="black" stroke-width="0.0813719"/>
<path d="M56.2591 30.3481C56.2591 30.3481 56.241 31.1799 56.7835 31.5506" stroke="black" stroke-width="0.0813719"/>
<path d="M55.9698 29.3718C55.9698 29.3718 55.5539 30.6105 55.2194 30.728" stroke="black" stroke-width="0.0813719"/>
<path d="M55.8432 30.2759C55.8432 30.2759 55.8251 31.1619 55.7076 31.4784" stroke="black" stroke-width="0.0813719"/>
<path d="M55.5991 31.6954C55.5991 31.6954 55.8793 32.057 56.1958 32.0209C56.5122 31.9937 56.6479 31.623 56.8558 31.6773C57.0728 31.7406 57.2717 31.9124 57.769 31.8672" stroke="black" stroke-width="0.0813719"/>
<path d="M57.0547 32.2378C57.0547 32.2378 57.0547 32.9701 57.1903 33.0425C57.3169 33.1148 57.2536 33.7839 57.2536 33.7839" stroke="black" stroke-width="0.0813719"/>
<path d="M55.3097 31.8943C55.3097 31.8943 55.2916 32.5814 55.2103 32.8255C55.1199 33.0697 54.9481 33.4856 54.9842 33.8472" stroke="black" stroke-width="0.0813719"/>
<path d="M54.4327 34.2451C54.5051 34.218 54.7492 34.001 54.7492 34.001" stroke="black" stroke-width="0.0813719"/>
<path d="M54.8758 34.1545C54.8758 34.1545 54.261 36.7946 54.4328 38.3678" stroke="black" stroke-width="0.0813719"/>
<path d="M55.0204 34.2903C55.0204 34.2903 54.704 36.2613 54.8486 36.641" stroke="black" stroke-width="0.0813719"/>
<path d="M54.8667 34.2271L56.0692 34.3175" stroke="black" stroke-width="0.0813719"/>
<path d="M56.241 34.1545C56.241 34.1545 56.5665 34.3354 57.0276 34.2992" stroke="black" stroke-width="0.0813719"/>
<path d="M56.0963 35.1221C56.0963 35.1221 56.0421 38.4945 55.9517 39.2449" stroke="black" stroke-width="0.0813719"/>
<path d="M57.8594 35.8906C57.8594 35.8906 58.2301 38.8562 58.4471 39.1274" stroke="black" stroke-width="0.0813719"/>
<path d="M57.1451 36.2612C57.1451 36.2612 57.3712 38.8832 57.5068 39.1183" stroke="black" stroke-width="0.0813719"/>
<path d="M53.8903 40.0314C53.8903 40.0314 54.3423 39.8867 54.7401 39.4618C55.1922 40.0766 55.8974 39.4889 55.8974 39.4889C55.8974 39.4889 56.9824 40.2303 57.4706 39.3985C58.221 39.8867 58.5917 39.3262 58.5917 39.3262C58.5917 39.3262 58.863 39.7421 59.0619 39.6969" stroke="black" stroke-width="0.0813719"/>
<path d="M57.8775 39.9863C57.8775 39.9863 58.429 42.6083 59.2608 43.3497" stroke="black" stroke-width="0.0813719"/>
<path d="M55.0023 39.7151C55.0023 39.7151 55.0656 41.9031 55.1922 43.4492" stroke="black" stroke-width="0.0813719"/>
<path d="M54.8938 42.1924C54.8938 42.1924 54.8215 43.6209 54.7401 43.7294" stroke="black" stroke-width="0.0813719"/>
<path d="M54.053 43.8649C54.053 43.8649 54.2067 44.4887 54.9933 43.9101C55.7799 43.3405 55.798 44.1271 55.8251 44.2085C55.8522 44.2989 55.9788 44.9137 56.2772 44.3983" stroke="black" stroke-width="0.0813719"/>
<path d="M56.9101 43.5576C56.9101 43.5576 56.7835 44.8234 57.9137 43.9012C59.0438 42.97 59.2337 43.8831 59.2698 44.1724" stroke="black" stroke-width="0.0813719"/>
<path d="M56.9281 23.3594C56.9281 23.3594 56.8287 23.9923 57.4977 23.929C57.4073 24.2816 57.6786 24.3901 57.6786 24.3901" stroke="black" stroke-width="0.0813719"/>
<path d="M58.1668 24.7788C58.1849 24.7788 58.4742 24.9596 58.1668 25.1947" stroke="black" stroke-width="0.0813719"/>
<path d="M57.1994 25.2761C57.1994 25.2761 57.344 25.4569 57.4977 25.4117C57.6605 25.3665 57.9136 25.5654 57.9136 25.5654C57.9136 25.5654 58.1306 25.6378 58.1578 25.5926" stroke="black" stroke-width="0.0813719"/>
<path d="M56.3224 25.8186C56.3224 25.8186 56.8106 26.0085 57.1361 25.24" stroke="black" stroke-width="0.0813719"/>
<path d="M55.4273 25.0049L55.7076 25.023" stroke="black" stroke-width="0.0813719"/>
<path d="M52.2448 34.0461L52.2719 34.67" stroke="black" stroke-width="0.0813719"/>
<path d="M51.657 33.9919C51.657 33.9919 52.0639 34.67 52.0187 35.0227" stroke="black" stroke-width="0.0813719"/>
<path d="M55.4634 25.2942H55.7256L55.4996 25.3936" stroke="black" stroke-width="0.0813719" stroke-linejoin="round"/>
<path d="M57.0547 35.4023C57.0547 35.4023 57.3531 35.3661 57.344 35.8724C57.5339 35.2395 57.9227 35.2305 57.9227 35.2305" stroke="black" stroke-width="0.0813719" stroke-linejoin="round"/>
<path d="M55.8251 24.4894C55.8703 24.4894 56.024 24.4352 56.0511 24.4804C56.0873 24.5166 55.8794 24.5527 55.8251 24.4894Z" stroke="black" stroke-width="0.153702" stroke-linejoin="round"/>
<path d="M56.024 49.7418C59.7981 49.563 63.3534 47.9183 65.9333 45.1578C65.8971 45.1216 66.7379 43.9463 67.407 44.109C68.0761 44.2808 69.0435 46.2518 70.2189 46.6767C70.8065 47.599 70.0561 48.4398 69.8029 48.6025C69.5498 48.7743 68.4106 49.2354 68.2478 48.5664C68.0761 47.8883 67.7415 48.0239 67.7415 48.0239C67.7415 48.0239 62.3619 53.2679 56.1506 53.0599C49.7312 53.0961 44.433 48.0149 44.433 48.0149L43.9719 48.5212C43.9719 48.5212 43.4656 49.0637 43.2124 49.0275C42.9593 48.9823 41.8653 48.268 41.7839 47.5538C41.6935 46.8395 42.453 46.3784 42.453 46.3784C42.453 46.3784 44.3064 44.9499 44.5144 44.1994C44.9393 43.7745 45.735 44.4887 45.735 44.4887C45.735 44.4887 50.6082 50.0763 56.024 49.7327V49.7418Z" fill="#FFC72C" stroke="black" stroke-width="0.171785"/>
<path d="M42.3354 46.4869C42.3354 46.4869 42.8327 46.3603 43.0135 46.5683C43.1943 46.7762 44.4601 48.0149 44.4601 48.0149" stroke="black" stroke-width="0.171785"/>
<path d="M43.4746 47.0747L42.9683 47.4454C42.9683 47.4454 44.2341 47.6986 43.9448 48.5304" stroke="black" stroke-width="0.171785"/>
<path d="M69.7667 46.4507C69.7667 46.4507 69.5226 46.3151 69.1338 46.6044C68.736 46.9028 67.7505 48.0058 67.7505 48.0058" stroke="black" stroke-width="0.171785"/>
<path d="M68.6456 47.0386L69.1881 47.4545C69.1881 47.4545 68.0579 47.5358 68.302 48.6027" stroke="black" stroke-width="0.171785"/>
<path d="M48.7367 47.8251C48.7005 47.9155 48.6101 47.8251 48.5378 47.8431C48.3569 47.8431 48.1942 47.9697 48.0314 48.0601L46.3678 49.0276C46.3136 49.0095 46.3226 48.9643 46.3407 48.9191L46.7928 46.8396C46.8109 46.722 46.847 46.5683 46.7295 46.4779C46.6843 46.4417 46.7566 46.3785 46.7928 46.4417L47.6427 47.0475C47.6155 47.1289 47.5613 47.0656 47.5161 47.0385C47.3986 46.9209 47.2539 47.0294 47.2629 47.1741L46.9555 48.5393C47.3353 48.3223 47.715 48.1053 48.0947 47.8703C48.2213 47.816 48.3208 47.6352 48.1851 47.5267C48.1309 47.4905 48.0405 47.4092 48.1309 47.3911L48.7367 47.8251Z" fill="black"/>
<path d="M49.3334 50.7183C49.3153 50.7725 49.2882 50.7816 49.243 50.7454L48.2484 50.2029C48.2575 50.1396 48.2846 50.1306 48.3298 50.1668C48.4202 50.2301 48.5649 50.2572 48.6372 50.1487L48.9988 49.4887L49.5052 48.5665C49.5775 48.4489 49.4961 48.3133 49.3876 48.2681C49.3515 48.25 49.2972 48.2319 49.3424 48.1958C49.3605 48.1686 49.4147 48.2229 49.4419 48.2319L50.4002 48.7563C50.3912 48.8106 50.3641 48.8196 50.3189 48.7834C50.2285 48.7202 50.0838 48.693 50.0115 48.8015L49.6498 49.4615L49.1435 50.3838C49.0712 50.4923 49.1525 50.6369 49.261 50.6821L49.3334 50.7183Z" fill="black"/>
<path d="M53.185 49.8142L52.9137 50.5737C52.7962 50.5647 52.8775 50.42 52.8414 50.3477C52.8234 50.1745 52.7533 50.0109 52.6403 49.8785C52.5273 49.7461 52.3767 49.6512 52.2085 49.6063C51.9372 49.5339 51.666 49.6696 51.5033 49.8866C51.2671 50.2082 51.129 50.5913 51.1055 50.9896C51.0972 51.1032 51.1197 51.2168 51.1706 51.3187C51.2215 51.4205 51.299 51.5067 51.3948 51.5682C51.5542 51.6678 51.7406 51.7152 51.9282 51.7039L52.1181 51.1343C52.1452 51.0077 52.0096 50.9263 51.9101 50.8992C51.892 50.863 51.9282 50.8088 51.9734 50.854L52.968 51.2156C52.968 51.3332 52.8233 51.1975 52.7419 51.2518C52.6244 51.297 52.6154 51.4417 52.5611 51.5502L52.4436 51.8937C51.9915 51.9208 51.5394 51.8304 51.1416 51.6044C50.7709 51.3693 50.5087 50.9082 50.5901 50.4562C50.6443 50.0674 50.8885 49.7057 51.2411 49.5339C51.5666 49.3531 51.9644 49.3622 52.3079 49.4978C52.4888 49.5611 52.6515 49.6786 52.7962 49.8052C52.8866 49.9227 53.0493 49.9227 53.1217 49.7961L53.185 49.8142Z" fill="black"/>
<path d="M54.8033 52.4181C54.8033 52.4543 54.8034 52.4995 54.7491 52.4723L53.6099 52.3005C53.6099 52.2553 53.6099 52.2192 53.6641 52.2463C53.7546 52.2644 53.8992 52.2644 53.9354 52.1559C53.9896 52.0022 53.9987 51.8394 54.0258 51.6857L54.2247 50.3657C54.2518 50.2753 54.2247 50.1668 54.1252 50.1306C54.062 50.1035 54.0077 50.1035 53.9444 50.0854C53.9444 50.0493 53.9444 50.0131 53.9987 50.0312L55.1379 50.212C55.1379 50.2482 55.1379 50.2843 55.0836 50.2663C54.9932 50.2391 54.8576 50.2482 54.8124 50.3567C54.7581 50.5013 54.7491 50.6641 54.722 50.8178L54.5231 52.1378C54.4959 52.2282 54.5231 52.3458 54.6316 52.3819L54.8124 52.4181H54.8033Z" fill="black"/>
<path d="M57.8955 51.6766L57.8503 52.4813L55.807 52.5807C55.7979 52.5355 55.807 52.5084 55.8612 52.5174C55.9607 52.5174 56.0963 52.4722 56.1144 52.3547L56.0872 51.758L56.024 50.5464C56.033 50.4289 55.9335 50.3385 55.816 50.3475C55.7798 50.3294 55.6804 50.3837 55.6894 50.3204C55.6713 50.2662 55.7527 50.2933 55.7798 50.2842L56.919 50.2209C56.919 50.2752 56.919 50.3023 56.8558 50.2933C56.7563 50.2933 56.6207 50.3114 56.5845 50.4379C56.5755 50.6097 56.5936 50.7815 56.6026 50.9533L56.6659 52.2191C56.6659 52.3185 56.7563 52.418 56.8648 52.3999C57.0275 52.3909 57.1993 52.3999 57.3621 52.3547C57.5881 52.2914 57.7056 52.0654 57.7689 51.8574C57.8141 51.8032 57.7689 51.6585 57.8593 51.6766H57.8955Z" fill="black"/>
<path d="M59.4777 49.7056C59.4235 49.7056 59.4506 49.7779 59.4325 49.8141C59.3421 50.4922 59.2607 51.1703 59.1613 51.8393C59.1432 51.993 59.107 52.1648 58.9624 52.2371C58.9081 52.2643 58.9533 52.3456 59.0076 52.3004L59.6857 52.0925C59.6766 51.984 59.541 52.0925 59.4687 52.0653C59.315 52.0653 59.2879 51.8755 59.315 51.7579C59.315 51.6675 59.3331 51.5952 59.3421 51.5138L60.1197 51.2788C60.2191 51.4053 60.3276 51.5229 60.418 51.6585C60.4904 51.7851 60.3276 51.8393 60.2372 51.8664C60.183 51.8664 60.2191 51.9569 60.2643 51.9207L61.286 51.6133C61.286 51.4957 61.1413 51.6133 61.0781 51.5229C60.8791 51.3872 60.7435 51.1883 60.5898 51.0075L59.4777 49.7056ZM59.4777 50.5193L60.0202 51.1793L59.3602 51.3782L59.4777 50.5193Z" fill="black"/>
<path d="M62.9677 48.1868L63.266 48.7292C63.1756 48.8197 63.1214 48.6298 63.04 48.6027C62.9725 48.5436 62.888 48.5074 62.7987 48.4993C62.7094 48.4912 62.6198 48.5116 62.5427 48.5575L62.3619 48.6569L63.2479 50.3115C63.2932 50.4471 63.4649 50.4742 63.5825 50.4019C63.6186 50.3657 63.6638 50.3476 63.6729 50.4109C63.5282 50.5013 63.3564 50.5827 63.2027 50.6641L62.6151 50.9805C62.5698 50.9353 62.597 50.9082 62.6512 50.8901C62.6831 50.8786 62.7119 50.8597 62.7352 50.835C62.7585 50.8103 62.7756 50.7805 62.7853 50.7479C62.795 50.7154 62.7969 50.6811 62.7909 50.6476C62.7849 50.6142 62.7711 50.5827 62.7507 50.5556L61.8737 48.9282C61.7109 49.0186 61.512 49.0909 61.4668 49.2898C61.4216 49.4254 61.4849 49.5791 61.4849 49.6876C61.4397 49.7419 61.4216 49.6695 61.3945 49.6334L61.1504 49.1632L62.9677 48.1868Z" fill="black"/>
<path d="M64.351 47.3639L64.9116 48.1144C65.0381 48.024 65.1466 47.8793 65.1105 47.7165C65.1286 47.59 64.9477 47.4453 65.011 47.3549C65.0472 47.3368 65.0743 47.4272 65.1014 47.4543L65.7524 48.3133C65.662 48.4037 65.6077 48.2138 65.5173 48.1867C65.3908 48.0963 65.219 48.0511 65.0834 48.1505C64.9839 48.1867 64.9929 48.2409 65.0562 48.3042C65.2009 48.4941 65.3455 48.7021 65.5083 48.8919C65.5987 48.9823 65.7253 48.8919 65.8067 48.8196C66.0236 48.6749 66.2135 48.4399 66.2045 48.1686C66.2226 48.042 66.1412 47.9155 66.1412 47.807C66.1954 47.7437 66.2045 47.8431 66.2316 47.8793L66.539 48.4218L64.9477 49.6243C64.8844 49.5791 64.9477 49.5429 64.9929 49.5158C65.1376 49.4254 65.0924 49.2355 64.9929 49.136L63.9622 47.7889C63.8718 47.6713 63.7091 47.7346 63.6277 47.816C63.5825 47.8702 63.5373 47.7708 63.6006 47.7618L65.0924 46.6316L65.4992 47.1741C65.4088 47.2645 65.3184 47.0565 65.219 47.0475C65.0201 46.939 64.785 47.0204 64.6222 47.156L64.342 47.3639" fill="black"/>
</g>
<defs>
<linearGradient id="paint0_linear_1_76291" x1="47.5434" y1="24.1647" x2="46.515" y2="24.0131" gradientUnits="userSpaceOnUse">
<stop stop-color="#FF0000"/>
<stop offset="1" stop-color="#FFFF00"/>
</linearGradient>
<clipPath id="clip0_1_76291">
<rect width="74.6667" height="56" fill="white" transform="translate(0 9.375)"/>
</clipPath>
</defs>
</svg>
