<svg width="75" height="75" viewBox="0 0 75 75" fill="none" xmlns="http://www.w3.org/2000/svg">
<rect width="74.6667" height="74.75" fill="white"/>
<g clip-path="url(#clip0_1_76229)">
<path d="M0 9.375H74.6667V65.375H0V9.375Z" fill="white"/>
<path d="M23.8351 46.125C23.8351 46.125 23.7768 45.705 24.5584 45.4133C25.3284 45.11 25.3984 43.99 25.2351 43.2433C25.2351 43.2433 24.8384 43.9433 24.3368 44.1883C24.3368 44.1883 23.5434 44.6083 23.4968 45.4016C23.4968 45.4016 23.4968 45.6933 23.4384 45.9266C23.4034 46.0433 23.0418 44.9233 23.7184 44.0833C24.4184 43.2317 24.6051 42.5317 24.0568 41.1667C24.0568 41.1667 23.9984 41.9833 23.4618 42.4617C22.9134 42.9283 22.8434 42.975 22.8551 44.095C22.8551 44.095 22.8551 44.4917 22.6568 44.62C22.6568 44.62 22.2368 44.0016 22.1201 43.5933C22.0034 43.185 21.9568 43.01 22.4468 42.5433C22.4468 42.5433 23.9868 41.5283 22.8784 39.3467C22.8784 39.3467 22.8434 40.0933 22.2951 40.5367C21.7701 40.9917 21.8051 41.2833 21.7818 42.0533C21.7584 42.835 21.7118 42.7766 21.6534 42.8933C21.6534 42.8933 20.6618 41.0733 21.4201 40.1167C22.1784 39.1483 22.6101 38.95 21.7701 37.1533C21.7701 37.1533 21.8051 38.0866 21.1284 38.53C20.4634 38.9966 20.6151 40.0466 20.6151 40.0466C20.6151 40.0466 20.6618 40.455 20.5218 40.7466C20.5218 40.7466 19.5768 38.8917 20.4751 37.9C21.2451 37.0483 21.2918 36.4533 20.8834 35.2633C20.8834 35.2633 20.8368 35.8117 20.4168 36.115C19.9851 36.4183 19.6468 36.71 19.7284 37.865C19.7284 37.865 19.7634 38.6817 19.6584 38.915C19.6584 38.915 19.2618 38.1683 19.1451 37.69C19.0284 37.2 18.9934 36.92 19.2851 36.4417C19.5768 35.9633 20.7434 34.575 19.3551 32.5917C19.3551 32.5917 19.3201 33.2333 18.9584 33.8167C18.6084 34.4 18.7718 35.0883 18.8418 35.6133C18.9234 36.1383 18.6668 36.6517 18.6668 36.6517C18.6668 36.6517 18.0601 35.5433 18.2001 34.2716C18.3168 32.9883 17.8034 31.9383 16.6251 31.1917C16.6251 31.1917 15.7734 33.175 16.9401 34.19C16.9401 34.19 17.9318 35.17 18.1884 36.36C18.1884 36.36 17.4301 36.29 16.7534 34.96C16.0651 33.63 14.6534 33.84 14.5601 33.8283C14.5601 33.8283 14.7934 35.8816 16.9634 36.465C16.9634 36.465 18.3634 36.6983 18.6201 37.725C18.6201 37.725 18.8534 38.425 18.9468 38.7983C18.9468 38.7983 18.5034 38.6233 18.0951 38.0167C17.6868 37.4333 17.7451 37.3517 16.3684 37.2117C16.3684 37.2117 15.8201 37.1533 15.5284 36.7566C15.5284 36.7566 16.1118 38.9267 17.5934 38.915C17.5934 38.915 18.9468 38.7633 19.6934 40.5483L19.3551 40.315C19.1568 40.1867 18.6551 39.93 17.6634 40.0466C16.6718 40.1633 16.3918 40 16.1468 39.93C16.1468 39.93 17.1501 41.7617 18.5618 41.2133C19.9851 40.665 20.6618 42.66 20.6851 42.695C20.6851 42.695 20.4868 42.555 20.2418 42.31C19.9851 42.065 19.4718 41.7616 18.4918 42.0766C18.4918 42.0766 17.7801 42.345 17.0568 42.1233C17.0568 42.1233 17.7568 43.465 19.3668 43.2317C19.7906 43.148 20.2303 43.2231 20.6024 43.4425C20.9745 43.6619 21.2531 44.0103 21.3851 44.4216C21.3851 44.4216 21.1751 44.305 21.0351 44.1883C20.8834 44.0716 20.3351 43.7567 19.1684 44.095C18.0018 44.445 17.5818 44.0483 17.5818 44.0483C17.5818 44.0483 18.2234 45.215 19.4718 45.3667C19.4718 45.3667 20.1718 45.355 20.4518 45.25C20.7434 45.1333 21.5251 44.9583 22.0618 45.74C22.0618 45.74 21.9101 45.7633 21.6884 45.6583C21.6884 45.6583 20.8718 45.3667 20.2301 45.8917C20.2301 45.8917 19.6701 46.4633 18.8768 46.3583C18.8768 46.3583 19.9034 47.35 21.5368 46.51C21.5368 46.51 22.0851 46.1133 22.4934 46.4167C22.9018 46.7317 23.8351 46.1133 23.8351 46.1133V46.125Z" fill="#369443" stroke="#010002" stroke-width="0.175" stroke-miterlimit="10"/>
<path d="M32.9233 21.4734C32.9233 21.4734 32.7367 19.7818 34.09 19.6068C34.7911 19.4842 35.5114 19.5322 36.19 19.7468L36.8317 20.9834L36.5983 21.8234L35.735 22.2201C35.735 22.2201 35.8867 20.9368 34.7083 20.9134C34.405 20.9134 34.2417 21.0301 33.7633 20.9484C33.285 20.8668 33.0283 21.3918 32.9233 21.4734Z" fill="#F4C53D" stroke="#010002" stroke-width="0.175" stroke-miterlimit="10"/>
<path d="M42.4434 25.6617C42.2334 25.9184 41.4284 26.0117 41.4284 26.0117C41.4284 26.0117 42.2568 26.6534 42.6184 27.5634C42.9684 28.4617 33.0051 27.5634 33.0051 27.5634C33.0051 27.5634 33.4484 27.2601 33.7401 26.6767C33.7401 26.6767 33.2968 26.8401 32.8534 26.3967C32.8534 26.3967 33.1801 26.5134 33.6118 25.8601C33.6118 25.8601 34.2534 25.0434 34.7084 24.8101C34.7084 24.8101 34.4984 24.9501 33.9968 24.6701C33.9968 24.6701 34.8601 24.5534 35.1634 23.0951C35.1634 23.0951 35.2218 22.7684 35.5484 22.2784C35.8751 21.8117 35.8051 22.3834 36.4118 21.6484C36.4118 21.6484 36.6918 21.1351 36.4468 20.8317C36.2134 20.5051 35.9451 20.6217 35.4434 20.3184C34.9301 20.0151 34.7084 19.8517 34.8834 19.3851C35.0584 18.9184 35.5018 18.9884 35.5718 18.9884C35.6418 18.9884 35.6651 18.5801 36.2134 18.3001C36.7618 18.0201 38.2434 18.1484 38.4534 18.2651C38.6868 18.3817 39.5618 18.6501 40.0868 19.9567C40.6001 21.2634 39.9468 21.7534 41.3468 23.7367C41.3468 23.7367 40.7868 23.8534 40.4251 23.7367C40.4251 23.7367 41.1601 25.0434 42.4434 25.6617Z" fill="#F4C53D" stroke="#010002" stroke-width="0.175" stroke-miterlimit="10"/>
<path d="M36.2833 20.1316C35.1167 20.0733 35.5717 18.9883 35.5717 18.9883" stroke="#010002" stroke-width="0.175" stroke-miterlimit="10"/>
<path d="M38.2667 20.2834C38.2667 20.2834 38.0683 20.19 37.8933 19.9567C37.66 19.6417 37.1117 19.49 36.8317 19.7934C36.8317 19.7934 36.54 20.12 36.2717 20.1434C36.2717 20.1434 36.575 20.225 36.7733 20.4117C36.9717 20.5984 37.1817 20.7384 37.485 20.6917C37.7883 20.6567 37.835 20.4934 37.975 20.4C38.1267 20.3067 38.2667 20.2834 38.2667 20.2834Z" fill="#F4C53D" stroke="#010002" stroke-width="0.175" stroke-miterlimit="10"/>
<path d="M23.6601 48.6334C23.6601 48.6334 23.6368 47.8868 24.5701 47.8401L27.3118 51.6551C27.3118 51.6551 27.2068 51.9001 25.9701 51.8768C25.9701 51.8768 25.8301 51.8768 25.7601 52.0168C25.6551 52.2501 23.6601 48.6334 23.6601 48.6334Z" fill="#369443" stroke="#010002" stroke-width="0.175" stroke-miterlimit="10"/>
<path d="M26.6785 44.1859C26.6785 44.1859 25.8021 45.6894 24.7429 45.7139C24.7429 45.7139 22.9215 45.4926 22.4069 45.9686C22.0468 46.3006 21.6798 46.5746 21.5287 47.4229C21.3812 48.2713 21.8185 48.454 21.9221 48.4908C21.9221 48.4908 22.0029 49.0968 22.6019 48.9387C22.6019 48.9387 22.637 49.571 23.6944 49.2672C24.7535 48.9633 25.1926 49.0599 25.3981 48.0061C25.6071 46.9505 25.7986 46.968 25.9865 46.8416C26.2394 46.6712 26.7154 46.5114 27.0684 46.3076C27.3846 46.1249 28.6 45.5067 29.0146 45.4593C29.4291 45.4101 29.3377 44.0155 29.3377 44.0155H28.2663L27.7482 43.2514L26.6768 44.1859H26.6785ZM30.0508 36.6438C30.0508 36.6438 28.9794 37.5167 28.0801 36.6438C28.0801 36.6438 27.7183 37.0794 26.9912 36.9529C26.2675 36.8247 26.1463 36.4436 26.0778 36.2258C26.0778 36.2258 25.449 36.5911 24.9186 36.3013C24.3917 36.0133 24.3917 35.5759 24.3917 35.5759C24.3917 35.5759 23.4695 35.7586 22.9971 35.1333C22.5246 34.5098 22.8126 33.8915 23.0673 33.8177C23.0673 33.8177 22.0714 34.0794 21.7992 33.2241C21.7267 33.0331 21.7155 32.8242 21.7671 32.6266C21.8187 32.4289 21.9306 32.2522 22.0872 32.121C22.0872 32.121 19.9901 32.1105 19.1294 31.4536C19.1294 31.4536 18.4146 31.004 18.8414 30.5315C18.8414 30.5315 16.9532 30.2294 16.4808 29.4776C16.4808 29.4776 16.2735 29.2704 16.342 28.9068C16.342 28.9068 16.3543 28.7013 16.5616 28.689C16.5616 28.689 14.4082 28.3553 13.7864 27.6457C13.7864 27.6457 13.4878 27.319 13.6371 26.8816C13.6371 26.8816 13.6687 26.7675 13.7197 26.6884C13.7197 26.6884 11.7595 26.2757 10.7935 25.4027C10.7935 25.4027 10.2349 24.9057 10.523 24.2382C10.523 24.2382 7.24728 23.3425 8.00605 21.8987C8.00605 21.8987 6.47446 21.4016 6.95923 20.0193C6.95923 20.0193 5.69285 19.3765 6.24437 18.3578C6.77305 17.3829 8.39773 18.5281 10.3193 19.0603C10.3193 19.0603 15.5253 20.6973 18.0879 21.1329L25.37 31.9753L29.6188 33.6122L30.0491 36.6438H30.0508Z" fill="#F4C53D" stroke="#010002" stroke-width="0.175642"/>
<path d="M30.1018 28.6591C30.1018 28.6591 29.4186 28.1462 28.2014 28.7487C28.2014 28.7487 27.7921 29.0315 27.4689 28.7224C27.3989 28.6555 27.3445 28.5739 27.3097 28.4835C27.275 28.3931 27.2607 28.2961 27.2679 28.1995C27.2751 28.1029 27.3037 28.0092 27.3515 27.9249C27.3993 27.8407 27.4652 27.7681 27.5445 27.7124C28.4525 27.0397 28.788 25.0216 27.4075 24.1838C27.4075 24.1838 25.4051 22.9964 18.058 21.1276C18.058 21.1276 17.4433 20.9555 17.1131 21.038C16.9533 21.0788 16.8076 21.162 16.6913 21.2789C16.5751 21.3958 16.4926 21.542 16.4527 21.702C16.4527 21.702 16.1225 22.6381 17.229 23.1738C17.229 23.1738 17.7278 23.4022 18.2425 23.5497C18.2425 23.5497 17.6769 23.4268 17.4345 23.9853C17.2062 24.5192 17.5399 25.0655 18.5762 25.4168C18.5762 25.4168 18.8572 25.5257 19.2559 25.6223C19.2559 25.6223 18.3689 25.877 18.7957 26.5936C18.7957 26.5936 19.1751 27.3453 20.517 27.4788C20.517 27.4788 19.5159 27.5877 20.222 28.5397C20.222 28.5397 20.5328 29.0613 21.5112 29.2545C21.5112 29.2545 20.77 29.2791 21.1423 29.9448C21.5182 30.6123 22.3982 30.9881 23.2658 31.0496C23.2658 31.0496 23.7348 31.0742 24.0632 31.0004C24.0632 31.0004 23.2377 31.4132 23.7225 32.1035C23.7225 32.1035 24.079 32.5953 24.9713 32.5707C24.9713 32.5707 24.7412 33.3435 25.3946 33.6351C25.904 33.8634 26.3273 33.4981 26.3273 33.4981C26.3273 33.4981 26.1551 34.3253 26.8981 34.6169C26.8981 34.6169 27.2687 34.8083 27.822 34.6169C27.822 34.6169 28.2435 35.5636 29.747 34.8979C31.2505 34.2357 30.1018 28.6609 30.1018 28.6609V28.6591ZM30.1896 37.255C30.1896 37.255 29.9701 38.4389 28.2224 39.9283C28.2224 39.9283 26.8735 41.1174 26.9069 42.4874C26.942 43.8837 26.6662 44.0401 26.1358 44.5125C26.1358 44.5125 27.2301 44.5986 27.7587 43.8697C27.7587 43.8697 27.7359 45.0816 27.5743 45.1923C27.5743 45.1923 27.9186 45.2133 28.4156 44.6706C28.4156 44.6706 28.7142 44.3545 28.9917 44.2333C28.9917 44.2333 28.6686 45.0711 28.9215 45.8474C28.9215 45.8474 29.0023 45.5436 29.4291 45.4101C29.4291 45.4101 30.2019 45.252 30.5005 44.1367C30.5005 44.1367 30.6955 43.399 31.9056 42.7421C31.9056 42.7421 33.2756 42.2257 33.2405 41.5512C33.2054 40.875 30.1914 37.255 30.1914 37.255H30.1896Z" fill="#F4C53D" stroke="#010002" stroke-width="0.175642"/>
<path d="M36.5408 52.5165C36.5408 52.5165 36.2264 53.9006 35.1357 53.7899C35.1357 53.7899 34.3646 53.7162 34.4226 52.4305C34.4226 52.4305 33.2827 53.0382 33.0983 51.5347C33.0983 51.5347 32.062 51.7753 32.0743 50.3702C32.0743 50.3702 31.1082 50.5388 31.2224 49.29C31.2224 49.29 30.1738 49.571 30.1738 48.3942C30.1738 48.3942 27.7219 47.9867 32.833 43.3252L37.3927 46.0406L36.5408 52.5165Z" fill="#F4C53D" stroke="#010002" stroke-width="0.175642" stroke-miterlimit="10"/>
<path d="M37.0484 46.3007C37.0484 46.3007 36.2879 46.9751 35.7469 45.967C35.7469 45.967 35.0092 45.9318 34.8951 45.3733C34.8951 45.3733 34.2961 45.3136 34.1802 44.7427C34.1802 44.7427 33.3635 44.6584 33.3863 43.9682C33.3863 43.9682 31.9004 43.8522 33.3863 42.1696C34.8722 40.4869 37.3927 44.9623 37.3927 44.9623L37.0484 46.3007ZM37.895 45.8827C38.6327 45.8827 39.467 50.4845 39.251 53.2578C39.1719 54.2643 38.6327 55.0863 37.895 55.0863C37.1573 55.0863 36.6199 54.2643 36.5426 53.2578C36.3248 50.4845 37.1591 45.8827 37.895 45.8827Z" fill="#F4C53D" stroke="#010002" stroke-width="0.175642"/>
<path d="M37.895 47.358C38.4576 47.358 38.9137 46.6817 38.9137 45.8474C38.9137 45.0132 38.4576 44.3369 37.895 44.3369C37.3324 44.3369 36.8763 45.0132 36.8763 45.8474C36.8763 46.6817 37.3324 47.358 37.895 47.358Z" fill="#F4C53D" stroke="#010002" stroke-width="0.175642"/>
<path d="M34.4226 52.4305C34.4226 52.4305 34.5385 49.9943 36.6497 46.5008M33.0982 51.5347C33.0982 51.5347 32.7698 50.1278 35.7469 45.9669C35.7469 45.9669 35.4009 44.9745 36.46 44.3369M32.0743 50.3702C32.0743 50.3702 31.9812 48.8474 34.8951 45.3732C34.8951 45.3732 34.6369 44.4774 35.6925 43.7608M31.2224 49.29C31.2224 49.29 31.3313 47.7514 34.1802 44.7427C34.1802 44.7427 34.0397 43.8223 35.0584 43.2515M30.1756 48.3943C30.1756 48.3943 30.3811 46.6361 33.3863 43.9681C33.3863 43.9681 33.2827 43.2761 34.2838 42.5735" stroke="#010002" stroke-width="0.175642" stroke-miterlimit="10"/>
<path d="M6.95927 20.0193C6.95927 20.0193 9.31814 21.3858 16.6705 22.7523M8.0061 21.8987C8.0061 21.8987 14.3942 23.9818 17.3696 24.2382M10.5213 24.2382C10.5213 24.2382 14.2695 25.415 18.6588 26.158M13.7197 26.6902C13.7197 26.6902 17.9527 27.7071 19.9761 27.8757M16.5616 28.689C16.5616 28.689 20.1429 29.4354 21.0492 29.525M18.8414 30.5314C18.8414 30.5314 21.455 30.9284 22.4948 30.9073M22.0873 32.1192C22.0873 32.1192 23.1447 32.0701 23.6523 31.9858M23.0656 33.8177C23.0656 33.8177 23.9649 33.5753 24.4936 33.2363M24.39 35.5759C24.39 35.5759 25.082 35.3089 25.4157 34.5817M26.0779 36.2257C26.0779 36.2257 26.6118 35.7462 26.6469 35.2123M28.0802 36.6438C28.0802 36.6438 27.88 36.4699 28.017 35.7181M27.822 34.6151C27.822 34.6151 27.7166 34.4008 27.7517 34.0601M24.0457 23.85C24.0457 23.85 25.2541 24.3348 25.6563 25.0022C26.0603 25.6697 25.7951 26.3178 25.6563 26.6884C25.5878 26.8763 24.736 28.5186 25.7371 29.7077M24.0615 30.9969C24.0615 30.9969 24.0685 30.9916 24.4936 30.8564M21.5112 29.251C21.5112 29.251 22.2313 29.395 22.9392 29.4021M20.5153 27.4735C20.5153 27.4735 21.3619 27.5596 22.1575 27.5473M19.2559 25.6187C19.2559 25.6187 20.4767 25.8611 21.1318 25.8734M18.2425 23.5497C18.2425 23.5497 19.7477 23.9782 20.8666 24.1311M23.3537 25.0163C23.3537 25.0163 22.2717 26.0227 23.5732 26.9571C23.5732 26.9571 23.0322 27.8055 24.1142 28.6907M23.8261 29.1087C23.8261 29.1087 23.6646 30.7282 25.6458 30.7282C25.6458 30.7282 25.2647 32.1702 27.1774 32.1228C27.1774 32.1228 27.3952 33.275 28.7757 33.0431M25.7354 45.7157C25.7354 45.7157 25.421 45.7859 24.7412 45.7157M22.8303 46.564C22.8303 46.564 21.8748 46.4182 21.9204 48.4926M23.4064 47.0365C23.4064 47.0365 22.5422 46.9276 22.5984 48.9404M31.7441 42.187C31.7441 42.187 31.3296 42.2713 31.0415 42.5998C30.7552 42.9265 30.2019 42.865 30.2019 42.865C30.2019 42.865 30.5005 42.6226 30.6059 42.0166C30.7078 41.4107 31.0433 41.228 31.0433 41.228M30.0544 40.6554C30.0544 40.6554 29.6399 40.7397 29.3518 41.0664C29.0638 41.3949 28.5105 41.3334 28.5105 41.3334C28.5105 41.3334 28.8091 41.091 28.9145 40.4851C29.0181 39.8791 29.3518 39.6964 29.3518 39.6964M29.7681 43.0073C29.7681 43.0073 29.4063 43.0828 29.1551 43.3673C28.9039 43.6536 28.4209 43.6009 28.4209 43.6009C28.4209 43.6009 28.6844 43.3902 28.7722 42.8597C28.8635 42.331 29.1551 42.1712 29.1551 42.1712" stroke="#010002" stroke-width="0.175642"/>
<path d="M54.3668 39.2416L52.6984 46.4399L52.0101 45.9499L53.6434 39.0433L52.5001 39.0666L55.1951 34.1316L55.3701 39.8133L54.3668 39.2416ZM58.6834 40.7583L53.6668 46.6849L53.1301 46.0783L58.1234 40.2216L57.1084 39.6849L61.6818 36.6516L59.3134 41.7616L58.6834 40.7583Z" fill="#0081C6" stroke="#010002" stroke-width="0.175" stroke-miterlimit="10"/>
<path d="M57.4701 37.6084L52.9784 46.2417L52.2901 45.8334L56.8051 37.2234L55.7084 36.9434L59.5234 32.9067L58.2984 38.4484L57.4701 37.6084ZM51.8701 48.8784L51.5317 50.2434L52.4651 51.1767L51.1584 56.6601L49.9917 55.1084L48.2884 55.9017L49.5834 50.4184L50.7967 50.0684L51.1001 48.7034C51.1001 48.7034 51.4734 48.5634 51.8701 48.8784Z" fill="#0081C6" stroke="#010002" stroke-width="0.175" stroke-miterlimit="10"/>
<path d="M52.1851 47.9683L51.5201 49.205L52.1851 50.3366L49.5717 55.295L48.8367 53.475L46.9818 53.7783L49.5951 48.8316H50.8434L51.4851 47.595C51.4851 47.595 51.9517 47.595 52.1851 47.9683Z" fill="#0081C6" stroke="#010002" stroke-width="0.175" stroke-miterlimit="10"/>
<path d="M52.2901 48.3301L50.5401 50.5701L50.9367 51.8301L47.3317 56.0301L47.0051 54.0934L45.1384 53.9534L48.7317 49.7534L49.9451 50.0451L51.8117 47.6651C51.8117 47.6651 52.3251 47.9217 52.2901 48.3301ZM7.64174 43.0801C8.06174 42.9051 8.36507 42.7417 8.36507 42.2984C8.36507 42.1817 8.30674 41.9484 8.19007 41.5867L5.36674 32.9417C5.27225 32.6266 5.15528 32.3185 5.01674 32.0201C4.8884 31.7867 4.6434 31.6817 4.30507 31.5534H7.88674C7.50174 31.7284 7.14007 31.8684 7.15174 32.2884C7.15174 32.4401 7.1984 32.6617 7.28007 32.9534L9.45007 39.7201L11.6084 32.9534C11.6833 32.7392 11.7265 32.5151 11.7367 32.2884C11.7367 31.8567 11.3634 31.7051 11.0017 31.5417H14.4784C14.1634 31.6701 13.8951 31.7751 13.7784 32.0201C13.6368 32.3226 13.5159 32.6344 13.4167 32.9534L10.5934 41.5751C10.5155 41.8071 10.4569 42.0451 10.4184 42.2867C10.4184 42.2867 10.2901 42.8351 11.1417 43.0684H7.64174V43.0801ZM67.7601 42.1934V32.4284C67.7601 32.2651 67.7251 32.1367 67.6667 32.0434C67.6084 31.9501 67.3751 31.6934 67.0251 31.5534H70.2567C69.9976 31.647 69.7736 31.8181 69.6151 32.0434C69.5567 32.1367 69.5334 32.2651 69.5334 32.4284V42.1934C69.5334 42.3684 69.5567 42.4967 69.6151 42.5901C69.6734 42.6834 69.9067 42.9167 70.2567 43.0801H67.0251C67.3751 42.9167 67.6084 42.6834 67.6667 42.5901C67.7251 42.4967 67.7601 42.3684 67.7601 42.1934Z" fill="#0081C6" stroke="#010002" stroke-width="0.175" stroke-miterlimit="10"/>
<path d="M37.8934 45.5183C37.8934 45.5183 46.5501 41.68 46.5618 32.825H29.2251C29.2484 41.6916 37.8934 45.5183 37.8934 45.5183Z" fill="white" stroke="#010002" stroke-width="0.175"/>
<path d="M30.5667 32.8249V38.4832C30.5667 38.4832 31.2201 39.8016 31.8967 40.6182V32.8249H30.5667ZM33.2267 32.8249V42.1582C33.2267 42.1582 34.0667 42.9749 34.5567 43.3716V32.8249H33.2267ZM35.8984 32.8249V44.3632C35.8984 44.3632 36.8434 44.9699 37.2284 45.1799V32.8132H35.8984V32.8249ZM45.2317 32.8249V38.4832C45.2317 38.4832 44.5667 39.8016 43.8901 40.6182V32.8249H45.2317ZM42.5601 32.8249V42.1582C42.5601 42.1582 41.7317 42.9749 41.2301 43.3716V32.8249H42.5601ZM39.9001 32.8249V44.3632C39.9001 44.3632 38.9434 44.9699 38.5584 45.1799V32.8132H39.9001V32.8249Z" fill="#A60032" stroke="#010002" stroke-width="0.175"/>
<path d="M46.5618 26.3849C46.5618 26.3849 42.3151 28.6016 37.8934 26.1982C33.4717 28.6016 29.2251 26.3849 29.2251 26.3849V32.8249H46.5618V26.3849Z" fill="#162667" stroke="#010002" stroke-width="0.175" stroke-miterlimit="10"/>
</g>
<defs>
<clipPath id="clip0_1_76229">
<rect width="74.6667" height="56" fill="white" transform="translate(0 9.375)"/>
</clipPath>
</defs>
</svg>
