<svg width="75" height="75" viewBox="0 0 75 75" fill="none" xmlns="http://www.w3.org/2000/svg">
<rect width="74.6667" height="74.75" fill="white"/>
<g clip-path="url(#clip0_1_76258)">
<path d="M0 9.375H74.6667V65.375H0V9.375Z" fill="#009543"/>
<path d="M0 9.375H74.6667V37.375H0V9.375Z" fill="#D21034"/>
<path d="M0 9.375L34.8444 32.3646H74.6665V42.3856H34.8444L0 65.3752" fill="black"/>
<path d="M0 9.375L34.8444 32.3646H74.6666V42.3856H34.8444L0 65.3752" stroke="#FDCE12" stroke-width="10.8788"/>
<path d="M0 9.375L34.8444 32.3646H74.6666M74.6666 42.3856H34.8444L0 65.3752" stroke="black" stroke-width="5.93391"/>
<path d="M10.0363 42.7393V45.9224C12.8068 45.9224 18.2536 43.8003 18.2536 36.9506C18.2536 30.1009 12.4413 28.8276 10.7083 28.8276C8.96341 28.8276 3.59918 30.0773 3.59918 35.6656C3.59918 41.2774 8.8691 41.7961 9.90657 41.7961C10.9441 41.7961 14.8346 40.8529 14.3866 36.6559C14.2704 37.6802 13.7803 38.6257 13.0102 39.311C12.24 39.9963 11.244 40.3732 10.2131 40.3696C7.38362 40.3696 5.61519 38.271 5.61519 36.1961C5.61519 34.1211 7.33646 31.3388 10.3192 31.3388C13.302 31.3388 15.483 33.9914 15.483 36.6559C15.483 39.3321 13.3845 42.7275 10.0363 42.7275V42.7393Z" fill="#FDCE12"/>
<path d="M7.5958 38.5778L7.76085 38.6956C7.76085 38.6956 9.08128 35.6893 12.6063 33.5554C12.1583 33.7912 9.80044 34.9702 7.5958 38.5778Z" fill="#FDCE12" stroke="#FDCE12" stroke-width="0.0943161"/>
<path d="M7.9377 38.0588C7.9377 38.0588 7.53686 37.2336 7.89054 36.8563C8.24423 36.4908 8.09096 37.8348 8.09096 37.8348L8.24423 37.6108C8.24423 37.6108 8.00844 36.5969 8.26781 36.3847C8.53896 36.1607 8.40928 37.3632 8.40928 37.3632L8.57433 37.151C8.57433 37.151 8.39749 36.1607 8.65686 35.9721C8.92802 35.7835 8.76297 36.9152 8.76297 36.9152L8.9516 36.6795C8.9516 36.6795 8.81012 35.7363 9.12844 35.5123C9.44676 35.2883 9.16381 36.4083 9.16381 36.4083L9.37602 36.1725C9.37602 36.1725 9.2817 35.3119 9.55286 35.1114C9.82402 34.9228 9.60002 35.9367 9.60002 35.9367L9.78865 35.7245C9.78865 35.7245 9.72971 34.9228 9.98907 34.7342C10.2602 34.5456 10.0127 35.5005 10.0127 35.5005L10.2131 35.3119C10.2131 35.3119 10.1659 34.4984 10.496 34.3451C10.8261 34.1919 10.4371 35.0997 10.4371 35.0997L10.6729 34.911C10.6729 34.911 10.7318 33.9679 11.0148 33.8853C11.2977 33.791 10.8969 34.7106 10.8969 34.7106L11.0973 34.5456C11.0973 34.5456 11.2034 33.7439 11.5099 33.6495C11.8282 33.5434 11.3213 34.3805 11.3213 34.3805L11.5217 34.2272C11.5217 34.2272 11.7457 33.4255 12.0405 33.3312C12.3234 33.2487 11.7339 34.0976 11.7339 34.0976L11.9343 33.9561C11.9343 33.9561 12.2527 33.2251 12.5238 33.178C12.7714 33.1308 12.2173 33.7792 12.2173 33.7792L12.4649 33.6378C12.4649 33.6378 12.8775 32.8832 13.0308 33.1072C13.1722 33.343 12.4413 33.6849 12.4413 33.6849L12.2055 33.8264C12.2055 33.8264 13.0897 33.402 13.1958 33.6142C13.3019 33.8264 11.9815 33.9679 11.9815 33.9679L11.7693 34.1093C11.7693 34.1093 12.6535 33.8735 12.5474 34.0976C12.4295 34.3216 11.5571 34.2744 11.5571 34.2744L11.3567 34.4159C11.3567 34.4159 12.2409 34.2037 12.123 34.4159C12.0051 34.6045 11.1444 34.5927 11.1444 34.5927L10.9322 34.7696C10.9322 34.7696 11.7929 34.5338 11.6632 34.8049C11.5453 35.0643 10.555 35.0525 10.555 35.0525L10.3192 35.2883C10.3192 35.2883 11.227 34.97 11.1444 35.2176C11.0737 35.4533 10.0362 35.5712 10.0362 35.5712L9.80044 35.807C9.80044 35.807 10.779 35.4887 10.4842 35.7835C10.2013 36.09 9.48213 36.1607 9.48213 36.1607L9.21097 36.5144C9.21097 36.5144 10.1777 35.9249 10.0362 36.255C9.90655 36.5851 8.9516 36.8091 8.9516 36.8091L8.76297 37.0449C8.76297 37.0449 9.63539 36.538 9.54107 36.8091C9.45855 37.1039 8.52717 37.3986 8.52717 37.3986L8.37391 37.6108C8.37391 37.6108 9.3996 36.9978 9.31707 37.3161C9.22276 37.6226 8.24423 37.8466 8.24423 37.8466L8.12633 38.047C8.12633 38.047 9.06949 37.4929 9.06949 37.7641C9.09307 38.0235 7.96128 38.2828 7.96128 38.2828L7.9377 38.0588Z" fill="#FDCE12"/>
</g>
<defs>
<clipPath id="clip0_1_76258">
<rect width="74.6667" height="56" fill="white" transform="translate(0 9.375)"/>
</clipPath>
</defs>
</svg>
