<svg width="75" height="75" viewBox="0 0 75 75" fill="none" xmlns="http://www.w3.org/2000/svg">
<rect width="74.6667" height="74.75" fill="white"/>
<g clip-path="url(#clip0_1_76263)">
<path fill-rule="evenodd" clip-rule="evenodd" d="M0 9.375H74.6667V65.375H0V9.375Z" fill="#CE1126"/>
<path fill-rule="evenodd" clip-rule="evenodd" d="M0 9.375H37.3333V37.375H0V9.375Z" fill="#002B7F"/>
<path fill-rule="evenodd" clip-rule="evenodd" d="M21 36.1268L18.585 34.4934L16.2633 36.1384L17.0216 33.2334L14.805 31.4601L17.6633 31.2851L18.6083 28.5318L19.635 31.3318L22.435 31.4134L20.2183 33.3151L21 36.1268ZM20.58 16.8068L18.6433 15.5584L16.7766 16.7718L17.29 14.4384L15.5866 12.9568L17.85 12.7701L18.69 10.6001L19.5533 12.7818L21.7816 12.9801L20.0666 14.5434L20.58 16.8068ZM12.0633 23.7484L10.1966 22.4651L8.24829 23.7484L8.85496 21.4851L7.09329 19.9918L9.33329 19.8751L10.15 17.6584L10.9433 19.8634L13.23 19.9918L11.48 21.4501L12.0633 23.7484ZM29.1666 22.2084L27.37 21.0418L25.62 22.2084L26.1333 20.0734L24.5 18.6968L26.635 18.5218L27.37 16.5151L28.1866 18.5451L30.2516 18.6618L28.6533 20.0968L29.1666 22.2084ZM24.1383 27.2718L22.9366 26.5251L21.735 27.2951L22.05 25.8601L20.9766 24.8918L22.3766 24.7751L22.9133 23.4218L23.485 24.7751L24.8733 24.8918L23.8116 25.8601L24.1383 27.2718Z" fill="white"/>
</g>
<defs>
<clipPath id="clip0_1_76263">
<rect width="74.6667" height="56" fill="white" transform="translate(0 9.375)"/>
</clipPath>
</defs>
</svg>
