<svg width="75" height="75" viewBox="0 0 75 75" fill="none" xmlns="http://www.w3.org/2000/svg">
<rect width="74.6667" height="74.75" fill="white"/>
<g clip-path="url(#clip0_1_76332)">
<path d="M0 9.375H74.6667V65.375H0V9.375Z" fill="#244AA5"/>
<path d="M29.5167 35.6016C29.5167 35.6016 29.6567 35.5083 29.7033 35.4966C29.7617 35.4966 29.9367 35.4266 29.9367 35.4266C29.9367 35.4266 30.0533 35.3683 30.1117 35.3683C30.1817 35.3683 30.2983 35.4383 30.345 35.4966C30.38 35.555 30.5783 35.66 30.5783 35.66C30.5783 35.66 30.7183 35.7066 30.7533 35.66C30.7767 35.6133 30.835 35.5783 30.905 35.5783C30.9633 35.5783 30.975 35.52 30.975 35.4733C30.975 35.4266 30.9983 35.3683 31.045 35.31C31.1033 35.2516 31.1967 35.2166 31.1967 35.2166C31.1967 35.2166 31.3367 35.1583 31.3483 35.0766C31.3717 34.995 31.5 34.9366 31.5817 34.925C31.6633 34.925 31.5817 34.8783 31.7917 34.9016C31.99 34.925 32.025 34.855 32.025 34.7966C32.0367 34.7383 32.025 34.68 32.1533 34.68C32.2817 34.7033 32.34 34.7033 32.34 34.6333C32.34 34.5633 32.4567 34.5166 32.2583 34.47C32.0483 34.4116 32.0717 34.4583 32.0483 34.3533C32.0483 34.2716 32.0483 34.2833 31.92 34.2716C31.78 34.26 31.85 34.19 31.8383 34.12C31.8267 34.05 31.7917 34.0033 31.7683 33.9683C31.7333 33.9216 31.6633 33.9216 31.6633 33.8516C31.6633 33.7816 31.6517 33.735 31.5817 33.735C31.5 33.735 31.465 33.735 31.465 33.6766C31.465 33.6066 31.4883 33.56 31.5583 33.56C31.64 33.56 31.675 33.49 31.675 33.42C31.6517 33.35 31.6517 33.1983 31.6517 33.1983L31.7567 33.0816C31.7567 33.0816 32.06 32.8366 32.0833 32.79C32.1067 32.7433 32.2117 32.7083 32.2583 32.8016C32.305 32.895 32.3283 32.9183 32.375 32.965C32.41 33.0116 32.5267 32.9766 32.55 32.93C32.5733 32.8833 32.585 32.7083 32.655 32.615C32.725 32.5333 32.7717 32.4866 32.7833 32.405C32.795 32.3233 32.8417 32.265 32.9233 32.265C32.9933 32.265 33.04 32.16 33.04 32.1016C33.04 32.0433 33.0867 31.985 33.18 31.9616C33.2733 31.95 33.3317 31.8916 33.3667 31.985C33.4017 32.0783 33.4367 32.0666 33.495 32.1016C33.565 32.1366 33.6583 32.1716 33.705 32.1366C33.7633 32.09 33.7867 32.02 33.8567 32.055C33.9267 32.1016 33.9733 32.055 33.9967 31.9733L34.0317 31.7516C34.0317 31.7516 34.0433 31.6933 34.16 31.6933C34.2767 31.6933 34.195 31.6233 34.2533 31.5766C34.3233 31.53 34.3233 31.4833 34.405 31.5066C34.4867 31.5416 34.615 31.4716 34.5567 31.39C34.4867 31.32 34.3467 31.2033 34.4283 31.11C34.51 31.0166 34.545 30.8766 34.4633 30.8533C34.3817 30.8416 34.2533 30.865 34.2417 30.7833C34.23 30.69 34.195 30.62 34.3 30.6083C34.3933 30.5966 34.5567 30.5966 34.615 30.55C34.6617 30.5033 34.825 30.4683 34.825 30.34C34.825 30.2 34.8717 30.1883 34.895 30.1066C34.9067 30.0366 34.9067 29.8733 34.8367 29.8033C34.7667 29.7216 34.6733 29.6166 34.6617 29.57C34.6383 29.5233 34.58 29.4533 34.475 29.4183C34.3817 29.395 34.2883 29.3716 34.2883 29.3016C34.2883 29.22 34.3583 29.3133 34.3583 29.115C34.3583 28.9166 34.23 28.8816 34.23 28.8816L34.0317 28.765C34.0317 28.765 33.6817 28.6716 33.5883 28.6716C33.495 28.6716 33.3783 28.5783 33.4833 28.5083C33.6 28.45 33.6233 28.3333 33.5883 28.2516C33.5417 28.17 33.5183 28.1 33.3667 28.065C33.215 28.03 33.18 27.995 33.25 27.9016C33.3083 27.82 33.3317 27.75 33.4133 27.82C33.4833 27.8783 33.6233 27.9016 33.7283 27.855C33.845 27.8083 33.88 27.7616 33.9383 27.82C33.985 27.8666 34.055 27.9133 34.1367 27.8433C34.2183 27.7616 34.37 27.75 34.44 27.785C34.4983 27.8316 34.6733 27.82 34.72 27.785C34.7667 27.7616 34.8833 27.6683 34.8833 27.6333C34.8833 27.5983 34.9533 27.4933 35.0117 27.4583C35.0817 27.4116 35.1633 27.295 35.2333 27.295C35.3033 27.295 35.3267 27.2133 35.3267 27.1783C35.3267 27.12 35.385 27.015 35.3967 26.98C35.3967 26.945 35.5367 26.8866 35.63 26.98C35.735 27.0383 35.8633 27.0733 35.8633 27.0733C35.8633 27.0733 35.98 27.0966 36.0617 27.0733C36.0985 27.0506 36.1409 27.0386 36.1842 27.0386C36.2274 27.0386 36.2698 27.0506 36.3067 27.0733C36.4117 27.1433 36.54 27.1433 36.54 27.1433L36.575 26.9916C36.575 26.945 36.5983 26.8516 36.54 26.8166C36.4933 26.7816 36.4233 26.735 36.5283 26.6533C36.645 26.5833 36.645 26.595 36.75 26.595L37.0067 26.6066C37.0883 26.6066 37.2167 26.6883 37.2167 26.7583C37.2167 26.8283 37.275 26.875 37.3333 26.9216C37.4033 26.9566 37.485 26.9916 37.45 27.0616C37.4383 27.12 37.4383 27.1783 37.52 27.155C37.6017 27.1433 37.625 27.19 37.625 27.26C37.625 27.3183 37.6483 27.3533 37.7417 27.3766C37.8117 27.4 37.8583 27.4583 37.8583 27.5166C37.8583 27.575 37.835 27.6216 37.8583 27.68L37.975 27.8433C37.975 27.8433 38.1267 28.0183 37.9283 27.925C37.7417 27.8433 37.695 27.8083 37.6367 27.8083L37.52 27.8666L37.3683 27.89C37.2983 27.89 37.2283 28.03 37.345 28.0533C37.45 28.0766 37.485 28.1 37.485 28.1933C37.485 28.2866 37.45 28.2516 37.3917 28.31C37.345 28.38 37.2983 28.3333 37.205 28.3333C37.1117 28.3333 37.0883 28.415 37.0883 28.485C37.0883 28.555 37.1233 28.555 37.1583 28.6016C37.205 28.6716 37.275 28.6833 37.345 28.625C37.4033 28.5666 37.4617 28.52 37.4967 28.6366C37.5433 28.7533 37.6017 28.7533 37.6717 28.7533C37.7533 28.7533 37.7883 28.7533 37.8583 28.7066C37.9167 28.6716 37.9983 28.7066 38.01 28.8116C38.0333 28.905 38.0917 28.9283 38.1617 28.9633C38.2317 28.9983 38.2783 29.0216 38.2783 29.08C38.3017 29.15 38.3367 29.1733 38.4067 29.1383C38.4767 29.0916 38.5817 29.0683 38.6283 29.1266L38.7333 29.2666V29.395L39.0017 29.4883L39.025 29.605C39.025 29.64 39.0717 29.675 39.1417 29.6516H39.3283C39.3283 29.6516 39.4217 29.6166 39.4217 29.535C39.4217 29.465 39.4567 29.4416 39.5383 29.4416C39.5967 29.4416 39.7483 29.5 39.7833 29.4183C39.83 29.3483 39.9467 29.325 40.04 29.36L40.39 29.5C40.39 29.5 40.355 29.5 40.4367 29.6283C40.5183 29.7566 40.67 29.7566 40.67 29.7566C40.67 29.7566 40.67 29.8733 40.705 29.92C40.7283 29.9666 40.8567 29.99 40.915 29.9433C40.985 29.8966 41.0783 29.8266 41.16 29.8266C41.2417 29.8266 41.3 29.8266 41.3 29.78C41.3 29.7333 41.2183 29.6983 41.2183 29.6166C41.2183 29.535 41.3 29.5466 41.3117 29.465C41.3233 29.395 41.405 29.465 41.4633 29.5116C41.5217 29.5583 41.58 29.605 41.58 29.6516C41.58 29.71 41.6967 29.885 41.755 29.9083C41.825 29.9316 42 29.9433 42.0583 29.885C42.105 29.815 42.245 29.7916 42.2333 29.9433C42.2217 30.095 42.1867 30.1066 42.28 30.1533C42.3733 30.2 42.3967 30.3866 42.315 30.4333C42.2333 30.48 42.1983 30.4916 42.1983 30.5733C42.1983 30.655 42.175 30.76 42.245 30.8066C42.315 30.865 42.3617 30.9 42.3617 30.9466C42.3617 31.005 42.4317 31.2266 42.4317 31.2266C42.4317 31.2266 42.4783 31.4483 42.455 31.495C42.455 31.5533 42.42 31.635 42.5367 31.6233C42.6533 31.6116 42.6883 31.6116 42.6883 31.705C42.6883 31.7983 42.735 31.845 42.665 31.88C42.595 31.9266 42.5483 32.0433 42.6183 32.0666C42.6883 32.09 42.735 32.1366 42.7583 32.1833C42.77 32.23 42.875 32.3233 42.945 32.265C43.015 32.2183 43.0267 32.195 43.085 32.1833C43.1317 32.1716 43.1783 32.1366 43.12 32.0666C43.0733 32.0083 43.05 31.95 43.1083 31.9033C43.1667 31.8683 43.19 31.7516 43.19 31.7516C43.19 31.7516 43.2717 31.635 43.365 31.7516C43.4583 31.8683 43.4817 31.8216 43.54 31.8216C43.5983 31.8216 43.6333 31.88 43.6333 31.9383C43.6333 32.0083 43.7733 31.9966 43.7733 32.09L43.7967 32.44C43.7967 32.44 43.7967 32.5683 43.8783 32.615C43.96 32.6733 43.9483 32.685 43.9017 32.7316C43.8667 32.8016 43.8783 32.9066 43.8783 32.965C43.8783 33.0233 43.9017 33.0233 43.8433 33.0816C43.7733 33.1283 43.7383 33.1983 43.785 33.2683C43.82 33.3383 43.8083 33.385 43.9133 33.4783C44.03 33.56 44.0183 33.595 44.0183 33.665C44.0183 33.7233 44.1233 33.8166 44.1233 33.875C44.1233 33.9333 44.205 34.015 44.275 34.0266C44.345 34.0383 44.415 34.1433 44.415 34.2133L44.4267 34.435C44.4267 34.435 44.4267 34.47 44.4967 34.47C44.5783 34.47 44.6367 34.5633 44.66 34.47C44.6833 34.3533 44.7767 34.3533 44.8233 34.3183C44.87 34.2833 44.9867 34.2483 45.045 34.2833C45.1033 34.3183 45.1617 34.3183 45.22 34.3183L45.5233 34.33C45.5233 34.33 45.5933 34.33 45.64 34.4233C45.675 34.5166 45.7917 34.6333 45.7333 34.68C45.6633 34.7383 45.6633 34.8316 45.7333 34.8316C45.8033 34.8316 45.9083 34.8316 45.9083 34.89C45.9083 34.96 45.9083 35.0066 45.99 34.9716C46.0483 34.9366 46.095 34.925 46.1183 34.9716C46.1533 35.0183 46.2 35.0183 46.27 35.0533C46.34 35.1 46.3633 35.065 46.41 35.0183C46.445 34.9716 46.6083 34.925 46.6083 34.925C46.6083 34.925 46.8183 34.8666 46.9 34.89L47.0983 34.9716C47.0983 34.9716 47.145 35.0883 47.1217 35.17C47.0983 35.24 47.0633 35.2283 47.0983 35.345C47.1217 35.4616 47.0633 35.4616 47.0167 35.4616C46.9583 35.4383 46.9 35.4383 46.9 35.5433C46.9 35.6366 46.8533 35.66 46.8533 35.7533C46.8533 35.8466 46.8533 35.8233 46.795 35.87C46.7483 35.905 46.725 35.9633 46.8067 35.9866C46.8883 35.9866 46.865 36.08 46.865 36.1266L46.8533 36.29C46.8533 36.29 46.8533 36.3483 46.7717 36.3483C46.69 36.3483 46.5967 36.3483 46.585 36.4066C46.5617 36.465 46.4683 36.5583 46.55 36.6283C46.6433 36.6866 46.62 36.7216 46.5617 36.745C46.515 36.78 46.4683 36.8966 46.585 36.9316C46.69 36.9783 46.6783 37.0133 46.6083 37.06C46.5383 37.1066 46.41 37.1533 46.41 37.2233C46.41 37.2933 46.375 37.2933 46.2933 37.305C46.2117 37.3166 46.1767 37.4216 46.27 37.5383C46.3633 37.6666 46.3867 37.655 46.4567 37.655C46.5267 37.655 46.5267 37.5383 46.5267 37.5383L46.8183 37.5616C46.8883 37.5616 46.9817 37.5616 47.04 37.5266C47.0983 37.48 47.2383 37.4216 47.2383 37.5266C47.2383 37.6433 47.2733 37.6433 47.3317 37.6783C47.4017 37.7366 47.4133 37.69 47.4717 37.7716C47.53 37.8416 47.5417 37.7716 47.5883 37.69C47.6233 37.6083 47.705 37.5266 47.775 37.62C47.8333 37.725 47.8333 37.69 47.915 37.69C47.9967 37.69 48.0317 37.7366 48.0317 37.795C48.0317 37.8533 48.1017 37.8533 48.2067 37.8416C48.3 37.8416 48.3117 37.9 48.3467 37.9583C48.3817 38.0166 48.405 38.005 48.4633 38.005C48.51 38.005 48.5683 38.005 48.6033 37.9583C48.65 37.9116 48.6967 37.8416 48.755 37.9233C48.8133 37.9933 48.9183 37.9816 48.9417 37.9C48.9767 37.8066 49.0933 37.7366 49.1633 37.83C49.2333 37.935 49.28 37.935 49.35 37.9466C49.42 37.9466 49.5133 37.9466 49.5483 38.0166C49.595 38.0866 49.7233 38.18 49.63 38.25C49.5367 38.3316 49.4317 38.425 49.5133 38.46C49.5865 38.4778 49.6519 38.5187 49.7 38.5766C49.7583 38.6233 49.9333 38.6583 50.015 38.67C50.0967 38.67 50.155 38.6933 50.2483 38.6116C50.3533 38.5416 50.4467 38.5416 50.435 38.6466C50.4233 38.74 50.47 38.8566 50.47 38.8566C50.47 38.8566 50.54 39.02 50.54 39.0783C50.54 39.1366 50.5283 39.1483 50.6567 39.23C50.7733 39.3 50.75 39.3466 50.855 39.2766C50.9483 39.2066 50.9717 39.16 50.9717 39.1016V38.9033C50.9717 38.9033 51.1117 38.88 51.1583 38.845C51.2167 38.7983 51.4267 38.6933 51.485 38.74C51.5433 38.7866 51.6017 38.775 51.66 38.7516C51.7183 38.7283 51.8233 38.7283 51.8817 38.7283C51.9283 38.7283 52.0217 38.74 52.1383 38.6583C52.2433 38.565 52.2433 38.5883 52.3133 38.6583C52.3717 38.7166 52.3717 38.7866 52.3367 38.845C52.29 38.8916 52.3367 38.9966 52.43 38.9966C52.5233 38.9966 52.5467 39.055 52.5467 39.1133L52.5817 39.3116C52.5817 39.3583 52.5817 39.3933 52.745 39.4283C52.885 39.4633 52.8617 39.545 52.885 39.615C52.92 39.6733 52.92 39.7316 52.8383 39.7316C52.7567 39.7316 52.7217 39.7666 52.7217 39.825C52.6983 39.8833 52.5817 39.9066 52.5817 39.9066L52.465 39.8833C52.465 39.8833 52.3717 39.8833 52.3367 39.93C52.29 39.9883 52.22 40.0816 52.2667 40.1633C52.325 40.2566 52.325 40.3033 52.2667 40.35C52.22 40.385 52.185 40.5716 52.1383 40.5366C52.08 40.49 52.0217 40.5366 51.9633 40.5716C51.905 40.595 51.9167 40.77 52.0217 40.8283C52.1383 40.8983 52.1617 40.98 52.1617 40.98L52.2783 41.1666C52.2783 41.1666 52.2433 41.2016 52.22 41.2716C52.185 41.33 52.1033 41.4583 52.185 41.4816C52.2667 41.505 52.2317 41.645 52.15 41.645C52.0683 41.645 51.975 41.5983 51.9633 41.7033C51.9517 41.8083 51.905 41.7733 51.8233 41.7616C51.7417 41.7616 51.5433 41.7033 51.485 41.7966C51.4267 41.9016 51.415 41.9366 51.3217 41.925C51.2283 41.925 51.2633 42.0766 51.2983 42.135L51.415 42.2866C51.415 42.2866 51.4967 42.345 51.4967 42.4733C51.4967 42.59 51.4383 42.59 51.38 42.4966C51.3333 42.415 51.2283 42.4266 51.2167 42.52C51.205 42.625 51.1817 42.7766 51.1 42.7766C50.995 42.7766 50.96 42.8 50.9133 42.8466C50.8783 42.8933 50.8083 42.9866 50.8083 43.0333C50.8083 43.08 50.7967 43.1383 50.7267 43.15C50.6567 43.1616 50.645 43.29 50.645 43.29C50.645 43.29 50.4817 43.325 50.47 43.3833C50.4583 43.4416 50.4817 43.5466 50.3533 43.5583C50.301 43.5645 50.2508 43.5823 50.2063 43.6106C50.1619 43.6389 50.1244 43.6768 50.0967 43.7216C50.05 43.78 50.0383 43.8383 50.0967 43.8966C50.155 43.955 50.19 44.1533 50.26 44.1883C50.3183 44.2233 50.3767 44.2466 50.365 44.34C50.3533 44.445 50.2717 44.515 50.3767 44.515C50.4933 44.515 50.5517 44.5383 50.5167 44.6316C50.47 44.7133 50.47 44.725 50.4 44.76C50.3067 44.8066 50.2717 44.8066 50.2717 44.9C50.2717 44.9933 50.295 45.005 50.225 45.04C50.155 45.075 50.155 45.1216 50.155 45.2033C50.155 45.285 50.1317 45.25 50.05 45.3316C49.9683 45.425 49.8633 45.425 49.7933 45.4016C49.7233 45.3783 49.7117 45.3783 49.7 45.2966C49.6883 45.2266 49.5717 45.2266 49.5017 45.2383C49.4317 45.2383 49.3383 45.32 49.3383 45.32C49.3383 45.32 49.2217 45.4016 49.2683 45.46C49.3267 45.5183 49.2917 45.6233 49.1983 45.6116C49.105 45.6 48.895 45.705 48.825 45.6C48.755 45.4833 48.5683 45.4133 48.5333 45.565C48.51 45.705 48.615 45.6933 48.6033 45.845C48.6033 45.9966 48.5683 45.9966 48.51 46.0433C48.4633 46.09 48.4633 46.1366 48.44 46.195C48.44 46.2533 48.4167 46.3933 48.51 46.44C48.6033 46.4983 48.65 46.6266 48.65 46.7083C48.65 46.7783 48.65 46.86 48.7433 46.86C48.8367 46.86 48.9183 46.8366 48.93 46.755C48.9417 46.6733 49.1283 46.615 49.1517 46.79C49.1517 46.965 49.1517 47.0583 49.2333 47.1283C49.2917 47.1983 49.35 47.3033 49.4083 47.3383C49.455 47.3733 49.5483 47.6883 49.5483 47.6883C49.42 47.7233 49.385 47.8983 49.3033 47.9216C49.2567 47.945 49.1983 47.9216 49.1517 47.9566C49.1283 47.9916 49.1283 48.0383 49.0817 48.05C48.9767 48.0966 49 47.945 48.8717 48.0033C48.7667 48.05 48.755 48.1783 48.6033 48.12C48.5217 48.0966 48.475 47.77 48.4517 47.7L48.3233 47.49C48.23 47.35 48.055 47.49 47.9967 47.4433C47.9033 47.385 47.9383 47.28 47.7983 47.2683C47.5183 47.245 47.7167 47.4433 47.6 47.4783C47.3667 47.56 47.3667 47.2683 47.2033 47.4083C47.145 47.455 47.32 47.49 47.2733 47.5716C47.2383 47.6416 47.075 47.7583 47.075 47.84C47.0983 47.9566 47.215 47.9916 47.25 48.0733C47.3667 48.3416 47.1917 48.5166 46.935 48.3066C46.795 48.2016 46.76 47.9916 46.55 48.015C46.4917 48.015 46.48 48.0616 46.4333 48.0733C46.375 48.0733 46.34 48.0266 46.2817 48.0383C46.2 48.0733 46.2817 48.1316 46.2583 48.1783C46.2583 48.1783 46.1417 48.26 46.1417 48.295C46.0717 48.365 46.095 48.435 46.0017 48.505C45.9317 48.5633 45.8733 48.5283 45.7917 48.6216C45.71 48.7033 45.6983 48.8433 45.5933 48.925C45.535 48.9716 45.5 48.7966 45.43 48.9133L45.4067 48.96C45.3833 48.995 45.3833 49.0066 45.4067 49.0416C45.5467 49.3216 45.2433 49.415 45.15 49.6133C45.115 49.695 45.22 49.765 45.185 49.835L45.01 50.0333C45.01 50.0566 44.9867 50.1266 44.9633 50.15C44.94 50.1733 44.8467 50.15 44.8467 50.1966C44.8467 50.2433 44.94 50.2783 44.9633 50.3016C44.9867 50.3366 44.94 50.3833 44.9633 50.395C45.1033 50.5466 45.0217 50.5 45.0917 50.6283C45.1033 50.6516 45.15 50.6166 45.1733 50.6633C45.185 50.71 45.1267 50.71 45.15 50.7566C45.15 50.78 45.2667 50.92 45.2667 50.92C45.2667 50.9666 45.0567 51.06 45.01 51.06C44.8817 51.06 45.1267 50.8033 44.9167 50.8033C44.8233 50.8033 44.8117 51.0016 44.8 51.0366H44.6833C44.5433 51.0366 44.45 51.2 44.4033 51.2116C44.3683 51.2233 44.2867 51.1883 44.2283 51.2116C44.1817 51.2116 44.1117 51.27 44.065 51.27C44.03 51.27 44.0183 51.2466 43.9833 51.2233C43.925 51.1883 43.8083 51.1766 43.75 51.1533C43.7033 51.1533 43.6333 51.2 43.61 51.1883C43.575 51.165 43.645 51.0716 43.54 51.025L43.4583 50.8266C43.4933 50.71 43.5283 50.5933 43.5167 50.465C43.4933 50.3366 43.2833 50.2316 43.2367 50.115C43.2017 50.045 43.1667 49.835 43.085 49.7883C42.9961 49.7202 42.9242 49.6323 42.875 49.5316C42.875 49.5083 42.91 49.4616 42.875 49.415C42.84 49.38 42.7817 49.3566 42.7583 49.2983C42.7467 49.2516 42.7583 49.0883 42.7 49.0533C42.6417 49.0183 42.2333 48.96 42.1167 48.9483C42.07 48.9483 42.035 48.9483 42 48.9133L41.93 48.8316L41.8133 48.855C41.7783 48.855 41.72 48.8316 41.6967 48.855C41.5683 48.9366 41.5333 49.0533 41.405 49.1583C41.2767 49.2516 41.1367 49.2516 41.0083 49.3566C40.9267 49.4266 40.8683 49.6016 40.7867 49.6833C40.7517 49.7183 40.705 49.6833 40.6933 49.695C40.6233 49.7766 40.53 49.835 40.46 49.905C40.4483 49.9283 40.46 49.9516 40.4367 49.9633L40.285 50.01H40.145C40.0867 50.0333 40.0867 50.1033 39.8533 50.15L39.795 50.185L39.725 50.2433H39.62C39.5617 50.2433 39.5267 50.3016 39.48 50.3016C39.3633 50.325 39.1533 50.2433 39.06 50.29C39.0017 50.3016 38.85 50.4883 38.7917 50.5C38.7567 50.5116 38.7217 50.5 38.675 50.4883L38.605 50.745L38.325 50.99C38.29 51.025 38.2783 51.0716 38.2317 51.1066C38.2083 51.1416 38.1617 51.165 38.115 51.165C38.0683 51.165 37.9867 51.1183 37.9283 51.1183C37.835 51.095 37.5433 51.0833 37.4617 51.1066C37.3567 51.1183 37.3917 51.3866 37.1583 51.41L36.7733 51.4566C36.7617 51.4566 36.68 51.41 36.5983 51.4216C36.5633 51.4333 36.47 51.5383 36.47 51.5616V51.62L36.4933 51.6666C36.4467 51.725 36.33 51.8183 36.295 51.9L36.2483 51.9466C36.225 51.97 36.0617 52.0283 36.05 52.0516C36.015 52.145 36.1667 52.2383 36.1433 52.2733C36.1083 52.39 35.945 52.5066 35.8867 52.6233C35.875 52.67 35.945 52.8216 35.945 52.8683C35.9217 53.02 35.875 53.2066 35.8867 53.3466L35.91 53.545L35.9917 53.6033L36.2017 54.0233C36.2367 54.28 35.8517 54.1866 36.085 54.4433C36.1083 54.49 36.1317 54.525 36.1783 54.56L36.505 54.8283C36.505 54.875 36.2717 54.91 36.2367 54.945C36.12 55.0616 36.0383 55.2483 35.9333 55.365C35.8633 55.4233 35.8167 55.3533 35.7233 55.5166C35.7 55.575 35.7233 55.7033 35.6883 55.75C35.63 55.7966 35.595 55.7266 35.5367 55.75C35.5133 55.75 35.5017 55.8316 35.4783 55.8433C35.42 55.9016 34.8717 56.1933 34.825 56.1583C34.8017 56.1466 34.7667 56.0533 34.7667 56.03C34.7667 55.995 34.72 55.925 34.6967 55.9133C34.5567 55.7966 34.3467 55.7616 34.2067 55.9133C34.1717 55.9483 34.1717 56.0066 34.125 56.03L33.8917 56.2166L33.8333 56.275C33.775 56.275 33.6467 56.1233 33.6 56.0766C33.5533 56.0066 33.3667 55.8433 33.355 55.7616C33.355 55.4816 33.1333 55.19 33.0517 54.9216H33.18C33.3317 54.8166 33.2967 54.5716 33.565 54.665C33.6 54.6183 33.6 54.5716 33.6583 54.5483C33.6817 54.525 33.7283 54.5133 33.74 54.49C33.8333 54.35 33.9383 53.8133 33.845 53.6733C33.7633 53.5566 33.67 53.5566 33.6117 53.3583C33.5883 53.3 33.6117 53.2416 33.6117 53.1716L33.495 52.81C33.4717 52.775 33.4133 52.7516 33.4133 52.7283L33.39 52.3666C33.3083 52.11 32.9933 51.9583 32.9817 51.9233L32.865 51.725C32.8183 51.6433 32.8183 51.6083 32.795 51.5383C32.7833 51.5033 32.725 51.4683 32.725 51.4333C32.725 51.3633 32.9117 51.235 32.9 51.1183C32.9 51.0833 32.7833 50.9666 32.8067 50.9083C32.83 50.8383 32.9467 50.6983 32.9467 50.6166C32.9467 50.5233 32.76 50.3133 32.7367 50.22C32.725 50.1616 32.8067 50.1266 32.7833 50.0916C32.76 50.045 32.5733 49.87 32.55 49.8233C32.515 49.7883 32.6083 49.7416 32.55 49.6716C32.48 49.6133 32.5383 49.625 32.515 49.5783C32.4917 49.52 32.4333 49.4616 32.3983 49.4033C32.375 49.345 32.2117 48.7616 32.2233 48.7266C32.1883 48.6916 32.1417 48.6566 32.1183 48.61L32.0717 48.47C32.0717 48.47 31.885 48.4116 31.85 48.3533C31.8267 48.3183 31.815 48.1666 31.7683 48.0966C31.745 48.0616 31.71 48.0733 31.6867 48.05C31.6633 48.0266 31.6633 47.9916 31.6517 47.9683C31.5933 47.8983 31.4883 47.9683 31.4183 47.6883C31.3017 47.6183 31.22 47.5716 31.1383 47.4783L31.0917 47.4316C31.0217 47.4083 30.9167 47.3966 30.8583 47.35C30.8233 47.35 30.6483 47.35 30.625 47.3266L30.5783 47.2333C30.485 47.2216 30.3217 47.2333 30.24 47.1633C30.1817 47.105 30.17 46.8366 30.0533 46.8716C30.0381 46.8671 30.0219 46.8671 30.0067 46.8716C29.925 46.755 29.6683 46.755 29.5633 46.685C29.54 46.6733 29.4467 46.685 29.4467 46.6616L29.4583 46.51L29.33 46.3466C29.225 46.3233 29.26 46.3116 29.2133 46.2766C29.0383 46.2766 29.015 46.3 28.91 46.3933C28.8867 46.4166 28.8283 46.4283 28.7933 46.44C28.735 46.475 28.7233 46.58 28.6417 46.5333L28.5717 46.475C28.525 46.4283 28.5017 46.4516 28.4783 46.3816C28.3383 46.3 27.9533 46.5566 27.8717 46.3816C27.8017 46.3466 27.755 46.3816 27.6967 46.335C27.6733 46.3116 27.7783 45.985 27.4983 45.8683L27.685 45.74C27.7083 45.705 27.685 45.6466 27.685 45.6233C27.685 45.565 27.72 45.46 27.7083 45.425C27.7083 45.39 27.6617 45.355 27.65 45.3083C27.6267 45.2733 27.65 45.215 27.6267 45.1683L27.5333 45.1216C27.4633 45.0633 27.3933 45.0283 27.335 44.9583L27.2883 44.9C27.2417 44.865 27.0783 44.8066 27.0783 44.7366C27.0783 44.7133 27.125 44.7016 27.125 44.6783C27.1367 44.6433 27.125 44.6083 27.16 44.585C27.23 44.4683 27.405 44.5266 27.3817 44.3283C27.37 44.235 27.3 44.165 27.2883 44.0716C27.2533 44.0483 27.2533 44.0133 27.23 43.99C27.055 43.9783 27.0783 43.8033 27.02 43.7566C26.845 43.64 26.705 43.71 26.9033 43.4766C26.9267 43.395 26.7283 43.2666 26.6933 43.2316C26.6233 43.1616 26.6583 43.01 26.6233 42.94C26.6233 42.905 26.495 42.835 26.46 42.7883L26.4017 42.6716V42.66C26.4367 42.625 26.425 42.5666 26.4017 42.5433C26.39 42.5083 26.3317 42.52 26.32 42.4966C26.1567 42.3566 25.97 42.2866 25.7483 42.205C25.69 42.1816 25.7133 42.135 25.655 42.1116L25.305 41.9716C25.2817 41.9716 25.2583 41.8433 25.235 41.7966L25.13 41.68C25.13 41.5633 25.06 41.5633 24.9667 41.4933V41.4233L25.0367 41.1783C25.0483 41.1316 25.1067 41.085 25.095 41.0383L25.0483 40.77C24.955 40.5366 24.85 40.56 24.9083 40.245C24.9083 40.175 24.8967 40.14 24.9433 40.0816L24.9667 40.0466L25.1067 39.9416C25.1533 39.8716 25.1883 39.72 25.2467 39.6733L25.4567 39.5333C25.48 39.51 25.5033 39.4283 25.4917 39.3933C25.445 39.37 25.3983 39.3816 25.3517 39.37C25.3283 39.37 25.27 39.3233 25.2233 39.3233C25.2117 39.3 25.1883 39.2883 25.1883 39.265L25.165 39.2416C25.1067 39.2416 25.0483 39.2066 25.0017 39.1833C24.9433 39.16 24.8617 39.16 24.8033 39.125C24.6867 39.0666 24.57 38.8916 24.465 38.8683C24.325 38.8333 24.2317 38.88 24.0917 38.8916C24.01 38.8916 24.01 38.845 23.94 38.8216C23.8467 38.7866 23.9167 38.8683 23.7067 38.7983C23.6717 38.775 23.7067 38.705 23.7067 38.6816H23.59C23.4267 38.635 23.485 38.4716 23.4383 38.3666C23.4267 38.3433 23.345 38.3433 23.3217 38.3433C23.2983 38.3433 23.2983 38.32 23.2983 38.32L23.3217 38.3083C23.345 38.2616 23.24 38.145 23.24 38.1216C23.2517 38.0866 23.4733 38.0516 23.4967 38.0516C23.5083 38.0166 23.485 37.9933 23.4733 37.97C23.4733 37.9116 23.5083 37.83 23.5317 37.7716V37.7483C23.4617 37.7133 23.45 37.6666 23.3917 37.6316C23.3917 37.5966 23.4267 37.585 23.4383 37.55C23.5433 37.2583 23.7067 37.4916 23.8467 37.2233C23.8583 37.2 23.905 37.1416 23.9167 37.095H23.94C23.9633 37.095 24.01 37.1183 24.0333 37.095C24.0567 37.0716 24.0917 37.0716 24.1267 37.06H24.185C24.4417 37.0133 24.3833 36.92 24.535 36.815C24.5817 36.78 24.6983 36.7683 24.745 36.745C24.8033 36.78 24.885 36.8616 24.99 36.9083C25.0717 36.9316 25.34 36.99 25.3867 37.025C25.445 37.0483 25.4567 37.1183 25.5033 37.1416C25.655 37.235 25.5617 37.095 25.7133 37.1183C25.865 37.1533 25.9817 37.2816 26.1217 37.34L26.2383 37.3283C26.2733 37.3166 26.5067 37.27 26.53 37.2816L26.6233 37.3166C26.6583 37.3283 26.6817 37.2583 26.7167 37.2583C26.81 37.2816 26.81 37.3166 26.95 37.305C26.95 37.305 27.02 36.92 27.09 36.9083C27.125 36.8966 27.23 36.99 27.2533 37.0016C27.3 37.0133 27.2533 36.92 27.2533 36.92C27.23 36.885 27.16 36.6516 27.1717 36.6283C27.1717 36.6283 27.23 36.6516 27.265 36.64C27.335 36.6166 27.44 36.5933 27.4983 36.535L27.615 36.36C27.6267 36.3366 27.5917 36.2666 27.615 36.2433L27.72 36.1733C27.7667 36.1266 27.7667 36.0566 27.8367 36.0216C28.07 35.9983 28.1517 35.8116 28.3733 35.7883H28.4433L28.49 35.8583C28.49 35.87 28.6417 35.9633 28.665 35.9516C28.6883 35.9516 28.7 35.9166 28.7233 35.905C28.7583 35.9166 28.8867 35.8466 28.8983 35.8C28.8983 35.8 28.875 35.765 28.8867 35.73C28.9449 35.6782 29.0073 35.6314 29.0733 35.59H29.2367C29.26 35.6133 29.26 35.66 29.295 35.66H29.435C29.4583 35.66 29.47 35.6016 29.5167 35.6016Z" fill="#D0A650"/>
<path d="M41.055 17.9382L42.9333 23.7249L38.01 20.1432H44.1L39.1767 23.7249L41.0433 17.9382H41.055Z" fill="white"/>
<path d="M48.3817 19.2334L50.2483 25.0201L45.3367 21.4384H51.415L46.4917 25.0201L48.3817 19.2334Z" fill="white"/>
<path d="M55.37 21.7766L57.2367 27.5633L52.325 23.9816H58.4033L53.48 27.5749L55.37 21.7883V21.7766Z" fill="white"/>
<path d="M33.6117 17.9382L31.7333 23.7249L36.6567 20.1432H30.5667L35.49 23.7249L33.6233 17.9382H33.6117Z" fill="white"/>
<path d="M26.285 19.2334L24.4183 25.0201L29.33 21.4384H23.2517L28.175 25.0201L26.285 19.2334Z" fill="white"/>
<path d="M19.3317 21.7766L21.2217 27.5633L16.2983 23.9816H22.3767L17.4533 27.5633L19.3317 21.7766Z" fill="white"/>
</g>
<defs>
<clipPath id="clip0_1_76332">
<rect width="74.6667" height="56" fill="white" transform="translate(0 9.375)"/>
</clipPath>
</defs>
</svg>
