<svg width="75" height="75" viewBox="0 0 75 75" fill="none" xmlns="http://www.w3.org/2000/svg">
<rect width="74.6667" height="74.75" fill="white"/>
<g clip-path="url(#clip0_1_76601)">
<path fill-rule="evenodd" clip-rule="evenodd" d="M-9.33325 9.375H74.6667V65.375H-9.33325V9.375Z" fill="#198A00"/>
<path fill-rule="evenodd" clip-rule="evenodd" d="M64.8121 29.5H74.6668V65.375H64.8121V29.5Z" fill="#EF7D00"/>
<path fill-rule="evenodd" clip-rule="evenodd" d="M54.9683 29.478H64.8121V65.353H54.9683V29.478Z" fill="black"/>
<path fill-rule="evenodd" clip-rule="evenodd" d="M44.9168 29.5H54.9683V65.375H44.9058L44.9168 29.5Z" fill="#DE2010"/>
<path fill-rule="evenodd" clip-rule="evenodd" d="M68.0604 16.55C68.0604 16.55 71.7792 14.9641 72.1292 14.636C72.2932 14.8329 70.6417 16.8235 67.437 17.5563C70.3464 16.8782 72.8292 14.7125 73.3432 14.7782C73.4854 14.811 73.4526 16.8891 66.7807 18.6938C71.3964 17.4907 74.0761 15.2594 74.0432 15.5C74.0761 15.5547 73.5839 17.25 69.5479 18.5735C70.6745 18.311 73.737 16.4516 73.7042 16.8125C73.8026 16.9547 70.7511 20.8813 65.2167 19.6016C69.6354 20.75 72.4901 17.9829 72.8948 18.0375C72.9823 18.0485 72.0854 20.4438 66.5292 20.5969C69.187 20.3235 68.4214 20.586 68.4214 20.586C68.4214 20.586 66.8573 21.811 64.9542 20.9797C66.4417 21.3844 66.6057 21.4063 66.6386 21.5266C66.5401 21.7016 65.3261 21.9422 64.1339 21.3079C65.0854 21.7016 65.9386 21.7672 65.9495 21.9094C65.9386 21.9532 65.337 22.3032 64.7901 22.0516C64.2542 21.811 59.2886 18.7594 59.2886 18.7594L67.7542 16.4297L68.0604 16.5391V16.55ZM58.1073 24.8188C57.3636 24.8188 57.3417 25.475 57.3417 25.475C57.3417 25.475 57.287 25.5297 57.3198 25.8469L57.5057 25.5625C57.5932 25.5735 57.9323 25.6719 58.4682 25.2563C57.9761 25.7704 58.2714 25.9563 58.2714 25.9563C58.2714 25.9563 58.162 26.361 58.5339 26.4375C58.4245 26.2735 58.4901 26.1313 58.4901 26.1313C58.4901 26.1313 59.0151 26.0766 58.9823 25.4422C58.9932 26.0219 59.3104 26.1641 59.3104 26.1641C59.3104 26.1641 59.3104 26.4813 59.6495 26.5141C59.4745 26.35 59.5073 26.0985 59.5073 26.0985C59.5073 26.0985 59.9448 25.7704 59.5839 25.2235C59.8026 25.0922 59.9886 24.7313 59.9886 24.7313C59.9886 24.7313 59.6823 24.6 59.5401 24.4907C59.4745 24.3485 59.5401 23.561 59.5401 23.561L59.3432 22.5438L58.8182 24.1297C58.8401 23.911 58.8511 24.8188 58.1073 24.8188Z" fill="#EF7D00" stroke="black" stroke-width="0.109375" stroke-linejoin="round"/>
<path fill-rule="evenodd" clip-rule="evenodd" d="M61.7823 22.5328C61.8042 22.5438 62.3401 23.1453 62.8651 23.1125C63.062 22.9484 62.4604 22.5984 62.4604 22.5109C62.6792 22.7078 63.5651 23.4734 64.1448 23.2C64.3636 22.8719 63.7292 22.9266 63.0292 22.0406C63.5214 22.3688 64.7464 23.0797 65.3261 22.8063C65.5558 22.5438 64.0464 21.7234 63.5323 21.0891L62.2198 20.4219L60.4479 21.8766L61.7932 22.5328H61.7823Z" fill="#EF7D00" stroke="black" stroke-width="0.109375" stroke-linejoin="round"/>
<path fill-rule="evenodd" clip-rule="evenodd" d="M59.7808 17.5562C59.7808 17.5562 60.3823 17.2062 62.7995 17.3812C63.062 17.4141 64.4401 16.9109 64.8886 16.7578C65.5886 16.6266 67.8417 16.1453 68.4323 15.6859C68.8698 15.6312 68.3229 16.4625 67.7761 16.6703C67.2073 16.9219 65.1401 17.6437 64.3964 17.5453C65.2823 17.5562 64.7901 18.2781 63.3245 17.9391C64.0245 18.3328 63.762 18.3984 63.762 18.3984C63.762 18.3984 62.5261 18.4641 62.1979 18.1797C63.0292 18.4969 62.6792 18.6172 62.6792 18.6172C62.6792 18.6172 61.837 18.6937 61.4433 18.5078C62.0448 18.6937 61.7386 18.8031 61.7386 18.8031C61.7386 18.8031 61.2464 18.8906 60.8417 18.7375C60.4261 18.5953 59.8136 17.5672 59.7808 17.5672V17.5562Z" fill="#EF7D00" stroke="black" stroke-width="0.109375" stroke-linecap="round" stroke-linejoin="round"/>
<path fill-rule="evenodd" clip-rule="evenodd" d="M60.7433 22.8718L60.8308 24.4687L60.7433 24.6C60.7105 24.6437 59.6167 24.425 59.7589 25.2562C59.7589 25.6062 59.7589 25.6937 59.9995 25.8796C59.9448 25.6609 59.9558 25.4968 59.9558 25.4968C59.9558 25.4968 60.273 25.6828 60.5683 25.1687C60.3605 25.6718 60.5026 25.8578 60.5573 25.8687C60.6011 25.9562 60.4698 26.3609 60.8855 26.35C60.7214 26.1968 60.798 25.9781 60.798 25.9781C60.798 25.9781 61.2355 25.9125 61.0823 25.1359C61.2355 24.9828 61.3011 25.1359 61.3011 25.1359C61.3011 25.1359 61.3448 25.5953 61.7276 25.4968C61.8917 25.5953 61.6948 25.8468 61.6948 25.8468C61.6948 25.8468 61.9683 25.8468 62.0558 25.6281C62.1323 25.3875 62.2308 24.9718 61.7823 24.7968C61.7276 24.6328 61.9573 24.6218 61.9573 24.6218C61.9573 24.6218 62.2417 24.7203 62.3292 24.8625C62.4167 25.0046 62.3839 24.4906 62.023 24.425C61.5855 24.425 61.5636 24.3265 61.5636 24.3156L61.4542 22.8171L60.7433 22.8718Z" fill="#EF7D00" stroke="black" stroke-width="0.109375" stroke-linejoin="round"/>
<path fill-rule="evenodd" clip-rule="evenodd" d="M62.2636 24.2282C62.2636 24.1517 61.5199 23.1454 61.7168 23.0251C61.9027 23.0579 62.209 23.5173 62.4715 23.3642C62.3949 23.1892 62.1652 23.2876 61.9136 22.8282C61.6511 22.3032 61.6183 21.5267 60.7105 20.6845C61.3011 21.5813 62.6136 22.1063 62.6793 21.8438C62.7449 21.5813 61.509 20.597 61.5746 20.3563C61.8152 20.8376 63.0402 21.9313 63.9371 21.8438C64.0027 21.6251 63.2043 21.2095 62.9965 20.8157C62.4168 20.422 60.8746 19.0985 60.8527 18.7923C60.5813 18.331 60.2116 17.9351 59.7699 17.6329C59.7292 17.577 59.6996 17.5139 59.6824 17.447C59.3324 16.6267 59.7918 16.3532 60.0652 16.3204C60.284 16.2876 60.3496 16.3204 60.5027 16.2438L59.9449 16.0251C60.1965 16.211 60.8199 16.047 60.6886 16.572C60.9621 16.4626 61.5527 15.7626 60.0215 15.6095C59.5183 15.0407 57.473 14.7126 56.959 17.2063C57.0027 17.2392 57.0246 17.272 57.1558 17.3595C56.4996 17.0532 54.7605 16.8126 54.1371 16.7032C52.4308 16.222 50.6699 15.0407 50.5058 15.1829C50.2871 15.2923 51.534 16.4517 51.4683 16.4735C50.4955 15.9196 49.4912 15.4229 48.4605 14.986C47.8043 14.7454 47.159 14.1767 47.0933 14.286C46.8527 14.7782 48.1324 16.0251 48.373 16.1673C48.6136 16.3095 50.484 17.1845 50.4511 17.1954C47.6293 15.9157 47.1699 15.6751 47.0168 15.5329C46.7652 15.4782 46.1636 14.6579 45.9996 14.7126C45.9011 14.8001 46.0871 16.0907 47.4324 16.6813C47.6511 16.8345 50.3199 17.786 50.298 17.8626C50.298 17.8845 47.2355 16.6048 47.1261 16.5501C46.5355 16.3313 45.8136 15.522 45.6824 15.6095C45.5511 15.697 46.0105 16.572 46.6011 16.8454C46.9183 16.9767 48.1105 17.5673 49.1824 17.9392C49.248 17.972 47.2465 17.1845 46.284 16.7907C45.8465 16.5501 45.6496 16.2438 45.584 16.3095C45.4746 16.3751 45.7371 17.6657 48.8324 18.3876C48.909 18.4313 49.9261 18.1579 49.8715 18.1907C49.3034 18.3335 48.7259 18.4359 48.1433 18.497C48.1105 18.5845 48.3402 19.0438 49.9371 18.9563C50.134 18.9454 51.2496 18.5517 51.1511 18.6282C50.6198 18.831 50.0797 19.0098 49.5324 19.1642C49.434 19.1642 48.9199 19.2298 48.898 19.2735C48.8761 19.361 49.2808 19.6892 50.134 19.7329C50.8996 19.7767 52.3433 19.2735 52.3215 19.3063C52.2777 19.3392 50.9215 19.8095 50.8886 19.8313C50.834 19.8642 50.3418 19.886 50.3199 19.9298C50.2761 20.0282 51.0418 20.7392 53.284 19.9735C53.0652 20.2798 51.9715 20.4876 51.9715 20.5423C51.9715 20.586 52.2121 20.8157 52.5949 20.9032C52.7808 20.947 53.0433 20.936 53.284 20.9032C53.7215 20.8157 54.159 20.6517 54.7386 20.1157C54.8043 20.2798 53.3058 21.0454 53.3715 21.111C53.6996 21.4173 54.7824 21.0782 54.848 21.0345C54.9246 21.0017 56.9261 19.8642 56.9261 19.722C56.959 19.897 54.334 21.3298 54.3668 21.3845C54.5308 21.647 55.4277 21.3735 55.4605 21.3407L56.6418 20.7063C56.6746 20.6954 55.3511 21.472 55.4605 21.6032C55.4058 22.1173 57.5386 21.2532 57.7027 21.1438C57.7793 21.0892 56.6746 21.6251 56.6746 21.8767C57.0355 22.4782 58.173 22.2923 58.348 22.161C58.4355 22.0954 58.2386 22.5985 58.3043 22.5548C58.4388 22.4171 58.5496 22.2582 58.6324 22.0845C58.6105 22.2595 58.4793 22.522 58.4136 22.8282C58.3371 23.1235 58.3152 23.4735 58.2168 23.8345C58.1949 23.9876 58.9168 23.5173 58.8074 22.3907C58.873 22.9813 58.5886 24.0751 58.6652 24.1407C58.8074 24.2501 59.234 23.5938 59.2777 23.1454C59.398 23.3642 59.6605 23.8345 59.8902 23.9438C59.8683 23.6048 59.8902 23.6157 59.7808 23.2876C59.8465 22.8392 59.8574 22.2267 59.8683 21.5267C60.4808 22.697 60.7324 23.2001 60.5574 24.097C60.7433 24.1735 61.0277 23.4626 61.0058 23.1126C61.0742 23.4059 61.232 23.6707 61.4572 23.8705C61.6825 24.0703 61.9643 24.1953 62.2636 24.2282Z" fill="#EF7D00" stroke="black" stroke-width="0.120312" stroke-linecap="round" stroke-linejoin="round"/>
<path fill-rule="evenodd" clip-rule="evenodd" d="M52.0698 16.7798C52.0698 16.7798 51.6433 17.097 51.1292 17.0751C51.2605 17.6001 52.3323 17.1954 52.3323 17.1954C52.3323 17.1954 51.8183 17.7751 51.4464 17.8626C51.6652 18.0485 52.6058 17.9829 52.7589 17.8954C52.912 17.797 53.1964 17.436 53.1964 17.436C53.1964 17.436 52.2339 18.5517 52.1027 18.5407C52.0698 18.672 53.098 18.6282 53.3058 18.4313C53.5245 18.2345 54.0714 17.9501 54.0714 17.9501C54.0714 17.9501 52.6495 18.9345 52.5948 18.9345C53.1198 19.0657 54.1808 18.7595 54.8589 18.3438C53.8526 19.011 53.7652 19.1313 53.2511 19.361C53.7105 19.4595 53.9402 19.7657 55.4714 19.0985C56.3464 18.6829 56.8495 17.9173 56.8495 17.9173C56.1817 18.7051 55.3824 19.3712 54.487 19.886C54.4323 19.9954 55.5151 20.4548 56.8823 19.022" fill="#EF7D00"/>
<path d="M52.0698 16.7798C52.0698 16.7798 51.6433 17.097 51.1292 17.0751C51.2605 17.6001 52.3323 17.1954 52.3323 17.1954C52.3323 17.1954 51.8183 17.7751 51.4464 17.8626C51.6652 18.0485 52.6058 17.9829 52.7589 17.8954C52.912 17.797 53.1964 17.436 53.1964 17.436C53.1964 17.436 52.2339 18.5517 52.1027 18.5407C52.0698 18.672 53.098 18.6282 53.3058 18.4313C53.5245 18.2345 54.0714 17.9501 54.0714 17.9501C54.0714 17.9501 52.6495 18.9345 52.5948 18.9345C53.1198 19.0657 54.1808 18.7595 54.8589 18.3438C53.8526 19.011 53.7652 19.1313 53.2511 19.361C53.7105 19.4595 53.9402 19.7657 55.4714 19.0985C56.3464 18.6829 56.8495 17.9173 56.8495 17.9173C56.1817 18.7051 55.3824 19.3712 54.487 19.886C54.4323 19.9954 55.5151 20.4548 56.8823 19.022" stroke="black" stroke-width="0.120312" stroke-linecap="round" stroke-linejoin="round"/>
<path fill-rule="evenodd" clip-rule="evenodd" d="M59.5073 19.875C59.5073 19.875 59.6058 20.3125 59.9777 20.6406C60.3495 20.9688 60.3714 21.2969 60.3714 21.2969M59.3323 17.0312C59.3323 17.0312 59.4526 17.4359 59.8355 17.6875C60.2292 17.9281 60.8198 18.7156 60.8527 18.8578C60.8964 19.0219 61.1261 20.2359 61.1042 20.3672M56.9698 17.6328C56.9917 17.7969 56.423 18.5406 57.2105 19.4266C56.4886 20.3016 56.4886 20.4109 56.4886 20.4109C56.4886 20.4109 56.8933 20.6297 57.6042 20.0172C58.7855 21.4609 58.3917 22.1172 58.3917 22.1172" fill="#EF7D00"/>
<path d="M59.5073 19.875C59.5073 19.875 59.6058 20.3125 59.9777 20.6406C60.3495 20.9688 60.3714 21.2969 60.3714 21.2969M59.3323 17.0312C59.3323 17.0312 59.4526 17.4359 59.8355 17.6875C60.2292 17.9281 60.8198 18.7156 60.8527 18.8578C60.8964 19.0219 61.1261 20.2359 61.1042 20.3672M56.9698 17.6328C56.9917 17.7969 56.423 18.5406 57.2105 19.4266C56.4886 20.3016 56.4886 20.4109 56.4886 20.4109C56.4886 20.4109 56.8933 20.6297 57.6042 20.0172C58.7855 21.4609 58.3917 22.1172 58.3917 22.1172" stroke="black" stroke-width="0.120312" stroke-linecap="round"/>
<path fill-rule="evenodd" clip-rule="evenodd" d="M58.2933 21.1C58.2933 21.1 58.1839 20.9469 58.3808 20.3672C58.5558 20.5859 58.7527 20.6188 58.8292 20.6953C58.9167 20.7937 59.8136 20.9141 59.8574 21.5156" fill="#EF7D00"/>
<path d="M58.2933 21.1C58.2933 21.1 58.1839 20.9469 58.3808 20.3672C58.5558 20.5859 58.7527 20.6188 58.8292 20.6953C58.9167 20.7937 59.8136 20.9141 59.8574 21.5156" stroke="black" stroke-width="0.120312" stroke-linecap="round" stroke-linejoin="round"/>
<path fill-rule="evenodd" clip-rule="evenodd" d="M59.3432 15.6641C59.3432 15.6203 59.1573 15.2266 58.4901 15.7078C58.851 15.7297 59.201 15.9375 59.3432 15.6641Z" fill="#EF7D00" stroke="black" stroke-width="0.120312"/>
<path fill-rule="evenodd" clip-rule="evenodd" d="M65.7089 17.4141C65.7417 17.4359 67.6995 17.8516 68.3558 17.6437C67.5245 18.7594 65.8511 18.0047 65.8511 18.0047C66.6714 18.2453 66.7042 18.2234 66.9667 18.4641C67.0542 18.6828 65.4573 18.5734 64.9433 18.2781C66.398 18.7375 66.4308 18.7156 66.4745 18.8797C66.5402 19.1313 64.0902 18.8141 63.8823 18.4969C64.5386 19 64.8886 19.0984 65.2495 19.3281C64.812 19.525 63.9917 19.7219 62.4933 18.6609C64.462 20.4547 66.2448 20.3453 66.5292 20.6625C65.8402 21.6797 63.1714 20.0609 61.9464 19.2406C60.7214 18.4203 64.6261 21.2203 64.987 21.1766C64.812 21.45 63.5214 21.2094 63.4339 21.0672" fill="#EF7D00"/>
<path d="M65.7089 17.4141C65.7417 17.4359 67.6995 17.8516 68.3558 17.6437C67.5245 18.7594 65.8511 18.0047 65.8511 18.0047C66.6714 18.2453 66.7042 18.2234 66.9667 18.4641C67.0542 18.6828 65.4573 18.5734 64.9433 18.2781C66.398 18.7375 66.4308 18.7156 66.4745 18.8797C66.5402 19.1313 64.0902 18.8141 63.8823 18.4969C64.5386 19 64.8886 19.0984 65.2495 19.3281C64.812 19.525 63.9917 19.7219 62.4933 18.6609C64.462 20.4547 66.2448 20.3453 66.5292 20.6625C65.8402 21.6797 63.1714 20.0609 61.9464 19.2406C60.7214 18.4203 64.6261 21.2203 64.987 21.1766C64.812 21.45 63.5214 21.2094 63.4339 21.0672" stroke="black" stroke-width="0.120312" stroke-linejoin="round"/>
<path fill-rule="evenodd" clip-rule="evenodd" d="M66.212 19.2954C65.9933 19.3282 65.3042 19.3282 65.2057 19.3063L66.212 19.2954Z" fill="#EF7D00"/>
<path d="M66.212 19.2954C65.9933 19.3282 65.3042 19.3282 65.2057 19.3063" stroke="black" stroke-width="0.120312" stroke-linecap="round"/>
<path fill-rule="evenodd" clip-rule="evenodd" d="M51.4901 16.4844C51.4901 16.4844 52.9776 17.2719 53.612 17.2172C53.4909 17.3193 53.3491 17.394 53.1964 17.4359C53.3495 17.5016 53.787 17.7312 54.4432 17.5891L54.0823 17.9172C54.0823 17.9172 54.651 18.1359 55.2854 17.8078C55.1767 17.9375 55.0744 18.0726 54.9792 18.2125L55.4276 18.2453" fill="#EF7D00"/>
<path d="M51.4901 16.4844C51.4901 16.4844 52.9776 17.2719 53.612 17.2172C53.4909 17.3193 53.3491 17.394 53.1964 17.4359C53.3495 17.5016 53.787 17.7312 54.4432 17.5891L54.0823 17.9172C54.0823 17.9172 54.651 18.1359 55.2854 17.8078C55.1767 17.9375 55.0744 18.0726 54.9792 18.2125L55.4276 18.2453" stroke="black" stroke-width="0.120312" stroke-linecap="round" stroke-linejoin="round"/>
</g>
<defs>
<clipPath id="clip0_1_76601">
<rect width="74.6667" height="56" fill="white" transform="translate(0 9.375)"/>
</clipPath>
</defs>
</svg>
