<svg width="75" height="75" viewBox="0 0 75 75" fill="none" xmlns="http://www.w3.org/2000/svg">
<rect width="74.6667" height="74.75" fill="white"/>
<g clip-path="url(#clip0_1_77212)">
<path d="M-0.268311 9.36328H114.607V65.3507H-0.268311V9.36328Z" fill="#006400"/>
<path d="M-0.268311 17.3616H114.607V57.3526H-0.268311V17.3616Z" fill="#FFD200"/>
<path d="M-0.268311 25.3596H114.607V49.3542H-0.268311V25.3596Z" fill="#D40000"/>
<path d="M-0.268311 33.3579H114.607V41.3561H-0.268311V33.3579Z" fill="black"/>
<path d="M-0.268311 9.36328V65.3507L38.0236 37.357L-0.268311 9.36328Z" fill="black" stroke="black" stroke-width="2.70038"/>
<path d="M-0.268311 9.36328V65.3507L38.0236 37.357L-0.268311 9.36328Z" fill="white"/>
<path d="M14.2962 23.2803L21.8862 46.0352L2.02917 31.9717H26.577L6.70625 46.0352L14.2962 23.2803Z" fill="#D40000"/>
<path d="M11.0551 43.1824L12.3953 42.9424L14.8706 42.8491L15.7869 42.9291L17.8383 43.2623L17.9887 43.0624V41.6227L18.2348 40.383L18.6451 39.1299L19.0964 38.1302L19.6708 37.0904L20.6007 37.317H20.8469L20.8743 37.1437L18.905 35.5041L16.8536 33.9711L13.886 31.8116L13.6125 31.7449L13.2979 29.4788L13.0654 28.7989L12.7509 28.5323L12.1629 28.3457L11.5064 28.3724L11.2056 28.5323L10.5765 28.6656L10.2483 28.719L10.0294 28.9722L10.0021 29.2922L10.9184 29.3188L11.1509 29.4121L11.1235 29.5054L10.6038 29.5721L10.3577 29.6521L10.6449 29.8654L10.9457 29.972L11.3286 30.1053L11.4107 30.3719L11.438 33.8111L11.2329 34.3444L11.1645 35.3441L11.4654 36.5439L10.6996 37.397L10.2619 38.1568L10.1799 38.6234L9.94739 39.09L9.92004 39.3832L10.0705 39.7031L10.6585 41.5961L10.9594 43.1557L11.0551 43.1824Z" fill="#FFCC00"/>
<path d="M11.7663 28.2924C11.5201 28.2924 11.4107 28.3191 11.1782 28.4391C10.9856 28.5466 10.7705 28.6103 10.5491 28.6257C10.2072 28.6257 9.93372 28.8656 9.93372 29.1722V29.3722L10.426 29.3588C11.8757 29.3988 10.5628 29.5321 10.4534 29.5455C10.0978 29.6121 10.5355 29.8921 10.9594 30.0387C11.4107 30.172 11.3833 30.092 11.3833 32.0382C11.3833 33.6246 11.3833 33.8512 11.2466 34.2111C11.0688 34.7443 11.0688 35.5441 11.2466 36.0773C11.3286 36.2906 11.3833 36.4772 11.3833 36.5172C11.3833 36.5439 11.1645 36.7972 10.9047 37.0904C10.426 37.6237 10.1389 38.1702 10.1389 38.5568C10.1218 38.6812 10.075 38.7999 10.0021 38.9034C9.82432 39.13 9.82432 39.5166 9.98843 39.6632C10.1662 39.8232 10.891 42.5692 10.9047 43.0891C10.9047 43.2757 10.932 43.2757 12.0398 43.0624C12.9424 42.8891 15.0621 42.8491 16.1425 42.9824C16.6348 43.0491 17.2092 43.1557 17.4143 43.1957C18.0707 43.369 18.0434 43.3957 18.0434 42.6225C18.0484 41.4043 18.2849 40.1976 18.7409 39.0633C19.0022 38.417 19.3178 37.7928 19.6845 37.1971C19.6845 37.1971 19.9306 37.2237 20.2315 37.3037C20.7922 37.437 20.9563 37.4237 20.9563 37.1704C20.9563 37.0371 20.3683 36.5572 17.4827 34.3711C16.3189 33.4425 15.1191 32.5576 13.886 31.7183C13.8039 31.7183 13.7219 31.6783 13.7082 31.625L13.5031 30.3586C13.4073 29.7054 13.2706 29.0656 13.2159 28.9323C13.0244 28.5324 12.6552 28.3324 12.0398 28.2924C11.9486 28.2896 11.8574 28.2896 11.7663 28.2924ZM11.7799 28.4257H12.0535C12.956 28.479 13.1202 28.719 13.3663 30.292C13.4327 30.7081 13.4875 31.126 13.5304 31.545C13.5304 31.6517 13.4073 31.785 13.0928 31.9849C12.5753 32.3389 12.1144 32.7657 11.7252 33.2513L11.5475 33.4913L11.5064 32.9314V31.3584C11.5475 30.1987 11.5064 30.092 11.1235 29.9587C10.809 29.8521 10.3987 29.7454 10.5081 29.6788C10.6449 29.5988 10.7816 29.6521 11.1098 29.5588C11.2466 29.5321 11.2329 29.5455 11.2056 29.4388C11.1782 29.2655 10.9868 29.1722 10.4808 29.1989C10.0705 29.2255 10.0295 29.2122 10.0568 29.1056C10.1115 28.8923 10.3303 28.759 10.6722 28.719C10.8815 28.6954 11.0851 28.6368 11.2739 28.5457C11.4266 28.4562 11.6018 28.4101 11.7799 28.4124V28.4257ZM13.8176 31.8649H13.8723C14.1048 31.9049 20.8196 37.0238 20.8196 37.1704C20.8196 37.2237 20.7649 37.2637 20.6828 37.2637C20.6281 37.2637 18.9186 36.7972 16.8946 36.224C13.6672 35.2908 13.2022 35.1575 13.0655 34.9842C12.9703 34.8671 12.9174 34.7227 12.915 34.5733C12.9125 34.4239 12.9606 34.2778 13.0518 34.1578C13.1174 34.0801 13.1642 33.989 13.1885 33.8912C13.1885 33.7312 12.8466 34.1311 12.7783 34.3577C12.7099 34.6243 12.8466 35.0776 13.0518 35.2242C13.1338 35.2908 13.7492 35.4908 14.4193 35.6908C15.5681 36.0107 15.6502 36.0507 15.7049 36.2373C15.8416 36.6772 15.363 37.1971 14.6792 37.3437C14.4228 37.4035 14.1811 37.5123 13.968 37.6636C13.2585 38.2365 12.4658 38.7037 11.6158 39.05C11.5611 39.09 11.4928 39.3033 11.4517 39.5032C11.3697 39.9431 11.3423 40.0098 11.2056 40.0098C11.1372 40.0098 11.1235 39.9698 11.1782 39.8232C11.2739 39.5566 11.2603 39.2366 11.1645 39.2366C11.0962 39.2366 11.0688 39.3299 11.0688 39.4766C11.0688 39.6099 11.0278 39.7698 10.9731 39.8098C10.9047 39.8898 10.891 39.8365 10.9184 39.5032C10.9457 39.2766 10.932 39.1033 10.9047 39.1033C10.8363 39.1033 10.7132 39.4366 10.6722 39.7298C10.6449 39.9031 10.6449 39.9031 10.5902 39.6899C10.5491 39.5299 10.5628 39.4232 10.6859 39.2233C10.7636 39.0785 10.8101 38.9197 10.8226 38.7567C10.8226 38.5834 10.9594 38.4101 11.6022 37.7836C12.0124 37.3704 12.5184 36.8505 12.6962 36.6239C13.0108 36.2506 13.0244 36.224 13.0107 35.8374C13.0107 35.6241 12.9834 35.4241 12.956 35.3975C12.874 35.3175 12.7646 35.7441 12.8193 35.9707C12.8466 36.184 12.8193 36.2506 12.368 36.7705C12.0433 37.1328 11.701 37.4798 11.3423 37.8103C10.809 38.2902 10.6175 38.5568 10.6175 38.7967C10.6175 38.8767 10.5628 39.0633 10.4808 39.2366C10.3987 39.4099 10.3713 39.5832 10.3987 39.6232C10.426 39.6632 10.3987 39.6632 10.3577 39.6232C10.2893 39.5566 10.2893 39.4499 10.344 39.2233C10.3753 39.1105 10.3846 38.9929 10.3713 38.8767C10.303 38.7434 10.2072 38.9034 10.1662 39.2366C10.1389 39.4232 10.0978 39.5699 10.0568 39.5432C9.96108 39.4899 9.98843 39.1433 10.1115 38.9567C10.1799 38.8634 10.2483 38.6501 10.2893 38.4768C10.385 37.9836 10.6038 37.5837 11.0825 37.0504C11.2358 36.8878 11.3818 36.7188 11.5201 36.5439L11.3833 36.104C11.1999 35.5096 11.1905 34.8771 11.356 34.2777C11.5338 33.7712 11.8893 33.2646 12.45 32.7181C12.9971 32.1982 13.5304 31.8783 13.8176 31.8649ZM15.869 36.1573C15.8862 36.1561 15.9037 36.1572 15.9203 36.1607C15.9368 36.1641 15.9521 36.1698 15.965 36.1774C15.9779 36.1849 15.9882 36.1942 15.9952 36.2045C16.0023 36.2148 16.0058 36.226 16.0057 36.2373C15.9973 36.253 15.9816 36.2666 15.9608 36.2762C15.94 36.2858 15.915 36.291 15.8895 36.291C15.8639 36.291 15.839 36.2858 15.8182 36.2762C15.7973 36.2666 15.7816 36.253 15.7732 36.2373C15.7725 36.2188 15.7817 36.2008 15.7991 36.1862C15.8166 36.1716 15.8412 36.1614 15.869 36.1573ZM16.2109 36.1973C16.2281 36.1961 16.2456 36.1972 16.2622 36.2006C16.2787 36.2041 16.294 36.2098 16.3069 36.2173C16.3198 36.2249 16.3301 36.2341 16.3371 36.2445C16.3441 36.2548 16.3477 36.266 16.3476 36.2773C16.3392 36.293 16.3235 36.3066 16.3027 36.3162C16.2818 36.3258 16.2569 36.331 16.2314 36.331C16.2058 36.331 16.1809 36.3258 16.1601 36.3162C16.1392 36.3066 16.1235 36.293 16.1151 36.2773C16.1144 36.2588 16.1236 36.2408 16.141 36.2262C16.1585 36.2116 16.1831 36.2014 16.2109 36.1973ZM16.5664 36.264C16.5837 36.2627 16.6012 36.2638 16.6177 36.2673C16.6343 36.2707 16.6495 36.2764 16.6624 36.284C16.6754 36.2916 16.6857 36.3008 16.6927 36.3111C16.6997 36.3215 16.7033 36.3326 16.7032 36.3439C16.6948 36.3596 16.6791 36.3732 16.6582 36.3828C16.6374 36.3925 16.6125 36.3976 16.5869 36.3976C16.5614 36.3976 16.5365 36.3925 16.5156 36.3828C16.4948 36.3732 16.4791 36.3596 16.4707 36.3439C16.47 36.3255 16.4791 36.3074 16.4966 36.2928C16.514 36.2783 16.5387 36.2681 16.5664 36.264ZM16.8946 36.3306C16.9119 36.3294 16.9294 36.3305 16.9459 36.3339C16.9625 36.3374 16.9777 36.3431 16.9907 36.3506C17.0036 36.3582 17.0139 36.3675 17.0209 36.3778C17.0279 36.3881 17.0315 36.3993 17.0314 36.4106C17.023 36.4263 17.0073 36.4399 16.9865 36.4495C16.9656 36.4591 16.9407 36.4643 16.9152 36.4643C16.8896 36.4643 16.8647 36.4591 16.8438 36.4495C16.823 36.4399 16.8073 36.4263 16.7989 36.4106C16.7982 36.3921 16.8073 36.3741 16.8248 36.3595C16.8422 36.3449 16.8669 36.3347 16.8946 36.3306ZM16.0331 36.4106C16.0503 36.4093 16.0678 36.4105 16.0844 36.4139C16.1009 36.4174 16.1162 36.4231 16.1291 36.4306C16.142 36.4382 16.1523 36.4474 16.1593 36.4578C16.1664 36.4681 16.1699 36.4793 16.1698 36.4906C16.1614 36.5063 16.1457 36.5199 16.1249 36.5295C16.1041 36.5391 16.0791 36.5443 16.0536 36.5443C16.028 36.5443 16.0031 36.5391 15.9823 36.5295C15.9614 36.5199 15.9457 36.5063 15.9373 36.4906C15.9366 36.4721 15.9458 36.4541 15.9632 36.4395C15.9807 36.4249 16.0054 36.4147 16.0331 36.4106ZM16.3613 36.4639C16.3786 36.4627 16.396 36.4638 16.4126 36.4672C16.4291 36.4707 16.4444 36.4764 16.4573 36.4839C16.4702 36.4915 16.4805 36.5008 16.4876 36.5111C16.4946 36.5214 16.4982 36.5326 16.498 36.5439C16.4896 36.5596 16.4739 36.5732 16.4531 36.5828C16.4323 36.5924 16.4074 36.5976 16.3818 36.5976C16.3562 36.5976 16.3313 36.5924 16.3105 36.5828C16.2897 36.5732 16.274 36.5596 16.2656 36.5439C16.2649 36.5254 16.274 36.5074 16.2914 36.4928C16.3089 36.4782 16.3336 36.468 16.3613 36.4639ZM17.0724 36.4906C17.0897 36.4893 17.1072 36.4905 17.1237 36.4939C17.1403 36.4974 17.1555 36.5031 17.1684 36.5106C17.1814 36.5182 17.1917 36.5274 17.1987 36.5377C17.2057 36.5481 17.2093 36.5593 17.2092 36.5706C17.2008 36.5862 17.1851 36.5998 17.1642 36.6095C17.1434 36.6191 17.1185 36.6243 17.0929 36.6243C17.0674 36.6243 17.0425 36.6191 17.0216 36.6095C17.0008 36.5998 16.9851 36.5862 16.9767 36.5706C16.976 36.5521 16.9851 36.534 17.0026 36.5195C17.02 36.5049 17.0447 36.4947 17.0724 36.4906ZM16.7032 36.4906C16.7205 36.4893 16.7379 36.4905 16.7545 36.4939C16.771 36.4974 16.7863 36.5031 16.7992 36.5106C16.8121 36.5182 16.8224 36.5274 16.8294 36.5377C16.8365 36.5481 16.84 36.5593 16.8399 36.5706C16.8315 36.5862 16.8158 36.5998 16.795 36.6095C16.7742 36.6191 16.7492 36.6243 16.7237 36.6243C16.6981 36.6243 16.6732 36.6191 16.6524 36.6095C16.6316 36.5998 16.6158 36.5862 16.6075 36.5706C16.6067 36.5521 16.6159 36.534 16.6333 36.5195C16.6508 36.5049 16.6755 36.4947 16.7032 36.4906ZM17.387 36.5706C17.4006 36.5706 17.893 36.6772 18.481 36.8372L19.5614 37.1438L19.3563 37.5037C19.2416 37.6964 19.1322 37.892 19.028 38.0902C18.8913 38.3568 18.8639 38.3568 18.2075 38.2102C17.4964 38.0502 16.375 37.9036 15.2262 37.8103L14.1322 37.717L14.5424 37.5703C14.7901 37.4774 15.0322 37.3706 15.2672 37.2504C15.5407 37.1038 15.6502 37.0771 16.0741 37.1171C16.6895 37.1571 17.0998 37.0371 17.2639 36.7972L17.4006 36.5706H17.387ZM16.1835 36.6505C16.2008 36.6493 16.2183 36.6504 16.2348 36.6539C16.2514 36.6573 16.2666 36.663 16.2795 36.6706C16.2924 36.6781 16.3027 36.6874 16.3098 36.6977C16.3168 36.708 16.3204 36.7192 16.3203 36.7305C16.3119 36.7462 16.2962 36.7598 16.2753 36.7694C16.2545 36.779 16.2296 36.7842 16.204 36.7842C16.1785 36.7842 16.1535 36.779 16.1327 36.7694C16.1119 36.7598 16.0962 36.7462 16.0878 36.7305C16.0871 36.7121 16.0962 36.694 16.1137 36.6794C16.1311 36.6648 16.1558 36.6546 16.1835 36.6505ZM16.9493 36.6505C16.9666 36.6493 16.9841 36.6504 17.0007 36.6539C17.0172 36.6573 17.0324 36.663 17.0454 36.6706C17.0583 36.6781 17.0686 36.6874 17.0756 36.6977C17.0826 36.708 17.0862 36.7192 17.0861 36.7305C17.0757 36.7436 17.0601 36.7545 17.0408 36.7622C17.0215 36.7698 16.9993 36.7739 16.9767 36.7739C16.9541 36.7739 16.9319 36.7698 16.9126 36.7622C16.8933 36.7545 16.8776 36.7436 16.8673 36.7305C16.8666 36.7121 16.8757 36.694 16.8932 36.6794C16.9106 36.6648 16.9353 36.6546 16.963 36.6505H16.9493ZM15.8553 36.6505C15.8726 36.6493 15.89 36.6504 15.9066 36.6539C15.9231 36.6573 15.9384 36.663 15.9513 36.6706C15.9642 36.6781 15.9745 36.6874 15.9816 36.6977C15.9886 36.708 15.9922 36.7192 15.992 36.7305C15.9836 36.7462 15.9679 36.7598 15.9471 36.7694C15.9263 36.779 15.9014 36.7842 15.8758 36.7842C15.8502 36.7842 15.8253 36.779 15.8045 36.7694C15.7837 36.7598 15.768 36.7462 15.7596 36.7305C15.7632 36.7144 15.7743 36.6994 15.7914 36.6875C15.8085 36.6756 15.8308 36.6673 15.8553 36.6639V36.6505ZM16.5801 36.6772C16.6117 36.6746 16.6437 36.6801 16.6692 36.6926C16.6947 36.705 16.7118 36.7234 16.7169 36.7439C16.7085 36.7595 16.6928 36.7731 16.6719 36.7828C16.6511 36.7924 16.6262 36.7975 16.6006 36.7975C16.5751 36.7975 16.5501 36.7924 16.5293 36.7828C16.5085 36.7731 16.4928 36.7595 16.4844 36.7439C16.488 36.7277 16.4991 36.7127 16.5162 36.7008C16.5333 36.6889 16.5556 36.6806 16.5801 36.6772ZM15.6775 36.8238C15.6948 36.8226 15.7123 36.8237 15.7288 36.8272C15.7454 36.8306 15.7606 36.8363 15.7735 36.8439C15.7864 36.8514 15.7968 36.8607 15.8038 36.871C15.8108 36.8813 15.8144 36.8925 15.8143 36.9038C15.8059 36.9195 15.7902 36.9331 15.7693 36.9427C15.7485 36.9523 15.7236 36.9575 15.698 36.9575C15.6725 36.9575 15.6475 36.9523 15.6267 36.9427C15.6059 36.9331 15.5902 36.9195 15.5818 36.9038C15.5811 36.8854 15.5902 36.8673 15.6077 36.8527C15.6251 36.8381 15.6498 36.8279 15.6775 36.8238ZM16.0194 36.8238C16.0385 36.8222 16.058 36.8236 16.0762 36.8278C16.0944 36.832 16.1108 36.8389 16.1241 36.848C16.1374 36.8571 16.1472 36.8681 16.1528 36.8801C16.1584 36.8921 16.1595 36.9048 16.1562 36.9171C16.1478 36.9328 16.132 36.9464 16.1112 36.956C16.0904 36.9657 16.0655 36.9708 16.0399 36.9708C16.0144 36.9708 15.9894 36.9657 15.9686 36.956C15.9478 36.9464 15.9321 36.9328 15.9237 36.9171C15.923 36.8987 15.9321 36.8806 15.9496 36.866C15.967 36.8515 15.9917 36.8413 16.0194 36.8372V36.8238ZM16.375 36.8505C16.4066 36.8479 16.4385 36.8534 16.4641 36.8659C16.4896 36.8783 16.5067 36.8967 16.5117 36.9171C16.5033 36.9328 16.4876 36.9464 16.4668 36.956C16.446 36.9657 16.421 36.9708 16.3955 36.9708C16.3699 36.9708 16.345 36.9657 16.3242 36.956C16.3033 36.9464 16.2876 36.9328 16.2792 36.9171C16.2828 36.901 16.2939 36.886 16.3111 36.8741C16.3282 36.8622 16.3505 36.8539 16.375 36.8505ZM16.7579 36.8505C16.7752 36.8492 16.7926 36.8504 16.8092 36.8538C16.8257 36.8573 16.841 36.863 16.8539 36.8705C16.8668 36.8781 16.8771 36.8873 16.8841 36.8977C16.8912 36.908 16.8947 36.9192 16.8946 36.9305C16.8862 36.9462 16.8705 36.9598 16.8497 36.9694C16.8289 36.979 16.804 36.9842 16.7784 36.9842C16.7528 36.9842 16.7279 36.979 16.7071 36.9694C16.6863 36.9598 16.6706 36.9462 16.6622 36.9305C16.6614 36.912 16.6706 36.894 16.688 36.8794C16.7055 36.8648 16.7302 36.8546 16.7579 36.8505ZM13.9817 37.9303C15.5961 37.972 17.203 38.1594 18.7819 38.4901C18.7956 38.5035 18.6998 38.8234 18.5494 39.21L18.2759 40.0098C18.2622 40.0764 18.1665 40.0764 17.934 40.0498C16.7989 39.8765 13.5167 39.8898 12.2586 40.0764C11.5338 40.1831 11.438 40.1697 11.4928 40.0231L11.6295 39.5566L11.7116 39.1966L12.45 38.8234C12.9423 38.5786 13.4094 38.2884 13.845 37.9569H13.968L13.9817 37.9303ZM10.2893 39.8232C10.3303 39.8232 10.4124 39.8631 10.5081 39.9298C10.6449 40.0098 10.809 40.0764 10.8773 40.0764C11.2329 40.0764 11.4244 40.5697 11.7252 42.2093L11.8346 42.7958C11.862 42.9291 11.8346 42.9558 11.5201 43.0224C11.1372 43.1024 11.0415 43.1158 11.0415 43.0624C11.0415 42.9291 10.6585 41.2362 10.4944 40.6363C10.4127 40.372 10.3398 40.1053 10.2756 39.8365C10.2777 39.8353 10.2801 39.8347 10.2825 39.8347C10.2849 39.8347 10.2872 39.8353 10.2893 39.8365V39.8232ZM14.2005 40.0898H14.5971L14.4604 40.2231C14.2279 40.4897 14.1185 40.503 13.9544 40.3297C13.8967 40.2717 13.8504 40.2039 13.8176 40.1298C13.8176 40.1031 13.9954 40.0764 14.2005 40.0764V40.0898ZM15.0347 40.0898H15.7732L15.6091 40.2497C15.4177 40.463 15.404 40.463 15.1989 40.2497L15.0347 40.0764V40.0898ZM16.1562 40.0898H16.3339C16.4297 40.0898 16.6074 40.0898 16.7169 40.1164L16.922 40.1564L16.7305 40.3297C16.6211 40.423 16.5254 40.503 16.5117 40.4897L16.3203 40.2764L16.1562 40.0764V40.0898ZM17.3186 40.1298L17.4827 40.1697C17.5784 40.1964 17.7836 40.2097 17.934 40.2231H18.2075L18.0024 40.3964C17.9281 40.4639 17.8454 40.5221 17.7562 40.5697C17.7425 40.5697 17.6195 40.463 17.5237 40.343L17.3186 40.1298ZM13.1885 40.1431H13.2159C13.2296 40.1697 13.1749 40.2764 13.0791 40.3697L12.9424 40.5563L12.7372 40.3964L12.5321 40.2231L12.8603 40.1831L13.1885 40.1431ZM13.5031 40.1697L13.7219 40.3564L13.9407 40.5563L13.5304 40.583L13.1202 40.5963L13.3116 40.3964L13.5031 40.1697ZM15.9647 40.1697C16.0057 40.1697 16.0331 40.1831 16.0741 40.2097C16.1456 40.2753 16.2057 40.3519 16.2519 40.4364C16.3066 40.543 16.2929 40.5697 16.1151 40.5697L15.7732 40.503L15.6091 40.463L15.7869 40.2897C15.869 40.2097 15.9237 40.1564 15.9784 40.1564L15.9647 40.1697ZM14.8296 40.1697C14.898 40.1697 14.9664 40.2097 15.0484 40.343C15.1442 40.4897 15.1442 40.4897 14.7749 40.4897H14.4057L14.5971 40.3164C14.6929 40.2231 14.7749 40.1831 14.8296 40.1831V40.1697ZM17.1545 40.1964L17.3186 40.3564C17.51 40.5297 17.5374 40.6363 17.4006 40.623L17.0177 40.583L16.7169 40.5563L16.9357 40.383L17.1545 40.1964ZM12.3406 40.2897C12.368 40.2897 12.4774 40.3564 12.5595 40.4497L12.7236 40.623L12.3817 40.6763L11.903 40.743C11.8073 40.7696 11.8346 40.703 12.0398 40.5297C12.1765 40.3964 12.3133 40.2897 12.3406 40.2897ZM11.8346 40.2897H11.8893C11.9988 40.3164 11.9988 40.343 11.8073 40.5297L11.6022 40.7296L11.5338 40.5563C11.4791 40.423 11.4928 40.383 11.6158 40.3297C11.6859 40.3043 11.7599 40.2908 11.8346 40.2897ZM18.1254 40.5297C18.1528 40.5297 18.1528 40.5563 18.1254 40.6096C18.0981 40.7163 17.975 40.743 17.975 40.6363C17.975 40.6096 18.016 40.5697 18.0707 40.543H18.1118L18.1254 40.5297ZM15.1989 40.743C16.2519 40.743 17.3186 40.7696 17.5784 40.7963C18.0024 40.8496 18.0434 40.8629 18.0434 41.0229C18.0434 41.2095 17.9887 41.2228 17.4143 41.1295C17.2502 41.0895 16.5527 41.0362 15.8826 40.9829C14.5821 40.9063 13.2769 40.9509 11.9851 41.1162C11.7252 41.1429 11.6569 41.1162 11.6569 41.0362C11.6569 40.8629 13.0518 40.743 15.1989 40.743ZM13.7903 41.1295H14.5287L14.3646 41.3028C14.1595 41.5161 14.1458 41.5161 13.9544 41.3028L13.7903 41.1295ZM14.7476 41.1295L14.939 41.3162L15.1305 41.5294L14.7339 41.5428H14.3373L14.5424 41.3295L14.7339 41.1295H14.7476ZM15.0347 41.1295H15.7732L15.6091 41.3028C15.4177 41.5161 15.404 41.5161 15.1989 41.3028L15.0347 41.1295ZM13.2843 41.1295C13.3116 41.1295 13.2843 41.1962 13.1885 41.3295C13.0928 41.4495 12.9971 41.5428 12.9834 41.5428C12.956 41.5428 12.8603 41.4628 12.7783 41.3695L12.6142 41.1962H12.8603C12.9855 41.1968 13.11 41.1788 13.2296 41.1429C13.2476 41.1393 13.2662 41.1393 13.2843 41.1429V41.1295ZM13.5578 41.1962L13.7356 41.3561L13.9407 41.5294L13.5851 41.5561L13.1885 41.5828L13.38 41.3828L13.5578 41.1962ZM15.9373 41.1962L16.1288 41.4095C16.3476 41.6361 16.3339 41.6494 15.8416 41.5561L15.6091 41.5161L15.7732 41.3561L15.9373 41.1962ZM16.2109 41.1962H16.5391C16.8946 41.1962 16.9357 41.2495 16.7305 41.4361C16.5664 41.5694 16.5664 41.5694 16.375 41.3695L16.2109 41.1962ZM12.0261 41.2628C12.1902 41.2628 12.1765 41.2762 11.9714 41.4761C11.821 41.6228 11.8073 41.6228 11.7526 41.5161C11.7116 41.3828 11.8346 41.2762 12.0261 41.2628ZM17.3323 41.2895C17.387 41.2895 17.4964 41.2895 17.6058 41.3162L17.9203 41.3695L17.7425 41.5294L17.5784 41.6894L17.428 41.5028L17.2912 41.2895H17.3323ZM12.409 41.3561C12.45 41.3561 12.4911 41.3828 12.5595 41.4495C12.6962 41.5828 12.6962 41.5828 12.5868 41.6361C12.4808 41.6701 12.3701 41.688 12.2586 41.6894H12.0398L12.2176 41.5028C12.3133 41.4095 12.3543 41.3695 12.3953 41.3561H12.409ZM17.0724 41.3961C17.1271 41.3961 17.1682 41.4228 17.2365 41.5294L17.3596 41.6894H17.0724C16.881 41.6894 16.7989 41.6627 16.7989 41.6094C16.8263 41.5561 16.8946 41.4761 16.9767 41.4361L17.0724 41.3961ZM17.9477 41.5694C17.975 41.5694 17.975 41.5961 17.975 41.6361C17.975 41.7694 17.8519 41.8627 17.7972 41.7694C17.7836 41.7294 17.8109 41.6627 17.8656 41.6228L17.9477 41.5694ZM14.4057 41.7294C15.5955 41.7294 16.9083 41.8094 17.6878 41.9427L17.9066 41.9827V42.5692C17.9066 43.0091 17.8793 43.1557 17.8109 43.1557L17.1271 43.0224C15.5458 42.7611 13.9347 42.7162 12.3406 42.8891L12.0261 42.9291L11.944 42.4359C11.9101 42.269 11.8917 42.0995 11.8893 41.9294C11.8893 41.9294 12.2039 41.8627 12.5731 41.8227C13.0244 41.7561 13.6945 41.7294 14.4057 41.7294Z" fill="black"/>
<path d="M16.7989 38.3967C16.3886 38.3967 16.1014 38.6767 16.1014 39.0899C16.1014 39.7298 16.8399 40.0497 17.2775 39.5965C17.7152 39.1432 17.4143 38.3967 16.7989 38.3967ZM16.7989 38.5567C16.8707 38.5567 16.9419 38.5705 17.0082 38.5973C17.0746 38.6241 17.1349 38.6634 17.1857 38.7129C17.2365 38.7624 17.2768 38.8212 17.3043 38.8859C17.3318 38.9505 17.3459 39.0199 17.3459 39.0899C17.3459 39.4898 16.8946 39.7564 16.5254 39.5831C16.1561 39.3832 16.1835 38.77 16.5801 38.61C16.6446 38.5803 16.7141 38.5622 16.7852 38.5567H16.7989Z" fill="black"/>
<path d="M11.7662 28.7322C11.7091 28.7356 11.6553 28.7605 11.6149 28.8023C11.5745 28.8442 11.5505 28.8998 11.5474 28.9588C11.5474 29.0243 11.5726 29.0871 11.6175 29.1334C11.6624 29.1798 11.7233 29.2058 11.7867 29.2058C11.8502 29.2058 11.9111 29.1798 11.956 29.1334C12.0009 29.0871 12.0261 29.0243 12.0261 28.9588C12.0245 28.9259 12.0164 28.8937 12.0023 28.8641C11.9882 28.8346 11.9683 28.8084 11.9439 28.7871C11.9195 28.7659 11.8912 28.75 11.8606 28.7406C11.83 28.7311 11.7979 28.7283 11.7662 28.7322ZM11.7799 28.8121C11.8234 28.8121 11.8652 28.8276 11.896 28.8551C11.9267 28.8826 11.944 28.9199 11.944 28.9588C11.944 28.9977 11.9267 29.035 11.896 29.0625C11.8652 29.09 11.8234 29.1054 11.7799 29.1054C11.7364 29.1054 11.6946 29.09 11.6639 29.0625C11.6331 29.035 11.6158 28.9977 11.6158 28.9588C11.6158 28.9395 11.62 28.9205 11.6283 28.9027C11.6365 28.8849 11.6486 28.8687 11.6639 28.8551C11.6791 28.8415 11.6972 28.8307 11.7171 28.8233C11.737 28.8159 11.7584 28.8121 11.7799 28.8121Z" fill="black"/>
</g>
<defs>
<clipPath id="clip0_1_77212">
<rect width="74.6667" height="56" fill="white" transform="translate(0 9.375)"/>
</clipPath>
</defs>
</svg>
